<svg width="500" height="500" viewBox="0 0 500 500" fill="none" xmlns="http://www.w3.org/2000/svg">
<g clip-path="url(#clip0_1375_5244)">
<path d="M495.445 222.019C492.148 204.256 484.737 187.501 473.819 173.098C470.586 168.605 461.914 158.842 466.071 174.736C475.919 210.996 468.381 222.544 468.381 222.544C468.381 222.544 473.063 194.934 454.65 163.755C436.236 132.576 410.453 123.526 410.453 123.526L408.815 128.565C393.656 121.133 367.495 105.806 309.021 108.325C240.28 112.293 187.769 150.191 187.769 150.191C187.769 150.191 213.573 153.446 213.384 153.614C124.424 190.441 31.4951 273.291 31.4951 273.291C84.1742 263.003 144.622 253.975 144.622 253.975C111.616 269.575 74.8939 294.77 61.6244 303.756C48.3549 312.743 32.9228 324.752 31.4951 325.949C30.0673 327.146 11.6328 343.271 11.6328 343.271C50.7905 329.918 59.4618 327.398 101.496 317.824C129.001 311.756 156.842 307.368 184.871 304.659C134.355 329.855 92.4886 368.004 92.4886 368.004C128.266 358.115 164.694 350.704 201.479 345.812C248.762 339.849 276.54 339.303 276.54 339.303C276.183 339.66 271.501 343.502 270.241 344.531C269.632 345.077 268.981 345.581 268.268 345.979C261.927 349.906 254.872 352.614 247.523 353.916C243.765 354.651 239.965 355.134 236.144 355.365L219.725 356.457C242.274 369.453 256.888 372.518 256.888 372.518C255.46 373.421 248.951 375.941 248.951 375.941C246.243 377.033 224.785 384.612 224.785 384.612C269.716 393.263 301.105 388.391 301.105 388.391L299.846 393.074L306.711 392.717C330.353 391.646 342.258 381.001 342.258 381.001C345.848 384.276 350.572 386.04 355.422 385.872H389.541C394.076 385.83 398.38 383.772 401.257 380.266C401.257 380.266 414.988 363.469 417.151 360.593C419.313 357.716 421.119 354.294 420.027 347.428C418.956 344.111 419.145 340.521 420.573 337.329C420.573 337.329 428.153 316.333 433.381 302.14C437.895 284.986 435.018 280.472 435.018 280.472C448.54 273.438 454.503 266.593 454.503 266.593C477.031 263.276 500.484 249.629 495.445 222.019V222.019ZM402.432 347.26L393.593 351.459L371.757 337.56L394.685 345.958L409.109 343.985L402.432 347.26V347.26ZM441.779 268.042C435.585 271.968 428.509 274.32 421.203 274.908H419.103C404.049 274.341 389.142 271.842 374.718 267.475C369.301 240.957 349.816 238.795 349.816 238.795C354.456 242.553 358.152 247.34 360.629 252.778L326.721 245.744C326.721 245.744 340.599 252.778 350.719 258.342C339.885 278.015 361.007 285.952 371.106 283.243C371.106 283.39 371.022 283.516 370.917 283.6C368.461 288.618 365.017 293.09 360.818 296.786C360.818 296.786 375.788 291.369 385.363 279.632C392.858 279.128 400.396 279.023 407.912 279.275C410.453 279.464 412.972 279.821 415.135 280.178C418.389 280.913 420.909 281.795 422.715 282.277C423.407 282.445 424.037 282.823 424.52 283.369C426.62 286.435 423.974 298.171 422.421 301.405C421.161 304.302 412.322 327.755 409.823 336.783L402.789 335.691L371.295 330.652C367.432 330.085 363.695 332.248 362.267 335.88L357.228 349.591C356.157 352.467 356.766 355.722 358.845 357.989L369.49 364.855C371.127 366.01 373.08 366.64 375.095 366.661L390.969 367.018L398.191 367.206C395.483 370.272 392.774 373.505 390.78 376.235H355.401C341.691 376.235 332.851 350.788 332.851 350.788C332.578 355.554 332.872 360.341 333.754 365.044C333.901 365.632 334.027 366.241 334.111 366.85L334.825 369.915C335.014 370.461 335.203 370.986 335.371 371.532C335.56 372.078 335.728 372.435 335.917 372.98C329.177 378.208 321.115 381.463 312.632 382.366L314.732 374.597L305.851 377.201C305.662 377.201 292.665 381.001 265.79 379.3C268.771 377.788 271.627 376.067 274.356 374.135L288.445 364.204C288.445 364.204 268.939 364.393 256.132 361.328C262.809 359.228 281.327 348.331 289.726 339.135C296.591 331.975 304.297 325.634 312.632 320.238C308.853 320.574 305.095 321.288 301.441 322.338C299.468 322.905 297.536 323.619 295.667 324.438L294.408 324.983C292.056 326.075 289.81 327.398 287.731 328.952C236.396 330.358 185.312 336.405 135.069 347.008C137.168 345.56 139.268 344.111 141.556 342.494C164.232 326.789 188.483 313.478 213.93 302.791L241.351 291.6L231.063 292.146L211.767 293.048C150.879 295.757 93.2025 308.753 60.1757 317.593L70.4638 310.37C98.6195 291.054 140.486 264.893 181.617 249.482L222.055 234.322L179.286 239.55C139.226 244.422 93.3914 252.148 68.0072 256.704L78.8202 248.306C114.01 221.431 178.446 176.142 235.829 156.826L257.119 149.603L218.675 144.732C282.923 111.706 362.876 110.446 410.327 142.927L413.938 145.992L415.555 140.575L416.101 138.601C435.417 149.1 457.61 177.759 457.421 216.56C457.547 241.314 452.676 260.085 441.842 268.021H441.779V268.042ZM372.723 275.895C363.527 280.598 349.984 271.926 361.175 258.048L362.813 258.405C364.43 263.255 365.395 268.273 365.689 273.375C367.999 274.194 370.35 274.887 372.723 275.475V275.895ZM487.865 228.801C487.508 246.122 474.155 252.988 461.158 256.242C462.733 252.589 463.951 248.768 464.77 244.862C465.672 240.81 466.323 236.716 466.743 232.601C484.968 230.795 475.142 191.26 475.142 191.26L478.039 196.509C478.396 197.054 478.564 197.768 478.942 198.314L480.202 200.834C485.43 211.836 487.592 220.864 487.781 228.129L487.865 228.801Z" fill="#003058"/>
<path d="M219.156 292.209L231.25 291.663L241.349 291.306L219.156 292.209Z" fill="#0C233F"/>
<path d="M362.981 258.468L361.365 258.111C350.174 271.989 363.716 280.472 372.912 275.958V275.601C370.813 275.055 368.398 274.341 365.879 273.627C365.459 268.483 364.493 263.402 362.981 258.468Z" fill="#BA1C21"/>
<path d="M294.596 204.865C295.667 184.289 313.492 171.838 325.439 165.707C327.98 164.805 330.499 164.091 332.851 163.356C311.183 169.865 285.568 181.769 282.859 200.708V201.086C281.242 209.169 283.447 217.568 288.822 223.825C294.407 230.669 302.889 235.183 309.818 235.183C314.143 235.183 319.371 231.572 323.529 227.058C300.916 226.512 294.05 213.347 294.596 204.865V204.865Z" fill="white"/>
<path d="M475.413 191.323C475.958 192.225 476.315 192.96 476.672 193.674C476.21 192.918 475.79 192.12 475.413 191.323C475.224 191.155 485.155 230.858 467.014 232.664C466.468 237.178 465.754 241.062 465.02 244.926C475.224 241.671 491.999 230.501 475.413 191.323Z" fill="white"/>
<path d="M443.647 210.093C439.49 175.093 412.615 164.595 412.615 164.595C412.615 164.595 427.774 168.395 434.262 170.893C417.465 155.209 400.164 143.599 366.046 137.699L386.265 136.964C327.245 110.089 253.801 138.413 253.801 138.413L286.66 144.921C247.481 158.695 209.268 175.03 172.231 193.821L203.725 190.567C203.725 190.567 153.188 205.264 78.8408 247.592C76.4892 249.398 74.3267 251.014 72.353 252.652V252.778C101.58 242.133 157.345 226.617 222.118 233.483L191.989 237.262L222.307 233.483L181.973 248.726C141.031 264.242 98.976 290.403 70.8203 309.719C105.758 295.19 141.934 283.873 178.908 275.874L155.287 290.13C155.287 290.13 188.671 285.931 241.707 290.865H241.539L219.346 291.768L241.707 290.865L214.286 302.056C188.86 312.743 164.61 326.033 141.934 341.759C169.712 330.191 209.772 315.409 246.221 308.544C246.221 308.544 233.246 319.378 226.926 324.795C253.801 320.091 292.245 321.351 301.819 321.729C305.472 320.679 309.209 319.965 312.989 319.629C304.695 325.088 297.011 331.429 290.082 338.526C281.684 347.911 263.186 358.724 256.488 360.719C285.736 360.173 297.284 355.302 297.284 355.302C296.024 362.881 289.158 369.999 289.158 369.999C302.281 368.718 314.899 364.33 325.964 357.191L324.348 369.285C327.812 368.214 331.003 366.409 333.733 364.036V364.414C332.851 359.711 332.557 354.924 332.83 350.158C332.83 350.158 344.021 368.382 351.957 369.642C357.731 370.545 377.573 370.713 388.05 370.713C389.351 369.495 390.443 368.067 391.304 366.514L375.41 366.136C373.394 366.157 371.442 365.527 369.825 364.33L359.201 357.758C357.123 355.491 356.472 352.236 357.563 349.36L362.623 335.628C364.009 331.954 367.788 329.771 371.652 330.4L403.041 335.461C404.49 330.212 409.55 310.265 414.421 300.271C419.292 290.277 415.324 279.695 415.324 279.695C412.951 279.107 410.536 278.792 408.101 278.792C399.262 278.435 385.551 279.149 385.551 279.149C378.874 286.75 370.455 292.65 361.007 296.303C365.206 292.608 368.649 288.135 371.106 283.117C345.659 288.891 338.079 273.375 338.079 273.375C341.48 273.9 344.966 273.9 348.367 273.375C336.819 270.856 329.954 260.022 329.954 260.022L347.653 261.281C336.63 258.573 326.888 245.219 326.888 245.219L360.818 252.274C358.298 246.899 354.582 242.154 349.942 238.438C349.942 238.438 369.447 240.537 374.843 267.118C389.96 271.654 405.623 274.152 421.412 274.53H419.313C422.546 272.283 425.507 269.68 428.152 266.761H415.156C415.156 266.761 426.346 263.507 432.477 261.533C439.868 251.434 446.524 234.826 443.647 210.093V210.093ZM357.752 156.868C350.362 162.999 324.369 178.158 317.503 192.414C326.216 189.16 335.937 189.916 344.042 194.514C336.084 194.43 328.253 196.404 321.303 200.288C322.773 200.729 324.285 200.981 325.817 201.023C333.019 201.38 340.515 205.348 340.242 214.901C339.885 227.352 324.012 245.219 309.755 245.219C302.491 244.989 295.457 242.595 289.536 238.375C284.455 247.445 281.033 257.334 279.437 267.601L293.861 255.864C291.762 266.971 291.825 278.372 294.05 289.458C294.05 289.458 303.625 279.527 306.501 276.105C300.013 296.135 299.824 301.741 298.103 315.619C282.23 291.978 283.846 275.559 283.846 275.559L271.396 285.133C269.821 269.554 272.508 253.828 279.164 239.656L267.427 240.915C268.456 237.367 270.094 234.029 272.256 231.026C273.663 228.927 275.238 226.953 276.939 225.084C271.921 217.274 270.304 207.763 272.445 198.734C274.965 182.315 288.507 168.227 314.312 159.388C329.009 154.349 348.409 152.165 355.632 152.711C358.34 153.068 359.369 155.608 357.752 156.868V156.868ZM387.357 263.276C387.357 263.276 383.158 250.468 370.56 232.958C387.525 246.122 391.682 257.145 391.682 257.145C397.603 260.673 403.818 263.675 410.264 266.153C402.432 268.567 387.357 263.276 387.357 263.276Z" fill="white"/>
<path d="M308.496 187.186C312.695 180.153 321.471 171.838 335.203 162.453C331.948 163.356 328.694 164.448 325.271 165.518C313.367 171.67 295.667 184.121 294.407 204.676C293.861 213.348 300.706 226.344 323.277 226.89C326.888 222.922 329.576 218.219 329.576 214.607C329.576 213.348 329.765 211.542 324.894 211.374C319.477 211.269 314.27 209.358 310.049 205.957C309.398 208.98 309.105 212.067 309.147 215.153C298.648 202.891 308.433 187.186 308.433 187.186H308.496V187.186ZM410.263 266.216C403.818 263.738 397.603 260.736 391.682 257.208C391.682 257.208 387.735 246.185 370.56 233.021C383.368 250.343 387.357 263.339 387.357 263.339C387.357 263.339 402.432 268.567 410.263 266.216ZM326.72 245.66C326.72 245.66 336.273 259.014 347.464 261.701L329.786 260.442C329.786 260.442 336.63 271.465 348.178 273.795C344.777 274.446 341.312 274.446 337.911 273.795C337.911 273.795 345.491 289.143 370.917 283.537C370.938 283.411 371.001 283.285 371.106 283.18C361.007 285.889 340.074 278.141 350.719 258.279C340.599 252.778 326.72 245.66 326.72 245.66ZM222.055 233.735C156.967 226.89 101.139 242.574 71.9121 253.219C71.3662 253.765 70.6523 254.122 70.1064 254.668H69.9175C69.3716 255.214 68.6577 255.571 68.1118 256.116C93.559 251.602 139.225 243.855 179.391 238.984L222.055 233.735V233.735ZM294.407 324.879C294.764 324.69 295.667 324.333 295.667 324.333C296.066 324.102 296.486 323.934 296.927 323.787C296.927 323.787 301.126 322.338 301.441 322.17C301.441 322.17 257.349 320.07 226.569 325.235C232.868 320.007 245.864 308.985 245.864 308.985C209.415 315.85 169.544 330.652 141.556 342.2C139.225 343.817 137.042 345.266 135.068 346.714C185.312 336.09 236.395 330.044 287.731 328.658C289.83 327.188 292.056 325.907 294.407 324.879V324.879ZM241.35 291.285C188.482 286.372 155.098 290.571 155.098 290.571L178.74 276.126C141.766 284.02 105.59 295.316 70.6943 309.887C69.4136 310.79 68.3428 311.525 67.251 312.239C67.167 312.239 67.083 312.323 67.083 312.407C67.083 312.407 66.894 312.428 66.894 312.596C66.894 312.764 66.7261 312.785 66.5371 312.785C66.0962 313.142 65.6133 313.457 65.0884 313.688C64.7524 313.856 64.4375 314.108 64.1855 314.401C64.0176 314.59 63.8286 314.59 63.8286 314.758C63.5557 314.905 63.3247 315.094 63.1147 315.304C62.2119 315.85 61.477 316.564 60.5742 317.11C93.601 308.271 151.172 295.274 212.166 292.566L241.35 291.285V291.285ZM335.371 371.406C335.203 370.86 335.014 370.335 334.825 369.789C334.825 369.6 334.657 369.432 334.657 369.243C334.468 368.697 334.3 367.983 334.111 367.438C334.111 367.249 333.922 366.892 333.922 366.724C333.754 366.178 333.754 365.632 333.565 364.918V364.54C330.835 366.934 327.644 368.718 324.18 369.789L325.817 357.695C314.731 364.834 302.113 369.243 288.99 370.503C288.99 370.503 295.667 363.28 297.116 355.701C297.116 355.701 285.568 360.572 256.341 361.118C269.149 364.372 288.633 364.015 288.633 364.015L274.566 373.925C271.795 375.878 268.897 377.642 265.895 379.174C292.791 380.791 305.787 377.075 305.955 377.075L314.794 374.366L312.821 382.114C321.324 381.253 329.387 377.999 336.105 372.729C335.749 372.372 335.497 371.952 335.371 371.469V371.406V371.406ZM416.226 138.098L415.68 140.092L414.064 145.488L410.452 142.423C362.98 109.774 282.859 111.202 218.8 144.228L257.244 149.1L235.933 156.322C178.551 175.639 113.946 220.927 78.9458 247.823C153.293 205.411 203.83 190.798 203.83 190.798L172.336 194.031C209.373 175.261 247.586 158.926 286.765 145.131L253.906 138.644C253.906 138.644 327.434 110.299 386.265 137.3L366.046 138.014C400.164 143.977 417.486 155.524 434.262 171.229C427.774 168.71 412.615 164.931 412.615 164.931C412.615 164.931 439.49 175.429 443.647 210.408C446.545 235.12 439.868 251.728 432.288 262.205C426.325 264.179 414.967 267.433 414.967 267.433H427.942C425.318 270.352 422.336 272.955 419.103 275.181H421.202C428.257 274.278 436.362 272.304 441.779 268.336C452.613 260.4 457.484 241.629 457.484 216.371C457.715 177.444 435.522 148.743 416.226 138.098V138.098ZM487.865 228.15C487.865 220.927 485.765 211.899 480.285 200.855C479.949 200.162 479.592 199.511 479.194 198.86C479.194 198.692 479.026 198.692 479.026 198.503C478.648 197.957 478.48 197.244 478.123 196.698C477.934 196.53 477.934 196.341 477.766 196.173C477.43 195.585 477.115 194.997 476.863 194.367C476.674 194.178 476.674 193.989 476.485 193.821C476.128 193.086 475.582 192.372 475.225 191.47C491.833 230.627 475.057 241.86 464.727 245.073C463.887 248.957 462.712 252.778 461.221 256.473C474.217 253.24 487.571 246.374 487.928 229.053V228.15H487.865V228.15ZM423.806 282.739C423.617 282.739 423.428 282.55 423.26 282.55H423.071C422.903 282.55 422.714 282.383 422.525 282.383H422.357C419.922 281.375 417.381 280.661 414.778 280.283C414.778 280.283 418.746 291.096 413.875 300.859C409.004 310.622 403.944 330.631 402.495 336.048L409.55 337.119C412.258 328.091 420.908 304.638 422.147 301.762C423.596 298.507 426.346 286.771 424.142 283.705C424.163 283.369 424.037 283.054 423.806 282.823V282.739ZM371.652 337.329L393.488 351.229L402.327 347.029L408.815 343.964L394.39 346.064L371.652 337.329V337.329ZM387.882 371.091C377.384 371.091 357.563 370.902 351.79 369.999C343.853 368.739 332.662 350.515 332.662 350.515C332.662 350.515 341.333 375.962 355.233 375.962H390.779C392.753 373.253 395.461 369.999 398.17 366.934L390.947 366.745C390.233 368.445 389.204 369.978 387.882 371.259V371.091V371.091Z" fill="#C2C5C7"/>
<path d="M355.591 152.9C348.369 152.354 329.052 154.516 314.271 159.577C288.467 168.416 274.924 182.483 272.405 198.902C270.452 207.93 272.048 217.379 276.898 225.252C275.218 227.142 273.665 229.115 272.258 231.215C270.116 234.238 268.458 237.598 267.387 241.146L279.124 239.865C272.384 254.017 269.696 269.764 271.355 285.343L283.764 275.874C283.764 275.874 282.147 292.293 298.02 315.934C299.07 302.455 301.883 289.164 306.418 276.42C303.353 279.653 293.968 289.773 293.968 289.773C291.763 278.75 291.7 267.433 293.779 256.389L279.354 268.105C281.034 257.859 284.436 247.97 289.454 238.879C295.353 243.141 302.387 245.534 309.673 245.744C323.929 245.744 339.802 227.877 340.159 215.426C340.516 205.852 332.936 202.073 325.735 201.527C324.223 201.38 322.711 201.149 321.221 200.792C328.17 196.907 336.002 194.913 343.959 195.018C335.855 190.42 326.134 189.664 317.42 192.918C324.286 178.662 350.279 163.524 357.67 157.372C359.37 155.608 358.342 153.068 355.591 152.9V152.9ZM308.497 187.186C308.497 187.186 298.734 202.702 309.568 215.153C309.526 212.067 309.841 208.98 310.471 205.957C314.628 209.421 319.856 211.332 325.273 211.374C329.955 211.731 329.955 213.347 329.955 214.607C329.787 222.019 318.05 234.994 309.925 234.994C303.08 234.994 294.598 230.501 288.929 223.635C285.695 219.667 280.53 211.374 282.987 200.897V200.54C285.926 180.867 313.368 168.794 335.372 162.495C321.305 172.027 312.633 180.153 308.497 187.186V187.186Z" fill="#003058"/>
<path d="M493.279 200.288C488.702 188.992 482.55 178.389 475.055 168.794C469.995 162.642 467.097 161.214 464.032 162.831C462.205 163.902 461.155 165.938 461.323 168.059C455.444 156.07 447.361 145.299 437.514 136.292C428.947 128.544 419.058 122.435 408.287 118.256L406.839 122.938C394.745 116.808 365.518 102.194 314.981 104.189C281.093 105.638 247.856 114.036 217.349 128.901C204.899 134.507 176.743 152.354 176.743 152.354L199.671 155.251C176.617 166.085 154.298 178.431 132.903 192.246C116.295 202.388 91.6878 219.835 81.8197 227.415C66.8495 238.249 47.0082 254.71 47.0082 254.71L17.9497 279.212L32.206 276.336C32.206 276.336 55.4906 271.989 65.4008 270.184C75.3109 268.378 122.804 260.442 122.804 260.442C110.584 266.593 86.5228 281.921 76.5917 288.471C66.6605 295.022 43.5649 310.853 27.5029 324.039C17.6767 331.807 8.50145 340.374 0.0820312 349.654C10.0132 346.945 26.789 341.255 37.623 337.749C48.4569 334.243 61.0756 330.337 93.1995 322.779C125.323 315.22 166.098 309.782 166.098 309.782C151.401 318.076 137.228 327.65 131.643 331.429C119.718 339.555 107.456 349.654 107.456 349.654L77.4945 374.849C77.4945 374.849 112.138 366.01 127.486 362.251C142.834 358.493 164.124 354.672 176.743 352.509C189.361 350.347 203.282 348.73 221.317 346.546C239.353 344.363 264.989 342.956 264.989 342.956C253.798 349.801 239.017 350.704 239.017 350.704L207.796 352.698C207.796 352.698 220.058 360.446 224.215 362.44C231.291 366.304 238.639 369.621 246.219 372.351L211.575 384.822L221.674 386.922C233.222 389.357 244.917 391.037 256.696 391.961C269.902 393.2 283.193 393.2 296.399 391.961L295.308 396.307C295.308 396.307 300.914 396.118 309.564 395.761C321.364 395.341 332.786 391.625 342.591 385.053C346.559 387.678 351.199 389.042 355.944 389.021H388.068C393.674 389.567 399.238 387.573 403.227 383.604C404.361 382.513 405.39 381.295 406.293 379.993L417.295 366.64C419.436 364.099 421.368 361.37 423.069 358.514C426.134 352.74 424.517 346.609 423.971 343.817C423.593 342.242 423.719 340.605 424.328 339.114C424.328 339.114 430.837 321.078 436.065 306.633C439.152 298.717 440.516 290.214 440.033 281.732C446.143 278.393 451.791 274.257 456.83 269.449C482.214 265.859 496.912 250.154 499.41 237.178C501.573 225.252 497.248 210.471 493.279 200.288V200.288ZM454.647 266.698C454.647 266.698 448.705 273.375 435.162 280.577C435.162 280.577 437.871 285.091 433.546 302.245C428.318 316.501 420.738 337.434 420.738 337.434C419.289 340.605 419.1 344.216 420.192 347.533C421.263 352.131 420.192 356.981 417.295 360.698C415.195 363.784 401.422 380.371 401.422 380.371C398.566 383.94 394.241 385.998 389.685 385.977H355.587C350.716 386.145 345.992 384.381 342.402 381.106C342.402 381.106 330.497 391.751 306.855 392.822L300.011 393.179L301.27 388.497C301.27 388.497 269.776 393.368 224.929 384.717C224.929 384.717 246.219 377.138 249.116 376.046C249.116 376.046 255.415 373.526 257.053 372.624C257.053 372.624 242.355 369.558 219.89 356.562L236.309 355.47C240.13 355.344 243.93 354.861 247.667 354.021C255.037 352.719 262.071 350.011 268.433 346.085C268.433 346.085 269.146 345.539 270.406 344.636C271.666 343.733 276.369 339.765 276.705 339.408C276.705 339.408 249.095 339.954 201.623 345.917C164.817 350.725 128.389 358.136 92.6326 368.109C92.6326 368.109 134.499 330.023 185.015 304.764C157.007 307.452 129.166 311.819 101.682 317.866C59.8158 327.44 50.9765 329.96 11.8188 343.313C11.8188 343.313 30.2114 327.083 31.6601 325.991C33.1088 324.9 48.6249 312.827 61.7894 303.798C74.954 294.77 111.781 269.575 144.808 253.954C144.808 253.954 84.5282 262.982 31.6601 273.27C31.6601 273.27 124.589 190.609 213.57 153.593C213.738 153.593 187.934 150.17 187.934 150.17C187.934 150.17 240.634 112.377 309.207 108.304C367.492 105.596 393.842 121.112 409.001 128.502L410.618 123.463C410.618 123.463 436.422 132.492 454.836 163.692C473.249 194.892 468.546 222.481 468.546 222.481C468.546 222.481 476.126 210.933 466.194 174.673C461.995 158.779 470.709 168.542 473.963 173.035C484.965 187.396 492.377 204.151 495.61 221.956C500.481 249.629 477.217 263.276 454.647 266.593V266.698V266.698Z" fill="#BA1C21"/>
</g>
<defs>
<clipPath id="clip0_1375_5244">
<rect width="500" height="292.328" fill="white" transform="translate(0 104)"/>
</clipPath>
</defs>
</svg>
