<?xml version="1.0" encoding="UTF-8" standalone="no"?>
<svg width="250px" height="250px" viewBox="0 0 250 250" version="1.1" xmlns="http://www.w3.org/2000/svg" xmlns:xlink="http://www.w3.org/1999/xlink">
    <!-- Generator: Sketch 50.2 (55047) - http://www.bohemiancoding.com/sketch -->
    <title>No Logo</title>
    <desc>Created with Sketch.</desc>
    <defs>
        <path d="M112.325784,0.119269341 C112.325784,0.119269341 53.326058,35.9340974 1.51539969,35.9340974 C1.51539969,35.9340974 -21.551685,217.409026 112.325784,249.641834 C211.728879,225.709169 224.609248,119.502865 224.651567,66.3904011 L224.651567,65.8617479 C224.637108,47.7367479 223.13652,35.9340974 223.13652,35.9340974 C171.325157,35.9340974 112.325784,0.119269341 112.325784,0.119269341 Z" id="path-1"></path>
        <linearGradient x1="49.9999174%" y1="98.4051045%" x2="49.9999174%" y2="-9.38106085%" id="linearGradient-3">
            <stop stop-color="#5E5F61" offset="0%"></stop>
            <stop stop-color="#3B3A3C" offset="100%"></stop>
        </linearGradient>
    </defs>
    <g id="No-Logo" stroke="none" stroke-width="1" fill="none" fill-rule="evenodd">
        <g id="Group" transform="translate(13.000000, 0.000000)">
            <g id="Group-3" transform="translate(0.000000, 0.238897)">
                <mask id="mask-2" fill="white">
                    <use xlink:href="#path-1"></use>
                </mask>
                <g id="Clip-2"></g>
                <path d="M112.325784,0.119269341 C112.325784,0.119269341 53.326058,35.9340974 1.51539969,35.9340974 C1.51539969,35.9340974 -21.551685,217.409026 112.325784,249.641834 C211.728879,225.709169 224.609248,119.502865 224.651567,66.3904011 L224.651567,65.8617479 C224.637108,47.7367479 223.13652,35.9340974 223.13652,35.9340974 C171.325157,35.9340974 112.325784,0.119269341 112.325784,0.119269341 Z" id="Fill-1" fill="url(#linearGradient-3)" mask="url(#mask-2)"></path>
            </g>
            <path d="M112.510803,224.611111 C101.092853,221.412219 90.6907388,216.62919 81.5485383,210.369851 C72.5087749,204.180401 64.4361575,196.366877 57.5554786,187.145934 C45.6560111,171.199397 36.9659252,150.71211 31.7258217,126.253166 C25.6371339,97.8305499 25.6580007,70.8150207 26.3744285,55.7470807 C62.0301488,51.871935 97.5473892,33.8137697 112.510487,25.3888889 C127.471055,33.8121057 162.981656,51.8662774 198.631369,55.7450838 C199.344319,70.9877449 199.355385,98.4282622 193.137386,126.983 C181.586015,180.032293 154.468938,212.858877 112.510803,224.611111" id="Fill-4" fill="#FEFEFE"></path>
        </g>
    </g>
</svg>