<?xml version="1.0" encoding="UTF-8" standalone="no"?>
<svg width="250px" height="250px" viewBox="0 0 250 250" version="1.1" xmlns="http://www.w3.org/2000/svg" xmlns:xlink="http://www.w3.org/1999/xlink">
    <!-- Generator: Sketch 47.1 (45422) - http://www.bohemiancoding.com/sketch -->
    <title>ALBANY</title>
    <desc>Created with Sketch.</desc>
    <defs></defs>
    <g id="Page-1" stroke="none" stroke-width="1" fill="none" fill-rule="evenodd">
        <g id="ALBANY">
            <g id="Albany_Great_Danes_logo" transform="translate(0.000000, 39.000000)">
                <g id="Group" transform="translate(125.021531, 86.375598) scale(-1, 1) rotate(-180.000000) translate(-125.021531, -86.375598) translate(0.171053, 1.148325)">
                    <g transform="translate(1.450359, 1.001794)" id="Shape">
                        <polygon fill="#FFFFFF" fill-rule="nonzero" points="234.529194 23.7683164 215.887971 34.3908867 183.919333 45.8158269 150.845544 52.8327789 123.617954 54.4173333 92.8150232 52.8327789 60.8489085 45.215311 20.6597638 28.3781586 7.18095843 20.2106385 0.620701256 76.7373467 7.43075284 81.9956452 11.4400792 84.4027549 18.5554351 88.7098161 31.4841881 95.2246561 58.7445798 105.546968 89.613113 113.063509 121.813883 116.240188 150.59575 113.815416 178.206863 108.153409 197.448602 102.943051 217.091526 94.7250673 231.922753 86.7064145 239.34089 81.6953873 246.494094 76.4900755"></polygon>
                        <g>
                            <path d="M151.567173,50.0093451 L155.566406,37.5398101 L159.535362,25.1308313 L150.954041,25.0980301 L142.375243,25.0677519 L142.375243,12.9312762 L142.375243,0.797323565 L172.231983,0.797323565 L202.091246,0.797323565 L202.091246,12.9312762 L202.091246,25.0677519 L196.598292,24.9996262 L191.102815,24.9289773 L187.908474,33.9039137 L184.714134,42.876327 C184.714134,42.876327 172.665969,46.1640251 168.278166,47.1026465 C164.42023,47.9302482 151.567173,50.0093451 151.567173,50.0093451 L151.567173,50.0093451 Z M160.562294,114.801977 L151.165988,141.184304 L141.794913,167.942584 L123.857656,167.942584 L105.917875,167.942584 L96.3954097,141.434098 L86.8502355,114.650587 C86.8502355,114.650587 97.5989646,116.179631 101.055715,116.530353 C105.408194,116.971909 114.284726,117.506822 114.284726,117.506822 L118.344516,129.307715 L122.252916,140.881523 L126.110852,129.358179 L129.968787,117.832312 C143.498056,117.206564 143.694864,117.019849 145.327359,116.906306 C148.534315,116.681743 160.562294,114.801977 160.562294,114.801977 L160.562294,114.801977 Z M92.2876794,49.2826705 L88.2733067,37.1209629 L84.2564107,24.9617786 L92.8907185,25.0122421 L101.525026,25.0627056 L101.525026,12.9262298 L101.525026,0.789754037 L73.0207087,0.73929052 L44.5163913,0.688827004 L44.5163913,12.8253028 L44.5163913,24.9617786 L50.1430734,24.9617786 L55.7722787,24.9617786 L58.7824275,33.5658082 L61.7925763,42.7703536 C72.4429015,45.9747869 71.7666903,45.4247346 77.0779755,46.6509981 C80.1764354,47.36758 92.2876794,49.2826705 92.2876794,49.2826705 L92.2876794,49.2826705 Z" stroke="#46166B" stroke-width="6.0328125"></path>
                            <path d="M0.0201854067,77.3353394 C74.6052632,128.023419 172.577658,128.023419 247.162735,77.3353394" stroke="#46166B" stroke-width="2.0098125"></path>
                            <path d="M105.928977,0.688423295 L96.411558,27.1979179 L86.8618421,53.9819341 C86.8618421,53.9819341 97.6111767,52.4521023 101.070552,52.1013808 C105.420507,51.6598251 114.297443,51.1236603 114.297443,51.1236603 L118.354306,39.3238771 L122.265229,27.7487575 L126.12488,39.2726062 L129.980697,50.8002901 C143.509966,51.4260377 143.705562,51.6106938 145.34058,51.7267599 C148.547638,51.9513225 160.574305,53.8280607 160.574305,53.8280607 L151.180016,27.4497712 L141.807932,0.687959031 L123.869767,0.687959031 L105.927564,0.687959031 L105.928977,0.688423295 Z M151.578275,118.62368 L155.57983,131.093619 L159.545858,143.500579 L150.96706,143.536065 L142.388263,143.563659 L142.388263,155.702557 L142.388263,167.833583 L172.244498,167.833583 L202.10477,167.833583 L202.10477,155.702557 L202.10477,143.563659 L196.608889,143.630674 L191.113008,143.701646 L187.919677,134.728627 L184.726346,125.755609 C184.726346,125.755609 172.67808,122.46781 168.290176,121.529188 C164.432342,120.701586 151.578073,118.623499 151.578073,118.623499 L151.578275,118.62368 Z M92.2997907,119.349104 C92.2997907,119.349104 80.1881429,121.266092 77.089683,121.982694 C71.7784988,123.208957 72.4551136,122.657653 61.8046875,125.862127 L58.7926211,135.067682 L55.7845918,143.670096 L50.15468,143.670096 L44.5288053,143.670096 L44.5288053,155.804957 L44.5288053,167.943855 L73.0326181,167.892605 L101.540468,167.841354 L101.540468,155.706493 L101.540468,143.567595 L92.906564,143.618846 L84.2686229,143.670096 L88.2859225,131.511619 L92.299387,119.349104 L92.2997907,119.349104 Z" stroke="#FFFFFF" stroke-width="2.01015" transform="translate(123.316788, 84.315907) scale(-1, 1) rotate(-180.000000) translate(-123.316788, -84.315907) "></path>
                        </g>
                        <path d="M106.286259,1.18215834 L86.9970843,55.2124365 C86.9970843,55.2124365 98.1325658,53.7144572 101.52109,53.3713053 C105.785257,52.9373191 113.281512,52.4132857 113.281512,52.4132857 L122.293892,27.7023109 L131.057992,52.0943563 C144.317382,52.707488 143.305689,52.8915184 144.907805,53.0050613 C148.051682,53.2245776 160.437246,55.0670006 160.437246,55.0670006 L141.446411,1.18205742 L106.28747,1.18205742 L106.286259,1.18215834 Z M92.3199761,117.381471 C92.3199761,117.381471 79.8472114,119.25839 76.8143541,119.959753 C71.6089414,121.163307 73.4738711,120.625407 63.0353917,123.764298 L56.5342778,144.226245 L44.900015,144.226245 L44.900015,167.411203 L100.773221,167.312638 L100.773221,144.127679 L83.2450209,144.226245 L92.3205816,117.381672 L92.3199761,117.381471 Z" fill="#EEB211" fill-rule="nonzero" transform="translate(102.668630, 84.296630) scale(-1, 1) rotate(-180.000000) translate(-102.668630, -84.296630) "></path>
                        <path d="M217.674379,33.3563846 C155.750598,61.530166 91.2607469,61.530166 29.3369655,33.3563846" stroke="#46166B" stroke-width="2.514375"></path>
                        <path d="M118.421725,14.0622194 C113.294632,14.185855 108.171374,14.4941467 103.061842,14.9886892 L103.061842,22.2231389 C103.929815,22.1398741 104.799846,22.0637146 105.667778,21.9905425 L105.667778,58.0295676 C104.799806,58.1027397 103.929774,58.1830978 103.061842,58.2661204 L103.061842,65.8158662 C107.654022,65.3743104 112.260938,65.0790989 116.868257,64.9327547 C126.711065,64.6728676 130.886214,61.3353115 130.883792,50.6295773 C130.883792,43.2441407 128.331549,38.8281793 123.219595,37.9702995 L123.219595,37.4262423 C127.705801,36.3387535 129.764107,32.9291355 129.764107,26.4623368 C129.764107,17.6917776 126.208246,13.9017656 118.421725,14.0632488 L118.421725,14.0622194 Z M141.923594,14.77975 C138.96401,28.9523278 135.996755,43.1846543 133.029501,57.4799594 C132.855401,57.4724908 132.6832,57.463811 132.509101,57.4563021 L132.509101,65.0060479 C136.679809,65.180147 140.844664,65.4742484 145.002858,65.8930956 L145.002858,58.3393127 C144.071806,58.2484784 143.142652,58.1636997 142.21162,58.083059 C142.668315,55.4236316 143.122951,52.7644061 143.579646,50.1074011 C146.746332,50.4026126 149.907367,50.7708348 153.061337,51.2073442 C153.472614,53.9626523 153.88153,56.718364 154.295331,59.4787183 C153.429882,59.3525596 152.562697,59.2359888 151.697267,59.1199631 L151.697267,66.6658737 C156.029661,67.2386346 160.348733,67.9452853 164.648224,68.7829192 L164.648224,61.2331733 C164.03257,61.1145841 163.416289,60.9957324 162.803157,60.8822904 C159.914222,45.9198577 157.014184,31.0159627 154.11011,16.1756517 C150.05789,15.592798 145.996384,15.1282107 141.923978,14.7800125 L141.923594,14.77975 Z M88.6381579,16.8731786 C83.7078723,17.6881644 78.7981758,18.6761391 73.9209779,19.8418463 L73.9209779,27.0801313 C74.7738113,26.8757541 75.6282192,26.6791078 76.4835153,26.4848233 L76.4835153,62.5238484 C75.6281586,62.718133 74.7737507,62.9147792 73.9209779,63.1191564 L73.9209779,70.6689023 C82.4771681,68.6277539 91.1308538,67.1223263 99.8309659,66.1508027 L99.8309659,48.1692387 C97.16407,48.4669734 94.5018167,48.8153332 91.8474357,49.213995 L91.8474357,59.6458131 C89.5614384,59.9864419 87.2806893,60.3688544 85.0072069,60.7851784 L85.0072069,24.7441348 C86.2158082,24.5246185 87.4270335,24.3126717 88.6381579,24.1133408 L88.6381579,16.8750558 L88.6381579,16.8731786 Z M166.911109,18.4107414 L166.911109,25.6490264 C167.92038,25.85845 168.928237,26.0710225 169.934883,26.2955851 L169.934883,62.3346102 C168.928136,62.1125708 167.920279,61.8974751 166.911109,61.6880515 L166.911109,69.2377973 C171.563846,70.1966041 176.189937,71.3132608 180.784539,72.5849414 L180.784539,65.0351956 C179.714713,64.739984 178.647712,64.4532907 177.575464,64.1757414 C177.497245,52.2915832 177.415716,40.4033879 177.334975,28.520239 C180.698267,43.772736 184.047026,59.1051672 187.372572,74.5247994 C191.450024,75.7939568 195.49962,77.1902823 199.51147,78.7116564 L199.51147,35.1232892 C200.485416,35.4916729 201.457484,35.8673031 202.428867,36.2508258 L202.428867,29.0125409 C197.937614,27.2362251 193.40054,25.6163462 188.823499,24.1555283 L188.823499,31.3899781 C189.835292,31.7129446 190.842039,32.0428549 191.85131,32.3834836 C191.85131,32.3834836 192.196521,59.3673353 192.880281,68.3982862 C192.882703,68.3881935 189.034759,51.0612423 188.618536,49.1510972 C186.824558,40.2241011 185.025332,31.3239516 183.221362,22.4458042 C177.826812,20.8839583 172.386643,19.5405186 166.911352,18.4127599 L166.911109,18.4107414 Z M116.062051,21.0560389 C119.92251,20.9298801 121.289668,23.0465017 121.289668,28.1760374 C121.289668,32.9297007 119.798794,34.9438006 116.062051,35.0675371 C115.438827,35.0902457 114.814028,35.1188888 114.193327,35.1463813 L114.193327,21.130846 C114.814028,21.1056143 115.438827,21.0786466 116.062051,21.055938 L116.062051,21.0560389 Z M148.544408,21.911557 C149.286222,27.5231001 149.654767,30.9152577 149.841482,31.8740645 C150.522739,35.9262849 151.206358,39.9845609 151.887676,44.0444517 C149.536077,43.7315779 147.17943,43.459075 144.822784,43.2244196 C145.524227,39.4017073 146.228032,35.5826283 146.931957,31.7675865 C147.116149,30.6977599 147.673932,27.3362841 148.544428,21.9114561 L148.544408,21.911557 Z M59.7407297,23.7447956 C55.9482955,24.9306883 52.1823041,26.2237654 48.4455816,27.624229 C45.6246711,43.1088581 42.8193032,58.6572732 40.0363412,74.2626111 C39.7310369,74.3938163 39.4269842,74.521711 39.1217001,74.6529162 L39.1217001,82.202662 C43.0299985,80.5222269 46.9778603,78.9625005 50.9570096,77.5269144 L50.9570096,69.9771686 C50.0663285,70.3001351 49.1761319,70.6271992 48.2878932,70.9627816 C48.7218795,68.0988761 49.1588532,65.2388058 49.5928394,62.3799467 C52.6156041,61.2647029 55.6589578,60.2211174 58.7196711,59.2495938 C59.120856,61.8208109 59.5209308,64.3914224 59.9221157,66.9650618 C59.079375,67.2274721 58.2405704,67.4968261 57.402977,67.7693291 L57.402977,75.3152397 C61.5964952,73.9527248 65.822512,72.7252502 70.0739623,71.6251455 L70.0739623,64.0753997 C69.4658769,64.2318366 68.8581145,64.3909582 68.2525523,64.5524414 C65.4013636,50.8893433 62.5643047,37.2880126 59.74077,23.7436047 L59.7407297,23.7447956 Z M204.94849,29.8753055 L204.94849,39.285944 C205.990561,39.7148839 207.030009,40.1547037 208.066933,40.5987826 C211.833934,54.2239322 215.564197,67.9601014 219.255704,81.813346 L219.255704,92.6393852 C217.744362,91.8849556 216.226077,91.1481883 214.702078,90.4315054 L214.702078,100.248274 C221.199357,103.303941 227.580368,106.704375 233.815236,110.451392 L233.815236,100.634623 C232.351794,99.7540346 230.87826,98.8925214 229.399679,98.0523039 L229.399679,87.2262647 C233.035474,77.2873741 236.625045,67.4601089 240.162537,57.7474968 C241.106205,58.3606285 242.045311,58.9800581 242.981429,59.608349 L242.981429,50.1977106 C237.9048,46.7887991 232.715939,43.6164606 227.432409,40.6845302 L227.432409,50.0992058 C228.479527,50.6795362 229.523213,51.2674362 230.562762,51.8654289 C229.523173,55.5165652 228.479628,59.1765832 227.432409,62.8452808 C226.483695,66.3652121 225.531832,70.4018897 224.57799,74.9486526 C223.106979,66.473204 222.145043,61.5265682 221.849731,60.1565847 C220.742057,55.2337677 219.625703,50.3222545 218.510459,45.4196229 C219.552531,45.9343508 220.5944,46.4577584 221.628903,46.9926717 L221.628903,37.5820332 C216.158657,34.7611226 210.590109,32.1933371 204.948288,29.8744375 L204.94849,29.8753055 Z M38.6752392,30.5021633 C33.6995365,32.6543314 28.7856011,35.0067387 23.9461498,37.5551463 L23.9461498,46.9657847 C24.8065528,46.5141363 25.6694789,46.0669084 26.5323041,45.6253526 L26.5323041,82.6615368 C26.5373505,90.0570661 25.2633082,94.1064606 21.5214788,96.1250012 C17.9335227,98.088032 16.8586498,95.4027472 16.8536035,88.4135703 L16.8536035,50.876788 C17.7013906,50.3898151 18.5476032,49.9042551 19.4003962,49.4298981 L19.4003962,40.0192596 C14.2682566,42.880541 9.2267494,45.9725416 4.28899522,49.2879947 L4.28899522,58.6986331 C5.15444453,58.1183027 6.02195275,57.5434828 6.89493122,56.9757683 L6.89493122,91.5836481 C6.9176398,107.729551 10.9957984,112.16267 21.2297996,106.505912 C31.4385691,101.020528 35.8987365,91.3961256 35.8761289,74.3384477 L35.8761289,41.1475835 C36.8071808,40.7312595 37.7391814,40.3198203 38.6752392,39.913589 L38.6752392,30.5029505 L38.6752392,30.5021633 Z M54.3451705,31.9696424 C55.0617524,37.2505485 55.4197204,40.4771857 55.5988659,41.3526268 C56.2574148,45.1020661 56.9154792,48.8513036 57.5740483,52.6084133 C55.2955196,53.3477038 53.0315244,54.124842 50.7733829,54.94225 C51.4470709,50.8066639 52.1196486,46.6751149 52.7959607,42.5471992 C52.9751062,41.3941078 53.5101809,37.7830395 54.3453521,31.9696424 L54.3451705,31.9696424 Z M116.738263,42.0544734 C120.601346,41.9384073 122.218197,44.2867776 122.218197,49.57273 C122.218197,55.5778885 120.726213,57.4985299 116.552961,57.627111 C115.76573,57.6523427 114.974704,57.6824594 114.187433,57.7177838 L114.187433,42.1489815 C115.037743,42.113657 115.887892,42.0821274 116.738263,42.0543725 L116.738263,42.0544734 Z" stroke="#EEB211" stroke-width="1.809" fill="#46166B" fill-rule="nonzero" transform="translate(123.635212, 62.254850) scale(-1, 1) rotate(-180.000000) translate(-123.635212, -62.254850) "></path>
                        <path d="M155.639578,1.18066462 L145.416679,13.0553357 L150.675987,14.0054628 L160.437448,14.5534562 L155.639376,1.18062425 L155.639578,1.18066462 Z M151.819288,76.540862 L160.228529,103.326897 L142.810743,103.38604 L142.810743,126.570998 L201.332274,126.570998 L201.332274,103.38604 L190.565378,103.524027 L183.701533,82.9288569 C171.06789,79.4821987 172.084024,80.2211865 168.195911,79.3885384 C164.416193,78.578599 151.818885,76.5419924 151.818885,76.5419924 L151.819288,76.540862 Z M92.2683014,76.8720238 L88.7437276,77.246564 L44.8525792,126.902664 L100.721748,126.804099 L100.721748,103.619141 L83.1975852,103.717706 L92.2691089,76.873134 L92.2683014,76.8720238 Z" fill="#46166B" fill-rule="nonzero" transform="translate(123.092427, 64.041644) scale(-1, 1) rotate(-180.000000) translate(-123.092427, -64.041644) "></path>
                    </g>
                </g>
            </g>
        </g>
    </g>
</svg>