<?xml version="1.0" encoding="UTF-8" standalone="no"?>
<svg width="250px" height="250px" viewBox="0 0 250 250" version="1.1" xmlns="http://www.w3.org/2000/svg" xmlns:xlink="http://www.w3.org/1999/xlink">
    <!-- Generator: Sketch 47.1 (45422) - http://www.bohemiancoding.com/sketch -->
    <title>SACHRT</title>
    <desc>Created with Sketch.</desc>
    <defs></defs>
    <g id="Page-1" stroke="none" stroke-width="1" fill="none" fill-rule="evenodd">
        <g id="SACHRT" fill-rule="nonzero">
            <g id="Asset-1" transform="translate(0.000000, 76.000000)">
                <polygon id="Shape" fill="#B1B3B6" points="249.814991 0.0142105263 235.042694 0.0142105263 235.047438 0 171.309298 0 155.815939 0 92.9886148 0 90.8111954 6.30473684 84.3785579 0 50.1375712 0 23.9184061 15.5747368 11.987666 50.1631579 16.7504744 54.1894737 9.84345351 54.1894737 0 82.7336842 17.443074 98.9668421 52.670778 98.9668421 60.3795066 94.5615789 58.8614801 98.9668421 137.186907 98.9668421 139.378558 92.5957895 147.689753 98.9668421 178.320683 98.9668421 206.162239 83.7663158 231.271347 10.9421053 246.129032 10.9421053"></polygon>
                <path d="M238.951613,2.60052632 L238.633776,3.54789474 L236.83112,3.54789474 L235.208729,8.24684211 L234.089184,8.24684211 L235.711575,3.54789474 L233.904175,3.54789474 L234.226755,2.60052632 L238.951613,2.60052632 Z M243.107211,8.22789474 L244.055977,4.91210526 C244.184061,4.47631579 244.36907,3.94105263 244.530361,3.33947368 L244.473435,3.33947368 C244.155598,3.81315789 243.76186,4.5 243.41556,5.01631579 L241.323529,8.14263158 L240.16129,8.14263158 L240.251423,4.93105263 C240.298861,4.5 240.360531,3.83684211 240.40797,3.33947368 L240.3463,3.33947368 C240.166034,3.85578947 239.962049,4.39578947 239.762808,4.91210526 L238.410816,8.22789474 L237.333966,8.22789474 L239.705882,2.60052632 L241.385199,2.60052632 L241.408918,5.35263158 C241.385199,5.78368421 241.347249,6.20052632 241.290323,6.77368421 L241.290323,6.77368421 C241.612903,6.25736842 241.902277,5.77894737 242.167932,5.35263158 L244.103416,2.58157895 L245.73055,2.58157895 L244.226755,8.20894737 L243.107211,8.22789474 Z" id="Shape" fill="#4D4D4F"></path>
                <polygon id="Shape" fill="#4D4D4F" points="168.064516 2.31157895 157.466793 2.31157895 94.6394687 2.31157895 91.8074004 10.5157895 83.4297913 2.31157895 50.7779886 2.31157895 25.8301708 17.1284211 14.6963947 49.4194737 23.06926 56.5010526 11.4943074 56.5010526 2.68026565 82.0705263 18.3538899 96.6552632 52.0540797 96.6552632 64.5683112 89.5073684 62.1062619 96.6552632 135.531309 96.6552632 138.240038 88.8063158 148.47723 96.6552632 177.727704 96.6552632 204.264706 82.1652632 231.802657 2.31157895"></polygon>
                <path d="M163.296964,5.85473684 L96.9686907,5.85473684 L92.9459203,17.5263158 L81.0483871,5.85473684 L50.7590133,5.85473684 L28.7666034,18.9047368 L18.9041746,47.5057895 L33.7333966,60.0442105 L13.8092979,60.0442105 L6.85958254,80.2326316 L20.7020873,93.1121053 L52.1442125,93.1121053 L70.4886148,82.6342105 L66.8880455,93.1121053 L133.206831,93.1121053 L136.859583,82.5110526 L150.6926,93.1121053 L177.865275,93.1121053 L201.370968,80.28 L227.035104,5.85473684 L163.296964,5.85473684 Z M70.4601518,38.9226316 L85.5645161,38.9226316 L82.0683112,48.9978947 L70.4601518,38.9226316 Z" id="Shape" fill="#FFFFFF"></path>
                <polygon id="Shape" fill="#CE1141" points="85.142315 35.4315789 58.9563567 35.4315789 62.699241 24.57 57.2533207 24.57 51.7077799 40.6942105 67.5189753 41.8121053 80.56926 53.1189474 71.845351 78.4231579 52.2296015 89.6210526 23.012334 89.6210526 10.9772296 78.4231579 16.1290323 63.5305263 43.8330171 63.5305263 40.085389 74.3921053 45.540797 74.3921053 51.2333966 57.8131579 36.2950664 56.8042105 23.0455408 45.6205263 31.6555977 20.6526316 50.6925996 9.34578947 78.6812144 9.34578947 90.2419355 20.6526316"></polygon>
                <polygon id="Shape" fill="#CE1141" points="172.960152 74.3921053 167.357685 74.3921053 189.791271 9.34578947 162.087287 9.34578947 138.268501 78.4231579 152.874763 89.6210526 178.002846 89.6210526 198.51518 78.4231579 222.333966 9.34578947 195.388994 9.34578947"></polygon>
                <polygon id="Shape" fill="#CE1141" points="130.929791 89.6210526 103.98482 89.6210526 115.370019 56.5957895 109.905123 56.5957895 98.5199241 89.6210526 71.5749526 89.6210526 99.2552182 9.34578947 126.185958 9.34578947 115.142315 41.3668421 120.592979 41.3668421 131.636622 9.34578947 158.581594 9.34578947"></polygon>
                <polygon id="Shape" fill="#FFFFFF" points="63.0882353 32.3621053 65.5360531 32.3621053 68.4392789 23.9494737 65.9867173 23.9494737"></polygon>
                <polygon id="Shape" fill="#FFFFFF" points="19.7343454 69.0442105 38.8472486 69.0442105 39.686907 66.6 18.1309298 66.6 14.601518 76.8315789 16.4516129 78.5557895"></polygon>
                <polygon id="Shape" fill="#FFFFFF" points="65.4411765 44.82 50.0237192 43.7257895 49.2409867 45.9994737 68.4535104 47.43"></polygon>
                <polygon id="Shape" fill="#FFFFFF" points="49.1413662 79.9057895 56.902277 57.3963158 54.5113852 57.2352632 47.5332068 77.4615789 38.3918406 77.4615789 37.5474383 79.9057895"></polygon>
                <polygon id="Shape" fill="#FFFFFF" points="35.8064516 24.6363158 52.2675522 14.8594737 79.1318786 14.8594737 76.6318786 12.4105263 50.6593928 12.4105263 34.1982922 22.1873684 26.6935484 43.9626316 28.5863378 45.5636842"></polygon>
                <polygon id="Shape" fill="#FFFFFF" points="165.678368 77.4615789 164.833966 79.9057895 176.579696 79.9057895 199.008539 14.8594737 217.362429 14.8594737 218.206831 12.4105263 197.405123 12.4105263 174.971537 77.4615789"></polygon>
                <polygon id="Shape" fill="#FFFFFF" points="165.706831 14.8594737 184.814991 14.8594737 185.659393 12.4105263 164.103416 12.4105263 141.935484 76.6989474 143.870968 78.1815789"></polygon>
                <polygon id="Shape" fill="#FFFFFF" points="121.091082 55.9705263 118.643264 55.9705263 108.097723 86.5515789 110.545541 86.5515789"></polygon>
                <polygon id="Shape" fill="#FFFFFF" points="113.47723 44.4315789 112.637571 46.8757895 124.231499 46.8757895 135.270398 14.8594737 153.624288 14.8594737 154.468691 12.4105263 133.666983 12.4105263 122.62334 44.4315789"></polygon>
                <polygon id="Shape" fill="#FFFFFF" points="102.879507 14.8594737 121.228653 14.8594737 122.068311 12.4105263 101.271347 12.4105263 75.7068311 86.5515789 78.154649 86.5515789"></polygon>
            </g>
        </g>
    </g>
</svg>