<?xml version="1.0" encoding="utf-8"?>
<!-- Generator: Adobe Illustrator 27.8.1, SVG Export Plug-In . SVG Version: 6.00 Build 0)  -->
<svg version="1.1" id="Layer_1" xmlns="http://www.w3.org/2000/svg" xmlns:xlink="http://www.w3.org/1999/xlink" x="0px" y="0px"
	 viewBox="0 0 500 500" style="enable-background:new 0 0 500 500;" xml:space="preserve">
<style type="text/css">
	.st0{fill:#B2A268;}
</style>
<g>
	<path class="st0" d="M431.4,190H500C468,119.9,382,69.7,286.5,69.7C108.7,69.7,69.2,221,0,250c69.2,29,108.7,180.3,286.5,180.3
		C382,430.3,468,380.1,500,310h-68.6c-27.9,39.2-82.3,65.8-144.9,65.8c-91,0-164.8-56.3-164.8-125.8c0-69.5,73.8-125.8,164.8-125.8
		C349.1,124.2,403.5,150.8,431.4,190L431.4,190z"/>
	<path class="st0" d="M210.3,313.9h41.3l8.8-25.3h52.3l8.8,25.3h41.3l-56.1-145.9h-40.2L210.3,313.9L210.3,313.9z M286.5,213.5
		l16,46.1h-32.1L286.5,213.5L286.5,213.5z"/>
	<polygon class="st0" points="451.8,394 451.8,385.9 454.7,385.9 454.7,384.9 448.2,384.9 448.2,385.9 450.9,385.9 450.9,394 
		451.8,394 	"/>
	<polygon class="st0" points="463.7,394 463.7,384.9 462.1,384.9 459.8,392.3 457.5,384.9 455.9,384.9 455.9,394 456.9,394 
		456.9,386.3 459.3,394 460.3,394 462.7,386.3 462.7,394 463.7,394 	"/>
</g>
</svg>
