<?xml version="1.0" encoding="UTF-8" standalone="no"?>
<svg width="250px" height="250px" viewBox="0 0 250 250" version="1.1" xmlns="http://www.w3.org/2000/svg" xmlns:xlink="http://www.w3.org/1999/xlink">
    <!-- Generator: Sketch 47.1 (45422) - http://www.bohemiancoding.com/sketch -->
    <title>BRYANT</title>
    <desc>Created with Sketch.</desc>
    <defs></defs>
    <g id="Page-1" stroke="none" stroke-width="1" fill="none" fill-rule="evenodd">
        <g id="BRYANT">
            <g id="Page-1" transform="translate(0.000000, 24.000000)">
                <path d="M236.714905,108.542008 L238.352524,102.440123 L225.519667,102.440123 C222.822048,88.050418 215.820619,81.3000738 210.790143,79.0742049 C210.824429,78.536041 210.854905,77.985041 210.854905,77.3722377 C210.854905,75.7957787 210.703952,73.9469098 210.304429,71.8094672 C212.623476,69.5954836 213.97681,66.2543033 213.97681,62.5670246 C213.97681,62.2394672 213.966333,61.9095328 213.944905,61.5776967 C213.621095,56.5473852 210.852048,52.1403361 206.471571,49.4799426 C206.471571,49.4072049 206.467286,49.3320902 206.467286,49.2603033 C206.467286,44.4420246 207.343476,40.285041 209.055857,36.836418 C209.213,36.9053525 209.380143,36.9837951 209.532524,37.0479754 L212.778714,38.4114508 L213.091095,34.9086311 C213.15919,34.1365656 213.313476,33.4239262 213.535857,32.8477295 L214.398238,30.6185328 L212.232048,29.6006803 C210.925857,28.9874016 208.464905,27.5678279 205.833476,24.7676639 C205.924905,24.4681557 206.023476,24.2047787 206.122524,23.9399754 C207.731571,24.8085492 209.963952,25.6305328 212.473952,25.4460738 C215.16681,25.2483033 217.632524,23.8900574 219.603476,21.5182377 C220.986333,19.8547787 220.658714,17.1810738 219.621095,15.3992377 C218.624429,13.6891885 217.007762,12.8491393 215.29681,13.1524508 C215.298238,13.1524508 215.347286,13.1467459 215.347286,13.1467459 C215.031095,13.1467459 213.370143,12.5581885 211.01681,9.67910656 C206.225381,3.8135 196.008714,-1.29430328 185.753952,0.293090164 C180.403,1.1212541 173.318714,4.12204098 168.723476,13.3949098 C164.710619,11.2812377 161.663476,9.34869672 160.212524,7.9700082 L158.381571,6.2300082 L156.607762,8.0280082 C155.774429,8.87328689 154.192048,10.3218607 152.170619,11.5141885 C150.721095,10.5405492 148.707286,9.22651639 146.585381,7.95907377 L145.090619,7.06672951 L143.706333,8.12071311 C141.380619,9.89066393 135.154429,13.9235656 126.230619,15.0089262 C121.039667,7.61107377 111.273,1.7982377 98.2387143,6.33887705 C89.4458571,9.40241803 87.0677619,12.9042869 84.9696667,15.9939754 C83.6891905,17.8799262 82.583,19.5082049 79.8325238,21.1212705 C77.7525238,22.342123 76.5791905,24.2261721 76.6139524,26.2904016 C76.6491905,28.4145328 77.9549048,30.379877 80.1058571,31.5470082 C82.3520476,32.7654836 85.1158571,32.9280738 87.945381,32.119877 C87.8163333,33.3906475 87.5925238,34.6362213 87.1996667,35.4800738 L86.575381,36.8212049 L87.4239524,38.0330246 C88.0563333,38.9367787 89.2149048,40.5255984 90.4991905,42.0606967 C90.2687143,43.4275 89.9477619,45.0049098 89.6996667,46.1682377 C87.0501429,47.6971557 86.7149048,47.9457951 84.763,49.6182869 L84.7291905,49.6472869 L84.6963333,49.6777131 C83.7010952,50.5919262 82.7882381,51.6059754 82.0749048,52.4583852 C72.7215714,54.0880902 66.150619,62.2085656 64.4434762,64.5395 C55.0839524,68.6589262 48.4791905,74.6224672 44.8491905,82.3027131 C42.500619,87.2707459 41.345381,93.0022869 41.345381,99.7355164 C41.345381,100.107287 41.3734762,100.503779 41.380619,100.88173 L27.605381,100.88173 L0.000142857143,202.599467 L211.125381,202.604697 C219.196333,202.604697 225.551571,197.609566 227.709667,189.567533 L249.743952,108.542008 L236.714905,108.542008 Z" id="Fill-1" fill="#FEFEFE"></path>
                <path d="M227.977476,105.657554 L226.958905,105.657554 L227.145571,104.962505 L230.087952,104.962505 L229.901286,105.657554 L228.882714,105.657554 L228.108429,108.541866 L227.20319,108.541866 L227.977476,105.657554 Z M230.801286,104.962505 L232.019857,104.962505 L232.275095,107.221652 L232.292714,107.221652 L233.76081,104.962505 L234.978905,104.962505 L234.018429,108.541866 L233.217476,108.541866 L233.898429,106.005079 L233.88081,106.005079 L232.259857,108.541866 L231.598905,108.541866 L231.339857,106.005079 L231.321762,106.005079 L230.641286,108.541866 L229.840333,108.541866 L230.801286,104.962505 Z" id="Fill-3" fill="#231F20"></path>
                <path d="M223.98519,111.108984 C222.793286,89.0200164 212.393286,81.748623 208.04281,80.8458197 C208.378524,78.2985738 208.501381,75.2079344 207.478524,70.8127705 C213.100905,67.1445082 213.322333,55.5240656 203.930429,50.9910328 C203.70519,45.1839016 204.53519,38.8367049 207.984714,33.4935738 C208.721857,33.8677213 209.620905,34.3003443 210.529476,34.681623 C210.599476,33.8981475 210.763286,32.8912295 211.137571,31.9237705 C209.414238,31.114623 206.222333,29.2472131 202.990905,25.4543934 C203.363762,23.8313443 204.073286,21.5294098 205.277571,20.2752787 C205.277571,20.2752787 212.166143,26.4475246 217.624714,19.8792623 C218.509952,18.8143443 217.486143,15.3719016 215.746619,15.6804426 C214.157095,15.9609344 211.626619,14.4852623 209.024714,11.301918 C201.336143,1.89118033 178.409952,-4.42463934 169.956619,16.9146066 C166.835667,15.3623934 161.057095,12.3159672 158.439952,9.82957377 C157.349476,10.9349016 155.013286,13.0737705 152.016619,14.5147377 C150.622333,13.5553607 148.04281,11.8205902 145.26519,10.1618852 C142.618524,12.1761967 135.368524,16.9231639 124.967095,17.7575082 C123.106143,14.7025246 114.892333,3.25608197 99.0856667,8.7627541 C85.6285238,13.4512459 89.1351905,18.6427213 81.1351905,23.3350164 C75.8304286,26.4475246 82.129,33.434623 90.6204286,28.1395082 C90.6204286,28.1395082 90.9532857,33.5078361 89.531381,36.5623443 C90.2656667,37.6110984 91.716619,39.6125738 93.2204286,41.2940984 C92.9447143,43.3183934 92.2847143,46.4061803 91.9718571,47.823377 C88.4304286,49.859082 88.4304286,49.859082 86.4375714,51.5667541 C85.2756667,52.6345246 84.2094762,53.8810492 83.4628095,54.8223607 C73.2004286,56.0056557 66.1504286,66.5754426 66.1504286,66.5754426 C45.8185238,75.1860656 43.2528095,90.5337213 44.0318571,103.44918 L29.5732857,103.44918 L3.36090476,200.032967 L211.12519,200.038672 C218.083286,200.038672 223.354714,195.875508 225.225667,188.903148 L246.381381,111.108984 L223.98519,111.108984 Z" id="Fill-5" fill="#231F20"></path>
                <path d="M169.753667,45.5957016 L171.485095,45.5129803 C171.485095,45.5129803 172.034619,46.1543082 172.488905,46.9444393 C173.817476,45.5795377 176.632714,44.8963738 176.632714,44.8963738 C174.554143,40.616259 178.84319,35.7575705 178.84319,35.7575705 C177.300333,40.5126197 179.300333,43.1335541 180.523667,44.220341 C188.034143,40.7132426 195.065095,30.5751279 195.065095,30.5751279 C202.945095,39.1819475 199.885571,43.1616033 199.885571,43.1616033 C199.14319,39.1819475 195.436048,34.739718 195.436048,34.739718 C194.690333,36.498259 192.928905,38.4422098 190.994619,40.2012262 C195.171762,40.305341 199.906048,42.9248492 200.496524,47.9309148 C200.65081,47.9874885 200.80319,48.0431115 200.945095,48.098259 C200.842238,40.1703246 204.087476,34.2115377 205.455571,32.0603082 C203.429381,30.6749639 202.037476,29.0186361 201.257,27.9328 C176.479857,31.3533738 173.939381,38.5525049 173.939381,38.5525049 C171.607,35.9168328 173.627476,32.0541279 174.833667,31.4032918 C177.976524,27.9527672 182.412238,26.5118 184.784619,25.9574721 C179.649857,24.6153902 174.634619,22.4988656 170.351762,20.3642754 C170.352714,20.3647508 170.353667,20.3652262 170.354619,20.3657016 C162.957952,20.2035869 159.937952,18.0675705 159.150333,17.3748984 C159.784143,17.9506197 165.406048,23.2923246 166.201762,32.2081607 C167.002238,33.1784721 168.057476,35.325423 168.057476,35.325423 C173.180333,37.9639475 171.009857,43.5252918 169.753667,45.5957016" id="Fill-7" fill="#A49372"></path>
                <path d="M194.888048,47.9792639 C196.619,48.3339197 197.303286,48.5507066 198.65519,48.9129689 C198.65519,47.7486902 198.169,46.4546246 197.379476,45.7842967 C196.426619,46.009641 195.199,46.7969197 194.888048,47.9792639" id="Fill-9" fill="#A49372"></path>
                <path d="M188.105095,48.6756918 C188.105095,48.6756918 179.96319,46.6494951 175.107952,49.3678885 C177.577952,49.3754951 184.717476,49.5542492 187.834143,51.0769869 C188.117476,50.4484951 188.39081,49.5300033 188.105095,48.6756918" id="Fill-11" fill="#FEFEFE"></path>
                <path d="M149.060286,71.2850426 C148.130286,72.2872066 147.459333,73.209977 147.017905,73.8869607 C147.631714,73.4101246 148.363619,72.9195016 149.120286,72.4478951 C149.097905,72.1036984 149.075524,71.701977 149.060286,71.2850426" id="Fill-13" fill="#FEFEFE"></path>
                <path d="M140.385619,49.7583426 C142.289429,49.3200148 144.202762,48.9349328 146.110857,48.5983426 C145.947524,47.262441 146.299429,46.1542607 147.066571,45.290441 C142.707524,46.0819984 140.993714,47.9945721 140.385619,49.7583426" id="Fill-15" fill="#FEFEFE"></path>
                <path d="M186.476095,43.8881246 C185.801333,44.4067967 185.126095,44.9211902 184.790857,45.1617475 C187.610857,45.4303541 190.382762,46.2176328 190.382762,46.2176328 L190.836095,47.573977 C191.633238,47.6291246 192.768,47.7204033 192.768,47.7204033 C192.999905,47.0296328 193.432286,45.659977 193.958952,44.6597148 C192.306095,44.1044361 189.25181,43.716977 186.476095,43.8881246" id="Fill-17" fill="#FEFEFE"></path>
                <path d="M188.02,42.6931344 C187.66,42.9736262 187.068095,43.4328721 186.475714,43.8883148 C189.251429,43.7166918 192.306667,44.1046262 193.959524,44.6599049 C194.213333,44.1783148 194.488571,43.7813475 194.774286,43.5888066 C193.279048,42.8661836 191.122857,42.4611344 188.02,42.6931344" id="Fill-19" fill="#FEFEFE"></path>
                <path d="M147.070905,45.2893 C147.492333,44.8157918 148.035667,44.4145459 148.689952,44.0912672 C141.177095,44.590923 139.431857,47.7533492 139.177571,50.0433984 C139.579476,49.9459393 139.981857,49.8541852 140.384714,49.7610049 C140.991857,47.9958082 142.706619,46.0808574 147.070905,45.2893" id="Fill-21" fill="#FEFEFE"></path>
                <path d="M152.711714,46.2651738 C152.299333,46.0113049 151.886476,45.7522066 151.473619,45.4850262 C150.167429,45.8463377 148.805524,46.964977 148.755048,48.1615836 C149.411714,48.0607967 150.063143,47.9766492 150.716,47.8877475 C151.116952,47.1898459 151.894095,46.593682 152.711714,46.2651738" id="Fill-23" fill="#A49372"></path>
                <path d="M151.135714,70.5412639 C151.135714,70.5412639 151.137619,70.804641 151.14,71.2577066 C152.276667,70.6206574 153.281429,70.1029361 153.809048,69.837182 C153.807619,69.5276902 153.812381,69.2134443 153.822381,68.9044279 C153.822381,68.9053787 153.822381,68.9058541 153.822381,68.9063295 C152.816667,69.4592311 151.920952,70.013559 151.135714,70.5412639" id="Fill-25" fill="#FEFEFE"></path>
                <path d="M173.070714,64.7829574 C174.626429,64.7021377 176.288333,64.6907279 178.019286,64.7872361 C178.051667,64.6907279 178.085952,64.5999246 178.119762,64.5124492 C176.477857,64.3189574 174.898333,64.2186459 173.380714,64.1982033 C173.380714,64.1982033 173.175476,64.5419246 173.070714,64.7829574" id="Fill-27" fill="#FEFEFE"></path>
                <path d="M162.724238,66.4297295 C163.09281,66.3246639 163.639952,66.1787131 164.336619,66.0146967 C164.338524,65.7071066 164.350905,65.3771721 164.377095,65.0377295 C163.659,65.1870082 162.96281,65.3515 162.288524,65.5307295 C162.429,65.8402213 162.577095,66.1487623 162.724238,66.4297295" id="Fill-29" fill="#FEFEFE"></path>
                <path d="M166.438,65.5727082 C167.726095,65.3326262 169.257524,65.1006262 170.967524,64.9380361 C171.054667,64.6727574 171.147524,64.434577 171.242762,64.2192164 C169.606095,64.2776918 168.047524,64.4245934 166.570857,64.6461344 C166.570857,64.6461344 166.469905,65.175741 166.438,65.5727082" id="Fill-31" fill="#FEFEFE"></path>
                <path d="M184.270714,65.622341 C183.463571,65.1635705 182.30119,64.6187508 180.749762,64.1447672 C180.519286,64.4162262 180.34119,64.6957672 180.202143,64.9667508 C181.535952,65.1108 182.897381,65.3233082 184.270714,65.622341" id="Fill-33" fill="#FEFEFE"></path>
                <path d="M153.82219,68.9065672 C153.838857,68.3779115 153.868857,67.863518 153.901714,67.415682 C152.885524,68.0047148 151.987905,68.6417639 151.194095,69.2878459 C151.162667,69.6491574 151.141238,70.0703705 151.135524,70.5415016 C151.921238,70.0133213 152.816952,69.4589934 153.82219,68.9065672" id="Fill-35" fill="#FEFEFE"></path>
                <path d="M164.56019,63.7109557 C163.653048,63.8668902 162.716857,64.0484967 161.743048,64.265759 C161.893048,64.6342016 162.083524,65.0829885 162.288286,65.5308246 C162.963524,65.3515951 163.66019,65.1866279 164.378762,65.0373492 C164.412571,64.6018738 164.467333,64.1516607 164.56019,63.7109557" id="Fill-37" fill="#FEFEFE"></path>
                <path d="M166.571,64.6459918 C168.048143,64.4244508 169.606714,64.2780246 171.243857,64.2195492 C171.486714,63.6709262 171.746238,63.2763361 171.970048,63.0029754 C170.449571,63.0177131 168.78719,63.1251557 166.979571,63.3500246 C166.826238,63.6970738 166.678143,64.1306475 166.571,64.6459918" id="Fill-39" fill="#FEFEFE"></path>
                <path d="M173.380857,64.1980131 C174.898952,64.2184557 176.478952,64.3192426 178.121333,64.512259 C178.269429,64.1309803 178.425619,63.8257672 178.57181,63.5937672 C177.353714,63.3437016 175.965143,63.1530623 174.396095,63.0608328 C173.954667,63.4140623 173.626571,63.8048492 173.380857,64.1980131" id="Fill-41" fill="#FEFEFE"></path>
                <path d="M176.863952,104.347372 C177.535857,101.870487 176.742048,99.7311426 176.742048,99.7311426 C174.757762,106.86229 164.522524,108.903225 164.522524,108.903225 C175.239667,102.545093 176.503952,90.2229459 176.503952,90.2229459 C178.487762,93.2337164 178.64681,96.6409787 178.64681,96.6409787 C182.959667,94.0038803 185.472048,86.1819623 185.472048,86.1819623 C186.344905,99.4934377 176.863952,104.347372 176.863952,104.347372 M154.612048,81.2096508 C155.503,83.3974869 160.124905,85.6756508 160.124905,85.6756508 C157.182524,92.8300934 146.20681,96.2021754 141.865381,91.659159 C150.731095,93.7557164 155.992524,86.4016016 155.992524,86.4016016 C151.933476,84.446241 151.233476,80.5321918 151.233476,80.5321918 C155.012524,74.2439459 186.647286,68.0949951 191.406333,77.3188967 C191.406333,77.3188967 187.008714,81.704077 180.208238,82.8911754 C183.288238,80.8530934 185.035381,78.2782738 185.832524,76.8534705 C171.415381,72.7449787 154.612048,81.2096508 154.612048,81.2096508 M98.5396667,77.7776672 C98.5396667,62.2018148 117.883,51.8431098 117.883,51.8431098 C117.883,51.8431098 115.593476,50.6921426 108.893952,52.1473721 C108.893952,52.1473721 118.808714,46.8817328 127.952048,50.4687 C127.952048,50.4687 101.403,58.8026344 101.403,77.8114213 C101.403,87.6685689 111.963952,93.6558803 114.137762,93.6558803 C114.137762,93.6558803 98.5396667,93.3539951 98.5396667,77.7776672 M118.153476,42.9881262 C120.943952,43.6232738 127.603952,45.472618 132.977762,49.580159 C132.977762,49.580159 122.394429,43.6313557 113.888238,47.0590607 C114.365381,45.8058803 115.49919,43.9755525 118.153476,42.9881262 M113.654429,16.7317164 C112.390619,15.2455852 110.356333,14.150241 107.821571,13.6819623 C104.125381,12.9987984 98.6787143,13.6125525 95.4925238,17.5879295 C94.2872857,19.0921262 92.0196667,21.5656836 89.465381,21.9707328 C92.6558571,17.7338803 96.7739524,12.7786836 106.161095,12.5766344 C110.481571,12.4844049 113.367762,13.752323 115.18681,15.0616016 C114.650619,15.505159 114.124905,16.0542574 113.654429,16.7317164 M140.353952,23.7007492 C146.370143,34.1017656 164.115381,43.1374049 164.115381,43.1374049 C155.235381,45.0243066 140.948714,31.2031918 137.807286,24.9596344 C137.807286,24.9596344 138.928714,24.1966016 140.353952,23.7007492 M207.143952,57.420618 C200.514905,53.3439787 191.25919,52.836241 191.25919,52.836241 C197.062524,53.4034049 203.355857,56.7949787 203.93681,60.724241 C204.56681,64.9900934 199.103476,65.9694377 199.103476,65.9694377 C201.53919,63.9365852 201.678714,62.2940443 201.678714,62.2940443 C199.691571,61.4368803 197.718238,60.6895361 195.762048,60.0420279 C196.683,62.0392246 197.411571,65.1398475 196.834905,69.7033066 C202.557286,75.7528967 196.723,80.9025361 193.779667,81.9850443 C191.759667,82.727159 191.162524,84.2798475 191.064429,85.6338148 C189.847762,82.1248148 193.225857,79.9726344 193.225857,79.9726344 C195.003,78.6657328 195.986333,77.2822902 196.24681,75.9264213 C162.77919,55.941618 134.513952,92.3504049 134.513952,92.3504049 C134.868714,83.5933557 140.583,77.8209295 143.080143,75.7077328 C145.013,70.8599787 148.959667,67.1513066 153.801095,64.6092902 C154.156333,63.0380607 154.855857,61.1811098 156.218238,59.553782 L156.218238,59.5542574 C143.671571,63.5429459 134.602048,70.9341426 131.532524,77.1929131 C127.782048,65.4146344 144.345857,56.4745525 158.497286,52.8143721 C118.363,56.5596508 109.478238,72.2077656 107.512524,78.8658803 C108.544905,84.7619131 113.913952,89.5112574 118.568238,91.5241426 C105.651571,90.6864705 99.7772857,77.3517 108.164429,66.6944377 C114.09681,59.1544377 124.675857,53.9995689 136.111571,50.8380934 C135.560619,43.743077 143.241571,42.0972082 146.16919,41.7273393 C140.618714,37.4824049 136.183952,33.2194049 136.183952,33.2194049 C134.770143,33.9558148 133.57681,34.8524377 132.575381,35.7951754 L137.12919,29.4641426 C141.378714,36.7488475 155.428714,44.4305197 159.251571,46.4524377 C161.297762,46.1605361 163.968238,46.0854213 165.318714,45.8610279 C168.14919,43.3470607 168.283952,41.7644213 168.283952,41.7644213 C163.342524,27.3718639 142.965381,18.1793393 142.965381,18.1793393 C136.411095,21.8842082 129.266333,19.8836836 129.266333,19.8836836 C129.578714,20.9576344 129.652048,21.9474377 129.641571,22.676241 C132.814429,21.8005361 137.342048,22.3643721 137.342048,22.3643721 C134.394905,22.8545197 130.586333,24.9235033 128.468238,26.1861918 C126.289667,18.170782 118.28919,16.9413721 115.193952,17.8484541 C116.158238,16.4407656 117.450619,15.7357328 118.383952,15.3953393 C116.895381,13.7052574 113.151095,10.5242902 106.120619,10.6754705 C93.7482381,10.9412246 89.6072857,18.9252574 86.0577619,23.2947492 C85.473,24.0145197 84.595381,24.5683721 83.835381,25.009077 C85.420619,25.1654869 89.3996667,25.0889459 94.345381,21.5775689 C94.345381,21.5775689 95.2882381,20.8872738 96.9801429,18.7759787 C101.188238,13.5241262 111.537762,14.7654213 112.992048,19.3150934 C109.844905,17.1153721 105.29919,17.9554213 105.29919,17.9554213 C111.358714,19.9036508 110.844905,26.8760115 110.844905,26.8760115 C108.709667,19.9683066 102.31681,20.0110934 100.223,20.2221754 C98.9372857,23.2724049 100.687286,28.7443721 104.986333,24.619241 C108.570619,26.3934705 107.213,34.508241 101.807286,35.4890115 C101.807286,35.4890115 104.862048,33.0121262 104.305381,28.6540443 C103.631095,28.9326344 102.730143,29.1655852 101.758714,29.0571918 C101.794905,30.9022574 99.8868095,33.4575852 96.5691905,33.5412574 C96.5691905,33.5412574 99.5282381,32.1473557 99.3549048,28.0835525 C98.615381,27.5102082 97.2682381,26.1405525 96.9444286,23.6223066 C95.6525238,24.7304869 94.190619,26.3311918 93.4925238,27.1189459 C93.9958571,30.8266672 93.3025238,34.3014377 92.9072857,35.8593557 C94.1172857,37.8180443 95.950619,39.886077 96.9958571,41.0056672 C103.847762,36.6238148 113.723476,37.6302574 117.003952,27.6651918 C115.763952,25.7507164 115.082048,22.4428148 115.082048,22.4428148 C116.713476,24.3972246 120.465857,26.0259787 120.465857,26.0259787 C117.637286,40.1437492 104.057286,39.1915033 95.5144286,44.9972082 C95.5144286,44.9972082 93.4482381,57.8156836 88.2834762,68.2761262 C87.3510952,73.7675852 87.0391905,85.967077 89.6382381,91.9196836 C90.7815714,87.4669951 94.7315714,83.982241 97.775381,82.6411098 C92.7368095,88.1463557 85.1282381,104.027421 103.222048,112.674175 C117.46919,119.48252 131.091095,104.51947 132.147286,99.4111918 C131.866333,100.927749 130.238714,108.047962 123.784905,112.9637 C158.764429,112.488766 171.473,89.5055525 171.473,89.5055525 C171.362524,91.8916344 170.920143,93.6920115 170.524429,94.8629459 C170.167762,95.9188311 169.850143,96.4631754 169.850143,96.4631754 C169.850143,96.4631754 170.572524,104.678257 154.135857,111.110552 C164.784429,114.677552 187.01919,108.372192 191.266333,88.4976836 C191.266333,88.4976836 191.634905,92.7939623 189.623,97.5019459 C189.801095,98.8250115 189.673,101.260061 187.714905,104.7857 C202.705381,98.1085689 208.008714,78.039618 204.032048,69.5654377 C209.678238,66.8865033 209.401571,60.5336016 207.143952,57.420618" id="Fill-45" fill="#A49372"></path>
                <path d="M190.826476,8.29509344 C187.867429,8.2979459 185.443143,9.1874377 183.816,10.8675361 C183.816,10.8675361 183.040762,11.6686016 182.40219,12.3279951 C181.358381,11.6705033 180.239333,11.3638639 179.162667,11.2768639 C182.933143,7.95612623 188.112667,7.29388033 189.643143,7.33951967 C195.696476,7.52255246 199.62981,9.58060164 202.615524,11.9876016 C198.797905,9.68091311 194.537905,8.29129016 190.826476,8.29509344 M189.700762,5.43883115 C186.851238,5.35325738 178.305524,6.81799508 174.680286,13.9710115 C174.680286,13.9710115 179.600286,11.6438803 182.449333,14.8324541 C180.756,14.0280607 175.734095,15.4566672 174.741714,19.1843557 C175.636476,19.5751426 177.154095,20.2159951 179.258381,21.0241918 C180.048381,15.5759951 185.125048,16.0395197 185.125048,16.0395197 C182.163619,17.9268967 182.284095,20.8230934 182.565048,22.2502738 C184.81981,23.0584705 187.489333,23.9617492 190.559333,24.9111426 C190.559333,24.9111426 195.663143,24.2802738 199.04981,24.6886508 C199.780762,23.1022082 201.476,19.6816344 203.043619,18.3837656 C201.695048,17.1728967 200.263619,15.9121098 198.630762,14.8224705 C198.486,17.7162902 195.873143,20.1375525 191.426952,18.9689951 C191.426952,18.9689951 190.736,21.2966016 193.425524,23.219159 C191.555048,23.5914049 187.225524,20.7746016 189.795524,16.3185852 C192.598381,18.2097656 196.423619,16.5667492 195.827429,13.2626508 C193.010762,12.004241 189.598857,11.3971426 185.185524,12.1891754 C189.346952,7.8919459 200.224571,10.920782 206.793143,17.6768311 C209.266,20.2202738 213.361714,21.0726836 214.739333,18.4370115 C208.253143,19.0445852 206.01219,5.93183115 189.700762,5.43883115" id="Fill-47" fill="#A49372"></path>
                <path d="M179.162571,11.2770541 C180.239238,11.3640541 181.358286,11.670218 182.402095,12.3281852 C183.041143,11.6683164 183.815905,10.8677262 183.815905,10.8677262 C185.443048,9.18715246 187.867333,8.29766066 190.826381,8.29528361 C194.53781,8.29148033 198.79781,9.68110328 202.615429,11.9873164 C199.629714,9.5807918 195.696857,7.52274262 189.643048,7.33970984 C188.112571,7.29359508 182.933048,7.95631639 179.162571,11.2770541" id="Fill-49" fill="#FEFEFE"></path>
                <path d="M164.115143,43.1374049 C164.115143,43.1374049 146.369905,34.1017656 140.35419,23.7007492 C138.928476,24.1966016 137.807524,24.9596344 137.807524,24.9596344 C140.948952,31.2031918 155.235619,45.0243066 164.115143,43.1374049" id="Fill-51" fill="#FEFEFE"></path>
                <path d="M101.403095,77.8112311 C101.403095,58.8029197 127.952143,50.4685098 127.952143,50.4685098 C118.80881,46.8815426 108.893571,52.1476574 108.893571,52.1476574 C115.593571,50.6919525 117.882619,51.8429197 117.882619,51.8429197 C117.882619,51.8429197 98.5392857,62.2016246 98.5392857,77.7779525 C98.5392857,93.3538049 114.137857,93.6556902 114.137857,93.6556902 C111.964048,93.6556902 101.403095,87.6683787 101.403095,77.8112311" id="Fill-53" fill="#FEFEFE"></path>
                <path d="M178.646619,96.6409787 C178.646619,96.6409787 178.488048,93.2337164 176.503762,90.2229459 C176.503762,90.2229459 175.239476,102.545093 164.522333,108.903225 C164.522333,108.903225 174.757571,106.86229 176.741857,99.7311426 C176.741857,99.7311426 177.535667,101.870487 176.863762,104.347372 C176.863762,104.347372 186.34519,99.4934377 185.471857,86.1819623 C185.471857,86.1819623 182.959476,94.0038803 178.646619,96.6409787" id="Fill-55" fill="#FEFEFE"></path>
                <path d="M106.161286,12.5765393 C96.7736667,12.7785885 92.6555714,17.7337852 89.4655714,21.9706377 C92.0198571,21.5655885 94.2874762,19.0920311 95.4927143,17.5878344 C98.6784286,13.6124574 104.125571,12.9991787 107.821286,13.6818672 C110.356524,14.1506213 112.39081,15.2454902 113.654143,16.7316213 C114.125095,16.0546377 114.650333,15.5050639 115.186524,15.061982 C113.367952,13.7522279 110.481286,12.4843098 106.161286,12.5765393" id="Fill-57" fill="#FEFEFE"></path>
                <path d="M123.785,112.9637 C134.847857,115.664503 156.359286,111.665831 169.849762,96.4631754 C169.849762,96.4631754 170.167857,95.9193066 170.524524,94.8629459 C170.919762,93.6920115 171.362619,91.8916344 171.473095,89.5055525 C171.473095,89.5055525 158.764524,112.488766 123.785,112.9637" id="Fill-59" fill="#FEFEFE"></path>
                <path d="M76.0687619,81.1177541 L77.6744762,83.4558197 C77.6744762,83.4558197 79.3173333,83.2570984 79.4897143,81.4063279 C79.631619,79.5541311 78.0459048,79.0820492 78.0459048,79.0820492 L76.0687619,81.1177541 Z" id="Fill-61" fill="#FEFEFE"></path>
                <path d="M77.6744762,83.4558197 L76.0687619,81.1177541 L79.4897143,81.4063279 C79.3173333,83.2570984 77.6744762,83.4558197 77.6744762,83.4558197" id="Fill-63" fill="#FEFEFE"></path>
                <path d="M81.2240476,63.9932541 L81.6959524,65.9219918 C81.6959524,65.9219918 82.8211905,66.1967787 83.392619,65.0277459 C83.945,63.8496803 83.0230952,63.1489262 83.0230952,63.1489262 L81.2240476,63.9932541 Z" id="Fill-65" fill="#FEFEFE"></path>
                <path d="M81.6958571,65.9218016 L81.2239524,63.9930639 L83.3925238,65.0275557 C82.8210952,66.1965885 81.6958571,65.9218016 81.6958571,65.9218016" id="Fill-67" fill="#FEFEFE"></path>
                <path d="M77.4824286,76.930059 L78.3205238,77.1791738 C78.8943333,73.7975836 79.778619,70.6147148 80.9229048,67.6904689 L80.1195714,67.4936492 L79.4829048,64.8907803 C77.133381,69.5388623 75.6876667,74.5758295 74.9129048,79.5752393 L77.4824286,76.930059 Z" id="Fill-69" fill="#FEFEFE"></path>
                <path d="M85.3311905,67.5407148 C87.1369048,66.6883049 89.3259524,58.902518 89.9611905,56.319141 C88.0383333,57.8304689 86.365,59.9498459 84.9764286,62.5322721 C85.5054762,63.4013213 85.6988095,64.5960262 85.105,65.8620426 C84.5621429,66.9721246 83.6607143,67.5649607 82.7516667,67.7708131 C81.6692857,71.0392557 80.9292857,74.7251082 80.5730952,78.6610262 C81.1078571,79.3556 81.4835714,80.3145016 81.3859524,81.5819443 C81.2840476,82.6777639 80.865,83.484059 80.3297619,84.0645344 C80.3245238,88.7487475 80.8397619,93.6573541 81.937381,98.543141 C82.6092857,99.1074525 83.1911905,99.9360918 83.4864286,101.125567 C83.7335714,102.189534 83.6407143,103.10137 83.3697619,103.858698 C84.1469048,106.315141 85.0783333,108.743059 86.1754762,111.109174 L95.3854762,111.109174 C81.6383333,98.0168623 85.3311905,67.5407148 85.3311905,67.5407148" id="Fill-71" fill="#FEFEFE"></path>
                <path d="M83.2590476,60.9374623 L83.9695238,61.4775279 C85.8895238,58.2989377 88.162381,55.6095443 90.6809524,53.5343803 C91.022381,52.1580689 91.2242857,51.258118 91.2242857,51.258118 C86.95,54.1985279 83.6485714,57.8653639 81.1390476,61.9320197 L82.2133333,61.4276098 L83.2590476,60.9374623 Z" id="Fill-73" fill="#FEFEFE"></path>
                <path d="M78.6426667,97.4706639 C77.8469524,93.3151066 77.5107619,89.2627131 77.5726667,85.3833689 L76.7569524,85.4822541 L74.5564762,82.2789426 C73.758381,89.6245 74.3312381,96.7185656 75.5231429,102.1815 L77.7912381,97.4963361 L78.6426667,97.4706639 Z" id="Fill-75" fill="#FEFEFE"></path>
                <path d="M83.969381,61.4773852 L84.1779524,61.6361721 C84.4808095,61.8662705 84.757,62.1714836 84.9765238,62.5323197 C86.3650952,59.9498934 88.0384286,57.8305164 89.9612857,56.3191885 C90.1684286,55.5514016 90.6517619,53.6526148 90.6812857,53.5342377 L90.6812857,53.5342377 C88.1622381,55.6094016 85.889381,58.2987951 83.969381,61.4773852" id="Fill-77" fill="#FEFEFE"></path>
                <path d="M81.0517619,106.439841 C81.0636667,106.475021 81.0755714,106.510202 81.0874762,106.545857 C81.0884286,106.547284 81.089381,106.549661 81.0898571,106.552038 C81.5441429,106.922857 83.9598571,108.834005 84.2417619,111.108841 L86.1755714,111.108841 C85.0784286,108.743202 84.147,106.315284 83.3698571,103.858366 C82.7527143,105.632595 81.0517619,106.439841 81.0517619,106.439841" id="Fill-79" fill="#FEFEFE"></path>
                <path d="M77.9037619,85.3435295 L77.5728095,85.3834639 C77.5109048,89.2628082 77.846619,93.3147262 78.6428095,97.470759 L78.9456667,97.4612508 C79.696619,97.4389066 80.9199524,97.6889721 81.9370952,98.5432836 C80.8394762,93.6570213 80.3242381,88.7488902 80.3299524,84.0642016 C79.5594762,84.8994967 78.5504286,85.2655623 77.9037619,85.3435295" id="Fill-81" fill="#FEFEFE"></path>
                <path d="M81.2424286,67.7686738 L80.9229048,67.6907066 C79.778619,70.614477 78.8943333,73.7978213 78.3205238,77.1794115 L78.5900476,77.2597557 C79.1524286,77.4266246 79.9657619,77.8735098 80.5729048,78.6607885 C80.9290952,74.7253459 81.6690952,71.0394934 82.7519524,67.7710508 C82.228619,67.8903787 81.703381,67.8813459 81.2424286,67.7686738" id="Fill-83" fill="#FEFEFE"></path>
                <path d="M77.4584762,102.553461 L80.2851429,104.69851 C80.2851429,104.69851 82.1560952,103.818051 81.6308571,101.554149 C81.0713333,99.2997557 79.0032381,99.3625098 79.0032381,99.3625098 L77.4584762,102.553461 Z" id="Fill-85" fill="#FEFEFE"></path>
                <path d="M80.2849524,104.698367 L77.4582857,102.553318 L81.6311429,101.554482 C82.1559048,103.817908 80.2849524,104.698367 80.2849524,104.698367" id="Fill-87" fill="#FEFEFE"></path>
                <path d="M193.716143,61.0730016 C192.944714,63.7671492 190.233762,66.8069197 189.793762,67.2885098 C190.534238,67.3236902 191.353762,67.4872311 192.156619,67.7658213 C193.02519,66.6581164 193.243286,64.7479197 193.243286,64.7479197 C193.243286,64.7479197 193.653762,65.331723 193.42519,68.3149197 C193.821857,68.5250508 194.199952,68.7651328 194.54519,69.0342148 C194.947571,65.2651656 193.716143,61.0730016 193.716143,61.0730016" id="Fill-89" fill="#FEFEFE"></path>
                <path d="M158.442238,60.2345213 C155.922714,62.3310787 155.96081,68.8722426 155.96081,68.8722426 C156.409857,68.667341 156.891762,68.4781279 157.381286,68.3036525 C157.074619,65.9109148 157.947952,63.3470295 157.947952,63.3470295 C157.734143,65.419341 158.60081,67.615259 158.70081,67.8724557 C159.471762,67.6414066 160.211286,67.4507672 160.826524,67.304341 C159.155571,64.5022754 158.442238,60.2345213 158.442238,60.2345213" id="Fill-91" fill="#FEFEFE"></path>
                <path d="M157.947952,63.346982 C157.947952,63.346982 157.074143,65.911818 157.381762,68.3055066 C157.821286,68.1486213 158.265095,68.0045721 158.701286,67.8743098 C158.603667,67.6218672 157.734143,65.4221459 157.947952,63.346982" id="Fill-93" fill="#FEFEFE"></path>
                <path d="M193.425048,68.3155852 C193.653619,65.3319131 193.243619,64.7481098 193.243619,64.7481098 C193.243619,64.7481098 193.025524,66.6602082 192.155524,67.7674377 C192.588857,67.9171918 193.016952,68.0997492 193.425048,68.3155852" id="Fill-95" fill="#FEFEFE"></path>
                <path d="M69.6620476,103.449038 C71.0572857,103.449038 72.3463333,103.529857 73.5439524,103.682464 C71.6449048,95.6684803 68.7172857,75.9266115 81.0568095,58.0103164 C81.0568095,58.0103164 72.0610952,62.1468574 69.4415714,67.0735295 C69.4415714,67.0735295 71.8325238,67.0830377 73.2991905,68.1674475 C62.173,68.3271852 44.315381,79.1042508 46.3272857,103.449038 L69.6620476,103.449038 Z" id="Fill-97" fill="#A49372"></path>
                <path d="M52.6135714,103.449038 C52.4888095,94.2926443 54.7245238,81.2744967 67.3821429,76.2660541 C67.3821429,76.2660541 67.4488095,82.3332344 68.8021429,84.6941197 C68.8021429,84.6941197 69.4078571,76.9302016 71.527381,71.2162508 C71.527381,71.2162508 47.8040476,75.6879557 49.535,103.449038 L52.6135714,103.449038 Z" id="Fill-99" fill="#FEFEFE"></path>
                <path d="M220.994571,111.108984 C220.82219,104.855918 218.220762,88.1238689 207.574571,83.625541 C203.304571,100.935213 191.406,106.944393 185.947429,108.90023 L180.943619,111.108984 L220.994571,111.108984 Z" id="Fill-101" fill="#A49372"></path>
                <path d="M188.365524,54.8044852 C187.188381,55.4557967 185.93981,56.4460754 185.181238,57.0888295 C185.282667,57.2276492 185.374095,57.3650426 185.45981,57.5019607 C187.823143,57.8889443 190.224571,58.4147475 192.656952,59.0945836 C192.996952,58.4057148 193.288857,57.6978295 193.506,56.9856656 C193.506,56.9856656 194.748857,57.8485344 195.760762,60.0416 C197.717905,60.6891082 199.691714,61.4369279 201.678381,62.2940918 C202.536952,57.7553541 194.226476,54.6708951 188.365524,54.8044852" id="Fill-103" fill="#FEFEFE"></path>
                <path d="M156.218,59.5544 C157.163714,58.4248262 158.428952,57.4055475 160.12181,56.6710393 C160.12181,56.6710393 160.19419,57.3660885 160.374667,58.3910721 C166.629429,56.8797443 173.598476,56.2350885 181.016571,56.9291869 C179.887524,55.8842361 178.605143,54.9234328 177.516095,54.1732361 C149.310381,52.4299082 133.338476,67.3777443 131.532286,77.1930557 C134.602286,70.9338098 143.671333,63.5430885 156.218,59.5544" id="Fill-105" fill="#FEFEFE"></path>
                <path d="M175.308905,67.1168393 C156.203667,67.5637246 140.886048,78.7843475 134.514143,92.3501672 C134.514143,92.3501672 162.779381,55.9413803 196.247,75.9261836 C197.156048,71.1934787 189.236048,66.7907082 175.308905,67.1168393" id="Fill-107" fill="#FEFEFE"></path>
                <path d="M166.201762,32.2081131 C156.294619,20.9760803 145.980333,16.2552607 142.543667,14.9060475 C139.264143,17.9073098 132.306048,19.3696705 129.266524,19.8835885 C129.266524,19.8835885 136.41081,21.8841131 142.965571,18.1792443 C142.965571,18.1792443 163.342714,27.3717689 168.284143,41.7648016 C169.164143,39.010277 168.406524,36.3151787 168.057476,35.3253754 C168.057476,35.3253754 167.002238,33.1784246 166.201762,32.2081131" id="Fill-109" fill="#FEFEFE"></path>
                <path d="M181.478905,29.4053344 L174.833667,31.4030066 C173.627476,32.0538426 171.607,35.9165475 173.939857,38.5522197 C173.939857,38.5522197 176.479857,31.3535639 201.257,27.9325148 C193.832714,27.0482525 186.688905,28.1340885 181.478905,29.4053344" id="Fill-111" fill="#FEFEFE"></path>
                <path d="M166.201762,32.2081131 C166.201762,32.2081131 162.334143,24.3629 154.164143,16.5809164 C155.502714,15.9723918 157.546524,14.9074738 158.749857,13.630523 C160.507476,14.8166705 164.818905,17.6059 170.354619,20.3656541 C162.759381,20.1992607 159.778429,17.9510475 159.091286,17.3220803 C159.091286,17.3220803 165.358429,22.757441 166.201762,32.2081131" id="Fill-113" fill="#FEFEFE"></path>
                <path d="M159.19281,52.6396115 C164.138048,51.4140049 168.738048,50.8458902 172.006619,51.0422344 L172.037095,50.9599885 C171.262333,49.6692508 169.893286,48.5273164 169.893286,48.5273164 C158.803286,49.0540705 146.967571,50.7950213 136.577571,53.8157754 C145.967095,52.8473656 153.544714,52.6006279 159.19281,52.6396115" id="Fill-115" fill="#FEFEFE"></path>
                <path d="M191.433333,50.5559377 C191.469524,51.0546426 191.472381,52.1243148 191.259048,52.8364787 C191.259048,52.8364787 200.514762,53.343741 207.144286,57.4203803 C204.911429,54.0250033 200.010952,51.139741 191.433333,50.5559377" id="Fill-117" fill="#FEFEFE"></path>
                <path d="M94.3453333,21.577759 C89.3986667,25.0896115 85.4186667,25.165677 83.834381,25.0092672 C82.9739048,25.508923 82.2634286,25.8659557 82.3015238,26.1578574 C82.4639048,27.4124639 86.1839048,28.1103656 90.3577143,24.9189393 C91.6758095,23.9110705 93.0577143,22.7848246 94.3453333,21.577759" id="Fill-119" fill="#FEFEFE"></path>
                <path d="M136.577476,53.8155852 C136.577476,53.8155852 136.577,53.8151098 136.577,53.8146344 C124.934143,57.199077 115.107476,62.1908803 110.18319,68.8889295 C107.618905,72.3779623 106.969857,75.7799951 107.511762,78.8682574 C109.476048,72.2115689 118.357952,56.5596508 158.497952,52.8143721 C158.729381,52.7544705 158.959381,52.6969459 159.189381,52.6394213 C153.541762,52.6004377 145.964619,52.8481262 136.577476,53.8155852" id="Fill-121" fill="#FEFEFE"></path>
                <path d="M185.460476,57.5018656 C187.337619,60.4817344 185.653333,63.0327836 185.653333,63.0327836 C186.859524,63.5119967 187.962857,63.9935869 188.980476,64.4747016 C190.337619,62.8996689 192.229524,60.2882426 192.656667,59.0949639 C190.224762,58.4146525 187.823333,57.8888492 185.460476,57.5018656" id="Fill-123" fill="#A49372"></path>
                <path d="M160.374905,58.3909295 C160.374905,58.3909295 160.673,60.1542246 161.180619,61.7863066 C168.452048,59.8932246 176.386333,60.123323 182.346333,62.5868967 C183.507286,60.8758967 183.427762,59.8494869 183.427762,59.8494869 C182.41681,57.9093393 181.01681,56.9295197 181.01681,56.9295197 C173.598714,56.2349459 166.629667,56.8796016 160.374905,58.3909295" id="Fill-125" fill="#A49372"></path>
                <path d="M55.8057619,128.697721 L48.7762381,128.698197 L50.8957619,120.800689 L57.901,120.800689 C57.9114762,120.800689 57.9171905,120.801164 57.9271905,120.801164 L55.8057619,128.697721 Z M52.8757619,139.622164 L49.4790952,152.278525 C49.4762381,152.288508 49.4743333,152.294213 49.4714762,152.303721 C49.4619524,152.303721 49.4562381,152.304197 49.4457619,152.304197 L42.4405238,152.304197 L45.8514762,139.595541 L52.8571905,139.595541 C52.8671905,139.595541 52.8724286,139.596016 52.8824286,139.596016 C52.8795714,139.606 52.8790952,139.611705 52.8757619,139.622164 L52.8757619,139.622164 Z M71.1448095,134.063672 C73.0667143,132.890836 74.698619,131.022 75.513381,127.987459 L77.6690952,119.95541 C78.471,116.967459 78.2571905,114.606098 77.0348095,112.939311 C75.5371905,110.896 72.558619,109.902869 67.9305238,109.902869 L34.3057619,109.902869 L20.0014762,163.202016 L53.6252857,163.202016 C61.8776667,163.202016 66.9700476,159.819475 68.7605238,153.149475 L72.3743333,139.683967 C73.1376667,136.840066 72.5138571,135.137623 71.1448095,134.063672 L71.1448095,134.063672 Z" id="Fill-127" fill="#A49372"></path>
                <path d="M93.992619,127.937731 L91.077381,127.937731 L91.5540476,126.162075 L94.4692857,126.162075 L93.992619,127.937731 Z M102.422619,117.563813 L79.6483333,117.563813 L71.532619,147.80178 L85.7464286,147.80178 L88.4188095,137.843846 L89.9078571,147.80178 L105.612143,147.80178 L103.064524,135.918911 C104.868333,135.18583 106.676429,133.637895 107.53119,130.4536 L108.86881,125.469403 C109.559286,122.895059 109.419286,120.99437 108.439762,119.658944 C107.062619,117.781075 104.346429,117.563813 102.422619,117.563813 L102.422619,117.563813 Z" id="Fill-129" fill="#A49372"></path>
                <polygon id="Fill-131" fill="#A49372" points="197.590571 117.56367 193.724381 131.967638 190.404857 117.56367 173.967714 117.56367 166.094381 146.897884 161.801524 117.56367 149.099143 117.56367 126.533429 147.761228 129.512 136.66231 146.600571 117.56367 136.482476 117.56367 128.529143 126.465244 125.220571 117.56367 108.343429 117.56367 115.433905 136.156474 112.308667 147.801638 136.057714 147.801638 141.337238 140.831179 149.971524 140.831179 151.063429 147.801638 174.464381 147.801638 178.39581 133.155211 181.772476 147.801638 198.087714 147.801638 206.202952 117.56367"></polygon>
                <polygon id="Fill-133" fill="#A49372" points="207.572905 117.56367 205.264333 126.161933 213.463857 126.161933 207.656714 147.801638 221.869571 147.801638 227.678143 126.161933 235.876714 126.161933 238.18481 117.56367"></polygon>
                <path d="M27.3259524,186.705185 L24.8654762,186.705185 L25.4378571,184.574398 L27.8978571,184.574398 L27.3259524,186.705185 Z M29.752619,177.665267 L27.2921429,177.665267 L27.6721429,176.249497 L30.132619,176.249497 L29.752619,177.665267 Z M41.435,171.105087 C40.5645238,169.917038 38.882619,169.33989 36.2935714,169.33989 L18.1107143,169.33989 L11.5954762,193.614792 L29.7788095,193.614792 C35.6540476,193.614792 37.742619,190.427169 38.4602381,187.753464 L39.4645238,184.01389 C39.8335714,182.636628 39.6545238,181.700546 39.1554762,181.046857 C40.007381,180.342775 40.7183333,179.340611 41.105,177.90012 L41.8292857,175.201218 C42.2935714,173.472152 42.1607143,172.094415 41.435,171.105087 L41.435,171.105087 Z" id="Fill-135" fill="#A49372"></path>
                <path d="M63.8040476,169.3397 L59.1435714,186.704044 C59.1054762,186.70452 51.9021429,186.703569 51.8692857,186.701667 C51.8769048,186.660307 56.522619,169.3397 56.522619,169.3397 L45.1069048,169.3397 L40.715,185.705208 C40.012619,188.32329 40.1683333,190.349011 41.1788095,191.727225 C42.0845238,192.961864 43.6707143,193.614602 45.7659524,193.614602 L57.0359524,193.614602 C63.4659524,193.614602 65.4211905,189.10011 66.332619,185.705208 L70.725,169.3397 L63.8040476,169.3397 Z" id="Fill-137" fill="#A49372"></path>
                <polygon id="Fill-139" fill="#A49372" points="79.2504762 186.705185 83.9114286 169.33989 72.4952381 169.33989 66.4452381 191.883825 65.9804762 193.614792 67.7142857 193.614792 87.4938095 193.614792 89.3485714 186.705185"></polygon>
                <polygon id="Fill-141" fill="#A49372" points="102.425952 186.705185 107.086905 169.33989 95.6707143 169.33989 89.1554762 193.614792 110.66881 193.614792 112.523571 186.705185"></polygon>
                <path d="M127.623333,186.705185 L125.456667,186.705185 L128.262857,176.249497 L130.43,176.249497 L127.623333,186.705185 Z M141.252857,171.139316 C140.377143,169.945562 138.885714,169.33989 136.819524,169.33989 L118.701429,169.33989 L112.18619,193.614792 L130.304286,193.614792 C134.677143,193.614792 137.917619,190.885939 139.194286,186.127562 L141.690952,176.82712 C142.354286,174.354038 142.207143,172.440513 141.252857,171.139316 L141.252857,171.139316 Z" id="Fill-143" fill="#A49372"></path>
                <path d="M155.535381,186.705185 L152.423952,186.705185 L155.229667,176.249497 L158.341095,176.249497 L155.535381,186.705185 Z M169.164429,171.139316 C168.28919,169.945562 166.797286,169.33989 164.731095,169.33989 L152.54919,169.33989 C150.483476,169.33989 148.665857,169.945562 147.150143,171.139316 C145.497762,172.440513 144.322524,174.354038 143.65919,176.82712 L141.163,186.127562 C140.49919,188.600644 140.646333,190.514644 141.601095,191.81489 C142.476333,193.009595 143.967762,193.614792 146.034429,193.614792 L158.21681,193.614792 C162.58919,193.614792 165.82919,190.885939 167.106333,186.127562 L169.602048,176.82712 C170.265857,174.354038 170.118238,172.440513 169.164429,171.139316 L169.164429,171.139316 Z" id="Fill-145" fill="#A49372"></path>
                <path d="M180.45419,169.3397 C178.388,169.3397 176.571333,169.945372 175.055619,171.139126 C173.402286,172.440323 172.228,174.354323 171.564667,176.82693 L169.068476,186.127848 C168.404667,188.60093 168.552286,190.514454 169.506571,191.8147 C170.38181,193.009405 171.873238,193.614602 173.939429,193.614602 L192.220857,193.614602 L196.501333,177.665552 L182.755143,177.665552 L183.135143,176.249307 L196.327048,176.249307 L198.181333,169.3397 L180.45419,169.3397 Z" id="Fill-147" fill="#A49372"></path>
                <path d="M206.714905,169.3397 C205.043952,169.3397 203.454429,169.895454 202.120619,170.94611 C200.644905,172.107536 199.53681,173.849438 198.99919,175.851389 L197.663476,180.827028 C197.093952,182.949733 197.17919,184.416372 197.931571,185.442307 C198.443,186.140208 199.191571,186.510077 199.973,186.704995 L196.085857,186.704995 L194.231571,193.614602 L211.340143,193.614602 C215.422524,193.614602 218.413952,191.193815 219.54681,186.973126 L221.013,181.510192 C221.443476,179.908061 221.289667,178.541257 220.567286,177.557634 C220.144905,176.981438 219.541095,176.545962 218.76681,176.249307 L222.424905,176.249307 L224.279667,169.3397 L206.714905,169.3397 Z" id="Fill-149" fill="#A49372"></path>
                <path d="M55.0310476,139.621926 C55.532,137.754992 54.9300952,137.444074 53.434381,137.444074 L44.2739048,137.444074 L39.7086667,154.455664 L48.8686667,154.455664 C50.4267619,154.455664 51.1667619,154.020189 51.634381,152.278287 L55.0310476,139.621926 Z M60.092,120.76432 C60.5429524,119.084697 60.0367619,118.649221 58.4786667,118.649221 L49.3181905,118.649221 L46.0439048,130.849664 L55.2039048,130.849664 C56.8867619,130.849664 57.5353333,130.289631 57.9862857,128.610008 L60.092,120.76432 Z M54.2029524,161.050074 L22.7334286,161.050074 L35.8834286,112.054336 L67.3524762,112.054336 C74.6434286,112.054336 76.9500952,114.605385 75.5139048,119.955648 L73.3581905,127.987221 C72.039619,132.902959 68.1000952,133.649352 63.0772381,134.022549 L63.0434286,134.146631 C68.2810476,134.831221 71.3881905,135.329451 70.2191429,139.684205 L66.6053333,153.149238 C65.2524762,158.188582 61.8053333,161.050074 54.2029524,161.050074 L54.2029524,161.050074 Z" id="Fill-151" fill="#FEFEFE"></path>
                <path d="M96.8097619,125.469213 C97.1364286,124.254066 96.795,124.010656 95.7402381,124.010656 L89.9764286,124.010656 L88.345,130.089721 L94.1088095,130.089721 C95.2859524,130.089721 95.6788095,129.683721 95.9616667,128.629738 L96.8097619,125.469213 Z M91.9211905,145.649885 L90.2364286,134.384574 L87.1921429,134.384574 L84.1692857,145.649885 L74.2645238,145.649885 L81.2254762,119.714852 L101.845,119.714852 C106.106905,119.714852 107.88881,121.093066 106.713571,125.469213 L105.375952,130.45341 C104.766905,132.723492 103.590238,134.384574 100.343095,134.384574 L102.75881,145.649885 L91.9211905,145.649885 Z" id="Fill-153" fill="#FEFEFE"></path>
                <polygon id="Fill-155" fill="#FEFEFE" points="127.522429 136.046179 124.94481 145.649933 115.041 145.649933 117.760048 135.519425 111.731952 119.7149 123.462429 119.7149 127.469095 130.494343 137.101 119.7149 142.133857 119.7149"></polygon>
                <path d="M150.078238,125.631708 L143.751095,134.384479 L151.423,134.384479 L150.078238,125.631708 Z M153.067286,145.64979 L151.974429,138.679807 L140.56919,138.679807 L135.288238,145.64979 L130.499667,145.64979 L149.880143,119.715233 L159.784429,119.715233 L163.580143,145.64979 L153.067286,145.64979 Z" id="Fill-157" fill="#FEFEFE"></path>
                <polygon id="Fill-159" fill="#FEFEFE" points="183.684095 145.64998 178.732667 124.17239 178.651238 124.17239 172.886952 145.64998 168.584571 145.64998 175.545048 119.714948 188.493619 119.714948 193.369333 140.867833 193.490762 140.867833 199.168381 119.714948 203.471238 119.714948 196.510286 145.64998"></polygon>
                <polygon id="Fill-161" fill="#FEFEFE" points="226.100619 124.010513 220.292524 145.649743 210.388714 145.649743 216.196333 124.010513 207.99681 124.010513 209.150143 119.715185 235.452524 119.715185 234.29919 124.010513"></polygon>
                <path d="M37.3064286,154.455759 L38.2759524,154.455759 L43.1778571,136.017939 L53.4345238,136.017939 C53.9659524,136.017939 54.975,136.025546 55.7354762,136.605546 C55.3788095,135.693234 54.585,135.06712 52.7202381,135.06712 L42.4635714,135.06712 L37.3064286,154.455759 Z" id="Fill-163" fill="#FEFEFE"></path>
                <path d="M73.4994762,114.830539 C73.8894762,115.721457 73.866619,116.970834 73.4199524,118.63572 L70.9209048,127.832523 C70.231381,130.400687 68.7423333,131.604425 66.1609048,132.234343 C69.3970952,131.675736 71.2004286,130.517638 71.9785238,127.618113 L74.1342381,119.586539 C75.081381,116.056146 73.8709048,115.13908 73.4994762,114.830539" id="Fill-165" fill="#FEFEFE"></path>
                <path d="M57.7642381,116.272077 L47.5075714,116.272077 L43.6556667,130.849569 L44.6251905,130.849569 L48.2218571,117.222897 L58.4785238,117.222897 C59.2175714,117.222897 60.1009048,117.307995 60.7761429,117.828093 C60.6599524,117.532864 60.2532857,116.272077 57.7642381,116.272077" id="Fill-167" fill="#FEFEFE"></path>
                <path d="M68.2925238,136.758343 C68.3582381,137.161015 68.3049048,137.696326 68.1249048,138.363802 L64.5110952,151.82931 C63.603,155.213752 61.583,158.67331 53.4887143,158.67331 L24.8501429,158.67331 L24.5949048,159.62413 L54.203,159.62413 C62.2972857,159.62413 64.3172857,156.164572 65.225381,152.78013 L68.8391905,139.314621 C69.3663333,137.352605 68.7172857,137.00508 68.2925238,136.758343" id="Fill-169" fill="#FEFEFE"></path>
                <path d="M95.0259048,121.633464 L88.1659048,121.633464 L85.8973333,130.081972 L86.8668571,130.081972 L88.8801905,122.584284 L95.7401905,122.584284 C96.1149524,122.584284 96.894,122.592366 97.5230476,123.040677 C97.4568571,122.848611 97.3620952,122.659398 97.2235238,122.479693 C96.5735238,121.633464 95.4892381,121.633464 95.0259048,121.633464" id="Fill-171" fill="#FEFEFE"></path>
                <polygon id="Fill-173" fill="#FEFEFE" points="89.885 132.007477 85.3811905 132.007477 82.3583333 143.272789 76.3816667 143.272789 76.1264286 144.223608 83.072619 144.223608 86.0954762 132.958297 90.027381 132.958297"></polygon>
                <path d="M105.340524,122.003 C105.229571,121.858475 105.070524,121.732492 104.865762,121.624098 C105.017667,122.345295 104.835286,123.345082 104.619571,124.149475 L103.281952,129.133672 C102.781476,130.997754 102.051476,132.007525 99.6290952,132.007525 L97.2952857,132.007525 L99.711,143.272836 L93.0100476,143.272836 L93.1524286,144.223656 L100.992429,144.223656 L98.5767143,132.958344 L100.343381,132.958344 C102.765762,132.958344 103.495762,131.948574 103.996238,130.084492 L105.333857,125.100295 C105.615762,124.050115 105.845762,122.660492 105.340524,122.003" id="Fill-175" fill="#FEFEFE"></path>
                <polygon id="Fill-177" fill="#FEFEFE" points="122.468952 121.14132 121.512762 121.14132 125.484667 132.041992 126.259905 131.398287"></polygon>
                <polygon id="Fill-179" fill="#FEFEFE" points="137.741 121.14132 125.373857 134.929631 123.134333 143.273074 117.157667 143.273074 116.902429 144.223893 123.848619 144.223893 126.230524 135.349418 138.941952 121.14132"></polygon>
                <polygon id="Fill-181" fill="#FEFEFE" points="149.757619 123.988692 149.535238 122.54297 140.731429 134.239954 142.032381 134.239954"></polygon>
                <polygon id="Fill-183" fill="#FEFEFE" points="158.549 121.14132 157.498048 121.14132 160.737095 143.273074 154.140905 143.273074 154.289952 144.223893 161.927571 144.223893"></polygon>
                <polygon id="Fill-185" fill="#FEFEFE" points="151.530286 136.3029 139.266952 136.3029 133.347429 144.223703 134.577905 144.223703 139.858857 137.25372 151.679333 137.25372"></polygon>
                <polygon id="Fill-187" fill="#FEFEFE" points="190.95481 140.868023 191.926238 140.868023 187.356238 121.141367 186.38481 121.141367"></polygon>
                <polygon id="Fill-189" fill="#FEFEFE" points="200.639762 121.14132 194.699762 143.273074 184.602143 143.273074 184.82119 144.223893 195.414048 144.223893 201.609286 121.14132"></polygon>
                <polygon id="Fill-191" fill="#FEFEFE" points="176.813476 121.896223 171.07681 143.273026 170.701571 143.273026 170.446333 144.223846 171.791095 144.223846 177.261571 123.839223"></polygon>
                <polygon id="Fill-193" fill="#FEFEFE" points="232.620762 121.14132 232.488857 121.633369 224.290286 121.633369 218.481714 143.273074 212.505524 143.273074 212.250286 144.223893 219.196 144.223893 225.004571 122.584189 233.203143 122.584189 233.590286 121.14132"></polygon>
                <polygon id="Fill-195" fill="#FEFEFE" points="216.583286 122.584284 216.838524 121.633464 210.114238 121.633464 209.859 122.584284"></polygon>
                <path d="M29.7908571,183.981325 C30.0532381,183.005784 29.7384762,182.843193 28.9565714,182.843193 L24.1684762,182.843193 L22.6670476,188.43639 L27.455619,188.43639 C28.2699048,188.43639 28.6560952,188.208669 28.9008571,187.298734 L29.7908571,183.981325 Z M32.0341905,175.624095 C32.2699048,174.745538 32.0051429,174.518292 31.1908571,174.518292 L26.4027619,174.518292 L25.0937143,179.396472 L29.8818095,179.396472 C30.7613333,179.396472 31.100381,179.103144 31.3360952,178.225538 L32.0341905,175.624095 Z M30.2437143,191.883587 L13.7941905,191.883587 L19.380381,171.071095 L35.8289524,171.071095 C39.640381,171.071095 40.8460952,172.40462 40.095619,175.20098 L39.3708571,177.899882 C38.6813333,180.468997 36.6222857,180.859784 33.9965714,181.054702 L33.9789524,181.119833 C36.7170476,181.477341 38.3408571,181.737866 37.730381,184.013652 L36.7260952,187.753702 C36.0194286,190.387472 34.2175238,191.883587 30.2437143,191.883587 L30.2437143,191.883587 Z" id="Fill-197" fill="#FEFEFE"></path>
                <path d="M57.5003333,191.883587 L46.2303333,191.883587 C43.0384286,191.883587 41.2622381,190.127423 42.449381,185.705161 L46.3765238,171.071095 L54.3241429,171.071095 L50.1698571,186.550439 C49.8122381,187.883964 50.3150952,188.43639 51.5203333,188.43639 L58.5560476,188.43639 C59.9565238,188.43639 60.4912857,188.144013 60.8665238,186.745357 L65.0731905,171.071095 L68.5260476,171.071095 L64.5989048,185.705161 C63.4117619,190.127423 61.474619,191.883587 57.5003333,191.883587" id="Fill-199" fill="#FEFEFE"></path>
                <polygon id="Fill-201" fill="#FEFEFE" points="68.1790476 191.883587 73.7647619 171.071095 81.712381 171.071095 77.0519048 188.43639 87.1495238 188.43639 86.2242857 191.883587"></polygon>
                <polygon id="Fill-203" fill="#FEFEFE" points="91.3542857 191.883587 96.94 171.071095 104.887619 171.071095 100.227143 188.43639 110.324762 188.43639 109.399524 191.883587"></polygon>
                <path d="M132.279476,175.819013 C132.51519,174.940931 132.20519,174.518292 131.064714,174.518292 L126.993286,174.518292 L123.258048,188.43639 L127.329952,188.43639 C128.469476,188.43639 129.006619,188.013751 129.241857,187.136144 L132.279476,175.819013 Z M130.769476,191.883587 L114.38519,191.883587 L119.970905,171.071095 L136.35519,171.071095 C139.90519,171.071095 140.92519,173.217095 139.956619,176.826882 L137.460429,186.1278 C136.491381,189.737111 134.319476,191.883587 130.769476,191.883587 L130.769476,191.883587 Z" id="Fill-205" fill="#FEFEFE"></path>
                <path d="M160.190762,175.819013 C160.426476,174.940931 160.116952,174.518292 158.976952,174.518292 L155.524095,174.518292 C154.384095,174.518292 153.847429,174.940931 153.611238,175.819013 L150.574571,187.136144 C150.338857,188.013751 150.648381,188.43639 151.788857,188.43639 L155.240762,188.43639 C156.381238,188.43639 156.917905,188.013751 157.154095,187.136144 L160.190762,175.819013 Z M158.680762,191.883587 L146.498857,191.883587 C142.947905,191.883587 141.928381,189.737111 142.896952,186.1278 L145.393143,176.826882 C146.36219,173.217095 148.533619,171.071095 152.084571,171.071095 L164.266476,171.071095 C167.817429,171.071095 168.837429,173.217095 167.868381,176.826882 L165.37219,186.1278 C164.403143,189.737111 162.231714,191.883587 158.680762,191.883587 L158.680762,191.883587 Z" id="Fill-207" fill="#FEFEFE"></path>
                <path d="M184.534143,191.883587 L185.040333,189.996685 L184.975095,189.996685 C184.285095,191.232751 183.687,191.883587 181.569857,191.883587 L174.404143,191.883587 C170.853667,191.883587 169.83319,189.737111 170.802714,186.1278 L173.298429,176.826882 C174.267476,173.217095 176.439381,171.071095 179.989857,171.071095 L195.982714,171.071095 L195.057476,174.518292 L183.429381,174.518292 C182.288905,174.518292 181.752238,174.940931 181.517,175.819013 L178.478905,187.136144 C178.244143,188.013751 178.553667,188.43639 179.694143,188.43639 L182.397476,188.43639 C183.439857,188.43639 184.03319,188.046554 184.277476,187.136144 L185.428905,182.843193 L181.130333,182.843193 L182.054619,179.396472 L194.302238,179.396472 L190.95081,191.883587 L184.534143,191.883587 Z" id="Fill-209" fill="#FEFEFE"></path>
                <path d="M211.80419,191.883587 L196.429905,191.883587 L197.355143,188.43639 L208.495143,188.43639 C209.504667,188.43639 209.79419,188.208669 209.977524,187.52598 L210.36181,186.094997 C210.553714,185.379505 210.279905,185.184587 209.270857,185.184587 L202.462762,185.184587 C199.466095,185.184587 198.533714,184.046931 199.397524,180.82698 L200.733238,175.851341 C201.422286,173.282702 203.286571,171.071095 206.249905,171.071095 L222.080857,171.071095 L221.156095,174.518292 L210.178952,174.518292 C209.103714,174.518292 208.725619,174.713685 208.551333,175.36357 L208.193238,176.697095 C208.027524,177.314652 208.300857,177.510046 209.375619,177.510046 L215.30419,177.510046 C218.333238,177.510046 220.038952,178.68098 219.278952,181.510144 L217.812762,186.973079 C216.948952,190.192079 215.028952,191.883587 211.80419,191.883587" id="Fill-211" fill="#FEFEFE"></path>
                <polygon id="Fill-213" fill="#FEFEFE" points="185.657667 181.746328 185.80481 181.19818 182.709095 181.19818 182.561476 181.746328"></polygon>
                <polygon id="Fill-215" fill="#FEFEFE" points="192.284333 180.493243 189.668619 190.237718 186.112905 190.237718 186.101952 190.28098 185.965762 190.786341 190.108143 190.786341 192.870524 180.493243"></polygon>
                <path d="M30.751381,172.872756 L25.1204286,172.872756 L23.3694762,179.396805 L23.9561429,179.396805 L25.5599524,173.421379 L31.1909048,173.421379 C31.4632857,173.421379 32.1123333,173.426608 32.616619,173.820723 C32.3251905,173.202215 31.7375714,172.872756 30.751381,172.872756" id="Fill-217" fill="#FEFEFE"></path>
                <path d="M38.6878095,172.697282 C38.8192381,173.084266 38.7897143,173.642872 38.5949524,174.369298 L37.6620952,177.725216 C37.3201905,178.997413 36.5625714,179.550315 35.1697143,179.83461 C36.9835238,179.587872 37.9187619,179.073003 38.3097143,177.616823 L39.034,174.917446 C39.4601905,173.329102 39.0197143,172.914069 38.6878095,172.697282" id="Fill-219" fill="#FEFEFE"></path>
                <path d="M20.9431905,188.436438 L21.529381,188.436438 L23.3250952,181.74647 L28.9565238,181.74647 C29.2565238,181.74647 29.8903333,181.751225 30.384619,182.135831 C30.2174762,181.775946 29.8250952,181.197848 28.517,181.197848 L22.8860476,181.197848 L20.9431905,188.436438 Z" id="Fill-221" fill="#FEFEFE"></path>
                <path d="M36.3168571,182.67623 C36.3106667,182.805066 36.2868571,182.970033 36.2297143,183.182066 L35.2259048,186.921639 C34.7635238,188.644049 33.7868571,190.237623 29.804,190.237623 L15.3730476,190.237623 L15.2259048,190.786721 L30.2435238,190.786721 C34.226381,190.786721 35.2030476,189.192197 35.6654286,187.469787 L36.6692381,183.730213 C36.9082857,182.83882 36.6520952,182.802213 36.3168571,182.67623" id="Fill-223" fill="#FEFEFE"></path>
                <path d="M48.6691905,185.718139 C48.1815714,187.535631 49.0525238,188.249697 49.2187143,188.396598 C48.9177619,187.836566 48.8787143,187.122975 49.1087143,186.266287 L52.8925238,172.168008 L52.3058571,172.168008 L48.6691905,185.718139 Z" id="Fill-225" fill="#FEFEFE"></path>
                <path d="M66.5077143,172.168008 L63.0981905,184.873336 C62.0210476,188.884369 60.4977143,190.237861 57.0610476,190.237861 L45.7910476,190.237861 C44.7429524,190.237861 43.9686667,190.025352 43.4724762,189.609844 C43.7210476,190.089057 44.3162857,190.786484 46.2305714,190.786484 L57.5005714,190.786484 C60.9372381,190.786484 62.4605714,189.432992 63.5377143,185.421484 L67.094381,172.168008 L66.5077143,172.168008 Z" id="Fill-227" fill="#FEFEFE"></path>
                <polygon id="Fill-229" fill="#FEFEFE" points="75.3284286 188.436438 75.914619 188.436438 80.2808095 172.167913 79.6941429 172.167913"></polygon>
                <polygon id="Fill-231" fill="#FEFEFE" points="85.1314762 189.533493 84.9424286 190.237575 69.7576667 190.237575 69.6105238 190.786674 85.3814762 190.786674 85.7181429 189.533493"></polygon>
                <polygon id="Fill-233" fill="#FEFEFE" points="98.5034286 188.436438 99.0900952 188.436438 103.456286 172.167913 102.869619 172.167913"></polygon>
                <polygon id="Fill-235" fill="#FEFEFE" points="108.306476 189.533493 108.117429 190.237575 92.9331429 190.237575 92.786 190.786674 108.556952 190.786674 108.892667 189.533493"></polygon>
                <path d="M130.625571,172.872756 L125.71081,172.872756 L121.534143,188.436248 L122.12081,188.436248 L126.150333,173.421379 L131.064619,173.421379 C131.367952,173.421379 132.203667,173.424231 132.813667,173.926264 C132.665571,173.635313 132.236524,172.872756 130.625571,172.872756" id="Fill-237" fill="#FEFEFE"></path>
                <path d="M138.525952,172.722811 C138.866429,173.429746 138.844048,174.549336 138.456429,175.995057 L135.959762,185.295025 C135.067381,188.621467 133.225952,190.237861 130.329762,190.237861 L115.964048,190.237861 L115.816905,190.786484 L130.769286,190.786484 C133.665476,190.786484 135.506905,189.17009 136.399286,185.843648 L138.895476,176.543205 C139.613571,173.868549 138.915952,173.03468 138.525952,172.722811" id="Fill-239" fill="#FEFEFE"></path>
                <path d="M149.601095,188.48008 C149.373952,188.034146 149.342524,187.488851 149.513476,186.851802 L152.550143,175.535146 C152.92681,174.132211 153.927762,173.421474 155.524429,173.421474 L158.97681,173.421474 C159.279667,173.421474 160.114905,173.424326 160.724905,173.926359 C160.450143,173.386293 159.869667,172.872851 158.537762,172.872851 L155.084905,172.872851 C153.488238,172.872851 152.487286,173.584064 152.110619,174.986523 L149.074429,186.303654 C148.735857,187.562064 149.253952,188.19531 149.601095,188.48008" id="Fill-241" fill="#FEFEFE"></path>
                <path d="M166.438238,172.722811 C166.777762,173.429746 166.755857,174.549336 166.367762,175.994582 L163.872048,185.2955 C162.97919,188.621467 161.137286,190.237861 158.241571,190.237861 L146.05919,190.237861 C145.072524,190.237861 144.347286,190.050074 143.888238,189.683533 C143.97919,189.87227 144.33919,190.786484 146.498714,190.786484 L158.680619,190.786484 C161.576333,190.786484 163.418238,189.17009 164.311571,185.844123 L166.807286,176.54273 C167.569667,173.703582 166.725857,172.95291 166.438238,172.722811" id="Fill-243" fill="#FEFEFE"></path>
                <path d="M181.130381,190.237766 L173.964667,190.237766 C172.977524,190.237766 172.252762,190.049979 171.793238,189.683438 C172.019429,190.154569 172.575143,190.786389 174.40419,190.786389 L181.569905,190.786389 C183.276571,190.786389 183.508,190.372307 184.015619,189.462848 L184.257524,189.029749 C183.991333,189.211356 183.659429,189.3497 183.266095,189.436225 C182.898,189.982946 182.466571,190.237766 181.130381,190.237766" id="Fill-245" fill="#FEFEFE"></path>
                <path d="M193.964714,172.168008 L193.77519,172.872566 L182.989952,172.872566 C181.393762,172.872566 180.39281,173.584254 180.016143,174.986713 L176.979,186.303369 C176.650905,187.5285 177.129476,188.17173 177.506143,188.48027 C177.279476,188.033861 177.247571,187.489516 177.418048,186.851992 L180.455667,175.535336 C180.832333,174.132402 181.83281,173.421664 183.429476,173.421664 L194.214714,173.421664 L194.551381,172.168008 L193.964714,172.168008 Z" id="Fill-247" fill="#FEFEFE"></path>
                <path d="M200.244476,183.263551 C200.282095,183.414256 200.333048,183.518846 200.381143,183.582075 C200.635429,183.912961 201.355429,184.087911 202.462571,184.087911 L209.270667,184.087911 C209.872571,184.087911 210.47781,184.148764 210.931143,184.502944 C210.703048,184.013272 210.266857,183.539764 208.831143,183.539764 L202.023048,183.539764 C201.21019,183.539764 200.609238,183.444682 200.244476,183.263551" id="Fill-249" fill="#FEFEFE"></path>
                <path d="M217.82119,179.147833 C217.962143,179.522931 217.951667,180.03257 217.778333,180.677702 C217.778333,180.678177 216.312619,186.140636 216.312619,186.140636 C215.551667,188.974554 214.025952,190.237718 211.364524,190.237718 L198.00881,190.237718 L197.861667,190.786341 L211.804048,190.786341 C214.465476,190.786341 215.99119,189.523177 216.751667,186.688784 C216.751667,186.688784 218.217857,181.226325 218.217857,181.225849 C218.615,179.745898 218.090238,179.336095 217.82119,179.147833" id="Fill-251" fill="#FEFEFE"></path>
                <path d="M220.063143,172.168008 L219.873619,172.872566 L209.739333,172.872566 C209.011238,172.872566 207.495048,172.872566 207.050762,174.531746 C207.050762,174.53127 206.692667,175.86432 206.692667,175.86432 C206.411714,176.912598 206.926476,177.432697 207.192667,177.636648 C207.030762,177.288172 207.006952,176.878844 207.13219,176.412943 C207.13219,176.412943 207.490286,175.079893 207.490286,175.080369 C207.934571,173.421664 209.450762,173.421664 210.178857,173.421664 L220.312667,173.421664 L220.649333,172.168008 L220.063143,172.168008 Z" id="Fill-253" fill="#FEFEFE"></path>
                <path d="M81.2091905,151.278785 L79.0125238,159.464392 C79.0125238,159.464392 78.9963333,159.510507 78.9801429,159.556621 C78.9072857,159.561851 78.8296667,159.56708 78.8296667,159.56708 L75.8268095,159.56708 C75.973,159.02131 78.0510952,151.278785 78.0510952,151.278785 L72.2858571,151.278785 L70.2225238,158.968064 C69.8625238,160.307293 69.9701429,161.36413 70.5410952,162.10672 C70.8934762,162.565966 71.5972857,163.113162 72.9468095,163.113162 L78.3258571,163.113162 C80.6577619,163.113162 81.9463333,162.02067 82.6334762,159.460113 L84.8291905,151.278785 L81.2091905,151.278785 Z" id="Fill-255" fill="#FEFEFE"></path>
                <path d="M78.3257619,162.16258 L72.9471905,162.16258 C71.423381,162.16258 70.5757619,161.323957 71.1424286,159.214089 L73.0167143,152.229843 L76.8100476,152.229843 L74.8271905,159.617236 C74.6567143,160.253334 74.8967143,160.517662 75.4714762,160.517662 L78.8300476,160.517662 C79.4981429,160.517662 79.753381,160.377416 79.9324286,159.710416 L81.9400476,152.229843 L83.5876667,152.229843 L81.713381,159.214089 C81.1471905,161.323957 80.2224286,162.16258 78.3257619,162.16258" id="Fill-257" fill="#A49372"></path>
                <path d="M99.3309524,151.278785 C99.3309524,151.278785 98.5295238,154.264834 97.932381,156.489277 C97.422381,154.277195 96.7314286,151.278785 96.7314286,151.278785 L90.2833333,151.278785 L87.1071429,163.113162 L90.7266667,163.113162 C90.7266667,163.113162 91.5419048,160.077195 92.15,157.80949 C92.6704762,160.064834 93.3733333,163.113162 93.3733333,163.113162 L99.7742857,163.113162 L102.950952,151.278785 L99.3309524,151.278785 Z" id="Fill-259" fill="#FEFEFE"></path>
                <polygon id="Fill-261" fill="#A49372" points="94.1311905 162.16258 92.2345238 153.936564 92.2035714 153.936564 89.9959524 162.16258 88.3483333 162.16258 91.0140476 152.229843 95.9735714 152.229843 97.8411905 160.331302 97.887381 160.331302 100.061667 152.229843 101.709762 152.229843 99.0435714 162.16258"></polygon>
                <polygon id="Fill-263" fill="#FEFEFE" points="108.405762 151.278785 105.229571 163.113162 110.99481 163.113162 114.171 151.278785"></polygon>
                <polygon id="Fill-265" fill="#A49372" points="106.470762 162.16258 109.136476 152.229843 112.92981 152.229843 110.264095 162.16258"></polygon>
                <path d="M129.446714,151.278785 C129.446714,151.278785 127.039571,154.959884 125.542429,157.249457 C125.326238,154.934687 124.98481,151.278785 124.98481,151.278785 L119.02719,151.278785 L120.166714,163.113162 L125.791,163.113162 L133.542429,151.278785 L129.446714,151.278785 Z" id="Fill-267" fill="#FEFEFE"></path>
                <polygon id="Fill-269" fill="#A49372" points="125.275857 162.16258 121.031571 162.16258 120.075381 152.229843 124.117286 152.229843 124.847286 160.052236 129.962524 152.229843 131.781571 152.229843"></polygon>
                <path d="M138.229286,151.278785 L135.053571,163.113162 L145.636905,163.113162 L146.589762,159.56708 L141.769762,159.56708 C141.871667,159.187228 141.895952,159.0969 141.975952,158.798818 L146.391667,158.798818 L147.342143,155.251785 L142.927857,155.251785 C142.985,155.038802 142.994048,155.005523 143.042143,154.825343 L147.861667,154.825343 L148.814524,151.278785 L138.229286,151.278785 Z" id="Fill-271" fill="#FEFEFE"></path>
                <polygon id="Fill-273" fill="#A49372" points="136.294524 162.16258 138.960238 152.229843 147.573095 152.229843 147.130714 153.874285 142.311667 153.874285 141.686429 156.202843 146.101667 156.202843 145.660238 157.848236 141.245 157.848236 140.52881 160.517662 145.348333 160.517662 144.905952 162.16258"></polygon>
                <path d="M159.66019,154.825295 C159.613524,154.99882 159.574952,155.143344 159.545905,155.251738 L158.75019,155.251738 C158.807333,155.038754 158.816381,155.005475 158.864952,154.825295 L159.66019,154.825295 Z M154.051619,151.278738 L150.875429,163.11359 L156.640667,163.11359 C156.640667,163.11359 157.212095,160.983279 157.551143,159.72059 C157.736857,160.96141 158.058762,163.11359 158.058762,163.11359 L164.206857,163.11359 C164.206857,163.11359 163.48781,159.757672 163.24019,158.601 C164.088286,158.299115 164.67019,157.636869 164.951619,156.58859 L165.464,154.679344 C165.575429,154.264787 165.631619,153.888738 165.631619,153.549295 C165.631619,153.010656 165.490667,152.562344 165.208286,152.194852 C164.577333,151.37382 163.463048,151.278738 162.679714,151.278738 L154.051619,151.278738 Z" id="Fill-275" fill="#FEFEFE"></path>
                <path d="M160.751143,154.433462 C160.876381,153.968036 160.745905,153.87438 160.342095,153.87438 L158.134,153.87438 L157.508762,156.202938 L159.716857,156.202938 C160.167333,156.202938 160.318286,156.047479 160.426381,155.644331 L160.751143,154.433462 Z M158.879238,162.162675 L158.234,157.848331 L157.06781,157.848331 L155.909714,162.162675 L152.116857,162.162675 L154.782095,152.229462 L162.679714,152.229462 C164.312095,152.229462 164.994476,152.757167 164.544476,154.433462 L164.032095,156.342708 C163.798286,157.211757 163.34781,157.848331 162.104952,157.848331 L163.029238,162.162675 L158.879238,162.162675 Z" id="Fill-277" fill="#A49372"></path>
                <path d="M174.492524,151.278785 C172.795381,151.278785 171.433952,152.422621 170.93919,154.264359 C170.93919,154.264834 170.302048,156.639507 170.302048,156.639507 C170.211095,156.976572 170.122048,157.388752 170.122048,157.810916 C170.122048,158.254949 170.220619,158.708966 170.519667,159.097851 C170.678714,159.304654 170.870619,159.45013 171.074429,159.56708 L169.516333,159.56708 L168.564905,163.113162 L177.143476,163.113162 C178.498238,163.113162 180.254905,162.584507 180.930619,160.064359 L181.630619,157.457687 C181.713476,157.149621 181.747762,156.872933 181.747762,156.626195 C181.747762,156.015769 181.537286,155.5879 181.325381,155.311687 C181.174905,155.116293 180.980143,154.960834 180.763952,154.825343 L182.33681,154.825343 L183.28919,151.278785 L174.492524,151.278785 Z" id="Fill-279" fill="#FEFEFE"></path>
                <path d="M177.143667,162.16258 L169.806048,162.16258 L170.247476,160.517662 L175.563667,160.517662 C176.045571,160.517662 176.183667,160.408793 176.271286,160.082662 L176.455095,159.399974 C176.546048,159.05863 176.415571,158.965449 175.933667,158.965449 L172.684619,158.965449 C171.254619,158.965449 170.809381,158.422531 171.221762,156.885531 L171.858905,154.510859 C172.188429,153.284777 173.077952,152.229843 174.492714,152.229843 L182.047952,152.229843 L181.606048,153.874285 L176.367,153.874285 C175.854619,153.874285 175.673667,153.968416 175.59081,154.278384 L175.419381,154.914482 C175.34081,155.209711 175.47081,155.301941 175.984143,155.301941 L178.81319,155.301941 C180.259381,155.301941 181.07319,155.861023 180.71081,157.211662 L180.01081,159.81881 C179.598429,161.35581 178.682238,162.16258 177.143667,162.16258" id="Fill-281" fill="#A49372"></path>
                <polygon id="Fill-283" fill="#FEFEFE" points="188.402286 151.278785 185.225619 163.113162 190.991333 163.113162 194.167048 151.278785"></polygon>
                <polygon id="Fill-285" fill="#A49372" points="186.46681 162.16258 189.133 152.229843 192.925857 152.229843 190.260619 162.16258"></polygon>
                <path d="M199.046095,151.278785 L198.095143,154.825343 L201.235143,154.825343 C200.764667,156.577228 199.010381,163.113162 199.010381,163.113162 L204.775143,163.113162 C204.775143,163.113162 206.683238,156.004834 206.999905,154.825343 L210.139905,154.825343 L211.092762,151.278785 L199.046095,151.278785 Z" id="Fill-287" fill="#FEFEFE"></path>
                <polygon id="Fill-289" fill="#A49372" points="206.268952 153.874475 204.044667 162.16277 200.251333 162.16277 202.476095 153.874475 199.335619 153.874475 199.777048 152.229557 209.850857 152.229557 209.409429 153.874475"></polygon>
                <path d="M225.603,151.278785 C225.603,151.278785 223.758714,153.343015 222.683476,154.546277 C222.230619,153.328277 221.468238,151.278785 221.468238,151.278785 L214.932524,151.278785 C214.932524,151.278785 217.423476,157.811867 217.622524,158.333392 C217.48681,158.840179 216.339667,163.113162 216.339667,163.113162 L222.104905,163.113162 C222.104905,163.113162 223.118714,159.335556 223.222524,158.949048 C223.508714,158.629097 230.085381,151.278785 230.085381,151.278785 L225.603,151.278785 Z" id="Fill-291" fill="#FEFEFE"></path>
                <polygon id="Fill-293" fill="#A49372" points="226.029905 152.229605 222.341333 156.358064 220.806095 152.229605 216.31419 152.229605 218.622286 158.282523 217.580857 162.162343 221.37419 162.162343 222.361333 158.484097 227.957524 152.229605"></polygon>
            </g>
        </g>
    </g>
</svg>