<?xml version="1.0" encoding="UTF-8" standalone="no"?>
<svg width="250px" height="250px" viewBox="0 0 250 250" version="1.1" xmlns="http://www.w3.org/2000/svg" xmlns:xlink="http://www.w3.org/1999/xlink">
    <!-- Generator: Sketch 47.1 (45422) - http://www.bohemiancoding.com/sketch -->
    <title>KENSAW</title>
    <desc>Created with Sketch.</desc>
    <defs></defs>
    <g id="Page-1" stroke="none" stroke-width="1" fill="none" fill-rule="evenodd">
        <g id="KENSAW" fill-rule="nonzero">
            <g id="Kennesaw_State_Owls_logo" transform="translate(0.000000, 7.000000)">
                <path d="M49.6271869,0.00146535016 L68.8162741,36.5518954 L68.8162741,36.7146355 L0,36.7146355 L13.2816212,60.29528 C11.8876071,63.441473 11.1052678,66.9226853 11.1482708,70.3740159 L11.1482708,97.8886946 C10.836499,111.611842 22.2129438,120.676901 33.7807519,125.403373 L11.2153555,125.403373 L11.2153555,161.359044 C10.5344746,188.730061 49.771849,190.789596 68.8164461,192.628467 L68.8164461,199.0875 L49.6161781,235.632184 L127.033053,235.632184 L127.033053,194.981647 C132.265085,194.981647 137.497691,194.952914 142.722556,194.891858 L154.077929,208.825901 L139.97323,235.62773 L249.484681,235.62773 L219.310906,198.640569 C224.800956,197.279373 228.701042,193.876457 228.701042,189.886107 C228.701042,187.397167 227.179796,185.141533 224.714377,183.46069 C232.770273,178.798865 238.69494,171.101755 238.623269,161.361486 L238.623269,136.933237 C238.600334,123.477875 232.640117,113.407184 220.283921,107.818741 L238.453837,107.818741 L238.453837,77.6555132 C238.453837,73.1876318 238.840864,68.381858 237.64753,64.0470074 C234.622986,53.045963 223.908644,47.2997791 213.788604,44.1645044 L250,0 L140.230532,0 C144.892631,9.0075936 149.56505,18.0166238 154.234603,27.0207695 L146.009275,37.0489364 C139.221968,36.8657677 132.748869,36.7649746 127.033196,36.7290591 L127.033196,0.000488450052 L49.6277889,0.000488450052 L49.6271869,0.00146535016 Z" id="Shape" fill="#C5C6C8"></path>
                <path d="M63.621497,8.62068966 L63.6157558,8.62645755 L63.6272382,8.62645755 L63.621497,8.62068966 L63.621497,8.62068966 Z M63.6272382,8.62645755 L77.856781,35.7981616 L77.856781,45.4709271 L14.3678161,45.4709271 L23.3711524,61.4941488 C21.340206,64.3261868 20.0653744,68.0782047 20.1193416,71.6283462 L20.1193416,99.2508114 C19.9829883,117.846516 46.9347242,123.170286 60.6492822,126.062887 C66.3789912,127.046314 72.117312,127.998017 77.8556328,128.9353 L77.8556328,150.440909 C72.2005593,150.117907 66.5713211,149.63052 60.9851419,148.921068 L60.9851419,134.484019 L20.1853653,134.484019 L20.1853653,162.957249 C20.063365,182.017269 50.3495849,184.384991 63.7495256,185.971163 C68.4429495,186.527765 73.1449853,186.96901 77.8556328,187.346807 L77.8556328,202.70672 L63.6146076,229.885057 L120.96911,229.885057 L120.96911,189.036801 C123.420598,189.054105 125.872087,189.065641 128.320705,189.071409 C134.813993,189.080061 141.315892,189.045453 147.826403,188.930095 L164.708376,209.685877 L154.104396,229.873522 L235.161406,229.873522 L198.920136,185.342462 C213.606103,183.280439 232.709917,178.533458 232.709917,162.957249 L232.709917,138.437913 C232.709917,133.800523 231.969304,128.508476 230.298617,125.725465 C224.256013,115.646063 210.919226,113.281224 200.539152,110.80968 C196.129917,109.757038 178.854672,106.835598 158.074429,103.44119 L173.891412,84.1043103 C180.267005,84.464804 186.352668,85.0069864 191.890047,85.823144 L191.890047,101.589694 L232.531941,101.589694 L232.531941,71.582203 C232.704176,58.3275726 217.556043,53.4825379 207.138651,50.9619663 C205.571306,50.584169 203.791536,50.2294433 201.868237,49.8977891 L235.632184,8.62559237 L154.26802,8.62645755 C156.472637,12.8840317 164.843294,29.0727921 164.843294,29.0727921 L151.067305,45.9208232 C140.994385,45.6035888 131.406595,45.476695 123.762199,45.476695 L120.96911,45.476695 L120.96911,8.62559237 L63.62609,8.62645755 L63.6272382,8.62645755 Z M218.673853,187.636067 C216.342929,187.636067 214.491395,189.447187 214.491395,191.708203 C214.491395,194.021131 216.342929,195.840903 218.673853,195.840903 C221.022,195.840903 222.827605,194.021131 222.827605,191.708203 C222.827605,189.447187 221.022,187.636067 218.673853,187.636067 Z M218.673853,188.452225 L218.673853,188.457993 C220.476587,188.457993 221.79132,189.923039 221.79132,191.739927 C221.79132,193.527975 220.479457,194.96995 218.693947,194.96995 C216.865378,194.96995 215.52768,193.525091 215.52768,191.708203 C215.52768,189.920155 216.865378,188.452225 218.673853,188.452225 L218.673853,188.452225 Z M218.650888,189.64618 C217.979169,189.64618 217.459591,189.700975 217.086413,189.775957 L217.086413,193.853862 L218.027969,193.853862 L218.027969,192.210011 L218.475782,192.210011 C218.99536,192.210011 219.23936,192.406119 219.311125,192.850247 C219.437431,193.326099 219.514937,193.701012 219.638373,193.853862 L220.657434,193.853862 C220.554093,193.701012 220.479457,193.452993 220.356022,192.827176 C220.232586,192.287877 220.005809,191.987946 219.609667,191.837981 L219.609667,191.78607 C220.103409,191.638989 220.456493,191.287147 220.456493,190.840135 C220.456493,190.44215 220.281386,190.122031 220.05748,189.948994 C219.756067,189.775957 219.414466,189.64618 218.650888,189.64618 L218.650888,189.64618 Z M218.570511,190.321024 C219.164725,190.321024 219.440302,190.56616 219.440302,190.941073 C219.440302,191.362129 219.018324,191.53805 218.498746,191.53805 L218.056675,191.53805 L218.056675,190.367167 C218.151404,190.344095 218.32364,190.321024 218.570511,190.321024 L218.570511,190.321024 Z" id="Shape" fill="#231F20"></path>
                <path d="M77.3954884,83.3333333 C71.7051744,83.6473636 66.0177577,84.1098446 60.3448276,84.7892919 L60.3448276,86.4393783 C62.3700463,87.1959057 71.1865562,89.0058621 72.8177409,89.2542315 C74.1794759,89.4654882 75.7208441,89.7024383 77.3954884,89.962227 L77.3954884,83.3333333 L77.3954884,83.3333333 Z M164.172777,141.014986 L171.15529,149.425287 C178.250799,149.114112 185.372384,148.526019 192.528736,147.46688 L192.528736,145.973809 C190.454263,145.191588 187.565646,144.711978 184.894328,144.189546 C177.990041,143.110424 171.085755,142.062705 164.172777,141.014986 L164.172777,141.014986 Z" id="Shape" fill="#C5C6C8"></path>
                <path d="M79.5356738,17.2416654 L86.8396868,30.9905492 L86.8396868,43.2031027 L108.830562,43.2031027 L108.830562,17.2413793 L79.5342299,17.2413793 L79.5356738,17.2416654 Z M170.595431,17.2416654 L176.404739,28.236253 L108.831139,109.718113 L108.831139,80.7678247 C101.507201,80.7392205 94.167957,80.7687171 86.8402644,80.9689406 L86.8402644,147.736811 C94.1642029,147.933465 101.507201,147.952916 108.831139,147.91001 L108.831139,123.037819 L176.274789,204.811442 L170.578104,215.509976 L211.847092,215.509976 L130.007955,116.373618 L212.242715,17.2429811 L170.595431,17.2429811 L170.595431,17.2416654 Z M30.5679163,53.7663394 L34.9342104,61.4265381 C30.7146146,63.5468227 28.7356322,66.1061815 28.7356322,69.1419428 L28.7356322,96.5338751 C28.7356322,102.565924 38.9121007,108.210672 61.0150208,112.78019 L76.1532397,115.154565 L76.1532397,98.7240398 L64.9406426,96.9977205 C56.9054486,95.4781236 48.4939794,92.3117841 48.4939794,89.304627 L48.4939794,75.466212 C48.4939794,69.9347362 95.3536715,70.4518997 127.552203,70.4662018 L141.319891,53.862335 C137.21927,53.8051267 133.004873,53.7673691 128.640889,53.7673691 L30.569649,53.7673691 L30.5679163,53.7663394 Z M193.044882,57.0586802 L181.127094,71.4265585 C192.69604,72.1452384 201.538941,73.3725293 201.538941,75.4714752 L201.538941,88.2930116 L221.076375,88.2930116 L221.076375,69.1024691 C221.076375,63.5747118 211.086167,59.5818547 193.044882,57.057536 L193.044882,57.0586802 Z M149.136481,109.993571 L143.829066,116.390323 L152.73492,127.178388 L185.11538,132.256774 C192.912334,133.772795 201.579081,136.978466 201.579081,139.949868 L201.579081,151.883244 C201.579081,154.65785 191.552776,156.272269 177.518259,157.201905 L189.932165,172.230254 C210.13205,169.745266 221.264368,165.608959 221.264368,159.727082 L221.264368,135.413531 C221.264368,130.457857 220.668998,128.795383 220.232224,128.044523 C217.32656,122.999318 210.879923,121.006179 181.799018,115.03849 L149.135557,109.992713 L149.136481,109.993571 Z M28.8092701,142.061714 L28.8092701,159.727082 C28.8092701,170.099529 71.2651273,175.057205 128.751779,175.057205 C131.874025,175.057205 134.912816,175.037468 137.894429,175.012496 L124.177566,158.380597 C105.825847,158.430655 48.5037978,158.430197 48.5037978,153.363711 L48.5037978,142.061628 L28.8084038,142.061628 L28.8092701,142.061714 Z M86.8417082,184.650474 L86.8417082,201.773792 L79.5376952,215.517241 L108.834027,215.517241 L108.834027,185.437088 C101.50258,185.294068 94.1636254,185.049817 86.8431521,184.649358 L86.8417082,184.650474 Z" id="Shape" fill="#FDBB30"></path>
            </g>
        </g>
    </g>
</svg>