<?xml version="1.0" encoding="UTF-8" standalone="no"?>
<svg width="250px" height="250px" viewBox="0 0 250 250" version="1.1" xmlns="http://www.w3.org/2000/svg" xmlns:xlink="http://www.w3.org/1999/xlink">
    <!-- Generator: Sketch 47.1 (45422) - http://www.bohemiancoding.com/sketch -->
    <title>GWEBB</title>
    <desc>Created with Sketch.</desc>
    <defs></defs>
    <g id="Page-1" stroke="none" stroke-width="1" fill="none" fill-rule="evenodd">
        <g id="GWEBB" fill-rule="nonzero">
            <g id="Asset-1" transform="translate(0.000000, 51.000000)">
                <path d="M19.4664634,89.5520408 C19.72672,89.960257 19.72672,90.4817839 19.4664634,90.89 C19.0571781,91.1495767 18.5342853,91.1495767 18.125,90.89 C17.8647434,90.4817839 17.8647434,89.960257 18.125,89.5520408 C18.5342853,89.2924641 19.0571781,89.2924641 19.4664634,89.5520408" id="Shape" fill="#231F20"></path>
                <path d="M78.429878,26.7439796 C94.8780488,8.24061224 118.902439,-2.76714286 143.810976,3.04081633 C163.231707,7.60204082 176.097561,21.2857143 192.682927,31.9285714 C195.533537,33.7682653 198.033537,36.2009184 201.676829,36.2161224 C202.088415,39.8042857 199.954268,42.8907143 199.634146,46.3268367 C206.611144,50.2462451 212.479494,55.8638895 216.692073,62.6560204 C218.605898,65.6421927 220.18547,68.8287733 221.402439,72.1585714 C222.560976,75.4426531 221.036585,79.2284694 223.490854,82.2540816 C228.490854,79.4261224 233.628049,76.172449 239.695122,77.7992857 C242.42378,78.5594898 242.408537,81.5242857 244.390244,83.1359184 C245.616905,84.1829638 247.260735,84.6040776 248.841463,84.2762245 C249.176829,87.6819388 245.792683,89.780102 243.155488,91.1636735 C240.278972,92.8734274 236.566888,92.0772149 234.64939,89.3391837 C230.992378,92.8585519 226.635148,95.5727642 221.859756,97.3061224 C220.807927,97.7318367 218.810976,97.595 218.140244,97.975102 C214.115854,100.270918 211.25,104.056735 207.256098,106.656633 C209.02439,107.462449 210.304878,105.896429 211.829268,105.683571 C214.878049,105.303469 217.77439,107.35602 220.320122,106.337347 C223.536585,105.029796 226.036585,102.125816 229.634146,101.274388 C233.231707,100.422959 238.033537,100.98551 238.429878,105.166633 C238.817438,108.114865 239.56485,111.004797 240.655488,113.772143 C241.146115,115.638161 240.703298,117.625635 239.466463,119.108776 C237.088415,122.149592 236.554878,125.950612 233.536585,128.231224 C227.179878,133.157347 219.253049,133.507041 212.057927,135.711633 C200.152439,139.360612 187.896341,142.036531 175.807927,140.014388 C163.765244,150.094694 144.588415,152.177653 131.676829,142.036531 C125.914634,142.249388 120.091463,144.317143 114.466463,141.945306 C107.85061,139.162959 103.307927,134.039184 97.5304878,129.599592 C96.3109756,128.672143 94.1006098,130.116531 93.9329268,131.45449 C93.6737805,133.355 94.8323171,136.319796 93.8262195,136.988776 C91.554878,138.509184 88.9329268,133.947959 86.2042683,134.76898 C79.9695122,136.730306 73.6585366,136.289388 67.4085366,137.399286 C65.5945122,137.733776 64.5121951,141.854082 63.5365854,141.428367 C60.1219512,139.907959 60.320122,133.826327 55.6402439,133.142143 C50.9603659,132.457959 46.402439,134.738571 42.0579268,132.260306 C35.0762195,128.292041 27.652439,130.891939 20.1829268,130.086122 C13.429878,129.371531 9.78658537,123.472347 8.33841463,116.402449 C7.92682927,114.456327 3.88719512,114.213061 1.98170732,112.145306 C-0.929878049,108.982857 -0.12195122,104.801735 1.98170732,101.684898 C3.50609756,99.5867347 6.67682927,99.2218367 7.5,97.3517347 C9.20731707,93.5811224 6.69207317,88.5333673 10.4573171,84.8995918 C11.2042683,85.857449 11.7682927,86.9521429 12.4847561,87.9404082 C13.7195122,82.695 18.6585366,80.5816327 22.3170732,77.0238776 C23.2469512,76.1420408 23.8414634,74.6216327 25.1371951,73.7702041 C23.8091061,73.5231995 22.6584766,72.7031515 21.99391,71.53 C21.3293434,70.3568485 21.2188532,68.950657 21.6920732,67.6885714 C22.3438835,65.5851705 23.78589,63.8146102 25.7164634,62.7472449 C27.3777599,62.1183425 28.9467021,61.2694403 30.3810976,60.2233673 C35.7844104,55.0633815 41.6699214,50.4304029 47.9573171,46.3876531 C46.9207317,36.6114286 57.3170732,33.7682653 63.5213415,28.492449 C64.4359756,27.7018367 64.527439,25.6188776 65.7621951,25.4516327 C69.1006098,24.8586735 70.2134146,29.8456122 69.6189024,32.7495918 C68.7652439,36.8394898 64.4664634,38.5727551 63.2926829,42.4193878 C63.2164634,42.6778571 63.8109756,43.1643878 64.1310976,42.845102 C69.3292683,37.6605102 73.5518293,32.2022449 78.429878,26.7287755" id="Shape" fill="#231F20"></path>
                <path d="M29.1920732,71.2615306 C36.402439,70.5773469 36.2195122,62.7168367 38.9634146,57.6538776 C39.0853659,57.4410204 40.1371951,57.4714286 40.2134146,57.6538776 C40.6554878,58.7333673 38.8719512,60.9835714 39.6189024,60.6946939 C43.2661621,58.9755486 46.7551509,56.9405341 50.0457317,54.6130612 C50.9403247,54.0134958 52.0417859,53.8047648 53.0945122,54.0353061 C49.7256098,57.8667347 44.222561,58.5965306 41.0670732,62.7320408 C39.2987805,65.0886735 37.5914634,67.6885714 38.5213415,70.6837755 C38.8365694,71.3913127 39.6080763,71.7792381 40.3658537,71.6112245 C41.0060976,71.3831633 41.0670732,70.212449 41.5396341,69.8779592 C48.0182927,65.3167347 52.8963415,60.1169388 59.7408537,56.6504082 C63.2819959,54.69535 67.4915971,54.3413175 71.3109756,55.6773469 C73.7652439,56.6504082 73.9786585,59.3871429 73.1707317,61.5309184 C72.2669345,63.384659 70.7249566,64.8524568 68.8262195,65.6664286 C71.6158537,69.3154082 73.8871951,73.2684694 77.0579268,76.6893878 C81.3567073,81.2506122 86.2042683,85.1580612 90.1219512,89.9473469 C82.2408537,87.6211224 78.7042683,79.4565306 71.3567073,76.2636735 C70.8841463,76.0660204 70.3810976,76.4461224 70.4573171,76.7197959 C70.5935038,77.4386639 70.9504265,78.0975117 71.4786585,78.605102 C76.1432927,81.6459184 81.6158537,84.565102 82.4237805,90.4186735 C82.4237805,90.7531633 81.7835366,91.1788776 81.6158537,90.8595918 C79.6487466,87.0850798 76.8310822,83.8168004 73.3841463,81.3114286 C72.6371951,85.3861224 75.8993902,89.3391837 73.8109756,93.3986735 C73.7347561,93.5355102 73.2164634,93.3986735 72.8810976,93.3986735 C73.2469512,85.1732653 70.7621951,75.9595918 63.4756098,72.1129592 C56.1890244,68.2663265 49.9695122,76.9782653 43.3841463,80.0342857 C42.3347025,80.6423382 41.1079456,80.8730959 39.9085366,80.6880612 C42.7743902,77.6472449 48.4146341,77.0694898 49.3902439,73.4357143 C49.7256098,72.1585714 45.6554878,70.6685714 44.2073171,72.7667347 C43.9481707,73.1316327 45.3963415,73.5117347 45.9908537,74.119898 C40.4115854,75.8531633 34.8323171,72.0217347 29.222561,74.119898 C32.347561,75.7315306 35.6402439,74.9409184 38.8262195,76.2332653 C38.9481707,76.2332653 38.9481707,76.9934694 38.8262195,77.0542857 C37.5914634,77.6168367 35.5945122,76.370102 35.0304878,77.7536735 C33.2926829,82.1020408 27.9420732,82.4669388 24.3902439,85.1428571 C22.8658537,86.3439796 22.7286585,84.8843878 22.027439,83.3639796 C20.9146341,84.747551 19.9847561,83.2423469 19.4969512,82.3453061 L16.4481707,85.3861224 C17.3170732,86.039898 19.1463415,86.1311224 17.8658537,87.2866327 C17.195122,87.8947959 16.4939024,86.9977551 15.945122,86.3895918 C13.9481707,88.7310204 13.0792683,92.0759184 16.0670732,93.125 C18.0792683,93.8243878 19.8932927,91.4981633 21.7073171,90.1754082 C22.4847561,89.6128571 23.0640244,91.6958163 24.0853659,91.817449 C27.3170732,92.4408163 31.1432927,94.7062245 33.3384146,92.1519388 C34.6221089,90.4006839 35.6487139,88.4757083 36.3871951,86.4352041 C36.6768293,85.7206122 37.4695122,84.9147959 38.2469512,85.492551 C40.0457317,86.800102 39.527439,90.5555102 40.7621951,90.3426531 C45.7469512,89.4608163 46.8597561,83.1055102 51.0823171,79.9126531 C55.304878,76.7197959 62.6676829,74.3783673 65.9908537,79.9126531 C73.0030488,91.6958163 67.1189024,104.239184 64.9237805,116.752143 C63.8414634,122.985816 64.0853659,131.211224 71.8292683,132.27551 C83.8414634,133.978367 92.195122,123.74602 96.0365854,113.711327 C96.6463415,112.114898 96.4939024,110.366429 97.0121951,108.648367 C97.8353659,105.911633 95.4878049,103.250918 96.3262195,100.666224 C96.4176829,100.377347 97.5152439,101.624082 98.0335366,101.015918 C101.384676,97.3473103 102.580109,92.2036712 101.189024,87.4386735 C100.533462,88.2135963 99.6377125,88.748572 98.6432927,88.9590816 C98.9634146,85.9182653 101.402439,83.7896939 102.057927,80.824898 C102.696276,77.9987178 102.484165,75.0474895 101.448171,72.3410204 C98.9786585,65.8488776 95.3506098,59.4783673 89.2530488,56.0270408 C88.3079268,55.494898 88.9176829,60.345 87.3780488,59.0678571 C85.8384146,57.7907143 88.4146341,53.9288776 87.4695122,52.2716327 C86.5243902,50.6143878 83.8414634,47.1326531 81.2195122,49.7629592 C80.6707317,50.295102 81.2195122,48.9267347 80.929878,48.4858163 C81.7378049,48.2729592 81.1585366,47.1630612 81.9512195,46.9654082 C81.1103089,45.9889625 80.7374436,44.6956688 80.929878,43.4228571 C84.2378049,44.3655102 85.1829268,47.9840816 88.0487805,49.5044898 C90.1928455,50.6994255 92.7204987,51.0104642 95.0914634,50.3711224 C98.1402439,49.4740816 101.189024,48.1209184 102.713415,44.9736735 C102.809735,44.7884044 102.809209,44.5678814 102.712006,44.3830715 C102.614803,44.1982615 102.433189,44.0724873 102.22561,44.0462245 C100.198751,43.8322395 98.1549074,43.8322395 96.1280488,44.0462245 C95.7469512,44.0462245 95.6859756,44.7 95.5030488,44.882449 C94.8628049,45.5210204 93.7347561,44.5935714 93.2469512,44.2438776 C89.5579268,41.5527551 85.9146341,37.630102 81.4786585,39.5610204 C77.8506098,41.0814286 76.4939024,45.0953061 73.2317073,47.4215306 C72.5457317,47.9080612 71.4634146,48.5162245 70.8841463,47.9080612 C70.304878,47.299898 71.25,46.6309184 71.722561,45.9619388 C71.8361135,45.785893 71.8481863,45.5631751 71.754326,45.3759447 C71.6604656,45.1887143 71.4745809,45.0647167 71.2652439,45.0496939 C57.9268293,43.1491837 45.7317073,49.2156122 36.4329268,58.2316327 C35.945122,58.6877551 37.0121951,60.0713265 36.2195122,60.4666327 C32.7439024,62.199898 28.9329268,62.7472449 26.25,65.7576531 C25.4623729,66.6061122 24.9335785,67.6609382 24.7256098,68.7984694 C24.3902439,71.4591837 27.347561,71.4591837 29.1920732,71.2615306" id="Shape" fill="#FFFFFF"></path>
                <path d="M64.7103659,61.5765306 C66.2347561,61.9110204 67.7591463,59.7672449 68.4908537,60.8315306 C69.222561,61.8958163 66.3719512,61.9718367 66.402439,63.142551 C66.462555,63.5415036 66.7102952,63.8877416 67.0690171,64.0741505 C67.4277389,64.2605594 67.8541985,64.2646676 68.2164634,64.0852041 C70.0914634,63.0817347 73.6585366,60.4058163 71.097561,58.9614286 C67.7286585,57.0913265 62.8963415,58.5205102 60.1371951,61.6373469 C61.6615854,62.5039796 63.1097561,61.2116327 64.7103659,61.6373469" id="Shape" fill="#FFFFFF"></path>
                <path d="M62.8353659,67.2780612 C63.5365854,65.8792857 64.3597561,63.7355102 62.6371951,63.3097959 C59.4512195,62.4887755 57.0731707,65.0886735 54.5579268,66.7003061 C55.7164634,67.5973469 55.1981707,69.9387755 56.0823171,69.8779592 C58.3993902,69.7107143 61.4634146,70.0908163 62.8658537,67.2780612" id="Shape" fill="#FFFFFF"></path>
                <path d="M22.5762195,80.3079592 C21.7116113,80.7703459 20.8720327,81.2778522 20.0609756,81.8283673 C21.5853659,82.5277551 22.027439,82.2540816 22.6067073,83.8505102 C23.2469512,82.7254082 24.3292683,81.7067347 24.0243902,80.3383673 C23.8109756,79.3653061 23.1554878,80.0494898 22.5762195,80.3383673" id="Shape" fill="#FFFFFF"></path>
                <path d="M49.4512195,91.4677551 C50.0762195,90.6619388 50.8231707,91.0876531 51.5091463,90.9812245 C51.5091463,93.0641837 49.7103659,94.0220408 48.3536585,94.797449 C46.0365854,96.0593878 44.4817073,91.6654082 42.6067073,92.8361224 C40.7317073,94.0068367 43.1707317,98.4920408 45.4115854,98.3704082 C46.2195122,98.3704082 46.7682927,96.5459184 47.8963415,97.1692857 C49.0243902,97.7926531 49.847561,99.3586735 51.0823171,99.9364286 C53.6585366,101.167959 56.0670732,97.230102 57.7439024,98.5376531 C58.9760232,99.6828196 60.6281594,100.268712 62.3085543,100.156402 C63.9889491,100.044093 65.5479388,99.2435839 66.6158537,97.9446939 C67.6290506,96.7933038 67.7771048,95.1197388 66.9817073,93.8091837 C65.5626905,92.7984705 63.9112767,92.1605461 62.179878,91.9542857 C59.6646341,91.4829592 59.2987805,95.9681633 57.3170732,94.2653061 C55.6097561,92.744898 51.9664634,92.2583673 52.972561,90.7683673 C53.9786585,89.2783673 55.8841463,91.5741837 57.6676829,92.2887755 C58.7195122,92.744898 59.7713415,90.9812245 61.2652439,91.6806122 C61.7835366,91.9238776 61.3567073,90.3122449 61.7530488,90.0537755 C63.6890244,88.837449 64.3902439,91.5741837 66.3262195,91.8022449 C66.6158537,91.8022449 67.195122,91.270102 67.2103659,90.9204082 C67.3018293,88.4269388 67.1036585,84.8387755 65.1829268,84.4434694 C62.3932927,83.9721429 61.3567073,88.6702041 57.8506098,85.1884694 C55.8689024,83.2271429 54.2987805,87.5603061 51.5853659,87.8795918 C51.5552799,87.0107349 50.9194911,86.2814877 50.0609756,86.1311224 C47.5304878,86.4656122 45.8841463,89.0046939 44.7256098,91.072449 C44.0091463,92.38 46.6006098,92.3952041 47.4847561,93.4442857 C48.1995729,92.8149054 48.8670228,92.1339539 49.4817073,91.4069388" id="Shape" fill="#FFFFFF"></path>
                <path d="M35.1371951,95.8921429 C35.7317073,97.412551 40.0304878,98.1271429 40.3963415,96.9108163 C41.1280488,94.4477551 38.8719512,91.6502041 37.820122,88.9590816 C36.2957317,91.0876531 34.2378049,93.5203061 35.1371951,95.8921429" id="Shape" fill="#FFFFFF"></path>
                <path d="M25.5335366,97.1996939 C27.9420732,96.469898 30.8689024,97.9446939 32.7439024,95.5272449 C31.0518293,94.3869388 29.1158537,95.740102 27.804878,95.2231633 C26.2804878,94.5997959 24.2987805,93.4442857 22.5,94.3109184 C22.2103659,94.4477551 21.0670732,93.3378571 20.7164634,93.6723469 C19.6646341,94.6606122 17.6676829,95.1927551 17.7896341,96.5307143 C17.8658537,97.4429592 19.222561,98.2335714 20.0609756,99.0697959 C21.3871951,96.7739796 23.5823171,97.777449 25.5335366,97.1996939" id="Shape" fill="#FFFFFF"></path>
                <path d="M12.9878049,103.14449 C13.5213415,102.445102 15,102.232245 14.7560976,101.624082 C13.7195122,99.2826531 10.6707317,99.465102 8.46036585,99.9060204 C4.67987805,100.696633 1.52439024,104.908163 2.56097561,108.617959 C3.59756098,112.327755 8.0945122,114.152245 11.8902439,113.072755 C21.8140244,110.229592 31.2195122,105.470714 41.7987805,107.538469 C44.695122,108.116224 49.4207317,107.675306 50.5030488,111.217857 C45.929878,110.077551 39.9695122,107.492857 35.7926829,110.199184 C39.1310976,112.236531 43.8109756,111.613163 46.4634146,114.760408 C43.0182927,114.760408 40.1219512,112.859898 36.7987805,112.388571 C33.8871951,111.962857 30.9908537,110.457653 28.277439,111.461122 C24.9695122,112.692653 21.25,113.16398 18.5518293,115.763878 C22.1189024,121.541429 27.2560976,127.379796 34.2835366,128.413673 C34.4664634,126.102653 31.4634146,125.768163 31.3567073,123.852449 C31.3567073,123.168265 32.4390244,123.198673 32.6371951,123.457143 C40.2591463,133.035714 52.5304878,131.059184 62.6829268,128.413673 C61.4634146,121.465408 63.3841463,114.304286 63.4603659,107.675306 C63.4603659,106.641429 59.3597561,107.675306 57.1493902,106.580612 C49.6646341,103.083673 42.652439,98.5072449 34.2835366,98.2031633 C25.7451393,97.8017552 17.4361609,101.028267 11.4176829,107.082347 C11.1585366,107.340816 10.4878049,107.173571 9.9847561,107.173571 C9.9847561,105.060204 11.9969512,104.558469 13.0335366,103.14449" id="Shape" fill="#FFFFFF"></path>
                <path d="M53.5823171,112.707857 C53.1859756,112.236531 52.0579268,111.719592 52.6371951,111.400306 C53.8389434,110.955457 55.1913283,111.30786 56.0213415,112.282143 C56.1890244,112.464592 56.0213415,112.90551 56.0213415,113.24 C55.1371951,113.24 54.1768293,113.483265 53.5213415,112.707857" id="Shape" fill="#231F20"></path>
                <path d="M93.125,96.0289796 C92.2865854,94.7518367 91.0823171,93.8243878 90.7317073,92.4560204 C90.5792683,91.8478571 91.6310976,91.8478571 92.0426829,92.0759184 C93.5670732,92.942551 94.0853659,94.7214286 95.0914634,96.0441837 C97.4085366,91.0572449 95.1676829,85.9334694 95.0914634,80.840102 C95.4268293,80.840102 95.9603659,80.840102 96.0060976,80.840102 C98.0566844,85.7892324 98.3893596,91.2800904 96.9512195,96.4394898 C96.9512195,96.6219388 95.8231707,96.2266327 95.6554878,97.0020408 C95.5715362,97.8412499 95.5715362,98.6867093 95.6554878,99.5259184 C93.8414634,99.2826531 93.9481707,97.214898 93.125,95.9681633" id="Shape" fill="#231F20"></path>
                <path d="M25.5792683,89.019898 C25.7615602,89.2912732 25.7615602,89.6455635 25.5792683,89.9169388 C25.3027914,90.083729 24.9563549,90.083729 24.679878,89.9169388 C24.512651,89.6411841 24.512651,89.2956526 24.679878,89.019898 C24.9519641,88.8380823 25.3071823,88.8380823 25.5792683,89.019898" id="Shape" fill="#231F20"></path>
                <path d="M30.2286585,86.9217347 C30.1522976,86.7265907 30.1636941,86.5081282 30.2599478,86.321942 C30.3562015,86.1357558 30.5280305,85.9998002 30.7317073,85.9486735 C31.0365854,85.8422449 31.5396341,85.8118367 31.6463415,85.9486735 C31.7530488,86.0855102 31.7378049,86.9065306 31.7378049,87.4690816 C31.1737805,87.4690816 30.5030488,87.6971429 30.2134146,86.9521429" id="Shape" fill="#231F20"></path>
                <path d="M34.2835366,82.8470408 C34.0769613,82.8005164 33.9016059,82.6652243 33.8045511,82.4774885 C33.7074963,82.2897526 33.6986868,82.0688096 33.7804878,81.8739796 C34.054878,81.1441837 34.7256098,81.4026531 35.304878,81.3722449 C35.304878,81.8739796 35.472561,82.4669388 35.2286585,82.8926531 C34.9847561,83.3183673 34.6189024,83.0142857 34.3140244,82.8926531" id="Shape" fill="#231F20"></path>
                <path d="M42.3780488,85.3861224 C42.0579268,85.4773469 41.554878,85.5229592 41.4481707,85.3861224 C41.1966274,84.9644994 41.1966274,84.4393781 41.4481707,84.0177551 C41.6920732,83.7592857 42.3628049,83.9265306 42.8810976,83.9265306 C42.8810976,84.4738776 43.1097561,85.1732653 42.3628049,85.4469388" id="Shape" fill="#231F20"></path>
                <path d="M45.4268293,82.877449 L44.4054878,82.877449 C44.4054878,82.330102 44.1463415,81.6003061 44.9390244,81.3570408 C45.472561,81.2354082 46.1737805,81.0681633 46.4634146,81.8283673 C46.570122,82.132449 46.6158537,82.5885714 46.4634146,82.7710204 C46.3109756,82.9534694 45.8384146,82.7710204 45.5030488,82.7710204" id="Shape" fill="#231F20"></path>
                <path d="M82.5152439,94.0068367 C82.2761774,93.38004 82.2761774,92.687511 82.5152439,92.0607143 C82.7134146,91.7262245 83.277439,92.0607143 83.3689024,92.5168367 C83.6065567,93.1438916 83.6065567,93.8359043 83.3689024,94.4629592 C83.1707317,94.7822449 82.6067073,94.4629592 82.5152439,94.0068367" id="Shape" fill="#231F20"></path>
                <path d="M100.289634,60.8163265 C102.591463,61.3028571 101.585366,57.4714286 103.262195,56.1030612 C101.463415,55.1756122 99.6646341,56.1030612 98.3231707,56.8632653 C96.097561,58.0187755 99.054878,60.5578571 100.289634,60.8163265" id="Shape" fill="#FFFFFF"></path>
                <path d="M107.926829,82.314898 C109.771341,85.6597959 113.185976,80.7944898 114.92378,78.8331633 C112.911585,77.5256122 109.878049,76.172449 107.987805,77.9969388 C107.084166,79.295167 107.084166,81.0166698 107.987805,82.314898" id="Shape" fill="#FFFFFF"></path>
                <path d="M106.814024,112.753469 C108.490854,112.251735 110.960366,112.327755 111.387195,111.476327 C112.545732,109.484592 109.253049,107.842551 107.591463,107.021531 C105.411585,105.957245 104.420732,109.788673 104.878049,111.689184 C104.955927,112.095843 105.208585,112.448029 105.569348,112.652806 C105.930112,112.857582 106.362734,112.894373 106.753049,112.753469" id="Shape" fill="#FFFFFF"></path>
                <path d="M87.0884146,130.983163 C86.8673764,131.434052 86.8673764,131.961458 87.0884146,132.412347 C88.2469512,134.236837 90.4268293,134.236837 92.1189024,135.453163 C92.2876206,135.561733 92.5014866,135.572657 92.6804426,135.481847 C92.8593986,135.391037 92.9764594,135.212186 92.9878049,135.012245 C92.5609756,132.625204 93.0640244,128.930612 90.5335366,128.687347 C89.027584,128.706668 87.6730769,129.60533 87.0731707,130.983163" id="Shape" fill="#FFFFFF"></path>
                <path d="M65.304878,137.08 C66.3414634,135.453163 67.195122,134.206429 65.1676829,133.674286 C63.9329268,133.355 61.9359756,132.701224 61.3871951,134.069592 C60.6402439,135.939694 62.4542683,137.718571 63.1859756,139.558265 C63.9668364,138.7986 64.6761145,137.969029 65.304878,137.08" id="Shape" fill="#FFFFFF"></path>
                <path d="M19.4054878,120.948469 C17.3780488,118.318163 14.8323171,114.456327 10.929878,116.782551 C11.2347561,124.019694 19.7865854,130.070918 26.6615854,127.911939 C24.375,125.479286 21.570122,123.806837 19.4054878,120.948469" id="Shape" fill="#FFFFFF"></path>
                <path d="M92.6676829,18.244898 C88.4146341,20.7839796 71.3262195,38.9072449 69.375,42.7234694 C68.8109756,43.8029592 72.4237805,43.9854082 73.7042683,43.5444898 C75.6859756,42.8603061 76.3414634,39.5610204 78.4908537,38.557551 C86.1128049,35.0302041 89.5579268,27.184898 96.7835366,22.8061224 C97.3170732,22.4868367 97.9268293,21.8330612 98.7347561,22.167551 C99.9695122,22.6844898 98.2317073,23.1862245 98.7347561,23.6879592 C94.1194588,27.3401428 90.0176461,31.5948844 86.5396341,36.3377551 C89.1158537,37.7365306 90.8079268,40.5644898 93.277439,41.5223469 C96.2347561,42.6626531 99.847561,41.5223469 103.231707,42.1305102 C105.030488,42.4954082 104.603659,45.0496939 104.054878,46.3572449 C102.85061,49.2308163 98.1859756,49.9454082 97.9573171,52.1043878 C97.5762195,55.3276531 102.256098,54.1569388 105.335366,53.5335714 C105.54878,55.4036735 104.009146,57.4410204 104.329268,58.4292857 C106.265244,64.5109184 110.823171,69.3762245 112.759146,75.7011224 C113.246951,77.297551 116.493902,76.8566327 117.118902,78.0273469 C118.109756,79.8670408 114.070122,80.9161224 114.253049,82.8622449 C114.92378,91.3309184 112.728659,99.4955102 111.844512,107.720918 C111.661585,109.241327 115.442073,110.107959 114.664634,112.114898 C113.887195,114.121837 110.807927,112.647041 109.603659,113.939388 C105.716463,118.150918 102.85061,122.970612 98.7347561,126.908469 C105.838415,127.577449 112.942073,128.185612 120.07622,128.930612 C116.189024,121.556633 113.170732,109.165306 122.835366,103.646224 C123.871951,103.053265 124.573171,100.605408 126.25,99.7691837 C128.368902,98.7961224 130.381098,100.255714 132.240854,101.608878 C133.67378,99.6019388 136.692073,99.3586735 137.5,97.3669388 C140.54878,89.764898 139.603659,88.2444898 148.47561,79.8518367 C145.54878,79.0764286 142.743902,81.2962245 139.893293,80.2623469 C138.125,79.6085714 136.036585,79.532551 134.786585,77.8296939 C137.621951,77.1303061 140.060976,79.4869388 142.881098,78.7571429 C148.033537,77.4495918 152.789634,75.4122449 158.04878,76.5981633 C158.628049,76.7197959 159.786585,76.354898 160.152439,77.3127551 C162.637195,72.1129592 160.838415,65.7880612 159.481707,60.1473469 C157.957317,53.7920408 153.932927,48.9723469 151.021341,43.4228571 C155.426829,45.9467347 156.935976,50.7056122 159.634146,54.5522449 C160.97561,53.4423469 159.192073,51.3137755 160.716463,50.66 C161.32622,50.4015306 161.341463,51.6938776 161.432927,52.0739796 C161.935976,54.1873469 160.685976,56.4679592 160.929878,58.5661224 C161.237217,60.6281502 161.711324,62.6619964 162.347561,64.6477551 C163.719512,69.4978571 162.469512,74.1655102 163.185976,78.8635714 C165.182927,77.9209184 164.710366,74.1655102 167.195122,74.6064286 C167.698171,74.6976531 166.844512,76.1268367 166.52439,76.735 C165.685976,78.3770408 164.085366,79.9582653 163.567073,81.5242857 C162.98975,83.4716179 163.037723,85.5503059 163.704268,87.4690816 C165.70122,85.0820408 168.460366,83.1359184 169.542683,80.2927551 C175.52721,64.3175818 184.932722,49.8362709 197.103659,37.8581633 C185.579268,29.7847959 174.786585,22.0003061 162.530488,13.6836735 C153.201672,7.2683587 141.978848,4.17273798 130.670732,4.89571429 C111.676829,6.08163265 107.484756,9.42653061 92.6676829,18.244898" id="Shape" fill="#BE2F37"></path>
                <path d="M155.396341,87.8187755 C157.195122,86.1007143 159.344512,85.0820408 160.990854,83.257551 C161.25,82.9686735 161.143293,81.7371429 160.655488,82.0108163 C153.246951,85.1884694 149.344512,91.9238776 144.954268,98.5832653 C144.695122,98.9785714 144.954268,100.103673 145.167683,99.8756122 C148.795732,95.9073469 151.417683,91.5589796 155.396341,87.7123469" id="Shape" fill="#BE2F37"></path>
                <path d="M158.628049,101.578469 C159.070122,96.1506122 165.259146,90.9356122 160.579268,86.3743878 C154.481707,90.0993878 150.54878,96.0137755 146.371951,101.578469 C148.277439,106.474184 147.713415,111.841224 149.817073,116.782551 C149.908537,116.995408 149.283537,117.512347 148.978659,117.177857 C144.405488,112.023673 147.103659,101.973776 139.222561,100.255714 C135.579268,99.4346939 133.125,102.779592 131.25,105.668367 C131.006098,106.063673 130.929878,106.991122 131.676829,107.036735 C134.932891,107.271557 137.884806,109.031311 139.634146,111.780408 C145.640244,120.902857 151.006098,131.241633 147.256098,142.006122 C146.996951,142.766327 146.676829,143.937041 145.335366,143.526531 C149.146341,133.355 143.963415,123.077041 138.521341,114.31949 C136.753049,111.461122 134.115854,108.678776 130.640244,108.84602 C130.015244,108.84602 129.756098,110.199184 129.466463,111.096224 C129.375,111.369898 128.704268,111.020204 128.658537,110.624898 C128.567073,109.955918 128.246951,109.10449 129.10061,108.617959 C128.178597,107.701225 126.837602,107.342245 125.579268,107.675306 C124.562958,108.085296 123.670232,108.750472 122.987805,109.606224 C121.859756,110.792143 123.658537,112.935918 121.463415,113.665714 C121.128049,111.82602 122.134146,109.864694 120.945122,108.10102 C118.82622,110.001531 116.371951,114.273878 118.734756,115.627041 C120.650226,116.763057 122.27765,118.3238 123.490854,120.188265 C125.015244,118.04449 121.692073,114.866837 125.015244,113.103163 C124.478762,116.376884 125.428211,119.719126 127.606707,122.225612 C127.911585,122.544898 128.429878,122.225612 128.506098,121.76949 C128.932927,119.108776 125.54878,116.584898 126.981707,115.079694 C128.414634,113.57449 129.29878,117.04102 130.106707,118.743878 C131.112805,117.877245 130.106707,116.402449 130.762195,115.88551 C131.768293,115.079694 132.14939,113.392041 132.560976,113.513673 C136.570122,114.638776 139.984756,120.735612 136.783537,123.882857 C134.542683,126.087449 131.753049,122.119184 130.685976,119.321633 C129.542683,120.674796 130.929878,122.833776 129.542683,123.700408 C126.844512,125.388061 125.442073,122.18 124.085366,119.838571 C122.820122,122.59051 125.609756,125.920204 122.560976,127.927143 C129.375,142.690306 147.865854,150.520408 163.109756,144.560408 C168.14133,142.911408 172.521671,139.718547 175.625,135.437959 C178.871951,130.648673 179.634146,125.342449 182.545732,120.461939 C183.550024,118.839673 184.916957,117.471107 186.539634,116.463265 C196.79878,109.910306 207.698171,106.306939 215.045732,96.3634694 C221.549884,87.5034281 221.77558,75.5241369 215.609756,66.4266327 C210.289634,58.5357143 204.64939,51.4354082 196.371951,47.5279592 C195.685976,47.2086735 197.362805,49.9454082 196.509146,50.279898 C194.146341,51.1921429 194.603659,45.7186735 194.039634,46.0987755 C183.887655,54.2715944 176.605626,65.4536417 173.246951,78.0273469 C173.140244,78.407449 174.771341,77.5256122 175.152439,76.8110204 C176.226744,73.9059034 178.045214,71.3320987 180.426829,69.3458163 C180.807927,69.0417347 181.371951,69.5434694 181.280488,69.7411224 C180.27439,71.9457143 178.39939,73.6485714 177.332317,75.8227551 C181.387195,76.0964286 184.954268,73.1012245 189.009146,73.7854082 C184.740854,77.48 178.75,77.2823469 174.329268,80.9161224 C170.298485,84.233069 167.03746,88.3829975 164.771341,93.0793878 C161.631098,99.465102 162.713415,106.276531 161.356707,113.209592 C160.533537,117.360306 156.006098,121.009286 151.509146,118.728673 C151.371951,118.728673 151.509146,118.150918 151.509146,117.816429 C155.228659,118.546224 158.216463,115.718265 159.02439,112.221327 C159.832317,108.724388 158.39939,105.257857 158.689024,101.578469" id="Shape" fill="#FFFFFF"></path>
                <path d="M122.179878,123.305102 C121.478659,121.541429 121.234756,119.488878 119.466463,118.348571 C119.039634,118.074898 118.506098,118.53102 118.582317,118.759082 C119.542683,121.343776 119.192073,124.840714 121.631098,126.072245 C122.210366,126.361122 122.621951,124.551837 122.134146,123.305102" id="Shape" fill="#FFFFFF"></path>
                <path d="M125.472561,136.593469 C124.420732,135.073061 123.20122,133.233367 121.905488,132.883673 C115.106707,131.013571 108.445122,127.395 101.234756,129.432347 C107.42378,136.836735 118.307927,142.523061 128.04878,139.558265 C127.109378,138.598318 126.228722,137.582879 125.411585,136.517449" id="Shape" fill="#FFFFFF"></path>
                <path d="M133.277439,136.471837 C133.993415,137.438939 134.640335,138.455049 135.213415,139.512653 C131.371951,139.512653 129.878049,133.811122 130.990854,131.04398 C132.515244,127.303776 137.240854,130.359796 138.612805,133.005306 C139.880565,135.473943 140.277932,138.296451 139.740854,141.017857 C139.740854,141.413163 139.009146,141.762857 138.917683,141.489184 C137.621951,137.703367 138.033537,131.363265 133.20122,131.348061 C130.762195,131.348061 132.286585,134.571327 133.292683,136.426224" id="Shape" fill="#231F20"></path>
                <path d="M156.128049,132.914082 C155.945122,132.594796 155.792683,132.27551 155.54878,131.925816 C155.440962,131.752897 155.432371,131.536138 155.526169,131.35527 C155.619966,131.174402 155.802299,131.056138 156.006098,131.04398 C158.323171,131.150408 157.835366,133.947959 158.307927,135.605204 C158.6861,137.847158 157.537853,140.069558 155.487805,141.063469 C156.036585,138.281122 157.835366,135.92449 156.112805,132.914082" id="Shape" fill="#231F20"></path>
                <path d="M134.146341,122.377653 C134.603659,123.046633 135.396341,123.016224 135.579268,122.757755 C137.484756,120.249082 134.359756,117.208265 132.667683,115.262143 C130.838415,117.284286 132.667683,120.27949 134.192073,122.377653" id="Shape" fill="#FFFFFF"></path>
                <path d="M186.95122,139.026122 C192.555744,139.043224 198.096404,137.839398 203.185976,135.498776 C195.564024,134.76898 187.942073,133.476633 180.320122,133.887143 C178.917683,133.887143 178.902439,136.927959 177.271341,138.037857 C180.320122,139.451837 183.67378,138.98051 186.905488,139.026122" id="Shape" fill="#FFFFFF"></path>
                <path d="M194.603659,133.187755 C207.210366,134.495306 220.70122,133.826327 231.387195,125.585714 C231.493902,125.585714 230.182927,125.585714 229.618902,125.266429 C229.466463,125.16 229.496951,124.475816 229.618902,124.445408 C232.816567,123.41408 235.47473,121.16191 237.012195,118.181327 C237.77439,116.660918 239.283537,112.935918 237.301829,113.285612 C234.908537,113.726531 233.47561,117.740408 230.091463,117.846837 C230.091463,117.329898 229.939024,116.584898 230.091463,116.448061 C233.582317,114.334694 237.271341,111.445918 236.585366,107.827347 C234.801829,98.4160204 225.35061,106.215714 219.817073,108.025 C216.935976,108.967653 213.719512,107.173571 210.792683,108.313878 C209.394042,108.889752 208.038896,109.565555 206.737805,110.33602 C202.896341,112.464592 202.164634,117.421122 198.079268,119.352041 C197.972561,117.071429 200.503049,115.231735 200.106707,113.954592 C199.420732,111.810816 196.875,115.642245 195.030488,116.311224 C194.834833,116.387386 194.615798,116.376019 194.429124,116.280017 C194.24245,116.184015 194.106139,116.012635 194.054878,115.80949 C193.765244,114.988469 194.92378,114.851633 194.939024,114.289082 C194.921173,114.08518 194.799151,113.904877 194.616227,113.812108 C194.433302,113.719338 194.215342,113.72722 194.039634,113.832959 C189.72561,116.569694 185.167683,118.683061 182.911585,123.426735 C181.768293,125.82898 180.518293,129.417143 181.387195,130.496633 C184.131098,133.795918 189.908537,132.746837 194.527439,133.233367" id="Shape" fill="#FFFFFF"></path>
                <path d="M203.704268,110.214388 C204.207317,109.682245 204.92378,109.271735 205.106707,108.69398 C205.106707,108.43551 204.603659,107.964184 204.268293,108.283469 C203.018293,109.454184 201.356707,109.682245 200.152439,110.761735 C201.143293,111.506735 202.179878,111.886837 203.704268,110.26" id="Shape" fill="#FFFFFF"></path>
                <path d="M231.036585,89.8865306 C233.338415,88.3661224 235.487805,86.0855102 238.125,86.7240816 C238.597561,86.8305102 237.789634,87.91 237.179878,88.4573469 C240.045732,91.2853061 244.801829,89.3543878 245.97561,86.2983673 C246.097561,85.9334694 244.344512,85.5989796 243.323171,85.2340816 C241.341463,84.5346939 242.14939,81.2962245 240.167683,80.5056122 C234.832317,78.3466327 229.496951,81.0073469 224.92378,83.8961224 C226.002091,84.7421698 226.576159,86.0762535 226.448171,87.4386735 C224.603659,86.8305102 223.841463,84.9756122 222.393293,83.8961224 C221.265244,87.4234694 221.768293,91.4981633 219.344512,94.5389796 C223.582317,96.0593878 227.469512,92.1671429 230.960366,89.9017347" id="Shape" fill="#FFFFFF"></path>
                <path d="M196.112805,44.3807143 C196.60061,44.5783673 197.286585,44.2286735 197.637195,44.9432653 C198.887195,43.5596939 200.442073,41.1422449 199.161585,39.3785714 C197.688688,40.5838583 196.372595,41.9680203 195.243902,43.4988776 C195.243902,43.6053061 195.731707,44.1982653 196.143293,44.3807143" id="Shape" fill="#FFFFFF"></path>
                <path d="M129.115854,105.622755 C131.783537,105.531531 129.679878,102.308265 127.591463,101.791327 C125.838415,101.365612 124.542683,103.63102 124.542683,104.664898 C124.375,107.082347 127.85061,105.653163 129.115854,105.622755" id="Shape" fill="#FFFFFF"></path>
                <path d="M61.1432927,41.4007143 C62.1036585,36.9611224 69.695122,33.5402041 66.2195122,29.237449 C63.597561,34.5436735 57.0731707,34.9997959 53.1707317,38.9832653 C51.6463415,40.594898 49.6341463,43.3164286 50.5030488,44.5631633 C52.2408537,47.0414286 56.1432927,43.0427551 59.6493902,43.1947959 C60.1981707,43.1947959 60.945122,42.3129592 61.1737805,41.3855102" id="Shape" fill="#FFFFFF"></path>
                <path d="M101.661585,21.042449 C101.371951,21.240102 101.036585,21.3769388 100.685976,21.6202041 C100.335366,21.8634694 99.7256098,21.422551 99.8170732,21.2096939 C101.341463,17.2870408 105.70122,16.7244898 108.963415,14.8391837 C113.018293,12.482551 117.073171,10.0194898 121.996951,10.0194898 C115.304878,13.972551 108.429878,16.4052041 101.631098,21.042449" id="Shape" fill="#231F20"></path>
                <path d="M150.807927,79.2132653 L153.353659,79.2132653 C152.22561,79.4109184 151.722561,80.4904082 150.945122,81.1441837 C148.765312,83.4526149 146.810385,85.9624349 145.106707,88.6397959 C143.795732,91.3765306 141.905488,93.8395918 141.432927,96.9260204 C140.884146,96.7739796 140.457317,97.3213265 139.908537,97.1844898 C142.373415,90.3069231 146.359161,84.0711044 151.570122,78.9395918" id="Shape" fill="#BE2F37"></path>
                <path d="M155.640244,79.9734694 C155.381098,79.897449 155.259146,80.095102 155.411585,80.1711224 C156.417683,80.6880612 157.606707,80.3687755 158.67378,80.7336735 C155.756228,82.3391661 153.132676,84.4263559 150.914634,86.9065306 C149.3791,88.3302377 148.008724,89.9214331 146.829268,91.6502041 C145.593162,93.6497692 144.498038,95.7326897 143.551829,97.8838776 C143.460366,98.1271429 142.728659,97.5189796 142.179878,97.6862245 C144.176746,91.4288823 147.907829,85.8626912 152.942073,81.6307143 C153.628049,81.0681633 154.344512,80.2319388 155.137195,80.1103061 C155.594512,80.1103061 156.128049,80.3687755 156.661585,79.9430612" id="Shape" fill="#FFFFFF"></path>
                <path d="M119.481707,18.9442857 L119.573171,18.1688776 L121.097561,17.6063265 L124.542683,22.2587755 L123.018293,23.6119388 C122.039317,22.6827125 120.89044,21.9497644 119.634146,21.4529592 C118.699125,21.1110721 117.672826,21.1110721 116.737805,21.4529592 C115.594551,21.851865 114.76317,22.8445795 114.573171,24.0376531 C114.32903,25.685072 114.561734,27.3677691 115.243902,28.8877551 C115.724696,30.401872 116.622697,31.7506242 117.835366,32.78 C118.777248,33.501844 120.036997,33.6589012 121.128049,33.1905102 C121.964689,32.9155063 122.673755,32.348656 123.125,31.5940816 C123.507339,30.9106626 123.541289,30.0866904 123.216463,29.3742857 C123.087518,28.9124507 122.757306,28.5328616 122.317073,28.3404082 C121.769556,28.2186073 121.197195,28.2772944 120.685976,28.5076531 L119.984756,26.7135714 L127.118902,23.9464286 L127.820122,25.7405102 C127.318208,25.9942009 126.919678,26.4131762 126.692073,26.9264286 C126.603015,27.539921 126.704073,28.1659072 126.981707,28.7205102 L128.506098,32.78 L126.204268,33.6770408 L125.106707,32.6583673 C124.662803,33.3528935 124.112414,33.9736701 123.47561,34.4980612 C122.786698,35.0345295 122.021085,35.4650224 121.204268,35.7752041 C119.287557,36.6022656 117.096433,36.5070046 115.259146,35.5167347 C113.266088,34.3514164 111.765461,32.5034962 111.036585,30.3169388 C110.136115,28.2407891 110.136115,25.8857415 111.036585,23.8095918 C111.960793,21.7445918 113.706625,20.1576099 115.853659,19.4308163 C116.415328,19.2185424 116.997788,19.0656638 117.591463,18.9746939 C118.245103,18.9052564 118.904288,18.9052564 119.557927,18.9746939" id="Shape" fill="#FFFFFF"></path>
                <path d="M118.445122,36.8394898 C117.25034,36.8391904 116.075275,36.5357274 115.030488,35.9576531 C112.934902,34.7336629 111.353911,32.7949872 110.579268,30.4993878 C109.60637,28.3152887 109.595044,25.8246215 110.548041,23.6318109 C111.501037,21.4390003 113.331243,19.7444875 115.594512,18.9594898 C116.193589,18.7296653 116.81786,18.5714534 117.454268,18.4881633 C117.958506,18.4113961 118.469258,18.3859251 118.978659,18.4121429 L118.978659,17.8039796 L121.082317,16.9981633 L125.015244,22.3347959 L122.957317,24.3265306 L122.621951,24.0376531 C121.686484,23.1607143 120.595828,22.4647244 119.405488,21.985102 C118.579219,21.6800826 117.670781,21.6800826 116.844512,21.985102 C115.869616,22.325213 115.160994,23.1721693 115,24.1896939 C114.824296,25.7120686 115.072172,27.2533065 115.716463,28.6444898 C116.16516,30.0678149 117.004844,31.3372182 118.140244,32.3086735 C118.937086,32.9368092 120.017775,33.0715426 120.945122,32.6583673 C121.666616,32.4182527 122.281311,31.9342353 122.682927,31.29 C122.965844,30.7252591 122.965844,30.0606593 122.682927,29.4959184 C122.530488,29.0803401 122.332317,28.8370748 122.088415,28.7661224 C121.651453,28.6741704 121.196318,28.7275759 120.792683,28.9181633 L120.335366,29.0854082 L119.268293,26.3638776 L127.347561,23.2318367 L128.429878,25.8469388 L128.094512,26.075 C127.393293,26.5311224 127.22561,26.8352041 127.179878,26.9872449 C127.134146,27.1392857 127.088415,27.4889796 127.454268,28.5076531 L129.237805,33.0688776 L126.189024,34.27 L125.289634,33.4185714 C124.849867,33.9892571 124.337424,34.5003617 123.765244,34.9389796 C123.038218,35.5127801 122.225509,35.9693758 121.356707,36.2921429 C120.4285,36.6527198 119.441247,36.8383126 118.445122,36.8394898 Z M118.658537,19.4156122 C118.303252,19.3916144 117.946748,19.3916144 117.591463,19.4156122 C117.035447,19.5055513 116.489283,19.6480995 115.960366,19.8413265 C113.960447,20.5461099 112.345435,22.0502106 111.503618,23.9920062 C110.661802,25.9338018 110.669329,28.1376434 111.52439,30.0736735 C112.213171,32.1441897 113.632451,33.8947448 115.518293,34.9997959 C117.217417,35.94049 119.260876,36.0305727 121.036585,35.2430612 C121.810606,34.9550775 122.535561,34.5499583 123.185976,34.0419388 C123.784706,33.5325935 124.299155,32.9322603 124.710366,32.2630612 L125.045732,31.7461224 L126.356707,32.962449 L127.881098,32.3694898 L126.52439,28.8877551 C126.195094,28.235096 126.088062,27.4931681 126.219512,26.7743878 C126.406334,26.2671051 126.754287,25.8346341 127.210366,25.5428571 L126.844512,24.585 L120.746951,26.9872449 L121.082317,27.8690816 C121.577896,27.7097808 122.111128,27.7097808 122.606707,27.8690816 C123.192255,28.0996156 123.637217,28.5883562 123.810976,29.1918367 C124.194297,30.0428671 124.149024,31.0249886 123.689024,31.8373469 C123.183205,32.6978348 122.381589,33.3460957 121.432927,33.6618367 C120.185841,34.2031371 118.741974,34.0223964 117.667683,33.1905102 C116.372759,32.1046618 115.41115,30.6765568 114.893293,29.0702041 C114.168563,27.5033151 113.904271,25.7635446 114.131098,24.0528571 C114.352514,22.6936689 115.299193,21.5629537 116.60061,21.1032653 C117.648002,20.715437 118.800169,20.715437 119.847561,21.1032653 C121.032138,21.5529446 122.122758,22.2179799 123.064024,23.0645918 L123.902439,22.3043878 L120.838415,18.244898 L120.030488,18.5641837 L119.92378,19.5068367 L119.435976,19.5068367 L118.658537,19.4156122 Z" id="Shape" fill="#231F20"></path>
                <path d="M130.335366,17.3022449 L130.487805,15.280102 L137.103659,15.7970408 L136.95122,17.7583673 L136.829268,17.7583673 C136.616404,17.7348937 136.401782,17.7830577 136.219512,17.8952041 C136.062699,17.9971747 135.961537,18.1653369 135.945122,18.3513265 C135.92267,18.583918 135.92267,18.8181228 135.945122,19.0507143 C135.963359,19.3121984 136.00416,19.5716281 136.067073,19.8261224 L137.591463,27.4281633 L139.908537,21.6506122 L139.557927,20.1302041 C139.457452,19.5690277 139.261542,19.0291098 138.978659,18.5337755 C138.753502,18.212284 138.425692,17.9764487 138.04878,17.8647959 L138.20122,15.9338776 L145.121951,16.4812245 L144.969512,18.4273469 C144.592945,18.3781689 144.210023,18.4252551 143.856707,18.5641837 C143.624393,18.6623876 143.474068,18.8902839 143.47561,19.1419388 C143.460122,19.2427108 143.460122,19.3452484 143.47561,19.4460204 C143.47561,19.5676531 143.47561,19.6740816 143.47561,19.7957143 L144.862805,27.9755102 L147.865854,21.1944898 C148.003049,20.86 148.125,20.5407143 148.216463,20.2366327 C148.307927,19.932551 148.353659,19.7196939 148.368902,19.5828571 C148.386813,19.3037206 148.228717,19.0429364 147.972561,18.9290816 C147.491681,18.7008537 146.976864,18.5519467 146.448171,18.4881633 L146.60061,16.5420408 L153.246951,17.0589796 L153.094512,19.0355102 C152.488549,19.1061818 151.911054,19.3313405 151.417683,19.6892857 C150.889344,20.2189825 150.492591,20.8646252 150.259146,21.5745918 L145.472561,33.0840816 L142.42378,32.8408163 L140.89939,25.4364286 L137.85061,32.4911224 L134.695122,32.2478571 L131.859756,19.1115306 C131.780108,18.6231325 131.598325,18.1569123 131.32622,17.7431633 C131.061329,17.4799625 130.708689,17.3230421 130.335366,17.3022449" id="Shape" fill="#FFFFFF"></path>
                <path d="M145.762195,33.6162245 L141.935976,33.3121429 L140.625,27.1240816 L138.140244,33.0232653 L134.253049,32.7191837 L131.356707,19.2179592 C131.300066,18.8112192 131.15434,18.4219036 130.929878,18.0776531 C130.755394,17.9048578 130.520261,17.806687 130.27439,17.8039796 L129.786585,17.8039796 L130.030488,14.7631633 L137.652439,15.3561224 L137.408537,18.244898 L136.905488,18.244898 C136.661585,18.244898 136.570122,18.244898 136.509146,18.244898 C136.45703,18.4699973 136.45703,18.7039823 136.509146,18.9290816 C136.529773,19.1692613 136.565412,19.4079227 136.615854,19.6436735 L137.85061,25.5428571 L139.481707,21.4681633 L139.176829,20.1454082 C139.095107,19.6409008 138.919308,19.1561383 138.658537,18.7162245 C138.491623,18.4776825 138.241649,18.3096615 137.957317,18.244898 L137.57622,18.244898 L137.789634,15.4017347 L145.731707,16.025102 L145.503049,18.9746939 L145,18.9746939 C144.707165,18.9471374 144.411761,18.9781513 144.131098,19.0659184 C144.065031,19.0933439 144.026984,19.1629133 144.039634,19.2331633 C144.03183,19.3039022 144.03183,19.3752815 144.039634,19.4460204 L144.039634,19.7805102 L145.137195,26.2118367 L147.286585,21.0880612 C147.42378,20.7687755 147.530488,20.4646939 147.621951,20.1758163 C147.684249,20.0040714 147.725204,19.8253579 147.743902,19.6436735 C147.743902,19.6436735 147.743902,19.5372449 147.606707,19.4612245 C147.195161,19.2595567 146.751538,19.1309334 146.295732,19.0811224 L145.838415,19.005102 L146.067073,16.0859184 L153.689024,16.6788776 L153.460366,19.552449 L153.079268,19.552449 C152.53173,19.5980645 152.005928,19.7868586 151.554878,20.0997959 C151.089195,20.5681987 150.744014,21.1419963 150.54878,21.7722449 L145.762195,33.6162245 Z M142.713415,32.3694898 L145.045732,32.5519388 L149.618902,21.3769388 C149.883151,20.5883066 150.332641,19.8741289 150.929878,19.2939796 C151.38274,18.959192 151.902705,18.7258191 152.454268,18.6097959 L152.530488,17.5303061 L146.890244,17.0893878 L146.890244,18.0776531 C147.30975,18.154573 147.715557,18.292904 148.094512,18.4881633 C148.511933,18.7119112 148.761601,19.1565823 148.734756,19.6284694 C148.695706,19.8866253 148.634506,20.1409606 148.551829,20.3886735 C148.460366,20.6927551 148.338415,21.0272449 148.20122,21.3769388 L144.817073,29.7391837 L143.094512,19.4460204 C143.088027,19.3194023 143.088027,19.1925365 143.094512,19.0659184 C143.117731,18.6300365 143.382149,18.2432354 143.780488,18.062449 C144.04953,17.9440273 144.340076,17.8819303 144.634146,17.88 L144.634146,16.8917347 L138.719512,16.4356122 L138.719512,17.499898 C139.041827,17.6640439 139.319147,17.9041079 139.527439,18.1992857 C139.851361,18.7496271 140.078229,19.3513117 140.198171,19.9781633 L140.579268,21.605 L137.530488,29.1006122 L135.594512,19.9781633 C135.532748,19.702275 135.486941,19.4230727 135.457317,19.1419388 C135.442038,18.8786217 135.442038,18.6146436 135.457317,18.3513265 C135.486115,18.0216562 135.658966,17.7213481 135.929878,17.5303061 C136.100186,17.4194 136.292643,17.3467687 136.493902,17.317449 L136.493902,16.3291837 L130.89939,15.8882653 L130.89939,16.952551 C131.217911,17.0504421 131.5029,17.2346743 131.722561,17.4846939 C132.053424,17.9339225 132.272834,18.4549631 132.362805,19.005102 L135.091463,31.7613265 L137.5,31.9589796 L140.960366,23.7487755 L142.713415,32.3694898 Z" id="Shape" fill="#231F20"></path>
                <path d="M158.780488,21.2857143 L159.954268,19.6436735 L166.493902,24.204898 L165.365854,25.8469388 C164.946145,25.4871563 164.385692,25.3362294 163.841463,25.4364286 C163.414634,25.5732653 162.835366,26.1662245 162.088415,27.2153061 L158.536585,32.1566327 C157.974988,32.8377922 157.701586,33.7103938 157.77439,34.5892857 C157.93986,35.4163346 158.442272,36.1376979 159.161585,36.5810204 C159.924072,37.2040304 160.915923,37.4748334 161.890244,37.3260204 C162.88923,37.0652953 163.74745,36.4274009 164.283537,35.5471429 L167.484756,30.9859184 C168.049124,30.3454834 168.437736,29.5702904 168.612805,28.7357143 C168.520288,28.1891941 168.191341,27.7109652 167.713415,27.4281633 L168.856707,25.9077551 L173.795732,29.4046939 L172.621951,31.0467347 C172.203298,30.6837989 171.645941,30.5225877 171.097561,30.6058163 C170.685976,30.7426531 170.106707,31.3204082 169.344512,32.3846939 L166.356707,36.4897959 C165.431247,38.0845784 163.923901,39.2611588 162.14939,39.7738776 C160.36954,39.9518122 158.593301,39.4033295 157.22561,38.2534694 C155.691019,37.3417117 154.533948,35.912633 153.963415,34.2243878 C153.632142,32.6645567 154.036696,31.0393634 155.060976,29.8152041 L158.536585,24.8434694 C159.113704,24.1998336 159.503737,23.4112923 159.664634,22.5628571 C159.564999,22.0146507 159.22358,21.5401463 158.734756,21.2705102" id="Shape" fill="#FFFFFF"></path>
                <path d="M161.402439,40.3820408 C159.768083,40.2895917 158.202507,39.6947395 156.920732,38.6791837 C155.289212,37.6890552 154.062974,36.1535272 153.460366,34.3460204 C153.098396,32.6450461 153.530164,30.872148 154.634146,29.5263265 L158.170732,24.5545918 C159.161585,23.1558163 159.207317,22.6996939 159.207317,22.5932653 C159.207317,22.4868367 158.932927,22.0155102 158.490854,21.6810204 L158.079268,21.3769388 L159.832317,18.9138776 L167.195122,24.1288776 L165.487805,26.5463265 L165.07622,26.2726531 C164.76703,25.9899984 164.349201,25.8566425 163.932927,25.9077551 C163.795732,25.9077551 163.353659,26.2118367 162.408537,27.5041837 L158.887195,32.4607143 C158.408864,33.0342775 158.168859,33.7687337 158.216463,34.5132653 C158.35484,35.2026057 158.781959,35.8001176 159.390244,36.1553061 C160.042738,36.7001408 160.893843,36.9481905 161.737805,36.8394898 C162.60543,36.5860632 163.345583,36.016114 163.810976,35.2430612 L166.996951,30.7578571 C167.972561,29.3742857 168.04878,28.9181633 168.033537,28.8117347 C168.018293,28.7053061 167.789634,28.2339796 167.347561,27.8994898 L166.95122,27.5954082 L168.67378,25.1931633 L174.435976,29.2678571 L172.682927,31.7309184 L172.271341,31.4572449 C171.970141,31.191003 171.575598,31.0543666 171.17378,31.0771429 C171.067073,31.0771429 170.655488,31.3204082 169.64939,32.597551 L166.676829,36.7634694 C165.667,38.4753404 164.025544,39.7250451 162.103659,40.2452041 C161.874731,40.3126184 161.63996,40.358432 161.402439,40.3820408 L161.402439,40.3820408 Z M159.481707,21.1792857 C159.902627,21.5186887 160.171278,22.0108406 160.228659,22.5476531 C160.228659,22.912551 160.121951,23.5511224 158.993902,25.1323469 L155.487805,30.1040816 C154.557576,31.2138213 154.181969,32.6843695 154.466463,34.1027551 C155.016604,35.6646745 156.094488,36.9870083 157.515244,37.8429592 C158.770077,38.9469215 160.420436,39.4956041 162.088415,39.3633673 C163.721997,38.8744544 165.110291,37.7884405 165.97561,36.322551 L168.932927,32.1566327 C169.786585,30.9555102 170.457317,30.3473469 170.945122,30.1953061 C171.463539,30.068189 172.011304,30.1501391 172.469512,30.4233673 L173.079268,29.5871429 L168.978659,26.6831633 L168.39939,27.4889796 C168.809342,27.8268842 169.067219,28.3139289 169.115854,28.8421429 C168.961288,29.796471 168.538408,30.6874711 167.896341,31.4116327 L164.695122,35.9728571 C164.089593,36.9614227 163.12178,37.6758427 161.996951,37.9645918 C160.908986,38.1105995 159.808297,37.8087005 158.948171,37.1283673 C158.137014,36.5989253 157.584413,35.7556538 157.42378,34.8021429 C157.322911,33.7933972 157.630234,32.7862575 158.277439,32.0045918 L161.585366,26.9112245 C162.055247,26.0849908 162.746789,25.4057861 163.582317,24.949898 C164.10095,24.8276812 164.646852,24.9093526 165.106707,25.1779592 L165.670732,24.3721429 L160.060976,20.3278571 L159.481707,21.1792857 Z" id="Shape" fill="#231F20"></path>
                <path d="M12.2865854,97.7318367 C13.7477697,97.7412545 15.121833,98.4264914 16.0060976,99.5867347 C15.8384146,95.1623469 11.9207317,92.6840816 10.4268293,88.9438776 C9.92378049,91.9846939 7.91158537,97.8382653 12.2865854,97.7166327" id="Shape" fill="#FFFFFF"></path>
                <path d="M215.487805,42.5714286 C215.570696,45.4078185 213.332969,47.7744068 210.489174,47.8579088 C207.64538,47.9414108 205.27194,45.7102196 205.18739,42.8738784 C205.10284,40.0375373 207.339182,37.6696469 210.182927,37.5844898 C211.549604,37.5435641 212.87655,38.0461167 213.871541,38.9814747 C214.866532,39.9168326 215.447968,41.208286 215.487805,42.5714286" id="Shape" fill="#FFFFFF"></path>
                <path d="M210.365854,48.6530612 C207.099291,48.7034431 204.41027,46.1031312 204.359756,42.845102 C204.309242,39.5870729 206.916365,36.9050758 210.182927,36.8546939 C213.452632,36.7609264 216.180932,39.3256323 216.280488,42.5866327 L216.280488,42.5866327 C216.374501,45.8477966 213.803078,48.56897 210.533537,48.6682653 L210.365854,48.6530612 Z M210.365854,38.375102 L210.228659,38.375102 C207.812866,38.4766982 205.93419,40.5074257 206.026571,42.9172877 C206.118952,45.3271497 208.14761,47.208873 210.564127,47.1261915 C212.980645,47.04351 214.875243,45.0275518 214.801829,42.6170408 L214.801829,42.6170408 C214.727207,40.2369063 212.75314,38.3559539 210.365854,38.3903061 L210.365854,38.375102 Z" id="Shape" fill="#231F20"></path>
                <path d="M208.841463,42.647449 L210.152439,42.647449 C211.52439,42.647449 212.393293,42.1913265 212.378049,41.5831633 C212.362805,40.975 211.417683,40.6405102 210.045732,40.6861224 C209.62186,40.6889336 209.198844,40.7245164 208.780488,40.792551 L208.841463,42.647449 Z M207.484756,40.3060204 C208.125,40.2147959 209.009146,40.1387755 209.954268,40.1083673 C210.938575,40.0243346 211.929687,40.1433713 212.865854,40.4580612 C213.302585,40.5972058 213.618117,40.97723 213.67378,41.4311224 C213.67378,42.1153061 212.865854,42.6018367 211.829268,42.8146939 L211.829268,42.8146939 C212.481483,42.8510354 213.06374,43.2343212 213.353659,43.8181633 C213.560945,44.3221507 213.832491,44.7973916 214.161585,45.2321429 L212.820122,45.2321429 C212.528897,44.859543 212.297478,44.4440782 212.134146,44.0006122 C211.814024,43.2860204 211.265244,43.027551 210.091463,43.0427551 L208.887195,43.0427551 L208.887195,45.3081633 L207.606707,45.3081633 L207.484756,40.3060204 Z" id="Shape" fill="#231F20"></path>
            </g>
        </g>
    </g>
</svg>