<?xml version="1.0" encoding="UTF-8" standalone="no"?>
<svg width="250px" height="250px" viewBox="0 0 250 250" version="1.1" xmlns="http://www.w3.org/2000/svg" xmlns:xlink="http://www.w3.org/1999/xlink">
    <!-- Generator: Sketch 47.1 (45422) - http://www.bohemiancoding.com/sketch -->
    <title>CARK</title>
    <desc>Created with Sketch.</desc>
    <defs>
        <polygon id="path-1" points="124.680983 0.531881188 249.36186 0.531881188 249.36186 204 124.680983 204 0.000106680972 204 0.000106680972 0.531881188"></polygon>
    </defs>
    <g id="Page-1" stroke="none" stroke-width="1" fill="none" fill-rule="evenodd">
        <g id="CARK">
            <g id="UCA_Prim_FulClr" transform="translate(0.000000, 23.000000)">
                <g id="Group-3">
                    <mask id="mask-2" fill="white">
                        <use xlink:href="#path-1"></use>
                    </mask>
                    <g id="Clip-2"></g>
                    <path d="M223.010782,189.029228 L240.84434,141.155208 C242.932615,138.961703 244.639488,136.698851 245.916442,134.379446 C249.937332,127.450851 249.770216,121.696436 248.740566,117.837941 C249.772911,111.373901 247.507412,106.395089 245.58221,103.49196 C245.421833,97.9994455 243.31469,92.945901 239.561995,89.08 C239.444744,88.8510891 239.321429,88.6194851 239.188679,88.3878812 C237.491914,79.4973861 231.69407,73.3026535 223.438679,71.4895446 C220.399596,67.8188911 216.487871,65.3298218 212.045822,64.2546139 C209.795148,63.7085941 207.639488,63.4810297 205.307278,63.6466535 C204.591644,63.1969109 203.908356,62.7525545 203.260782,62.318297 L200.740566,57.5044356 C200.634097,57.3004356 190.066712,37.4908911 171.551887,28.9262574 C170.845013,27.4746931 170.18531,26.2675248 169.674528,25.3808317 C170.948787,20.5588911 172.912399,8.96455446 164.477089,3.14079208 C161.97035,1.40914851 159.070755,0.531881188 155.857817,0.531881188 C150.010782,0.531881188 144.609164,3.48146535 142.059973,5.11952475 C133.57345,3.93255446 127.677224,3.79857426 125.459569,3.79857426 C125.243935,3.79857426 125.03841,3.8059802 124.842318,3.82079208 L124.842318,3.8100198 C124.74124,3.80463366 118.086927,3.61005941 107.301213,5.11885149 C104.754717,3.48146535 99.3571429,0.531881188 93.5080863,0.531881188 C90.296496,0.531881188 87.3962264,1.40914851 84.888814,3.14079208 C77.865903,7.9889901 77.6320755,17.5069703 79.6846361,24.8718416 C79.1307278,25.8743366 78.3780323,27.3050297 77.578841,29.0312871 C59.2088949,37.6470891 48.7284367,57.3031287 48.6192722,57.5084752 L46.101752,62.3169505 C45.4541779,62.7525545 44.7708895,63.1969109 44.0539084,63.6466535 C41.7216981,63.4823762 39.5592992,63.7099406 37.3133423,64.2546139 C32.8746631,65.3298218 28.9656334,67.8175446 25.9265499,71.4895446 C17.6745283,73.3026535 11.8766846,79.4946931 10.1765499,88.382495 C10.0438005,88.614099 9.91846361,88.8470495 9.80121294,89.08 C6.04784367,92.945901 3.94070081,97.9994455 3.78167116,103.49196 C1.85309973,106.395089 -0.410377358,111.373901 0.623989218,117.839287 C-0.398247978,121.670178 -0.574797844,127.375446 3.33827493,134.182178 C4.71967655,136.722416 6.57277628,139.180515 8.87466307,141.538297 L26.5309973,189.029228 L51.9966307,189.029228 L51.9966307,204 C71.9393531,192.108752 97.2324798,184.982218 124.774259,184.982218 C152.315364,184.982218 177.605795,192.108752 197.549191,203.998653 L197.546496,189.029228 L223.010782,189.029228" id="Fill-1" fill="#8B9193" mask="url(#mask-2)"></path>
                </g>
                <path d="M193.771563,197.47402 L193.768868,185.256238 L220.384771,185.256238 L234.409704,147.551248 L209.613881,147.551248 L209.615229,131.446693 C212.951482,133.441584 216.326146,134.920752 219.107143,135.749545 C218.438679,136.915644 217.915768,137.679802 217.901617,137.69798 C217.832884,137.798297 217.811995,137.921505 217.847709,138.038653 C217.884097,138.153109 217.971024,138.246693 218.084232,138.289782 C219.895553,138.983248 221.863208,139.335366 223.933288,139.335366 C225.940027,139.335366 227.791779,139.010851 229.333558,138.600158 L231.188005,144.453545 C237.065364,140.317663 240.592992,136.224198 242.648248,132.486891 C246.351752,126.109703 245.8531,121.053465 244.864555,118.043287 C246.040431,112.361584 244.095013,107.699881 241.808625,104.696436 C241.974394,98.4754455 239.274259,94.026495 236.423181,91.2795644 C236.196765,90.752396 235.916442,90.2393663 235.595687,89.742495 C234.046496,80.2090297 227.824798,75.9007921 221.337601,74.9386931 C218.706873,71.3104554 215.235175,68.9082376 211.15903,67.921901 C209.6469,67.5563168 208.133423,67.370495 206.657682,67.370495 C205.882749,67.370495 205.138814,67.4364752 204.409704,67.5300594 C200.552561,65.1763168 195.807951,61.927802 193.542453,58.9943762 L197.663747,59.7672871 L197.397574,59.2576238 C197.270889,59.0152475 186.827493,39.4736634 168.740566,31.8058218 C167.295148,28.6616634 165.935984,26.4540198 165.586927,25.9066535 C166.088275,24.3722772 170,11.5411485 162.33221,6.24388119 C160.466981,4.95659406 158.289084,4.30487129 155.857817,4.30487129 C149.693396,4.30487129 143.865903,8.40843564 142.974394,9.06352475 C133.950135,7.7169901 127.725741,7.57089109 125.459569,7.57089109 C124.958221,7.57089109 124.688679,7.5789703 124.688679,7.5789703 C124.671159,7.5789703 124.401617,7.57089109 123.90027,7.57089109 C121.634771,7.57089109 115.409704,7.7169901 106.386119,9.06352475 C105.495283,8.40708911 99.6691375,4.30487129 93.5080863,4.30487129 C91.0774933,4.30487129 88.9002695,4.95659406 87.0357143,6.24388119 C79.3719677,11.5371089 83.2688679,23.8370297 83.7783019,25.3310099 C83.421159,25.9187723 81.9514825,28.4051485 80.4366577,31.8832475 C62.4622642,39.603604 52.0909704,59.0165941 51.9663073,59.2576238 L51.6987871,59.7672871 L55.8207547,58.9943762 C53.5559299,61.927802 48.809973,65.1763168 44.9501348,67.5300594 C44.2216981,67.4364752 43.4784367,67.370495 42.7021563,67.370495 C41.2277628,67.370495 39.712938,67.5549703 38.203504,67.921901 C34.1273585,68.9082376 30.6597035,71.3104554 28.0283019,74.9386931 C21.5411051,75.9007921 15.3227763,80.2063366 13.7708895,89.7371089 C13.4487871,90.2366733 13.1671159,90.7510495 12.9407008,91.2795644 C10.0882749,94.026495 7.3861186,98.4754455 7.55592992,104.695089 C5.26886792,107.699881 3.32210243,112.361584 4.5,118.04598 C3.51819407,121.038653 3.0222372,126.055168 6.65566038,132.380515 C8.70350404,136.148119 12.240566,140.279287 18.1745283,144.453545 L20.0289757,138.600158 C21.5714286,139.010851 23.4231806,139.335366 25.4319407,139.335366 C27.5020216,139.335366 29.4696765,138.983248 31.2803235,138.289782 C31.3948787,138.246693 31.4804582,138.153109 31.5175202,138.038653 C31.5532345,137.921505 31.5330189,137.798297 31.4636119,137.69798 C31.4501348,137.679802 30.930593,136.919683 30.2621294,135.75897 C33.1246631,134.903921 36.6347709,133.354733 40.0842318,131.252119 L40.0828841,147.551248 L15.1367925,147.551248 L29.1563342,185.256238 L55.7722372,185.256238 L55.7722372,197.47402 C55.7722372,197.47402 84.3227763,181.32099 124.774259,181.32099 C165.22372,181.32099 193.771563,197.47402 193.771563,197.47402" id="Fill-4" fill="#1A1919"></path>
                <path d="M140.588275,30.4505347 C140.588275,30.0331089 140.46496,29.6426139 140.260782,29.3086733 C138.836927,29.9415446 137.34434,30.4909307 135.897574,30.831604 C136.058625,31.7586931 136.796496,32.4649505 137.73248,32.6635644 C137.55593,32.4541782 137.436658,32.1936238 137.436658,31.8980594 C137.436658,31.2348911 137.975741,30.6949307 138.639488,30.6949307 C139.298518,30.6949307 139.838275,31.2348911 139.838275,31.8980594 C139.838275,31.9923168 139.806604,32.075802 139.785714,32.1626535 C140.274259,31.7411881 140.588275,31.1325545 140.588275,30.4505347" id="Fill-5" fill="#FFFFFE"></path>
                <path d="M108.771563,30.396 C108.771563,31.3284752 109.346361,32.1269703 110.16779,32.4885149 C110.043801,32.2993267 109.954178,32.085901 109.954178,31.844198 C109.954178,31.1796832 110.49124,30.6451089 111.157682,30.6451089 C111.819407,30.6451089 112.356469,31.1796832 112.356469,31.844198 C112.356469,32.058297 112.283693,32.2488317 112.186658,32.4238812 C112.842992,32.1007129 113.338275,31.511604 113.465633,30.7804356 C112.015499,30.4397624 110.524259,29.8903762 109.096361,29.2588515 C108.893531,29.5941386 108.771563,29.9832871 108.771563,30.396" id="Fill-6" fill="#FFFFFE"></path>
                <path d="M124.680593,55.9451485 C121.076819,55.9451485 116.895553,54.7851089 116.895553,54.7851089 C116.895553,54.7851089 116.736523,58.7021782 119.716307,61.5992475 C119.716307,61.5992475 119.067385,58.6799604 119.644879,56.8089505 L121.702156,58.9533069 L122.332884,57.2654257 L123.789757,59.1694257 L124.680593,57.079604 L125.574124,59.1694257 L127.030997,57.2654257 L127.661725,58.9533069 L129.719677,56.8089505 C130.292453,58.6799604 129.640836,61.5992475 129.640836,61.5992475 C132.624663,58.7021782 132.466981,54.7851089 132.466981,54.7851089 C132.466981,54.7851089 128.291779,55.9451485 124.680593,55.9451485" id="Fill-7" fill="#FFFFFE"></path>
                <path d="M124.680593,79.1674851 C120.504717,79.1674851 119.15027,78.4019802 119.15027,78.4019802 C118.226415,76.2374257 119.504043,74.1859802 119.504043,74.1859802 C119.504043,74.1859802 119.580863,75.7311287 120.799191,77.227802 L121.812668,75.9546535 L122.757412,77.0608317 L123.686658,75.9943762 L124.680593,77.1106535 L125.677898,75.9943762 L126.6031,77.0608317 L127.548518,75.9546535 L128.563342,77.227802 C129.781671,75.7311287 129.86186,74.1859802 129.86186,74.1859802 C129.86186,74.1859802 131.136119,76.2374257 130.212264,78.4019802 C130.212264,78.4019802 128.859164,79.1674851 124.680593,79.1674851" id="Fill-8" fill="#FFFFFE"></path>
                <path d="M206.059299,84.007604 C205.392857,84.9272871 205.236523,86.1553267 205.631402,87.3779802 C207.020889,91.6646733 206.255391,97.8964356 205.884097,100.270376 C207.605121,98.9049901 211.661725,94.9508911 211.439353,88.0882772 C211.307951,84.1853465 209.721698,82.7943762 208.283019,82.7943762 C207.444744,82.7943762 206.614555,83.2474851 206.059299,84.007604" id="Fill-9" fill="#FFFFFE"></path>
                <path d="M219.703504,90.4709703 C218.904313,90.4709703 218.110512,90.8311683 217.528976,91.4586535 C216.853774,92.1898218 216.528976,93.2165545 216.617925,94.3516832 C216.968329,98.9420198 214.700809,104.889663 213.770216,107.097307 C215.782345,106.226772 220.794474,103.416554 222.216981,96.5896238 C222.694744,94.2978218 222.484501,92.4510495 221.621968,91.3926733 C221.138814,90.7981782 220.457547,90.4709703 219.703504,90.4709703" id="Fill-10" fill="#FFFFFE"></path>
                <path d="M227.34097,103.162059 C226.928571,102.576317 226.299865,102.254495 225.570755,102.254495 C224.308625,102.254495 222.968329,103.249584 222.855121,105.152911 C222.621294,109.075366 220.05593,113.781505 218.954178,115.638376 C220.853774,115.112554 225.341644,113.316277 227.326146,107.78404 C228.037062,105.799921 228.043801,104.158495 227.34097,103.162059" id="Fill-11" fill="#FFFFFE"></path>
                <path d="M230.887466,113.508158 C230.504717,112.929149 229.875337,112.599248 229.161051,112.599248 C228.060647,112.599248 226.783693,113.410535 226.580189,115.18998 C226.161725,118.872079 223.514825,123.168871 222.357817,124.898495 C224.210916,124.493188 228.518868,123.022099 230.666442,117.924792 C231.457547,116.051089 231.536388,114.483723 230.887466,113.508158" id="Fill-12" fill="#FFFFFE"></path>
                <path d="M232.657682,124.98804 C232.309299,124.425188 231.712938,124.10404 231.022911,124.10404 C230.046496,124.10404 228.940027,124.78404 228.668464,126.302931 C228.07345,129.629545 225.434636,133.365505 224.24124,134.920752 C226.007412,134.650099 229.983154,133.54796 232.229784,129.06804 C233.080189,127.366693 233.233154,125.919842 232.657682,124.98804" id="Fill-13" fill="#FFFFFE"></path>
                <path d="M43.7338275,87.3793267 C44.1300539,86.1553267 43.9730458,84.9272871 43.3059299,84.007604 C42.7520216,83.2474851 41.921159,82.7943762 41.0828841,82.7943762 C39.6442049,82.7943762 38.059973,84.1853465 37.9299191,88.0882772 C37.7008086,94.9522376 41.7580863,98.9076832 43.4797844,100.270376 C43.1084906,97.8964356 42.3463612,91.6646733 43.7338275,87.3793267" id="Fill-14" fill="#FFFFFE"></path>
                <path d="M32.7439353,94.3530297 C32.8322102,93.2165545 32.5087601,92.1884752 31.8322102,91.4586535 C31.2506739,90.8311683 30.4595687,90.4709703 29.6590296,90.4709703 C28.9049865,90.4709703 28.2243935,90.7981782 27.740566,91.3926733 C26.8793801,92.4510495 26.6677898,94.2978218 27.1455526,96.5896238 C28.5680593,103.416554 33.5795148,106.226772 35.5909704,107.097307 C34.6630728,104.889663 32.3955526,98.9433663 32.7439353,94.3530297" id="Fill-15" fill="#FFFFFE"></path>
                <path d="M23.7931267,102.254495 C23.0640162,102.254495 22.4346361,102.576317 22.0229111,103.162059 C21.3200809,104.158495 21.324124,105.799921 22.0363881,107.78404 C24.0195418,113.316277 28.5114555,115.113901 30.4117251,115.638376 C29.3106469,113.781505 26.7439353,109.075366 26.509434,105.152911 C26.3962264,103.249584 25.0566038,102.254495 23.7931267,102.254495" id="Fill-16" fill="#FFFFFE"></path>
                <path d="M20.2028302,112.599248 C19.4892183,112.599248 18.8605121,112.929149 18.4770889,113.508158 C17.8281671,114.483723 17.9063342,116.051089 18.6960916,117.923446 C20.8490566,123.037584 25.1563342,124.498574 27.009434,124.899842 C25.8530997,123.172911 23.2021563,118.872752 22.7836927,115.18998 C22.5808625,113.410535 21.3045822,112.599248 20.2028302,112.599248" id="Fill-17" fill="#FFFFFE"></path>
                <path d="M18.3402965,124.10404 C17.6509434,124.10404 17.0559299,124.425188 16.708221,124.98804 C16.1320755,125.918495 16.2843666,127.366693 17.1361186,129.06804 C19.3854447,133.560079 23.3591644,134.656832 25.1212938,134.922099 C23.9299191,133.368198 21.2884097,129.630891 20.6947439,126.302931 C20.4225067,124.78404 19.3167116,124.10404 18.3402965,124.10404" id="Fill-18" fill="#FFFFFE"></path>
                <path d="M186.117251,129.963485 L184.47035,129.424198 C181.40027,128.414297 178.243935,127.462297 175.095687,126.594455 L174.174528,126.339287 L174.174528,115.173822 L175.768194,115.623564 C178.962938,116.52305 182.158356,117.513426 185.265499,118.565069 L186.117251,118.854574 L186.117251,129.963485 Z M206.852426,114.474297 C190.946092,106.912158 174.148248,101.581228 156.923181,98.630297 L155.535714,98.3926337 L155.535714,147.534416 L156.521563,147.705426 C161.934636,148.629822 167.371294,149.809386 172.684636,151.209782 L174.174528,151.60297 L174.174528,139.445782 L175.769542,139.896871 C178.933962,140.786931 182.128032,141.78 185.265499,142.841069 L186.117251,143.130574 L186.117251,155.288436 L186.910377,155.565822 C192.72035,157.599089 198.521563,159.954178 204.179245,162.579248 L204.183288,124.54301 L207.84097,114.946257 L206.852426,114.474297 L206.852426,114.474297 Z" id="Fill-19" fill="#FFFFFE"></path>
                <path d="M100.812668,97.4392871 L99.7796496,97.5705743 L99.7796496,146.695525 L101.117925,146.523168 C116.731132,144.521545 132.958895,144.514812 148.574798,146.508356 L149.911725,146.680713 L149.911725,125.888198 L148.876011,125.756911 C143.38814,125.05604 137.803235,124.590812 132.274259,124.374693 L131.041105,124.328911 L131.041105,132.421584 L129.755391,132.389941 C126.48248,132.307129 123.218329,132.307129 119.940027,132.398693 L118.651617,132.43303 L118.651617,108.672752 L119.872642,108.641109 C123.193396,108.554257 126.510108,108.551564 129.821429,108.641109 L131.041105,108.674099 L131.041105,118.064158 L132.18531,118.109267 C137.587601,118.315287 143.103774,118.773109 148.574798,119.467248 L149.911725,119.639604 L149.911725,97.5584554 L148.874663,97.4258218 C133.066712,95.4060198 116.627358,95.4100594 100.812668,97.4392871" id="Fill-20" fill="#FFFFFE"></path>
                <path d="M92.7675202,98.6424158 C87.259434,99.5930693 81.7513477,100.790812 76.3962264,102.20602 L75.5141509,102.44099 L75.5141509,138.877545 L74.5902965,139.13002 C71.5444744,139.961505 68.3955526,140.914851 65.2257412,141.960436 L63.5795148,142.505782 L63.5795148,106.071921 L61.9959569,106.625347 C55.5141509,108.897624 49.0707547,111.553663 42.8429919,114.522099 L41.8308625,115.001465 L45.5168464,123.96198 L45.5141509,162.62503 C60.6947439,155.562455 76.7210243,150.549307 93.171159,147.720911 L94.1570081,147.549901 L94.1543127,98.4040792 L92.7675202,98.6424158" id="Fill-21" fill="#FFFFFE"></path>
                <path d="M189.329515,116.582297 L189.329515,134.491208 L186.635445,133.546614 C181.985849,131.92404 177.219003,130.464396 172.473046,129.211446 L170.968329,128.814218 L170.968329,111.008317 L173.511456,111.678891 C178.334906,112.950693 183.200809,114.441307 187.973046,116.10899 L189.329515,116.582297 Z M203.429245,116.419366 C189.294474,109.896752 174.425876,105.147525 159.239218,102.30297 L158.743261,102.209386 L158.743261,144.837307 L159.086253,144.899248 C162.873315,145.588 166.696092,146.408713 170.450135,147.335802 L170.968329,147.465743 L170.968329,135.283644 L173.511456,135.954891 C178.387466,137.240832 183.252022,138.733465 187.973046,140.38499 L189.329515,140.86099 L189.329515,153.021545 L189.605121,153.120515 C193.010782,154.347208 196.537062,155.744911 200.386792,157.399129 L200.971024,157.648911 L200.97372,123.950535 L203.783693,116.582297 L203.429245,116.419366 L203.429245,116.419366 Z" id="Fill-22" fill="#44276C"></path>
                <path d="M103.356469,100.360594 L102.987197,100.40301 L102.987197,143.061901 L103.45283,143.009386 C117.577493,141.411723 132.133423,141.406337 146.237197,142.997941 L146.703504,143.050455 L146.703504,128.719287 L146.33221,128.676198 C142.48248,128.231842 138.564016,127.901941 134.689353,127.696594 L134.248652,127.67303 L134.248652,135.76503 L132.152291,135.682218 C127.233827,135.48899 122.272237,135.491683 117.541779,135.687604 L115.437332,135.767723 L115.437332,105.590535 L117.384097,105.517149 C122.289084,105.324594 127.362534,105.322574 132.307278,105.511762 L134.248652,105.590535 L134.248652,114.99002 L134.646226,115.009545 C138.449461,115.202772 142.34973,115.521228 146.237197,115.954139 L146.703504,116.00396 L146.703504,100.392238 L146.33221,100.349149 C132.162399,98.7077228 117.532345,98.7117624 103.356469,100.360594" id="Fill-23" fill="#44276C"></path>
                <path d="M79.0411051,104.839842 L78.7257412,104.918614 L78.7257412,141.345743 L77.2210243,141.748356 C72.4622642,142.997941 67.6974394,144.458257 63.0606469,146.086218 L60.3652291,147.029465 L60.3652291,110.621861 L59.8025606,110.831921 C55.2985175,112.502297 50.7628032,114.386099 46.324124,116.431485 L45.9595687,116.599802 L48.7270889,123.328436 L48.7230458,157.684594 L49.3072776,157.434812 C62.643531,151.701267 76.5384097,147.489307 90.6051213,144.917426 L90.9481132,144.854139 L90.9481132,102.229584 L90.4521563,102.322495 C86.6738544,103.032792 82.8342318,103.878416 79.0411051,104.839842" id="Fill-24" fill="#44276C"></path>
                <path d="M92.5700809,26.4445941 C92.5700809,26.4445941 88.8092992,19.7624158 94.7938005,16.1866931 C94.7938005,16.1866931 94.037062,15.7026139 91.8706199,15.2468119 C91.8706199,15.2468119 98.8079515,12.6271287 102.334232,17.8038812 C102.334232,17.8038812 93.1657682,22.6116832 107.744609,26.7960396 C107.744609,26.7960396 106.603774,24.3830495 106.603774,22.6473663 C106.603774,22.6473663 123.134097,34.6672079 124.680593,23.4074851 C126.228437,34.6672079 142.762803,22.6473663 142.762803,22.6473663 C142.762803,24.3830495 141.62062,26.7960396 141.62062,26.7960396 C156.197439,22.6116832 147.028302,17.8038812 147.028302,17.8038812 C150.557951,12.6271287 157.492588,15.2468119 157.492588,15.2468119 C155.326146,15.7026139 154.568059,16.1866931 154.568059,16.1866931 C160.556604,19.7624158 156.796496,26.4445941 156.796496,26.4445941 C162.564016,22.8931089 163.661725,13.0977426 158.022911,10.0417822 C152.37938,6.98986139 144.152291,14.2389307 144.152291,14.2389307 C144.152291,14.2389307 139.186658,12.1376634 124.680593,12.1376634 C110.17655,12.1376634 105.210916,14.2389307 105.210916,14.2389307 C105.210916,14.2389307 96.9797844,6.98986139 91.3429919,10.0417822 C85.7048518,13.0977426 86.8025606,22.8931089 92.5700809,26.4445941" id="Fill-25" fill="#44276C"></path>
                <path d="M136.786388,38.3701782 C144.927898,36.6688317 144.148922,31.4611089 144.148922,31.4611089 C143.627358,33.0251089 140.313342,36.3160396 134.396226,32.8029307 C128.472372,29.2851089 124.680593,29.7705347 124.680593,29.7705347 C124.680593,29.7705347 120.887466,29.2851089 114.966307,32.8029307 C109.049191,36.3160396 105.736523,33.0251089 105.213612,31.4611089 C105.213612,31.4611089 104.884771,33.7562772 107.037736,35.795604 C104.321429,36.2884356 101.015499,37.6363168 97.7958221,40.8686733 C97.7958221,40.8686733 95.5721024,36.5584158 96.425876,32.952396 C96.425876,32.952396 91.3733154,36.6068911 91.4946092,42.6925545 C91.4946092,42.6925545 87.1987871,37.8113663 87.7735849,28.7633267 C84.7493261,34.8052277 83.5067385,42.2219406 84.7324798,49.9436436 C86.9892183,64.1428515 96.8342318,74.8451089 108.266173,76.8541386 C106.098383,73.7550891 102.351078,66.7201188 101.836253,54.5629307 C101.32345,42.4387327 107.52628,39.0091089 111.252022,38.0362376 C111.66779,38.1574257 112.106469,38.2718812 112.580189,38.3701782 C112.580189,38.3701782 103.803908,42.8790495 110.778302,59.1997228 C110.778302,59.1997228 110.915094,51.2396832 118.603774,53.2029307 C124.020889,54.5851485 123.710243,49.4151287 123.710243,49.4151287 C123.710243,49.4151287 123.382749,47.1334257 120.729784,47.1334257 C118.07345,47.1334257 118.580189,49.5551683 118.580189,49.5551683 C118.580189,49.5551683 114.075472,49.3424158 114.075472,46.1901782 C114.075472,43.0332277 117.273585,41.0120792 124.680593,41.0120792 C132.091644,41.0120792 135.285714,43.0332277 135.285714,46.1901782 C135.285714,49.3424158 130.783693,49.5551683 130.783693,49.5551683 C130.783693,49.5551683 131.292453,47.1334257 128.632749,47.1334257 C125.977089,47.1334257 125.648922,49.4151287 125.648922,49.4151287 C125.648922,49.4151287 125.342318,54.5851485 130.760782,53.2029307 C138.449461,51.2396832 138.58558,59.1997228 138.58558,59.1997228 C145.561995,42.8790495 136.786388,38.3701782 136.786388,38.3701782" id="Fill-26" fill="#44276C"></path>
                <path d="M162.416442,30.6713663 C162.78504,43.3853465 158.993261,47.7696634 158.993261,47.7696634 C158.130054,39.0683564 153.002022,33.7300198 153.002022,33.7300198 C153.121968,38.681901 150.700135,42.1983762 150.700135,42.1983762 C148.423181,39.9139802 146.039757,38.7054653 143.820755,38.1190495 C146.010782,41.6826535 147.809973,47.0755248 147.493935,54.5629307 C146.978437,66.7201188 143.231132,73.7550891 141.063342,76.8541386 C152.493935,74.8451089 162.340296,64.1428515 164.595687,49.9436436 C165.697439,43.013703 164.795822,36.3375842 162.416442,30.6713663" id="Fill-27" fill="#44276C"></path>
                <path d="M136.22035,61.5231683 C136.22035,61.5231683 132.262803,66.1040792 131.888814,81.1307327 C131.888814,81.1307327 129.227763,81.9554851 124.680593,81.9554851 C120.138814,81.9554851 117.475067,81.1307327 117.475067,81.1307327 C117.09973,66.1040792 113.139488,61.5231683 113.139488,61.5231683 C113.139488,61.5231683 114.520216,68.7937822 114.520216,81.9696238 C114.520216,81.9696238 114.008086,85.4544554 124.680593,85.4544554 C135.358491,85.4544554 134.842318,81.9696238 134.842318,81.9696238 C134.842318,68.7937822 136.22035,61.5231683 136.22035,61.5231683" id="Fill-28" fill="#8B9193"></path>
                <path d="M117.170485,38.8212673 L115.119946,38.440198 C115.119946,38.440198 117.256065,36.3463366 124.599057,36.3463366 C131.938679,36.3463366 134.076146,38.440198 134.076146,38.440198 L132.024259,38.8212673 C139.865903,42.8191287 141.066038,51.8368713 139.721024,56.2514851 C139.398922,57.1913663 139.024933,58.1696238 138.58558,59.1997228 C138.58558,59.1997228 138.449461,51.2396832 130.760782,53.2029307 C125.342318,54.5851485 125.648922,49.4151287 125.648922,49.4151287 C125.648922,49.4151287 125.977089,47.1334257 128.632749,47.1334257 C131.292453,47.1334257 130.783693,49.5551683 130.783693,49.5551683 C130.783693,49.5551683 135.285714,49.3424158 135.285714,46.1901782 C135.285714,43.0332277 132.091644,41.0120792 124.680593,41.0120792 C117.273585,41.0120792 114.075472,43.0332277 114.075472,46.1901782 C114.075472,49.3424158 118.580189,49.5551683 118.580189,49.5551683 C118.580189,49.5551683 118.07345,47.1334257 120.729784,47.1334257 C123.382749,47.1334257 123.710243,49.4151287 123.710243,49.4151287 C123.710243,49.4151287 124.020889,54.5851485 118.603774,53.2029307 C110.915094,51.2396832 110.778302,59.1997228 110.778302,59.1997228 C109.892857,57.1260594 109.258086,55.2375446 108.830189,53.5308119 C108.084232,48.9990495 110.745283,42.0967129 117.170485,38.8212673" id="Fill-29" fill="#8B9193"></path>
                <path d="M187.919137,188.447525 C169.605121,180.244436 147.966981,175.476356 124.774259,175.476356 C101.581536,175.476356 79.9373315,180.244436 61.6239892,188.447525 L61.6239892,161.445465 C81.0471698,154.243525 102.537062,150.422059 124.774259,150.422059 C147.00876,150.422059 168.493935,154.243525 187.919137,161.445465 L187.919137,188.447525" id="Fill-30" fill="#8B9193"></path>
                <path d="M225.993261,153.397901 L209.328167,153.397901 L209.328167,171.184277 C209.328167,171.184277 200.808625,166.961545 193.811321,163.939921 L193.811321,179.410931 L216.318059,179.410931 L225.993261,153.397901" id="Fill-31" fill="#8B9193"></path>
                <path d="M40.2196765,171.184277 L40.2196765,153.397901 L23.5525606,153.397901 L33.2243935,179.410931 L55.7365229,179.410931 L55.7365229,163.939921 C48.7365229,166.961545 40.2196765,171.184277 40.2196765,171.184277" id="Fill-32" fill="#8B9193"></path>
                <path d="M75.148248,169.090416 L75.148248,167.04301 C78.1671159,166.049267 81.2526954,165.136317 84.333558,164.32503 L84.333558,166.385901 C81.240566,167.198535 78.1556604,168.105426 75.148248,169.090416 Z M84.333558,170.360871 L84.333558,172.425782 C81.2473046,173.23303 78.1623989,174.138574 75.148248,175.124911 L75.148248,173.080198 C78.1556604,172.089149 81.2419137,171.177545 84.333558,170.360871 Z M88.5660377,168.801584 C88.440027,168.360594 88.1886792,168.028 87.8328841,167.815248 C88.3160377,167.360119 88.671159,166.642416 88.671159,165.516713 L88.671159,162.872119 C88.6725067,161.855485 88.2816712,161.078535 87.5053908,160.561465 C86.7553908,160.072673 85.7958221,159.96899 84.6832884,160.259168 C80.1442049,161.437386 75.5943396,162.833743 71.1590296,164.414574 L70.8483827,164.526337 L70.8483827,180.599248 L71.4737197,180.375723 C75.8733154,178.809703 80.3955526,177.418733 84.9191375,176.242535 C86.7392183,175.770574 87.9043127,174.809822 88.3780323,173.394614 C88.6185984,172.725386 88.7136119,171.506099 88.671159,169.680871 C88.6725067,169.330099 88.638814,169.041941 88.5660377,168.801584 L88.5660377,168.801584 Z" id="Fill-33" fill="#1A1919"></path>
                <path d="M94.6044474,158.013149 L94.2243935,158.085861 L94.2243935,174.120396 L94.782345,174.011327 C99.3382749,173.132713 103.980458,172.445307 108.580189,171.969307 L109,171.925545 L109,167.979525 L108.484501,168.03204 C105.206873,168.372713 101.895553,168.819762 98.6307278,169.363089 L98.6307278,167.28 C101.882749,166.73398 105.228437,166.280871 108.580189,165.932119 L109,165.887683 L109,161.943683 L108.484501,161.997545 C105.204852,162.335525 101.892857,162.783921 98.6307278,163.328594 L98.6307278,161.245505 C101.925876,160.692079 105.271563,160.23695 108.580189,159.894931 L109,159.853188 L109,155.903802 L108.483154,155.958337 C103.834232,156.440396 99.1650943,157.133861 94.6044474,158.013149" id="Fill-34" fill="#1A1919"></path>
                <path d="M128.512803,159.082297 L128.512803,161.176832 C125.339623,161.107485 122.145553,161.136436 118.976415,161.254931 L118.976415,159.158376 C122.153639,159.037861 125.343666,159.011604 128.512803,159.082297 Z M128.994609,155.153109 C125.506739,155.064911 121.994609,155.091168 118.487871,155.235921 C117.318059,155.285743 116.362534,155.666139 115.645553,156.36701 C114.923854,157.074614 114.559299,157.922257 114.559299,158.889069 L114.559299,171.461663 L115.058625,171.428673 C116.212264,171.355287 117.369272,171.297386 118.52628,171.249584 L118.976415,171.231406 L118.976415,165.198257 C122.134097,165.075723 125.336927,165.048119 128.512803,165.116792 L128.512803,171.15398 L128.971024,171.165426 C130.126685,171.19303 131.283693,171.234099 132.441375,171.28796 L132.931267,171.310178 L132.931267,158.745663 C132.931267,157.891287 132.504717,157.071921 131.66779,156.311802 C130.84097,155.561109 129.940027,155.170614 128.994609,155.153109 L128.994609,155.153109 Z" id="Fill-35" fill="#1A1919"></path>
                <path d="M152.416442,161.407089 L152.416442,163.488832 C149.485175,162.981188 146.508086,162.55097 143.557951,162.209624 L143.557951,160.121149 C146.53841,160.471248 149.515499,160.902139 152.416442,161.407089 Z M150.148922,167.064554 C151.034367,167.205267 151.919137,167.354733 152.801887,167.510257 C155.430593,167.980871 156.78841,166.981743 156.789757,164.690614 L156.789757,161.658218 C156.789757,160.715644 156.415094,159.830297 155.675202,159.028436 C154.943396,158.232634 154.031671,157.734416 152.966307,157.547921 C148.603774,156.77703 144.128706,156.177822 139.66442,155.767129 L139.152291,155.72 L139.152291,171.740396 L139.578841,171.778772 C140.733154,171.883802 141.886119,172.003644 143.036388,172.130891 L143.557951,172.190139 L143.557951,166.250574 C146.208221,168.528911 148.860512,170.877941 151.440027,173.235723 L151.677898,173.353545 C153.395553,173.64305 155.107817,173.961505 156.821429,174.309584 L158.445418,174.642178 L157.235849,173.510416 C154.898922,171.326337 152.521563,169.163129 150.148922,167.064554 L150.148922,167.064554 Z" id="Fill-36" fill="#1A1919"></path>
                <path d="M178.206199,171.143208 C177.516173,170.267287 176.63814,169.649228 175.597035,169.301149 C172.75876,168.360594 169.848383,167.485347 166.937332,166.700317 L166.937332,164.638099 C170.442049,165.588752 173.986523,166.685505 177.480458,167.899406 L178.1031,168.116198 L178.1031,164.11901 L177.78841,164.008594 C174.083558,162.72198 170.316038,161.56396 166.589623,160.566851 C165.472372,160.267248 164.507412,160.38305 163.743261,160.910218 C162.975741,161.440079 162.571429,162.213663 162.571429,163.149505 L162.571429,166.180554 C162.571429,166.521228 162.619272,166.851129 162.706199,167.139287 C162.8969,167.933743 163.326819,168.643366 163.98248,169.248634 C164.624663,169.845149 165.398922,170.259881 166.346361,170.513703 C169.261456,171.297386 172.165094,172.163881 174.979784,173.089624 L174.979784,175.13703 C171.181941,173.892832 167.304582,172.783287 163.445418,171.832634 L162.863881,171.691921 L162.863881,175.661505 L163.221698,175.748356 C167.254717,176.737386 171.317385,177.910218 175.299865,179.231842 C175.842318,179.410931 176.339623,179.502495 176.785714,179.502495 C177.310647,179.502495 177.776954,179.377941 178.163747,179.134218 C178.886119,178.696594 179.253369,177.954653 179.253369,176.929267 L179.253369,173.898218 C179.253369,172.955644 178.900943,172.031248 178.206199,171.143208" id="Fill-37" fill="#1A1919"></path>
                <path d="M115.733827,90.7079604 C109.911051,89.0732673 108.783019,85.9001584 108.770216,83.7053069 L108.713612,83.6938614 C104.579515,82.9929901 100.990566,81.9009505 100.990566,81.9009505 L101.770889,84.1617822 C77.0424528,78.0828515 79.6954178,50.3368317 79.6954178,50.3368317 L77.1987871,52.3626931 C75.4824798,47.685505 77.6671159,39.8917624 77.6671159,39.8917624 C69.3207547,46.2049901 64.8429919,54.9480396 64.8429919,54.9480396 C66.9198113,53.9489109 69.398248,53.2978614 69.398248,53.2978614 C62.6886792,65.1433267 52.9191375,70.6479604 52.9191375,70.6479604 C55.1145553,73.9207129 55.0512129,79.3304158 54.8625337,81.9750099 C53.7520216,79.7357228 48.9339623,71.4013465 39.5956873,73.6628515 C35.6866577,74.6094653 33.1233154,77.4028515 31.4481132,80.6385743 C27.6677898,80.5194059 19.5909704,81.6922376 19.3092992,93.8662574 C19.3092992,93.8662574 12.0983827,97.2534653 13.6880054,106.767406 C13.6880054,106.767406 8.18530997,111.196158 10.7520216,118.497069 C10.7520216,118.497069 7.45350404,123.054416 12.5876011,130.745822 C12.5876011,130.745822 10.5067385,123.054416 15.0330189,120.97604 C15.0330189,120.97604 11.2425876,111.848554 17.3544474,108.983129 C17.3544474,108.983129 15.2735849,98.2950099 22.9743935,97.7732277 C22.9743935,97.7732277 21.7216981,90.0293069 26.5188679,87.087802 C30.5525606,84.6101782 33.8510782,86.9558416 33.8510782,86.9558416 C33.8510782,86.9558416 34.9555256,78.7466931 41.3092992,78.3548515 C47.6637466,77.9630099 51.0855795,85.3938614 48.8861186,89.9525545 C48.0862534,91.6148515 47.9966307,93.7396832 48.2102426,95.774297 C50.1260108,96.3539802 52.6401617,97.6412673 54.7520216,100.509386 C54.7520216,100.509386 54.8733154,94.6432079 52.430593,90.0858614 C52.430593,90.0858614 54.8113208,90.9914059 57.1516173,93.2273267 C60.1037736,96.3209901 61.1509434,99.8940198 61.1509434,99.8940198 C63.717655,98.9036436 67.0963612,98.6552079 70.9811321,91.6532277 C74.8598383,84.6505743 80.2115903,84.0049109 80.2115903,84.0049109 C76.0485175,88.913703 74.7796496,97.0986139 74.7796496,97.0986139 C93.6583558,91.487604 115.733827,90.7079604 115.733827,90.7079604" id="Fill-38" fill="#44276C"></path>
                <path d="M133.626011,90.7079604 C139.450135,89.0732673 140.576819,85.9001584 140.59097,83.7053069 L140.647574,83.6938614 C144.780323,82.9929901 148.37062,81.9009505 148.37062,81.9009505 L147.588949,84.1617822 C172.317385,78.0828515 169.66442,50.3368317 169.66442,50.3368317 L172.161051,52.3626931 C173.877358,47.685505 171.693396,39.8917624 171.693396,39.8917624 C180.039084,46.2049901 184.516846,54.9480396 184.516846,54.9480396 C182.441375,53.9489109 179.962938,53.2978614 179.962938,53.2978614 C186.671159,65.1433267 196.440701,70.6479604 196.440701,70.6479604 C194.245283,73.9207129 194.308625,79.3304158 194.497978,81.9750099 C195.607817,79.7357228 200.425876,71.4013465 209.765499,73.6628515 C213.673854,74.6094653 216.236523,77.4028515 217.913073,80.6385743 C221.692049,80.5194059 229.768868,81.6922376 230.050539,93.8662574 C230.050539,93.8662574 237.262803,97.2534653 235.671833,106.767406 C235.671833,106.767406 241.174528,111.196158 238.607817,118.497069 C238.607817,118.497069 241.906334,123.054416 236.772237,130.745822 C236.772237,130.745822 238.8531,123.054416 234.326819,120.97604 C234.326819,120.97604 238.118598,111.848554 232.004717,108.983129 C232.004717,108.983129 234.086927,98.2950099 226.385445,97.7732277 C226.385445,97.7732277 227.63814,90.0293069 222.84097,87.087802 C218.806604,84.6101782 215.50876,86.9558416 215.50876,86.9558416 C215.50876,86.9558416 214.404313,78.7466931 208.050539,78.3548515 C201.696092,77.9630099 198.274259,85.3938614 200.473046,89.9525545 C201.274933,91.6148515 201.363208,93.7396832 201.149596,95.774297 C199.235175,96.3539802 196.719677,97.6412673 194.607143,100.509386 C194.607143,100.509386 194.486523,94.6432079 196.929245,90.0858614 C196.929245,90.0858614 194.547844,90.9914059 192.208221,93.2273267 C189.256065,96.3209901 188.208221,99.8940198 188.208221,99.8940198 C185.642183,98.9036436 182.263477,98.6552079 178.378032,91.6532277 C174.5,84.6505743 169.148248,84.0049109 169.148248,84.0049109 C173.309973,88.913703 174.578841,97.0986139 174.578841,97.0986139 C155.701482,91.487604 133.626011,90.7079604 133.626011,90.7079604" id="Fill-39" fill="#44276C"></path>
                <path d="M214.584906,199.025228 L213.121294,199.025228 L213.121294,194.758059 L212.962264,194.758059 L211.619272,197.743327 L210.592992,197.743327 L209.233154,194.704198 L209.03841,194.704198 L209.03841,199.025228 L207.648922,199.025228 L207.648922,193.56705 L210.026954,193.56705 L211.127358,196.237901 L212.274933,193.56705 L214.584906,193.56705 L214.584906,199.025228 Z M206.781671,194.750653 L205.217655,194.750653 L205.217655,199.025228 L203.746631,199.025228 L203.746631,194.750653 L202.18531,194.750653 L202.18531,193.56705 L206.781671,193.56705 L206.781671,194.750653 L206.781671,194.750653 Z" id="Fill-40" fill="#8B9193"></path>
            </g>
        </g>
    </g>
</svg>