<?xml version="1.0" encoding="UTF-8" standalone="no"?>
<svg width="250px" height="250px" viewBox="0 0 250 250" version="1.1" xmlns="http://www.w3.org/2000/svg" xmlns:xlink="http://www.w3.org/1999/xlink">
    <!-- Generator: Sketch 47.1 (45422) - http://www.bohemiancoding.com/sketch -->
    <title>NCCU</title>
    <desc>Created with Sketch.</desc>
    <defs></defs>
    <g id="Page-1" stroke="none" stroke-width="1" fill="none" fill-rule="evenodd">
        <g id="NCCU" fill-rule="nonzero">
            <g id="Asset-1" transform="translate(0.000000, 64.000000)">
                <path d="M248.807947,69.1625676 C246.374172,46.5239189 206.639073,32.2791892 202.119205,30.7167568 C198.612421,29.7553588 195.316057,28.1429568 192.400662,25.962973 C175.364238,11.8512162 148.129139,6.24972973 129.139073,3.32432432 C111.906564,0.653317646 94.4634852,-0.398398507 77.0364238,0.182837838 L38.0794702,2.16081081 L41.2582781,2.57635135 C37.5827815,2.75918919 34.1887417,2.97527027 31.2086093,3.22459459 C22.6655629,3.9227027 16.1092715,4.88675676 12.102649,5.55162162 C4.08940397,6.89797297 3.97350993,7.06418919 3.11258278,8.41054054 L0,13.0812162 L5.51324503,13.8458108 C19.0785067,16.1099302 32.3096852,20.0631201 44.9006623,25.6139189 C40.5210471,24.805369 36.0987323,24.2503984 31.6556291,23.9517568 L15.0662252,23.2702703 L29.9668874,30.7832432 C30.6953642,31.1489189 102.963576,68.265 82.5496689,118.562027 L80.794702,122.850405 L87.7483444,122.850405 L88.2450331,122.368378 C112.218543,99.3308108 143.890728,99.3972973 144.205298,99.4139189 C151.225166,99.2975676 158.692053,101.524865 166.60596,103.868514 C173.468811,106.064315 180.501972,107.682209 187.63245,108.705405 C198.708609,110.068378 214.288079,105.281351 216.523179,101.142568 C211.260533,100.453074 206.134565,98.9563046 201.324503,96.7045946 L201.043046,95.8402703 C200.844371,95.2585135 197.036424,84.2051351 183.096026,77.0910811 C195.231788,74.4648649 211.788079,72.7528378 218.857616,79.2851351 C221.692607,81.659964 223.641957,84.9295128 224.387417,88.56 C224.875093,91.1949623 225.047396,93.8789893 224.900662,96.555 C240.364238,90.2221622 248.923841,80.4985135 248.923841,71.3233784 C248.923841,70.6086486 248.923841,69.8939189 248.807947,69.1625676" id="Shape" fill="#FFFFFF"></path>
                <path d="M224.900662,96.555 L226.142384,95.7904054 C239.801325,87.3632432 246.258278,78.5371622 245.298013,69.5448649 C243.07947,48.7844595 202.715232,34.6394595 200.976821,34.0743243 C197.030207,32.9851274 193.330848,31.1394376 190.082781,28.6390541 C174.188742,15.4747297 148.460265,9.97297297 128.559603,6.765 C111.580971,4.16835944 94.4004769,3.14459014 77.2350993,3.70662162 C77.2350993,3.70662162 92.8642384,5.75108108 99.6688742,8.44378378 C42.5496689,1.41283784 5.99337748,10.3386486 5.99337748,10.3386486 C5.99337748,10.3386486 45.2980132,15.6741892 72.9470199,38.3793243 C54.7350993,28.6556757 31.5562914,27.542027 31.5562914,27.542027 C31.5562914,27.542027 107.715232,65.7717568 85.8443709,119.808649 C111.175497,95.4247297 144.254967,95.8735135 144.254967,95.8735135 C164.768212,95.5577027 187.549669,113.558919 214.834437,101.957027 L216.490066,101.142568 C181.009934,101.524865 176.754967,87.8452703 176.754967,87.8452703 C176.754967,87.8452703 191.291391,90.537973 197.566225,96.9040541 C197.566225,96.9040541 192.599338,81.6454054 171.208609,76.5093243 C171.208609,76.5093243 234.569536,55.6159459 224.784768,96.4552703" id="Shape" fill="#231F20"></path>
                <path d="M196.639073,39.0109459 C196.639073,39.0109459 266.175497,58.4914865 229.403974,90.1556757 C229.403974,90.1556757 237.682119,65.5058108 198.625828,63.5610811 L208.874172,67.4671622 C188.0757,64.930526 167.094482,70.4267764 150.182119,82.8421622 C159.70835,81.7769272 169.19859,85.1302818 175.960265,91.9508108 C182.225083,97.847913 190.392916,101.28722 198.97351,101.641216 C198.97351,101.641216 189.370861,103.569324 175.016556,97.1367568 C160.662252,90.7041892 141.903974,87.6291892 131.970199,91.0366216 C131.970199,91.0366216 142.516556,78.9859459 169.006623,68.2483784 C192.615894,58.6577027 196.423841,48.1195946 196.622517,38.9278378" id="Shape" fill="#98002E"></path>
                <path d="M62.6986755,40.3739189 C89.9337748,49.2498649 102.913907,66.7690541 102.913907,66.7690541 C82.615894,24.5168919 38.5927152,12.3831081 38.5927152,12.3831081 C87.8311258,7.28027027 142.218543,20.2285135 142.218543,20.2285135 C131.539735,13.8790541 117.384106,10.8372973 117.384106,10.8372973 C147.649007,13.1144595 167.05298,21.2424324 167.05298,21.2424324 C179.701987,25.2981081 184.834437,32.8775676 184.834437,32.8775676 C196.307947,50.43 176.043046,59.9375676 164.122517,64.6082432 C143.178808,73.8332432 134.321192,78.6867568 123.195364,91.0366216 C103.543046,96.3887838 96.4238411,102.837973 96.4238411,102.837973 C97.5662252,59.9708108 62.7317881,40.3739189 62.7317881,40.3739189" id="Shape" fill="#FFFFFF"></path>
                <path d="M159.917219,80.7145946 C162.942849,79.8952976 166.043938,79.3884771 169.172185,79.202027 C178.543046,79.7837838 190.231788,89.7567568 190.231788,89.7567568 C181.196603,83.8873781 170.678691,80.7328177 159.917219,80.6647297" id="Shape" fill="#98002E"></path>
                <path d="M199.884106,44.0140541 C200.368882,45.3066042 200.240909,46.7504483 199.536424,47.9367568 C199.536424,47.9367568 219.403974,50.2305405 231.721854,62.6967568 C231.721854,62.6967568 223.642384,49.8482432 199.884106,44.0140541" id="Shape" fill="#231F20"></path>
                <path d="M108.890728,79.6175676 C107.05298,43.8644595 63.6589404,19.4306757 63.6589404,19.4306757 C81.1258278,22.3394595 97.8311258,35.8195946 112.036424,52.3581081 C105.413907,36.2351351 90.1986755,25.7635135 90.1986755,25.7635135 C90.1986755,25.7635135 104.569536,28.8883784 117.284768,45.8590541 C135.976821,70.8081081 150.662252,66.7690541 150.662252,66.7690541 C126.903974,77.2406757 121.506623,87.945 121.506623,87.945 C107.615894,89.7567568 100.149007,95.6574324 100.149007,95.6574324 C101.953642,76.5259459 86.9039735,58.6244595 86.9039735,58.6244595 C97.1688742,62.3310811 108.923841,79.6175676 108.923841,79.6175676" id="Shape" fill="#9FA1A4"></path>
                <path d="M182.549669,44.0140541 C178.512367,44.4751672 174.588492,45.6513472 170.960265,47.487973 C154.304636,56.3805405 137.284768,48.4354054 137.284768,48.4354054 C155.629139,52.1087838 162.350993,45.8424324 162.350993,45.8424324 C149.850993,41.3213514 153.062914,33.3263514 153.062914,33.3263514 C138.476821,24.1013514 95.8774834,22.9710811 95.8774834,22.9710811 C133.956954,21.9072973 151.92053,27.6085135 159.238411,30.7666216 C154.983444,25.3147297 145.993377,22.887973 145.993377,22.887973 C152.715232,23.9185135 159.519868,25.5474324 168.940397,35.5536486 C175.877483,42.917027 182.615894,44.0140541 182.615894,44.0140541" id="Shape" fill="#231F20"></path>
                <path d="M156.490066,33.6587838 C159.288079,35.3209459 161.705298,36.9831081 163.708609,38.3294595 C163.038132,38.1597193 162.328096,38.3552767 161.837748,38.8447297 C161.02649,39.8752703 161.837748,41.9363514 164.387417,43.6483784 L164.801325,43.8977027 C163.002776,43.6935006 161.289607,43.016995 159.834437,41.9363514 C153.907285,37.5316216 156.523179,33.6255405 156.523179,33.6255405" id="Shape" fill="#98002E"></path>
                <path d="M169.354305,42.5181081 C169.354305,42.5181081 168.377483,43.8478378 165.016556,42.7009459 C165.606273,42.6973848 166.149586,42.3791717 166.442906,41.8655469 C166.736227,41.3519221 166.735271,40.7204303 166.440397,40.2077027 C166.440397,40.2077027 169.023179,42.2022973 169.354305,42.5181081" id="Shape" fill="#FFFFFF"></path>
                <path d="M183.493377,41.9197297 C183.493377,41.9197297 176.870861,41.4044595 169.784768,33.21 C165.543934,28.2709794 159.99123,24.6448853 153.774834,22.755 C153.774834,22.755 165.662252,23.6858108 172.864238,32.3789189 C175.918466,36.0687824 179.500406,39.2839636 183.493377,41.9197297" id="Shape" fill="#9FA1A4"></path>
            </g>
        </g>
    </g>
</svg>