<?xml version="1.0" encoding="utf-8"?>
<!-- Generator: Adobe Illustrator 27.9.0, SVG Export Plug-In . SVG Version: 6.00 Build 0)  -->
<svg version="1.1" id="Layer_1" xmlns="http://www.w3.org/2000/svg" xmlns:xlink="http://www.w3.org/1999/xlink" x="0px" y="0px"
	 viewBox="0 0 500 500" style="enable-background:new 0 0 500 500;" xml:space="preserve">
<style type="text/css">
	.st0{clip-path:url(#SVGID_00000155852075351408414600000017500296206824906375_);}
	.st1{fill:#004730;}
	.st2{fill:#FEEE00;}
	.st3{fill:#FFFFFF;}
	.st4{fill-rule:evenodd;clip-rule:evenodd;fill:#004730;}
	.st5{fill-rule:evenodd;clip-rule:evenodd;fill:#FFFFFF;}
</style>
<g>
	<defs>
		<rect id="SVGID_1_" y="116.8" width="500" height="266.5"/>
	</defs>
	<clipPath id="SVGID_00000104670297673678499420000016391755178300462474_">
		<use xlink:href="#SVGID_1_"  style="overflow:visible;"/>
	</clipPath>
	<g style="clip-path:url(#SVGID_00000104670297673678499420000016391755178300462474_);">
		<path class="st1" d="M409.3,227.2c1.5,0.6,2.2,1,2.6,1.2c2.5,1.6,9,6.4,9,6.4c6.7,5.9,14,16.6,14.8,27.9h44.7
			c12.5,0,21.2,10.5,19.4,22.8l-12.3,77c-1.6,10.7-9.8,20.7-22.2,20.7H19.6c-12.5,0-21.2-10.5-19.4-22.8l12.3-78.7
			c1.7-11.5,12.2-20.7,23.9-20.7h45.8c9-32.9,31.8-61.5,62.1-82.5c3.2-2.6,9.9-9.1,11.3-13.3c0,0,0-0.5,0.1-1.2
			c-4.6-3.6-8.8-8.4-11.4-13.8c-8.4-20.3,9.5-32.6,23.6-33.4c23.5,0.6,47.9,12.4,65.9,25.4c1.6,0.3,3.3,0.4,4.8,0.2
			c101.9,1.5,146.8,42,153.7,48.9c8.3,7.7,16.1,19.5,17.2,32.4l0,0.8C409.4,225.4,409.4,226.3,409.3,227.2L409.3,227.2z"/>
		<path class="st2" d="M19.1,282.8c1.2-8.3,9-15.1,17.3-15.1H87c0.5-1.8,1.2-3.5,1.8-5.2c8.4-31.2,30-58.3,59.5-78.6
			c2.4-1.9,14.3-12.6,14.1-19.2c0,0,0-1.4,0-2.8c0-0.4,0-0.9,0-1.3c-4.9-3.2-9.5-7.8-12-13.1c-5.8-14,5.6-23.3,17.6-24
			c22,0.5,45.3,12,62.9,24.9c2.5,1,7.6,0.8,8,0.8c100.6,1.5,143.5,41.6,148.8,47c7.6,7,14.3,17.2,15.1,27.8l0,0.5
			c0,2.8-0.5,5.4-1.3,7.6c5.6,1.1,6.6,1.9,7.1,2.2c2.4,1.5,8.1,5.8,8.1,5.8c7.5,6.5,14.4,18.9,11.8,29.3h51.9
			c8.3,0,14,6.7,12.8,15.1l-12.3,77c-1.2,8.3-7.3,15.1-15.6,15.1H19.6c-8.3,0-14-6.7-12.8-15.1L19.1,282.8z"/>
		<path class="st3" d="M21.3,285.4c1.2-8.3,9-15.1,17.3-15.1h50.6c0.5-1.8,1.2-3.5,1.8-5.2c8.4-31.2,30-58.3,59.5-78.6
			c2.4-1.9,14.3-12.6,14.1-19.2c0,0,0-1.4,0-2.8c0-0.4,0-0.9,0-1.3c-4.9-3.2-9.5-7.8-12-13.1c-5.8-14,5.6-23.3,17.6-24
			c22,0.5,45.3,12,62.9,24.9c2.5,1,7.6,0.8,8,0.8c100.6,1.5,143.5,41.6,148.8,47c7.6,7,14.3,17.2,15.1,27.8v0.5
			c0,2.8-0.5,5.4-1.3,7.6c5.6,1.1,6.6,1.9,7.1,2.2c2.4,1.5,8.1,5.8,8.1,5.8c7.5,6.5,14.4,18.9,11.8,29.3h51.9
			c8.3,0,14,6.7,12.8,15.1l-12.3,77c-1.2,8.3-7.3,15.1-15.6,15.1H21.8c-8.3,0-14-6.7-12.8-15.1L21.3,285.4L21.3,285.4z"/>
		<path class="st2" d="M237.9,234.4c16.1-3.5,34-3.5,48.7,5.7c0,0,0.1,0.1,0.3,0.3c3.3,3.4,0.2,6.9-3.2,8.9l-1-1.3
			c1.7-2.9-6.7-5.6-13.3-6.9c0,0-6.3-1.3-16.5-1.5c-10.2-0.2-24.3,0.7-39.8,5.2l-0.6-1.6C212.5,243.1,223.3,237.5,237.9,234.4z
			 M409.7,263.6c-4.9-1.1-10.5-4.5-13.8-8.4c-1.1-1.7-5.6-5-5.6-5c-2.9-2.5-9.2-4.7-9.2-4.7c-2.1-0.7-5.1-2.1-7.1-3.5
			c-0.6-0.6-2.6-3-0.5-3.3c0.5-0.1,1.1,0.1,1.6,0.2c7.4,3,14.2,2.1,17.4-5.4c0.5-1.2,0.7-2,0.7-2l1.6,0.1c0.3,7.5,8.5,12,8.6,12
			c2.2,1.3,6.7,4.8,6.7,4.8c10.2,8.9,8,16.2,7.7,17.1c-2.1,10.7-17.5,5.1-23.7,2.3c-5.5-2.6-11-4.5-11-4.5c-6.1-2.7-24.9-5.2-25-5.2
			c-15.5-0.7-25.4-5.5-25.5-5.5c-1.1-0.6-1.7-0.7-1.9-0.6l-0.3,0.2c-2.3,1.2-12.7,9.8-13.5,10.4c-7.8,8.2-18.6,10.9-27.3,11.5
			c-8.8,0.6-15.6-0.8-15.6-0.8c-22.3-2.7-17.4-8.1-15.8-9.2c5.4-5.3,12.9-6,19.9-5.2c-2.1,1.3-2.8,1.6-4.4,3.3
			c18.6,5.1,28.8-11.3,28.8-11.3c3.4-4.5,6.7-6.8,11.7-8.3c-0.6,1.3-2.9,6-1.3,6.8c1.4,0.4,2.5,0.3,2.8-1.1
			c2.5-5.3,7.2-10.4,11.7-14.1c5.3,10.6,27.6,16.8,38.6,18.9c6.6,0.7,13.5,2.8,19.7,5.1c5.5,1.8,15.8,6.7,16.4,7
			C405,266.5,408.4,266.9,409.7,263.6L409.7,263.6z M358.3,220.7c-58.1-38.5-140.7-28.5-140.7-28.5l-0.4-1.6
			c57.3-18,103,1.6,103,1.7c2.4,1.1,5.9,1.8,8.5,1.7c2.9-0.2,0.9-1.9-1.6-3.3c-61.5-33.8-139.9-5.3-139.9-5.2l-0.8-1.5
			c9.4-6.6,9.9-20.8,9.9-20.9c0.6-13.5-20.7-21.3-23.1-16.7c-0.4,0.7-0.4,1.6-0.2,2.3c0.1,2.2-0.8,4.5-3.1,3
			c-6.4-3.5-9.3-9.2-9.4-9.3c-2.3-5.6,3.5-7.9,7.6-8.1c18.7,0.5,42,12,56.9,23.3c5.6,3,14.1,2.3,14.1,2.3
			c100.5,1.5,139.5,42.6,140.7,43.9c4.5,4.1,11,12.8,11.7,20.1c0,8.6-7.2,10.1-13.4,8c-2.1-0.6-5.6-2.8-7.5-4
			C362.6,223.5,358.3,220.7,358.3,220.7L358.3,220.7z M102.4,262.4l-1.6-0.6c6.6-22.3,22.1-47,54.3-69.2
			c0.8-0.6,19.1-14.9,18.7-28.4c0-1.4,0-5.3-0.2-6.4c0,0,0-0.3,0-0.6c0.3-2.3,2.3-2.2,4-1c0.2,0.1,14.1,12.7-0.6,35.8
			c6.1,0.4,20,1.4,24.8,3.4l2.6,1.1C167.7,203.6,118.4,226,102.4,262.4L102.4,262.4z M354.9,222.9c1.9,1.2,3.7,2.6,5.4,4.1
			c2.1,2.2,5.6,3.8,8.5,4.7c-1.4,2.5-3.7,5.5-6.1,2.2c-0.2-0.2-0.3-0.4-0.4-0.7c-0.3-0.4-1.3-1.9-2.1-1.8c-3.9,1.8-9.6-3.7-11.9-6.4
			c-3.5-3.1-7-1.3-9.6,1c-0.6-1.8-1-3.2,0.7-4.4c1.7-1.3,4.2-2,6-2.2C348.2,219,352,221,354.9,222.9L354.9,222.9L354.9,222.9z
			 M362.1,230.5c0.5,0.4,1.1,1,1.7,1.9c0,0,0.1,0.2,0.3,0.5c0.8,1,1.5,0.9,2.3-0.3C364.9,232,363.4,231.3,362.1,230.5L362.1,230.5z"
			/>
		<path class="st1" d="M58.9,322.4h17.4c0,0,0.2-0.1,0.4-0.1l2.1-0.4c1.6-0.3,3.5-0.8,4.5-1c10.7-1.7,3.3,5.9,2.8,6.3l-1.9,1.6
			l-1.2,1l-4.2,3.3c-1.4,1-3.1,1.6-4.8,1.6H32.4c-1.5,0-4.7-0.8-4.7-4.3v-0.4L39,287.3c-0.2-0.2-0.4-0.4-0.6-0.6
			c-1.2-1.2-2.8-2.6-2.8-4.4c0-1.9,0.9-3.9,4.3-3.9h24.9c2.1,0,4.6,1.3,4.6,4.4v0.4L58.9,322.4L58.9,322.4z"/>
		<path class="st2" d="M57.1,320.7h17.4c0,0,0.2-0.1,0.4-0.1l2.1-0.4c1.6-0.3,3.5-0.8,4.5-1c10.7-1.7,3.3,5.9,2.8,6.3l-1.9,1.6
			l-1.2,1l-4.2,3.3c-1.4,1-3.1,1.6-4.8,1.6H30.6c-1.5,0-4.7-0.8-4.7-4.3v-0.4l11.2-42.6c-0.2-0.2-0.4-0.4-0.6-0.6
			c-1.2-1.2-2.8-2.6-2.8-4.4c0-1.9,0.9-3.9,4.3-3.9h24.9c2.1,0,4.6,1.3,4.6,4.4v0.4C67.5,281.6,57.1,320.7,57.1,320.7z"/>
		<path class="st3" d="M55.5,322h19.1l0.7-0.1l2.1-0.4c1.6-0.3,3.5-0.8,4.4-0.9c6.8-1.1,2.1,3.8,1.8,4l-1.9,1.6l-1.2,1l-0.7,0.6
			l-3.4,2.7c-1.2,0.8-2.6,1.3-4.1,1.3H30.6c-1.3,0-3.4-0.6-3.4-3l11.4-43.3c-0.3-0.5-0.7-0.9-1.1-1.3c-0.9-0.8-2.4-2.1-2.4-3.5
			c0-1.7,1.5-2.6,3-2.6h24.9c1.6,0,3.3,0.9,3.3,3.1L55.5,322L55.5,322z"/>
		<path class="st4" d="M30.3,346.3v0.2l-4.7,17.6v0.1c0,0.2,0.2,0.4,0.5,0.4h17.9c1.3,0,2.5-0.4,3.5-1.1c1.1-0.7,1.8-1.6,2-2.6
			l3.5-13c0.1-0.3,0.1-0.5,0.1-0.8c0-0.9-0.4-1.6-1.1-2.1c-0.7-0.6-1.6-0.8-2.7-0.8H29.3c-0.2,0-0.4,0.1-0.4,0.2
			c0,0.1,0.2,0.3,0.7,0.8C30.1,345.6,30.3,346,30.3,346.3L30.3,346.3z M40.4,346.1h3.3c0.4,0,0.5,0.1,0.5,0.4c0,0.1,0,0.1,0,0.1
			l-4.1,15.7c-0.1,0.4-0.4,0.5-0.8,0.5H36c-0.4,0-0.5-0.1-0.5-0.4v-0.1l4.2-15.7C39.7,346.2,39.9,346.1,40.4,346.1z M111.1,344.2
			H97.2c-1.3,0-2.5,0.4-3.6,1.1c-1.1,0.7-1.8,1.6-2,2.6l-3.4,13c-0.1,0.3-0.1,0.5-0.1,0.8c0,0.9,0.3,1.6,1,2.1
			c0.7,0.5,1.6,0.8,2.7,0.8h13.9c1.3,0,2.5-0.4,3.6-1.1c1.1-0.7,1.8-1.6,2-2.6l3.5-13c0.1-0.3,0.1-0.5,0.1-0.8
			c0-0.9-0.4-1.6-1.1-2.1C113.1,344.5,112.2,344.2,111.1,344.2L111.1,344.2z M97.6,362.8c-0.4,0-0.5-0.1-0.5-0.4v-0.1l4.2-15.7
			c0.1-0.3,0.3-0.5,0.8-0.5h3.3c0.3,0,0.5,0.1,0.5,0.4v0.1l-4.2,15.7c-0.1,0.4-0.3,0.5-0.8,0.5H97.6z M167.5,364.6
			c0.4,0,0.8-0.1,1.2-0.4l1.7-1.1c0.2-0.1,0.2-0.2,0.2-0.3c0-0.1-0.1-0.1-0.3-0.1H160c-0.4,0-0.5-0.1-0.5-0.4v-0.1l4.7-17.5v-0.1
			c0-0.3-0.2-0.4-0.5-0.4h-10.3c-0.2,0-0.4,0.1-0.4,0.2c0,0.1,0.2,0.3,0.7,0.8c0.5,0.4,0.8,0.8,0.8,1.2c0,0.1,0,0.1,0,0.2l-4.7,17.6
			v0.1c0,0.2,0.2,0.4,0.5,0.4C150.2,364.6,167.5,364.6,167.5,364.6z M229.8,344.2h-20.2c-0.2,0-0.4,0.1-0.4,0.2
			c0,0.1,0.2,0.3,0.7,0.8c0.5,0.4,0.8,0.8,0.8,1.2c0,0.1,0,0.1,0,0.2l-4.7,17.6v0.1c0,0.2,0.2,0.4,0.5,0.4h8c0.4,0,0.7-0.2,0.8-0.5
			l1.2-4.6c0.1-0.3,0.4-0.5,0.8-0.5h8.6c1.3,0,2.5-0.4,3.5-1.1c1.1-0.7,1.8-1.6,2.1-2.6l2-7.4c0.1-0.3,0.1-0.5,0.1-0.8
			c0-0.9-0.4-1.6-1.1-2.1C231.7,344.5,230.9,344.2,229.8,344.2L229.8,344.2L229.8,344.2z M221.1,357.2h-3.3c-0.4,0-0.5-0.1-0.5-0.4
			c0,0,0-0.1,0-0.1l2.7-10.1c0.1-0.3,0.3-0.5,0.8-0.5h3.3c0.4,0,0.5,0.1,0.5,0.4c0,0.1,0,0.1,0,0.1l-2.7,10.1
			C221.8,357,221.5,357.2,221.1,357.2L221.1,357.2z M289.9,364.6c0.4,0,0.7-0.2,0.8-0.5l5.1-19.4c0,0,0-0.1,0-0.1
			c0-0.3-0.2-0.4-0.5-0.4h-8c-0.4,0-0.7,0.2-0.8,0.5l-2.2,8.2c-0.1,0.4-0.4,0.5-0.8,0.5h-3.3c-0.4,0-0.5-0.1-0.5-0.4
			c0-0.7,0.4-2.1,1.1-4.3c0.8-2.2,1.1-3.6,1.1-4.2c0-0.3-0.2-0.4-0.5-0.4h-10.3c-0.2,0-0.4,0.1-0.4,0.2c0,0.1,0.2,0.3,0.7,0.8
			c0.5,0.4,0.7,0.8,0.7,1.2v0.2l-4.7,17.6v0.1c0,0.2,0.2,0.4,0.5,0.4h8c0.4,0,0.7-0.2,0.8-0.5l2.2-8.2c0.1-0.4,0.3-0.5,0.8-0.5h3.3
			c0.3,0,0.5,0.1,0.5,0.4v0.1l-2.2,8.2c0,0,0,0.1,0,0.1c0,0.2,0.2,0.4,0.5,0.4C281.9,364.6,289.9,364.6,289.9,364.6z M338.5,364.6
			c0.4,0,0.7-0.2,0.8-0.5l5.1-19.4v-0.1c0-0.3-0.2-0.4-0.5-0.4h-10.3c-0.2,0-0.4,0.1-0.4,0.2c0,0.1,0.2,0.3,0.7,0.8
			c0.5,0.4,0.7,0.8,0.7,1.2v0.2l-4.7,17.6v0.1c0,0.3,0.2,0.4,0.5,0.4L338.5,364.6L338.5,364.6L338.5,364.6z M383.3,346.3v0.2
			l-4.7,17.6v0.1c0,0.2,0.2,0.4,0.5,0.4h3.3c0.4,0,0.7-0.2,0.8-0.5l3.3-12.9c0.1-0.2,0.1-0.2,0.2-0.2c0.1,0,0.1,0.1,0.2,0.2l5.3,13
			c0.1,0.3,0.4,0.5,0.8,0.5h8c0.4,0,0.7-0.2,0.8-0.5l5.1-19.4c0,0,0-0.1,0-0.1c0-0.3-0.2-0.4-0.5-0.4h-3.3c-0.4,0-0.7,0.2-0.8,0.5
			l-3.3,12.9c0,0.2-0.1,0.2-0.2,0.2c-0.1,0-0.1-0.1-0.2-0.2l-5.3-13c-0.1-0.3-0.4-0.5-0.9-0.5h-10.3c-0.2,0-0.4,0.1-0.4,0.2
			c0,0.1,0.2,0.3,0.7,0.8C383,345.6,383.3,346,383.3,346.3L383.3,346.3z M453.6,351.2c0,0,0.4-1.6,1.2-4.6c0.1-0.3,0.3-0.5,0.8-0.5
			h10.3c0.4,0,1.4-0.5,2.9-1.5c0.1-0.1,0.2-0.2,0.2-0.3c0-0.1-0.1-0.1-0.3-0.1h-17.9c-1.3,0-2.5,0.4-3.6,1.1c-1.1,0.7-1.8,1.6-2,2.6
			l-1.5,5.6c-0.3,1.1,0,2.2,0.9,2.9c0.7,0.5,1.6,0.8,2.7,0.8h8.6c0.3,0,0.5,0.1,0.5,0.4c0,0-0.4,1.6-1.2,4.6
			c-0.1,0.4-0.3,0.5-0.8,0.5h-10.3c-0.4,0-1.4,0.5-2.9,1.5c-0.1,0.1-0.2,0.2-0.2,0.2c0,0.1,0.1,0.1,0.3,0.1h17.9
			c1.3,0,2.5-0.4,3.6-1.1c1.1-0.7,1.8-1.6,2-2.6l1.5-5.6c0.1-0.3,0.1-0.5,0.1-0.8c0-0.9-0.4-1.6-1.1-2.1c-0.7-0.6-1.6-0.8-2.7-0.8
			h-8.6C453.8,351.6,453.6,351.5,453.6,351.2L453.6,351.2z"/>
		<path class="st1" d="M210.6,310.2l15.7-28.6c1.1-2.1,3.1-3.1,5.3-3.1h24.8c1.9,0,4.7,1.1,4.7,4.4v0.4L248.4,331
			c-0.7,2.8-3.2,3.7-5.2,3.7H224c-1.7,0-4.6-1-4.6-4.3V330l1.3-5.2l-3.8,7c-1.2,2-3.2,2.9-5.2,2.9h-21.3c-2,0-4.6-1-5.1-4l-1.7-9
			l-2.4,9.4c-0.8,2.5-3,3.6-5.1,3.6h-8.1c-1.5,0-4.7-0.8-4.7-4.3V330l11.2-42.6c-0.2-0.2-0.4-0.4-0.6-0.6c-1.2-1.2-2.8-2.6-2.8-4.4
			c0-1.9,0.9-3.9,4.3-3.9h24.9c2.1,0,4.5,1.1,5,4L210.6,310.2L210.6,310.2z"/>
		<path class="st2" d="M208.5,308.1l15.7-28.6c1.1-2.1,3.1-3.1,5.3-3.1h24.8c1.9,0,4.7,1.1,4.7,4.4v0.4l-12.6,47.6
			c-0.7,2.8-3.2,3.7-5.2,3.7h-19.2c-1.7,0-4.6-1-4.6-4.3v-0.4l1.3-5.2l-3.8,7c-1.2,2-3.2,2.9-5.2,2.9h-21.3c-2,0-4.6-1-5.1-4l-1.7-9
			l-2.4,9.4c-0.8,2.5-3,3.6-5.1,3.6H166c-1.5,0-4.7-0.8-4.7-4.3v-0.4l11.2-42.6c-0.2-0.2-0.4-0.4-0.6-0.6c-1.2-1.2-2.8-2.6-2.8-4.4
			c0-1.9,0.9-3.9,4.3-3.9h24.9c2.1,0,4.5,1.1,5,4L208.5,308.1L208.5,308.1z"/>
		<path class="st3" d="M207.9,311.9l17.4-31.7c0.9-1.6,2.4-2.4,4.1-2.4h24.8c1.5,0,3.4,0.8,3.4,3.1l-12.6,47.7
			c-0.5,2-2.3,2.8-3.9,2.8h-19.2c-1.4,0-3.3-0.7-3.3-3l3.8-15.3l-8.7,16c-0.9,1.6-2.4,2.3-4.1,2.3h-21.3c-1.6,0-3.5-0.8-3.9-2.9
			l-2.7-14.7l-3.8,15c-0.6,1.8-2.2,2.7-3.9,2.7H166c-1.3,0-3.4-0.6-3.4-3l11.4-43.3c-0.3-0.5-0.7-0.9-1.1-1.3
			c-0.9-0.8-2.4-2.1-2.4-3.5c0-1.7,1.5-2.6,3-2.6h24.9c1.7,0,3.4,0.8,3.8,2.9L207.9,311.9L207.9,311.9z"/>
		<path class="st1" d="M241.2,329.3h-19.2c-0.8,0-1.2-0.3-1.2-0.9l7.5-29.2v-0.6c-0.1,0.2-0.3,0.4-0.4,0.5l-15.8,29
			c-0.5,0.8-1.2,1.2-2.3,1.2h-21.3c-1.1,0-1.7-0.4-1.8-1.2l-4.2-23c0-0.3-0.1-0.4-0.2-0.5c-0.1,0.2-0.2,0.3-0.3,0.5l-5.8,23
			c-0.3,0.8-0.9,1.2-1.9,1.2H166c-0.9,0-1.3-0.3-1.3-0.9l11.3-42.7c0.1-0.2,0.1-0.3,0.1-0.5c0-0.8-0.6-1.8-1.8-2.8
			c-1.1-1.1-1.7-1.7-1.7-1.9c0-0.3,0.3-0.5,0.9-0.5h24.9c1,0,1.6,0.4,1.7,1.2l6.7,35.7c0,0.3,0.1,0.5,0.3,0.5c0.2,0,0.4-0.2,0.6-0.5
			l19.5-35.6c0.5-0.9,1.2-1.3,2.3-1.3h24.8c0.9,0,1.3,0.3,1.3,1L243.1,328C242.9,328.8,242.2,329.2,241.2,329.3L241.2,329.3z"/>
		<path class="st5" d="M176.7,281.6l1.6,1.7L167,327.7l2.3-0.1l11.8-46.1C181.1,281.5,176.7,281.6,176.7,281.6z M251.2,281.4
			l-11.7,46.2l1.8,0.1l12.1-46.1C253.3,281.5,251.2,281.4,251.2,281.4z"/>
		<path class="st1" d="M431.5,296.9c-1-1.3-2.7-2.1-2.7-4c0-1.5,0.7-3.1,3.4-3.1h42.2c1.5,0,3.7,0.9,3.7,3.5c0,2.5-1.1,5.5-4.7,5.5
			h-19l-2.2,8.3l-0.2,0.7h17.6c2.8,0,3.3,1.9,3.3,2.9c0,0.6-0.2,1.8-1.8,2.7l-3.1,2.1c-1.1,0.8-2.5,1.2-3.9,1.2h-14.6l-2.2,8.4
			l-0.2,0.6h17.6c2.8,0,3.3,1.9,3.3,2.9c0,0.5-0.2,1.7-1.7,2.7l-3.2,2.1c-1.1,0.8-2.4,1.2-3.7,1.2h-33.4c-1.2,0-3.7-0.6-3.7-3.4
			v-0.4L431.5,296.9L431.5,296.9L431.5,296.9z M100.8,296.9c-1-1.3-2.7-2.1-2.7-4c0-1.5,0.7-3.1,3.4-3.1h42.2c1.5,0,3.7,0.9,3.7,3.5
			c0,2.5-1.1,5.5-4.7,5.5h-19l-2.2,8.3l-0.2,0.7H139c2.8,0,3.3,1.9,3.3,2.9c0,0.6-0.2,1.8-1.8,2.7l-3.1,2.1
			c-1.1,0.8-2.5,1.2-3.9,1.2H119l-2.2,8.4l-0.2,0.6h17.6c2.8,0,3.3,1.9,3.3,2.9c0,0.5-0.2,1.7-1.7,2.7l-3.2,2.1
			c-1.1,0.8-2.4,1.2-3.7,1.2H95.5c-1.2,0-3.7-0.6-3.7-3.4v-0.4L100.8,296.9L100.8,296.9z M309.7,292c2,1.6,3.1,3.7,3.1,6.2
			c0,0.7-0.1,1.4-0.2,2.1l-6.7,25.2c-1.6,5.8-7.8,9.2-13.5,9.2h-26.8c-2.5,0-4.9-0.7-6.9-2.1c-2-1.6-3.1-3.7-3.1-6.3
			c0-0.8,0.1-1.6,0.4-2.3l6.6-25.1c0.7-2.7,2.6-4.9,5.1-6.6c2.5-1.7,5.4-2.6,8.4-2.6h26.8C305.4,289.8,307.8,290.4,309.7,292z
			 M278.9,325.7h4.2c-0.1,0.1-0.3,0.2-0.5,0.2c-0.1,0.3-0.3,0.6-0.6,0.8l7.4-27.9h-3.4C286.1,298.8,278.9,325.7,278.9,325.7z
			 M343.6,301.7l9-10.1c1-1.1,2.5-1.8,4-1.8h6.4c2.7,0,3.4,1.6,3.4,3.1c0,0.4-0.2,1.3-0.9,2.2L347.9,315c-0.2,0.2-0.4,0.5-0.4,0.8
			l-4.2,16c-0.6,2-2.3,3-4.1,3l-15.2,0.2c-1.5,0-3.7-0.9-3.7-3.5v-0.4l4.4-16.4l-7.9-16.4c-0.1-0.1-0.5-0.7-1.6-1.8l-1.2-1.4
			c-1-1.2-1-2.1-1-2.2c0-1.2,0.6-3,3.4-3h19.9c1.5,0,3.4,0.6,4.1,2.7L343.6,301.7L343.6,301.7z M382.5,313.5l-4.6,18.2
			c-0.7,2-2.4,2.9-4.1,2.9h-6.4c-1.2,0-3.7-0.6-3.7-3.4v-0.4l9-34.2c0.1,0.1,0,0.2,0,0.3c-0.9-1.5-2.8-2-2.8-4.1
			c0-1.5,0.7-3.1,3.4-3.1H393c1.5,0,3.3,0.6,4.2,2.5l7.5,18.7l4.7-18.1c0.5-2.2,2.4-3.1,4.1-3.1h6.4c1.5,0,3.7,0.9,3.7,3.5v0.4
			l-10.1,38.1c-0.6,2.2-2.5,3-4.1,3h-15.4c-1.5,0-3.4-0.6-4.1-2.7L382.5,313.5L382.5,313.5L382.5,313.5z"/>
		<path class="st2" d="M429.7,295.1c-1-1.3-2.7-2.1-2.7-4c0-1.5,0.7-3.1,3.4-3.1h42.2c1.5,0,3.7,0.9,3.7,3.5c0,2.5-1.1,5.5-4.7,5.5
			h-19l-2.2,8.3l-0.2,0.7h17.6c2.8,0,3.3,1.9,3.3,2.9c0,0.6-0.2,1.8-1.8,2.7l-3.1,2.1c-1.1,0.8-2.5,1.2-3.9,1.2h-14.6l-2.2,8.4
			l-0.2,0.6h17.6c2.8,0,3.3,1.9,3.3,2.9c0,0.5-0.2,1.7-1.7,2.7l-3.2,2.1c-1.1,0.8-2.4,1.2-3.7,1.2h-33.4c-1.2,0-3.7-0.6-3.7-3.4
			v-0.4L429.7,295.1L429.7,295.1z M99,295.1c-1-1.3-2.7-2.1-2.7-4c0-1.5,0.7-3.1,3.4-3.1H142c1.5,0,3.7,0.9,3.7,3.5
			c0,2.5-1.1,5.5-4.7,5.5h-19l-2.2,8.3l-0.2,0.7h17.6c2.8,0,3.3,1.9,3.3,2.9c0,0.6-0.2,1.8-1.8,2.7l-3.1,2.1
			c-1.1,0.8-2.5,1.2-3.9,1.2h-14.6l-2.2,8.4l-0.2,0.6h17.6c2.8,0,3.3,1.9,3.3,2.9c0,0.5-0.2,1.7-1.7,2.7l-3.2,2.1
			c-1.1,0.8-2.4,1.2-3.7,1.2H93.8c-1.2,0-3.7-0.6-3.7-3.4v-0.4L99,295.1L99,295.1z M307.9,290.2c2,1.6,3.1,3.7,3.1,6.2
			c0,0.7-0.1,1.4-0.2,2.1l-6.7,25.2c-1.6,5.8-7.8,9.2-13.5,9.2h-26.8c-2.5,0-4.9-0.7-6.9-2.1c-2-1.6-3.1-3.7-3.1-6.3
			c0-0.8,0.1-1.6,0.4-2.3l6.6-25.1c0.7-2.7,2.6-4.9,5.1-6.5c2.5-1.7,5.4-2.6,8.4-2.6h26.8C303.6,288,306,288.7,307.9,290.2z
			 M277.1,324h4.2c-0.1,0.1-0.3,0.2-0.5,0.2c-0.1,0.3-0.3,0.6-0.6,0.8l7.4-27.9h-3.4L277.1,324C277.1,324,277.1,324,277.1,324z
			 M341.8,299.9l9-10.1c1-1.1,2.5-1.8,4-1.8h6.4c2.7,0,3.4,1.6,3.4,3.1c0,0.4-0.2,1.3-0.9,2.2l-17.6,19.8c-0.2,0.2-0.4,0.5-0.4,0.8
			l-4.2,16c-0.6,2-2.3,3-4.1,3l-15.2,0.2c-1.5,0-3.7-0.9-3.7-3.5v-0.4l4.4-16.4l-7.9-16.4c-0.1-0.1-0.5-0.7-1.6-1.8l-1.2-1.4
			c-1-1.2-1-2.1-1-2.2c0-1.2,0.6-3,3.4-3h19.9c1.5,0,3.4,0.6,4.1,2.7L341.8,299.9C341.8,299.9,341.8,299.9,341.8,299.9z
			 M380.7,311.8L376,330c-0.7,2-2.4,2.9-4.1,2.9h-6.4c-1.2,0-3.7-0.6-3.7-3.4v-0.4l9-34.2c0.1,0.1,0,0.2,0,0.3
			c-0.9-1.5-2.8-2-2.8-4.1c0-1.5,0.7-3.1,3.4-3.1h19.8c1.5,0,3.3,0.6,4.2,2.5l7.5,18.7l4.7-18.1c0.5-2.2,2.4-3.1,4.1-3.1h6.4
			c1.5,0,3.7,0.9,3.7,3.5v0.4l-10.1,38.1c-0.6,2.2-2.5,3-4.1,3h-15.4c-1.5,0-3.4-0.6-4.1-2.7L380.7,311.8L380.7,311.8z"/>
		<path class="st3" d="M447.1,313.9c-1.1,4.1-1.9,7.1-2.4,9.2l-0.6,2.4l-0.2,0.6c-0.3,1-1.7-0.2-1.7-0.2h1.7
			c-0.2-0.2-0.4-0.4-0.4-0.7l19.6-0.1c1.9,0,2.3,1.2,2.3,1.9c0,0.3-0.2,1.2-1.2,1.9l-3.2,2.1c-0.9,0.6-2,1-3.2,1h-33.4
			c-1,0-2.7-0.5-2.7-2.4l9-34.4l-0.1-0.4c-0.7-1.1-2.6-2.1-2.6-3.6c0-1.4,1.2-2.1,2.4-2.1h42.2c1.2,0,2.7,0.6,2.7,2.5
			c0,2.2-0.9,4.5-3.7,4.5h-19.8c-1.1,4.1-1.9,7-2.4,9.1l-0.5,2h19c1.9,0,2.3,1.2,2.3,1.9c0,0.4-0.2,1.2-1.3,1.8l-3.1,2.1
			c-1,0.7-2.1,1-3.3,1L447.1,313.9L447.1,313.9L447.1,313.9z M116.4,313.9c-1.1,4.1-1.9,7.1-2.4,9.2l-0.6,2.4l-0.2,0.6
			c-0.3,1-1.7-0.2-1.7-0.2h1.7c-0.2-0.2-0.4-0.4-0.4-0.7l19.6-0.1c1.9,0,2.3,1.2,2.3,1.9c0,0.3-0.2,1.2-1.2,1.9l-3.2,2.1
			c-0.9,0.6-2,1-3.2,1H93.8c-1,0-2.7-0.5-2.7-2.4l9-34.4l-0.1-0.4c-0.7-1.1-2.6-2.1-2.6-3.6c0-1.4,1.2-2.1,2.4-2.1H142
			c1.2,0,2.7,0.6,2.7,2.5c0,2.2-0.9,4.5-3.7,4.5h-19.8c-1.1,4.1-1.9,7-2.4,9.1l-0.5,2h19c1.9,0,2.3,1.2,2.3,1.9
			c0,0.4-0.2,1.2-1.3,1.8l-3.1,2.1c-1,0.7-2.1,1-3.3,1L116.4,313.9L116.4,313.9z M307.2,291c1.8,1.4,2.7,3.2,2.7,5.4
			c0,0.6-0.1,1.2-0.2,1.8l-6.7,25.2c-1.4,5.3-7.3,8.4-12.5,8.4h-26.8c-2.4,0-4.5-0.6-6.2-1.9c-1.7-1.4-2.7-3.2-2.7-5.4
			c0-0.7,0.1-1.3,0.3-2l6.6-25.1c0.7-2.4,2.3-4.4,4.6-6c2.3-1.6,5-2.5,7.9-2.5h26.8C303.5,289,305.6,289.6,307.2,291L307.2,291z
			 M275.8,325h5.5l7.7-29h-5.5L275.8,325C275.8,325,275.8,325,275.8,325z M341.4,301.9l10.2-11.4c0.8-0.9,2-1.5,3.2-1.4h6.4
			c1.2,0,2.4,0.7,2.4,2.1c0,0.3-0.1,0.9-0.6,1.5l-17.6,19.8c-0.3,0.3-0.6,0.8-0.7,1.2l-4.2,16c-0.5,1.5-1.7,2.3-3.1,2.3l-15.2,0.2
			c-1.2,0-2.7-0.6-2.7-2.5l4.4-16.8c-0.1-0.2-0.2-0.5-0.3-0.7l-7.8-16.2c-0.2-0.3-0.7-0.9-1.7-2l-1.2-1.3c-0.7-0.8-0.8-1.5-0.8-1.6
			c0-0.8,0.5-2,2.4-2h19.9c1.2,0,2.6,0.5,3.2,2C337.6,291.1,341.4,301.9,341.4,301.9z M380.4,308.5l-5.4,21.2
			c-0.5,1.5-1.8,2.2-3.1,2.2h-6.4c-1,0-2.7-0.5-2.7-2.4l9-34.4l-0.1-0.4c-0.7-1.1-2.6-2.1-2.6-3.6c0-1.4,1.2-2.1,2.4-2.1h19.8
			c1.3,0,2.6,0.5,3.2,1.9l8.7,21.5l5.5-21.1c0.4-1.6,1.7-2.3,3.1-2.3h6.4c1.2,0,2.7,0.6,2.7,2.5l-10,38.2c-0.4,1.6-1.8,2.2-3.1,2.2
			h-15.4c-1.2,0-2.6-0.5-3.2-2L380.4,308.5L380.4,308.5z"/>
		<path class="st1" d="M430.4,290.7h42.2c0.7,0,1,0.3,1,0.8c0,1.9-0.7,2.8-2,2.8h-19.8c-0.9,0-1.4,0.3-1.5,1
			c-2.2,8.3-3.3,12.5-3.3,12.6c0,0.5,0.4,0.8,1,0.8h19.8c0.4,0,0.6,0.1,0.6,0.2c0,0.1-0.2,0.2-0.5,0.4l-3.2,2.2
			c-0.7,0.5-1.5,0.7-2.3,0.7h-15.4c-0.9,0-1.4,0.4-1.5,1.1c-1.1,4.2-2.2,8.3-3.3,12.5c0,0.5,0.3,0.8,1,0.8h19.8
			c0.4,0,0.6,0.1,0.6,0.2c0,0.1-0.2,0.3-0.5,0.5l-3.2,2.1c-0.7,0.5-1.5,0.7-2.3,0.7h-33.4c-0.7,0-1-0.2-1-0.7l9-34.2v-0.4
			c0-0.6-0.5-1.4-1.4-2.3c-0.9-0.9-1.4-1.4-1.4-1.5C429.7,290.8,429.9,290.7,430.4,290.7L430.4,290.7L430.4,290.7z M99.7,290.7H142
			c0.7,0,1,0.3,1,0.8c0,1.9-0.7,2.8-2,2.8h-19.8c-0.9,0-1.4,0.3-1.5,1c-2.2,8.3-3.3,12.5-3.3,12.6c0,0.5,0.3,0.8,1,0.8h19.8
			c0.4,0,0.6,0.1,0.6,0.2c0,0.1-0.2,0.2-0.5,0.4l-3.2,2.2c-0.7,0.5-1.5,0.7-2.3,0.7h-15.4c-0.9,0-1.4,0.4-1.5,1.1
			c-2.2,8.3-3.3,12.5-3.3,12.5c0,0.5,0.3,0.8,1,0.8h19.8c0.4,0,0.6,0.1,0.6,0.2c0,0.1-0.2,0.3-0.5,0.5l-3.2,2.1
			c-0.7,0.5-1.5,0.7-2.3,0.7H93.8c-0.7,0-1-0.2-1-0.7l9-34.2v-0.4c0-0.6-0.5-1.4-1.4-2.3c-0.9-0.9-1.4-1.4-1.4-1.5
			C99,290.8,99.2,290.7,99.7,290.7C99.7,290.7,99.7,290.7,99.7,290.7z M301.1,290.7c2.1,0,3.8,0.5,5.2,1.6c1.4,1.1,2.1,2.5,2.1,4.1
			c0,0.5-0.1,1-0.2,1.5l-6.7,25.1c-0.5,2-1.9,3.7-4,5.1c-2,1.4-4.5,2.1-6.9,2.1h-26.8c-2.1,0-3.8-0.5-5.2-1.5c-1.3-1.1-2-2.5-2-4.1
			c0-0.5,0.1-1,0.2-1.5l6.6-25.1c0.5-1.9,1.9-3.6,3.9-5c2.1-1.5,4.4-2.2,6.9-2.2L301.1,290.7L301.1,290.7z M275,326.6h6.4
			c0.9,0,1.4-0.4,1.5-1.1l8.1-30.3c0-0.7-0.3-1-1-1h-6.4c-0.9,0-1.4,0.3-1.5,1l-8.1,30.3C273.9,326.4,274.3,326.6,275,326.6z
			 M354.8,290.8h6.4c0.5,0,0.7,0.1,0.7,0.4c0,0.1-0.1,0.3-0.2,0.5l-17.6,19.7c-0.5,0.5-0.9,1.2-1,1.9l-4.2,15.9
			c-0.2,0.7-0.7,1-1.5,1l-15.2,0.2c-0.7,0-1-0.3-1-0.8l4.4-16.3c0.1-0.4,0.2-0.7,0.2-1.1c-0.2-0.2-0.4-0.5-0.6-0.8l-7.8-16.2
			c-0.3-0.5-0.9-1.3-1.9-2.3c-1-1.1-1.5-1.7-1.5-1.8c0-0.2,0.2-0.3,0.7-0.3h19.9c0.9,0,1.4,0.3,1.6,0.9l4.4,12.5
			c0.1,0.3,0.3,0.4,0.5,0.4s0.4-0.1,0.6-0.4l11.2-12.5C353.3,291.1,354,290.8,354.8,290.8L354.8,290.8L354.8,290.8z M373.4,294.9
			c0-0.6-0.5-1.4-1.4-2.3c-0.9-0.9-1.4-1.4-1.4-1.5c0-0.3,0.2-0.4,0.7-0.4h19.8c0.9,0,1.4,0.3,1.7,0.9l10.2,25.2
			c0.1,0.2,0.2,0.3,0.3,0.4c0.2,0,0.3-0.2,0.3-0.5l6.4-25c0.2-0.7,0.7-1.1,1.5-1.1h6.4c0.7,0,1,0.3,1,0.8l-10,37.8
			c-0.2,0.6-0.7,1-1.5,1h-15.4c-0.9,0-1.4-0.3-1.6-0.9l-10.2-25.2c0-0.2-0.2-0.3-0.3-0.3c-0.1,0-0.2,0.2-0.3,0.5l-6.4,25
			c-0.2,0.6-0.7,1-1.5,1h-6.4c-0.7,0-1-0.2-1-0.7l9-34.2L373.4,294.9L373.4,294.9L373.4,294.9z"/>
		<path class="st5" d="M102.2,292.1l1.3,1.4L94.5,329l1.8-0.1l9.4-36.9L102.2,292.1z"/>
		<path class="st3" d="M266,328.9h-1.4c-1.8,0-3.3-0.4-4.6-1.3c-1.2-0.9-1.8-2.1-1.8-3.6c0-0.5,0.1-0.9,0.2-1.3l6.4-24.3
			c0.4-1.7,1.5-3.1,3.4-4.4c1.9-1.3,3.9-1.9,6-1.9h1.4c-2.2,0-3.9,0.6-5.8,1.9c-1.8,1.2-2.9,2.7-3.4,4.4l-6.4,24.3
			c-0.1,0.4-0.2,0.9-0.2,1.3c0,1.5,0.6,2.7,1.8,3.6C262.9,328.5,264.1,328.9,266,328.9z M298.9,292.1h1.4c1.8,0,3.3,0.4,4.6,1.3
			c1.2,0.9,1.8,2.1,1.8,3.6c0,0.5-0.1,0.9-0.2,1.3l-6.4,24.3c-0.4,1.7-1.5,3.1-3.4,4.4c-1.9,1.3-3.9,1.9-6,1.9h-1.4
			c2.2,0,3.6-0.6,5.5-1.9c1.8-1.2,2.9-2.7,3.4-4.4l6.4-24.3c0.1-0.4,0.2-0.9,0.2-1.3c0-1.5-0.6-2.7-1.8-3.6
			C301.7,292.5,300.7,292.1,298.9,292.1z"/>
		<path class="st5" d="M316.3,292l1.3,1.4l9.4,18.8l-4.7,17.4l1.8-0.1l4.7-17.4l-10-20.2L316.3,292z M374.1,292.1l1.3,1.4l-9.1,35.5
			l1.8-0.1l9.4-36.9L374.1,292.1z M433.1,292.1l1.3,1.4l-9.1,35.5l1.8-0.1l9.4-36.9L433.1,292.1L433.1,292.1z"/>
		<path class="st1" d="M212.9,243.8c0,0,42.9-22,73.3-3.1c0,0,4.4,3.6-2.9,7.7c0,0,4.3-4.8-13.7-8.3
			C269.6,240.1,244.1,234.8,212.9,243.8L212.9,243.8z M393.9,231.7c0.4,8,9,12.7,9,12.7c2.1,1.3,6.6,4.8,6.6,4.8
			c10.4,9.1,7.4,16.3,7.4,16.3c-2.2,11.5-22.2,1.9-22.5,1.8c-5.6-2.6-11-4.5-11-4.5c-6.2-2.8-25.2-5.3-25.2-5.3
			c-15.4-0.6-25.2-5.4-25.2-5.4c-2.4-1.4-3-0.4-3-0.4c-2.5,1.3-13.6,10.5-13.6,10.5c-15.2,16.1-42.2,10.5-42.2,10.5
			c-23.1-2.8-15.5-7.7-15.5-7.7c6.5-6.5,16.9-5.3,16.9-5.3c-1.2,0.7-3.5,3.1-3.5,3.1c20.1,6.4,31.1-11.2,31.1-11.2
			c4.5-6,9.5-7.4,9.5-7.4c-2.8,6.1,0.3,6.4,0.3,6.4c3.1,0.9,3.5-1.7,3.5-1.7c3.2-6.9,10.6-13,10.6-13c6.2,12.4,38.8,18.5,38.8,18.5
			c8.1,0.8,19.6,5.1,19.6,5.1c5.7,1.8,16.4,7,16.4,7c8,3.1,9-3.2,9-3.2c-8.4-1.4-14.2-8.3-14.2-8.3c-1.2-1.8-5.8-5.2-5.8-5.2
			c-3-2.6-9.5-4.9-9.5-4.9c-3.9-1.3-6.9-3.3-6.9-3.3c-2.7-2.8,0.3-1.7,0.3-1.7C390.9,246.1,393.9,231.7,393.9,231.7L393.9,231.7
			L393.9,231.7z M371.4,227.3c-8.4-4.5-12.6-7.3-12.6-7.3c-58.4-38.7-141.2-28.6-141.2-28.6c57-18,102.4,1.6,102.4,1.6
			c4,1.9,8.9,1.8,8.9,1.8c6.4-0.4-1.2-4.9-1.2-4.9c-61.8-34-140.6-5.3-140.6-5.3c9.7-6.9,10.3-21.5,10.3-21.5
			c0.7-14.4-18-18.6-18-18.6c-8.5-1.9-7,4.3-7,4.3c0.2,3.7-1.8,2.2-1.8,2.2c-6.2-3.4-9-8.9-9-8.9c-2.6-6.4,6.9-6.9,6.9-6.9
			c27.3,0.7,56.5,23.2,56.5,23.2c5.9,3.1,14.6,2.5,14.6,2.5c101.7,1.5,140.1,43.7,140.1,43.7c10.4,9.4,11.5,19.6,11.5,19.6
			c0,11.4-12.3,7.1-12.3,7.1C376.5,230.6,371.4,227.3,371.4,227.3z M201.5,196.2c0,0-77.5,15-99.8,65.9c6.6-22.1,21.9-46.6,54-68.7
			c0,0,19.5-14.8,19-29.2c0,0,0-5.2-0.2-6.5c0,0-0.1-2.9,2.7-0.9c0,0,14.1,12.5-1.6,35.9C175.6,192.7,196.2,194,201.5,196.2
			L201.5,196.2z M345.4,220.3c5.1-0.8,14.4,7.3,14.4,7.3c2.7,2.9,7.9,4.6,7.9,4.6c-2.6,4.7-4.6,0.7-4.6,0.7
			c-1.8-2.8-3.2-2.2-3.2-2.2c-4.1,1.9-11-6.2-11-6.2c-4.7-4.2-9.8,0.1-9.8,0.1c-0.5-1.6,1-2.5,1-2.5
			C341.9,220.7,345.4,220.3,345.4,220.3L345.4,220.3z"/>
		<path class="st1" d="M212.9,243.8c0,0,42.9-22,73.3-3.1c0,0,4.4,3.6-2.9,7.7c0,0,4.3-4.8-13.7-8.3
			C269.6,240.1,244.1,234.8,212.9,243.8L212.9,243.8z M393.9,231.7c0.4,8,9,12.7,9,12.7c2.1,1.3,6.6,4.8,6.6,4.8
			c10.4,9.1,7.4,16.3,7.4,16.3c-2.2,11.5-22.2,1.9-22.5,1.8c-5.6-2.6-11-4.5-11-4.5c-6.2-2.8-25.2-5.3-25.2-5.3
			c-15.4-0.6-25.2-5.4-25.2-5.4c-2.4-1.4-3-0.4-3-0.4c-2.5,1.3-13.6,10.5-13.6,10.5c-15.2,16.1-42.2,10.5-42.2,10.5
			c-23.1-2.8-15.5-7.7-15.5-7.7c6.5-6.5,16.9-5.3,16.9-5.3c-1.2,0.7-3.5,3.1-3.5,3.1c20.1,6.4,31-11.2,31-11.2
			c4.5-6,9.5-7.4,9.5-7.4c-2.8,6.1,0.3,6.4,0.3,6.4c3.1,0.9,3.5-1.7,3.5-1.7c3.2-6.9,10.6-13,10.6-13c6.2,12.4,38.8,18.5,38.8,18.5
			c8.1,0.8,19.6,5.1,19.6,5.1c5.7,1.8,16.4,7,16.4,7c8,3.1,9-3.2,9-3.2c-8.4-1.4-14.2-8.3-14.2-8.3c-1.2-1.8-5.8-5.2-5.8-5.2
			c-3-2.6-9.5-4.9-9.5-4.9c-3.9-1.3-6.9-3.3-6.9-3.3c-2.7-2.8,0.3-1.7,0.3-1.7C390.9,246.1,393.9,231.7,393.9,231.7L393.9,231.7
			L393.9,231.7z M371.4,227.3c-8.4-4.5-12.6-7.3-12.6-7.3c-58.4-38.7-141.2-28.6-141.2-28.6c57-18,102.4,1.6,102.4,1.6
			c4,1.9,8.9,1.8,8.9,1.8c6.4-0.4-1.2-4.9-1.2-4.9c-61.8-34-140.6-5.3-140.6-5.3c9.7-6.9,10.3-21.5,10.3-21.5
			c0.7-14.4-18-18.6-18-18.6c-8.5-1.9-7,4.3-7,4.3c0.2,3.7-1.8,2.2-1.8,2.2c-6.2-3.4-9-8.9-9-8.9c-2.6-6.4,6.9-6.9,6.9-6.9
			c27.3,0.7,56.5,23.2,56.5,23.2c5.9,3.1,14.6,2.5,14.6,2.5c101.7,1.5,140.1,43.7,140.1,43.7c10.4,9.4,11.5,19.6,11.5,19.6
			c0,11.4-12.3,7.1-12.3,7.1C376.5,230.6,371.4,227.3,371.4,227.3z M345.4,220.3c5.1-0.8,14.4,7.3,14.4,7.3c2.7,2.9,7.9,4.6,7.9,4.6
			c-2.6,4.7-4.6,0.7-4.6,0.7c-1.8-2.8-3.2-2.2-3.2-2.2c-4.1,1.9-11-6.2-11-6.2c-4.7-4.2-9.8,0.1-9.8,0.1c-0.5-1.6,1-2.5,1-2.5
			C341.9,220.7,345.4,220.3,345.4,220.3L345.4,220.3z M72.3,329.6H30.6c-0.9,0-1.3-0.3-1.3-0.9l11.3-42.7c0.1-0.2,0.1-0.3,0.1-0.5
			c0-0.8-0.6-1.8-1.8-2.8c-1.1-1.1-1.7-1.7-1.7-1.9c0-0.3,0.3-0.5,0.9-0.5h24.9c0.8,0,1.2,0.3,1.2,1l-11,41.6c0,1,0.4,1.3,1.3,1.3
			h20.1c0.4,0,5.7-1.2,7.6-1.6c0.6-0.1,0.1,0.4,0.1,0.4c-0.5,0.4-3.4,2.8-3.8,3.1l-3.4,2.7C74.3,329.3,73.3,329.6,72.3,329.6
			L72.3,329.6z"/>
		<path class="st5" d="M41.1,281.7l1.6,1.7l-11.3,44.4l2.3-0.1l11.8-46.1C45.5,281.6,41.1,281.7,41.1,281.7z"/>
	</g>
</g>
</svg>
