<?xml version="1.0" encoding="UTF-8" standalone="no"?>
<svg width="250px" height="250px" viewBox="0 0 250 250" version="1.1" xmlns="http://www.w3.org/2000/svg" xmlns:xlink="http://www.w3.org/1999/xlink">
    <!-- Generator: Sketch 47.1 (45422) - http://www.bohemiancoding.com/sketch -->
    <title>NKY</title>
    <desc>Created with Sketch.</desc>
    <defs></defs>
    <g id="Page-1" stroke="none" stroke-width="1" fill="none" fill-rule="evenodd">
        <g id="NKY" fill-rule="nonzero">
            <g id="Northern_Kentucky_Norse_logo" transform="translate(0.000000, 48.000000)">
                <g id="Group" transform="translate(125.052372, 77.653025) scale(-1, 1) rotate(-180.000000) translate(-125.052372, -77.653025) translate(0.299407, 0.523248)">
                    <g transform="translate(0.611413, 0.742914)" id="Shape">
                        <path d="M223.514093,13.4092647 C223.675367,16.0692696 222.450782,18.6009169 220.296824,19.9363814 C220.540101,21.5312919 220.684974,23.1289334 220.723242,24.7265749 C220.725976,24.8549324 220.712309,24.980559 220.682241,25.0925304 C220.616638,25.4666789 220.411629,25.7643592 220.105483,25.8708686 L215.21261,27.6323708 C214.914664,27.7416112 214.496446,27.5750195 214.209434,27.3319596 L212.509229,25.7042769 C212.498295,25.7070079 212.140214,25.3437834 212.066411,25.2782392 C211.913337,25.3574385 211.757531,25.4311758 211.596257,25.488527 L209.20449,26.3433335 C207.692893,26.8813427 206.082892,26.458036 205.005913,25.3929416 C204.825505,26.9086528 203.827796,28.2632344 202.316199,28.8039746 L199.929899,29.65605 C198.363633,30.2159073 196.688029,29.7434424 195.613783,28.5909557 C195.488045,30.1722111 194.476669,31.605992 192.907669,32.1658493 L190.521369,33.0179248 C190.280825,33.0998551 190.040282,33.1599373 189.802472,33.1981715 C189.802472,33.1981715 190.368295,41.3174676 187.853523,48.5655712 L177.51562,46.3316041 L177.802632,44.1331401 L180.079595,43.0653148 C180.27367,38.6028426 179.224025,35.1808856 179.224025,35.1808856 L174.227281,37.3138053 C174.413156,42.3743689 174.038673,46.6839045 173.475583,50.1359026 L214.411709,62.1031935 L248.054995,92.2863287 L201.985452,92.2153224 L192.574188,123.706612 L196.592358,132.273794 L164.974558,132.273794 L162.314912,147.127763 L163.92218,152.010811 L85.2097937,152.010811 L86.7869936,147.141419 L84.0890798,132.273794 L52.4220776,132.273794 L56.4429805,123.706612 L46.9961821,92.2153224 L1.01957633,92.2863287 L34.6628619,62.1031935 L75.5989884,50.1359026 C75.035898,46.6839045 74.6614155,42.3743689 74.84729,37.3138053 L69.8505459,35.1808856 C69.8505459,35.1808856 68.5603582,39.203665 68.9949765,43.0653148 L71.2719392,44.1331401 L71.5589513,46.3316041 L61.2210487,48.5655712 C58.5696035,40.9023539 59.2748333,33.1981715 59.2748333,33.1981715 C59.0342898,33.1599373 58.7937463,33.0998551 58.5532028,33.0179248 L56.1669022,32.1658493 C54.5979027,31.605992 53.5865267,30.1722111 53.460788,28.5909557 C52.3865427,29.7434424 50.7109387,30.2159073 49.1446727,29.65605 L46.758372,28.8039746 C45.246775,28.2632344 44.2490662,26.9086528 44.0686586,25.3929416 C42.9916798,26.458036 41.3816786,26.8813427 39.8700815,26.3433335 L37.478314,25.488527 C37.3170405,25.4311758 37.1612339,25.3574385 37.0081608,25.2782392 C36.9370912,25.3437834 36.5762759,25.7070079 36.5653421,25.7042769 L34.8651371,27.3319596 C34.578125,27.5750195 34.1599074,27.7416112 33.8619615,27.6323708 L28.9690884,25.8708686 C28.6629422,25.7643592 28.4579335,25.4666789 28.3923308,25.0925304 C28.3622628,24.980559 28.3485956,24.8549324 28.3540625,24.7265749 C28.3895973,23.1289334 28.5344701,21.5312919 28.777747,19.9363814 C26.6237895,18.6009169 25.3992045,16.0692696 25.560478,13.4092647 L24.0379471,12.0273731 L24.073482,11.9263257 L24.0707485,11.9263257 L24.4260968,10.9158516 L24.920851,9.50118778 L24.9563859,9.40560239 L26.9955385,9.30728599 C28.5262698,7.13886314 31.0492428,5.96179733 33.5476149,6.30863575 C34.3485153,4.91308905 35.2286858,3.58035561 36.1935931,2.31862846 C36.2728631,2.21485004 36.3630669,2.13018869 36.4560042,2.0591824 C36.7375494,1.81066039 37.0819639,1.715075 37.3853767,1.82977747 L42.2727829,3.6022037 C42.5707288,3.70598213 42.8823419,4.11017178 42.8686747,4.47885828 L42.9752792,6.91492022 C43.2677582,6.95042337 43.5575037,7.01323662 43.8417824,7.11701505 L46.2335499,7.96909053 C47.745147,8.50983073 48.7401223,9.86441226 48.9205299,11.3801234 C49.9947752,10.3122981 51.6075099,9.89172237 53.119107,10.4297316 L55.5054076,11.2845381 C57.0744071,11.8443953 58.0885166,13.2781762 58.2142552,14.8567006 C59.285767,13.709676 60.961371,13.23448 62.5276371,13.7943373 L64.9139377,14.6464128 C65.2310178,14.7583842 65.5234968,14.9140519 65.7941082,15.0915676 C65.805042,15.0751815 65.8187092,15.0587955 65.829643,15.0424094 L65.8187092,15.0369474 C66.4364686,14.1848719 68.0601371,12.1666547 68.8528372,11.26269 C70.380835,9.46295362 73.1088167,6.99138854 75.169837,5.59311083 L82.4380768,14.6846469 C82.4380768,14.6846469 80.5847987,16.1348139 80.6148666,16.0993107 L78.0864266,15.3783238 C78.0864266,15.3783238 75.7711957,18.0000945 74.8172221,20.7966499 L96.873419,27.3947728 L102.476989,29.0552276 C102.476989,29.0552276 112.910562,27.4193519 124.508584,27.4193519 C136.10934,27.4193519 146.348839,29.1289649 146.348839,29.1289649 L152.203886,27.3947728 L174.257349,20.7966499 C173.15577,17.8526199 170.988145,15.3783238 170.988145,15.3783238 L168.459705,16.0993107 C168.489773,16.1348139 166.636495,14.6846469 166.636495,14.6846469 L173.904734,5.59311083 C175.763479,7.07604988 178.69647,9.46295362 180.221734,11.26269 C181.014434,12.1666547 182.638103,14.1848719 183.255862,15.0369474 L183.244928,15.0424094 C183.258596,15.0587955 183.272263,15.0751815 183.280463,15.0915676 C183.551075,14.9140519 183.843554,14.7583842 184.160634,14.6464128 L186.546934,13.7943373 C188.1132,13.23448 189.788804,13.709676 190.860316,14.8567006 C190.986055,13.2781762 192.000164,11.8443953 193.569164,11.2845381 L195.955464,10.4297316 C197.467062,9.89172237 199.079796,10.3122981 200.154042,11.3801234 C200.334449,9.86441226 201.329424,8.50983073 202.841021,7.96909053 L205.232789,7.11701505 C205.517068,7.01323662 205.806813,6.95042337 206.099292,6.91492022 C206.099292,6.61724001 206.088358,6.47522743 206.052824,6.73467349 L206.20863,4.47885828 C206.276966,4.10197874 206.503843,3.70598213 206.801789,3.6022037 L211.689195,1.82977747 C211.992607,1.715075 212.337022,1.81066039 212.618567,2.0591824 C212.714238,2.13018869 212.801708,2.21485004 212.880978,2.31862846 C213.845886,3.58035561 214.726056,4.91308905 215.526957,6.30863575 C218.025329,5.96179733 220.548302,7.13886314 222.079033,9.30728599 L224.118186,9.40560239 L224.15372,9.50118778 L224.156454,9.50118778 L224.648475,10.9158516 L225.003823,11.9263257 L225.036624,12.0273731 L223.514093,13.4092647 L223.514093,13.4092647 Z" fill="#000000"></path>
                        <path d="M92.6212663,3.7851159 L90.3404768,18.6435644 L96.1874327,18.6435644 L97.2295545,10.6340549 L101.914904,18.6435644 L109.367816,18.6435644 L110.354416,3.7851159 L103.725912,3.7851159 L104.938886,5.63280881 L104.345224,12.1018095 L99.1816305,3.7851159 L92.6213538,3.7851159 L92.6212663,3.7851159 Z M115.608476,3.7851159 L114.972085,18.6435644 L120.349325,18.6435644 L120.366382,16.6123694 L124.112081,13.2241677 L127.669938,18.6435862 L135.613996,18.6435862 L128.002981,9.69941549 L134.5333,3.78513775 L126.888172,3.78513775 L120.417552,10.3736475 L120.46881,3.78513775 L115.608301,3.78513775 L115.608476,3.7851159 Z M138.680969,3.7851159 L139.684647,18.6435644 L158.6351,18.6435644 L156.380114,3.7851159 L149.794253,3.7851159 L151.19087,6.15344877 L152.147577,13.8302119 L144.66908,13.8302119 L143.938746,6.18338065 L145.109012,3.7851159 L138.681034,3.7851159 L138.680969,3.7851159 Z M124.499837,54.3110069 C122.373214,54.3110069 120.319848,54.6219926 118.371008,55.1900429 C116.003842,63.038969 114.475953,75.3822654 114.475953,89.2730621 C114.475953,91.6435797 114.523625,93.9645022 114.608362,96.2286197 C117.803654,96.3569772 121.107846,96.424903 124.499947,96.424903 C127.83213,96.424903 131.084278,96.360036 134.22512,96.2371405 C134.31259,93.9704012 134.357528,91.6435797 134.357528,89.2730621 C134.357528,75.3532075 132.824916,62.9810715 130.449571,55.1354227 C128.555291,54.6028755 126.561076,54.311859 124.500056,54.311859 L124.499837,54.3110069 Z M64.8844165,54.9681538 C62.13741,58.949968 61.1949169,65.4886641 65.2431762,73.9657227 C69.2913042,82.4427813 79.3888821,87.2240172 79.3888821,87.2240172 C79.3888821,87.2240172 80.0701887,85.2098855 80.9093574,83.298134 C73.5592234,79.8952941 68.8240157,74.2663524 66.7465948,70.8635125 C61.9711507,63.0501989 64.8844384,54.9681538 64.8844384,54.9681538 L64.8844165,54.9681538 Z M184.14806,54.9681538 C184.14806,54.9681538 187.06126,63.0499804 182.285903,70.8635125 C180.208482,74.2663524 175.695449,79.7646426 168.345315,83.1701042 C169.187218,85.081812 169.865791,87.0959874 169.865791,87.0959874 C169.865791,87.0959874 179.740975,82.4427813 183.789322,73.9657227 C187.83745,65.4886641 186.895176,58.949968 184.148082,54.9681538 L184.14806,54.9681538 Z M135.201835,58.778679 C137.823322,67.2448135 139.438681,78.7886884 139.438681,91.5114862 C139.438681,93.0190043 139.416813,94.5099179 139.370345,95.9792019 C149.136847,95.3838415 157.540343,94.2096815 163.479361,92.6720567 C161.585082,76.4116163 150.224104,63.1290705 135.200195,58.7769311 L135.201835,58.778679 Z M113.61612,58.8341513 C98.6831806,63.239163 87.4034409,76.4782311 85.516268,92.6724718 C91.4233598,94.199107 99.7640956,95.3659042 109.459091,95.9667267 C109.415356,94.4974427 109.390755,93.0122096 109.390755,91.5075317 C109.390755,78.8111701 111.001609,67.2932944 113.614698,58.8337143 L113.61612,58.8341513 Z M200.347351,62.3844658 L199.651174,62.9093224 L190.216403,68.9559996 C189.83372,70.7885081 189.242093,72.5733877 188.443926,74.2858409 C187.183806,76.9923822 185.418107,79.5199877 183.220415,81.8004912 L236.979695,62.4402439 L200.34711,62.3847716 L200.347351,62.3844658 Z M13.2766879,62.7642511 L19.093904,64.8679818 L65.4335117,81.6082062 C63.3205559,79.3797011 61.6141186,76.9156736 60.3895336,74.2856006 C59.5886332,72.5677946 58.9970055,70.7767975 58.6170562,68.9387177 L50.2155285,63.5487941 L48.9384613,62.8824274 L13.278984,62.7644477 L13.2766879,62.7642511 Z M81.5604211,95.42059 C80.5572455,99.9977647 79.7189296,104.772009 80.04421,109.736987 C88.2554896,113.951047 104.597139,116.854658 124.527259,116.854658 C144.415832,116.854658 160.726866,113.962845 168.9622,109.76255 C169.227345,104.991364 168.474618,100.18107 167.501511,95.67228 C159.290231,98.7117861 143.521513,100.780145 124.859712,100.780145 C105.684461,100.780145 89.5391827,98.5994433 81.5596995,95.42059 L81.5604211,95.42059 Z M171.845136,115.177817 C171.623726,115.254285 171.391886,115.330579 171.140409,115.412509 C169.514007,115.950518 167.259349,116.639236 164.422029,117.371147 L177.662199,122.150416 C177.664604,122.144517 178.466379,120.217079 178.823914,118.139326 L171.845092,115.177817 L171.845136,115.177817 Z M76.5286889,115.352777 L69.9898425,118.139282 C70.3506577,120.220312 71.147294,122.154742 71.147294,122.154742 L83.960389,117.541955 C80.5516693,116.681687 78.0596388,115.882702 76.5289076,115.352777 L76.5286889,115.352777 Z M33.4298579,124.950642 L30.1753046,126.111322 C30.2354405,128.716706 31.1480625,132.780888 32.7635525,137.453539 C34.198613,141.593752 35.6428579,144.801925 37.0944285,146.995036 L40.3360798,145.80449 C38.892819,143.608757 37.439499,140.397525 36.0181057,136.292925 C34.4463728,131.748522 33.5311048,127.572478 33.4298579,124.950708 L33.4298579,124.950642 Z M215.383505,124.950642 C215.285101,127.572413 214.369746,131.748457 212.795257,136.292859 C211.373864,140.397678 209.920544,143.608692 208.477283,145.804425 L211.723308,146.994971 C213.169302,144.80186 214.614859,141.593686 216.049811,137.453473 C217.665279,132.780604 218.582296,128.716641 218.642432,126.111256 L215.383724,124.950577 L215.383505,124.950642 Z M29.1110091,132.981563 C29.1110091,132.981563 29.0710351,133.004612 28.9999655,133.045578 C28.6391503,133.261328 27.504944,134.047684 27.1249947,135.66997 C26.6685087,137.61445 27.251936,139.270098 27.599084,139.851913 C27.599084,139.851913 28.3786198,138.227988 30.1744299,137.351399 C30.1744299,137.351399 29.5236942,135.527084 29.1109435,132.981781 L29.1110091,132.981563 Z M219.700167,132.981563 C219.287416,135.526865 218.636681,137.351181 218.636681,137.351181 C220.43529,138.227835 221.212027,139.851694 221.212027,139.851694 C221.556441,139.269989 222.144133,137.614232 221.69038,135.669752 C221.310431,134.047531 220.174672,133.261218 219.811123,133.045359 C219.740054,133.004394 219.700036,132.981344 219.700036,132.981344 L219.700167,132.981563 Z" fill="#FFC72C" transform="translate(125.128192, 75.390076) scale(-1, 1) rotate(-180.000000) translate(-125.128192, -75.390076) "></path>
                        <path d="M114.860604,9.71289576 L113.67326,38.7074949 C113.67326,38.7074949 116.5038,37.8738592 119.926078,37.5980271 L120.088379,30.8600764 L124.530124,29.2300123 L129.074428,37.5980489 C133.510924,37.8738811 137.543745,39.3134735 137.543745,39.3134735 L130.569077,26.9898403 L134.84441,25.240289 L134.280641,12.2850276 L130.902318,9.71197814 L114.860473,9.71197814 L114.860604,9.71289576 Z M62.3434027,9.71726538 L52.7634306,44.7812637 C52.7634306,44.7812637 58.4240747,48.1264246 58.4266988,48.1181224 C58.4266988,48.1181224 59.3338539,43.8500981 62.2449985,39.6305767 L66.1785404,23.9657152 L69.3904519,42.4384931 C70.7052407,45.5573078 73.0587399,48.6295861 76.2240734,51.2758267 L83.5532145,9.71857627 L75.2503097,9.71857627 L75.7457418,12.5007119 L72.9867081,26.0917528 L69.9928165,9.71857627 L62.3435339,9.71857627 L62.3434027,9.71726538 Z M165.617465,9.71726538 L167.671816,21.315542 L167.987868,23.0992418 L172.959245,51.1696668 C176.088935,48.5234263 178.410179,45.4646938 179.70321,42.3622651 L177.554894,31.8649137 L177.076541,29.8166553 L184.777212,29.6118295 L188.275152,32.2873465 L186.011419,23.4541641 L175.837961,23.4541641 L174.204452,15.4665027 L184.467786,15.4665027 L189.422107,19.2728767 L186.987588,9.71433774 L179.410906,9.71433774 L177.429156,9.71433774 L165.619783,9.71433774 L165.617465,9.71726538 Z M92.9383463,9.73867651 L89.3122627,12.4270839 L84.575743,43.4710338 L89.9444547,53.5373224 C89.9444547,53.5373224 97.0184011,44.7080726 106.853349,41.0131238 L108.792392,12.4314535 L105.055221,9.73889499 L92.9383901,9.73889499 L92.9383463,9.73867651 Z M144.15224,9.76008764 L140.158781,12.666102 L141.008708,25.0281878 L155.030425,30.4390856 L156.307448,41.4953111 C156.307448,41.4953111 151.222796,37.9133169 145.365125,35.5126488 L141.470071,30.4646478 L142.166247,40.97052 C142.166247,40.97052 151.925315,44.7819191 159.062458,53.5375409 L164.461129,43.4157581 L161.638023,25.2034095 L146.988488,20.1084351 L146.437534,15.1755735 L156.773468,15.1755735 L160.771082,19.4556142 L159.293314,9.7605246 L144.152633,9.7605246 L144.15224,9.76008764 Z M95.680542,15.1751365 L102.680795,15.1751365 L100.455549,36.831181 C96.6505882,38.4288225 92.4174604,41.7725633 92.4174604,41.7725633 L95.680542,15.1746996 L95.680542,15.1751365 Z M120.340622,15.4695832 L128.814313,15.4695832 L128.835743,21.4563966 L120.221006,24.3069168 L120.3406,15.4695832 L120.340622,15.4695832 Z M192.833866,32.0326196 L191.696751,38.580492 L187.498174,40.4703517 C189.023439,42.4257557 190.056245,45.7744123 190.633112,48.1257036 L196.236682,44.8015169 L192.832773,32.0339305 L192.833866,32.0326196 Z M64.8866033,41.335099 C64.4164501,42.4111174 63.3326487,47.64155 64.5107431,52.0330159 L64.6132365,52.4853369 C64.9467173,53.8563045 65.7949392,55.5567413 66.5138362,56.8293925 C66.532861,56.8648956 66.5517546,56.9021029 66.5736221,56.9403371 C68.1234875,59.6578024 70.1791502,62.1386529 72.655436,64.3096975 C75.0444701,66.4043831 77.8225286,68.209363 80.9113255,69.6651012 C80.9167924,69.6487151 80.9272888,69.6345575 80.9327557,69.6181715 C81.6489193,67.9222135 82.508075,66.0698233 83.51663,64.2072737 C83.5384976,64.1635775 83.5646294,64.1214107 83.5892304,64.0749835 C84.0402495,63.2474871 84.5216863,62.4135019 85.0328412,61.5915112 C85.0793098,61.5205049 85.1215143,61.4491491 85.1652494,61.3781428 C83.5853161,60.8292095 82.0580837,60.2048349 80.6038891,59.4920409 C80.1228021,59.262636 78.6993533,58.51246 77.1359081,57.5675302 C70.7807494,53.5693298 66.2368831,47.9141704 64.8865595,41.3350553 L64.8866033,41.335099 Z M184.176488,41.335099 C182.325943,50.3419738 174.493082,57.6228495 164.217939,61.2714804 C164.239807,61.3069836 164.255858,61.3469219 164.277725,61.382425 C164.365196,61.5217066 164.442235,61.6655981 164.529705,61.8048797 C164.931522,62.4575913 165.314708,63.1061955 165.670056,63.7507142 C166.760702,65.7252352 167.629261,67.6361784 168.318003,69.3621774 C168.342604,69.4249907 168.373022,69.4871266 168.394889,69.5499399 C171.603958,68.0096496 174.4673,66.0887656 176.902693,63.8574202 C179.288885,61.6726113 181.222636,59.320446 182.736966,56.6331311 C184.48364,53.5280806 186.13344,48.5285824 184.176291,41.335099 L184.176488,41.335099 Z M63.1000212,91.1290791 C62.0667777,96.0776713 61.5489532,103.601716 64.5393459,112.226031 C67.196258,119.900172 71.2314842,124.653006 74.4652632,127.438637 L76.3744131,124.861218 C73.8159052,121.94712 70.6521024,117.297628 68.2466676,110.352776 C65.6527342,102.861503 65.5637332,96.2662203 66.0257953,91.7819 L63.1001306,91.1290135 L63.1000212,91.1290791 Z M185.711592,91.1290791 L182.785928,91.7862259 C183.08114,94.6483256 183.148449,98.3690552 182.486954,102.637735 C182.109738,105.051949 181.502563,107.643569 180.56499,110.352732 C179.512612,113.395078 178.310004,115.999371 177.079733,118.20865 C175.502534,121.037977 173.876569,123.222567 172.441399,124.861174 L174.341999,127.438593 C176.239012,125.805449 178.408933,123.492828 180.415284,120.316553 C181.833944,118.074502 183.173225,115.402044 184.272071,112.225987 C185.35725,109.096248 185.976037,106.115077 186.27945,103.345831 C186.815206,98.4820098 186.370157,94.2804038 185.711396,91.1288169 L185.711592,91.1290791 Z" fill="#FFFFFF" transform="translate(124.500056, 68.575308) scale(-1, 1) rotate(-180.000000) translate(-124.500056, -68.575308) "></path>
                    </g>
                </g>
            </g>
        </g>
    </g>
</svg>