<?xml version="1.0" encoding="UTF-8" standalone="no"?>
<svg width="250px" height="250px" viewBox="0 0 250 250" version="1.1" xmlns="http://www.w3.org/2000/svg" xmlns:xlink="http://www.w3.org/1999/xlink">
    <!-- Generator: Sketch 50.2 (55047) - http://www.bohemiancoding.com/sketch -->
    <title>NALAB</title>
    <desc>Created with Sketch.</desc>
    <defs></defs>
    <g id="NALAB" stroke="none" stroke-width="1" fill="none" fill-rule="evenodd">
        <g>
            <g id="North_Alabama_Lions_logo" transform="translate(0.000000, 50.000000)" fill-rule="nonzero">
                <path d="M249.883544,107.924628 L236.08861,43.5316708 C233.698153,32.3263996 224.08652,25.3708313 220.434432,23.7937932 C195.384426,13.0035321 166.151118,9.78305421 166.151118,9.78305421 L165.636506,2.57847992 C140.403895,-0.359791165 125.513335,0.154821285 125.513335,0.154821285 L125.71254,6.77838154 L119.470789,0.188022088 C101.127345,0.569831325 81.8708796,3.52470281 81.8708796,3.52470281 L81.2566646,11.1940883 C36.9833936,18.0500542 13.8590341,34.1856446 13.8590341,34.1856446 L1.15972691,97.3003717 C0.36290763,101.234667 1.17632731,105.401368 5.12722288,108.439241 L16.249492,117.005048 C20.8312028,120.524333 25.26351,118.71489 28.2017811,117.337056 C28.2017811,117.337056 39.1248454,111.327711 58.6635179,105.849578 C64.3906567,128.575528 91.9473233,145.806745 125.098325,145.806745 C158.830341,145.806745 186.768817,127.961313 191.815339,104.637749 C217.695365,111.228108 230.046064,119.677713 230.046064,119.677713 L249.883544,107.924628 Z" id="Shape" fill="#EEB111"></path>
                <path d="M244.870223,105.733375 L231.739305,44.4612933 C229.46505,33.2394217 218.442383,27.7612892 218.442383,27.7612892 C201.094964,20.523514 183.299333,16.4232149 161.951217,13.6675482 L161.453205,6.5293755 C161.453205,6.5293755 145.815627,4.65353013 130.078446,4.5871285 L130.493456,18.2658595 L117.594944,4.67013054 C103.916213,5.01873896 85.9877792,7.44239758 85.9877792,7.44239758 L85.3901646,15.0121807 C54.0984075,19.5772912 32.4846847,27.9936948 17.8099297,36.974512 L5.50903213,98.1635925 C5.09402208,100.188841 5.16042371,102.861506 7.81648796,104.903355 L18.938757,113.452562 C21.9102289,115.726817 24.7820984,113.967175 27.0231526,112.97115 C28.649992,112.307135 40.3864759,105.799777 62.1828033,100.288444 C64.5566608,123.230199 91.81452,141.341237 125.098325,141.341237 C158.996345,141.341237 186.636014,122.582783 188.11345,99.0268133 C215.587115,105.51757 230.079265,114.465187 230.079265,114.465187 L244.870223,105.733375 Z" id="Shape" fill="#4F2D7F"></path>
                <path d="M137.633289,9.71515858 C137.965297,20.605022 138.280439,31.3654023 138.612447,42.2552658 C128.4198,30.8507899 118.90777,20.3261353 109.993354,10.1500891 C103.768204,10.4986975 97.8916617,11.0781512 91.7329125,11.8750368 C90.6522262,28.1098976 89.5399996,44.6923708 88.4443729,61.0105654 C94.4537183,57.9892925 101.261377,55.6999313 108.58232,54.3054975 C108.798125,46.8187163 108.995521,39.3136746 109.211326,31.8268935 C115.419876,38.5666566 121.927234,45.5557575 128.716798,52.8430021 C140.005071,53.2912129 150.479924,55.8310742 159.41094,59.8981725 C158.282113,43.6131788 157.13818,27.0310375 156.025953,10.8290455 C149.767601,10.2978327 143.957295,9.89630217 137.632708,9.71369775 L137.633289,9.71515858 Z M171.327124,20.1747396 C169.612966,20.2261012 168.152795,20.9732521 166.982467,22.3178515 C165.405428,24.1106948 164.73942,26.5645662 164.988426,29.6356405 C165.901448,40.691508 166.882034,52.8762029 167.844857,64.4964838 C173.688199,68.2813754 178.501485,72.8137829 181.98757,77.8935058 C184.261825,78.3417167 186.520475,78.8091179 188.728329,79.3071296 C187.848507,71.9199513 187.102253,65.3958271 186.205897,58.0088146 C194.5559,59.7684571 205.228298,62.8212708 214.109513,66.2409538 C215.387744,73.7775358 216.617833,80.9661738 217.912665,88.4854917 C224.303819,90.6933454 230.163761,93.9637904 236.173107,97.3336721 C233.052231,82.0613025 229.780458,63.1202442 226.692783,47.8146737 C226.045367,44.6107962 224.669194,41.4402857 222.610745,38.4024122 C220.552295,35.3479383 218.36071,33.2542957 215.986852,32.1254683 C201.909712,25.950119 187.81597,22.7963746 173.124615,20.3561156 C172.49795,20.2150122 171.899804,20.1574254 171.328452,20.1745404 L171.327124,20.1747396 Z M83.3798558,20.2748566 C77.5033138,21.1716768 69.453945,22.6164097 65.3202792,23.7120362 C63.6934396,37.8555784 61.9835983,52.9934846 60.3401588,67.070625 C60.1741546,68.5480608 59.4432225,69.4768533 58.1484075,69.8752629 C49.781805,72.4649258 41.5984712,74.7554492 33.4968112,78.3245354 C32.248461,78.8723488 31.750449,78.4091975 31.999455,76.8819604 C34.4065133,62.5226129 37.2800428,45.7711479 39.687101,31.4118005 C34.026364,33.6030535 28.4127722,36.0112738 23.2002461,38.833342 C20.1623726,54.2219142 16.2616103,73.8269887 13.2237368,89.2155608 C12.5763211,92.4526392 12.9097568,94.6787529 14.2709897,95.9237833 C15.6156223,97.1854138 17.6073384,97.1026775 20.2302019,95.774645 C35.485971,88.0554583 50.4927342,82.9911738 67.5579467,78.8073746 C70.5294188,74.1924629 74.5790867,70.0083317 79.4928054,66.3894442 C79.6588096,65.7254283 79.7765729,65.0444133 79.8429746,64.3306625 C81.0216029,49.6559075 82.1984054,34.966212 83.3770338,20.2748566 L83.3798558,20.2748566 Z M184.38666,33.6820714 C184.604805,33.6535353 184.867424,33.6824615 185.174531,33.7696053 C192.99332,35.4296455 201.32639,37.6069542 207.734477,39.8812092 C208.913089,40.3626208 209.894521,41.6386937 210.143528,43.1494962 C210.65814,46.1541688 211.305157,50.0046321 211.819836,53.0093046 C203.386832,49.9050296 194.60356,47.2992646 184.643318,45.240815 C184.27811,42.2859433 183.96413,38.4364762 183.615521,35.4816048 C183.478568,34.3735279 183.73272,33.7677793 184.387174,33.6821212 L184.38666,33.6820714 Z" id="Shape" fill="#FFFFFF"></path>
                <path d="M141.167514,13.3010113 L142.09805,45.9739217 L145.800769,49.2940021 L144.534158,13.4869358 L141.165937,13.3010113 L141.167514,13.3010113 Z M104.678171,13.6026406 L94.5535863,14.4650315 L92.0950667,53.9723271 L95.7820162,52.5944938 L97.7408633,17.1210958 L106.922545,16.3754057 L104.678171,13.6033046 L104.678171,13.6026406 Z M173.6379,24.7074793 C173.6379,24.7074793 168.325439,24.3902622 168.674048,29.4865689 C169.006055,34.5828922 171.478519,63.2717063 171.478519,63.2717063 L175.032001,65.4603033 C175.032001,65.4603033 172.458773,34.4026118 172.408972,31.3481379 C172.34257,26.7332263 177.304763,25.1878949 177.304763,25.1878949 L173.637734,24.7080437 L173.6379,24.7074793 Z M72.174585,26.5816646 L68.6735604,27.4963467 L64.2893942,68.0511279 C64.2893942,68.0511279 68.0918821,66.4757829 68.2578862,64.7991092 C68.4404904,63.1058683 72.174585,26.5833247 72.174585,26.5833247 L72.174585,26.5816646 Z M29.6626165,39.6964799 L25.8951553,41.5900877 C25.895157,41.5900877 18.4751078,81.0824433 17.5786861,86.112365 C16.6822645,91.1422867 22.2410749,89.2476825 22.2410749,89.2476825 L26.4916078,86.942385 C26.4916078,86.942385 21.6110897,87.6235158 21.5114873,84.5690254 C21.3952845,81.5311521 29.6626165,39.6964799 29.6626165,39.6964799 Z M213.030652,42.3519796 L215.105703,53.9917496 L218.921803,55.3016208 C218.921803,55.2850208 217.261431,46.8672892 216.863021,45.25705 C216.364992,43.2982025 213.030652,42.3519796 213.030652,42.3519796 Z M126.459558,60.1327362 C136.353397,63.9342283 137.548128,71.6686875 137.548128,71.6686875 L137.233634,71.8372813 C137.233634,71.8372813 132.287046,62.5384 114.806491,62.5384 C89.6734833,62.5384 70.4983596,78.5586175 70.4983596,97.0854958 C70.4983596,105.468699 74.6341833,113.219758 81.6063521,119.411376 C81.6063521,119.411376 73.1549217,90.7424825 107.13611,76.1009283 L107.252827,76.3181612 C77.9033171,95.9730367 91.0835379,124.791334 98.4209154,129.306643 C105.741692,132.09551 114.108793,133.756049 123.022711,133.988454 C136.701442,118.782486 115.484634,115.181859 124.880462,90.5136625 C124.880462,90.5136625 117.728012,83.8544112 117.728012,78.4426804 C117.728012,73.0309496 121.743484,72.1688908 122.922112,72.1688908 C126.474598,72.1688908 131.322745,78.6923504 131.322745,78.6923504 C131.322745,78.6923504 125.113531,75.0253217 122.772875,75.0253217 C121.444843,75.0253217 119.319825,75.902155 119.319825,79.4380404 C119.319825,82.9905267 126.592295,88.0883437 126.592295,88.0883437 C121.81138,110.366083 137.914267,111.013498 137.914267,124.459824 C137.914267,131.963205 133.913238,133.521983 133.913238,133.521983 C159.892867,130.683314 179.713746,115.429205 179.713746,97.0691612 C179.697146,76.9660746 155.991772,60.6146792 126.459658,60.1332675 L126.459558,60.1327362 Z M217.560902,67.5023517 L220.501663,84.3203517 L224.334032,85.8474554 L221.229757,68.9963879 L217.561068,67.5023517 L217.560902,67.5023517 Z" id="Shape" fill="#EEB111"></path>
                <path d="M137.797633,65.8094096 L137.479884,66.156325 C140.982569,69.6590096 141.649407,74.7418867 141.649407,74.7418867 C162.482911,83.6563021 171.11512,89.4325779 171.11512,89.4325779 L167.4124,89.4325779 C168.109617,92.1384433 170.732481,95.0254192 170.732481,95.0254192 C170.732481,99.806335 168.356631,101.847188 167.0784,101.847188 C165.80017,101.847188 161.618528,100.038077 158.846261,100.038077 C153.766538,100.038077 150.662761,105.15349 150.662761,108.373968 C150.662761,111.411842 157.999973,112.357069 157.999973,116.025758 C157.999973,117.685798 155.806728,119.229137 153.515872,119.229137 C147.738933,119.229137 150.84354,107.991495 133.57879,107.991495 L137.845591,112.854915 C147.258019,110.464457 144.253678,122.315815 152.769684,122.315815 C158.281018,122.315815 161.983405,116.639474 160.356566,114.664026 C160.356566,114.664026 161.783171,111.909688 161.783171,109.353226 C161.783171,109.353226 160.324145,111.610383 158.664122,112.556605 C156.97088,110.863365 152.721012,108.687218 152.721012,107.774196 C152.721012,106.844573 153.083498,101.847354 158.229689,101.847354 C161.96478,101.847354 164.521407,103.491193 165.832839,103.491193 C165.832839,103.491193 165.219272,105.251831 163.592449,106.629665 C163.592449,106.629665 168.207858,105.599925 169.51929,101.947853 C169.51929,101.947853 171.81164,101.05183 173.189473,94.8764142 C173.189473,94.8764142 176.889038,91.2405942 174.116771,88.385325 C174.116771,88.385325 164.106397,82.0288654 145.082669,73.3800558 C145.082669,73.3800558 143.109379,68.3327037 137.797251,65.8094429 L137.797633,65.8094096 Z M111.303392,65.9355725 C86.3895088,65.7081471 66.1569392,92.1824675 77.553115,107.773565 C72.5563942,89.5131229 94.4041829,59.2505908 128.966219,70.8210708 C123.049172,67.4626438 117.051613,65.9875321 111.301732,65.9349088 L111.303392,65.9355725 Z M145.950023,82.5100775 L147.259961,83.7032317 C147.110558,85.3632717 149.85062,86.6932958 151.228453,84.8672021 L154.383193,85.0325583 L145.950023,82.5101275 L145.950023,82.5100775 Z M112.46708,84.0015242 C88.7285054,95.0739921 102.1242,118.067208 102.1242,118.067208 L102.655927,117.91807 C102.655927,117.91807 96.0647375,98.7927475 112.648539,84.217595 L112.466963,84.0003621 L112.46708,84.0015242 Z M153.264227,91.468385 C149.801881,91.6629746 145.923031,92.9507508 141.964997,96.2863192 C141.964997,96.2863192 153.053235,88.3040162 166.48379,95.9069671 C166.48379,95.9069671 160.882317,91.0402271 153.265057,91.4683517 L153.264227,91.468385 Z M155.605215,94.9441771 C153.171762,95.0805992 150.44415,95.9842917 147.658437,98.3291646 C147.658437,98.3291646 155.594923,92.6680958 164.891314,98.0632929 C164.891314,98.0632929 160.959011,94.6441079 155.605381,94.9442433 L155.605215,94.9441771 Z" id="Shape" fill="#4F2D7F"></path>
            </g>
            <rect id="Rectangle" x="0" y="0" width="250" height="250"></rect>
        </g>
    </g>
</svg>