<?xml version="1.0" encoding="utf-8"?>
<!-- Generator: Adobe Illustrator 27.4.1, SVG Export Plug-In . SVG Version: 6.00 Build 0)  -->
<svg version="1.1" id="Layer_1" xmlns="http://www.w3.org/2000/svg" xmlns:xlink="http://www.w3.org/1999/xlink" x="0px" y="0px"
	 viewBox="0 0 500 500" style="enable-background:new 0 0 500 500;" xml:space="preserve">
<style type="text/css">
	.st0{fill:#623493;}
</style>
<g>
	<polygon class="st0" points="218.6,252.3 174.3,252.3 169,271.6 213.3,271.6 	"/>
	<polygon class="st0" points="161.6,298.6 205.9,298.6 210.7,281 166.4,281 	"/>
	<polygon class="st0" points="220.8,244.5 226.5,223.5 182.2,223.5 176.4,244.5 	"/>
	<path class="st0" d="M289.4,298l-33-11.9l-4.4,15.8c-1.2,4.3-6,7.9-10.8,7.9l-82.7,0l-4.4,16.1c-0.9,3.1-0.2,6.4,1.7,9
		c2,2.6,5,4.1,8.2,4.1h122.2l8.4-30.8C295.8,303.9,293.6,299.5,289.4,298z"/>
	<path class="st0" d="M233.8,197.1c0.2-0.9,0.6-1.7,1.2-2.4h-44.9l-1.3,4.8l-4.9,17.9h44.4L233.8,197.1z"/>
	<path class="st0" d="M191.6,189.2l-0.3,1l91.4,0l-1.3,5.1c-1.1,4.2,1.1,8.6,5.2,10.1l33.1,12l11.8-43.2c0.9-3.1,0.2-6.4-1.8-9
		c-2-2.6-5-4.1-8.2-4.1H187.6C195.9,173.5,193.2,183.3,191.6,189.2z"/>
	<polygon class="st0" points="64.9,252.3 20.5,252.3 15.2,271.6 59.6,271.6 	"/>
	<polygon class="st0" points="72.8,223.5 28.4,223.5 22.7,244.5 67,244.5 	"/>
	<polygon class="st0" points="57,281 12.7,281 7.8,298.6 52.2,298.6 	"/>
	<path class="st0" d="M80,197.1c0.2-0.8,0.6-1.6,1.1-2.4l-45,0.4l-6.1,22.2h44.4L80,197.1z"/>
	<path class="st0" d="M37.8,189.2l-0.4,1.5l91.5-0.5l-1.4,5.1c-1.1,4.2,1.1,8.6,5.2,10.1l33.1,12l11.8-43.2c0.9-3.1,0.2-6.4-1.8-9
		c-2-2.6-5-4.1-8.2-4.1H33.8C42.1,173.5,39.5,183.3,37.8,189.2z"/>
	<path class="st0" d="M152.6,253.4c-1.6-2.1-4.1-3.3-6.7-3.3l-57.5,0l15,17.5c2,3,2.5,6.8,1.4,10.8l-6.3,23.3
		c-1.3,4.8-5.7,8.1-10.7,8.1l-82.9,0l-4.4,16.1c-0.9,3.1-0.2,6.4,1.7,9c2,2.6,5,4.1,8.2,4.1h122.2l21.5-78.2
		C154.7,258.2,154.2,255.5,152.6,253.4z"/>
	<polygon class="st0" points="315.3,298.6 359.6,298.6 364.5,281 320.1,281 	"/>
	<polygon class="st0" points="374.5,244.5 380.3,223.5 335.9,223.5 330.1,244.5 	"/>
	<polygon class="st0" points="372.4,252.3 328,252.3 322.7,271.6 367.1,271.6 	"/>
	<path class="st0" d="M444.4,161.1l-38.5,140.5c-1.3,4.8-5.7,8.1-10.7,8.1h-38.7l0,0h-44.4l-4.4,16.1c-0.9,3.1-0.2,6.4,1.7,9
		c2,2.6,5,4.1,8.2,4.1H440l41.3-150.8c1.6-6,4.5-19.1,18.7-26.9H444.4z"/>
	<polygon class="st0" points="388.2,194.7 343.8,194.7 337.6,217.4 381.9,217.4 	"/>
	<path class="st0" d="M345.3,189.2l-0.3,1h44.4l8-29.1h-56.1C349.6,173.5,346.9,183.3,345.3,189.2z"/>
</g>
<g>
	<path class="st0" d="M453.4,330.8h-2.2v-1.1h5.8v1.1h-2.2v6.5h-1.3V330.8z M461.3,337.4l-2.2-6.2v6.2H458v-7.6h1.8l2.1,6.3l2.1-6.3
		h1.7v7.6h-1.2v-6.2l-2.1,6.2H461.3z"/>
</g>
</svg>
