<?xml version="1.0" encoding="UTF-8" standalone="no"?>
<svg width="250px" height="250px" viewBox="0 0 250 250" version="1.1" xmlns="http://www.w3.org/2000/svg" xmlns:xlink="http://www.w3.org/1999/xlink">
    <!-- Generator: Sketch 47.1 (45422) - http://www.bohemiancoding.com/sketch -->
    <title>NDAKST</title>
    <desc>Created with Sketch.</desc>
    <defs></defs>
    <g id="Page-1" stroke="none" stroke-width="1" fill="none" fill-rule="evenodd">
        <g id="NDAKST" fill-rule="nonzero">
            <g id="North_Dakota_State_Bison_logo" transform="translate(0.000000, 63.000000)">
                <g id="Group" transform="translate(125.036680, 62.258687) scale(-1, 1) rotate(-180.000000) translate(-125.036680, -62.258687) translate(0.760618, 0.723938)">
                    <g id="Shape">
                        <path d="M246.199324,42.4710425 C246.199324,42.4710425 247.049952,46.3791023 244.323118,50.094112 C241.380309,54.1071429 236.277751,53.777751 236.277751,53.777751 C234.96501,55.3257722 231.654199,57.0692568 227.627896,55.3583494 C223.602799,53.6462355 223.525579,49.1686776 223.525579,49.1686776 L217.323842,49.8310811 C217.241795,51.5516409 217.008929,53.4266409 216.90999,55.4657336 C216.742278,58.8622104 217.236969,61.097973 217.66168,62.347973 C222.922297,62.8366313 225.555019,65.2063224 225.555019,65.2063224 C223.947876,66.7169402 222.852317,68.0381274 222.127172,69.0299228 C226.278958,69.2265927 230.016892,71.0738417 230.016892,71.0738417 C223.499035,74.7840251 222.393822,78.4085425 222.393822,78.4085425 C226.392375,79.8576255 228.78861,81.6903958 230.033784,82.8728282 C225.329392,83.2456564 220.050676,87.0402992 215.310087,98.4000965 C207.448118,117.246622 190.11583,117.398649 183.836873,116.782095 C186.912403,114.464286 187.723214,112.583253 187.723214,112.583253 C174.366554,113.421815 164.279681,106.895512 164.279681,106.895512 C148.933398,122.169402 127.171815,122.866795 119.057674,122.533784 C120.881998,120.482625 121.99083,118.687259 121.99083,118.687259 C88.8042954,122.833012 66.9063707,104.407577 61.8170849,99.593388 C66.2874035,99.6525097 69.8624517,99.2833012 69.8624517,99.2833012 C56.2294884,89.4437741 33.7741313,89.6380309 33.7741313,89.6380309 C34.9565637,86.7531371 37.9657336,82.3383205 37.9657336,82.3383205 L33.9032336,67.4263996 L30.0808398,81.7676158 L14.0190637,81.7676158 L10.1266892,67.9705598 L13.3397683,67.9705598 L7.66047297,47.4686293 L4.41602317,47.4686293 L0.644305019,33.6751931 L19.8153958,33.655888 L24.0516409,48.7668919 L27.9741795,33.6245174 L61.7555502,33.6245174 C73.2335907,33.6245174 77.5989382,37.2574807 77.5989382,37.2574807 C128.456805,25.3885135 107.227317,1.04609073 107.227317,1.04609073 C140.641892,6.30550193 149.49083,18.6221042 149.49083,18.6221042 C149.145753,13.0345077 146.613176,9.06853282 146.613176,9.06853282 C174.031129,16.202944 175.348697,37.4408784 175.348697,37.4408784 C181.591458,34.8793436 177.590492,28.2685811 177.590492,28.2685811 C179.3014,27.6652992 181.190878,27.5325772 181.190878,27.5325772 C180.19667,25.9724903 178.208253,24.2060811 178.208253,24.2060811 C192.942809,21.2994691 197.205598,31.3501448 197.205598,31.3501448 C202.520512,32.5965251 204.414817,36.9461873 204.414817,36.9461873 C209.416023,37.4107143 212.321429,39.5982143 212.321429,39.5982143 L217.251448,36.382722 C217.251448,36.382722 215.599662,34.0190637 216.451496,30.5912162 C217.30333,27.1645753 220.686535,25.8216699 220.686535,25.8216699 C221.195705,24.1361004 223.957529,19.535473 229.80695,19.535473 C235.658784,19.535473 238.00555,24.327944 238.00555,24.327944 C238.00555,24.327944 243.091216,25.2208012 246.041264,30.6093147 C249.373793,36.6916023 246.199324,42.4710425 246.199324,42.4710425" fill="#FFC82E"></path>
                        <path d="M241.204151,41.3006757 L241.159508,41.3718629 L241.182432,41.4514961 C241.328427,41.9992761 241.399614,42.5542954 241.399614,43.1008687 C241.399614,46.3694498 238.951496,49.0299228 235.939913,49.0299228 C235.349903,49.0299228 234.767133,48.9237452 234.197635,48.7162162 L234.031129,48.6546815 L233.952703,48.8139479 C233.268581,50.2340734 231.930502,51.1148649 230.460907,51.1148649 C228.450772,51.1148649 226.790541,49.4727317 226.549228,47.358832 L235.237693,46.1583012 C235.237693,46.1583012 236.194498,45.1677124 235.445222,42.9440154 L233.04778,41.8013996 L217.530164,46.0412645 C217.396236,45.4005792 217.218871,44.7707529 216.996863,44.1541988 L238.227558,36.097973 L238.277027,33.9478764 L235.371622,33.2987452 L216.28861,42.5615347 C216.041264,42.101834 215.764961,41.6541988 215.446429,41.2246622 L231.077461,32.6773649 C230.329392,30.6153475 228.238417,30.6165541 228.238417,30.6165541 L221.21139,35.7034266 C221.196911,35.5634653 221.183639,35.4222973 221.183639,35.2799228 C221.183639,33.2130792 222.860763,31.5395753 224.9264,31.5395753 C224.989141,31.5395753 225.044643,31.5540541 225.108591,31.5576737 C225.749276,28.9611486 228.087597,27.035473 230.881998,27.035473 C232.431226,27.035473 233.838079,27.6266892 234.895029,28.5955598 L234.909508,28.6341699 L235.039817,28.636583 C239.17471,28.7608591 242.413127,32.3684846 242.413127,36.8520753 C242.413127,38.4278475 241.993243,39.9686293 241.204151,41.3006757" fill="#FFFFFF"></path>
                        <path d="M124.915541,4.73957529 C128.062259,8.24102317 129.201255,11.2866795 129.201255,11.2866795 C104.02751,1.47876448 79.2958494,14.8909266 67.9705598,22.6737452 C75.1433398,21.3745174 78.5188224,22.4893822 78.5188224,22.4893822 C62.1452703,36.9478764 38.41361,37.1187259 38.41361,37.1187259 C38.41361,37.1187259 39.671332,39.0839768 42.7350386,41.992278 L71.5284749,42.0222008 C75.5371622,42.0260618 78.6954633,42.3436293 81.1809846,42.9913127 C84.0526062,43.7355212 86.4280888,45.2683398 88.2388996,47.546332 C89.5506757,49.21139 90.5033784,51.1911197 91.0892857,53.4488417 L91.0912162,53.4527027 C91.3450772,52.7442085 91.6414093,52.0540541 91.9850386,51.3938224 C93.1298263,49.1930502 94.7157336,47.3050193 96.7012548,45.7799228 C98.6221042,44.3117761 100.871139,43.1679537 103.409749,42.3861004 C105.880792,41.6235521 108.660714,41.238417 111.652992,41.238417 C118.593147,41.2442085 122.840251,43.4555985 125.156853,45.2596525 L125.996622,42.0772201 L171.91361,42.1245174 L167.541023,57.6515444 L164.384653,57.6476834 L158.554537,78.6621622 C156.083494,87.1129344 147.290058,92.7625483 136.652992,92.7625483 C136.392375,92.7625483 136.131757,92.7557915 135.861486,92.7509653 C128.071911,92.53861 124.133687,89.4150579 122.193533,86.8368726 C120.919402,85.1245174 120.108591,83.1023166 119.790058,80.9285714 C119.635618,81.2895753 119.471525,81.6409266 119.288127,81.9893822 C118.100869,84.2548263 116.498552,86.2123552 114.519788,87.8079151 C112.589286,89.3706564 110.301641,90.5926641 107.743726,91.4478764 C105.726351,92.1216216 103.641409,92.5106178 101.430985,92.6486486 C109.83832,97.7084942 114.925193,104.310811 114.925193,111.530888 C114.925193,114.426641 114.114382,117.225869 112.589286,119.861004 C139.442568,114.610039 148.766892,104.281853 152.010135,97.6698842 C154.712838,105.488417 151.41168,111.289575 151.41168,111.289575 C168.149131,104.194981 172.357625,93.0878378 172.975386,85.1003861 C175.813224,84.9305019 178.187741,85.7094595 179.896236,87.4179537 C182.714768,90.2220077 181.344112,93.7055985 180.851834,94.7055985 L180.668436,95.0849421 L181.064189,95.2239382 C181.79778,95.4835907 182.676158,95.6187259 183.612452,95.6187259 C184.162645,95.6187259 184.7611,95.5540541 185.378861,95.4469112 C185.195463,96.3079151 184.751448,97.2451737 183.853764,98.2007722 C183.853764,98.2007722 193.313224,98.1911197 195.571911,91.1167954 C197.830598,91.1631274 201.035232,90.2316602 202.936776,85.2799228 C204.268822,85.4353282 209.625965,85.7442085 212.869208,80.9777992 C215.320946,77.3725869 215.127896,75.2374517 214.867278,72.2828185 C214.616313,69.4594595 214.29778,65.9555985 215.900097,59.53861 C216.295849,59.6216216 216.961873,59.7326255 217.782336,59.7326255 C219.046815,59.7326255 220.205116,59.4749035 221.228282,58.9710425 L221.701255,58.7393822 L221.334459,58.3696911 C220.079633,57.1052124 218.515927,55.0482625 217.849903,52.226834 C219.790058,53.3503861 221.884653,53.6447876 223.998552,53.0926641 L224.867278,52.8706564 L224.10473,52.4102317 C224.06612,52.3861004 220.340251,50.0820463 218.515927,43.7586873 C220.822876,44.2683398 222.907819,43.9710425 224.616313,42.8803089 L225.253378,42.469112 L224.539093,42.21139 C224.471525,42.1872587 217.985039,39.722973 212.705116,26.1090734 C207.560328,12.7992278 197.116313,11.7673745 194.046815,11.7673745 C193.747587,11.7673745 193.458012,11.7779923 193.187741,11.792471 L192.174228,11.8455598 L192.975386,12.4633205 C193.873069,13.1621622 195.127896,14.3050193 196.324807,15.9903475 C188.641409,13.2905405 180.581564,13.4276062 173.178089,16.480695 L171.942568,16.988417 L173.255309,17.2007722 C173.293919,17.2055985 176.45029,17.726834 179.403958,19.4449807 C175.533301,19.9034749 171.102799,21.3793436 167.502413,25.1177606 C153.322876,7.56660232 134.095077,4.90926641 124.915541,4.73938224 L124.915541,4.73957529 Z M230.871139,70.3447876 C227.473456,70.3447876 224.712838,73.3196911 224.68388,76.9789575 L217.878861,76.0397683 C217.849903,76.5388031 217.791988,77.0368726 217.724421,77.5310811 L235.446429,81.6527027 C236.199324,79.4287645 235.243726,78.438417 235.243726,78.438417 L226.556467,77.2395753 C226.79778,75.1237452 228.458012,73.4818533 230.465734,73.4818533 C231.932915,73.4818533 233.274614,74.3621622 233.959942,75.7839768 L234.037162,75.942278 L234.201255,75.8795367 C234.770753,75.6720077 235.359556,75.5667954 235.948359,75.5667954 C238.959942,75.5667954 241.402027,78.2279923 241.402027,81.496332 C241.402027,82.0426641 241.334459,82.5976834 241.189672,83.1459459 L241.160714,83.2250965 L241.208977,83.2965251 C242.000483,84.6295367 242.415541,86.1681467 242.415541,87.7434363 C242.415541,92.2289575 239.18195,95.8351351 235.041023,95.9596525 L234.915541,95.961583 L234.867278,96.0822394 C234.008205,98.2685328 232.039093,99.6777992 229.847973,99.6777992 C227.232143,99.6777992 224.973456,97.6411197 224.49083,94.8476834 L224.461873,94.6932432 L224.307432,94.6874517 C222.154923,94.6208494 220.475386,92.73861 220.475386,90.403668 C220.475386,89.7781853 220.610521,89.1758687 220.842181,88.6208494 L228.245656,93.9799228 C228.245656,93.9799228 230.330598,93.9828185 231.083494,91.9200772 L215.456081,83.3737452 C215.243726,83.6633205 215.002413,83.9403475 214.7611,84.2144788 L219.72249,87.8100386 C218.699324,88.8332046 218.081564,90.2810811 218.081564,91.8351351 C218.081564,94.3814672 219.664575,96.5600386 221.942568,97.1584942 C223.062259,100.739575 226.141409,103.14305 229.64527,103.14305 C232.743726,103.14305 235.523649,101.280116 236.903958,98.2878378 C241.826737,97.7955598 245.668436,93.2559846 245.668436,87.8988417 C245.668436,85.9799228 245.176158,84.0986486 244.239865,82.453861 C244.33639,81.9277992 244.384653,81.3949807 244.384653,80.8660232 C244.384653,76.4277992 241.044884,72.8167954 236.942568,72.8167954 C236.556467,72.8167954 236.160714,72.8525097 235.745656,72.9297297 C234.56805,71.2859073 232.791988,70.3447876 230.871139,70.3447876 L230.871139,70.3447876 Z M217.18388,79.9162162 C217.039093,80.3640927 216.875,80.8013514 216.68195,81.2337838 L238.284266,90.6488417 C239.519788,89.1237452 239.095077,87.5851351 239.095077,87.5851351 L217.18388,79.9162162 Z" fill="#005643" transform="translate(142.041023, 62.300193) scale(-1, 1) rotate(-180.000000) translate(-142.041023, -62.300193) "></path>
                        <path d="M211.402027,76.496139 C211.354971,77.0415058 211.289817,77.5675676 211.20777,78.0658784 C212.410714,77.7364865 213.638996,77.4915541 214.84918,77.3178089 C213.55333,79.1541988 212.491554,81.0774614 211.576979,82.9560811 C210.054295,86.0810811 208.048986,87.519305 206.189672,88.1225869 C206.196911,88.1467181 206.205357,88.172056 206.213803,88.1961873 C206.561293,88.9032336 206.757963,89.6862934 206.757963,90.5127896 C206.757963,91.5407819 206.453909,92.5024131 205.931467,93.332529 C205.592423,93.9478764 205.149614,94.4087838 204.662162,94.7478282 C203.59194,95.6093147 202.197153,96.1341699 200.66361,96.1341699 C197.297297,96.1341699 194.566844,93.6160714 194.566844,90.5127896 C194.566844,88.5448842 195.664817,86.8170849 197.321429,85.8132239 C197.405888,80.0410232 192.787162,76.2367278 187.421573,76.2367278 C183.033301,76.2367278 179.284508,77.7111486 177.471042,80.0144788 C177.471042,80.0144788 178.301158,78.3192568 178.527992,75.7046332 C177.104247,75.8638996 175.442809,75.6334459 173.538851,74.7369691 C173.538851,74.7369691 176.602317,73.2589286 177.227317,69.5053089 C177.571187,67.4372587 177.632722,65.9230212 178.209459,64.8974421 C176.409266,63.8175676 174.646477,62.0680502 174.057674,59.2627896 C174.057674,59.2627896 180.939913,64.781612 188.810328,60.2618243 C188.810328,60.2618243 181.650579,60.8590734 179.341216,53.5581564 C179.341216,53.5581564 183.990106,57.253861 189.476351,55.4150579 C189.476351,55.4150579 182.565154,53.0284749 182.565154,45.8083977 C182.565154,40.2352799 188.722249,38.3807915 187.275579,34.7526544 C189.150579,35.7866795 191.213803,37.8197394 191.920849,41.8327703 C191.920849,41.8327703 192.532577,38.7753378 195.592423,38.7753378 C197.215251,38.7753378 198.125,39.8407336 198.562983,41.1160714 L192.927124,46.770029 L189.219353,46.7169402 C189.169884,47.8076737 189.435328,48.6221042 189.827461,49.233832 C190.252172,50.1013514 191.170367,51.2101834 193.169643,51.4973456 C196.572153,51.9872104 198.407336,47.5036197 198.712597,46.7471042 C199.015444,45.9930019 199.998793,42.6291023 204.64527,43.4821429 C209.29778,44.3400097 208.074324,51.3754826 204.096284,48.3180502 C204.096284,48.3180502 195.897683,54.4944498 204.219353,58.3494208 C204.219353,58.3494208 204.671815,55.5682915 209.80695,53.7294884 C209.408784,56.3296332 210.207529,60.4681467 211.070222,66.363417 C211.25362,67.6122104 211.376689,68.7922297 211.457529,69.9107143 C213.852558,68.2504826 216.199324,68.8006757 216.199324,68.8006757 C213.489382,71.449083 212.111486,74.2845077 211.402027,76.496139" fill="#FFC82E"></path>
                        <path d="M116.91361,66.5042545 C105.465734,66.5042545 88.4917954,69.7002005 71.2910232,84.517768 C77.6983591,80.9453742 93.5226834,73.240741 110.832529,73.240741 C115.620174,73.240741 120.234073,73.8295441 124.56805,74.9917062 C127.06805,72.2079225 129.847973,70.1027101 132.869208,68.721436 C130.784266,68.0698916 124.934846,66.5042545 116.91361,66.5042545 Z M193.052606,69.3285788 C185.359556,69.4897757 178.979247,74.8942159 178.477317,81.9762622 C178.284266,84.760046 179.037162,87.4115904 180.465734,89.6837912 C180.842181,83.9540615 184.326737,81.5206638 184.326737,81.5206638 C184.326737,81.5206638 182.367278,86.6722082 187.02944,91.1693124 C187.569981,91.6915132 188.303571,92.0361078 189.114382,92.0949881 C190.938707,92.2224012 192.531371,90.8478838 192.656853,89.0196985 C192.724421,88.1046406 192.415541,87.2610113 191.855695,86.6200846 C190.465734,84.9743317 189.732143,83.0602391 189.876931,81.0505866 C190.224421,76.0341773 196.006274,72.3112043 203.023649,72.3729804 C200.687741,70.6924784 197.791988,69.5940228 194.616313,69.3681541 C194.085425,69.3314746 193.573842,69.3179611 193.052606,69.3285788 L193.052606,69.3285788 Z M201.430985,99.498463 C199.790058,99.6239456 198.409749,100.887459 198.197394,102.58244 C197.965734,104.515838 199.33639,106.276455 201.266892,106.518733 C202.376931,106.656764 203.429054,106.248463 204.162645,105.521629 C204.06612,105.370085 203.959942,105.228193 203.863417,105.058309 C203.573842,105.109467 203.274614,105.132633 202.956081,105.094023 C201.237934,104.874911 200.012066,103.311204 200.224421,101.589197 C200.330598,100.722401 200.784266,99.990741 201.430985,99.498463 L201.430985,99.498463 Z" fill="#FFFFFF" transform="translate(137.726834, 86.524811) scale(-1, 1) rotate(-180.000000) translate(-137.726834, -86.524811) "></path>
                        <path d="M199.625965,35.0070246 C200.137548,35.8178354 200.629826,36.8709242 201.054537,38.2068315 C198.351834,38.3188006 196.180019,40.3854029 196.035232,43.1798045 C195.919402,45.3516191 197.058398,47.3815419 198.824807,48.5321211 C198.342181,47.8419666 198.091216,46.981928 198.197394,46.0794184 C198.409749,44.3834724 199.790058,43.1199589 201.430985,42.9954415 C201.276544,43.1132022 201.131757,43.2483373 200.996622,43.3931249 C200.986969,43.4066385 200.977317,43.4211172 200.967664,43.4346307 C200.842181,43.5765226 200.726351,43.7290323 200.629826,43.8940902 C200.629826,43.8989164 200.629826,43.8998817 200.620174,43.9018122 C200.533301,44.0620439 200.456081,44.2338585 200.388514,44.4114647 C200.378861,44.4500747 200.369208,44.4877195 200.349903,44.5263296 C200.291988,44.7058663 200.243726,44.8892639 200.224421,45.0861751 C200.012066,46.8091481 201.237934,48.3738199 202.956081,48.5929319 C203.274614,48.6315419 203.573842,48.6064454 203.863417,48.5552871 C203.959942,48.7251713 204.06612,48.8670632 204.162645,49.0186076 C204.133687,49.0523913 204.095077,49.0823141 204.056467,49.1151327 C204.095077,49.0958276 204.14334,49.0755574 204.191602,49.0523913 C205.388514,50.8516191 206.807432,51.4375265 207.946429,51.5388778 C207.946429,51.5388778 205.707046,46.7965998 206.68195,41.0118508 C206.68195,41.0118508 205.842181,41.1798045 204.934846,41.7753643 C203.506274,35.2898431 200.282336,34.9964068 199.625965,35.0070246 L199.625965,35.0070246 Z M111.68195,36.3535496 C108.979247,36.3496886 106.537162,36.6865612 104.346042,37.3622369 C102.154923,38.0340516 100.253378,38.9954415 98.6317568,40.2386848 C97.0101351,41.4838585 95.7263514,43.0070246 94.7939189,44.8014261 C93.8605212,46.5967929 93.3180502,48.6160979 93.1655405,50.8564454 C93.0805985,52.1247852 93.167471,53.2454415 93.4329151,54.2184145 C93.6993243,55.193318 94.0892857,56.0659049 94.5960425,56.8516191 C95.1085907,57.6334724 95.6973938,58.3226616 96.3923745,58.916291 C97.0680502,59.5089551 97.7919884,60.0562524 98.5545367,60.5659049 L102.724421,63.3564454 C103.921332,64.16243 104.83832,64.8487234 105.485039,65.4220825 C106.131757,65.9906153 106.421332,66.7657118 106.353764,67.7377195 C106.276544,68.8381056 105.784266,69.7676423 104.886583,70.5253643 C103.979247,71.2859821 102.598938,71.6653257 100.726351,71.6643605 C99.7707529,71.6614647 98.9309846,71.5659049 98.2166988,71.3738199 C97.5024131,71.1846307 96.8074324,70.9413875 96.1221042,70.6440902 L97.7051158,64.8487234 L88.7292471,64.8400361 L85.2398649,77.408569 C87.6153475,79.0379126 92.3856178,81.4867543 99.6163127,81.4944763 C102.232143,81.4954415 104.52944,81.1286462 106.739865,80.3911944 C108.95029,79.6537427 110.880792,78.6189937 112.531371,77.2879126 C114.18195,75.958762 115.494691,74.3525844 116.479247,72.4732408 C117.454151,70.5948624 118.033301,68.5108856 118.187741,66.2271018 C118.274614,64.9606925 118.158784,63.7975651 117.830598,62.73965 C117.502413,61.6846307 117.048745,60.7338585 116.469595,59.8854029 C115.880792,59.0379126 115.185811,58.2917736 114.375,57.6344377 C113.564189,56.978067 112.743726,56.3738199 111.903958,55.8245921 L108.9889,53.916291 C107.869208,53.1962137 106.875,52.5205381 106.006274,51.8863682 C105.137548,51.2502678 104.732143,50.4886848 104.790058,49.5996886 C104.857625,48.5861751 105.330598,47.6981442 106.218629,46.939457 C107.10666,46.1798045 108.371139,45.7985303 110.041023,45.7985303 C111.247587,45.7994956 112.396236,46.0137813 113.486969,46.4375265 L112.290058,50.4964068 L121.228282,50.5041288 L124.056467,40.4365612 C122.463803,38.8950554 118.766892,36.3593412 111.68195,36.3535496 L111.68195,36.3535496 Z M15.7543436,37.0794184 L13.1626448,46.2734338 L16.3576255,46.2753643 L9.40299228,71.3796114 L6.16438224,71.3757504 L3.65328185,80.5707311 L18.0664093,80.5871404 L23.3472973,61.7570246 C23.5094595,61.1633952 23.6600386,60.501233 23.792278,59.7608856 C23.9245174,59.0224686 24.0297297,58.420152 24.1030888,57.9529705 C24.2276062,58.5475651 24.3444015,59.1682215 24.4438224,59.8245921 C24.5432432,60.4809628 24.6783784,61.1025844 24.8453668,61.697179 L29.7507722,80.5987234 L38.7102317,80.6083759 L48.2247104,46.3072176 L51.4486486,46.3110786 L54.0442085,37.1189937 L39.5548263,37.1035496 L34.7353282,54.7946693 C34.5644788,55.4693798 34.4052124,56.1141674 34.2604247,56.7271018 C34.1146718,57.3429319 33.9776062,57.962623 33.8492278,58.5996886 C33.769112,57.962623 33.6667954,57.3583759 33.5364865,56.7898431 C33.4119691,56.2193798 33.2469112,55.5745921 33.0442085,54.8535496 L28.3067568,37.0929319 L15.7546332,37.0794184 L15.7543436,37.0794184 Z M57.5738417,37.1209242 L54.9792471,46.3149396 L58.1751931,46.3188006 L51.2205598,71.4230477 L47.5555019,71.4191867 L44.9609073,80.6112717 L60.4444981,80.6286462 C61.9840734,80.6315419 63.5555019,80.5890709 65.16361,80.5060593 C66.7707529,80.424013 68.344112,80.2116578 69.882722,79.8767157 C71.4242278,79.5408083 72.909749,79.0562524 74.347973,78.4230477 C75.7833012,77.7917736 77.1433398,76.927874 78.4222973,75.8284531 C79.7919884,74.6450554 81.0603282,73.1460207 82.2234556,71.3284531 C83.386583,69.5108856 84.41361,67.5359821 85.3093629,65.4018122 C86.2022201,63.2657118 86.9261583,61.0417736 87.4811776,58.716484 C88.0352317,56.3911944 88.3846525,54.1489164 88.5333012,51.993511 C88.6703668,49.9655188 88.5014479,48.0301906 88.0236486,46.1884917 C87.5477799,44.3496886 86.7919884,42.7772948 85.7582046,41.4645535 C84.3798263,39.7290323 82.5883205,38.5726616 80.382722,38.001233 C78.1800193,37.4269087 75.2263514,37.1392639 71.5284749,37.1354029 L57.5738417,37.1209242 L57.5738417,37.1209242 Z M128.429054,37.1923527 L125.996622,46.3863682 L129.239865,46.3902292 L123.245656,67.4568315 C121.56612,73.8332794 124.423263,81.216484 135.948359,81.5301906 C145.002413,81.7772948 153.313224,77.2570246 155.504344,69.7637813 L161.981178,46.4249782 L165.147201,46.4259435 L167.734073,37.235789 L152.685811,37.216484 L144.625965,66.6228547 C143.419402,70.7734338 140.668436,71.8294184 138.197394,71.8284531 C135.127896,71.8245921 134.79971,70.3236269 135.320946,67.6547079 L143.757239,37.2097273 L128.429054,37.1923527 L128.429054,37.1923527 Z M69.9995174,46.7106925 L71.5545367,46.712623 C73.5091699,46.7145535 74.8470077,47.0871404 75.5661197,47.8274879 C76.2833012,48.5688006 76.5777027,49.931735 76.4406371,51.9182215 C76.3373552,53.4423527 76.1124517,55.0060593 75.7755792,56.6103064 C75.4387066,58.216484 75.0207529,59.7599203 74.5255792,61.2367543 C74.0275097,62.7174493 73.4686293,64.0678354 72.844112,65.2937041 C72.2205598,66.5186076 71.5892857,67.5311558 70.9551158,68.3352099 C70.2707529,69.1807697 69.375,69.8226616 68.2649614,70.2657118 C67.1510618,70.7106925 65.4946911,70.9520052 63.2881274,70.993511 L69.9995174,46.7106925 L69.9995174,46.7106925 Z M199.941602,54.5311558 C194.66168,54.7801906 197.27751,61.0784531 197.27751,61.0784531 C198.030405,55.8467929 204.989865,55.4771018 204.989865,55.4771018 C202.808398,54.7386848 201.167471,54.4732408 199.941602,54.5311558 L199.941602,54.5311558 Z" fill="#005643" transform="translate(105.799855, 58.273300) scale(-1, 1) rotate(-180.000000) translate(-105.799855, -58.273300) "></path>
                    </g>
                </g>
            </g>
        </g>
    </g>
</svg>