<?xml version="1.0" encoding="UTF-8" standalone="no"?>
<svg width="250px" height="250px" viewBox="0 0 250 250" version="1.1" xmlns="http://www.w3.org/2000/svg" xmlns:xlink="http://www.w3.org/1999/xlink">
    <!-- Generator: Sketch 47.1 (45422) - http://www.bohemiancoding.com/sketch -->
    <title>LONGWD</title>
    <desc>Created with Sketch.</desc>
    <defs></defs>
    <g id="Page-1" stroke="none" stroke-width="1" fill="none" fill-rule="evenodd">
        <g id="LONGWD" fill-rule="nonzero">
            <g id="Untitled-1" transform="translate(0.000000, 79.000000)">
                <path d="M200.392157,58.1005263 L172.598039,62.7015789 L141.078431,62.7015789 C141.097654,58.1056 142.847509,53.6849916 145.980392,50.3178947 C148.390222,51.3065406 150.973204,51.8057359 153.578431,51.7863158 C158.114731,52.0048533 162.542953,50.3599826 165.833333,47.2342105 C167.819208,48.0938995 169.708744,49.160324 171.470588,50.4157895 C176.56744,54.726578 183.333854,56.5235042 189.901961,55.3105263 L198.578431,43.8078947 L196.862745,40.8710526 L197.990196,37.2978947 L192.843137,29.76 L191.22549,29.76 L178.137255,19.9705263 L175.980392,16.2505263 C171.176708,13.5305814 166.05669,11.4099735 160.735294,9.93631579 C152.595151,3.36140258 142.378556,-0.108508508 131.911765,0.146842105 C132.998694,1.15316027 133.939193,2.30645671 134.705882,3.57315789 C130.523622,2.76441445 126.242063,2.59934691 122.009804,3.08368421 C121.883536,4.7128274 121.883536,6.34927786 122.009804,7.97842105 C107.693186,8.46390735 93.5453785,11.223208 80.0980392,16.1526316 C83.7254902,16.5931579 91.4705882,17.6210526 95.9313725,18.5021053 C88.0057026,21.272714 80.3578157,24.7796579 73.0882353,28.9768421 L68.1862745,27.2636842 C64.502245,29.4234222 60.9351728,31.7761811 57.5,34.3121053 C48.553719,31.3093274 39.4362686,28.8412734 30.1960784,26.9210526 C32.1568627,31.5710526 35.0980392,38.1789474 35.0980392,39.5984211 C25.2286513,40.3797737 15.4098571,41.7033575 5.68627451,43.5631579 C15.1470588,47.0384211 35.5882353,54.7721053 51.5686275,62.7015789 L8.7745098,62.7015789 L0,76.7984211 L100.980392,76.7984211 C105,79.6373684 111.617647,84.2384211 118.627451,89.3778947 C122.443879,92.6906014 128.01241,93.0318488 132.205882,90.21 L153.627451,76.7984211 L167.303922,76.7984211 L189.460784,81.3994737 L249.901961,68.5263158 L200.392157,58.1005263 Z" id="Shape" fill="#9EA1A2"></path>
                <path d="M200.343137,61.0863158 L172.843137,65.6384211 L142.745098,65.6384211 L147.990196,69.2115789 C149.320805,70.1800934 150.792108,70.9394214 152.352941,71.4631579 L169.215686,71.4631579 L191.078431,76.0152632 L235.882353,68.5263158 L200.343137,61.0863158 Z" id="Shape" fill="#011E41"></path>
                <polygon id="Shape" fill="#FFFFFF" points="200.784314 65.1978947 180.784314 68.5263158 216.568627 68.5263158"></polygon>
                <path d="M193.627451,41.0178947 L194.705882,37.6405263 L191.176471,32.7457895 L190.196078,32.7457895 L175.931373,22.1242105 L173.823529,18.6 C169.180532,16.0610428 164.241152,14.104643 159.117647,12.7752632 C153.261619,7.65806328 145.971417,4.46262007 138.235294,3.62210526 C139.522479,5.34880602 140.685521,7.16440466 141.715686,9.05526316 C136.389066,6.61429119 130.562509,5.45740368 124.705882,5.67789474 C124.763775,7.39575678 125.234525,9.07452918 126.078431,10.5726316 C114.887788,10.5463801 103.743679,12.0114157 92.9411765,14.9289474 C97.5662269,15.6567914 102.101241,16.8709092 106.470588,18.5510526 C94.6714924,21.0808369 83.4068032,25.6529613 73.1862745,32.0605263 C70.0490196,30.8368421 68.2843137,30.2984211 68.2843137,30.2984211 C63.3823529,33.3331579 57.7941176,37.4447368 57.7941176,37.4447368 C44.1176471,32.8436842 34.754902,30.7878947 34.754902,30.7878947 C35.6862745,33.1863158 39.6568627,42.2415789 39.6568627,42.2415789 C28.4803922,42.5842105 16.5196078,44.3463158 16.5196078,44.3463158 C30.045132,49.3189802 43.2700129,55.071824 56.127451,61.5757895 C56.9454228,62.1136732 58.0055576,62.1136732 58.8235294,61.5757895 C59.8196216,60.4824318 59.9601394,58.8588362 59.1666667,57.6110526 C59.1666667,57.6110526 56.9607843,53.1568421 56.4705882,52.08 C55.5552533,50.7501514 55.6770716,48.9661154 56.7647059,47.7726316 C57.5490196,47.1852632 58.3333333,47.1852632 59.6568627,47.7726316 C59.6568627,47.7726316 72.254902,54.4294737 89.0686275,65.2957895 L11.8627451,65.2957895 L8.23529412,71.1205263 L98.3333333,71.1205263 C105.441176,76.0152632 113.039216,80.91 120.637255,86.8815789 C123.241645,88.9458549 126.790853,89.3627934 129.803922,87.9584211 L151.715686,74.3021053 C151.715686,74.3021053 148.480392,75.3789474 143.137255,71.6589474 C122.984548,57.2303588 101.517471,44.726351 79.0196078,34.3121053 C85.7729521,35.5538053 92.3549046,37.5912037 98.627451,40.3815789 C107.505541,28.3168923 120.143645,19.5366271 134.558824,15.4184211 C132.993076,13.8821284 131.903867,11.9278404 131.421569,9.78947368 L146.127451,15.9568421 C146.082622,14.79599 145.781314,13.659392 145.245098,12.6284211 C154.081813,13.6462945 162.710841,16.0067015 170.833333,19.6278947 C172.205882,21.5368421 173.431373,23.6905263 173.431373,23.6905263 C178.72549,27.1657895 185.098039,31.7178947 185.098039,31.7178947 C187.145143,32.9816322 188.540668,35.0718348 188.921569,37.4447368 C188.921569,40.0878947 186.862745,41.4584211 184.019608,40.4794737 C181.581344,39.5773017 179.651636,37.6682788 178.72549,35.2421053 C175.490196,34.3121053 168.333333,32.4521053 165.294118,31.7178947 C162.190369,34.4276174 158.190952,35.8924908 154.068627,35.8294737 C148.007567,36.1082641 142.361321,32.7601446 139.705882,27.3126316 C126.421569,33.9694737 118.872549,50.6605263 118.872549,50.6605263 C124.754902,53.8910526 138.039216,62.2121053 138.039216,62.2121053 C138.189159,56.1696272 140.87511,50.468173 145.441176,46.5 C147.925097,47.8381107 150.707139,48.5283873 153.529412,48.5068421 C157.978631,48.6688872 162.276467,46.8807611 165.294118,43.6121053 C168.313785,44.7612311 171.165889,46.3086454 173.77451,48.2131579 C177.840346,51.4757341 183.062221,52.9427745 188.235294,52.2757895 L195.147059,43.1715789 L193.627451,41.0178947 Z" id="Shape" fill="#011E41"></path>
                <path d="M134.362745,15.7610526 C119.93909,19.8887276 107.299077,28.6875376 98.4313725,40.7731579 C98.4313725,40.7731579 118.72549,22.1242105 138.72549,18.6978947 C137.057032,18.0812704 135.560964,17.0741711 134.362745,15.7610526" id="Shape" fill="#FFFFFF"></path>
                <path d="M185.04902,32.0605263 C185.04902,32.0605263 178.676471,27.5084211 173.382353,24.0331579 C173.382353,24.0331579 172.156863,21.8794737 170.784314,19.9705263 C162.661821,16.3493331 154.032794,13.9889261 145.196078,12.9710526 C145.732294,14.0020236 146.033602,15.1386216 146.078431,16.2994737 C153.984279,16.7248223 161.751785,18.5478277 169.019608,21.6836842 L171.568627,25.6973684 C171.568627,25.6973684 178.039216,29.4663158 184.509804,34.2142105 C186.473209,35.6078189 187.727098,37.7899484 187.941176,40.1857895 C188.510107,39.5234636 188.776599,38.6542063 188.676471,37.7873684 C188.29557,35.4144664 186.900045,33.3242637 184.852941,32.0605263" id="Shape" fill="#FFFFFF"></path>
                <path d="M169.264706,23.5926316 C165.747147,21.6680922 162.03312,20.1255967 158.186275,18.9915789 C155.931489,18.8492903 153.706611,19.5664995 151.960784,20.9984211 C153.184505,21.0564071 154.391746,21.3041048 155.539216,21.7326316 C155.399471,21.958583 155.299962,22.2069887 155.245098,22.4668421 C154.754902,24.3757895 156.862745,26.1378947 160.147059,26.3826316 C162.384351,26.652657 164.618339,25.8546844 166.176471,24.2289474 C167.327406,24.3878274 168.498724,24.164229 169.509804,23.5926316" id="Shape" fill="#011E41"></path>
                <path d="M160.245098,21.6347368 C159.813599,21.8447405 159.479948,22.2129697 159.313725,22.6626316 C159.252045,22.9936316 159.341965,23.3348232 159.558824,23.5926316 C160.104797,24.2115128 160.889721,24.5677705 161.715686,24.5715789 C162.744795,24.6925188 163.780922,24.4119493 164.607843,23.7884211 C163.724866,23.4151327 162.872578,22.9732508 162.058824,22.4668421 C161.489377,22.1187432 160.880537,21.839418 160.245098,21.6347368" id="Shape" fill="#FFFFFF"></path>
            </g>
        </g>
    </g>
</svg>