<?xml version="1.0" encoding="UTF-8" standalone="no"?>
<svg width="250px" height="250px" viewBox="0 0 250 250" version="1.1" xmlns="http://www.w3.org/2000/svg" xmlns:xlink="http://www.w3.org/1999/xlink">
    <!-- Generator: Sketch 47.1 (45422) - http://www.bohemiancoding.com/sketch -->
    <title>SDAK</title>
    <desc>Created with Sketch.</desc>
    <defs></defs>
    <g id="Page-1" stroke="none" stroke-width="1" fill="none" fill-rule="evenodd">
        <g id="SDAK" fill-rule="nonzero">
            <g id="Group" transform="translate(125.500000, 125.000000) scale(-1, 1) rotate(-180.000000) translate(-125.500000, -125.000000) translate(25.000000, 0.000000)">
                <path d="M90.2266667,222.276786 L90.2303293,222.28125 L90.221396,222.263393 L90.2258627,222.272321 L90.2266667,222.276786 Z M90.2356,222.294643 L90.2266667,222.276786 L90.2248353,222.274866 L90.2337687,222.292723 L90.2356,222.294643 Z" id="Shape" fill="#000000"></path>
                <path d="M192.468667,153.258929 L191.450043,159.227232 L191.409843,159.445089 C191.126657,160.843795 189.523391,168.128125 185.899763,174.114286 C180.70503,182.696429 176.336183,186.495536 175.118123,187.457589 L165.624223,194.912054 L160.800223,189.546429 C156.177223,202.563393 148.856357,210.740179 144.603197,214.668304 L144.489743,215.315045 C144.265963,216.605625 142.921899,223.371295 138.27125,229.877545 C133.357023,236.721295 126.848197,239.572634 125.593957,240.073973 L114.63767,244.461696 L109.115977,233.581339 C108.598871,232.565848 105.987613,227.086696 105.346735,218.842946 C104.826413,212.274643 105.382469,207.502321 105.840481,204.953214 C105.360001,204.392857 104.887383,203.817054 104.423877,203.229196 C103.340621,205.185357 102.140875,206.979821 100.844425,208.585 C101.775055,215.462679 101.050338,223.425179 100.959218,224.362232 L100.885518,224.965045 C99.855862,232.327991 97.0176973,237.568616 96.4561033,238.548527 L89.8990367,249.881562 L78.77793,243.611027 C77.7125407,243.00817 73.8726367,240.630179 69.1933567,235.353884 C64.32335,229.857009 61.73849,222.681116 61.2645767,221.284241 L59.778338,216.715937 C55.7665567,212.807946 48.665718,204.925312 43.049778,193.514152 L41.18624,198.527545 L27.22344,187.843616 C26.2841,187.120134 21.3158267,183.094955 15.7633133,174.846741 C10.1299533,166.46817 -1.92915333,142.732455 7.74698667,103.377991 C10.9986307,90.1543304 17.9158,79.1726339 26.83082,73.0012054 C15.94332,59.8360268 15.2983333,43.4806696 24.8448507,23.0547768 C31.833844,8.09897321 43.667384,0.515044643 60.0171707,0.515044643 C66.9556907,0.515044643 73.7311773,1.75160714 80.910004,3.06147321 C87.1887973,4.2096875 93.6806507,5.39508929 99.4270173,5.45589286 L99.9115613,5.45589286 C105.154981,5.45589286 111.078675,4.28160714 116.827721,3.14303571 C123.079268,1.90120536 129.542535,0.618348214 136.009821,0.618348214 C151.886141,0.618348214 163.423095,8.6665625 170.301761,24.5370982 C177.657021,41.5009375 177.548481,55.6263839 169.952468,67.6616518 C181.869088,73.7406696 191.820375,86.6562946 196.729688,102.513884 C204.529828,127.697813 195.580861,147.504955 192.468086,153.25942" id="Shape" fill="#000000"></path>
                <path d="M186.036667,150.714286 L184.803465,157.947321 C184.655618,158.673214 183.291096,165.179911 180.202351,170.281696 C175.481978,178.080804 171.775091,181.196429 171.080525,181.745089 L166.404818,185.417054 L162.390759,180.952768 C161.990099,180.505848 159.347663,177.345 157.924226,171.635357 C157.910826,171.761696 157.901893,171.879107 157.888493,172.005893 C155.310243,194.762589 143.395946,206.73625 138.407126,210.828214 L137.842807,214.033482 C137.735607,214.657545 136.667851,220.28125 132.881681,225.577679 C129.005597,230.978125 123.778167,233.180804 123.194821,233.413839 L117.797747,235.574643 L115.075582,230.209911 C114.826342,229.719063 112.628429,225.21125 112.0843,218.242946 C111.456242,210.296964 112.609178,205.560804 112.742151,205.046518 L113.321165,202.811384 C109.565636,199.104688 105.908285,194.143973 103.092051,187.547991 C101.284883,195.04308 98.2689447,201.781027 93.6236113,206.23058 L94.0416913,208.805 C95.0254747,214.896964 94.3266647,222.725982 94.241798,223.59875 L94.201598,223.919732 C93.334216,230.121518 90.953572,234.372411 90.6872247,234.837589 L87.456172,240.421964 L81.983612,237.335938 C81.3912873,237.001116 78.2248673,235.097902 74.1388053,230.491295 C70.11282,225.947098 67.928352,219.755134 67.661692,218.968973 L65.6056407,212.649777 C61.422384,208.831071 48.2338807,195.445759 43.428194,174.502009 C43.215134,173.569509 43.050314,172.656384 42.8950527,171.742723 C42.3348433,175.776161 41.3602167,178.53558 41.182354,179.017277 L38.0851673,187.347188 L31.2158807,182.090938 C30.7354013,181.720848 26.3695473,178.282366 21.283354,170.726205 C17.395344,164.944955 4.856294,143.532455 14.2930207,105.150313 C18.3781447,88.5391518 28.042314,77.6471875 38.9829673,75.1342411 C28.0280207,66.2922768 18.3023007,53.1663839 30.912594,26.1833482 C36.749634,13.6918304 46.2721207,7.6190625 60.0205207,7.6190625 C66.3698873,7.6190625 72.8755873,8.80540179 79.7578273,10.0617411 C86.3086407,11.2582143 93.080554,12.4933036 99.4303673,12.5594196 L99.914956,12.5594196 C105.814083,12.5594196 112.039723,11.3219196 118.061236,10.1273661 C124.017536,8.94535714 130.171263,7.72232143 136.013663,7.72232143 C149.188543,7.72232143 158.395236,14.184375 164.157236,27.4803571 C173.946383,50.0566964 166.906023,62.5133929 158.194683,71.1861607 C171.761736,73.1708036 184.634669,86.38125 190.306889,104.707143 C198.409869,130.866964 186.037024,150.711607 186.037024,150.711607" id="Shape" fill="#FFFFFF"></path>
                <path d="M70.9521067,14.5486071 C70.9521067,14.5486071 54.983952,27.5778929 49.8401387,49.9978929 C46.5348411,64.39825 50.4440677,77.2600357 66.7784533,85.3771786 C81.3512213,92.6153929 92.8698613,87.4127857 96.802672,73.4561071 C100.273486,61.1596786 100.001842,31.51325 88.993152,21.4668214 C81.9901333,15.07075 70.9521067,14.5471786 70.9521067,14.5471786 L70.9521067,14.5486071 Z M132.835093,16.3064286 C132.835093,16.3064286 113.357925,20.2578571 106.732965,45.08 C103.854931,55.8867857 104.504027,63.7053571 107.947327,76.0160714 C110.844193,86.3925 125.471668,92.9792857 137.329775,89.0321429 C151.525199,84.3167857 154.07513,75.3382143 151.406922,51.6857143 C148.536642,26.3564286 132.835236,16.3064286 132.835236,16.3064286 L132.835093,16.3064286 Z M31.2130667,74.6492857 C24.480192,74.7545357 18.7414187,77.92775 18.7414187,77.92775 C18.7414187,77.92775 14.737856,94.4295357 20.6188123,115.80275 C26.3550843,136.649179 41.3663003,149.34525 56.8559856,135.703821 L56.8559856,136.303714 L63.4791589,136.303714 C64.0162667,135.617821 64.5800315,134.95475 65.056464,134.218071 C67.6133627,130.264857 70.2285067,124.646643 73.1036107,118.809143 L73.1036107,106.609143 L63.577104,106.609143 C59.0889973,95.3555714 49.394544,84.7662857 43.380624,79.1234286 C39.6536373,75.627 35.254864,74.5877143 31.2162827,74.652 L31.2130667,74.6492857 Z M73.1032533,118.81 L73.1032533,136.304286 L63.4788373,136.304286 C50.070976,153.426786 19.1337707,155.777857 36.8324907,193.643571 C42.2167893,205.1625 50.418304,208.347857 60.0591573,208.347857 C71.8772427,208.347857 85.868272,203.551071 99.4694507,203.409286 L99.9510288,203.409286 C112.518085,203.409286 125.195557,208.243214 136.048842,208.243214 C145.099738,208.243214 152.876741,204.878929 158.228522,192.5275 C172.685157,159.188214 145.947333,155.0525 135.12049,138.773929 C121.425333,118.170714 125.348495,92.5596429 100.622458,91.4810714 C100.382223,91.4675 100.143917,91.46 99.9036107,91.46 C87.4201707,91.46 79.5384693,105.744643 73.1036107,118.810714 L73.1032533,118.81 Z M177.390987,75.235 C172.383317,75.3416786 161.454992,76.4425714 154.157173,83.5010714 C146.063931,91.3189286 119.167093,111.688571 134.517776,132.565357 C153.552923,158.461786 176.758149,139.7475 184.104923,116.0225 C191.541029,92.0117857 180.070629,75.2796429 180.070629,75.2796429 C180.070629,75.2796429 179.059805,75.20225 177.390629,75.2377857 L177.390987,75.235 Z" id="Shape" fill="#AD0000" transform="translate(102.011605, 111.447518) scale(-1, 1) rotate(-180.000000) translate(-102.011605, -111.447518) "></path>
                <path d="M85.0989333,34.0161071 C85.0989333,34.0161071 82.5069088,35.4793929 78.957088,39.4846786 C75.7347275,43.1200357 73.883312,48.5318214 73.883312,48.5318214 L73.0876736,50.9941429 C76.14952,51.1345714 80.8561003,51.6221429 85.6082763,54.0633571 L87.5903685,55.305 C88.4534715,49.9553571 87.7369467,42.3514286 87.7369467,42.3514286 C87.033,37.3589286 85.0998267,34.0189286 85.0998267,34.0189286 L85.0989333,34.0161071 Z M120.882293,38.3061071 C120.882293,38.3061071 119.092161,41.8421071 118.641992,47.5903929 C118.094164,54.55075 119.088659,58.4021786 119.088659,58.4021786 C119.088659,58.4021786 123.00932,55.695 125.069704,54.8096786 C128.000945,53.5495 131.406653,52.4868571 131.406653,52.4868571 C131.406653,52.4868571 130.625022,47.9929286 127.665731,43.8511429 C124.817784,39.8847143 120.883544,38.3061429 120.883544,38.3061429 L120.882293,38.3061071 Z M35.08656,88.7668214 C35.08656,88.7668214 31.2655947,91.6836786 26.6556373,98.5325357 C23.4699749,103.262893 21.9795733,111.297536 21.9795733,111.297536 C21.9795733,111.297536 24.9530512,110.314036 28.68672,109.95825 C32.419424,109.602036 35.330976,110.53025 35.330976,110.53025 C35.330976,110.53025 35.6332443,110.15575 36.5243979,102.88525 C37.4713312,95.18525 35.0872032,88.7673929 35.0872032,88.7673929 L35.08656,88.7668214 Z M167.181973,89.0597857 C167.181973,89.0597857 163.561472,93.0855 163.587557,101.231929 C163.614357,108.481929 164.676173,112.728714 164.697256,112.811214 C170.752627,110.790857 176.600029,110.64725 178.969507,110.690679 C178.742135,109.86825 178.285285,108.224071 178.173868,107.767964 C177.723664,105.922357 176.589524,101.836893 174.684294,98.6929643 C170.373067,91.5676071 167.181723,89.05975 167.181723,89.05975 L167.181973,89.0597857 Z M67.19296,94.9262143 L50.9314347,112.050857 L50.9314347,115.315357 L46.737056,119.730714 L46.737056,140.155 L70.0544853,160.125714 L70.0544853,172.472143 L50.9314347,172.472143 L50.9314347,182.244643 L46.737056,182.244643 L46.737056,194.019286 L61.0164533,209.197857 L70.0544853,209.197857 L70.0544853,231.233214 L80.1184213,231.233214 L80.1184213,231.268214 L120.840128,231.268214 C120.840128,231.268214 121.877217,230.183036 123.37355,228.610571 L129.815198,228.610571 L130.799258,227.571214 C131.338403,227.010893 143.823343,213.883357 145.260181,212.357643 L146.251209,211.304357 L146.237273,209.811607 C146.22834,208.738214 146.232985,162.597321 146.237273,138.347321 L146.237273,136.861536 L129.801369,119.750821 L123.059561,119.750821 L123.059561,112.042964 L106.637593,94.9251071 L67.1915664,94.9251071 L67.19296,94.9262143 Z M99.9043253,146.522643 L119.146011,146.522643 L119.146011,163.0405 L99.9043253,146.522643 Z M119.146011,193.3905 L119.146011,204.502286 L108.579664,204.502286 L119.146011,193.3905 Z" id="Shape" fill="#000000" transform="translate(100.474540, 132.642161) scale(-1, 1) rotate(-180.000000) translate(-100.474540, -132.642161) "></path>
                <path d="M126.406667,57.0535714 L93.4498133,57.0535714 L93.4498133,62.1392857 L104.921107,62.1392857 L119.35514,77.3209821 L119.35514,97.0290179 L93.4498133,119.263393 L93.4498133,124.818304 L126.406667,124.818304 L126.406667,57.0549107 L126.406667,57.0535714 Z M142.534907,126.772321 L128.093727,141.808482 L77.3077267,141.808482 L77.3077267,133.121429 L70.1266667,139.284821 L70.1266667,149.651786 L103.215733,149.651786 L103.215733,145.177232 L119.3538,145.177232 L119.3538,151.595089 L104.919767,166.641071 L68.2685333,166.641071 L53.98994,151.6 L53.98994,131.1875 L77.30728,111.209821 L77.30728,82.5205357 L93.4484733,82.5205357 L93.4484733,97.3825893 L103.215287,89.015625 L103.215287,79.134375 L70.12622,79.134375 L70.12622,89.0897321 L53.98994,89.0897321 L53.98994,77.3232143 L68.2685333,62.1415179 L77.30728,62.1415179 L77.30728,40.1004464 L87.3715733,40.1004464 L87.3715733,40.0736607 L128.09194,40.0736607 C128.09194,40.0736607 141.092173,53.7316964 142.53312,55.2669643 C142.51972,56.598125 142.53312,126.775893 142.53312,126.775893 L142.534907,126.772321 Z" id="Shape" fill="#FFFFFF"></path>
            </g>
        </g>
    </g>
</svg>