<svg width="500" height="500" viewBox="0 0 500 500" fill="none" xmlns="http://www.w3.org/2000/svg">
<g clip-path="url(#clip0)">
<path d="M493.537 309.537L292.287 296.574C291.874 296.553 291.463 296.642 291.097 296.834C290.731 297.025 290.422 297.311 290.204 297.662C290 298.014 289.894 298.413 289.894 298.819C289.894 299.225 290 299.625 290.204 299.977L315.551 342.152L248.213 382.592C237.657 369.074 225.805 355.092 212.958 340.926L381.176 178.449L413.838 211.111C414.107 211.37 414.435 211.56 414.794 211.665C415.153 211.77 415.532 211.786 415.898 211.713C416.26 211.628 416.596 211.458 416.878 211.216C417.16 210.974 417.38 210.668 417.518 210.324L495.458 7.38388C495.59 6.9779 495.607 6.54337 495.507 6.12831C495.408 5.71325 495.195 5.33383 494.894 5.032C494.592 4.73016 494.212 4.51767 493.797 4.41799C493.382 4.31832 492.948 4.33536 492.542 4.46722L289.602 82.407C289.257 82.5459 288.951 82.7656 288.709 83.0476C288.468 83.3296 288.297 83.6657 288.213 84.0274C288.139 84.3939 288.156 84.7727 288.261 85.1315C288.365 85.4902 288.556 85.8183 288.815 86.0876L321.477 118.75L158.931 287.037C144.856 274.213 130.875 262.384 117.264 251.805L157.773 184.375L199.926 209.722C200.278 209.925 200.677 210.032 201.083 210.032C201.49 210.032 201.889 209.925 202.241 209.722C202.588 209.505 202.872 209.201 203.063 208.839C203.254 208.477 203.346 208.071 203.329 207.662L190.389 6.36537C190.318 5.91151 190.114 5.48893 189.803 5.1514C189.491 4.81386 189.086 4.57664 188.639 4.46992C188.193 4.3632 187.724 4.39179 187.294 4.55207C186.863 4.71236 186.49 4.99707 186.222 5.37L100.805 147.523C100.637 147.787 100.542 148.09 100.528 148.402L24.1388 275.717C23.9833 275.984 23.8828 276.279 23.843 276.585C23.8033 276.891 23.8251 277.202 23.9073 277.5C23.9872 277.792 24.1273 278.065 24.3186 278.3C24.5099 278.535 24.7483 278.728 25.0185 278.865C46.824 290.439 77.4953 313.356 107.38 340.439L4.18512 447.037L52.7962 495.648L159.648 392.546C186.731 422.453 209.671 453.148 221.222 474.953C221.372 475.223 221.573 475.461 221.816 475.652C222.058 475.842 222.337 475.983 222.634 476.065C222.928 476.144 223.235 476.164 223.537 476.124C223.839 476.084 224.13 475.985 224.393 475.833L351.523 399.444C351.861 399.414 352.187 399.303 352.472 399.12L494.625 313.703C494.998 313.434 495.283 313.059 495.442 312.627C495.601 312.194 495.628 311.725 495.518 311.277C495.409 310.83 495.168 310.425 494.828 310.115C494.487 309.805 494.062 309.604 493.606 309.537H493.537Z" fill="#FFCD00"/>
<path d="M52.8425 500C52.2832 500 51.7293 499.89 51.2128 499.676C50.6963 499.461 50.2274 499.147 49.8332 498.75L1.22208 450.139C0.438887 449.342 0 448.27 0 447.153C0 446.035 0.438887 444.963 1.22208 444.166L101.292 340.625C72.7267 315.162 43.6989 293.565 23.0739 282.616C22.2918 282.203 21.602 281.636 21.0466 280.948C20.4911 280.26 20.0818 279.466 19.8435 278.615C19.6052 277.763 19.5429 276.872 19.6606 275.996C19.7782 275.12 20.0732 274.277 20.5276 273.518L96.4767 146.852C96.6347 146.32 96.8521 145.807 97.1249 145.324L182.565 3.17112C183.276 1.97517 184.352 1.03893 185.635 0.499927C186.918 -0.0390723 188.34 -0.152412 189.693 0.176557C191.045 0.505527 192.256 1.25946 193.148 2.32761C194.04 3.39575 194.565 4.7218 194.648 6.11093L207.611 207.361C207.686 208.548 207.436 209.732 206.887 210.787C206.339 211.842 205.512 212.727 204.497 213.347C203.482 213.966 202.317 214.297 201.128 214.302C199.939 214.308 198.771 213.989 197.75 213.379L159.231 190.231L122.912 250.671C134.625 259.93 146.639 270.116 158.722 280.995L315.481 118.796L285.805 89.1202C285.035 88.3507 284.47 87.4 284.162 86.3554C283.854 85.3108 283.814 84.2056 284.044 83.1412C284.274 82.0768 284.768 81.0873 285.481 80.2634C286.193 79.4395 287.1 78.8077 288.12 78.4257L491.014 0.48593C492.196 0.035955 493.484 -0.0569407 494.719 0.218773C495.953 0.494486 497.08 1.12667 497.958 2.03686C498.866 2.91698 499.496 4.04333 499.772 5.27722C500.047 6.51111 499.956 7.79865 499.509 8.9813L421.5 211.852C421.116 212.85 420.493 213.739 419.686 214.441C418.879 215.143 417.912 215.637 416.87 215.879C415.805 216.108 414.7 216.065 413.656 215.753C412.612 215.442 411.663 214.872 410.898 214.097L381.129 184.421L218.907 341.18C229.81 353.287 239.995 365.324 249.254 377.014L309.694 340.694L286.546 302.176C285.926 301.162 285.598 299.996 285.598 298.808C285.598 297.619 285.926 296.454 286.546 295.44C287.167 294.423 288.053 293.595 289.11 293.044C290.166 292.493 291.353 292.241 292.542 292.315L493.792 305.278C495.181 305.36 496.507 305.886 497.575 306.778C498.643 307.67 499.397 308.881 499.726 310.233C500.055 311.585 499.942 313.007 499.403 314.29C498.864 315.573 497.927 316.649 496.731 317.361L354.602 402.778C354.115 403.081 353.584 403.307 353.028 403.449L226.523 479.491C225.756 479.968 224.899 480.28 224.005 480.409C223.111 480.538 222.2 480.479 221.33 480.238C220.459 479.996 219.649 479.577 218.949 479.006C218.249 478.435 217.675 477.725 217.264 476.921C206.338 456.296 184.856 427.245 159.254 398.704L55.8054 498.75C55.0205 499.54 53.956 499.989 52.8425 500V500ZM10.1804 446.991L52.8888 489.699L156.616 389.491C157.018 389.082 157.503 388.763 158.037 388.556C158.572 388.348 159.145 388.256 159.717 388.287C160.291 388.311 160.854 388.448 161.375 388.69C161.895 388.932 162.363 389.275 162.75 389.699C189.254 418.981 211.963 449.074 223.93 471.088L349.255 395.833C349.644 395.587 350.076 395.414 350.528 395.324L486.847 313.426L295.852 301.134L319.208 340C319.785 340.974 319.954 342.136 319.676 343.234C319.398 344.331 318.698 345.274 317.727 345.856L250.412 386.296C249.523 386.839 248.465 387.036 247.44 386.848C246.415 386.66 245.495 386.101 244.856 385.278C234.37 371.852 222.588 357.916 209.81 343.889C209.065 343.07 208.668 341.994 208.702 340.888C208.737 339.782 209.201 338.733 209.995 337.963L378.213 175.416C379.012 174.639 380.084 174.204 381.199 174.204C382.314 174.204 383.386 174.639 384.185 175.416L414.648 205.856L489.856 10.0693L294.023 85.2776L324.486 115.741C325.269 116.537 325.708 117.61 325.708 118.727C325.708 119.844 325.269 120.916 324.486 121.713L161.963 289.907C161.193 290.702 160.143 291.166 159.037 291.2C157.931 291.235 156.855 290.837 156.037 290.092C142.148 277.361 128.12 265.579 114.671 255.069C113.848 254.431 113.288 253.513 113.096 252.489C112.904 251.465 113.094 250.407 113.629 249.514L154.116 182.176C154.697 181.208 155.637 180.509 156.731 180.231C157.834 179.97 158.995 180.144 159.972 180.717L198.838 204.074L186.546 13.0785L104.694 149.305C104.598 149.763 104.426 150.201 104.185 150.602L28.8378 275.995C50.736 287.963 80.9443 310.717 110.204 337.153C110.628 337.533 110.969 337.997 111.208 338.514C111.447 339.031 111.578 339.592 111.592 340.162C111.612 340.735 111.518 341.306 111.316 341.843C111.113 342.379 110.806 342.87 110.412 343.287L10.1804 446.991Z" fill="white"/>
<path d="M464.509 53.1018L398.213 173.264L410.667 185.718L464.509 53.1018Z" fill="white"/>
<path d="M442.912 330.44L222.681 439.606L230.898 453.264L442.912 330.44Z" fill="white"/>
<path d="M183.444 77.7776L188.653 188.241L175.204 180.162L183.444 77.7776Z" fill="white"/>
<path d="M493.537 309.537L292.287 296.574C291.874 296.553 291.463 296.642 291.097 296.834C290.731 297.025 290.422 297.311 290.204 297.662C290 298.014 289.894 298.413 289.894 298.819C289.894 299.225 290 299.625 290.204 299.977L315.551 342.152L248.213 382.592C237.657 369.074 225.805 355.092 212.958 340.926L381.176 178.449L413.838 211.111C414.107 211.37 414.435 211.56 414.794 211.665C415.153 211.77 415.532 211.786 415.898 211.713C416.26 211.628 416.596 211.458 416.878 211.216C417.16 210.974 417.38 210.668 417.518 210.324L495.458 7.38388C495.59 6.9779 495.607 6.54337 495.507 6.12831C495.408 5.71325 495.195 5.33383 494.894 5.032C494.592 4.73016 494.212 4.51767 493.797 4.41799C493.382 4.31832 492.948 4.33536 492.542 4.46722L289.602 82.407C289.257 82.5459 288.951 82.7656 288.709 83.0476C288.468 83.3296 288.297 83.6657 288.213 84.0274C288.139 84.3939 288.156 84.7727 288.261 85.1315C288.365 85.4902 288.556 85.8183 288.815 86.0876L321.477 118.75L158.931 287.037C144.856 274.213 130.875 262.384 117.264 251.805L157.773 184.375L199.926 209.722C200.278 209.925 200.677 210.032 201.083 210.032C201.49 210.032 201.889 209.925 202.241 209.722C202.588 209.505 202.872 209.201 203.063 208.839C203.254 208.477 203.346 208.071 203.329 207.662L190.389 6.36537C190.318 5.91151 190.114 5.48893 189.803 5.1514C189.491 4.81386 189.086 4.57664 188.639 4.46992C188.193 4.3632 187.724 4.39179 187.294 4.55207C186.863 4.71236 186.49 4.99707 186.222 5.37L100.805 147.523C100.637 147.787 100.542 148.09 100.528 148.402L24.1388 275.717C23.9833 275.984 23.8828 276.279 23.843 276.585C23.8033 276.891 23.8251 277.202 23.9073 277.5C23.9872 277.792 24.1273 278.065 24.3186 278.3C24.5099 278.535 24.7483 278.728 25.0185 278.865C46.824 290.439 77.4953 313.356 107.38 340.439L4.18512 447.037L52.7962 495.648L159.648 392.546C186.731 422.453 209.671 453.148 221.222 474.953C221.372 475.223 221.573 475.461 221.816 475.652C222.058 475.842 222.337 475.983 222.634 476.065C222.928 476.144 223.235 476.164 223.537 476.124C223.839 476.084 224.13 475.985 224.393 475.833L351.523 399.444C351.861 399.414 352.187 399.303 352.472 399.12L494.625 313.703C494.998 313.434 495.283 313.059 495.442 312.627C495.601 312.194 495.628 311.725 495.518 311.277C495.409 310.83 495.168 310.425 494.828 310.115C494.487 309.805 494.062 309.604 493.606 309.537H493.537Z" fill="#12284C"/>
<path d="M52.8425 500C52.2832 500 51.7293 499.89 51.2128 499.676C50.6963 499.461 50.2274 499.147 49.8332 498.75L1.22208 450.139C0.438887 449.342 0 448.27 0 447.153C0 446.035 0.438887 444.963 1.22208 444.166L101.292 340.625C72.7267 315.162 43.6989 293.565 23.0739 282.616C22.2918 282.203 21.602 281.636 21.0466 280.948C20.4911 280.26 20.0818 279.466 19.8435 278.615C19.6052 277.763 19.5429 276.872 19.6606 275.996C19.7782 275.12 20.0732 274.277 20.5276 273.518L96.4767 146.852C96.6347 146.32 96.8521 145.807 97.1249 145.324L182.565 3.17112C183.276 1.97517 184.352 1.03893 185.635 0.499927C186.918 -0.0390723 188.34 -0.152412 189.693 0.176557C191.045 0.505527 192.256 1.25946 193.148 2.32761C194.04 3.39575 194.565 4.7218 194.648 6.11093L207.611 207.361C207.686 208.548 207.436 209.732 206.887 210.787C206.339 211.842 205.512 212.727 204.497 213.347C203.482 213.966 202.317 214.297 201.128 214.302C199.939 214.308 198.771 213.989 197.75 213.379L159.231 190.231L122.912 250.671C134.625 259.93 146.639 270.116 158.722 280.995L315.481 118.796L285.805 89.1202C285.035 88.3507 284.47 87.4 284.162 86.3554C283.854 85.3108 283.814 84.2056 284.044 83.1412C284.274 82.0768 284.768 81.0873 285.481 80.2634C286.193 79.4395 287.1 78.8077 288.12 78.4257L491.014 0.48593C492.196 0.035955 493.484 -0.0569407 494.719 0.218773C495.953 0.494486 497.08 1.12667 497.958 2.03686C498.866 2.91698 499.496 4.04333 499.772 5.27722C500.047 6.51111 499.956 7.79865 499.509 8.9813L421.5 211.852C421.116 212.85 420.493 213.739 419.686 214.441C418.879 215.143 417.912 215.637 416.87 215.879C415.805 216.108 414.7 216.065 413.656 215.753C412.612 215.442 411.663 214.872 410.898 214.097L381.129 184.421L218.907 341.18C229.81 353.287 239.995 365.324 249.254 377.014L309.694 340.694L286.546 302.176C285.926 301.162 285.598 299.996 285.598 298.808C285.598 297.619 285.926 296.454 286.546 295.44C287.167 294.423 288.053 293.595 289.11 293.044C290.166 292.493 291.353 292.241 292.542 292.315L493.792 305.278C495.181 305.36 496.507 305.886 497.575 306.778C498.643 307.67 499.397 308.881 499.726 310.233C500.055 311.585 499.942 313.007 499.403 314.29C498.864 315.573 497.927 316.649 496.731 317.361L354.602 402.778C354.115 403.081 353.584 403.307 353.028 403.449L226.523 479.491C225.756 479.968 224.899 480.28 224.005 480.409C223.111 480.538 222.2 480.479 221.33 480.238C220.459 479.996 219.649 479.577 218.949 479.006C218.249 478.435 217.675 477.725 217.264 476.921C206.338 456.296 184.856 427.245 159.254 398.704L55.8054 498.75C55.0205 499.54 53.956 499.989 52.8425 500V500ZM10.1804 446.991L52.8888 489.699L156.616 389.491C157.018 389.082 157.503 388.763 158.037 388.556C158.572 388.348 159.145 388.256 159.717 388.287C160.291 388.311 160.854 388.448 161.375 388.69C161.895 388.932 162.363 389.275 162.75 389.699C189.254 418.981 211.963 449.074 223.93 471.088L349.255 395.833C349.644 395.587 350.076 395.414 350.528 395.324L486.847 313.426L295.852 301.134L319.208 340C319.785 340.974 319.954 342.136 319.676 343.234C319.398 344.331 318.698 345.274 317.727 345.856L250.412 386.296C249.523 386.839 248.465 387.036 247.44 386.848C246.415 386.66 245.495 386.101 244.856 385.278C234.37 371.852 222.588 357.916 209.81 343.889C209.065 343.07 208.668 341.994 208.702 340.888C208.737 339.782 209.201 338.733 209.995 337.963L378.213 175.416C379.012 174.639 380.084 174.204 381.199 174.204C382.314 174.204 383.386 174.639 384.185 175.416L414.648 205.856L489.856 10.0693L294.023 85.2776L324.486 115.741C325.269 116.537 325.708 117.61 325.708 118.727C325.708 119.844 325.269 120.916 324.486 121.713L161.963 289.907C161.193 290.702 160.143 291.166 159.037 291.2C157.931 291.235 156.855 290.837 156.037 290.092C142.148 277.361 128.12 265.579 114.671 255.069C113.848 254.431 113.288 253.513 113.096 252.489C112.904 251.465 113.094 250.407 113.629 249.514L154.116 182.176C154.697 181.208 155.637 180.509 156.731 180.231C157.834 179.97 158.995 180.144 159.972 180.717L198.838 204.074L186.546 13.0785L104.694 149.305C104.598 149.763 104.426 150.201 104.185 150.602L28.8378 275.995C50.736 287.963 80.9443 310.717 110.204 337.153C110.628 337.533 110.969 337.997 111.208 338.514C111.447 339.031 111.578 339.592 111.592 340.162C111.612 340.735 111.518 341.306 111.316 341.843C111.113 342.379 110.806 342.87 110.412 343.287L10.1804 446.991Z" fill="#FFCD00"/>
<path d="M464.509 53.1018L398.213 173.264L410.667 185.718L464.509 53.1018Z" fill="#FFCD00"/>
<path d="M442.912 330.44L222.681 439.606L230.898 453.264L442.912 330.44Z" fill="#FFCD00"/>
<path d="M183.444 77.7776L188.653 188.241L175.204 180.162L183.444 77.7776Z" fill="#FFCD00"/>
</g>
<defs>
<clipPath id="clip0">
<rect width="500" height="500" fill="white"/>
</clipPath>
</defs>
</svg>
