<svg width="500" height="370" viewBox="0 0 500 370" fill="none" xmlns="http://www.w3.org/2000/svg">
<path d="M441.73 127.934C441.842 126.559 442.012 123.967 442.012 121.064C442.012 118.619 441.865 116.01 441.471 113.741L441.424 110.956C443.411 109.634 444.363 108.805 444.516 107.83C444.527 107.753 444.534 107.671 444.534 107.589C444.534 102.546 420.921 91.8859 410.578 88.3597C406.382 86.7201 401.863 85.2214 397.162 83.8523C398.713 82.7298 433.311 57.3249 425.829 34.9103C417.243 9.21632 359.15 -2.38965 253.158 0.407671C190.583 2.05904 125.085 24.7728 81.1518 43.532C33.5612 63.8538 0.335589 84.0459 0 84.2464L0.0880482 84.6578C0.663978 84.7341 58.1562 92.5327 118.116 131.332C153.324 154.116 182.484 182.976 204.782 217.11C232.649 259.786 249.816 310.861 255.809 368.935L255.816 369.006L255.875 369.065C255.963 369.153 256.08 369.182 256.21 369.141C260.059 368.013 306.667 287.467 314.12 257.165C314.473 257.124 314.82 257.088 315.154 257.053L324.986 283.24L325.827 282.946C322.994 273.614 320.502 264.893 318.328 256.707C321.531 256.355 323.793 256.108 324.363 256.049C324.452 258.235 324.798 266.51 324.798 266.51L358.531 301.06L359.377 300.707C359.471 300.666 369.238 296.558 374.216 297.052C376.032 297.228 377.037 298.157 378.306 299.32C379.975 300.854 382.055 302.77 386.328 302.588C398.498 302.059 407.114 299.432 411.92 294.783C424.92 282.237 438.535 250.454 439.112 249.11L438.213 247.288L436.608 246.876L440.311 240.283L439.723 238.426C439.723 238.426 432.583 234.994 430.461 233.977C431.707 232.149 435.127 227.154 435.127 227.154L433.652 225.109C433.652 225.109 419.577 229.129 419.007 229.293C418.52 229.211 410.192 227.736 407.054 227.183C408.882 224.95 412.62 220.372 412.62 220.372L411.062 218.286C411.062 218.286 398.38 223.658 394.901 225.127C392.45 217.017 387.314 211.91 382.36 209.13C390.652 199.051 405.75 191.218 409.04 189.584C410.915 190.618 412.302 191.629 413.048 192.217C412.584 193.774 407.677 210.129 407.677 210.129L409.769 211.575C409.769 211.575 423.691 200.897 425.125 199.798C426.177 200.556 428.91 202.53 430.12 203.406C429.157 205.181 423.174 216.258 423.174 216.258L424.784 218.162C424.784 218.162 437.684 213.72 439.758 213.009C439.87 213.291 440.193 214.108 440.193 214.108L450.201 219.079L458.07 214.225L460.074 214.648L460.568 214.272C461.561 213.514 484.622 195.637 489.933 178.7C496.597 175.814 500 172.112 500 167.698V167.563C499.747 151.114 449.513 130.964 441.731 127.937" fill="black"/>
<path d="M329.003 87.1899C328.98 86.9901 328.938 86.7903 328.909 86.5904C328.868 86.3613 328.821 86.1321 328.762 85.897C328.715 85.6914 328.656 85.4856 328.592 85.28C328.521 85.0449 328.445 84.8098 328.362 84.5747C328.286 84.3633 328.204 84.1516 328.115 83.9401C328.015 83.6991 327.904 83.4582 327.792 83.2113C327.728 83.0821 327.681 82.9527 327.616 82.8176C327.605 82.8176 327.593 82.8108 327.587 82.8063C327.499 82.6417 327.428 82.4772 327.34 82.3068C322.227 79.8032 317.449 77.7112 312.995 75.9482C312.801 75.8659 312.613 75.7954 312.425 75.7131C312.301 75.666 312.178 75.619 312.054 75.5663C304.044 72.3574 294.242 69.2369 284.417 68.1086C273.933 66.7804 267.462 68.1018 264.53 69.2957C263.684 69.5425 262.843 69.8069 262.02 70.1125C262.132 70.2889 262.244 70.4593 262.349 70.6356C265.635 70.4475 276.389 69.0136 290.194 71.7404C290.853 71.8167 291.522 71.8989 292.198 71.9931C301.342 74.0147 311.797 77.9522 322.377 85.3745C322.694 85.6507 323.017 85.9211 323.334 86.209C317.317 86.8085 313.232 87.3373 310.611 87.8369C308.825 88.0366 307.438 88.4657 306.48 89.0945C304.529 91.3688 324.563 94.0193 321.83 101.606C321.895 101.671 322.177 101.888 322.635 102.117C322.665 102.07 322.7 102.023 322.735 101.982C322.912 101.741 323.088 101.506 323.264 101.265C323.446 101.03 323.623 100.789 323.793 100.548C323.958 100.331 324.116 100.108 324.269 99.8901C324.44 99.6492 324.61 99.4141 324.774 99.1732C324.921 98.9617 325.068 98.7559 325.209 98.5443C325.368 98.3034 325.527 98.0742 325.674 97.8391C325.803 97.6335 325.938 97.4278 326.067 97.2221C326.208 96.987 326.35 96.7637 326.485 96.5345C326.602 96.3347 326.72 96.1349 326.831 95.935C326.967 95.7 327.084 95.4708 327.202 95.2475C327.307 95.0477 327.407 94.8596 327.501 94.6657C327.619 94.4306 327.719 94.1955 327.825 93.9604C327.907 93.7782 327.995 93.5961 328.071 93.4139C328.171 93.1495 328.265 92.885 328.359 92.6205C328.406 92.4678 328.471 92.3208 328.518 92.1739C328.642 91.7684 328.753 91.363 328.835 90.9575C328.871 90.8048 328.888 90.6518 328.912 90.5049C328.959 90.2404 329.006 89.976 329.035 89.7116C329.053 89.5352 329.059 89.3531 329.065 89.1709C329.083 88.9359 329.094 88.7007 329.094 88.4598C329.094 88.2717 329.076 88.0778 329.059 87.8839C329.047 87.6547 329.035 87.4255 329.006 87.1904M453.921 135.939C442.05 130.168 432.313 126.013 432.313 126.013L432.389 123.562L437.155 125.407L437.079 125.225C436.391 123.597 435.316 121.018 434.91 120.036C433.376 120.277 432.548 120.4 432.548 120.4L432.736 114.876C432.736 114.876 438.454 110.198 440.775 108.136C441.151 107.865 441.504 107.595 441.721 107.383C441.71 107.354 441.68 107.325 441.663 107.301C441.733 107.219 441.763 107.172 441.727 107.172C441.586 107.06 441.433 106.955 441.287 106.843C440.252 105.762 437.86 104.11 434.611 102.218C430.914 99.8847 427.012 97.7457 422.963 95.7709L419.59 105.82L393.044 89.7765L352.359 76.4538C352.294 76.4425 352.236 76.4358 352.171 76.4304C352.101 76.7595 352.024 77.0768 351.954 77.4059C351.695 78.5578 351.419 79.692 351.125 80.7909C351.118 80.8089 351.114 80.826 351.114 80.838C350.508 83.0947 349.839 85.2337 349.11 87.2671C349.086 87.3258 349.069 87.3963 349.045 87.4551C348.692 88.4307 348.328 89.3768 347.952 90.2995C347.917 90.3817 347.882 90.464 347.846 90.5464C347.47 91.469 347.076 92.374 346.671 93.2497C346.66 93.3027 346.63 93.3439 346.612 93.3907C345.772 95.2008 344.896 96.9227 343.973 98.5741C343.955 98.6153 343.926 98.6563 343.909 98.6975C343.462 99.485 343.01 100.255 342.557 101.007C342.504 101.101 342.445 101.189 342.392 101.277C342.01 101.912 341.611 102.523 341.211 103.134C349.386 102.329 361.674 100.402 377.029 96.9051C377.04 96.8983 377.053 96.8938 376.647 96.4702L376.23 93.1615L377.728 94.0431L401.436 106.484L398.051 102.036L399.144 101.36L402.899 104.245L421.176 118.731L420.318 120.876L403.211 126.589C403.211 126.589 429.074 123.915 465.164 157.864C465.194 157.893 465.223 157.922 465.258 157.958C465.281 157.705 479.527 158.122 494.747 162.271C495.117 162.553 495.482 162.841 495.852 163.135C490.263 153.879 469.847 143.078 453.921 135.937M342.404 21.0685C343.045 21.0865 343.674 21.1038 344.285 21.1272H344.467C345.061 21.1506 345.637 21.1743 346.207 21.1977C346.277 21.1977 346.348 21.2045 346.418 21.2045C347 21.234 347.57 21.2574 348.134 21.2867C348.234 21.2934 348.328 21.2979 348.428 21.3047C349.562 21.3635 350.65 21.4281 351.695 21.4986C351.772 21.5054 351.854 21.5098 351.931 21.5166C352.436 21.552 352.935 21.5871 353.423 21.6284C353.488 21.6284 353.558 21.6351 353.629 21.6396C354.105 21.6808 354.581 21.7218 355.039 21.7572C355.051 21.7639 355.063 21.7639 355.069 21.7639H355.076C362.651 22.428 367.211 23.3683 369.556 23.9736C369.909 24.0616 370.085 24.1029 370.196 24.097C405.287 32.0131 410.9 47.7572 410.951 47.9149L411.351 49.4192C411.445 48.5554 411.522 47.6915 411.545 46.8217C411.574 46.569 411.598 46.2576 411.615 45.9226C411.551 42.1203 410.51 35.8734 405.268 30.2433C404.933 29.879 404.587 29.5205 404.211 29.1562C394.514 19.8827 370.661 9.59829 312.052 13.2889C245.268 17.4966 148.39 38.6112 24.0986 76.0463L24.2221 76.4812C27.1487 75.6996 30.0401 74.9415 32.9197 74.1892C33.5132 74.0307 34.1068 73.8778 34.7003 73.7191C37.4801 72.9963 40.242 72.2734 42.9805 71.5682C43.4742 71.4389 43.9679 71.3155 44.4556 71.1862C47.0356 70.5221 49.6037 69.8639 52.1483 69.2116C52.4715 69.1294 52.8065 69.0411 53.1356 68.9589C55.8566 68.2655 58.5481 67.5838 61.228 66.9079C61.7922 66.7669 62.3505 66.6258 62.9087 66.4848C65.5885 65.8089 68.2449 65.1449 70.8719 64.4926C71.154 64.4221 71.4361 64.3516 71.7182 64.2811C74.1806 63.6699 76.6251 63.0646 79.0524 62.4769C79.5167 62.3593 79.9869 62.2419 80.4512 62.1302C82.9958 61.5073 85.5228 60.8902 88.0262 60.2849C88.5257 60.1673 89.0253 60.0498 89.5248 59.9264C92.0753 59.3093 94.6141 58.6981 97.1236 58.1046C97.147 58.0978 97.1706 58.0934 97.194 58.0866C99.7211 57.4872 102.213 56.8995 104.699 56.3177C105.192 56.2001 105.692 56.0826 106.185 55.9651C108.589 55.4009 110.975 54.8485 113.332 54.302C113.737 54.2139 114.143 54.1197 114.542 54.0257C116.77 53.5086 118.979 53.009 121.165 52.5095C121.447 52.4449 121.741 52.3744 122.023 52.3098C124.362 51.7868 126.672 51.2637 128.964 50.7524C129.446 50.6465 129.922 50.5351 130.404 50.4292C132.684 49.9238 134.952 49.4184 137.191 48.9248C137.438 48.8718 137.685 48.8189 137.926 48.766C140.03 48.3076 142.11 47.8491 144.178 47.4025C144.578 47.3203 144.978 47.232 145.377 47.1439C147.552 46.6797 149.703 46.2154 151.836 45.7629C152.259 45.6749 152.676 45.5866 153.099 45.4984C155.239 45.0459 157.366 44.5993 159.464 44.1645C159.529 44.1464 159.587 44.1352 159.64 44.1232C161.791 43.6766 163.913 43.2417 166.017 42.8127C166.422 42.7305 166.833 42.6481 167.239 42.5659C169.284 42.1487 171.312 41.7373 173.321 41.3376C173.662 41.2671 173.997 41.2025 174.332 41.132C176.207 40.7618 178.064 40.3916 179.909 40.0331C180.162 39.986 180.415 39.9331 180.667 39.8862C182.642 39.4984 184.587 39.1222 186.515 38.752C186.92 38.6756 187.32 38.5993 187.725 38.5228C189.659 38.1526 191.581 37.7882 193.473 37.4356C193.649 37.4002 193.825 37.371 194.007 37.3356C195.794 37.0006 197.563 36.6716 199.314 36.3542C199.655 36.2896 199.996 36.2308 200.343 36.1662C202.159 35.8312 203.963 35.508 205.744 35.1906C206.102 35.126 206.455 35.0613 206.813 34.9966C208.594 34.6852 210.357 34.3737 212.096 34.0681C212.161 34.0569 212.226 34.0447 212.29 34.0328C214.071 33.7213 215.828 33.4275 217.573 33.1278C217.938 33.0631 218.296 33.0044 218.661 32.9397C220.359 32.6576 222.04 32.3755 223.703 32.0993C223.979 32.0581 224.249 32.0112 224.526 31.9642C226.083 31.7115 227.623 31.4588 229.15 31.2179C229.374 31.1766 229.597 31.1415 229.815 31.1062C231.448 30.8476 233.059 30.589 234.657 30.3422C234.998 30.2893 235.327 30.2422 235.662 30.1895C237.266 29.9368 238.859 29.6958 240.428 29.4607C240.557 29.4427 240.681 29.4195 240.81 29.402C242.303 29.1785 243.766 28.9612 245.229 28.7496C245.512 28.7084 245.8 28.6674 246.082 28.6262C247.586 28.4027 249.067 28.1913 250.542 27.9856C250.824 27.9444 251.112 27.9035 251.394 27.8623C252.846 27.6625 254.291 27.4626 255.713 27.2687C255.778 27.2619 255.843 27.2506 255.907 27.2452C257.371 27.0455 258.811 26.8574 260.239 26.6693C260.527 26.6281 260.815 26.593 261.108 26.5576C262.501 26.3754 263.882 26.1991 265.234 26.0287C265.457 25.9994 265.675 25.9758 265.892 25.9465C267.155 25.7877 268.401 25.635 269.635 25.4881C269.829 25.4647 270.023 25.441 270.211 25.4176C271.539 25.259 272.844 25.1061 274.149 24.9592C274.413 24.9297 274.678 24.8946 274.942 24.8651C276.241 24.7183 277.528 24.5713 278.797 24.4361C278.903 24.4248 279.003 24.4127 279.115 24.401C280.308 24.2717 281.489 24.1482 282.659 24.0248C282.899 24.0014 283.135 23.9777 283.37 23.9543C284.574 23.8309 285.767 23.7075 286.943 23.5958C287.178 23.5724 287.395 23.5488 287.624 23.5312C288.788 23.4136 289.934 23.3077 291.062 23.2079C291.121 23.1967 291.186 23.1899 291.244 23.1899C292.408 23.0782 293.554 22.9785 294.694 22.8785C294.929 22.8605 295.164 22.8434 295.393 22.8197C296.498 22.7256 297.597 22.6375 298.678 22.5493C298.837 22.5381 298.996 22.5259 299.155 22.514C300.177 22.4318 301.176 22.3554 302.163 22.2789C302.31 22.2722 302.463 22.2609 302.604 22.2494C303.656 22.1731 304.69 22.1026 305.719 22.0321C305.924 22.0141 306.13 22.0028 306.33 21.9909C307.364 21.9204 308.381 21.8558 309.38 21.797C309.433 21.7902 309.486 21.7857 309.538 21.7857C310.508 21.7269 311.46 21.6739 312.4 21.621C312.577 21.6097 312.753 21.603 312.923 21.5915C313.876 21.5386 314.81 21.4916 315.732 21.4447C315.903 21.438 316.062 21.4334 316.232 21.4213C317.125 21.3801 318.007 21.3449 318.877 21.3037C318.935 21.3037 318.994 21.3037 319.053 21.2969C319.958 21.2616 320.845 21.2264 321.715 21.1969C321.892 21.1902 322.068 21.1857 322.238 21.1789C323.096 21.1494 323.948 21.126 324.777 21.1026C324.889 21.0958 325.001 21.0958 325.112 21.0958C325.894 21.0724 326.664 21.0546 327.422 21.037C327.533 21.037 327.651 21.0302 327.757 21.0302C328.562 21.019 329.349 21.001 330.125 20.9951C330.277 20.9884 330.43 20.9884 330.583 20.9838C331.365 20.9771 332.135 20.9726 332.887 20.9658H332.987C333.721 20.9591 334.444 20.9591 335.161 20.9658H335.531C336.248 20.9658 336.948 20.9726 337.635 20.9771H337.988C338.658 20.9884 339.322 21.0005 339.974 21.0066C340.009 21.0066 340.045 21.0134 340.08 21.0134C340.75 21.0247 341.408 21.0368 342.055 21.0546C342.172 21.0546 342.29 21.0613 342.407 21.0658M359.05 297.735V297.742C359.097 297.795 359.15 297.848 359.18 297.877C359.591 297.713 360.149 297.489 360.807 297.254C363.975 296.332 370.745 294.445 375.388 294.545C376.51 294.633 379.19 296.837 381.229 298.312C381.617 298.624 382.023 298.906 382.463 299.146C382.939 299.44 383.321 299.605 383.551 299.587C383.574 299.599 383.604 299.605 383.627 299.611C383.638 299.658 383.862 299.74 384.42 299.787C384.955 299.875 385.537 299.922 386.213 299.893C389.98 299.728 393.376 299.358 396.391 298.794C400.176 298.787 403.761 297.395 407.122 295.068C408.239 294.392 409.226 293.652 410.06 292.841C410.384 292.523 410.719 292.194 411.036 291.853C419.728 283.626 426.709 269.68 431.634 258.873C433.679 254.677 435.219 251.275 436.018 249.471C434.19 249 416.237 244.381 403.597 241.12C403.867 247.084 403.708 284.12 359.051 297.737M476.057 173.326L472.237 175.124L472.155 175.171L471.92 175.277V175.266L469.393 169.113L469.058 168.261C468.229 170.441 463.381 180.308 441.796 186.973C444.2 190.622 442.642 194.389 446.433 199.672C453.802 205.637 475.264 196.029 481.023 173.715C481.041 173.704 480.917 173.679 480.723 173.656C479.019 173.515 476.057 173.327 476.057 173.327" fill="#B5A36A"/>
<path d="M355.085 21.7646C432.049 29.624 383.861 78.9477 383.861 78.9477V78.951L395.771 81.3297C395.771 81.3297 395.791 81.3126 395.814 81.2835C395.825 81.2723 395.842 81.2476 395.86 81.2241C395.883 81.2007 395.9 81.1834 395.929 81.1483C395.947 81.1248 395.965 81.0998 395.982 81.0823C396.047 81.0059 396.118 80.9242 396.206 80.8183C396.271 80.742 396.335 80.6617 396.418 80.5676C396.447 80.5264 396.484 80.4842 396.513 80.4488C396.584 80.3607 396.652 80.2781 396.734 80.1783C396.769 80.1312 396.812 80.0799 396.853 80.0331C396.883 79.9919 396.919 79.9497 396.949 79.9143C397.008 79.8438 397.065 79.7671 397.124 79.6966C397.182 79.6261 397.242 79.5488 397.295 79.4722C397.306 79.461 397.314 79.4486 397.325 79.4425C397.336 79.4245 397.343 79.4141 397.355 79.3963C397.437 79.2963 397.517 79.1913 397.605 79.0796C397.652 79.0208 397.7 78.9569 397.747 78.8982C397.853 78.7572 397.963 78.6155 398.08 78.4627C398.139 78.3863 398.199 78.3082 398.252 78.2317C398.317 78.1554 398.375 78.0733 398.44 77.9909C398.499 77.9087 398.559 77.8348 398.618 77.7467C398.695 77.6528 398.762 77.5504 398.833 77.4564C398.95 77.2918 399.075 77.1352 399.199 76.9648C399.269 76.8648 399.346 76.7638 399.417 76.658C399.558 76.4641 399.698 76.2705 399.839 76.0707C399.904 75.9826 399.968 75.8949 400.027 75.8068C400.121 75.6716 400.214 75.5361 400.314 75.401C400.373 75.3129 400.433 75.2251 400.492 75.137C400.563 75.037 400.632 74.936 400.697 74.8302C400.849 74.6187 401.002 74.3962 401.149 74.1671C401.225 74.0612 401.296 73.9489 401.373 73.8371C401.538 73.5844 401.714 73.3197 401.884 73.0552C401.949 72.9552 402.014 72.8608 402.073 72.755C402.243 72.4964 402.406 72.2375 402.571 71.9731C402.641 71.8672 402.701 71.7688 402.772 71.663C402.954 71.3573 403.141 71.0532 403.33 70.7359C403.382 70.6537 403.435 70.5699 403.488 70.4818C403.699 70.1234 403.916 69.76 404.128 69.3898C404.151 69.3486 404.177 69.3122 404.2 69.271C404.518 68.7127 404.833 68.1372 405.151 67.5555C405.204 67.4555 405.256 67.361 405.309 67.2552C405.339 67.2081 405.365 67.1602 405.388 67.1134C405.706 66.5198 406.016 65.9158 406.322 65.2988C406.329 65.2921 406.332 65.2811 406.338 65.2757C406.421 65.0994 406.51 64.9208 406.592 64.7445C406.64 64.6504 406.687 64.5515 406.734 64.4575C406.817 64.2812 406.903 64.1059 406.985 63.9296C407.015 63.8709 407.038 63.8169 407.061 63.7581C407.202 63.4466 407.343 63.1352 407.49 62.8178C407.537 62.7119 407.579 62.6069 407.632 62.5011C407.679 62.3952 407.727 62.2761 407.774 62.1646C407.862 61.9589 407.949 61.7558 408.038 61.5443C408.044 61.5375 408.044 61.5356 408.044 61.5311C408.109 61.3725 408.174 61.222 408.239 61.0692C408.286 60.9516 408.334 60.833 408.381 60.7096C408.469 60.504 408.548 60.287 408.625 60.0695C408.689 59.9168 408.751 59.7637 408.81 59.6109C408.868 59.4582 408.918 59.3051 408.971 59.1524C409.036 58.976 409.1 58.7982 409.159 58.6278C409.218 58.4514 409.283 58.2828 409.347 58.1065C409.394 57.9479 409.456 57.7868 409.509 57.6281C409.621 57.2872 409.733 56.9429 409.832 56.6021C409.885 56.4316 409.931 56.2677 409.984 56.0973C409.991 56.068 409.995 56.0375 410.007 56.0082C410.101 55.6908 410.19 55.3721 410.278 55.0547C410.319 54.8842 410.365 54.7145 410.406 54.5499C410.494 54.1973 410.584 53.8435 410.66 53.4909C410.696 53.3262 410.731 53.1679 410.766 53.0092C410.801 52.8504 410.83 52.6928 410.865 52.5341C410.906 52.3343 410.948 52.1302 410.984 51.9303C411.013 51.7657 411.034 51.6066 411.07 51.4421C411.105 51.2423 411.13 51.0414 411.165 50.8416C411.183 50.683 411.211 50.5252 411.234 50.3665C411.258 50.1902 411.284 50.0182 411.307 49.8419C411.307 49.8352 411.307 49.831 411.314 49.8188C411.325 49.6837 411.342 49.5555 411.353 49.4262L410.947 47.9152C410.9 47.7566 405.289 32.0199 370.199 24.0974C370.087 24.1086 369.911 24.0661 369.559 23.972C369.423 23.9425 369.287 23.9084 369.14 23.873C369.104 23.8618 369.069 23.8548 369.034 23.8433C368.887 23.8082 368.737 23.7724 368.572 23.7312H368.559C368.4 23.6899 368.238 23.6543 368.067 23.619C368.026 23.6077 367.977 23.6008 367.935 23.5893C367.753 23.5481 367.571 23.5084 367.371 23.4672H367.355C367.167 23.426 366.967 23.3864 366.767 23.3451C366.715 23.3339 366.659 23.3267 366.612 23.3155C366.395 23.2742 366.172 23.2247 365.943 23.1835C365.936 23.1835 365.933 23.1836 365.926 23.1769C365.703 23.1415 365.474 23.096 365.233 23.0548C365.175 23.0436 365.114 23.0364 365.055 23.0251C364.803 22.978 364.55 22.9377 364.28 22.8965C364.273 22.8897 364.269 22.8899 364.257 22.8899C363.998 22.8428 363.721 22.8024 363.445 22.7612C363.386 22.7499 363.329 22.7376 363.27 22.7315C362.982 22.6903 362.688 22.6433 362.376 22.5962C362.358 22.5962 362.348 22.5964 362.33 22.5896C362.036 22.5484 361.735 22.5055 361.429 22.4643C361.359 22.453 361.289 22.4458 361.225 22.4346C360.89 22.3933 360.562 22.3471 360.215 22.3059C360.197 22.3059 360.183 22.2993 360.166 22.2993C359.831 22.2581 359.492 22.2184 359.14 22.1772C359.069 22.1705 359.002 22.1595 358.932 22.1541C358.55 22.1071 358.174 22.0667 357.78 22.0255H357.751C357.375 21.9842 356.986 21.942 356.593 21.9067C356.51 21.8954 356.431 21.889 356.349 21.8836C355.943 21.8424 355.52 21.8002 355.085 21.7648L355.085 21.7646ZM318.659 34.4403C275.512 33.9165 201.705 48.5725 75.9707 96.8092C392.781 -12.17 353.49 74.1822 353.49 74.1822L377.315 78.3492C377.315 78.3492 390.573 35.3133 318.661 34.4399L318.659 34.4403ZM272.321 70.0944C267.496 70.1355 263.986 70.5414 262.344 70.6354C281.309 101.859 306.459 107.349 306.719 107.403L307.072 109.9C307.072 109.9 283.555 122.193 281.81 123.104C282.304 125.014 288.92 150.942 288.92 150.942C288.92 150.942 263.462 169.753 261.727 171.035C262.762 172.992 286.986 218.62 286.986 218.62C286.986 218.62 283.258 254.833 282.941 257.87C284.928 257.647 302.337 255.744 314.254 254.446C313.59 252.489 312.954 250.548 312.337 248.626L312.34 248.623C311.776 246.86 311.228 245.115 310.688 243.387C310.681 243.376 310.681 243.363 310.681 243.357C310.469 242.675 310.266 242.001 310.054 241.325C310.047 241.318 310.047 241.305 310.047 241.305C310.041 241.298 310.039 241.294 310.034 241.282C309.541 239.648 309.073 238.026 308.602 236.415V236.409C308.591 236.385 308.576 236.356 308.576 236.326C308.565 236.297 308.558 236.274 308.553 236.251C308.3 235.381 308.038 234.511 307.797 233.647V233.641C307.797 233.634 307.788 233.631 307.788 233.624C307.388 232.214 307.025 230.821 306.649 229.428C306.638 229.386 306.631 229.351 306.62 229.316C306.613 229.309 306.613 229.31 306.613 229.306C306.39 228.454 306.147 227.602 305.93 226.755C305.923 226.749 305.923 226.742 305.923 226.742C305.923 226.742 305.917 226.732 305.917 226.726V226.712C305.147 223.762 304.447 220.871 303.789 218.009C303.748 217.839 303.715 217.675 303.68 217.504C303.669 217.469 303.666 217.441 303.654 217.405C303.054 214.778 302.502 212.179 301.991 209.622C301.991 209.611 301.984 209.589 301.984 209.583C301.973 209.53 301.966 209.481 301.954 209.434C301.796 208.629 301.62 207.813 301.473 207.019V207.003C301.144 205.281 300.851 203.589 300.569 201.902C300.569 201.879 300.569 201.867 300.562 201.843C300.539 201.69 300.503 201.537 300.48 201.384V201.371C300.18 199.537 299.905 197.736 299.658 195.944C299.588 195.521 299.522 195.084 299.463 194.66V194.644C299.405 194.203 299.351 193.768 299.292 193.328V193.298C299.221 192.775 299.169 192.25 299.104 191.727C298.61 187.59 298.246 183.567 298.028 179.659V179.633L298.018 179.501C298 179.13 297.977 178.758 297.959 178.382C297.959 178.382 297.959 178.377 297.952 178.372C297.894 177.126 297.853 175.895 297.824 174.667C297.817 174.444 297.811 174.223 297.804 173.994V173.964V173.945C297.774 172.375 297.763 170.826 297.781 169.293C297.781 169.058 297.783 168.809 297.794 168.573C297.794 168.103 297.799 167.641 297.804 167.171V167.145C297.811 166.875 297.817 166.593 297.824 166.317V166.31C297.865 165.223 297.921 164.16 297.985 163.09C298.009 162.579 298.029 162.044 298.058 161.533V161.526V161.516C298.176 159.847 298.315 158.207 298.497 156.597C301.494 129.622 312.538 115.264 320.595 104.779C321.283 103.88 321.947 103.013 322.588 102.173C322.599 102.149 322.61 102.131 322.627 102.113C322.169 101.884 321.887 101.667 321.822 101.608C324.555 94.0215 304.523 91.3679 306.474 89.0879C305.804 89.5345 305.334 90.072 305.105 90.7243C303.765 94.55 309.527 101.461 313.03 103.377L312.037 105.845C267.356 93.7677 269.275 74.2445 269.374 73.4168L269.49 72.4766L270.413 72.2753C270.578 72.2399 279.006 70.4773 290.189 71.7408C283.287 70.3774 277.145 70.0534 272.321 70.0945L272.321 70.0944ZM245.158 73.6047C224.048 73.9046 181.828 81.1962 127.785 124.799C231.405 56.9103 276.67 94.4292 276.67 94.4292L259.989 74.7753C259.989 74.7753 254.755 73.4678 245.159 73.6041L245.158 73.6047ZM352.36 76.4519L393.047 89.7807L419.592 105.822L422.964 95.7754C399.915 84.5624 372.172 79.0022 352.361 76.4525L352.36 76.4519ZM272.635 94.3338C257.279 94.3986 195.529 99.9344 190.316 184.353C205.202 98.5991 296.921 108.721 296.921 108.128C283.815 102.768 276.076 94.4294 276.076 94.4294C276.076 94.4294 274.828 94.3245 272.635 94.3337L272.635 94.3338ZM377.033 96.9071C361.677 100.398 349.394 102.325 341.22 103.136C341.138 103.265 341.056 103.402 340.979 103.525C340.968 103.537 340.961 103.547 340.95 103.565C340.444 104.335 339.933 105.088 339.415 105.828C339.409 105.835 339.406 105.847 339.399 105.858C338.876 106.598 338.351 107.335 337.822 108.052C337.811 108.059 337.804 108.063 337.799 108.075C337.27 108.792 336.729 109.5 336.189 110.2V110.206C336.159 110.235 336.136 110.267 336.113 110.302C335.402 111.219 334.679 112.117 333.962 113.004L333.952 113.017C332.489 114.827 330.999 116.595 329.524 118.352C328.99 118.987 328.456 119.621 327.928 120.256C327.804 120.403 327.679 120.55 327.561 120.691C327.485 120.785 327.41 120.874 327.334 120.962C327.199 121.126 327.063 121.291 326.928 121.45C326.921 121.457 326.922 121.46 326.918 121.46C326.911 121.471 326.905 121.478 326.898 121.49L326.575 121.882C326.398 122.088 326.228 122.29 326.063 122.496C325.975 122.608 325.888 122.711 325.8 122.823C325.6 123.058 325.406 123.301 325.212 123.542C325.148 123.612 325.093 123.682 325.034 123.753C324.975 123.829 324.911 123.904 324.853 123.981C324.765 124.086 324.69 124.188 324.602 124.294C324.526 124.394 324.441 124.494 324.364 124.588C324.247 124.729 324.149 124.862 324.031 125.003C323.866 125.215 323.7 125.422 323.53 125.633C323.459 125.728 323.383 125.82 323.312 125.914C323.265 125.973 323.224 126.033 323.183 126.085C323.066 126.232 322.955 126.374 322.843 126.521C322.661 126.756 322.478 126.995 322.296 127.23C322.272 127.265 322.243 127.297 322.22 127.333C322.179 127.386 322.142 127.431 322.101 127.484C321.954 127.684 321.808 127.884 321.656 128.078C321.649 128.089 321.646 128.096 321.639 128.101C321.586 128.172 321.531 128.242 321.484 128.312C321.343 128.5 321.204 128.682 321.068 128.87C320.939 129.046 320.809 129.225 320.686 129.401C320.674 129.412 320.663 129.422 320.663 129.434C320.522 129.622 320.385 129.811 320.244 130.005C320.12 130.181 319.997 130.359 319.874 130.53C319.739 130.723 319.603 130.916 319.468 131.104C319.386 131.227 319.31 131.346 319.227 131.463C319.221 131.474 319.217 131.488 319.204 131.5C319.169 131.552 319.128 131.606 319.092 131.664L319.082 131.674C318.953 131.874 318.819 132.062 318.69 132.262C318.613 132.367 318.542 132.487 318.465 132.598C318.412 132.675 318.36 132.757 318.314 132.839C318.184 133.027 318.054 133.213 317.931 133.413C317.896 133.466 317.861 133.525 317.825 133.578C317.802 133.613 317.777 133.649 317.759 133.69C317.724 133.737 317.689 133.789 317.654 133.842C317.624 133.895 317.591 133.947 317.561 133.994C317.426 134.205 317.288 134.42 317.159 134.637C317.035 134.825 316.927 135.016 316.809 135.205C316.686 135.416 316.556 135.63 316.426 135.841C316.309 136.035 316.198 136.235 316.08 136.435C315.957 136.647 315.825 136.858 315.707 137.075C315.625 137.222 315.545 137.367 315.463 137.514C315.41 137.608 315.357 137.71 315.305 137.804C315.293 137.828 315.273 137.85 315.262 137.874C315.174 138.032 315.093 138.18 315.011 138.339C314.982 138.392 314.95 138.445 314.915 138.504C314.786 138.745 314.655 138.996 314.526 139.243C314.456 139.372 314.386 139.496 314.321 139.626C314.315 139.644 314.312 139.66 314.305 139.672C314.287 139.695 314.281 139.714 314.275 139.738C314.169 139.932 314.068 140.135 313.968 140.335C313.868 140.54 313.765 140.743 313.665 140.949C313.541 141.201 313.416 141.458 313.292 141.711C313.198 141.91 313.106 142.111 313.012 142.311C312.906 142.54 312.805 142.769 312.705 143.004C312.599 143.233 312.495 143.464 312.395 143.693C312.354 143.787 312.317 143.873 312.276 143.967C312.217 144.108 312.153 144.262 312.088 144.409C311.994 144.644 311.889 144.874 311.801 145.109C311.73 145.256 311.672 145.415 311.619 145.567C311.555 145.726 311.489 145.884 311.425 146.043C311.354 146.219 311.285 146.388 311.22 146.57C311.173 146.688 311.132 146.806 311.085 146.923C311.026 147.082 310.966 147.246 310.913 147.405C310.825 147.622 310.742 147.846 310.659 148.075C310.648 148.11 310.644 148.148 310.626 148.177C310.62 148.188 310.613 148.205 310.613 148.217C310.543 148.434 310.46 148.653 310.389 148.87C310.307 149.111 310.22 149.346 310.138 149.592C310.115 149.675 310.086 149.764 310.062 149.847C310.033 149.94 310.002 150.026 309.973 150.12C309.944 150.22 309.904 150.327 309.874 150.427C309.792 150.686 309.709 150.944 309.627 151.202V151.226C309.527 151.537 309.437 151.855 309.343 152.172C309.284 152.384 309.22 152.594 309.155 152.806C309.073 153.112 308.993 153.425 308.911 153.736C308.899 153.76 308.898 153.782 308.891 153.806C308.826 154.029 308.768 154.252 308.709 154.475C308.616 154.846 308.52 155.228 308.432 155.61C308.385 155.81 308.334 156.004 308.287 156.204C308.287 156.234 308.274 156.264 308.267 156.293C308.191 156.628 308.116 156.969 308.04 157.309C307.993 157.533 307.939 157.76 307.898 157.989C307.891 157.996 307.891 158.007 307.891 158.012C307.832 158.277 307.779 158.547 307.726 158.817L307.69 158.989C307.643 159.253 307.59 159.517 307.532 159.794C307.49 160.04 307.444 160.293 307.403 160.546L307.363 160.754C307.357 160.801 307.35 160.841 307.344 160.882C307.297 161.147 307.249 161.403 307.202 161.668C307.184 161.785 307.167 161.91 307.156 162.027C307.132 162.133 307.114 162.239 307.103 162.351C307.073 162.515 307.05 162.686 307.02 162.862C306.985 163.097 306.95 163.334 306.915 163.575C306.908 163.628 306.897 163.679 306.892 163.726C306.85 164.05 306.804 164.376 306.763 164.7C306.728 164.988 306.685 165.283 306.644 165.571V165.6C306.615 165.818 306.598 166.041 306.568 166.27C306.55 166.435 306.533 166.601 306.515 166.772C306.486 167.054 306.449 167.328 306.42 167.616C306.413 167.634 306.413 167.658 306.413 167.676C306.413 167.699 306.407 167.728 306.407 167.751C306.371 168.081 306.344 168.416 306.314 168.751C306.285 169.074 306.254 169.385 306.225 169.708C306.196 170.078 306.172 170.454 306.143 170.83C306.119 171.176 306.091 171.513 306.073 171.866C306.05 172.242 306.025 172.628 306.007 173.01C305.989 173.363 305.966 173.717 305.948 174.069C305.941 174.24 305.938 174.41 305.932 174.581V174.611C305.925 174.822 305.92 175.046 305.902 175.257V175.267C305.895 175.631 305.878 175.989 305.872 176.359C305.865 176.565 305.862 176.771 305.862 176.983C305.855 177.218 305.849 177.467 305.842 177.702C305.842 178.031 305.833 178.353 305.833 178.682V179.286C305.833 179.526 305.826 179.774 305.826 180.021C305.826 180.38 305.826 180.739 305.833 181.103C305.833 181.562 305.842 182.031 305.842 182.489C305.854 182.865 305.86 183.231 305.866 183.608C305.866 183.643 305.872 183.682 305.872 183.723C305.872 183.841 305.882 183.96 305.882 184.089C305.893 184.295 305.893 184.51 305.905 184.716V184.934C305.923 185.345 305.934 185.753 305.951 186.164C305.963 186.617 305.993 187.079 306.011 187.543C306.034 187.949 306.05 188.354 306.073 188.771C306.08 188.859 306.082 188.954 306.087 189.048C306.098 189.183 306.104 189.33 306.11 189.477C306.128 189.724 306.144 189.965 306.156 190.206C306.179 190.635 306.209 191.058 306.238 191.493C306.268 191.975 306.309 192.457 306.351 192.944C306.38 193.356 306.408 193.772 306.443 194.195C306.484 194.677 306.53 195.166 306.572 195.66C306.578 195.701 306.58 195.747 306.585 195.788C306.626 196.211 306.662 196.636 306.704 197.065C306.71 197.13 306.721 197.198 306.727 197.263C306.75 197.498 306.772 197.74 306.796 197.969C306.803 198.075 306.82 198.18 306.826 198.286C306.844 198.415 306.847 198.539 306.865 198.669C306.912 199.127 306.96 199.579 307.007 200.031C307.042 200.325 307.077 200.624 307.106 200.912C307.141 201.194 307.173 201.471 307.208 201.747L307.215 201.796C307.262 202.213 307.313 202.617 307.36 203.04C307.401 203.346 307.438 203.659 307.479 203.97C307.514 204.211 307.542 204.453 307.571 204.7C307.636 205.187 307.701 205.675 307.766 206.174C307.784 206.327 307.808 206.491 307.832 206.649C307.843 206.72 307.851 206.79 307.868 206.861C307.915 207.248 307.968 207.648 308.027 208.042C308.091 208.477 308.156 208.911 308.215 209.351C308.303 209.916 308.39 210.492 308.479 211.074C308.555 211.585 308.636 212.096 308.713 212.608C308.736 212.743 308.755 212.871 308.779 213C308.855 213.482 308.937 213.971 309.013 214.459C309.101 214.964 309.179 215.465 309.267 215.976C309.367 216.57 309.478 217.169 309.584 217.774C309.672 218.321 309.771 218.862 309.871 219.421C309.871 219.432 309.876 219.449 309.881 219.467C309.928 219.761 309.987 220.059 310.046 220.364C310.104 220.705 310.169 221.053 310.234 221.4C310.24 221.424 310.247 221.453 310.247 221.483C310.335 221.947 310.423 222.422 310.517 222.898C310.559 223.121 310.605 223.351 310.646 223.574C310.67 223.668 310.681 223.763 310.699 223.845C310.769 224.186 310.826 224.519 310.897 224.854C311.003 225.407 311.108 225.953 311.22 226.517C311.267 226.741 311.315 226.969 311.362 227.187C311.421 227.481 311.481 227.771 311.54 228.065C311.581 228.258 311.615 228.452 311.662 228.652C311.762 229.163 311.873 229.675 311.979 230.186C312.097 230.75 312.222 231.331 312.345 231.895C312.363 231.983 312.38 232.066 312.398 232.142C312.409 232.189 312.416 232.244 312.428 232.291C312.557 232.879 312.679 233.463 312.814 234.062C312.92 234.533 313.019 235.011 313.13 235.481C313.195 235.769 313.254 236.044 313.319 236.326C313.436 236.86 313.555 237.391 313.678 237.926C313.725 238.143 313.777 238.372 313.83 238.589C313.865 238.748 313.9 238.895 313.935 239.048C314.029 239.459 314.126 239.863 314.226 240.268C314.355 240.856 314.494 241.446 314.635 242.04C314.642 242.063 314.646 242.093 314.658 242.122C314.705 242.31 314.746 242.496 314.793 242.69C314.817 242.784 314.836 242.873 314.859 242.967C314.959 243.373 315.053 243.779 315.153 244.184C315.317 244.848 315.47 245.5 315.635 246.164C315.746 246.611 315.86 247.071 315.971 247.523C316.053 247.829 316.128 248.132 316.199 248.444C316.358 249.061 316.505 249.672 316.664 250.295C316.881 251.135 317.103 251.99 317.32 252.842C317.426 253.247 317.541 253.664 317.641 254.076C321.995 253.6 325.08 253.262 325.45 253.221C325.473 253.221 325.486 253.214 325.486 253.214L326.971 254.491C326.971 254.491 327.382 264.422 327.429 265.362C328.105 266.05 356.73 295.376 359.046 297.751V297.745C403.704 284.122 403.862 247.085 403.592 241.126C403.569 241.114 403.533 241.108 403.51 241.103C395.394 240.797 387.173 241.665 379.798 242.459C367.598 243.769 358.771 244.705 356.374 239.681V239.674L356.361 239.661C355.033 237.733 354.292 234.907 354.292 231.416C354.292 224.658 357.125 215.462 363.566 205.794C363.66 205.647 363.75 205.496 363.85 205.349L363.985 205.108L364.008 205.101C365.501 202.821 367.222 200.599 369.102 198.49C371.03 196.215 373.1 193.944 375.48 191.693C377.302 189.977 379.192 188.438 381.155 187.074C389.235 180.91 414.231 164.966 437.757 182.238C439.542 183.794 440.832 185.398 441.801 186.972C463.374 180.308 468.227 170.445 469.057 168.266L465.055 158.031L465.16 157.866C429.077 123.91 403.214 126.586 403.214 126.586L420.162 120.924L410.356 116.025C409.251 116.56 394.371 123.811 394.371 123.811L392.461 122.818C392.461 122.818 389.673 105.37 389.485 104.201C388.698 103.737 380.572 98.9754 377.034 96.9066L377.033 96.9071ZM441.801 186.972C441.798 186.973 441.796 186.975 441.794 186.976H441.804C441.803 186.974 441.801 186.974 441.801 186.972ZM279.049 124.798C279.049 124.798 178.402 155.769 266.541 321.911C198.059 172.435 284.406 145.642 284.406 145.642L279.048 124.791L279.049 124.798ZM470.808 161.67C470.855 162.134 471.049 163.932 471.273 166.077C471.302 166.271 471.312 166.47 471.335 166.681C471.353 166.893 471.384 167.11 471.401 167.328C471.419 167.469 471.436 167.616 471.448 167.763C471.495 168.175 471.536 168.59 471.583 169.007C471.59 169.072 471.591 169.131 471.603 169.202C471.644 169.59 471.683 169.967 471.718 170.337C471.824 171.318 471.925 172.229 472.002 172.999C472.031 173.252 472.054 173.511 472.078 173.728C472.154 174.463 472.212 174.981 472.229 175.134L476.05 173.333C476.05 173.333 478.966 173.515 480.682 173.656C479.683 172.451 471.619 162.657 470.808 161.67L470.808 161.67ZM497.014 169.492C493.934 172.284 488.467 175.455 487.938 175.761C487.891 175.825 478.166 190.905 472.237 200.095C478.59 193.555 485.301 185.206 487.575 177.337L487.75 176.713L488.35 176.466C493.205 174.456 496.109 172.118 497.014 169.491L497.014 169.492Z" fill="#B5A36A" stroke="#B5A36A" stroke-width="0.915598"/>
<path d="M405.423 182.05C401.929 182.022 398.474 182.487 395.11 183.413C395.228 183.406 395.331 183.41 395.443 183.403C395.878 183.385 396.312 183.385 396.753 183.396C397.029 183.396 397.308 183.405 397.584 183.416C397.872 183.434 398.16 183.458 398.442 183.476C398.836 183.517 399.222 183.544 399.603 183.591C399.68 183.603 399.758 183.616 399.834 183.627C408.814 184.85 415.119 190.415 415.489 190.75L416.113 191.315C416.113 191.315 412.909 201.974 411.428 206.91C415.601 203.707 425.074 196.445 425.074 196.445L433.589 202.605C433.589 202.605 429.16 210.802 427.162 214.498C431.311 213.07 441.293 209.632 441.293 209.632C441.293 209.632 442.092 211.635 442.292 212.152C443.056 212.529 448.981 215.474 450.062 216.009C450.708 215.61 452.436 214.54 454.282 213.406L444.654 211.344L444.367 210.78C444.215 210.492 443.546 208.539 442.229 205.736C435.971 193.582 424.645 184.968 411.744 182.641C409.629 182.262 407.52 182.067 405.423 182.05L405.423 182.05ZM365.609 207.692C365.432 208.016 364.95 208.892 364.339 209.979C367.583 210.484 376.468 212.377 379.677 218.26L377.321 219.537C374.318 214.024 364.256 212.652 363.016 212.499C362.199 214.392 361.604 216.268 361.287 218.072C364.449 221.592 373.607 229.008 391.613 223.948C385.572 207.98 369.175 207.581 365.608 207.692L365.609 207.692ZM358.443 222.79C357.491 226.122 357.044 229.137 357.044 231.658C357.044 234.585 357.627 236.866 358.614 238.247L358.703 238.359L358.756 238.481C360.278 241.86 369.192 240.901 379.512 239.791C388.338 238.85 398.355 237.778 408.11 238.712L408.314 238.745L408.456 238.794C409.391 239.106 424.258 242.538 434.619 244.918C435.212 243.866 436.48 241.614 437.268 240.21C435.276 239.252 427.888 235.703 427.888 235.703L427.36 233.74C427.36 233.74 429.19 231.07 430.811 228.695C426.674 229.883 419.146 232.034 419.146 232.034L404.335 229.415L403.53 227.25C403.53 227.25 405.321 225.055 407.12 222.862C402.072 224.996 394.622 228.145 394.622 228.145L394.375 228.154C390.426 228.308 385.659 228.408 380.911 228.319C379.788 228.337 378.709 228.309 377.674 228.227C371.703 227.986 366.072 227.382 362.458 226.112L362.399 226.168C361.488 225.863 358.749 224.952 358.443 222.79L358.443 222.79Z" fill="white"/>
<path d="M366.758 121.593C356.956 121.559 351.182 123.177 351.182 123.177C351.182 123.177 399.869 114.009 452.148 163.421L450.957 163.82L451.801 166.36L458.562 164.11L457.714 161.57L454.705 162.57C418.85 127.74 385.469 121.659 366.758 121.593L366.758 121.593ZM376.091 139.489C346.863 139.787 326.979 155.536 326.979 155.536C326.979 155.536 378.754 119.283 433.937 163.24L432.185 163.821L433.039 166.361L440.925 163.735L440.067 161.188L436.517 162.376C414.53 144.693 393.628 139.309 376.092 139.488L376.091 139.489ZM389.374 160.697C351.468 160.933 330.225 194.038 330.225 194.038C330.225 194.038 362.134 148.764 415.349 167.552L414.175 167.948L415.019 170.491L421.779 168.235L420.932 165.694L418.223 166.595C407.757 162.337 398.121 160.642 389.375 160.696L389.374 160.697ZM453.643 173.363L449.14 176.358L450.621 178.592L455.125 175.59L453.643 173.363V173.363ZM439.559 173.63L434.679 175.887L435.804 178.315L440.681 176.071L439.559 173.63H439.559Z" fill="black"/>
</svg>
