<?xml version="1.0" encoding="UTF-8" standalone="no"?>
<svg width="250px" height="250px" viewBox="0 0 250 250" version="1.1" xmlns="http://www.w3.org/2000/svg" xmlns:xlink="http://www.w3.org/1999/xlink">
    <!-- Generator: Sketch 47.1 (45422) - http://www.bohemiancoding.com/sketch -->
    <title>SEATTLE</title>
    <desc>Created with Sketch.</desc>
    <defs>
        <polygon id="path-1" points="0.0263385827 249.973684 0.0263385827 0.136403509 222.689205 0.136403509 222.689205 249.973684"></polygon>
    </defs>
    <g id="Page-1" stroke="none" stroke-width="1" fill="none" fill-rule="evenodd">
        <g id="SEATTLE">
            <g id="seat" transform="translate(14.000000, 0.000000)">
                <g id="Group-3">
                    <mask id="mask-2" fill="white">
                        <use xlink:href="#path-1"></use>
                    </mask>
                    <g id="Clip-2"></g>
                    <path d="M147.20985,250 L89.9910354,250 C61.9821476,250 48.6157559,228.303509 45.4388839,211.304386 C18.5818701,210.335526 0,189.610088 0,160.233772 L0,120.292105 L40.865628,120.292105 C37.035998,118.004386 33.8134724,116.077632 31.6695118,114.797368 C30.1177303,113.86886 29.138374,113.283333 28.9140571,113.148684 C18.0748524,107.054386 0,92.6482456 0,64.4232456 L0,51.2394737 C0,13.5192982 24.0501988,0.136403509 44.6438976,0.136403509 L100.388191,0.136403509 C129.184163,0.136403509 142.89998,19.4052632 146.653667,39.2767544 L222.689205,39.2767544 L211.630073,50.3144737 C211.630073,50.3144737 197.879577,64.0377193 192.536356,69.3741228 C192.537673,96.7627193 192.562695,203.534649 192.562695,203.534649 C192.562695,218.697368 181.476785,250 147.20985,250" id="Fill-1" fill="#1A1919" mask="url(#mask-2)"></path>
                </g>
                <path d="M207.055939,45.7416667 L141.035209,45.7416667 C139.255598,26.6035088 127.944933,6.60131579 100.387313,6.60131579 L44.6438976,6.60131579 C26.1783563,6.60131579 6.46963386,18.3276316 6.46963386,51.2399123 L6.46963386,64.4241228 C6.46963386,89.4315789 22.5717264,102.184649 32.1637992,107.559649 C32.166872,107.559649 40.6672106,112.644298 51.12275,118.885965 L51.12275,126.755702 L6.46963386,126.755702 L6.46963386,160.233772 C6.46963386,186.926316 22.9259803,204.875 47.4133996,204.875 L51.1771831,204.875 C51.7750689,218.329825 61.5519508,243.535088 89.9901575,243.535088 L147.20985,243.535088 C176.583516,243.535088 186.092183,216.586404 186.092183,203.536842 C186.092183,203.536842 186.065844,88.8122807 186.065844,66.6986842 C188.208927,64.5526316 207.055939,45.7416667 207.055939,45.7416667" id="Fill-4" fill="#FFFFFE"></path>
                <path d="M60.7578425,165.710526 L48.7079409,165.710526 C47.0692421,165.710526 46.4674055,163.602193 46.4674055,162.266667 L46.4674055,136.39386 L16.1038484,136.39386 L16.1038484,160.233772 C16.1038484,182.727193 29.1322283,195.247368 47.4133996,195.247368 L60.7578425,195.247368 L60.7578425,165.710526" id="Fill-5" fill="#BC1F3E"></path>
                <polyline id="Fill-6" fill="#1A1919" points="60.7578425 78.6815789 91.0309705 96.777193 91.0309705 55.3688596 53.3984035 55.3688596 60.7578425 62.7074561 60.7578425 78.6815789"></polyline>
                <path d="M183.785801,55.3688596 L146.165526,55.3688596 L146.165526,199.217982 C146.165526,200.560965 145.751132,204.425439 143.33764,204.425439 L93.8623681,204.425439 C91.2337776,204.425439 91.0309705,201.701754 91.0309705,200.510088 L91.0309705,131.517982 L60.7578425,113.438158 L60.7578425,203.536842 C60.7578425,211.238158 66.2393406,233.908333 89.9901575,233.908333 L147.20985,233.908333 C171.207372,233.908333 176.445677,210.790789 176.445677,203.536842 L176.445677,62.7074561 L183.785801,55.3688596" id="Fill-7" fill="#1A1919"></path>
                <path d="M131.696864,64.3065789 L131.696864,51.2399123 C131.696864,43.329386 129.115683,16.2263158 100.387313,16.2263158 L44.6438976,16.2263158 C30.0281791,16.2263158 16.093313,25.154386 16.093313,51.2399123 L16.093313,64.4241228 C16.093313,83.1662281 27.261311,93.7859649 36.8797224,99.1824561 L94.5730709,133.630263 C100.307858,136.943421 101.330234,141.480263 101.330234,144.713158 C101.330234,144.836404 101.330234,159.485088 101.330234,159.485088 C101.330234,164.638158 100.455354,165.558333 96.8948169,165.682456 L91.0309705,165.682456 L91.0309705,195.247368 L103.142768,195.247368 C128.818935,195.247368 131.696864,170.763158 131.696864,160.233772 L131.696864,143.396053 C131.696864,128.498246 128.631053,119.022807 110.911772,108.657456 L53.2245689,74.1903509 C46.4849646,70.247807 46.4674055,69.6087719 46.4674055,63.0763158 C46.4674055,62.9675439 46.4674055,51.0447368 46.4674055,51.0447368 C46.4674055,45.870614 48.5850276,45.770614 52.0797185,45.770614 L99.0896988,45.770614 C100.728398,45.770614 101.330234,47.8776316 101.330234,49.2100877 L101.330234,81.2245614 L131.696864,64.3065789" id="Fill-10" fill="#BC1F3E"></path>
            </g>
        </g>
    </g>
</svg>