<?xml version="1.0" encoding="UTF-8" standalone="no"?>
<svg width="250px" height="250px" viewBox="0 0 250 250" version="1.1" xmlns="http://www.w3.org/2000/svg" xmlns:xlink="http://www.w3.org/1999/xlink">
    <!-- Generator: Sketch 47.1 (45422) - http://www.bohemiancoding.com/sketch -->
    <title>CSBAK</title>
    <desc>Created with Sketch.</desc>
    <defs></defs>
    <g id="Page-1" stroke="none" stroke-width="1" fill="none" fill-rule="evenodd">
        <g id="CSBAK" fill-rule="nonzero">
            <g id="Group" transform="translate(0.000000, 41.000000)">
                <path d="M190.387291,56.3032498 C183.960459,66.8196613 179.641118,70.3646166 179.641118,70.3646166 C179.962894,89.8488693 164.790121,100.775536 156.081865,106.432441 C134.891002,120.196228 108.873493,107.226951 93.2195037,136.557338 C84.963474,131.322245 86.2012987,121.360545 86.2012987,121.360545 C62.8884508,129.975913 53.7598562,152.227947 53.7598562,152.227947 C45.9502551,147.720913 46.2662338,136.248202 46.2662338,136.248202 C35.4968692,146.701053 30.0991419,168.464824 30.0991419,168.464824 C13.1812384,144.095063 27.3770872,120.245344 27.3770872,120.245344 C26.4407468,101.243575 40.7902365,89.2074837 60.6389147,81.9095563 C80.4730983,74.6145181 90.7090677,66.4498535 90.7090677,66.4498535 C88.3174861,61.1396434 90.3641002,53.3130063 90.3641002,53.3130063 C90.3641002,53.3130063 64.8394017,63.5116143 42.3904221,63.5116143 C16.7120826,63.5116143 0.171034323,50.3256521 0.171034323,50.3256521 C58.7285482,52.8276335 79.2468692,21.8822257 79.2468692,21.8822257 C70.5502087,5.78980462 87.7985853,0.115564963 87.7985853,0.115564963 L105.586155,0.115564963 L105.586155,12.3538945 C113.097171,15.7775065 119.787801,17.6901066 119.787801,17.6901066 L117.144017,25.5629697 C135.714286,15.5868243 152.553919,23.1158816 152.553919,23.1158816 C181.363057,12.6196939 228.383001,14.6218569 249.666628,28.6572216 C206.029685,31.9017079 197.680891,44.3653891 190.387291,56.3032498" id="Shape" fill="#FFFFFF" transform="translate(124.918831, 84.290195) scale(-1, 1) rotate(-180.000000) translate(-124.918831, -84.290195) "></path>
                <path d="M175.979824,73.051502 C175.985622,73.1035062 175.985622,73.1439539 175.991419,73.1901799 C177.956865,92.917119 157.197936,113.270998 129.339634,115.336722 C101.481331,117.396667 92.16141,135.473916 92.16141,135.473916 C87.6043599,128.76826 90.8395176,121.172752 90.8395176,121.172752 C66.778757,124.527025 52.5394249,150.768939 52.5394249,150.768939 C47.0924165,142.985639 51.5653989,131.972298 51.5653989,131.972298 C35.7229824,141.292612 29.1048237,163.813334 29.1048237,163.813334 C19.7182282,146.998632 31.0354824,125.416876 31.0354824,125.416876 C29.4555891,111.375733 38.856679,97.9384166 62.2651902,89.5744025 C85.6852968,81.2161666 94.8486781,72.0691998 94.8486781,72.0691998 C94.8486781,72.0691998 91.2105751,64.785718 95.1762523,54.9251376 L92.6687152,52.8247444 C92.6687152,52.8247444 43.7297078,74.2909362 14.5292208,58.3718626 C14.5292208,58.3718626 62.6594388,57.9298266 83.6386827,26.6810607 C80.2208952,20.3134313 77.8032236,13.9833605 86.9550093,9.23652963 C86.9550093,9.23652963 94.5269017,17.9674626 115.059717,24.5488872 L112.143437,33.2798201 L113.491419,36.119829 C138.465329,22.0122362 149.750696,31.9941599 152.530728,31.3527743 C195.741535,15.7081675 237.270988,31.0436381 237.270988,31.0436381 C183.876391,37.7579624 192.193298,63.0031285 175.979824,73.051502" id="Shape" fill="#005DAA" transform="translate(125.900104, 86.524932) scale(-1, 1) rotate(-180.000000) translate(-125.900104, -86.524932) "></path>
                <path d="M162.154453,90.0135493 C162.154453,90.0135493 163.003247,101.098541 156.908627,101.253398 C156.908627,101.253398 157.128942,109.292096 160.387291,106.197267 C163.64564,103.097814 162.94295,99.9197779 167.001391,100.106993 C167.001391,100.106993 168.722171,94.2547835 162.154453,90.0135493 L162.154453,90.0135493 Z M125.266698,94.220114 C123.882189,94.2686513 122.532468,94.7216659 121.247681,95.7386376 C116.027365,99.8550615 125.459184,107.903006 128.712894,108.342152 C128.712894,108.342152 128.3859,102.006881 133.536642,102.952203 C138.69666,103.906769 144.911874,111.57566 148.768553,110.101051 C151.985158,108.864506 152.472171,104.789685 151.386827,101.352783 C149.573284,103.141729 145.96243,105.832081 142.200835,103.786582 C137.845547,101.426745 131.256957,94.0144083 125.266698,94.220114 L125.266698,94.220114 Z M164.313544,104.274266 C163.868275,104.274266 163.504174,104.632517 163.504174,105.092466 C163.504174,105.531613 163.868275,105.899109 164.313544,105.899109 C164.763451,105.899109 165.134508,105.531613 165.134508,105.092466 C165.134508,104.632517 164.763451,104.274266 164.313544,104.274266 Z M138.550557,107.385275 C137.852505,107.385275 137.29128,107.935364 137.29128,108.626442 C137.29128,109.319832 137.852505,109.876855 138.550557,109.876855 C139.24397,109.876855 139.800557,109.319832 139.800557,108.626442 C139.800557,107.935364 139.24397,107.385275 138.550557,107.385275 Z M122.126623,117.705226 C122.008349,119.450257 120.934601,119.08276 120.120594,117.804612 C116.825139,118.417106 117.555659,121.179108 117.555659,121.179108 C117.555659,121.179108 118.467069,121.091279 119.988404,121.382503 C121.01577,119.850111 121.859926,120.504209 121.964286,121.902545 C123.12384,122.276976 124.45269,122.870979 125.895176,123.740028 C126.113173,123.878706 126.35436,124.017384 126.597866,124.160684 C128.181818,123.344796 128.631725,124.003516 128.160946,125.075959 C129.617347,125.89647 131.282468,126.800188 133.000928,127.63919 C134.350649,126.710048 134.893321,127.320231 134.654453,128.420409 C137.96846,129.945866 141.305659,131.166232 143.610853,131.189345 C142.08256,130.278694 139.777365,128.205458 137.101113,125.970432 C135.357143,126.363353 135.085807,125.730057 135.793135,124.886432 C134.030612,123.444182 132.138219,121.985752 130.238868,120.779254 C128.777829,121.398682 128.371985,120.827791 128.789425,119.894026 C126.84833,118.786914 124.928108,118.005695 123.142393,117.795366 C122.778293,117.742206 122.44898,117.716782 122.126623,117.705226 L122.126623,117.705226 Z" id="Shape" fill="#FFFFFF" transform="translate(142.345781, 110.601447) rotate(-360.000000) translate(-142.345781, -110.601447) "></path>
                <path d="M33.5923006,30.3889626 C38.5227273,58.166157 60.6423933,64.5037395 60.6423933,64.5037395 L58.687384,60.1700534 C40.4197588,50.0742983 33.5923006,30.3889626 33.5923006,30.3889626 Z M57.7527829,43.3276158 C57.7527829,43.3276158 67.9823748,69.3528453 97.4095547,80.83538 C97.4095547,80.83538 104.028293,79.5387411 106.073748,77.197395 C106.073748,77.197395 72.2935993,65.3173168 57.7527829,43.3276158 Z M38.3348794,52.7946975 C38.8079777,71.5162214 83.8497217,80.5695806 95.2574212,91.4049515 C96.5746753,90.3070843 97.7875696,89.5119974 98.7360853,88.9665308 C80.5890538,76.5317408 46.7045455,68.7888883 38.3348794,52.7946975 Z M80.3826531,54.8078391 C85.2898887,66.3990049 105.222635,70.508495 105.222635,70.508495 C102.55334,68.7472849 98.0473098,63.4289853 98.0473098,63.4289853 C87.6762523,61.1731573 80.3826531,54.8078391 80.3826531,54.8078391 Z M100.742115,55.6607086 C108.807978,75.3876477 138.580705,69.7018515 149.897959,76.1734894 C151.586271,75.4338737 154.109462,74.8560488 157.393321,75.5193917 C147.701763,64.5083621 121.50974,72.6857388 100.742115,55.6607086 Z M141.055195,82.6867307 C140.519481,82.6936646 140.217996,82.7422019 140.217996,82.7422019 C147.444341,86.1999056 148.068182,92.659987 148.068182,92.659987 C135.018553,80.0056236 122.919759,86.7037688 122.919759,86.7037688 C132.648423,87.501167 136.825139,94.3218111 141.915584,98.6716763 C146.982839,103.026164 152.066327,98.4428577 152.066327,98.4428577 C160.700371,99.8296373 157.982375,86.1190101 157.982375,86.1190101 C153.80102,84.6212882 150.382653,86.3247157 150.382653,86.3247157 C146.386827,83.0403595 142.666976,82.6682403 141.055195,82.6867307 L141.055195,82.6867307 Z M114.494434,90.9311351 C113.518089,90.9218899 112.576531,90.984295 111.685993,91.1067939 C111.723098,91.1183504 111.739332,91.1252843 111.739332,91.1252843 C111.739332,91.1252843 103.796382,93.0205497 101.069109,104.142522 C99.2857143,111.443916 100.892857,116.221372 102.200835,118.643613 C100.062616,123.06744 91.9944341,128.466635 85.1205937,129.982847 C85.1205937,129.982847 84.278757,127.944281 81.3705937,126.141468 C81.3705937,126.141468 84.703154,125.138364 86.8692022,124.0821 C80.2945269,121.551228 53.5320037,111.883063 28.4972171,112.410039 C28.4972171,112.410039 73.3882189,113.609603 89.1164193,142.993151 C89.1164193,142.993151 93.708256,131.672407 101.69295,128.785594 C101.69295,128.785594 91.3079777,141.770473 86.9364564,154.995728 C86.9364564,154.995728 100.519481,148.017915 107.745826,144.673465 C107.745826,144.673465 106.530612,141.063216 105.802412,138.902151 L108.949443,132.777208 C108.949443,132.777208 110.387291,130.470531 112.606679,127.911923 C112.898887,128.177723 113.211967,128.441211 113.525046,128.709321 C130.278293,142.438439 149.888683,134.841198 149.888683,134.841198 C139.932746,136.637078 121.479592,121.229957 112.896568,123.04895 C113.367347,115.782225 122.882653,108.795167 143.320965,127.56754 C162.560297,145.237422 206.208256,140.947651 206.208256,140.947651 C198.441558,138.592437 184.056122,126.920376 179.267161,115.361568 C174.306586,103.414462 166.968924,109.375303 164.677644,110.842978 C162.37013,112.310653 156.505102,110.417699 156.505102,110.417699 C144.517625,116.209815 129.986085,112.844563 120.320037,107.105607 C112.407236,102.415981 101.141002,113.632716 109.756494,124.877187 L109.06308,125.838688 C109.06308,125.838688 104.68692,122.801641 102.880334,117.416313 C102.608998,115.028741 102.608998,111.499387 103.944805,107.595603 C103.944805,107.595603 102.128942,106.100192 104.851577,104.142522 C104.851577,104.142522 104.853896,99.1847848 113.606215,93.4804982 C113.606215,93.4804982 113.863636,92.4843282 114.494434,90.9311351 L114.494434,90.9311351 Z M158.262987,113.676631 C161.25,114.790677 162.279685,114.328417 162.279685,114.328417 C176.855288,133.202487 198.608534,140.175677 198.608534,140.175677 C170.967069,131.522173 158.262987,113.676631 158.262987,113.676631 L158.262987,113.676631 Z M157.896568,116.648962 C157.896568,116.648962 159.863173,120.176005 162.847866,122.49886 C162.847866,122.49886 155.46846,120.733028 153.69666,117.388578 C153.69666,117.388578 156.774119,118.689839 157.896568,116.648962 Z" id="Shape" fill="#FFD200" transform="translate(117.352737, 92.692345) rotate(-360.000000) translate(-117.352737, -92.692345) "></path>
                <path d="M157.919759,122.519084 C156.79789,120.476473 153.719272,121.779468 153.719272,121.779468 C155.490492,118.433863 162.868159,116.668608 162.868159,116.668608 C159.885204,118.991464 157.919759,122.519084 157.919759,122.519084" id="Shape" fill="#005DAA" transform="translate(158.293715, 119.593846) scale(-1, 1) rotate(-180.000000) translate(-158.293715, -119.593846) "></path>
                <path d="M162.297078,139.530247 C162.297078,139.530247 161.270872,139.065098 158.28212,140.174521 C158.28212,140.174521 170.982143,122.33418 198.625928,113.684143 C198.625928,113.684143 176.872681,120.655599 162.297078,139.530247" id="Shape" fill="#FEEAA8" transform="translate(178.454024, 126.929332) scale(-1, 1) rotate(-180.000000) translate(-178.454024, -126.929332) "></path>
            </g>
        </g>
    </g>
</svg>