<?xml version="1.0" encoding="UTF-8" standalone="no"?>
<svg width="250px" height="250px" viewBox="0 0 250 250" version="1.1" xmlns="http://www.w3.org/2000/svg" xmlns:xlink="http://www.w3.org/1999/xlink">
    <!-- Generator: Sketch 47.1 (45422) - http://www.bohemiancoding.com/sketch -->
    <title>LPSCMB</title>
    <desc>Created with Sketch.</desc>
    <defs></defs>
    <g id="Page-1" stroke="none" stroke-width="1" fill="none" fill-rule="evenodd">
        <g id="LPSCMB" fill-rule="nonzero">
            <g id="Group" transform="translate(21.000000, 0.000000)">
                <path d="M208.423431,142.010245 L145.068914,142.010245 L143.207067,153.525985 L138.55245,182.237875 L103.694536,182.237875 L103.694536,63.4656697 L122.054416,58.3016607 L131.984267,55.4614558 L131.984267,0 L0,0 L0,56.8040982 L12.0502877,58.3016607 C16.9876916,58.9134078 21.8658603,59.9324806 26.6347561,61.348426 L26.6347561,185.28464 L9.67126095,190.448649 L0,193.753615 L0,249.318351 L208.423431,249.318351 L208.423431,142.010245 Z M194.66645,235.582087 L13.6535449,235.582087 L13.6535449,203.926712 L40.3400189,195.664298 L40.3400189,60.1090639 L47.0116375,60.1090639 C50.1664338,60.1090639 53.3212302,60.1090639 56.4243085,60.3672643 L53.2695122,58.456581 C41.1748801,51.2630261 27.7234295,46.6394607 13.7569808,44.8752375 L13.7569808,13.891184 L118.175568,13.891184 L118.175568,45.133438 L89.9375551,53.3442122 L89.9375551,196.232339 L150.240712,196.232339 L156.808894,156.00471 L194.66645,156.00471 L194.66645,235.582087 Z" id="Shape" fill="#260859"></path>
                <path d="M150.240712,196.232339 L89.9375551,196.232339 L89.9375551,53.3442122 L118.175568,45.133438 L118.175568,13.7362637 L13.7569808,13.7362637 L13.7569808,44.7203173 C27.7514417,46.4389421 41.2389913,51.0276486 53.3729481,58.1983806 L56.5277445,60.1090639 C53.4246661,60.1090639 50.2698698,59.8508634 47.1150734,59.8508634 L40.4434549,59.8508634 L40.4434549,195.664298 L13.7569808,203.926712 L13.7569808,235.582087 L194.769886,235.582087 L194.769886,155.746509 L156.808894,155.746509 L150.240712,196.232339 Z" id="Shape" fill="#FDB913"></path>
            </g>
        </g>
    </g>
</svg>