<svg width="500" height="401" viewBox="0 0 500 401" fill="none" xmlns="http://www.w3.org/2000/svg">
<path d="M247.757 0.00619381V21.6381C250.893 21.6275 254.029 21.64 257.166 21.6742V100.945C254.234 100.914 251.305 100.901 248.373 100.909V122.241C275.424 122.173 302.478 123.784 329.373 127.075V89.5546C321.549 88.5979 313.709 87.7825 305.864 87.1092V103.298C297.761 102.601 289.653 102.061 281.535 101.669V72.3203C287.75 72.6208 293.962 73.0056 300.169 73.485V52.0012C293.962 51.5239 287.75 51.1369 281.535 50.8365V22.6925C289.548 23.0803 297.558 23.6174 305.556 24.3014V37.6127C313.506 38.2924 321.447 39.1145 329.373 40.0861V4.83843C302.273 1.52103 275.011 -0.0898541 247.755 0.00385919L247.757 0.00619381ZM242.51 0.0422136C215.256 0.355429 188.019 2.37126 160.957 6.09345V27.7292C164.072 27.3009 167.187 26.8921 170.307 26.5086V105.785C167.394 106.143 164.482 106.519 161.57 106.918V128.249C188.429 124.58 215.462 122.593 242.51 122.282V84.7612C234.641 84.8528 226.779 85.0847 218.917 85.4575V101.646C210.799 102.032 202.683 102.571 194.58 103.259V73.9104C200.784 73.382 206.997 72.9452 213.21 72.5937V51.1099C206.997 51.4593 200.786 51.9003 194.58 52.4266V24.2908C202.58 23.609 210.59 23.0754 218.605 22.6898V36.0012C226.57 35.6198 234.539 35.3825 242.51 35.2929V0.0424637L242.51 0.0422136ZM335.196 5.7295V27.0612C338.364 27.4788 341.531 27.9174 344.693 28.3819V107.202C341.633 106.753 338.57 106.326 335.504 105.921V128.01C349.042 129.795 362.538 132.009 375.97 134.649V112.865C373.488 112.378 370.999 111.905 368.51 111.445V70.8994C375.313 92.9305 382.102 115.07 388.873 137.321C399.888 139.718 410.858 142.405 421.768 145.377V123.289C418.918 122.512 416.057 121.755 413.196 121.016V42.1958C416.057 42.933 418.917 43.6913 421.768 44.469V23.1411C407.957 19.3762 394.05 16.072 380.073 13.2316V34.1111C382.96 34.697 385.841 35.3016 388.721 35.9281V67.2441C382.809 48.5602 376.884 29.961 370.948 11.4451C359.071 9.20793 347.151 7.30236 335.197 5.73L335.196 5.7295ZM155.597 7.45845C144.526 9.07564 133.491 10.9775 122.494 13.1657V34.4974C124.471 34.1053 126.446 33.7197 128.425 33.3447V112.315C121.422 113.643 114.439 115.08 107.474 116.638V37.667C109.34 37.2494 111.21 36.8429 113.081 36.4423V15.1106C102.112 17.4629 91.185 20.0997 80.3191 23.0231V44.0506C82.5222 43.4561 84.7272 42.8785 86.9348 42.3096V130.053C91.2516 133.379 95.5761 136.747 99.9099 140.163C111.848 137.344 123.845 134.868 135.89 132.731C140.311 127.508 144.739 122.333 149.173 117.202V29.7618C151.312 29.4273 153.453 29.1026 155.597 28.7894V7.4577L155.597 7.45845ZM62.1978 27.5735C45.0289 32.7277 28.0211 38.6027 11.2183 45.1992C7.46842 50.607 3.72886 56.0503 0 61.5283V160.465C3.72859 162.754 7.46815 165.079 11.2183 167.437C21.7866 163.287 32.4363 159.423 43.1546 155.843C45.1319 159.318 47.1124 162.803 49.0938 166.297C56.2742 163.977 63.4838 161.782 70.7215 159.717C68.7251 156.151 66.7304 152.597 64.7384 149.052C67.6277 145.221 70.5213 141.416 73.419 137.625V35.5107C69.671 32.8303 65.9299 30.1844 62.197 27.5743L62.1978 27.5735ZM437.051 27.6495C433.367 30.1296 429.676 32.6434 425.977 35.1897V84.5081C429.776 89.3022 433.563 94.1316 437.347 98.9959C450.536 102.946 463.632 107.321 476.614 112.123V141.62C467.601 138.285 458.532 135.158 449.415 132.234V117.41C441.636 114.917 433.823 112.573 425.978 110.378V133.371C430.327 138.926 434.664 144.522 438.993 150.168C455.606 155.19 472.069 160.889 488.341 167.266C492.091 164.903 495.833 162.576 499.564 160.286V110.364C495.978 105.152 492.383 99.9689 488.778 94.8231C475.823 89.735 462.746 85.0769 449.568 80.8475V53.3128C458.536 56.1914 467.457 59.2711 476.323 62.5459V76.6135C484.26 79.5454 492.155 82.6352 500 85.8864V62.4335C495.982 56.6337 491.945 50.8746 487.901 45.16C471.139 38.6039 454.178 32.7682 437.053 27.6504L437.051 27.6495ZM50.8866 52.8674V128.057C49.4505 124.076 48.0162 120.105 46.5801 116.138C40.8423 120.843 35.1242 125.629 29.4268 130.498C30.4091 133.07 31.388 135.646 32.3723 138.222C29.2254 139.335 26.0854 140.473 22.9513 141.636V62.5128C32.2093 59.0823 41.5202 55.8654 50.8877 52.8674H50.8866ZM233.606 141.308L218.369 143.637L211.817 166.209L204.493 157.4C204.493 157.4 191.966 173.814 191.966 198.186C152.984 213.938 149.528 246.794 149.528 246.794C157.759 243.692 162.767 245.073 162.767 245.073C144.637 265.472 137.31 309.487 182.066 362.649C182.066 362.649 185.956 352.653 190.978 347.665C197.366 358.911 215.409 388.025 257.405 400.281C258.701 399.565 278.992 388.876 300.074 367.796C336.286 379.08 345.376 361.736 345.376 361.736C345.376 361.736 335.956 351.677 340.633 332.879C341.856 327.968 347.746 317.108 343.775 304.585C347.491 302.629 350.444 300.708 350.951 294.739L317.045 243.432L339.969 221.788L337.192 207.072L321.859 207.965C320.779 211.146 317.769 213.435 314.223 213.435C309.772 213.435 306.167 209.826 306.167 205.375C306.167 203.078 307.124 201.006 308.664 199.54L308.716 199.556L302.697 184.083L286.969 185.56C285.888 188.741 282.882 191.027 279.336 191.027C274.885 191.027 271.276 187.416 271.276 182.967C271.276 180.672 272.237 178.602 273.777 177.132L273.729 177.164L267.702 161.803L252.042 163.156L252.014 163.168C250.936 166.347 247.925 168.635 244.381 168.635C239.93 168.635 236.325 165.025 236.325 160.579C236.325 158.282 237.282 156.212 238.822 154.743L233.607 141.308L233.606 141.308Z" fill="#00205B"/>
<path d="M227.43 151.45C227.43 151.45 224.673 151.956 224.716 151.95C224.386 153.152 218.795 173.38 218.496 174.467C225.754 186.213 261.632 222.34 308.341 238.419C309.219 237.656 329.091 219.578 330.005 218.788L329.637 215.834C329.637 215.834 326.218 215.998 326.303 216.006C322.593 220.474 317.556 223.266 313.011 223.266C303.029 223.266 295.502 216.111 295.502 206.625C295.502 204.215 296.084 201.523 297.007 199.269L295.718 195.819L292.4 195.995C289.078 199.564 284.517 201.638 279.753 201.638C270.7 201.638 260.615 194.484 260.615 184.217C260.615 182.101 261.128 179.901 262.059 177.677L261.095 173.511L256.8 173.647C253.479 177.224 248.918 179.302 244.146 179.302C234.491 179.302 226.636 171.525 226.636 161.964C226.636 159.337 227.262 156.438 228.289 154.056L227.428 151.45L227.43 151.45ZM206.742 177.881C190.5 213.524 225.856 242.977 225.856 242.977C201.147 237.804 194.836 216.731 193.158 210.511C193.158 210.511 175.792 212.763 165.366 233.616C165.366 233.616 177.206 231.516 184.389 238.699C159.008 254.564 149.786 299.334 181.635 340.852C187.395 329.974 194.25 329.89 194.25 329.89C194.25 329.89 211.203 370.408 256.257 387.246C263.037 384.474 273.165 376.511 288.283 362.648C251.413 338.303 256.669 301.59 256.669 301.59C262.891 306.612 268.008 306.829 268.008 306.829C265.108 293.408 279.702 286.914 279.702 286.914C269.75 303.06 278.511 316.64 283.88 320.219C283.88 320.219 278.105 322.372 270.213 318.266C270.213 318.266 276.567 326.98 291.529 328.368C300.846 329.228 318.88 326.366 323.962 318.414C329.046 310.458 322.475 307.55 322.477 307.552C312.438 303.233 310.117 294.608 313.409 292.38C316.651 290.183 315.642 295.819 320.472 296.022C325.963 296.252 326.524 293.381 330.766 293.66C337.478 294.099 336.779 300.692 341.064 296.018L305.463 245.817C305.463 245.817 248.028 230.829 206.742 177.879L206.742 177.881ZM214.822 195.822C227.713 215.947 242.109 225.778 242.109 225.778C238.163 226.705 232.608 225.542 232.608 225.542C243.43 237.9 269.118 251.697 298.243 256.314L320.291 288.275C305.645 281.161 300.237 302.035 316.149 307.858C316.149 307.858 288.641 308.427 295.537 282.488C297.807 273.95 293.616 271.394 293.616 271.394L253.598 283.38L268.354 274.323C250.589 266.877 253.571 249.634 253.571 249.634C221.487 231.764 218.298 216.282 218.298 216.282L227.171 219.876C217.937 210.919 214.82 195.819 214.82 195.819L214.822 195.822ZM203.956 242.417C170.591 271.875 187.811 317.079 187.811 317.079C160.658 287.246 176.096 251.124 203.956 242.417ZM212.009 245.474C212.009 245.474 219.639 257.717 236.975 257.717C236.975 257.717 214.829 272.983 210.8 300.661C210.8 300.661 222.482 291.719 235.29 290.096C235.29 290.096 215.04 323.562 269.636 366.686C219.479 342.094 220.399 305.945 220.399 305.945C212.405 309.524 201.985 317.467 201.985 317.467C201.985 317.467 195.429 281.454 221.756 259.043C221.756 259.043 213.879 255.378 212.006 245.475L212.009 245.474ZM261.073 253.247C260.528 256.142 261.356 263.693 267.853 267.458C267.853 267.458 263.822 261.656 269.462 256.016L261.073 253.247H261.073ZM272.832 257.069C271.223 258.385 270.126 260.579 270.034 263.104C269.887 267.278 273.282 270.784 277.298 270.752C269.429 266.077 274.288 258.709 276.265 257.893L272.832 257.069L272.832 257.069ZM277.298 270.752C276.866 270.852 277.758 270.75 277.298 270.752V270.752ZM280.292 260.811C279.156 260.768 278.201 261.732 278.159 262.96C278.114 264.191 278.994 265.219 280.128 265.257C281.261 265.3 282.216 264.337 282.261 263.108C282.303 261.878 281.421 260.849 280.292 260.811ZM334.867 310.47L332.974 311.543C332.974 311.543 332.191 316.528 333.742 319.027C335.336 321.595 335.871 321.168 335.871 321.168C337.81 310.421 334.867 310.471 334.867 310.471V310.47ZM328.703 325.959C328.703 325.959 308.801 341.208 284.967 337.049C279.685 336.124 295.884 367.799 334.031 360.306C334.031 360.306 331.241 356.522 330.393 348.319C330.18 346.248 330.238 344.104 330.453 342.036C324.135 342.775 319.806 338.401 319.171 333.579C319.171 333.579 327.025 337.83 331.822 334.696C332.663 331.487 333.527 329.317 333.527 329.317C330.633 328.434 328.704 325.959 328.704 325.959L328.703 325.959Z" fill="white"/>
</svg>
