<?xml version="1.0" encoding="UTF-8" standalone="no"?>
<svg width="250px" height="250px" viewBox="0 0 250 250" version="1.1" xmlns="http://www.w3.org/2000/svg" xmlns:xlink="http://www.w3.org/1999/xlink">
    <!-- Generator: Sketch 47.1 (45422) - http://www.bohemiancoding.com/sketch -->
    <title>UIW</title>
    <desc>Created with Sketch.</desc>
    <defs></defs>
    <g id="Page-1" stroke="none" stroke-width="1" fill="none" fill-rule="evenodd">
        <g id="UIW" fill-rule="nonzero">
            <g id="Group" transform="translate(0.000000, 56.000000)">
                <path d="M117.118204,0.0656799821 L176.289823,39.2471009 L249.921014,64.1178637 C235.663462,93.3398743 213.082691,106.979168 213.082691,106.979168 C213.082691,106.979168 196.815041,138.66453 128.66869,138.66453 C47.4263998,138.66453 1.57799089,94.6119328 1.57799089,94.6119328 C21.6638162,99.0944246 50.1183146,102.814691 50.1183146,102.814691 L40.0779272,96.807748 L53.4566929,98.16562 C39.4466151,91.2500639 21.3759379,77.7672534 21.3759379,77.7672534 C83.3253303,89.3621675 113.486897,26.0570658 117.118204,0.0656799821" id="Shape" fill="#FFFFFF" transform="translate(125.749502, 69.365105) scale(-1, 1) rotate(-180.000000) translate(-125.749502, -69.365105) "></path>
                <path d="M211.006937,103.157342 C192.557473,138.335817 89.4667343,152.126546 13.7547384,97.619849 C40.330452,102.814088 66.3960654,104.974568 66.3960654,104.974568 L52.5930579,98.7202806 L65.6536424,99.1695393 C65.6536424,99.1695393 47.6637732,91.1434559 31.3809719,79.5889246 C83.8051275,85.2929964 115.779822,27.0407937 119.163655,2.78586869 L175.108007,39.8320486 L246.087687,63.8042939 C233.789728,89.2353682 211.006937,103.157342 211.006937,103.157342" id="Shape" fill="#000000" transform="translate(129.921213, 68.438523) scale(-1, 1) rotate(-180.000000) translate(-129.921213, -68.438523) "></path>
                <path d="M125.732331,8.35122293 C80.1243255,8.35122293 41.2395414,29.8284163 41.2395414,29.8284163 C55.1841648,27.1076246 79.8616997,25.839362 86.2738103,26.3895778 C83.677855,27.7827847 74.1053456,32.8415393 74.1053456,32.8415393 C74.1053456,32.8415393 84.1812885,32.5913557 87.4891618,32.7074563 C87.4891618,32.7074563 73.0483776,37.8744367 55.7655779,52.5992206 C100.670554,62.1247177 91.4657209,81.3481465 125.038191,81.3481465 C149.108858,81.3481465 163.95853,69.0992327 163.95853,69.0992327 C163.95853,69.0992327 151.538753,89.2264288 121.267692,95.3795575 C121.267692,95.3795575 125.712533,103.043811 128.156973,107.849365 C163.985197,85.8710212 174.49629,78.983733 171.385185,59.2163477 C165.9258,53.4315103 164.772266,49.5624333 164.772266,49.5624333 C166.479334,51.6572915 170.267611,52.7063158 173.429222,52.8829502 C173.429222,52.8829502 163.541157,47.3896766 170.738236,37.3291073 C166.889758,38.1922898 163.785924,41.004266 163.280875,44.2147801 C163.280875,44.2147801 159.741406,40.4538079 159.200881,35.8147519 C148.332213,29.3486565 124.084172,31.4925798 124.084172,31.4925798 C173.07399,17.3133677 192.544665,39.2763663 198.524453,41.4622878 C198.524453,41.4622878 207.252519,42.3456618 207.252519,37.2976087 C207.252519,31.0229277 187.43639,8.35121081 125.733462,8.35121081 L125.732331,8.35122293 Z M213.105924,40.8783645 C213.105924,40.8783645 218.471571,46.240394 219.466317,50.6271786 C203.84008,41.793439 196.940294,50.0047179 187.253441,66.5517357 C187.253441,66.5517357 194.178682,60.4422204 199.840087,61.9060973 L225.108328,67.0011963 C188.820711,66.4408849 184.033648,71.3015617 179.189212,84.9763925 L239.383052,69.611945 C230.054582,53.5145494 213.104711,40.8787683 213.104711,40.8787683 L213.105924,40.8783645 Z" id="Shape" fill="#CB333B" transform="translate(140.311297, 58.100288) rotate(-360.000000) translate(-140.311297, -58.100288) "></path>
                <path d="M189.087781,40.8736005 L183.78981,40.1467099 C180.269614,39.6722119 180.304968,44.7150152 181.95143,46.0880307 C181.95143,46.0880307 186.597887,43.2612341 189.087781,40.8736005" id="Shape" fill="#FFFFFF" transform="translate(184.980279, 43.101681) scale(-1, 1) rotate(-180.000000) translate(-184.980279, -43.101681) "></path>
            </g>
        </g>
    </g>
</svg>