<?xml version="1.0" encoding="UTF-8" standalone="no"?>
<svg width="250px" height="250px" viewBox="0 0 250 250" version="1.1" xmlns="http://www.w3.org/2000/svg" xmlns:xlink="http://www.w3.org/1999/xlink">
    <!-- Generator: Sketch 47.1 (45422) - http://www.bohemiancoding.com/sketch -->
    <title>MASLOW </title>
    <desc>Created with Sketch.</desc>
    <defs></defs>
    <g id="Page-1" stroke="none" stroke-width="1" fill="none" fill-rule="evenodd">
        <g id="MASLOW-" fill-rule="nonzero">
            <g id="UMass_Lowell_River_Hawks_logo" transform="translate(0.000000, 68.000000)">
                <g id="Group" transform="translate(125.016164, 57.316810) scale(-1, 1) rotate(-180.000000) translate(-125.016164, -57.316810) translate(0.420259, 0.743534)">
                    <g transform="translate(0.740841, 0.552263)" id="Shape">
                        <path d="M122.64278,25.2693966 C122.649515,25.2667026 122.655577,25.2653556 122.662311,25.2626616 C122.652209,25.2485183 122.639413,25.2350485 122.62931,25.2215787 L122.64278,25.2693966 L122.64278,25.2693966 Z M246.605603,49.4315733 C246.037177,56.3961476 243.568831,62.8704203 239.810075,67.4481412 C239.791218,68.4415409 239.767645,69.6780711 239.767645,69.6780711 C239.30563,75.3421336 236.918103,83.7715517 228.158001,91.7807112 C202.00431,115.690329 126.824488,116.390086 84.5898438,104.885506 C93.7823276,102.277748 101.635237,98.7998384 102.35722,98.5338093 C85.0249192,96.2931034 59.1588093,89.64507 31.8965517,70.8822737 C31.8965517,70.8822737 21.7342403,63.3095366 16.3516972,51.9039601 C28.9628233,60.2424569 43.4671336,63.1115302 47.0783944,63.4509698 C42.502694,57.8178879 37.0979256,49.5851293 32.3760776,38.1485722 L7.07637392,38.1485722 L1.7342403,18.2132274 C-0.264008621,10.7556573 -0.553609914,8.82677802 1.46955819,5.51993534 C3.9217403,1.4998653 9.17699353,0.23908944 13.6819774,0.23908944 L208.536503,0.23908944 L212.319504,14.0092942 L207.223869,14.0092942 L211.357759,29.4369612 C215.04243,31.4533944 218.611934,33.7755927 222.019127,36.4453125 C222.953933,35.6512662 224.189116,34.7083782 225.66743,33.8213901 C225.678879,31.7315463 225.543508,27.8778287 224.551455,24.1668912 L221.209591,11.681708 L232.054149,18.7156519 C241.256735,24.684806 244.692214,32.9741379 245.955011,38.8766164 C246.677667,42.2622575 246.896552,45.8135776 246.602236,49.4315733 L246.605603,49.4315733 Z" fill="#00549F"></path>
                        <path d="M147.393588,2.06487069 C134.380657,2.1175431 125.100485,3.35883621 124.998114,3.375 C131.19208,5.47898707 140.031519,12.9892241 140.031519,12.9892241 C91.7901401,12.103556 55.8666487,31.8911638 55.8666487,31.8911638 C70.6532866,29.5689655 87.1635237,29.3447737 98.8962823,29.6033944 C71.9210668,40.9498384 57.389278,62.8781789 57.389278,62.8781789 C86.4577047,44.1928341 112.685614,40.0139547 124.88389,39.1260237 C124.88389,39.1260237 99.8230065,47.7181573 89.4119073,67.1750539 C89.4119073,67.1750539 114.025054,59.057597 133.384429,63.265625 C149.306304,76.6233836 183.05361,77.2403017 207.419989,63.810722 C199.831627,63.5978987 190.773438,65.8065194 184.349946,65.8206897 C151.747575,65.8860183 148.601563,42.4580819 159.08055,36.1375 C168.959321,30.1779095 178.630119,40.9326509 184.899515,43.0292026 C179.737877,38.0278556 180.133513,29.9602371 180.133513,29.9602371 C165.871659,22.0588362 145.391056,20.1159483 136.63944,19.640194 C136.264978,18.5134698 133.277263,16.3474677 133.277263,16.3474677 C181.960453,12.7820043 209.543427,33.8496228 209.543427,33.8496228 C213.096121,31.6095905 209.304547,26.9853987 209.304547,26.9853987 C211.499483,28.2522091 213.10347,32.5775323 213.10347,32.5775323 C214.720496,31.5652478 214.090539,29.3373922 214.090539,29.3373922 C218.368556,39.4537716 206.827608,39.3891164 206.827608,39.3891164 C204.646843,42.7182112 197.612091,46.1978448 197.612091,46.1978448 L210.251638,48.3519935 C210.251638,48.3519935 229.20153,39.3880927 224.83569,31.5664332 C210.681595,6.20328664 172.233319,1.96998922 147.389569,2.07074353 L147.393588,2.06487069 Z M225.814925,41.6586207 C225.814925,41.6586207 224.735991,42.5923491 223.339871,43.5338901 C224.508405,44.8491918 227.281843,47.6577586 229.090948,46.9203125 C231.434698,45.9672953 230.194774,44.3122306 225.815032,41.6586746 L225.814925,41.6586207 Z M222.286476,44.2052802 C221.786746,44.4995959 221.274084,44.7653556 220.776401,44.9808728 C221.102371,45.2192888 221.406573,45.5482759 221.419397,45.9490302 C221.443642,46.8474677 222.512608,45.8427478 222.929472,46.5835668 C223.345016,47.3264547 223.258637,49.6352909 224.726832,49.6089978 C226.19639,49.5793642 228.458405,48.4324892 228.458405,48.4324892 C228.458405,48.4324892 223.753341,47.1147629 222.28653,44.2052802 L222.286476,44.2052802 Z M108.725054,69.2025862 L99.7686961,102.627694 L121.346821,102.627694 L121.847732,100.759806 C123.495092,102.391703 126.016913,103.049677 128.766913,103.049677 C133.53049,103.049677 136.395145,101.228718 138.010447,99.5012392 L137.618976,102.62667 L206.902381,102.62667 L209.386918,93.3524246 L204.299957,93.3524246 L208.615582,77.2446659 L196.745431,77.2446659 L192.428782,93.3524246 L190.668222,93.3524246 L194.983847,77.2446659 L140.797425,77.2446659 L140.636417,78.5285022 C139.263842,77.5068427 137.223648,76.8195043 134.392883,76.8195043 C130.838195,76.8195043 125.458615,78.0948276 123.490943,82.9251078 C123.104359,83.8747306 122.636309,85.3811422 122.059801,87.5343211 L120.934855,91.7447198 L117.13173,91.7447198 L123.172139,69.202694 L108.728712,69.202694 L108.725054,69.2025862 Z M8.80048491,69.2130927 L3.90506466,87.4835668 C1.97349138,94.6931573 1.87667026,95.9550108 3.38731681,98.4226832 C5.04475216,101.141541 8.87654095,102.627802 13.6809591,102.627802 C17.2720151,102.627802 20.3452909,101.836099 22.8382866,100.235884 L22.1973922,102.626778 L66.2755172,102.626778 L66.361805,101.617619 C67.4111045,102.263524 69.1952101,103.049838 72.3822791,103.049838 C75.8871282,103.049838 79.3693481,101.935399 81.2389601,100.057004 C82.6553394,101.98319 85.430555,103.049838 89.0040463,103.049838 C97.0692403,103.049838 99.2621282,98.937931 100.175383,95.5342134 C101.3291,91.2259159 100.150383,89.4140625 99.4829256,88.5827047 L99.4903071,88.5827047 L101.501298,88.5827047 L102.235835,85.8445582 C102.815684,83.6813039 102.912452,82.1876078 102.549434,80.9975216 C101.617969,77.9479526 97.7837015,76.8207974 94.0445851,76.8207974 C90.8643588,76.8207974 87.5154903,77.6301185 85.3640894,79.8210129 C83.9922144,77.7918103 80.9722252,76.8207974 77.4244343,76.8207974 C73.771417,76.8207974 70.1210938,77.9019935 68.1544989,80.4976293 L68.4302101,77.2438039 L32.2637231,77.2438039 L34.4157166,69.2136315 L8.80095366,69.2136315 L8.80048491,69.2130927 Z" fill="#CF202F" transform="translate(116.300817, 52.557355) scale(-1, 1) rotate(-180.000000) translate(-116.300817, -52.557355) "></path>
                        <path d="M109.877425,3.56193498 L101.722791,33.9902755 L120.199623,33.9902755 L121.552909,28.9369889 C121.380496,31.0847259 122.70194,34.4122044 128.768966,34.4122044 C133.729903,34.4122044 137.112716,32.1101031 138.282974,29.2410298 C139.349138,26.6218488 140.678287,21.1747583 141.213685,18.8417841 L139.318427,33.9899522 L149.323815,33.9899522 L151.382166,29.3354802 L151.16854,33.9899522 L161.128669,33.9899522 L168.972958,14.8563315 L163.846018,33.9899522 L205.752807,33.9899522 L207.435458,27.711935 L202.347419,27.711935 L206.664068,11.6030988 L197.896288,11.6030988 L193.579639,27.711935 L188.716816,27.711935 L193.031363,11.6030988 L161.646665,11.6030988 L159.851406,15.7208789 L160.433357,11.6030988 L151.737775,11.6030988 L149.998281,15.6598337 L150.705447,11.6030988 L142.11924,11.6030988 L141.596234,15.7808466 C141.248712,12.6120966 138.187398,11.1800384 134.390954,11.1800384 C131.027538,11.1800384 126.494402,12.37756 124.876945,16.3511591 C124.514607,17.2428617 124.064768,18.6919996 123.50577,20.7825169 L122.100921,26.1030988 L115.176352,26.1030988 L121.216762,3.56215049 L109.876783,3.56215049 L109.877425,3.56193498 Z M9.9528556,3.57244144 L5.35522629,20.7319242 C4.49919181,23.9283143 4.01977371,25.9834328 3.89251078,27.011019 C3.41635237,30.8519673 6.7091056,33.9900061 13.6845366,33.9900061 C19.8116918,33.9900061 24.4027478,31.3046613 25.9431573,27.3111268 L24.1542026,33.9900061 L32.1110991,33.9900061 L32.5320312,32.4188854 L32.3910183,33.9900061 L55.0424192,33.9900061 L56.3936045,30.369963 L56.581972,30.369963 L55.9326724,33.9900061 L64.9025,33.9900061 L65.2013631,30.4783682 C65.5468642,32.8618811 68.2672037,34.4119889 72.3856304,34.4119889 C73.3891325,34.4119889 79.8506088,34.6831095 81.7978071,29.0251354 C81.7439278,29.6501354 81.7598761,30.2000815 81.8514709,30.676213 C82.3013631,33.022657 85.1724838,34.4119889 89.0071821,34.4119889 C90.6976455,34.4119889 92.2756627,34.1589231 93.69743,33.6585406 C96.6533567,32.6166225 97.865264,31.2432927 98.7307274,28.0066009 C99.3449515,25.7146828 99.3203825,24.03381 98.6549623,22.8659759 C98.1599461,22.0005664 97.071611,21.0566548 95.2801239,19.9446936 L100.355501,19.9446936 L100.79222,18.3167302 C101.287236,16.4673229 101.391196,15.189144 101.118443,14.2947475 C100.484714,12.2156526 97.5385399,11.1798768 94.047861,11.1798768 C91.1754472,11.1798768 88.1615463,11.9032065 86.357667,13.8064932 C85.5440894,14.6658682 84.9217834,15.9304156 84.4550808,17.6727647 C83.8037877,20.0979802 84.2478987,21.9225492 85.4379472,23.0365039 C85.8151024,23.3907604 86.4851455,23.8820858 87.4731304,24.5265901 L82.5197899,24.5265901 C82.4598491,23.8867733 82.2999407,23.3334328 82.0325647,22.8660298 C81.5375485,22.0006203 80.4492134,21.0567087 78.6577263,19.9447475 L83.734181,19.9447475 L84.1708998,18.3167841 C84.6665894,16.4673768 84.7692295,15.1891979 84.4971228,14.2948014 C83.9819019,12.6023445 81.664472,11.1799307 77.4276185,11.1799307 C75.783653,11.1799307 74.2894181,11.4031095 72.9888793,11.8429156 C70.1885022,12.790491 68.7369397,14.3033682 67.8324677,17.672657 C66.8990086,21.1586483 68.05632,22.914144 70.8526724,24.526644 L66.1950754,24.526644 L65.4742241,27.2553078 L66.8022414,11.6028294 L55.5209914,11.6028294 L47.1330603,31.0866656 L52.3536961,11.6028294 L41.7459375,11.6028294 L40.2674353,15.0881742 L40.5831358,11.6028294 L30.314278,11.6028294 L32.4662716,3.57265696 L9.95280172,3.57265696 L9.9528556,3.57244144 Z M176.930226,17.8811699 L182.581088,17.8811699 L179.947091,27.7119889 L174.297306,27.7119889 L174.88028,25.531547 L179.370582,25.531547 L180.998545,19.4523445 L176.510345,19.4523445 L176.930226,17.8812238 L176.930226,17.8811699 Z" fill="#00549F" transform="translate(105.641415, 18.987999) scale(-1, 1) rotate(-180.000000) translate(-105.641415, -18.987999) "></path>
                        <path d="M185.761045,4.68771552 C185.528017,5.19014009 185.360991,5.74358836 185.255927,6.33356681 C185.235722,6.42718211 185.244828,6.53258621 185.230657,6.62822198 C185.15792,7.1346875 185.106304,7.64982759 185.119111,8.19196121 C185.118033,8.19869612 185.116956,8.20311422 185.116956,8.20984914 C185.11965,8.21049569 185.11965,8.2109806 185.122344,8.21302802 L185.122344,8.2141056 C185.215345,11.9993427 187.359143,16.4764978 191.127732,18.6408297 C195.448206,21.1199246 200.873421,18.3057274 203.346482,16.7203017 C203.352516,16.7169612 203.357904,16.712764 203.363292,16.7087284 C204.19368,16.1739763 204.685005,15.7858297 204.685005,15.7858297 C203.836406,15.0147091 202.941633,14.2872845 202.023691,13.5875 C201.880911,13.8676724 201.703863,14.1287177 201.503836,14.3725216 C201.472856,14.4082166 201.43792,14.4435776 201.404919,14.4819612 C201.202872,14.7089278 200.983777,14.9210776 200.734607,15.1049138 C200.461169,15.3069612 200.165911,15.493222 199.8359,15.6279203 C197.650447,16.5196228 195.161762,15.4685129 194.268012,13.2843858 C194.058836,12.7649407 193.968901,12.2343319 193.971255,11.7111638 C193.972333,11.6975269 193.976643,11.6853933 193.976643,11.6711746 C193.976643,11.6629741 193.973949,11.6560453 193.973411,11.6480226 C193.976643,11.4884321 193.985587,11.3287554 194.004984,11.17132 C194.015113,11.1032974 194.017376,11.0317403 194.028152,10.9650647 C194.082705,10.6532381 194.179774,10.3567134 194.299655,10.0684591 C194.328588,9.99100754 194.365275,9.91494612 194.399623,9.84220905 C194.545097,9.54856681 194.706024,9.26429957 194.912112,9.00772629 C191.231509,6.96974138 187.824828,5.50551724 185.76125,4.68789871 L185.761045,4.68771552 Z M197.625808,10.590194 C197.164467,10.9976563 196.980981,11.6577047 197.222764,12.2571121 C197.53055,13.0121228 198.393939,13.3820043 199.149596,13.0695043 C199.57861,12.897764 199.874704,12.5400162 200.001967,12.1318966 C199.212635,11.5917565 198.421902,11.0792026 197.625781,10.5902478 L197.625808,10.590194 Z M193.638524,11.4615302 C193.647252,11.4654634 193.656088,11.4702155 193.664817,11.4741595 C193.65625,11.4702802 193.647091,11.4664709 193.638524,11.4625862 L193.638524,11.4615086 L193.638524,11.4615302 Z M166.601886,15.2972522 C165.145959,15.3173599 163.434267,15.7648222 161.949515,17.2914332 C159.755981,19.5914332 158.750647,23.4676185 159.420744,27.242403 C161.336153,27.8734375 164.718373,28.2118534 168.898114,28.4536099 C168.527694,24.6820582 168.746746,21.6362608 169.121207,19.3647091 C169.141466,19.2614763 169.520409,17.3351293 169.923093,15.9519935 C169.923093,15.9519935 168.473847,15.2716056 166.601918,15.2974677 L166.601886,15.2972522 Z M171.948761,17.0651401 C171.401239,18.6693966 171.119504,21.7017241 171.119504,21.7017241 C170.948438,23.5949353 170.914806,25.889278 171.196325,28.574569 C173.117123,28.6654903 175.16944,28.7432381 177.288459,28.8260776 C180.202683,28.9365302 183.305162,29.0551024 186.505593,29.2228017 C186.339914,27.6535668 186.378265,26.6961853 186.378265,26.6961853 L186.503491,24.5347091 C176.261034,22.1063685 171.956078,17.0638039 171.956078,17.0638039 L171.948761,17.0651401 Z M188.699838,25.0543642 C188.638551,25.6530711 188.617252,26.2615841 188.621967,26.8811961 C188.624661,26.8822737 188.627462,26.8844289 188.633551,26.8844289 C188.633594,26.891056 188.634628,26.8977909 188.634628,26.9044181 C188.634607,26.9076509 188.633551,26.9106142 188.633551,26.9139009 C188.633551,26.921875 188.635706,26.9291487 188.635706,26.937069 C188.642602,27.7336207 188.684844,28.5393319 188.783033,29.3479526 C194.256094,29.6712284 199.9409,30.1571121 205.394025,30.9969289 C205.189283,29.9025323 205.081444,28.9731142 205.021503,28.245097 C205.013421,28.1662985 205.00076,28.0813524 204.999413,28.0072683 C199.565684,26.941805 193.895964,26.1933136 188.699844,25.0544127 L188.699838,25.0543642 Z M207.302748,28.4849677 C207.386261,29.2695582 207.523696,30.2537177 207.766827,31.3851832 C214.02437,32.4876616 219.86812,34.1094289 224.594413,36.5615841 C220.398561,32.1778556 214.142365,29.9802263 207.302387,28.4850754 L207.302748,28.4849677 Z M160.130873,29.7519935 C160.586827,30.890194 161.203933,31.9809806 162.020851,32.9689655 C164.388847,35.8339978 167.491218,37.5897629 171.075269,38.5998922 C170.151886,35.7429418 169.546875,33.1106681 169.18319,30.7265086 C165.42306,30.5197468 162.36153,30.243028 160.130927,29.7520474 L160.130873,29.7519935 Z M171.496175,30.8390625 C171.900269,33.3457974 172.581358,36.1380388 173.648168,39.1806573 C178.318858,40.0198276 183.629849,39.8501616 189.146013,39.3174569 C188.323006,37.2255927 187.387231,34.4497845 186.840356,31.4871767 C183.491756,31.3113955 180.242295,31.1853233 177.204041,31.0715032 C175.176131,30.9927047 173.276239,30.9170636 171.496067,30.8389386 L171.496175,30.8390625 Z M189.160506,31.6230603 C189.745097,34.4773168 190.699731,37.152694 191.483028,39.0756466 C196.734914,38.4863147 202.099946,37.6695582 207.210937,37.1603987 C206.65194,35.8221444 206.235991,34.5350754 205.920797,33.3456897 C200.467672,32.4634159 194.715517,31.9564116 189.16056,31.6230065 L189.160506,31.6230603 Z M208.387877,33.7750539 C208.694316,34.7866379 209.082597,35.8524246 209.567511,36.9488685 C213.277101,36.6552263 216.80889,36.5855981 220.008782,36.9542565 C216.516756,35.5863685 212.570205,34.5557651 208.388093,33.7751616 L208.387877,33.7750539 Z M110.737015,50.0094289 L103.185291,78.1899246 L119.335614,78.1899246 L120.84569,72.5514547 L113.710991,72.5514547 L119.751401,50.0094289 L110.737392,50.0094289 L110.737015,50.0094289 Z M10.8124461,50.0199353 L6.43685345,66.3469828 C5.60307112,69.4605603 5.12516164,71.501778 5.00463362,72.4735991 C4.5608028,76.0532328 8.14903017,78.1896552 13.6813578,78.1896552 C17.8186422,78.1896552 22.8063578,76.7623384 24.6253233,72.8648707 C25.0199892,72.018319 25.4971983,70.5503233 26.0575431,68.459806 L30.998222,50.0196121 L22.1733297,50.0196121 L16.7255927,70.3515086 C16.0588362,72.8434267 15.7686422,73.5211207 14.5557112,73.5211207 C13.5899246,73.5211207 13.4532328,73.0998114 14.0937392,70.7082435 L19.6373815,50.0196659 L10.8124892,50.0196659 L10.8124461,50.0199353 Z M134.390032,57.6260776 C131.938524,57.6260776 127.437985,58.3660022 125.916433,62.0984914 C125.572953,62.9403556 123.665517,69.8425647 123.665517,69.8425647 C123.10986,71.9155711 122.783351,73.3672953 122.683675,74.1949892 C122.318642,77.2182651 125.162015,78.6116379 128.767188,78.6116379 C132.210776,78.6116379 135.947144,77.3171336 137.241864,74.1403017 C137.583324,73.2991379 138.025323,71.8657328 138.568858,69.8425647 L139.490679,66.3972522 C140.047683,64.3235453 140.375323,62.8728448 140.475647,62.04375 C140.799596,59.3457435 138.414817,57.6260776 134.389978,57.6260776 L134.390032,57.6260776 Z M77.4234375,57.6271552 C74.7348599,57.6271552 72.0605603,58.3075431 70.5484375,59.9044181 C69.8722522,60.616972 69.3287177,61.7442888 68.9152478,63.2865841 C67.8457435,67.2769935 70.2215517,68.1368534 72.2595366,69.4185884 C73.6321121,70.2739224 74.473222,70.8842134 74.783028,71.2485991 C75.0840787,71.6136315 75.0756573,72.3889009 74.7577586,73.5742457 C74.4661369,74.6646552 73.8954203,75.2043103 73.0508621,75.2043103 C72.0385776,75.2043103 72.0417565,74.6889655 72.3804957,73.4248384 L73.0371767,70.9739763 L67.0544181,70.9739763 L66.7008351,72.2935884 C66.2967403,73.8022091 66.1728179,74.9677802 66.3304149,75.7894397 C66.6274246,77.3398168 68.7704472,78.6117996 72.382139,78.6117996 C75.07007,78.6117996 78.181708,77.7769935 79.5518588,76.2125 C80.1472252,75.5329741 80.6363416,74.474569 81.0209321,73.0386853 C81.5496228,71.066056 81.5610722,69.6353448 81.0546067,68.7483297 C80.5474677,67.8606681 79.0452317,66.7245151 76.5506196,65.3398168 C74.995555,64.4810884 74.7251886,64.0973599 75.1299838,62.5900862 C75.4418103,61.4269397 76.049111,61.0357759 76.7252963,61.0357759 C77.574542,61.0357759 77.6020744,61.4721983 77.28618,62.6521552 L76.8862985,64.1454203 L82.8690571,64.1454203 L83.0826832,63.3488147 C83.5116972,61.7485991 83.6235237,60.6154095 83.4194289,59.9466595 C83.1655226,59.1135776 81.745722,57.6273168 77.4232004,57.6273168 L77.4234375,57.6271552 Z M94.0452047,57.6271552 C91.3572737,57.6271552 88.6823276,58.3075431 87.1702047,59.9044181 C86.4940194,60.616972 85.9494612,61.7442888 85.5359375,63.2865841 C84.4670797,67.2769935 86.843319,68.1368534 88.8813039,69.4185884 C90.2545797,70.2739224 91.0949892,70.8842134 91.4047953,71.2485991 C91.7058459,71.6136315 91.6974246,72.3889009 91.3795259,73.5742457 C91.0879041,74.6646552 90.5171875,75.2043103 89.6726293,75.2043103 C88.6603448,75.2043103 88.6631466,74.6889655 89.0012392,73.4248384 L89.658944,70.9739763 L83.6761853,70.9739763 L83.3226024,72.2935884 C82.9185075,73.8022091 82.7952586,74.9677802 82.9521821,75.7894397 C83.2491918,77.3398168 85.391514,78.6117996 89.0039062,78.6117996 C91.6911369,78.6117996 94.804014,77.7769935 96.1736261,76.2125 C96.7683459,75.5329741 97.2581088,74.474569 97.6426994,73.0386853 C98.1720636,71.066056 98.1818157,69.6353448 97.6753502,68.7483297 C97.1682112,67.8606681 95.6670528,66.7245151 93.1724407,65.3398168 C91.6166756,64.4810884 91.3470097,64.0973599 91.751805,62.5900862 C92.0636315,61.4269397 92.6699084,61.0357759 93.3460937,61.0357759 C94.1953394,61.0357759 94.2238955,61.4721983 93.908055,62.6521552 L93.5081681,64.1454203 L99.4909267,64.1454203 L99.7034968,63.3488147 C100.131837,61.7485991 100.245361,60.6154095 100.041293,59.9466595 C99.7873869,59.1135776 98.3682328,57.6273168 94.0450647,57.6273168 L94.0452047,57.6271552 Z M31.0117996,58.0474138 L25.6152478,78.1869612 L31.2461746,78.1869612 L34.8061961,64.9014009 L33.6170797,78.1869612 L37.6106681,78.1869612 L43.5039871,64.5899784 L39.8597522,78.1869612 L45.4906789,78.1869612 L50.8872306,58.0474138 L42.4874461,58.0474138 L38.4980603,67.4498922 L39.350431,58.0474138 L31.0115302,58.0474138 L31.0117996,58.0474138 Z M143.107705,58.0474138 L140.587392,78.1869612 L148.590625,78.1869612 L153.206142,67.6373922 L152.3243,78.1869612 L160.372791,78.1869612 L168.629256,58.0474138 L162.372252,58.0474138 C160.286476,62.7079741 156.751562,72.3399784 156.751562,72.3399784 L159.17403,58.0474138 L152.472522,58.0474138 L146.997306,71.8550647 L149.36611,58.0474138 L143.108028,58.0474138 L143.107705,58.0474138 Z M185.122791,58.0474138 L179.726239,78.1869612 L191.255334,78.1869612 L192.335022,74.1565194 L187.24806,74.1565194 L191.563685,58.0476832 L185.122414,58.0476832 L185.122791,58.0474138 Z M198.754795,58.0474138 L193.358244,78.1869612 L204.886261,78.1869612 L205.965948,74.1565194 L200.878987,74.1565194 L205.195636,58.0476832 L198.754364,58.0476832 L198.754795,58.0474138 Z M56.2601832,58.0484914 L47.5899246,78.1869612 L54.260722,78.1869612 L55.6129849,74.5669181 L57.9239224,74.5669181 L57.2746228,78.1869612 L63.8694504,78.1869612 L65.5784483,58.0484914 L56.2600216,58.0484914 L56.2601832,58.0484914 Z M170.705226,58.0484914 L165.308675,78.1869612 L177.648114,78.1869612 L178.728879,74.1554957 L172.829634,74.1554957 L174.016649,69.7283405 L178.50695,69.7283405 L179.532974,65.8968211 L175.042672,65.8968211 L176.066595,62.0779095 L181.928125,62.0779095 L183.007812,58.0485453 L170.705011,58.0485453 L170.705226,58.0484914 Z M133.507489,61.0329203 C134.428179,61.0329203 134.315194,61.6707435 133.89896,63.2217672 L131.41965,72.4760776 C130.855964,74.5767241 130.631503,75.2016164 129.66437,75.2016164 C128.854133,75.2016164 128.747344,74.9096983 129.360248,72.6265625 L131.879537,63.2219289 C132.412268,61.2290409 132.765312,61.0330819 133.5075,61.0330819 L133.507489,61.0329203 Z M59.9783944,62.5503772 L58.6955819,70.9975754 L56.4920259,70.9975754 L59.9783944,62.5503772 Z" fill="#FFFFFF" transform="translate(114.781025, 41.649758) scale(-1, 1) rotate(-180.000000) translate(-114.781025, -41.649758) "></path>
                    </g>
                </g>
            </g>
        </g>
    </g>
</svg>