<?xml version="1.0" encoding="UTF-8" standalone="no"?>
<svg width="250px" height="250px" viewBox="0 0 250 250" version="1.1" xmlns="http://www.w3.org/2000/svg" xmlns:xlink="http://www.w3.org/1999/xlink">
    <!-- Generator: Sketch 47.1 (45422) - http://www.bohemiancoding.com/sketch -->
    <title>CLEM</title>
    <desc>Created with Sketch.</desc>
    <defs></defs>
    <g id="Page-1" stroke="none" stroke-width="1" fill="none" fill-rule="evenodd">
        <g id="CLEM" fill-rule="nonzero" fill="#F56600">
            <g id="Clemson_University_Tiger_Paw_logo" transform="translate(0.000000, 5.000000)">
                <g id="Group" transform="translate(124.948776, 119.599998) scale(-1, 1) rotate(-180.000000) translate(-124.948776, -119.599998) translate(0.365444, 0.207639)">
                    <path d="M133.115214,0.506996938 C133.057075,0.647153186 132.409241,0.856544545 132.367714,1.00498974 C132.118547,1.69850362 132.533825,2.25049083 132.61688,2.74882416 C132.342797,2.80281027 132.218214,3.20903499 132.118547,3.24848638 C131.213241,3.55263582 130.067075,3.0148511 129.128547,3.24848638 C128.630214,3.36476415 127.924241,4.38526775 127.38438,4.49431969 C126.229908,4.72064608 125.615297,3.96384387 124.643547,4.74248969 C124.178436,5.1007083 123.165158,8.26894548 122.89938,8.97815686 C122.625297,8.83031797 122.434269,9.08695963 122.15188,8.97815686 C121.869492,8.86935408 121.504047,8.12218631 121.155214,7.98198854 C118.871186,7.0559191 118.962547,8.93164575 117.916047,9.72565685 C117.533992,10.0063846 116.877853,10.0055541 116.421047,10.2239902 C116.421047,10.2239902 116.230019,9.4856263 116.17188,9.22815408 C116.462575,8.95573186 117.301436,8.65257908 117.417714,8.23181965 C117.484158,7.95150715 117.301436,7.49063188 117.417714,7.23415632 C117.201769,7.06289577 116.977519,7.08606827 116.91938,6.73615522 C116.462575,6.73615522 115.87288,6.83789827 115.42438,6.73615522 C115.175214,7.07875938 114.519075,7.57709271 114.427714,7.98198854 C114.37788,8.15333215 114.535686,8.55872631 114.427714,8.72982075 C114.236686,8.99476797 113.264936,9.19742352 113.181881,9.47732074 C112.808131,10.6060457 113.431047,11.4615179 113.680214,12.2173235 L113.181881,12.2173235 C112.816436,12.3344318 112.085547,13.6425568 112.185214,14.2114873 C112.218436,14.4133123 112.857964,14.8103179 112.932714,14.9589873 C113.015769,15.1300818 113.048992,15.8385457 113.181881,15.9548234 C113.381214,16.1333929 113.754964,15.978079 113.92938,16.2048207 C113.489186,17.1466706 113.522408,17.5594567 113.181881,18.6964873 C113.048992,18.6109401 112.567269,18.6964873 112.434381,18.6964873 C111.778242,17.3102901 111.620436,17.824404 111.936047,15.7064873 C111.686881,15.589379 111.155325,15.0129734 110.939381,14.9589873 C110.191881,14.7563318 109.170297,15.1699484 108.447714,14.9589873 C108.198547,14.8809151 108.057353,14.0545123 107.700214,13.9614901 C107.426131,13.8834179 106.504214,14.1575012 106.703547,14.2114873 C106.404547,14.7405512 106.030797,15.2538346 105.706881,15.9548234 C105.665353,16.0328957 105.233464,16.1342234 105.208547,16.2048207 C105.042436,16.6093012 105.250075,17.4099568 104.959381,17.6989901 C104.502575,18.1192512 103.696936,17.809454 103.215214,18.198154 C102.858075,18.4705762 102.17702,22.0826622 102.716881,22.4339872 C103.489297,22.9323206 103.937797,22.4572428 104.461047,22.18399 C104.851408,21.9730289 104.643769,21.7022678 104.710214,21.1881539 C104.876325,21.24214 105.457714,21.43649 105.457714,21.43649 C105.316519,22.18399 105.266686,22.33349 105.208547,23.1814872 C104.934464,23.2354733 104.809881,23.6407844 104.710214,23.6798206 C103.954408,23.9364622 102.750103,23.48464 101.969381,23.6798206 L101.720214,24.1781539 C101.313242,24.433965 100.956103,24.1939344 100.474381,24.4273205 C100.748464,23.09594 100.881353,22.3251845 101.221881,21.1881539 C100.75677,20.9929734 101.097297,21.1657289 100.972714,20.6898206 C99.776714,20.5967984 98.7219085,20.2072678 97.982714,21.1881539 C97.010964,22.4580734 97.3681029,23.7421122 97.982714,24.9256539 C97.4843807,25.5244844 96.6206029,26.2254733 96.487714,27.1673233 C96.4378807,27.4630011 96.637214,28.1482094 96.487714,28.4131566 C96.4295752,28.4912288 95.3581585,28.6324233 95.2418807,28.6631538 C95.1671307,29.1457066 95.1754363,29.7686233 94.9927141,30.4073205 C95.0342418,30.4139649 95.8897141,30.5717705 95.9893807,30.6564871 C96.263464,30.8823982 96.2302418,31.7004955 96.487714,31.9023205 C95.9395474,31.8873705 93.1571863,32.142351 92.5010474,32.6489899 C91.8781308,33.1157621 92.8249641,35.6547704 92.5010474,36.6364871 C92.3183252,37.1572454 91.5292974,37.6871398 91.2552141,38.131487 C90.1256586,39.9379454 89.3034086,41.3000564 88.0160475,42.8656536 C87.800103,43.1214648 87.1439642,43.3631564 87.0193808,43.8614897 C86.2386586,46.9212564 87.7668808,45.8157869 88.5143808,46.1031592 C88.6887975,46.1662814 89.4861308,46.9063064 89.7602141,47.1006564 C89.3034086,48.074898 88.173853,49.6155786 89.0127141,51.0881535 C89.1622141,51.3531008 89.8515752,51.5009396 90.0093808,51.8356535 C90.1754919,52.201098 89.6605475,52.0133924 89.7602141,52.582323 C90.0010752,54.0449313 91.6372697,54.0781535 92.9993808,54.0781535 C92.8498808,54.1321396 92.0525474,54.8098729 92.0027141,54.8239924 C89.594103,55.5332868 89.9595475,54.4834646 89.0127141,56.8189868 C87.8997697,55.3472424 87.0692142,54.9950868 84.7768809,54.5756563 C84.5858531,54.9651868 84.3200753,55.0573785 84.0293809,55.3223257 C84.4778809,56.4518813 84.494492,56.9975562 85.0260475,58.0648201 C84.6273809,58.3289368 83.8300475,58.6786007 83.5310475,59.0598257 C83.2486587,59.4028451 83.3400198,60.0182868 83.0327142,60.3073201 C82.775242,60.5407062 82.3400309,60.3613062 82.0368781,60.5548256 C81.7171142,60.7500062 81.280242,61.4908617 81.0393809,61.8023201 C81.1398781,61.9742451 81.0393809,62.5880256 81.0393809,62.7989867 C82.3009948,63.1170895 82.4488337,63.2574534 84.0293809,63.0464923 C83.8881864,63.3197451 84.1373531,63.4974839 84.0293809,63.7948228 L83.5310475,64.04482 C82.9911864,64.8612561 83.2486587,65.352945 83.0327142,66.5364867 C83.1905198,66.6212033 83.9380198,66.9011006 84.0293809,67.0339895 C84.7270475,67.9982644 85.092492,68.8171922 85.7735475,69.7739922 C85.2835197,70.1012311 83.9546309,70.6776366 83.7802142,71.2698227 C83.6473253,71.6983894 83.9047975,72.0804449 83.7802142,72.515656 C84.4363531,72.6867505 85.5825197,72.9126616 86.2718808,73.263156 C86.4213808,73.3329227 86.7951308,73.9475338 87.0193808,74.0098255 C87.4595753,74.1186282 87.8250197,73.8935477 88.2652142,74.0098255 C88.1157142,74.578756 87.9828253,75.1310755 87.7668808,76.0031588 C87.1439642,76.0272449 87.0692142,75.520606 86.2718808,75.7548227 C86.1223808,75.7930282 85.7569364,76.3852143 85.5243809,76.5014921 C86.4712142,78.2689143 85.4081031,77.7871921 88.0160475,77.9964921 C88.2569086,78.6592754 88.5309919,79.422556 88.7635475,79.990656 L89.0127141,79.990656 C89.2120475,81.0421393 88.6804919,81.4067532 88.7635475,82.4823226 C88.8216864,83.3760004 89.6107141,85.1783059 89.7602141,85.9673337 C89.8598808,86.5487225 89.5691864,87.1633336 89.7602141,87.7115003 C89.7934364,87.8194725 90.192103,87.9440559 90.2585475,88.2098336 C92.3183252,87.4789447 90.8814641,88.6417225 92.2518808,86.9640003 C92.5259641,87.0968892 92.7003808,86.8477225 92.9993808,86.9640003 C93.0658252,86.988917 93.5807696,87.6782781 93.7468807,87.7115003 C94.8182974,87.9523614 94.976103,87.2546947 95.9893807,87.7115003 C97.085714,88.2098336 95.8731029,88.9573336 95.7402141,89.4556669 C95.6654641,89.7380558 95.8398807,90.1782503 95.7402141,90.4523336 C97.5757418,91.7729169 98.2567974,92.537028 100.972714,92.4456669 C101.113908,92.1051391 101.221881,91.5320558 101.471047,91.1998336 C101.65377,90.9423614 102.284992,90.9257503 102.467714,90.7015003 L102.467714,93.4423336 C102.525853,93.7496391 103.912881,95.4356669 104.211881,95.9340002 C104.884631,95.8841669 105.515853,95.9340002 106.205214,95.9340002 C106.279964,95.7761946 106.554047,94.9705558 106.703547,94.9373335 C108.946047,94.4390002 109.544047,96.872528 110.690214,97.1798335 C111.396186,97.3708613 111.803158,97.0469446 112.434381,96.9306668 C112.675242,97.2296668 112.799825,98.0519168 113.181881,98.1765002 C113.447658,98.2678613 113.921075,98.0436113 114.178547,98.1765002 C114.22838,97.9190279 114.635353,97.7861391 114.67688,97.6781668 C114.818075,97.2545835 114.552297,96.8642224 114.67688,96.4323335 C114.45263,96.3908057 113.339686,96.3575835 112.932714,96.1831669 C112.500825,95.9921391 112.309797,94.8127502 111.936047,94.6881669 L111.437714,94.6881669 C111.304825,94.4223891 111.570603,93.9489724 111.437714,93.6915002 C111.612131,93.4257224 112.035714,93.0021391 112.185214,92.6948336 C112.509131,92.9938336 113.206797,93.0436669 113.431047,93.4423336 C113.55563,93.6748891 113.356297,94.181528 113.431047,94.4390002 C113.530714,94.8210558 114.211769,95.1283613 114.427714,95.4356669 C114.90113,95.3443058 115.440992,95.5436391 115.922714,95.4356669 C116.778186,95.2363335 116.985825,94.2396669 118.165214,94.1898335 C119.510714,94.1316947 120.781464,95.4356669 122.650214,94.9373335 C123.920964,94.5968058 123.605353,92.9606113 124.39438,92.4456669 C125.266464,91.864278 126.48738,92.3044725 127.633547,91.9473336 C127.90763,91.8559725 128.331214,91.3327225 128.630214,91.1998336 C128.630214,90.9838891 128.530547,90.3941947 128.630214,90.2031669 C128.763103,89.9373892 129.203297,90.0370558 129.377714,89.7048336 C130.548797,90.0785836 132.027186,90.9008336 133.36438,90.2031669 C133.679991,90.0370558 133.846102,89.1566669 134.11188,88.9573336 C134.361047,88.7580003 134.826158,88.8493614 135.108547,88.708167 C135.349408,88.5835836 135.856047,87.8360836 136.105214,87.7115003 C136.686602,87.4041947 137.276297,87.437417 137.84938,87.213167 C137.84938,87.213167 138.164991,86.0503892 138.098547,85.718167 C138.007186,85.344417 137.168325,85.0038892 137.10188,84.7215003 C136.910852,83.9906115 137.417491,84.0902781 137.351047,83.475667 C137.69988,83.2181948 137.857686,82.8394615 138.098547,82.4823226 C139.070297,82.6143809 140.174936,82.9175337 141.088547,82.4823226 C141.636713,82.2090698 141.470602,81.6567504 141.836047,81.2364893 C142.326075,80.6526087 143.463936,80.1692254 144.078547,79.7406587 C143.970575,78.9308671 143.721408,78.114431 143.82938,77.4989893 C143.920741,76.9383643 144.826047,76.4084699 145.075213,76.0031588 C145.390825,75.4666199 145.307769,75.0779199 145.573547,74.5089894 C145.490491,74.4466977 144.850963,74.1028477 144.826047,74.0098255 C144.709769,73.7216227 144.967241,73.5281033 144.826047,73.263156 C146.811075,71.8537033 147.184825,71.0987283 144.826047,69.7739922 C146.304436,69.0040672 147.591797,68.2167005 149.06188,67.5323228 C148.945602,67.2050839 149.06188,66.6369839 149.06188,66.2864895 C148.76288,66.1469561 148.339297,65.6245367 148.065213,65.5381589 C147.068547,65.2267006 146.453936,65.56972 145.822713,65.0406561 C145.556936,64.8155756 145.673213,64.2142534 145.573547,63.7948228 C145.017075,63.9891728 145.191491,63.1021395 145.075213,62.7989867 C145.116741,62.7989867 146.470547,62.8911784 146.07188,63.0464923 C147.674852,62.8612784 150.473824,62.6660978 149.06188,60.5548256 C148.928991,60.3613062 148.123352,60.2525034 148.065213,60.0573229 C147.907408,59.5672951 148.505408,58.8596618 148.31438,58.0648201 C148.148269,57.4335979 147.226352,57.308184 147.068547,57.0673229 C146.553602,56.2890924 146.329352,56.0631813 147.317713,55.5731535 C147.19313,53.868023 147.110075,53.9369591 148.065213,53.0814869 C148.115047,53.0266702 148.737963,53.0814869 148.812713,53.0814869 C148.854241,52.8015896 148.83763,51.655423 149.06188,51.3364897 L150.55688,50.5898202 C150.216352,49.5458119 149.80938,48.5408397 150.058547,47.8489869 C150.116686,47.6463314 150.764519,47.0391953 150.806047,46.8523203 C150.897408,46.2767453 150.465519,46.4852147 150.55688,46.1031592 C150.266186,46.1662814 149.58513,46.3531564 149.560213,46.3531564 C148.937297,48.4469869 149.169852,49.1728925 147.816047,47.3506536 C147.151602,47.4287258 147.234658,47.6687564 146.81938,47.8489869 C146.81938,47.8489869 146.777852,46.2825592 146.81938,45.8548231 C148.812713,45.3946953 148.065213,45.7385453 149.06188,44.3606536 C149.277824,44.5167981 149.543602,44.2593259 149.80938,44.3606536 C150.066852,44.4619814 150.116686,45.2244314 150.307713,45.3573203 C151.462186,46.1737564 153.007019,45.6131314 154.045213,45.3573203 C153.928936,44.8731064 154.178102,44.328262 154.045213,43.8614897 C153.962158,43.5724564 153.131602,42.9894064 153.048547,42.6156564 C152.973797,42.3349287 152.907352,41.2452398 153.297713,41.3698231 L153.297713,40.8714898 C153.239574,40.7161759 152.583436,40.202062 152.550213,40.1239898 C152.483769,39.9753204 152.608352,39.5093787 152.550213,39.3773204 C154.394047,38.5675287 154.634908,38.4271648 155.540213,36.6364871 L156.038547,36.1381537 C156.113297,35.5933093 155.598352,35.1805232 155.78938,34.3939871 C155.880741,33.9579454 156.711297,33.4197454 156.786047,32.8989871 C156.852491,32.3450066 156.362463,31.738701 156.53688,30.9048232 C156.636547,30.4064899 157.666435,29.5659677 157.782713,29.1614872 C157.932213,28.6158122 157.691352,27.9696399 157.782713,27.4173205 C156.146519,26.4588594 156.221269,26.8641705 156.038547,24.4273205 C156.445519,24.1698483 156.188047,24.2088844 156.287713,23.6798206 L156.786047,23.6798206 C156.810963,24.1781539 156.736213,24.9331289 156.786047,25.6731539 C156.83588,25.6648483 158.173074,25.6258122 157.782713,25.4239872 C157.874074,25.1274789 158.281047,24.1457622 158.530213,23.9281567 C158.55513,23.8899511 158.538519,23.2288289 158.530213,23.1814872 C158.422241,22.7770067 157.791019,22.2861484 157.533547,21.9356539 C157.73288,21.6092456 158.098324,21.2338345 158.281047,20.9381567 C158.455463,20.6341734 158.970408,19.8949789 159.028547,19.6923234 C159.294324,18.5087817 158.546824,17.5204206 158.530213,16.9523206 C158.488685,15.955654 159.136519,15.4415401 159.028547,14.2114873 L158.530213,13.4631568 C157.95713,10.7065429 158.40563,11.1351096 155.78938,10.4739874 C155.673102,10.9723207 155.407324,11.8983902 155.291047,12.4673207 C154.809324,12.591904 154.975436,12.248054 154.792713,12.7156568 C153.92063,12.6757901 152.815991,12.5063568 152.301047,12.4673207 C152.409019,10.5603652 152.284436,9.87515685 151.802713,8.23181965 C151.08013,8.06878159 149.850908,7.38232743 148.812713,7.73215743 C148.621686,7.78722326 148.330991,8.34710075 148.065213,8.47982353 C148.065213,9.05622908 148.148269,9.63927907 148.065213,10.2239902 L147.56688,10.2239902 C147.317713,9.70157074 147.56688,9.42997907 147.317713,8.97815686 C146.96888,8.36238298 145.714741,7.82692382 145.573547,6.98598633 C145.332686,5.57611829 146.254602,5.53708218 146.07188,4.24448859 C146.013741,3.89465859 143.887519,1.0672814 143.580213,1.00498974 C142.201491,0.709120936 142.002158,1.64443445 141.337713,2.00265306 C140.523769,2.42308027 139.585241,2.64882527 138.846047,2.99865527 C139.253019,4.63385302 140.208158,7.67950021 137.10188,6.98598633 C136.005547,6.73681966 136.304547,5.98167856 135.856047,4.9923208 C135.781297,4.8293658 135.141769,4.65835441 135.108547,4.49431969 C134.884297,3.34914971 135.714852,2.35215083 135.108547,1.25482085 C134.751408,0.61633127 133.854408,0.811187907 133.115214,0.506996938 L133.115214,0.506996938 Z M58.8643784,32.1503326 C58.7240145,32.3837188 58.2871423,32.2209299 58.1160479,32.4003299 C57.7580784,32.7499937 58.1168784,33.6611132 57.8677118,34.1444965 C57.6343257,34.5805382 56.3187257,35.2192354 55.3760451,34.8919965 C55.3760451,34.8919965 54.9092729,33.5589548 54.1302118,33.396166 C53.4059674,33.2408521 52.4707618,33.6303826 52.1368785,33.6461632 L51.8868813,35.6394965 L50.641048,37.1336659 L51.3893785,37.382002 C51.8719313,38.122027 51.9333924,38.4193659 52.3852146,39.3769964 C52.1202674,39.2524131 51.6618007,39.4708492 51.3893785,39.3769964 C50.5322452,39.0813187 49.6061758,36.5580909 48.6477147,36.1378298 C47.4326119,35.5929854 45.3396119,35.6544465 43.9143786,35.3903298 C43.6577369,35.7399937 43.2765119,35.8961382 42.917712,36.1378298 C42.9260175,36.1378298 42.917712,36.8462937 42.917712,36.8853298 C43.2291703,36.963402 43.3155481,37.5074159 42.917712,37.382002 C42.8637258,37.3678826 42.7075814,36.963402 42.6685453,36.8853298 C41.975862,36.8853298 41.1112536,36.9085854 40.4260453,36.8853298 C40.1303675,38.5206937 39.4285481,39.2673631 38.6810481,40.3736631 C38.3778953,40.1394464 37.9808898,40.3487464 37.685212,40.1236659 C37.5838842,40.0455937 37.2109648,39.1967659 37.1868787,39.1278298 C38.8612787,38.660227 34.3754482,39.2216826 36.1893815,39.3769964 C35.7840704,39.4932742 35.4975287,39.3836409 35.1935454,39.6253326 L33.6977148,41.3694992 C33.3081843,42.0621825 33.5116704,43.3935631 32.7018787,43.8611658 C32.3281288,44.0704658 31.2533899,44.0555158 30.9577121,44.111163 C29.7359649,47.317938 29.9070593,45.1925464 27.9677121,46.1028352 C27.6496094,46.2440297 27.5001094,47.1152825 27.2202122,47.3503297 C26.9635705,47.5446797 26.4959677,47.4508269 26.2227149,47.5986658 L25.9743788,48.0961686 C24.8855205,48.797988 23.8564622,48.5571269 22.7352122,48.596163 C22.5873733,48.9458269 22.4943511,49.6700713 22.2368789,50.0903324 C21.8091428,50.7597602 20.9129733,50.6434824 20.2435456,51.0878296 C19.3864123,51.6401491 17.3548734,54.8710101 16.7552123,55.0736657 C16.6763095,55.0960907 15.7045595,54.7937685 15.2610429,54.8236685 C14.3416179,54.8784851 12.7768512,55.3710046 12.0218762,55.5728296 C12.0218762,56.880124 12.1315096,57.7746323 12.2718735,58.8111656 C11.6954679,58.6624962 12.3557596,59.0910629 11.771879,59.0595017 L11.2743762,58.5611684 C10.4330235,58.3360879 9.47456238,59.1467101 9.28021238,59.5586656 C8.86742628,60.423274 9.21792072,61.1948601 9.28021238,62.0503323 C9.70794849,62.0503323 10.3632568,61.9182739 10.7760429,62.0503323 C10.5501318,64.8999683 10.852454,64.9390044 8.28271517,64.790335 C8.21294851,64.954785 7.66851935,65.4215572 7.53662713,65.537835 C7.82424851,66.5203822 7.75431573,66.9713739 8.03437906,68.0311627 C7.92565934,68.0145516 6.96005547,68.2172072 6.54062492,68.2794989 C6.54062492,68.2794989 6.64967686,66.9871544 4.04895828,68.7778322 C4.41440272,71.526971 3.13775579,72.476296 3.55095718,75.5045015 C2.81898858,75.9255932 1.97713747,76.5642904 1.30746054,77.0003321 C1.39259248,77.4363737 1.21402304,77.8026487 1.30746054,78.2461654 C1.43204387,78.8699126 2.21168636,79.6938237 2.30512386,80.4878348 C2.39748164,81.3532737 2.29615386,82.0924681 2.05529275,82.7303348 C2.0469872,82.7452848 1.55729165,82.9811626 1.55729165,82.9811626 C1.27697915,84.5218431 1.89856692,86.3573708 2.05529275,87.7111764 C2.35844553,87.8191486 2.69407302,87.6945653 2.80312496,87.960343 C2.91217691,88.2261208 2.66301024,88.6912319 2.80312496,88.9570097 C2.6234758,89.1729541 1.95288525,89.455343 1.80546164,89.7045097 C0.995669987,91.0167875 1.76700692,92.1961763 1.55729165,93.6911763 C1.55729165,93.6911763 1.11327665,93.9154263 1.05929054,93.940343 L1.05929054,94.4386763 C0.988693321,94.8290374 0.747832213,95.6678985 1.05929054,96.4320096 C1.12050249,96.5898152 1.66534692,96.797454 1.80546164,96.9303429 L1.80546164,97.4286763 C4.38226022,97.6113985 4.40518355,97.6363151 5.79121465,95.9336763 C5.97908631,96.0001207 6.50848242,96.1994541 6.54062492,96.1828429 C6.43157297,96.5399818 6.07268992,97.0133985 6.04262381,97.1795096 C5.96372104,97.544954 6.28921575,98.6745096 6.28921575,98.6745096 C6.39818464,98.7575651 6.9919488,99.0316485 7.03862602,99.1728429 C7.22450435,99.7542318 6.98364324,100.551565 7.03862602,101.166176 C4.75667466,100.111371 3.27039551,100.327315 4.29712828,103.15951 C4.42279133,103.516648 4.27395578,103.732593 4.54695939,103.90701 C4.99861549,104.197704 5.69013604,103.890398 6.28921575,104.156176 C6.44494492,104.230926 6.8745913,105.127926 7.03862602,105.152843 C8.64234572,105.451843 9.28934849,103.823954 9.78020682,102.910343 C10.060104,103.051537 10.463754,103.392065 10.7760429,103.408676 C9.9114346,105.136232 10.2536235,104.887065 10.7760429,106.398676 C10.7212263,106.423593 10.7760429,107.088037 10.7760429,107.146176 C10.643154,106.780732 10.5036207,107.794009 10.5260457,107.893676 C10.8458096,109.372065 12.8922984,109.239176 14.2635457,109.139509 C14.186304,109.264093 14.3108873,109.745815 14.2635457,109.887009 C13.9977679,110.559759 12.3640651,111.274037 11.771879,111.631176 C11.9197179,112.054759 11.6165651,112.453426 11.771879,112.877009 C11.8574262,113.126176 13.2286734,114.305565 13.5160457,114.372009 C14.545104,114.621176 16.3731567,113.973343 17.0035484,113.624509 C17.2369345,113.49162 17.6505512,112.685982 18.0010456,112.627843 C18.7942261,112.494954 19.0757845,112.943454 19.7452122,113.126176 C19.7294317,113.126176 19.7452122,113.840454 19.7452122,113.873676 C16.6389345,114.222509 15.8208373,114.98662 17.5018817,117.362009 C18.8340928,117.021482 19.1546873,117.204204 20.4927122,116.863676 C20.5948706,117.685926 20.8207817,119.297204 21.4902094,119.604509 C21.9412011,119.812148 22.7186011,119.538065 23.232715,119.604509 C25.8813566,119.961648 25.9428177,121.107815 27.7185455,118.607843 C28.9951094,118.749037 29.782476,118.973287 30.709376,118.607843 L31.2077093,118.109509 C32.039926,117.993232 32.8970593,118.566315 33.4493787,118.607843 C34.1586732,118.657676 34.4070093,118.358676 34.9435482,118.358676 C35.0988621,117.727454 35.2251065,117.187593 35.442712,116.365343 C35.0465371,116.049732 34.6412259,115.891926 34.1968787,115.617843 L34.1968787,115.119509 C35.0224509,114.729148 35.9568259,114.114537 36.6885454,113.873676 C37.5456787,113.591287 38.8770592,113.475009 39.6785453,113.873676 L40.1768787,114.372009 C41.4609175,114.563037 42.1012759,113.757398 42.917712,113.624509 C43.4783369,113.524843 44.3886258,113.848759 44.9102147,113.624509 C45.6734953,113.292287 45.6261536,111.747454 46.156048,111.132843 C46.709198,110.485009 47.9625063,110.177704 48.6477147,109.637843 C48.4143285,109.031537 49.3952146,109.637843 49.3952146,109.637843 C49.7448785,111.905259 49.3653146,111.523204 51.6385452,111.880343 C52.0122952,111.174371 52.6260757,109.662759 53.6310479,109.637843 C54.0670896,109.621232 53.7714118,109.986676 54.3785479,109.887009 C54.5031312,110.244148 54.245659,110.775704 54.3785479,111.132843 C54.425059,111.265732 55.0022951,111.631176 55.1268785,111.880343 C55.3993007,111.772371 55.8353423,111.955093 56.1227146,111.880343 C56.9009451,111.664398 57.3220368,109.862093 57.6185451,109.139509 C60.4058895,109.023232 59.829484,109.280704 60.8577117,107.395343 C61.9706562,107.544843 62.5470617,107.470093 63.5977145,107.395343 C63.6517006,107.129565 64.0586728,107.004982 64.0968783,106.897009 C64.2837533,106.357148 63.9100034,105.701009 64.0968783,105.152843 C64.2447172,104.712648 65.29537,104.289065 65.5910478,103.90701 C65.9099811,103.483426 65.9573228,102.752537 66.3393783,102.41201 C67.0710978,101.755871 68.2147727,101.722648 68.5810477,100.667843 C68.7679227,100.119676 68.472245,99.5050651 68.5810477,98.9236762 C68.6275588,98.6329818 69.2978172,97.7276763 69.3285477,97.4286763 C69.5154227,95.5350096 68.4165977,95.360593 67.3352144,94.687843 C67.0079755,95.1280374 66.6732616,95.5100929 66.3393783,95.9336763 C66.962295,96.0499541 65.5910478,96.4320096 65.5910478,96.4320096 C65.8244339,95.0865096 65.3958672,95.1280374 66.8368811,94.1895096 C67.4132866,93.8074541 67.7878672,93.8489819 68.3327116,93.4420096 C68.4963311,93.3091208 68.6358644,92.7858708 68.831045,92.6945097 C69.6790422,92.2875374 70.7155755,92.669593 71.5718783,92.1961763 C71.9688838,91.9719263 71.7587533,91.1912041 72.0702116,90.950343 C71.680681,90.2360652 71.9763588,90.128093 71.3227116,89.7045097 C70.9489616,89.4636486 70.5511255,89.4138152 70.0768783,89.2061764 C70.3409949,89.0317597 70.5203949,88.334093 70.8243783,88.2095097 C71.5403171,87.9271208 72.2645616,88.2842597 72.8177116,87.960343 C73.3077393,87.6696486 72.9805005,87.1879264 73.3160449,86.7145097 C73.5253449,86.4072042 74.3666977,86.2577042 74.5618782,85.9670097 C74.7869588,85.6098709 75.6980782,82.9255153 75.5577143,82.2320015 C75.4713365,81.8358265 74.6939365,81.5160626 74.5618782,81.2361654 C74.2886254,80.6522848 74.506231,80.2561098 74.311881,79.4919987 C74.6391199,79.4778793 74.6773254,79.0235654 74.8102143,78.9928348 C75.3392782,78.8524709 75.5269838,79.422232 75.8077115,79.4919987 C77.3184921,79.8350181 77.6365948,78.9463237 78.2993782,78.4945015 C78.1747948,77.4280682 78.0103448,76.1124682 78.0493809,75.256996 C76.8658393,74.6565043 76.374981,75.0302543 76.3060449,73.2628321 C76.2279726,71.5485655 77.1532115,71.6581988 77.301881,71.0195016 C77.4181587,70.4987433 77.0610199,69.6258294 77.0535449,69.5253322 C76.8666699,67.3285128 77.660681,67.1042628 77.0535449,65.0403322 C77.3874282,64.9165794 77.9480532,65.0403322 78.2993782,65.0403322 C79.0468782,63.444835 78.9521948,64.0976517 78.5477143,62.2986684 C78.2121698,62.1981712 77.7611782,62.2380378 77.5518782,62.0503323 C76.9978976,61.5378795 76.4995643,60.6259295 76.0560476,60.056999 C77.1307865,59.2015267 77.8948976,58.3510379 79.0468782,57.5653323 C78.9139893,57.1292907 79.1714615,56.7480657 79.0468782,56.319499 C79.000367,56.1716601 78.3533643,55.579474 78.2993782,55.3220018 C78.0659921,54.2397879 78.1897448,53.546274 78.0493809,52.5819991 C78.3301087,52.5894741 79.4048476,52.7680435 80.0435448,52.8303352 C80.0435448,52.8303352 80.3400531,51.6783546 80.2927115,51.3361657 C80.2694559,51.2107518 79.1008643,48.1518158 79.0468782,48.0961686 C78.7977115,47.863613 78.0576865,47.7622852 77.8010448,47.5986658 C78.1664893,46.4475158 79.015317,44.3736186 77.5518782,43.8611658 C77.122481,43.7041908 76.726306,44.0081742 76.3060449,43.8611658 C76.1258143,44.327938 76.0020615,44.7556742 75.8077115,45.1069991 C74.5618782,47.2789019 75.5892754,45.2481936 74.5618782,45.606163 C74.5618782,45.1535103 74.670681,44.5388992 74.5618782,44.111163 C74.6399504,44.0638214 75.044431,43.9076769 75.0602115,43.8611658 C75.1690143,43.4948908 75.3085477,43.5497075 75.5577143,43.3628325 C75.3550588,42.8179881 75.1291477,42.2498881 75.0602115,41.8686631 C74.6158643,42.0787936 73.0510977,42.7316103 72.5685449,42.6153325 C72.5128977,42.599552 71.9447977,41.9002242 71.8202144,41.8686631 C71.5320116,41.7914214 71.0959699,41.9699909 70.8243783,41.8686631 C70.6291977,42.0547075 70.0444866,43.0372547 69.8268811,43.1144964 C69.5544588,43.2000436 69.0802116,42.9749631 68.831045,43.1144964 C69.7031283,43.1144964 68.3401866,39.8911103 68.3327116,39.8753298 C69.6092755,39.3994214 69.6640922,39.2524131 70.574381,38.6294965 C70.4572727,38.1934548 70.574381,37.5771826 70.574381,37.1336659 C69.4846922,36.9227048 69.2670866,36.776527 67.8343783,36.8853298 C67.5146144,36.2316826 67.5926866,36.3080937 67.0868783,35.8878326 C66.3235978,36.3554354 66.2231005,36.6668937 65.093545,37.1336659 C64.8045117,39.6635381 64.9606561,39.6328076 67.0868783,39.6253326 C66.5727644,40.6602048 66.6657866,41.0505659 66.3393783,42.3669964 C65.7164617,41.5414242 64.8128172,40.6062186 63.8477117,40.1236659 L63.5977145,40.1236659 C63.1699784,39.2590576 63.4814367,38.0439548 63.3493784,37.1336659 C63.8784422,37.0323381 63.8169811,37.1344965 64.0968783,36.8853298 C64.4623228,36.5431409 65.3111506,36.2848381 65.5910478,35.8878326 C65.7073256,35.7167382 65.7937033,34.8446548 65.5910478,35.1403326 C65.5129756,35.1004659 65.2330783,34.2134326 65.093545,34.1444965 C63.9100034,33.5282243 62.11102,34.3853576 61.1060478,34.1444965 C60.3967534,33.964266 60.031309,32.3754132 59.3618812,32.1503326 L58.8643784,32.1503326 L58.8643784,32.1503326 Z M213.098543,35.3903298 L212.60021,35.6394965 C212.317821,36.0672326 212.483932,36.3097548 212.351043,36.8853298 C211.213182,36.5813465 210.739765,36.6818437 209.61021,36.3861659 C208.090293,39.6477576 208.63846,38.7291631 204.876043,38.8778326 L203.63021,39.3769964 C203.430877,39.4160326 203.18171,39.1585603 203.381043,39.1278298 C203.03221,38.9716853 202.475738,39.2748381 202.13521,39.1278298 C201.811293,38.9874659 201.76146,37.4060881 200.391043,37.8819965 C200.357821,37.8886409 199.793043,38.832152 200.391043,38.6294965 C200.391043,38.6294965 200.582071,39.8504131 200.64021,40.1236659 C199.494043,40.9334575 199.676766,40.6460853 198.896043,41.8686631 C198.156849,41.6510575 197.891071,41.6967381 197.401043,41.3694992 C196.45421,40.738277 196.952543,40.1934325 197.151877,40.3736631 C197.234932,39.8196825 197.882766,39.8429381 197.65021,38.8778326 C197.583766,38.6444465 196.786432,38.3338187 196.653543,38.1311631 C196.445904,37.8197048 196.520654,37.5306715 196.404377,37.1336659 C196.321321,37.1494465 195.523988,36.9476215 195.158543,36.8853298 C195.058877,38.1228576 194.950904,39.3994214 195.158543,40.8711659 C194.552238,40.9334575 192.990793,40.8479103 192.168543,41.1211631 C191.811404,41.2299659 191.030682,42.3179936 190.673543,42.6153325 C190.357932,42.4749686 189.743321,42.6153325 189.42771,42.6153325 C189.311432,42.2100214 189.261599,41.7665047 189.178543,41.1211631 C188.480877,40.9417631 187.467599,40.2723353 186.188543,40.6228298 C186.030738,40.6618659 185.515793,41.3379381 185.441043,41.3694992 L184.94271,41.3694992 C183.132099,43.1294464 185.931071,43.5264519 186.936043,44.111163 C187.243349,44.2897325 187.625405,44.9118186 187.93271,45.1069991 C187.517432,45.3868964 187.243349,45.5662964 186.936043,45.8544991 C185.848016,45.082913 184.627099,44.1734547 182.70021,44.858663 C182.276627,44.9990269 181.869655,45.7373908 181.454377,45.8544991 C180.98096,45.9790825 180.432794,45.7598158 179.959377,45.8544991 C179.701905,44.8653075 179.153738,42.9035353 177.966044,42.8653297 C177.575682,42.8495492 177.235155,43.2540297 176.72021,43.3628325 C176.653766,43.6277797 176.246794,43.7523631 176.221877,43.8611658 C175.989321,44.522288 176.014238,45.6128075 175.97271,46.1028352 C174.145488,46.5712686 172.90796,47.1003325 170.74021,47.3503297 C170.374766,48.3312158 170.133905,48.992338 169.743544,49.8403352 L169.24521,49.8403352 L169.24521,49.343663 C168.821627,48.1451713 167.609016,48.6650991 166.753544,48.8444991 C166.429627,50.7439796 165.947905,51.1335102 165.258544,52.5819991 C163.132322,51.8727046 163.605738,51.9125713 162.019377,52.5819991 C162.019377,53.0338213 162.119044,53.6260074 162.019377,54.0778296 L162.766877,54.3253351 C162.758572,54.3253351 162.766877,55.033799 162.766877,55.0736657 C161.504433,54.8859601 160.806766,55.033799 159.776877,55.0736657 C159.685516,55.6342907 159.07921,55.564524 159.278544,56.5694962 C159.286849,56.6234823 160.067572,57.5412462 160.026044,57.5653323 C159.320072,57.8610101 158.962933,59.5578351 158.78021,60.3069962 C156.712127,60.8277545 155.748683,60.7662934 154.295211,61.8019962 C154.378266,62.3626211 154.104183,63.0087934 154.295211,63.5461628 C154.461322,64.0121045 155.707155,64.3783795 156.039377,64.790335 C156.429738,65.2811933 156.512794,66.45726 157.036044,66.7836683 C157.600822,67.1432989 158.148988,66.7064266 158.531044,66.7836683 C158.580877,66.7919739 158.796822,67.2437961 159.029377,67.2820016 C159.021072,67.2986128 158.580877,68.7628822 158.78021,68.7778322 C157.119099,68.5917877 156.629072,68.6142127 155.042711,69.0278294 C155.150683,67.8592377 155.441377,66.1773628 154.295211,65.7878322 C154.012822,65.687335 153.556016,65.9049405 153.298544,65.7878322 C153.232099,66.0527794 152.833433,66.1773628 152.800211,66.2861655 C152.401544,67.4381461 153.340072,67.9049183 153.049377,69.0278294 C152.883266,69.6266599 149.486294,72.4206488 148.813544,73.2628321 C149.112544,73.5435599 148.929822,73.7304349 149.062711,74.2603293 C149.660711,74.4164738 150.673988,74.8824154 151.305211,75.0069988 C148.439794,75.7162932 147.02785,76.7353849 148.315211,79.4919987 C147.451433,80.1074404 145.3086,82.4188764 145.574377,83.9736764 C145.624211,84.3225098 146.487988,84.7211764 146.571044,84.9703431 C146.662405,85.2444264 146.446461,85.701232 146.571044,85.9670097 C146.022877,86.2826208 143.207294,88.3673153 143.082711,88.707843 C142.908294,89.156343 143.182377,89.7294264 143.082711,90.202843 C143.190683,90.2277597 143.88835,90.3440375 144.079377,90.4520097 C144.2621,90.5599819 144.179044,91.1081486 144.328544,91.1995097 C143.929877,91.8722597 142.7671,92.7609541 142.584377,93.4420096 C142.293683,94.4802041 143.049488,96.3572596 142.086044,96.6811763 C141.521266,96.8638985 142.833544,98.1761762 142.833544,98.1761762 L142.833544,98.4253429 C143.007961,98.516704 143.481377,99.2891207 143.581044,99.4220096 C143.838516,99.787454 144.004627,99.8954262 144.328544,100.16951 C143.796988,100.941926 142.517933,102.245898 143.082711,103.90701 C143.14085,104.089732 143.697322,104.388732 143.830211,104.654509 C144.519572,104.538232 145.067738,104.421954 145.574377,104.405343 L145.574377,106.897009 C145.624211,106.357148 145.590988,109.513259 145.823544,109.887009 C145.98135,110.144482 147.019544,110.177704 147.318544,110.385343 C147.492961,110.509926 147.584322,111.240815 147.816877,111.382009 C148.389961,111.739148 149.519516,111.955093 150.059377,112.129509 C150.059377,112.777343 149.835127,114.01487 150.059377,114.621176 C150.325155,115.352065 151.512849,115.293926 152.301877,115.617843 C152.551044,115.252398 153.007849,114.98662 153.298544,114.621176 C153.522794,114.322176 153.622461,113.923509 153.796877,113.624509 C153.996211,114.230815 154.536072,115.974982 155.042711,116.365343 C155.914794,117.046398 156.828405,116.772315 158.03271,116.614509 C157.924738,116.788926 158.074238,117.179287 158.03271,117.362009 C157.95796,117.627787 156.994516,118.400204 156.786877,118.607843 C157.011127,118.931759 157.144016,119.538065 157.28521,119.853676 C158.099155,119.853676 158.813433,119.745704 159.776877,119.853676 C160.167238,119.895204 160.773544,120.576259 161.77021,120.352009 C161.986155,120.302176 162.550933,119.430093 162.766877,119.355343 C163.04096,119.255676 163.48946,119.47162 163.763544,119.355343 C165.183794,121.373593 164.261877,121.481565 167.251877,122.096176 C168.082433,120.908482 168.838238,118.366982 171.238544,118.857009 C171.379738,118.881926 171.969433,119.795537 172.23521,119.853676 C173.157127,120.053009 173.672071,119.32212 174.726877,119.604509 C174.967738,119.670954 175.250127,120.468287 175.474377,120.601176 C175.873044,120.850343 176.27171,120.59287 176.72021,120.850343 C176.969377,120.991537 177.010905,121.697509 177.218544,121.847009 C177.642127,122.154315 180.731794,123.366926 181.703544,123.092843 C182.135432,122.968259 182.392905,121.979898 182.949377,121.847009 C184.278266,121.514787 184.892877,122.420093 186.188543,122.096176 C187.068932,121.871926 187.625405,120.152676 187.93271,119.355343 C191.346293,119.820454 190.208432,119.438398 192.168543,118.109509 C192.56721,117.835426 193.048932,117.885259 193.414377,117.611176 C193.630321,117.445065 193.904404,116.697565 194.161877,116.614509 C195.175154,116.282287 196.354543,116.871982 197.401043,116.614509 C197.832932,116.498232 198.289738,115.850398 198.646877,115.617843 C198.563821,115.21087 198.381099,114.496593 198.39771,114.372009 C197.79971,114.106232 197.168488,113.632815 196.653543,113.375343 C197.484099,113.441787 198.638571,113.707565 199.14521,113.624509 C200.025599,113.49162 202.234877,111.780676 202.384377,110.883676 C202.50896,110.078037 201.23821,109.089676 202.384377,108.641176 C202.990682,108.400315 203.962432,108.749148 204.626877,108.641176 C205.208265,108.549815 206.337821,107.843843 206.869377,107.644509 C206.753099,107.320593 206.869377,106.747509 206.869377,106.398676 C205.166738,105.601343 204.842821,105.534898 203.131877,106.647843 L202.88271,107.146176 C202.002321,107.295676 202.168432,106.689371 201.636877,106.647843 C201.695015,106.265787 201.894349,105.493371 201.886043,105.402009 C203.85446,105.593037 204.809599,105.593037 205.87271,104.405343 C207.758071,102.287426 206.686654,101.681121 204.37771,100.91701 C204.510599,100.642926 204.261432,100.460204 204.37771,100.16951 C204.477377,99.8954262 205.27471,99.4469262 205.374377,99.1728429 C205.465738,98.8987596 205.258099,98.441954 205.374377,98.1761762 L205.87271,98.1761762 C205.922543,98.2010929 205.87271,99.0814818 205.87271,99.1728429 C206.196627,99.338954 206.454099,99.338954 206.62021,99.6711762 C207.949099,99.2309818 210.199904,98.3422874 210.35771,96.9303429 C210.573654,94.8041207 207.982321,94.8539541 206.62021,94.9370096 C207.201599,93.5167596 207.384321,92.744343 207.118543,90.950343 C207.708238,90.7343986 207.982321,90.8340652 208.613543,90.7011763 C208.663377,90.4353986 209.070349,90.3108152 209.111876,90.202843 C209.560376,88.8822597 209.045432,88.9403986 209.859376,87.960343 C210.166682,87.5699819 210.714849,87.3042042 211.10521,86.9636764 C211.038765,87.1879264 210.623488,87.8274542 210.606876,87.960343 C210.482293,88.7908986 211.071988,88.9985375 210.856043,89.7045097 C210.764682,89.9536764 209.809543,90.5184541 209.61021,90.7011763 C209.718182,91.025093 209.61021,91.5898708 209.61021,91.9470097 C210.831126,92.1878708 210.706543,93.0682596 212.101876,91.697843 C212.542071,91.249343 212.351043,90.875593 212.60021,90.202843 C212.832765,90.352343 213.331099,90.0948708 213.596876,90.202843 C213.787904,90.2858986 214.02046,91.249343 214.09521,91.4486763 C215.083571,90.9752597 216.370932,90.8589819 216.836043,89.9536764 C216.944015,89.7294264 217.600154,86.4155097 217.583543,86.2161764 C217.542015,85.8092042 216.902488,85.4271486 217.08521,84.4720098 C217.08521,84.4720098 218.214765,82.5052542 218.331043,82.2320015 C217.467265,81.9986153 217.259626,81.679682 216.33771,81.4861626 C216.470599,81.3997848 216.196515,80.8167348 216.33771,80.737832 C216.703154,80.5202265 217.201488,80.5742126 217.583543,80.4878348 C217.566932,80.2079376 217.417432,78.9853598 217.583543,78.4945015 C217.641682,78.2852015 218.389182,77.8948404 218.58021,77.7470015 C217.990515,76.5094737 217.849321,75.7943654 217.334376,74.5086654 C217.865932,74.2520238 218.339349,74.3359099 218.829376,74.0095016 C219.020404,73.8699682 219.344321,73.0992127 219.576876,73.0128349 C220.357599,72.6947321 221.113404,72.9978849 221.819376,72.7653293 C222.276182,72.6008794 222.591793,72.0095238 223.314376,72.0169988 C224.842599,72.0327794 225.166515,73.605021 225.556876,74.7570015 C225.781126,74.6249432 226.387432,74.2520238 226.553543,74.2603293 C226.453876,72.9214738 226.619987,72.3832738 226.80271,71.2694988 C226.844237,70.9746516 226.570154,70.6308016 226.553543,70.7711655 L226.553543,70.0236655 C227.409015,69.3459322 228.181432,68.7014211 229.04521,68.0311627 C228.953848,67.5477794 229.169793,67.0021044 229.04521,66.5361628 L228.546876,66.0378294 C228.546876,66.0378294 228.322626,65.5860072 228.29771,65.537835 C227.483765,65.6557739 226.57846,66.0295239 225.806043,65.7878322 C225.68146,65.7496267 225.257876,65.1350156 225.058543,65.0403322 C225.639932,64.0910072 225.797737,63.7554628 226.553543,63.0461684 C226.221321,61.7397045 225.349237,58.0478851 225.556876,56.8186629 C225.706376,55.8452518 227.25121,55.1043962 227.55021,54.3253351 C228.264487,52.3560879 226.935598,47.8403574 225.806043,47.3503297 C224.618349,46.8362158 223.239626,47.646838 222.068543,47.1003325 C221.694793,46.921763 221.819376,46.1975186 221.57021,45.8544991 C221.055265,45.1452047 220.008765,45.3794214 219.32771,44.858663 C218.530376,44.2581714 217.68321,41.1984048 216.836043,40.8711659 C216.570265,40.7698381 216.304488,41.0273103 216.088543,40.8711659 C215.631738,43.3545269 215.723099,43.2540297 213.34771,43.8611658 C213.164988,43.5339269 213.106849,42.980777 212.849376,42.6153325 C212.658349,42.3420797 211.678293,42.1253047 211.603543,41.8686631 C211.312849,40.9342881 212.143404,40.4434298 211.85271,39.3769964 C211.744738,39.0032464 210.88096,38.6203603 210.606876,38.3794992 C210.606876,38.3794992 210.831126,37.912727 210.856043,37.8819965 C211.462349,37.9285076 212.267988,37.6868159 212.849376,37.8819965 C213.34771,38.0447853 213.713154,39.213377 214.344376,39.3769964 C217.500488,40.1784825 216.844349,37.8512659 215.59021,36.8853298 C214.751349,36.2316826 214.012154,35.9659048 213.098543,35.3903298 L213.098543,35.3903298 Z M120.956711,101.398732 C120.765683,101.415343 120.591267,101.531621 120.408544,101.415343 C120.283961,101.622982 119.636128,101.797398 119.411878,101.913676 C119.420183,102.046565 119.411878,105.152843 119.411878,105.152843 C119.287294,105.343871 118.780655,105.460148 118.664378,105.651176 C118.556405,105.817287 118.5481,106.780732 118.415211,106.897009 C118.041461,107.204315 117.792294,107.029898 117.169378,107.146176 C117.476683,107.312287 116.579683,107.445176 116.421878,107.395343 C116.3056,107.362121 116.181017,106.980065 115.923544,106.897009 C116.097961,105.593037 116.421878,104.139565 115.176044,103.657843 C114.677711,103.466815 114.602961,104.014982 113.930211,103.90701 C113.722572,103.873787 113.132878,103.201037 112.933544,103.15951 C110.965128,102.735926 110.117961,104.048204 109.196044,104.654509 C108.946878,104.496704 108.714322,104.754176 108.448544,104.654509 C108.066489,104.513315 107.800711,103.574787 107.451878,103.408676 C106.571489,102.993398 104.370517,103.167815 103.465211,103.657843 C102.277517,104.297371 102.900433,106.971759 102.219378,108.142843 C102.111406,108.325565 100.500128,109.629537 100.226045,109.887009 C99.9353501,109.621232 99.0051279,108.475065 98.7310446,108.392009 C96.1314057,107.644509 94.5367391,112.104593 93.249378,107.395343 C93.1081835,107.387037 92.2942391,107.013287 91.754378,107.146176 L91.5052113,107.644509 C90.6829613,108.176065 89.9936002,109.255787 91.2560447,109.887009 C91.4636836,109.994982 90.9072113,110.161093 91.006878,110.385343 C90.4587113,110.526537 89.810878,110.983343 89.2627114,110.883676 C88.6231836,110.750787 88.6979336,109.654454 87.2693781,109.887009 C86.9205447,109.945148 85.1846836,111.597954 85.0268781,111.631176 C84.4704059,111.747454 83.3159337,111.473371 82.5343809,111.382009 L82.2860448,112.129509 C80.3151365,112.644454 82.4504948,111.116232 82.7843781,110.883676 C82.7179337,110.501621 82.5194309,109.729204 82.5343809,109.637843 C81.5302392,109.488343 81.235392,109.529871 80.293542,109.388676 C80.2229448,109.720898 79.9970337,109.729204 79.7943781,109.887009 C80.0510198,110.900287 80.0443754,111.332176 80.293542,112.129509 C79.6623198,112.420204 78.8201365,112.287315 78.5485448,112.877009 C78.3068532,113.367037 78.3384143,114.76237 78.3002087,115.119509 C77.7935698,114.970009 77.8010448,115.518176 77.3027115,115.368676 C76.9754726,115.269009 76.7894282,114.264037 76.3068754,114.122843 C75.0053949,113.732482 73.8301588,114.048093 72.5693755,113.873676 C72.3667199,116.381954 71.2056033,118.001537 70.0777088,119.604509 C69.9597699,119.521454 69.4464866,119.604509 69.3293783,119.604509 C68.8069588,118.49987 68.8775561,118.715815 68.5818783,117.112843 C68.1616172,116.996565 68.1923477,117.30387 68.083545,116.863676 C67.8260727,116.996565 67.3526561,116.772315 67.0877089,116.863676 C66.9706005,116.896898 66.8460172,117.270648 66.5893755,117.362009 C66.5893755,117.370315 66.6126311,118.533093 66.8377116,118.109509 C66.77542,118.35037 66.5893755,119.106176 66.5893755,119.106176 C66.0138005,119.197537 65.3817478,118.923454 64.8443783,119.106176 C64.4864089,119.222454 64.1982061,120.202509 63.8485422,120.352009 C62.0263034,121.149343 60.4382812,120.094537 59.1143756,119.604509 C58.5853118,120.327093 58.2115618,120.459982 57.8685423,121.597843 C57.8768479,121.406815 57.9623951,119.928426 57.8685423,119.604509 C57.8220312,119.455009 57.407584,119.421787 57.3693784,119.106176 C57.011409,119.230759 56.473209,118.973287 56.1235451,119.106176 C55.9291951,119.17262 55.4698979,119.662648 55.127709,119.853676 C54.8868479,119.704176 54.6285451,118.989898 54.3793785,118.857009 C54.021409,118.674287 51.4367202,118.192565 50.8918757,118.358676 C50.8453646,118.366982 50.6883896,118.815482 50.6418785,118.857009 C49.1850841,120.136065 49.9417202,119.837065 50.1443757,121.348676 L50.3935424,122.345343 C50.4010174,122.345343 51.560473,122.320426 51.1402118,122.096176 C51.4284146,122.096176 51.8420313,122.112787 52.1377091,122.096176 C52.1377091,122.179231 52.0995035,123.084537 52.1377091,123.092843 C51.545523,122.976565 51.724923,123.449981 51.1402118,123.342009 C50.9375563,123.308787 50.3462007,122.38687 50.1443757,122.345343 C49.3736202,122.187537 46.701723,123.026398 46.1568786,123.342009 C45.9077119,123.483204 46.0879425,123.915093 45.9085425,124.097815 C45.6053897,124.380204 45.0522397,124.338676 44.6627092,124.587843 C44.4999203,124.687509 44.3205203,125.277204 44.1643758,125.335343 C44.0165369,125.393481 43.5497647,125.260593 43.4168758,125.335343 C43.2374758,124.878537 43.0431258,125.343648 42.9185425,125.086176 C42.8180453,124.886843 42.9185425,124.313759 42.9185425,124.097815 C42.4825008,123.989843 42.7781786,123.998148 42.6693758,123.591176 C42.2333342,123.591176 41.5780259,123.715759 41.1735453,123.591176 C40.6212259,124.363593 40.0066148,125.410093 39.1810426,125.833676 C37.9750759,126.448287 35.1312537,126.589481 34.4460454,127.577843 C34.1810982,127.943287 34.4551815,128.200759 34.1977093,128.574509 C33.7616676,128.425009 34.0033593,128.856898 33.9485426,129.072843 C33.3098454,128.881815 33.9485426,129.820343 33.9485426,129.820343 C34.6030204,130.019676 34.7583343,129.554565 35.4435426,129.571176 C35.4435426,129.604398 35.4368982,130.31037 35.4435426,130.318676 C34.8289315,130.501398 34.8829176,130.401731 34.1977093,130.567843 C34.5714593,130.825315 33.4967204,130.800398 33.4502093,130.817009 L33.2002121,129.571176 C33.0291176,129.471509 32.024976,129.704065 31.9543788,129.571176 C31.7450788,129.164204 31.9543788,128.051259 31.9543788,127.577843 C29.2841427,126.988148 30.141276,127.154259 28.9652094,129.322009 C28.9178677,129.405065 28.2168788,130.052898 28.2168788,130.069509 C28.0142233,130.958204 28.5839844,131.747231 28.466876,132.312009 C28.4045844,132.577787 27.8049233,132.810342 27.719376,133.059509 C27.4162233,132.92662 26.8082566,133.059509 26.4735427,133.059509 C26.5125788,132.361842 26.583176,132.071148 26.7227094,131.315342 C26.5051038,131.149231 26.2783622,131.165842 26.2235455,130.817009 C25.7492983,130.841926 24.48104,131.066176 24.48104,131.066176 C24.4644289,131.082787 23.770915,131.273815 23.7318789,131.315342 C23.382215,131.65587 23.576565,132.710676 23.2335455,133.059509 C22.7352122,133.549537 21.7551567,133.358509 21.2402122,133.807009 C21.0691178,133.948204 21.2418733,134.446537 20.9935372,134.554509 C20.6422122,134.687398 20.0898928,134.413315 19.7460428,134.554509 C20.003515,134.429926 19.2477095,134.056176 19.2477095,134.056176 C19.29339,133.981426 19.7460428,133.308676 19.7460428,133.308676 C20.6339067,133.042898 21.50599,133.175787 21.9893733,132.561176 C22.0358844,132.503037 22.4877067,131.813676 22.4877067,131.813676 C22.5724233,131.439926 22.2377094,130.318676 22.2377094,130.318676 C19.8789317,130.318676 18.51599,130.601065 17.2560373,132.312009 C17.0450762,132.586092 17.0442456,133.175787 16.7560428,133.308676 C15.9935929,133.649204 15.1198484,133.200704 14.5127123,133.557842 C14.193779,133.740565 13.2527596,136.705648 13.5168762,137.544509 C13.5716929,137.718926 14.1397929,138.026231 14.2643762,138.292009 C14.7161984,138.292009 15.3083845,138.184037 15.7602067,138.292009 C15.7278151,138.341842 15.4562234,138.773731 15.5102095,138.790342 C13.603254,139.13087 13.5409623,139.546148 12.7702068,141.032842 C10.2860151,141.032842 9.89565404,141.240481 9.28104294,143.026176 L9.28104294,143.524509 C8.77440405,143.931481 7.81818546,143.649092 7.28762657,144.022842 C6.06571326,144.870009 7.03945658,148.358342 7.03945658,150.501176 C8.1215874,150.800176 9.66226793,151.306814 10.0293735,152.245342 C10.1298707,152.51112 9.86492349,152.743676 10.0293735,152.992842 C9.44466238,153.399814 6.15242325,156.32337 6.04345437,156.730342 C5.80981909,157.527675 6.22044575,158.050925 6.29004631,158.723675 C6.61703603,158.707064 7.1160338,159.097425 7.78562768,158.972842 C8.31593739,158.86487 8.44052073,158.200425 8.78187905,157.976175 C8.79018461,157.976175 9.8890096,158.366537 9.53104016,158.474509 C9.68552349,158.590787 10.1929929,158.806731 10.2785401,158.972842 C10.5592679,159.53762 10.3333568,159.952898 10.5268763,160.717009 C10.1846874,160.783453 10.1606013,161.190425 10.0293735,161.464509 C9.75612071,161.33162 9.45961238,160.775148 9.28104294,160.717009 C8.75197906,160.542592 8.08255129,160.800064 7.53745768,160.717009 C7.27275963,161.530953 6.41687214,163.017648 6.54145547,163.956175 C6.55698686,164.113981 7.24094935,164.595703 7.28762657,164.703675 C7.66245629,165.550842 7.21810907,165.559148 7.28762657,166.447842 C6.96894241,166.290036 7.08654908,166.829898 6.54145547,166.697009 C6.47916381,166.688703 6.2614752,166.256814 6.04345437,166.198675 C7.03181547,165.824925 4.64820411,165.824925 5.29396104,165.949509 L5.04579105,166.946175 C6.0424577,167.552481 7.85713851,167.992675 8.53520406,168.939509 C8.9081235,169.471064 8.79018461,170.285009 9.28104294,170.683675 C10.060104,171.331509 11.024379,170.949453 11.2752068,172.178675 C11.5542735,173.607231 10.5659124,174.014203 10.7768735,175.168675 C10.8856763,175.799897 12.0235373,176.157036 12.272704,176.663675 C12.4587485,177.062342 12.7469512,178.457675 12.7702068,178.657009 C12.8715346,179.778259 12.4811735,182.568925 13.0185429,183.889508 L13.2685401,183.889508 C14.0152095,184.263258 14.5608845,185.641981 15.2618734,185.882842 L15.7602067,185.882842 C15.8847901,185.990814 15.8374484,186.538981 16.0085429,186.630342 C16.5616928,186.912731 17.1771345,186.563897 17.7535401,186.879508 C18.2128373,187.136981 20.227765,189.977481 19.2477095,190.866175 C20.4852372,191.837925 22.993515,192.477453 22.7360428,194.852842 C22.7285678,194.852842 22.081565,195.882731 21.9893733,196.098675 C22.3000011,195.940869 22.1837233,196.480731 22.7360428,196.347842 C23.008465,196.281397 23.0782317,195.625258 23.2335455,195.351175 C23.4287261,195.351175 24.0599483,195.450842 24.2310427,195.351175 C24.7534622,195.857814 26.777526,197.377731 24.9793733,197.842842 C24.7991427,197.626897 24.4818705,196.937536 24.2310427,196.846175 C23.9511455,196.746508 23.4910178,196.962453 23.2335455,196.846175 C23.1089622,197.087036 22.6812261,197.427564 22.4877067,197.593675 C22.4877067,197.593675 22.4877067,198.507286 22.7360428,198.092008 C22.9071372,198.665092 22.844015,198.507286 22.9852094,199.088675 C23.4835428,198.856119 23.2335455,200.832842 23.2335455,200.832842 C24.7368511,200.342814 25.2750511,200.209925 26.9710455,200.334508 C27.0109122,200.251453 27.1745316,199.844481 27.2210427,199.836175 C27.4469538,199.778036 28.4436205,200.027203 28.2168788,200.085342 C28.5914594,200.724869 29.0266705,201.273036 29.4627121,201.829508 C28.3190371,202.178342 26.9884872,202.211564 26.7227094,203.324508 C26.6845038,203.449092 26.785001,203.95573 26.7227094,204.072008 C26.5673955,204.321175 25.8198955,204.537119 25.7252122,204.819508 C25.5931538,205.168342 25.8497955,205.708203 25.7252122,206.065342 C26.1770344,205.849397 26.5590899,206.040425 26.9710455,205.816175 C27.4311733,205.550397 27.7891427,204.661703 28.2168788,204.321175 C29.0582316,203.640119 29.8838038,203.266369 30.7102066,202.577008 C31.2857815,203.415869 31.9701593,204.595258 32.7027093,205.317842 C33.0066926,205.625147 34.0349204,205.924147 34.1977093,206.314508 C34.4867426,207.037092 33.8945565,207.24473 33.9485426,207.809508 L34.4460454,208.557008 C34.8123204,210.38423 34.5482037,209.927425 35.1943759,211.297841 C35.4667982,211.189869 35.9028398,211.372591 36.190212,211.297841 C36.8754204,211.115119 37.6312259,210.002175 38.1835453,209.553675 C40.0606009,211.256314 41.6411481,212.618425 44.6627092,211.048675 C44.4999203,212.527064 44.3346397,213.988841 45.6585453,214.537008 C46.0563814,214.703119 46.4226564,214.470564 46.6560425,214.786175 C46.8279675,215.01873 47.2864341,216.754591 47.4027119,217.028675 C50.229923,216.613397 50.9782535,216.953925 52.885209,218.025341 C53.2672646,217.78448 54.2855257,216.671536 54.8777118,216.779508 C54.8777118,216.779508 54.6833618,217.983814 54.6293757,218.274508 C54.8079451,218.390786 56.0213868,219.096758 56.1235451,219.271175 C56.3262007,219.661536 56.0213868,220.334286 56.1235451,220.766175 C56.2165673,221.198064 57.3145618,221.987091 57.3693784,222.261175 C57.4698757,222.842564 57.003934,223.191397 56.8710451,223.756175 C57.5562534,223.598369 58.5994312,223.133258 59.3627117,223.257841 C60.0637006,223.365814 60.5927645,224.43723 61.1068784,224.752841 C61.5047145,225.002008 61.9083645,224.744536 62.3527117,225.002008 C63.0296145,225.392369 64.2845839,228.008619 64.5960422,228.988675 C65.5378922,228.681369 67.2662783,228.241175 68.3335422,228.241175 C68.6450005,228.232869 69.1807088,228.739508 69.8277116,228.490341 L69.8277116,228.241175 C70.2321922,228.033536 70.2712283,227.452147 70.5752116,227.244508 C70.9805227,226.962119 71.3459671,227.244508 71.8210449,226.995341 C72.5685449,229.462091 71.5884894,228.573397 74.0643754,229.237841 C74.1183616,229.154786 74.4605504,228.523563 74.5627088,228.490341 C74.842606,228.374063 75.0377865,228.631536 75.3102088,228.490341 C75.5203393,228.664758 75.8151865,229.354119 76.0568782,229.487008 C76.7495615,229.860758 78.7586754,229.89398 79.546042,229.985341 C79.6307587,230.550119 79.3508615,231.197952 79.546042,231.729508 C79.927267,232.792619 84.5534614,233.648091 86.0235447,233.972008 C86.131517,234.412202 85.907267,234.777647 86.0235447,235.217841 C86.0318503,235.259369 88.1996003,237.427119 88.2660447,237.460341 C90.4504058,238.448702 90.5251558,236.762674 91.5052113,236.463674 C93.4985446,235.849063 94.2294335,237.036758 94.9935446,237.460341 C95.4005168,237.684591 95.7825724,237.493563 96.2393779,237.709508 C96.3805724,237.344063 96.6546557,237.377286 96.9868779,237.211174 C96.7958502,235.824147 96.8622946,235.060036 96.7377113,234.221175 C97.1363779,234.320841 97.3357113,234.088286 97.7343779,233.972008 C97.9503224,234.354063 98.5649335,235.815841 98.9802112,235.965341 C100.392156,236.496897 102.244295,235.50023 103.216045,235.467008 C104.893767,235.400563 105.101406,236.02348 105.956878,236.712841 C108.290739,235.691258 108.490072,236.663008 111.189378,236.214508 C111.438544,236.17298 112.534878,235.483619 112.684378,235.467008 C113.548155,235.325813 114.387017,235.807536 114.926878,235.716174 C115.159433,235.666341 115.657767,235.084952 115.923544,234.968675 C115.807267,234.52848 116.031517,234.163036 115.923544,233.722841 C115.898628,233.63148 113.431878,230.093313 116.671044,230.982008 C116.779017,231.006925 117.219211,231.696286 117.418544,231.729508 C117.925183,231.820869 118.182655,231.430508 118.415211,231.480341 C118.149433,231.281008 118.614544,230.408925 118.664378,230.234508 C118.381989,230.085008 118.556405,229.802619 118.415211,229.736175 C117.975017,229.52023 117.592961,229.586675 117.169378,229.487008 C117.2026,228.980369 116.895294,228.739508 116.920211,228.490341 C116.97835,227.601647 118.489961,227.136536 118.913544,226.497008 C119.22085,225.998675 119.087961,225.284397 119.411878,224.752841 C119.785628,224.113314 122.717489,222.842564 123.896878,223.008675 C124.013155,223.025286 124.586239,223.731258 124.644378,223.756175 C124.90185,223.847536 125.400183,223.61498 125.641044,223.756175 C125.973266,223.955508 126.272266,224.852508 126.637711,225.002008 C126.820433,225.076758 127.185878,224.877425 127.385211,225.002008 C127.601155,222.186425 127.484878,222.842564 129.627711,222.759508 C129.594489,223.423952 129.785516,224.354175 129.627711,225.002008 C129.6111,225.026925 128.921739,225.467119 128.880211,225.500341 C129.328711,227.186369 128.780544,226.696341 129.876878,227.742841 C129.6111,227.825897 129.486516,228.199647 129.378544,228.241175 C128.988183,228.365758 128.531378,228.124897 128.132711,228.241175 C128.531378,228.390675 127.177572,228.482036 127.136044,228.490341 C127.0696,228.315925 127.028072,227.958786 126.886878,227.742841 C125.64935,225.907314 125.964961,225.998675 122.900211,225.998675 C122.725794,226.488702 122.725794,227.302647 122.401878,227.742841 C122.119489,228.09998 121.247405,228.183036 120.906878,228.490341 C120.533128,228.822563 120.674322,228.731202 120.408544,229.237841 C120.41685,229.237841 120.408544,229.943813 120.408544,229.985341 C120.582961,229.985341 121.255711,229.877369 121.405211,229.985341 C121.3886,230.068397 121.587933,230.849119 121.654378,231.231175 C120.425155,231.231175 121.745739,233.191286 121.903544,233.473675 C121.0896,234.113202 120.408544,234.777647 119.661044,235.467008 C119.793933,235.907202 119.96835,236.006869 119.910211,236.463674 C122.501544,237.983591 123.016489,237.709508 124.395211,235.217841 C124.561322,235.42548 125.217461,235.483619 125.391878,235.716174 C125.607822,236.015174 125.441711,236.39723 125.641044,236.712841 C126.646016,238.34073 127.858628,237.551702 129.129378,236.962008 C128.921739,235.076647 129.08785,234.744425 129.378544,233.473675 C129.619405,233.614869 130.109433,233.357397 130.375211,233.473675 C130.748961,233.63148 131.081183,234.82748 131.621044,234.968675 C133.4981,235.433786 133.763877,234.021841 134.611044,233.473675 C135.042933,233.191286 135.408377,233.440452 135.856877,233.224508 C136.288766,233.000258 136.71235,232.269369 137.102711,231.978675 C137.302044,232.070036 137.642572,231.928841 137.850211,231.978675 C138.248877,232.070036 138.547877,232.834147 138.846877,232.975341 C139.685738,233.365702 140.159155,233.025175 141.089377,232.975341 C141.130905,232.80923 141.5711,232.277675 141.587711,232.227841 C141.928238,230.882341 140.815294,230.217897 141.836877,229.487008 C142.09435,229.603286 142.551155,229.387341 142.833544,229.487008 C143.223905,229.619897 143.29035,230.525202 143.581044,230.732841 C144.909933,231.704591 146.006266,230.732841 147.069377,230.234508 C147.036155,229.503619 147.069377,228.714591 147.069377,227.992008 C146.496294,227.759452 145.017905,227.319258 144.826877,226.746175 C144.727211,226.472091 144.943155,226.00698 144.826877,225.749508 C145.474711,225.93223 145.375044,225.33423 146.072711,225.749508 C146.894961,226.23123 146.404933,227.369091 148.066044,227.244508 C149.037794,227.169758 149.968016,226.08173 150.308544,225.251175 C150.308544,225.251175 150.923155,224.918952 150.557711,224.752841 C150.142433,224.561814 149.660711,223.772786 149.810211,223.008675 C149.826822,222.892397 150.491266,222.593397 150.557711,222.510341 C151.139099,221.729619 151.006211,221.123314 151.305211,220.018675 C151.089266,219.852564 150.856711,219.869175 150.806877,219.520341 C150.723822,219.520341 150.117516,219.570175 150.059377,219.520341 L150.059377,218.772841 C153.464655,220.350897 153.838405,218.963869 157.036044,218.025341 C157.102488,217.585147 157.06096,216.613397 157.28521,216.032008 C157.384877,215.749619 158.18221,215.39248 158.281877,215.035341 C158.414766,214.537008 158.18221,214.04698 158.281877,213.540341 C158.057627,213.365925 157.858294,213.382536 157.783544,213.042008 C157.451322,213.042008 156.828405,213.166591 156.537711,213.042008 C156.363294,212.967258 156.139044,212.10348 156.039377,212.045341 C156.271933,212.037036 156.620766,211.663286 156.786877,211.547008 C158.165599,212.47723 157.625738,212.360953 159.52771,212.294508 C159.461266,211.696508 159.82671,211.887536 159.776877,211.297841 C159.743655,211.040369 159.045988,210.400841 159.029377,210.301175 C158.85496,209.420786 159.428044,209.196536 159.52771,208.806175 C159.635683,208.324453 159.394822,207.784592 159.52771,207.311175 C159.668905,206.779619 160.457933,206.281286 160.773544,205.816175 C160.665572,205.641758 160.806766,205.251397 160.773544,205.068675 C160.632349,204.503897 159.494488,204.10523 159.029377,203.822842 C159.635683,201.746453 160.399794,201.073703 160.773544,198.590342 C160.565905,198.548814 160.109099,198.108619 160.026044,198.092008 C158.531044,197.759786 157.800155,199.271397 157.036044,199.836175 C156.894849,199.935842 156.620766,200.450786 156.537711,200.583675 C156.429738,200.077036 156.255322,198.897647 156.039377,198.092008 C155.972933,197.892675 155.325099,197.302981 155.291877,197.095342 C155.051016,195.616953 156.504488,195.417619 156.786877,194.354508 L156.786877,194.105342 C156.737044,194.296369 156.471266,193.374453 156.537711,193.108675 C156.620766,192.710008 158.580877,189.279814 157.534377,188.623675 C156.055988,187.693453 155.150683,189.163536 154.295211,189.371175 C154.145711,189.404397 153.672294,189.313036 153.547711,189.371175 C153.481266,189.105397 153.082599,188.972508 153.049377,188.872842 C152.775294,188.09212 153.049377,186.721703 153.049377,185.882842 C153.182266,186.339647 153.298544,185.633675 153.298544,185.633675 C152.443072,183.75662 152.625794,184.230036 150.557711,184.387842 C150.333461,185.25162 149.810211,188.449258 149.062711,188.872842 C148.464711,189.205064 147.642461,188.864536 147.069377,189.122008 C146.9531,189.171842 146.363405,189.852897 146.321877,189.869508 C145.773711,189.985786 145.590988,189.562203 145.325211,189.620342 C145.615905,189.620342 145.076044,188.872842 145.076044,188.872842 C145.001294,187.975842 145.989655,186.422703 146.072711,185.882842 C146.197294,184.886175 145.698961,184.05562 145.574377,183.391175 L145.823544,182.643675 C146.288655,182.743342 146.853433,182.494175 147.318544,182.643675 C148.481322,183.034036 148.082655,185.259925 150.059377,184.387842 C152.019488,183.507453 150.848405,181.381231 150.308544,180.152009 C148.996266,180.251675 148.439794,180.235064 147.318544,180.401175 C147.808572,178.715147 147.642461,178.889564 147.318544,177.411175 C147.085988,177.386259 146.487988,177.095564 146.072711,176.912842 C146.072711,176.912842 144.4116,178.52412 144.826877,178.657009 C145.898294,178.989231 145.316905,181.838036 144.826877,182.643675 C144.461433,183.23337 143.248822,183.615425 142.584377,183.889508 C142.7671,180.708481 142.493016,181.381231 144.577711,179.404509 C144.270405,178.490897 144.353461,178.258342 144.079377,177.411175 C144.203961,177.311509 144.752127,177.054036 144.826877,176.912842 C145.042822,176.43112 144.619238,176.181953 145.076044,175.916175 C145.076044,175.916175 144.619238,174.620509 144.577711,174.421175 C144.826877,174.578981 145.316905,174.512536 145.574377,174.670342 C145.732183,174.761703 145.914905,175.368009 146.072711,175.417842 C146.346794,175.509203 147.268711,175.23512 147.069377,175.168675 C147.119211,175.019175 147.758738,174.811536 147.816877,174.670342 C148.074349,173.914536 147.5511,172.677009 147.816877,171.929509 C148.007905,171.381342 149.361711,171.613898 149.062711,169.936175 C148.963044,169.379703 147.949766,168.798314 147.567711,168.441175 C148.315211,166.821592 148.315211,167.469425 147.816877,165.949509 C147.451433,164.828259 147.119211,163.623953 146.072711,163.208675 C143.348488,162.137259 142.99135,163.673787 143.331877,165.949509 C143.149155,166.082398 142.135877,166.522592 142.086044,166.697009 L142.086044,167.195342 L141.587711,167.195342 C141.404988,166.530898 141.537877,166.049175 141.089377,165.700342 L140.840211,165.451175 C140.956488,165.334898 140.765461,164.869787 140.840211,164.703675 L141.089377,164.703675 C142.044516,164.221953 142.434877,163.283425 143.082711,162.461175 C140.632572,162.020981 140.632572,160.924648 139.843544,158.225342 C140.433238,157.951259 141.703988,157.004425 142.335211,156.979509 C143.655794,156.92137 143.348488,157.677175 143.830211,157.976175 C144.278711,158.258564 144.586016,157.934648 145.076044,158.225342 C145.38335,158.017703 145.723877,157.643953 146.072711,157.477842 C145.881683,156.746953 146.139155,156.24862 145.823544,155.733676 C145.782016,155.683842 144.826877,155.235342 144.826877,155.235342 C144.594322,154.30512 145.516238,154.330037 145.325211,153.242009 C145.225544,152.685537 144.353461,152.386537 144.079377,151.996176 C143.855127,151.680564 144.012933,151.306814 143.830211,150.999509 C143.390016,150.301842 142.310294,149.911481 141.587711,149.504509 C141.695683,149.022787 141.446516,148.482926 141.587711,148.009509 C141.662461,147.743731 142.534544,147.12912 142.584377,146.763676 C142.725572,145.376648 141.2721,144.637453 140.341877,144.272009 C139.835238,144.072676 141.022933,143.723842 141.338544,143.773676 L141.836877,144.272009 C144.046155,144.861703 143.639183,142.727176 143.581044,141.531176 C143.257127,141.481342 143.223905,141.082676 143.082711,141.032842 C141.8701,140.617565 140.283738,141.996287 139.594377,142.278676 L139.096044,141.531176 C139.137572,141.389981 139.785405,141.174037 139.843544,141.032842 C139.984738,140.617565 139.843544,139.986342 139.843544,139.537842 C140.2256,139.703953 139.984738,139.139176 140.591044,139.288676 C140.690711,139.313592 140.956488,139.95312 141.089377,140.036176 C142.360127,140.825203 142.883377,140.202287 143.830211,139.537842 C142.808627,137.012954 142.783711,136.016287 139.843544,137.544509 C139.876766,137.519592 139.843544,136.846842 139.843544,136.797009 C140.831905,136.36512 141.321933,136.43987 141.836877,135.551176 C141.895016,135.434898 142.194016,135.368454 142.335211,135.302009 C142.218933,135.036231 142.426572,134.579426 142.335211,134.305342 C142.160794,133.815315 141.205655,133.350204 141.089377,132.810342 C140.765461,131.373481 141.305322,130.302065 141.089377,128.823676 C141.330238,128.96487 141.579405,128.408398 142.086044,128.823676 C142.6176,129.272176 142.152488,131.331954 142.086044,132.312009 C142.559461,132.245565 142.99135,132.635926 143.830211,132.312009 C143.904961,132.278787 144.004627,131.830287 144.079377,131.813676 C144.095988,131.589426 144.78535,131.165842 144.577711,130.318676 C144.5611,130.260537 144.046155,129.753898 144.079377,129.571176 C144.129211,129.205731 145.184016,128.956565 145.076044,127.577843 C145.001294,126.763898 144.162433,127.004759 144.577711,125.833676 C144.594322,125.767231 145.242155,125.210759 145.325211,125.086176 C145.325211,125.086176 145.267072,124.446648 145.076044,124.837009 C144.918238,124.753954 144.801961,123.931704 144.577711,123.840343 C144.071072,123.65762 143.132544,123.840343 142.584377,123.840343 L142.584377,123.342009 L142.833544,123.342009 C142.875072,123.167593 142.949822,122.204148 143.082711,122.096176 C144.145822,121.149343 145.300294,122.204148 146.571044,121.847009 C146.712238,121.805482 147.077683,121.215787 147.318544,121.099509 C147.318544,120.875259 147.218877,120.310482 147.318544,120.102843 C146.487988,119.081259 145.773711,118.533093 144.577711,117.860343 C144.577711,117.553037 144.727211,116.614509 144.577711,116.365343 C144.278711,115.875315 143.788683,116.215843 143.331877,115.867009 C142.7671,115.451732 142.509627,114.097926 142.335211,113.375343 C142.061127,113.317204 141.936544,112.910232 141.836877,112.877009 C138.7306,111.805593 139.893377,115.410204 140.341877,116.614509 C139.909988,116.764009 139.885072,116.63112 139.594377,116.863676 C138.630933,117.627787 138.747211,117.52812 137.351877,117.112843 C137.5346,116.813843 136.828627,116.772315 137.102711,116.614509 C138.50635,115.767343 137.924961,114.172676 137.850211,112.129509 L138.597711,111.880343 C139.85185,109.671065 138.830266,109.812259 136.604377,109.887009 C136.778794,112.386982 137.135933,111.681009 135.109377,112.129509 C133.813711,110.235843 133.307072,109.887009 130.873544,109.887009 C130.782183,110.102954 130.574544,110.850454 130.375211,111.132843 C130.466572,111.282343 131.081183,111.780676 131.122711,111.880343 C130.989822,111.980009 131.122711,112.943454 131.122711,113.126176 C130.425044,113.259065 130.142655,113.142787 129.627711,113.375343 C129.262266,111.971704 128.988183,109.820565 128.381878,108.641176 C129.112766,108.059787 129.586183,107.686037 130.126044,106.897009 C129.918405,106.556482 129.951628,106.000009 129.876878,105.651176 C129.702461,105.626259 128.597822,105.485065 128.880211,105.651176 C128.124405,106.058148 128.074572,105.717621 127.634378,106.398676 C127.526405,106.556482 127.152655,107.735871 127.136044,107.893676 C126.84535,107.827232 126.155989,107.636204 126.139378,107.644509 C125.989878,107.445176 125.840378,107.029898 125.641044,106.897009 C125.366961,107.079732 125.234072,106.473426 125.142711,106.398676 C126.99485,105.360482 127.052989,105.684398 126.637711,103.657843 C126.3221,103.60801 126.280572,103.209343 126.139378,103.15951 C125.823766,103.051537 124.968294,103.367148 125.142711,103.408676 L124.644378,103.408676 C124.278933,103.53326 124.312155,104.513315 123.896878,104.654509 C123.622794,104.745871 123.149378,104.513315 122.900211,104.654509 C122.592905,103.500037 122.144405,101.797398 121.156044,101.415343 C121.0896,101.390426 121.023155,101.390426 120.956711,101.398732 L120.956711,101.398732 Z M225.058543,113.375343 C224.850904,113.699259 224.194765,113.965037 224.061876,114.372009 C224.053571,114.38862 224.236293,115.094593 224.311043,115.368676 C224.03696,115.426815 223.912376,115.833787 223.81271,115.867009 C223.164876,116.091259 222.301099,116.03312 221.819376,116.116176 C221.628349,118.441732 220.963904,119.496537 221.071876,121.348676 C220.07521,119.488232 219.369237,119.637732 217.83271,120.850343 C217.591849,120.559648 217.409126,119.787232 217.08521,119.604509 C216.279571,119.156009 212.724793,119.388565 211.354376,119.106176 C211.287932,119.371954 210.88096,119.496537 210.856043,119.604509 C210.532126,120.51812 210.856043,122.112787 210.856043,123.092843 C210.814515,123.109454 210.35771,123.342009 210.35771,123.342009 C210.174988,122.968259 209.892599,122.843676 209.61021,122.594509 C210.258043,120.459982 209.676654,117.611176 207.118543,119.355343 C206.794627,119.571287 206.894293,120.343704 206.62021,120.601176 C206.371043,120.833732 205.640154,120.983232 205.374377,121.099509 C205.548793,121.797176 205.299627,122.262287 205.623543,122.843676 C206.105265,123.724065 208.26471,123.591176 208.613543,124.587843 C208.763043,125.011426 208.455738,125.410093 208.613543,125.833676 C208.522182,125.833676 207.924182,125.783843 207.866043,125.833676 C207.085321,125.127704 206.802932,124.679204 206.371043,123.591176 C205.532182,123.474898 204.145154,123.641009 203.131877,123.342009 C203.040515,123.317093 202.533877,122.619426 202.384377,122.594509 C201.437543,122.445009 201.113627,123.184204 200.141877,122.843676 C200.033904,122.810454 199.901016,122.395176 199.643543,122.345343 C200.947515,121.597843 200.839543,121.722426 200.64021,119.853676 L199.89271,119.604509 C199.676766,119.903509 199.319627,119.84537 199.14521,120.102843 C198.99571,120.318787 199.07046,121.199176 198.896043,121.348676 C198.306349,121.822093 197.42596,121.249009 196.90271,122.096176 C196.686766,122.445009 196.246571,124.454954 196.15521,124.837009 C191.337988,123.425065 193.123682,127.071204 190.17521,127.079509 C190.17521,127.079509 189.552293,126.846954 189.42771,126.830343 L189.42771,126.332009 C189.768238,126.215731 190.316405,126.332009 190.673543,126.332009 C190.557266,126.257259 190.881182,125.90012 190.92271,125.833676 C190.673543,125.634343 190.540655,125.700787 190.424377,125.335343 C189.419405,125.15262 187.907793,124.70412 187.18521,124.837009 C186.720099,124.920065 186.080571,125.850287 185.69021,126.082843 C184.751682,126.622704 183.74671,126.581176 182.70021,127.079509 C182.509182,127.162565 182.193571,127.777176 181.95271,127.827009 C181.113849,127.984815 180.90621,127.336981 180.208544,127.577843 C180.125488,127.602759 179.768349,128.233981 179.71021,128.325343 C178.81321,129.463204 179.020849,130.01137 179.71021,131.315342 C179.128821,131.456537 178.580655,131.589426 177.716877,131.813676 C177.833155,131.547898 177.61721,131.091092 177.716877,130.817009 C177.741794,130.733954 178.373016,130.38512 178.464377,130.318676 C178.306571,129.895093 178.613877,129.496426 178.464377,129.072843 C178.406238,128.931648 177.824849,128.566204 177.716877,128.325343 C177.210238,128.541287 176.64546,128.491454 176.221877,128.574509 C176.105599,129.571176 175.831516,131.307037 175.723544,132.312009 C174.951127,132.312009 175.017571,132.212342 174.228544,132.312009 C174.353127,132.669148 174.095655,133.200704 174.228544,133.557842 C174.361432,133.948204 175.574044,134.330259 175.97271,134.554509 C175.964405,134.596037 175.873044,135.949842 175.723544,135.551176 C175.565738,135.808648 175.82321,136.016287 175.723544,136.298676 C175.665405,136.431565 175.108932,136.81362 174.976044,137.046176 L174.47771,137.046176 C174.10396,136.257148 173.937849,135.667454 173.481044,135.052842 C172.359794,133.566148 172.550821,134.446537 170.74021,133.807009 C170.657155,133.782092 170.308321,133.084426 170.241877,133.059509 C169.809988,132.910009 169.411321,133.209009 168.996044,133.059509 C168.863155,133.325287 168.298377,133.624287 168.248544,133.807009 C168.007683,134.529592 168.306683,135.260481 167.999377,135.800342 C167.501044,136.66412 166.305044,136.323592 165.50771,136.797009 C164.53596,137.361787 164.029322,139.546148 163.763544,140.783676 C161.778516,139.853453 162.991127,139.853453 161.02271,140.783676 C161.105766,141.215565 160.898127,141.356759 160.773544,141.780342 C161.811738,142.519537 161.836655,142.594287 163.016044,142.777009 C162.932988,142.810231 162.957905,143.69062 162.766877,143.773676 C162.467877,143.898259 161.84496,143.773676 161.521044,143.773676 C161.379849,144.056065 160.823377,144.504565 160.773544,144.770342 C160.540988,145.775315 161.213738,146.813509 161.271877,147.511176 C161.305099,148.009509 160.997794,148.25037 161.02271,148.507842 L160.524377,148.507842 C160.001127,148.333426 159.544322,146.913176 159.029377,146.763676 C158.223738,146.53112 158.148988,147.037759 157.534377,147.012842 C156.894849,149.163981 156.720433,148.989564 158.281877,150.252009 C157.775238,150.708814 158.389849,153.507787 158.531044,154.487842 C158.157294,154.122398 157.667266,153.85662 157.28521,153.491176 C157.800155,153.491176 155.923099,153.283537 156.537711,153.491176 C156.247016,153.732037 155.823433,153.491176 155.541044,153.740342 L155.541044,154.238676 C154.760322,156.481176 156.238711,156.755259 157.036044,158.723675 C156.952988,158.806731 157.077572,159.363203 157.036044,159.471175 C156.91146,159.778481 155.707155,160.127314 155.541044,160.467842 C155.416461,160.692092 155.582572,161.207037 155.541044,161.464509 C155.491211,161.697064 154.810155,162.635592 154.793544,162.710342 C154.668961,163.183759 154.901516,163.72362 154.793544,164.205342 C155.242044,164.595703 156.205488,165.210314 156.537711,165.700342 C156.811794,166.107314 156.712127,166.622259 157.036044,166.946175 C157.384877,167.295009 157.974572,167.286703 158.281877,167.693675 C159.021072,168.706953 159.660599,171.289981 160.026044,172.677009 C160.391488,172.760064 160.906433,172.701925 161.271877,172.926175 C161.163905,173.025842 161.089155,173.565703 161.02271,173.673675 C160.790155,174.005898 159.951294,174.105564 159.776877,174.421175 C159.328377,175.193592 159.859933,177.137092 159.776877,178.407842 C160.233683,178.59887 159.893155,178.424453 160.026044,178.906175 C161.031016,178.939397 161.579183,179.080592 162.766877,178.906175 C162.658905,179.180259 162.833322,179.620453 162.766877,179.902842 C162.550933,180.69187 161.089155,181.264953 162.019377,182.643675 C162.152266,182.851314 162.949599,182.909453 163.016044,183.142008 C163.364877,184.338008 162.177183,184.985842 163.26521,185.633675 C163.56421,185.808092 164.643933,186.065564 165.009377,186.132008 C164.90971,187.020703 164.494433,188.200092 165.009377,189.122008 C165.092433,189.279814 165.707044,189.454231 165.756877,189.620342 C165.914683,190.201731 165.524321,191.057203 165.756877,191.613675 C165.80671,191.754869 166.122321,191.738258 166.25521,191.862842 C166.919655,192.452536 167.567488,192.361175 168.248544,192.859508 C168.489405,193.042231 168.314988,193.324619 168.49771,193.607008 C169.46946,195.193369 170.798349,194.304675 171.986044,193.607008 C171.844849,195.342869 171.78671,195.990703 171.48771,197.593675 C171.662127,197.643508 172.98271,197.959119 172.733544,197.842842 C173.414599,197.394342 174.211932,197.552147 174.47771,196.597008 C174.535849,196.331231 174.344821,195.824592 174.47771,195.600342 C174.602294,195.367786 175.383016,195.508981 175.474377,195.351175 C175.565738,195.558814 175.416238,195.891036 175.474377,196.098675 C175.515905,196.256481 176.19696,196.771425 176.221877,196.846175 C176.304932,197.244842 175.881349,198.291342 175.97271,198.341175 C175.814905,198.391008 175.507599,198.764758 175.474377,198.839508 C175.52421,198.881036 175.474377,199.520564 175.474377,199.587008 C176.703599,200.126869 177.035821,200.292981 178.96271,200.085342 C178.96271,200.234842 178.863044,201.273036 178.96271,201.331175 C178.755071,201.630175 178.248432,201.829508 177.966044,202.078675 C178.040794,202.302925 177.966044,202.826175 177.966044,203.075342 C178.323182,203.216536 178.28996,203.490619 178.464377,203.822842 C179.826488,203.565369 179.909544,203.590286 180.706877,203.075342 C180.939432,202.917536 181.786599,202.560397 181.95271,202.327842 C182.384599,201.688314 182.052377,200.957425 182.70021,200.583675 C183.007516,200.400953 183.580599,200.683342 183.946043,200.583675 L184.444377,200.085342 C185.740043,199.786342 185.266627,200.185008 186.188543,200.334508 C186.055655,200.74148 186.188543,201.397619 186.188543,201.829508 C185.499182,202.078675 184.768293,202.336147 184.19521,202.577008 C184.245043,202.992286 184.444377,204.321175 184.444377,204.321175 C184.834738,204.379314 185.225099,204.711536 185.939377,204.570342 C186.279905,204.503897 186.844682,203.781314 187.18521,203.573675 C188.730043,202.593619 189.627043,203.183314 191.421043,202.577008 C191.52071,202.543786 191.645293,202.136814 191.919377,202.078675 C191.811404,201.530508 192.143627,200.824536 191.919377,200.334508 L191.67021,200.334508 C191.213405,200.334508 190.756599,199.769731 190.424377,199.587008 C190.424377,199.130203 190.524043,198.540508 190.424377,198.092008 C190.648627,197.900981 190.781516,197.344508 191.171877,197.344508 L191.421043,197.344508 C191.886154,197.793008 192.475849,198.905953 193.16521,199.088675 C193.447599,199.163425 193.879488,198.980703 194.161877,199.088675 C193.862877,200.002286 193.954238,200.351119 193.663543,201.331175 C194.560543,201.721536 196.055543,202.560397 197.401043,201.829508 C198.605349,201.173369 197.758182,200.201619 197.65021,199.587008 C197.533932,198.939175 197.932599,198.665092 197.899377,198.341175 C199.560488,198.241508 200.964127,197.984036 202.633543,197.344508 C202.708293,197.311286 202.80796,196.862786 202.88271,196.846175 L203.381043,196.846175 C203.746488,196.239869 203.347821,195.417619 203.63021,194.603675 C203.804627,194.055508 204.643488,193.789731 204.876043,193.357842 C205.133515,192.851203 204.909265,192.593731 205.12521,192.112008 C206.196627,192.153536 208.480654,192.261508 209.61021,191.613675 C210.116849,191.322981 210.374321,190.459203 210.856043,190.118675 C211.071988,189.952564 211.337765,190.210036 211.603543,190.118675 C213.223126,189.487453 212.126793,187.86787 211.603543,187.128675 C212.467321,186.89612 214.078599,186.655258 214.344376,185.882842 C214.477265,185.47587 214.145043,184.736675 214.344376,184.387842 L214.593543,184.387842 C215.59021,183.881203 216.296182,182.884536 217.08521,182.145342 C217.342682,182.26162 217.799487,182.045675 218.081876,182.145342 C218.688182,182.361286 218.821071,183.640342 220.324376,183.142008 C220.498793,183.08387 220.797793,182.519092 221.071876,182.394509 C220.839321,182.012453 221.055265,181.480897 220.82271,181.148675 C220.706432,180.999175 219.443987,180.459314 219.32771,180.152009 C219.219737,179.877925 219.47721,179.64537 219.32771,179.404509 C221.669876,178.789897 222.110071,178.89787 221.819376,176.165342 C222.658237,175.642092 223.480487,175.500897 224.311043,174.919509 C224.568515,174.736786 224.510376,174.371342 224.809376,174.172009 C224.626654,173.009231 224.327654,171.456092 225.30771,170.932842 C227.126626,169.961092 227.691404,171.514231 228.546876,171.680342 C229.585071,171.887981 229.709654,171.289981 230.291043,171.182009 C230.224598,170.584009 230.590043,170.775036 230.54021,170.185342 C230.515293,169.952786 229.983737,169.396314 230.041876,168.939509 C230.050182,168.823231 230.76446,168.241842 230.789376,168.192009 C230.897348,167.901314 230.648182,167.718592 230.789376,167.444509 C230.39071,167.261786 229.71796,166.929564 229.294376,166.697009 C230.01696,165.127259 229.925598,164.587398 229.294376,162.959509 C230.100015,163.408009 230.897348,163.839898 231.786043,164.205342 C231.719598,164.213648 233.040182,164.230259 233.281043,164.205342 C233.463765,163.781759 234.227876,161.422981 234.526876,161.215342 C235.166404,160.758537 236.088321,161.123981 236.769376,160.717009 C237.300932,160.393092 236.977015,159.305064 236.769376,159.471175 C236.877348,159.064203 236.636487,158.607398 236.769376,158.225342 C236.802598,158.11737 237.209571,157.984481 237.267709,157.727009 C239.227821,157.876509 239.526821,157.727009 240.756043,157.228675 C240.947071,155.442981 240.963682,154.695481 239.759376,153.740342 C239.634793,153.648981 239.061709,153.383203 239.011876,153.242009 C238.820848,152.702148 239.094932,152.070926 239.011876,151.497842 C239.410543,151.381564 239.410543,151.705481 239.510209,151.248676 C239.917182,151.431398 240.332459,151.065953 240.756043,151.248676 C241.071654,151.38987 240.963682,152.303481 241.254376,152.494509 C242.716154,153.491176 244.576598,152.81012 244.991876,151.497842 C245.28257,150.534398 244.858987,150.559314 244.742709,149.753676 L244.244376,149.753676 L244.493543,147.760342 C243.604848,147.826787 243.463654,147.80187 242.998543,147.760342 C242.840737,147.336759 243.148043,146.938092 242.998543,146.514509 C242.932098,146.356703 242.342404,146.165676 242.251043,146.016176 C241.985265,145.592592 242.217821,145.243759 242.001876,144.770342 C242.275959,144.620842 242.450376,144.097592 242.749376,144.022842 C242.907182,143.981315 243.330765,144.130815 243.496876,144.022842 C243.953682,143.69062 244.219459,142.461398 244.742709,142.278676 C245.299182,142.071037 246.378904,142.303592 246.985209,142.278676 C247.37557,140.933176 247.82407,139.861759 248.231043,138.790342 C248.040015,138.665759 247.965265,137.926565 247.732709,137.793676 C247.250987,137.519592 246.611459,137.536204 246.237709,137.295342 C244.775932,136.36512 247.873904,135.634231 248.480209,135.052842 C248.712765,134.820287 248.480209,134.288731 248.729376,134.056176 C248.455293,133.998037 245.340709,133.37512 245.241043,133.308676 C245.108154,133.22562 244.38557,131.365176 244.244376,131.066176 C245.490209,130.667509 245.639709,130.401731 246.486876,129.820343 C246.121432,129.496426 246.138043,128.881815 245.739376,128.574509 C245.390543,128.317037 245.166293,128.449926 244.742709,128.325343 C244.751015,128.283815 244.551682,127.420037 244.493543,127.079509 C245.274265,126.714065 245.830737,126.456593 246.486876,126.082843 C246.353987,125.725704 246.611459,125.194148 246.486876,124.837009 C246.420432,124.679204 245.830737,124.488176 245.739376,124.338676 C245.398848,123.80712 245.191209,122.843676 244.991876,122.345343 C244.858987,122.76062 244.742709,121.597843 244.742709,121.597843 C245.80582,120.974926 245.025098,119.513148 243.746043,119.604509 L243.247709,120.102843 C242.774293,120.335398 242.417154,120.418454 242.001876,120.601176 C241.993571,120.642704 241.968654,122.220759 242.001876,122.096176 C242.151376,122.411787 242.633098,122.602815 242.749376,122.843676 C242.998543,123.375231 242.840737,123.873565 242.998543,124.338676 C242.442071,123.856954 242.010182,123.591176 241.503543,123.092843 C241.071654,123.242343 240.672987,122.943343 240.257709,123.092843 C239.942098,123.200815 239.560043,124.230704 239.261043,124.338676 C238.829154,124.488176 238.430487,124.189176 238.015209,124.338676 C237.981987,124.288843 237.766043,123.840343 237.766043,123.840343 C237.641459,124.222398 237.516876,122.893509 237.516876,122.843676 C237.566709,122.802148 238.239459,122.403481 238.264376,122.345343 C238.438793,121.71412 237.957071,121.398509 238.015209,121.099509 L237.516876,121.099509 C237.176348,121.215787 236.860737,122.361954 236.520209,122.594509 C236.345793,122.702481 235.938821,122.552981 235.772709,122.594509 C235.598293,122.636037 234.95046,123.28387 234.776043,123.342009 C233.281043,123.823731 231.918932,123.840343 230.041876,123.840343 C229.593376,124.770565 229.626598,124.737343 229.294376,126.082843 C229.252848,126.082843 228.546876,126.074537 228.546876,126.082843 C228.488737,125.484843 228.29771,124.305454 228.29771,123.342009 C228.854182,123.150981 229.061821,123.225731 229.79271,123.092843 C229.701348,121.971593 229.709654,120.634398 229.294376,119.355343 C230.46546,119.579593 230.581737,119.729093 231.786043,119.355343 L232.03521,118.857009 C232.458793,118.690898 233.314265,118.857009 233.779376,118.857009 C233.729543,118.624454 234.119904,118.366982 234.028543,117.860343 C233.82921,116.822148 232.392348,115.867009 231.786043,115.119509 C231.520265,115.484954 231.794348,115.742426 231.536876,116.116176 C231.337543,116.390259 231.055154,116.157704 230.789376,116.365343 C230.490376,116.589593 230.274432,117.312176 230.041876,117.611176 C229.992043,117.544732 229.360821,117.436759 229.294376,117.362009 C229.078432,117.15437 229.136571,116.697565 229.04521,116.365343 C228.779432,116.315509 228.646543,115.900232 228.546876,115.867009 C227.616654,115.551398 227.110015,116.199232 226.553543,116.365343 L226.304376,116.116176 C226.387432,114.621176 226.213015,114.430148 226.05521,113.375343 C225.855876,113.375343 225.216349,113.475009 225.058543,113.375343 L225.058543,113.375343 Z M145.125877,144.994592 C144.93485,145.019509 144.760433,145.135787 144.577711,145.019509 C144.237183,145.434787 143.680711,145.833453 143.331877,146.265342 C143.755461,147.170648 143.73885,148.62412 145.574377,148.009509 C145.748794,147.95137 146.047794,147.386592 146.321877,147.262009 C146.321877,146.90487 146.2056,146.340092 146.321877,146.016176 C146.089322,145.841759 145.499627,145.094259 145.325211,145.019509 C145.258766,144.994592 145.192322,144.986287 145.125877,144.994592 Z M150.059377,165.700342 C149.743766,166.099009 149.120849,166.530898 148.813544,166.946175 C148.888294,167.054148 148.813544,167.569092 148.813544,167.693675 C149.079322,167.818259 149.569349,168.391342 149.810211,168.441175 C152.467988,169.039175 151.388266,166.530898 151.056044,165.700342 C150.831794,165.700342 150.242099,165.791703 150.059377,165.700342 Z M147.069377,185.882842 C147.011238,186.024036 146.471377,186.264897 146.321877,186.381175 C146.42985,186.813064 146.321877,187.427675 146.321877,187.876175 C148.780322,188.499092 147.875016,189.13862 148.564377,186.630342 C148.340127,186.455925 148.140794,186.472536 148.066044,186.132008 C147.650766,186.007425 147.393294,186.090481 147.069377,185.882842 Z M17.7851012,195.085397 C17.3930789,195.160147 17.6978928,196.015619 17.9977234,196.098675 C19.36814,196.505647 18.3565234,195.201675 17.9977234,195.102008 C17.9113456,195.077092 17.8415789,195.077092 17.7851012,195.085397 Z M20.2402234,195.102008 C20.1621511,195.542203 19.6098317,196.140203 19.74189,196.846175 C19.7726206,197.037203 20.1779317,197.269758 20.2402234,197.593675 C20.6845706,197.726564 20.870615,197.585369 21.2360595,197.842842 C21.1579872,197.552147 20.7377261,196.347842 20.7377261,196.347842 C20.9794178,196.223258 21.1214428,196.057147 20.9893845,195.600342 C20.9412122,195.459147 20.2792595,195.243203 20.2402234,195.102008 Z" id="Shape" transform="translate(124.816589, 119.137305) scale(-1, 1) rotate(-180.000000) translate(-124.816589, -119.137305) "></path>
                </g>
            </g>
        </g>
    </g>
</svg>