<?xml version="1.0" encoding="UTF-8" standalone="no"?>
<svg width="250px" height="250px" viewBox="0 0 250 250" version="1.1" xmlns="http://www.w3.org/2000/svg" xmlns:xlink="http://www.w3.org/1999/xlink">
    <!-- Generator: Sketch 47.1 (45422) - http://www.bohemiancoding.com/sketch -->
    <title>FORD</title>
    <desc>Created with Sketch.</desc>
    <defs></defs>
    <g id="Page-1" stroke="none" stroke-width="1" fill="none" fill-rule="evenodd">
        <g id="FORD" fill-rule="nonzero">
            <g id="Group" transform="translate(0.000000, 19.000000)">
                <path d="M84.8267622,212.667496 L84.8267622,164.121978 L83.7481747,163.373845 C78.4587434,161.441228 74.3160226,157.229599 72.4644896,151.902472 L72.7133944,152.609042 C72.0618646,150.896517 71.7245723,149.080126 71.7177751,147.247423 C70.6495977,144.177322 70.0075034,140.974737 69.8095048,137.729508 C67.357566,133.183569 64.4377933,128.907031 61.0978362,124.969685 C56.5301598,127.692978 51.3128609,129.129025 45.9976105,129.125979 C29.7773132,129.125979 4.51347405,116.657096 0.365060401,82.5754817 C0.0983600715,79.7158189 -0.0124289147,76.8437081 0.0331873092,73.9719523 C0.132080419,56.793679 5.44179138,40.0515359 15.2578654,25.9667519 C25.8893376,10.2780432 43.6230574,0.926775496 62.549781,1.02898551 C67.6307094,1.03842598 72.6805566,1.82326992 77.5255542,3.35651037 C83.6237223,1.44461495 92.2524227,1.86024439 103.743528,4.60339869 C106.092002,4.26211325 108.483314,4.36076608 110.795832,4.8943393 L116.188769,6.47373117 C116.188769,6.47373117 116.603611,10.9625291 116.603611,11.045655 L116.603611,11.045655 L117.391809,10.297522 C121.728275,4.9045196 129.096401,3.02512598 135.478893,5.68403524 C139.371826,6.85848902 142.918356,8.97047085 145.808443,11.835351 L249.97511,11.835351 L249.97511,108.012003 L207.951679,108.012003 L207.951679,143.008002 L193.598168,143.008002 L193.598168,212.667496 L84.8267622,212.667496" id="Shape" fill="#FFFFFF"></path>
                <path d="M142.489712,18.6516738 C140.427237,15.5227161 137.302754,13.2487331 133.695075,12.2509804 C128.841431,10.7962774 125.398248,10.7962774 122.535842,14.9525718 C121.184635,16.2999639 119.728048,17.5369405 118.180008,18.6516738 L114.736825,18.6516738 C112.666504,17.1773086 111.055539,15.1453664 110.090601,12.7912987 L110.090601,11.7106621 L109.094982,11.4197215 C107.203054,11.0658637 105.262099,11.0658637 103.370171,11.4197215 C88.394398,7.72061949 81.2591265,8.80125604 77.8574273,10.5884626 C73.011644,8.72802162 67.8635829,7.78382671 62.6742334,7.80374538 C45.8599254,7.74960425 30.1334693,16.1269806 20.7752555,30.1230463 L20.7752555,30.1230463 C10.1742625,45.1990807 5.3710931,63.6068433 7.25142705,81.9520375 C10.5286738,111.669542 32.1419089,122.475908 45.9976105,122.475908 C52.3308195,122.341248 58.3604531,119.730901 62.7986858,115.202393 C63.4250527,116.691404 64.2482724,118.089342 65.2462498,119.358687 C69.8547939,124.504718 73.6591337,130.32016 76.529935,136.607309 L76.529935,136.607309 C76.6363147,139.823381 77.281388,142.998674 78.4382052,146.000534 L78.4382052,146.49929 C78.3935721,147.697173 78.5621384,148.893452 78.9360149,150.03214 C80.282069,153.782104 83.3854489,156.627091 87.2328422,157.638159 C88.3802448,158.742145 89.8202406,159.492365 91.3812558,159.799432 L91.3812558,205.851174 L186.711801,205.851174 L186.711801,143.091128 L172.482743,143.091128 L172.482743,136.233242 L201.189765,136.233242 L201.189765,101.237244 L243.213195,101.237244 L243.213195,18.6516738 L142.489712,18.6516738" id="Shape" fill="#231F20"></path>
                <path d="M132.782424,84.1548735 C136.267091,81.2454675 136.55748,79.0841944 136.433028,77.878869 C130.998606,70.5637908 135.188504,62.7083944 134.358821,56.349264 C133.861012,58.5105371 126.435351,63.3318386 122.162485,61.0458767 C117.889619,58.7599147 119.30008,51.6110884 119.30008,51.6110884 C119.583275,50.0033304 119.763409,48.3790513 119.839373,46.7482239 C119.839373,36.8146803 115.981349,32.2011935 116.645095,28.2111509 C116.032564,25.8761717 114.309557,23.9943712 112.040356,23.1820347 C109.352357,21.2040305 107.14099,18.6476064 105.56883,15.7007047 C105.195473,16.0332083 105.56883,16.9475931 105.56883,16.9475931 C103.909465,17.6957261 86.6520643,11.4612845 80.3049914,15.2019494 C96.4008363,23.5145382 102.333068,43.1738107 103.577592,48.4523046 C107.394132,47.0391645 106.77187,50.9045183 106.77187,50.9045183 C106.379697,50.4848358 105.831517,50.2466749 105.257699,50.2466749 C104.683882,50.2466749 104.135702,50.4848358 103.743528,50.9045183 C103.743528,50.9045183 98.5165273,60.7549361 92.4183592,56.7233305 C91.0789585,56.0887953 90.3944459,54.5764896 90.8004779,53.1489173 C90.8004779,48.9926229 84.6608257,47.4963569 84.6608257,47.4963569 C77.6085225,41.6775448 74.0408868,46.7482239 74.0408868,46.7482239 C70.5372896,46.1768452 67.194342,48.433981 66.4078057,51.902029 C63.4899272,53.3732016 61.3549899,56.0431503 60.5585424,59.2171071 C60.3787878,59.1606865 60.2595389,58.9900072 60.2681535,58.8014777 C60.1868063,55.4311842 61.8910218,52.2692343 64.7484402,50.4888889 L64.997345,49.8654447 C61.6157696,45.97922 56.7020309,43.7759928 51.5564848,43.8388178 C53.4273303,42.6514808 55.6065204,42.044197 57.8205894,42.0931742 C51.1887619,39.6801669 44.0887861,38.8407782 37.0785212,39.6409605 C28.1179477,40.3475305 25.6703836,38.7265757 25.0481216,37.6043762 C24.792843,37.5156985 24.5152016,37.5156985 24.259923,37.6043762 C24.259923,37.6043762 24.259923,38.3940722 25.1310899,39.8903382 C26.9290969,41.8378563 29.0306145,43.480154 31.3537103,44.7532026 C37.2859419,48.6185564 45.3338643,53.8970503 46.8272932,61.7108838 C50.6814956,61.7143068 54.4790693,62.640566 57.9035577,64.4124751 C62.866077,67.1531144 66.4934306,71.8085515 67.9427187,77.2969878 C67.8806537,76.7584586 67.8806537,76.2145621 67.9427187,75.676033 C69.035865,71.4354171 72.1367653,68.002413 76.239546,66.4906223 C73.8334661,68.8597101 69.9754414,73.431634 69.9754414,75.676033 C69.8286358,78.1271633 70.3143905,80.5748647 71.385902,82.7832964 C71.385902,82.7832964 69.3116952,83.1989258 69.0213063,82.4092299 C66.0759326,88.3942938 67.1545201,90.7218187 67.735298,92.3012106 C68.3160759,93.8806024 71.8837117,104.770094 72.0911324,105.310412 C70.5509786,104.315854 69.3611791,102.862123 68.6894332,101.154118 C68.1086553,102.359443 67.4034249,103.647894 66.200385,105.726041 C64.4995354,114.911452 80.5124121,125.551566 81.8813886,135.983865 C81.8813886,136.815124 81.8813886,137.687945 81.8813886,138.477641 C82.7269783,140.621337 84.6024466,142.187196 86.8594849,142.633936 C85.3892228,140.689341 84.3561571,138.449143 83.831143,136.066991 C83.6044106,135.368807 83.3271128,134.688137 83.0014602,134.030406 C82.1622873,132.290569 81.117713,130.657938 79.89015,129.167542 C81.758242,129.787057 83.3649949,131.016363 84.453405,132.658829 L83.9555954,130.622245 C85.0756671,122.309656 93.2895261,119.982131 97.3964556,119.233998 C99.163744,115.434143 100.070388,111.289721 100.05144,107.097619 C100.65804,101.576119 99.4646731,96.0062139 96.6497411,91.220574 C99.1906898,90.0349308 101.232641,87.9891005 102.416036,85.4433248 C103.826497,86.8564649 101.669322,90.0568116 101.669322,90.0568116 C108.182331,86.9395908 117.516262,80.829838 118.262976,84.3211253 C118.181995,85.0809528 118.181995,85.8472597 118.262976,86.6070872 C118.655707,93.2710042 117.955007,99.9543448 116.188769,106.391049 L114.695341,118.194925 C114.230031,121.24806 114.008081,124.333466 114.031594,127.421898 C114.031594,125.46844 114.819793,122.184967 115.69096,118.194925 L118.138524,106.391049 C119.784105,99.9626171 120.372602,93.3083876 119.880858,86.6902131 C119.77891,85.8759994 119.77891,85.0522131 119.880858,84.2379994 C121.33646,80.0681267 123.09741,76.0116371 125.149343,72.1016198 C126.061994,71.5613015 122.079517,83.1157999 121.789128,84.570503 C121.678467,85.3284573 121.678467,86.0985106 121.789128,86.8564649 C123.033652,86.8564649 126.933161,82.7001705 132.74094,84.2379994 M57.6546529,58.0117818 C57.7214447,59.471391 56.8293441,60.803652 55.4559936,61.2952543 C53.0499137,62.1680762 51.8468738,58.3442853 52.5521041,59.0092924 C53.1330909,59.5765104 53.9825739,59.7692115 54.7507633,59.5080477 C55.3601907,59.241595 55.752014,58.6363866 55.7463826,57.9702188 C55.4974778,51.5279625 35.3776716,41.3450412 37.7007832,41.7191077 C55.1656047,49.4913782 57.696137,55.2686275 57.6546529,58.0117818 M98.3505907,108.261381 C96.8344889,101.699901 94.8944762,95.2440468 92.5428116,88.9346121 C94.492566,90.9296334 100.05144,102.858198 98.3505907,108.261381 M94.4095978,88.5605456 C93.1449429,88.750222 91.8555022,88.4532357 90.8004779,87.7292867 C89.0612307,89.4293059 86.6655853,90.2800085 84.2459843,90.0568116 C81.6173196,90.1520571 79.0864368,89.0522394 77.3596177,87.0642796 C76.0373923,85.470881 75.3568344,83.4401517 75.4513474,81.3701563 L74.414244,81.577971 C74.414244,81.577971 78.5626576,75.2604035 89.307049,84.1964365 C91.132351,85.6927025 92.5842958,86.8980278 94.0777247,86.6486502 C97.3932051,84.8006418 100.367853,82.3967211 102.872362,79.5413868 C101.246168,83.4283873 98.309919,86.6202691 94.5755343,88.5605456 M95.0318598,66.2412447 C97.3549715,62.8330833 102.499004,73.8472634 103.328687,76.7566695 C101.669322,74.5122705 97.2720032,69.0259619 95.0318598,66.2412447 M82.8355237,104.645405 C85.5592835,100.182423 87.9310868,95.5131846 89.929311,90.6802558 C89.9818602,96.2164007 87.3337138,101.429661 82.8355237,104.645405" id="Shape" fill="#DEDEDE"></path>
                <path d="M119.673437,109.09264 C121.203631,107.781363 122.33855,106.068553 122.950684,104.14665 C124.244387,100.219946 125.868085,96.4102169 127.804328,92.758403 C128.343621,92.758403 128.468074,91.4283887 126.435351,91.8855811 L126.435351,91.8855811 L125.232311,92.0933959 C124.168751,92.2437413 123.084645,92.0699549 122.121001,91.5946405 C122.001386,96.7099726 121.404175,101.802861 120.337183,106.806678 L119.839373,109.175766" id="Shape" fill="#DEDEDE"></path>
                <path d="M45.6657374,90.0983745 C51.017191,90.0983745 50.8097703,82.5754817 50.8097703,82.367667 C50.6303258,77.9930526 48.1739275,74.0332626 44.3382451,71.935368 C43.6744989,72.5172492 42.0981017,74.5538335 42.0981017,80.9960898 C42.0981017,89.6411822 45.6657374,90.0983745 45.6657374,90.0983745" id="Shape" fill="#DEDEDE"></path>
                <path d="M120.669056,23.2651606 C119.587385,23.96951 118.432966,24.5547834 117.225873,25.0108042 C117.596691,25.5328488 117.916225,26.0896153 118.180008,26.673322 C118.924712,25.477355 119.756663,24.3381955 120.669056,23.2651606" id="Shape" fill="#DBDCDD"></path>
                <path d="M77.4011018,81.2039045 C78.4737461,81.1690979 79.5465851,81.266814 80.5953803,81.4948451 C79.5167928,83.1157999 80.180539,86.2330207 84.3289526,86.7317761 C85.7605495,87.0866792 87.2754467,86.7983019 88.4773663,85.9420801 L89.307049,86.6070872 C87.5868762,87.9329875 85.3782247,88.4483081 83.2503651,88.0202273 C79.7958175,87.712137 77.2380891,84.6667434 77.5255542,81.2039045" id="Shape" fill="#FFFFFF"></path>
                <path d="M129.173304,85.9005172 C128.455033,85.9807628 127.754523,86.1772783 127.099097,86.4823984 C127.389486,87.6461608 126.559804,89.2671157 124.070755,89.2671157 C123.400199,89.3023617 122.731124,89.1739977 122.121001,88.8930492 L122.121001,89.3502415 C122.800742,89.9178346 123.64382,90.2527939 124.527081,90.3061893 C125.854573,90.3061893 128.260653,89.8905598 129.173304,85.9005172" id="Shape" fill="#FFFFFF"></path>
                <path d="M92.4598434,144.213328 C102.374552,146.249912 105.444378,140.846729 105.444378,140.846729 C105.444378,140.846729 106.688902,142.675499 105.444378,143.631446 C117.225873,145.169275 116.976968,129.874112 115.732444,128.253157 C115.400571,129.998801 111.58403,130.83006 108.348268,133.490088 L108.348268,133.490088 C109.37635,131.449546 110.921317,129.715322 112.828554,128.460972 C113.658237,127.962217 113.948626,127.795965 114.031594,127.380335 C114.008081,124.291903 114.230031,121.206497 114.695341,118.153362 L116.188769,106.391049 C117.83435,99.9626171 118.422847,93.3083876 117.931103,86.6902131 C117.850122,85.9303856 117.850122,85.1640787 117.931103,84.4042512 C117.723682,79.9985791 106.191093,82.2429781 102.291584,85.5264507 C101.108189,88.0722264 99.0662374,90.1180567 96.5252887,91.3036999 C99.3402207,96.0893398 100.533588,101.659244 99.9269879,107.180745 C99.9459356,111.372847 99.0392916,115.517269 97.2720032,119.317124 C93.1235895,120.065257 84.8267622,122.559034 83.831143,130.705371 L84.3289526,132.741955 C85.8638657,134.404473 85.5734767,142.84175 92.3768751,144.213328 M97.811297,124.429366 C101.75229,129.790986 107.020775,130.539119 107.020775,133.573214 C102.167131,130.331304 95.9445108,129.41692 97.811297,124.429366" id="Shape" fill="#FFFFFF"></path>
                <path d="M111.625514,144.753646 C109.128258,146.032358 106.190788,146.123851 103.619076,145.003024 C91.9620337,149.533384 87.0254215,143.049565 87.0254215,143.049565 C84.7683832,142.602826 82.8929148,141.036966 82.0473251,138.893271 L82.0473251,138.893271 C82.6346086,143.453455 84.4566111,147.765574 87.3158104,151.362154 L85.9053498,151.362154 C89.2283188,153.292336 93.0169831,154.270058 96.8571618,154.188434 L95.3637329,155.019693 C95.3637329,155.019693 107.808974,155.019693 111.957387,145.169275" id="Shape" fill="#FFFFFF"></path>
                <path d="M117.765167,118.319614 L119.673437,109.175766 C121.203631,107.864489 122.33855,106.151679 122.950684,104.229776 C125.02489,97.8706451 126.642772,94.0468542 126.642772,94.0468542 C126.990736,93.3741549 126.90938,92.5590509 126.435351,91.968707 C128.983836,91.1165585 130.810782,88.8649846 131.123059,86.1914578 C132.823908,92.7999659 120.917961,109.09264 117.765167,118.319614" id="Shape" fill="#FFFFFF"></path>
                <path d="M64.997345,49.9485706 C61.6261459,46.0483279 56.705551,43.8420264 51.5564848,43.9219437 C53.4273303,42.7346067 55.6065204,42.1273229 57.8205894,42.1763001 C51.1887619,39.7632928 44.0887861,38.9239041 37.0785212,39.7240864 C28.1179477,40.4306564 25.6703836,38.8097016 25.0481216,37.6875021 L24.9236692,37.6875021 C29.6418241,38.1452918 34.3930889,38.1452918 39.1112439,37.6875021 C49.8971193,36.8562433 61.0563521,35.9834214 72.298553,45.0857062 C69.1688697,45.3169044 66.4081713,47.2244512 65.0803133,50.0732594" id="Shape" fill="#FFFFFF"></path>
                <path d="M93.3724944,84.1548735 C96.2763839,84.9445695 100.092924,78.2529355 100.092924,78.2529355 C100.424798,77.3801137 98.9313686,74.6785223 96.2763839,71.7691162 C98.3920749,78.7101279 94.3681136,79.5413868 94.3681136,79.5413868 C78.9360149,71.5613015 74.2068233,78.9179426 74.2068233,78.9179426 C85.656445,74.7616482 90.4271207,83.3651776 93.3724944,84.1548735" id="Shape" fill="#FFFFFF"></path>
                <path d="M109.094982,27.4630179 C109.094982,27.4630179 116.686579,30.5386758 112.538165,57.1389599 C113.834542,55.9455894 114.756923,54.4005543 115.19315,52.6917249 C115.89056,57.8366382 115.451547,63.0722325 113.907142,68.0284513 C117.89957,62.1379208 118.604012,54.6095942 115.773928,48.0782381 C115.773928,48.0782381 118.30446,27.5877067 108.555688,24.0132935 C102.825636,18.6044655 95.2295559,15.6257923 87.3572946,15.7007047 C92.3768751,17.6541631 103.950949,19.8569991 108.887561,31.7440011 C109.508497,30.3395347 109.582488,28.7531273 109.094982,27.2967661" id="Shape" fill="#FFFFFF"></path>
                <path d="M88.6018187,55.2686275 C88.7415264,54.0370049 88.3252675,52.8071827 87.4666311,51.9147556 C86.6079947,51.0223285 85.396601,50.5604437 84.1630161,50.6551407 C84.1630161,50.6551407 78.8115625,44.7532026 74.123855,49.4082523 C71.9389875,49.9232402 70.0368175,51.2632443 68.8138856,53.1489173 C68.8138856,53.1489173 73.3356564,50.5720148 75.0779902,51.6526513 C76.2538071,50.4736634 77.9227996,49.9314333 79.5654247,50.1947526 C81.2080498,50.4580719 82.6248611,51.4949686 83.3748175,52.9826655 C84.6608257,52.9826655 86.4446436,53.8554874 87.8965883,57.3883376 C88.5942384,58.7654664 89.9333673,59.7015172 91.4642241,59.8821142 C90.7589938,59.1755442 88.6847869,56.9727082 88.6847869,55.2686275" id="Shape" fill="#FFFFFF"></path>
                <path d="M114.073078,79.7076385 C115.317603,79.7076385 119.258596,79.7076385 119.797889,81.4117192 C122.532849,76.1874181 124.47625,70.5842716 125.564184,64.7865416 C125.564184,64.7865416 121.415771,75.0110259 119.258596,78.585439 C117.524268,77.6210431 115.351192,78.0216487 114.073078,79.5413868" id="Shape" fill="#FFFFFF"></path>
                <path d="M132.989845,63.747468 C127.845812,68.942836 132.989845,78.585439 130.417828,79.9985791 C128.960856,80.7213412 127.727603,81.8276312 126.850192,83.1989258 C128.636153,82.1323548 130.710579,81.6527317 132.782424,81.8273487 C133.476091,81.4199722 133.979582,80.7529343 134.181909,79.973276 C134.384235,79.1936176 134.268787,78.3653497 133.861012,77.6710543 C132.12405,73.2006038 131.876664,68.287228 133.155781,63.6643421" id="Shape" fill="#FFFFFF"></path>
                <path d="M74.7046329,87.8124126 C74.7046329,92.5921512 81.0517058,95.6262461 81.0517058,95.6262461 C75.6587681,105.933856 79.3923404,110.796721 79.3923404,110.796721 C78.9560265,109.545348 78.9560265,108.18274 79.3923404,106.931367 C80.802801,103.149139 83.540754,101.320369 87.6891677,92.01027 C82.974775,92.7446859 78.1912686,91.203659 74.7876012,87.8539756" id="Shape" fill="#FFFFFF"></path>
                <path d="M123.365525,59.5080477 C126.476835,60.8380619 131.413447,57.3467747 131.662352,57.1805229 C134.151401,55.0192498 134.317337,49.5745041 134.483274,43.3816255 C134.281747,37.0441759 135.281183,30.7258958 137.428647,24.7614265 C139.95918,19.7738733 134.773663,18.0282296 131.454932,16.989156 C128.136201,15.9500824 127.306518,16.989156 127.306518,16.989156 C134.939599,19.191992 134.566242,22.4754646 134.566242,22.4754646 C133.114297,20.1895027 128.675494,19.4413697 125.813089,19.191992 C124.029271,22.6001535 117.806651,28.6267803 118.760786,30.8711793 C121.291318,29.4580392 129.007368,27.8370844 132.533519,31.3699346 C125.02489,29.624291 121.789128,33.1987042 120.378667,36.6484285 C124.153724,49.1173117 118.262976,56.7233305 123.324041,59.341796" id="Shape" fill="#FFFFFF"></path>
                <path d="M40.7706093,35.4846661 C44.4101732,35.1351679 48.0694856,35.0379563 51.7224213,35.1937255 C52.2225156,34.6819319 52.7486835,34.1963829 53.2988185,33.7390224 L53.2988185,33.7390224 C55.6384332,30.1103603 59.9228603,28.2426025 64.1676623,29.0008468 C68.9177501,30.2489972 72.1942312,34.5972929 72.0911324,39.5162717 C72.399574,40.6335234 72.6214818,41.7729614 72.7548785,42.9244331 L72.7548785,42.9244331 L73.211204,43.2984996 L74.123855,44.0466326 C75.1489191,43.3410636 76.3312991,42.8986129 77.5670384,42.7581813 C80.4639298,42.6370837 83.2882688,43.6851224 85.4075402,45.6675874 C86.4861277,45.916965 92.7087482,47.6626087 92.7087482,53.3151691 L92.7087482,53.5645467 L92.7087482,53.8139244 C92.9898294,54.6550332 93.6768088,55.2963892 94.5340502,55.5180051 C96.8571618,56.2245752 99.5536307,54.2295539 102.042679,50.0732594 C102.060667,49.9911104 102.060667,49.9060309 102.042679,49.8238818 L102.042679,49.8238818 L102.042679,49.4082523 C101.158344,45.5194194 99.8795157,41.7313531 98.2261383,38.1031316 C93.7458516,34.819659 81.6324837,26.9226996 74.6216647,31.5777494 C74.6216647,31.5777494 78.4382052,23.4729753 94.492566,31.120557 C90.562763,24.5759881 84.7896388,19.3413853 77.8989115,16.0747712 C73.501593,16.4072748 58.2769149,18.1944814 59.0236294,26.8811367 C59.0236294,26.8811367 54.3774061,17.4463484 69.1872428,13.5394317 C63.6623244,12.7002073 58.0275134,12.9401417 52.5935882,14.2460017 L52.5935882,14.2460017 C48.4451746,16.6150895 36.6221957,24.0964194 42.2225541,32.0765047 C40.1525247,30.7535989 38.7430323,28.6098023 38.3470912,26.1820395 C37.9511501,23.7542768 38.6062607,21.2724859 40.1483473,19.3582438 C33.8619792,23.337762 28.4891865,28.6074351 24.3843754,34.819659 L25.0896057,35.8587326 C25.9192885,35.6093549 30.3580911,36.3990509 41.4343555,35.526229" id="Shape" fill="#FFFFFF"></path>
                <path d="M55.7878667,65.7840523 C49.2505626,63.2371014 41.997944,63.2371014 35.4606399,65.7840523 C35.2062504,65.9205069 34.9917734,66.1210656 34.8383778,66.3659335 C34.8383778,66.5737482 34.8383778,66.9893777 34.8383778,67.0309406 C34.8383778,67.0725036 38.0741404,67.6128218 38.9867915,67.8621995 C43.4839414,66.5021413 48.3588827,67.9185599 51.4320324,71.4781756 C57.8932281,78.4895934 58.5349317,89.0891287 52.9669454,96.8315715 C49.2246167,102.079061 43.2626721,105.288351 36.8296164,105.518227 C29.0221982,105.430474 22.0269061,100.665294 19.0744059,93.4234101 C21.3948859,96.0687287 24.0599312,98.3893462 26.997876,100.322859 C30.5843355,101.733774 34.5706492,101.733774 38.1571087,100.322859 L38.1571087,100.322859 C41.5168841,98.811146 44.1939016,96.0994065 45.6657374,92.71684 C43.7338334,92.996129 41.7654995,92.584054 40.1068631,91.5530776 C36.1444737,94.7147555 30.8665643,95.6818706 26.0437409,94.1299801 C30.1868298,93.6716578 34.1145272,92.0428192 37.3689101,89.4333674 C27.3712332,82.7832964 32.764171,67.9453254 32.764171,67.9453254 C31.5196469,66.3659335 33.8427585,64.6618528 33.8427585,64.6618528 C34.8969396,60.7177474 37.3629241,57.3002349 40.7706093,55.0608127 C32.8056551,46.7482239 22.9324306,44.503825 22.3101686,38.2278204 L21.8953272,37.9368798 C18.763095,43.2993875 16.3632563,49.0587588 14.7600558,55.0608127 C25.3799947,65.1606081 30.1921545,62.3343279 30.1921545,62.3343279 C23.3887561,67.3634442 16.2120005,61.9186985 13.5984999,59.6327366 C12.1443728,66.4575153 11.6832726,73.4571542 12.2295234,80.4142086 C14.9674764,81.0376527 24.6747644,82.326104 27.8275587,79.0010685 C27.8275587,79.0010685 25.5459312,87.8539756 12.8103013,84.570503 C14.1377937,95.2937425 25.2555423,118.361176 47.9058808,117.238977 C36.9955529,113.872379 39.0282756,107.887315 39.0282756,107.887315 C43.4959969,111.753494 49.0433847,114.147901 54.9166999,114.7452 C58.4980316,112.379781 61.5494462,109.294262 63.8772733,105.684479 C55.870835,99.8656664 52.9254613,100.239733 52.9254613,100.239733 C57.073875,95.3353055 63.8772733,100.489111 65.9929643,102.193191 L67.6108456,98.7850298 C65.9929643,93.0077806 64.0017257,91.5530776 65.3292181,86.5239614 C60.3511217,85.1939471 58.4428515,86.5239614 58.4428515,86.5239614 C59.4384707,82.0351634 64.2921147,82.367667 66.7396787,82.9911111 L67.0715518,82.2845411 C66.53431,77.6078174 64.496237,73.2322216 61.2637727,69.8156579 C58.4993693,68.2476305 55.0120996,68.8765315 52.9669454,71.3119238 C52.6716759,69.0810606 53.8915692,66.9252166 55.9538033,66.03343" id="Shape" fill="#FFFFFF"></path>
                <path d="M71.5933227,38.6434498 C69.8095048,35.7756067 64.375083,28.8345951 53.2988185,33.7390224 C52.7486835,34.1963829 52.2225156,34.6819319 51.7224213,35.1937255 C58.1104855,35.4181817 64.324119,37.3403214 69.7265366,40.76316 L69.7265366,40.76316 C70.4650292,40.1685583 71.0964193,39.4516235 71.5933227,38.6434498" id="Shape" fill="#BDBBBC"></path>
                <path d="M72.0911324,39.5162717 L72.0911324,39.5162717 L71.7592593,38.8512646 C71.7592593,39.5993976 71.4688703,40.721597 71.2614496,41.7606706 L72.6304261,42.7581813 L72.6304261,42.7581813 C72.4970294,41.6067096 72.2751216,40.4672716 71.9666799,39.3500199" id="Shape" fill="#FFFFFF"></path>
                <path d="M37.3689101,89.4333674 C38.6275007,88.429516 39.7686613,87.2861875 40.7706093,86.025206 C40.4536283,84.5356046 40.286854,83.0178596 40.2727997,81.4948451 C37.7672699,81.8366098 35.2291311,81.1634732 33.2204965,79.6245126 C33.5243483,83.2535833 34.9778584,86.6903836 37.3689101,89.4333674" id="Shape" fill="#DEDEDE"></path>
                <path d="M46.1220629,92.0518329 C46.1220629,92.2596476 46.1220629,92.4674623 45.831674,92.71684 C43.8997699,92.996129 41.9314361,92.584054 40.2727997,91.5530776 C41.0176814,91.0363176 41.7247158,90.4668376 42.3884906,89.8489969 C43.2486025,91.0982065 44.6145265,91.9041121 46.1220629,92.0518329" id="Shape" fill="#FFFFFF"></path>
                <path d="M40.4387362,77.8373061 C38.1253291,79.1250145 35.2607204,78.8611018 33.2204965,77.1722989 C33.2758664,74.3562553 33.7084005,71.5604113 34.5065047,68.8597101 C37.3332288,69.2583747 40.1128056,69.9406647 42.803332,70.8962944 C41.4062838,72.8786915 40.6530343,75.2443245 40.6461569,77.6710543" id="Shape" fill="#DEDEDE"></path>
                <path d="M49.8141511,74.179767 C47.0924444,70.9793498 43.3594313,68.8086224 39.2356963,68.0284513 C43.3679688,67.9028001 47.3343757,69.6605051 50.0215718,72.8081898 C55.8462053,79.1298365 56.4852337,88.6642571 51.5564848,95.709372 C51.5564848,95.709372 41.5173238,109.840773 27.288265,100.447548 C30.8707443,101.879375 34.8650184,101.879375 38.4474977,100.447548 C38.4474977,100.447548 46.744325,101.445058 50.8927386,90.3893151 C55.0411523,79.333572 51.4735165,76.1747883 49.9386035,73.9719523" id="Shape" fill="#BDBBBC"></path>
                <path d="M83.540754,86.1498949 C83.540754,86.1498949 80.5124121,84.2379994 82.0473251,81.9936005 C81.796529,81.8180551 81.5151069,81.6911745 81.2176424,81.619534 C81.2176424,81.619534 79.3093721,84.3626883 83.540754,86.025206" id="Shape" fill="#231F20"></path>
                <path d="M87.4402628,85.4433248 L87.1498739,84.9861324 C86.5324098,85.7847761 85.5860394,86.2588602 84.5778574,86.2745837 C85.6758194,86.5551302 86.8402615,86.2398182 87.6476835,85.4433248" id="Shape" fill="#231F20"></path>
                <path d="M81.9643568,81.9520375 C81.5907349,82.2568934 81.3767938,82.7162095 81.3835789,83.1989258 C81.3835789,84.0301847 81.8813886,84.6951918 82.5036506,84.6951918 C83.1259127,84.6951918 83.2918492,83.9054959 83.2918492,83.2404888 C83.322283,82.9213003 83.2495708,82.6007589 83.0844285,82.326104 C82.628103,82.326104 82.2547458,82.0767263 81.9643568,81.9520375" id="Shape" fill="#FFFFFF"></path>
                <path d="M84.8682464,85.0276954 C84.9818776,85.0412367 85.0954315,85.0018216 85.1763473,84.9207521 C85.2572631,84.8396826 85.2966034,84.725913 85.2830877,84.6120659 C85.2837483,84.5052176 85.2387711,84.4031866 85.1595005,84.3317075 C85.0802299,84.2602284 84.9742335,84.2261251 84.8682464,84.2379994 C84.6620469,84.2379994 84.4948892,84.4054747 84.4948892,84.6120659 C84.4830374,84.7182544 84.5170759,84.8244521 84.5884195,84.9038733 C84.6597631,84.9832946 84.7616007,85.0283572 84.8682464,85.0276954" id="Shape" fill="#231F20"></path>
                <path d="M126.72574,86.773339 C126.580002,86.710961 126.415152,86.710961 126.269415,86.773339 C126.601288,87.4383461 125.979026,88.269605 125.979026,88.269605 C126.564304,87.9389223 126.866871,87.265275 126.72574,86.6070872" id="Shape" fill="#231F20"></path>
                <path d="M123.158104,88.3111679 L122.577326,88.5605456 C123.324041,89.4333674 125.107859,88.5605456 125.107859,88.5605456 C124.429734,88.7644816 123.694626,88.6077784 123.158104,88.1449162" id="Shape" fill="#231F20"></path>
                <path d="M124.485597,88.3111679 C124.429269,88.2134199 124.314435,88.1657636 124.205618,88.1949765 C124.0968,88.2241893 124.021134,88.322987 124.021134,88.4358568 C124.021134,88.5487265 124.0968,88.6475243 124.205618,88.6767371 C124.314435,88.7059499 124.429269,88.6582937 124.485597,88.5605456 C124.530059,88.4833879 124.530059,88.3883257 124.485597,88.3111679" id="Shape" fill="#231F20"></path>
                <path d="M137.138258,75.3019665 C138.856892,75.3257868 140.434783,76.258511 141.286672,77.7541802 C140.37452,77.5244877 139.444807,77.3715583 138.507235,77.2969878 C139.088013,79.2088832 138.797624,82.4923558 133.23875,86.5655243 C133.44295,88.1839214 133.301546,89.8273196 132.823908,91.3868258 C134.629123,91.3450497 136.418336,91.0369444 138.133878,90.472441 C137.76052,92.7999659 134.773663,93.7974766 132.077194,93.9221654 C130.818937,97.3472155 129.161959,100.611665 127.140581,103.647894 C126.72574,104.257484 126.310899,104.922491 125.896057,105.642916 C128.021031,105.715855 130.14526,105.477826 132.201646,104.936346 C131.620868,107.554811 127.555423,108.38607 124.361144,108.261381 C123.324041,110.256402 122.286937,112.417675 121.374286,114.537386 C124.89273,113.909348 128.258376,112.611324 131.288995,110.713595 C142.331435,101.781993 146.297475,86.6958777 141.079251,73.4731969 C140.245806,71.073981 138.980361,68.8482001 137.345679,66.9062518 C136.901433,66.7084353 136.444006,66.5417822 135.976703,66.4074964 C135.649647,69.4373373 136.106823,72.5005103 137.304195,75.3019665" id="Shape" fill="#FFFFFF"></path>
                <path d="M44.8360547,62.0433873 C42.0271417,62.1806982 39.2432767,62.6409085 36.5392274,63.4149645 C36.5392274,63.4149645 39.0697597,57.6377153 40.4387362,55.3101904 L40.8535776,54.894561 C42.7944863,56.9052409 44.2182027,59.3586851 45.0019912,62.0433873" id="Shape" fill="#DEDEDE"></path>
                <path d="M126.144962,87.563035 C126.146034,87.7772828 125.984378,87.957242 125.771605,87.9786644 C125.550978,87.9593361 125.376055,87.7840806 125.356764,87.563035 C125.378145,87.3498581 125.557763,87.1878948 125.771605,87.1889685 C125.977804,87.1889685 126.144962,87.3564437 126.144962,87.563035" id="Shape" fill="#231F20"></path>
                <path d="M125.854573,86.9395908 C126.036691,87.095638 126.142571,87.322956 126.144962,87.563035 C126.144962,87.9786644 125.896057,88.3111679 125.605668,88.3111679 C125.315279,88.3111679 125.232311,87.9371014 125.232311,87.6045979 C125.191766,87.4549075 125.191766,87.2970959 125.232311,87.1474055 C125.439732,87.1474055 125.647153,87.1474055 125.771605,87.1474055" id="Shape" fill="#FFFFFF"></path>
                <path d="M140.291053,26.7980108 C139.547238,28.9996139 139.019278,31.2685847 138.714656,33.5727707 C138.465751,35.4015402 138.299814,37.2303097 138.216846,39.0175163 C138.133878,40.8047229 138.216846,43.5894402 138.009425,45.4597727 C138.088771,47.6587503 137.935812,49.85997 137.5531,52.0267178 C138.154859,55.5963586 138.280411,59.2302972 137.926457,62.8330833 C140.729908,65.4373978 142.852396,68.6914004 144.107593,72.3094345 C147.433218,81.0401867 147.32944,90.7098239 143.817204,99.3669111 C141.69741,105.065823 137.945241,110.010744 133.031329,113.581438 C130.448386,115.150144 127.654371,116.339857 124.734502,117.114288 C123.724498,117.404347 122.699766,117.640206 121.664675,117.820858 C120.252854,121.095229 119.464929,124.605336 119.341564,128.170031 C120.140296,131.179545 120.140296,134.345928 119.341564,137.355442 C118.626004,139.901331 117.268859,142.220017 115.400571,144.088639 C115.128556,145.382489 114.667251,146.62898 114.031594,147.787741 C113.171394,149.353574 112.048784,150.759502 110.712863,151.944035 C107.59634,154.81678 103.749372,156.772681 99.5951148,157.596596 L99.5951148,197.704837 L178.414974,197.704837 L178.414974,151.237465 L164.351852,151.237465 L164.351852,128.045342 L193.01739,128.045342 L193.01739,93.0493436 L235.082305,93.0493436 L235.082305,26.7980108 L140.291053,26.7980108" id="Shape" fill="#BDBBBC"></path>
                <path d="M138.714656,33.5727707 C138.465751,35.4015402 138.299814,37.2303097 138.216846,39.0175163 C138.133878,40.8047229 138.216846,43.5894402 138.009425,45.4597727 C138.088771,47.6587503 137.935812,49.85997 137.5531,52.0267178 C138.134263,55.5984193 138.259722,59.2296684 137.926457,62.8330833 C140.729908,65.4373978 142.852396,68.6914004 144.107593,72.3094345 C147.433218,81.0401867 147.32944,90.7098239 143.817204,99.3669111 C141.69741,105.065823 137.945241,110.010744 133.031329,113.581438 C130.448386,115.150144 127.654371,116.339857 124.734502,117.114288 C123.725653,117.408815 122.700672,117.644731 121.664675,117.820858 C120.252854,121.095229 119.464929,124.605336 119.341564,128.170031 C120.140296,131.179545 120.140296,134.345928 119.341564,137.355442 L119.341564,158.136914 L106.522966,158.136914 L106.522966,191.054766 L171.901965,191.054766 L171.901965,158.012225 L157.672906,158.012225 L157.672906,121.270583 L186.338444,121.270583 L186.338444,89.0593009 L157.672906,89.0593009 L157.672906,66.1165558 L190.445374,66.1165558 L190.445374,86.2745837 L228.195938,86.2745837 L228.195938,33.5727707 L138.714656,33.5727707" id="Shape" fill="#FFFFFF"></path>
                <path d="M124.900438,163.456971 L112.040356,163.456971 L112.040356,185.485331 L166.467543,185.485331 L166.467543,163.456971 L152.155516,163.456971 L152.155516,115.825837 L180.821054,115.825837 L180.821054,94.5040466 L152.155516,94.5040466 L152.155516,60.7133731 L195.755343,60.7133731 L195.755343,80.829838 L222.844484,80.829838 L222.844484,39.0175163 L138.216846,39.0175163 C138.216846,41.3450412 138.216846,43.5894402 138.009425,45.4597727 C138.088771,47.6587503 137.935812,49.85997 137.5531,52.0267178 C138.154859,55.5963586 138.280411,59.2302972 137.926457,62.8330833 C140.729908,65.4373978 142.852396,68.6914004 144.107593,72.3094345 C147.433218,81.0401867 147.32944,90.7098239 143.817204,99.3669111 C141.69741,105.065823 137.945241,110.010744 133.031329,113.581438 C130.448386,115.150144 127.654371,116.339857 124.734502,117.114288 L124.734502,163.456971" id="Shape" fill="#860038"></path>
            </g>
        </g>
    </g>
</svg>