<?xml version="1.0" encoding="UTF-8" standalone="no"?>
<svg width="250px" height="250px" viewBox="0 0 250 250" version="1.1" xmlns="http://www.w3.org/2000/svg" xmlns:xlink="http://www.w3.org/1999/xlink">
    <!-- Generator: Sketch 47.1 (45422) - http://www.bohemiancoding.com/sketch -->
    <title>RI</title>
    <desc>Created with Sketch.</desc>
    <defs></defs>
    <g id="Page-1" stroke="none" stroke-width="1" fill="none" fill-rule="evenodd">
        <g id="RI" fill-rule="nonzero">
            <g id="Group-2" transform="translate(29.000000, 0.000000)">
                <polyline id="Shape" fill="#004990" points="140.089756 243.726415 138.536341 243.726415 138.536341 243.207547 142.160976 243.207547 142.160976 243.726415 140.654634 243.726415 140.654634 247.783019 140.089756 247.783019 140.089756 243.726415"></polyline>
                <polyline id="Shape" fill="#004990" points="144.60878 247.783019 143.337805 244.056604 143.337805 247.783019 142.725854 247.783019 142.725854 243.207547 143.573171 243.207547 144.89122 247.122642 146.209268 243.207547 147.056585 243.207547 147.056585 247.783019 146.444634 247.783019 146.444634 244.056604 145.220732 247.783019 144.60878 247.783019"></polyline>
                <path d="M63.3134146,247.54717 L63.3134146,218.113208 L0.65902439,218.113208 L0.65902439,183.018868 L18.0290244,183.018868 L18.0290244,37.7358491 L0.376585366,37.7358491 L0.376585366,0.377358491 L156.235854,0.377358491 L189.657805,36.745283 L189.657805,91.6509434 L153.129024,118.349057 L176.66561,183.726415 L192.011463,183.726415 L192.011463,218.584906 L150.634146,218.584906 L117.682927,128.962264 L117.682927,213.867925 L135.052927,213.867925 L135.052927,247.45283 L63.3134146,247.45283 L63.3134146,247.54717 Z M78.9887805,214.150943 L78.9887805,125.849057 L56.9114634,125.849057 L56.9114634,183.537736 L68.4443902,183.537736 L68.4443902,214.245283 L78.9887805,214.150943 Z M140.183902,88.2075472 L152.752439,75 L152.752439,52.2169811 L139.242439,36.8867925 L56.1582927,36.8867925 L56.1582927,88.3018868 L78.565122,88.3018868 L78.565122,82.0283019 L63.2663415,82.0283019 L63.2663415,45.4716981 L136.747561,45.4716981 L136.747561,81.745283 L119.612927,81.745283 L119.612927,88.3018868 L140.183902,88.2075472 Z" id="Shape" fill="#004990"></path>
                <g id="Group" fill="#004990">
                    <path d="M140.325122,88.6792453 L119.236341,88.6792453 L119.236341,81.3679245 L136.512195,81.3679245 L136.512195,45.8962264 L63.6429268,45.8962264 L63.6429268,81.6509434 L78.9887805,81.6509434 L78.9887805,88.6792453 L55.7817073,88.6792453 L55.7817073,36.509434 L139.430732,36.509434 L153.081951,52.0754717 L153.081951,75.4716981 L140.325122,88.6792453 Z M119.989512,87.9245283 L139.99561,87.9245283 L152.32878,74.9528302 L152.32878,52.3584906 L139.054146,37.3113208 L56.4878049,37.3113208 L56.4878049,87.9245283 L78.1414634,87.9245283 L78.1414634,82.4056604 L62.8897561,82.4056604 L62.8897561,45.0943396 L137.124146,45.0943396 L137.124146,82.1226415 L119.989512,82.1226415 L119.989512,87.9245283 Z" id="Shape"></path>
                    <path d="M79.3653659,214.622642 L68.0678049,214.622642 L68.0678049,183.962264 L56.4878049,183.962264 L56.4878049,125.471698 L79.3182927,125.471698 L79.3653659,214.622642 Z M68.8209756,213.820755 L78.6121951,213.820755 L78.6121951,126.226415 L57.2880488,126.226415 L57.2880488,183.113208 L68.8209756,183.113208 L68.8209756,213.820755 Z" id="Shape"></path>
                    <path d="M135.288293,247.924528 L62.9368293,247.924528 L62.9368293,218.490566 L0.282439024,218.490566 L0.282439024,182.59434 L17.652439,182.59434 L17.652439,37.7358491 L0,37.7358491 L0,0 L156.424146,0 L156.424146,0 L189.940244,36.4622642 L189.940244,91.8396226 L189.940244,91.8396226 L153.646829,118.396226 L177.183415,183.254717 L192.670488,183.254717 L192.670488,218.867925 L150.304634,218.867925 L150.304634,218.632075 L117.918293,131.179245 L117.918293,213.584906 L135.288293,213.584906 L135.288293,247.924528 Z M63.69,247.169811 L134.535122,247.169811 L134.535122,214.150943 L117.118049,214.150943 L117.118049,129.056604 L117.87122,129.056604 L150.822439,218.349057 L191.823171,218.349057 L191.823171,183.962264 L176.571463,183.962264 L152.705366,117.924528 L152.940732,117.924528 L189.28122,91.3679245 L189.28122,36.8867925 L156.094634,0.754716981 L0.753170732,0.754716981 L0.753170732,37.1698113 L18.4056098,37.1698113 L18.4056098,183.396226 L1.03560976,183.396226 L1.03560976,217.735849 L63.69,217.735849 L63.69,247.169811 Z" id="Shape"></path>
                </g>
                <path d="M66.7497561,244.103774 L66.7497561,217.688679 L82.425122,217.688679 L82.425122,122.358491 L53.475122,122.358491 L53.475122,186.981132 L65.0080488,186.981132 L65.0080488,214.622642 L4.14243902,214.622642 L4.14243902,186.320755 L21.4653659,186.320755 L21.4653659,34.1037736 L3.81292683,34.1037736 L3.81292683,3.86792453 L154.729512,3.86792453 L186.17439,38.0660377 L186.17439,89.9528302 L149.033659,117.122642 L174.406098,187.216981 L188.763415,187.216981 L188.763415,215.188679 L152.987805,215.188679 L118.436098,121.556604 L114.058293,121.556604 L114.058293,217.40566 L131.475366,217.40566 L131.475366,244.103774 L66.7497561,244.103774 L66.7497561,244.103774 Z M141.643171,91.745283 L156.141707,76.509434 L156.141707,50.8962264 L140.795854,33.4433962 L52.7219512,33.4433962 L52.7219512,91.745283 L82.0485366,91.745283 L82.0485366,78.5377358 L66.7026829,78.5377358 L66.7026829,48.9622642 L133.264146,48.9622642 L133.264146,78.3018868 L116.129512,78.3018868 L116.129512,91.745283 L141.643171,91.745283 Z" id="Shape" fill="#FFFFFF"></path>
                <path d="M141.78439,92.1226415 L115.752927,92.1226415 L115.752927,77.9716981 L132.887561,77.9716981 L132.887561,49.3396226 L66.985122,49.3396226 L66.985122,78.1603774 L82.3309756,78.1603774 L82.3309756,92.3113208 L52.3453659,92.3113208 L52.3453659,33.0188679 L141.219512,33.0188679 L141.219512,33.0188679 L156.706585,50.5660377 L156.706585,76.4622642 L141.78439,92.1226415 Z M116.553171,91.3679245 L141.454878,91.3679245 L155.576829,76.3207547 L155.576829,51.0377358 L140.654634,33.8207547 L53.0985366,33.8207547 L53.0985366,91.3679245 L81.6719512,91.3679245 L81.6719512,78.9150943 L66.3260976,78.9150943 L66.3260976,48.5849057 L133.687805,48.5849057 L133.687805,78.6792453 L116.553171,78.6792453 L116.553171,91.3679245 Z" id="Shape" fill="#004990"></path>
                <path d="M131.804878,244.481132 L66.3731707,244.481132 L66.3731707,217.311321 L82.0485366,217.311321 L82.0485366,122.641509 L53.8046341,122.641509 L53.8046341,186.603774 L65.337561,186.603774 L65.337561,214.90566 L3.71878049,214.90566 L3.71878049,186.084906 L21.0887805,186.084906 L21.0887805,34.4811321 L3.43634146,34.4811321 L3.43634146,3.44339623 L154.917805,3.44339623 L154.917805,3.44339623 L186.598049,37.7358491 L186.598049,90.0943396 L186.598049,90.0943396 L149.64561,117.122642 L174.688537,186.792453 L189.14,186.792453 L189.14,215.518868 L152.705366,215.518868 L152.705366,215.235849 L118.200732,121.933962 L114.434878,121.933962 L114.434878,216.981132 L131.804878,216.981132 L131.804878,244.481132 Z M67.0792683,243.679245 L131.09878,243.679245 L131.09878,217.830189 L113.681707,217.830189 L113.681707,121.179245 L118.718537,121.179245 L118.718537,121.462264 L153.129024,214.716981 L188.292683,214.716981 L188.292683,187.59434 L174.170732,187.59434 L148.562927,116.839623 L148.798293,116.839623 L185.797805,89.6226415 L185.797805,38.254717 L154.588293,4.24528302 L4.23658537,4.24528302 L4.23658537,33.7264151 L21.8419512,33.7264151 L21.8419512,186.839623 L4.70731707,186.839623 L4.70731707,214.245283 L64.5843902,214.245283 L64.5843902,187.358491 L53.0985366,187.358491 L53.0985366,121.981132 L82.8017073,121.981132 L82.8017073,218.066038 L67.1263415,218.066038 L67.0792683,243.679245 Z" id="Shape" fill="#004990"></path>
                <polyline id="Shape" fill="#004990" points="24.9487805 183.349057 49.9917073 161.367925 49.9917073 118.867925 86.0497561 118.867925 86.0497561 126.556604 117.918293 95.4245283 112.551951 95.4245283 112.551951 74.5283019 129.921951 74.5283019 129.921951 52.3584906 70.0919512 52.3584906 70.0919512 74.9528302 85.4378049 74.9528302 85.4378049 95.4245283 49.0973171 95.4245283 49.0973171 29.9528302 142.349268 29.9528302 159.625122 49.5754717 159.625122 56.4622642 180.431463 37.2641509 153.223171 7.26415094 7.43756098 7.26415094 7.43756098 30.3301887 25.1841463 30.3301887 24.9487805 183.349057"></polyline>
                <polyline id="Shape" fill="#79BDE8" points="69.9036585 220.849057 85.7673171 220.849057 85.7673171 126.556604 118.247805 95 142.82 95 159.201463 77.5943396 159.389756 56.4622642 180.666829 36.8396226 182.45561 39.1509434 182.45561 87.8301887 144.60878 115.518868 171.722927 190.377358 184.997561 190.377358 184.997561 211.367925 155.106098 211.367925 120.55439 117.830189 110.339512 117.830189 110.339512 220.613208 127.709512 220.613208 127.709512 240.330189 69.9036585 240.330189 69.9036585 220.849057"></polyline>
                <polyline id="Shape" fill="#79BDE8" points="49.9917073 161.367925 25.4195122 182.877358 25.4195122 189.622642 18.2173171 189.622642 8.00243902 200.283019 8.00243902 210.896226 61.76 210.896226 61.76 190.141509 50.2270732 190.141509 49.9917073 161.367925"></polyline>
                <polyline id="Shape" fill="#79BDE8" points="24.9487805 183.349057 27.6319512 181.037736 27.6319512 191.650943 24.807561 191.650943 24.9487805 183.349057"></polyline>
                <path d="M143.243659,95.6132075 L112.316585,95.6132075 L112.316585,74.4339623 L129.45122,74.4339623 L129.45122,52.7830189 L70.6097561,52.7830189 L70.6097561,74.7169811 L85.9085366,74.7169811 L85.9085366,95.6132075 L48.8619512,95.6132075 L48.8619512,29.5754717 L142.537561,29.5754717 L142.537561,29.5754717 L160.04878,49.4339623 L160.04878,78.0188679 L160.04878,78.0188679 L143.243659,95.6132075 Z M112.97561,94.8113208 L142.867073,94.8113208 L159.15439,77.7358491 L159.15439,49.7641509 L142.208049,30.3773585 L49.6621951,30.3773585 L49.6621951,94.8113208 L85.1082927,94.8113208 L85.1082927,75.4716981 L69.762439,75.4716981 L69.762439,51.8867925 L130.20439,51.8867925 L130.20439,75.4716981 L112.97561,75.4716981 L112.97561,94.8113208 Z" id="Shape" fill="#004990"></path>
                <path d="M128.41561,240.990566 L69.8095122,240.990566 L69.8095122,220.754717 L85.5319512,220.754717 L85.5319512,119.292453 L50.4153659,119.292453 L50.4153659,190.04717 L61.9012195,190.04717 L61.9012195,211.556604 L7.20219512,211.556604 L7.20219512,189.528302 L24.525122,189.528302 L24.525122,31.0377358 L6.9197561,31.0377358 L6.9197561,6.93396226 L153.411463,6.93396226 L153.411463,6.93396226 L183.114634,39.2924528 L183.114634,88.3490566 L183.114634,88.3490566 L145.456098,115.849057 L172.287805,190.283019 L185.703659,190.283019 L185.703659,212.264151 L155.341463,212.264151 L155.341463,212.028302 L120.601463,118.490566 L111.186829,118.490566 L111.186829,220.518868 L128.603902,220.518868 L128.41561,240.990566 Z M70.6097561,240.235849 L127.615366,240.235849 L127.615366,221.367925 L110.245366,221.367925 L110.245366,117.924528 L121.119268,117.924528 L121.119268,118.160377 L155.529756,211.462264 L184.809268,211.462264 L184.809268,191.037736 L171.62878,191.037736 L144.326341,115.566038 L144.561707,115.566038 L182.220244,87.9716981 L182.220244,39.5754717 L153.081951,7.68867925 L7.67292683,7.68867925 L7.67292683,30.2358491 L25.3253659,30.2358491 L25.3253659,190.283019 L7.95536585,190.283019 L7.95536585,210.801887 L61.195122,210.801887 L61.195122,190.801887 L49.615122,190.801887 L49.615122,118.537736 L86.285122,118.537736 L86.285122,221.698113 L70.6097561,221.698113 L70.6097561,240.235849 Z" id="Shape" fill="#004990"></path>
                <polyline id="Shape" fill="#004990" points="7.67292683 190 17.7936585 190 7.53170732 201.273585 7.67292683 190"></polyline>
            </g>
        </g>
    </g>
</svg>