<?xml version="1.0" encoding="UTF-8" standalone="no"?>
<svg width="250px" height="250px" viewBox="0 0 250 250" version="1.1" xmlns="http://www.w3.org/2000/svg" xmlns:xlink="http://www.w3.org/1999/xlink">
    <!-- Generator: Sketch 47.1 (45422) - http://www.bohemiancoding.com/sketch -->
    <title>UMASS</title>
    <desc>Created with Sketch.</desc>
    <defs></defs>
    <g id="Page-1" stroke="none" stroke-width="1" fill="none" fill-rule="evenodd">
        <g id="UMASS" fill-rule="nonzero">
            <g id="UMass_Amherst_Athletics_logo" transform="translate(0.000000, 21.000000)">
                <g id="Group" transform="translate(124.722222, 104.445714) scale(-1, 1) rotate(-180.000000) translate(-124.722222, -104.445714) translate(0.714286, 1.683810)">
                    <g transform="translate(0.768849, 1.659048)" id="Shape">
                        <path d="M245.448909,130.099048 L222.108135,130.099048 L236.614583,201.44181 L59.0228175,201.44181 L47.6326885,147.429905 L19.6366567,147.429905 L12.1701389,111.485524 L16.9270833,111.485524 L12.8013393,92.2145714 L8.28373016,92.2046667 L0.388144841,56.3977143 L39.3415179,56.3977143 L38.7462798,53.6280952 L38.7388393,53.5872381 C35.7837302,39.5125714 38.7834821,25.6669524 46.9717262,15.6024762 C54.5138889,6.33038095 65.5543155,1.22447619 78.061756,1.22447619 L141.866319,1.22447619 C153.540427,1.22447619 165.453869,6.52971429 175.412946,16.1645714 C184.424603,24.8807619 191.005704,36.3393333 193.470982,47.6208571 L195.353423,56.4100952 L214.471726,56.4100952 C224.104663,56.4100952 233.028274,63.6801905 235.230655,73.3224762 L238.200645,87.3971429 C238.777282,90.2261905 238.769841,93.0750476 238.203125,95.7431429 L245.448909,130.099048 L245.448909,130.099048 Z" fill="#FFFFFF"></path>
                        <path d="M233.730159,98.1438095 L239.444444,125.242 L206.122272,125.242 C205.78745,125.242 205.450149,125.228381 205.111607,125.207333 L207.154018,134.744381 L218.080357,134.744381 L230.654762,196.584762 L62.9588294,196.584762 L51.5674603,142.572857 L23.5838294,142.572857 L18.1361607,116.342571 L22.9303075,116.342571 L16.7274306,87.3661905 L12.1850198,87.3562857 L6.42857143,61.2547619 L41.71875,61.2547619 L46.7125496,84.4801905 C47.5396825,82.6044762 48.3568948,80.7609524 49.1579861,78.9607619 L43.5032242,52.6586667 L43.4883433,52.5918095 C40.8358135,39.9545714 43.4771825,27.5884762 50.7353671,18.6642857 C57.3363095,10.5510476 67.0362103,6.08152381 78.0493552,6.08152381 L141.855159,6.08152381 C164.314236,6.08152381 184.210069,28.0861905 188.701637,48.6373333 L191.40749,61.2671429 L214.460565,61.2671429 C221.758433,61.2671429 228.793403,67.0379048 230.47619,74.4020952 L233.421379,88.3653333 C234.135665,91.8765714 233.696677,95.3197143 232.218502,98.1438095 L233.726438,98.1438095 L233.730159,98.1438095 Z" fill="#27251F"></path>
                        <path d="M74.5372024,20.3349714 L67.5036706,53.6902476 L78.8092262,53.6902476 L75.4435516,69.3447238 L82.6010913,60.1054629 L115.073313,60.1054629 L109.630556,86.3144533 L105.086806,86.3337973 L98.9890873,115.301264 L100.010218,115.301264 L114.825694,77.4363497 L119.497321,77.4363497 L131.562798,20.3353973 L74.537004,20.3353973 L74.5372024,20.3349714 Z M156.683036,20.3349714 L144.619544,77.4359238 L148.620734,77.4359238 L148.366905,93.6143619 L149.068323,90.2695238 C150.850268,81.9247619 159.285585,77.4359238 166.3213,77.4359238 L190.533601,77.4359238 L195.619911,53.6892571 L206.42249,53.6892571 L213.206121,20.333981 L156.683304,20.333981 L156.683036,20.3349714 Z M67.3110119,121.977638 L62.9107143,127.630286 L57.4563492,153.007276 C54.1912698,168.557752 62.4798611,182.352114 78.0555556,182.352114 L141.861111,182.352114 C157.4375,182.352114 171.753968,164.796914 174.769841,151.003543 L176.8625,141.232297 C176.135813,141.346202 175.400496,141.408334 174.661409,141.408334 L131.101885,141.408334 L129.551786,148.743999 L104.432738,148.743999 L105.982837,141.408334 L98.0347222,141.408334 L98.0327381,141.421904 L63.1686508,141.421904 L67.3113095,121.977866 L67.3110119,121.977638 Z" fill="#971B2F" transform="translate(134.978950, 101.343048) scale(-1, 1) rotate(-180.000000) translate(-134.978950, -101.343048) "></path>
                        <path d="M131.55506,20.3343474 L105.33879,36.823795 L100.324206,60.1039474 L115.07123,60.1039474 L109.626488,86.3129379 L105.082738,86.3322819 L98.9850198,115.299749 L100.006151,115.299749 L114.821627,77.4348343 L119.493254,77.4348343 L131.554762,20.3338819 L131.55506,20.3343474 Z M213.196925,20.3343474 L176.025298,36.823795 L167.296329,77.4352998 L190.524504,77.4352998 L195.612698,53.6886331 L206.415278,53.6886331 L213.196925,20.333357 L213.196925,20.3343474 Z M176.857639,141.231871 C176.130952,141.345776 175.396329,141.407909 174.658433,141.407909 L153.546329,141.407909 L151.746329,149.780503 C150.238393,156.677981 143.079762,165.455779 135.291964,165.455779 L91.0816468,165.455779 C86.9472222,165.455779 83.8539683,163.500579 82.0930556,160.513105 L59.8321429,172.102667 C63.3118056,178.293143 69.6072421,182.352114 78.0494048,182.352114 L141.856944,182.352114 C157.432341,182.352114 171.74881,164.796914 174.76369,151.003543 L176.858234,141.232297 L176.857639,141.231871 Z M105.979663,141.407909 L82.8040675,141.421478 L80.787004,150.782667 C80.0193948,154.428808 80.5398413,157.871802 82.0949405,160.511421 L104.697123,148.743573 L104.429732,148.743573 L105.979831,141.407909 L105.979663,141.407909 Z" fill="#572932" transform="translate(136.514534, 101.342736) scale(-1, 1) rotate(-180.000000) translate(-136.514534, -101.342736) "></path>
                        <path d="M235.825893,122.311429 L206.124752,122.311429 C202.270585,122.311429 197.989831,120.666 195.058284,117.73419 L196.024306,122.311429 L166.320685,122.311429 C160.355903,122.311429 153.348214,118.387905 151.943204,111.811143 L149.356399,99.4648571 C148.526786,95.6738095 149.262153,91.9979048 151.374008,89.3780952 C152.686012,87.7487619 154.451885,86.6493333 156.483135,86.1627619 L147.49628,86.1627619 L146.418651,81.068 L144.988839,81.068 L145.636161,122.311429 L116.831597,122.311429 L100.63244,80.9070476 L99.3241567,80.9070476 L100.099206,84.4467619 L95.3720238,84.4467619 L102.700893,119.269429 L107.238343,119.289238 L111.465774,139.642286 L84.0426587,139.642286 L63.2750496,112.831333 L53.3258929,139.642286 L25.9809028,139.642286 L21.7509921,119.278095 L26.5687004,119.278095 L19.1108631,84.4405714 L14.5535714,84.4306667 L10.0892857,64.1902857 L39.3501984,64.1902857 L45.7614087,93.9986667 C48.5639881,87.5320952 55.9722222,70.9094286 55.9722222,70.9094286 L72.8484623,92.5971429 L66.7993552,64.1902857 L115.985863,64.2039048 L120.440228,76.9822857 L124.254712,76.9822857 L122.958829,64.2039048 L142.854663,64.2039048 L145.678323,64.2039048 L174.662698,64.2039048 C177.81374,64.2039048 180.961062,65.6079048 183.422619,67.8290476 L182.65625,64.2039048 L214.466766,64.2039048 C220.350942,64.2039048 226.25,69.0720952 227.627728,75.1053333 L230.549355,88.9534286 C231.276042,92.520381 230.555556,95.9560952 228.573909,98.3778095 C227.544643,99.6344762 226.223958,100.550667 224.712302,101.079333 L231.349206,101.079333 L235.825893,122.311429 L235.825893,122.311429 Z" fill="#971B2F"></path>
                        <path d="M68.7514881,13.2129524 L58.7147817,60.8102857 L69.983631,60.8102857 L65.3449405,82.3818667 L75.4421627,69.3432381 L78.8078373,53.6887619 L67.5032738,53.6887619 L74.5387897,20.3334857 L131.562599,20.3334857 L119.497123,77.4344381 L126.788393,77.4344381 L140.357837,13.2119619 L68.7506944,13.2119619 L68.7514881,13.2129524 Z M150.899306,13.2129524 L137.329861,77.4354286 L144.619147,77.4354286 L156.682639,20.3344762 L213.205456,20.3344762 L206.41994,53.6897524 L195.621329,53.6897524 L190.533135,77.436419 L197.826389,77.436419 L201.389683,60.8112762 L212.251786,60.8112762 L221.930258,13.2139429 L150.898512,13.2139429 L150.899306,13.2129524 Z M28.3695437,65.9716571 L25.3584325,80.4692571 L30.1986111,80.4692571 L21.4871032,121.165943 L16.9124008,121.177531 L13.7424603,135.557265 L36.9746032,135.557265 L44.8277778,99.0473219 C48.5914683,107.959131 52.6775794,117.195817 56.6571429,126.107131 L78.3853175,98.1875886 L70.4255952,135.557265 L93.3015873,135.557265 L96.4483135,121.166636 L91.7514881,121.166636 L100.313889,80.48976 L104.844048,80.470416 L107.855159,65.972816 L85.4831349,65.972816 L62.3571429,95.8247779 L51.2797619,65.972816 L28.3690476,65.972816 L28.3695437,65.9716571 Z M118.834821,83.2990476 L102.636409,124.705905 L98.6681548,124.705905 L96.3992063,135.542705 L113.89623,135.542705 L118.350794,122.763581 L127.504167,122.763581 L126.207937,135.542705 L143.298214,135.542705 L145.646627,124.544457 L142.003869,124.544457 L142.651032,83.2980571 L118.835556,83.2980571 L118.834821,83.2990476 Z M166.317956,83.3010286 C161.37629,83.3010286 155.869544,86.5360229 154.815972,91.4685943 L152.223413,103.841623 C151.08998,109.016861 153.681548,113.870194 158.946925,113.870194 L173.12252,113.870194 L170.772222,124.544556 L162.752381,124.544556 L163.887798,119.450933 L149.874901,119.450933 L146.472421,135.54221 L174.660913,135.54221 C179.197123,135.54221 183.89494,131.579116 184.947619,126.96845 L187.86369,113.140411 C188.834673,108.368792 186.485913,104.003665 181.707837,104.003665 L166.885417,104.003665 L168.989683,94.0563124 L177.333135,94.0563124 L176.362381,98.6643048 L189.16,98.6643048 L192.399683,83.3000381 L166.317341,83.3000381 L166.317956,83.3010286 Z M206.155258,83.3010286 C201.214782,83.3010286 195.707837,86.5360229 194.653274,91.4685943 L192.062698,103.841623 C190.929266,109.016861 193.520139,113.870194 198.784325,113.870194 L212.959921,113.870194 L210.611508,124.544556 L202.591667,124.544556 L203.725198,119.450933 L189.712302,119.450933 L186.309821,135.54221 L214.496329,135.54221 C219.033829,135.54221 223.733532,131.579116 224.78502,126.96845 L227.703075,113.140411 C228.672827,108.368792 226.324603,104.003665 221.545337,104.003665 L206.722917,104.003665 L208.829067,94.0563124 L217.17252,94.0563124 L216.199831,98.6643048 L228.99745,98.6643048 L232.237133,83.3000381 L206.154792,83.3000381 L206.155258,83.3010286 Z M128.794147,92.3579429 L129.280486,92.3579429 L128.228403,113.464 L121.343978,113.464 L128.794375,92.3569524 L128.794147,92.3579429 Z M62.9072421,127.62979 L55.2768849,137.432038 L54.0794643,134.750819 L50.4696429,151.546324 C48.2598214,162.074095 50.3737698,172.270057 56.2728175,179.521333 C61.4935516,185.937143 69.2261905,189.472648 78.0496032,189.472648 L141.855159,189.472648 C160.59623,189.472648 177.911706,169.998895 181.737103,152.492229 L184.112599,141.40781 L179.02629,141.40781 L179.18131,140.676561 C178.419891,140.922942 177.642321,141.107963 176.856111,141.231772 L174.763452,151.003018 C171.747579,164.796389 157.431111,182.351589 141.854722,182.351589 L78.0491667,182.351589 C62.4737698,182.351589 54.1850794,168.557227 57.4499603,153.006751 L62.9063095,127.629761 L62.9072421,127.62979 Z M105.974702,141.407314 L104.424603,148.742979 L129.545635,148.742979 L131.095734,141.407314 L105.974702,141.407314 Z" fill="#FFFFFF" transform="translate(122.989797, 101.342305) scale(-1, 1) rotate(-180.000000) translate(-122.989797, -101.342305) "></path>
                        <path d="M51.2822421,67.1294248 L44.0124008,74.4500343 L41.012996,74.4500343 L29.1608135,129.587863 L22.1407738,129.587863 L13.7450397,136.714636 L36.9771825,136.714636 L44.8303571,100.204693 L44.0475595,74.657341 L59.3610516,112.662903 L56.6599603,127.266484 L78.3881349,99.346941 L92.545873,74.6563505 L81.0419048,129.19395 L70.4278175,136.713448 L93.2611508,136.713448 L96.4097619,122.322819 L91.7536111,122.322819 L100.408968,81.638019 L104.842302,81.6283124 L107.855298,67.1287314 L99.4072817,74.4432 L88.9152183,74.4432 L59.6166071,112.187276 L62.3586706,96.9834667 L51.2812897,67.1295238 L51.2822421,67.1294248 Z M192.403274,84.4488914 L184.505556,89.7243657 L167.699008,89.7243657 C165.227579,89.7243657 162.472024,91.3418133 161.94623,93.808099 L160.987103,98.3851886 C160.987103,98.3851886 160.024335,103.049836 159.611409,104.966408 C159.198462,106.88179 159.756339,107.99776 160.07256,108.506568 L153.122262,111.841699 C154.278016,113.760747 156.267698,115.020137 158.948651,115.020137 L173.124246,115.020137 L179.938829,111.733341 C180.278611,112.435341 180.520813,113.453897 180.181042,114.958232 L177.780248,126.110994 C177.155248,128.99328 175.597708,131.152518 171.976677,131.152518 L154.538185,131.152518 L146.477669,136.693044 L174.668145,136.693044 C179.203065,136.693044 183.902173,132.730545 184.954851,128.121166 L187.870923,114.291147 C188.329752,112.03405 188.047788,109.8656 187.115248,108.209029 L179.918919,111.706598 C179.383204,110.518027 178.290843,110.033189 176.760585,110.033189 C176.760585,110.033189 165.297292,110.00803 163.329038,110.00803 C161.362272,110.00803 160.828442,109.500649 160.075764,108.481707 L166.890347,105.152419 L168.996498,95.2030857 L177.33995,95.2030857 L176.367262,99.814941 L189.166865,99.814941 L192.406548,84.4467124 L192.403274,84.4488914 Z M232.240575,84.4488914 L224.342857,89.7243657 L207.53631,89.7243657 C205.066071,89.7243657 202.310516,91.3418133 201.783532,93.808099 L200.826339,98.3851886 C200.826339,98.3851886 199.861637,103.049836 199.448661,104.966408 C199.034474,106.88179 199.593591,107.99776 199.909812,108.506568 L192.961498,111.841699 C194.117252,113.760747 196.103661,115.020137 198.786002,115.020137 L212.961597,115.020137 L219.776181,111.733341 C220.117202,112.435341 220.360109,113.453897 220.020327,114.958232 L217.615764,126.110994 C216.983323,128.995756 215.430446,131.154301 211.810605,131.154301 L194.372113,131.154301 L186.311597,136.694827 L214.502073,136.694827 C219.038284,136.694827 223.736101,132.732328 224.78878,128.122949 L227.704851,114.29293 C228.163681,112.035832 227.882421,109.867383 226.951121,108.210811 L219.752808,111.708381 C219.217093,110.51981 218.126716,110.034971 216.596458,110.034971 C216.596458,110.034971 205.131181,110.009813 203.162927,110.009813 C201.19745,110.009813 200.662331,109.502432 199.909653,108.48349 L206.72622,105.154202 L208.830486,95.2048686 L217.173938,95.2048686 L216.203185,99.8167238 L229.000804,99.8167238 L232.240486,84.4484952 L232.240575,84.4488914 Z M142.645337,84.4585981 L136.063194,89.8481752 L123.381647,89.8481752 L108.057242,131.257013 L102.848909,131.257013 L96.3927579,136.702651 L113.889782,136.702651 L118.346329,123.925509 L127.499702,123.925509 L134.831647,119.427756 L134.252302,131.331299 L126.203393,136.703444 L143.295655,136.703444 L145.644067,125.705196 L141.999425,125.705196 L142.646597,84.4587962 L142.645337,84.4585981 Z M135.987698,90.0338895 L134.780556,119.272747 L112.6625,119.272747 L121.343056,114.624046 L128.793452,93.5169981 L129.277857,93.5169981 L135.985893,90.03488 L135.987698,90.0338895 Z" fill="#B1B3B3" transform="translate(122.992808, 101.921684) scale(-1, 1) rotate(-180.000000) translate(-122.992808, -101.921684) "></path>
                    </g>
                </g>
            </g>
        </g>
    </g>
</svg>