<?xml version="1.0" encoding="UTF-8" standalone="no"?>
<svg width="250px" height="250px" viewBox="0 0 250 250" version="1.1" xmlns="http://www.w3.org/2000/svg" xmlns:xlink="http://www.w3.org/1999/xlink">
    <!-- Generator: Sketch 47.1 (45422) - http://www.bohemiancoding.com/sketch -->
    <title>LSALLE</title>
    <desc>Created with Sketch.</desc>
    <defs></defs>
    <g id="Page-1" stroke="none" stroke-width="1" fill="none" fill-rule="evenodd">
        <g id="LSALLE" fill-rule="nonzero">
            <g id="Group" transform="translate(0.000000, 35.000000)">
                <path d="M249.285954,161.004915 L248.515905,151.414622 C248.305892,148.299527 248.200885,145.079428 248.200885,141.929332 C248.200885,138.779236 248.200885,134.614109 248.620912,131.079001 L248.620912,131.079001 C248.620912,131.079001 248.620912,127.858903 248.620912,127.578894 L243.545587,126.003846 L238.925291,124.4988 L238.925291,121.803718 L246.695789,124.253793 C246.695789,123.51877 246.275762,114.103483 246.275762,114.103483 L245.505712,98.0029915 L240.710405,96.5329466 C233.989975,94.4678835 226.709509,92.4728226 218.623992,90.4777618 L217.643929,90.2327543 L214.493728,89.3927286 L211.86856,88.7977105 C220.724126,80.5724594 225.449429,71.2971763 225.449429,61.2868707 C225.350889,55.3219656 223.645957,49.4939546 220.514113,44.4163558 C224.410272,41.0577079 226.67882,36.1894134 226.744512,31.0459476 L226.744512,30.4159284 C226.744512,19.2155865 216.698869,8.19025 203.74804,5.04015385 C201.151586,2.75300698 198.002252,1.18442598 194.612455,0.490014957 L194.612455,0.490014957 C182.709361,-1.04449976 170.626229,1.23479765 160.100246,7.00021368 C159.317218,7.47158686 158.568623,7.99792455 157.860103,8.57526175 L156.460013,9.59029274 C146.14843,7.81575757 135.701061,6.94907667 125.238015,7.00021368 C89.6057348,7.00021368 56.5636201,17.5005342 38.7124776,33.9510363 L17.2911066,31.8859733 L15.9960237,36.9611282 L15.3309812,39.3762019 C14.2683345,42.5656868 13.6557281,45.8877874 13.5108647,49.2465032 C13.6495599,52.5429317 14.2383849,55.8049135 15.2609767,58.9417991 L15.9610215,61.426875 L17.2561044,66.5020299 L25.4116263,65.7320064 C26.922755,74.3437654 31.2870812,82.1968241 37.8024194,88.027687 L35.2122536,88.7627094 L29.9619176,90.3027564 L29.9619176,90.3027564 C28.5494391,90.8419474 27.09864,91.2748326 25.6216398,91.5977959 C21.8764001,92.647828 18.0261537,93.8728654 14.6309364,95.0979028 L13.2308468,95.4829145 L0.280017921,99.0180224 C0.280017921,99.4030342 0.280017921,104.408187 0.280017921,104.408187 L0.280017921,116.62356 L5.81037186,114.6635 L5.81037186,135.104124 L5.56535618,135.104124 L5.56535618,135.104124 L0.350022401,136.644171 L0.350022401,158.90485 L3.85024642,157.854818 L3.85024642,162.439958 L0,163.699997 L0,180.430507 L9.34559812,177.385415 C16.3460461,175.075344 23.6965166,172.97528 30.9419803,171.085222 L31.7820341,170.875216 L31.7820341,170.875216 L32.6220878,170.630208 L42.3877128,168.285137 L45.0828853,167.690119 L47.7780578,167.130101 C52.3633513,166.150072 56.983647,165.275045 61.5689404,164.505021 L62.1639785,164.505021 L62.1639785,164.505021 L62.9340278,164.505021 C67.34431,163.769999 71.859599,163.104979 76.3398858,162.50996 L80.9601815,161.914942 L86.4905354,161.004915 C93.1759633,160.304893 99.9663978,159.779877 106.651826,159.464868 L111.132112,159.254861 L112.252184,156.524778 L112.532202,156.524778 C116.15384,158.543537 120.253308,159.547207 124.397961,159.429866 C127.470308,159.462952 130.525323,158.965641 133.428539,157.959822 L133.813564,157.959822 L133.813564,159.044855 L140.814012,159.324863 C145.364303,159.499869 150.019601,159.814878 154.814908,160.164889 L161.570341,160.689905 L163.320453,161.144919 L163.530466,161.144919 C167.870744,161.529931 172.176019,161.984944 176.341286,162.50996 L177.636369,162.50996 L178.301411,162.50996 C190.092223,164.002951 201.781242,166.212102 213.303651,169.125162 L213.303651,169.125162 L213.688676,169.125162 L213.933692,169.125162 C218.518985,170.315199 222.96427,171.645239 227.094534,173.010281 L229.089662,173.570298 C230.224557,174.073998 231.394339,174.495106 232.589886,174.830337 C236.664121,176.418493 241.240809,176.057527 245.015681,173.850307 C248.012684,171.573695 249.721482,167.986643 249.600974,164.225013 C249.616806,163.046929 249.487491,161.87138 249.21595,160.724906" id="Shape" fill="#FFCF00"></path>
                <path d="M102.486559,111.023389 C105.986783,110.813382 109.872032,110.673378 113.582269,110.568375 C111.762153,105.983235 110.082045,101.433096 108.191924,96.8829573 C106.301803,101.608101 104.37668,106.298245 102.486559,110.883385" id="Shape" fill="#003768"></path>
                <path d="M241.515457,144.239403 C233.42994,141.544321 225.239415,139.059245 217.013889,136.924179 C213.513665,136.154156 210.293459,135.454135 206.863239,134.754113 L206.863239,132.584047 C212.603607,134.089093 212.4986,131.254006 212.4986,126.318856 L212.4986,105.948234 C212.4986,101.013083 212.4986,98.1779968 206.863239,97.0579626 L206.863239,94.8878964 C210.363463,95.6929209 213.618672,96.6379498 217.013889,97.5479776 C224.294355,99.298031 231.574821,101.258091 238.785282,103.463158 C238.785282,106.963265 239.0653,110.638377 239.240311,114.208486 L236.72015,113.438463 C236.152036,107.99941 232.057055,103.590676 226.674507,102.623132 C225.93946,102.413126 222.159218,101.398095 221.774194,101.958112 C221.616275,103.117701 221.557725,104.288662 221.599182,105.458219 L221.599182,116.588559 C226.429491,117.883598 229.509689,117.883598 229.754704,112.353429 L232.099854,113.053451 C232.099854,115.783534 231.924843,118.513618 231.854839,121.278702 C231.784834,124.043786 231.854839,126.318856 232.099854,128.838933 L229.754704,128.138911 C228.59963,122.258732 227.094534,120.823688 221.599182,119.388644 L221.599182,126.388858 C221.599182,132.059031 221.599182,135.559138 228.424619,137.554199 C235.250056,139.54926 237.700213,138.289221 239.170307,131.919027 L241.515457,132.68905 C241.515457,134.96412 241.515457,137.134186 241.305444,139.409255 C241.305444,141.054306 241.305444,142.664355 241.515457,144.309405 L241.515457,144.239403 Z M199.512769,87.7826795 C196.677587,87.1176592 193.422379,86.3826368 189.887153,85.6826154 C204.448085,78.4023932 213.373656,68.4270887 213.373656,56.841735 C213.345466,53.582813 212.642309,50.3650814 211.308524,47.3914466 C212.021215,47.2118886 212.722515,46.9898177 213.408658,46.7264263 C215.410077,50.6862654 216.441817,55.0650146 216.418851,59.5018162 C216.418851,70.0021368 210.013441,79.8024359 199.512769,87.7826795 Z M205.078125,134.404103 C194.227431,131.954028 183.236727,130.098971 179.596494,129.503953 C175.956261,128.908935 172.596046,128.733929 169.305836,128.383919 L169.305836,126.213853 C175.116207,127.12388 175.011201,124.288794 175.011201,119.213639 L175.011201,98.9830214 C175.011201,94.0478707 175.011201,91.2127842 169.305836,90.6877682 L169.305836,88.5177019 C172.526042,88.9377147 175.676243,89.4977318 178.861447,90.0227479 C182.046651,90.5477639 186.316924,90.9677767 189.992159,91.5627949 L189.992159,93.7328611 C184.181788,92.5428248 184.251792,95.4129124 184.251792,100.348063 L184.251792,117.848597 C184.251792,123.938783 184.251792,127.613895 191.497256,128.908935 C198.322693,130.133972 201.227879,128.908935 202.907986,122.398736 L205.498152,122.958753 L205.078125,134.404103 Z M167.66073,128.173912 C156.670027,126.843872 145.574317,126.073848 141.934084,125.863842 C138.853887,125.863842 135.808692,125.863842 132.728495,125.863842 L131.573421,125.863842 C128.28321,125.863842 125.028002,125.618834 121.737791,125.583833 C118.447581,125.548832 115.507392,125.723838 112.007168,126.003846 L112.007168,123.83378 C113.862287,123.51877 117.082493,123.588772 117.082493,120.998693 C116.886438,119.632334 116.497539,118.300695 115.927419,117.043573 C115.507392,115.923538 115.087366,114.768503 114.632336,113.543466 C110.15205,113.543466 105.671763,113.858475 101.191476,114.103483 L100.456429,115.923538 C99.70129,117.551516 99.2052717,119.287522 98.9863351,121.068696 C98.9863351,124.008785 101.786514,124.008785 104.026658,124.078787 L104.026658,126.248854 C101.471494,126.248854 98.9163306,126.248854 96.3611671,126.493861 L89.3607191,127.298886 L89.3607191,125.128819 C94.3660394,124.638804 96.1161514,118.723624 97.6912522,114.873506 C101.471494,105.668225 105.216734,96.4979455 108.996976,87.3976677 C110.818103,87.9421057 112.596412,88.6206484 114.317316,89.4277297 C117.957549,98.3180011 121.597782,107.254941 125.238015,116.238548 C125.992927,118.336138 127.04179,120.315947 128.353215,122.118728 C129.366145,122.909224 130.577105,123.405701 131.853439,123.553771 L132.34347,123.553771 C137.03377,123.553771 136.928763,120.718685 136.928763,116.098544 L136.928763,95.7979241 C136.928763,90.8627735 136.928763,88.027687 131.223398,88.062688 L131.223398,85.8926218 C134.443604,85.8926218 137.593806,86.2426325 140.849014,86.4526389 C144.104223,86.6626453 148.339494,86.6626453 152.049731,86.8726517 L152.049731,89.0427179 C146.204357,88.4476998 146.274362,91.3177874 146.274362,96.252938 L146.274362,113.753472 C146.274362,119.878659 146.274362,123.553771 153.58983,124.253793 C160.590278,124.81381 163.425459,123.238762 165.140569,116.62356 L167.730735,116.903568 L167.66073,128.173912 Z M77.7749776,129.048939 C74.0711458,129.712694 70.2590604,128.785118 67.2743056,126.493861 L66.4342518,129.993968 L63.7740815,130.448982 L63.7740815,117.848597 L66.1892361,117.463585 C67.9043459,122.678745 70.6695228,127.228884 77.389953,126.353857 C81.1392106,126.085054 84.1215895,123.102775 84.390401,119.353643 C84.390401,113.753472 78.5450269,112.913447 74.3097558,111.72341 C68.8494064,110.148362 64.4741263,107.873293 64.4741263,101.22309 C64.6684689,94.2764108 70.0758934,88.5972947 77.0049283,88.062688 C80.1645034,87.4270568 83.4468529,88.0961287 86.1055108,89.9177447 C86.3855287,89.1127201 86.6305444,88.3076955 86.9105623,87.4676699 L89.5357303,87.2226624 C89.5357303,90.7227692 89.780746,94.4328825 89.8857527,98.0379925 L87.2605847,98.283 C86.5557677,93.5474736 82.2145738,90.2296722 77.4599574,90.7927714 C74.3027225,90.9679795 71.7457396,93.4208171 71.4395721,96.5679476 C71.4395721,101.083085 76.0598678,101.678104 79.4900874,102.798138 C86.000504,104.758198 92.1258961,107.033267 92.1258961,115.083513 C92.1258961,123.133759 85.2304547,128.068909 77.7749776,129.048939 Z M55.7235663,120.718685 L48.7231183,122.258732 L48.7231183,120.648683 C50.0532034,120.193669 52.3983535,119.843658 52.3983535,117.918599 C52.2440019,116.974557 51.9613696,116.056032 51.5582997,115.188516 L50.6132392,112.843444 C47.3580309,113.473464 44.1028226,114.173485 40.8826165,114.908507 L40.3575829,116.30855 C39.815732,117.56838 39.4619313,118.900985 39.3075157,120.263671 C39.3075157,122.433737 41.3026434,122.118728 42.8077397,121.87372 C42.8077397,121.87372 42.4927195,130.938997 42.3527106,134.64911 C31.7120296,136.959181 21.0013441,140.004274 17.5011201,140.8793 C14.0008961,141.754327 10.8156922,143.084368 7.49047939,144.379407 L7.49047939,142.209341 C13.1258401,140.564291 13.0208333,137.834207 13.0208333,132.864056 L13.0208333,112.353429 C13.0208333,107.45328 13.0208333,104.548191 7.49047939,106.508251 L7.49047939,104.373186 C10.6056788,103.393156 13.6508737,102.588131 16.8010753,101.713105 C19.9512769,100.838078 24.0815412,99.4380353 27.686772,98.3880032 L27.686772,100.558069 C21.9814068,101.923111 22.0514113,104.758198 22.0514113,109.693348 L22.0514113,127.193882 C22.0514113,133.284068 22.0514113,136.994182 29.0518593,135.104124 C34.8851209,134.365491 39.4941824,129.799658 40.2875784,123.973784 L37.452397,124.533801 L32.4820789,126.003846 L32.4820789,124.393797 C35.9823029,123.448768 37.3473902,118.93363 38.4674619,115.888537 C41.3609804,108.188302 44.2778338,100.523068 47.218022,92.8928355 L49.3181564,92.4728226 C52.3750187,99.4730363 55.4202136,106.47325 58.453741,113.473464 C58.9745426,114.88625 59.7320801,116.20006 60.6938844,117.358582 C61.2937791,117.727443 61.9847869,117.921404 62.6890121,117.918599 L62.6890121,119.668653 C60.343862,120.018663 58.0337142,120.333673 55.7235663,120.718685 L55.7235663,120.718685 Z M35.0022401,63.0019231 L40.2175739,62.4769071 C42.3848518,69.4410397 46.852223,75.4631505 52.8883849,79.5574284 C54.0180684,81.6591456 55.4976756,83.5529794 57.2636649,85.1575994 L55.1285282,85.6126132 L50.4732303,86.7676485 C41.5826613,79.872438 36.0523073,71.7521902 35.0022401,63.0019231 Z M125.518033,10.9903355 C133.105067,10.9776006 140.683812,11.4921895 148.199485,12.5303825 C146.104527,12.8848895 144.034983,13.3759513 142.004088,14.0004274 C136.893761,13.5454135 131.503416,13.300406 126.288082,13.300406 C91.0058244,13.300406 60.6588822,23.8007265 47.0430108,39.0611923 L44.6278562,39.0611923 C44.4697246,38.7591563 44.3407979,38.4427104 44.2428315,38.1161635 C59.1537858,21.9106688 89.9557572,10.9903355 125.518033,10.9903355 Z M247.465838,161.004915 L247.115815,157.049794 C247.115815,155.29974 246.765793,153.549687 246.660786,151.69463 L246.660786,151.69463 L246.660786,151.69463 C246.450773,148.567868 246.345766,145.34777 246.345766,142.034335 C246.345766,138.25422 246.345766,134.579108 246.765793,131.044 C246.765793,129.74896 246.765793,128.838933 246.765793,128.838933 L242.950549,127.648896 L237.105175,125.79384 C237.105175,125.443829 237.105175,121.488708 237.105175,121.278702 C237.105175,121.068696 237.105175,120.263671 237.105175,119.283641 L244.735663,121.663714 L244.420643,114.103483 L243.7556,99.6130406 L240.255376,98.4930064 C233.569948,96.4279434 226.25448,94.4678835 218.308972,92.5078237 L217.258905,92.2278152 C214.318716,91.4227906 211.273522,90.617766 208.228327,89.8827436 C218.028954,81.6924936 223.699317,71.9621966 223.699317,61.5318782 C223.633859,55.2787663 221.708678,49.1866273 218.168963,44.031344 C222.447191,41.073504 225.049913,36.2456156 225.169411,31.0459476 L225.169411,30.4159284 C225.169411,19.9156079 215.47379,9.41528739 203.082997,6.72020513 C200.641566,4.41322692 197.572936,2.87896333 194.262433,2.31007051 C182.780714,0.899006283 171.146211,3.14010399 161.010305,8.71526603 L161.010305,8.71526603 C159.400202,9.66029487 158.490143,10.3603162 156.635025,11.6203547 C146.236779,9.77276322 135.694086,8.85909373 125.133009,8.89027137 C88.2406474,8.89027137 56.1085909,19.7406026 39.2725134,35.8060929 L18.6911962,33.8460331 L17.7461358,37.34614 C16.4632737,41.1767906 15.6522388,45.1495531 15.3309812,49.1765011 C15.6356405,53.1715382 16.4472039,57.1116054 17.7461358,60.901859 L18.656194,64.4019658 L27.0217294,63.5969412 C28.3082305,73.5731889 33.4932115,82.6340173 41.4426523,88.7977105 L41.4426523,88.7977105 C37.9424283,89.7427393 30.4869512,91.9128056 30.4869512,91.9128056 L26.1466734,93.1378429 C22.6464494,94.187875 18.7612007,95.3429103 15.1909722,96.6379498 L13.7558804,97.0229615 L2.10013441,100.313062 L2.10013441,114.033481 L7.59548611,112.003419 L7.59548611,133.249067 C7.68522567,134.262115 7.68522567,135.281113 7.59548611,136.29416 C7.10738899,136.552554 6.59042826,136.752282 6.05538754,136.889178 L2.24014337,138.009213 L2.24014337,151.624628 L2.24014337,151.624628 L2.24014337,156.419775 L5.74036738,155.369743 L5.74036738,163.699997 L5.74036738,163.699997 L2.24014337,164.890033 L2.24014337,177.805427 L9.2405914,175.565359 C16.2410394,173.220287 23.6615143,171.120223 30.906978,169.230166 L31.5020161,169.090161 L32.3770721,168.880155 C35.5972782,168.07513 38.8874888,167.270106 42.1776994,166.535083 L44.8378696,165.905064 L47.5680444,165.345047 C52.1533378,164.365017 56.8086358,163.48999 61.5689404,162.684966 L62.1639785,162.684966 L62.8990255,162.684966 C67.34431,161.949943 71.8946013,161.249922 76.374888,160.654904 L80.9951837,160.059886 L86.6305444,159.464868 C93.3159722,158.764846 100.141409,158.274831 106.861839,157.924821 L110.362063,157.924821 L111.41213,154.004701 C115.153411,156.78445 119.742288,158.182094 124.397961,157.959822 C128.308013,158.079219 132.181337,157.174267 135.633681,155.334741 L135.633681,157.504808 L140.709005,157.504808 C145.329301,157.714814 150.019601,157.994823 154.709901,158.344833 L160.450269,158.799847 L160.450269,158.449837 C161.411985,158.843793 162.407914,159.14842 163.425459,159.359864 C167.835741,159.744876 176.341286,160.724906 176.341286,160.724906 L178.301411,161.004915 C190.278668,162.592546 202.144432,164.93055 213.828685,168.005128 L213.828685,168.005128 L214.038698,168.005128 C218.728999,169.230166 223.174283,170.560206 227.374552,171.960249 L229.36968,172.520266 C230.424366,173.014903 231.512036,173.435923 232.624888,173.780304 C236.401278,175.194307 240.625243,174.726437 244.000616,172.520266 C246.529139,170.570308 247.962588,167.521075 247.850862,164.330016 L247.850862,164.330016 C247.862321,163.209897 247.732966,162.092777 247.465838,161.004915 L247.465838,161.004915 Z M41.7926747,112.493434 L49.8081877,110.778381 L45.9229391,101.503098 C44.5578517,105.003205 43.1577621,108.783321 41.7926747,112.493434 Z M102.486559,111.023389 C105.986783,110.813382 109.872032,110.673378 113.582269,110.568375 C111.762153,105.983235 110.082045,101.433096 108.191924,96.8829573 C106.301803,101.503098 104.37668,106.298245 102.486559,111.023389 Z" id="Shape" fill="#003768"></path>
                <path d="M21.421371,51.1015598 C21.5753854,51.8857882 22.2060299,52.4883838 22.9964718,52.6066058 C26.8778232,52.6556081 30.7585638,52.4685908 34.6172155,52.0465887 C35.2472558,52.0465887 35.8072917,52.0465887 36.5423387,49.8065203 C36.0686912,52.1365708 36.2135037,54.5500316 36.9623656,56.806734 L22.5414427,58.1367746 C21.8570118,55.8638873 21.4803012,53.5095249 21.421371,51.1365609 L21.421371,51.1015598 Z M21.421371,48.6864861 C21.9633712,49.1487823 22.5949,49.4943242 23.2764897,49.7015171 C24.3965614,49.7015171 34.2321909,50.0515278 34.3371976,50.0515278 L34.5822133,50.5065417 C34.0571797,50.5065417 24.0815412,51.0665588 23.031474,51.0665588 C21.9814068,51.0665588 21.3863687,50.3315363 21.3863687,50.2965353 L21.421371,48.6864861 Z M42.0026882,50.3665374 C42.9127464,50.6115449 64.4041219,50.8215513 65.0341622,50.3665374 C65.6642025,49.9115235 65.4891913,49.3515064 65.4891913,49.3515064 C66.0492272,51.8365823 64.8941532,52.8516132 64.8941532,52.8516132 L41.8626792,54.0416496 C41.1359001,52.4081794 40.663724,50.6729904 40.4625896,48.8964925 C40.4625896,48.8964925 41.0226254,50.0865288 42.0026882,50.3315363 L42.0026882,50.3665374 Z M65.734207,42.3162917 L68.219366,46.9714338 C68.219366,46.9714338 67.7643369,53.72664 69.2694332,55.2316859 C66.1542339,54.6366677 67.8343414,45.8864006 63.984095,44.7313654 C64.3927062,43.8290487 64.9486728,43.0010411 65.6292003,42.2812906 L65.734207,42.3162917 Z M121.737791,72.2422051 C122.087254,71.5487174 122.087254,70.7306255 121.737791,70.0371378 L122.087814,70.0371378 L124.257953,69.7571293 L123.837926,70.0371378 L123.837926,70.0371378 C123.172883,72.172203 122.507841,74.9722885 123.032874,75.777313 C123.557908,76.5823376 124.502968,76.267328 124.502968,76.267328 C125.95585,75.4955816 127.112665,74.2649692 127.793179,72.7672212 C129.585335,73.2328861 131.442255,73.3984657 133.28853,73.2572361 C134.937407,71.7004493 136.062547,69.6703727 136.508737,67.4470588 C136.537293,69.7177867 136.096383,71.9699267 135.213654,74.0622607 C133.3403,78.4964838 129.848429,82.0508139 125.448029,84.0025641 C124.674066,81.4004706 123.196289,79.0627542 121.177755,77.2473579 C120.232695,76.0573216 121.177755,74.4122714 121.807796,72.2072041 L121.737791,72.2422051 Z M127.863183,47.2164412 C127.863183,47.9164626 130.663362,47.0064348 130.978383,47.2164412 C129.367843,48.8608958 127.188175,49.8254291 124.887993,49.9115235 C123.96494,49.9810599 123.087344,49.5011409 122.647849,48.6864861 C120.547715,48.0564669 119.882672,47.4614487 119.777666,46.8314295 C125.063004,46.3064135 132.203461,40.9862511 135.213654,39.8312158 C136.298723,39.1311944 139.553931,40.9162489 141.514057,40.9162489 C141.899082,40.9162489 141.829077,41.2312585 141.829077,41.2312585 C139.916677,41.2822126 138.015442,41.5403964 136.158714,42.0012821 C133.576976,43.970026 130.824143,45.7036666 127.933188,47.1814402 L127.863183,47.2164412 Z M154.604895,19.2155865 C163.222932,14.6710815 172.590231,11.7187025 182.256664,10.5003205 C180.278141,12.0802707 178.625708,14.0298384 177.391353,16.2404957 L176.866319,17.2905278 L177.881384,16.7305107 C184.391514,13.9556179 191.578971,13.1759876 198.532706,14.4904423 C206.933244,16.3454989 213.758681,23.6257212 213.408658,30.3459263 C212.852963,36.3254765 207.600338,40.7518732 201.612903,40.2862297 C198.826193,40.4986843 196.075176,39.5527972 194.008392,37.6715572 C191.941608,35.7903172 190.74194,33.1401881 190.692204,30.3459263 C190.970809,26.3876622 193.273787,22.8538997 196.782594,21.000641 L196.782594,20.6506303 C191.987287,20.6506303 188.172043,26.1807991 187.296987,27.650844 C179.271885,21.8284203 169.260847,19.4359252 159.470206,21.000641 C152.985133,22.2202174 146.623772,24.0243 140.46399,26.3908056 C144.874272,24.2907415 149.984599,21.7356635 154.674899,19.2155865 L154.604895,19.2155865 Z M38.5024642,58.2767788 C37.850248,56.2909409 37.5540101,54.2054955 37.6274082,52.1165908 C37.6946766,49.6995187 38.2419937,47.3199591 39.2375112,45.1163771 C39.1256674,45.8226644 39.067165,46.5363702 39.0625,47.2514423 C38.958812,50.1254727 39.5470149,52.9823623 40.7776098,55.5816966 L60.4488687,54.4966635 L60.4488687,54.4966635 L64.6491375,54.2166549 L64.9991599,54.6016667 C64.9991599,54.6016667 63.2490479,55.7567019 63.4590614,56.4917244 C63.5677796,56.8309417 63.708418,57.1590869 63.8790883,57.4717543 C65.1132904,60.4952966 67.2529657,63.062821 70.0044803,64.8219786 L70.0044803,64.8219786 C72.29177,63.4733705 74.7877607,62.5152261 77.389953,61.9868921 C82.9903114,61.1118654 84.8454301,63.1769284 84.8454301,63.1769284 C74.7997872,61.6368814 71.999608,67.3420556 71.999608,67.3420556 L71.999608,67.3420556 L70.0044803,66.5020299 C68.0793571,66.047016 62.6190076,64.3319637 61.218918,60.2718397 L61.0439068,59.7468237 C57.4848177,63.2666272 55.4488175,68.0422703 55.3735439,73.0472297 C56.6996934,79.84783 61.9650635,85.1957232 68.7443996,86.6276442 C69.6888108,85.3593394 70.7556809,84.1869938 71.9296035,83.1275374 C71.9296035,83.1275374 73.1196797,86.3476357 75.4298275,87.0826581 C80.2359088,86.3110001 84.336007,83.1834658 86.3505264,78.7524038 C87.0658912,76.9693302 87.4570567,75.0728338 87.5056004,73.1522329 C87.2955869,71.6121859 89.5357303,75.252297 89.8857527,77.7723739 C95.5506378,78.8862311 101.138942,80.3592494 106.616823,82.1825085 C113.777489,84.6585832 120.789554,87.5451201 127.618168,90.8277724 C133.591107,80.7274425 142.019068,72.299764 152.119736,66.3270246 C156.214998,62.441906 150.859655,47.8114594 150.859655,47.8114594 C152.185785,47.1766677 153.584598,46.7064942 155.024922,46.4114167 C163.501192,44.2475187 172.271443,43.4674416 180.996584,44.1013462 C184.286794,40.6012393 186.491935,37.4861442 186.316924,35.2460759 C186.001904,30.9759455 179.771505,26.2858024 172.316028,22.5756891 C175.943441,22.8970895 179.492109,23.8197124 182.8167,25.3057724 C184.391884,26.0879164 185.891652,27.0135234 187.296987,28.0708568 L187.612007,28.3158643 L187.612007,27.9658536 C189.338768,25.1963097 191.749665,22.9180883 194.612455,21.3506517 C191.78164,23.4155321 190.02263,26.6381368 189.817148,30.1359199 C189.782247,30.5552077 189.782247,30.9766705 189.817148,31.3959583 C190.167171,38.1161635 196.817596,43.4713269 204.763105,43.4713269 C212.708613,43.4713269 219.744064,37.8011538 219.744064,30.8359412 C220.199093,22.505687 211.728551,13.3354071 201.08787,10.8153301 C194.056777,9.17816575 186.683553,9.87859853 180.086526,12.810391 C181.048916,11.9119473 182.118778,11.1360294 183.271729,10.5003205 C186.243013,8.59151109 189.581862,7.32756062 193.072357,6.79020726 C182.584588,5.55954925 171.972798,7.60115031 162.690412,12.6353857 C161.500336,13.3354071 160.240255,14.0004274 159.190188,14.6304466 C153.064796,18.1305534 145.189292,22.7506944 137.138777,26.8808205 C136.788754,26.8808205 136.963766,26.8808205 137.138777,26.8808205 C141.794075,23.8357276 146.029346,20.3006197 150.229615,16.9405171 C141.584061,17.5005342 131.328405,22.9607009 125.063004,24.2557404 C124.897652,27.4161593 124.248391,30.5325048 123.137881,33.4960224 C115.098375,36.7535368 106.636463,38.8512665 98.0062724,39.7262126 C96.6355908,39.8859383 95.2471929,39.7910083 93.9110103,39.4462041 C93.9110103,39.936219 94.5760529,40.3912329 95.6611223,40.8112457 C101.611503,42.1762874 116.662466,43.9613419 118.482583,45.571391 C118.482583,46.1314081 118.307572,46.6914252 118.272569,47.111438 L119.252632,47.6364541 C118.429757,51.9259454 116.966647,56.0673537 114.912354,59.9218291 C114.930939,60.0752672 114.991498,60.2206036 115.087366,60.3418419 L117.117496,61.8818889 C118.29854,60.1255316 120.252345,59.0444624 122.367832,58.9768002 C123.921516,59.1941328 125.425637,59.6796989 126.813116,60.411844 L126.813116,60.411844 C128.853591,59.7129313 130.683902,58.5088197 132.133457,56.9117372 C132.728495,57.5067553 128.423219,62.8969199 126.953125,63.1069263 L126.778114,63.1069263 C126.300345,63.1406662 125.820791,63.1406662 125.343022,63.1069263 L124.152946,63.1069263 C122.746905,63.05408 121.416958,63.7456292 120.652722,64.9269818 L120.302699,65.522 L120.302699,65.522 C120.342945,65.915889 120.133373,66.2931063 119.777666,66.4670288 C119.543549,66.5703753 119.276736,66.5703753 119.042619,66.4670288 C118.808821,66.0809518 118.539288,65.7176797 118.237567,65.3819957 L118.237567,65.3819957 L118.237567,65.3819957 C116.667718,63.8293972 114.930292,62.4559374 113.057236,61.2868707 L112.602207,61.1118654 L112.602207,57.0167404 C112.602207,57.0167404 101.926523,57.9617692 90.7608087,58.7667938 C89.8407193,60.2119872 88.4957178,61.3368599 86.9105623,61.9868921 C88.1838069,60.4948726 88.1838069,58.2987535 86.9105623,56.806734 L73.2596886,57.7167618 C73.2596886,57.7167618 72.2446237,58.1017735 71.999608,58.6267895 C71.4745744,57.7167618 73.609711,55.8617051 74.2397513,55.5816966 L90.4107863,54.1466528 C91.6677057,50.9456656 91.8760568,47.4283276 91.0058244,44.1013462 C90.658813,42.582976 90.1543857,41.104936 89.500728,39.6912115 C82.1277754,39.0821341 74.8916834,37.3469467 68.0443548,34.5460545 C65.8057603,37.5057442 64.0023573,40.7706195 62.6890121,44.2413504 L40.1825717,42.8063066 C39.7532266,42.0115235 39.5362188,41.1194103 39.5525314,40.2162276 L21.9464046,38.5011752 C20.7341881,41.9716414 19.9696358,45.5825596 19.671259,49.2465032 C19.9864849,52.8249351 20.7387997,56.3512928 21.9114023,59.7468237 L38.5024642,58.2767788 Z M94.5060484,49.5965139 L103.536626,49.5965139 C103.816644,49.5965139 104.06166,49.2115021 104.271673,49.0014957 C104.400073,49.5963493 104.244881,50.2170975 103.851647,50.681547 L94.2610327,51.1365609 C94.4300443,50.6409675 94.5129144,50.1200869 94.5060484,49.5965139 Z M105.636761,49.8065203 C106.231799,50.2615342 106.791835,48.9664947 106.861839,49.8065203 C106.867561,50.4909143 106.785214,51.1732011 106.616823,51.8365823 L105.181732,52.1165908 C105.531754,51.4865716 105.601759,49.3515064 105.671763,49.8065203 L105.636761,49.8065203 Z M103.74664,51.4165694 C104.131664,51.4165694 104.866711,53.2016239 104.866711,53.2016239 L106.40681,52.711609 L107.281866,52.711609 L107.281866,52.711609 C107.665549,51.5850722 107.854925,50.4015098 107.841902,49.2115021 C107.856625,47.9499123 107.655375,46.6951038 107.246864,45.5013889 L106.616823,45.5013889 L105.00672,44.9763729 L104.271673,46.8314295 L92.9659498,46.1314081 C93.2975355,48.1126923 93.2975355,50.1353066 92.9659498,52.1165908 L103.74664,51.4165694 Z M156.25,49.1415 C157.313427,54.1786944 157.169495,59.3960563 155.829973,64.3669647 C156.496733,64.3800545 157.153035,64.5351754 157.755096,64.8219786 C152.266266,67.8569025 147.224635,71.6379992 142.774138,76.0573216 C140.775312,78.2085137 138.905271,80.4758628 137.173779,82.8475288 L137.453797,82.6725235 C145.504312,71.2971763 192.057292,52.0815897 194.577453,51.5565737 C190.41391,49.8824663 186.066662,48.7075738 181.626624,48.0564669 C173.140994,46.9162937 164.522851,47.2359119 156.144993,49.0014957 L156.25,49.1415 Z M125.658042,150.644598 C120.792731,150.644598 117.397513,145.884453 117.397513,138.91924 C117.397513,132.584047 120.897737,130.168973 124.397961,130.133972 C129.123264,130.133972 132.378472,135.034122 132.378472,141.964333 C132.168459,148.019518 129.228271,150.784603 125.553035,150.784603 L125.658042,150.644598 Z M125.413026,128.383919 C115.227375,128.383919 110.78209,134.64911 110.78209,140.809298 C110.78209,145.954455 114.002296,152.464654 124.467966,152.394652 C135.77369,152.394652 138.888889,145.394438 138.888889,140.389285 C138.888889,135.384132 135.668683,128.593925 125.30802,128.523923 L125.413026,128.383919 Z M54.9885193,153.584688 L48.4080981,146.584474 L53.2734095,141.019304 C56.4936156,137.309191 57.5436828,136.749174 59.4338038,136.469166 L59.4338038,134.719112 C55.9335797,135.349131 52.4333557,135.979151 49.1431452,136.679172 L49.1431452,138.394224 C50.9282594,138.044214 51.5582997,138.394224 51.5582997,138.91924 C51.5582997,139.444256 51.3132841,139.934271 50.0182012,141.474318 L47.0080085,144.974425 C46.0279458,143.959394 45.0828853,142.909362 44.1378248,141.894331 C43.1927643,140.8793 43.1927643,140.844299 43.1927643,140.494288 C43.1927643,140.144278 43.9978159,139.339253 45.8879368,138.91924 L45.8879368,137.204188 C41.0226254,138.25422 36.1573141,139.374254 31.2920027,140.704295 L31.2920027,142.419347 C33.4344357,141.591423 35.8644658,142.362605 37.1373768,144.274404 C39.0274978,146.164462 40.8826165,148.08952 42.7727375,150.04958 C40.672603,152.499655 38.5724686,154.984731 36.4723342,157.504808 C35.1452285,159.562086 33.1768385,161.124443 30.8719758,161.949943 L30.8719758,163.664996 C34.1621864,162.82497 37.4873992,162.019946 40.812612,161.284923 L40.812612,159.53487 C38.9924955,159.989884 38.2924507,159.779877 38.2924507,159.044855 C38.2924507,158.309832 38.4674619,158.379834 39.202509,157.504808 C40.8592817,155.474746 42.5043869,153.479685 44.1378248,151.519625 L47.6380488,155.264739 C48.5831093,156.209768 48.688116,156.559779 48.688116,156.90979 C48.688116,157.2598 48.2330869,157.924821 46.2379592,158.344833 L46.2379592,160.094887 C50.8932572,159.079856 55.5835573,158.204829 60.2388553,157.399804 L60.2388553,155.649751 C58.2386242,156.013781 56.2047487,155.213816 54.9885193,153.584688 Z M101.191476,150.434592 L98.3562948,150.504594 C95.8711358,150.504594 95.6261201,150.329589 95.6261201,148.08952 L95.6261201,135.454135 C95.6261201,132.549046 96.2561604,131.954028 99.406362,131.674019 L99.406362,129.958967 C94.8560708,130.262309 90.3057796,130.647321 85.7554884,131.114002 L85.7554884,133.00406 C88.9756944,132.654049 89.2557124,133.494075 89.2557124,136.119155 L89.2557124,148.474532 C89.2557124,151.064611 88.8356855,151.974639 85.7554884,152.394652 L85.7554884,154.004701 C92.5692578,153.304679 99.4180294,152.79133 106.301803,152.464654 C107.211862,150.189584 108.156922,147.914515 109.101983,145.674447 L107.351871,145.674447 C104.236671,150.154583 103.466622,150.294588 101.191476,150.504594 L101.191476,150.434592 Z M23.3814964,163.454989 L19.1812276,164.505021 C17.2211022,165.065038 17.0110887,164.995036 17.0110887,163.034976 L17.0110887,157.2598 L21.7013889,155.894759 C24.3615591,155.159736 24.921595,155.579749 24.921595,157.609811 L26.6367047,157.154797 L26.6367047,149.489563 L24.921595,149.944577 C24.921595,152.184645 24.2215502,152.919668 21.6663866,153.444684 L17.0110887,154.809725 L17.0110887,147.004487 L24.0115367,144.974425 C25.796651,144.519411 26.3566868,144.974425 26.671707,147.459501 L28.4568212,147.004487 L28.0017921,141.614323 C21.0013441,143.434378 14.0008961,145.46444 7.28046595,147.669507 L7.28046595,149.419561 C9.83562948,148.579535 10.78069,148.509533 10.78069,151.624628 L10.78069,164.260014 C10.78069,166.885094 10.2206541,167.760121 6.96544579,168.880155 L6.96544579,170.595207 C14.2459117,168.261803 21.5730473,166.126738 28.9468526,164.190012 C28.9468526,162.124949 29.2618728,160.024885 29.436884,157.959822 L28.0017921,158.414835 C27.7970233,160.954394 25.8937841,163.030586 23.3814964,163.454989 Z M72.9096662,144.379407 C72.3413116,144.466912 71.7629111,144.466912 71.1945565,144.379407 L71.1945565,134.3341 C71.8594987,134.077262 72.5528155,133.901001 73.2596886,133.809084 C76.0948701,133.424073 77.8449821,135.139125 77.8449821,138.394224 C78.109717,141.402017 75.9128944,144.06616 72.9096662,144.379407 Z M74.0647401,131.919027 C73.5047043,131.919027 71.4395721,132.33904 68.9894153,132.829054 C66.5392585,133.319069 63.7390793,133.914088 61.7089494,134.369101 L61.7089494,136.119155 C64.859151,135.769144 64.9991599,136.119155 64.9991599,140.109277 L64.9991599,151.414622 C64.9991599,154.249708 64.3341174,154.914729 61.7089494,155.509747 L61.7089494,157.224799 C66.2592406,156.454776 70.8095318,155.789755 75.359823,155.194737 L75.359823,153.479685 C71.859599,153.934699 71.1945565,153.304679 71.1945565,151.134613 L71.1945565,146.234464 C72.5336242,146.354499 73.8807463,146.354499 75.2198141,146.234464 C82.2202621,145.324436 84.4254032,141.089307 84.4254032,137.93921 C84.4254032,133.179065 80.5051523,131.079001 74.0647401,131.919027 L74.0647401,131.919027 Z M230.524754,147.73951 C230.524754,146.374468 231.854839,145.814451 233.709957,146.374468 C236.737966,147.452481 239.024619,149.9756 239.800347,153.094673 L241.480455,153.619689 L240.850414,147.004487 L239.695341,146.654476 C239.695341,146.969486 239.275314,147.004487 238.890289,146.864483 C237.083272,145.952865 235.225052,145.146495 233.324933,144.449409 C227.409554,142.699356 225.62444,145.989456 225.62444,148.579535 C225.62444,155.579749 237.105175,159.499869 237.105175,164.400018 C237.105175,166.290076 235.600078,167.200104 233.394937,166.535083 C230.103868,165.359536 227.671854,162.542215 226.989527,159.114857 L225.30942,158.659843 C225.62444,161.144919 225.93946,163.664996 226.289483,166.185073 L227.444556,166.500082 C227.444556,166.325077 227.759577,166.045068 228.354615,166.220074 C230.230211,167.159092 232.158555,167.988836 234.129984,168.70515 C239.135305,170.210196 242.565524,168.495143 242.565524,164.365017 C242.565524,156.244769 230.559756,151.519625 230.524754,147.73951 L230.524754,147.73951 Z M204.588094,148.894545 L204.588094,138.744235 L206.373208,139.129247 C209.448167,139.466979 211.781491,142.056129 211.798555,145.149431 C211.798555,148.964547 210.013441,150.119582 204.588094,148.894545 L204.588094,148.894545 Z M219.079021,160.374895 C216.733871,157.434806 215.403786,153.899698 213.058636,151.519625 C216.55886,151.204615 218.27397,149.594566 218.27397,146.794481 C218.27397,141.159309 212.953629,138.814237 207.108255,137.519198 C205.883177,137.239189 203.608031,136.819176 201.297883,136.469166 C198.357695,136.014152 196.852599,135.839146 194.612455,135.559138 L194.612455,137.27419 C197.797659,137.869208 198.427699,138.604231 198.427699,141.369315 L198.427699,154.179706 C198.427699,156.874788 197.692652,157.2598 194.612455,156.699783 L194.612455,158.414835 C199.267753,159.289862 203.888049,160.234891 208.613351,161.249922 L208.613351,159.53487 C205.743168,158.90485 204.6931,158.344833 204.6931,155.61475 L204.6931,150.7146 L206.618224,151.134613 C208.403338,153.059672 210.538474,157.434806 212.918627,160.374895 C214.722351,162.45942 217.199204,163.846412 219.919075,164.295015 L224.399362,165.45005 L224.399362,163.734998 C222.273109,163.307139 220.379035,162.110921 219.079021,160.374895 L219.079021,160.374895 Z M151.034666,141.369315 L151.034666,131.184004 L152.854783,131.184004 C154.307083,131.094918 155.729897,131.620688 156.77527,132.632735 C157.820644,133.644782 158.39219,135.049793 158.350134,136.504167 C158.350134,140.354284 156.425011,141.824329 151.034666,141.369315 Z M187.19198,154.809725 L182.921707,154.004701 C180.926579,153.689691 180.716566,153.514686 180.716566,151.554626 L180.716566,145.77945 L185.511873,146.549473 C188.207045,146.969486 188.767081,147.634506 188.767081,149.699569 L190.517193,149.979578 L190.517193,142.314344 L188.767081,141.999334 C188.767081,144.239403 188.067036,144.694417 185.476871,144.239403 L180.716566,143.50438 L180.716566,135.524137 L187.927027,136.644171 C189.747144,136.959181 190.272177,137.764205 190.6222,140.319283 L192.33731,140.599292 L192.022289,135.069123 C185.021841,133.809084 177.951389,132.747385 170.810932,131.884026 L170.810932,133.634079 C173.4361,133.949089 174.521169,134.3341 174.521169,137.484197 L174.521169,150.119582 C174.521169,152.709661 173.926131,153.409683 170.565916,152.98967 L170.565916,152.98967 C168.729322,152.926276 166.997815,152.117424 165.770609,150.749601 C163.865546,147.987313 161.821104,145.323785 159.645217,142.769358 C163.145441,141.929332 164.965558,140.074276 164.965558,137.309191 C164.965558,131.639018 159.540211,130.06397 153.624832,129.608956 C152.364751,129.608956 150.124608,129.433951 147.709453,129.39895 C144.734263,129.39895 143.229167,129.39895 140.954021,129.39895 L140.954021,131.114002 C144.139225,131.114002 144.804267,131.884026 144.804267,134.614109 L144.804267,147.4245 C144.804267,150.119582 144.06922,150.609597 140.954021,150.469593 L140.954021,152.184645 C145.644321,152.394652 150.334621,152.67466 154.954917,153.059672 L154.954917,151.34462 C152.049731,151.099612 150.964662,150.7146 150.964662,147.844513 L150.964662,143.15437 L152.959789,143.15437 C154.744904,144.834421 156.915043,148.929546 159.330197,151.519625 C161.207102,153.346334 163.711801,154.385749 166.330645,154.424714 C167.730735,154.424714 169.095822,154.424714 170.495912,154.424714 L170.495912,154.424714 C178.021393,155.334741 185.511873,156.489777 192.96735,157.924821 C193.142361,155.92976 193.28237,153.934699 193.457381,151.939638 L191.742272,151.624628 C191.25224,154.004701 190.412186,155.369743 187.19198,154.809725 L187.19198,154.809725 Z" id="Shape" fill="#FFFFFF"></path>
            </g>
        </g>
    </g>
</svg>