<?xml version="1.0" encoding="UTF-8" standalone="no"?>
<svg width="250px" height="250px" viewBox="0 0 250 250" version="1.1" xmlns="http://www.w3.org/2000/svg" xmlns:xlink="http://www.w3.org/1999/xlink">
    <!-- Generator: Sketch 47.1 (45422) - http://www.bohemiancoding.com/sketch -->
    <title>TEMPLE</title>
    <desc>Created with Sketch.</desc>
    <defs></defs>
    <g id="Page-1" stroke="none" stroke-width="1" fill="none" fill-rule="evenodd">
        <g id="TEMPLE" fill-rule="nonzero">
            <g id="Group" transform="translate(15.000000, 0.000000)">
                <polygon id="Shape" fill="#981E32" points="0.299328895 249.939231 218.725666 249.939231 218.725666 0.306489114 0.299328895 0.306489114"></polygon>
                <path d="M18.3835161,17.9502219 L18.3835161,90.2895794 L33.9830194,90.2895794 L33.9830194,34.2628408 L185.034594,34.2628408 L185.034594,90.2895794 L200.644402,90.2895794 L200.644402,17.9502219 L18.3890647,17.9496935 L18.3835161,17.9496935 L18.3835161,17.9502219 Z M52.1950782,51.5345593 L52.1950782,90.3107166 L67.7890329,90.3107166 L67.7890329,67.593532 L85.2826918,67.593532 L85.2826918,182.484676 L57.9840234,182.484676 L57.9840234,198.379835 L100.887215,198.379835 L100.887215,51.5345593 L52.1950782,51.5345593 Z M118.140439,51.5345593 L118.140439,198.385119 L161.04363,198.385119 L161.04363,182.484676 L133.744962,182.484676 L133.744962,67.6041006 L151.233336,67.6041006 L151.233336,90.3133587 L166.832576,90.3133587 L166.832576,51.5345593 L118.140439,51.5345593 Z M57.9840234,216.37286 L57.9840234,232.273304 L160.930018,232.273304 L160.930018,216.37286 L57.9840234,216.37286 Z" id="Shape" fill="#FFFFFF"></path>
            </g>
        </g>
    </g>
</svg>