<?xml version="1.0" encoding="UTF-8"?>
<svg width="250px" height="250px" viewBox="0 0 250 250" version="1.1" xmlns="http://www.w3.org/2000/svg" xmlns:xlink="http://www.w3.org/1999/xlink">
    <!-- Generator: Sketch 52.3 (67297) - http://www.bohemiancoding.com/sketch -->
    <title>NEAST</title>
    <desc>Created with Sketch.</desc>
    <defs>
        <polygon id="path-1" points="0 0.372180451 190.502271 0.372180451 190.502271 249.060056 0 249.060056"></polygon>
    </defs>
    <g id="NEAST" stroke="none" stroke-width="1" fill="none" fill-rule="evenodd">
        <g id="Group-18" transform="translate(29.000000, 0.000000)">
            <g id="Group-3" transform="translate(0.000000, 0.567669)">
                <mask id="mask-2" fill="white">
                    <use xlink:href="#path-1"></use>
                </mask>
                <g id="Clip-2"></g>
                <path d="M190.381743,104.378665 L190.115472,102.264004 L188.694733,100.676598 C183.266758,94.6117481 174.913566,92.8119361 170.891275,91.9482143 L170.773665,91.9228383 C170.350266,91.8307331 169.988965,91.756485 169.708581,91.6822368 C168.527768,91.3702068 166.104985,90.5149436 161.140867,88.2489662 C161.666822,86.0083647 161.810778,84.6230263 161.830536,84.4209586 L161.963201,83.0036654 L161.518162,81.650282 C161.378911,81.2292293 160.097423,77.481109 157.009433,72.7546053 C156.204975,70.5967105 155.351591,66.8166353 154.984645,64.8457707 L154.709906,63.3579887 L153.830177,62.1267857 C152.131876,59.7405075 149.471049,57.5741541 147.104719,55.9350564 C147.107541,55.8861842 147.126359,55.6004699 147.126359,55.6004699 C147.673955,48.400282 148.238487,40.9557331 143.411738,24.2132519 L142.202699,20.0356203 L137.903788,19.3598684 C137.101211,19.231109 136.287344,19.1690789 135.485709,19.1690789 C125.937591,19.1690789 119.500985,27.8702068 115.653699,33.0694549 C115.286753,33.5666353 114.582029,34.5205827 114.230137,34.9585526 C112.880906,35.8363722 111.608827,36.7668233 110.546566,37.5816729 C105.292655,36.0675752 102.050359,35.1587406 98.0196005,35.1587406 C97.6902901,35.1587406 97.3581571,35.1634398 97.0175562,35.174718 C90.8839158,18.7423872 80.7468025,0.372086466 66.0971966,0.372086466 C65.5185512,0.372086466 64.9248517,0.403101504 64.3349158,0.464191729 L61.0126448,0.807236842 L59.2390734,3.63712406 C51.9208567,15.3344925 48.6428074,24.0017857 44.9187778,36.712312 C44.4699749,37.4933271 44.0512803,38.2170113 43.6504626,38.9040414 C39.4221177,46.1888158 37.4547236,49.5732143 32.4877828,68.9453947 C28.8888911,72.5976504 19.7030143,82.4707707 14.3719502,93.1267857 C12.3490438,97.1681391 9.99400443,102.121147 7.37363498,107.841071 L6.68866946,109.334492 L6.75735419,110.97453 C7.05185172,117.961372 5.62923103,125.049718 4.10499458,132.614568 C3.51788128,135.542199 2.91006847,138.569455 2.40669409,141.613628 C1.31526552,148.241447 0.575728571,155.498026 0.0827039409,164.448214 L-9.408867e-05,165.961372 L0.567260591,167.372086 C12.3782113,196.72547 23.8297433,209.810056 65.0631621,241.062876 L75.6152064,249.060056 L75.9567483,238.209492 C76.8628222,238.902162 78.0135266,239.772462 79.6036251,240.970771 L82.5457778,243.194455 L86.0232951,241.955733 C89.4838764,240.721711 93.0752409,239.508365 96.4586695,238.369267 C96.4586695,238.369267 102.514216,236.332613 104.058211,235.811936 L104.075147,235.891823 L111.726438,233.201974 C112.89596,232.798778 114.061719,232.363628 115.221832,231.922838 L116.289738,231.516823 L117.168527,230.7875 C122.270955,226.555357 128.346261,221.6625 134.729236,217.482049 L136.099167,216.583553 L136.912093,215.16062 C139.375334,210.866447 141.357783,206.434117 142.802044,201.986748 C142.898955,201.692575 143.176517,201.019643 143.474778,200.28468 C145.831699,194.47265 150.613285,182.689756 148.59132,172.935056 C149.793773,170.931297 151.54194,167.590132 150.106147,163.667199 C150.03464,163.469831 149.96031,163.275282 149.88598,163.077914 C154.36366,160.525282 160.741931,156.35047 166.494512,150.590132 L170.258059,151.857989 L173.229379,147.937876 C173.487182,147.596711 179.559665,139.567575 182.745507,132.309117 L182.79161,132.205733 L183.023068,131.564756 L183.055059,131.456673 C184.08627,127.882425 184.309261,124.920019 184.260334,122.795019 C187.2166,118.554417 191.253004,111.314756 190.381743,104.378665 M176.483906,129.567575 C173.610438,136.111748 167.777881,143.811936 167.777881,143.811936 C166.805945,143.482049 164.051029,143.302538 162.222886,145.185056 C152.618315,155.085432 140.621068,160.123966 140.621068,160.123966 C140.621068,160.123966 142.366413,162.407801 143.680832,166.007425 C144.465532,168.153102 140.885458,171.10047 141.435876,172.656861 C144.66594,181.811936 137.235758,196.991447 136.296753,199.877726 C134.909886,204.140883 133.077039,208.107049 130.976039,211.767763 C124.619408,215.933177 118.657009,220.671898 112.798108,225.533741 C111.698211,225.951974 110.598315,226.360808 109.491832,226.743327 C109.371399,226.78656 109.249083,226.824154 109.131472,226.866447 C109.12865,226.85047 109.12865,226.832613 109.125827,226.814756 C109.071256,226.85235 109.02233,226.884305 108.971522,226.921898 C104.07797,228.607049 99.1740685,230.246147 94.2758123,231.894643 C90.7465463,233.081673 87.2229256,234.275282 83.7256498,235.519643 C76.366034,229.968891 78.832098,231.809117 70.9295906,225.014944 C70.1966399,226.428477 69.3536054,230.626786 69.1964773,235.620207 C28.4485562,204.733929 18.0498764,192.501786 6.91260049,164.822274 C7.31906355,157.425658 7.94663498,150.046898 9.15567438,142.72453 C10.9170143,132.062876 14.0482852,121.481109 13.5928961,110.685056 C15.9441719,105.551598 18.3246153,100.507425 20.4877138,96.1803571 C26.589364,83.9914474 38.6487089,72.4594925 38.6487089,72.4594925 C44.3721227,49.8570489 45.78063,49.0271617 51.2584724,39.3984023 C54.7105857,27.5290414 57.7468271,18.9106203 65.0396399,7.25930451 C75.6133246,6.1662594 85.4549995,21.8241541 92.3827483,42.5807331 C99.9446547,41.2555451 101.725753,42.1944549 112.101852,45.1361842 C112.101852,45.1361842 115.104221,42.481109 118.409556,40.3946429 C120.784354,38.8974624 127.71963,24.6709586 136.837763,26.1079887 C142.274206,44.950094 140.395256,50.6004699 140.023605,59.5487782 C140.023605,59.5487782 145.941783,62.8335526 148.258246,66.087312 C148.258246,66.087312 149.444704,72.4961466 150.922837,75.9472744 C153.884748,80.3344925 155.02228,83.7846805 155.02228,83.7846805 C155.02228,83.7846805 154.724019,86.9378759 152.898699,91.9200188 C157.932443,94.3344925 164.337059,97.3335526 167.967,98.2893797 C170.564788,98.9707707 178.972551,100.063816 183.596068,105.228289 C184.440985,111.944455 177.201802,120.831673 177.201802,120.831673 C177.201802,120.831673 178.044837,124.151222 176.483906,129.567575" id="Fill-1" fill="#C8A978" mask="url(#mask-2)"></path>
            </g>
            <path d="M183.596163,105.796241 C178.972645,100.631767 170.564882,99.5387218 167.967094,98.8545113 C164.337153,97.9024436 157.932537,94.9024436 152.899734,92.4879699 C154.724113,87.5058271 155.019552,84.3535714 155.019552,84.3535714 C155.019552,84.3535714 153.884842,80.9024436 150.922931,76.5161654 C149.444798,73.0650376 148.25834,66.6552632 148.25834,66.6552632 C145.940936,63.4024436 140.022759,60.1167293 140.022759,60.1167293 C140.39535,51.1693609 142.271478,45.5180451 136.837857,26.6721805 C127.716901,25.2389098 120.784448,39.4663534 118.410591,40.962594 C115.104315,43.0481203 112.102887,45.7041353 112.102887,45.7041353 C101.726788,42.762406 99.9456897,41.8244361 92.3828424,43.1486842 C85.4560345,22.3921053 75.6134187,6.73421053 65.0406749,7.82725564 C57.7469212,19.4785714 54.7106798,28.0979323 51.2595074,39.9663534 C45.781665,49.5951128 44.3722167,50.425 38.648803,73.0274436 C38.648803,73.0274436 26.5894581,84.5584586 20.4878079,96.7483083 C18.3256502,101.075376 15.944266,106.119549 13.5920493,111.253008 C14.0483793,122.04906 10.9171084,132.630827 9.15576847,143.291541 C7.94578818,150.61485 7.31915764,157.994549 6.91269458,165.391165 C18.0499704,193.068797 28.4477094,205.30188 69.1965714,236.188158 C69.3546404,231.194737 70.196734,226.994549 70.9296847,225.583835 C78.8303103,232.377068 76.367069,230.536842 83.7257438,236.087594 C87.2230197,234.843233 90.7466404,233.649624 94.2759064,232.461654 C99.1741626,230.815038 104.078064,229.17406 108.968793,227.48891 C109.022424,227.452256 109.07135,227.420301 109.123099,227.380827 C109.126862,227.400564 109.128744,227.417481 109.131567,227.435338 C109.249177,227.392105 109.372433,227.351692 109.492867,227.312218 C110.598409,226.928759 111.698305,226.518985 112.798202,226.101692 C118.656163,221.23985 124.620443,216.501128 130.977074,212.334774 C133.077133,208.67594 134.90998,204.709774 136.296847,200.445677 C137.236793,197.559398 144.666975,182.378947 141.432207,173.222932 C140.885552,171.669361 144.466567,168.721992 143.680926,166.575376 C142.366507,162.975752 140.622103,160.692857 140.622103,160.692857 C140.622103,160.692857 152.618409,155.653383 162.223921,145.753008 C164.052064,143.870489 166.80698,144.05 167.777975,144.379887 C167.777975,144.379887 173.610532,136.679699 176.483059,130.135526 C178.044931,124.719173 177.202837,121.399624 177.202837,121.399624 C177.202837,121.399624 184.439197,112.512406 183.596163,105.796241 M178.903961,105.533083 C179.668901,109.109211 175.601448,113.679699 175.601448,113.679699 C175.601448,113.679699 176.334399,111.139286 176.111409,109.109211 C176.111409,109.109211 174.755591,107.247368 169.442404,108.151504 C169.442404,108.151504 166.678079,107.867669 164.695631,106.955075 C168.191025,104.608271 174.916483,101.859211 178.903961,105.533083 M127.502379,48.9428571 C128.719887,46.9484962 130.890512,46.5133459 130.890512,46.5133459 C129.84801,51.4588346 131.933956,56.4945489 131.933956,56.4945489 C127.588941,53.1947368 121.856118,50.6796992 121.856118,50.6796992 C123.769882,42.1731203 129.240197,31.7605263 134.104581,32.1928571 C136.711778,40.0039474 137.27631,45.0631579 135.752074,55.1552632 C134.225015,43.4428571 131.693089,43.4203008 132.647148,38.4099624 C127.794054,40.9165414 127.502379,42.6900376 127.502379,48.9428571 M70.1421626,56.3798872 C71.7237931,51.4033835 74.3959113,44.8479323 72.5743547,38.5368421 C72.5743547,38.5368421 76.341665,37.6862782 78.4059704,40.2351504 C78.8905271,34.893985 75.1269803,28.2172932 69.0479113,27.2483083 C65.4038571,31.1308271 56.411803,53.5866541 63.5823005,74.099812 C63.5823005,74.099812 62.2443596,75.9231203 58.9644286,75.8 C58.9644286,75.8 59.2052956,79.4428571 57.5060542,81.6261278 C48.7558079,83.5697368 39.1559409,90.4879699 33.0825172,97.8930451 C35.2663153,92.0678571 40.6143153,80.8996241 51.1870591,74.099812 C51.1870591,74.099812 51.4307488,66.3319549 50.3336749,60.7492481 C50.3336749,60.7492481 53.6164286,64.0283835 56.411803,65.6045113 C54.8226453,51.3178571 57.5700345,31.0819549 68.5633547,15.1101504 C72.9836404,15.2379699 85.318665,28.1524436 87.7649704,53.5866541 C87.7649704,53.5866541 86.0459704,54.4343985 83.8753448,53.4663534 C83.5112217,56.1364662 80.1080345,62.812218 73.0589113,67.6684211 C72.4510985,66.2116541 71.1159803,64.9983083 68.2001724,64.875188 C68.2001724,64.875188 69.4148571,61.5988722 72.5743547,61.5988722 C72.5743547,61.5988722 70.3858522,58.8093985 70.1421626,56.3798872 M125.305409,208.964474 C125.500172,206.068797 125.405143,203.591353 124.990212,201.570677 C117.986251,209.731391 102.847384,219.834774 92.9868916,223.142105 C79.1539754,214.48703 73.6742512,211.745489 59.0905074,198.353571 C58.3886059,201.415602 58.0536502,204.61015 58.0254236,207.908083 C28.9125074,180.353571 29.1129163,175.29718 23.5522759,159.833835 C32.7616749,172.407143 40.2219655,179.597932 52.5767488,187.312218 C52.6905961,185.263346 53.0349606,183.295301 53.6822906,181.434398 C63.7366059,189.100752 71.9524286,192.784023 81.2944926,197.190038 C70.3519803,184.991729 62.2189557,174.734211 51.7628818,160.592293 C51.0647438,162.429699 50.697798,164.389286 50.5830099,167.139286 C47.0424532,164.026504 44.1689852,159.67406 41.9400246,154.511466 C40.7488621,155.790602 39.7054187,157.261466 38.8463892,158.972932 C33.4532266,147.341353 33.292335,143.967293 40.7375714,132.881767 C41.9484926,138.719173 43.8566108,142.61109 46.4092365,144.725752 C46.7441921,143.632707 47.193936,142.648684 47.7838719,141.806579 C52.2587291,147.36203 59.5543645,154.469173 64.8826059,156.809398 C67.7843005,158.080075 77.3982808,157.816917 80.4345222,155.710714 C67.481335,148.445677 62.7486749,145.853571 52.9493399,123.866729 C57.9388621,125.963534 62.2039015,127.271805 65.6795369,127.717293 C60.4792562,123.357331 56.1285961,118.394925 52.9493399,112.600752 C52.9493399,112.600752 63.6594532,110.714474 66.4002562,107.73609 C67.0767537,107.001128 65.5534581,105.033083 65.189335,104.365789 C71.2420591,101.925 76.9221921,98.9400376 79.8304729,96.2906015 C80.8993202,95.3178571 84.596064,94.8 86.8400788,95.1345865 C90.4747241,97.6468045 91.8267783,102.104511 95.00133,104.256767 C96.9263842,105.562218 101.191424,105.212594 103.634906,104.459774 C107.486897,103.269925 111.102724,100.734211 111.102724,100.734211 C106.253394,100.697556 102.371296,99.2577068 99.569335,96.9945489 C95.674064,93.8469925 92.3282709,89.2971805 89.296734,87.3460526 C90.4831921,85.6289474 92.5832512,84.3441729 92.5832512,84.3441729 C92.5832512,84.3441729 89.2920296,83.2802632 87.5786749,81.5453008 C93.9578867,77.4654135 95.026734,73.0368421 97.1465517,71.8253759 C99.2259113,70.6383459 102.319547,71.2473684 102.319547,71.2473684 C102.319547,69.187218 101.096394,67.5537594 101.096394,67.5537594 C106.522488,53.0152256 111.102724,60.5293233 114.408059,57.3065789 C123.296616,62.1890977 127.791232,67.2821429 132.18235,78.7981203 C131.003419,68.0603383 129.209148,64.0763158 126.18702,58.5462406 C132.907773,63.5819549 135.036059,66.9409774 137.703473,79.2849624 C138.367739,69.2276316 140.407581,66.3234962 140.407581,66.3234962 C142.601729,67.2417293 144.746951,69.1270677 144.910665,70.1796992 C145.349118,73.0650376 145.970103,77.5406015 145.970103,77.5406015 C148.940483,82.3413534 149.849379,84.4842105 149.937823,84.962594 C149.562409,86.0866541 149.109842,87.8695489 148.442754,87.8460526 C147.107635,87.7981203 146.245783,85.5979323 146.245783,85.5979323 C145.073438,86.9597744 144.804345,88.6571429 143.927438,88.7050752 C141.722,88.8281955 140.068862,86.4907895 140.068862,86.4907895 C140.86297,89.1233083 141.55264,91.5988722 144.211586,93.099812 C146.869591,94.599812 155.67535,99.5265038 162.578635,101.958835 C161.60764,102.227632 160.52468,102.648684 159.144399,103.429699 C158.659842,106.013346 158.261847,108.691917 158.422739,111.058459 C158.482956,111.959774 163.592911,115.325376 165.638399,121.98891 C165.910315,122.881767 167.801498,124.392105 168.883517,124.873308 C170.326837,124.453195 171.846369,123.319737 171.846369,123.319737 C171.846369,126.032143 171.290305,128.295301 171.290305,128.295301 C171.290305,128.295301 169.591064,132.742669 166.546355,135.054699 C165.474685,133.620489 165.131261,132.868609 164.371966,132.249248 C162.295429,132.205075 147.179143,140.659962 131.523729,136.545301 C121.965261,134.033083 111.793335,127.803759 104.926744,132.399624 C114.881325,133.345113 125.357158,141.040602 131.876562,142.156203 C142.470005,143.967293 145.460143,141.781203 151.879813,141.191917 C155.228429,140.885526 156.998236,141.890226 156.80065,142.731391 C156.273754,144.969173 142.215025,154.946617 130.039951,152.285902 C125.061719,147.615789 114.414645,144.665602 107.038094,144.809398 C101.691975,145.191917 95.7371034,149.215414 95.7371034,149.215414 C104.433719,149.976692 107.868897,151.73609 114.966946,159.636466 C111.846966,159.639286 109.586956,160.137406 107.143473,161.963534 C118.126443,169.190977 116.241847,184.371429 111.875192,198.30282 C117.511103,196.392105 125.514286,190.567857 128.542059,186.86015 C128.857256,188.459774 128.991803,190.669361 128.860079,192.477632 C130.530153,190.928759 135.568601,185.131767 138.631187,176.845113 C141.235562,187.740789 133.918286,199.804699 125.305409,208.964474" id="Fill-4" fill="#000000"></path>
            <path d="M138.632034,176.844831 C135.569448,185.130545 130.531,190.928477 128.859985,192.47641 C128.99265,190.668139 128.857162,188.458553 128.539142,186.858929 C125.515133,190.568515 117.511009,196.390883 111.876039,198.302538 C116.241753,184.373026 118.12729,169.189756 107.14432,161.965132 C109.58498,160.137124 111.847812,159.641823 114.967793,159.636184 C107.869743,151.738628 104.434566,149.979229 95.7370094,149.215132 C95.7370094,149.215132 101.692822,145.191635 107.038,144.808177 C114.411729,144.66532 125.058802,147.614568 130.040798,152.28468 C142.215871,154.946335 156.2746,144.968891 156.802438,142.733929 C156.999083,141.889944 155.229275,140.885244 151.88066,141.190695 C145.46099,141.780921 142.467088,143.967011 131.876467,142.155921 C125.358004,141.03938 114.882172,133.345771 104.927591,132.398402 C111.794182,127.805357 121.965167,134.031861 131.524576,136.544079 C147.17999,140.658741 162.295334,132.203853 164.369049,132.249906 C165.132108,132.870207 165.472709,133.620207 166.544379,135.056297 C169.591911,132.741447 171.290211,128.295019 171.290211,128.295019 C171.290211,128.295019 171.846275,126.031861 171.846275,123.319455 C171.846275,123.319455 170.328625,124.451974 168.884364,124.873026 C167.801403,124.391823 165.907399,122.881485 165.635482,121.991447 C163.592817,115.324154 158.48098,111.959492 158.419822,111.058177 C158.262694,108.691635 158.660689,106.013064 159.145246,103.429417 C160.526467,102.651222 161.608487,102.22735 162.579482,101.958553 C155.672433,99.5262218 146.870438,94.5985902 144.212433,93.1004699 C141.553487,91.5976504 140.862876,89.124906 140.069709,86.4895677 C140.069709,86.4895677 141.719083,88.8279135 143.928285,88.7047932 C144.805192,88.6559211 145.074285,86.9585526 146.245689,85.5967105 C146.245689,85.5967105 147.108482,87.7978383 148.44266,87.8467105 C149.110689,87.8692669 149.559492,86.0863722 149.938669,84.9613722 C149.849285,84.4848684 148.94133,82.3401316 145.968128,77.5393797 C145.968128,77.5393797 145.346201,73.0638158 144.907748,70.1803571 C144.747798,69.1267857 142.599753,67.2442669 140.408428,66.3222744 C140.408428,66.3222744 138.368586,69.2264098 137.700556,79.2875 C135.036906,66.9406955 132.90862,63.5807331 126.187867,58.5450188 C129.209995,64.0769737 131.003325,68.0591165 132.181315,78.8015977 C127.792078,67.2809211 123.297463,62.1878759 114.408906,57.306297 C111.10263,60.5281015 106.519571,53.0140038 101.097241,67.5534774 C101.097241,67.5534774 102.320394,69.1869361 102.320394,71.2470865 C102.320394,71.2470865 99.2267581,70.6371241 97.1464576,71.825094 C95.0238172,73.0356203 93.9559108,77.4651316 87.5795217,81.5459586 C89.2928764,83.2790414 92.584098,84.343891 92.584098,84.343891 C92.584098,84.343891 90.4812163,85.6286654 89.2975808,87.3448308 C92.3253542,89.2968985 95.6720882,93.8495301 99.5701818,96.9942669 C102.372142,99.2574248 106.2533,100.697274 111.10263,100.733929 C111.10263,100.733929 107.487743,103.272462 103.635753,104.459492 C101.19133,105.212312 96.9234675,105.560996 95.001236,104.256485 C91.8276251,102.105169 90.4718074,97.6465226 86.8399847,95.1343045 C84.5940882,94.8025376 80.8992261,95.3175752 79.8303788,96.2903195 C76.9230389,98.9397556 71.2429059,101.923778 65.1892409,104.365508 C65.553364,105.031861 67.0776005,107.000846 66.3992212,107.735808 C63.6593591,110.715132 52.947364,112.60235 52.947364,112.60235 C56.128502,118.394643 60.480103,123.356109 65.6794429,127.717951 C62.2047483,127.273402 57.9397089,125.966071 52.9501867,123.865508 C62.7495217,145.85235 67.4812409,148.445395 80.4344281,155.713252 C77.3991276,157.816635 67.7823246,158.079793 64.8834527,156.809117 C59.5552113,154.467951 52.258635,147.360808 47.7818961,141.807237 C47.1938419,142.650282 46.7450389,143.632425 46.4063197,144.72547 C43.8574576,142.613628 41.9493394,138.721711 40.7346547,132.882425 C33.2931818,143.967011 33.4531325,147.340132 38.847236,158.971711 C39.7034429,157.261184 40.7497089,155.79032 41.9408714,154.511184 C44.169832,159.672838 47.0423591,164.028102 50.5800931,167.139004 C50.6977039,164.389004 51.0646498,162.428477 51.7609059,160.592011 C62.2188616,174.732989 70.3490635,184.991447 81.2943985,197.188816 C71.9532754,192.78562 63.7374527,189.10047 53.6831374,181.434117 C53.0348665,183.296898 52.6914429,185.265883 52.573832,187.311936 C40.2218714,179.59765 32.7625217,172.405921 23.5531227,159.833553 C29.1109404,175.296898 28.9133542,180.35235 58.0253296,207.908741 C58.0535562,204.608929 58.3894527,201.418139 59.0913542,198.354229 C73.675098,211.745207 79.1519995,214.486748 92.9877384,223.145583 C102.84729,219.834492 117.987098,209.731109 124.991059,201.573214 C125.40599,203.590132 125.500078,206.068515 125.302492,208.964192 C133.919133,199.805357 141.232645,187.741447 138.632034,176.844831 M110.71028,93.5863722 C108.262093,93.0309211 101.590266,85.3053571 98.2557631,84.5553571 C102.366497,80.8420113 107.628876,79.6305451 110.472236,79.5281015 C110.472236,78.3918233 109.524763,75.7367481 109.524763,75.7367481 C116.325492,76.6070489 120.599,84.7132519 124.274103,86.0177632 C127.713985,87.2423872 133.480679,85.6888158 133.480679,85.6888158 C133.424226,87.0732143 132.862517,88.8166353 131.43331,90.931297 C131.43331,90.931297 132.30363,96.2160714 129.00394,101.623966 C125.082325,94.9717105 120.404236,92.381485 120.404236,92.381485 C117.084788,93.7264098 113.163172,94.1380639 110.71028,93.5863722" id="Fill-6" fill="#FFFFFF"></path>
            <path d="M120.406118,92.3823308 C120.406118,92.3823308 125.084206,94.9725564 129.005822,101.624812 C132.304571,96.2169173 131.431428,90.9293233 131.431428,90.9293233 C132.863458,88.8174812 133.422344,87.075 133.482561,85.6868421 C133.482561,85.6868421 127.716807,87.2432331 124.273162,86.018609 C120.600881,84.7140977 116.32361,76.6050752 109.526645,75.7347744 C109.526645,75.7347744 110.474118,78.3926692 110.474118,79.5261278 C107.626995,79.6323308 102.367438,80.8428571 98.2538813,84.5543233 C101.591206,85.3033835 108.260211,93.0317669 110.712162,93.5843985 C113.16129,94.1360902 117.082906,93.7253759 120.406118,92.3823308 M108.592344,85.6210526 C110.414842,84.0214286 113.273256,84.2648496 113.5113,84.2676692 C115.331916,85.7093985 117.884541,88.1708647 117.884541,88.1708647 L111.565546,88.7281955 C111.565546,88.7281955 109.763748,87.7582707 108.592344,85.6210526" id="Fill-8" fill="#000000"></path>
            <path d="M113.511112,84.2678571 C113.274008,84.2650376 110.414654,84.0216165 108.592156,85.6212406 C109.764501,87.7593985 111.566299,88.7293233 111.566299,88.7293233 L117.885294,88.1710526 C117.885294,88.1710526 115.333609,85.7095865 113.511112,84.2678571" id="Fill-10" fill="#FFFFFF"></path>
            <path d="M68.2006429,64.8761278 C71.1164507,64.9992481 72.451569,66.212594 73.0584409,67.6693609 C80.1085049,62.8131579 83.5088695,56.137406 83.8748744,53.4672932 C86.0464409,54.4353383 87.7654409,53.587594 87.7654409,53.587594 C85.3181946,28.1524436 72.9841108,15.2370301 68.564766,15.1101504 C57.569564,31.0828947 54.8221749,51.318797 56.4132143,65.6054511 C53.616899,64.0265038 50.3341453,60.7492481 50.3341453,60.7492481 C51.4312192,66.3328947 51.1875296,74.1007519 51.1875296,74.1007519 C40.6147857,80.8996241 35.2658448,92.0678571 33.0811059,97.893985 C39.1564113,90.4889098 48.7553374,83.5697368 57.5074655,81.6261278 C59.2048251,79.443797 58.964899,75.8009398 58.964899,75.8009398 C62.24483,75.9212406 63.5827709,74.1007519 63.5827709,74.1007519 C56.4132143,53.587594 65.4043276,31.1317669 69.0474409,27.2483083 C75.1265099,28.2182331 78.8909975,34.8949248 78.4073818,40.2360902 C76.3411946,37.6862782 72.5738842,38.5368421 72.5738842,38.5368421 C74.3963818,44.8488722 71.7233227,51.4043233 70.1416921,56.3808271 C70.3853818,58.8065789 72.5738842,61.599812 72.5738842,61.599812 C69.4143867,61.599812 68.2006429,64.8761278 68.2006429,64.8761278" id="Fill-12" fill="#FFFFFF"></path>
            <path d="M135.751509,55.1545113 C137.277628,45.062406 136.711214,40.006015 134.104017,32.193985 C129.239633,31.7588346 123.769317,42.1742481 121.854613,50.6789474 C121.854613,50.6789474 127.589317,53.193985 131.935273,56.493797 C131.935273,56.493797 129.847445,51.4599624 130.89277,46.5135338 C130.89277,46.5135338 128.718381,46.9477444 127.503697,48.9421053 C127.503697,42.6892857 127.796312,40.9157895 132.648465,38.4092105 C131.692524,43.4223684 134.227273,43.4449248 135.751509,55.1545113" id="Fill-14" fill="#FFFFFF"></path>
            <path d="M164.695725,106.954511 C166.677232,107.868045 169.442498,108.15 169.442498,108.15 C174.755685,107.246805 176.110562,109.109586 176.110562,109.109586 C176.334493,111.140602 175.601542,113.679135 175.601542,113.679135 C175.601542,113.679135 179.668996,109.109586 178.904055,105.532519 C174.915636,101.858647 168.190178,104.611466 164.695725,106.954511" id="Fill-16" fill="#FFFFFF"></path>
        </g>
    </g>
</svg>