<?xml version="1.0" encoding="UTF-8" standalone="no"?>
<svg width="250px" height="250px" viewBox="0 0 250 250" version="1.1" xmlns="http://www.w3.org/2000/svg" xmlns:xlink="http://www.w3.org/1999/xlink">
    <!-- Generator: Sketch 47.1 (45422) - http://www.bohemiancoding.com/sketch -->
    <title>NH</title>
    <desc>Created with Sketch.</desc>
    <defs></defs>
    <g id="Page-1" stroke="none" stroke-width="1" fill="none" fill-rule="evenodd">
        <g id="NH" fill-rule="nonzero">
            <g id="New_Hampshire_Wildcats_logo" transform="translate(0.000000, 20.000000)">
                <g id="Group" transform="translate(125.073529, 104.722222) scale(-1, 1) rotate(-180.000000) translate(-125.073529, -104.722222) translate(1.503268, 0.555556)">
                    <g transform="translate(0.940564, 1.818832)" id="Shape">
                        <path d="M66.1686818,52.623442 C66.1686818,52.623442 66.3185646,55.6130688 67.5479712,59.4948981 L67.5544206,59.4948981 C70.6541377,60.2164188 71.5178664,60.1796252 81.4417982,64.9239579 C92.6959077,70.3091622 116.01352,66.082841 116.01352,66.082841 L115.90014,66.0261512 L115.749,65.9568852 C109.678552,65.8037133 92.2875673,65.1781912 86.6766359,62.9652269 C79.5339848,60.1557304 76.2870614,56.3643209 66.1696492,52.6237 L66.1686818,52.623442 Z M138.804446,53.3351274 C118.678615,53.218233 102.936406,57.779372 95.8195519,60.2946171 C98.3549512,61.0886929 101.123817,61.8759646 103.824481,62.5934544 C110.725281,60.1588261 126.187912,56.1441079 137.941523,55.9425659 C165.641466,55.4628957 188.359289,65.8400553 187.217754,65.207052 C186.081057,64.5863024 166.503421,53.5082601 138.802511,53.3350951 L138.804446,53.3351274 Z M156.345056,69.1121635 C156.433734,69.1202252 156.533989,69.1234498 156.63476,69.1437653 C159.226591,69.4581709 164.328186,70.5223131 165.263341,73.9807751 C166.516932,78.6526816 168.493173,83.7708829 174.616183,85.9033593 C175.148254,86.088778 175.659429,86.2182809 176.159254,86.3190519 C178.755115,86.8672464 180.884045,86.3583607 182.520566,85.3869279 C182.53282,85.3830583 182.546364,85.3801561 182.55836,85.3679023 C182.739747,85.2631004 182.909559,85.1446904 183.074823,85.027796 C183.10707,85.003611 183.149636,84.9763948 183.181882,84.9522097 C183.331023,84.843377 183.469072,84.7352859 183.610151,84.6183915 C183.65449,84.5780831 183.706633,84.5327442 183.755004,84.4924358 C183.875929,84.3836031 183.990792,84.2800588 184.107718,84.1712261 C184.16415,84.1188252 184.221356,84.05359 184.277755,84.0011891 C184.378526,83.900418 184.474751,83.7951002 184.56746,83.6862675 C184.631953,83.6137124 184.6919,83.538384 184.756394,83.4658288 C184.83298,83.3690886 184.910565,83.2791525 184.98312,83.1824123 C185.051645,83.089703 185.120169,82.9979933 185.184662,82.9052839 C185.241094,82.8206362 185.29601,82.7425346 185.348411,82.6659487 C185.420966,82.5450234 185.491748,82.4341591 185.556241,82.3132339 C185.592519,82.2527713 185.627023,82.1950819 185.663301,82.1305884 C185.760041,81.9572622 185.857523,81.777132 185.934109,81.6078366 C185.913793,81.5917133 185.895316,81.5907459 185.871131,81.5826842 C185.343091,81.4295122 184.822854,81.2687945 184.302875,81.0914375 C184.302875,81.0914375 183.987954,81.8003496 183.181786,82.4896235 C182.05315,83.4529946 179.913579,84.3959536 176.197143,83.3398731 C169.828414,81.5421178 168.528871,75.00764 168.040978,74.0563614 C168.0126,73.9958988 167.974227,73.9218281 167.933918,73.8170262 C167.909733,73.7686561 167.884291,73.7074518 167.852044,73.6469569 C167.840113,73.6189023 167.826247,73.5892675 167.814251,73.5650825 C167.773942,73.4884965 167.726314,73.389241 167.681975,73.3005625 C167.673913,73.2721854 167.660369,73.2554493 167.644181,73.2312643 C167.591781,73.1304933 167.53006,73.0234341 167.461536,72.9226631 C167.449605,72.898478 167.435739,72.8798394 167.423743,72.8596852 C167.351188,72.7427908 167.270829,72.6216076 167.178119,72.5006823 C167.165866,72.484559 167.150065,72.4745625 167.134038,72.4502807 C167.033267,72.3253246 166.929723,72.2031417 166.812828,72.0660931 C166.800575,72.0580314 166.787031,72.0467451 166.775035,72.0344913 C166.650079,71.8974427 166.514288,71.7598782 166.353055,71.6187987 C166.349185,71.6146066 166.34854,71.6142842 166.340478,71.6062225 C165.848716,71.1749224 165.205297,70.7443641 164.362851,70.365465 C164.358981,70.3574033 164.350275,70.3609504 164.350275,70.3528887 C164.076177,70.2319635 163.776637,70.1170684 163.462232,70.000174 C163.441916,70.000174 163.425696,70.0019379 163.405542,69.9937246 C163.095167,69.8808611 162.760607,69.7778328 162.397832,69.6851234 C162.373647,69.6812538 162.34643,69.6806089 162.322245,69.6725472 C161.95947,69.5798378 161.578571,69.4954481 161.163362,69.4269238 C161.135308,69.4230542 161.109704,69.4182172 161.081488,69.4143476 C160.66228,69.3417925 160.220145,69.2823295 159.752568,69.2379902 C159.728383,69.2379902 159.694878,69.2315409 159.670693,69.2315409 C159.191023,69.1831708 158.690683,69.1463773 158.146519,69.1181614 L158.102438,69.1181614 C157.550213,69.1059076 156.957937,69.1036503 156.345249,69.111712 L156.345056,69.1121635 Z M65.8413775,76.5501947 C58.2511417,80.9718666 45.3505141,88.1341882 28.3029567,96.2887418 C29.13331,96.9296456 30.1090317,97.6952475 31.1812355,98.5497859 C31.3908393,98.7231121 31.5956705,98.8929234 31.8173668,99.0662496 C31.9624771,99.1871748 32.1113667,99.2962655 32.2645322,99.4252525 C32.6676164,99.7477198 33.0694429,100.075992 33.4926813,100.426675 C33.5007429,100.434736 33.509772,100.441508 33.5178337,100.4457 C44.5623394,94.5729255 61.9562267,85.2645838 71.7785813,79.3592398 C70.9321045,79.0045257 70.0747929,78.6122765 69.2404087,78.1688839 C67.910231,77.4513941 66.8027493,76.9291583 65.8393459,76.5502592 L65.8413775,76.5501947 Z M180.139919,78.9875962 C179.813421,80.7450431 176.65695,81.4942636 176.65695,81.4942636 C180.57912,82.4818198 182.111162,79.7622594 182.111162,79.7622594 C181.135698,79.5486248 180.139822,78.9875639 180.139822,78.9875639 L180.139919,78.9875962 Z M211.158373,83.4718267 C219.997847,87.1195771 224.573659,92.5853981 224.573659,92.5853981 C224.573659,92.5853981 222.682678,88.8144653 220.328699,86.7909829 C217.970656,84.7836238 211.158373,83.4718267 211.158373,83.4718267 Z M163.500928,86.9170676 C152.488991,86.821456 130.547992,88.9463544 112.857435,107.392453 C94.9243826,126.087495 83.3394217,147.552533 80.5526591,151.957436 C80.5404053,151.993714 80.5268617,152.009321 80.5148659,152.045599 C80.5148659,152.045599 104.186869,134.746839 115.50257,133.598211 C115.50257,133.598211 98.4095449,146.635242 87.9857888,177.41507 C87.9857888,177.41507 88.430439,176.81096 89.2769157,175.815342 C92.6466992,171.417533 99.0986253,163.509344 104.455452,159.84934 C112.081805,154.641493 125.972084,148.555567 140.633061,149.539093 C155.301132,150.510525 172.447042,155.142607 187.755211,155.956837 C203.060155,156.775098 200.128282,155.984247 202.430053,155.887571 L202.92762,153.028189 C202.92762,153.028189 134.774152,155.157989 134.996655,124.346333 C134.996655,124.346333 134.078623,112.657215 144.897369,104.954116 C156.538439,96.6667058 165.922883,97.5992813 174.1903,99.4495988 C174.1903,99.4495988 171.769796,94.7054595 160.13266,96.1807475 C160.13266,96.1807475 161.878756,95.2967356 164.635916,94.6880785 C175.986766,91.5359605 184.179048,99.0842755 184.179048,99.0842755 C184.179048,99.0842755 189.450421,103.677823 199.068009,109.268438 C206.561505,113.613686 213.306554,110.116173 215.934662,108.342603 C216.599751,106.843129 216.901548,105.177392 216.627451,103.379508 C215.502846,95.8095876 206.2985,91.2366786 206.2985,91.2366786 C206.2985,91.2366786 206.507362,91.2550592 206.128463,91.1421956 C205.850335,91.0736713 205.797934,91.0595795 205.523837,90.9910552 C205.515775,90.9910552 205.510616,90.978479 205.498685,90.978479 C200.988012,89.5152835 196.708226,88.5141192 191.359138,88.3206388 C191.359138,88.3206388 192.814013,89.7417523 194.42635,92.0554553 C196.695714,95.3085057 197.13456,99.2290633 197.13456,99.2290633 C197.13456,99.2290633 184.179435,88.0342879 167.507875,87.0546321 C166.425094,86.9916543 165.075342,86.9297405 163.502185,86.9160679 L163.500928,86.9170676 Z M228.378128,95.186742 C228.378128,95.186742 226.573827,95.6923708 224.68749,97.4981878 C221.474909,100.561627 219.775022,104.571186 219.775022,104.571186 C219.775022,104.571186 219.699952,106.154436 219.346754,107.720273 C220.447173,108.216066 224.382403,109.849073 227.332979,109.445989 C230.053797,109.075152 231.841395,108.016814 232.623378,106.618112 C233.739921,101.273216 228.378418,95.1869677 228.378418,95.1869677 L228.378128,95.186742 Z M191.433047,113.501918 C191.433047,113.501918 191.839162,122.062781 187.981679,127.943617 C187.981679,127.943617 195.971452,122.3659 196.559955,117.791056 C196.559955,117.791056 192.775479,115.573835 191.43337,113.501918 L191.433047,113.501918 Z M222.281561,115.246531 C222.281561,115.246531 220.590123,122.019957 218.086906,125.418118 C218.086906,125.418118 225.000605,120.378921 226.621004,116.235216 C226.621004,116.235216 223.398104,115.750257 222.281561,115.246402 L222.281561,115.246531 Z M187.761434,140.905256 C187.761434,140.905256 183.305258,145.854484 176.928467,148.651888 C178.7625,148.917924 181.483318,149.24468 185.191692,149.514746 C185.453697,149.091508 187.584013,145.568714 187.76137,140.905191 L187.761434,140.905256 Z M203.752589,142.114508 C201.70089,145.681642 195.609966,148.88342 193.417189,149.955624 C195.634151,150.03221 198.057816,150.082579 200.697856,150.106764 C203.285656,146.438698 203.75246,142.114411 203.75246,142.114411 L203.752589,142.114508 Z" fill="#FFFFFF" transform="translate(130.539658, 115.019256) scale(-1, 1) rotate(-180.000000) translate(-130.539658, -115.019256) "></path>
                        <path d="M131.56183,0.425527876 C131.56183,0.425527876 131.403627,5.67174871 132.544355,10.7544786 C133.689114,15.8455927 133.742031,15.4599217 133.866987,15.9316914 C121.677723,16.5605027 108.693253,18.7520229 95.1451115,22.5006732 C91.9970243,23.3673041 92.9291483,23.0584449 86.9070388,25.7630751 C76.1166374,18.7252258 69.3777153,17.0106671 69.2406667,16.8574951 L47.1581046,9.34368408 C47.1581046,9.34368408 52.921563,15.3454458 53.5381205,22.9479354 C54.1588701,30.5459104 54.8353098,37.6147165 55.9881305,39.839741 C43.431898,46.1401075 33.1371288,51.9338779 17.6951362,59.9874992 L1.08710183,68.6457467 L9.14233549,73.2054347 C9.35597009,73.3303907 31.1752376,85.7787579 41.8501958,98.0202624 C50.9721513,108.480457 61.0018524,123.044371 64.3032728,127.91782 C63.6220606,131.404337 62.1807929,139.158708 60.6690661,150.263838 L58.5025049,166.217264 L69.8707679,154.357883 C71.7813867,152.370678 75.0283102,149.069096 78.6883143,145.53421 C75.1695509,155.220483 71.7075417,167.628381 70.2361233,181.792435 L71.0422916,205.290951 L80.6157014,183.820432 C80.6922874,183.586643 88.6844787,160.205505 114.852057,148.142648 C136.582485,138.142291 154.609053,140.627869 169.09106,142.619105 L174.161214,143.299318 C193.807535,145.733946 206.491787,143.25472 207.023858,143.141857 L210.557133,142.423851 L214.424161,120.896578 C214.424161,120.896578 212.75765,120.852754 211.105005,120.808415 C211.459719,119.111431 211.621468,117.588772 211.621468,116.299032 C211.621468,115.355815 211.535047,114.564771 211.426214,113.855343 C212.184013,113.452258 214.247804,112.343777 214.247804,112.343777 C225.227816,106.503249 231.579455,98.5183131 233.6713,95.5716068 C234.316235,95.1806151 235.097702,94.6785335 235.774883,94.1545241 C239.946966,90.9298509 242.530251,85.9719159 242.873034,80.5502728 C242.901411,80.1512195 242.910827,79.7292388 242.910827,79.3221238 C242.910827,74.5818542 241.153896,70.0557029 237.884852,66.3353974 C237.022252,62.9575522 234.122303,55.9732325 224.589524,51.6479783 C224.460537,51.2529559 224.330035,50.8425517 224.148647,50.4072208 C224.144777,50.3949671 224.13607,50.3694277 224.13607,50.3694277 C222.967126,47.4309442 220.547977,41.2864907 213.2844,38.2391745 L210.846999,37.225176 C210.846999,37.225176 208.715683,38.3669038 208.55445,38.4596131 C208.542518,38.4638052 207.297343,39.0430855 206.148553,38.8375126 C205.140843,38.3779967 204.01598,37.7365769 202.766516,36.9102544 C196.845371,31.8355862 187.103311,23.5997708 173.813787,20.0123219 C167.461181,18.2951834 161.20596,17.1431044 154.736621,16.453895 C145.281879,12.6571648 142.821453,10.3670019 142.795656,10.3386248 C142.305506,9.77043734 131.560895,0.425334395 131.560895,0.425334395 L131.56183,0.425527876 Z M138.792192,13.695703 C138.792192,13.695703 141.029825,16.5497968 153.315798,21.4110561 C160.526812,22.1366076 166.833628,23.4214464 172.367812,24.9127288 C184.166246,28.0970936 192.777413,35.172349 199.513111,40.9606374 C201.42776,42.2464759 203.028972,43.1068187 204.375273,43.6751673 C207.914352,44.6949702 211.145797,42.9067922 211.145797,42.9067922 C216.418138,45.1116625 218.118508,49.530271 219.194904,52.2470581 C219.924486,54.0327209 220.038865,55.3331671 220.038865,55.3331671 C232.212006,59.6258521 232.956584,68.6665459 232.956584,68.6665459 C239.974117,75.5957237 238.393705,85.5864062 232.44012,90.1938193 C231.43644,90.9677408 229.864154,91.843949 229.864154,91.843949 C229.864154,91.843949 223.972999,101.352543 211.675063,107.910561 C211.675063,107.910561 214.161092,104.063526 216.385988,97.9972704 C218.606981,91.9229535 218.728906,89.7530709 218.728906,89.7530709 C217.559962,89.063797 217.397213,88.9652833 217.381089,88.9531907 C217.389151,88.9612524 217.368513,88.9531907 217.368513,88.9531907 C217.344328,88.9290057 211.62924,95.3432032 200.508309,94.4767335 C196.15887,102.735766 181.342787,110.656854 181.342787,110.656854 C181.495959,110.394849 186.56837,103.189156 187.829862,95.5789268 C188.249069,89.9760571 187.299564,85.4915041 185.50584,83.7824273 C183.716146,82.0612579 181.221861,79.6022834 175.397134,80.6018353 C169.57273,81.5974532 167.44251,86.9757244 167.44251,86.9757244 C169.651412,89.2370265 170.839381,92.5731121 169.073744,97.5187934 C167.368698,102.307433 164.328315,104.951665 161.591534,107.998981 C158.866686,111.050328 160.091803,114.919452 162.542555,117.458883 C164.989276,120.010405 170.792236,121.784137 173.69025,122.151105 C179.442422,119.853525 187.523776,114.806266 190.663963,109.384623 C190.663963,109.384623 191.520017,117.855195 189.089419,124.292288 C189.089419,124.292288 194.285335,122.385442 197.812483,120.204692 C201.3435,118.019976 205.779683,112.968203 205.779683,112.968203 C205.779683,112.968203 207.788299,117.434053 203.846136,125.709531 L208.14785,125.822911 L205.930888,138.161156 C205.930888,138.161156 193.81837,140.60333 174.84923,138.249318 C159.403045,136.334668 138.429771,131.653894 112.548544,143.564869 C83.8044518,156.798283 75.5389694,182.299644 75.5389694,182.299644 C78.6064398,152.765507 90.5933563,130.959622 92.8022574,127.144834 L92.8087068,127.151283 C93.0344339,126.75223 93.148813,126.552945 93.148813,126.552945 C84.5834361,131.470571 65.9470822,150.92051 65.9470822,150.92051 C67.9987806,135.853225 69.9337457,126.886698 69.9337457,126.886698 C69.9337457,126.886698 57.344944,107.858224 45.9376625,94.7660511 C34.5345732,81.6738779 11.8528668,68.8300046 11.8528668,68.8300046 C31.0316107,58.8335176 49.5073758,49.14015 64.6375425,41.5902226 C62.18276,37.7406078 60.452884,33.263149 59.7312022,28.5593182 C58.8766638,22.9361331 56.9222216,18.3122742 56.9222216,18.3122742 C67.9789811,20.8396118 78.4901258,27.5574123 85.5602218,31.6205005 C90.19182,29.5849255 93.9575933,28.1314041 96.6260104,27.3816676 C113.632292,22.6775143 128.000146,20.8994295 140.210693,20.8188127 C139.557697,19.5490976 138.273632,16.5977154 138.793611,13.6955096 L138.792192,13.695703 Z M142.004257,24.9630337 C127.24138,24.7332757 111.597523,26.4899809 93.7083261,32.7538441 C92.9424662,33.0198797 91.8664895,33.4980342 90.5403426,34.1268455 C92.0680316,34.7355026 93.867238,35.3555105 95.8181653,35.9722292 C102.936631,33.461015 118.671102,28.8918143 138.79661,29.0127395 C166.500422,29.1860657 186.079993,40.2639468 187.218303,40.8846964 C188.359031,41.5175385 165.645239,31.1403789 137.942071,31.6202103 C126.188137,31.8217523 110.725507,35.8364705 103.825029,38.2710988 C111.11279,40.2099335 117.851067,41.6782885 117.851067,41.6782885 C117.782543,41.6824805 117.081918,41.6892523 115.904913,41.697314 L116.011972,41.7540038 C116.011972,41.7540038 92.6953272,45.9867098 81.4402504,40.6014411 C71.5163186,35.8573019 70.648559,35.8979328 67.5528728,35.1723813 C67.5567424,35.1923743 67.5573873,35.2066273 67.565449,35.2227829 C68.4522341,38.0121252 69.9030791,41.2484073 72.2450947,44.1786678 C74.1516828,46.564926 76.6541904,48.7473848 79.9352954,50.319413 C79.9352954,50.319413 77.0063892,51.293619 73.826152,51.0437068 C73.826152,51.0437068 89.8073099,60.1946845 114.05395,54.6966166 C114.05395,54.6966166 89.0304862,63.5031992 70.8239813,60.5729386 C70.8239813,60.5729386 75.4613838,59.2158027 78.1298009,57.027088 C78.1298009,57.027088 75.0784538,56.3992763 71.7810643,55.0368519 C61.9580647,60.9418735 44.5641775,70.2479579 33.5203167,76.1168631 C33.5080629,76.1168631 33.5032259,76.1123486 33.4951643,76.1042869 C38.2434955,79.9861485 44.2658952,85.1552996 49.3728102,90.4073249 C59.1558237,100.456052 72.3789187,118.082438 73.6081641,119.718959 C73.6204179,119.698644 73.6297694,119.671589 73.6459573,119.643373 C73.7225433,119.506324 73.8046757,119.362472 73.8852925,119.221392 C73.8891621,119.217523 73.8939991,119.210106 73.8978687,119.18979 C80.8792862,95.9276429 118.466077,61.0392586 140.135881,54.3577357 C140.135881,54.3577357 140.122337,54.3709569 140.098088,54.3828882 C140.001348,54.43932 139.684685,54.5942655 139.18486,54.8804553 C139.096182,54.9288254 139.012534,54.9814843 138.907732,55.0379161 C138.75456,55.1265946 138.583007,55.2228188 138.397589,55.3276207 C129.852205,60.2452473 92.1009555,84.098155 80.5243787,127.686063 L80.5559805,127.635661 C83.341292,123.230113 94.9260917,101.762496 112.860757,83.064228 C133.079458,61.9871191 158.847821,62.2299369 167.509293,62.7336309 C184.180854,63.7131254 197.135978,74.9080621 197.135978,74.9080621 C197.135978,74.9080621 196.697133,70.987182 194.427769,67.7344541 C192.815432,65.4207511 191.360556,63.9996376 191.360556,63.9996376 C182.994464,63.7301517 176.192661,62.0043388 176.162994,61.9968253 C176.151063,61.9968253 176.148161,61.9985892 176.143969,61.990376 C175.650078,61.8901531 175.145255,61.7641007 174.619795,61.5810037 C168.496785,59.4446577 166.526832,54.330326 165.273402,49.6584195 C164.338247,46.1999575 159.230364,45.1316232 156.638694,44.8214097 C155.913143,44.8014167 155.134191,44.8216612 154.295776,44.8780994 C154.295776,44.8780994 154.503122,44.7337631 154.894114,44.5442813 C154.777219,44.5481509 154.711468,44.5507306 154.711468,44.5507306 C155.259663,44.1798932 155.829269,43.8914462 156.405679,43.6375032 C156.317001,43.6697499 156.240673,43.6957085 156.160056,43.7319861 C165.866322,38.157171 177.769236,47.4416501 177.769236,47.4416501 C196.94798,56.39818 210.335211,52.509869 214.19192,51.0065264 C214.175797,51.0226497 214.240806,51.0899164 214.103757,50.8238809 C213.362083,49.3889013 212.070698,47.8735629 209.833645,46.8497936 C208.189062,47.8897507 199.916485,51.6832563 178.311175,40.9170399 C178.311175,40.9170399 192.577451,45.9117362 199.353457,45.2629319 C198.337685,44.7510151 197.222916,44.1466468 196.021725,43.404972 C189.95547,39.6804744 179.658766,27.8194814 156.525927,25.7637523 C151.743737,25.3364831 146.922851,25.0385233 142.001999,24.9620985 L142.004257,24.9630337 Z M61.097206,51.3650455 C59.9000461,51.4915172 58.8880469,51.8744471 57.4629993,52.0578343 C47.1682301,57.7693755 35.8867109,63.9810635 25.1840205,69.5919949 C25.1840205,69.5919949 28.0638149,71.7809998 28.3016346,71.9664185 C45.3479021,63.8118649 58.2488521,56.6498657 65.8400553,52.2278713 C63.677525,51.3693021 62.2945271,51.2385416 61.0975285,51.3650133 L61.097206,51.3650455 Z M186.524095,57.4429096 C189.454517,59.9299388 192.61776,60.6005741 198.087451,62.7207322 C201.650714,64.1073417 204.527123,65.5627334 206.860819,67.00987 C206.860819,67.0218013 206.867268,67.0356674 206.867268,67.0476632 C206.693942,66.9952623 207.298826,67.1887427 207.1255,67.1484342 C207.504399,67.2451744 207.12163,67.1400501 207.528584,67.2932866 C207.560831,67.3055403 207.603397,67.3168267 207.635643,67.3248884 C208.6756,67.6272015 220.159629,70.8991161 226.580598,68.8112692 C226.580598,68.8112692 225.58598,59.1424091 211.691637,57.9089716 C211.691637,57.9089716 198.197347,60.5627809 186.52403,57.4429096 L186.524095,57.4429096 Z M211.156406,59.1497291 C211.156406,59.1497291 217.968528,60.4615262 220.326732,62.4688852 C222.680743,64.4923677 224.571692,68.2633005 224.571692,68.2633005 C224.571692,68.2633005 219.996203,62.7978019 211.156406,59.1497291 Z M170.651286,69.6047646 C168.777622,69.5636177 166.759105,69.7758335 164.630176,70.3668516 C164.31174,70.4555301 163.995303,70.5477235 163.672835,70.6565562 C168.513715,69.4997047 177.462828,69.1258361 185.250413,78.4412398 C185.250413,78.4412398 199.409631,97.2481788 211.167434,89.3999692 C211.397192,89.2508281 211.628208,89.0843059 211.853935,88.9150106 C211.914398,88.8747022 211.96983,88.8230429 212.030293,88.7827345 C212.199588,88.6456859 212.366626,88.5104109 212.52786,88.3733622 C212.584291,88.3249921 212.641497,88.2809109 212.697897,88.2285099 C212.875254,88.0793688 213.049096,87.9236816 213.21436,87.7624479 C213.254669,87.7302012 213.291462,87.6956972 213.32774,87.6553888 C214.182278,86.8290663 214.932789,85.8777877 215.51323,84.8337997 L215.525806,84.8337997 C215.662855,84.5838875 215.784522,84.3319761 215.897385,84.0780008 C215.905447,84.0538158 215.912864,84.0414653 215.928987,84.021311 C213.300878,85.7948813 206.555829,89.2923619 199.062334,84.947147 C189.444746,79.3562086 184.179822,74.7629841 184.179822,74.7629841 C184.179822,74.7629841 178.770433,69.7831212 170.65135,69.6047968 L170.651286,69.6047646 Z M232.619831,82.3019153 C231.836622,83.6985535 230.047477,84.7570525 227.329432,85.1235043 C224.378856,85.5265885 220.443787,83.8895509 219.343206,83.3977882 C219.339337,83.4181037 219.3345,83.4383546 219.33063,83.454478 C219.286291,83.6560201 219.235889,83.8570462 219.179457,84.0464957 C219.066594,84.4495799 218.924999,84.8352831 218.763765,85.1738737 C218.743772,85.2101513 218.729487,85.2446553 218.713363,85.2809329 C218.628716,85.4341049 218.539295,85.5825043 218.442555,85.7155221 C218.442555,85.7155221 225.4746,89.663167 229.634428,86.6602546 C229.864186,86.4990209 230.075306,86.3297256 230.276848,86.1563994 C230.377619,86.0717517 230.467555,85.9783007 230.560264,85.8855914 C230.648943,85.7969129 230.742394,85.716038 230.831072,85.6273595 C230.931843,85.5225577 231.024037,85.413209 231.120777,85.3124379 C231.18124,85.235852 231.249248,85.1559768 231.309711,85.0793908 C231.40242,84.9584656 231.483295,84.845344 231.567943,84.7203879 C231.612282,84.6558945 231.655879,84.5936583 231.700219,84.525134 C231.784866,84.3921162 231.862968,84.2676761 231.939554,84.1346583 C231.967931,84.0782265 232.003531,84.0210531 232.027716,83.9646213 C232.104302,83.8235418 232.168796,83.6728851 232.229258,83.523744 C232.245382,83.4874664 232.269825,83.4421275 232.285948,83.3977882 C232.346411,83.2365546 232.407615,83.0780941 232.455985,82.9128296 C232.467917,82.8886446 232.473076,82.8632019 232.481138,82.8309552 C232.533539,82.657629 232.583424,82.4792723 232.619702,82.3019153 L232.619831,82.3019153 Z M148.604195,84.4688957 C148.339482,84.4621239 148.182215,84.4814719 148.182215,84.4814719 C140.644541,89.4474686 136.374751,108.029003 149.511135,115.550553 C163.868992,123.761216 167.523837,122.648704 167.523837,122.648704 C162.638457,121.626483 157.130715,118.159959 155.873092,114.883691 C154.937937,112.445032 155.618891,109.107334 158.134136,106.463102 C159.468345,105.072461 163.329407,102.321009 165.377075,97.9918852 C166.340446,95.9522794 167.991576,90.8569733 164.835427,88.4626534 C161.038374,85.5846326 157.491878,88.1036506 157.491878,88.1036506 C160.897778,93.6581502 151.716489,102.495045 151.716489,102.495045 C157.507679,85.7525413 150.458157,84.5174915 148.605195,84.4697663 L148.604195,84.4688957 Z M135.182783,125.167496 C122.598818,125.74597 111.127043,130.964814 104.453905,135.521599 C99.096755,139.181603 92.6451513,147.098499 89.2753678,151.500178 C88.9246846,151.947601 88.3001622,152.665607 88.0220341,153.024352 C88.0986201,152.955827 88.4732304,152.581701 88.5699706,152.488991 C91.5286082,149.449737 105.689116,135.876765 126.559846,130.438998 C139.704258,127.004721 159.080675,131.100314 174.336604,133.115735 C194.281207,135.759967 202.0488,133.764443 202.0488,133.764443 L202.429312,131.561991 C200.127701,131.658731 203.059639,132.455838 187.754469,131.637577 C172.445333,130.823347 155.298133,126.191104 140.632319,125.219833 C138.799802,125.097392 136.981989,125.086815 135.184234,125.169431 L135.182783,125.167496 Z" fill="#A3A9AC" transform="translate(121.998965, 102.858143) scale(-1, 1) rotate(-180.000000) translate(-121.998965, -102.858143) "></path>
                        <path d="M206.056618,139.184957 C205.44393,139.644473 201.667031,141.599431 198.083613,143.002164 C192.617792,145.146572 189.449551,145.787475 186.52316,148.274505 C198.196477,145.154633 211.687703,147.810958 211.687703,147.810958 C225.582014,146.57349 226.581663,136.907532 226.581663,136.907532 C220.156501,134.823587 208.672634,138.088568 207.632677,138.394912 C207.624615,138.394912 207.257808,138.544053 206.891002,138.67304 L206.056618,139.184957 L206.056618,139.184957 Z M206.3549,138.802027 C208.954793,137.363017 215.658082,133.110479 216.617422,126.665163 C216.89152,124.863377 216.589206,123.19864 215.924118,121.699167 L215.928148,121.699167 C215.912025,121.674982 215.903963,121.662889 215.895902,121.642735 C215.783038,121.388792 215.658082,121.134849 215.521033,120.888968 L215.512972,120.884937 C214.932531,119.84498 214.182794,118.893701 213.324225,118.063348 C213.287947,118.023039 213.25167,117.990792 213.211361,117.958546 C213.046097,117.793281 212.872771,117.636078 212.695414,117.490968 C212.638982,117.438567 212.58255,117.390197 212.526118,117.345858 C212.364885,117.208809 212.195589,117.071761 212.026294,116.938743 C211.965831,116.894404 211.9094,116.846033 211.848937,116.805725 C211.62321,116.640461 211.393452,116.467134 211.163694,116.317993 C199.405729,108.469945 185.245383,127.277851 185.245383,127.277851 C177.457797,136.593126 168.51336,136.222289 163.672319,135.065437 C163.994787,135.17427 164.309192,135.266979 164.627629,135.355658 C161.874564,134.747001 160.125179,133.860215 160.125179,133.860215 C171.762218,135.331473 174.180723,130.591203 174.180723,130.591203 C165.917498,132.441359 156.529668,133.372484 144.892629,125.085074 C134.07385,117.386166 134.988851,105.692695 134.988851,105.692695 C134.767155,74.8849734 202.924654,77.0132578 202.924654,77.0132578 L202.424829,74.159422 L202.0419,71.9545517 C202.0419,71.9545517 194.274468,69.963316 174.333895,72.6035172 C159.07716,74.6229687 139.700905,78.7142729 126.556331,75.2799959 C105.011483,69.6690645 90.6092862,55.3716697 88.3157373,52.9773499 C88.1545037,52.8644863 87.9811775,52.6226358 87.9811775,52.6226358 C98.4009028,83.4021415 115.495702,96.4419138 115.495702,96.4419138 C104.181129,95.2971548 80.5079973,77.9927522 80.5079973,77.9927522 C80.5200899,78.0290298 80.5362132,78.049184 80.5483058,78.0854616 C80.5402441,78.0733691 80.5281516,78.0451532 80.516059,78.0330607 C92.0926358,121.626612 129.849528,145.477101 138.390881,150.394727 C138.5763,150.499529 138.745595,150.596269 138.898767,150.684948 C139.003569,150.74138 139.092248,150.78975 139.180926,150.842151 C139.67672,151.12431 139.995156,151.285543 140.095927,151.337944 C140.116081,151.354068 140.128174,151.362129 140.128174,151.362129 C118.45837,144.678994 80.8707731,109.78803 73.8933864,86.5260437 C73.8893556,86.5058895 73.8812939,86.5018587 73.8812939,86.4978278 C73.8208313,86.2882241 73.7563378,86.0745895 73.699906,85.8690165 C73.699906,85.8690165 73.6797518,85.9415717 73.6394434,86.0745895 C73.6273509,86.0504044 73.6112275,86.0221885 73.6031658,86.0020343 C72.3737592,87.638556 59.1485682,105.265426 49.361685,115.310283 C44.2546089,120.562469 38.2405933,125.734039 33.4882312,129.615739 C33.0649929,129.966423 32.6578779,130.292921 32.2547937,130.615388 C32.1096834,130.736313 31.9565114,130.857239 31.8114011,130.978164 C31.5897049,131.15149 31.3841319,131.316754 31.1745282,131.490081 C27.6072335,134.331824 25.1846977,136.125548 25.1846977,136.125548 C35.8825511,141.73648 47.1608456,147.948007 57.4556148,153.659709 C60.3094506,154.026516 61.5106413,155.207552 65.8317034,153.490414 C66.7991054,153.111515 67.9075868,152.595567 69.2337337,151.874046 C70.0681179,151.430654 70.9307179,151.039662 71.7731638,150.684948 C75.0703922,149.326554 78.12577,148.689681 78.12577,148.689681 C75.4533221,146.504965 70.8138235,145.146572 70.8138235,145.146572 C89.0211346,142.220181 114.044599,151.019508 114.044599,151.019508 C89.799087,145.52144 73.8208313,154.675481 73.8208313,154.675481 C77.0051961,154.425569 79.931587,155.405063 79.931587,155.405063 C76.650482,156.973061 74.1473295,159.153746 72.2447723,161.540004 C69.8988225,164.474457 68.4517504,167.711222 67.5609344,170.496534 C67.5528728,170.516688 67.5528728,170.528781 67.5488419,170.548935 L67.5407802,170.548935 C66.3113736,174.430635 66.1622324,177.417489 66.1622324,177.417489 C76.2796446,173.676868 79.524472,169.883846 86.6671232,167.074349 C92.2780545,164.861417 109.671136,164.240668 115.741583,164.087496 L115.894755,164.018972 C117.071761,164.027033 117.777158,164.039126 117.845682,164.043157 C117.845682,164.043157 111.106115,165.510383 103.822385,167.453249 C101.121721,168.166708 98.3485018,168.948691 95.8131025,169.746797 C93.8621752,170.363516 92.0644199,170.980235 90.5407618,171.588892 C91.8669087,172.221734 92.9431434,172.697373 93.7090033,172.963409 C117.555462,181.315312 137.411387,181.657934 156.517576,179.956919 C179.654606,177.90119 189.945344,166.038423 196.011761,162.313926 C197.216982,161.576282 198.325464,160.971655 199.341236,160.459739 C192.565391,159.810773 178.300243,164.809017 178.300243,164.809017 C199.905554,154.042639 208.17684,157.827599 209.821424,158.867556 C211.990016,157.875969 213.267793,156.420835 214.02156,155.034226 C214.186825,154.71982 214.227133,154.695635 214.178763,154.715789 C214.0659,154.675481 213.949005,154.627111 213.820018,154.582772 C209.543296,152.99462 196.382598,149.576467 177.756079,158.279053 C177.756079,158.279053 165.853004,167.566112 156.146738,161.987427 C156.227355,162.023705 156.307972,162.051921 156.39665,162.084168 C155.82024,161.830225 154.76416,161.173198 154.881054,161.177228 C154.490062,160.983748 154.28852,160.838638 154.28852,160.838638 C155.703346,160.94344 156.960968,160.955532 158.093635,160.919254 L158.142005,160.919254 C158.682137,160.895069 159.185993,160.858792 159.665663,160.814453 C159.693879,160.814453 159.722095,160.80236 159.74628,160.80236 C160.217888,160.758021 160.65725,160.697558 161.076457,160.629034 C161.104673,160.620972 161.128858,160.616941 161.157074,160.612911 C161.572251,160.548417 161.955181,160.459739 162.317956,160.367029 L162.390512,160.354937 C162.753287,160.262227 163.091878,160.165487 163.402253,160.052624 C163.422407,160.044562 163.43853,160.044562 163.458685,160.040531 C163.77309,159.927667 164.071373,159.810773 164.34547,159.689848 C164.34547,159.685817 164.353531,159.685817 164.357562,159.677755 C165.200008,159.298856 165.840912,158.867556 166.332675,158.432225 C166.340736,158.428194 166.344767,158.424164 166.348798,158.420133 C166.510032,158.283084 166.64708,158.150066 166.772036,158.013018 C166.78816,158.000925 166.796221,157.988833 166.808314,157.980771 C166.925208,157.843722 167.03001,157.714735 167.130781,157.59381 C167.146905,157.569625 167.158997,157.553502 167.17109,157.541409 C167.263799,157.416453 167.344416,157.299559 167.416971,157.182664 C167.429064,157.16251 167.441156,157.146387 167.457279,157.122202 C167.521773,157.0174 167.586266,156.908567 167.638667,156.811827 C167.654791,156.783611 167.666883,156.767488 167.674945,156.743303 C167.723315,156.650593 167.767654,156.553853 167.807963,156.473236 C167.820055,156.453082 167.832148,156.420835 167.84424,156.392619 C167.880518,156.332157 167.904703,156.275725 167.928888,156.223324 C167.969196,156.122553 168.009505,156.045967 168.03369,155.985504 C168.521422,155.034226 169.827414,148.500232 176.192113,146.698446 C179.908549,145.646396 182.044895,146.593644 183.17353,147.557015 C183.185623,147.561046 183.189654,147.565077 183.201746,147.573138 C183.189654,147.565077 183.185623,147.561046 183.17353,147.557015 C183.98373,148.246289 184.294104,148.947655 184.294104,148.947655 C184.814083,148.770298 185.338092,148.613095 185.870163,148.459923 C185.890318,148.451862 185.906441,148.451862 185.926595,148.435738 C185.850009,148.266443 185.7573,148.089086 185.66056,147.911729 C185.624282,147.847235 185.588004,147.790804 185.551727,147.730341 C185.487233,147.609416 185.414678,147.496552 185.342123,147.379658 C185.289722,147.303072 185.23329,147.218424 185.176859,147.133777 C185.112365,147.041067 185.043841,146.952389 184.979347,146.859679 C184.902761,146.76697 184.826175,146.674261 184.749589,146.57349 C184.685096,146.504965 184.628664,146.43241 184.564171,146.359855 C184.471461,146.251022 184.374721,146.14622 184.27395,146.045449 C184.217518,145.993048 184.161087,145.928555 184.104655,145.872123 C183.98776,145.76329 183.870866,145.662519 183.749941,145.553687 C183.701571,145.513378 183.653201,145.465008 183.60483,145.4247 C183.463751,145.307805 183.322672,145.203003 183.17353,145.09014 C183.141284,145.065955 183.100975,145.037739 183.068729,145.013554 C182.903464,144.90069 182.734169,144.779765 182.552781,144.678994 C182.540688,144.666902 182.524565,144.662871 182.512472,144.65884 C180.879982,143.687407 178.747666,143.179521 176.151805,143.723685 C176.143743,143.723685 176.135681,143.723685 176.13165,143.731746 C176.13165,143.731746 182.967958,141.986392 191.348077,141.720356 C197.769208,141.514783 202.311966,140.023372 205.210141,139.168834 C205.222233,139.168834 206.3549,138.802027 206.3549,138.802027 L206.3549,138.802027 Z M176.651629,148.548602 C176.651629,148.548602 179.807778,149.298338 180.138307,151.055785 C180.138307,151.055785 181.129894,150.491468 182.109388,150.277833 C182.109388,150.277833 180.573638,147.561046 176.651629,148.548602 L176.651629,148.548602 Z M232.615832,123.424367 L232.615832,123.416305 C232.579555,123.238948 232.531185,123.061591 232.474753,122.888265 C232.466691,122.856018 232.46266,122.831833 232.454599,122.807648 C232.406229,122.642384 232.345766,122.485181 232.285303,122.323947 C232.265149,122.279608 232.244995,122.231238 232.228872,122.19496 C232.168409,122.045819 232.099885,121.896678 232.023299,121.755598 C231.995083,121.699167 231.966867,121.642735 231.93462,121.586303 C231.862065,121.453285 231.785479,121.328329 231.700831,121.195311 C231.656492,121.126787 231.608122,121.062294 231.563783,120.9978 C231.479135,120.872844 231.398518,120.759981 231.305809,120.639055 C231.241315,120.562469 231.172791,120.485883 231.116359,120.409297 C231.019619,120.308526 230.930941,120.195663 230.83017,120.090861 C230.741491,120.002182 230.64072,119.921566 230.556072,119.832887 C230.463363,119.740178 230.370654,119.651499 230.273913,119.566852 C230.072371,119.393525 229.862768,119.22423 229.628979,119.062996 C225.473181,116.060019 218.443394,120.002182 218.443394,120.002182 C218.536103,120.1352 218.624781,120.288372 218.709429,120.441544 C218.721522,120.477822 218.741676,120.510068 218.757799,120.546346 C218.923064,120.884937 219.060112,121.267867 219.177007,121.670951 L219.177007,121.674982 C219.233439,121.864431 219.285839,122.061942 219.330179,122.263484 C219.696985,123.847605 219.76551,125.472034 219.76551,125.472034 C219.76551,125.472034 221.466525,129.482722 224.679105,132.550192 C226.565539,134.356009 228.375387,134.851802 228.375387,134.851802 C228.375387,134.851802 233.732375,128.769263 232.615832,123.424367 L232.615832,123.424367 Z M218.076587,104.624522 C220.57974,108.022521 222.280755,114.798366 222.280755,114.798366 C223.397298,114.294511 226.613909,113.806779 226.613909,113.806779 C224.997542,109.663074 218.076587,104.624522 218.076587,104.624522 L218.076587,104.624522 Z M187.978294,102.097184 C191.835809,107.974151 191.428694,116.54372 191.428694,116.54372 C192.770964,114.471868 196.555924,112.254905 196.555924,112.254905 C195.971452,107.6799 187.978294,102.097184 187.978294,102.097184 L187.978294,102.097184 Z M165.373334,107.724239 C163.325667,103.395115 159.46009,100.650112 158.125881,99.2554412 C155.610636,96.6112092 154.933455,93.2736724 155.86861,90.8350133 C157.126233,87.5579391 162.636393,84.0994771 167.521773,83.0756434 C167.521773,83.0756434 163.8658,81.9591003 149.507942,90.1699244 C136.37143,97.6955055 140.640091,116.277685 148.177765,121.243682 C148.177765,121.243682 158.331454,122.356194 151.712813,103.22582 C151.712813,103.22582 160.891039,112.061425 157.484978,117.619955 C157.484978,117.619955 161.032118,120.1352 164.829171,117.257179 C167.98532,114.862859 166.336705,109.763845 165.373334,107.724239 L165.373334,107.724239 Z M187.752566,89.138029 C187.575209,84.4743454 185.446925,80.9513899 185.18492,80.5321824 C181.476546,80.7982179 178.755728,81.1247161 176.921695,81.3907516 C183.298487,84.1881556 187.752566,89.138029 187.752566,89.138029 L187.752566,89.138029 Z M203.746945,87.9287766 C203.746945,87.9287766 203.279368,83.6036836 200.687537,79.9396487 C198.047336,79.9598029 195.632862,80.0122038 193.411868,80.0887898 C195.608676,81.1609937 201.691216,84.3614818 203.746945,87.9287766 L203.746945,87.9287766 Z M45.9354698,110.952943 C57.3427512,97.86077 69.9310692,78.8351981 69.9310692,78.8351981 C69.9310692,78.8351981 67.9922345,69.8665758 65.944567,54.7992902 C65.944567,54.7992902 84.5751164,74.2481005 93.1446855,79.1657271 C93.1446855,79.1657271 93.0277911,78.9682159 92.8020639,78.5691626 L92.7980331,78.5772243 C90.5891319,74.7640482 78.5973785,52.9531648 75.5299081,23.4191891 C75.5299081,23.4191891 83.8011949,48.9223233 112.545126,62.155576 C138.423128,74.0667126 159.399627,69.3869056 174.841781,67.4722559 C193.810921,65.1182445 205.919569,67.5569036 205.919569,67.5569036 L208.140563,79.8993403 L203.843686,80.0122038 C207.785849,88.2875214 205.77849,92.7536938 205.77849,92.7536938 C205.77849,92.7536938 201.340533,87.7030494 197.809516,85.5183333 C194.28253,83.3376481 189.086775,81.4270292 189.086775,81.4270292 C191.517372,87.8642831 190.654772,96.3371119 190.654772,96.3371119 C187.514747,90.9156301 179.440971,85.8649857 173.68896,83.567406 C170.790785,83.9342126 164.982343,85.7118137 162.531591,88.2633364 C160.080839,90.8027665 158.855464,94.6723744 161.584343,97.7237214 C164.321285,100.771038 167.36457,103.411239 169.069616,108.199878 C170.835125,113.145721 169.646026,116.483258 167.433094,118.74456 C167.433094,118.74456 169.56944,124.121702 175.389975,125.11732 C181.218572,126.116969 183.713663,123.658156 185.503357,121.936986 C187.297081,120.22791 188.240298,115.741583 187.825122,110.138713 C186.563468,102.528484 181.49267,95.3253707 181.339498,95.063366 C181.339498,95.063366 196.148809,102.988 200.502118,111.243164 C211.619179,110.376533 217.334912,116.789602 217.363128,116.765417 C217.363128,116.765417 217.387313,116.757355 217.379251,116.765417 C217.395375,116.753324 217.556608,116.656584 218.721522,115.96731 C218.721522,115.96731 218.604627,113.798717 216.383634,107.724239 C214.158609,101.657823 211.663518,97.8123999 211.663518,97.8123999 C223.961616,104.370579 229.862768,113.879334 229.862768,113.879334 C229.862768,113.879334 231.426734,114.754027 232.430414,115.527948 C238.383967,120.1352 239.972118,130.123625 232.954423,137.052642 C232.954423,137.052642 232.204686,146.093819 220.031545,150.386666 C220.031545,150.386666 219.918682,151.684597 219.189099,153.470259 C218.112865,156.187047 216.407819,160.60888 211.139509,162.81375 C211.139509,162.81375 207.906774,161.024056 204.371726,162.043859 C203.025425,162.612208 201.42115,163.474808 199.5065,164.760646 C192.770964,170.548935 184.161087,177.623062 172.362814,180.807426 C166.828468,182.298838 160.524232,183.584676 153.313057,184.310228 C141.027052,189.171423 138.785904,192.025258 138.785904,192.025258 C138.269956,189.123052 139.551764,186.172477 140.20476,184.902761 C127.995341,184.822145 113.625391,183.044544 96.6192708,178.340551 C93.9508538,177.590815 90.1900786,176.135681 85.5546109,174.100106 C78.4885458,178.163194 67.9720803,184.878576 56.915482,187.405914 C56.915482,187.405914 58.8704402,182.782539 59.7290094,177.159515 C60.45053,172.455523 62.1757302,167.981289 64.6345435,164.131835 C49.5027645,156.582069 31.0253871,146.883864 11.8466432,136.887377 C11.8466432,136.887377 34.5281883,124.045116 45.9354698,110.952943 L45.9354698,110.952943 Z" fill="#001D52"></path>
                    </g>
                </g>
            </g>
        </g>
    </g>
</svg>