<?xml version="1.0" encoding="UTF-8" standalone="no"?>
<svg width="250px" height="250px" viewBox="0 0 250 250" version="1.1" xmlns="http://www.w3.org/2000/svg" xmlns:xlink="http://www.w3.org/1999/xlink">
    <!-- Generator: Sketch 47.1 (45422) - http://www.bohemiancoding.com/sketch -->
    <title>DREXEL</title>
    <desc>Created with Sketch.</desc>
    <defs></defs>
    <g id="Page-1" stroke="none" stroke-width="1" fill="none" fill-rule="evenodd">
        <g id="DREXEL" fill-rule="nonzero">
            <g id="Drexel_Dragons_logo" transform="translate(0.000000, 28.000000)">
                <path d="M81.8254569,2.04650588 C49.2185866,30.5470941 37.3197317,55.7173882 35.9304187,76.6206235 C42.4237393,78.9457118 50.0823271,81.3530059 58.8006477,83.5394912 C47.6031286,47.96155 80.2319454,5.34831471 80.2319454,5.34831471 C55.2701134,43.0616971 55.3006477,68.3505206 61.5655332,84.2162559 C65.8044645,85.2271015 70.2695408,86.1851824 74.9689683,87.0502559 C74.8974034,90.5344471 75.5668309,109.477168 97.9670599,113.549226 C97.9670599,113.549226 101.82393,96.7060059 129.593014,91.8468735 C129.053892,93.3619471 128.831297,95.1915059 128.948186,97.3208294 L129.007823,98.3663162 L124.523854,98.4073809 L114.541984,97.9891824 C112.576335,98.7969029 110.837976,99.7436662 109.308777,100.778447 L109.521239,100.778447 C113.915323,100.778447 115.885361,101.175138 120.129255,107.887918 L124.52372,114.728403 L126.189846,114.728403 L124.609465,99.2775206 L129.827785,102.918094 L131.840571,107.499638 C129.498014,106.400374 128.795342,103.354932 128.795342,103.354932 L126.90185,103.545363 C126.90185,103.545363 126.840571,105.298356 126.950304,107.731172 C127.310514,112.319407 128.714522,115.186481 131.128739,116.259363 C132.540953,116.885466 134.137518,116.807046 135.7358,116.360171 L137.894006,121.277803 L128.023968,146.033244 L125.403739,147.967376 L127.248777,132.493935 L125.735476,132.493935 L121.948453,138.285244 C120.688911,140.201788 119.272881,142.415612 117.471926,144.196038 C116.6704,144.987031 115.803568,145.702451 114.825552,146.249656 C113.308377,147.105171 111.491965,147.302618 109.521545,147.302618 L106.644064,147.302618 L106.644064,125.783794 C110.432232,125.783794 112.550934,125.783645 114.974598,130.589397 L117.099216,134.666809 L118.612518,134.666809 L118.612518,113.543721 L117.099216,113.543721 L114.974598,118.016868 C114.256564,119.534331 113.446984,120.506368 112.566774,121.168221 C110.846831,122.463441 108.848262,122.490034 106.644064,122.490034 L106.644064,102.827534 C100.434522,108.237828 98.7606668,114.619299 98.7606668,114.619299 C97.978224,114.452019 97.2220218,114.275487 96.4944454,114.08909 L96.4944454,120.24631 L92.9795599,124.49559 L96.4944454,128.412413 L96.4944454,146.738399 L94.2133385,149.845016 L92.2303233,147.90706 L92.2303233,130.521854 C92.2303233,125.587207 86.6274607,124.534781 81.9280332,123.80831 C84.4852851,123.411619 87.6820408,122.879613 89.8337584,121.381325 C91.2555141,120.391987 92.2305141,118.993913 92.2305141,116.900531 L92.2305141,112.823119 C86.5362393,110.880384 83.0850943,108.622781 81.928224,107.793457 L81.928224,117.557604 C81.928224,119.366612 81.2830905,120.510899 79.9043691,121.194354 C78.730705,121.779832 77.0261248,122.030751 74.6524607,122.030751 L72.3824225,122.030751 L72.3824225,99.5866338 L74.6524607,100.060847 C74.7574225,100.060847 74.862976,100.067347 74.9655523,100.072126 C73.7847317,97.9332441 73.062079,95.4921118 72.7329187,94.2135235 L58.293224,91.1778324 L62.0764302,97.3761559 L62.0764302,120.246597 L58.5689874,124.495876 L62.0764302,128.4127 L62.0764302,153.085935 L58.293224,158.320921 C67.4081095,155.639671 76.1695599,154.463744 76.1695599,154.463744 L72.382537,150.528185 L72.382537,125.451568 L75.1109721,125.451568 C80.1109721,125.451568 81.9283385,126.571594 81.9283385,128.808435 L81.9283385,153.4702 C85.7165065,152.471303 95.890934,151.487509 95.890934,151.487509 C104.352384,150.58181 118.213453,150.338806 123.222995,150.281453 L144.06269,150.6063 L140.346468,146.357021 L144.316125,128.001021 L148.755438,146.357021 L144.99456,150.673403 L165.677766,152.667374 C175.105247,154.203954 189.231201,157.459594 193.849522,158.544521 C194.507919,158.699851 194.983377,158.813066 195.209999,158.86564 C201.786716,159.890824 216.727174,165.637493 221.830228,167.632801 C222.934713,168.060559 223.600705,168.327307 223.600705,168.327307 L223.600705,110.500249 L221.632766,110.500249 L216.023224,158.506572 L209.664445,156.650822 L209.664445,109.135822 L211.956812,108.837109 L209.664445,107.825212 L209.664445,98.1581824 C210.403949,99.0614912 211.184751,100.114109 212.038682,101.354462 C215.848224,106.884241 222.728377,105.425565 223.019407,105.360947 L224.8458,104.950224 L223.448052,103.703103 C218.321716,99.1148676 215.945381,94.9346029 216.582213,91.6201765 C217.331258,87.7033529 222.009884,85.9525588 222.057594,85.9334412 L223.947365,85.2426632 L222.217861,84.2009044 C218.234083,81.8064191 215.579884,82.652375 212.221106,83.7229632 C208.907747,84.7816029 204.785228,86.0958456 197.304312,85.2762721 C196.481316,85.1854632 193.611373,84.1475853 191.306984,83.2563015 C190.789331,83.0555662 190.290171,82.8632044 189.860781,82.6887368 L188.03811,81.9568941 L188.578568,83.8462529 C188.585629,83.8725397 188.593835,83.8970294 188.600934,83.9209265 C189.967823,88.6739559 191.3954,90.48325 193.487384,91.3028235 L181.481659,93.3788088 C184.792728,89.6078529 186.104369,84.8553971 186.185476,84.5518088 L186.196735,84.5032691 L186.506106,83.342025 L185.25372,83.342025 C182.713262,83.342025 180.676621,82.9151662 179.040171,82.2293206 L179.17809,82.0090279 C179.161487,81.9946897 177.443396,80.5336809 177.347976,78.8202044 C177.305037,78.0483294 177.586984,77.3460618 178.223892,76.676925 L178.827728,76.0421618 L178.022613,75.6949088 C177.318892,75.3890265 175.845323,75.2368309 174.697804,76.4006176 C174.547518,76.2046618 174.409159,75.9515059 174.399617,75.6575721 L174.399617,75.6239632 C174.399617,75.0074191 174.961106,74.4282118 175.435819,74.0482485 L176.136564,73.4807029 L175.361277,73.0363706 C175.041621,72.8523632 173.430171,71.9914765 172.409178,72.5434985 C172.254121,70.8229103 171.152461,68.854175 170.124255,67.3534397 C171.727308,67.5326676 173.56185,67.4538074 175.465476,67.3534397 L177.489331,70.5608074 C177.489331,70.5608074 178.827289,69.477525 179.390266,69.0187015 C179.798186,69.7284441 180.761926,71.4233191 180.761926,71.4233191 C180.761926,71.4233191 183.307155,70.1478088 183.829484,69.8849412 C184.280342,70.2696838 185.082174,71.2260059 184.19477,72.8533382 L183.833224,73.5179824 L184.560056,73.7308191 C185.311487,73.9530618 186.782384,73.8568809 187.784293,72.40155 C187.896411,72.6572485 187.98185,73.0779897 187.98185,73.4507838 C187.924598,74.6050118 187.045247,75.8701221 185.439865,77.1175485 L183.907919,78.3086735 L185.842461,78.2153221 C186.064312,78.2032779 191.155629,77.9085412 192.689598,74.0109691 C193.379006,74.7565574 193.792136,75.2624294 193.804064,75.2767676 L195.734789,77.66265 L195.511144,74.6007676 C194.599884,62.0572971 200.263434,56.8140912 200.323167,56.7638118 L202.343396,54.9453985 L199.633663,55.0798147 C194.915152,55.321175 192.352365,57.2653441 191.176411,58.4888735 C187.874884,55.1933735 180.305991,55.0366088 176.214961,55.2254912 C177.226411,54.2098662 179.878892,51.5438147 179.878892,51.5438147 L177.560571,51.5438147 C174.95561,51.5438147 171.869923,51.1625132 168.525457,50.5244618 C165.839388,47.0282265 158.194541,35.9118882 158.342442,22.7847559 C158.342442,22.7847559 156.267442,37.0757706 151.346258,39.4679618 C146.892442,34.4591382 141.992251,27.2292265 137.111526,16.7695794 C137.111526,16.7695794 138.863529,26.8428588 136.213243,35.8424912 L125.370495,25.6227706 L119.388052,34.3190059 C118.056945,33.4395941 109.354083,27.6874765 109.354083,27.6874765 C109.354083,27.6874765 106.905037,33.7967118 105.678892,36.8580206 C87.41935,26.05655 81.8449225,2.05052059 81.8449225,2.05052059 L81.8254569,2.04650588 Z" id="Shape" fill="#07294D"></path>
                <path d="M178.918968,67.1946676 C178.189006,67.2615794 177.42311,67.3738956 176.619159,67.5531235 C176.883949,67.9689324 177.497613,68.94095 177.707537,69.2707294 C178.058205,68.9839647 179.638262,67.6950147 179.638262,67.6950147 C179.638262,67.6950147 180.9054,69.9191618 181.110552,70.2751324 C181.48269,70.0863456 183.902346,68.8823735 183.902346,68.8823735 L184.021621,68.9458441 C184.040705,68.9578882 185.471564,69.8152382 185.471564,71.4737706 C185.471564,71.9039176 185.33977,72.3997912 185.098835,72.9374559 C185.637957,72.9876397 186.828911,72.8914588 187.499216,71.1302456 L187.633396,70.7717897 L187.916678,71.0294191 C187.954846,71.0676544 188.859694,71.912425 188.859694,73.3294632 C188.859694,73.3748676 188.852251,73.4222221 188.852251,73.4676265 C188.802155,74.7222221 188.01956,75.9942147 186.612174,77.2464206 C188.03393,77.0050603 190.925533,76.1937647 191.901297,73.6320382 C191.517232,72.9342441 189.11809,68.9791853 184.044045,67.5981265 C183.946239,67.6053912 183.842327,67.6057735 183.742136,67.5793912 C182.320381,67.223325 180.653205,67.1541765 178.919045,67.1948015 L178.918968,67.1946676 Z M173.164006,73.2324029 C173.024903,73.2354618 172.902785,73.2597412 172.806182,73.3182794 C172.667823,73.4043088 172.586411,73.5668088 172.560171,73.7962206 C172.886984,75.7414412 173.95956,79.2464706 177.487652,81.4283676 C176.972384,80.7114559 176.470094,79.7600471 176.470094,78.67275 C176.470094,77.86025 176.811526,77.1064412 177.372117,76.4063529 C176.847308,76.2844779 175.754598,76.2112956 174.953033,77.4443838 L174.807671,77.6646956 L174.587766,77.5190765 C174.54769,77.4904 173.576316,76.8021647 173.534331,75.6990765 L173.534331,75.6244029 C173.534331,74.9528956 173.904827,74.2882515 174.596621,73.6453441 C174.145762,73.4284735 173.582632,73.2253103 173.165323,73.2346206 L173.164006,73.2324029 Z" id="Shape" fill="#FFFFFF"></path>
                <path d="M80.2338538,5.34353529 C80.2338538,5.34353529 47.6040828,47.9605941 58.8025561,83.5347118 C50.0830905,81.3495647 42.4246935,78.9483882 35.9304187,76.6236824 C19.6977851,70.8100059 10.7414874,65.5067706 10.7414874,65.5067706 L17.9874798,87.7348588 L17.9874798,118.420594 L11.7664874,124.768226 L17.9874798,131.112226 L17.9874798,164.03855 L1.77011336,193.280903 C1.77011336,193.280903 19.314579,181.727535 47.6689683,171.974285 L51.4708767,185.7973 C71.5834721,179.225609 96.6521744,173.781476 124.501411,173.781476 C152.352556,173.781476 177.415533,179.225609 197.528129,185.7973 L201.330037,171.974285 C229.686907,181.726579 247.228892,193.280903 247.228892,193.280903 L231.014961,164.048109 L231.014961,131.121785 L237.232136,124.777785 L231.014961,118.430153 L231.014961,87.7444176 L238.260953,65.5163294 C238.260953,65.5163294 229.547785,70.6694912 213.745686,76.3856676 C212.846354,77.66655 211.833472,78.8847265 210.52164,79.8954765 C206.323167,83.1286529 200.316297,82.7092118 196.354083,81.9229029 C194.712861,82.3769471 193.040533,82.8287544 191.310953,83.27085 C193.617823,84.1622103 196.487671,85.1963794 197.308281,85.2871882 C204.789197,86.1044676 208.911716,84.7901294 212.225075,83.7338794 C215.581564,82.6632912 218.238052,81.8173353 222.221831,84.2118206 L223.951335,85.2535794 L222.057842,85.9443574 C222.010132,85.9609897 217.333797,87.7130456 216.582461,91.6274603 C215.947919,94.9443721 218.325514,99.125975 223.451926,103.71421 L224.849674,104.961331 L223.019541,105.375801 C222.72851,105.440324 215.852174,106.895349 212.042442,101.365493 C211.186048,100.122846 210.408968,99.0750074 209.671831,98.1692132 L209.671831,107.836243 L211.960381,108.84814 L209.671831,109.143125 L209.671831,156.660037 L216.026984,158.515787 L221.640342,110.509463 L223.604655,110.509463 L223.604655,168.336522 C223.604655,168.336522 222.939999,168.068416 221.8379,167.638269 C216.732938,165.645254 201.79019,159.900019 195.213854,158.87474 C194.984846,158.822166 194.511774,158.706562 193.853377,158.553621 C189.235056,157.468694 175.105858,154.209326 165.677804,152.67265 L144.998415,150.686135 L148.759293,146.362297 L144.31998,128.010121 L140.346697,146.362297 L144.062919,150.615209 L123.227041,150.290362 C118.215209,150.347715 104.353377,150.590719 95.8949798,151.496418 C95.8949798,151.496418 85.7205523,152.482621 81.9323844,153.479109 L81.9323844,128.817344 C81.9323844,126.580579 80.1137393,125.460476 75.111392,125.460476 L72.3867737,125.460476 L72.3867737,150.537094 L76.1737966,154.472653 C76.1737966,154.472653 67.4112011,155.652269 58.2938347,158.333462 L62.0808576,153.091021 L62.0808576,128.421609 L58.5697889,124.504785 L62.0808576,120.255506 L62.0808576,97.3850647 L58.2938347,91.1831088 L72.7335294,94.2224324 C73.0627279,95.500925 73.7891019,97.9421529 74.9699798,100.081035 C74.8674034,100.076256 74.7655714,100.069756 74.6606095,100.069756 L72.3869454,99.5955426 L72.3869454,122.043484 L74.6606095,122.043484 C77.0342737,122.043484 78.7327469,121.786447 79.9087011,121.203359 C81.2851324,120.519903 81.9325561,119.374182 81.9325561,117.562785 L81.9325561,107.798638 C83.0895218,108.630256 86.5407622,110.890535 92.2348462,112.835756 L92.2348462,116.909535 C92.2348462,119.002918 91.2599225,120.4008 89.8380905,121.390329 C87.6863729,122.886285 84.4873271,123.420624 81.9323653,123.817315 C86.6317927,124.543785 92.2346553,125.596154 92.2346553,130.530859 L92.2346553,147.916065 L94.2138538,149.854021 L96.4949607,146.743579 L96.4949607,128.421226 L92.983892,124.504403 L96.4949607,120.255124 L96.4949607,114.097903 C97.2249225,114.28669 97.9787393,114.460832 98.7611821,114.628112 C98.7611821,114.628112 100.438777,108.243009 106.648205,102.832715 L106.648205,122.499038 C108.852403,122.499038 110.851068,122.472446 112.570915,121.177225 C113.451163,120.515276 114.260743,119.543259 114.978739,118.025872 L117.103358,113.552725 L118.616659,113.552725 L118.616659,134.675813 L117.103358,134.675813 L114.978739,130.594578 C112.555075,125.791269 110.436373,125.792799 106.648205,125.792799 L106.648205,147.307799 L109.525686,147.307799 C111.496106,147.307799 113.312518,147.114079 114.829694,146.258565 C115.807747,145.711322 116.676965,144.999629 117.476068,144.208579 C119.279503,142.428249 120.690762,140.208212 121.952594,138.293962 L125.739617,132.502653 L127.252919,132.502653 L125.411621,147.972271 L128.028224,146.041771 L137.901888,121.286329 L135.740056,116.368697 C134.141774,116.815572 132.546545,116.891603 131.136812,116.26789 C128.72269,115.194912 127.312575,112.325449 126.954751,107.739699 C126.845018,105.306978 126.902575,103.55389 126.902575,103.55389 L128.799522,103.347419 C128.799522,103.347419 129.499808,106.396493 131.844751,107.495757 L129.828339,102.914213 L124.613835,99.2736397 L126.194216,114.724522 L124.52809,114.724522 L120.133625,107.880213 C115.889732,101.169919 113.922174,100.774566 109.52561,100.774566 L109.313148,100.774566 C110.839865,99.7398235 112.578224,98.7930221 114.546354,97.9853015 L124.528224,98.4035 L129.012194,98.3624353 L128.956277,97.3169485 C128.837003,95.1853309 129.058262,93.3580662 129.597384,91.8429926 C101.8283,96.7026985 97.9714302,113.541522 97.9714302,113.541522 C75.5687584,109.473287 74.9027279,90.5296103 74.9733385,87.046375 C70.2714302,86.1813015 65.8088347,85.221825 61.5699034,84.2085515 C55.3055905,68.3431985 55.2744836,43.0578162 80.2363156,5.34061029 L80.2338538,5.34353529 Z" id="Shape" fill="#FFC600"></path>
                <path d="M148.121258,99.5398147 C146.756755,103.105256 145.71706,106.576447 145.71706,108.684168 L145.81769,109.81555 L145.13185,110.465244 C144.690533,110.881053 143.676239,111.800344 142.347499,112.806391 L144.557804,119.254774 L150.264293,102.594126 L148.121163,99.5397 L148.121258,99.5398147 Z M163.91019,97.7661941 L158.598739,102.336459 L151.211144,121.278606 L161.081182,147.047282 L164.558854,150.512356 L166.772976,148.0479 L166.772976,128.675988 L163.265533,124.759165 L166.772976,120.513709 L166.772976,101.474444 L163.910381,97.7665765 L163.91019,97.7661941 Z M184.015152,97.6877735 C182.587384,97.7354147 181.143396,97.9715559 179.806945,97.9715559 L176.929465,98.1843926 L176.929465,122.532628 C179.133663,122.532628 181.12851,122.503646 182.848548,121.210815 C183.728797,120.546476 184.543434,119.576849 185.263816,118.059462 L187.380991,113.582491 L188.901755,113.582491 L188.901755,134.705579 L187.380991,134.705579 L185.263816,130.628168 C182.840152,125.822374 180.717632,125.822565 176.929465,125.822565 L176.929465,149.2933 C176.929465,149.2933 181.776029,149.295093 185.110953,149.278388 C186.086621,148.733535 186.956888,148.017063 187.753701,147.228403 C189.554751,145.448072 190.972022,143.231859 192.234045,141.317609 L196.021068,134.488212 L197.53809,134.488212 L195.439617,158.624241 L199.368243,154.300403 L199.368243,106.785403 C199.322823,106.732829 199.268243,106.687272 199.222823,106.632309 C198.249541,105.461353 197.772881,104.053721 197.355438,102.808779 C196.895018,101.449037 196.50664,100.366882 195.666945,99.7096176 L196.475781,107.789882 L194.809655,107.789882 L190.41519,100.945574 C188.72435,98.04925 186.394197,97.6114559 184.014426,97.6898382 L184.015152,97.6877735 Z M93.0647698,97.6093529 C92.9383385,98.2880294 92.8001324,99.3017235 92.8001324,100.57775 C92.8001324,103.302015 93.4603233,107.034926 96.3037584,110.289706 C96.3777088,109.654044 96.6369836,107.862147 97.1498653,107.250382 C96.8516782,106.932551 93.1863156,102.845294 93.0647508,97.6093529 L93.0647698,97.6093529 Z M135.280419,95.6528529 C134.559999,95.6528529 133.542289,96.6138206 132.559426,98.2293382 L132.496068,98.3376206 L138.754274,98.2778779 L138.754274,98.2740544 C138.754274,98.2644956 138.796907,97.3059176 138.150438,96.5937853 C137.585075,95.9700721 136.621029,95.6528338 135.2804,95.6528338 L135.280419,95.6528529 Z M99.9273653,93.7468235 C99.2164874,95.7207206 98.2001134,100.006706 100.430552,104.410838 C100.645247,103.899441 101.25101,102.540903 101.768663,101.991309 C101.575438,101.628074 99.3740065,97.4652059 99.9273653,93.7468235 L99.9273653,93.7468235 Z M107.449121,91.9844059 C107.449121,91.9844059 105.522022,94.8147735 106.323472,98.6121118 C106.323472,98.6121118 107.389197,97.1104779 107.978415,96.9766544 C107.978415,96.9766544 106.649999,93.4756397 107.44914,91.9844632 L107.449121,91.9844059 Z M113.52164,91.8574456 C113.056468,92.3091 112.403434,94.6541662 112.403434,94.6541662 C112.868606,94.2049015 113.991277,94.0492647 113.991277,94.0492647 C113.478396,93.4231618 113.52164,91.8574265 113.52164,91.8574265 L113.52164,91.8574456 Z M194.86706,91.7080794 L195.239808,95.4719618 C195.924445,95.2449397 196.684064,95.1017103 197.502213,95.1471147 C198.151068,95.1829603 198.763396,95.3666618 199.362155,95.6175809 L199.362155,94.7923868 L196.879713,92.0105779 C196.149751,91.9269382 195.480018,91.8347912 194.866926,91.7081368 L194.86706,91.7080794 Z M172.029274,87.4027853 C164.915724,88.6573809 157.305419,89.7018735 149.233472,90.4235647 L151.156755,92.4697265 L150.601373,93.6645794 C149.993071,94.9789176 149.374331,96.3940059 148.789884,97.8278294 L162.987403,96.5769618 L173.245037,94.8033412 C173.3333,92.8747529 173.225056,89.83065 172.029923,87.4027088 L172.029274,87.4027853 Z M188.601029,83.9264324 C187.801888,84.1199985 187.012728,84.3140044 186.196831,84.5051809 L186.185571,84.5537206 C186.104465,84.8572132 184.796468,89.6097647 181.485381,93.3807206 L193.48748,91.3047353 C191.395304,90.4850662 189.967823,88.6772059 188.600839,83.9264706 L188.601029,83.9264324 Z M103.81477,66.9631529 C103.707423,71.3124176 108.154083,76.7901971 111.183663,80.0019618 L115.212861,80.1550559 C116.0454,79.0796882 116.960991,78.2060118 116.960991,78.2060118 C109.2629,77.2429603 103.814617,66.9631147 103.814617,66.9631147 L103.81477,66.9631529 Z M143.711716,63.7968882 C142.948358,64.3297926 142.216602,64.8819676 141.520113,65.4435485 C142.875075,65.4292103 145.629083,65.4174147 146.261335,65.5966426 C146.261335,65.5966426 145.133587,65.0228074 143.711907,63.7968882 L143.711716,63.7968882 Z M111.553319,60.2572559 C113.518968,71.5580794 119.283854,75.7978 119.283854,75.7978 C120.536239,73.6925647 122.981373,72.6238882 122.981373,72.6238882 C116.602556,70.5997118 111.553319,60.2570647 111.553319,60.2570647 L111.553319,60.2572559 Z M120.730037,57.2066529 C122.130323,65.9170353 125.616487,70.9772853 125.616487,70.9772853 C127.69435,69.4096382 129.571258,68.7929029 129.571258,68.7929029 C124.466297,66.3458441 120.730037,57.2066529 120.730037,57.2066529 L120.730037,57.2066529 Z M130.34664,56.6054985 C130.34664,56.6054985 130.055304,63.8575868 132.545686,67.1911309 C132.545686,67.1911309 133.231659,66.9578382 134.040342,66.7355956 C134.169159,65.9541618 134.286201,65.1905074 134.372079,64.4615515 C133.005667,62.9359632 131.314827,60.4181691 130.34727,56.6061103 L130.34664,56.6054985 Z M157.713052,32.0221162 C157.713052,32.0221162 157.078949,38.3231015 152.804083,41.0544397 C154.423835,42.7415721 155.979655,44.1367779 157.437098,45.2886162 L163.613243,49.1457926 C164.491106,49.5448735 165.282499,49.8471809 165.983854,50.0718132 C163.817823,47.2829309 158.433281,39.6570926 157.712861,32.0220779 L157.713052,32.0221162 Z M125.684426,28.5683221 L119.907136,36.9733956 C119.907136,36.9733956 111.85809,31.6535279 110.264579,30.5995721 C109.851888,31.6295353 108.457575,35.1021603 107.372213,37.8097926 C109.387861,38.8660426 111.555037,39.7553956 113.868968,40.445925 C120.27393,38.0992338 125.565342,36.1631897 125.565342,36.1631897 L134.59664,39.9867191 C134.935381,39.3104324 135.244006,38.6230956 135.513568,37.9181897 L125.68456,28.5685132 L125.684426,28.5683221 Z M140.157709,27.044875 C140.157709,27.044875 143.151793,40.2284044 133.843587,46.6595809 C133.843587,46.6595809 141.065152,54.7981544 135.442613,68.8360515 C135.442613,68.8360515 144.494522,56.5260074 154.709789,58.3922721 C155.055686,58.4639632 155.385037,58.5398412 155.697537,58.6163118 C155.642671,58.7142897 155.574694,58.8345206 155.488797,58.9635647 C155.204923,59.2622779 148.590323,66.2869618 154.005323,74.7990941 C156.669827,78.9977118 159.94311,79.7389029 163.733758,80.6016824 C165.899789,81.0939618 168.141201,81.6046132 170.331087,82.8233441 C174.472308,85.1270206 175.206468,90.3453735 175.206468,93.7674324 C175.206468,94.4532779 175.173816,95.0392147 175.135648,95.5410529 C180.376487,93.7439941 183.033358,87.7559647 183.947098,85.2205824 C174.600724,84.67095 170.844999,78.3078324 170.506258,72.8090235 C170.384598,70.7777735 168.000152,67.5832147 166.98393,66.3979206 C166.98393,66.3979206 165.707098,65.5743706 164.344999,64.2695529 C163.321621,63.196575 162.465228,62.0201706 161.840228,61.0547294 C161.327346,60.0438838 161.044064,58.9598176 161.199121,57.8509941 C163.863625,63.2517294 167.463243,64.8193765 169.27622,65.2590824 C169.572022,65.3307735 169.927766,65.3949897 170.237881,65.4308353 C172.919178,65.7534456 176.687117,65.2232368 180.107919,65.2590824 C181.546373,65.2757147 182.938835,65.3954485 184.207919,65.7108897 C187.786163,66.6094191 191.404293,69.8741397 193.496468,72.0510662 C193.496468,71.9913235 193.488835,71.9291912 193.488835,71.8718382 C193.488835,64.3847941 195.739026,59.7372941 197.380247,57.3357353 C193.513453,58.1888603 192.078339,60.3721912 192.009064,60.4796324 L191.192766,61.8014456 L190.372747,60.4908353 C188.006335,56.7007618 177.620839,56.9206147 173.815877,57.3245706 L171.10977,57.6120809 C171.10977,57.6120809 174.218548,54.4991544 175.325419,53.3928162 C172.725228,53.2207574 169.807098,52.7749338 166.722747,52.1344926 L166.66311,52.1643735 C164.284865,51.6195206 151.121697,47.7698 140.157384,27.0456971 L140.157709,27.044875 Z M79.6787011,10.9218162 C79.6787011,10.9218162 67.759808,42.8387279 82.6046553,69.9360809 C82.6046553,69.9360809 83.8600179,68.8269515 86.2575179,68.1960691 C86.2575179,68.1960691 70.4254569,47.3884221 79.6787011,10.9215103 L79.6787011,10.9218162 Z M82.0813729,10.8688603 C85.847976,35.2859191 110.934426,47.5919485 110.934426,47.5919485 C81.9058004,46.0266912 88.7569454,70.0360662 88.7569454,70.0360662 C88.7569454,70.0360662 74.6388156,73.2413309 74.9918691,86.4803015 C74.9918691,86.4803015 81.1823271,95.9869338 89.2453042,95.9869338 C104.097403,85.6419926 126.218587,88.3421691 131.174694,89.1164338 C131.895113,88.3588971 132.839331,87.7680471 133.876984,87.4287088 C135.828319,86.8073853 138.308854,86.9570382 141.290724,87.8842441 C141.796449,88.0419647 142.081812,88.5812926 141.924369,89.0903 C141.764541,89.5993074 141.226163,89.8827838 140.720438,89.7250632 C137.042003,88.5780044 134.369865,88.7475206 132.781125,90.2291382 C130.992003,91.8923735 130.767384,94.9412559 130.891354,97.2114765 C131.933816,95.5004471 133.449751,93.7016676 135.274751,93.7016676 C137.185438,93.7016676 138.635438,94.2320294 139.587346,95.2811103 C140.842117,96.6671397 140.687957,98.4206103 140.683186,98.4324632 C140.666392,98.8984559 140.212652,109.843404 133.631087,109.843404 C131.539102,109.843404 129.985858,108.840034 128.886239,107.58064 C129.182041,111.346816 130.200056,113.714919 131.912766,114.47714 C135.364674,116.006551 141.388339,111.309728 143.788148,109.044287 C143.778606,108.927191 143.76206,108.825026 143.76206,108.700762 C143.76206,104.115012 147.663777,95.3677324 148.834961,92.8464971 C148.042976,91.9981515 140.100228,83.5285559 139.613587,83.0076 L86.6212202,81.0061735 C86.6212202,81.0061735 87.1915065,81.0290191 96.5546172,79.0383941 C96.2063347,75.3653206 96.2142355,65.8697765 104.53477,59.9169235 C114.398892,52.8577324 127.015686,53.0785412 133.828663,53.8791882 C132.402136,48.3637471 129.508625,46.2359529 129.508625,46.2359529 C131.199942,44.9717985 132.550419,43.4199235 133.631144,41.6993353 C129.544884,40.1125706 126.594312,38.8762324 125.587632,38.4508647 C125.442117,38.5034382 122.383434,39.6185324 117.614923,41.3557912 C120.036297,41.8098353 122.601564,42.0493985 125.330571,42.0278912 C128.217022,42.0039941 127.434197,49.4499353 118.133052,46.7662 C117.736106,46.6228176 117.346793,46.4698765 116.963205,46.3188471 C88.6158767,35.2344353 83.0166401,15.5145824 82.0796172,10.8728176 L82.0813729,10.8688603 Z" id="Shape" fill="#FFC600"></path>
                <path d="M141.064504,31.3048452 C141.064504,31.3048452 142.409643,43.1131241 148.988662,48.1744706 C148.988662,48.1744706 142.13415,44.8019602 134.798918,46.2478134 C134.798918,46.2478134 143.698447,47.6957121 147.665583,52.6326613 C147.665583,52.6326613 139.952111,57.049176 138.272738,62.5909441 C138.272738,62.5909441 145.724191,53.8947957 154.922572,56.1649936 C154.922572,56.1649936 152.114203,50.9442076 154.27775,48.2939547 C154.27775,48.2939547 145.718484,43.7334856 141.064523,31.3048452 L141.064504,31.3048452 Z M158.45975,51.1697936 C161.226898,54.4006436 168.978156,57.5697443 168.978156,57.5697443 L166.268451,55.1762388 C167.98601,55.5609776 170.506385,54.4481314 170.506385,54.4481314 C163.941566,55.0455519 158.45975,51.16987 158.45975,51.16987 L158.45975,51.1697936 Z M217.970605,60.0190727 C215.092962,59.8942357 212.18803,61.0091849 209.31573,63.3384366 C207.724601,64.6288649 206.735222,66.5067726 205.692866,68.494988 C203.54365,72.6004616 201.100354,77.2479151 192.412464,78.9684862 L189.039215,79.6368516 L192.270862,80.8167618 C192.442616,80.8812832 194.054642,81.4567378 196.344867,81.9107773 C200.309523,82.6993724 206.317669,83.1203005 210.5161,79.8870035 C211.828148,78.8785577 212.842222,77.6603934 213.74393,76.3772297 C214.385622,75.4643712 214.977811,74.5173307 215.547939,73.5805371 C218.136081,69.3221238 220.184343,65.955731 226.975878,67.8005655 L229.350091,68.4427973 L228.041822,66.359377 C227.905945,66.1443056 224.667237,61.0581065 219.204314,60.1500273 C218.794605,60.081625 218.381689,60.037177 217.970567,60.0193404 L217.970605,60.0190727 Z M189.383105,61.6657166 C189.383105,61.6657166 189.504249,65.6383239 191.787279,68.5323244 C191.787279,68.5323244 191.428676,64.6770982 193.34902,62.2705929 C193.34902,62.2705929 191.185873,63.8350125 190.944845,64.3131019 C190.944845,64.3131019 189.502379,62.8702692 189.383105,61.6657166 Z M24.1290324,79.0356458 L27.6028526,86.3840135 L27.6028526,120.88911 L24.2444893,124.473633 L27.6028526,128.267301 L27.6028526,165.248107 L24.1290324,169.766136 L40.3389848,163.616432 C47.5454013,161.398807 51.8734115,158.966302 54.4617444,156.54068 C57.3720206,153.804589 58.0697235,151.079778 58.0697235,148.673464 L58.0697235,102.336575 C58.0697235,93.7505428 53.1760702,91.8575323 43.5221591,87.6325745 L24.1196814,79.0354546 L24.1290324,79.0356458 Z M38.8220153,91.8802821 L41.4013788,92.8137492 C46.4394963,94.6442647 48.5205824,99.2358761 48.5205824,101.472618 L48.5205824,146.119525 C48.5205824,150.28713 47.3106517,152.705106 45.3188969,154.322825 C43.6466617,155.680184 41.4296228,156.48176 38.8222061,157.18662 L38.8222061,91.8813909 L38.8220153,91.8802821 Z M122.599803,157.428303 C120.902397,157.488007 120.382078,157.802432 120.382078,158.537268 L120.382078,167.084109 C120.382078,168.0591 121.306782,168.353623 124.713141,168.473107 L131.06823,168.697145 L131.06823,162.446693 L125.753016,162.259991 L125.753016,163.141192 L127.601757,163.204661 L127.601757,167.700322 L123.964007,167.573363 L123.964007,158.298338 L127.601757,158.425297 L127.601757,160.426704 L130.892946,160.538713 L130.892946,157.667271 L124.713046,157.450709 C123.861432,157.420235 123.165428,157.408478 122.599708,157.428303 L122.599803,157.428303 Z M108.469601,157.977184 C107.911744,157.966479 107.227591,157.985214 106.389851,158.029451 L104.194453,158.141461 C100.84525,158.320687 99.919305,158.633869 99.919305,159.608878 L99.919305,168.521627 L98.3612863,168.603775 L98.3612863,169.481228 L103.501311,169.212398 L103.501311,163.839437 L107.07952,163.649008 L107.07952,169.021969 L112.219545,168.749393 L112.219545,167.87194 L110.661526,167.957815 L110.661526,159.045066 C110.661526,158.315621 110.14342,158.009321 108.469945,157.977184 L108.469601,157.977184 Z M142.370026,157.992096 C140.672256,157.932507 140.155926,158.20732 140.155926,158.936766 L140.155926,167.491063 C140.155926,168.466053 141.078245,168.827793 144.486989,169.186246 L146.622655,169.410283 C150.026819,169.771125 150.957535,169.602222 150.957535,168.622434 L150.957535,160.075593 C150.957535,159.098213 150.026819,158.743641 146.622655,158.38041 L144.486989,158.160119 C143.633944,158.070267 142.934772,158.016853 142.369835,157.995824 L142.369835,157.992 L142.370026,157.992096 Z M107.080302,158.869549 L107.080302,162.775245 L103.502094,162.961946 L103.502094,159.060073 L107.080302,158.869645 L107.080302,158.869549 Z M143.738332,158.951697 L147.379899,159.336282 L147.379899,168.61494 L143.738332,168.226626 L143.738332,158.955425 L143.738332,158.951601 L143.738332,158.951697 Z M159.105927,159.399752 L159.105927,160.273478 L160.667667,160.55351 L160.667667,169.824711 L159.105927,169.548407 L159.105927,170.42586 L164.245952,171.333193 L164.245952,161.184501 L167.827977,161.826733 L167.827977,171.971602 L172.964185,172.882663 L172.964185,172.00521 L171.409907,171.725178 L171.409907,162.808605 C171.409907,161.833615 170.542225,161.42301 167.130942,160.818478 L159.106022,159.3996 L159.105927,159.399752 Z M87.753587,159.989698 C87.1932682,160.008433 86.4998591,160.064371 85.647692,160.153993 L77.6227723,161.005313 L77.6227723,161.87531 L79.1807911,161.714762 L79.1807911,170.993419 L77.6227723,171.157714 L77.6227723,172.027711 L82.7627972,171.490033 L82.7627972,166.120704 L86.337189,165.739846 L86.337189,171.109175 L91.4808398,170.567769 L91.4808398,169.690316 L89.9190997,169.858339 L89.9190997,166.087039 C89.9190997,165.377303 89.4637798,165.127438 88.0181836,165.127438 C89.4637798,164.812 89.9190997,164.484174 89.9190997,163.772048 L89.9190997,160.941709 C89.9190997,160.21406 89.4345816,159.933569 87.7534725,159.989564 L87.753587,159.989698 Z M86.337208,160.964249 L86.337208,164.862489 L82.7628163,165.243347 L82.7628163,161.341474 L86.337208,160.964344 L86.337208,160.964249 Z M69.0089462,162.984199 C68.3660519,162.956708 67.2980473,163.157594 65.5946674,163.585347 L57.562305,165.590386 L57.562305,166.482789 L59.1240451,166.094475 L59.1240451,175.354588 L57.562305,175.739174 L57.562305,176.616627 L65.5946674,174.615221 C69.0011219,173.762104 69.8698155,173.277936 69.8698155,172.307744 L69.8698155,163.760903 C69.8698155,163.271018 69.6516879,163.011728 69.0088126,162.984256 L69.0089462,162.984199 Z M181.53263,163.67497 C180.881702,163.688926 180.649261,163.937988 180.649261,164.425483 L180.649261,167.617907 C180.649261,168.592897 181.519329,169.072592 184.928226,169.992677 L187.813121,170.765596 L187.813121,175.253801 L184.231096,174.297928 L184.231096,171.568529 L180.883992,170.676126 L180.883992,174.271929 L187.119807,175.952181 C190.473781,176.850701 191.394955,176.832483 191.394955,175.855103 L191.394955,172.087626 C191.394955,171.112635 190.473686,170.598854 187.119807,169.697944 L184.231096,168.925025 L184.231096,165.023152 L187.813121,165.982753 L187.813121,167.987792 L191.164041,168.883922 L191.164041,166.008848 L184.928226,164.332343 C183.254788,163.884268 182.183597,163.664876 181.532649,163.678908 L181.532649,163.675085 L181.53263,163.67497 Z M66.2837826,164.302252 L66.2837826,173.547262 L62.7055741,174.443393 L62.7055741,165.198383 L66.2837826,164.302252 Z" id="Shape" fill="#07294D"></path>
                <path d="M217.867442,61.9449618 C215.476984,61.8551471 213.013434,62.8255588 210.535762,64.8349765 C209.252365,65.8768882 208.396068,67.5049471 207.408472,69.3903294 C205.473739,73.0823294 203.117632,77.5480206 196.304655,79.9163147 C199.909235,80.6786309 205.614961,81.2388735 209.357709,78.3592779 C211.321068,76.8442044 212.639961,74.6787485 213.916297,72.5828809 C216.249312,68.7402338 218.680037,64.814425 224.830037,65.4548662 C223.525171,64.1022926 221.489961,62.4797779 218.884999,62.0496309 C218.546564,61.9934824 218.20893,61.9579044 217.867442,61.9450765 L217.867442,61.9449618 Z M217.092155,84.6070206 C215.771526,84.6306118 214.454751,85.0416412 212.813148,85.5629029 C209.511621,86.6167632 204.987766,88.0560353 197.106087,87.1908853 C196.0183,87.0737897 193.04559,85.9864735 191.041774,85.2194735 C192.587575,89.5710324 194.130896,89.7646941 197.329751,90.1183706 C198.963816,90.2999882 200.994255,90.5282147 203.513339,91.3430853 C207.327842,92.5737838 209.881659,94.8244088 213.629369,100.263379 C215.592728,103.107129 218.617537,103.650262 220.60685,103.657526 C215.983758,99.0979676 213.978987,94.9199971 214.706468,91.2423353 C215.324312,88.0569529 217.779369,86.0798059 219.544636,85.0403794 C218.676907,84.7177691 217.884407,84.5930838 217.091965,84.60725 L217.092155,84.6070206 Z M197.418491,97.0707706 C196.714789,97.0277559 196.053854,97.2038485 195.476506,97.4404294 C197.809522,98.2433706 198.537194,100.303488 199.174026,102.19365 C199.55809,103.32876 199.957957,104.50115 200.702232,105.397385 C201.737537,106.640032 203.476659,107.147835 205.029713,107.338974 C202.887537,105.479782 202.292117,103.317768 201.831621,101.618591 C201.56685,100.626863 201.337842,99.7735853 200.877423,99.1952382 C199.823033,97.8617824 198.658911,97.1423853 197.418453,97.0706941 L197.418491,97.0707706 Z" id="Shape" stroke="#9E0B0F" stroke-width="0.572519084" fill="#9E0B0F"></path>
            </g>
        </g>
    </g>
</svg>