<?xml version="1.0" encoding="UTF-8" standalone="no"?>
<svg width="250px" height="250px" viewBox="0 0 250 250" version="1.1" xmlns="http://www.w3.org/2000/svg" xmlns:xlink="http://www.w3.org/1999/xlink">
    <!-- Generator: Sketch 47.1 (45422) - http://www.bohemiancoding.com/sketch -->
    <title>DEL</title>
    <desc>Created with Sketch.</desc>
    <defs>
        <path d="M9.05412371,1.62155224 C9.18041237,1.61380597 9.30670103,1.61122388 9.43298969,1.61122388 C10.507732,1.61122388 11.5128866,1.903 12.2164948,2.64147761 C19.8582474,9.91264179 27.2731959,17.4394328 35.2190722,24.6486269 C27.0335052,25.0385224 29.9639175,34.2798209 32.9407216,38.3104627 C35.007732,41.5613134 39.0902062,40.3477313 41.6134021,40.2702687 C43.2087629,43.0847463 37.4149485,45.0238955 33.7087629,46.2090746 C27.5850515,43.4462388 18.8505155,41.664597 14.378866,37.7656418 C3.49484536,28.7283284 -1.19072165,14.8599254 4.14175258,3.98674627 C4.87371134,2.84804478 7.03092784,1.75323881 9.05412371,1.62155224 Z M66.7706186,21.1111642 C66.6159794,21.1111642 66.4613402,21.162806 66.2551546,21.2144478 C65.2757732,22.7895224 65.1984536,25.1392239 66.9510309,26.6368358 C67.1829897,25.1908657 67.0541237,23.8481791 67.5695876,22.5571343 C67.7938144,22.1827313 67.8247423,21.1085821 66.8737113,21.1085821 C66.8402062,21.1085821 66.806701,21.1085821 66.7706186,21.1111642 Z M36.0257732,28.0595672 C36.371134,27.8788209 36.6572165,27.8065224 36.8994845,27.8065224 C36.9716495,27.8065224 37.0386598,27.8142687 37.1030928,27.8271791 C37.9381443,27.9537015 38.0773196,29.0123582 37.9020619,29.4538955 C37.5103093,31.1038507 37.9407216,32.7073284 37.9536082,34.4863881 C35.5154639,32.9887761 35.1494845,30.1226567 36.0257732,28.0595672 Z" id="path-1"></path>
        <path d="M1.48969072,4.4721791 C5.18556701,5.39398507 11.7680412,5.42755224 15.4536082,6.66953731 C13.8685567,4.46959701 11.0309278,2.84546269 7.44072165,1.79455224 C7.21907216,1.69385075 6.95103093,1.64737313 6.65463918,1.63704478 C6.62628866,1.63704478 6.59793814,1.63704478 6.56958763,1.63704478 C4.49226804,1.63704478 1.04123711,3.56586567 1.48969072,4.4721791 Z" id="path-3"></path>
    </defs>
    <g id="Page-1" stroke="none" stroke-width="1" fill="none" fill-rule="evenodd">
        <g id="DEL">
            <g id="Delaware_Fightin'_Blue_Hens_logo" transform="translate(0.000000, 39.000000)">
                <g id="Group-13" transform="translate(0.000000, 0.495761)">
                    <path d="M160.262887,0.85518806 C153.615979,0.532426866 146.675258,1.4878 140.832474,4.29453134 C131.886598,7.8397403 125.726804,14.5867403 121.889175,21.8243373 C121.876289,21.4137851 121.845361,20.9954866 121.845361,20.5875164 C121.845361,15.7435164 122.56701,11.4779045 123.012887,10.0164418 C123.121134,9.66527761 123.17268,9.30378507 123.17268,8.94229254 C123.17268,8.01790448 122.822165,7.10384478 122.162371,6.41184478 C121.244845,5.45388955 119.884021,5.06657612 118.603093,5.40224776 C113.832474,6.64939701 111.5,8.66859104 107.96134,11.7283672 L105.92268,13.481606 C105.737113,13.6416955 105.546392,13.8327701 105.399485,14.0264269 C99.7164948,21.3208299 97.371134,26.5908746 96.5154639,31.5717254 C96.3608247,31.2825313 96.2113402,30.9778448 95.9768041,30.7299642 C94.9974227,29.6971284 93.507732,29.3278896 92.1597938,29.7875015 C86.2268041,31.8066955 82.8041237,37.8152179 82.5206186,46.697606 C82.5128866,46.8060537 82.5103093,46.9093373 82.5103093,47.0203672 C82.5103093,48.2907552 82.9561856,49.5559791 83.435567,50.7928 C75.2860825,51.8901881 68.1340206,55.1513672 63.8041237,59.9101582 C63.1829897,60.5944119 62.8530928,61.4749045 62.8530928,62.3760537 C62.8530928,62.7607851 62.9149485,63.1506806 63.0386598,63.5302478 C63.6520619,65.3661134 64.814433,66.4609194 66.1804124,67.1477552 C59.6237113,72.820606 57.6340206,77.866009 57.6340206,81.8630836 C57.6340206,84.1766358 58.306701,86.0899642 59.1134021,87.6314716 C53.7706186,90.151591 46.9149485,92.8679493 37.0335052,96.7333373 C27.4716495,100.487696 22.9304124,107.562621 22.6726804,112.907546 C22.6623711,113.062472 22.6623711,113.217397 22.6623711,113.372322 C22.6623711,115.825307 23.6572165,117.813516 25.3453608,118.846352 C23.1134021,120.085755 20.8402062,121.325158 18.6108247,122.461278 C9.40721649,127.186501 6.52319588,126.515158 6.49484536,126.489337 L6.42525773,126.489337 C4.94329897,125.972919 3.42268041,126.127845 2.2371134,127.599636 C1.62628866,128.348442 1.28865979,129.200531 1.28865979,130.052621 C1.28865979,130.853069 1.59020619,131.653516 2.23969072,132.299039 C2.24484536,132.299039 2.26804124,132.32486 2.27061856,132.32486 C2.90463918,132.944561 13.3247423,143.092173 24.0386598,144.796352 C27.7371134,145.390233 33.0953608,145.390233 37.814433,145.209487 C37.6494845,145.855009 37.564433,146.500531 37.564433,147.146054 C37.564433,148.979337 38.257732,150.812621 39.6030928,152.413516 C44.371134,158.094113 52.9561856,161.140979 65.8427835,161.683218 C74.4072165,162.04471 83.3505155,162.122173 87.5592784,162.147994 C88.4484536,163.697248 90,165.530531 92.8092784,167.286352 C97.2396907,170.075009 105.958763,169.713516 122.902062,166.07277 C137.554124,162.8968 145.17268,158.946203 149.167526,155.744412 C157.621134,158.739636 182.018041,167.105606 192.21134,167.467099 C206.670103,168.009337 215.742268,163.516501 218.036082,159.126949 C218.912371,157.396949 218.835052,155.537845 217.778351,154.117696 C217.262887,153.446352 215.690722,151.897099 212.623711,152.490979 C211.695876,152.439337 209.840206,151.07083 207.701031,149.030979 C213.087629,149.676501 218.190722,150.296203 218.525773,150.347845 C219.170103,150.554412 234.659794,155.486203 234.659794,155.486203 C234.685567,155.537845 234.71134,155.537845 234.78866,155.537845 C234.814433,155.537845 241.670103,158.326501 245.046392,153.807845 C246.412371,151.974561 248.113402,149.960531 247.572165,143.195457 C247.572165,143.221278 246.902062,139.55471 246.902062,139.580531 L245.716495,135.862322 C241.412371,123.829785 232.005155,117.477845 221.231959,110.9968 C219.092784,109.705755 217.056701,108.466352 215.123711,107.226949 C216.051546,105.032173 216.850515,102.501725 216.850515,99.7130687 C216.850515,98.4736657 216.695876,97.2084418 216.360825,95.9070687 C216.231959,95.5223373 216.07732,95.1556806 215.845361,94.822591 C215.793814,94.7425463 215.793814,94.7244716 215.742268,94.6573373 C217.262887,93.2475164 219.530928,90.6964119 220.742268,84.9796657 C220.768041,84.9280239 220.768041,84.8712179 220.793814,84.816994 C220.768041,84.845397 220.768041,84.8712179 220.768041,84.902203 C221.953608,80.6159343 222.520619,76.0120687 222.520619,71.2403672 C222.520619,45.9333075 206.231959,16.0327104 177.951031,5.06657612 C173.270619,2.7736806 166.909794,1.17536716 160.262887,0.85518806" id="Fill-1" fill="#FBDC00"></path>
                    <path d="M160.262887,0.85518806 C153.615979,0.532426866 146.675258,1.4878 140.832474,4.29453134 C131.886598,7.8397403 125.726804,14.5867403 121.889175,21.8243373 C121.876289,21.4137851 121.845361,20.9954866 121.845361,20.5875164 C121.845361,15.7435164 122.56701,11.4779045 123.012887,10.0164418 C123.121134,9.66527761 123.17268,9.30378507 123.17268,8.94229254 C123.17268,8.01790448 122.822165,7.10384478 122.162371,6.41184478 C121.244845,5.45388955 119.884021,5.06657612 118.603093,5.40224776 C113.832474,6.64939701 111.5,8.66859104 107.96134,11.7283672 L105.92268,13.481606 C105.737113,13.6416955 105.546392,13.8327701 105.399485,14.0264269 C99.7164948,21.3208299 97.371134,26.5908746 96.5154639,31.5717254 C96.3608247,31.2825313 96.2113402,30.9778448 95.9768041,30.7299642 C94.9974227,29.6971284 93.507732,29.3278896 92.1597938,29.7875015 C86.2268041,31.8066955 82.8041237,37.8152179 82.5206186,46.697606 C82.5128866,46.8060537 82.5103093,46.9093373 82.5103093,47.0203672 C82.5103093,48.2907552 82.9561856,49.5559791 83.435567,50.7928 C75.2860825,51.8901881 68.1340206,55.1513672 63.8041237,59.9101582 C63.1829897,60.5944119 62.8530928,61.4749045 62.8530928,62.3760537 C62.8530928,62.7607851 62.9149485,63.1506806 63.0386598,63.5302478 C63.6520619,65.3661134 64.814433,66.4609194 66.1804124,67.1477552 C59.6237113,72.820606 57.6340206,77.866009 57.6340206,81.8630836 C57.6340206,84.1766358 58.306701,86.0899642 59.1134021,87.6314716 C53.7706186,90.151591 46.9149485,92.8679493 37.0335052,96.7333373 C27.4716495,100.487696 22.9304124,107.562621 22.6726804,112.907546 C22.6623711,113.062472 22.6623711,113.217397 22.6623711,113.372322 C22.6623711,115.825307 23.6572165,117.813516 25.3453608,118.846352 C23.1134021,120.085755 20.8402062,121.325158 18.6108247,122.461278 C9.40721649,127.186501 6.52319588,126.515158 6.49484536,126.489337 L6.42525773,126.489337 C4.94329897,125.972919 3.42268041,126.127845 2.2371134,127.599636 C1.62628866,128.348442 1.28865979,129.200531 1.28865979,130.052621 C1.28865979,130.853069 1.59020619,131.653516 2.23969072,132.299039 C2.24484536,132.299039 2.26804124,132.32486 2.27061856,132.32486 C2.90463918,132.944561 13.3247423,143.092173 24.0386598,144.796352 C27.7371134,145.390233 33.0953608,145.390233 37.814433,145.209487 C37.6494845,145.855009 37.564433,146.500531 37.564433,147.146054 C37.564433,148.979337 38.257732,150.812621 39.6030928,152.413516 C44.371134,158.094113 52.9561856,161.140979 65.8427835,161.683218 C74.4072165,162.04471 83.3505155,162.122173 87.5592784,162.147994 C88.4484536,163.697248 90,165.530531 92.8092784,167.286352 C97.2396907,170.075009 105.958763,169.713516 122.902062,166.07277 C137.554124,162.8968 145.17268,158.946203 149.167526,155.744412 C157.621134,158.739636 182.018041,167.105606 192.21134,167.467099 C206.670103,168.009337 215.742268,163.516501 218.036082,159.126949 C218.912371,157.396949 218.835052,155.537845 217.778351,154.117696 C217.262887,153.446352 215.690722,151.897099 212.623711,152.490979 C211.695876,152.439337 209.840206,151.07083 207.701031,149.030979 C213.087629,149.676501 218.190722,150.296203 218.525773,150.347845 C219.170103,150.554412 234.659794,155.486203 234.659794,155.486203 C234.685567,155.537845 234.71134,155.537845 234.78866,155.537845 C234.814433,155.537845 241.670103,158.326501 245.046392,153.807845 C246.412371,151.974561 248.113402,149.960531 247.572165,143.195457 C247.572165,143.221278 246.902062,139.55471 246.902062,139.580531 L245.716495,135.862322 C241.412371,123.829785 232.005155,117.477845 221.231959,110.9968 C219.092784,109.705755 217.056701,108.466352 215.123711,107.226949 C216.051546,105.032173 216.850515,102.501725 216.850515,99.7130687 C216.850515,98.4736657 216.695876,97.2084418 216.360825,95.9070687 C216.231959,95.5223373 216.07732,95.1556806 215.845361,94.822591 C215.793814,94.7425463 215.793814,94.7244716 215.742268,94.6573373 C217.262887,93.2475164 219.530928,90.6964119 220.742268,84.9796657 C220.768041,84.9280239 220.768041,84.8712179 220.793814,84.816994 C220.768041,84.845397 220.768041,84.8712179 220.768041,84.902203 C221.953608,80.6159343 222.520619,76.0120687 222.520619,71.2403672 C222.520619,45.9333075 206.231959,16.0327104 177.951031,5.06657612 C173.270619,2.7736806 166.909794,1.17536716 160.262887,0.85518806" id="Fill-3" fill="#FBDC00"></path>
                    <path d="M160.262887,0.85518806 C153.615979,0.532426866 146.675258,1.4878 140.832474,4.29453134 C131.886598,7.8397403 125.726804,14.5867403 121.889175,21.8243373 C121.876289,21.4137851 121.845361,20.9954866 121.845361,20.5875164 C121.845361,15.7435164 122.56701,11.4779045 123.012887,10.0164418 C123.121134,9.66527761 123.17268,9.30378507 123.17268,8.94229254 C123.17268,8.01790448 122.822165,7.10384478 122.162371,6.41184478 C121.244845,5.45388955 119.884021,5.06657612 118.603093,5.40224776 C113.832474,6.64939701 111.5,8.66859104 107.96134,11.7283672 L105.92268,13.481606 C105.737113,13.6416955 105.546392,13.8327701 105.399485,14.0264269 C99.7164948,21.3208299 97.371134,26.5908746 96.5154639,31.5717254 C96.3608247,31.2825313 96.2113402,30.9778448 95.9768041,30.7299642 C94.9974227,29.6971284 93.507732,29.3278896 92.1597938,29.7875015 C86.2268041,31.8066955 82.8041237,37.8152179 82.5206186,46.697606 C82.5128866,46.8060537 82.5103093,46.9093373 82.5103093,47.0203672 C82.5103093,48.2907552 82.9561856,49.5559791 83.435567,50.7928 C75.2860825,51.8901881 68.1340206,55.1513672 63.8041237,59.9101582 C63.1829897,60.5944119 62.8530928,61.4749045 62.8530928,62.3760537 C62.8530928,62.7607851 62.9149485,63.1506806 63.0386598,63.5302478 C63.6520619,65.3661134 64.814433,66.4609194 66.1804124,67.1477552 C59.6237113,72.820606 57.6340206,77.866009 57.6340206,81.8630836 C57.6340206,84.1766358 58.306701,86.0899642 59.1134021,87.6314716 C53.7706186,90.151591 46.9149485,92.8679493 37.0335052,96.7333373 C27.4716495,100.487696 22.9304124,107.562621 22.6726804,112.907546 C22.6623711,113.062472 22.6623711,113.217397 22.6623711,113.372322 C22.6623711,115.825307 23.6572165,117.813516 25.3453608,118.846352 C23.1134021,120.085755 20.8402062,121.325158 18.6108247,122.461278 C9.40721649,127.186501 6.52319588,126.515158 6.49484536,126.489337 L6.42525773,126.489337 C4.94329897,125.972919 3.42268041,126.127845 2.2371134,127.599636 C1.62628866,128.348442 1.28865979,129.200531 1.28865979,130.052621 C1.28865979,130.853069 1.59020619,131.653516 2.23969072,132.299039 C2.24484536,132.299039 2.26804124,132.32486 2.27061856,132.32486 C2.90463918,132.944561 13.3247423,143.092173 24.0386598,144.796352 C27.7371134,145.390233 33.0953608,145.390233 37.814433,145.209487 C37.6494845,145.855009 37.564433,146.500531 37.564433,147.146054 C37.564433,148.979337 38.257732,150.812621 39.6030928,152.413516 C44.371134,158.094113 52.9561856,161.140979 65.8427835,161.683218 C74.4072165,162.04471 83.3505155,162.122173 87.5592784,162.147994 C88.4484536,163.697248 90,165.530531 92.8092784,167.286352 C97.2396907,170.075009 105.958763,169.713516 122.902062,166.07277 C137.554124,162.8968 145.17268,158.946203 149.167526,155.744412 C157.621134,158.739636 182.018041,167.105606 192.21134,167.467099 C206.670103,168.009337 215.742268,163.516501 218.036082,159.126949 C218.912371,157.396949 218.835052,155.537845 217.778351,154.117696 C217.262887,153.446352 215.690722,151.897099 212.623711,152.490979 C211.695876,152.439337 209.840206,151.07083 207.701031,149.030979 C213.087629,149.676501 218.190722,150.296203 218.525773,150.347845 C219.170103,150.554412 234.659794,155.486203 234.659794,155.486203 C234.685567,155.537845 234.71134,155.537845 234.78866,155.537845 C234.814433,155.537845 241.670103,158.326501 245.046392,153.807845 C246.412371,151.974561 248.113402,149.960531 247.572165,143.195457 C247.572165,143.221278 246.902062,139.55471 246.902062,139.580531 L245.716495,135.862322 C241.412371,123.829785 232.005155,117.477845 221.231959,110.9968 C219.092784,109.705755 217.056701,108.466352 215.123711,107.226949 C216.051546,105.032173 216.850515,102.501725 216.850515,99.7130687 C216.850515,98.4736657 216.695876,97.2084418 216.360825,95.9070687 C216.231959,95.5223373 216.07732,95.1556806 215.845361,94.822591 C215.793814,94.7425463 215.793814,94.7244716 215.742268,94.6573373 C217.262887,93.2475164 219.530928,90.6964119 220.742268,84.9796657 C220.768041,84.9280239 220.768041,84.8712179 220.793814,84.816994 C220.768041,84.845397 220.768041,84.8712179 220.768041,84.902203 C221.953608,80.6159343 222.520619,76.0120687 222.520619,71.2403672 C222.520619,45.9333075 206.231959,16.0327104 177.951031,5.06657612 C173.270619,2.7736806 166.909794,1.17536716 160.262887,0.85518806 Z" id="Stroke-5" stroke="#020303" stroke-width="2.57731959"></path>
                    <path d="M155.639175,4.51659104 C163.456186,4.1576806 171.365979,5.85927761 176.520619,8.42845672 C208.909794,20.9102776 224.115979,59.4892776 217.208763,84.0707701 C214.966495,94.8587403 209.064433,91.2980388 212.82732,96.8650239 C213.884021,100.771725 212.569588,104.670681 210.404639,108.543815 C222.492268,116.806501 235.997423,122.099785 241.899485,137.179188 C243.085052,140.897397 243.188144,140.897397 243.523196,143.531128 C244.734536,156.699785 235.765464,152.000382 235.765464,152.000382 L219.322165,146.75874 L198.652062,144.254113 C198.652062,144.254113 208.136598,157.13874 213.239691,156.080084 C218.342784,155.047248 212.440722,164.549337 192.337629,163.826352 C181.373711,163.439039 150.837629,152.465158 148.371134,151.561427 C145.904639,154.091875 139.268041,158.791278 122.128866,162.483666 C113.056701,164.446054 99.3685567,167.105606 94.7396907,164.187845 C90.1108247,161.295904 90.0335052,158.507248 90.0335052,158.507248 C90.0335052,158.507248 77.6958763,158.533069 65.9974227,158.016651 C54.2963918,157.526054 46.4304124,154.866501 42.3943299,150.063815 C39.3865979,146.500531 42.5025773,142.679039 47.2396907,140.949039 C40.4690722,141.56874 30.1005155,142.085158 24.6082474,141.207248 C14.8247423,139.632173 4.80670103,129.691128 4.80670103,129.691128 C4.80670103,129.691128 7.4742268,132.273218 20.2706186,125.71471 C33.0670103,119.156203 47.0902062,110.170531 47.0902062,110.170531 C47.0902062,110.170531 34.7860825,111.100084 29.7087629,115.231427 C24.6314433,119.336949 23.5953608,105.935904 38.3608247,100.152024 C52.2912371,94.6857403 59.878866,91.6517851 66.0515464,88.1814567 C66.0721649,88.1453075 66.0876289,88.1117403 66.1082474,88.075591 C65.257732,88.1117403 64.1417526,88.3028149 63.5360825,87.8070537 C58.5927835,81.788203 62.4201031,75.1057552 68.8556701,69.6472179 C71.121134,67.7338896 73.7216495,66.1639791 76.5721649,64.7515761 C73.3814433,64.0647403 67.5927835,65.6682179 66.5,62.3760537 C70.6701031,57.7954269 78.6185567,54.4051433 87.8685567,54.0539791 C88.6520619,52.551203 86.0206186,48.6651582 86.1623711,46.8783522 C86.3273196,41.4017403 87.9845361,35.0678746 93.3298969,33.2526657 C92.4278351,35.5249045 97.9613402,42.258994 100.020619,43.3873672 C99.3530928,33.6993672 98.9716495,28.2124269 108.275773,16.2754269 C113.219072,12.0898597 114.853093,10.1636209 119.520619,8.94229254 C118.744845,11.4675761 116.291237,25.7671881 121.036082,35.0368896 C122.770619,25.7852627 128.987113,12.8541582 142.273196,7.64350149 C146.28866,5.68627761 150.948454,4.73090448 155.639175,4.51659104" id="Fill-7" fill="#010202"></path>
                    <path d="M204.149485,109.130207 C203.298969,109.104387 203.041237,109.672446 202.525773,110.008118 C198.659794,112.254536 193.634021,111.402446 189.533505,110.34379 C189.087629,115.069013 191.030928,122.789461 180.190722,125.371551 C174.685567,126.714237 191.030928,129.709461 188.976804,131.826775 C179.275773,127.721252 160.087629,122.427969 151.404639,118.193342 C134.520619,114.087819 120.780928,109.749909 103.329897,114.707521 C101.025773,115.611252 98.6391753,117.599461 98.7396907,120.207372 C97.9896907,128.470058 113.079897,137.946327 128.716495,143.342894 C129.451031,143.110506 128.407216,142.3617 129.404639,141.948566 C132.453608,142.594088 134.907216,144.814685 138.185567,145.924984 C155.60567,152.560954 174.976804,158.267372 193.840206,161.546625 C197.551546,161.3917 202.757732,162.656924 205.154639,160.152297 C194.407216,159.532596 181.291237,154.859013 172.60567,151.063342 C162.319588,145.408566 152.662371,141.432148 148.559278,131.69767 C143.891753,131.620207 141.510309,134.099013 137.030928,133.324387 C136.283505,132.85961 135.773196,131.800954 136.474227,131.12961 C146,128.547521 155.943299,128.934834 165.381443,128.986476 C166.036082,129.270506 168.81701,129.012297 167.118557,130.096775 C162.515464,130.845581 157.706186,130.458267 153.492268,131.646028 C154.064433,132.472297 154.108247,133.608416 155.054124,134.150655 C178.412371,144.272446 205.876289,136.990954 237.757732,148.636178 C241.28866,132.653043 221.778351,118.244984 204.149485,109.130207" id="Fill-9" fill="#FBDC00"></path>
                    <path d="M150.806701,79.0847552 C148.783505,79.2138597 146.626289,80.3112478 145.89433,81.4473672 C140.561856,92.3231284 145.247423,106.191531 156.131443,115.228845 C160.603093,119.1278 169.337629,120.909442 175.46134,123.672278 C179.167526,122.484516 184.96134,120.547949 183.365979,117.733472 C180.842784,117.810934 176.760309,119.024516 174.693299,115.771084 C171.716495,111.743024 168.786082,102.499143 176.971649,102.11183 C169.025773,94.9000537 161.610825,87.3732627 153.969072,80.1046806 C153.18299,79.280994 152.020619,79.0098746 150.806701,79.0847552 M208.523196,98.5743672 C208.368557,98.5743672 208.213918,98.626009 208.007732,98.6776507 C207.028351,100.252725 206.951031,102.602427 208.703608,104.100039 C208.935567,102.654069 208.806701,101.311382 209.322165,100.020337 C209.554124,99.6330239 209.579897,98.4969045 208.523196,98.5743672 M178.85567,105.2878 C178.57732,105.236158 178.226804,105.2878 177.778351,105.520188 C176.902062,107.58586 177.268041,110.451979 179.706186,111.949591 C179.693299,110.167949 179.262887,108.567054 179.654639,106.914516 C179.829897,106.475561 179.690722,105.416904 178.85567,105.2878" id="Fill-11" fill="#FEFEFE"></path>
                </g>
                <g id="Group-16" transform="translate(141.752577, 77.958448)">
                    <mask id="mask-2" fill="white">
                        <use xlink:href="#path-1"></use>
                    </mask>
                    <g id="Clip-15"></g>
                    <polygon id="Fill-14" fill="#FEFEFE" mask="url(#mask-2)" points="-10.9510309 59.1221045 80.5876289 59.1221045 80.5876289 -11.2992239 -10.9510309 -11.2992239"></polygon>
                </g>
                <g id="Group-21" transform="translate(12.886598, 8.242030)">
                    <path d="M170.190722,135.802934 C161.71134,135.221964 154.824742,133.169203 149.585052,132.144113 C157.257732,137.721427 167.054124,142.023188 177.945876,145.785293 C176.427835,142.3098 173.68299,138.767173 170.190722,135.802934" id="Fill-17" fill="#AF1F2D"></path>
                    <path d="M128.858247,142.722934 L120.89433,142.134218 L112.131443,140.992934 C95.1314433,137.68786 80.3298969,129.993233 71.3969072,120.955919 C69.4484536,118.94189 64.5154639,120.852636 61.3479381,120.052188 C60.806701,119.538352 60.4690722,119.055501 60.4561856,118.639785 C60.3917526,116.442427 63.4716495,113.132188 63.4716495,113.132188 C63.4716495,113.132188 59.9304124,113.398143 55.0025773,112.8998 C49.7061856,112.36789 48.5798969,110.320293 49.0438144,108.086785 C49.4175258,106.294815 50.5489691,105.551173 53.371134,103.686904 C53.3273196,103.575875 53.2886598,103.439024 53.4046392,103.663666 C59.3015464,100.782054 65.443299,100.924069 70.621134,98.9126209 C70.0618557,98.8196657 69.6108247,98.597606 69.0515464,98.4994866 C68.5902062,97.5441134 69.3659794,96.3305313 70.5824742,95.6591881 C72.7938144,94.5798746 75.8298969,94.4791731 78.2835052,94.6082776 C77.5721649,93.4902328 75.9252577,92.5658448 77.1701031,91.2567254 C79.6185567,90.6499343 81.8840206,91.4478 84.1829897,91.6053075 C83.1623711,90.554397 82.6056701,89.4053672 83.9896907,88.3854418 C88.4716495,88.0936657 92.9793814,90.3271731 96.1185567,92.2069343 C93.0231959,83.3710239 87.8324742,73.9773821 90.0154639,65.4306657 C92.0773196,60.1657851 93.6701031,53.0908597 109.842784,50.4829493 C117.935567,49.8735761 127.53866,53.129591 135.626289,59.3782478 C147.969072,69.9932179 157.21134,80.9206209 168.028351,92.2689045 C171.891753,94.9491134 174.963918,98.1044269 181.046392,99.694994 C183.391753,99.9480388 186.082474,100.55483 188.201031,99.2792776 C191.162371,96.5655015 190.255155,93.2836657 191.226804,90.3452478 C192.386598,86.7432328 185.925258,89.6455015 183.579897,87.2880537 C180.778351,86.8103672 177.543814,78.7413373 177.298969,84.5794418 C174.528351,85.5683821 175.32732,82.9862925 173.909794,82.537009 C173.430412,82.9527254 172.18299,83.2083522 171.597938,82.6996806 C167.345361,72.5288299 158.726804,64.3022925 151.600515,55.9802179 C150.966495,55.376009 148.742268,54.6710985 149.708763,53.8448299 C169.458763,59.2594716 174.974227,72.7457254 186.10567,82.9811284 C187.610825,84.6698149 190.737113,85.8162627 194.14433,84.383203 C196.873711,82.2426507 199.520619,79.5934269 199.920103,76.8848149 C201.639175,58.2240537 199.371134,36.2814567 182.497423,19.8671134 C176.773196,10.8298 161.68299,0.263889552 141.907216,0.431725373 C133.71134,1.1676209 127.680412,4.61471045 123.180412,8.37681493 C113.987113,16.5775313 112.610825,25.3824567 110.118557,33.9937254 C106.896907,34.7631881 106.443299,32.9118299 105.81701,31.8247701 C103.824742,24.5561881 99.0850515,17.6826657 102.389175,7.43177015 C94.3324742,14.4524716 90.6365979,25.5812776 90.943299,33.6219045 C90.4278351,35.7263075 93.6572165,38.8506358 89.4536082,39.7156358 C85.5051546,38.6311582 79.2525773,35.1995612 78.6597938,31.2360537 C73.5154639,36.8417701 78.6340206,42.460397 78.6082474,46.9893821 C71.056701,48.0118896 62.3943299,49.8968149 57.7603093,54.1107851 C61.6030928,54.2682925 65.5438144,53.5633821 69.0850515,54.5187552 C69.3015464,57.4210239 63.9793814,58.0923672 61.4252577,59.8791731 C54.943299,64.1576955 47.8427835,74.868203 55.1623711,78.1190537 C55.2525773,77.7162478 59.6778351,65.8928597 68.4871134,62.7375463 C69.2087629,61.748606 67.7989691,65.6191582 68.5154639,66.7320388 C63.9639175,70.9253522 61.0721649,75.100591 59.2603093,79.6140836 C57.3195876,82.0309194 54.0051546,84.9228597 48.4278351,87.0530836 C36.9201031,91.4529642 31.378866,93.4928149 27.185567,94.6934866 C22.9871134,95.8941582 21.7010309,97.1619642 19.1108247,99.116606 C16.5231959,101.07383 15.6340206,104.934054 15.6340206,104.934054 C15.6340206,104.934054 21.0773196,100.371501 32.878866,99.867994 C37.6314433,99.6614269 43.0515464,101.95174 43.0515464,101.95174 C43.0515464,101.95174 38.0927835,103.963188 32.3865979,107.916367 C26.3659794,112.094188 25.6752577,112.762949 22.6958763,114.673696 C19.5773196,116.669651 14.4561856,119.083904 12.3685567,120.124487 C10.2835052,121.162487 0.845360825,124.080248 0.845360825,124.080248 C0.845360825,124.080248 3.28350515,127.38274 10.7963918,128.609233 C15.1546392,129.319307 21.8247423,129.327054 25.5309278,129.481979 C29.2396907,129.639487 39.6237113,129.897696 41.2087629,129.778919 C42.7886598,129.654979 40.4793814,132.854188 37.1365979,135.361397 C33.5,138.088084 33.9948454,142.870113 40.9149485,144.535561 C47.8402062,146.195845 52.2783505,146.944651 60.1907216,146.335278 C68.1082474,145.728487 78.1597938,145.839516 78.1597938,145.839516 C78.1597938,145.839516 77.2190722,151.576919 83.6185567,153.281099 C90.0154639,154.993024 102.110825,152.984158 111.043814,150.980457 C118.925258,149.214307 126.762887,144.127591 128.497423,142.955322 C128.899485,142.975979 129.131443,142.929501 128.85567,142.710024" id="Fill-19" fill="#149FD9"></path>
                </g>
                <g id="Group-24" transform="translate(193.298969, 114.107701)">
                    <mask id="mask-4" fill="white">
                        <use xlink:href="#path-3"></use>
                    </mask>
                    <g id="Clip-23"></g>
                    <polygon id="Fill-22" fill="#020303" mask="url(#mask-4)" points="-11.435567 19.5825672 28.3402062 19.5825672 28.3402062 -11.273403 -11.435567 -11.273403"></polygon>
                </g>
                <g id="Group-29" transform="translate(64.432990, 62.465910)">
                    <path d="M135.520619,53.2793522 C133.451031,53.2251284 129.902062,55.1952627 130.35567,56.1144866 C134.051546,57.0362925 140.634021,57.0698597 144.319588,58.3118448 C142.734536,56.1119045 139.899485,54.4877701 136.306701,53.4368597 C136.085052,53.3361582 135.81701,53.2870985 135.520619,53.2793522 L135.520619,53.2793522 Z" id="Stroke-25" stroke="#020303" stroke-width="0.773195876"></path>
                    <path d="M63.1737113,2.04888806 C61.0293814,1.93011194 58.7536082,2.19090299 56.3335052,2.96552985 C40.0886598,8.28721642 43.557732,19.8446493 47.0912371,30.6920075 C48.2175258,33.7207985 51.4082474,39.8067836 51.8231959,42.7761866 C47.7819588,40.452306 42.9469072,39.3161866 37.9443299,37.8185746 C38.8231959,39.6260373 40.9391753,40.0133507 40.5912371,41.7691716 C38.9881443,41.9757388 37.3876289,41.1494701 36.2871134,40.6330522 C35.8670103,40.8396194 29.8902062,38.9030522 30.8670103,39.8584254 C29.8231959,42.2855896 31.2304124,42.4663358 28.4958763,42.8278284 C27.5087629,42.905291 19.1402062,42.6987239 23.356701,43.6024552 C24.2561856,44.0672313 28.0963918,46.2878284 27.3335052,47.1915597 C21.9340206,48.4051418 13.9649485,48.5858881 8.54742268,50.1351418 C7.05773196,50.4966343 -1.57371134,51.9426045 0.367010309,55.2218582 C5.10927835,56.9002164 11.4237113,57.1067836 16.485567,55.5575299 C22.4675258,58.0105149 12.4907216,60.3602164 13.807732,62.7099179 C15.7793814,63.2521567 20.2896907,61.9094701 22.2484536,61.7287239 C24.7201031,62.5808134 25.6634021,65.5502164 27.1865979,66.9187239 C36.3128866,76.2142463 50.1530928,82.9276791 68.2484536,85.3032015 C52.5190722,80.7587239 37.5293814,75.1297687 30.614433,65.8084254 C27.606701,61.3672313 22.807732,53.3369328 30.0061856,49.1281269 C54.3257732,42.0532015 67.6659794,48.5084254 84.2716495,52.0458881 C77.1453608,45.8230522 73.6505155,32.9565 74.1634021,27.5212015 C74.0731959,24.3194104 74.178866,16.4517836 84.9005155,14.5642761 C79.3180412,10.2392761 72.4701031,2.56272388 63.1737113,2.04888806" id="Fill-27" fill="#04549E"></path>
                </g>
            </g>
        </g>
    </g>
</svg>