<?xml version="1.0" encoding="UTF-8" standalone="no"?>
<svg width="250px" height="250px" viewBox="0 0 250 250" version="1.1" xmlns="http://www.w3.org/2000/svg" xmlns:xlink="http://www.w3.org/1999/xlink">
    <!-- Generator: Sketch 47.1 (45422) - http://www.bohemiancoding.com/sketch -->
    <title>TOWSON</title>
    <desc>Created with Sketch.</desc>
    <defs></defs>
    <g id="Page-1" stroke="none" stroke-width="1" fill="none" fill-rule="evenodd">
        <g id="TOWSON" fill-rule="nonzero">
            <g id="Group" transform="translate(125.000000, 125.500000) scale(-1, 1) rotate(-180.000000) translate(-125.000000, -125.500000) translate(0.000000, 39.000000)">
                <g id="Shape">
                    <path d="M175.824742,78.9861194 C172.995361,77.7350712 170.476804,80.0867093 170.476804,80.0867093 C168.786082,78.701444 166.431701,77.5440224 163.122423,77.5440224 C163.122423,77.5440224 155.764691,83.311894 149.334278,82.1672537 C149.300773,83.8869254 149.403866,84.9068507 146.616495,84.989994 C144.799485,85.0403448 141.512113,84.6078448 138.828351,83.7757922 C144.66134,90.9028758 157.51134,93.6011594 158.081443,93.0963609 C166.253608,89.1832042 174.133505,81.7281952 178.073196,85.4322027 C178.073196,85.4322027 179.537758,80.6264176 175.824485,78.9860161 M204.004897,69.8575549 C204.004897,69.8575549 181.352835,95.8591967 143.677577,100.024107 C139.915979,98.3270546 132.417784,95.2188385 131.473969,91.0043519 C129.647938,82.8423669 138.968814,73.2576504 138.968814,73.2576504 C122.860052,79.2434504 122.026804,89.380734 122.372165,91.4316878 C122.967526,94.9936803 126.475258,98.463234 134.063402,100.804673 C131.802448,101.138382 129.942784,101.508266 128.387629,101.876214 C123.660309,100.050677 120.487629,96.0251993 120.487629,96.0251993 C120.631959,98.001763 121.432216,100.796901 124.001031,103.11949 C122.407603,103.641072 121.419072,104.02064 120.599485,104.059991 C118.743814,104.144683 115.868041,102.694711 107.935825,100.274131 C111.835309,97.6713846 118.071907,95.5915115 118.071907,95.5915115 C114.890979,94.2184854 104.039691,95.5915115 97.803866,97.9315301 C93.9443299,97.4925491 92.5358247,97.3970376 87.796134,97.6513476 C94.0533505,93.9860715 102.056443,91.163073 106.36701,90.9632193 C110.975773,90.7476148 118.362371,93.1444394 119.655155,93.7177924 C115.744072,84.8005461 105.720103,80.1037252 105.720103,80.1037252 C105.720103,80.1037252 96.4030928,83.6670088 92.6164948,86.6260834 C92.6164948,86.6260834 90.3265464,85.358923 87.5927835,82.01757 C92.5412371,82.6430812 100.64433,80.591611 102.404639,79.5607118 C102.404639,79.5607118 89.3175258,80.4909096 83.6360825,75.863676 C83.0916237,74.7804894 82.5632732,73.6030566 82.0619845,72.317176 C89.9112113,75.7727864 105.357861,79.8098834 123.97951,75.8210715 C126.544588,75.6124387 129.147036,75.2116725 131.766881,74.5538852 C131.766881,74.5538852 107.094716,76.6266576 96.6457474,65.3009673 C96.6457474,65.3009673 112.000129,73.4719897 125.119974,70.3605718 C125.119974,70.3605718 116.198582,62.6873763 112.263015,50.7372076 C112.260438,50.7346255 112.257861,50.7294613 112.257861,50.7294613 C112.321521,50.703124 112.444716,50.6649091 112.622552,50.6093942 C118.777706,64.4222822 131.698582,69.8361494 134.473582,71.3427987 C134.473582,71.3427987 123.733892,59.6833733 123.094201,53.1674703 C123.094201,53.1674703 127.944201,56.6106867 133.455541,57.3909942 C136.048325,58.0378334 137.861469,58.0817031 137.861469,58.0817031 C131.765593,53.723136 129.548325,48.8894643 129.548325,48.8894643 C129.548325,48.8894643 134.208119,53.4370404 146.217139,57.4124255 L147.166237,58.2244669 C153.498196,64.4855176 162.800258,68.1706758 162.800258,68.1706758 C156.392526,67.5542019 137.492268,59.9351012 137.492268,59.9351012 C137.492268,59.9351012 148.204897,67.7051251 161.597423,70.665749 C161.597423,70.665749 147.649485,70.2313124 138.540206,67.8900027 C138.540206,67.8900027 149.745103,72.7856445 164.524742,72.4525549 C171.849485,72.2873012 181.700515,68.3281833 181.700515,68.3281833 L184.125773,68.0196236 L182.022036,73.8693475 C182.022036,73.8693475 186.918428,70.0685116 188.250129,70.0065415 C189.574871,69.9484445 204.003995,69.858846 204.003995,69.858846" fill="#FFCC00"></path>
                    <path d="M238.943299,162.206866 L16.2010309,147.258891 L12.9471649,135.781761 L31.118299,137.896854 L20.2260309,99.7438988 C16.3337629,84.5909063 25.6347938,79.3162137 31.1765464,77.3099301 C28.6971649,83.2131033 28.6767784,90.6985809 32.0040979,101.849851 L42.7522938,139.336627 L238.88116,162.005566 L238.9425,162.205161 L238.943299,162.206866 Z M236.66701,156.815721 L227.069588,155.715312 L220.625258,132.970718 L216.362629,154.482622 L206.75799,153.38118 L194.543041,110.24221 L204.139433,111.341612 L210.584794,134.086206 C218.690464,108.651333 213.827577,99.0007734 213.827577,99.0007734 C218.923454,101.635796 222.475258,107.187805 224.448969,113.675305 L236.66701,156.814275 L236.66701,156.815721 Z M200.424742,152.6379 L181.436082,150.462309 C172.995361,149.495316 170.727062,145.894334 169.318557,140.981134 L159.592268,106.187477 L178.584794,108.365109 C186.968814,109.374706 189.296134,112.931792 190.647938,117.837246 L200.424742,152.638649 L200.424742,152.6379 Z M165.231443,148.607516 L146.199485,146.402644 C137.742784,145.419514 135.475515,141.809623 134.073969,136.886095 L129.293814,119.531613 L148.23299,121.701162 L145.726134,112.693026 L136.511186,111.63801 L127.930515,114.675064 L125.984459,107.740604 C128.68549,107.068616 131.749923,106.24999 133.789871,106.067307 C137.9775,105.692904 141.934716,105.190145 145.69683,104.577545 C152.24116,105.912485 154.262294,109.284952 155.482655,113.717625 L160.356366,131.140533 L141.358686,128.92559 L143.868557,138.018419 L153.101546,139.088592 L161.705412,136.057735 L165.231186,148.607207 L165.231443,148.607516 Z M130.172165,144.593142 L120.351031,143.455396 L110.513918,108.661739 L101.655412,107.647055 L111.451289,142.435548 L101.604124,141.322022 L91.7721649,106.512872 L82.910567,105.499196 L92.6884021,140.303181 L82.8572165,139.175531 L70.7659794,96.0417246 L80.0373711,97.0947524 C76.2981959,101.051805 74.6530928,104.053226 74.6530928,104.053226 C95.3476804,99.8877987 113.702062,107.595594 120.01134,108.567751 C120.147423,108.967329 120.277088,109.371349 120.396933,109.792229 L130.172706,144.593632 L130.172165,144.593142 Z M188.31134,143.156854 L180.920619,116.724004 L171.706701,115.668988 L179.100515,142.101839 L188.31134,143.157887 L188.31134,143.156854 Z M76.4247423,138.439377 L57.4340206,136.26376 C48.9958763,135.296767 46.7247423,131.695785 45.3175258,126.782585 L35.592268,91.9889285 L48.2945876,93.4423609 C47.1863402,96.3472116 47.1549227,98.5228803 47.1549227,98.5228803 C47.1549227,98.5228803 49.2814433,96.7068709 54.0229639,94.0969206 L54.5837371,94.1625057 C62.9682732,95.1727482 65.2937887,98.728931 66.6468814,103.635676 L76.4247165,138.439661 L76.4247423,138.439377 Z M64.3103093,128.956137 L56.9216495,102.523286 L47.706701,101.467263 L55.1005155,127.902696 L64.3103093,128.956705 L64.3103093,128.956137 Z M87.7981959,97.6405545 C87.7981959,97.6405545 97.9489691,88.5696739 105.918041,87.7297201 C109.41933,87.3591903 118.240464,92.4949664 119.657474,93.7077739 C118.364948,93.1339045 110.978093,90.7365634 106.369072,90.9521679 C102.058505,91.1527963 94.0554124,93.9757948 87.7981959,97.6402963 L87.7981959,97.6405545 Z M158.081701,93.0865231 C162.875515,88.8493142 167.073454,83.4184052 171.971134,82.3416739 C176.345361,81.3792 178.073196,85.4231396 178.073196,85.4231396 C174.133763,81.7191321 166.253866,89.1736246 158.081959,93.0867813 L158.081701,93.0865231 Z M157.866237,88.3762754 C156.146907,88.3166291 154.346392,86.4064251 154.296134,84.4063127 C156.580928,84.5857679 157.860309,83.7267584 158.931186,82.8611128 C158.614175,83.4646763 158.424871,84.1490075 158.410696,84.8803843 C158.405541,85.1676418 158.433892,85.4472304 158.478222,85.7215775 C158.683119,85.1193051 159.247629,84.6816667 159.913866,84.6816667 C160.571727,84.6816667 161.126546,85.0959372 161.340464,85.6781984 C160.438402,86.3579334 159.672216,86.9682103 159.099407,87.491729 C158.678634,87.8758148 158.369485,88.1846585 158.208402,88.3621513 C158.095,88.3750618 157.980825,88.380226 157.866108,88.3750618 L157.866237,88.3762754 Z M148.991495,86.1603261 C145.742784,86.1680724 138.828093,83.7658512 138.828093,83.7658512 C141.511598,84.5979296 144.799485,85.0305845 146.616495,84.9802337 C149.403866,84.8970904 149.300258,83.8767519 149.333763,82.156977 C149.333763,82.156977 152.345876,86.1486293 148.991469,86.1602487 L148.991495,86.1603261 Z M89.5791237,82.1237455 C88.880567,82.1221963 88.2122423,82.0857888 87.5937629,82.0078097 C86.3102577,80.4417724 84.9249485,78.407344 83.6362887,75.853141 C89.3179897,80.4802455 102.405361,79.5496604 102.405361,79.5496604 C100.865644,80.4522815 94.4690206,82.1356231 89.5790722,82.1236939 L89.5791237,82.1237455 Z M120.679639,75.9156276 C116.14433,75.9104634 107.631701,75.3728207 99.5979381,71.9841381 C95.7525773,70.325791 91.9920103,67.99765 88.7853093,64.7261425 C88.7853093,64.7261425 88.2477835,64.2080721 87.5248454,63.3695385 C87.2689175,63.0719527 86.9912629,62.7383725 86.7013144,62.3730069 C85.9848196,61.4563651 84.9576289,59.9399039 84.0484794,58.617874 C85.2752835,58.2357248 86.5370876,57.862019 87.8309536,57.4972988 L89.2867526,57.1815867 C101.782113,66.6738643 116.160464,68.1745748 116.160464,68.1745748 C116.160464,68.1745748 108.173866,62.7622569 103.953505,52.9412793 C106.867938,52.3196412 109.626186,51.5722812 112.254278,50.7182551 L112.264588,50.7285834 C116.200155,62.6784939 125.121031,70.3514312 125.121031,70.3514312 C112.002474,73.4633655 96.6493814,65.2920849 96.6493814,65.2920849 C107.097835,76.6171297 131.770515,74.5442282 131.770515,74.5442282 C129.149897,75.202661 126.547577,75.6031948 123.983144,75.811053 C123.983144,75.811053 122.743505,75.9192425 120.681856,75.9169187 L120.679639,75.9156276 Z M176.808505,68.6333604 C161.256186,68.5613201 148.143557,58.6231157 147.16933,58.2141127 L146.219948,57.4011676 C146.219948,57.4011676 137.600361,48.7700169 139.854227,34.616293 C145.390825,29.5153751 149.912474,23.9114661 153.837216,18.3651378 C153.837216,18.3651378 159.439278,22.8504855 165.294175,20.3672642 C165.294175,20.3672642 165.29366,25.3006045 168.251134,27.7644343 C168.251134,27.7644343 160.586443,32.9632134 154.549072,28.766001 C133.847526,53.2971428 167.850361,65.5943443 184.417629,64.1767772 L196.360928,56.3406518 C196.360928,56.3406518 200.119433,58.2579824 200.300361,63.5333204 L184.129742,68.0075652 L181.704459,68.3172094 C180.054098,68.5423676 178.419407,68.6403837 176.810644,68.6329215 L176.808505,68.6333604 Z M146.218299,57.4012709 C134.209278,53.426144 129.550258,48.8783097 129.550258,48.8783097 C129.550258,48.8783097 131.767113,53.7124978 137.863144,58.0710649 C137.863144,58.0710649 136.04933,58.0269112 133.456443,57.3801494 C133.456443,57.3801494 127.054124,52.6874599 124.257732,45.6791524 C126.8125,44.3287196 129.204124,42.8706136 131.452062,41.3239419 C134.709794,50.0836807 142.363402,56.1479763 146.218299,57.4015807 L146.218299,57.4012709 Z M188.615206,56.1525982 C188.353608,54.7427773 187.996392,52.6319191 187.562113,51.1123594 C187.562113,51.1123594 191.332732,51.5977664 192.593041,53.1044157 L188.615206,56.1525724 L188.615206,56.1525982 Z M171.112629,35.2164997 C171.112629,35.2164997 168.918531,33.8195118 167.065464,33.0842618 C167.065464,33.0842618 170.199227,32.2372331 170.909278,31.7175618 C170.909278,31.7175618 171.762113,33.8079699 171.112629,35.2165513 L171.112629,35.2164997 Z" fill="#FFFFFF"></path>
                    <path d="M137.474227,59.9302985 C137.474227,59.9302985 148.186856,67.7003224 161.579124,70.6609463 C161.579124,70.6609463 147.631959,70.2258642 138.521907,67.8846836 C138.521907,67.8846836 149.727577,72.7803254 164.506443,72.4477522 C171.831186,72.2824985 181.682216,68.3236388 181.682216,68.3236388 C164.078608,70.7256276 148.223454,58.6712716 147.148711,58.2199224 C153.479897,64.4809731 162.782216,68.1661313 162.782216,68.1661313 C156.374485,67.5496575 137.474227,59.9305567 137.474227,59.9305567 L137.474227,59.9302985 Z M158.187629,88.369691 C158.348711,88.1915269 158.658634,87.8829672 159.079381,87.4982358 C159.652191,86.9753627 160.418943,86.3646985 161.321005,85.6849634 C161.107088,85.1027022 160.551675,84.6882769 159.894459,84.6882769 C159.228222,84.6882769 158.663144,85.1252955 158.458247,85.7282134 C158.413144,85.4532209 158.384794,85.1743552 158.391237,84.8870978 C158.404124,84.1557209 158.594072,83.4714672 158.911211,82.8672582 C157.840335,83.7335493 156.56134,84.592094 154.276675,84.4132843 C154.330026,86.5460903 156.374613,88.5776784 158.187758,88.3695619 L158.187629,88.369691 Z M163.102191,77.5402784 C166.411469,77.5402784 168.765851,78.6977 170.456572,80.0836366 C170.456572,80.0836366 172.975902,77.7319985 175.80451,78.9830209 C179.517912,80.6232933 178.053866,85.4292075 178.053866,85.4292075 C178.053866,85.4292075 176.326418,81.3856552 171.952062,82.3482582 C167.053866,83.4249896 162.856186,88.8564149 158.061598,93.0936239 C157.491366,93.5977769 144.641495,90.9001388 138.808505,83.772797 C138.808505,83.772797 145.723454,86.1741403 148.972165,86.1670396 C152.325773,86.1541291 149.314304,82.1635097 149.314304,82.1635097 C155.744716,83.3086664 163.102448,77.5402784 163.102448,77.5402784 L163.102191,77.5402784 Z M47.1359536,98.5140754 C47.1359536,98.5089112 47.1365979,98.5011649 47.1365979,98.4960007 C47.1365979,98.5011649 47.1359536,98.5089112 47.1359536,98.5140754 L47.1359536,98.5140754 Z M56.901933,102.531807 L47.6867268,101.475087 L55.0805412,127.910519 L64.2905928,128.964012 L56.901933,102.533743 L56.901933,102.531807 Z M47.1545103,98.18615 C47.1493557,98.2605142 47.1467784,98.319644 47.1416237,98.371544 C47.144201,98.3211933 47.1493557,98.2605142 47.1545103,98.18615 L47.1545103,98.18615 Z M47.1390464,98.4585604 C47.1390464,98.44565 47.1403351,98.4319649 47.1409794,98.4151813 C47.1403351,98.433256 47.1390464,98.4453918 47.1390464,98.4585604 L47.1390464,98.4585604 Z M47.1849227,97.8717806 C47.179768,97.9234224 47.1746134,97.9745478 47.1694588,98.0207672 C47.1746134,97.9742896 47.179768,97.9231642 47.1849227,97.8717806 L47.1849227,97.8717806 Z M47.1868557,97.853706 C47.2048969,97.6763164 47.2311856,97.4651015 47.2685567,97.2269037 C47.231701,97.4652306 47.2054124,97.6761873 47.1868557,97.853706 L47.1868557,97.853706 Z M47.1554124,98.1842134 C47.1579897,98.1475478 47.1631443,98.1062343 47.1657216,98.0615642 C47.160567,98.1059761 47.1579897,98.1475478 47.1554124,98.1842134 L47.1554124,98.1842134 Z M179.08067,142.108139 L188.29201,143.163568 L180.901546,116.730717 L171.687629,115.675288 L179.08067,142.108139 Z M42.732732,139.345303 L31.9840206,101.858527 C28.656701,90.7069985 28.6773196,83.2215209 31.156701,77.3188642 C25.6154639,79.3245022 16.3139175,84.5998403 20.2061856,99.7533493 L31.0979381,137.903722 L12.9273196,135.789637 L16.1804124,147.266508 L238.92268,162.214225 L238.86134,162.015404 L42.7324742,139.345949 L42.732732,139.345303 Z M224.428608,113.683981 C222.45567,107.195706 218.904124,101.644213 213.80799,99.0094493 C213.80799,99.0094493 218.670876,108.659234 210.565206,134.094882 L204.120619,111.349772 L194.523196,110.250447 L206.738402,153.386835 L216.34201,154.488742 L220.605412,132.976063 L227.05,155.721173 L236.647423,156.821789 L224.428351,113.682819 L224.428608,113.683981 Z M178.562629,108.370557 L159.570361,106.19321 L169.296649,140.989449 C170.70451,145.903165 172.973969,149.503889 181.413918,150.470881 L200.403093,152.646937 L190.626031,117.845534 C189.274871,112.939564 186.946134,109.38351 178.562887,108.373139 L178.562629,108.370557 Z M145.676289,104.587279 C141.914691,105.19988 137.957216,105.702742 133.769845,106.077145 C131.730515,106.260473 128.665464,107.07835 125.964948,107.750339 L127.91018,114.68454 L136.491366,111.647487 L145.705799,112.702916 L148.212242,121.71131 L129.272809,119.541709 L134.053222,136.896449 C135.454639,141.819978 137.722809,145.428964 146.17951,146.41274 L165.210954,148.617845 L161.68518,136.067599 L153.081572,139.098972 L143.849098,138.028696 L141.338789,128.935867 L160.336211,131.150654 L155.461985,113.728005 C154.241624,109.295074 152.221778,105.922349 145.676418,104.587408 L145.676289,104.587279 Z M120.375387,109.801938 C120.255541,109.381057 120.125902,108.976315 119.990077,108.576737 C113.682088,107.60458 95.3271907,99.8957515 74.6344072,104.061178 C74.6344072,104.061178 76.2787371,101.06079 80.0179124,97.1029634 L70.7472938,96.0501164 L82.8375,139.183922 L92.6694588,140.312296 L82.8916237,105.510893 L91.7529639,106.524363 L101.584923,141.333512 L111.431572,142.446393 L101.636469,107.6579 L110.494716,108.67137 L120.332345,143.467609 L130.152448,144.605019 L120.376675,109.803616 L120.375387,109.801938 Z M79.8006443,83.9944694 C72.9238402,85.9213537 67.2710052,87.9760515 62.7052835,89.9152007 L84.9893041,92.4708239 C85.5021907,92.0499433 86.0331186,91.6264806 86.5885309,91.2023724 C86.5885309,91.2023724 82.8527062,88.0328575 79.8003866,83.9944694 L79.8006443,83.9944694 Z M187.542655,51.1218873 C187.976933,52.6408015 188.333892,54.7517888 188.59549,56.1608351 L192.573582,53.1139694 C191.313273,51.6073201 187.542655,51.1218873 187.542655,51.1218873 L187.542655,51.1218873 Z M157.560696,41.8638052 C157.403995,40.4191261 156.90799,38.050059 160.24884,35.1426261 C157.877062,35.1503724 155.962242,35.6984209 155.213273,36.8054918 C152.27049,41.1428858 152.380799,44.9778052 154.284149,48.2118724 C158.176418,45.5399261 157.749356,43.530544 157.560438,41.8638052 L157.560696,41.8638052 Z M171.093943,35.2257694 C171.743428,33.8172396 170.890335,31.7270381 170.890335,31.7270381 C170.180928,32.2460381 167.046263,33.093609 167.046263,33.093609 C168.899356,33.828859 171.093943,35.2257694 171.093943,35.2257694 L171.093943,35.2257694 Z M12.155799,152.132456 L5.79239691,129.843343 L24.0212629,131.89094 L14.5594072,98.5355067 L14.5594072,98.5225963 C14.0703608,96.814544 13.8680412,95.1044261 13.8680412,93.3080664 C13.8680412,81.1141485 23.9479381,71.6275515 37.6829897,71.5888201 C38.2867268,71.5888201 38.054768,71.612059 38.6481959,71.6482082 C34.0265464,79.7082007 33.482732,86.6057366 33.482732,86.6057366 L50.9976804,88.5752254 C48.3966495,91.9797104 47.5466495,95.4087254 47.2688144,97.2221269 C47.4079897,96.3080672 47.6914948,94.9841007 48.2752577,93.4561493 L35.5721649,92.0024328 L45.2976804,126.793507 C46.7048969,131.707224 48.9760309,135.307948 57.4141753,136.27494 L76.4043814,138.450996 L66.6265464,103.649593 C65.2734536,98.7423321 62.9481959,95.1855037 54.5634021,94.1759067 L54.0021907,94.1100634 C49.2604381,96.7200396 47.1349227,98.537056 47.1349227,98.537056 C47.1349227,98.537056 51.1465206,88.8012873 76.7483247,78.5129515 C76.0820876,77.2399813 75.4261598,75.8590799 74.7889175,74.3630172 C69.6497423,76.0007075 59.7463918,79.5447545 48.4177835,86.8241813 C48.4177835,86.8241813 56.1157216,73.4980172 87.0260309,62.8153963 C87.0260309,62.8153963 87.2476804,63.0839336 87.5028351,63.3815194 C88.2257732,64.220053 88.7631443,64.7384075 88.7631443,64.7384075 C91.9706186,68.0099149 95.7309278,70.3384433 99.5762887,71.9966612 C111.26134,76.9258701 123.958247,75.8228015 123.958247,75.8228015 C105.336598,79.8121299 89.8912371,75.7750328 82.0407216,72.3194224 C82.541366,73.605303 83.0697165,74.7827358 83.6141753,75.8659224 C84.9028351,78.4202545 86.2881443,80.4537791 87.5716495,82.0195582 C90.3048969,85.3607821 92.5953608,86.6280716 92.5953608,86.6280716 C96.3819588,83.668997 105.698454,80.1057134 105.698454,80.1057134 C105.698454,80.1057134 115.722165,84.8025343 119.633505,93.7197806 C118.216624,92.506844 109.396392,87.3717134 105.89433,87.7422433 C97.9252577,88.5820679 87.7744845,97.653594 87.7744845,97.653594 C92.5146907,97.3987418 93.9226804,97.4947955 97.7822165,97.9331052 C104.018041,95.5930866 114.86933,94.2200604 118.050258,95.5930866 C118.050258,95.5930866 111.814433,97.6736052 107.914175,100.275706 C115.846649,102.696415 118.722165,104.146258 120.577835,104.061566 C121.398067,104.022834 122.385825,103.643267 123.979897,103.12104 C121.410309,100.799096 120.610052,98.0038545 120.465722,96.0267485 C120.465722,96.0267485 123.638402,100.052743 128.365722,101.87828 C129.921134,101.509687 131.78067,101.140448 134.042268,100.806713 C126.453351,98.465403 122.945619,94.9957201 122.350258,91.4337276 C122.004897,89.3822575 122.838015,79.2457485 138.946907,73.2596903 C138.946907,73.2596903 129.626031,82.8438903 131.452062,91.0063918 C132.396005,95.2208784 139.894845,98.3291978 143.656186,100.026147 C181.331443,95.8612366 203.983505,69.8595948 203.983505,69.8595948 C203.983505,69.8595948 189.553608,69.9494515 188.228866,70.0075485 C186.897036,70.0690022 182.000773,73.8703545 182.000773,73.8703545 L184.10451,68.019856 L200.275129,63.5456112 C200.093428,58.2704022 196.334923,56.3524261 196.334923,56.3524261 L184.391624,64.1885515 C167.825129,65.6054731 133.822036,53.3089172 154.525644,28.7777754 C160.562242,32.9749619 168.227191,27.7759246 168.227191,27.7759246 C165.27049,25.3119657 165.27049,20.3787545 165.27049,20.3787545 C159.415335,22.8620791 153.813789,18.376344 153.813789,18.376344 C149.889046,23.9226724 145.366624,29.5270978 139.829768,34.6280157 C137.575902,48.7817396 146.196263,57.4128903 146.196263,57.4128903 C142.341881,56.1592858 134.688015,50.0952485 131.42951,41.3355097 C129.181443,42.8821813 126.790335,44.3397709 124.235696,45.6902037 C127.032088,52.6985112 133.434665,57.3917172 133.434665,57.3917172 C127.92384,56.6112806 123.073325,53.1679351 123.073325,53.1679351 C123.713144,59.6830634 134.452706,71.3432634 134.452706,71.3432634 C131.677448,69.8366142 118.75683,64.422747 112.601675,50.6096007 C112.42384,50.6651157 112.301418,50.702556 112.23634,50.7288933 C112.23634,50.7288933 112.237629,50.7340575 112.241495,50.7392216 L112.228608,50.7288933 C109.601031,51.5829194 106.842526,52.3304343 103.927577,52.9520724 C108.147938,62.77305 116.135052,68.1858843 116.135052,68.1858843 C116.135052,68.1858843 101.757474,66.6843993 89.2639175,57.1918634 L87.8083763,57.5081694 C86.5345361,57.8677254 85.294201,58.2343821 84.0854381,58.6100761 L84.0847938,58.6087851 C84.0641753,58.6139493 84.0453608,58.6216955 84.0260309,58.6268597 L84.0253866,58.6268597 C62.0826031,65.4616507 50.6619845,74.8428985 50.6619845,74.8428985 C50.6619845,74.8428985 58.1542526,61.0196821 83.6619845,52.1509791 C92.8733247,48.9615821 102.578995,46.0714493 112.672294,42.6411433 C141.094974,32.9872269 151.58982,8.76412836 151.58982,8.76412836 C156.517655,16.1656881 163.871263,16.6098075 170.109149,14.0767776 C170.109149,14.0767776 167.606572,23.9408761 176.626675,28.5256343 C176.626675,28.5256343 175.115722,29.5126381 173.736211,30.1407313 C175.124098,35.4030299 172.363789,39.2258134 172.363789,39.2258134 C170.575129,37.7404664 168.256057,36.646306 165.893428,35.9718642 C162.190335,38.0911142 161.344974,40.3051269 161.707345,42.5342448 C162.247294,45.8320896 161.655799,48.5897612 157.044974,51.5359254 C164.748067,58.5225433 180.932088,61.3943433 185.483119,58.3908567 C185.483119,58.3908567 185.544459,54.5647164 183.58299,47.8559313 C183.58299,47.8559313 202.952835,47.3504873 204.045619,63.5240507 L213.643557,69.008409 C200.239433,81.466991 185.772423,94.1256851 161.019845,101.194155 L210.025,106.814848 C210.025,106.814848 209.660309,96.9757955 204.124227,90.9530716 C204.124227,90.9530716 223.254381,91.280997 229.315464,112.210899 L245.430928,167.8446 L12.1474227,152.135167 L12.155799,152.132456 Z" fill="#000000"></path>
                    <path d="M249.561856,171.140896 L9.85309278,154.999737 L1.66417526,126.320469 L19.6551546,128.341754 C19.7113402,128.346918 19.7641753,128.326262 19.8002577,128.283141 C19.8363402,128.240536 19.8489691,128.182697 19.8335052,128.129765 L11.6737113,99.3446303 C11.2246134,97.5481415 10.9829639,95.6979452 10.9559021,93.8535587 C10.8561598,87.2292079 13.2903351,81.0492348 17.8110567,76.4536318 C22.9811598,71.1952064 30.410799,68.380987 38.7296134,68.5612169 C40.6716237,68.6043378 41.7958505,68.8150363 43.7172423,69.1906012 C39.2528093,75.7289684 37.6296134,82.0362385 37.234768,83.8307907 C37.2244588,83.8746863 37.2352577,83.923746 37.2628608,83.9619609 C37.2899227,84.0006922 37.3327062,84.0257385 37.3796134,84.0296116 L42.7708505,84.6085678 C42.8512629,84.616314 42.9278093,84.56932 42.9489433,84.4885006 C43.5217526,82.4615861 44.2435567,80.4733513 45.0953608,78.5770648 C47.1024485,73.5450887 51.5368557,66.1476603 61.2791237,59.4463633 C66.4100515,55.8378931 73.5757732,52.4026812 79.4180412,50.5391872 C85.2603093,48.6775006 87.8213918,47.8532976 90.5719072,46.999917 C116.839948,38.8500678 137.610567,32.4062051 151.012629,2.53633493 C151.774227,4.39479388 155.571392,12.4572394 164.064433,12.4572394 C167.19201,12.4572394 170.632474,11.3676751 174.303093,9.21542597 C173.61366,10.8189036 171.699227,16.0620946 173.686959,20.8518707 C175.094175,24.2382812 178.133093,26.7271573 182.729742,28.2511066 C182.22201,28.7843081 180.512139,30.4035106 176.950876,32.0979036 C176.891598,32.126823 176.853969,32.1926663 176.85732,32.2592842 C177.008866,34.7129148 176.69933,39.4279394 172.973299,43.6083424 C172.417887,43.0622304 170.079742,40.88682 166.71634,39.4356857 C166.671237,39.415029 166.61866,39.417611 166.577423,39.4408499 C164.583866,40.4762678 164.703814,42.6364439 164.816572,44.726129 C164.829459,44.9670379 164.844923,45.2058037 164.853943,45.4452925 C164.992603,48.7550149 162.179201,51.2469896 162.150851,51.2720358 C162.112191,51.3074104 162.092088,51.3580194 162.093376,51.4122433 C162.098531,51.4638851 162.126881,51.5103627 162.171985,51.5392821 C162.251366,51.5875672 170.131778,56.4612612 179.850851,56.4612612 C180.628557,56.4612612 181.407397,56.4297597 182.166418,56.3685642 C182.252758,56.3634 182.319768,56.2911015 182.320541,56.2051179 C182.320541,56.1534761 182.353273,51.1119463 178.643737,45.326 C180.288711,45.1031657 182.005851,44.9853449 183.759201,44.9750166 L183.965644,44.9750166 C196.569253,44.9750166 205.82982,51.6683091 207.009459,61.6253628 C207.017191,61.6782957 207.047861,61.7250315 207.092964,61.7513688 L218.751211,68.4144509 C205.046314,82.3107404 190.333686,92.7452225 175.02183,99.4330927 C174.951727,99.4640778 174.911521,99.534827 174.923119,99.6115151 C174.933428,99.6845882 174.990644,99.7413942 175.067964,99.7517225 L206.333428,103.331273 C206.381624,103.336437 206.432655,103.318363 206.471314,103.284796 C206.50482,103.249937 206.522603,103.201394 206.518737,103.15156 C206.513582,103.069708 205.824716,95.0543852 198.591418,88.386139 C199.48317,88.2738181 200.786521,88.161239 202.398119,88.161239 C210.775696,88.161239 225.790387,91.1755703 232.246057,111.36183 L249.561521,171.142367 L249.561856,171.140896 Z M245.457216,167.83169 L229.34201,112.197988 C223.28067,91.2675701 204.150773,90.9401612 204.150773,90.9401612 C209.686856,96.9628851 210.05232,106.801937 210.05232,106.801937 L161.044588,101.181761 C185.79768,94.112 200.266237,81.4535642 213.668299,68.9934328 L204.070876,63.509591 C202.978093,47.3358985 183.608505,47.8414716 183.608505,47.8414716 C185.569845,54.5497403 185.508273,58.3766552 185.508273,58.3766552 C180.956727,61.3796254 164.773222,58.5078254 157.070129,51.5219821 C161.680954,48.5753015 162.272448,45.8178881 161.7325,42.5200433 C161.370387,40.290409 162.21567,38.0770418 165.918582,35.9579209 C168.28134,36.6318463 170.600541,37.7264199 172.389201,39.2118701 C172.389201,39.2118701 175.150026,35.3890866 173.761418,30.1260134 C175.140928,29.4985657 176.651881,28.5112004 176.651881,28.5112004 C167.631778,23.9274751 170.134098,14.0636348 170.134098,14.0636348 C163.896469,16.5960191 156.543119,16.1523645 151.61451,8.7502109 C151.61451,8.7502109 141.118634,32.9746004 112.696985,42.6298079 C102.602139,46.0601139 92.8964691,48.9497303 83.6840979,52.1391273 C58.176366,61.0073139 50.6840979,74.8313049 50.6840979,74.8313049 C50.6840979,74.8313049 62.1036856,65.4492825 84.0475,58.6144915 C84.9566495,59.9371669 85.9838402,61.4540154 86.7003351,62.3706572 C86.8420876,62.5483049 86.9811082,62.7193684 87.1151289,62.88204 C87.0759536,62.8347878 87.0465722,62.8014788 87.0465722,62.8014788 C56.134201,73.4835833 48.4383247,86.8097475 48.4383247,86.8097475 C59.7656443,79.5303206 69.6700258,75.9858863 74.8094588,74.3480669 C75.446701,75.8450333 76.1023711,77.225031 76.7686082,78.4985176 C51.1675773,88.7860788 47.1552062,98.5218475 47.1552062,98.5218475 C47.1552062,98.5218475 47.1629381,98.259817 47.2085567,97.8248899 C47.2092268,97.8197257 47.2096907,97.8145615 47.210567,97.8068152 L47.2095361,97.8078481 C47.217268,97.7420048 47.225,97.6722884 47.2353093,97.5999899 C47.2372165,97.5844973 47.2378866,97.5718451 47.2404639,97.5576436 C47.2410825,97.5550615 47.2408247,97.5550615 47.2414948,97.5524794 C47.2415722,97.551963 47.2414175,97.5509301 47.2414948,97.5504137 C47.243299,97.5349212 47.2466495,97.5189122 47.2466495,97.5039361 C47.2492268,97.4781152 47.2543814,97.4541018 47.2569588,97.4303466 C47.267268,97.3619212 47.275,97.2958197 47.2860825,97.2214555 C47.2963918,97.1594854 47.3092784,97.089769 47.3193299,97.0226346 C47.6247423,95.1680488 48.5001289,91.8545824 51.018299,88.5593197 L33.5036082,86.5904764 C33.5036082,86.5904764 34.0465464,79.6924242 38.668299,71.6324316 C38.0748711,71.597057 38.3075515,71.5727854 37.7038144,71.5727854 C23.9687629,71.6122913 13.888866,81.0981137 13.888866,93.2925481 C13.888866,95.0890369 14.0909278,96.7985093 14.5805155,98.5070779 L14.5805155,98.5199884 L24.0421134,131.878003 L5.81273196,129.829477 L12.1763918,152.120139 L245.459897,167.829572 L245.457216,167.83169 Z M47.1840206,97.8054209 C47.1829381,97.8157493 47.1840722,97.8105851 47.1829897,97.8209134 C47.1821649,97.8286597 47.1806701,97.836406 47.1804124,97.8415701 C47.181701,97.8312418 47.1829897,97.8157493 47.185567,97.8041299 L47.1840206,97.8054209 Z M84.9829897,92.4555896 L62.6992268,89.899734 C67.2649485,87.9605848 72.918299,85.9052415 79.7951031,83.9790027 C82.8471649,88.0173907 86.582732,91.1876803 86.582732,91.1876803 C86.0273196,91.611143 85.4958763,92.0346315 84.9829897,92.4555121 L84.9829897,92.4555896 Z M87.4988918,63.3631866 C87.3429639,63.1819239 87.2069845,63.0181936 87.1193557,62.9123279 C87.2500258,63.0698354 87.3771134,63.2218172 87.4988918,63.3631866 Z M84.0305928,58.6085269 C84.048634,58.6033627 84.0643557,58.5981985 84.0818814,58.5904522 L84.0818814,58.5925179 C84.0638402,58.5976821 84.0476031,58.6028463 84.0305928,58.6080104 L84.0305928,58.6085269 Z M154.278015,48.196509 C152.374665,44.9624418 152.264588,41.1272642 155.207242,36.7898701 C155.955954,35.6827993 157.871418,35.1366873 160.243067,35.12765 C156.902345,38.0350828 157.398479,40.4033754 157.554923,41.8480545 C157.74384,43.5147933 158.170309,45.5244336 154.277861,48.1963799 L154.278015,48.196509 Z" fill="#C0C0C0"></path>
                </g>
            </g>
        </g>
    </g>
</svg>