<?xml version="1.0" encoding="UTF-8" standalone="no"?>
<svg width="250px" height="250px" viewBox="0 0 250 250" version="1.1" xmlns="http://www.w3.org/2000/svg" xmlns:xlink="http://www.w3.org/1999/xlink">
    <!-- Generator: Sketch 47.1 (45422) - http://www.bohemiancoding.com/sketch -->
    <title>STJOHN</title>
    <desc>Created with Sketch.</desc>
    <defs></defs>
    <g id="Page-1" stroke="none" stroke-width="1" fill="none" fill-rule="evenodd">
        <g id="STJOHN" fill-rule="nonzero">
            <g id="Group" transform="translate(36.000000, 0.000000)">
                <path d="M104.205081,204.508497 L104.205081,246.35733 L68.6986482,246.35733 L68.6986482,246.118074 C63.5731053,248.395989 57.7745112,249.631147 51.4591811,249.631147 C23.3463545,249.631147 0.470582327,225.88401 0.470582327,196.6948 C0.470582327,180.238985 6.85759829,165.902577 18.9346838,156.039255 C29.0015768,147.772967 38.9270892,144.633731 49.4400279,141.310069 L50.0901793,141.103711 C62.6172931,137.122095 68.1062438,133.650892 68.1062438,125.23806 C68.1062438,117.018625 63.1728589,110.639467 55.2406132,110.639467 C46.2121704,110.639467 42.1768507,119.806952 42.1768507,127.638593 L42.1768507,135.673601 L2.69284571,135.673601 L2.69284571,72.1202771 L31.8799654,72.1202771 L31.8799654,40.4926517 L47.3760709,40.4926517 C53.9343365,17.8201721 77.1545994,0.358484968 102.490592,0.358484968 C121.888602,0.358484968 158.579843,12.2066325 158.579843,57.0710861 L158.579843,170.358716 L177.703057,170.358716 L177.703057,204.510491 L104.205081,204.510491 L104.205081,204.508497 Z M30.9709482,90.6027891 L30.9709482,80.3546649 L10.7146988,80.3546649 L10.7146988,127.840963 L34.1500194,127.840963 C34.1500194,114.982957 42.1111386,102.805833 55.2406132,102.805833 C66.976195,102.805833 76.1280969,112.146779 76.1280969,125.442424 C76.1280969,140.913303 62.7994948,145.684463 51.855445,149.166632 C41.513756,152.439452 32.7630961,155.275631 24.0044711,162.464271 C13.8639009,170.748504 8.49542234,182.949554 8.49542234,196.895177 C8.49542234,222.616175 28.5824133,241.799507 51.4591811,241.799507 C61.2084657,241.799507 70.7536445,238.309363 76.7234882,229.803818 L76.7234882,238.52569 L96.1852187,238.52569 L96.1852187,196.679847 L73.143175,196.679847 C72.94803,208.227928 65.1860384,216.947806 54.6432306,216.947806 C44.1004228,216.947806 35.3487672,209.754181 35.3487672,197.543162 C35.3487672,182.28861 47.6837229,178.601079 58.6217989,175.110935 C69.5638574,171.838115 79.9075377,168.569282 89.0584439,160.944997 C98.2053677,152.882076 103.177582,140.476661 103.177582,127.39834 C103.177582,99.2837877 84.0872248,77.3081408 58.2265307,77.3081408 C47.2844722,77.3081408 37.7333196,81.4492602 30.9709482,90.6027891 L30.9709482,90.6027891 Z M115.407001,170.353732 L115.407001,60.505404 C115.407001,43.3078951 108.638655,41.8703664 102.290469,41.8703664 C99.180097,41.8703664 89.0345486,43.2620378 89.0345486,61.1713327 L89.0345486,79.532223 C102.622017,89.9837147 111.200431,107.322783 111.200431,127.197963 C111.200431,142.593078 105.219635,157.192668 94.3602148,166.773867 L94.2765812,166.844646 L94.191952,166.91742 C83.4729163,175.84565 71.5352201,179.426512 60.9953992,182.583692 C60.8809009,182.620577 59.7239698,182.988433 59.7239698,182.988433 C47.8549726,186.742755 43.371616,189.338681 43.371616,197.343782 C43.371616,205.727705 49.1941053,208.711424 54.6432306,208.711424 C60.6877472,208.711424 64.9978628,203.627238 65.1203263,196.342895 L65.2567286,188.445459 L96.0926244,188.445459 L96.0926244,170.355726 L115.407001,170.355726 L115.407001,170.353732 Z M150.556995,57.0661016 C150.556995,15.2910388 114.849443,8.38651459 102.490592,8.38651459 C79.7203578,8.38651459 56.7350654,25.7156142 53.8138644,48.5226751 L39.897836,48.5226751 L39.897836,69.4934476 L81.0116999,69.4934476 L81.0116999,61.1673451 C81.0116999,41.251292 92.3151749,33.8313709 102.290469,33.8313709 C119.464224,33.8313709 123.428854,46.7093153 123.428854,60.5014164 L123.428854,135.606809 L150.556995,135.606809 L150.556995,57.0661016 L150.556995,57.0661016 Z M169.680208,178.378771 L150.556995,178.378771 L150.556995,143.538139 L123.428854,143.538139 L123.428854,178.378771 L104.112486,178.378771 L104.112486,196.466511 L169.680208,196.466511 L169.680208,178.378771 Z" id="Shape" fill="#000000" transform="translate(89.086820, 124.994816) scale(-1, 1) rotate(-180.000000) translate(-89.086820, -124.994816) "></path>
                <path d="M51.4625663,8.18633722 C28.5859976,8.18633722 8.49960401,27.3682737 8.49960401,53.0906668 C8.49960401,67.0352934 13.8676843,79.2365427 24.0084536,87.5211741 C32.766083,94.7098545 41.5173403,97.5459929 51.8584319,100.819013 C62.8032782,104.302179 76.1336725,109.071743 76.1336725,124.54362 C76.1336725,137.838268 66.980974,147.179613 55.2451931,147.179613 C42.1155194,147.179613 34.1544002,135.003086 34.1544002,122.144681 L10.7194779,122.144681 L10.7194779,169.629784 L30.9747316,169.629784 L30.9747316,159.381659 C37.737103,168.535587 47.28726,172.677903 58.2305133,172.677903 C84.0916056,172.677903 103.182361,150.701458 103.182361,122.586507 C103.182361,109.508784 98.2088723,97.1033697 89.0626256,89.0396511 C79.9115202,81.4153656 69.5696321,78.1471312 58.6271753,74.8741116 C47.6894976,71.3849642 35.3539445,67.6953205 35.3539445,52.4406885 C35.3539445,40.2306665 44.1044053,33.0370416 54.6478105,33.0370416 C65.1904192,33.0370416 72.9532073,41.7571187 73.1483523,53.3051995 L96.1897987,53.3051995 L96.1897987,11.4585593 L76.7278691,11.4585593 L76.7278691,20.1802314 C70.7580253,11.6746871 61.2118509,8.18633722 51.4633628,8.18633722 L51.4625663,8.18633722 Z M104.115871,53.5125546 L104.115871,71.6002944 L123.432836,71.6002944 L123.432836,106.442322 L150.561176,106.442322 L150.561176,71.6002944 L169.685385,71.6002944 L169.685385,53.5125546 L104.116668,53.5125546 L104.115871,53.5125546 Z M123.432836,114.37445 L123.432836,189.481636 C123.432836,203.272342 119.467968,216.151482 102.294253,216.151482 C92.3179627,216.151482 81.0154833,208.730724 81.0154833,188.81491 L81.0154833,180.489605 L39.9020176,180.489605 L39.9020176,201.460378 L53.8162539,201.460378 C56.7384904,224.267837 79.7251368,241.596339 102.494973,241.596339 C114.852829,241.596339 150.561176,234.691575 150.561176,192.916552 L150.561176,114.375247 L123.432836,114.375247 L123.432836,114.37445 Z" id="Shape" stroke="#000000" stroke-width="0.503635177" fill="#BA0C2F" transform="translate(89.092495, 124.891338) rotate(-360.000000) translate(-89.092495, -124.891338) "></path>
            </g>
        </g>
    </g>
</svg>