<?xml version="1.0" encoding="UTF-8" standalone="no"?>
<svg width="250px" height="250px" viewBox="0 0 250 250" version="1.1" xmlns="http://www.w3.org/2000/svg" xmlns:xlink="http://www.w3.org/1999/xlink">
    <!-- Generator: Sketch 47.1 (45422) - http://www.bohemiancoding.com/sketch -->
    <title>BC</title>
    <desc>Created with Sketch.</desc>
    <defs></defs>
    <g id="Page-1" stroke="none" stroke-width="1" fill="none" fill-rule="evenodd">
        <g id="BC" fill-rule="nonzero">
            <g id="Boston_College_Eagles_logo" transform="translate(0.000000, 12.000000)">
                <g id="Group" transform="translate(125.891089, 112.970297) scale(-1, 1) rotate(-180.000000) translate(-125.891089, -112.970297) translate(2.128713, 1.584158)">
                    <g transform="translate(2.853373, 2.853373)" id="Shape">
                        <path d="M142.790842,33.2920792 L102.063738,33.2920792 C103.845916,36.8966584 106.748144,42.7753713 110.108292,49.5668317 C119.316213,48.5086634 124.480198,51.0055693 124.480198,51.0055693 C125.634282,52.1472772 128.347772,56.0829208 129.743193,58.1435644 C134.232673,55.5816832 138.502475,55.2537129 138.87995,55.210396 C140.900371,53.8985149 141.342822,53.3384901 141.435644,53.1497525 C139.876238,52.3855198 139.059406,51.0550743 139.059406,49.3378713 C139.059406,48.5581683 139.241955,47.6794554 139.591584,46.7419554 L139.764851,46.2561881 L139.91646,46.7574257 C140.179455,47.7258663 141.014851,48.7283416 142.110149,49.3378713 C143.357054,50.0371287 144.78651,50.1918317 146.132426,49.7586634 C147.512376,49.3688119 148.449876,48.5086634 148.777847,47.3174505 C149.232673,45.7240099 148.508663,43.7283416 146.816213,41.8378713 L146.339728,41.3180693 L146.98948,41.5996287 C149.545173,42.602104 151.169554,43.9480198 151.837871,45.5816832 C152.085396,46.1664604 152.168936,46.7079208 152.168936,47.2091584 C152.168936,47.6794554 152.085396,48.0383663 152.023515,48.2704208 C152.568069,48.0971535 153.784035,47.5711634 154.467822,46.3799505 C154.532797,46.2561881 154.58849,46.1324257 154.644183,45.9777228 L151.073639,38.7221535 C148.375619,33.2920792 144.16151,33.2920792 142.790842,33.2920792 L142.790842,33.2920792 Z M60.4238861,119.204827 C61.8780941,122.147277 63.332302,125.11448 64.7060644,127.883663 C67.4628713,124.415223 70.417698,121.457302 72.9053218,119.204827 L60.4238861,119.204827 Z M92.4845297,184.180074 C92.4845297,184.180074 93.1435644,185.51052 93.8397277,186.915223 L141.107673,186.915223 L141.206683,186.915223 C140.284653,185.049505 136.407797,177.181312 136.407797,177.181312 C135.272277,174.879332 132.165842,173.555074 127.920792,173.555074 L87.2339109,173.555074 C89.845297,178.86448 92.4845297,184.180074 92.4845297,184.180074 L92.4845297,184.180074 Z M117.246287,138.350866 L115.612624,135.024752 C113.387995,136.772896 111.154084,138.555074 108.901609,140.380569 L118.20854,140.380569 C117.954827,139.820545 117.642327,139.164604 117.246287,138.350866 L117.246287,138.350866 Z M173.700495,84.477104 L217.608292,84.477104 L242.478342,134.727723 L231.834777,134.727723 L202.413366,134.727723 C206.670792,137.224629 211.828589,141.67698 214.591584,149.214109 C209.350248,143.55198 204.412129,142.459777 204.412129,142.459777 C204.412129,142.459777 211.271658,149.195545 212.790842,160.665223 C205.727104,151.308787 202.710396,150.355817 202.710396,150.355817 C202.710396,150.355817 216.865718,168.168317 209.29146,184.839109 C208.511757,155.126856 175.860149,143.97896 164.019183,136.534653 C161.899752,135.194926 159.962871,133.808787 158.162129,132.38552 L159.279084,134.644183 C160.290842,136.667698 162.639233,141.44802 162.639233,146.757426 C162.639233,149.180074 162.147277,151.741955 160.785891,154.167698 C160.522896,154.650371 160.148515,155.055693 159.832921,155.504332 C168.292079,159.105817 174.167698,164.675124 178.087871,172.62995 L184.29146,185.148515 C186.98948,190.612624 189.294554,196.240718 189.294554,201.441832 C189.294554,204.102723 188.694307,206.636757 187.221535,208.975866 C181.652228,217.964109 167.206064,219.409035 134.845297,219.409035 L70.1701733,219.409035 L66.0705446,219.409035 L0.340346535,86.6305693 L63.1188119,86.6305693 C71.2438119,86.6305693 78.3446782,86.7110149 84.5977723,86.8533416 L41.7481436,0.167079208 L124.353342,0.167079208 C167.249381,0.167079208 178.465347,5.31559406 191.03651,30.8199257 L205.881807,60.7735149 L161.977104,60.7735149 L159.337871,55.4579208 C158.530322,55.8044554 157.759901,56.1633663 157.097772,56.6336634 C155.625,61.3675743 151.599629,68.0383663 149.093441,71.9492574 C153.511757,70.5105198 157.540223,68.7128713 161.095297,66.6336634 C162.756807,63.8644802 165.136139,62.2524752 165.154703,62.2524752 L165.259901,62.1782178 L165.324876,62.3019802 C165.402228,62.4102723 167.00495,65.1454208 167.379332,66.9925743 C167.905322,66.2871287 168.097153,65.3001238 168.097153,64.3657178 C168.097153,62.8032178 167.685644,61.3675743 167.685644,61.3149752 L167.620668,61.0860149 L168.310644,61.3985149 C171.711015,62.8032178 173.780941,64.6008663 174.436881,66.7048267 L174.55755,67.2246287 C175.11448,69.9907178 173.165223,72.5711634 171.949257,73.8211634 C172.162748,74.477104 172.478342,77.1813119 168.663366,81.1664604 C166.800743,83.1126238 164.81745,84.7586634 162.79703,86.1293317 C169.170792,89.2605198 173.066213,95.2227723 176.738861,101.862624 L182.326733,101.862624 C180.377475,98.0105198 173.700495,84.477104 173.700495,84.477104 L173.700495,84.477104 Z" fill="#231F20"></path>
                        <path d="M148.048267,52.2898333 C149.96349,54.6629768 151.321287,57.4482491 151.321287,57.4482491 C151.321287,57.4482491 147.400248,56.7246353 141.744307,58.6955511 C141.744307,58.6955511 145.691584,59.4791155 150.310891,62.5824323 C150.310891,62.5824323 146.595792,64.3835709 144.296782,66.304957 C153.786386,68.5233976 160.052228,73.0586699 160.052228,73.0586699 C160.052228,73.0586699 158.437327,69.6660957 158.007252,67.9920857 C160.4825,67.9487689 163.552302,68.9928283 163.552302,68.9928283 C164.137079,68.8350313 164.763441,68.6805263 165.403911,68.5722343 C164.908861,68.4175313 164.46505,68.057259 164.093762,67.5714917 C163.481139,68.1222343 162.534752,68.1386699 161.860248,67.6343382 C161.083639,67.0371848 160.937054,65.9097838 161.521832,65.1301303 C161.849802,64.7402788 162.297079,64.5031996 162.764282,64.4629768 C162.334208,62.8200313 159.873193,61.2288184 159.873193,61.2288184 C164.399926,63.3668135 163.510569,64.8555511 164.905866,66.8077788 C166.106361,68.4909471 167.440767,67.0137194 167.168391,66.2711452 C167.849084,67.1684224 167.442797,67.9670857 166.87349,68.3693135 C167.934752,68.2857739 168.96005,68.3663432 169.841807,68.6787194 C170.890693,62.8029768 158.088342,54.434165 148.047995,52.289858 L148.048267,52.2898333 Z M169.745297,71.2264669 C172.631931,73.4449075 171.38901,75.9447838 171.38901,75.9447838 C173.121683,74.1935461 171.50349,72.162358 171.002252,71.5744867 C170.544332,71.3826551 169.745297,71.2264174 169.745297,71.2264174 L169.745297,71.2264669 Z M106.732921,77.3227541 C100.018812,81.8153283 93.4623762,82.3504768 93.4623762,82.3504768 C93.4623762,82.3504768 105.768317,94.051962 123.029208,88.8819125 C123.029208,88.8819125 110.339851,86.8555016 106.732178,77.3227541 L106.732921,77.3227541 Z" fill="#FFFFFF" transform="translate(132.816294, 71.245164) scale(-1, 1) rotate(-180.000000) translate(-132.816294, -71.245164) "></path>
                        <path d="M69.2314356,5.26725248 L8.53836634,127.88854 L70.424505,127.88854 C78.2616337,127.88854 85.1443069,127.777351 91.2272277,127.622649 C90.3299505,126.669678 89.5138861,125.70104 88.6940594,124.639728 C83.2950495,124.794431 77.2438119,124.842772 70.424505,124.842772 L13.4121287,124.842772 C15.4826733,120.652178 70.2883663,9.91455446 71.1126238,8.31059406 L134.845297,8.31059406 C161.679455,8.31059406 176.887376,9.32235149 180.347772,14.8853465 C180.913985,15.8042822 181.198639,16.8962871 181.198639,18.2452475 C181.198639,21.1041584 179.846139,25.104901 177.012005,30.8536634 L170.809282,43.37 C165.61745,53.9363366 154.702104,59.1395545 136.628589,61.9489604 C145.830322,63.1401733 159.382302,66.8279208 152.021658,81.3544059 C149.840347,85.6336139 142.396163,100.774455 142.396163,100.774455 C141.198762,103.215668 140.09302,105.41802 138.963738,107.373465 C139.567079,108.326436 140.177203,109.297772 140.718639,110.269257 C141.086832,109.644257 141.477252,109.009406 141.854728,108.359653 C142.807698,106.042203 144.044158,103.604208 145.615866,101.088614 L154.719084,82.6839109 C156.621931,78.8534653 157.556955,75.6195545 157.556955,72.8071782 C157.556955,70.9693069 157.143515,69.3737624 156.348342,67.9195545 C154.943639,65.4225248 152.343639,63.554703 148.473094,62.2923267 C161.158738,59.6532178 168.884233,54.165099 173.525074,44.7190594 L179.722847,32.1784653 C182.420866,26.7329208 184.23349,22.0737624 184.23349,18.2309406 C184.23349,16.4209158 183.82198,14.7606436 182.918515,13.3094059 C178.654901,6.48094059 164.021485,5.26485149 134.844257,5.26485149 L70.1635644,5.26485149 L69.2305198,5.26485149 L69.2314356,5.26725248 Z M88.7772277,24.5568564 L84.8564356,32.582104 L81.3611386,39.6113119 C81.5808168,41.2047525 81.8927228,42.8402723 82.3135396,44.5328465 C84.7547525,39.5608168 87.5734406,33.9066089 87.5734406,33.9066089 C87.5734406,33.9066089 89.7392822,29.4739356 90.6675,27.5927475 L141.105619,27.5927475 C145.31354,27.5927475 146.716262,28.4385891 147.167995,29.1687871 C147.356733,29.4565347 147.433886,29.8394307 147.433886,30.2323762 C147.433886,31.2936386 146.887599,32.6689604 146.346139,33.7519307 L140.96495,44.6900495 C138.929059,48.7836139 134.196386,51.12 127.921634,51.12 L84.5181683,51.12 C84.9482426,52.1410396 85.4077228,53.1473762 85.9491832,54.1561386 L127.921955,54.1561386 C135.360074,54.1561386 141.103639,51.189802 143.687054,46.0197525 C143.687054,46.0197525 149.033342,35.124703 149.058094,35.0937624 C149.986312,33.2187624 150.445594,31.5952475 150.445594,30.2061386 C150.445594,29.2191337 150.216634,28.3311386 149.749431,27.5761881 C148.46849,25.5155446 145.724926,24.5593564 141.105371,24.5593564 L89.7291337,24.5593564 L88.7767574,24.5593564 L88.7772277,24.5568564 Z M99.6403465,71.0939851 C100.726361,72.1397772 101.829777,73.1391584 102.937376,74.1108168 L119.384158,74.1108168 C121.067327,74.1108168 123.218564,74.3335891 123.889851,75.4257921 C124.081683,75.735198 124.165421,76.1225248 124.165421,76.6392574 C124.165421,78.4616584 122.880223,81.340495 121.815866,83.5187129 L119.679035,87.8407426 C120.492772,88.4812129 121.291436,89.1379208 122.086609,89.7938614 L124.518342,84.8384158 C126.851262,80.120099 128.076015,76.4356931 126.44245,73.7965842 C125.325495,71.9803713 123.007302,71.0941089 119.384035,71.0941089 L99.6399752,71.0941089 L99.6403465,71.0939851 Z M59.4720297,83.9875495 L47.3705446,108.517252 L79.8433168,108.517252 C79.5122525,107.499307 79.2014851,106.480198 78.9199257,105.47146 L52.2441832,105.47146 C53.2528465,103.432475 57.5206683,94.7952228 61.3233911,87.0568564 C60.6829208,86.0481931 60.0534653,85.0296782 59.4717822,83.9870545 L59.4720297,83.9875495 Z M202.12797,90.0016584 C200.599505,91.0938614 199.137871,92.0646287 197.723762,92.9989356 L197.733416,92.9989356 L229.399257,92.9989356 C227.53354,96.7954703 213.309653,125.501411 212.560891,126.993985 L186.783663,126.993985 C188.435891,123.667748 195.393812,109.580124 195.393812,109.580124 L181.136881,109.61396 C180.576856,110.597871 180.029406,111.588564 179.478663,112.606535 L190.530149,112.606535 C188.868639,115.969901 181.910347,130.025099 181.910347,130.025099 L214.432624,130.025099 L234.278168,90.0003465 L231.836757,90.0003465 L202.128837,90.0003465 L202.12797,90.0016584 Z M93.7814356,132.452153 C92.6706683,132.532599 91.5301238,132.541881 90.329703,132.606856 L49.9435644,214.356856 L124.354455,214.356856 C167.052475,214.356856 175.50297,208.780124 186.478218,186.515272 L197.684406,163.904381 L165.12995,163.904381 L164.17755,165.809158 C165.173837,166.171163 166.125074,166.56198 166.957252,167.032277 C166.979035,166.998243 166.999406,166.95203 167.005594,166.921089 L192.797673,166.921089 C191.086658,170.417376 183.76698,185.18099 183.76698,185.18099 C173.479356,206.037921 166.308564,211.312178 124.356089,211.312178 L54.8115347,211.312178 C56.3338119,208.28 80.9402475,158.463168 93.7818317,132.465644 L93.7818317,132.45104 L93.7814356,132.452153 Z M162.925,142.222698 C162.590842,142.222698 162.257252,142.360767 162.04995,142.657797 C161.644629,143.159035 161.743837,143.855396 162.248168,144.248342 C162.393589,144.372104 162.568416,144.422178 162.750941,144.456213 C162.395124,144.168465 162.338465,143.677277 162.610743,143.315272 C162.753069,143.126535 162.9625,143.01651 163.166708,143.00104 C163.07698,142.728762 162.993045,142.467129 162.924975,142.222698 L162.925,142.222698 Z M160.106436,146.370718 C160.759282,148.097203 162.082178,151.906114 164.984406,155.077649 C162.691708,150.727401 161.779208,147.767995 161.779208,147.767995 C161.779208,147.767995 166.438614,148.904678 168.465347,151.200421 C170.117574,153.047574 169.921485,154.645223 169.828663,155.096955 C170.271114,154.877277 172.191955,153.936683 172.714802,152.235074 C172.878787,151.665767 172.910495,151.03052 172.656782,150.315792 C171.92349,148.128292 170.338936,147.058366 170.326559,147.042772 C168.278292,145.935099 163.961955,147.357005 163.940173,147.357005 C163.918391,147.357005 161.981436,146.717302 160.10651,146.370767 L160.106436,146.370718 Z M169.127475,147.250594 C169.553292,147.269653 169.799455,147.34245 169.799455,147.34245 C170.192401,147.528094 170.684158,148.169134 170.684158,148.169134 C170.684158,148.169134 169.048168,147.438936 167.377475,147.47297 C168.093762,147.267203 168.701733,147.231634 169.12755,147.250594 L169.127475,147.250594 Z M165.235644,150.15604 C165.696658,151.74948 165.250248,154.313713 165.250248,154.313713 C166.200124,152.339703 166.241312,150.88599 166.241312,150.88599 C165.897871,150.511609 165.235743,150.15599 165.235743,150.15599 L165.235644,150.15604 Z M143.258168,163.745644 C143.258168,163.745644 142.403243,163.830718 141.106832,163.861658 C142.109307,164.406213 144.111287,165.736262 144.476386,166.172525 C143.548168,166.56547 141.957574,168.077302 141.957574,168.077302 C141.957574,168.077302 144.738515,166.844505 146.854851,167.695371 C149.763267,168.871114 150.533812,172.30255 150.533812,172.30255 C150.533812,172.30255 150.972401,170.105569 149.97302,168.623589 C152.148144,168.871114 155.097525,171.176064 155.097525,171.176064 C155.097525,171.176064 153.908441,168.388441 147.37698,165.650322 C143.852723,164.174455 143.257921,163.745545 143.257921,163.745545 L143.258168,163.745644 Z M155.692327,164.369282 C155.692327,164.369282 155.198639,164.839777 154.217822,165.10896 C154.217822,165.10896 157.762624,166.481757 158.177228,166.825198 C157.211881,167.36047 156.354629,168.981361 156.354629,168.981361 C156.354629,168.981361 158.303119,167.747995 160.898936,168.314208 C163.238045,168.799975 164.872946,171.123119 164.872946,171.123119 C164.872946,171.123119 164.718243,169.530446 163.790025,168.512475 C165.794975,168.753812 167.909084,169.933812 167.909084,169.933812 C167.909084,169.933812 167.29297,167.764307 160.705619,166.167723 C156.980371,165.267351 155.692252,164.369307 155.692252,164.369307 L155.692327,164.369282 Z M101.942327,168.231906 C94.835396,182.650223 89.0101485,194.415074 89.0101485,194.415074 L142.794802,194.415074 C152.027475,194.415074 156.496535,188.186856 158.337624,184.480173 C158.337624,184.480173 161.050248,178.996757 163.500743,174.018292 C163.70495,173.220025 163.636683,172.497946 163.302525,171.823441 C162.990025,171.28198 162.496139,170.828688 161.861856,170.547153 L155.62547,183.136015 C154.103193,186.199134 150.397005,191.398144 142.794777,191.398144 L93.8838861,191.398144 C94.5986139,189.9625 99.1992327,180.640718 104.901708,169.096658 C103.849728,168.839851 102.88052,168.543787 101.943045,168.231287 L101.942327,168.231906 Z" fill="#DBCCA4" transform="translate(121.408267, 109.810854) scale(-1, 1) rotate(-180.000000) translate(-121.408267, -109.810854) "></path>
                        <path d="M71.1126238,8.31408416 C70.2883663,9.92002475 15.4839109,120.655668 13.4121287,124.843787 L70.424505,124.843787 C77.2438119,124.843787 83.2980198,124.79854 88.6940594,124.640743 C84.8883663,119.84495 81.8160891,114.330099 79.8420792,108.522673 L47.3693069,108.522673 L59.4700495,83.9877723 C57.7126238,80.7357921 56.3371287,77.2979208 55.675,73.6902475 C59.3784653,77.7496535 64.0475248,79.6060891 67.1230198,80.4199505 L67.8191832,79.235495 C54.2053218,68.5642079 57.4491337,50.4409406 57.4491337,50.4409406 C57.4491337,50.4409406 60.6035891,64.4795545 71.1790842,69.7642079 C57.6704208,52.6077723 66.6251238,29.3236139 66.6251238,29.3236139 C66.6251238,29.3236139 65.3627475,49.4847525 79.0013614,64.5612376 C66.2600248,36.7889604 82.7238861,20.1528218 82.7238861,20.1528218 C82.7238861,20.1528218 79.8830446,28.5936634 81.3557426,39.6114851 L84.8606931,32.5773267 L88.7765347,24.5617327 L89.7289109,24.5617327 L141.105149,24.5617327 C145.721485,24.5617327 148.468267,25.5098762 149.749208,27.5736139 C150.216411,28.3285644 150.445371,29.2165594 150.445371,30.2035644 C150.445371,31.592797 149.986089,33.2161881 149.057871,35.0911881 C149.033119,35.1252228 143.686832,46.0171782 143.686832,46.0171782 C141.106386,51.1842574 135.362822,54.1535644 127.921733,54.1535644 L85.9539109,54.1535644 C87.1760644,56.5174257 88.6957426,58.8991089 90.5707426,61.2505941 C93.404901,64.8055446 96.4687624,68.0768317 99.640297,71.0936634 L119.384356,71.0936634 C123.004406,71.0936634 125.325693,71.9830198 126.442772,73.7961386 C128.073342,76.4352475 126.84849,80.1226238 124.518663,84.8379703 L122.086931,89.7934158 C128.668119,95.1988614 134.638663,100.745891 138.964158,107.376337 C140.096584,105.420891 141.196139,103.218416 142.396584,100.777327 C142.396584,100.777327 149.837673,85.6362376 152.022079,81.3572772 C159.38297,66.8305446 145.83396,63.1382178 136.62901,61.9468812 C154.704505,59.1374752 165.614158,53.9406931 170.809703,43.3775743 L177.017129,30.8612376 C179.848317,25.1092574 181.203762,21.1070297 181.203762,18.2481188 C181.203762,16.902203 180.914282,15.807104 180.348069,14.8882178 C176.882723,9.32658416 161.672327,8.31470297 134.840644,8.31470297 L71.1079703,8.31470297 L71.1126238,8.31408416 Z M79.5148515,51.5145792 C86.6836634,83.9180446 110.705446,88.4353713 127.022277,106.559134 C132.062376,112.180916 140.974257,130.981906 124.411634,141.982401 C123.582426,142.548614 122.567178,143.042698 121.617327,143.543936 C122.134035,144.373144 123.030743,145.342946 123.73,146.091708 C127.962673,150.782302 134.704257,154.174876 134.704257,154.174876 C134.704257,154.174876 126.850297,153.160792 121.602772,151.40953 C126.899802,156.830322 137.561436,159.221906 137.561436,159.221906 C137.561436,159.221906 134.07802,159.483168 131.039653,159.139728 C136.364406,162.342203 142.511931,160.938144 142.511931,160.938144 C141.589901,155.408936 138.296337,149.688391 138.296337,149.688391 C138.296337,149.688391 134.796089,149.609109 129.802277,147.783614 C132.308465,147.981634 135.296832,147.544208 138.412426,146.903738 C140.853639,146.4025 143.070842,146.331535 144.88099,146.405792 C142.674926,145.814827 140.390644,145.268144 138.011188,144.844257 L137.78396,144.791089 L137.953168,144.636386 C137.999579,144.611634 141.782376,141.285891 146.079901,139.850248 C140.998218,137.342822 135.307624,136.330446 135.253168,136.330446 L134.914752,136.248267 L135.224158,136.108069 C135.295322,136.043094 142.495693,132.420941 146.527129,132.225891 C144.299406,128.41401 142.665248,126.26599 142.649901,126.250396 L142.495198,126.047351 L142.751436,126.095693 C142.834975,126.095693 148.436089,126.511262 155.190545,129.329851 C154.602673,123.51302 153.842896,102.891733 169.650446,89.4065842 C182.843515,78.094703 197.563812,74.9570792 202.630644,62.9857921 C189.645,80.1578218 152.761832,81.0120297 143.417772,119.342228 C147.610347,120.935668 150.935347,124.689257 150.935347,124.689257 C148.905644,123.86005 146.783614,123.317624 145.032376,122.924678 C144.138193,122.748317 142.401436,122.451856 142.262327,122.436411 C141.640421,122.346683 141.174579,122.262376 141.174579,122.262376 C140.230891,118.311386 138.23745,112.893812 134.072847,107.37698 C120.70651,89.6388614 92.8723515,79.4809406 79.5159158,51.5155941 L79.5148515,51.5145792 Z M74.540099,66.3999752 C74.540099,66.3999752 81.2299505,88.5460149 102.361881,106.593045 C91.5883663,101.747748 75.3717822,89.4789356 75.3717822,89.4789356 C75.3717822,89.4789356 87.9933168,108.527203 101.965842,116.889827 C95.7311881,115.386114 89.0722772,111.953936 89.0722772,111.953936 C93.8217822,122.767797 113.936139,139.919282 124.470792,127.578936 C131.754208,119.057896 122.774851,107.185371 107.675743,97.7447772 C85.3767327,83.827698 74.539604,66.3982426 74.539604,66.3982426 L74.540099,66.3999752 Z M200.762871,75.7932921 C190.385396,84.797005 174.681188,89.1700248 167.361881,100.033391 C165.186757,103.275965 163.74505,107.082896 162.79802,110.780421 C164.731807,109.326213 167.62698,107.513589 170.315594,107.120767 C170.315594,107.120767 168.713837,117.653936 162.79802,125.361114 C177.578465,119.061609 171.119307,101.730173 196.132178,90.3586386 C189.54802,90.4669307 179.40495,94.3858663 179.40495,94.3858663 C193.55396,86.3598762 200.763614,75.7925495 200.763614,75.7925495 L200.762871,75.7932921 Z M197.731683,92.9992327 C191.55297,97.1081436 186.343317,100.278193 181.39604,109.093292 C181.306312,109.266559 181.229158,109.45453 181.130149,109.615421 L195.387079,109.581584 C195.387079,109.581584 188.433861,123.669208 186.781634,126.995446 L212.558861,126.995446 C213.307624,125.501015 227.531634,96.7949505 229.397228,93.000396 L197.731386,93.000396 L197.731683,92.9992327 Z M96.0782178,132.37547 C95.3387376,132.418787 94.5615594,132.433292 93.7818564,132.467327 C80.9382921,158.462376 56.3387871,208.276733 54.8165099,211.308911 L124.356114,211.308911 C166.309084,211.308911 173.479876,206.043564 183.767005,185.182673 C183.767005,185.182673 191.089777,170.417327 192.797698,166.918069 L167.005619,166.918069 C166.99646,166.952104 166.978936,167.00005 166.957277,167.034084 C168.594035,168.002525 169.781287,169.374554 169.877327,171.592995 C169.920644,172.49646 169.793589,173.534134 169.447054,174.716015 L169.248837,175.373515 L169.123144,174.716015 C168.665223,172.302649 167.016856,171.281856 166.357797,170.969233 C166.39802,171.123936 166.439975,171.330074 166.439975,171.559035 C166.50495,172.750248 166.084554,174.749134 162.968936,175.890718 L162.52901,176.064752 L162.770743,175.653812 C163.14203,175.096881 163.373886,174.540916 163.500743,174.014926 C161.050248,178.996361 158.337624,184.48646 158.337624,184.48646 C156.496658,188.189926 152.025743,194.416411 142.790099,194.416411 L89.010396,194.416411 C89.010396,194.416411 94.8339109,182.651312 101.937871,168.233243 C91.6457921,164.715916 88.215099,157.60948 88.215099,157.60948 C88.215099,157.60948 107.300495,153.080272 116.675495,142.767649 C109.435396,141.446485 102.275,137.687698 96.0806931,132.378292 L96.0782178,132.37547 Z M163.355446,143.436856 C163.197649,143.402822 163.040817,143.45245 162.954183,143.591559 C162.830421,143.749356 162.858267,143.994183 163.031535,144.142698 C163.201708,144.300495 163.462376,144.249257 163.592327,144.06052 C163.610891,144.06052 163.619975,144.012748 163.626163,143.987995 C163.530248,143.82401 163.435866,143.625594 163.355421,143.436856 L163.355446,143.436856 Z M143.021782,154.406163 C145.95198,157.453688 150.486139,159.134381 150.486139,159.134381 C150.486139,159.134381 147.25495,159.292748 145.859653,159.18755 C149.12698,161.749431 153.825,162.189282 154.474752,161.827153 C153.472277,158.467005 150.737624,154.855866 150.737624,154.855866 C150.737624,154.855866 147.678465,155.359233 143.021782,154.406262 L143.021782,154.406163 Z" fill="#8C2232" transform="translate(121.404678, 109.811498) scale(-1, 1) rotate(-180.000000) translate(-121.404678, -109.811498) "></path>
                    </g>
                </g>
            </g>
        </g>
    </g>
</svg>