<?xml version="1.0" encoding="UTF-8" standalone="no"?>
<svg width="250px" height="250px" viewBox="0 0 250 250" version="1.1" xmlns="http://www.w3.org/2000/svg" xmlns:xlink="http://www.w3.org/1999/xlink">
    <!-- Generator: Sketch 47.1 (45422) - http://www.bohemiancoding.com/sketch -->
    <title>UCONN</title>
    <desc>Created with Sketch.</desc>
    <defs></defs>
    <g id="Page-1" stroke="none" stroke-width="1" fill="none" fill-rule="evenodd">
        <g id="UCONN" fill-rule="nonzero">
            <g id="Connecticut_Huskies_logo" transform="translate(24.000000, 0.000000)">
                <path d="M199.922129,117.977709 C194.237556,108.343356 187.199652,99.8849202 183.381101,95.5717604 L186.478511,93.9222517 L185.311637,91.2708192 C182.531909,84.9477026 178.03547,78.4046514 176.584636,76.3612156 C168.378636,20.1948338 142.888228,3.69974693 141.793443,3.02283743 L139.771268,1.7643234 L138.02401,3.38634027 C125.145624,15.2566935 119.720573,31.4890809 117.982602,37.9184992 C111.350844,37.3350619 102.211344,36.9226847 101.771475,36.9074115 L101.649289,36.8983697 L101.502666,36.9074115 C101.062797,36.9228069 91.9294063,37.3350619 85.2886065,37.9184992 C83.5505131,31.4885922 78.137803,15.2559604 65.2501305,3.38634027 L63.5089825,1.7643234 L61.4715338,3.02283743 C60.3993531,3.70096878 34.8887849,20.1960557 26.7023343,76.3612156 C25.248323,78.4047736 20.7367334,84.947947 17.9660476,91.2708192 L16.7991729,93.9222517 L19.8811882,95.5717604 C16.0689904,99.8849202 9.0340191,108.343112 3.35555489,117.977709 L2.69880606,119.0896 L3.02870779,120.360333 C3.46246749,121.982349 13.6955307,160.564358 28.9467658,187.181319 L32.4596084,193.284501 L35.0255108,185.366859 C40.7286566,194.567452 52.9164486,211.810316 69.6578621,222.110582 C71.7014201,226.915417 81.1584811,246.333922 101.206243,249.128312 L101.646112,249.189405 L102.067653,249.128312 C122.118348,246.333189 131.563312,226.914928 133.606259,222.110582 C150.34865,211.810316 162.539864,194.567452 168.238611,185.366859 L170.804513,193.284501 L174.308314,187.181319 C189.566392,160.566801 199.808496,121.98296 200.238591,120.360333 L200.559328,119.0896 L199.914798,117.977709 L199.922129,117.977709 Z" id="Shape" fill="#A2AAAD"></path>
                <path d="M63.1204316,5.6486109 C63.1204316,5.6486109 37.6226928,21.5513409 29.670839,77.5525275 C29.670839,77.5525275 23.9921305,85.2712507 20.8123664,92.510761 L24.8931288,94.6871839 C24.8931288,94.6871839 14.0007509,106.023096 6.0403441,119.549556 C6.0403441,119.549556 16.4285833,159.052235 31.6480501,185.590997 L34.2110201,177.715631 C34.2110201,177.715631 48.9798656,206.202036 72.1546074,219.950385 C72.1546074,219.950385 80.7858143,243.134657 101.635604,246.015066 C122.468288,243.134413 131.10927,219.950385 131.10927,219.950385 C154.275703,206.201547 169.030864,177.715631 169.030864,177.715631 L171.608252,185.590997 C186.826497,159.052235 197.218401,119.549556 197.218401,119.549556 C189.251885,106.023585 178.351199,94.6871839 178.351199,94.6871839 L182.436848,92.510761 C179.257084,85.2712507 173.578376,77.5525275 173.578376,77.5525275 C165.626522,21.5523184 140.12634,5.6486109 140.12634,5.6486109 C124.633176,19.9595039 120.376222,41.282886 120.376222,41.282886 C113.891087,40.558935 101.637804,40.0180672 101.637804,40.0180672 C101.637804,40.0180672 89.3654589,40.558935 82.8803238,41.282886 C82.8803238,41.282886 78.6228808,19.9595039 63.1206759,5.6486109 L63.1204316,5.6486109 Z" id="Shape" fill="#000E2F"></path>
                <path d="M62.421221,17.0910694 L62.421221,17.0958346 C62.421221,17.0958346 42.8240802,30.6655484 37.5539611,72.3140544 C37.5539611,72.3140544 41.3273038,62.6845893 47.2716444,49.2991317 C53.2098757,35.9075649 61.9053524,24.5174019 61.9053524,24.5174019 C66.3345887,31.3993965 66.8499685,40.9934278 66.8499685,40.9934278 C60.5422473,49.8734051 57.9866085,58.1901057 57.9866085,58.1901057 L62.0817887,57.6459878 C59.1952707,63.0803247 57.8243457,72.3082873 57.8243457,72.3082873 C69.7435733,59.998065 82.7013805,53.4745636 82.7013805,53.4745636 C82.7013805,53.4745636 77.4217308,52.7633932 75.0361747,52.7633932 L79.1264675,50.2194842 C79.1264675,50.2194842 75.3609446,28.6842319 62.4214653,17.0900186 L62.421221,17.0910694 Z M141.140663,17.0910694 L141.140663,17.0958346 C128.196296,28.6844274 124.440304,50.2204129 124.440304,50.2204129 L128.525954,52.7643218 C126.146385,52.7643218 120.865391,53.4802575 120.865391,53.4802575 C120.865391,53.4802575 133.820021,59.9991158 145.737538,72.3093381 C145.737538,72.3093381 144.371476,63.084308 141.484983,57.6470386 L145.565745,58.1911565 C145.565745,58.1911565 143.016949,49.8663916 136.71216,40.9895912 C136.71216,40.9895912 137.219744,31.3926274 141.652133,24.5135653 C141.652133,24.5135653 150.350542,35.9017733 156.285841,49.2952951 C162.227005,62.6775758 166.008167,72.3102178 166.008167,72.3102178 C160.732183,30.6595124 141.140907,17.0895543 141.140907,17.0895543 L141.140663,17.0910694 Z M101.655091,70.8919336 C96.5577422,94.6045374 95.1306117,125.313502 95.1306117,125.313502 C84.7418838,132.736291 78.4446706,142.806114 78.4446706,142.806114 C76.7310143,135.019944 77.0748452,126.401689 77.0748452,126.401689 C62.7607754,122.238084 62.2598135,110.832526 62.2598135,110.832526 C62.2598135,110.832526 67.7009928,110.114489 73.3186085,111.018664 L71.9550146,106.673736 C71.9550146,106.673736 79.1219466,109.920946 85.2617845,124.051738 C85.2617845,124.051738 91.0433736,119.878358 89.5192275,97.4372203 C89.5192275,97.4372203 84.397442,90.3675483 76.9045182,87.4810302 C73.4926011,91.6353484 70.6090155,96.7116809 70.6090155,96.7116809 L73.1578119,97.9764997 C66.1780687,107.219858 56.4623403,109.016234 56.4623403,109.016234 C55.9491598,120.248044 58.9441788,134.335581 58.9441788,134.335581 C51.9551494,126.549411 49.6419273,113.902934 49.6419273,113.902934 C40.9606242,110.826783 34.8220081,110.113218 34.8220081,110.113218 L26.4693849,117.162852 L34.8220081,122.604031 L21.0211188,124.400163 C25.6123735,143.949895 34.3137151,164.416022 34.3137151,164.416022 L36.8625115,158.082397 C47.9447662,179.78871 58.3261629,186.490602 58.3261629,186.490602 C55.2685847,175.640501 50.3269011,163.685839 50.3269011,163.685839 C65.8322828,174.911784 75.1208495,199.073299 79.1212135,211.839274 C85.2610514,231.395116 101.787662,230.902219 101.787662,230.902219 C101.787662,230.902219 118.307675,231.395214 124.44458,211.839274 C128.440057,199.073788 137.733023,174.912273 153.234005,163.685839 C153.234005,163.685839 148.290611,175.640501 145.229856,186.490602 C145.229856,186.490602 155.617362,179.78871 166.693508,158.082397 L169.247191,164.41651 C169.247191,164.41651 177.939736,143.950384 182.549318,124.400651 L168.736699,122.606035 L177.093965,117.164856 L168.736699,110.115222 C168.736699,110.115222 162.60297,110.828812 153.921667,113.904938 C153.921667,113.904938 151.594443,126.551415 144.614528,134.337585 C144.614528,134.337585 147.616145,120.248826 147.105897,109.018238 C147.105897,109.018238 137.391635,107.221959 130.405538,97.9785035 L132.963865,96.7136847 C132.963865,96.7136847 130.063174,91.6373523 126.654189,87.4830341 C119.167375,90.3695521 114.04901,97.4392242 114.04901,97.4392242 C112.515578,119.878652 118.306453,124.053741 118.306453,124.053741 C124.443114,109.92295 131.603693,106.67574 131.603693,106.67574 L130.238657,111.023845 C135.856273,110.119669 141.302095,110.837707 141.302095,110.837707 C141.302095,110.837707 140.795024,122.243265 126.487063,126.406869 C126.487063,126.406869 126.831676,135.02488 125.136348,142.811294 C125.136348,142.811294 118.81543,132.741472 108.426458,125.318682 C108.426458,125.318682 106.771915,94.6060525 101.658585,70.8946705 L101.655091,70.8919336 Z" id="Shape" fill="#FFFFFF"></path>
                <path d="M101.782472,158.621603 C110.118478,158.621603 115.06065,164.415899 115.06065,164.415899 C114.88959,181.079114 103.825174,183.598097 103.825174,183.598097 C103.825174,183.598097 102.796712,188.315692 111.829323,187.946202 C120.864966,187.585754 123.760281,182.698809 130.911329,168.940685 C133.700098,163.561576 135.954427,161.905469 137.665028,161.905469 C131.723865,172.260718 127.715192,185.024739 126.453501,189.326413 C125.048364,193.401311 123.763213,197.768476 122.730743,202.246587 C118.133624,221.988885 101.782472,223.423835 101.782472,223.423835 C101.782472,223.423835 85.4254546,221.988713 80.8341999,202.246587 C79.8475493,198.064899 78.6799171,193.991712 77.3785403,190.152145 C76.4652012,186.932548 72.326645,173.025113 65.9331493,161.905225 C67.6406963,161.932717 69.8580025,163.603999 72.6438394,168.940441 C79.7917104,182.698565 82.6992444,187.585509 91.7258447,187.945958 C100.755377,188.31557 99.7395245,183.597853 99.7395245,183.597853 C99.7395245,183.597853 88.662646,181.078625 88.4945183,164.415655 C88.4945183,164.415655 93.4215396,158.621359 101.782227,158.621359 L101.782472,158.621603 Z" id="Shape" fill="#000E2F"></path>
                <path d="M69.5205253,115.03303 C69.5205253,115.03303 68.3547991,119.954187 72.8329831,121.295054 C77.3142705,122.642153 78.4745472,118.37408 78.4745472,118.37408 C76.9288964,117.219424 75.3585642,116.468176 74.0023015,115.973324 C74.2833289,116.837788 74.7103928,117.849438 75.324401,118.775045 C74.8753681,118.952214 74.3014857,119.009299 73.5775347,118.789463 C71.2437853,118.096058 71.5946786,115.724065 71.6588261,115.314742 C70.3575471,115.045933 69.5205741,115.033153 69.5205741,115.033153 L69.5205253,115.03303 Z M134.034643,115.03303 C134.034643,115.03303 133.195568,115.045738 131.882071,115.31462 C131.961492,115.723942 132.311432,118.097524 129.977682,118.793984 C129.247622,119.013918 128.678505,118.955122 128.235581,118.774923 C128.840401,117.849365 129.263091,116.84077 129.562446,115.973202 C128.181746,116.471109 126.630719,117.219302 125.076027,118.373958 C125.076027,118.373958 126.224574,122.642153 130.727121,121.294932 C135.202055,119.953943 134.034692,115.032908 134.034692,115.032908 L134.034643,115.03303 Z" id="Shape" fill="#A4C8E1"></path>
                <path d="M101.638292,204.944695 C105.786501,204.807235 110.432739,200.640821 110.588404,194.228997 C102.640216,194.228997 104.029958,200.222212 101.638292,200.222212 C99.2281768,200.222212 100.66386,194.228997 92.6698524,194.228997 C92.8103661,200.640821 97.4624694,204.807358 101.638292,204.944695" id="Shape" stroke="#E4002B" stroke-width="0.5" fill="#E4002B"></path>
                <path d="M101.625766,162.516887 C98.0242165,162.516887 94.2462307,164.117399 92.9295562,166.411683 C94.8936934,164.783557 98.4457576,163.758051 101.625766,163.758051 C104.824102,163.758051 108.365292,164.783752 110.317088,166.411683 C108.991372,164.117644 105.230248,162.516887 101.625766,162.516887 Z M88.0851325,195.186934 C83.7169891,198.548755 84.4339755,209.416207 90.7387643,211.920772 C97.2085039,213.820591 96.4250484,214.861296 101.620879,215.113732 C106.819886,214.86115 106.028121,213.82042 112.488819,211.920772 C118.790676,209.416451 119.515726,198.548755 115.156869,195.186934 C117.04464,202.396631 110.344947,209.12516 110.283854,208.94237 C110.063919,207.512821 108.67061,207.022782 108.67061,207.009342 C108.655215,206.915283 107.47077,211.127004 101.620976,211.266785 C95.7560566,211.127053 94.5808733,206.915503 94.5808733,207.009342 C94.5808733,207.022782 93.1667678,207.512796 92.9437786,208.94237 C92.8918497,209.125087 86.1849473,202.396631 88.084937,195.186934 L88.0851325,195.186934 Z" id="Shape" fill="#FFFFFF"></path>
            </g>
        </g>
    </g>
</svg>