<?xml version="1.0" encoding="UTF-8"?>
<svg width="500px" height="500px" viewBox="0 0 500 500" version="1.1" xmlns="http://www.w3.org/2000/svg" xmlns:xlink="http://www.w3.org/1999/xlink">
    <!-- Generator: Sketch 58 (84663) - https://sketch.com -->
    <title>Team Logos / NCAA / Dark / PROV</title>
    <desc>Created with Sketch.</desc>
    <g id="Team-Logos-/-NCAA-/-Dark-/-PROV" stroke="none" stroke-width="1" fill="none" fill-rule="evenodd">
        <g id="FIGURE-(1)" transform="translate(0.000000, 84.000000)">
            <path d="M410.547863,203.871795 C404.458974,201.676068 398.757265,199.155556 394.141026,196.937607 L412.305983,169.582051 L407.470085,155.861538 L414.671795,142.507692 C415.396581,142.108547 416.121368,141.674359 416.688889,141.265812 C418.341026,140.079487 420.218803,138.349573 421.689744,135.776068 C424.444444,130.95641 425.077778,126.291453 424.634188,122.14359 C424.44188,120.340171 424.046154,118.647009 423.564957,117.071795 C423.221368,115.946154 422.836752,114.902564 422.5,113.935043 C422.5,113.935043 419.455556,104.801709 416.098291,95.2410256 L423.808547,87.7452991 L418.058974,71.8076923 L449.967521,53.7777778 L435.542735,39.4615385 C434.189744,38.1188034 406.786325,11.4376068 354.069231,2.44273504 C326.780342,-2.21367521 299.750427,1.77179487 277.182906,7.61538462 C255.139316,13.3239316 236.324786,21.1324786 224.364957,25.4230769 C214.740171,28.8760684 205.552991,30.8222222 198.791453,32.0145299 C188.888889,33.7606838 161.538462,35.8974359 161.538462,35.8974359 C161.538462,35.8974359 171.195726,49.3410256 173.076923,52.1367521 C174.764103,54.6444444 177.38547,59.0948718 177.922222,60.1025641 C179.083761,62.2863248 180.589744,65.5034188 182,69.6230769 C184.888889,78.0581197 187.428205,90.4102564 185.684615,105.676068 C181.473504,142.533333 161.058974,163.325641 108.715385,186.971795 C28.8957265,223.030769 17.0940171,240.598291 12.6068376,244.444444 L0.641025641,257.478632 C0.641025641,257.478632 49.8974359,257.439316 75.025641,258.736752 C100.326496,260.04359 137.011111,264.070085 182.558974,274.877778 C232.050427,286.620513 264.692308,299.246154 284.688889,308.710256 C294.27094,313.245299 301.952991,317.864103 307.239316,321.352137 C312.369231,324.735897 321.086325,331.812821 321.086325,331.812821 L330.840171,323.411966 C331.04188,323.237607 368.518803,291.02906 396.877778,275.361538 C400.218803,273.515385 404.038462,271.525641 408.194872,269.444444 L444.017094,269.444444 L444.017094,252.690598 C472.162393,240.139316 499.435897,228.982906 499.435897,228.982906 C499.435897,228.982906 437.353846,213.538462 410.547863,203.871795 Z M427.171795,257.424786 L425.388034,257.424786 L425.224786,265.275214 L422.971795,265.275214 L423.135897,257.424786 L421.367521,257.424786 L421.405128,255.634188 L427.209402,255.634188 L427.171795,257.424786 Z M435.482906,265.275214 L435.083761,258.332479 L435.052991,258.332479 L434.641026,260.711111 L433.577778,265.275214 L431.840171,265.275214 L430.832479,260.659829 L430.5,258.511111 L430.503419,258.332479 L430.473504,258.332479 L429.995726,265.275214 L427.577778,265.275214 L428.776068,255.634188 L431.739316,255.634188 L432.723077,261.324786 L432.753846,261.324786 L433.779487,255.634188 L436.802564,255.634188 L437.795726,265.275214 L435.482906,265.275214 Z M392.711111,267.820513 C363.442735,283.991453 325.305983,316.808547 325.217094,316.884615 L320.922222,320.583761 C320.922222,320.583761 317.503419,317.801709 311.983761,314.160684 C306.448718,310.509402 298.405983,305.67094 288.374359,300.923077 C267.778632,291.175214 234.559829,278.361538 184.547863,266.494872 C138.347009,255.532479 101.134188,251.45812 75.4700855,250.133333 C50.1606838,248.825641 20.5128205,248.717949 20.5128205,248.717949 C20.5128205,248.717949 32.6923077,230.769231 112.261538,194.823077 C165.596581,170.72906 189.513675,148.054701 194.244444,106.654701 C196.158974,89.8957265 193.375214,76.2470085 190.151282,66.8316239 C188.553846,62.1675214 186.842735,58.5282051 185.52735,56.0564103 C184.92735,54.9282051 182.887179,51.8410256 180.998291,49.034188 C179.097436,46.2094017 176.733333,42.7760684 176.733333,42.7760684 C176.733333,42.7760684 193.158974,41.7017094 200.224786,40.5102564 C207.38547,39.3017094 217.093162,37.1846154 227.273504,33.5324786 C239.065812,29.3025641 257.608547,21.5837607 279.342735,15.9564103 C301.306838,10.2683761 327.004274,6.56410256 352.620513,10.9350427 C403.002564,19.5324786 428.878632,44.9854701 429.473504,45.5769231 L435.821368,51.8760684 L407.48547,67.8863248 L413.818803,85.4418803 L406.132479,92.9145299 C410.099145,103.978632 414.326496,116.658974 414.326496,116.658974 C414.638462,117.559829 415.003419,118.533333 415.324786,119.58547 C415.653846,120.665812 415.935897,121.823077 416.067521,123.058974 C416.335897,125.565812 415.988889,128.388889 414.209402,131.501709 C413.503419,132.737607 412.591453,133.601709 411.661538,134.270085 C410.815385,134.878632 409.111111,135.669231 408.333333,136.111111 L398.076923,155.128205 L402.752991,168.394017 L381.623932,200.213675 C386.324786,202.777778 396.342735,207.907692 407.625641,211.976068 C434.765812,221.763248 471.794872,230.982906 471.794872,230.982906 C471.794872,230.982906 423.911111,250.582906 392.711111,267.820513 L392.711111,267.820513 Z" id="Fill-1" fill="#FFFFFF"></path>
            <path d="M341.488034,114.347009 C343.417094,123.720513 347.280342,132.723932 347.280342,132.723932 L328.666667,126.487179 L324.021368,137.202564 C324.021368,137.202564 322.011966,152.017094 332.435897,162.147009 C348.05812,177.328205 374.135897,180.438462 374.135897,180.438462 L384.198291,166.862393 L379.658974,157.876068 L371.125641,157.006838 L380.87265,151.829915 L385.255556,145.998291 L366.342735,146.488034 C366.342735,146.488034 371.867521,143.024786 375.74188,141.575214 C378.55812,140.520513 383.176068,139.529915 383.176068,139.529915 L386.466667,131.702564 L376.142735,131.702564 L373.654701,118.77094 L379.861538,122.894872 L398.580342,122.963248 C394.306838,109.502564 388.561538,93.9264957 388.561538,93.9264957 L368.691453,105.677778 L371.468376,96.9179487 L356.939316,96.2769231 L382.517094,82.3247863 L385.35641,88.7982906 L393.047009,81.7478632 L388.987179,69.7820513 L340.274359,96.4905983 C340.274359,96.4905983 339.246154,103.457265 341.488034,114.347009" id="Fill-2" fill="#FFFFFF"></path>
            <path d="M315.919658,153.325641 L307.373504,172.769231 C307.373504,172.769231 316.348718,175.547009 325.107692,179.178632 C334.154701,182.929915 340.099145,186.152137 340.099145,186.152137 L343.739316,180.728205 C343.739316,180.728205 334.65641,177.534188 326.817094,171.487179 C318.428205,165.016239 315.919658,153.325641 315.919658,153.325641" id="Fill-3" fill="#FFFFFF"></path>
            <path d="M407.625641,211.976068 C396.342735,207.907692 386.324786,202.777778 381.623932,200.213675 L402.752991,168.394017 L398.076923,155.128205 L408.333333,136.111111 C409.111111,135.669231 410.815385,134.878632 411.661538,134.270085 C412.591453,133.601709 413.503419,132.737607 414.209402,131.501709 C415.988889,128.388889 416.335897,125.565812 416.067521,123.058974 C415.935897,121.823077 415.653846,120.665812 415.324786,119.58547 C415.003419,118.533333 414.638462,117.559829 414.326496,116.658974 C414.326496,116.658974 410.099145,103.978632 406.132479,92.9145299 L413.818803,85.4418803 L407.48547,67.8863248 L435.821368,51.8760684 L429.473504,45.5769231 C428.878632,44.9854701 403.002564,19.5324786 352.620513,10.9350427 C327.004274,6.56410256 301.306838,10.2683761 279.342735,15.9564103 C257.608547,21.5837607 239.065812,29.3025641 227.273504,33.5324786 C217.093162,37.1846154 207.38547,39.3017094 200.224786,40.5102564 C193.158974,41.7017094 176.733333,42.7760684 176.733333,42.7760684 C176.733333,42.7760684 179.097436,46.2094017 180.998291,49.034188 C182.887179,51.8410256 184.92735,54.9282051 185.52735,56.0564103 C186.842735,58.5282051 188.553846,62.1675214 190.151282,66.8316239 C193.375214,76.2470085 196.158974,89.8957265 194.244444,106.654701 C189.513675,148.054701 165.596581,170.72906 112.261538,194.823077 C32.6923077,230.769231 20.5128205,248.717949 20.5128205,248.717949 C20.5128205,248.717949 50.1606838,248.825641 75.4700855,250.133333 C101.134188,251.45812 138.347009,255.532479 184.547863,266.494872 C234.559829,278.361538 267.778632,291.175214 288.374359,300.923077 C298.405983,305.67094 306.448718,310.509402 311.983761,314.160684 C317.503419,317.801709 320.922222,320.583761 320.922222,320.583761 L325.217094,316.884615 C325.305983,316.808547 363.442735,283.991453 392.711111,267.820513 C423.911111,250.582906 471.794872,230.982906 471.794872,230.982906 C471.794872,230.982906 434.765812,221.763248 407.625641,211.976068 Z M389.437607,261.895726 C359.454701,278.460684 320.799145,311.755556 320.799145,311.755556 C320.799145,311.755556 286.952137,283.835897 186.110256,259.908547 C92.6811966,237.740171 35.6,243.463248 35.6,243.463248 C35.6,243.463248 50.9897436,231.474359 115.170085,200.935897 C168.544444,175.539316 195.823077,152.467521 200.969231,107.423077 C205.066667,71.5598291 189.067521,48.7521368 189.067521,48.7521368 C189.067521,48.7521368 208.324786,47.5213675 229.559829,39.9042735 C252.879487,31.5384615 302.879487,9.31452991 351.481197,17.608547 C400.029915,25.8923077 424.705128,50.3811966 424.705128,50.3811966 L399.178632,64.8051282 L405.969231,83.6316239 L398.277778,91.1102564 C402.564103,102.777778 407.905983,118.803419 407.905983,118.803419 C409.028205,122.031624 409.544444,124.692308 407.692308,127.564103 C406.034188,130.135897 403.909402,131.229915 400.854701,131.410256 L397.638462,131.6 L394.433333,139.399145 L398.706838,140.040171 L389.733333,154.997436 L395.075214,167.603419 L377.982906,192.388889 L355.547009,185.765812 L351.429915,191.62735 C351.429915,191.62735 374.969231,207.394872 405.32906,218.34359 C432.896581,228.28547 450.845299,232.558974 450.845299,232.558974 C450.845299,232.558974 421.023932,244.444444 389.437607,261.895726 L389.437607,261.895726 Z" id="Fill-4" fill="#B3B5B8"></path>
            <path d="M296.741026,170.157265 C296.741026,170.157265 292.694017,156.797436 295.834188,139.436752 C303.951282,94.5675214 351.283761,49.6888889 351.283761,49.6888889 C351.283761,49.6888889 306.721368,78.7598291 287.928205,122.77094 C279.783761,141.84359 280.57094,157.906838 280.57094,157.906838 C280.57094,157.906838 274.518803,149.421368 271.935043,136.807692 C266.776068,111.624786 272.270085,79.2957265 272.270085,79.2957265 C272.270085,79.2957265 259.788889,114.508547 260.366667,139.010256 C260.693162,152.867521 262.579487,156.88547 262.579487,156.88547 C262.579487,156.88547 255.549573,152.494872 249.435043,146.676068 C241.210256,138.849573 232.155556,125.236752 232.155556,125.236752 C232.155556,125.236752 235.131624,137.828205 238.28547,145.315385 C242.158974,154.509402 245.411111,158.666667 245.411111,158.666667 C245.411111,158.666667 232.488889,160.888034 220.840171,165.504274 C209.517949,169.990598 196.696581,177.469231 196.696581,177.469231 C196.696581,177.469231 224.083761,166.699145 262.290598,166.358974 C281.790598,166.18547 296.741026,170.157265 296.741026,170.157265" id="Fill-5" fill="#B3B5B8"></path>
            <path d="M364.294872,214.774359 C332.405983,197.112821 312.740171,183.174359 262.718803,180.247009 C197.449573,176.42735 136.658974,208.664957 136.658974,208.664957 C136.658974,208.664957 204.534188,185.420513 262.078632,192.426496 C335.792308,201.4 375.322222,251.824786 375.322222,251.824786 C375.322222,251.824786 388.568376,244.322222 395.619658,241.14188 C406.516239,236.22735 412.498291,234.731624 412.498291,234.731624 C412.498291,234.731624 389.133333,228.531624 364.294872,214.774359" id="Fill-6" fill="#B3B5B8"></path>
            <path d="M405.32906,218.34359 C374.969231,207.394872 351.429915,191.62735 351.429915,191.62735 L355.547009,185.765812 L377.982906,192.388889 L395.075214,167.603419 L389.733333,154.997436 L398.706838,140.040171 L394.433333,139.399145 L397.638462,131.6 L400.854701,131.410256 C403.909402,131.229915 406.034188,130.135897 407.692308,127.564103 C409.544444,124.692308 409.028205,122.031624 407.905983,118.803419 C407.905983,118.803419 402.564103,102.777778 398.277778,91.1102564 L405.969231,83.6316239 L399.178632,64.8051282 L424.705128,50.3811966 C424.705128,50.3811966 400.029915,25.8923077 351.481197,17.608547 C302.879487,9.31452991 252.879487,31.5384615 229.559829,39.9042735 C208.324786,47.5213675 189.067521,48.7521368 189.067521,48.7521368 C189.067521,48.7521368 205.066667,71.5598291 200.969231,107.423077 C195.823077,152.467521 168.544444,175.539316 115.170085,200.935897 C50.9897436,231.474359 35.6,243.463248 35.6,243.463248 C35.6,243.463248 92.6811966,237.740171 186.110256,259.908547 C286.952137,283.835897 320.799145,311.755556 320.799145,311.755556 C320.799145,311.755556 359.454701,278.460684 389.437607,261.895726 C421.023932,244.444444 450.845299,232.558974 450.845299,232.558974 C450.845299,232.558974 432.896581,228.28547 405.32906,218.34359 Z M388.987179,69.7820513 L393.047009,81.7478632 L385.35641,88.7982906 L382.517094,82.3247863 L356.939316,96.2769231 L371.468376,96.9179487 L368.691453,105.677778 L388.561538,93.9264957 C388.561538,93.9264957 394.306838,109.502564 398.580342,122.963248 L379.861538,122.894872 L373.654701,118.77094 L376.142735,131.702564 L386.466667,131.702564 L383.176068,139.529915 C383.176068,139.529915 378.55812,140.520513 375.74188,141.575214 C371.867521,143.024786 366.342735,146.488034 366.342735,146.488034 L385.255556,145.998291 L380.87265,151.829915 L371.125641,157.006838 L379.658974,157.876068 L384.198291,166.862393 L374.135897,180.438462 C374.135897,180.438462 348.05812,177.328205 332.435897,162.147009 C322.011966,152.017094 324.021368,137.202564 324.021368,137.202564 L328.666667,126.487179 L347.280342,132.723932 C347.280342,132.723932 343.417094,123.720513 341.488034,114.347009 C339.246154,103.457265 340.274359,96.4905983 340.274359,96.4905983 L388.987179,69.7820513 Z M343.739316,180.728205 L340.099145,186.152137 C340.099145,186.152137 334.154701,182.929915 325.107692,179.178632 C316.348718,175.547009 307.373504,172.769231 307.373504,172.769231 L315.919658,153.325641 C315.919658,153.325641 318.428205,165.016239 326.817094,171.487179 C334.65641,177.534188 343.739316,180.728205 343.739316,180.728205 Z M220.840171,165.504274 C232.488889,160.888034 245.411111,158.666667 245.411111,158.666667 C245.411111,158.666667 242.158974,154.509402 238.28547,145.315385 C235.131624,137.828205 232.155556,125.236752 232.155556,125.236752 C232.155556,125.236752 241.210256,138.849573 249.435043,146.676068 C255.549573,152.494872 262.579487,156.88547 262.579487,156.88547 C262.579487,156.88547 260.693162,152.867521 260.366667,139.010256 C259.788889,114.508547 272.270085,79.2957265 272.270085,79.2957265 C272.270085,79.2957265 266.776068,111.624786 271.935043,136.807692 C274.518803,149.421368 280.57094,157.906838 280.57094,157.906838 C280.57094,157.906838 279.783761,141.84359 287.928205,122.77094 C306.721368,78.7598291 351.283761,49.6888889 351.283761,49.6888889 C351.283761,49.6888889 303.951282,94.5675214 295.834188,139.436752 C292.694017,156.797436 296.741026,170.157265 296.741026,170.157265 C296.741026,170.157265 281.790598,166.18547 262.290598,166.358974 C224.083761,166.699145 196.696581,177.469231 196.696581,177.469231 C196.696581,177.469231 209.517949,169.990598 220.840171,165.504274 Z M375.322222,251.824786 C375.322222,251.824786 335.792308,201.4 262.078632,192.426496 C204.534188,185.420513 136.658974,208.664957 136.658974,208.664957 C136.658974,208.664957 197.449573,176.42735 262.718803,180.247009 C312.740171,183.174359 332.405983,197.112821 364.294872,214.774359 C389.133333,228.531624 412.498291,234.731624 412.498291,234.731624 C412.498291,234.731624 406.516239,236.22735 395.619658,241.14188 C388.568376,244.322222 375.322222,251.824786 375.322222,251.824786 L375.322222,251.824786 Z" id="Fill-7" fill="#000000"></path>
            <polyline id="Fill-8" fill="#000000" points="421.367521 257.424786 423.135897 257.424786 422.971795 265.275214 425.224786 265.275214 425.388034 257.424786 427.171795 257.424786 427.209402 255.634188 421.405128 255.634188 421.367521 257.424786"></polyline>
            <polyline id="Fill-9" fill="#000000" points="433.779487 255.634188 432.753846 261.324786 432.723077 261.324786 431.739316 255.634188 428.776068 255.634188 427.577778 265.275214 429.995726 265.275214 430.473504 258.332479 430.503419 258.332479 430.5 258.511111 430.832479 260.659829 431.840171 265.275214 433.577778 265.275214 434.641026 260.711111 435.052991 258.332479 435.083761 258.332479 435.482906 265.275214 437.795726 265.275214 436.802564 255.634188 433.779487 255.634188"></polyline>
        </g>
    </g>
</svg>