<?xml version="1.0" encoding="UTF-8"?>
<svg width="250px" height="250px" viewBox="0 0 250 250" version="1.1" xmlns="http://www.w3.org/2000/svg" xmlns:xlink="http://www.w3.org/1999/xlink">
    <!-- Generator: Sketch 53.2 (72643) - https://sketchapp.com -->
    <title>PITT</title>
    <desc>Created with Sketch.</desc>
    <g id="PITT" stroke="none" stroke-width="1" fill="none" fill-rule="evenodd">
        <g id="Asset-1" transform="translate(0.000000, 55.000000)" fill-rule="nonzero">
            <path d="M178.962054,75.8912 C178.783482,84.1232 178.727679,92.176 179.0625,98.2912 C180.178571,118.944 198.560268,115.1808 199.151786,92.8704 C199.397321,83.0144 199.375,77.7168 199.207589,73.4608 C192.388212,73.4839129 185.594444,74.299479 178.962054,75.8912 Z M194.899554,92.6912 C194.631696,103.1968 190.145089,107.5648 187.790179,107.5648 C185.814732,107.5648 183.627232,104.272 183.325893,97.9776 C183.069196,93.4976 183.013393,87.472 183.158482,79.2848 C187.101103,78.4782333 191.095305,77.950535 195.111607,77.7056 C195.111607,81.5808 195.055804,86.24 194.899554,92.736 L194.899554,92.6912 Z" id="Shape" fill="#FFB71B"></path>
            <path d="M246.785714,107.688 C245.430956,104.155454 242.064084,101.811215 238.292411,101.7744 C235.044643,101.7744 231.886161,103.488 229.363839,106.5904 C228.165365,108.226949 226.728116,109.673032 225.100446,110.88 C224.804271,111.078165 224.437463,111.138903 224.093548,111.046727 C223.749633,110.954551 223.461849,110.718368 223.303571,110.3984 C222.468762,108.495202 221.952169,106.466966 221.774554,104.3952 C221.774554,102.816 221.774554,93.0496 222.075893,84.784 C223.4375,85.4784 224.732143,86.1056 225.915179,86.5872 C227.358246,87.1760712 228.89981,87.4839489 230.457589,87.4944 C233.127965,87.6571501 235.681536,86.3758701 237.154018,84.1344 C239.895278,79.9411003 241.08043,74.914225 240.502232,69.9328 C240.253613,67.8286073 239.329035,65.8628618 237.868304,64.3328 C234.01092,60.1723011 229.483431,56.6927944 224.475446,54.04 C224.787946,49.4704 225.011161,45.024 225.145089,40.768 L225.145089,40.3424 L225.078125,39.9392 C223.962054,33.2192 219.631696,29.3104 213.191964,29.3104 C205.691964,29.3104 197.566964,34.552 195.122768,36.568 L193.515625,37.8784 L193.761161,50.4224 C190.367407,50.946073 187.011873,51.694372 183.716518,52.6624 C184.0625,38.6176 183.716518,36.8256 182.120536,35.2128 C179.561449,32.3697705 175.892358,30.7905986 172.075893,30.8896 C164.151786,30.8896 155.770089,36.8592 152.354911,40.6224 L151.09375,42.0112 L151.272321,43.8816 C151.841518,49.7728 152.321429,55.328 152.700893,60.4688 C152.157243,60.2164223 151.634722,59.9205332 151.138393,59.584 C149.727653,58.6377479 148.069618,58.1311827 146.372768,58.128 C144.950577,58.1328459 143.555593,58.5195571 142.332589,59.248 C141.727934,59.6445222 141.156812,60.0902923 140.625,60.5808 C138.947675,62.0537774 137.926957,64.1386942 137.790179,66.3712 C137.790179,67.312 137.712054,68.2192 137.723214,69.0816 C134.820008,67.9918653 131.737441,67.4636282 128.638393,67.5248 C127.520024,67.5278319 126.402524,67.5876417 125.290179,67.704 C128.542525,61.9897324 130.379759,55.5751892 130.647321,49 C131.09375,36.4224 127.03125,25.2336 118.928571,16.632 C109.051339,6.1376 93.984375,0.392 75.3794643,0 L73.5491071,0 C38.0691964,0 4.46428571,19.88 0.100446429,43.4224 L0,43.9488 L0,44.4864 C0.521721931,51.4377968 5.76442113,57.1032969 12.6339286,58.1392 C13.3289005,58.2398941 14.0299744,58.2922855 14.7321429,58.296 C20.0111607,58.296 23.0691964,55.1152 25.1450893,52.3264 L25.2790179,52.1472 L25.4017857,51.9456 C27.6768502,48.0271862 30.4617422,44.4302407 33.6830357,41.2496 C33.515625,42.3024 33.4263393,43.288 33.359375,44.128 L33.359375,44.4528 L33.359375,44.7776 C34.3638393,60.0768 35.0558036,75.5888 35.7254464,90.5744 C36.0714286,98.224 36.4174107,106.1424 36.8415179,113.904 L36.8415179,114.24 C36.9977679,115.5616 37.03125,116.9952 37.0758929,118.5072 C37.1986607,123.2896 37.3549107,129.248 41.953125,133.616 L42.265625,133.9184 L42.6339286,134.1424 C47.6908887,137.193404 53.4745328,138.818525 59.375,138.8464 L59.375,138.8464 C64.1067862,138.960762 68.7591113,137.611765 72.7008929,134.9824 L73.125,134.6912 L73.4709821,134.2992 C75.7624105,131.69775 77.0561588,128.362661 77.1205357,124.8912 C77.3549107,121.0944 77.1205357,112.0784 76.5401786,97.4064 C89.4742336,96.1080254 101.776492,91.1565965 112.020089,83.1264 L112.232143,82.9472 C112.120536,85.6464 112.142857,88.144 112.165179,90.4736 C112.165179,95.7152 112.265625,100.24 110.747768,104.6976 C109.341518,108.4944 107.555804,110.8128 105.412946,111.5632 C104.672486,111.813094 103.894948,111.934301 103.113839,111.9216 C101.638656,111.863512 100.172993,111.657146 98.7388393,111.3056 C97.4131711,110.989098 96.0601886,110.801564 94.6986607,110.7456 C94.3789631,110.727909 94.0585369,110.727909 93.7388393,110.7456 L93.6272321,110.7456 C90.078125,111.2496 87.5558036,114.4416 87.3660714,118.6864 C86.9196429,128.3408 96.7745536,135.0608 106.752232,137.424 C107.900393,137.696972 109.076765,137.832318 110.256696,137.8272 C115.837054,137.8272 121.506696,135.1728 125.770089,131.936 C131.060268,137.0992 137.421875,139.8992 144.006696,139.8992 C150.870536,139.8992 157.399554,136.9088 162.8125,131.3872 C167.541381,135.990092 173.837243,138.616596 180.424107,138.7344 C187.544643,138.7344 194.274554,135.5536 199.765625,129.6624 C204.934445,134.758373 211.861897,137.658649 219.107143,137.76 C227.176339,137.76 234.274554,134.4 240.212054,127.8928 C246.796875,121.1728 249.252232,113.6016 246.785714,107.688 Z M72.1540179,93.408 C72.7790179,107.1168 73.2142857,120.1312 72.9129464,124.6448 C72.8981939,127.156114 71.9739514,129.576361 70.3125,131.4544 C63.1026786,136.5056 51.8191964,134.8144 44.84375,130.4912 C40.3794643,126.224 41.7075893,119.5712 41.0267857,113.6912 C39.8660714,90.72 39.0625,67.6816 37.5558036,44.4976 C37.8571429,41.0256 38.3705357,37.6096 41.4955357,35.3696 C46.0825893,31.5728 52.5334821,31.528 58.2366071,32.0768 C62.421875,33.1184 67.0982143,35.616 68.3705357,40.1744 C69.4866071,44.4304 69.6428571,48.6304 70,53.256 C70,53.256 70.546875,62.44 71.1160714,74.2896 C115.390625,72.7888 103.649554,25.3008 71.1160714,23.8896 C45.4464286,22.7696 30.0111607,35.504 21.6294643,49.7952 C19.3973214,52.8192 17.0982143,54.544 13.1138393,53.9504 C8.25756672,53.1611442 4.58214305,49.120185 4.24107143,44.1952 C8.34821429,21.9408 42.3102679,3.584 75.2901786,4.256 C109.029018,4.928 127.310268,24.1248 126.450893,48.8544 C125.602679,72.856 99.9330357,92.4112 72.1540179,93.408 Z M60.9933036,28.448 C63.3460759,28.1782743 65.7122822,28.043655 68.0803571,28.0448 C69.0401786,28.0448 70.0223214,28.0448 71.0044643,28.112 C83.1473214,28.6496 96.0491071,38.3264 95.9821429,51.8896 C95.9821429,61.7456 88.2589286,68.2528 75.2120536,69.8096 C74.6986607,60.2 74.2745536,53.1328 74.2633929,53.0096 L74.0959821,50.6912 C73.9707658,46.7623463 73.4510229,42.8561813 72.5446429,39.032 C71.1272321,34.1712 66.9642857,30.3856 61.0491071,28.4592 L60.9933036,28.448 Z M237.087054,125.0256 C232.265625,130.3568 226.361607,133.56 219.051339,133.56 C211.540179,133.56 204.6875,129.6512 199.53125,123.2224 C194.575893,130.2 187.823661,134.5008 180.379464,134.5008 C173.604911,134.5008 167.421875,130.9504 162.622768,125.0592 C157.723214,131.6336 151.171875,135.6656 143.962054,135.6656 C137.120536,135.6656 130.859375,132.0144 126.104911,126.0112 C121.573661,130.76 113.582589,134.6912 107.734375,133.3024 C89.1629464,128.8896 89.6763393,115.584 94.2299107,114.9456 C96.875,114.632 101.986607,117.1856 106.830357,115.4944 C109.765625,114.4528 112.611607,111.8432 114.732143,106.0528 C117.834821,96.9808 115.345982,88.5808 117.042411,76.3392 C117.745536,71.2432 133.292411,70.336 137.645089,73.8976 C138.895089,74.9168 139.107143,87.2704 138.861607,95.6928 C138.080357,122.4832 153.370536,124.544 156.819196,105.1792 C157.700893,100.2736 158.415179,93.1392 158.113839,80.3264 C156.779405,80.4677159 155.437648,80.5275594 154.095982,80.5056 L153.470982,80.5056 C153.035714,80.5056 152.611607,80.5056 152.1875,80.416 C151.108605,80.3044331 150.043229,80.0868566 149.006696,79.7664 L148.616071,79.6656 C148.270089,79.5536 147.935268,79.3968 147.600446,79.2624 C147.265625,79.128 147.154018,79.0944 146.930804,78.9936 C146.548474,78.8035622 146.175974,78.5942278 145.814732,78.3664 C145.669643,78.2768 145.513393,78.2096 145.357143,78.12 C144.966518,77.8624 144.575893,77.56 144.241071,77.2576 L143.883929,77.0112 L143.883929,77.0112 C143.837386,76.9719165 143.796119,76.9267395 143.761161,76.8768 C143.761161,76.8768 143.761161,76.8768 143.761161,76.8768 C143.675961,76.7487104 143.601309,76.6138638 143.537946,76.4736 C143.470982,76.3504 143.426339,76.216 143.359375,76.0928 C143.292411,75.9696 143.203125,75.7568 143.136161,75.5776 C143.069196,75.3984 142.857143,75.04 142.857143,74.8384 C142.857143,74.6368 142.734375,74.4912 142.678571,74.312 C142.622768,74.1328 142.555804,73.8528 142.5,73.6288 L142.366071,73.08 C142.366071,72.8448 142.287946,72.5984 142.243304,72.3632 C142.198661,72.128 142.176339,71.9936 142.154018,71.8144 C142.131696,71.6352 142.154018,71.3104 142.075893,71.0528 C141.997768,70.7952 142.075893,70.6944 142.020089,70.5152 L142.020089,69.7088 C142.020089,69.552 142.020089,69.384 142.020089,69.216 C142.020089,69.048 142.020089,68.6112 142.020089,68.32 C142.020089,68.0288 142.020089,68.0512 142.020089,67.9168 C142.020089,67.48 142.020089,67.0544 142.020089,66.6288 L142.020089,66.6288 C142.071951,65.5604141 142.54589,64.5568009 143.337054,63.84 L143.337054,63.84 L143.337054,63.84 C143.459821,63.728 143.59375,63.6272 143.727679,63.5264 L143.939732,63.3472 C144.151786,63.2016 144.363839,63.056 144.587054,62.9216 L144.587054,62.9216 C145.948473,62.1672116 147.618652,62.254054 148.895089,63.1456 L149.386161,63.4592 C149.520089,63.5376 149.642857,63.6272 149.776786,63.6944 L150.267857,63.9632 L150.669643,64.176 C150.837054,64.2656 151.004464,64.3328 151.183036,64.4112 C151.308865,64.4801137 151.4394,64.5399968 151.573661,64.5904 C151.744802,64.6637222 151.919932,64.72729 152.098214,64.7808 L152.522321,64.9376 L153.091518,65.0944 L153.482143,65.2064 L154.084821,65.3184 L154.475446,65.3856 L155.111607,65.4416 L155.502232,65.4416 C155.848214,65.4416 156.194196,65.4416 156.551339,65.4416 C156.83546,65.4219858 157.116354,65.3693675 157.388393,65.2848 C156.975446,59.0128 156.395089,51.8448 155.591518,43.512 C159.966518,38.696 172.611607,30.8112 179.129464,38.1472 C179.921875,38.9312 179.743304,47.488 179.419643,58.3968 C180.535714,58.0608 181.294643,57.8368 181.651786,57.7584 L181.651786,57.7584 L181.819196,57.7584 L181.819196,57.7584 L183.716518,57.176 L184.296875,57.008 L185.658482,56.616 L186.417411,56.4144 L187.611607,56.1008 L188.448661,55.888 L189.564732,55.6192 L190.435268,55.44 C190.814732,55.3616 191.183036,55.272 191.551339,55.2048 L192.455357,55.0368 L193.571429,54.8464 L194.508929,54.712 L195.625,54.5664 L196.595982,54.4656 L197.399554,54.376 L198.035714,54.376 L197.756696,40.0288 C202.220982,36.3776 218.694196,27.4624 220.892857,40.7904 C220.714286,46.1664 220.412946,51.5424 220.011161,56.8176 C220.602679,57.064 221.194196,57.3328 221.796875,57.624 L222.421875,57.9488 C222.8125,58.1504 223.203125,58.3408 223.59375,58.5536 C223.816964,58.6768 224.029018,58.8224 224.252232,58.9568 C224.475446,59.0912 225.022321,59.3936 225.368304,59.64 L226.060268,60.0992 C226.439732,60.3568 226.819196,60.592 227.176339,60.8608 C227.533482,61.1296 227.712054,61.264 227.979911,61.4656 C228.247768,61.6672 228.683036,61.9696 229.029018,62.2496 C229.375,62.5296 229.609375,62.7312 229.899554,62.9664 C230.189732,63.2016 230.569196,63.504 230.904018,63.7952 C231.238839,64.0864 231.495536,64.344 231.785714,64.6128 C232.075893,64.8816 232.455357,65.2064 232.779018,65.52 C233.102679,65.8336 233.381696,66.1248 233.683036,66.4272 L234.665179,67.4128 L234.665179,67.4128 L234.665179,67.4128 C234.765625,67.5136 234.84375,67.6368 234.933036,67.7376 L235.212054,68.096 C235.274398,68.1891287 235.330332,68.2864218 235.379464,68.3872 C235.486946,68.5526047 235.583867,68.7246834 235.669643,68.9024 L235.669643,68.9808 C235.786051,69.2292756 235.87945,69.4879641 235.948661,69.7536 L235.948661,69.7536 C236.019481,69.9912102 236.068054,70.2349332 236.09375,70.4816 C236.087589,70.5073676 236.087589,70.5342324 236.09375,70.56 L236.09375,70.56 C236.09375,70.8064 236.09375,71.064 236.09375,71.3216 C236.09375,71.5792 236.09375,71.792 236.09375,72.0272 C236.09375,72.2624 236.09375,72.576 236.09375,72.8448 C236.09375,73.1136 236.09375,73.3152 236.09375,73.5392 C236.09375,73.7632 236.037946,74.088 236.004464,74.368 C235.970982,74.648 236.004464,74.816 235.9375,75.04 C235.870536,75.264 235.825893,75.5888 235.770089,75.8576 C235.714286,76.1264 235.703125,76.2944 235.647321,76.5072 C235.591518,76.72 235.491071,77.0448 235.412946,77.3136 C235.334821,77.5824 235.3125,77.728 235.245536,77.9184 C235.178571,78.1088 235.033482,78.4784 234.921875,78.7584 C234.810268,79.0384 234.787946,79.1168 234.709821,79.296 C234.631696,79.4752 234.430804,79.8672 234.285714,80.1584 C234.140625,80.4496 234.151786,80.4496 234.073661,80.5952 C233.839286,81.0208 233.582589,81.424 233.314732,81.8272 C233.057363,82.2345818 232.704932,82.5728771 232.287946,82.8128 C231.59827,83.1636072 230.827397,83.3221924 230.055804,83.272 L230.055804,83.272 C229.799378,83.2887229 229.54214,83.2887229 229.285714,83.272 L229.21875,83.272 C228.845078,83.1684343 228.479508,83.0374139 228.125,82.88 L228.058036,82.88 C227.868594,82.8227742 227.682319,82.7554792 227.5,82.6784 L227.421875,82.6784 L227.421875,82.6784 L226.919643,82.4544 L226.462054,82.2528 L225.848214,81.9616 L225.368304,81.7376 L224.6875,81.4016 L224.207589,81.1664 L223.493304,80.808 L222.991071,80.5504 L222.421875,80.2592 L220.881696,79.4752 L220.580357,79.3184 L219.654018,78.8592 L219.352679,78.7136 L218.169643,78.1424 C217.645089,87.416 217.600446,104.664 217.600446,104.664 C218.002232,108.7632 220.658482,124.4208 232.734375,109.3232 C239.888393,100.2512 250.390625,111.4848 237.142857,125.0368 L237.087054,125.0256 Z M143.058036,81.648 C146.355025,83.678258 150.149636,84.748522 154.017857,84.7392 C154.084821,95.48 153.325893,101.0688 152.723214,104.4288 C151.428571,111.5744 148.716518,113.792 147.868304,113.792 C147.42861,113.707986 147.033017,113.469795 146.752232,113.12 C144.787946,111.0928 142.801339,105.4928 143.091518,95.8272 C143.258929,89.6784 143.225446,85.12 143.058036,81.648 Z" id="Shape" fill="#FFB71B"></path>
            <path d="M126.450893,48.8544 C127.310268,24.1248 109.029018,4.928 75.2901786,4.256 C42.3102679,3.584 8.34821429,21.9408 4.24107143,44.1952 C4.59500593,49.1629181 8.33881571,53.217858 13.2477679,53.9504 C17.2321429,54.544 19.5089286,52.8304 21.7633929,49.7952 C30.1339286,35.504 45.6026786,22.7696 71.25,23.8896 C103.761161,25.3008 115.502232,72.7888 71.25,74.2896 C70.625,62.44 70.1339286,53.256 70.1339286,53.256 C69.7767857,48.6304 69.6540179,44.4304 68.5044643,40.1744 C67.2321429,35.616 62.5558036,33.1184 58.3705357,32.0768 C52.6116071,31.528 46.1607143,31.5728 41.6294643,35.3696 C38.5044643,37.6096 37.9910714,41.0256 37.6897321,44.4976 C39.0625,67.6816 39.8660714,90.72 41.015625,113.6912 C41.6964286,119.5712 40.3459821,126.224 44.8325893,130.4912 C51.8080357,134.8032 63.0915179,136.5056 70.3013393,131.4544 C71.9668382,129.577996 72.8951153,127.157572 72.9129464,124.6448 C73.2142857,120.1648 72.7790179,107.1168 72.1540179,93.408 C99.9330357,92.4112 125.602679,72.856 126.450893,48.8544 Z" id="Path" fill="#003595"></path>
            <path d="M232.689732,109.2448 C220.613839,124.3424 217.957589,108.6848 217.555804,104.5856 C217.555804,104.5856 217.555804,87.3376 218.125,78.064 L219.308036,78.6352 L219.609375,78.7808 L220.535714,79.24 L220.837054,79.3968 L222.377232,80.1808 L222.946429,80.472 L223.448661,80.7296 L224.162946,81.088 L224.642857,81.3232 L225.323661,81.6592 L225.803571,81.8832 L226.417411,82.1744 L226.875,82.376 L227.421875,82.6112 L227.5,82.6112 C227.682319,82.6882792 227.868594,82.7555742 228.058036,82.8128 L228.125,82.8128 C228.593764,82.9658977 229.075776,83.0746384 229.564732,83.1376 L229.631696,83.1376 C229.888122,83.1543229 230.14536,83.1543229 230.401786,83.1376 L230.401786,83.1376 C231.173379,83.1877924 231.944252,83.0292072 232.633929,82.6784 C233.050914,82.4384771 233.403345,82.1001818 233.660714,81.6928 C233.928571,81.2896 234.185268,80.8864 234.419643,80.4608 C234.497768,80.3152 234.564732,80.1696 234.631696,80.024 C234.698661,79.8784 234.933036,79.4528 235.055804,79.1616 C235.178571,78.8704 235.200893,78.8032 235.267857,78.624 C235.334821,78.4448 235.491071,78.0752 235.591518,77.784 C235.691964,77.4928 235.703125,77.3808 235.758929,77.1792 C235.814732,76.9776 235.926339,76.6416 235.993304,76.3728 C236.060268,76.104 236.082589,75.936 236.116071,75.7232 C236.149554,75.5104 236.238839,75.1744 236.283482,74.9056 C236.328125,74.6368 236.283482,74.4576 236.350446,74.2336 C236.417411,74.0096 236.417411,73.6848 236.439732,73.4048 C236.462054,73.1248 236.439732,72.9456 236.439732,72.7104 C236.439732,72.4752 236.439732,72.1616 236.439732,71.8928 C236.439732,71.624 236.439732,71.4224 236.439732,71.1872 C236.439732,70.952 236.439732,70.6496 236.439732,70.3808 C236.433571,70.3550324 236.433571,70.3281676 236.439732,70.3024 C236.414036,70.0557332 236.365463,69.8120102 236.294643,69.5744 L236.294643,69.5744 C236.225432,69.3087641 236.132033,69.0500756 236.015625,68.8016 L236.015625,68.7232 C235.929849,68.5454834 235.832929,68.3734047 235.725446,68.208 C235.676314,68.1072218 235.620381,68.0099287 235.558036,67.9168 L235.279018,67.5584 L234.988839,67.2112 L234.988839,67.2112 L234.006696,66.2256 C233.705357,65.9232 233.404018,65.6096 233.102679,65.3184 C232.801339,65.0272 232.444196,64.7136 232.109375,64.4112 C231.774554,64.1088 231.517857,63.8512 231.227679,63.5936 C230.9375,63.336 230.558036,63.0336 230.223214,62.7648 C229.888393,62.496 229.642857,62.272 229.352679,62.048 C229.0625,61.824 228.660714,61.5216 228.303571,61.264 C227.946429,61.0064 227.767857,60.8496 227.5,60.6592 C227.232143,60.4688 226.741071,60.1552 226.383929,59.8976 L225.691964,59.4384 C225.301339,59.192 224.921875,58.9792 224.575893,58.7552 C224.229911,58.5312 224.140625,58.4752 223.917411,58.352 C223.526786,58.1392 223.136161,57.9488 222.745536,57.7472 L222.120536,57.4224 C221.517857,57.1312 220.926339,56.8624 220.334821,56.616 C220.736607,51.3408 221.037946,45.9648 221.216518,40.5888 C218.984375,27.2608 202.566964,36.176 198.080357,39.8272 L198.359375,54.1744 L197.723214,54.1744 L196.919643,54.264 L195.948661,54.3648 L194.832589,54.5104 L193.895089,54.6448 L192.779018,54.8352 L191.875,55.0032 C191.495536,55.0704 191.127232,55.16 190.758929,55.2384 L189.888393,55.4176 L188.772321,55.6864 L187.935268,55.8992 L186.741071,56.2128 L185.982143,56.4144 L184.620536,56.8064 L184.040179,56.9744 L182.142857,57.5568 L182.142857,57.5568 L181.975446,57.5568 L181.975446,57.5568 C181.674107,57.6352 180.859375,57.8592 179.743304,58.1952 C180.066964,47.2864 180.245536,38.7296 179.453125,37.9456 C172.935268,30.6096 160.290179,38.4944 155.915179,43.3104 C156.71875,51.6096 157.299107,58.8112 157.712054,65.0832 C157.440015,65.1677675 157.15912,65.2203858 156.875,65.24 C156.517857,65.24 156.171875,65.24 155.825893,65.24 L155.435268,65.24 L154.799107,65.184 L154.408482,65.1168 L153.805804,65.0048 L153.415179,64.8928 L152.845982,64.736 L152.421875,64.5792 C152.243593,64.52569 152.068463,64.4621222 151.897321,64.3888 C151.76306,64.3383968 151.632525,64.2785137 151.506696,64.2096 C151.328125,64.1312 151.160714,64.064 150.993304,63.9744 L150.591518,63.7616 L150.100446,63.4928 C149.966518,63.4256 149.84375,63.336 149.709821,63.2576 L149.252232,62.9664 C147.970644,62.0591464 146.286064,61.9635392 144.910714,62.72 L144.910714,62.72 C144.6875,62.8544 144.475446,63 144.263393,63.1456 L144.051339,63.3248 C143.917411,63.4256 143.783482,63.5264 143.660714,63.6384 L143.660714,63.6384 C142.845577,64.3666697 142.351835,65.3898564 142.287946,66.4832 L142.287946,66.4832 C142.287946,66.9088 142.287946,67.3344 142.287946,67.7712 C142.287946,67.9056 142.287946,68.04 142.287946,68.1744 C142.287946,68.3088 142.287946,68.768 142.287946,69.0704 C142.287946,69.3728 142.287946,69.4064 142.287946,69.5632 L142.287946,70.3696 C142.287946,70.5488 142.287946,70.728 142.34375,70.9072 C142.399554,71.0864 142.34375,71.4112 142.421875,71.6688 C142.5,71.9264 142.421875,72.0272 142.511161,72.2176 C142.600446,72.408 142.589286,72.6992 142.633929,72.9344 L142.767857,73.4832 C142.767857,73.7072 142.879464,73.9424 142.946429,74.1664 C143.013393,74.3904 143.069196,74.5248 143.125,74.6928 C143.180804,74.8608 143.28125,75.1296 143.370536,75.3424 C143.459821,75.5552 143.515625,75.6896 143.59375,75.8576 C143.671875,76.0256 143.705357,76.1152 143.772321,76.2384 C143.835684,76.3786638 143.910336,76.5135104 143.995536,76.6416 C144.027145,76.7101076 144.072778,76.7711661 144.129464,76.8208 L144.129464,76.8208 L144.486607,77.0672 C144.866071,77.3696 145.256696,77.672 145.602679,77.9296 C145.758929,78.0192 145.915179,78.0864 146.060268,78.176 C146.421509,78.4038278 146.79401,78.6131622 147.176339,78.8032 C147.399554,78.904 147.633929,78.9824 147.845982,79.072 C148.058036,79.1616 148.515625,79.3632 148.861607,79.4752 L149.252232,79.576 C150.288765,79.8964566 151.354141,80.1140331 152.433036,80.2256 C152.857143,80.2256 153.28125,80.2928 153.716518,80.3152 L154.341518,80.3152 C155.683184,80.3371594 157.02494,80.2773159 158.359375,80.136 C158.660714,92.9488 157.946429,100.0832 157.064732,104.9888 C153.560268,124.3536 138.325893,122.2928 139.107143,95.5024 C139.352679,87.08 139.107143,74.7264 137.890625,73.7072 C133.537946,70.1456 117.991071,71.0528 117.287946,76.1488 C115.591518,88.3904 118.080357,96.7904 114.977679,105.8624 C112.857143,111.6528 110.011161,114.2624 107.075893,115.304 C102.232143,117.0176 97.1205357,114.4416 94.4754464,114.7552 C89.921875,115.3936 89.4084821,128.6992 107.979911,133.112 C113.828125,134.5008 121.819196,130.5696 126.350446,125.8208 C131.160714,131.824 137.421875,135.4752 144.207589,135.4752 C151.417411,135.4752 157.96875,131.4432 162.868304,124.8688 C167.667411,130.76 173.850446,134.3104 180.625,134.3104 C188.069196,134.3104 194.821429,130.0096 199.776786,123.032 C204.933036,129.4608 211.785714,133.3696 219.296875,133.3696 C226.607143,133.3696 232.511161,130.1664 237.332589,124.8352 C250.390625,111.4848 239.888393,100.2512 232.689732,109.2448 Z M199.118304,92.8368 C198.560268,115.1472 180.223214,118.9104 179.029018,98.2576 C178.694196,92.176 178.75,84.1232 178.928571,75.8576 C185.548748,74.2571359 192.33115,73.4303105 199.140625,73.3936 C199.341518,77.6832 199.363839,82.9808 199.118304,92.8368 Z" id="Shape" fill="#003595"></path>
            <path d="M244.475446,130.4464 C246.797771,130.452582 248.675972,132.345743 248.671868,134.676247 C248.667764,137.006751 246.782907,138.893239 244.460575,138.891184 C242.138243,138.889128 240.256705,136.999307 240.256696,134.6688 C240.253705,133.546089 240.697578,132.468658 241.48972,131.675831 C242.281862,130.883003 243.356685,130.440424 244.475446,130.4464 L244.475446,130.4464 Z M244.475446,139.7088 C247.247737,139.702618 249.490706,137.443403 249.486602,134.66135 C249.482497,131.879297 247.23287,129.626758 244.460574,129.628814 C241.688277,129.63087 239.441971,131.886744 239.441964,134.6688 C239.435971,136.00927 239.964718,137.296415 240.910306,138.243227 C241.855894,139.19004 243.139694,139.71779 244.475446,139.7088 Z M245.345982,134.9152 C245.757374,134.935467 246.157716,134.777946 246.445746,134.482478 C246.733777,134.187011 246.88191,133.781895 246.852679,133.3696 C246.852679,132.1712 245.9375,131.8688 244.910714,131.8688 L242.533482,131.8688 L242.533482,137.536 L243.303571,137.536 L243.303571,134.9152 L244.419643,134.9152 L245.870536,137.536 L246.796875,137.536 L245.345982,134.9152 Z M244.754464,132.6752 C245.435268,132.6752 246.037946,132.6752 246.037946,133.448 C246.037946,134.2208 244.988839,134.0864 244.21875,134.0864 L243.303571,134.0864 L243.303571,132.6752 L244.754464,132.6752 Z" id="Shape" fill="#003595"></path>
        </g>
    </g>
</svg>