<?xml version="1.0" encoding="UTF-8" standalone="no"?>
<svg width="250px" height="250px" viewBox="0 0 250 250" version="1.1" xmlns="http://www.w3.org/2000/svg" xmlns:xlink="http://www.w3.org/1999/xlink">
    <!-- Generator: Sketch 47.1 (45422) - http://www.bohemiancoding.com/sketch -->
    <title>SETON</title>
    <desc>Created with Sketch.</desc>
    <defs>
        <polygon id="path-1" points="0 249.969072 0 0.118041237 243.951097 0.118041237 243.951097 249.969072"></polygon>
    </defs>
    <g id="Page-1" stroke="none" stroke-width="1" fill="none" fill-rule="evenodd">
        <g id="SETON">
            <g id="pirateheadvector" transform="translate(3.000000, 0.000000)">
                <g id="Group-3">
                    <mask id="mask-2" fill="white">
                        <use xlink:href="#path-1"></use>
                    </mask>
                    <g id="Clip-2"></g>
                    <path d="M200.85627,199.554124 C189.557114,223.287113 168.484574,241.919588 157.829392,250 C140.275291,237.837113 118.560321,219.117526 107.81557,202.123196 C88.035097,203.835052 79.9764051,198.332474 74.3597722,192.464433 C67.2775949,185.86134 62.026962,170.089691 69.5981688,158.718557 C64.5915359,151.75 64.4695359,139.645876 69.597654,130.965464 C68.6206245,128.397423 68.2541097,125.708247 66.6665654,120.694845 C39.714346,119.841237 32.8457975,123.385052 9.40223629,148.938144 C8.54772152,141.969072 4.51863291,123.873711 7.44817722,110.179897 C7.44817722,110.179897 1.39605063,112.392784 0,111.891753 C0.976514768,96.1201031 0.610514768,75.8237113 21.2455021,56.9938144 C41.2874768,38.7051546 67.1555949,43.7896907 83.1499494,47.8242268 C98.8302954,15.9592784 123.879418,-1.6742268 165.324414,0.262371134 C209.197055,2.31340206 233.581612,38.1226804 238.829156,75.8237113 C240.674599,90.6015464 241.027215,112.747423 236.997612,124.729897 C239.317671,130.476289 243.347274,137.2 239.073156,150.893299 C244.201789,158.717526 244.144135,163.618041 243.835789,168.131443 C243.225274,177.057216 240.798143,179.495361 237.614819,184.884021 C231.259494,195.642268 215.997654,201.266495 200.85627,199.554124" id="Fill-1" fill="#9FA8AA" mask="url(#mask-2)"></path>
                </g>
                <path d="M196.360287,188.42732 C185.061131,212.160825 167.173975,227.691753 156.518278,235.771134 C138.964692,223.608763 122.621325,208.25 111.747882,190.811856 C99.43,194.640206 84.9892152,191.578866 81.5057806,185.79433 C73.6051224,179.413402 72.5807342,165.214948 80.8834262,158.648454 C75.6451477,151.598454 71.7370295,143.092268 79.8070464,130.842268 C78.2787004,128.460825 74.9311646,115.740722 74.9275612,110.660825 C47.9985063,109.464433 36.4800591,110.392784 15.8563966,127.707216 C15.7199831,119.390206 13.7211392,108.632474 21.9656624,98.7927835 C21.9656624,98.7927835 10.334481,100.498969 8.93791561,99.9984536 C12.1660253,81.5257732 20.223173,69.4623711 26.9244219,63.5149485 C47.2170886,45.5046392 76.7328523,53.8170103 88.7233418,59.3592784 C97.0687595,26.3829897 123.520624,6.1685567 164.930101,8.73505155 C205.2807,11.235567 224.752827,42.4386598 230.000886,80.1386598 C231.845814,94.9164948 230.511536,111.273711 227.080093,123.551031 C230.509992,131.773196 235.012667,140.279897 228.386574,150.998969 C232.464051,153.890722 235.012667,161.207732 235.012667,166.396907 C235.012667,172.053608 231.220371,178.670619 226.68784,182.98299 C218.192624,191.064948 198.654093,190.553608 196.360287,188.42732" id="Fill-4" fill="#FFFFFE"></path>
                <path d="M108.077586,98.5298969 C122.009266,96.5082474 137.076523,99.6072165 146.356245,102.224227 C144.509257,99.3015464 143.474059,95.5659794 141.743924,92.5262887 C128.827367,91.0376289 115.995232,93.4876289 108.077586,98.5298969 Z M180.483814,194.587113 C175.589916,206.003608 164.805527,215.523711 154.656878,223.219072 C137.939789,211.634536 124.639215,196.628866 113.611857,179.346907 C102.870709,185.350515 82.6619494,184.441237 82.7118819,171.034536 C82.7298987,166.241237 85.2733671,162.349485 89.6303629,160.874742 C88.8201181,163.616495 87.5429789,165.358247 88.2461519,168.725773 C90.1327764,177.749485 104.146304,171.571134 108.538819,167.340206 C106.481291,160.318041 103.424599,154.295361 102.543316,146.096392 C99.7326835,143.214433 95.7715443,141.485567 93.7809367,137.784021 C84.8723629,140.513402 90.559519,156.81134 100.237156,151.176804 C99.709519,153.092784 96.3280084,154.728866 93.3191899,154.871134 C80.6749451,155.465979 76.7812405,136.565979 89.6303629,133.165979 C84.9974515,124.932474 81.409519,113.511856 83.1731139,100.37732 C86.4012236,100.37732 89.6303629,100.37732 92.8579578,100.37732 C93.192557,97.7948454 91.9313755,93.0608247 91.9360084,89.2938144 C87.4889283,93.306701 82.2645485,99.2912371 73.48827,100.37732 C66.8045232,101.204639 59.5668861,99.4247423 52.7348861,99.9149485 C40.6671814,100.781443 32.2847004,105.497938 25.5247679,110.998454 C28.9742278,95.6721649 40.0072489,83.9386598 58.2691561,81.9046392 C46.2637384,76.3041237 32.6110633,81.206701 24.6023038,86.5226804 C23.2397131,87.4268041 21.7813755,88.8463918 20.45173,88.3701031 C24.2985907,79.8695876 27.809308,72.6536082 34.2871477,67.5881443 C51.3017722,54.2829897 73.4367932,67.1092784 93.3191899,70.3597938 C101.267207,38.9515464 121.700405,15.3469072 161.113612,18.1742268 C198.121823,20.8293814 213.303359,50.6170103 218.301241,86.5226804 C192.874793,78.1783505 159.73043,74.0030928 125.602346,77.2865979 C162.850439,81.3979381 195.118667,90.4943299 219.224219,107.765979 C216.015156,109.017526 211.934591,109.395361 208.155165,110.075258 C200.579325,121.269588 191.7073,131.165464 180.483814,138.707216 C168.284844,125.369072 160.166439,107.945876 152.351747,90.2175258 C150.731772,109.22268 149.716135,128.83299 148.66189,148.40567 C152.968954,149.480928 159.267139,148.561856 164.342751,148.867526 C163.616414,151.52732 161.690667,152.985052 161.113612,155.79433 C179.059451,153.819588 195.450692,170.346907 212.767485,168.263918 C218.034591,167.629381 220.206911,159.876289 216.456312,154.871134 C225.266051,153.97268 224.570599,168.786082 221.069148,173.343814 C218.001646,177.334536 210.08503,180.040722 202.620895,179.808763 C195.3673,179.583505 189.316203,176.163918 183.712439,174.26701 C177.262911,172.083505 170.460253,170.589691 163.881519,170.110825 C157.428388,169.640206 145.696312,169.069072 145.895013,175.191237 C146.088565,181.171649 155.564414,179.485567 160.191662,177.961856 C158.197451,180.924742 154.129755,184.930412 154.656878,190.430412 C155.71627,201.46701 174.290127,202.079381 180.483814,194.587113 L180.483814,194.587113 Z" id="Fill-5" fill="#1B5694"></path>
            </g>
        </g>
    </g>
</svg>