<?xml version="1.0" encoding="UTF-8" standalone="no"?>
<svg width="250px" height="250px" viewBox="0 0 250 250" version="1.1" xmlns="http://www.w3.org/2000/svg" xmlns:xlink="http://www.w3.org/1999/xlink">
    <!-- Generator: Sketch 47.1 (45422) - http://www.bohemiancoding.com/sketch -->
    <title>RUT</title>
    <desc>Created with Sketch.</desc>
    <defs></defs>
    <g id="Page-1" stroke="none" stroke-width="1" fill="none" fill-rule="evenodd" stroke-linecap="round">
        <g id="RUT" stroke="#000000" fill-rule="nonzero" stroke-width="7.159" fill="#CC0033">
            <g id="Rutgers_Scarlet_Knights_logo" transform="translate(0.000000, 14.000000)">
                <path d="M0.486157718,0.486157718 L0.486157718,40.7160235 L17.1866611,40.7160235 L17.1866611,181.521393 L0.486157718,181.521393 L0.486157718,221.069211 L107.717701,221.069211 L107.717701,181.521393 L90.4400168,181.521393 L90.4400168,126.251258 L119.315017,126.251258 L155.152265,181.521393 L134.870386,181.521393 L134.870386,221.069211 L249.266359,221.069211 L249.266359,181.521393 L228.407299,181.521393 L187.58599,118.565856 C195.072987,114.493624 200.98448,109.333473 205.618708,103.850252 C213.001426,95.0574664 217.286493,85.3225671 219.23448,75.4802852 C221.355117,64.4534396 220.635487,53.1883389 216.82651,42.3376678 C213.688926,33.5297819 208.504362,24.9324664 200.509396,17.4047819 C194.695638,11.9760906 187.304698,7.07256711 178.118456,3.89639262 C171.876846,1.72877517 164.804698,0.472231544 157.648658,0.492114094 C157.545042,0.49236401 157.441611,0.493447987 157.337953,0.49432047 L157.280487,0.48659396 L0.485184564,0.48659396 L0.485184564,0.48659396 L0.486157718,0.486157718 Z M90.4358221,40.7160235 L134.224413,40.7160235 C146.674916,40.7160235 156.53901,50.2747483 156.53901,64.2495805 C156.53901,78.2252517 143.971896,87.8963926 132.804111,87.8963926 L90.4366611,87.8963926 L90.4366611,40.7160235 L90.4366611,40.7160235 L90.4358221,40.7160235 Z" id="path3598"></path>
            </g>
        </g>
    </g>
</svg>