<?xml version="1.0" encoding="UTF-8" standalone="no"?>
<svg width="250px" height="250px" viewBox="0 0 250 250" version="1.1" xmlns="http://www.w3.org/2000/svg" xmlns:xlink="http://www.w3.org/1999/xlink">
    <!-- Generator: Sketch 47.1 (45422) - http://www.bohemiancoding.com/sketch -->
    <title>NOVA</title>
    <desc>Created with Sketch.</desc>
    <defs></defs>
    <g id="Page-1" stroke="none" stroke-width="1" fill="none" fill-rule="evenodd">
        <g id="NOVA" fill-rule="nonzero">
            <g id="Villanova_Wildcats_logo" transform="translate(0.000000, 13.000000)">
                <g id="Group" transform="translate(124.971461, 112.502857) scale(-1, 1) rotate(-180.000000) translate(-124.971461, -112.502857) translate(0.114155, 1.074286)">
                    <g id="Shape">
                        <path d="M245.719178,221.728571 L140.329623,221.685714 L140.343893,197.834286 L143.794235,196.572857 C145.490868,195.957143 146.690925,194.441429 147.244578,193.231429 C147.4629,192.755714 147.567066,192.205714 147.571347,191.557143 C147.571347,190.59 147.324486,189.445714 146.843607,188.158571 C146.843607,188.158571 147.059075,188.311429 147.104737,188.341429 C146.402683,186.965714 145.482306,184.548571 143.797089,180.062857 L124.424943,128.531429 C119.980023,140.328571 101.962043,188.138571 101.962043,188.138571 C101.478311,189.427143 101.23145,190.572857 101.23145,191.547143 C101.23145,192.188571 101.342751,192.747143 101.553938,193.21 C102.111872,194.424286 103.309075,195.941429 104.997146,196.554286 L108.447489,197.812857 L108.433219,221.68 L0.0428082192,221.637143 L0.0556506849,198.027143 L2.95234018,196.564286 C3.18065068,196.441429 9.48772831,192.97 13.2077626,182.048571 C15.8989726,174.132857 55.7034817,68.4514286 67.8396119,36.2485714 C67.8381849,36.2571429 68.1349886,35.46 68.1349886,35.46 C71.4711758,26.61 70.4980023,26.1514286 68.5616438,25.2271429 C68.5530822,25.2214286 65.5693493,23.79 65.5693493,23.79 L65.577911,0.685714286 L183.350457,0.731428571 L183.336187,23.7328571 L180.482306,25.1985714 C179.614726,25.64 178.781393,26.0685714 178.781393,27.88 C178.781393,29.3171429 179.30508,31.6228571 180.760559,35.4971429 L182.55137,40.2571429 C215.446632,127.772857 233.785674,176.832857 235.586473,182.124286 C239.299372,193.062857 245.809075,196.644286 245.874715,196.681429 C245.874715,196.682857 248.694349,198.107143 248.694349,198.107143 C248.694349,198.107143 248.724315,201.334286 248.724315,201.335714 L248.724315,221.73 L245.719178,221.73 L245.719178,221.728571 Z" fill="#003976"></path>
                        <path d="M243.436073,216.471429 L145.540811,216.438571 L145.540811,201.511429 C150.997432,199.125714 154.440639,193.608571 151.696632,186.311429 C140.921804,157.614286 124.376427,113.637143 124.376427,113.637143 C124.376427,113.637143 107.803938,157.601429 97.0005708,186.287143 C94.2522831,193.585714 97.0005708,199.25 103.153539,201.494286 L103.153539,216.424286 L5.25399543,216.387143 L5.25827626,201.267143 C5.25827626,201.267143 13.5416667,197.237143 18.1321347,183.74 C21.0844749,175.065714 69.6603881,46.1957143 73.0108447,37.3114286 C75.7619863,30.01 77.7226027,23.7914286 70.7776826,20.4857143 L70.7805365,5.94428571 L178.063642,5.98571429 L178.063642,20.5228571 C171.660959,23.7928571 173.077911,30.0457143 175.821918,37.35 C179.16524,46.2414286 227.644121,175.145714 230.59218,183.821429 C235.17266,197.318571 243.448916,201.357143 243.448916,201.357143 L243.448916,216.474286 L243.436073,216.471429 Z" fill="#FFFFFF"></path>
                        <path d="M234.874429,206.042857 C231.033105,202.725714 225.870434,196.751429 222.501427,186.821429 C220.747717,181.685714 200.532249,127.61 168.407534,42.1785714 L167.821062,40.62 L167.2246,39.0385714 C165.119863,33.5671429 162.738299,27.3585714 165.991724,21.35 C166.862158,19.7414286 168.043664,18.39 169.494863,17.2657143 L169.494863,15.0628571 L80.1170091,15.0285714 L80.1127283,17.2328571 C81.5596461,18.3557143 82.7425799,19.7071429 83.605879,21.32 C86.8593037,27.34 84.4777397,33.5328571 82.3744292,39 L81.7679795,40.5885714 L81.2086187,42.07 C49.0097032,127.524286 28.7414384,181.61 26.9877283,186.755714 C23.6073059,196.688571 18.4446347,202.657143 14.591895,205.971429 L14.5876142,207.561429 L94.5933219,207.591429 L94.5890411,206.137143 C91.6424087,203.912857 89.9429224,201.351429 88.9940068,199.277143 C87.4871575,195.994286 86.2685502,190.552857 89.0182648,183.251429 L116.392694,110.595714 L124.22089,88.3128571 L133.14355,110.6 L160.473744,183.278571 C163.209189,190.578571 161.994863,196.024286 160.473744,199.297143 C159.521975,201.377143 157.829623,203.937143 154.877283,206.158571 L154.877283,207.608571 L234.871575,207.635714 L234.871575,206.05 L234.874429,206.042857 Z" fill="#003976"></path>
                        <polygon fill="#6BCBF2" points="197.488584 207.814286 124.185217 30.3285714 52.2517123 207.814286 42.3387557 207.814286 119.857306 15.1571429 128.122146 15.3452857 207.48145 207.816714 197.488584 207.816714"></polygon>
                    </g>
                </g>
            </g>
        </g>
    </g>
</svg>