<?xml version="1.0" encoding="UTF-8" standalone="no"?>
<svg width="250px" height="250px" viewBox="0 0 250 250" version="1.1" xmlns="http://www.w3.org/2000/svg" xmlns:xlink="http://www.w3.org/1999/xlink">
    <!-- Generator: Sketch 47.1 (45422) - http://www.bohemiancoding.com/sketch -->
    <title>NAU</title>
    <desc>Created with Sketch.</desc>
    <defs></defs>
    <g id="Page-1" stroke="none" stroke-width="1" fill="none" fill-rule="evenodd">
        <g id="NAU" fill-rule="nonzero">
            <g id="Group" transform="translate(0.000000, 50.000000)">
                <polygon id="Shape" fill="#FFCD00" points="125 64.6702151 118.603446 76.052043 114.506413 76.052043 110.101697 83.9105376 135.817463 83.9105376"></polygon>
                <polygon id="Shape" fill="#00205C" points="90.6043529 47.8004301 68.6131623 47.8004301 73.2445913 52.9474194 73.2445913 73.584086 49.3587252 47.8004301 24.5336183 47.8004301 29.1650473 52.9474194 29.1650473 94.6916129 46.5086151 94.6916129 46.5086151 66.3263441 72.1919938 94.6916129 81.5844021 94.6916129 90.6043529 78.5687097"></polygon>
                <polygon id="Shape" fill="#00205C" points="195.669776 47.8004301 200.301205 52.9474194 200.301205 83.9105376 175.524679 83.9105376 175.524679 47.8004301 153.549683 47.8004301 158.181112 52.9474194 158.181112 76.0845161 168.658505 94.6916129 217.725742 94.6916129 217.725742 47.8004301"></polygon>
                <polygon id="Shape" fill="#00205C" points="105.162586 47.8004301 109.794015 52.9474194 86.3615753 94.6916129 99.931986 94.6916129 112.336443 72.6423656 116.417282 72.6423656 125 57.38 141.533877 86.8655914 123.477782 86.8655914 127.866304 94.6916129 163.719394 94.6916129 137.323487 47.8004301"></polygon>
                <path d="M13.0684026,95.1462366 C9.03614458,55.723871 14.8983029,33.8045161 14.8983029,33.8045161 L3.4654748,21.545914 C3.4654748,21.545914 -8.82562508,60.8383871 13.0684026,95.1462366" id="Shape" fill="#FFCD00"></path>
                <path d="M117.25936,108.801183 C117.25936,108.801183 161.468454,110.424839 221.871356,150.334301 L217.871486,129.502796 C217.871486,129.502796 181.484001,104.595914 117.25936,108.801183" id="Shape" fill="#F5B335"></path>
                <path d="M3.43308719,21.545914 L14.8659153,33.8045161 C167.654489,42.6047312 217.515222,17.2432258 217.515222,17.2432258 L221.968519,0 C221.968519,0 163.816557,34.4215054 3.35211815,21.545914" id="Shape" fill="#F5B335"></path>
                <path d="M217.871486,129.502796 L221.855163,150.334301 C249.044565,121.628065 268.088483,45.1701075 221.984713,0 L217.515222,17.2432258 C245.983936,52.6713978 233.304184,107.372366 217.871486,129.502796" id="Shape" fill="#FFCD00"></path>
            </g>
        </g>
    </g>
</svg>