<?xml version="1.0" encoding="UTF-8" standalone="no"?>
<svg width="250px" height="250px" viewBox="0 0 250 250" version="1.1" xmlns="http://www.w3.org/2000/svg" xmlns:xlink="http://www.w3.org/1999/xlink">
    <!-- Generator: Sketch 47.1 (45422) - http://www.bohemiancoding.com/sketch -->
    <title>CUSE</title>
    <desc>Created with Sketch.</desc>
    <defs></defs>
    <g id="Page-1" stroke="none" stroke-width="1" fill="none" fill-rule="evenodd">
        <g id="CUSE" fill-rule="nonzero">
            <g id="Syracuse_Orange_logo" transform="translate(33.000000, 0.000000)">
                <polygon id="Shape" fill="#021F3F" points="184.724265 85.7830882 184.724265 35.5091912 147.731618 0.00551470588 146.393842 0.00551470588 36.7431066 0.00551470588 0.899356618 35.5395221 0.899356618 118.855699 35.3846507 153.750919 115.517004 153.750919 115.517004 189.696691 70.6098346 189.696691 70.6098346 163.520221 0.899356618 163.522059 0.899356618 213.766544 36.7431066 249.305147 147.735754 249.305147 184.728401 213.795956 184.728401 130.452206 150.246783 95.5533088 70.6153493 95.5533088 70.6153493 59.6075368 115.522518 59.6075368 115.522518 85.7876838 184.730239 85.7795956"></polygon>
                <path d="M120.514706,80.8134191 C123.575827,80.8134191 176.685662,80.8054228 179.747243,80.8054228 L179.747243,37.6381434 C178.772978,36.7034007 146.668199,5.88446691 145.73989,4.99659926 L38.8097426,4.99659926 C37.8699449,5.91571691 6.83363971,36.6831801 5.89154412,37.6252757 L5.89154412,116.809099 C6.80810662,117.740993 36.5358456,147.82932 37.4678309,148.768658 L120.505515,148.768658 L120.505515,194.680423 L65.6259191,194.680423 L65.6259191,168.508548 C62.5596507,168.508548 8.95404412,168.508548 5.89154412,168.513143 L5.89154412,211.688695 C6.83106618,212.625643 37.8685662,243.400092 38.7977941,244.321967 L145.727941,244.321967 C146.652206,243.436039 178.76011,212.614246 179.737132,211.670312 L179.737132,132.50671 C178.820561,131.574816 149.089154,101.486489 148.157169,100.544393 L65.625,100.544393 L65.625,54.6326287 L120.504596,54.6326287 L120.504596,80.8090993 L120.514706,80.8134191 Z" id="Shape" fill="#FF5113"></path>
            </g>
        </g>
    </g>
</svg>