<svg width="500" height="500" viewBox="0 0 500 500" fill="none" xmlns="http://www.w3.org/2000/svg">
<path d="M374.744 342.647C374.772 342.647 374.785 342.663 374.785 342.675V342.659C374.772 342.642 374.758 342.642 374.744 342.642" fill="#00194A"/>
<path d="M2.57227 334.062C2.57227 334.062 74.694 198.754 247.029 162.45C260.023 141.178 291.972 122.4 313.299 111.887C354.898 91.3559 350.827 73.8115 350.827 73.8115C350.827 73.8115 381.954 95.5632 363.012 136.682C360.298 142.589 358.242 148.071 356.817 153.157C387.82 160.024 416.371 174.798 438.876 194.208C449.622 203.473 453.185 212.012 454.474 217.659C455.324 221.291 455.392 221.592 458.517 223.676C466.672 229.131 488.328 247.018 495.84 266.973C495.84 266.973 497.95 275.526 486.876 283.16C479.419 302.363 464.15 307.639 446.894 309.6C435.696 324.416 412.136 328.925 412.136 328.925C412.136 328.925 414.795 317.261 415.453 303.733C388.314 292.055 372.127 305.46 372.127 305.46C371.647 308.571 370.989 311.696 370.345 314.752C366.535 332.557 366.521 337.463 374.745 342.603C374.594 342.493 374.471 342.411 374.786 342.603C375.156 342.836 374.978 342.726 374.786 342.619C386.738 348.965 400.992 341.482 407.023 338.919C407.023 338.919 411.628 353.091 398.539 367.167C398.73 371.142 397.538 378.913 389.561 383.532C384.024 386.753 375.197 390.687 364.767 391.166C329.692 392.811 333.586 360.122 297.03 348.992C269.357 340.563 231.225 365.426 243.658 424.527C224.962 408.148 197.112 374.471 196.989 331.338C143.15 329.268 93.1909 336.08 82.9935 338.876C85.9129 332.927 89.0242 327.294 92.2862 321.963C37.6135 326.47 2.58065 334.052 2.58065 334.052" fill="#00194A"/>
<path d="M467.145 287.302C456.988 295.8 441.404 296.375 440.788 296.471C437.032 303.955 428.836 311.301 423.806 314.042C425.875 307.353 426.177 299.431 426.012 293.701C406.399 280.064 374.669 282.873 353.85 299.814C367.364 305.146 344.858 339.234 366.062 353.324C378.535 360.081 391.322 353.571 398.353 350.597C398.463 351.227 394.913 359.547 383.756 365.262L383.961 365.427C383.961 365.427 387.237 368.894 382.892 371.499C378.547 374.103 372.818 376.118 364.17 377.351C353.767 378.831 342.282 370.731 335.716 360.794C327.684 348.65 311.855 335.739 291.486 331.901C296.653 329.05 302.588 326.898 302.588 326.898C287.84 324.993 275.683 326.377 265.787 329.392C290.718 300.499 327.04 291.083 327.04 291.083C323.751 289.575 318.981 288.301 313.923 287.273C345.708 271.017 380.673 265.796 409.991 274.649C417.872 257.955 452.124 255.57 463.802 264.616H463.789C469.627 268.564 475.645 280.201 467.147 287.301" fill="white"/>
<path fill-rule="evenodd" clip-rule="evenodd" d="M327.029 291.085C323.739 289.577 318.97 288.316 313.912 287.274C345.697 271.019 380.662 265.797 409.979 274.651C417.86 257.972 452.105 255.572 463.787 264.629L463.777 264.632H463.79L463.787 264.629C468.802 263.1 475.746 265.51 480.595 267.743C474.715 256.326 457.746 239.687 451.072 235.218C443.385 230.082 441.978 225.595 440.448 220.718C438.986 216.054 437.411 211.034 430.129 204.75C408.94 186.493 382.815 173.199 354.348 167.167C354.046 173.212 354.965 178.393 357.007 182.642C349.345 177.817 345.782 171.786 344.575 165.372C344.549 165.364 344.529 165.361 344.514 165.359C344.505 165.359 344.498 165.359 344.493 165.359H344.562C342.716 155.596 346.312 144.925 349.267 136.161C352.783 125.73 355.388 117.999 346.823 117.716C327.223 117.071 280.677 142.415 263.654 173.02H263.667C256.773 185.41 254.717 198.665 261.227 211.398C245.835 200.639 240.38 189.441 241.298 178.517C156.114 202.502 90.9543 257.109 57.252 306.273C75.0431 304.245 90.3391 302.819 105.992 302.244C127.88 274.53 153.635 257.163 175.305 246.472C150.127 266.263 137.05 288.77 130.979 302.064C150.045 302.475 171.467 304.189 199.441 307.574C205.65 277.694 223.564 249.433 251.278 230.133C266.424 219.58 281.295 212.658 297.222 209.546C265.589 221.772 241.027 246.594 229.856 276.995C239.998 266.208 252.237 257.066 266.027 250.104C246.002 269.8 232.625 295.499 229.5 324.556C228.445 334.233 229.103 344.403 231.022 353.928C235.092 348.089 245.866 335.438 265.795 329.38C290.726 300.502 327.035 291.084 327.035 291.084L327.029 291.085ZM428.351 223.594C431.736 236.382 442.77 245.441 442.77 245.441C438.795 245.208 435.916 244.632 433.806 243.906C431.399 242.77 430.245 241.134 429.096 239.508C428.125 238.133 427.159 236.764 425.445 235.709C426.034 237.902 425.445 239.246 423.252 239.163C422.197 239.013 421.237 238.793 420.374 238.519C420.218 238.454 420.086 238.414 419.921 238.363L419.894 238.355C416.133 237 413.917 234.483 411.705 231.97C408.611 228.457 405.526 224.952 398.238 224.649C398.238 224.649 408.147 222.291 415.206 223.84C400.006 211.244 366.317 203.843 366.317 203.843C366.317 203.843 401.981 203.706 428.351 223.593L428.351 223.594ZM317.905 143.493C312.424 144.494 265.302 174.771 286.779 193.837L286.778 193.834C292.329 198.755 302.993 197.275 309.997 195.548C303.281 191.436 293.823 183.021 297.332 169.465C297.332 169.465 298.771 173.947 304.09 175.537C302.911 167.601 305.638 156.966 317.905 143.493Z" fill="#B18147"/>
<path d="M313.912 287.274L313.684 286.829L312.418 287.477L313.811 287.764L313.912 287.274ZM327.029 291.085L326.821 291.539L326.946 291.597L327.084 291.582L327.029 291.085ZM409.979 274.651L409.835 275.129L410.247 275.254L410.432 274.864L409.979 274.651ZM463.777 264.632L463.631 264.153L463.777 265.132V264.632ZM463.79 264.632V265.132H465.252L464.096 264.236L463.79 264.632ZM480.595 267.743L480.385 268.197L481.703 268.804L481.039 267.514L480.595 267.743ZM451.072 235.218L451.35 234.803L451.349 234.803L451.072 235.218ZM440.448 220.718L440.925 220.568L440.925 220.568L440.448 220.718ZM430.129 204.75L430.456 204.371L430.455 204.371L430.129 204.75ZM354.348 167.167L354.451 166.678L353.878 166.557L353.848 167.142L354.348 167.167ZM357.007 182.642L356.74 183.065L358.21 183.99L357.458 182.425L357.007 182.642ZM344.575 165.372L345.067 165.279L345.012 164.987L344.728 164.896L344.575 165.372ZM344.514 165.359L344.552 164.861L344.552 164.861L344.514 165.359ZM344.562 165.359V165.859H345.165L345.053 165.266L344.562 165.359ZM349.267 136.161L348.793 136.001L348.793 136.001L349.267 136.161ZM346.823 117.716L346.84 117.216L346.84 117.216L346.823 117.716ZM263.654 173.02L263.217 172.777L262.804 173.52H263.654V173.02ZM263.667 173.02L264.104 173.263L264.517 172.52H263.667V173.02ZM261.227 211.398L260.941 211.808L261.672 211.171L261.227 211.398ZM241.298 178.517L241.796 178.558L241.857 177.84L241.162 178.035L241.298 178.517ZM57.252 306.273L56.8395 305.99L56.2201 306.894L57.3086 306.77L57.252 306.273ZM105.992 302.244L106.01 302.743L106.241 302.735L106.384 302.553L105.992 302.244ZM175.305 246.472L175.614 246.865L175.083 246.024L175.305 246.472ZM130.979 302.064L130.524 301.857L130.208 302.548L130.968 302.564L130.979 302.064ZM199.441 307.574L199.381 308.071L199.837 308.126L199.931 307.676L199.441 307.574ZM251.278 230.133L251.564 230.544L251.564 230.544L251.278 230.133ZM297.222 209.546L297.403 210.013L297.126 209.055L297.222 209.546ZM229.856 276.995L229.386 276.823L230.22 277.338L229.856 276.995ZM266.027 250.104L266.377 250.46L265.801 249.657L266.027 250.104ZM229.5 324.556L229.997 324.61L229.997 324.61L229.5 324.556ZM231.022 353.928L230.532 354.027L230.763 355.174L231.432 354.214L231.022 353.928ZM265.795 329.38L265.94 329.858L266.079 329.816L266.173 329.707L265.795 329.38ZM327.035 291.084L327.16 291.568L326.98 290.587L327.035 291.084ZM442.77 245.441L442.74 245.94L444.275 246.03L443.087 245.055L442.77 245.441ZM428.351 223.594L427.94 223.309L427.808 223.499L427.867 223.722L428.351 223.594ZM433.806 243.906L433.592 244.358L433.617 244.37L433.643 244.379L433.806 243.906ZM429.096 239.508L428.688 239.796L429.096 239.508ZM425.445 235.709L425.707 235.284L424.635 234.624L424.962 235.839L425.445 235.709ZM423.252 239.163L423.181 239.658L423.207 239.662L423.233 239.663L423.252 239.163ZM420.374 238.519L420.181 238.981L420.201 238.989L420.222 238.996L420.374 238.519ZM419.921 238.363L419.774 238.841L419.774 238.841L419.921 238.363ZM419.894 238.355L419.725 238.825L419.736 238.829L419.747 238.833L419.894 238.355ZM411.705 231.97L412.08 231.64L412.08 231.64L411.705 231.97ZM398.238 224.649L398.122 224.162L398.217 225.148L398.238 224.649ZM415.206 223.84L415.099 224.328L415.525 223.455L415.206 223.84ZM366.317 203.843L366.315 203.343L366.209 204.331L366.317 203.843ZM428.351 223.593L428.762 223.878L429.036 223.483L428.652 223.194L428.351 223.593ZM286.779 193.837L286.447 194.21L287.744 195.362L287.259 193.697L286.779 193.837ZM317.905 143.493L318.275 143.829L319.272 142.735L317.816 143.001L317.905 143.493ZM286.778 193.834L287.11 193.46L285.814 192.311L286.298 193.974L286.778 193.834ZM309.997 195.548L310.117 196.033L311.279 195.746L310.258 195.121L309.997 195.548ZM297.332 169.465L297.808 169.312L297.281 167.669L296.848 169.34L297.332 169.465ZM304.09 175.537L303.946 176.016L304.7 176.241L304.584 175.464L304.09 175.537ZM313.811 287.764C318.863 288.804 323.586 290.057 326.821 291.539L327.237 290.63C323.893 289.097 319.077 287.827 314.013 286.785L313.811 287.764ZM410.124 274.172C380.653 265.272 345.553 270.531 313.684 286.829L314.14 287.72C345.84 271.507 380.671 266.322 409.835 275.129L410.124 274.172ZM464.093 264.234C461.08 261.898 456.658 260.33 451.638 259.535C446.609 258.738 440.937 258.711 435.388 259.494C424.333 261.053 413.579 265.862 409.527 274.437L410.432 274.864C414.26 266.76 424.569 262.03 435.527 260.484C440.985 259.714 446.557 259.743 451.481 260.522C456.414 261.303 460.652 262.831 463.48 265.024L464.093 264.234ZM463.64 264.151L463.631 264.153L463.923 265.11L463.933 265.107L463.64 264.151ZM463.777 265.132H463.79V264.132H463.777V265.132ZM464.096 264.236L464.093 264.233L463.48 265.024L463.484 265.027L464.096 264.236ZM480.804 267.289C478.362 266.165 475.38 264.989 472.366 264.288C469.361 263.589 466.271 263.349 463.641 264.15L463.932 265.107C466.318 264.38 469.207 264.58 472.14 265.262C475.064 265.942 477.978 267.089 480.385 268.197L480.804 267.289ZM450.793 235.634C454.084 237.837 459.964 243.082 465.768 249.218C471.571 255.356 477.243 262.328 480.15 267.972L481.039 267.514C478.066 261.741 472.314 254.685 466.494 248.531C460.674 242.377 454.733 237.068 451.35 234.803L450.793 235.634ZM439.971 220.867C440.734 223.301 441.485 225.702 443.029 228.139C444.577 230.582 446.904 233.035 450.794 235.634L451.349 234.803C447.553 232.266 445.333 229.907 443.873 227.603C442.409 225.293 441.692 223.012 440.925 220.568L439.971 220.867ZM429.802 205.128C433.405 208.237 435.581 211.02 437.036 213.588C438.493 216.16 439.239 218.534 439.971 220.867L440.925 220.568C440.194 218.238 439.422 215.77 437.906 213.095C436.388 210.416 434.135 207.546 430.456 204.371L429.802 205.128ZM354.244 167.656C382.627 173.67 408.676 186.925 429.803 205.128L430.455 204.371C409.204 186.061 383.003 172.727 354.451 166.678L354.244 167.656ZM357.458 182.425C355.459 178.267 354.549 173.173 354.847 167.192L353.848 167.142C353.544 173.25 354.47 178.518 356.556 182.858L357.458 182.425ZM344.084 165.464C345.316 172.019 348.964 178.168 356.74 183.065L357.273 182.219C349.727 177.466 346.247 171.554 345.067 165.279L344.084 165.464ZM344.476 165.858C344.456 165.856 344.437 165.853 344.423 165.848L344.728 164.896C344.662 164.875 344.602 164.865 344.552 164.861L344.476 165.858ZM344.493 165.859C344.496 165.859 344.493 165.859 344.49 165.859C344.486 165.859 344.482 165.858 344.476 165.858L344.552 164.861C344.523 164.859 344.5 164.859 344.493 164.859V165.859ZM344.562 164.859H344.493V165.859H344.562V164.859ZM348.793 136.001C345.849 144.735 342.195 155.537 344.07 165.452L345.053 165.266C343.236 155.656 346.776 145.116 349.74 136.321L348.793 136.001ZM346.807 118.215C348.882 118.284 350.176 118.801 350.955 119.6C351.732 120.396 352.085 121.562 352.075 123.13C352.066 124.699 351.692 126.601 351.091 128.785C350.49 130.965 349.673 133.39 348.793 136.001L349.74 136.321C350.618 133.717 351.445 131.263 352.055 129.051C352.663 126.843 353.065 124.839 353.075 123.136C353.086 121.431 352.704 119.96 351.671 118.901C350.639 117.844 349.047 117.289 346.84 117.216L346.807 118.215ZM264.091 173.263C272.545 158.063 288.36 144.131 304.536 134.074C312.619 129.048 320.777 125 328.128 122.25C335.49 119.495 342.002 118.057 346.807 118.215L346.84 117.216C341.844 117.052 335.188 118.54 327.778 121.313C320.357 124.09 312.139 128.169 304.008 133.225C287.756 143.329 271.786 157.371 263.217 172.777L264.091 173.263ZM263.667 172.52H263.654V173.52H263.667V172.52ZM261.672 211.171C255.26 198.629 257.264 185.556 264.104 173.263L263.23 172.777C256.282 185.264 254.173 198.7 260.782 211.626L261.672 211.171ZM240.8 178.475C239.862 189.636 245.459 200.986 260.941 211.808L261.514 210.988C246.211 200.291 240.898 189.246 241.796 178.558L240.8 178.475ZM57.6644 306.556C91.3043 257.482 156.368 202.95 241.434 178.998L241.162 178.035C155.859 202.054 90.6042 256.735 56.8395 305.99L57.6644 306.556ZM105.974 301.744C90.3022 302.32 74.9918 303.747 57.1953 305.776L57.3086 306.77C75.0944 304.742 90.376 303.318 106.01 302.743L105.974 301.744ZM175.083 246.024C153.363 256.74 127.544 274.149 105.6 301.934L106.384 302.553C128.217 274.91 153.907 257.586 175.526 246.921L175.083 246.024ZM131.434 302.272C137.481 289.028 150.515 266.594 175.614 246.865L174.996 246.079C149.739 265.932 136.618 288.511 130.524 301.857L131.434 302.272ZM199.501 307.078C171.518 303.691 150.078 301.976 130.99 301.564L130.968 302.564C150.012 302.975 171.417 304.686 199.381 308.071L199.501 307.078ZM250.993 229.723C223.174 249.096 205.186 277.468 198.952 307.472L199.931 307.676C206.114 277.921 223.955 249.77 251.564 230.544L250.993 229.723ZM297.126 209.055C281.115 212.184 266.181 219.14 250.992 229.723L251.564 230.544C266.667 220.02 281.474 213.132 297.318 210.037L297.126 209.055ZM230.325 277.168C241.445 246.906 265.899 222.188 297.403 210.013L297.042 209.08C265.279 221.356 240.609 246.282 229.386 276.823L230.325 277.168ZM265.801 249.657C251.961 256.645 239.675 265.822 229.491 276.653L230.22 277.338C240.322 266.594 252.513 257.487 266.252 250.55L265.801 249.657ZM229.997 324.61C233.109 295.675 246.429 270.081 266.377 250.46L265.676 249.747C245.575 269.518 232.141 295.322 229.003 324.503L229.997 324.61ZM231.512 353.829C229.602 344.348 228.948 334.229 229.997 324.61L229.003 324.502C227.942 334.236 228.604 344.458 230.532 354.027L231.512 353.829ZM265.649 328.902C245.578 335.003 234.722 347.746 230.612 353.642L231.432 354.214C235.463 348.432 246.153 335.873 265.94 329.858L265.649 328.902ZM327.035 291.084C326.909 290.6 326.909 290.6 326.909 290.6C326.908 290.6 326.908 290.6 326.907 290.601C326.906 290.601 326.904 290.601 326.902 290.602C326.897 290.603 326.89 290.605 326.881 290.608C326.862 290.612 326.835 290.62 326.8 290.629C326.729 290.648 326.624 290.677 326.486 290.715C326.211 290.792 325.806 290.908 325.282 291.066C324.234 291.382 322.711 291.865 320.806 292.535C316.997 293.875 311.661 295.962 305.544 298.954C293.314 304.936 277.94 314.546 265.416 329.053L266.173 329.707C278.58 315.336 293.827 305.798 305.984 299.852C312.06 296.88 317.359 294.807 321.138 293.478C323.027 292.814 324.535 292.336 325.57 292.024C326.088 291.868 326.487 291.754 326.756 291.678C326.89 291.641 326.992 291.613 327.06 291.595C327.094 291.586 327.119 291.579 327.136 291.574C327.145 291.572 327.151 291.571 327.155 291.569C327.157 291.569 327.158 291.569 327.159 291.568C327.16 291.568 327.16 291.568 327.16 291.568C327.16 291.568 327.16 291.568 327.035 291.084ZM327.084 291.582L327.09 291.581L326.98 290.587L326.974 290.588L327.084 291.582ZM442.77 245.441C443.087 245.055 443.087 245.055 443.087 245.055C443.087 245.055 443.087 245.055 443.087 245.054C443.087 245.054 443.086 245.054 443.086 245.054C443.085 245.053 443.083 245.051 443.08 245.049C443.076 245.045 443.068 245.039 443.058 245.031C443.039 245.014 443.009 244.989 442.969 244.955C442.89 244.888 442.772 244.786 442.62 244.652C442.317 244.384 441.878 243.985 441.34 243.466C440.264 242.427 438.792 240.909 437.216 238.995C434.059 235.161 430.501 229.764 428.834 223.466L427.867 223.722C429.585 230.212 433.238 235.738 436.444 239.631C438.049 241.58 439.547 243.126 440.646 244.185C441.195 244.715 441.644 245.124 441.958 245.401C442.114 245.54 442.237 245.645 442.321 245.717C442.363 245.753 442.395 245.78 442.417 245.798C442.428 245.807 442.437 245.815 442.443 245.819C442.446 245.822 442.448 245.824 442.449 245.825C442.45 245.826 442.451 245.826 442.451 245.827C442.452 245.827 442.452 245.827 442.452 245.827C442.452 245.827 442.452 245.827 442.77 245.441ZM433.643 244.379C435.808 245.124 438.733 245.705 442.74 245.94L442.799 244.942C438.856 244.711 436.025 244.141 433.968 243.433L433.643 244.379ZM428.688 239.796C429.838 241.425 431.057 243.161 433.592 244.358L434.019 243.454C431.742 242.378 430.651 240.843 429.505 239.219L428.688 239.796ZM425.183 236.135C426.8 237.13 427.714 238.417 428.688 239.796L429.505 239.219C428.537 237.848 427.519 236.399 425.707 235.284L425.183 236.135ZM423.233 239.663C424.424 239.708 425.346 239.366 425.824 238.54C426.275 237.763 426.232 236.713 425.928 235.58L424.962 235.839C425.247 236.899 425.204 237.617 424.959 238.039C424.742 238.413 424.273 238.701 423.271 238.664L423.233 239.663ZM420.222 238.996C421.114 239.279 422.101 239.504 423.181 239.658L423.323 238.668C422.292 238.521 421.36 238.308 420.525 238.043L420.222 238.996ZM419.774 238.841C419.941 238.892 420.051 238.926 420.181 238.981L420.566 238.058C420.385 237.982 420.231 237.935 420.068 237.885L419.774 238.841ZM419.747 238.833L419.774 238.841L420.068 237.885L420.041 237.877L419.747 238.833ZM411.33 232.301C413.537 234.808 415.829 237.422 419.725 238.825L420.063 237.884C416.438 236.579 414.298 234.158 412.08 231.64L411.33 232.301ZM398.217 225.148C401.776 225.296 404.281 226.223 406.271 227.524C408.274 228.835 409.777 230.537 411.33 232.301L412.08 231.64C410.539 229.89 408.953 228.083 406.818 226.687C404.669 225.282 401.988 224.304 398.259 224.149L398.217 225.148ZM415.314 223.351C411.701 222.559 407.392 222.769 404.016 223.167C402.322 223.366 400.851 223.615 399.803 223.813C399.279 223.912 398.86 223.999 398.572 224.061C398.428 224.093 398.316 224.118 398.24 224.135C398.202 224.143 398.173 224.15 398.153 224.155C398.143 224.157 398.136 224.159 398.13 224.16C398.128 224.161 398.126 224.161 398.124 224.162C398.124 224.162 398.123 224.162 398.123 224.162C398.123 224.162 398.122 224.162 398.122 224.162C398.122 224.162 398.122 224.162 398.238 224.649C398.353 225.135 398.353 225.135 398.353 225.135C398.353 225.135 398.353 225.135 398.354 225.135C398.354 225.135 398.354 225.135 398.355 225.135C398.356 225.134 398.357 225.134 398.359 225.134C398.364 225.132 398.371 225.131 398.38 225.129C398.398 225.125 398.425 225.118 398.462 225.11C398.534 225.093 398.642 225.069 398.783 225.039C399.064 224.978 399.474 224.893 399.989 224.796C401.02 224.6 402.467 224.356 404.133 224.16C407.477 223.766 411.653 223.572 415.099 224.328L415.314 223.351ZM366.317 203.843C366.209 204.331 366.209 204.331 366.21 204.332C366.21 204.332 366.21 204.332 366.211 204.332C366.212 204.332 366.213 204.332 366.215 204.333C366.219 204.334 366.225 204.335 366.233 204.337C366.249 204.34 366.273 204.346 366.304 204.353C366.368 204.367 366.463 204.388 366.587 204.417C366.836 204.474 367.204 204.559 367.678 204.672C368.626 204.898 369.997 205.236 371.691 205.68C375.08 206.569 379.755 207.884 384.904 209.593C395.221 213.016 407.365 217.991 414.887 224.225L415.525 223.455C407.848 217.092 395.546 212.07 385.219 208.643C380.045 206.927 375.348 205.605 371.945 204.713C370.243 204.266 368.864 203.927 367.91 203.699C367.433 203.586 367.062 203.5 366.81 203.442C366.684 203.413 366.588 203.391 366.523 203.377C366.491 203.37 366.466 203.364 366.449 203.36C366.441 203.359 366.435 203.357 366.431 203.356C366.428 203.356 366.427 203.355 366.426 203.355C366.425 203.355 366.425 203.355 366.424 203.355C366.424 203.355 366.424 203.355 366.317 203.843ZM428.652 223.194C415.385 213.188 399.795 208.23 387.544 205.77C381.414 204.54 376.112 203.933 372.341 203.634C370.455 203.484 368.951 203.412 367.918 203.376C367.401 203.359 367.002 203.35 366.731 203.346C366.595 203.345 366.492 203.344 366.422 203.343C366.387 203.343 366.361 203.343 366.343 203.343C366.334 203.343 366.327 203.343 366.322 203.343C366.32 203.343 366.318 203.343 366.317 203.343C366.316 203.343 366.316 203.343 366.315 203.343C366.315 203.343 366.315 203.343 366.317 203.843C366.319 204.343 366.319 204.343 366.319 204.343C366.319 204.343 366.319 204.343 366.32 204.343C366.321 204.343 366.322 204.343 366.324 204.343C366.328 204.343 366.334 204.343 366.342 204.343C366.359 204.343 366.384 204.343 366.417 204.343C366.484 204.344 366.584 204.344 366.716 204.346C366.981 204.35 367.374 204.358 367.884 204.376C368.903 204.411 370.392 204.483 372.262 204.631C376.001 204.928 381.264 205.53 387.347 206.751C399.52 209.194 414.948 214.111 428.05 223.992L428.652 223.194ZM428.762 223.879L428.762 223.878L427.94 223.309L427.94 223.309L428.762 223.879ZM287.111 193.463C284.487 191.133 282.933 188.654 282.206 186.103C281.479 183.552 281.571 180.895 282.294 178.197C283.744 172.785 287.722 167.256 292.591 162.239C297.452 157.231 303.156 152.778 307.989 149.515C310.405 147.884 312.597 146.553 314.352 145.601C315.229 145.125 315.993 144.746 316.618 144.472C317.251 144.193 317.713 144.036 317.995 143.985L317.816 143.001C317.413 143.074 316.864 143.271 316.216 143.556C315.558 143.845 314.768 144.237 313.875 144.722C312.087 145.692 309.867 147.04 307.429 148.686C302.556 151.977 296.794 156.473 291.874 161.542C286.962 166.603 282.844 172.28 281.328 177.938C280.568 180.776 280.459 183.62 281.244 186.377C282.03 189.136 283.702 191.773 286.447 194.21L287.111 193.463ZM286.298 193.974L286.299 193.976L287.259 193.697L287.258 193.694L286.298 193.974ZM309.877 195.062C306.395 195.921 302.023 196.712 297.846 196.684C293.656 196.655 289.751 195.801 287.11 193.46L286.447 194.208C289.357 196.788 293.559 197.654 297.839 197.684C302.133 197.713 306.595 196.901 310.117 196.033L309.877 195.062ZM296.848 169.34C293.251 183.238 302.98 191.838 309.736 195.974L310.258 195.121C303.582 191.034 294.396 182.803 297.816 169.591L296.848 169.34ZM304.233 175.058C301.692 174.299 300.085 172.852 299.112 171.598C298.624 170.97 298.295 170.39 298.089 169.971C297.987 169.761 297.915 169.592 297.869 169.477C297.847 169.42 297.831 169.376 297.821 169.348C297.816 169.334 297.812 169.324 297.81 169.318C297.809 169.315 297.809 169.313 297.808 169.312C297.808 169.312 297.808 169.311 297.808 169.311C297.808 169.312 297.808 169.312 297.808 169.312C297.808 169.312 297.808 169.312 297.808 169.312C297.808 169.312 297.808 169.312 297.332 169.465C296.856 169.618 296.856 169.618 296.856 169.619C296.856 169.619 296.857 169.619 296.857 169.619C296.857 169.62 296.857 169.62 296.857 169.621C296.857 169.622 296.858 169.623 296.858 169.625C296.86 169.628 296.861 169.633 296.863 169.638C296.867 169.649 296.872 169.665 296.879 169.684C296.892 169.722 296.913 169.777 296.94 169.845C296.994 169.982 297.076 170.175 297.191 170.41C297.422 170.881 297.785 171.521 298.322 172.212C299.397 173.596 301.169 175.186 303.946 176.016L304.233 175.058ZM317.536 143.156C305.207 156.697 302.387 167.476 303.595 175.611L304.584 175.464C303.435 167.726 306.069 157.235 318.275 143.829L317.536 143.156Z" fill="#B18147"/>
<path d="M0 0V-1H-1V0H0ZM500 0H501V-1H500V0ZM500 500V501H501V500H500ZM0 500H-1V501H0V500ZM0 1H500V-1H0V1ZM499 0V500H501V0H499ZM500 499H0V501H500V499ZM1 500V0H-1V500H1Z" fill="black"/>
</svg>
