<?xml version="1.0" encoding="UTF-8" standalone="no"?>
<svg width="250px" height="250px" viewBox="0 0 250 250" version="1.1" xmlns="http://www.w3.org/2000/svg" xmlns:xlink="http://www.w3.org/1999/xlink">
    <!-- Generator: Sketch 47.1 (45422) - http://www.bohemiancoding.com/sketch -->
    <title>IDST</title>
    <desc>Created with Sketch.</desc>
    <defs></defs>
    <g id="Page-1" stroke="none" stroke-width="1" fill="none" fill-rule="evenodd">
        <g id="IDST" fill-rule="nonzero">
            <g id="Idaho_State_Bengals_logo" transform="translate(0.000000, 3.000000)">
                <path d="M75.4769231,1.60276923 L67.6192308,5.28757692 C65.6096154,6.22988462 47.7846154,14.8766154 40.8211538,28.0971923 C32.6288462,43.6548846 34.0826923,59.4933462 34.15,60.1587308 L34.7346154,66.0818077 L36.6576923,66.1164231 L34.5019231,69.9068077 L39.0692308,71.4298846 C34.7019231,77.3125769 28.7519231,85.9856538 23.9788462,95.3760385 C9.94961538,122.968346 6.42057692,149.870269 6.27634615,151.001038 L5.58884615,156.426038 L15.2869231,159.708731 L1.79153846,177.529885 L21.0357692,177.185654 L6.33942308,200.610654 L28.1432692,194.860654 L18.1442308,217.726038 L36.4586538,210.476038 L29.3932692,229.283731 L50.9298077,219.937577 L50.0932692,243.745269 L70.2778846,224.7645 L79.4278846,238.476038 L91.1528846,227.783731 C92.5721154,229.7645 94.4067308,231.822192 96.7509615,233.668346 C107.774038,242.418346 119.675962,243.360654 124.281731,243.360654 C124.870192,243.360654 125.343269,243.360654 125.693269,243.341423 C126.120192,243.360654 126.727885,243.379885 127.497115,243.379885 C132.056731,243.379885 143.8375,242.456808 154.697115,233.841423 C157.043269,231.976038 158.877885,229.918346 160.297115,227.937577 L172.024038,238.649115 L181.177885,224.937577 L201.364423,243.918346 L200.518269,220.091423 L222.056731,229.456808 L214.979808,210.629885 L233.306731,217.860654 L223.306731,195.0145 L245.114423,200.7645 L230.402885,177.351038 L249.672115,177.687577 L236.172115,159.870269 L245.864423,156.591423 L245.172115,151.162577 C245.0375,150.031808 241.499038,123.133731 227.479808,95.5337308 C222.691346,86.1491154 216.749038,77.4798846 212.383654,71.5991154 L216.941346,70.0741154 L214.7875,66.2779615 L216.710577,66.2395 L217.306731,60.3202692 C217.364423,59.6548846 218.825962,43.8164231 210.633654,28.2625769 C203.672115,15.037 185.843269,6.39142308 183.833654,5.44911538 L175.9875,1.70796154 L174.420192,10.2416154 C174.400962,10.3306538 172.525962,19.2395 163.160577,31.1743077 C158.395192,37.2493077 153.702885,40.5512308 151.0875,42.082 L146.779808,40.3416154 L144.849038,41.6012308 L142.606731,38.2954615 L135.516346,42.7358462 L125.7875,35.682 L115.983654,42.6031538 L108.841346,38.1185385 L106.599038,41.4396923 L104.668269,40.1781538 L100.360577,41.9166154 C97.7451923,40.3858462 93.0586538,37.0839231 88.2913462,31.0089231 C78.9240385,19.0737308 77.0490385,10.1704615 77.0413462,10.1358462 L75.4759615,1.60296154 L75.4769231,1.60276923 Z" id="Shape" fill="#F9A721"></path>
                <path d="M71.5961538,11.3457692 C71.5961538,11.3457692 53.9961538,19.6009615 47.8769231,31.2188462 C40.525,45.1765385 41.9442308,59.4976923 41.9442308,59.4976923 L49.1730769,59.6303846 L45.4807692,66.1361538 L51.3288462,68.0880769 C51.3288462,68.0880769 39.2788462,82.2861538 31.0807692,98.4073077 C17.4151923,125.282308 14.0511538,151.843846 14.0511538,151.843846 L27.3634615,156.347692 L16.5751923,170.593846 L34.4134615,170.270769 L22.15,189.813077 L40.9596154,184.851538 L31.9192308,205.515 L49.1692308,198.688077 L42.3423077,216.861154 L59.1269231,209.572692 L58.4884615,227.745769 L72.5846154,214.476538 L81.8057692,228.284231 L94.3134615,216.880385 C94.3134615,216.880385 95.9269231,223.572692 102.042308,228.438077 C113.85,237.803462 126.871154,236.630385 126.871154,236.630385 C126.871154,236.630385 139.869231,237.957308 151.675,228.591923 C157.796154,223.745769 159.409615,217.034231 159.409615,217.034231 L171.915385,228.457308 L181.132692,214.649615 L195.230769,227.899615 L194.596154,209.726538 L211.384615,217.015 L204.557692,198.841923 L221.807692,205.668846 L212.769231,185.013077 L231.557692,189.978462 L219.307692,170.44 L237.153846,170.751538 L226.365385,156.509231 L239.673077,152.005385 C239.673077,152.005385 236.307692,125.447692 222.634615,98.5688462 C214.442308,82.4476923 202.384615,68.2496154 202.384615,68.2496154 L208.25,66.3015385 L204.538462,59.7919231 L211.769231,59.6592308 C211.769231,59.6592308 213.192308,45.34 205.846154,31.3842308 C199.730769,19.765 182.125,11.5111538 182.125,11.5111538 C182.125,11.5117308 180.255769,21.6707692 169.561538,35.3053846 C160.986538,46.2342308 152.523077,49.4169231 152.523077,49.4169231 L148.648077,47.8553846 L144.132692,50.8034615 L141.823077,47.3957692 L136.380769,50.8034615 L126.871154,43.9111538 L117.342308,50.6419231 L111.9,47.2284615 L109.588462,50.6419231 L105.071154,47.6938462 L101.194231,49.2553846 C101.194231,49.2553846 92.7326923,46.0688462 84.1615385,35.14 C73.4596154,21.5053846 71.5961538,11.3457692 71.5961538,11.3457692 Z" id="Shape" fill="#000000"></path>
                <path d="M90.8607354,57.8230769 L63.0030431,66.4807692 C57.6626585,73.8076923 48.8165046,86.9480769 42.6222738,101.280769 C31.7395815,126.457692 30.5357354,142.138462 30.5357354,142.138462 L42.3434277,148.505769 L38.9299662,160.309615 L50.2722738,160.769231 L44.8299662,172.115385 L55.9934277,172.576923 L51.1972738,185.021154 L61.8972738,182.534615 L61.8972738,192.769231 L70.4684277,191.85 L70.1088123,201.615385 L79.6184277,198.75 L84.3895815,212.596154 L102.643428,200.461538 L90.1799662,163.705769 C86.9665046,162.348077 80.6626585,159.244231 75.9972738,154.2 L58.7684277,143.013462 C58.7684277,143.013462 58.0299662,140.555769 57.0857354,136.778846 L44.3876585,140.223077 L50.2838123,126.694231 L42.4645815,128.759615 L47.9895815,114.615385 L44.0338123,115.4 C44.0338123,115.4 45.7895815,105.282692 53.5780431,93.5326923 C65.3453508,75.7846154 80.7530431,66.2980769 82.8895815,65.0346154 C87.5434277,60.6307692 90.8607354,57.8230769 90.8607354,57.8230769 L90.8607354,57.8230769 Z M162.849197,57.9846154 C162.849197,57.9846154 166.160735,60.7923077 170.814582,65.1923077 C172.920351,66.4384615 188.349197,75.9269231 200.12612,93.7019231 C207.914582,105.446154 209.664582,115.565385 209.664582,115.565385 L205.722274,114.773077 L211.241505,128.921154 L203.433812,126.855769 L209.318428,140.384615 L196.62612,136.944231 C195.683812,140.717308 194.953043,143.178846 194.953043,143.178846 L177.722274,154.357692 C173.056889,159.405769 166.745351,162.511538 163.528043,163.867308 L151.062658,200.634615 L169.324197,212.769231 L174.085735,198.942308 L183.60112,201.788462 L183.239582,192.015385 L191.810735,192.923077 L191.810735,182.696154 L202.510735,185.190385 L197.722274,172.738462 L208.87612,172.276923 L203.433812,160.934615 L214.779966,160.471154 L211.37612,148.667308 L223.164582,142.303846 C223.164582,142.303846 221.972274,126.617308 211.087658,101.442308 C204.895351,87.1153846 196.049197,73.975 190.718428,66.6461538 L162.849197,57.9846154 L162.849197,57.9846154 Z M87.3184277,117.063462 L106.110735,135.786538 L126.870351,141.386538 L119.406889,136.801923 C119.383812,137.061538 119.368428,137.203846 119.368428,137.203846 C119.368428,137.203846 119.354966,137.044231 119.331889,136.755769 L114.008812,133.484615 L114.008812,133.511538 C114.008812,133.511538 114.008812,133.498077 114.00112,133.476923 L87.3184277,117.063462 L87.3184277,117.063462 Z M106.110735,135.786538 L86.4780431,125.330769 C86.4780431,125.330769 84.4895815,126.142308 82.3838123,128.271154 L104.610735,143.892308 L78.8453508,133.705769 C78.1549662,135.432692 77.6684277,137.469231 77.5299662,139.869231 L103.128043,149.751923 L78.2434277,145.496154 C80.4799662,151.232692 87.30112,154.221154 91.8818892,155.615385 L92.0549662,155.521154 L103.360735,154.961538 L95.3222738,161.396154 L122.460735,155.971154 L122.460735,149.184615 L114.703043,142.578846 C114.703043,142.578846 113.916505,144.173077 115.564582,146.826923 C117.520351,149.976923 119.879966,151.540385 119.879966,151.540385 C119.879966,151.540385 114.031889,151.307692 109.858812,146.434615 C105.149197,140.925 106.110735,135.786538 106.110735,135.786538 L106.110735,135.786538 Z M166.393428,117.221154 L139.954966,133.488462 L139.95112,133.507692 C139.95112,133.507692 139.947274,133.496154 139.947274,133.492308 L134.629966,136.767308 C134.603043,137.048077 134.587658,137.203846 134.587658,137.203846 C134.587658,137.203846 134.57612,137.065385 134.554966,136.809615 L126.866505,141.538462 L126.866505,141.546154 L147.599197,135.948077 L166.393428,117.221154 L166.393428,117.221154 Z M147.599197,135.948077 C147.599197,135.948077 148.562658,141.086538 143.85112,146.590385 C139.679966,151.469231 133.833812,151.705769 133.833812,151.705769 C133.833812,151.705769 136.191505,150.138462 138.149197,146.988462 C139.80112,144.334615 139.004966,142.744231 139.004966,142.744231 L131.249197,149.35 L131.249197,156.136538 L158.389582,161.557692 L150.349197,155.126923 L161.656889,155.682692 L161.837658,155.780769 C166.420351,154.380769 173.239582,151.390385 175.472274,145.657692 L150.581889,149.913462 L176.178043,140.038462 C176.041505,137.634615 175.553043,135.590385 174.864582,133.863462 L149.10112,144.057692 L171.329966,128.436538 C169.224197,126.303846 167.235735,125.492308 167.235735,125.492308 L147.599197,135.948077 L147.599197,135.948077 Z M126.866505,164.005769 L102.116505,166.530769 L108.728043,190.117308 L111.814582,170.251923 L115.841505,172.615385 L119.462658,169.75 L123.920351,171.740385 L126.866505,168.723077 L129.787658,171.905769 L134.245351,169.911538 L137.870351,172.776923 L141.90112,170.413462 L144.983812,190.282692 L151.595351,166.696154 L126.866505,164.005769 L126.866505,164.005769 Z M112.522274,192.730769 C112.522274,192.730769 110.868428,203.038462 115.672274,206.903846 C117.958812,208.75 126.866505,208.596154 126.866505,208.596154 C126.866505,208.596154 135.753043,208.923077 138.039582,207.076923 C142.845351,203.192308 141.187658,192.884615 141.187658,192.884615 L135.366505,203.711538 L133.187658,201.788462 L130.847274,204.326923 L128.912658,202.038462 L127.008812,204.634615 L124.795351,201.884615 L122.868428,204.153846 L120.522274,201.615385 L118.343428,203.538462 L112.522274,192.730769 L112.522274,192.730769 Z M104.278043,205.288462 C101.906889,210.846154 100.810735,217.596154 105.949197,222.307692 C115.079966,230.653846 126.866505,229.384615 126.866505,229.384615 C126.866505,229.384615 138.633812,230.826923 147.764582,222.461538 C152.903043,217.75 151.803043,211 149.428043,205.442308 L149.120351,206.365385 C149.120351,206.365385 148.264582,210.076923 143.618428,212.865385 C138.547274,215.884615 126.866505,215.346154 126.866505,215.346154 C126.866505,215.346154 115.166505,215.730769 110.091505,212.692308 C105.439582,209.923077 104.589582,206.211538 104.589582,206.211538 L104.278043,205.288462 L104.278043,205.288462 Z" id="Shape" fill="#FFFFFF"></path>
                <path d="M68.7857354,19.9288462 C68.7857354,19.9288462 59.3357354,24.0653846 55.0780431,31.1711538 C48.8626585,41.5442308 49.1434277,52.8211538 49.1434277,52.8211538 L57.2338123,54.1211538 L54.9415046,62.3153846 L67.6145815,60.4115385 C67.6145815,60.4115385 65.7857354,62.6557692 63.0030431,66.4769231 L90.8607354,57.8192308 C90.8607354,57.8192308 87.5434277,60.6307692 82.8895815,65.0346154 C83.0530431,64.9384615 83.1491969,64.8846154 83.1491969,64.8846154 C83.1491969,64.8846154 64.8684277,83.2807692 58.7953508,98.3846154 C51.4568892,116.621154 57.32612,136.715385 57.32612,136.715385 L57.0857354,136.782692 C58.0299662,140.559615 58.7684277,143.013462 58.7684277,143.013462 L75.9972738,154.2 C72.4434277,150.357692 69.8415046,145.382692 70.30112,139.190385 C71.5049662,122.973077 87.3184277,117.063462 87.3184277,117.063462 L114.00112,133.476923 C113.828043,132.886538 111.145351,123.817308 107.612658,120.173077 C103.593428,116.025 95.47612,114.971154 95.47612,114.971154 C95.47612,114.971154 106.091505,114.280769 109.933812,116.976923 C114.245351,119.998077 114.020351,132.942308 114.008812,133.480769 L119.331889,136.751923 C119.047274,133.636538 117.229966,115.153846 113.543428,112.988462 C109.228043,110.444231 97.8876585,111.211538 97.8876585,111.211538 C97.8876585,111.211538 113.37612,106.267308 117.291505,109.682692 C121.253043,113.140385 119.672274,133.663462 119.406889,136.801923 L126.870351,141.386538 L126.870351,141.538462 L134.554966,136.809615 C134.289582,133.713462 132.699197,113.142308 136.664582,109.682692 C140.578043,106.267308 156.068428,111.211538 156.068428,111.211538 C156.068428,111.211538 144.731889,110.444231 140.410735,112.988462 C136.724197,115.155769 134.904966,133.686538 134.62612,136.767308 L139.947274,133.492308 C139.941505,133.167308 139.679966,120.025 144.022274,116.976923 C147.864582,114.280769 158.479966,114.971154 158.479966,114.971154 C158.479966,114.971154 150.362658,116.025 146.345351,120.173077 C142.770351,123.863462 140.070351,133.094231 139.954966,133.488462 L166.397274,117.221154 C166.397274,117.221154 182.208812,123.136538 183.412658,139.355769 C183.872274,145.546154 181.274197,150.511538 177.722274,154.357692 L194.953043,143.178846 C194.953043,143.178846 195.683812,140.721154 196.62612,136.944231 L196.37612,136.880769 C196.37612,136.880769 202.241505,116.784615 194.914582,98.5461538 C188.841505,83.4423077 170.562658,65.0461538 170.562658,65.0461538 C170.562658,65.0461538 170.656889,65.1 170.814582,65.1923077 C166.160735,60.7923077 162.853043,57.9846154 162.853043,57.9846154 L190.718428,66.6461538 C187.929966,62.8192308 186.089582,60.5730769 186.089582,60.5730769 L198.760735,62.4730769 L196.472274,54.2826923 L204.568428,52.9942308 C204.568428,52.9942308 204.837658,41.7019231 198.62612,31.3365385 C194.37612,24.2288462 184.922274,20.0865385 184.922274,20.0865385 C184.922274,20.0865385 180.368428,30.1403846 173.989582,38.7461538 C166.499197,48.8519231 157.041505,54.2134615 157.041505,54.2134615 L148.643428,52.3653846 L142.279966,57.1673077 L140.253043,52.8326923 L136.37612,56.2423077 L126.870351,53.3461538 L117.333812,56.0769231 L113.460735,52.6711538 L111.428043,57.0057692 L105.066505,52.2038462 L96.6703508,54.0519231 C96.6703508,54.0519231 87.2107354,48.6923077 79.7203508,38.5884615 C73.3415046,29.9826923 68.7857354,19.9288462 68.7857354,19.9288462 L68.7857354,19.9288462 Z" id="Shape" fill="#F47920"></path>
                <path d="M192.587658,32.5192308 L187.837658,37.6134615 L188.981889,41.5519231 L187.841505,37.6134615 L192.587658,32.5192308 L192.587658,32.5192308 Z M69.4857354,34.0038462 C69.4857354,34.0038462 72.3107354,39.1634615 74.9049662,42.5442308 C72.3107354,39.1634615 69.4895815,34.0038462 69.4895815,34.0038462 L69.4857354,34.0038462 L69.4857354,34.0038462 Z M184.228043,34.1692308 C184.228043,34.1692308 181.391505,39.3288462 178.799197,42.7096154 C181.393428,39.3326923 184.231889,34.1692308 184.231889,34.1692308 L184.228043,34.1692308 L184.228043,34.1692308 Z M76.3934277,50.5903846 L74.4126585,57.325 L74.4165046,57.325 L83.9376585,52.7230769 L74.4165046,57.3211538 L76.3934277,50.5903846 Z M137.258812,60.1192308 C135.033812,60.0826923 133.149197,60.2634615 131.624197,60.5211538 C133.149197,60.2634615 135.033812,60.0826923 137.258812,60.1192308 Z M131.624197,60.5211538 C128.578043,61.0346154 126.974197,61.85 126.974197,61.85 C126.974197,61.85 124.866505,60.7634615 120.968428,60.2461538 C124.866505,60.7653846 126.974197,61.8538462 126.974197,61.8538462 C126.974197,61.8538462 128.578043,61.0346154 131.624197,60.5211538 Z M153.412658,63.9942308 C154.964582,64.7692308 156.279966,65.5596154 157.32612,66.2557692 C156.279966,65.5596154 154.964582,64.7692308 153.412658,63.9942308 Z M83.1491969,64.8846154 C83.1491969,64.8846154 83.0530431,64.9384615 82.8895815,65.0346154 C80.7549662,66.2980769 65.3472738,75.7846154 53.5780431,93.5326923 C45.7895815,105.282692 44.0338123,115.4 44.0338123,115.4 L47.9895815,114.615385 L42.4684277,128.759615 L50.2838123,126.694231 L44.3838123,140.219231 L57.0895815,136.778846 L57.3222738,136.715385 C57.3222738,136.715385 51.4568892,116.621154 58.7953508,98.3846154 C64.8703508,83.2807692 83.1491969,64.8846154 83.1491969,64.8846154 Z M170.562658,65.05 C170.562658,65.05 188.843428,83.4423077 194.914582,98.5423077 C202.241505,116.780769 196.37612,136.880769 196.37612,136.880769 L196.62612,136.944231 L209.337658,140.384615 L203.433812,126.855769 L211.241505,128.921154 L205.722274,114.773077 L209.664582,115.565385 C209.664582,115.565385 207.914582,105.446154 200.12612,93.7019231 C188.349197,75.9269231 172.918428,66.4384615 170.810735,65.1923077 C170.653043,65.1 170.562658,65.05 170.562658,65.05 L170.562658,65.05 Z M109.114582,65.4519231 C99.6703508,65.4846154 93.5280431,68.2423077 93.5280431,68.2423077 C93.5280431,68.2423077 93.5549662,68.2192308 93.6030431,68.1788462 L90.6684277,69.6326923 C90.6684277,69.6326923 82.6626585,73.8730769 78.87612,79.8230769 C74.8991969,86.0692308 73.4972738,93.2096154 73.4972738,93.2096154 L79.5741969,89.9076923 L70.5453508,108.815385 L76.0915046,105.717308 L70.6453508,122.957692 C70.6453508,122.957692 78.1953508,113.013462 98.5338123,106.603846 C112.718428,102.126923 125.743428,100.626923 125.743428,100.626923 C125.743428,100.626923 119.204966,101.080769 111.416505,99.5673077 L120.637658,96.2096154 C121.035735,96.1980769 121.25112,96.1807692 121.25112,96.1807692 C121.25112,96.1807692 110.028043,92.6346154 103.529966,87.3346154 C102.354966,86.3730769 101.322274,85.3730769 100.416505,84.3788462 L108.685735,74.1211538 C110.218428,74.75 111.791505,75.4884615 113.354966,76.3519231 C122.02612,81.1230769 126.974197,90.825 126.974197,90.825 C126.974197,90.825 131.687658,81.2865385 140.356889,76.5096154 C141.922274,75.6461538 143.493428,74.9153846 145.02612,74.2826923 L153.297274,84.5442308 C152.391505,85.5384615 151.356889,86.5346154 150.179966,87.4961538 C143.681889,92.8019231 132.462658,96.3423077 132.462658,96.3423077 C132.462658,96.3423077 132.67612,96.3596154 133.070351,96.3711538 L142.291505,99.7288462 C134.50112,101.242308 127.962658,100.788462 127.962658,100.788462 C127.962658,100.788462 140.991505,102.294231 155.174197,106.765385 C175.514582,113.180769 183.058812,123.117308 183.058812,123.117308 L177.612658,105.882692 L183.168428,108.976923 L174.139582,90.0730769 L180.220351,93.3711538 C180.220351,93.3711538 178.816505,86.2346154 174.841505,79.9884615 C171.054966,74.0365385 163.043428,69.7942308 163.043428,69.7942308 L160.114582,68.3480769 C160.158812,68.3865385 160.181889,68.4076923 160.181889,68.4076923 C160.181889,68.4076923 152.160735,64.8057692 140.356889,65.7826923 C139.668428,65.8403846 139.003043,65.9115385 138.354966,66 C131.220351,66.9826923 126.974197,69.7076923 126.974197,69.7076923 C126.974197,69.7076923 122.524197,66.8442308 115.353043,65.8423077 C114.708812,65.7519231 114.043428,65.6788462 113.354966,65.6211538 C111.879966,65.4980769 110.464582,65.4480769 109.114582,65.4519231 L109.114582,65.4519231 Z M69.5895815,89.2307692 C69.5895815,89.2307692 60.4241969,96.8615385 60.0126585,118.453846 C59.8088123,129.35 62.7434277,138.769231 62.7434277,138.769231 L64.6934277,132.026923 L68.6626585,133.815385 C68.6626585,133.815385 65.8799662,128.417308 64.72612,116.740385 C63.1991969,101.286538 69.5895815,89.2307692 69.5895815,89.2307692 L69.5895815,89.2307692 Z M184.122274,89.3961538 C184.122274,89.3961538 190.510735,101.45 188.981889,116.909615 C187.828043,128.580769 185.049197,133.976923 185.049197,133.976923 L189.028043,132.184615 L190.974197,138.930769 C190.974197,138.930769 193.895351,129.513462 193.703043,118.615385 C193.279966,97.025 184.122274,89.3961538 184.122274,89.3961538 Z M112.608812,108.480769 C106.60112,108.430769 97.8876585,111.211538 97.8876585,111.211538 C97.8876585,111.211538 109.22612,110.444231 113.543428,112.988462 C117.228043,115.153846 119.049197,133.636538 119.331889,136.751923 C119.356889,137.040385 119.368428,137.203846 119.368428,137.203846 C119.368428,137.203846 119.383812,137.061538 119.406889,136.801923 C119.672274,133.663462 121.253043,113.140385 117.291505,109.682692 C116.312658,108.828846 114.610735,108.498077 112.608812,108.480769 L112.608812,108.480769 Z M141.349197,108.480769 C139.347274,108.498077 137.643428,108.828846 136.664582,109.682692 C132.699197,113.142308 134.289582,133.711538 134.554966,136.809615 L134.587658,137.203846 C134.587658,137.203846 134.599197,137.048077 134.62612,136.767308 C134.904966,133.686538 136.724197,115.159615 140.410735,112.992308 C144.731889,110.448077 156.068428,111.211538 156.068428,111.211538 C156.068428,111.211538 147.356889,108.430769 141.349197,108.480769 L141.349197,108.480769 Z M97.1972738,114.903846 C96.1415046,114.926923 95.4799662,114.971154 95.4799662,114.971154 C95.4799662,114.971154 103.593428,116.026923 107.612658,120.173077 C111.145351,123.819231 113.828043,132.882692 114.00112,133.476923 C114.008812,133.496154 114.008812,133.507692 114.008812,133.507692 L114.008812,133.480769 C114.020351,132.942308 114.245351,119.998077 109.933812,116.976923 C107.053043,114.955769 100.362658,114.836538 97.1972738,114.903846 L97.1972738,114.903846 Z M156.762658,114.903846 C153.597274,114.836538 146.903043,114.955769 144.022274,116.976923 C139.678043,120.025 139.941505,133.167308 139.947274,133.492308 C139.947274,133.494231 139.95112,133.507692 139.95112,133.507692 L139.954966,133.488462 C140.068428,133.096154 142.770351,123.863462 146.345351,120.173077 C150.362658,116.026923 158.479966,114.971154 158.479966,114.971154 C158.479966,114.971154 157.816505,114.926923 156.762658,114.903846 L156.762658,114.903846 Z M52.9549662,146.101923 L47.5165046,155.040385 L57.0972738,156.836538 L53.6645815,165.188462 L63.9107354,164.840385 L61.5068892,174.965385 L71.3068892,173.876923 L69.3684277,184.438462 L79.7588123,181.475 L77.3953508,191.586538 L84.9415046,187.875 L92.5165046,192.480769 L85.1857354,168.780769 L52.9549662,146.101923 L52.9549662,146.101923 Z M200.760735,146.263462 L168.524197,168.946154 L161.195351,192.653846 L168.772274,188.028846 L176.316505,191.748077 L173.954966,181.640385 L184.335735,184.603846 L182.404966,174.034615 L192.197274,175.134615 L189.793428,165.005769 L200.049197,165.35 L196.606889,156.994231 L206.183812,155.201923 L200.760735,146.263462 L200.760735,146.263462 Z" id="Shape" fill="#000000"></path>
                <path d="M89.57612,93.8846154 C89.57612,93.8846154 89.4626585,101.936538 95.1953508,103.969231 C99.0991969,105.351923 105.024197,101.592308 105.024197,101.592308 L97.7799662,99.2153846 L96.4126585,103.948077 L94.7145815,97.4307692 L89.57612,93.8846154 L89.57612,93.8846154 Z M164.135735,94.05 L158.999197,97.6 L157.297274,104.113462 L155.929966,99.3769231 L148.687658,101.753846 C148.687658,101.753846 154.606889,105.517308 158.514582,104.134615 C164.247274,102.101923 164.135735,94.05 164.135735,94.05 L164.135735,94.05 Z" id="Shape" fill="#F9A721"></path>
                <path d="M109.114582,65.4519231 C99.6703508,65.4846154 93.5280431,68.2423077 93.5280431,68.2423077 L93.6030431,68.1788462 L90.6684277,69.6326923 C90.6684277,69.6326923 84.3684277,79.8884615 90.5415046,88.1230769 C95.6972738,94.9980769 104.110735,98.1461538 111.416505,99.5634615 L120.637658,96.2096154 C117.883812,96.2942308 106.399197,96.0942308 98.1241969,87.5596154 C93.6030431,82.8961538 94.6838123,74.9807692 94.6838123,74.9807692 C94.6838123,74.9807692 96.0915046,79.6326923 100.416505,84.3826923 L108.685735,74.1173077 C100.603043,70.7923077 93.5280431,70.4326923 93.5280431,70.4326923 C93.5280431,70.4326923 101.129966,67.4519231 111.67612,69.7980769 C111.818428,69.8288462 111.95112,69.8596154 112.089582,69.8923077 L115.353043,65.8423077 C114.708812,65.7538462 114.043428,65.6769231 113.354966,65.6211538 C111.879966,65.4980769 110.464582,65.4480769 109.114582,65.4519231 L109.114582,65.4519231 Z M144.597274,65.6134615 C143.249197,65.6076923 141.831889,65.6576923 140.356889,65.7788462 C139.668428,65.8365385 139.003043,65.9153846 138.354966,66.0038462 L141.618428,70.0538462 C141.758812,70.0211538 141.899197,69.9903846 142.039582,69.9596154 C152.583812,67.6153846 160.181889,70.5942308 160.181889,70.5942308 C160.181889,70.5942308 153.110735,70.9576923 145.02612,74.2826923 L153.297274,84.5403846 C157.624197,79.7942308 159.024197,75.1423077 159.024197,75.1423077 C159.024197,75.1423077 160.108812,83.0576923 155.583812,87.7211538 C147.304966,96.2557692 135.818428,96.4557692 133.070351,96.3711538 L142.291505,99.7288462 C149.599197,98.3115385 158.008812,95.1576923 163.168428,88.2807692 C169.335735,80.05 163.043428,69.7980769 163.043428,69.7980769 L160.114582,68.3480769 C160.158812,68.3865385 160.181889,68.4076923 160.181889,68.4076923 C160.181889,68.4076923 154.039582,65.65 144.597274,65.6134615 L144.597274,65.6134615 Z" id="Shape" fill="#FFFFFF"></path>
            </g>
        </g>
    </g>
</svg>