<?xml version="1.0" encoding="UTF-8" standalone="no"?>
<svg width="250px" height="250px" viewBox="0 0 250 250" version="1.1" xmlns="http://www.w3.org/2000/svg" xmlns:xlink="http://www.w3.org/1999/xlink">
    <!-- Generator: Sketch 47.1 (45422) - http://www.bohemiancoding.com/sketch -->
    <title>CSN</title>
    <desc>Created with Sketch.</desc>
    <defs>
        <polygon id="path-1" points="9.14241718 4.27918719 9.14241718 0.495935961 1.20020429 0.495935961 1.20020429 4.27918719 9.14241718 4.27918719"></polygon>
    </defs>
    <g id="Page-1" stroke="none" stroke-width="1" fill="none" fill-rule="evenodd">
        <g id="CSN">
            <g id="Page-1" transform="translate(25.000000, 0.000000)">
                <path d="M33.9257172,239.66133 L33.9257172,246.576355 L35.062662,246.576355 L35.062662,249.738916 L28.6664227,249.738916 L28.6664227,246.576355 L30.1696067,246.576355 L30.1696067,238.708128 L28.6664227,238.708128 L28.6664227,235.545567 L36.3414166,235.545567 C36.9703123,235.545567 37.255165,235.726601 37.3772448,236.376847 L38.6559994,243.007389 L38.8385025,243.007389 L40.1172571,236.376847 C40.2393368,235.726601 40.5241896,235.545567 41.1530853,235.545567 L48.7269626,235.545567 L48.7269626,238.708128 L47.2237785,238.708128 L47.2237785,246.576355 L48.7269626,246.576355 L48.7269626,249.738916 L41.9250239,249.738916 L41.9250239,246.576355 L43.0619687,246.576355 L43.0619687,239.66133 L42.8585025,239.66133 L40.7066926,248.92734 C40.5648828,249.536946 40.3207233,249.738916 39.7929442,249.738916 L37.1935086,249.738916 C36.6669626,249.738916 36.4228031,249.536946 36.2809933,248.92734 L34.1279503,239.66133 L33.9257172,239.66133 Z" id="Fill-1" fill="#000000"></path>
                <path d="M58.1511497,242.459236 L60.221573,242.459236 L59.3078245,239.174754 L59.0846282,239.174754 L58.1511497,242.459236 Z M51.6944871,249.738793 L51.6944871,246.576232 L52.8918552,246.576232 L56.201573,236.822537 C56.5468491,235.828695 56.9328184,235.483867 57.9069902,235.483867 L60.7900454,235.483867 C61.7654503,235.483867 62.1501865,235.828695 62.4954626,236.822537 L65.8051804,246.576232 L67.0037816,246.576232 L67.0037816,249.738793 L60.0390699,249.738793 L60.0390699,246.636576 L61.3387877,246.636576 L60.9935117,245.419828 L57.379211,245.419828 L57.053665,246.636576 L58.3533828,246.636576 L58.3533828,249.738793 L51.6944871,249.738793 Z" id="Fill-3" fill="#000000"></path>
                <polygon id="Fill-5" fill="#000000" points="79.614127 246.575985 79.614127 249.738547 72.1635626 249.738547 72.1635626 246.575985 73.8085564 246.575985 73.8085564 238.626478 72.1228693 238.626478 72.1228693 241.242241 68.894538 241.242241 68.894538 235.545197 82.8831515 235.545197 82.8831515 241.242241 79.6560534 241.242241 79.6560534 238.626478 77.9703663 238.626478 77.9703663 246.575985"></polygon>
                <path d="M91.0278442,242.459236 L93.0982675,242.459236 L92.184519,239.174754 L91.9613227,239.174754 L91.0278442,242.459236 Z M84.5699485,249.738793 L84.5699485,246.576232 L85.7685497,246.576232 L89.0782675,236.822537 C89.4235436,235.828695 89.8095129,235.483867 90.7849178,235.483867 L93.667973,235.483867 C94.6421448,235.483867 95.0281141,235.828695 95.3721571,236.822537 L98.683108,246.576232 L99.8804761,246.576232 L99.8804761,249.738793 L92.9157644,249.738793 L92.9157644,246.636576 L94.2154822,246.636576 L93.8702061,245.419828 L90.2559055,245.419828 L89.9303595,246.636576 L91.2313104,246.636576 L91.2313104,249.738793 L84.5699485,249.738793 Z" id="Fill-7" fill="#000000"></path>
                <path d="M108.532478,246.575985 L110.379705,246.575985 C111.293453,246.575985 111.638729,246.514409 111.842196,246.312438 C112.064159,246.089532 112.146779,245.500862 112.146779,242.642488 C112.146779,239.802586 112.064159,239.194212 111.842196,238.971305 C111.638729,238.769335 111.293453,238.707759 110.379705,238.707759 L108.532478,238.707759 L108.532478,246.575985 Z M115.049564,236.659729 C116.023736,237.633867 116.531785,239.093227 116.531785,242.642488 C116.531785,246.190517 116.023736,247.649877 115.049564,248.624015 C114.197472,249.475 113.099987,249.738547 111.049294,249.738547 L102.867484,249.738547 L102.867484,246.575985 L104.370668,246.575985 L104.370668,238.707759 L102.867484,238.707759 L102.867484,235.545197 L111.049294,235.545197 C113.099987,235.545197 114.197472,235.807512 115.049564,236.659729 L115.049564,236.659729 Z" id="Fill-9" fill="#000000"></path>
                <path d="M124.87982,246.331897 C125.000667,246.453818 125.204133,246.494458 125.813299,246.494458 L127.519949,246.494458 C128.127882,246.494458 128.331348,246.453818 128.452194,246.331897 C128.595237,246.190271 128.696354,245.744458 128.696354,242.642241 C128.696354,239.538793 128.595237,239.094212 128.452194,238.951355 C128.331348,238.829433 128.127882,238.788793 127.519949,238.788793 L125.813299,238.788793 C125.204133,238.788793 125.000667,238.829433 124.87982,238.951355 C124.73801,239.094212 124.635661,239.538793 124.635661,242.642241 C124.635661,245.765394 124.73801,246.190271 124.87982,246.331897 L124.87982,246.331897 Z M129.14398,235.544951 C130.624967,235.544951 131.234133,235.767857 131.782875,236.315887 C132.615237,237.126232 133.08136,238.728448 133.08136,242.642241 C133.08136,246.556034 132.615237,248.15702 131.782875,248.968596 C131.234133,249.515394 130.624967,249.7383 129.14398,249.7383 L124.188035,249.7383 C122.707047,249.7383 122.097882,249.515394 121.549139,248.968596 C120.716777,248.15702 120.250655,246.556034 120.250655,242.642241 C120.250655,238.728448 120.716777,237.126232 121.549139,236.315887 C122.097882,235.767857 122.707047,235.544951 124.188035,235.544951 L129.14398,235.544951 Z" id="Fill-11" fill="#000000"></path>
                <path d="M144.129455,241.465271 C144.71889,241.465271 144.942087,241.424631 145.062933,241.302709 C145.245436,241.100739 145.287363,240.796552 145.287363,240.066256 C145.287363,239.335961 145.245436,239.031773 145.062933,238.829803 C144.942087,238.707882 144.71889,238.667241 144.129455,238.667241 L142.261264,238.667241 L142.261264,241.465271 L144.129455,241.465271 Z M149.509596,246.576108 L150.87097,246.576108 L150.87097,249.73867 L147.093896,249.73867 C146.241804,249.73867 145.937221,249.597044 145.691829,249.353202 C145.388479,249.049015 145.225706,248.542857 145.14432,246.169704 C145.10486,245.115517 145.043203,244.85197 144.839737,244.648768 C144.657234,244.467734 144.413074,244.385222 143.723755,244.385222 L142.261264,244.385222 L142.261264,246.576108 L143.805142,246.576108 L143.805142,249.73867 L136.596271,249.73867 L136.596271,246.576108 L138.099455,246.576108 L138.099455,238.707882 L136.596271,238.707882 L136.596271,235.54532 L146.281264,235.54532 C147.499596,235.54532 148.291264,235.747291 148.840007,236.29532 C149.468902,236.923399 149.672369,237.715271 149.672369,239.478818 C149.672369,241.992365 149.00278,242.600739 147.357786,242.925862 L147.357786,242.966502 C148.779583,243.290394 149.447939,243.757143 149.468902,245.805172 C149.468902,246.049015 149.489866,246.332266 149.509596,246.576108 L149.509596,246.576108 Z" id="Fill-13" fill="#000000"></path>
                <path d="M165.247279,249.049261 C164.82185,249.475369 164.152261,249.738916 163.014083,249.738916 L157.330592,249.738916 C156.050604,249.738916 155.320592,249.576355 154.812543,249.070197 C154.223107,248.481527 153.999911,247.448276 153.999911,244.953202 L157.899064,244.953202 C157.938525,246.007389 157.998948,246.311576 158.101298,246.413793 C158.223377,246.534483 158.466304,246.576355 159.055739,246.576355 L161.005316,246.576355 C161.593518,246.576355 161.896868,246.534483 161.999218,246.433498 C162.121298,246.311576 162.161991,246.04803 162.161991,245.54064 C162.161991,245.135468 162.121298,244.892857 161.999218,244.770936 C161.896868,244.669951 161.552825,244.58867 160.984353,244.528325 L156.902696,244.041872 C156.009911,243.939655 155.420475,243.716749 154.974083,243.270936 C154.42534,242.722906 154.162684,241.789409 154.162684,239.823892 C154.162684,238.018473 154.50796,236.883005 155.157819,236.23399 C155.583248,235.807882 156.273801,235.545567 157.349089,235.545567 L162.67004,235.545567 C163.989488,235.545567 164.740463,235.747537 165.186856,236.194581 C165.796021,236.801724 166.019218,237.694581 166.040181,240.147783 L162.142261,240.147783 C162.101567,239.254926 162.060874,238.991379 161.938794,238.869458 C161.816715,238.748768 161.613248,238.708128 161.085469,238.708128 L159.177819,238.708128 C158.6895,238.708128 158.466304,238.727833 158.38615,238.809113 C158.283801,238.91133 158.243107,239.153941 158.243107,239.62069 C158.243107,240.066502 158.283801,240.269704 158.40588,240.391626 C158.505764,240.491379 158.730193,240.533251 159.420745,240.6133 L163.501169,241.100985 C164.476574,241.222906 164.98339,241.445813 165.410052,241.871921 C165.958794,242.418719 166.242414,243.392857 166.242414,245.29803 C166.242414,247.245074 165.897138,248.400246 165.247279,249.049261" id="Fill-15" fill="#000000"></path>
                <path d="M74.558792,82.3204433 C74.0174485,81.9054187 73.4983012,81.4596059 73.0050497,80.985468 L71.648608,79.6775862 L70.0591049,80.6899015 C68.6656693,81.5753695 67.0120436,82.4780788 65.1278227,83.3857143 C64.9317552,83.1689655 64.7171908,82.9682266 64.4853626,82.7847291 C64.4828963,82.7785714 64.4804301,82.7736453 64.4779638,82.7674877 C65.7653503,77.9485222 67.7087613,71.5901478 70.050473,66.8081281 C71.3489577,66.0938424 74.5600252,64.3573892 77.0040865,63.0445813 C77.2568779,63.9435961 77.4529454,64.8623153 77.6539454,65.8093596 L77.6798411,65.9349754 C78.0288166,67.5839901 78.3876571,69.2761084 79.0843748,70.8475369 C77.6798411,73.2761084 75.803019,77.1775862 74.558792,82.3204433 M163.282412,95.4460591 C160.133001,78.1738916 160.024485,64.237931 162.959332,54.0236453 L163.834853,50.9743842 L160.658313,50.9743842 C141.511522,50.9743842 128.107412,57.9423645 120.129068,63.9263547 C120.645749,61.2059113 121.394258,58.8401478 122.093442,56.6332512 C123.404258,52.4559113 124.7607,48.1381773 124.226755,42.6800493 L124.068915,41.3660099 L123.004725,40.5482759 C117.54443,36.4423645 110.557522,32.9004926 105.182313,30.670197 L107.069001,23.6517241 C109.011179,23.4288177 110.95459,23.1492611 112.844976,22.8192118 L113.636645,22.6923645 L114.227313,22.2194581 C116.825516,20.2256158 117.802154,16.1258621 116.59862,12.2440887 C115.863675,9.89926108 113.281504,4.49408867 105.052835,3.83768473 C103.168614,2.55935961 98.7219515,0.000246305419 93.3418104,0.000246305419 C93.0137982,0.000246305419 92.6820865,0.0100985222 92.351608,0.0298029557 C88.7360742,0.239162562 85.4275896,1.60985222 82.5087736,4.10862069 C77.6391479,5.59261084 74.2295466,8.62093596 73.1147982,12.4842365 C72.2664055,15.462069 72.9470926,18.6049261 74.9127,20.7096059 L75.4219822,21.2416256 L76.0940374,21.4768473 C76.5564607,21.6492611 78.118835,22.1554187 80.5739945,22.6812808 C80.5875589,22.7206897 80.5998902,22.758867 80.6134546,22.7995074 C80.9242031,23.7440887 81.6073564,25.8130542 82.1511663,27.5445813 C72.7053994,27.6036946 66.4633012,29.6357143 63.5950436,33.5876847 C61.7724791,36.0987685 61.2977245,39.2305419 62.1769454,42.9078818 C60.2027061,46.1012315 53.7719393,53.985468 53.7719393,53.985468 C52.9260129,57.3068966 46.7603687,77.4719212 46.7603687,77.4719212 C43.9784301,86.1147783 43.0289209,91.2096059 43.0289209,91.2096059 L37.7893564,92.5384236 C17.5339822,127.028571 48.418927,156.383251 48.418927,156.383251 C48.418927,156.383251 58.9609454,139.326601 82.6838779,139.326601 C84.5717982,139.326601 86.5152092,139.437438 88.4610865,139.659113 C92.3577736,140.1 96.5232828,140.953448 100.8417,142.197291 C104.92459,143.373399 109.006246,144.197291 112.979387,144.64803 C115.385221,144.920197 117.791056,145.056897 120.126602,145.058128 L120.131534,145.058128 C134.744111,145.058128 147.206111,139.773645 155.223915,130.176355 C162.840952,121.05936 165.703044,108.724384 163.282412,95.4460591" id="Fill-17" fill="#C3C5C8"></path>
                <path d="M64.0916245,86.4972906 C63.9362503,85.6610837 63.4898577,84.9517241 62.7290172,84.4652709 C62.6094037,84.3261084 62.3331828,83.9529557 62.1112196,83.2743842 C62.0705264,83.1512315 62.0088699,83.0428571 61.9595448,82.9246305 C63.369011,77.5453202 65.541784,70.3544335 68.2361706,65.0859606 C68.2645325,65.0342365 75.9777534,60.8704433 78.3034344,59.6376847 C79.2134834,61.5834975 79.6179497,63.5366995 80.022416,65.4394089 C80.4503117,67.4603448 80.856011,69.3729064 81.8277166,70.9344828 C80.3898883,73.1992611 77.4550417,78.579803 76.2169804,86.1906404 C74.1835509,85.1450739 72.5681521,83.8839901 71.3436552,82.7054187 C69.2251399,84.0539409 66.7329865,85.3236453 64.0916245,86.4972906 M114.035809,76.7029557 C113.912496,76.7903941 113.792882,76.8753695 113.670802,76.9603448 C113.672036,76.9258621 113.673269,76.8926108 113.674502,76.8568966 C113.791649,76.8100985 113.914962,76.7559113 114.035809,76.7029557 M45.5207043,92.9997537 C41.7719926,94.06133 39.2539436,94.6512315 39.2539436,94.6512315 C39.2539436,94.6512315 21.3143853,121.441872 48.2594834,152.553941 C48.2594834,152.553941 61.5748086,134.210345 88.7307718,137.283005 C92.5978638,137.720197 96.8422933,138.556404 101.505987,139.898768 C105.539551,141.062562 109.4646,141.84335 113.249072,142.271921 C144.568079,145.815025 166.266213,125.159852 160.926766,95.8741379 C158.358158,81.7891626 157.026379,66.0059113 160.657944,53.3642857 C137.589802,53.3642857 123.158496,63.9332512 117.109999,69.5564039 C117.282637,63.944335 118.595919,59.7497537 119.79452,55.9628079 C121.097937,51.8150246 122.332299,47.9036946 121.850146,42.9652709 L121.811919,42.6475369 L121.56406,42.4578818 C115.340459,37.7768473 107.330054,34.0194581 102.321085,32.1019704 L105.183177,21.4480296 C107.590244,21.2115764 110.036772,20.8815271 112.466036,20.4591133 L112.633741,20.4320197 L112.768152,20.3248768 C114.561121,18.9480296 115.212213,15.8544335 114.314496,12.9591133 C113.70533,11.0182266 111.528858,6.50344828 104.227502,6.1820197 C103.21387,5.4320197 98.3491767,2.06871921 92.4905816,2.41724138 C89.2511521,2.60320197 86.2965755,3.89507389 83.6909742,6.2546798 C79.3491276,7.44926108 76.337827,9.95049261 75.4179129,13.1401478 C74.7976491,15.3137931 75.2687043,17.5859606 76.6411767,19.0564039 L76.7558577,19.1746305 L76.9136982,19.2300493 C76.9938515,19.2633005 78.9126,19.9504926 82.4183853,20.6155172 C82.5922564,21.220197 85.8033239,30.6684729 85.2286859,29.9849754 C74.8975325,29.5995074 68.1288883,31.4147783 65.5331521,34.9899015 C64.0201031,37.0748768 63.7475816,39.7965517 64.7020233,43.0995074 C64.1520479,44.5034483 63.0915571,46.5982759 56.0972503,54.7448276 C55.9986,54.8716749 52.8824834,67.1561576 48.2052258,80.6450739 C45.0607472,90.2091133 45.5207043,92.9997537 45.5207043,92.9997537" id="Fill-19" fill="#000000"></path>
                <path d="M117.42568,44.7396552 C117.42568,44.7396552 117.901667,45.3258621 117.331962,46.5118227 L113.394582,46.412069 L115.330594,48.9256158 C115.330594,48.9256158 115.341692,50.2211823 113.993882,54.4206897 C112.651005,58.6115764 112.620177,69.117734 112.620177,69.117734 C112.620177,69.117734 111.848238,68.3492611 111.256336,67.935468 C111.256336,67.935468 109.340054,49.9305419 101.825367,39.6596059 C101.825367,39.6596059 102.834066,38.71133 103.629434,37.2396552 C103.629434,37.2396552 111.803845,39.7778325 117.42568,44.7396552" id="Fill-21" fill="#D0202E"></path>
                <path d="M78.7940963,15.407266 C79.1812988,10.0131773 85.6527589,9.46022167 85.6527589,9.46022167 C91.9108877,2.88509852 102.521961,7.67573892 105.453109,12.8715517 L104.884636,9.40110837 C112.038017,10.8001232 110.449747,16.087069 110.449747,16.087069 C107.77509,15.4602217 105.26074,14.9934729 102.899299,14.6412562 C96.1565503,9.70529557 85.9684399,11.0685961 83.6970166,14.3296798 C82.6525564,14.4860837 81.777035,14.6498768 81.0630534,14.8075123 C81.356538,15.6732759 81.7560718,16.316133 81.7560718,16.316133 C80.2220595,16.0796798 78.7940963,15.407266 78.7940963,15.407266" id="Fill-23" fill="#D0202E"></path>
                <path d="M97.2885626,39.9530788 C97.2885626,39.9530788 95.8384031,39.483867 93.9356853,38.4518473 C96.2095748,37.8545567 97.6042436,36.9432266 97.6042436,36.9432266 C95.1207221,36.3496305 92.9319184,35.0146552 91.4188693,33.8828818 L90.5951393,36.1796798 C90.928084,36.5873153 92.8184706,37.7067734 92.8184706,37.7067734 C89.348446,40.6599754 83.0459245,42.0158867 78.4734828,37.7720443 C76.0762804,35.5331281 73.2758448,35.2277094 71.3805258,36.0528325 C69.5974215,37.0220443 68.8156178,38.4469212 69.3853233,40.4259852 C70.6307834,37.3570197 73.622354,37.4764778 78.1824644,41.1328818 C82.7413417,44.7929803 87.4494276,43.3188424 89.9354153,41.3102217 C89.9354153,41.3102217 88.2423294,45.1488916 85.7514092,47.4481527 C85.7514092,47.4481527 87.9537773,58.3668719 88.9390472,62.0910099 C88.9390472,62.0910099 86.6984521,64.7461823 85.3913356,67.0479064 C85.3913356,67.0479064 91.6001393,63.5109606 102.317262,64.9296798 C102.317262,64.9296798 102.19025,47.5713054 97.2885626,39.9530788" id="Fill-25" fill="#D0202E"></path>
                <path d="M69.8526791,44.2640394 C68.999354,46.155665 69.8526791,44.2640394 69.8526791,44.2640394 C69.8526791,44.2640394 64.0483417,52.6642857 60.0221761,55.7714286 C60.0221761,55.7714286 56.1489184,70.1285714 54.2437344,76.5793103 C54.087127,77.0669951 53.9329859,77.5657635 53.771446,78.0842365 C55.3165564,77.9980296 58.1367221,79.1864532 58.1367221,79.1864532 C61.1048632,70.2935961 60.5795503,70.4894089 64.1309613,61.1445813 C63.3528571,59.7024631 62.519262,59.0546798 62.0765687,58.6581281 L62.1616546,58.5115764 C63.6993663,58.744335 65.0644399,59.2270936 66.0941025,59.6839901 C67.3679245,60.244335 68.1398632,60.7714286 68.1398632,60.7714286 C67.7205994,60.0399015 67.3136669,59.426601 66.9190656,58.8958128 C65.544127,57.0423645 64.4121147,56.3194581 64.4121147,56.3194581 C66.1409613,56.6630542 67.4653417,57.1815271 68.3063356,57.5866995 C75.0651147,51.2615764 76.7434031,47.8022167 76.7434031,47.8022167 C73.1291025,40.541133 69.8526791,44.2640394 69.8526791,44.2640394" id="Fill-27" fill="#D0202E"></path>
                <path d="M103.294023,81.6679803 C103.766312,79.929064 104.191741,77.7812808 104.486459,75.1433498 C104.486459,75.1433498 102.348213,72.7307882 99.2012687,71.2591133 C99.2012687,71.2591133 103.070827,70.4672414 109.029306,70.7455665 C104.895858,68.3921182 97.414465,65.6039409 88.0932442,68.6618227 C85.3766613,72.3366995 81.6193178,79.1408867 81.5588945,88.5731527 C86.6455509,89.1334975 93.8075632,87.8564039 103.294023,81.6679803" id="Fill-29" fill="#D0202E"></path>
                <path d="M57.5635638,91.4480296 C57.2737785,91.1044335 56.7077724,90.3211823 56.406889,89.1635468 C56.091208,87.9517241 57.0740117,87.558867 57.3305025,87.5662562 C57.5894595,87.5724138 58.2627479,87.9800493 58.3811282,87.9812808 C58.4982755,87.9812808 60.5760975,87.1376847 60.5760975,87.1376847 C60.5760975,87.1376847 59.7511344,86.8926108 58.9212387,84.9738916 C58.1135393,83.1093596 54.3155025,83.717734 53.5941221,84.0108374 C52.8739748,84.3076355 51.4608092,84.9061576 50.473073,86.48867 C49.6949687,87.7325123 48.5197969,91.8384236 48.8687724,92.1647783 C49.6468767,92.8876847 51.363392,94.0785714 51.363392,94.0785714 C51.363392,94.0785714 52.0305147,94.3051724 52.5459626,93.73867 L53.2229503,94.194335 C53.2229503,94.194335 54.0836742,94.6820197 54.7175025,93.9714286 C54.7175025,93.9714286 55.6879748,95.0305419 56.5980239,93.6512315 C56.5980239,93.6512315 57.5610975,94.4825123 58.2565822,93.7263547 C59.1752632,92.7312808 60.5415699,91.1216749 60.675981,91.0009852 C60.675981,91.0009852 60.4404534,89.4381773 57.5635638,91.4480296" id="Fill-31" fill="#C3C5C8"></path>
                <path d="M89.2557147,32.0417488 L88.502273,34.7215517 C80.8753712,34.0442118 74.5420215,34.325 71.3802791,36.051601 C73.2768313,35.2277094 76.0760337,35.5318966 78.4732362,37.7720443 C83.0456779,42.0158867 89.3481994,40.6599754 92.8182239,37.7067734 C92.8182239,37.7067734 90.9278374,36.5873153 90.5948926,36.1784483 L91.4186227,33.8828818 C90.072046,32.8791872 89.2557147,32.0417488 89.2557147,32.0417488" id="Fill-33" fill="#C3C5C8"></path>
                <path d="M113.424053,46.451601 L113.395691,46.4121921 L117.331839,46.5119458 C117.901544,45.3247537 117.425556,44.7397783 117.425556,44.7397783 C112.298207,40.2126847 105.046176,37.704064 103.815513,37.2988916 C105.046176,38.2828818 109.835648,42.1892857 113.424053,46.451601" id="Fill-35" fill="#C3C5C8"></path>
                <path d="M94.9006086,47.4715517 C95.2347865,47.2153941 95.3938601,46.9321429 95.2791791,46.6230296 C94.6120564,44.8545567 87.0209153,45.9198276 87.4019521,47.8582512 C87.4426454,48.1020936 87.6831055,48.2794335 88.0493448,48.4013547 C89.3305656,47.280665 93.3012405,46.7523399 94.9006086,47.4715517" id="Fill-37" fill="#C3C5C8"></path>
                <path d="M95.1330534,51.7253695 C95.5128571,51.4950739 95.6928939,51.2204433 95.589311,50.9137931 C95.024538,49.2931034 88.132581,50.0578818 88.4285319,51.8214286 C88.4667589,52.0763547 88.7466791,52.2586207 89.1634767,52.3793103 C90.3966055,51.4876847 93.6594644,51.1416256 95.1330534,51.7253695" id="Fill-39" fill="#C3C5C8"></path>
                <path d="M95.4599558,55.6213054 C95.8779865,55.3885468 96.1061153,55.1114532 95.9988331,54.7998768 C95.4846184,53.3171182 89.153735,54.012931 89.4151583,55.6434729 C89.4657166,55.898399 89.7776982,56.0843596 90.2425877,56.1890394 C91.4140601,55.4538177 94.102281,55.169335 95.4599558,55.6213054" id="Fill-41" fill="#C3C5C8"></path>
                <path d="M95.6358,59.2274631 C96.1179534,59.0082512 96.3978736,58.7262315 96.2757939,58.4084975 C95.8195362,57.0525862 90.0472601,57.6880542 90.2864871,59.1708128 C90.3345791,59.4368227 90.6983521,59.6030788 91.2162663,59.7077586 C92.3063521,59.133867 94.4187018,58.9171182 95.6358,59.2274631" id="Fill-43" fill="#C3C5C8"></path>
                <path d="M98.944408,19.6376847 C98.9555061,20.3334975 98.0096963,20.8926108 96.8283589,20.8926108 C95.6507209,20.8926108 94.6876472,20.3334975 94.6777822,19.6376847 C94.666684,18.9431034 95.6186595,18.3741379 96.7938313,18.3741379 C97.9751687,18.3741379 98.9357761,18.9431034 98.944408,19.6376847" id="Fill-45" fill="#C3C5C8"></path>
                <path d="M74.3058773,44.3301724 C71.7791963,42.0801724 69.8530491,44.26367 69.8530491,44.26367 C69.8444172,44.2821429 69.8394847,44.2956897 69.8320859,44.312931 C69.823454,44.3289409 69.813589,44.3511084 69.8012577,44.3769704 C69.7445337,44.5025862 69.6976748,44.607266 69.6569816,44.6947044 C69.6335521,44.7525862 69.6039571,44.8116995 69.5817607,44.8646552 C69.574362,44.8831281 69.5657301,44.8991379 69.5583313,44.9151478 C69.546,44.9434729 69.5349018,44.969335 69.5250368,44.9915025 C69.469546,45.1134236 69.449816,45.1528325 69.5250368,44.9915025 C69.5349018,44.969335 69.546,44.9434729 69.5583313,44.9151478 C69.5657301,44.8991379 69.574362,44.8831281 69.5817607,44.8646552 C69.6039571,44.8116995 69.6335521,44.7525862 69.6569816,44.6947044 C69.7100061,44.5777094 69.7654969,44.4607143 69.8012577,44.3769704 C69.813589,44.3511084 69.823454,44.3289409 69.8320859,44.312931 C69.8419509,44.2833744 69.8530491,44.26367 69.8530491,44.26367 C69.8530491,44.26367 64.0487117,52.6639163 60.022546,55.7710591 C60.022546,55.7710591 56.1492883,70.128202 54.2428712,76.5789409 C54.0874969,77.0678571 53.9333558,77.5653941 53.771816,78.083867 C54.3242577,78.0518473 55.0444049,78.1848522 55.7361902,78.3708128 C57.2332086,73.289532 61.5491595,60.2168719 62.1028344,58.6799261 C62.0929693,58.6725369 62.0855706,58.6651478 62.0769387,58.6577586 L62.1607914,58.5112069 L64.4124847,56.3190887 C68.952865,51.7722906 72.5844294,46.8227833 74.3058773,44.3301724" id="Fill-47" fill="#C3C5C8"></path>
                <path d="M92.4500117,16.0958128 C91.4992693,15.8938424 91.2822387,16.7682266 91.2822387,16.7682266 L90.347527,20.0219212 L88.9528583,18.0724138 C88.4213798,17.9394089 87.7616558,17.9554187 87.0859012,18.4307882 C85.8268767,19.3150246 86.2288767,20.8014778 86.2288767,20.8014778 L87.5988828,25.8987685 C88.3831528,28.7657635 90.4511098,28.9197044 90.4511098,28.9197044 L91.3611589,28.9480296 C91.3611589,28.9480296 92.4426129,28.8716749 92.4426129,27.8347291 C92.4426129,26.7977833 91.3290975,26.7300493 91.3290975,26.7300493 L90.8210485,26.6918719 C90.7347294,26.6906404 90.2636742,26.5662562 90.2636742,26.1401478 C90.2636742,25.7140394 90.7051344,25.6081281 90.7051344,25.6081281 L91.6213491,25.4800493 C91.6213491,25.4800493 92.1540607,25.4578818 92.1540607,24.9320197 C92.1540607,24.4073892 91.6065515,24.3926108 91.6065515,24.3926108 L89.5484595,24.3926108 C88.9972509,23.0896552 91.209484,23.1253695 91.209484,23.1253695 C90.3265638,22.558867 90.136662,21.7756158 90.136662,21.7756158 L92.5942877,21.7756158 L93.2244166,17.2214286 C93.2244166,17.2214286 93.3847233,16.2940887 92.4500117,16.0958128" id="Fill-49" fill="#C3C5C8"></path>
                <path d="M86.0868202,88.5700739 C87.1793724,77.5774631 92.0785933,70.3163793 94.4511331,67.3853448 C92.4509982,67.5343596 90.3275503,67.9309113 88.0931209,68.6624384 C85.376538,72.3360837 81.6191945,79.1402709 81.5587712,88.5737685 C82.9189123,88.7240148 84.4257957,88.7424877 86.0868202,88.5700739" id="Fill-51" fill="#C3C5C8"></path>
                <path d="M110.577869,84.6001232 C118.041998,83.6506158 124.942587,81.3131773 124.942587,81.3131773 C100.199856,101.340271 71.3804025,94.001601 71.3804025,94.001601 C71.3804025,94.001601 87.5072613,105.403079 122.445501,101.054557 C122.445501,101.054557 94.4744393,111.975739 61.8039239,98.2713054 C61.8039239,98.2713054 71.9772368,110.187562 91.4915006,112.655542 C91.4915006,112.655542 68.0694515,116.926478 48.653838,98.6173645 C48.653838,98.6173645 48.346789,107.093966 53.7713227,115.261453 C53.7713227,115.261453 46.1715497,113.598892 40.7975742,101.532389 C40.7975742,101.532389 33.6885865,120.446182 50.9203288,137.788547 C50.9203288,137.788547 69.9512061,123.534852 97.5695926,130.775 C108.832991,133.728202 118.194906,134.816872 125.873599,133.862438 C119.710421,132.868596 111.960206,130.666626 106.732973,125.776232 C106.732973,125.776232 132.950525,133.332882 145.878648,122.339039 C158.806771,111.343966 155.002568,97.0077586 153.15904,86.1469212 C152.067721,79.7183498 151.071353,69.5988916 152.704016,60.4030788 C131.93936,60.095197 110.577869,84.6001232 110.577869,84.6001232" id="Fill-53" fill="#D0202E"></path>
                <path d="M146.463151,153.523522 C146.463151,153.523522 149.400464,157.945936 149.400464,166.413916 L149.400464,226.527217 L168.052771,226.527217 C168.052771,226.527217 165.162317,221.5617 165.162317,215.608498 L165.162317,195.525985 L173.347826,218.027217 C176.626715,227.014901 183.947801,226.527217 183.947801,226.527217 L191.954507,226.527217 L191.964372,200.546921 C191.964372,193.703325 195.142145,190.022291 195.142145,190.022291 C195.142145,190.022291 191.964372,186.337562 191.964372,179.496429 L191.964372,153.518596 L173.273838,153.518596 C173.273838,153.518596 176.212384,158.284606 176.212384,166.009975 L176.212384,181.496429 L166.004544,153.518596 L146.463151,153.523522 Z" id="Fill-55" fill="#D0202E"></path>
                <path d="M121.208179,153.516872 C121.208179,153.516872 124.144259,157.939286 124.144259,166.406034 L124.133161,210.289039 C124.133161,212.112931 122.648474,213.59569 120.820977,213.59569 C118.98978,213.59569 117.532222,212.112931 117.532222,210.289039 L117.532222,153.516872 L97.9526025,153.516872 C97.9526025,153.516872 100.889915,157.939286 100.889915,166.406034 L100.889915,218.60431 L110.08659,226.526724 L131.61332,226.526724 L140.808762,218.60431 L140.808762,153.516872 L121.208179,153.516872 Z" id="Fill-57" fill="#D0202E"></path>
                <path d="M51.908435,188.206527 L51.908435,161.439286 L61.1075761,153.516872 L83.0806988,153.516872 L92.2786067,161.439286 L92.2786067,166.096921 C92.2786067,172.822291 94.4760423,177.460222 94.4760423,177.460222 L75.6289012,177.460222 L75.6412325,169.957759 C75.6412325,168.016872 74.0640607,166.440517 72.1132509,166.440517 C70.1673736,166.440517 68.5865025,168.016872 68.5865025,169.957759 L68.5865025,182.621552 L83.772484,182.621552 L92.9518951,190.780419 L92.9518951,218.60431 L83.7564534,226.526724 L61.7808644,226.526724 L52.5866558,218.60431 L52.5866558,213.094458 C52.5866558,206.052586 50.3805883,201.511946 50.3805883,201.511946 L69.2166313,201.511946 L69.2166313,210.059975 C69.2166313,212.011946 70.7765393,213.593227 72.7285822,213.593227 C74.6830914,213.593227 76.267662,212.011946 76.267662,210.059975 L76.267662,196.362931 L61.0890791,196.362931 L51.908435,188.206527 Z" id="Fill-59" fill="#D0202E"></path>
                <path d="M20.3059325,169.967611 C20.3059325,168.020567 21.8868037,166.439286 23.8363804,166.439286 C25.7859571,166.439286 27.3680613,168.020567 27.3680613,169.967611 L27.2866748,172.431897 C26.8168528,178.738547 25.134865,182.116626 25.134865,182.116626 L44.4481288,182.116626 L44.4481288,161.439286 L35.2489877,153.516872 L12.3744479,153.516872 L3.17777301,161.439286 L3.17777301,179.492241 C3.17777301,186.332143 0,190.019335 0,190.019335 C0,190.019335 3.17777301,193.700369 3.17777301,200.542734 L3.17777301,218.60431 L12.3744479,226.526724 L35.9235092,226.526724 L45.1214172,218.60431 L45.1214172,196.253325 L27.3557301,196.253325 L27.3655951,210.066133 C27.3655951,212.01564 25.7834908,213.59569 23.8314479,213.59569 C21.880638,213.59569 20.2985337,212.01564 20.2985337,210.066133 L20.3059325,169.967611 Z" id="Fill-61" fill="#D0202E"></path>
                <path d="M62.9825485,223.299015 L82.5560025,223.299015 L89.7241804,217.126601 L89.7241804,192.230049 L82.542438,185.848276 L65.3686528,185.848276 L65.3550883,169.973892 C65.3550883,166.246059 68.3922847,163.216502 72.1237325,163.216502 C75.8502479,163.216502 78.8788123,166.246059 78.8788123,169.973892 L78.8701804,174.239901 L89.9917693,174.239901 C89.5552417,172.36798 89.050892,169.342118 89.050892,165.322414 L89.050892,162.917241 L81.881481,156.744828 L62.3067939,156.744828 L55.1373828,162.917241 L55.1373828,186.757143 L62.3191252,193.137685 L79.4953767,193.137685 L79.5114074,210.060099 C79.5114074,213.789163 76.4828429,216.821182 72.7563276,216.821182 C69.0224135,216.821182 65.9876834,213.789163 65.9876834,210.062562 L65.9876834,204.730049 L54.871027,204.730049 C55.311254,206.604433 55.8143706,209.626601 55.8143706,213.646305 L55.8143706,217.126601 L62.9825485,223.299015 Z" id="Fill-63" fill="#000000"></path>
                <path d="M13.5755153,223.299015 L34.7224417,223.299015 L41.8893865,217.126601 L41.8893865,199.481281 L30.5865276,199.481281 L30.5914601,210.060099 C30.5914601,213.789163 27.5579632,216.821182 23.8277485,216.821182 C20.1012331,216.821182 17.0677362,213.789163 17.0677362,210.062562 L17.0677362,169.973892 C17.0677362,166.246059 20.1036994,163.216502 23.8363804,163.216502 C27.5604294,163.216502 30.5914601,166.246059 30.5914601,169.973892 L30.5581656,171.585961 C30.4484172,174.808867 30.0205215,177.278079 29.6407178,178.888916 L41.2185644,178.888916 L41.2185644,162.917241 L34.0503865,156.744828 L13.5755153,156.744828 L6.40733742,162.917241 L6.40733742,179.492365 C6.40733742,184.774384 4.79687117,188.398768 3.89298773,190.02069 C4.79687117,191.641379 6.40733742,195.265764 6.40733742,200.550246 L6.40733742,217.126601 L13.5755153,223.299015 Z" id="Fill-65" fill="#000000"></path>
                <path d="M111.287658,223.299015 L130.41102,223.299015 L137.576731,217.126601 L137.576731,156.744828 L126.134529,156.744828 C126.709167,158.647537 127.35286,161.670936 127.35286,165.656158 L127.367658,210.289163 C127.367658,213.892611 124.435277,216.821182 120.833308,216.821182 C117.222707,216.821182 114.289093,213.892611 114.289093,210.289163 L114.300191,156.744828 L102.903615,156.744828 C103.478253,158.647537 104.120713,161.670936 104.120713,165.656158 L104.120713,217.126601 L111.287658,223.299015 Z" id="Fill-67" fill="#000000"></path>
                <path d="M161.90735,177.252094 L176.387982,216.944212 C178.458405,222.853079 182.459908,223.307512 183.636313,223.307512 C183.702902,223.307512 183.749761,223.306281 183.765791,223.306281 L183.89527,223.298892 L188.720503,223.298892 L188.720503,200.550123 C188.720503,195.26564 190.333436,191.641256 191.238552,190.020567 C190.333436,188.398645 188.720503,184.776724 188.720503,179.492241 L188.720503,156.744704 L178.225344,156.744704 C178.799982,158.648645 179.443675,161.672044 179.443675,165.656034 L179.443675,199.76564 L163.739779,156.744704 L151.409724,156.744704 C151.986828,158.648645 152.629288,161.672044 152.629288,165.656034 L152.629288,223.298892 L163.126914,223.298892 C162.551043,221.396182 161.90735,218.37032 161.90735,214.383867 L161.90735,177.252094 Z" id="Fill-69" fill="#000000"></path>
                <g id="Group-73" transform="translate(191.134969, 231.266010)">
                    <mask id="mask-2" fill="white">
                        <use xlink:href="#path-1"></use>
                    </mask>
                    <g id="Clip-72"></g>
                    <path d="M9.14278712,4.27918719 L8.24506933,4.27918719 L8.24506933,1.39125616 L8.22903865,1.39125616 L7.19444356,4.27918719 L6.64693436,4.27918719 L5.61233926,1.39125616 L5.59384233,1.39125616 L5.59384233,4.27918719 L4.69612454,4.27918719 L4.69612454,0.495935961 L6.1401184,0.495935961 L6.9095908,2.68189655 L6.92932086,2.68189655 L7.69756012,0.495935961 L9.14278712,0.495935961 L9.14278712,4.27918719 Z M4.33975031,1.39125616 L3.31378712,1.39125616 L3.31378712,4.27918719 L2.21753558,4.27918719 L2.21753558,1.39125616 L1.20020429,1.39125616 L1.20020429,0.495935961 L4.33975031,0.495935961 L4.33975031,1.39125616 Z" id="Fill-71" fill="#C3C5C8" mask="url(#mask-2)"></path>
                </g>
            </g>
        </g>
    </g>
</svg>