<?xml version="1.0" encoding="UTF-8" standalone="no"?>
<svg width="250px" height="250px" viewBox="0 0 250 250" version="1.1" xmlns="http://www.w3.org/2000/svg" xmlns:xlink="http://www.w3.org/1999/xlink">
    <!-- Generator: Sketch 47.1 (45422) - http://www.bohemiancoding.com/sketch -->
    <title>MNTNA </title>
    <desc>Created with Sketch.</desc>
    <defs></defs>
    <g id="Page-1" stroke="none" stroke-width="1" fill="none" fill-rule="evenodd">
        <g id="MNTNA-" fill-rule="nonzero" fill="#5E001D">
            <g id="Group" transform="translate(0.000000, 34.000000)">
                <path d="M82.3697728,0.562491535 C82.3697728,0.562491535 60.6236873,1.17859897 29.44332,39.6929537 C-1.73892935,78.2107103 -11.1750932,119.590892 18.7763522,131.470991 C48.7277975,143.354848 86.0621848,99.512567 90.5732507,76.9777812 C90.5732507,76.9777812 90.7802667,73.6999942 95.0899625,73.6999942 L98.8840005,73.3917619 C98.8840005,73.3917619 101.138592,73.9048558 102.062636,70.9353011 C102.984798,67.9657463 109.654476,54.647857 109.654476,54.647857 C109.654476,54.647857 110.066626,52.7026107 105.963946,53.4186869 C105.963946,53.4186869 62.8820432,61.2053106 51.1875235,71.2435334 C39.4948858,81.2798767 48.3194115,88.2470536 52.4202095,86.6062806 L58.7774814,83.5333553 C58.7774814,83.5333553 64.5212333,81.6914795 60.8288213,87.8373302 C60.8288213,87.8373302 50.3651056,110.576978 30.9451267,113.584122 C30.9451267,113.584122 20.5529255,114.131046 21.6463462,97.875553 C21.6463462,97.875553 27.393862,61.8217751 66.3693212,29.4517487 C66.3693212,29.4517487 92.6264726,8.55585636 81.9613868,44.2017903 C81.9613868,44.2017903 80.9319529,47.2747157 92.2162046,47.2747157 C103.498574,47.2747157 104.934512,42.769638 105.346662,39.6929537 C105.755048,36.6200284 110.88528,0.562491535 82.3697728,0.562491535 Z M195.216054,13.8031348 C193.503468,13.7260767 191.659144,13.8409121 189.77718,14.1739533 C182.198514,15.5083734 176.629785,19.8251287 177.335521,23.8171125 C178.043139,27.8090962 184.752338,29.9667221 192.33665,28.6304225 C199.902143,27.2978818 205.472754,22.9769916 204.757608,18.9868873 C204.230658,15.9927116 200.334994,14.034309 195.216054,13.8031348 Z M140.441513,25.5612561 C139.986078,25.5612561 139.49865,25.5838096 138.986756,25.6270373 C122.576036,26.9915289 122.848921,49.9379176 122.848921,49.9379176 L90.8498993,111.943349 C91.8059367,113.993845 94.403046,111.806148 94.403046,111.806148 L105.753166,108.528361 C109.855846,107.30107 109.037192,105.93282 109.037192,105.93282 C110.811884,97.6030306 129.554356,64.5488789 129.554356,64.5488789 C129.554356,64.5488789 134.750456,54.7173972 140.085822,56.0800094 C145.417424,57.4482599 134.748574,69.7399613 134.748574,69.7399613 C129.142206,75.0644858 123.396572,88.8597592 123.396572,88.8597592 C120.526578,97.875553 123.599824,106.068141 132.627602,106.887588 C141.653498,107.708914 146.783729,98.897982 149.042085,95.6183155 C151.298559,92.3442874 151.910197,95.4172127 151.910197,95.4172127 C151.910197,95.4172127 152.322347,102.587372 160.320691,104.429248 C168.322799,106.273003 180.632721,97.2590885 185.557819,94.1861631 C190.473507,91.1132378 198.283654,88.8597592 198.283654,88.8597592 C210.77989,87.8354507 208.333338,93.3685958 208.333338,93.3685958 C185.352685,99.1028437 148.833187,148.070426 178.786515,149.914181 C208.72855,151.757936 224.330026,100.536875 224.330026,100.536875 C231.914338,99.512567 234.793742,104.634109 234.793742,104.634109 C234.793742,104.634109 237.673145,113.856644 232.535386,116.92769 C227.416446,120.000615 222.278686,115.69852 222.278686,115.69852 C218.176006,128.602927 208.465075,138.714449 208.465075,138.714449 C224.875795,141.443432 235.546527,132.70204 235.546527,132.70204 C257.979529,120.957263 246.480733,99.3077053 246.480733,99.3077053 C243.0932,88.656777 228.846738,86.9145129 228.846738,86.9145129 C222.485702,86.7115306 222.5798,83.9449581 222.5798,83.9449581 C221.149508,81.0768944 218.797054,80.1540771 216.218764,79.4380009 C213.659294,78.7219248 208.72855,79.9510949 208.72855,79.9510949 C205.453934,79.7462332 208.841468,77.2860135 208.841468,77.2860135 L225.13927,62.1262484 C234.37971,53.1142136 230.898078,47.9889124 230.898078,47.9889124 C228.432706,41.1251061 219.5122,43.0741113 219.5122,43.0741113 C214.280342,42.9707407 204.62587,46.7597423 204.62587,46.7597423 C201.972302,47.4758184 200.222076,50.9584672 200.222076,50.9584672 L193.145894,64.0714948 C190.887539,67.7608846 193.559926,66.9414379 193.559926,66.9414379 C207.71229,54.647857 209.556614,57.7207824 209.556614,57.7207824 C217.140926,62.4344807 209.349598,66.1201116 204.230658,72.470824 C199.092898,78.8215364 179.194901,87.2227451 179.194901,87.2227451 C165.449041,94.3929043 168.527933,83.9449581 168.527933,83.9449581 C177.352459,65.0958032 192.129634,43.6868169 192.129634,43.6868169 C193.973958,40.9221238 191.30157,41.3299678 191.30157,41.3299678 L175.400863,43.1774819 C172.530869,43.278973 172.423597,44.2995225 172.423597,44.2995225 L170.993305,47.0679745 C161.760393,65.7103883 148.153799,86.2698564 148.153799,86.2698564 C143.228701,92.5491491 138.305485,92.0059837 138.57837,86.5404993 C138.853136,81.0768944 156.630161,57.4501394 156.630161,57.4501394 C166.478475,39.2851098 144.18662,45.8388044 144.18662,45.8388044 C141.999779,46.3857287 141.999779,44.7449557 141.999779,44.7449557 C141.999779,44.7449557 154.576939,25.5199078 140.441513,25.5612561 L140.441513,25.5612561 Z M210.309399,103.825939 C211.024546,103.959381 211.344479,104.688614 210.572874,106.686485 C210.572874,106.686485 197.869622,133.728228 190.887539,137.413859 C190.887539,137.413859 183.297581,144.587777 180.425705,136.39143 C180.425705,136.39143 179.196783,129.424253 188.440986,120.61708 C197.662606,111.806148 206.884226,105.045712 206.884226,105.045712 C206.884226,105.045712 209.142582,103.606042 210.309399,103.825939 L210.309399,103.825939 Z M177.279062,109.486888 C79.9062829,114.401689 1.6805979,161.927722 1.6805979,161.927722 C1.67995803,161.927722 26.776578,161.79428 40.3154217,162.001021 C53.8542655,162.205882 69.0360631,165.686652 78.2670929,168.347974 C87.4981227,171.013056 95.0861986,181.461002 95.0861986,181.461002 C121.753618,154.421138 164.15425,141.717834 164.15425,141.717834 C163.062712,128.604806 177.279062,109.486888 177.279062,109.486888 Z M203.816626,112.00913 C203.157939,111.885085 201.897024,112.695135 201.897024,112.695135 C201.897024,112.695135 197.719065,117.707668 192.524847,122.661938 C187.018222,127.922561 184.940535,134.955519 184.940535,134.955519 C186.555259,139.563967 192.901239,130.903392 192.901239,130.903392 C196.232314,126.558069 203.967183,113.616073 203.967183,113.616073 C204.400035,112.494032 204.211838,112.084309 203.816626,112.00913 L203.816626,112.00913 Z" id="Shape" transform="translate(125.000872, 91.011747) rotate(-360.000000) translate(-125.000872, -91.011747) "></path>
            </g>
        </g>
    </g>
</svg>