<?xml version="1.0" encoding="UTF-8" standalone="no"?>
<svg width="250px" height="250px" viewBox="0 0 250 250" version="1.1" xmlns="http://www.w3.org/2000/svg" xmlns:xlink="http://www.w3.org/1999/xlink">
    <!-- Generator: Sketch 47.1 (45422) - http://www.bohemiancoding.com/sketch -->
    <title>WEBER</title>
    <desc>Created with Sketch.</desc>
    <defs></defs>
    <g id="Page-1" stroke="none" stroke-width="1" fill="none" fill-rule="evenodd">
        <g id="WEBER" fill-rule="nonzero">
            <g id="weber" transform="translate(0.000000, 29.000000)">
                <path d="M206.775362,28.2384906 C206.775362,28.0935849 207.735507,25.4128302 207.735507,25.4128302 C207.735507,25.4128302 208.532609,21.3916981 208.532609,21.3916981 C206.208921,23.5327115 203.614313,25.3596248 200.815217,26.8256604 C195.1187,29.5158905 188.846608,30.7601653 182.554348,30.4483019 C176.311532,29.7579528 170.024618,29.5520541 163.75,29.8324528 L163.405797,29.5607547 C161.358696,27.9849057 158.17029,27.84 155.235507,26.8618868 L158.568841,23.909434 L149.51087,23.1849057 C141.612319,22.5509434 137.934783,23.1849057 131.82971,25.6664151 C125.380435,23.2573585 113.605072,20.7577358 106.702899,22.5509434 L98.6050725,24.6158491 L101.449275,26.4271698 C98.4782609,27.3328302 97.4818841,28.5101887 93.7862319,30.1403774 L90.8152174,31.4626415 C86.2178219,30.9888834 81.5916812,30.8556901 76.9746377,31.0641509 C71.2821681,27.8962542 65.3453574,25.1887503 59.2210145,22.9675472 C53.7862319,21.1562264 53.1521739,18.0226415 51.5217391,16.2113208 L47.0652174,10.469434 C47.0652174,10.469434 47.6811594,20.4498113 47.6449275,21.9532075 C47.5362319,26.1192453 48.9855072,34.4513208 59.0217391,44.3230189 L59.0217391,44.3230189 L63.4963768,50.4633962 C65.7642416,53.4044627 68.4854148,55.9662592 71.557971,58.0528302 C68.2065217,60.2264151 61.884058,59.7011321 59.3115942,59.8641509 L50.1449275,60.3350943 L56.8478261,66.3486792 C59.1985531,68.4604261 61.8788501,70.1735993 64.7826087,71.4203774 C64.43625,75.3882842 63.4831352,79.2795821 61.9565217,82.9584906 C61.1231884,84.7698113 54.3115942,95.6377358 54.3115942,95.6377358 C54.3115942,95.6377358 63.3695652,92.7215094 64.7282609,92.4498113 C54.4565217,107.827925 75.5978261,141.808302 75.5978261,141.808302 L79.4202899,134.4 C79.4202899,134.4 79.8731884,133.548679 79.9094203,133.458113 C80.2305138,136.610741 80.7264462,139.74311 81.3949275,142.840755 L83.7681159,153.708679 L88.3514493,143.438491 C89.5845245,140.626203 91.0956593,137.944192 92.8623188,135.432453 C92.8623188,136.138868 95.0905797,151.335849 95.0905797,151.335849 L101.702899,139.924528 C104.836957,134.925283 111.286232,130.650566 114.202899,128.676226 C115.036232,130.650566 132.626812,138.040755 146.811594,127.788679 C148.894928,130.415094 154.23913,133.729811 155.561594,136.845283 L160.688406,149.162264 L164.673913,134.218868 L171.123188,149.270943 C171.123188,149.270943 179.492754,129.183396 181.630435,115.725283 C182.572464,117.536604 186.286232,129.400755 186.286232,129.400755 C187.97925,123.811289 189.054509,118.053142 189.492754,112.229434 C189.721844,108.73644 189.177512,105.23592 187.898551,101.977358 C188.478261,102.883019 193.333333,109.313208 193.333333,109.313208 C193.333333,109.313208 192.59058,89.5516981 188.876812,80.7849057 C187.019595,77.1537707 184.913107,73.655591 182.572464,70.3154717 C184.311335,69.6778685 185.651877,68.2638096 186.195652,66.4935849 C187.13083,64.4751829 188.412257,62.6360921 189.981884,61.0596226 L183.623188,60.4618868 C181.663852,60.282448 179.763485,59.6963843 178.043478,58.7411321 C181.286375,58.4471362 184.40227,57.338045 187.101449,55.5169811 C190.597826,51.5139623 198.695652,47.7645283 207.028986,28.0754717" id="Shape" fill="#231F20"></path>
                <path d="M82.5543478,164.323019 L78.0978261,144 L75.7065217,148.600755 L72.6268116,143.637736 C68.9068392,137.452759 65.719051,130.963014 63.0978261,124.238491 C58.9855072,113.479245 57.6630435,104.603774 59.0398551,97.7569811 L55.2355072,98.970566 L46.7028986,101.70566 L51.3949275,93.989434 C53.9855072,89.7871698 58.2971014,82.6867925 58.8586957,81.5275472 C59.9335045,78.9612411 60.6879804,76.2723055 61.1050725,73.5215094 C58.7617799,72.2252847 56.563368,70.6829854 54.5471014,68.9207547 L41.865942,57.509434 L59.0398551,56.6581132 C60.2355072,56.6581132 62.1014493,56.6581132 64.2753623,56.6581132 C62.9519305,55.4266633 61.739519,54.0810897 60.6521739,52.6369811 L56.1050725,46.4060377 C45.5978261,35.610566 44.1485507,26.4271698 44.3297101,21.9169811 C44.3297101,20.9932075 44.0036232,14.8166038 43.7681159,10.7230189 L43.0978261,-5.68434189e-14 L54.076087,14.1464151 C54.5579708,14.7191202 54.9998373,15.3243255 55.3985507,15.9577358 C56.4469014,17.8614863 58.2048795,19.2741665 60.2898551,19.8883019 C66.3106427,22.0769218 72.1601374,24.7106134 77.7898551,27.7675472 C81.9539496,27.6211137 86.1231514,27.7421172 90.2717391,28.1298113 L92.4456522,27.1698113 C93.3514493,26.7713208 94.076087,26.3909434 94.7101449,26.0467925 L90.5072464,23.3116981 L105.942029,19.3086792 C113.496377,17.3524528 125.072464,19.7615094 131.82971,22.08 C137.880435,19.6890566 142.01087,19.2181132 149.855072,19.8520755 L166.576087,21.1924528 L162.065217,25.1954717 C162.989251,25.4776286 163.87236,25.8795348 164.692029,26.3909434 C170.740009,26.23833 176.791505,26.4803533 182.807971,27.1154717 C188.467632,27.3665914 194.104298,26.2481275 199.23913,23.8550943 C201.756604,22.5256026 204.099378,20.8889507 206.213768,18.9826415 L213.985507,11.429434 L211.775362,22.0437736 C211.775362,22.0437736 211.195652,24.7607547 211.032609,25.6664151 L211.032609,25.9924528 L210.833333,26.5358491 C210.833333,26.5358491 210.307971,27.9667925 210.072464,28.7275472 L210.072464,28.890566 L209.800725,29.5064151 C203.025362,45.6996226 196.086957,51.8218868 191.938406,55.4626415 C190.905797,56.3864151 190.018116,57.165283 189.402174,57.8535849 L189.402174,57.8535849 L197.318841,58.6143396 L192.028986,63.6135849 C190.775353,64.8933449 189.746446,66.3752377 188.985507,67.9969811 C188.464352,69.226432 187.748678,70.3639989 186.865942,71.3660377 L187.083333,71.6920755 C188.868938,74.169572 190.409971,76.8144102 191.684783,79.589434 C195.615942,88.845283 196.394928,108.570566 196.413043,109.331321 L196.811594,119.981887 L192.536232,114.24 C191.976177,119.764691 190.890342,125.223374 189.293478,130.541887 L186.141304,140.721509 L182.971014,130.56 C182.681159,129.65434 182.391304,128.748679 182.083333,127.788679 C179.788561,135.558829 177.097849,143.206553 174.021739,150.701887 L170.996377,157.94717 L167.916667,150.701887 L165.235507,144.45283 L161.195652,159.595472 L152.336957,138.24 C151.140545,136.484585 149.658722,134.941763 147.952899,133.675472 L146.141304,132.117736 C135.452899,138.439245 124.221014,136.37434 119.655797,135.106415 C117.647568,134.572004 115.708238,133.806115 113.876812,132.824151 C110.176774,135.193383 106.936142,138.212607 104.311594,141.735849 L93.0615942,161.28 L91.6847826,151.861132 C91.3405797,149.524528 91.0507246,147.532075 90.7971014,145.829434 L82.5543478,164.323019 Z M82.5543478,120.199245 L83.1521739,133.403774 C83.4787206,136.38457 83.9563884,139.346873 84.5833333,142.279245 L84.8007246,143.203019 L85.2717391,142.13434 C86.5879576,139.145595 88.1959937,136.294037 90.0724638,133.621132 L96.1231884,124.727547 L96.1231884,135.486792 C96.1231884,135.885283 96.5036232,138.384906 96.9565217,141.464151 L98.7681159,138.312453 C102.228261,132.878491 108.804348,128.332075 111.974638,126.176604 L115.597826,123.713208 L116.938406,126.883019 C119.547101,128.69434 133.460145,133.367547 144.800725,125.162264 L147.373188,123.350943 L149.32971,125.832453 C150.27403,126.858372 151.291164,127.814818 152.373188,128.69434 C154.936147,130.548611 157.047736,132.957069 158.550725,135.740377 L159.927536,139.036981 L162.246377,130.324528 L165.452899,131.175849 C167.01087,131.610566 167.01087,131.610566 170.887681,140.61283 L170.887681,140.61283 C174.082303,132.391829 176.549489,123.906475 178.26087,115.25434 L179.836957,105.310189 L184.474638,114.24 C184.906326,115.1581 185.281423,116.10175 185.597826,117.06566 C185.85584,115.44029 186.019159,113.8013 186.086957,112.156981 C186.314484,109.073025 185.843886,105.977452 184.710145,103.100377 L174.003623,73.9381132 L188.931159,97.485283 C188.495467,92.2129993 187.399956,87.0161942 185.67029,82.0166038 C184.561711,79.6304294 183.227116,77.3558945 181.684783,75.2241509 C180.905797,74.0649057 180.163043,72.9781132 179.547101,71.909434 L178.405797,69.8988679 L179.873188,68.0875472 C180.326473,67.5553203 180.914682,67.1548979 181.576087,66.9283019 C181.793478,66.8377358 182.300725,66.6384906 183.007246,65.1169811 C183.224638,64.6460377 183.442029,64.1932075 183.677536,63.7584906 L183.278986,63.7584906 C181.422891,63.6891878 179.604681,63.2130618 177.952899,62.3637736 L176.630435,61.8022642 L160.543478,55.2815094 L177.898551,55.4264151 L177.898551,55.4264151 C180.343825,55.1702876 182.692055,54.3317608 184.746377,52.9811321 C185.642042,52.0513602 186.585338,51.1686649 187.572464,50.3366038 C191.286232,47.0581132 196.775362,42.24 202.536232,29.4883019 L202.391304,29.5788679 C196.135368,32.5814943 189.232946,33.9879073 182.300725,33.6724528 C176.285843,33.016593 170.230807,32.8046988 164.184783,33.0384906 L162.862319,33.1833962 L161.394928,32.0422642 C160.213222,31.4131663 158.932736,30.9904857 157.608696,30.7924528 C156.48297,30.5618643 155.370291,30.271644 154.275362,29.9230189 L148.84058,28.1116981 L150.652174,26.4815094 L149.42029,26.3728302 C142.173913,25.7932075 138.967391,26.2279245 133.278986,28.6188679 L132.065217,29.1260377 L130.833333,28.6550943 C124.003623,26.1011321 113.206522,24.2173585 107.699275,25.6483019 L106.775362,25.8837736 L109.311594,27.5320755 L102.5,29.5969811 C101.332157,29.9693676 100.213087,30.4801701 99.1666667,31.1184906 C97.8900664,31.8749744 96.5715172,32.5583393 95.2173913,33.165283 L91.4311594,34.8316981 L90.5434783,34.7411321 C86.1214242,34.2726964 81.6698511,34.1455278 77.2282609,34.3607547 L76.2681159,34.3607547 L75.4166667,33.8716981 C69.8666459,30.8106691 64.0886185,28.1824874 58.134058,26.010566 C55.3108921,25.1296046 52.8300212,23.3957882 51.0326087,21.0475472 C51.0326087,21.4641509 51.0326087,21.7901887 51.0326087,21.989434 C51.0326087,24.8332075 51.8115942,32.4769811 61.4130435,41.9139623 L67.192029,47.5833962 L65.5253623,47.5833962 L66.1594203,48.4709434 C68.191265,51.122544 70.6382555,53.4284844 73.4057971,55.2996226 L77.4275362,58.125283 L73.2608696,60.8422642 C69.7463768,63.1426415 64.5289855,63.1426415 61.0688406,63.1426415 L59.365942,63.1426415 L58.2427536,63.1426415 L58.9673913,63.794717 C60.9822358,65.6017092 63.2685805,67.0808854 65.7427536,68.1781132 L68.2065217,69.0113208 L67.9891304,71.7101887 C67.6176636,76.0750683 66.5599828,80.3540556 64.8550725,84.389434 C64.4746377,85.2045283 63.0434783,87.4867925 61.6485507,89.9501887 C62.7173913,89.6241509 63.5869565,89.3886792 63.9673913,89.2981132 L71.884058,87.6679245 L67.3913043,94.3879245 C61.0869565,103.806792 69.2028986,123.658868 75.307971,134.961509 L76.3405797,132.969057 L76.3405797,132.969057 L76.7572464,132.153962 L82.5543478,120.199245 Z" id="Shape" fill="#D1D3D4"></path>
                <path d="M80.5072464,140.703396 L0,140.703396 L8.0615942,146.898113 L12.0833333,149.995472 L15.4528986,152.58566 L20.0543478,169.141132 L23.5326087,181.657358 L24.692029,185.805283 C25.2898551,187.924528 26.1956522,191.148679 30.1268116,191.148679 L30.5434783,191.148679 L30.7971014,191.148679 L30.942029,191.148679 L30.942029,191.148679 C63.2101707,185.865433 95.8528098,183.200141 128.550725,183.178868 C132.336957,183.178868 134.782609,183.178868 135.48913,183.178868 C136.195652,183.178868 141.086957,183.504906 143.369565,183.523019 C170.543991,183.639702 197.667702,185.880492 224.492754,190.224906 C225.890304,190.51814 227.306906,190.711834 228.731884,190.804528 C229.491498,190.803126 230.243087,190.649135 230.942029,190.351698 L230.942029,190.351698 L231.177536,190.261132 L231.413043,190.116226 L231.503623,190.116226 C233.623188,188.830189 233.713768,186.602264 233.822464,184.26566 C233.822464,183.41434 233.822464,182.363774 234.021739,181.059623 C234.23913,178.415094 234.528986,174.66566 234.818841,170.680755 C235.326087,163.978868 235.960145,155.846038 236.304348,152.440755 L239.184783,149.796226 L242.391304,146.807547 L248.84058,140.812075 L80.3623188,140.812075 L80.5072464,140.703396 Z" id="Shape" fill="#C9CACC"></path>
                <path d="M235.778986,144.163019 L146.793478,144.163019 C139.746377,144.163019 134.456522,148.437736 133.550725,154.56 C132.879589,150.183844 129.827292,146.545385 125.634058,145.123019 C123.569965,144.45254 121.40914,144.12816 119.23913,144.163019 L10.1630435,144.163019 L14.1847826,147.260377 L18.4782609,150.538868 L23.3876812,168.217358 L26.865942,180.733585 L28.0253623,184.863396 C28.6050725,186.982642 28.8224638,187.689057 30.1268116,187.689057 L30.4347826,187.689057 C62.8949471,182.376729 95.7310796,179.693295 128.623188,179.664906 C133.115942,179.664906 135.67029,179.664906 135.706522,179.664906 C135.742754,179.664906 141.141304,179.990943 143.478261,180.02717 C170.828693,180.137393 198.128436,182.390327 225.126812,186.765283 C226.324011,187.006573 227.533562,187.181932 228.75,187.290566 C229.024626,187.297356 229.2972,187.241611 229.547101,187.127547 L229.655797,187.127547 L229.655797,187.127547 C230.507246,186.620377 230.199275,185.098868 230.561594,180.733585 C231.231884,172.618868 232.518116,154.089057 233.007246,150.72 L236.811594,147.206038 L240.036232,144.217358 L235.778986,144.163019 Z" id="Shape" fill="#4B2682"></path>
                <path d="M48.2789855,179.049057 L47.192029,179.212075 C42.0471014,165.663396 40.4710145,163.399245 39.9456522,161.769057 L39.9456522,161.769057 C37.531826,168.142531 35.5526561,174.672201 34.0217391,181.313208 L32.7717391,181.548679 L27.3369565,158.979623 C24.9094203,150.901132 24.6557971,149.923019 23.5688406,149.687547 L23.5688406,149.216604 L27.192029,149.216604 L31.3224638,149.216604 L31.3224638,149.687547 C29.7644928,149.850566 30.0543478,150.937358 31.5942029,156.316981 C32.7355072,160.32 33.1702899,162.022642 33.5869565,163.689057 L33.5869565,163.689057 C34.2210145,162.022642 34.8188406,160.609811 36.6123188,156.552453 C37.6992754,154.215849 38.9673913,151.698113 39.9637681,149.651321 L40.5253623,149.651321 C41.5036232,151.661887 42.6992754,154.05283 43.8949275,156.516226 C45.5615942,160.410566 46.1956522,161.950189 46.8297101,163.526038 L46.9384058,163.526038 C47.2826087,161.877736 47.6992754,160.32 48.75,156.443774 C50.2898551,150.901132 50.5615942,149.850566 49.0398551,149.687547 L49.0398551,149.216604 C50.0905797,149.216604 51.3405797,149.216604 52.8623188,149.216604 C54.384058,149.216604 55.2898551,149.216604 56.2137681,149.216604 L56.2137681,149.687547 C55.2355072,149.886792 55.4347826,150.955472 53.0434783,158.997736 L48.2789855,179.049057 Z" id="Shape" fill="#FFFFFF"></path>
                <path d="M58.6413043,159.233208 C58.6413043,150.937358 58.6413043,149.81434 57.3731884,149.687547 L57.3731884,149.216604 L64.1666667,149.216604 C66.884058,149.216604 69.7463768,149.216604 71.7572464,149.216604 C71.7572464,150.77434 71.7572464,152.368302 71.6304348,154.650566 L71.1413043,154.650566 C70.9601449,153.455094 69.8188406,153.110943 67.6449275,153.110943 L63.3514493,153.110943 L63.3514493,159.559245 L66.9746377,159.559245 C69.2391304,159.559245 69.8550725,159.559245 70.1086957,158.798491 L70.5615942,158.798491 C70.5615942,159.758491 70.5615942,160.609811 70.5615942,161.406792 C70.5615942,162.203774 70.5615942,163.218113 70.5615942,164.323019 L70.1086957,164.323019 C69.9094203,163.544151 69.2391304,163.417358 67.0471014,163.417358 L63.423913,163.417358 L63.423913,171.33283 C63.423913,172.003019 63.423913,172.166038 64.057971,172.238491 C65.6758721,172.224287 67.2913181,172.109348 68.8949275,171.89434 C70.7065217,171.676981 71.3768116,171.187925 71.6123188,170.083019 L72.0833333,170.083019 C72.0833333,172.383396 72.0833333,174.937358 72.0833333,176.531321 C69.5289855,176.730566 67.5543478,176.911698 64.9456522,177.165283 C60.6521739,177.6 59.3115942,177.726792 57.3007246,177.871698 L57.3007246,177.400755 C58.6231884,177.273962 58.6231884,172.437736 58.6231884,163.507925 L58.6413043,159.233208 Z" id="Shape" fill="#FFFFFF"></path>
                <path d="M91.5398551,167.076226 C91.7371175,169.722469 90.7324522,172.316909 88.8043478,174.140377 C87.3369565,175.299623 85.1811594,175.571321 81.3949275,175.788679 C80.307971,175.788679 76.25,176.223396 75.1449275,176.223396 L75.1449275,175.752453 C76.5217391,175.752453 76.5217391,172.401509 76.5217391,163.489811 L76.5217391,159.233208 C76.5217391,150.937358 76.5217391,149.923019 75.2717391,149.796226 L75.2717391,149.270943 L78.2246377,149.270943 C79.1666667,149.270943 80.634058,149.162264 81.8478261,149.162264 C83.2818848,149.142819 84.7107718,149.338192 86.0869565,149.741887 C88.7378121,150.506492 90.5247662,152.980938 90.4166667,155.737358 C90.4680278,158.258197 88.805853,160.493969 86.3768116,161.171321 L86.3768116,161.171321 C89.2855009,161.632472 91.4323921,164.13169 91.4492754,167.076226 L91.5398551,167.076226 Z M85.8333333,156.208302 C85.8499143,155.308977 85.4769382,154.446373 84.8103362,153.842356 C84.1437342,153.238339 83.2485657,152.951861 82.3550725,153.056604 C81.8297101,153.056604 81.3043478,153.056604 80.9782609,153.14717 L80.9782609,159.541132 L81.865942,159.541132 C82.4818692,159.547871 83.0944604,159.449872 83.6775362,159.251321 C84.9843283,158.824828 85.8640032,157.600798 85.8514493,156.226415 L85.8333333,156.208302 Z M86.6485507,166.713962 C86.6425236,165.244112 85.669092,163.953772 84.2572464,163.544151 C83.5828917,163.365404 82.8895422,163.268107 82.192029,163.25434 C81.865942,163.25434 81.3224638,163.25434 80.9782609,163.25434 L80.9782609,170.37283 C80.9782609,170.843774 80.9782609,170.916226 81.2318841,171.006792 C81.660187,171.03429 82.089813,171.03429 82.5181159,171.006792 C83.3356946,171.020213 84.1441681,170.833671 84.8731884,170.463396 C85.7246377,170.028679 86.6847826,169.123019 86.6847826,166.605283 L86.6485507,166.713962 Z" id="Shape" fill="#FFFFFF"></path>
                <path d="M95.7065217,159.233208 C95.7065217,150.937358 95.7065217,149.81434 94.4384058,149.687547 L94.4384058,149.216604 L101.231884,149.216604 C103.931159,149.216604 106.811594,149.216604 108.822464,149.216604 C108.822464,150.77434 108.822464,152.368302 108.695652,154.650566 L108.206522,154.650566 C108.025362,153.455094 106.865942,153.110943 104.710145,153.110943 L100.48913,153.110943 L100.48913,159.559245 L104.112319,159.559245 C106.376812,159.559245 106.992754,159.559245 107.246377,158.798491 L107.681159,158.798491 C107.681159,159.758491 107.681159,160.609811 107.681159,161.406792 C107.681159,162.203774 107.681159,163.218113 107.681159,164.323019 L107.246377,164.323019 C107.047101,163.544151 106.376812,163.417358 104.184783,163.417358 L100.561594,163.417358 L100.561594,169.249811 C100.561594,169.938113 100.561594,170.083019 101.213768,170.155472 C102.789855,170.155472 104.583333,170.155472 106.050725,170.155472 C107.518116,170.155472 108.532609,169.901887 108.768116,168.815094 L109.23913,168.815094 C109.23913,171.115472 109.23913,172.890566 109.23913,174.484528 C107.047101,174.484528 104.202899,174.647547 101.847826,174.738113 C98.0797101,174.901132 95.5253623,174.937358 94.4384058,174.973585 L94.4384058,174.484528 C95.7789855,174.357736 95.7789855,172.437736 95.7789855,163.507925 L95.7065217,159.233208 Z" id="Shape" fill="#FFFFFF"></path>
                <path d="M113.65942,159.233208 C113.65942,150.937358 113.65942,149.81434 112.318841,149.76 L112.318841,149.270943 L115.615942,149.270943 C116.576087,149.270943 118.134058,149.270943 119.23913,149.270943 C120.828587,149.247346 122.411889,149.473498 123.931159,149.941132 C126.796892,150.929164 128.650183,153.70868 128.460145,156.733585 C128.503416,158.925679 127.526228,161.013602 125.815217,162.384906 C125.224276,162.871107 124.565053,163.267801 123.858696,163.562264 L123.858696,163.65283 C124.891304,164.993208 125.778986,166.243019 129.637681,171.459623 C130.561594,172.709434 131.449275,173.669434 132.192029,173.796226 L132.192029,174.249057 L126.938406,174.249057 C126.422551,174.301168 125.905798,174.159083 125.48913,173.850566 C123.550725,170.952453 121.485507,167.800755 119.275362,164.576604 L118.224638,164.576604 L118.224638,165.953208 C118.224638,172.582642 118.224638,173.70566 119.474638,173.832453 L119.474638,174.412075 C118.713768,174.412075 117.264493,174.520755 115.960145,174.520755 C114.655797,174.520755 113.152174,174.520755 112.336957,174.520755 L112.336957,174.031698 C113.65942,173.904906 113.677536,172.546415 113.677536,163.616604 L113.65942,159.233208 Z M123.586957,156.806038 C123.622416,155.767261 123.209918,154.763295 122.454352,154.049428 C121.698786,153.33556 120.672946,152.980568 119.637681,153.074717 C119.057971,153.074717 118.478261,153.074717 118.224638,153.165283 L118.224638,160.881509 C118.574646,160.899592 118.925354,160.899592 119.275362,160.881509 C120.165949,160.898754 121.041849,160.653035 121.793478,160.175094 C122.965011,159.464876 123.658685,158.174837 123.605072,156.806038 L123.586957,156.806038 Z" id="Shape" fill="#FFFFFF"></path>
                <path d="M151.775362,167.456604 C151.775362,171.441509 148.605072,174.466415 143.478261,174.466415 C141.744233,174.481917 140.022997,174.168453 138.405797,173.542642 C138.405797,171.912453 138.532609,170.445283 138.605072,167.927547 L139.076087,167.927547 C139.259942,168.667468 139.711801,169.312882 140.344203,169.738868 C141.214922,170.172977 142.179668,170.384567 143.152174,170.354717 C145.199275,170.354717 146.775362,169.322264 146.775362,167.474717 C146.689075,166.244618 146.01449,165.131719 144.963768,164.486038 L142.246377,162.348679 C140.100998,160.974169 138.793185,158.610927 138.768116,156.063396 C138.768116,152.241509 141.666667,149.053585 146.82971,149.053585 C148.1596,149.041888 149.484036,149.224963 150.76087,149.596981 C150.67029,151.408302 150.634058,152.947925 150.597826,155.121509 L150.126812,155.121509 C149.979272,154.486165 149.5892,153.933646 149.039855,153.581887 C148.435163,153.252328 147.753582,153.089774 147.065217,153.110943 C145.09058,153.110943 143.713768,154.179623 143.713768,155.846038 C143.727964,156.848766 144.210603,157.787089 145.018116,158.381887 C145.778986,159.088302 146.82971,159.86717 148.206522,160.935849 C150.40139,162.358709 151.75611,164.769748 151.82971,167.384151 L151.775362,167.456604 Z" id="Shape" fill="#FFFFFF"></path>
                <path d="M160.597826,153.09283 L156.304348,153.09283 C154.710145,153.09283 153.949275,153.509434 153.65942,154.759245 L153.17029,154.759245 C153.17029,152.658113 153.17029,150.77434 153.17029,149.216604 C155.778986,149.216604 158.75,149.216604 161.195652,149.216604 L164.818841,149.216604 C167.572464,149.216604 170.507246,149.216604 172.862319,149.216604 L172.862319,154.759245 L172.355072,154.759245 C172.065217,153.455094 171.322464,153.09283 169.764493,153.09283 L165.471014,153.09283 L165.471014,163.489811 C165.471014,172.455849 165.471014,174.357736 167.028986,174.357736 L167.028986,174.955472 C165.978261,174.955472 164.492754,174.846792 163.043478,174.792453 L159.221014,174.647547 L159.221014,174.158491 C160.688406,173.995472 160.67029,172.473962 160.67029,163.544151 L160.597826,153.09283 Z" id="Shape" fill="#FFFFFF"></path>
                <path d="M176.938406,169.086792 C175.561594,172.455849 174.945652,174.756226 176.213768,174.846792 L176.213768,175.353962 C175,175.353962 173.641304,175.209057 172.336957,175.17283 L168.931159,174.991698 L168.931159,174.466415 C169.90942,174.375849 170.742754,172.455849 174.547101,163.471698 L180.797101,148.836226 L181.557971,148.836226 L187.681159,163.489811 C191.413043,172.419623 192.626812,175.915472 193.623188,176.006038 L193.623188,176.621887 C192.880435,176.621887 191.594203,176.440755 190,176.313962 C188.405797,176.18717 187.119565,176.060377 185.851449,176.006038 L185.851449,175.498868 C187.101449,175.390189 186.141304,172.455849 184.836957,169.086792 L176.938406,169.086792 Z M183.442029,165.373585 L183.442029,165.373585 C181.630435,160.501132 181.213768,159.251321 180.978261,158.45434 L180.978261,158.45434 C180.76087,159.215094 180.271739,160.464906 178.387681,165.373585 L178.387681,165.373585 L183.442029,165.373585 Z" id="Shape" fill="#FFFFFF"></path>
                <path d="M196.865942,153.09283 L192.572464,153.09283 C190.960145,153.09283 190.199275,153.509434 189.90942,154.759245 L189.438406,154.759245 C189.438406,152.658113 189.438406,150.77434 189.438406,149.216604 C192.047101,149.216604 195.018116,149.216604 197.481884,149.216604 L201.105072,149.216604 C203.84058,149.216604 206.775362,149.216604 209.148551,149.216604 L209.148551,154.759245 L208.623188,154.759245 C208.333333,153.455094 207.608696,153.09283 206.050725,153.09283 L201.73913,153.09283 L201.73913,163.489811 C201.73913,172.455849 201.73913,177.002264 203.278986,177.038491 L203.278986,177.509434 L199.402174,177.14717 C197.862319,177.020377 196.630435,176.821132 195.48913,176.748679 L195.48913,176.277736 C196.956522,176.114717 196.956522,172.419623 196.956522,163.489811 L196.865942,153.09283 Z" id="Shape" fill="#FFFFFF"></path>
                <path d="M217.40942,149.216604 L210.615942,149.216604 L210.615942,149.596981 C211.884058,149.723774 211.884058,150.846792 211.884058,159.124528 L211.884058,163.399245 C211.884058,172.329057 211.884058,177.618113 210.543478,177.744906 L210.543478,178.233962 C211.702899,178.433208 214.547101,178.777358 217.952899,179.266415 C220.706522,179.664906 223.115942,179.954717 225.199275,180.353208 C225.199275,178.777358 225.362319,174.466415 225.416667,172.166038 L224.945652,172.166038 C224.710145,173.25283 223.786232,173.470189 222.228261,173.506415 C220.67029,173.542642 218.985507,173.506415 217.391304,173.506415 C216.811594,173.506415 216.757246,173.289057 216.757246,172.618868 L216.757246,163.308679 L220.380435,163.308679 C222.572464,163.308679 223.242754,163.435472 223.442029,164.196226 L223.894928,164.196226 C223.894928,163.14566 223.894928,162.24 223.894928,161.298113 C223.894928,160.356226 223.894928,159.649811 223.894928,158.671698 L223.496377,158.671698 C223.242754,159.378113 222.626812,159.450566 220.362319,159.450566 L216.73913,159.450566 L216.73913,153.002264 L220.923913,153.002264 C223.115942,153.002264 224.257246,153.328302 224.438406,154.541887 L224.927536,154.541887 C224.927536,152.277736 224.927536,150.683774 225.054348,149.107925 C223.043478,149.107925 220.181159,149.107925 217.463768,149.107925" id="Shape" fill="#FFFFFF"></path>
                <path d="M206.775362,28.2384906 C206.775362,28.0935849 207.735507,25.4128302 207.735507,25.4128302 C207.735507,25.4128302 208.532609,21.3916981 208.532609,21.3916981 C206.208921,23.5327115 203.614313,25.3596248 200.815217,26.8256604 C195.115663,29.5066706 188.845895,30.7504844 182.554348,30.4483019 C176.311532,29.7579528 170.024618,29.5520541 163.75,29.8324528 L163.405797,29.5607547 C161.358696,27.9849057 158.17029,27.84 155.235507,26.8618868 L158.568841,23.909434 L149.51087,23.1849057 C141.612319,22.5509434 137.934783,23.1849057 131.82971,25.6664151 C125.380435,23.2573585 113.605072,20.7577358 106.702899,22.5509434 L98.6050725,24.6158491 L101.449275,26.4271698 C98.4782609,27.314717 97.4818841,28.4920755 93.7862319,30.0498113 L90.8152174,31.3720755 C86.2178219,30.8983174 81.5916812,30.765124 76.9746377,30.9735849 C71.2821681,27.8056882 65.3453574,25.0981843 59.2210145,22.8769811 C53.7862319,21.0656604 53.1521739,17.9320755 51.5217391,16.1207547 L47.0652174,10.3788679 C47.0652174,10.3788679 47.6811594,20.3592453 47.6449275,21.8626415 C47.5362319,26.0286792 48.9855072,34.3607547 59.0217391,44.2324528 L59.0217391,44.2324528 L63.4963768,50.3728302 C65.7642416,53.3138966 68.4854148,55.8756932 71.557971,57.9622642 C68.2065217,60.1358491 61.884058,59.610566 59.3115942,59.7735849 L50.1449275,60.2445283 L56.8478261,66.2581132 C59.201293,68.3662566 61.880971,70.0790342 64.7826087,71.3298113 C64.43625,75.2977181 63.4831352,79.1890161 61.9565217,82.8679245 C61.1231884,84.6792453 54.3115942,95.5471698 54.3115942,95.5471698 C54.3115942,95.5471698 63.3695652,92.6309434 64.7282609,92.3592453 C54.4565217,107.737358 75.5978261,141.717736 75.5978261,141.717736 L79.4202899,134.309434 C79.4202899,134.309434 79.8731884,133.458113 79.9094203,133.367547 C80.2305138,136.520175 80.7264462,139.652544 81.3949275,142.750189 L83.7681159,153.618113 L88.3514493,143.347925 C89.5845245,140.535637 91.0956593,137.853626 92.8623188,135.341887 C92.8623188,136.048302 95.0905797,151.245283 95.0905797,151.245283 L101.702899,139.833962 C104.836957,134.834717 111.286232,130.56 114.202899,128.58566 C115.036232,130.56 132.626812,137.950189 146.811594,127.698113 C148.894928,130.324528 154.23913,133.639245 155.561594,136.754717 L160.688406,149.071698 L164.673913,134.128302 L171.123188,149.180377 C171.123188,149.180377 179.492754,129.09283 181.630435,115.634717 C182.572464,117.446038 186.286232,129.310189 186.286232,129.310189 C187.97925,123.720723 189.054509,117.962576 189.492754,112.138868 C189.721844,108.645874 189.177512,105.145354 187.898551,101.886792 C188.478261,102.792453 193.333333,109.222642 193.333333,109.222642 C193.333333,109.222642 192.59058,89.4611321 188.876812,80.6762264 C187.015867,77.0529658 184.909513,73.5610614 182.572464,70.2249057 C184.311335,69.5873025 185.651877,68.1732435 186.195652,66.4030189 C187.13083,64.3846169 188.412257,62.5455261 189.981884,60.9690566 L183.623188,60.3713208 C181.663852,60.1918819 179.763485,59.6058182 178.043478,58.650566 C181.286375,58.3565702 184.40227,57.247479 187.101449,55.4264151 C190.597826,51.4233962 198.695652,47.6739623 207.028986,27.9849057" id="Shape" fill="#231F20"></path>
                <path d="M190.434783,45.5909434 C188.26087,47.4022642 182.40942,50.2641509 180.57971,50.1192453 C180.57971,50.1192453 185.76087,51.5501887 185.688406,51.5864151 C183.80866,53.6182811 181.39967,55.0860383 178.731884,55.8249057 C175.020575,56.8806232 171.10523,56.9988749 167.336957,56.1690566 C171.974638,61.0415094 176.612319,63.8309434 182.608696,63.8671698 C180.797101,66.0588679 179.945652,68.8301887 176.956522,69.3011321 C179.855072,72.3079245 185.434783,78.3577358 186.539855,94.514717 C184.728261,92.1962264 180.217391,90.674717 176.539855,88.0845283 C186.521739,98.8437736 186.304348,107.157736 185.815217,117.06566 C184.168981,113.353147 182.236842,109.774083 180.036232,106.360755 C179.818841,120.996226 170.398551,139.978868 170.398551,139.978868 C170.398551,139.978868 167.228261,124.781887 160.851449,120.470943 C162.663043,126.194717 161.25,132.009057 159.746377,136.483019 C157.246377,130.451321 151.195652,127.22717 146.721014,123.061132 C133.586957,133.204528 117.173913,127.299623 116.15942,123.350943 C109.764493,125.162264 102.065217,132.172075 98.4782609,137.841509 C98.2608696,132.407547 94.8550725,125.343396 98.1884058,120.706415 C90.7971014,126.339623 88.134058,134.128302 84.8550725,141.862642 C83.2789855,131.538113 80.942029,123.513962 83.2065217,113.823396 C77.7717391,118.514717 76.1775362,132.516226 76.1775362,132.516226 C72.3369565,121.938113 59.673913,102.104151 74.0036232,85.874717 C71.9202899,86.5267925 65.7789855,87.0339623 64.4021739,87.3237736 C69.2753623,78.2671698 68.8405797,76.365283 70.7789855,69.6271698 C68.2065217,69.989434 63.0978261,66.0045283 60.4166667,63.5773585 C66.9565217,63.2513208 74.4746377,62.834717 80.8514493,56.0241509 C79.3115942,56.205283 169.112319,33.8898113 173.731884,33.8354717 C184.32971,33.4369811 199.800725,33.6181132 203.351449,29.0173585 C203.514493,29.3615094 200.67029,37.2407547 190.434783,45.4641509" id="Shape" fill="#FFFFFF"></path>
                <path d="M149.221014,86.3637736 C148.369565,89.714717 146.449275,94.7683019 143.514493,97.4309434 C144.528986,93.5728302 142.952899,89.9139623 143.097826,86.2550943 L142.264493,86.0558491 C141.719295,86.7467891 141.211327,87.4663009 140.742754,88.2113208 C139.387886,87.177551 138.596493,85.5681809 138.605072,83.8641509 L138.387681,83.8641509 C137.710903,85.0533969 136.922314,86.1754503 136.032609,87.2150943 C134.961771,86.1556616 134.219508,84.809726 133.894928,83.3388679 L133.532609,83.3388679 C132.866092,84.755431 131.979518,86.0575807 130.905797,87.1969811 C129.879286,86.4439625 129.128301,85.3749251 128.768116,84.1539623 L128.460145,84.2988679 C127.826087,85.7660377 126.648551,87.450566 126.231884,88.7184906 C125.191455,88.0252415 124.488568,86.928377 124.293478,85.6935849 L123.822464,85.8022642 C123.550725,86.834717 123.26087,87.6135849 123.224638,88.0483019 C122.585648,90.7472791 122.444448,93.5401653 122.807971,96.2898113 C120.079314,93.8179127 117.948334,90.7581879 116.576087,87.3418868 C112.952899,88.5192453 107.844203,87.885283 102.663043,84.9328302 C97.7355072,84.5343396 108.84058,104.947925 116.050725,112.37434 C119.673913,116.956981 120.199275,122.82566 123.297101,122.861887 C129.855072,123.948679 131.376812,123.713208 140.326087,122.626415 C146.25,119.963774 143.786232,113.660377 145.362319,109.313208 C147.463768,101.669434 148.387681,97.9743396 152.336957,90.9645283 C154.148551,86.7622642 152.210145,86.3637736 149.275362,86.4543396 M140.742754,119.058113 C139.796922,119.515542 138.723392,119.636935 137.699275,119.402264 C137.572257,119.35138 137.455607,119.277717 137.355072,119.184906 C137.364142,119.311536 137.364142,119.438653 137.355072,119.565283 C136.847826,120.144906 134.257246,120.253585 134.057971,119.746415 C134.00352,119.957508 133.847167,120.127431 133.641304,120.199245 C131.25,120.416604 130.48913,120.018113 130.416667,119.347925 C130.409686,119.549176 130.360301,119.746688 130.271739,119.927547 C129.51087,120.470943 128.115942,119.927547 127.355072,119.782642 C127.086476,119.745508 126.890268,119.510094 126.902174,119.239245 C126.682779,119.553556 126.352821,119.773495 125.978261,119.855094 C124.565217,120.090566 123.025362,120.362264 122.355072,118.822642 C121.310007,116.35455 121.106292,113.611189 121.775362,111.015849 C122.626812,113.895849 126.467391,115.091321 127.065217,118.116226 C127.065217,118.116226 127.065217,118.224906 127.065217,118.261132 C127.499259,117.191869 128.182467,116.241732 129.057971,115.489811 C129.730996,116.599507 130.180263,117.830192 130.380435,119.112453 C130.685424,118.21193 131.067264,117.339284 131.521739,116.504151 C131.684783,116.286792 131.721014,115.924528 131.956522,115.852075 C132.336957,116.649057 133.26087,117.790189 133.768116,118.732075 C133.989585,117.522989 134.5342,116.39637 135.344203,115.471698 C135.57971,116.323019 136.358696,116.920755 136.865942,117.717736 C136.966703,116.720582 137.371436,115.778456 138.025362,115.018868 C139.836957,113.098868 140.960145,111.975849 141.358696,110.037736 C142.572464,114.330566 142.065217,118.08 140.724638,119.09434" id="Shape" fill="#231F20"></path>
                <path d="M173.75,69.3373585 C173.75,69.3373585 178.641304,67.0007547 178.985507,65.8415094 C173.876812,66.0045283 168.605072,62.7441509 167.717391,58.8135849 C166.539855,63.9577358 157.771739,65.1532075 158.460145,65.1350943 C163.894928,64.9177358 169.90942,76.365283 163.278986,81.9079245 C159.003623,85.1139623 159.655797,84.389434 154.710145,86.1826415 C157.481884,87.3056604 157.554348,88.8633962 153.097826,95.8369811 C170.054348,98.3003774 169.094203,125.796226 169.782609,129.944151 C174.275362,123.278491 175.706522,116.757736 177.173913,103.68 C177.318841,102.647547 179.148551,102.412075 181.15942,104.748679 C180.960145,103.046038 179.836957,95.2211321 175.072464,91.5079245 C174.910832,88.7829802 173.882565,86.1809705 172.137681,84.0815094 C171.865942,83.7373585 179.076087,84.0815094 183.297101,88.6098113 C182.442086,81.2743232 179.067803,74.462758 173.75,69.3373585" id="Shape" fill="#4B2682"></path>
                <path d="M120.742754,99.9849057 C120.742754,99.9849057 121.268116,96.96 127.771739,98.3909434 C128.643589,100.930647 129.804595,103.361705 131.231884,105.636226 C131.231884,104.784906 128.913043,98.3909434 130.289855,98.0467925 C133.06653,97.7088863 135.878529,98.2673932 138.315217,99.6407547 C138.315217,99.6407547 141.576087,107.737358 136.503623,113.497358 C136.34058,113.678491 135.797101,111.921509 135.507246,112.120755 C134.711366,112.840327 134.054344,113.699851 133.568841,114.656604 L131.557971,112.138868 L130.271739,114.566038 L128.115942,112.754717 L126.82971,114.330566 C126.82971,114.330566 120.434783,110.055849 120.76087,99.9486792" id="Shape" fill="#939598"></path>
                <path d="M192.952899,32.5313208 C181.213768,33.6543396 161.15942,33.074717 158.278986,35.6467925 C158.84058,33.4550943 159.257246,33.0566038 159.438406,32.1509434 L159.094203,32.2958491 L159.402174,32.114717 C159.402174,32.114717 157.807971,28.365283 147.173913,29.0173585 C146.702899,29.0173585 149.891304,26.9886792 149.438406,26.8437736 C145.815217,25.5939623 136.539855,26.4633962 131.956522,29.7418868 C125.960145,26.1192453 114.402174,24.6339623 107.717391,26.0286792 C107.173913,26.1554717 110.561594,28.0754717 110.108696,28.0935849 C104.778654,28.443882 99.6721542,30.3664096 95.4347826,33.6181132 C96.3162144,34.3501608 96.949105,35.337321 97.2463768,36.4437736 C90.329228,34.7112834 83.1650943,34.1843181 76.0688406,34.8860377 C71.0326087,30.8467925 60.5797101,27.4233962 54.9275362,24.3260377 C53.3152174,22.7320755 52.0289855,21.1381132 51.1775362,20.9388679 C51.0467126,25.1088409 52.088609,29.2318685 54.1847826,32.8392453 C58.26826,40.1070911 64.7864181,45.7005713 72.5905797,48.6339623 C70.6421494,48.2783265 68.6513506,48.2172682 66.6847826,48.4528302 C67.9710145,50.010566 68.4057971,52.0754717 75.5072464,56.4950943 C77.1543511,56.775879 78.8431616,56.6892864 80.4528986,56.2415094 C80.5797101,56.2415094 80.4528986,56.2415094 80.2898551,56.4407547 C78.1740309,57.7202012 76.3279976,59.399838 74.8550725,61.3856604 C72.8442029,64.1207547 67.3731884,66.1132075 66.3043478,66.1856604 C69.0401528,68.3089758 72.5040098,69.2659497 75.942029,68.8483019 C71.8478261,72.2716981 71.865942,78.9192453 70.1630435,84.0633962 C72.57545,83.3642878 75.1151066,83.2218408 77.5905797,83.6467925 C66.3224638,102.21283 74.4927536,119.402264 74.9818841,122.753208 C77.8685708,116.488628 81.4541271,110.570315 85.6702899,105.110943 C84.7343443,113.557763 85.3980899,122.10527 87.6268116,130.306415 C90.5797101,114.819623 91.0688406,106.523774 101.231884,95.4203774 C99.2753623,89.714717 96.3768116,86.7622642 100.815217,83.3569811 C91.8478261,72.5796226 96.7753623,65.6060377 104.148551,62.1464151 C101.032609,62.1464151 97.5362319,61.5849057 95.615942,59.2483019 C93.3152174,56.4588679 94.2028986,55.154717 95.615942,54.6656604 C97.0289855,54.1766038 100.634058,53.8324528 102.427536,55.8249057 C103.642847,57.2512219 104.98267,58.5665965 106.431159,59.7554717 C106.884511,60.1900727 107.429147,60.518043 108.025362,60.7154717 C110.591544,59.968135 113.251093,59.5899993 115.923913,59.5924528 C116.560633,59.5756853 117.195801,59.5212505 117.826087,59.429434 C119.891304,59.3026415 121.231884,59.3207547 121.231884,59.3207547 L120.452899,59.0128302 C121.612319,58.7773585 122.373188,58.5418868 122.373188,58.5418868 L122.735507,51.5501887 C122.735507,51.5501887 123.985507,58.2883019 124.547101,60.7516981 C124.746377,65.7328302 126.014493,67.0913208 126.014493,67.0913208 C132.122067,65.6655671 138.526848,66.2500422 144.275362,68.7577358 C145.095303,64.9333667 145.193607,60.9895157 144.565217,57.1290566 L145.996377,60.6430189 C145.996377,60.6430189 155.688406,54.3939623 166.286232,55.0460377 C171.596782,54.4043809 176.77069,52.9184827 181.612319,50.6445283 C180.833333,50.4271698 178.333333,48.6339623 178.405797,47.4384906 C178.405797,47.0943396 186.865942,44.3411321 189.836957,42.6384906 C196.557971,38.7803774 203.242754,29.1441509 203.242754,29.1441509 C203.242754,29.1441509 200.253623,31.9698113 192.844203,32.5313208 M108.07971,53.0173585 C105.036232,51.7132075 106.485507,48.7426415 109.583333,49.7026415 C112.681159,50.6626415 116.666667,56.64 116.666667,56.64 L108.07971,53.0173585 M155.905797,55.7343396 C153.269418,56.4931385 150.700284,57.4685351 148.224638,58.650566 C148.224638,58.650566 153.65942,52.4558491 156.231884,52.6732075 C158.804348,52.890566 158.043478,55.0641509 155.905797,55.7343396" id="Shape" fill="#939598"></path>
                <path d="M86.7572464,43.0732075 C84.8153641,43.9038983 82.7854674,44.5115601 80.7065217,44.8845283 L80.7065217,45.3192453 C81.9746377,46.1162264 83.134058,47.0037736 84.3297101,47.8369811 C78.2065217,48.1449057 71.9746377,44.2143396 67.1195652,40.1388679 C73.8405797,43.2362264 79.4202899,43.2362264 86.7391304,43.0369811" id="Shape" fill="#231F20"></path>
                <path d="M126.811594,70.8950943 C126.811594,70.8950943 121.032609,63.269434 129.855072,64.7728302 C136.123188,65.8415094 136.394928,66.5841509 141.503623,65.2618868 C146.612319,63.9396226 145,70.6958491 143.677536,70.3879245 C141.34058,66.2037736 136.757246,69.9350943 138.097826,71.474717 C139.148551,72.6520755 139.528986,73.1411321 139.438406,73.92 C139.347826,74.6988679 134.782609,79.3539623 135.307971,79.9516981 C135.833333,80.549434 139.945652,80.64 141.648551,82.5781132 C137.916667,82.0528302 131.539855,80.6218868 125.108696,81.9441509 C124.456522,81.3826415 130.543478,79.9879245 132.355072,79.9516981 C134.166667,79.9154717 130.072464,74.2641509 130.163043,73.0686792 C130.706522,71.8369811 131.82971,71.6920755 132.119565,70.9132075 C132.430947,70.3322609 132.402132,69.6280494 132.044327,69.0744768 C131.686522,68.5209043 131.056209,68.2053564 130.398551,68.250566 C127.210145,68.250566 126.92029,69.8264151 126.775362,70.8950943" id="Shape" fill="#231F20"></path>
                <path d="M87.6268116,130.523774 C89.7826087,120.978113 90.0362319,112.26566 95.4347826,103.245283 C90.307971,94.5690566 88.8043478,86.5267925 87.6268116,76.8362264 C85.1811594,79.8430189 82.6811594,84.0815094 80.7065217,97.3403774 C82.2209851,95.6512716 83.5848721,93.8330301 84.7826087,91.9064151 C82.4977644,104.814742 83.47545,118.089335 87.6268116,130.523774" id="Shape" fill="#4B2682"></path>
                <path d="M122.753623,46.6958491 C121.698289,46.8546912 120.63244,46.9334068 119.565217,46.9313208 C118.75,47.2211321 117.844203,47.6196226 118.369565,49.2679245 C118.894928,50.9162264 120.181159,54.194717 120.833333,56.5132075 C115.833333,51.2060377 114.456522,47.2392453 101.811594,42.3667925 C106.903859,46.2278384 111.455289,50.7542129 115.344203,55.8249057 C109.458582,53.7027727 103.710757,51.2164575 98.134058,48.3803774 C99.0272122,49.6396907 99.9888025,50.8490557 101.014493,52.0030189 C99.4384058,52.4558491 94.4384058,52.2203774 92.2282609,56.3320755 C95.6630221,55.5669552 99.1984849,55.3590182 102.699275,55.7162264 C103.043478,54.3939623 104.855072,54.810566 105.688406,55.1728302 C104.692029,57.4913208 105.09058,60.7698113 107.300725,61.5124528 C110.09058,62.0558491 111.666667,61.2588679 114.836957,60.7698113 C117.23187,60.6323049 119.630817,60.9582665 121.902174,61.7298113 C123.713768,62.2007547 124.945652,62.4181132 124.945652,62.4181132 C124.474638,58.6867925 123.442029,53.1441509 122.807971,50.5177358 C124.293478,50.3003774 126.974638,50.0467925 126.431159,49.2135849 C124.021739,42.6566038 122.807971,40.5554717 121.521739,37.6030189 C121.659708,40.6984432 122.059689,43.7766183 122.717391,46.8045283" id="Shape" fill="#231F20"></path>
                <path d="M114.148551,55.4083019 C113.496377,55.1728302 112.952899,54.9916981 112.481884,54.7924528 L112.644928,54.8830189 C112.971014,55.1366038 112.98913,56.5856604 112.98913,56.8211321 C112.98913,58.2158491 112.101449,59.9003774 111.413043,59.7011321 C110.59238,59.1456284 110.056157,58.2586765 109.945652,57.2739623 C109.764493,55.9335849 110.181159,54.2490566 111.34058,54.3396226 C111.213768,54.3396226 110.942029,54.1584906 110.833333,54.1222642 C109.021739,53.4883019 107.735507,55.4264151 107.789855,57.3101887 C107.718219,59.227801 109.205975,60.8446827 111.123188,60.9328302 C113.985507,60.8422642 114.945652,59.2664151 114.873188,57.3101887 C114.873188,56.730566 114.655797,55.4988679 114.148551,55.3177358" id="Shape" fill="#4B2682"></path>
                <path d="M110.978261,53.9954717 C110.978261,53.9954717 109.782609,53.850566 109.293478,54.3577358 C108.804348,54.8649057 111.105072,56.9841509 111.105072,56.9841509 C111.331791,55.9956502 111.294303,54.9648974 110.996377,53.9954717" id="Shape" fill="#FFFFFF"></path>
                <path d="M143.985507,48.6339623 C144.897024,48.8454999 145.823813,48.9848001 146.757246,49.050566 C147.445652,49.3403774 147.862319,50.7713208 147.300725,52.1660377 C146.73913,53.5607547 146.702899,54.6837736 145.923913,56.64 C148.460145,51.9486792 155.289855,49.9562264 162.228261,47.0943396 C156.938406,51.8581132 154.148551,53.0535849 149.547101,57.9622642 C154.599885,55.8669348 159.76479,54.0528395 165.018116,52.5283019 C164.167607,53.5561861 163.2604,54.5358218 162.300725,55.4626415 C163.605338,56.0445082 164.864853,56.7226058 166.068841,57.4913208 C164.807737,58.6346898 163.385565,59.5867296 161.847826,60.3169811 C161.73913,58.3426415 159.166667,57.5637736 158.007246,57.0022642 C158.84058,58.8135849 159.257246,62.9615094 155.525362,63.6498113 C153.061594,63.9577358 151.702899,62.5449057 149.202899,62.2732075 C148.297101,61.8928302 148.568841,60.4618868 148.623188,59.5924528 C147.663043,60.6067925 147.699275,61.4037736 146.811594,62.1464151 L145.271739,62.834717 C144.746377,58.650566 143.460145,53.9773585 143.278986,51.7132075 C141.992754,51.4233962 139.202899,50.5358491 139.655797,49.9018868 C142.155797,44.3230189 147.481884,40.845283 150.072464,38.7079245 C149.764493,41.3886792 144.782609,45.5909434 143.931159,48.6701887" id="Shape" fill="#231F20"></path>
                <path d="M156.050725,57.6 C155.778986,57.1290566 154.818841,56.0603774 154.384058,56.2233962 L154.039855,56.3320755 L154.039855,56.3320755 C154.438406,56.3320755 154.945652,57.6362264 155,57.8535849 C155.416667,59.4475472 155.126812,61.6211321 153.876812,61.9833962 C153.315217,62.1464151 152.554348,60.9871698 152.318841,59.7011321 C152.017462,58.7377441 152.156677,57.6904761 152.699275,56.8392453 L151.884058,57.1471698 C150.326087,57.7086792 150.181159,60.570566 151.213768,61.8022642 C152.292705,63.0887832 154.194059,63.2964628 155.525362,62.2732075 C156.692848,60.9899789 156.89097,59.0970994 156.014493,57.6" id="Shape" fill="#4B2682"></path>
                <path d="M153.224638,56.5675472 C153.224638,56.5675472 152.01087,56.5675472 151.594203,57.2015094 C151.177536,57.8354717 153.713768,59.7735849 153.713768,59.7735849 C153.81348,58.6810494 153.6456,57.5806698 153.224638,56.5675472" id="Shape" fill="#FFFFFF"></path>
                <path d="M98.75,74.6264151 C98.825708,75.6954805 99.0450709,76.7494819 99.4021739,77.76 C106.498879,77.2064089 113.627933,77.2064089 120.724638,77.76 C110.869565,72.5796226 98.75,74.6626415 98.75,74.6626415" id="Shape" fill="#231F20"></path>
                <path d="M121.195652,73.5215094 C106.992754,71.3116981 99.057971,72.434717 99.057971,72.434717 C99.1063637,71.2144376 99.4086904,70.0176512 99.9456522,68.9207547 C99.9456522,68.9207547 114.601449,69.3192453 121.195652,73.5215094" id="Shape" fill="#231F20"></path>
                <path d="M119.90942,69.0656604 C105.416667,66.7471698 100.778986,67.4898113 100.778986,67.4898113 C101.169304,66.2248751 102.077863,65.1847978 103.278986,64.6279245 C109.113777,64.6385439 114.845263,66.1679582 119.90942,69.0656604" id="Shape" fill="#231F20"></path>
                <path d="M163.568841,76.5645283 C163.668842,77.5646776 163.473604,78.5722076 163.007246,79.4626415 C157.699803,79.0284042 152.363888,79.0769052 147.065217,79.6075472 C152.035274,76.6787268 157.880856,75.6008897 163.568841,76.5645283" id="Shape" fill="#231F20"></path>
                <path d="M146.721014,75.7675472 C152.202328,74.4829461 157.858706,74.1157043 163.460145,74.6807547 C163.440092,73.5618909 163.212824,72.456432 162.789855,71.4203774 C162.789855,71.4203774 151.702899,71.8188679 146.721014,75.7675472" id="Shape" fill="#231F20"></path>
                <path d="M147.681159,71.5471698 C158.677536,69.3373585 162.173913,70.0075472 162.173913,70.0075472 C161.933564,68.8959946 161.245415,67.9327324 160.271739,67.3449057 C155.740972,67.4086027 151.341693,68.8769172 147.681159,71.5471698" id="Shape" fill="#231F20"></path>
                <path d="M182.608696,48.6158491 C186.594203,47.4928302 191.467391,42.6928302 193.278986,40.2656604 C186.73913,43.0550943 180.289855,46.1886792 172.047101,44.8483019 C174.32971,45.7539623 175.67029,46.8045283 178.007246,47.7101887 C174.721406,50.9992927 170.741406,53.5119457 166.358696,55.0641509 C171.050725,54.7743396 175.978261,54.9554717 180.181159,52.2203774 C181.515768,51.4624444 182.415252,50.1201339 182.608696,48.5977358" id="Shape" fill="#231F20"></path>
            </g>
        </g>
    </g>
</svg>