<?xml version="1.0" encoding="UTF-8" standalone="no"?>
<svg width="250px" height="250px" viewBox="0 0 250 250" version="1.1" xmlns="http://www.w3.org/2000/svg" xmlns:xlink="http://www.w3.org/1999/xlink">
    <!-- Generator: Sketch 47.1 (45422) - http://www.bohemiancoding.com/sketch -->
    <title>HIGHPT</title>
    <desc>Created with Sketch.</desc>
    <defs></defs>
    <g id="Page-1" stroke="none" stroke-width="1" fill="none" fill-rule="evenodd">
        <g id="HIGHPT" fill-rule="nonzero" fill="#422C88">
            <g id="Graphic-Identity-Standards-Guide1" transform="translate(0.000000, 51.000000)">
                <path d="M190.952381,65.5258065 L190.738095,66.8148387 C189.061764,67.006593 187.728599,68.3137151 187.5,69.9896774 L180.952381,108.183226 C179.142857,118.877419 181.952381,122.505806 192.238095,121.741935 C202.52381,120.978065 206.690476,116.967742 208.5,106.225806 L215.047619,68.0322581 C215.333333,66.3135484 214.47619,65.12 212.857143,65.2393548 L213.071429,63.9503226 L229.738095,62.7567742 L229.52381,64.0458065 C227.793501,64.227973 226.388791,65.5294688 226.071429,67.2445161 L219.238095,107.204516 C216.166667,125.131613 204.190476,130.00129 190.666667,131.075484 C177.142857,132.149677 166.52381,128.688387 169.595238,110.832903 L176.452381,70.8967742 C176.646305,70.1870903 176.476884,69.4271817 176.000028,68.8678203 C175.523172,68.308459 174.800849,68.0223353 174.071429,68.103871 L174.285714,66.8387097 L190.952381,65.5258065 Z" id="Shape"></path>
                <path d="M124.166667,79.92 L119.547619,103.6 C119.214286,105.294839 120.047619,106.488387 121.690476,106.32129 L121.428571,107.610323 L104.761905,109.090323 C104.761905,109.090323 108,106.297419 108.333333,104.57871 L119.357143,48.0522581 C119.666667,46.3574194 118.833333,45.163871 117.190476,45.3070968 L117.452381,44.0180645 L145.380952,41.6309677 C162.047619,40.1509677 168.571429,44.9012903 165.928571,58.3406452 C163.547619,70.0612903 154.97619,77.1270968 142.642857,78.2251613 L124.166667,79.92 Z M129.595238,51.9670968 L125.928571,70.7296774 L141.880952,69.3212903 C149.52381,68.6290323 153.547619,66.1703226 154.928571,59.0329032 C156.309524,51.8954839 153.166667,49.8664516 146.404762,50.4632258 L129.595238,51.9670968 Z" id="Shape"></path>
                <path d="M144.928571,58.1258065 L135.952381,58.9374194 C135.619048,60.6083871 135.595238,60.703871 135.285714,62.3748387 L143.380952,61.6587097 C144.516956,61.586416 145.642208,61.3943894 146.738095,61.0858065 C146.874427,60.6388448 146.985712,60.1845867 147.071429,59.7251613 C147.190787,59.2002325 147.254632,58.6641532 147.261905,58.1258065 C146.470357,58.0438961 145.672501,58.0438961 144.880952,58.1258065" id="Shape"></path>
                <path d="M183.333333,49.5322581 C183.295944,43.6722224 181.157922,38.0210724 177.309524,33.6103226 C171.071429,26.6877419 160.642857,23.8232258 146.190476,25.0883871 L129.952381,26.5445161 L135.166667,0 L22.7857143,10.0258065 L43.4285714,32.1780645 C42.1190476,38.9096774 35.2619048,74.1432258 34.452381,78.2251613 L0.0476190476,108.660645 L91.2857143,100.496774 L58.3333333,129.595484 L134.52381,122.768387 L139.97619,94.8632258 L141.880952,94.696129 C146.78927,94.2838852 151.606373,93.124797 156.166667,91.2587097 C154.714286,99.7090323 153.309524,107.968387 153.309524,107.968387 C152.808771,110.773367 152.553831,113.616904 152.547619,116.466452 C152.258477,124.20702 154.933281,131.765334 160.02381,137.592258 C170.309524,149.002581 186.452381,147.856774 191.761905,147.450968 C216.071429,145.732258 231.571429,132.412258 235.404762,109.997419 L240.595238,79.8245161 L243.5,79.6096774 L249.452381,44.7819355 L183.333333,49.5322581 Z M236.095238,71.2787097 L233.166667,71.4935484 C231.595238,80.7077419 226.833333,108.493548 226.833333,108.493548 C223.666667,127.04129 211.666667,137.13871 191.119048,138.666452 C183.738095,139.191613 173.166667,139.024516 166.5,131.672258 C162.909955,127.437104 161.055126,121.994743 161.309524,116.442581 C161.315231,114.097689 161.522346,111.757646 161.928571,109.448387 C161.928571,109.448387 165.690476,87.5587097 167.619048,76.196129 L163.095238,76.6258065 C156.97601,82.0447972 149.259967,85.3135104 141.119048,85.9354839 L130.404762,86.8664516 C129.452381,91.8316129 128.904762,94.6245161 128.190476,98.2051613 C129.452381,98.2051613 130.428571,97.9664516 130.428571,97.9664516 L127.190476,114.676129 L84.1428571,118.519355 L100.357143,104.196774 L100.785714,103.790968 C100.97619,102.836129 102,97.4890323 103.333333,90.5903226 L76.2142857,93.216129 L79.452381,76.5064516 L82.1666667,76.2677419 L84.547619,64.0696774 L72.1904762,65.1677419 L69.8095238,77.3658065 L72.5238095,77.1270968 L69.3095238,93.8367742 L44.8571429,96.0090323 L25.8095238,97.68 L42.0238095,83.3574194 L42.452381,82.9516129 C43.0238095,80.0154839 52.2619048,32.583871 52.8333333,29.623871 L52.5714286,29.2896774 L41.4285714,17.3541935 L85.1666667,13.296129 L81.9285714,30.0058065 L79.2142857,30.2683871 C78.547619,33.6819355 78.0714286,36.0690323 77.1666667,40.723871 L89.5238095,39.6258065 C90.452381,34.8516129 90.9047619,32.4645161 91.5714286,29.1703226 L88.8571429,29.4090323 L92.0714286,12.6993548 L116.52381,10.5032258 L124.357143,9.81096774 L121.119048,26.5206452 L118.404762,26.7832258 C118.047619,28.6212903 117.333333,32.2496774 116.452381,36.6896774 L119.119048,36.4509677 L147.071429,33.8729032 C168.333333,31.9632258 177.380952,39.96 173.952381,57.743871 C173.952381,58.1974194 173.761905,58.6748387 173.642857,59.1283871 L200.261905,57.2187097 L197.380952,74.1432258 L194.666667,74.3341935 C193.142857,83.2858065 188.619048,109.615484 188.619048,109.615484 C188.384966,110.625748 188.257282,111.657852 188.238095,112.694839 C188.217659,113.262998 188.486762,113.802593 188.952381,114.127097 C189.404762,114.413548 189.952381,114.318065 191.785714,114.127097 C197.97619,113.697419 199.714286,112.71871 201.02381,104.984516 L206.428571,73.4509677 L203.714286,73.6419355 L206.619048,56.7174194 L229.309524,55.0941935 L239.095238,54.4019355 L236.095238,71.2787097 Z" id="Shape"></path>
                <path d="M100.333333,79.2277419 C100,80.9225806 100.833333,82.116129 102.47619,81.9729032 L102.238095,83.2380645 L85.5714286,84.7180645 L85.8095238,83.4529032 C87.4989205,83.2240437 88.8415595,81.9166766 89.1190476,80.2303226 L93.8809524,55.6909677 L65.8333333,58.1974194 L61.0714286,82.7129032 C60.7380952,84.4316129 61.5714286,85.6012903 63.2142857,85.4580645 L62.9761905,86.7470968 L46.3095238,88.2270968 C46.3095238,88.2270968 49.547619,85.4103226 49.8571429,83.7154839 L60.8809524,27.1890323 C61.2142857,25.4703226 58.9761905,23.1548387 58.9761905,23.1548387 L75.6428571,21.6748387 L75.4047619,22.963871 C73.7096836,23.1903843 72.3588284,24.4963563 72.0714286,26.1864516 L67.6428571,49.0070968 L95.6904762,46.5006452 L100.142857,23.68 C100.47619,21.9851613 99.6190476,20.7916129 98,20.9348387 L98.2380952,19.6458065 L114.904762,18.1658065 L114.666667,19.4548387 C112.966289,19.678988 111.617757,21.0018204 111.357143,22.7012903 L100.333333,79.2277419 Z" id="Shape"></path>
            </g>
        </g>
    </g>
</svg>