<?xml version="1.0" encoding="UTF-8" standalone="no"?>
<svg width="250px" height="250px" viewBox="0 0 250 250" version="1.1" xmlns="http://www.w3.org/2000/svg" xmlns:xlink="http://www.w3.org/1999/xlink">
    <!-- Generator: Sketch 47.1 (45422) - http://www.bohemiancoding.com/sketch -->
    <title>WINTHR</title>
    <desc>Created with Sketch.</desc>
    <defs></defs>
    <g id="Page-1" stroke="none" stroke-width="1" fill="none" fill-rule="evenodd">
        <g id="WINTHR">
            <g id="Winthrop_Eagles70" transform="translate(0.000000, 16.000000)">
                <path d="M1.45348837,92.5918667 C6.60285021,91.3292013 11.8195143,90.3587626 17.0784884,89.6852 C11.3701013,110.244719 7.42653472,131.253761 5.29069767,152.483733 C10.5959302,150.42 16.497093,148.646933 22.0930233,146.8884 C19.7383721,178.425733 20.0290698,192.5812 21.8023256,217.055333 C132.965116,136.569733 178.386628,135.668667 192.834302,173.716933 C272.456395,163.9796 263.604651,51.3462667 194.287791,48.7302667 L189.578488,55.5028 L198.125,42.5390667 C186.627907,23.0789333 159.796512,9.21413333 124.40407,10.9872 C97.5726744,12.1644 63.0668605,7.44106667 34.752907,0.0726666667 C21.1918605,24.7793333 7.63081395,63.4670667 1.43895349,92.6645333 L1.45348837,92.5918667 Z" id="Shape" fill="#FDB927"></path>
                <path d="M43.3284884,17.9922667 C34.0344944,36.6344375 26.7268686,56.2021718 21.5261628,76.3726667 C27.122093,75.4861333 31.8459302,74.5996 36.8604651,73.7130667 C30.7095242,93.2076547 25.9781648,113.12193 22.7034884,133.299733 C28.8953488,131.5412 33.6046512,130.0588 39.505814,128.590933 C36.5283969,148.500008 35.1480281,168.615278 35.377907,188.7444 C137.412791,118.562933 186.061047,125.931333 199.622093,156.596667 C251.22093,142.150533 245.610465,67.2602667 186.046512,60.4732 L181.031977,73.1608 C218.488372,79.352 232.936047,118.562933 205.218023,138.9096 C182.805233,108.244267 132.383721,110.017333 51.5843023,159.546933 C52.1802326,149.518933 53.0377907,133.299733 55.1162791,122.094533 C48.9244186,123.286267 45.1017442,124.158267 39.7819767,125.640667 C42.9608503,106.389799 47.7996325,87.4500537 54.244186,69.0333333 C49.8837209,69.6146667 44.505814,70.4866667 39.2005814,71.0970667 C42.6410471,58.6492803 47.0788515,46.4988666 52.4709302,34.7637333 C71.6424419,39.7777333 89.0406977,41.2456 114.389535,40.6642667 C145.944767,40.0684 160.392442,46.2596 167.180233,52.1601333 C176.322674,59.5285333 168.953488,67.2021333 156.860465,67.4928 C150.668605,67.7834667 140.639535,66.6062667 135.625,61.0109333 C121.177326,81.6482667 163.633721,93.74 189.593023,55.4010667 C178.081395,34.7637333 154.796512,25.0409333 124.418605,25.6222667 C88.3866279,26.2472 72.8197674,23.5876 43.3284884,17.9922667 Z" id="Shape" fill="#A90533"></path>
                <path d="M43.3284884,17.9922667 C34.0344944,36.6344375 26.7268686,56.2021718 21.5261628,76.3726667 C27.122093,75.4861333 31.8459302,74.5996 36.8604651,73.7130667 C30.7095242,93.2076547 25.9781648,113.12193 22.7034884,133.299733 C28.8953488,131.5412 33.6046512,130.0588 39.505814,128.590933 C36.5283969,148.500008 35.1480281,168.615278 35.377907,188.7444 C137.412791,118.562933 186.061047,125.931333 199.622093,156.596667 C251.22093,142.150533 245.610465,67.2602667 186.046512,60.4732 L181.031977,73.1608 C218.488372,79.352 232.936047,118.562933 205.218023,138.9096 C182.805233,108.244267 132.383721,110.017333 51.5843023,159.546933 C52.1802326,149.518933 53.0377907,133.299733 55.1162791,122.094533 C48.9244186,123.286267 45.1017442,124.158267 39.7819767,125.640667 C42.9608503,106.389799 47.7996325,87.4500537 54.244186,69.0333333 C49.8837209,69.6146667 44.505814,70.4866667 39.2005814,71.0970667 C42.6410471,58.6492803 47.0788515,46.4988666 52.4709302,34.7637333 C71.6424419,39.7777333 89.0406977,41.2456 114.389535,40.6642667 C145.944767,40.0684 160.392442,46.2596 167.180233,52.1601333 C176.322674,59.5285333 168.953488,67.2021333 156.860465,67.4928 C150.668605,67.7834667 140.639535,66.6062667 135.625,61.0109333 C121.177326,81.6482667 163.633721,93.74 189.593023,55.4010667 C178.081395,34.7637333 154.796512,25.0409333 124.418605,25.6222667 C88.3866279,26.2472 72.8197674,23.5876 43.3284884,17.9922667" id="Shape" stroke="#A90533" stroke-width="0.5"></path>
                <path d="M186.046512,60.4441333 L181.031977,73.1317333 C218.488372,79.3229333 232.936047,118.533867 205.218023,138.880533 C182.805233,108.2152 132.383721,109.988267 51.5843023,159.517867 C51.9347029,146.959896 53.1145987,134.438799 55.1162791,122.0364 C48.9244186,123.228133 45.3924419,124.100133 39.7819767,125.582533 C42.9608503,106.331665 47.7996325,87.3919203 54.244186,68.9752 C50.1017442,69.5565333 44.2151163,70.4285333 39.2005814,71.0389333 C42.6410471,58.591147 47.0788515,46.4407333 52.4709302,34.7056 C72.5145349,39.7196 89.0406977,41.1874667 114.389535,40.6061333 C145.944767,40.0102667 160.392442,46.2014667 167.180233,52.102 C176.322674,59.4704 168.953488,67.144 156.860465,67.4346667 C150.668605,67.7253333 140.639535,66.5481333 135.625,60.9528 C122.354651,79.8461333 156.860465,91.6181333 182.805233,63.8594667 L186.046512,60.3133333 L186.046512,60.4441333 Z" id="Shape" fill="#FFFFFF"></path>
            </g>
        </g>
    </g>
</svg>