<?xml version="1.0" encoding="UTF-8" standalone="no"?>
<svg width="250px" height="250px" viewBox="0 0 250 250" version="1.1" xmlns="http://www.w3.org/2000/svg" xmlns:xlink="http://www.w3.org/1999/xlink">
    <!-- Generator: Sketch 47.1 (45422) - http://www.bohemiancoding.com/sketch -->
    <title>PORTST</title>
    <desc>Created with Sketch.</desc>
    <defs></defs>
    <g id="Page-1" stroke="none" stroke-width="1" fill="none" fill-rule="evenodd">
        <g id="PORTST" fill-rule="nonzero">
            <g id="Group" transform="translate(29.000000, 0.000000)">
                <polygon id="Shape" fill="#154734" points="69.4114286 91.4212329 48.1542857 77.1746575 48.1542857 113.339041 69.4114286 99.0924658"></polygon>
                <path d="M95.4857143,67.8767123 L3.32571429,6.23287671 L3.32571429,60.9246575 L14.7771429,68.5445205 L14.7771429,165.650685 C14.7771429,180.753425 21.0685714,194.89726 33.0514286,206.113014 C40.4104397,213.061346 48.5503909,219.134919 57.3085714,224.212329 C75.3257143,234.486301 95.4857143,245.136986 95.4857143,245.136986 C95.4857143,245.136986 115.645714,234.434932 133.645714,224.212329 C142.410588,219.150478 150.556684,213.088105 157.92,206.14726 C169.92,194.931507 176.194286,180.787671 176.194286,165.684932 L176.194286,68.5273973 L187.645714,60.9075342 L187.645714,6.21575342 L95.4857143,67.8767123 Z M89.76,112.705479 L48.1542857,140.582192 L48.1542857,203.561644 L48.1542857,203.561644 C34.2171429,194.023973 25.4742857,180.342466 25.4742857,165.15411 L25.4742857,61.9006849 L14.7428571,54.7431507 L14.7428571,27.6027397 L89.7428571,77.8082192 L89.76,112.705479 Z M176.211429,54.7773973 L165.497143,61.9349315 L165.497143,115.017123 L142.834286,99.8458904 L142.834286,77.2431507 L121.56,91.4212329 L121.56,99.0924658 L165.497143,128.510274 L165.497143,165.15411 C165.497143,180.359589 156.754286,194.023973 142.834286,203.561644 C130.534625,211.977599 116.09356,216.728387 101.194286,217.260274 L101.194286,127.191781 L123.857143,142.363014 L123.857143,188.390411 C136.542857,182.945205 142.714286,173.732877 142.817143,165.393836 L142.817143,140.582192 L101.194286,112.722603 L101.194286,77.7226027 L176.194286,27.5513699 L176.211429,54.7773973 Z" id="Shape" fill="#154734"></path>
                <path d="M95.4857143,63.869863 L0,0 L0,62.6883562 L11.4514286,70.3082192 L11.4514286,165.633562 C11.4514286,181.849315 18.1371429,196.678082 30.7028571,208.441781 C38.2724218,215.591547 46.6486761,221.837835 55.6628571,227.054795 C73.5085714,237.191781 93.72,247.928082 93.9257143,248.030822 L95.4857143,248.869863 L97.0457143,248.030822 C97.2514286,247.928082 117.445714,237.191781 135.291429,227.054795 C144.281443,221.859861 152.634901,215.636398 160.182857,208.510274 C172.834286,196.660959 179.52,181.832192 179.52,165.616438 L179.52,70.3082192 L190.971429,62.6883562 L190.971429,0 L95.4857143,63.869863 Z M187.645714,60.9075342 L176.194286,68.5273973 L176.194286,165.633562 C176.194286,180.736301 169.902857,194.880137 157.92,206.09589 C150.558528,213.048725 142.412358,219.122646 133.645714,224.195205 C115.645714,234.469178 95.4857143,245.119863 95.4857143,245.119863 C95.4857143,245.119863 75.3257143,234.417808 57.3085714,224.195205 C48.5530343,219.133864 40.4131939,213.077611 33.0514286,206.14726 C21.0514286,194.931507 14.7771429,180.787671 14.7771429,165.684932 L14.7771429,68.5273973 L3.32571429,60.9075342 L3.32571429,6.21575342 L95.4857143,67.859589 L187.645714,6.21575342 L187.645714,60.9075342 Z" id="Shape" fill="#FFFFFF"></path>
                <path d="M14.76,54.7431507 L25.4914286,61.9178082 L25.4914286,165.15411 C25.4914286,180.342466 34.2171429,194.023973 48.1371429,203.561644 L48.1371429,203.561644 L48.1371429,140.582192 L89.7428571,112.705479 L89.7428571,77.8082192 L14.7428571,27.6027397 L14.76,54.7431507 Z M48.1542857,77.1746575 L69.4114286,91.4212329 L69.4114286,99.0924658 L48.1542857,113.339041 L48.1542857,77.1746575 Z" id="Shape" fill="#FFFFFF"></path>
                <path d="M165.497143,165.15411 L165.497143,128.510274 L121.56,99.0924658 L121.56,91.4212329 L142.834286,77.1746575 L142.834286,99.7773973 L165.497143,114.94863 L165.497143,61.8664384 L176.211429,54.7089041 L176.211429,27.619863 L101.211429,77.7226027 L101.211429,112.65411 L142.834286,140.513699 L142.834286,165.393836 C142.697143,173.732877 136.56,182.945205 123.874286,188.390411 L123.874286,142.363014 L101.211429,127.191781 L101.211429,217.191781 C116.110703,216.659894 130.551768,211.909106 142.851429,203.493151 C156.771429,193.955479 165.514286,180.291096 165.514286,165.085616" id="Shape" fill="#FFFFFF"></path>
            </g>
        </g>
    </g>
</svg>