<?xml version="1.0" encoding="UTF-8" standalone="no"?>
<svg width="250px" height="250px" viewBox="0 0 250 250" version="1.1" xmlns="http://www.w3.org/2000/svg" xmlns:xlink="http://www.w3.org/1999/xlink">
    <!-- Generator: Sketch 47.1 (45422) - http://www.bohemiancoding.com/sketch -->
    <title>RADFRD</title>
    <desc>Created with Sketch.</desc>
    <defs></defs>
    <g id="Page-1" stroke="none" stroke-width="1" fill="none" fill-rule="evenodd">
        <g id="RADFRD" fill-rule="nonzero">
            <g id="Group" transform="translate(0.000000, 19.000000)">
                <path d="M187.85868,164.989085 C222.36534,128.976883 244.12395,82.6518296 249.805715,33.1010781 C211.868066,11.1349739 168.700296,-0.173189086 124.865495,0.371929825 C81.0546115,-0.170831066 37.9115169,11.1376312 0,33.1010781 C5.6610944,82.6426526 27.3929481,128.96662 61.8723099,164.989085 L60.8261597,200.333576 L86.4568388,187.406309 C98.454665,196.84909 111.372472,205.060307 125.014945,211.915809 C138.667288,205.077721 151.586804,196.865417 163.573051,187.406309 L189.05428,200.333576 L187.85868,164.989085 Z" id="Shape" fill="#D1D3D4"></path>
                <path d="M124.865495,191.665582 C117.516314,187.755935 110.449968,183.336403 103.718317,178.439419 L93.555715,183.595381 C102.655917,190.592087 112.358307,196.768531 122.54902,202.05223 L124.865495,203.247815 L127.256695,202.05223 C137.43836,196.752838 147.139409,190.577248 156.25,183.595381 L146.087398,178.439419 C139.329788,183.336541 132.238587,187.756002 124.865495,191.665582" id="Shape" fill="#C22026"></path>
                <path d="M139.362147,175.076836 L124.865495,167.604427 L110.368843,175.076836 C115.076518,178.364695 119.933644,181.353659 124.865495,184.11845 C129.86366,181.379177 134.703545,178.360524 139.362147,175.076836" id="Shape" fill="#1A3E6F"></path>
                <path d="M54.1009087,113.877812 C57.7821585,120.02887 61.7726046,125.989524 66.0569106,131.736868 L66.0569106,92.6561722 L54.5492587,92.6561722 L54.1009087,113.877812 Z" id="Shape" fill="#1A3E6F"></path>
                <path d="M43.938307,47.5228262 L27.7977044,47.5228262 C29.7278178,56.895217 32.3503861,66.1115569 35.6438307,75.0960128 L43.1163319,75.0960128 L43.938307,47.5228262 Z" id="Shape" fill="#1A3E6F"></path>
                <polygon id="Shape" fill="#1A3E6F" points="55.4459589 47.5228262 54.8481588 75.0960128 66.0569106 75.0960128 66.0569106 47.5228262"></polygon>
                <path d="M55.6701339,35.1186284 L55.6701339,47.5228262 L66.0569106,47.5228262 L66.0569106,32.1296651 C62.544835,33.0263541 59.1074845,34.0724912 55.6701339,35.1186284" id="Shape" fill="#C22026"></path>
                <path d="M44.1624821,39.0790048 C38.4833812,41.1712791 32.9537303,43.4877257 27.4988044,46.0283445 C27.4565108,46.5256074 27.4565108,47.0255633 27.4988044,47.5228262 L43.639407,47.5228262 L44.1624821,39.0790048 Z" id="Shape" fill="#C22026"></path>
                <path d="M44.1624821,39.0790048 L44.1624821,47.5228262 L55.6701339,47.5228262 L55.6701339,35.1186284 C51.7844333,36.3142137 48.1976327,37.6592472 44.1624821,39.0790048" id="Shape" fill="#FFFFFF"></path>
                <path d="M43.2657819,75.0960128 L35.7932807,75.0960128 C37.9603061,80.9992153 40.3515065,86.8276938 43.2657819,92.5814482 L43.2657819,75.0960128 Z" id="Shape" fill="#C22026"></path>
                <polygon id="Shape" fill="#C22026" points="54.5492587 92.5814482 66.0569106 92.5814482 66.0569106 75.0960128 54.8481588 75.0960128"></polygon>
                <polygon id="Shape" fill="#FFFFFF" points="42.8921569 92.5814482 42.8921569 92.5814482 54.5492587 92.5814482 54.8481588 75.0960128 43.2657819 75.0960128"></polygon>
                <path d="M124.865495,157.367228 L177.920253,183.445933 L177.920253,13.8969888 C143.033856,5.6268417 106.697134,5.6268417 71.8107365,13.8969888 L71.8107365,183.445933 L124.865495,157.367228 Z" id="Shape" fill="#C22026"></path>
                <polygon id="Shape" fill="#FFFFFF" points="75.9953372 41.7690718 92.4348398 55.7424753 141.006098 37.8834195 141.006098 73.0784625 118.214969 81.3728357 118.214969 60.5995407 94.004065 69.3422584 94.004065 155.57385 118.214969 143.244376 118.214969 101.02527 129.498446 96.915445 143.397298 154.826609 165.590626 143.543273 151.318149 88.845244 165.217001 83.7640064 165.217001 33.6241467 139.436872 18.0068134"></polygon>
                <polygon id="Shape" fill="#D1D3D4" points="92.4348398 55.7424753 141.006098 37.8834195 129.946796 31.158252 83.4678384 48.1206188"></polygon>
                <polygon id="Shape" fill="#D1D3D4" points="152.439024 68.968638 141.006098 73.0784625 141.006098 37.8834195 152.439024 44.7580351"></polygon>
                <polygon id="Shape" fill="#D1D3D4" points="129.498446 96.915445 139.735772 93.1045167 155.0544 148.848683 143.397298 154.826609"></polygon>
                <polygon id="Shape" fill="#D1D3D4" points="94.004065 69.3422584 106.408417 64.8588134 106.408417 141.002654 118.214969 143.244376 94.004065 155.57385"></polygon>
                <path d="M195.704806,113.877812 C192.023556,120.02887 188.03311,125.989524 183.748804,131.736868 L183.748804,92.6561722 L195.331181,92.6561722 L195.704806,113.877812 Z" id="Shape" fill="#1A3E6F"></path>
                <path d="M205.792683,47.5228262 L222.008011,47.5228262 C220.164835,56.8772717 217.667875,66.0909369 214.535509,75.0960128 L207.063008,75.0960128 L205.792683,47.5228262 Z" id="Shape" fill="#1A3E6F"></path>
                <polygon id="Shape" fill="#1A3E6F" points="194.359756 47.5228262 194.882831 75.0960128 183.748804 75.0960128 183.748804 47.5228262"></polygon>
                <path d="M194.135581,35.1186284 L194.135581,47.5228262 L183.748804,47.5228262 L183.748804,32.1296651 C187.26088,33.0263541 190.698231,34.0724912 194.135581,35.1186284" id="Shape" fill="#C22026"></path>
                <path d="M205.643233,39.0790048 C211.247609,41.1712791 216.851985,43.4877257 222.306911,46.0283445 C222.306911,46.5514131 222.306911,47.0744817 222.306911,47.5228262 L205.792683,47.5228262 L205.643233,39.0790048 Z" id="Shape" fill="#C22026"></path>
                <path d="M205.643233,39.0790048 L205.643233,47.5228262 L194.359756,47.5228262 L194.359756,35.1186284 C198.245457,36.3142137 201.832257,37.6592472 205.867408,39.0790048" id="Shape" fill="#FFFFFF"></path>
                <path d="M206.465208,75.0960128 L213.937709,75.0960128 C211.845409,80.9743073 209.354575,86.8027858 206.465208,92.5814482 L206.465208,75.0960128 Z" id="Shape" fill="#C22026"></path>
                <polygon id="Shape" fill="#C22026" points="195.256456 92.5814482 183.748804 92.5814482 183.748804 75.0960128 194.957556 75.0960128"></polygon>
                <polygon id="Shape" fill="#FFFFFF" points="206.913558 92.5814482 206.913558 92.5814482 195.256456 92.5814482 194.882831 75.0960128 206.465208 75.0960128"></polygon>
                <path d="M8.51865136,36.7625582 C26.9534091,26.8116671 46.5933882,19.2772419 66.9536107,14.3453333 L66.5799857,24.9561531 C50.3942249,29.1310316 34.6908409,34.9915518 19.7274032,42.4415885 C25.7752457,77.6478861 40.5759406,110.769168 62.76901,138.760931 L62.245935,153.705748 C33.398379,120.744538 14.7347287,80.1211037 8.51865136,36.7625582" id="Shape" fill="#C22026"></path>
                <path d="M241.287064,36.7625582 C222.874808,26.819884 203.260605,19.2857127 182.926829,14.3453333 L182.926829,24.9561531 C199.101518,29.0669463 214.803832,34.8519374 229.779412,42.2174163 C223.691653,77.4115644 208.895195,110.523366 186.737805,138.536759 L187.26088,153.481576 C216.162791,120.410213 234.829036,79.6513252 240.988164,36.1647656" id="Shape" fill="#C22026"></path>
            </g>
        </g>
    </g>
</svg>