<?xml version="1.0" encoding="UTF-8" standalone="no"?>
<svg width="250px" height="250px" viewBox="0 0 250 250" version="1.1" xmlns="http://www.w3.org/2000/svg" xmlns:xlink="http://www.w3.org/1999/xlink">
    <!-- Generator: Sketch 47.1 (45422) - http://www.bohemiancoding.com/sketch -->
    <title>ELON</title>
    <desc>Created with Sketch.</desc>
    <defs></defs>
    <g id="Page-1" stroke="none" stroke-width="1" fill="none" fill-rule="evenodd">
        <g id="ELON" fill-rule="nonzero">
            <g transform="translate(0.000000, 28.000000)" id="Shape">
                <path d="M134.399381,192.748708 C134.212552,192.664783 115.473575,184.831763 91.7182315,177.101319 C71.2417421,170.443252 38.2196664,165.911291 28.3831047,164.708363 L22.572714,164.083586 L35.8469345,146.552542 C34.9875198,145.041888 31.428422,145.52679 25.3004215,147.951296 C17.0425672,151.215054 3.58151735,153.042759 0.545541506,151.877131 L0.545541506,151.718605 C0.545541506,151.718605 18.2943234,143.419334 28.8221535,130.429577 C34.4830807,123.435809 30.2046902,121.337679 29.7562999,121.104553 C29.1834924,120.871552 28.5718923,120.748182 27.9533973,120.740877 L27.7385436,120.740877 L26.2906167,121.011303 L26.2906167,121.011303 C14.3242011,123.473109 5.25363943,122.148956 4.12332227,121.412279 L9.02759095,119.192924 C15.4272458,116.295458 21.6306991,112.984258 27.5984217,109.280424 L21.7413236,102.221381 L37.2294712,102.221381 C46.8605207,94.0899605 49.2893014,88.0473453 49.2519356,86.5739916 C49.1865453,86.5739916 49.1585209,86.2849159 48.7288136,86.2476158 C45.7675694,85.9865151 34.2121783,91.91723 30.2046902,93.9687352 L32.5774221,90.2387258 C46.5896183,72.4372561 73.2501569,54.1042601 89.4015484,45.9821647 C81.582743,46.0287898 74.1469375,49.7587991 61.5733268,58.459046 L62.9745464,55.7734392 C63.5256928,54.5332111 74.5673034,36.4892908 104.291842,32.1345049 C117.575404,30.185575 123.47921,27.6305186 127.794966,25.7561888 C129.650545,24.8780555 131.587065,24.1816355 133.577332,23.6767086 C135.445625,22.4924306 137.313918,21.3641028 138.733821,20.4782256 C157.80909,8.84059636 187.262727,0.093724388 207.290826,0.093724388 C214.586509,0.093724388 220.471632,1.2127272 224.778047,3.4041077 L229.962559,6.05241435 L224.208217,6.91031651 C223.974681,6.91031651 200.527606,10.5191006 181.994141,19.1820473 L179.471946,20.4595755 C174.595701,22.8840816 169.747482,25.4857632 165.058067,28.1806949 L164.768481,28.3485454 L162.900188,29.4395731 L162.264969,29.803249 L160.574164,30.8196766 C144.432114,42.0097047 129.140137,56.1557652 131.45682,60.3427007 C131.77443,60.9208522 133.044869,61.3498033 134.679625,61.3964284 C137.248528,61.4523785 139.994918,60.3613508 142.395675,59.270323 C145.104699,58.0300949 147.720309,56.472816 150.270529,54.9994623 C147.8233,54.393662 145.529446,53.2852763 143.535333,51.7450291 L140.340552,49.0967225 L144.618943,48.4439708 C144.843138,48.4439708 145.777285,48.2854454 149.289675,47.7352691 L149.682017,47.6793189 L154.81048,46.7468166 C155.557798,46.5509911 158.547066,45.7490391 162.395749,44.5740861 C169.364482,42.2055302 174.707799,39.9954996 179.004873,38.2330702 C184.889995,35.7992391 188.785385,34.195335 192.082922,34.195335 C192.777332,34.1919316 193.469896,34.2670098 194.147386,34.4191356 C194.455654,34.2979103 194.922727,34.1020848 195.408484,33.8876093 C196.454728,33.4493332 197.958703,32.7965815 200.079216,31.9480044 C204.858601,29.9504654 209.975645,28.8807523 215.156339,28.7961465 L216.5669,28.7961465 C226.300705,29.0852222 230.15873,33.0483572 230.15873,33.0483572 C230.15873,33.0483572 218.818193,34.5217109 213.643022,36.7783665 L213.540265,36.7783665 C209.50247,38.368394 205.63446,40.3583498 201.994216,42.7184065 C200.256703,43.8933594 198.855484,44.9564121 197.734508,45.8795894 L198.388411,45.7863392 C200.101215,45.5304037 201.831812,45.4119074 203.563582,45.4319883 C213.390802,45.3760381 218.790168,47.9777197 218.995681,47.9963697 C218.995681,47.9963697 201.032045,53.1997328 198.033435,54.3840108 L197.099289,54.7383616 C192.934525,56.3127908 188.855966,58.1056923 184.880653,60.1095751 L184.880653,60.1095751 L182.872239,61.1912779 C179.36919,63.0562825 172.493872,67.0473926 170.466774,68.3342458 C165.10801,71.5296153 159.916699,74.9968484 154.913236,78.7223219 L154.913236,78.7223219 C154.913236,78.7223219 153.605432,79.7480745 151.914626,81.2867033 L151.568992,80.9043774 L151.886602,81.3053534 L151.214017,80.5127264 L151.877261,81.3146784 L151.587675,81.5757791 C149.308358,83.8231097 146.916943,88.8959224 147.757675,90.4811764 C148.262114,91.4136788 150.055675,91.9731802 152.811407,91.9731802 C164.067871,91.9731802 185.74941,83.4128087 188.458434,82.331106 C190.634995,81.2867033 192.764849,80.2329757 194.81063,79.179248 L197.10863,77.9949701 L197.10863,77.9949701 C200.630362,76.1299654 204.114728,74.2090106 207.50568,72.2321056 L209.999851,70.805377 C227.384315,60.0909251 243.199414,42.4666308 243.358219,42.2894554 L247.234927,37.9533195 L246.609049,43.725509 C245.002317,58.6921716 226.84251,77.4820938 210.261412,90.1734506 C209.120329,92.0625692 207.769762,93.8174058 206.23524,95.4047888 C204.282546,97.5364657 202.457779,99.7814945 200.770484,102.128131 L249.560951,102.128131 L237.211536,119.314149 L237.136804,152.464607 L242.741682,161.575155 L241.284414,162.461032 L241.284414,162.461032 L242.751024,161.52853 L244.339073,164.130211 L239.014438,164.671063 C230.401608,165.846016 188.308971,171.748756 170.242579,177.54892 C158.353929,181.289314 146.901244,186.291241 136.080845,192.468958 L135.258796,192.972509 L134.399381,192.748708 Z" fill="#FFFFFF"></path>
                <path d="M38.453203,103.862585 L58.2664485,103.862585 C62.4887902,81.6224042 89.513646,48.0429948 133.063552,26.4648906 C133.409186,26.2783902 133.75482,26.1105397 134.091113,25.9426893 L133.063552,26.4648906 C129.030044,28.6828648 125.175909,31.2113915 121.536185,34.0274846 C126.664649,30.577226 131.512869,27.4999682 135.725869,25.0941122 C129.298942,26.0266145 126.244283,30.7730514 105.151257,33.794359 C79.6303769,37.4497682 65.9171076,54.3094106 65.9171076,54.3094106 C83.1988162,40.5923011 92.1479389,45.5811886 103.525842,41.5061534 C77.1730947,52.392494 53.6509387,69.1284734 34.7446417,90.4438763 C34.7446417,90.4438763 49.522838,81.7716045 51.4938869,85.3244385 C52.66157,87.4878439 49.0557648,95.0690879 38.453203,103.862585 Z" fill="#B59A57"></path>
                <path d="M37.9861298,145.47084 L37.9861298,117.999321 L30.8305683,109.457599 C24.3279391,113.752007 17.4495071,117.45046 10.2793471,120.507752 C15.721885,120.407076 21.1477465,119.873864 26.5054704,118.913173 L26.5054704,118.913173 C27.0285924,118.791948 26.9445192,118.819923 27.4396168,118.717347 C31.1762024,118.251096 37.7152273,121.971781 30.3541536,131.371404 C27.9440558,134.439337 27.0846411,135.409139 22.1056407,139.456199 C16.5201182,143.821634 10.5837759,147.720248 4.35685888,151.112479 C4.35685888,151.112479 18.4811527,149.163549 27.0472753,145.592065 C33.3994709,142.915783 36.500837,143.83896 37.9861298,145.47084 Z" fill="#B59A57"></path>
                <path d="M235.819657,118.577472 L246.403536,103.85326 L185.188922,103.85326 C210.410875,91.7866797 243.17139,62.5247562 245.235853,43.3898081 C245.235853,43.3898081 229.280633,61.2752031 211.419753,72.2973807 L208.934924,73.7241093 C183.853092,88.336421 150.746943,102.258681 144.889845,91.9825052 C144.085175,90.2079957 143.803283,88.2414573 144.077138,86.312891 C150.859041,77.7525195 169.924969,66.5811414 169.924969,66.5811414 C172.045482,65.229013 178.911458,61.2006029 182.470556,59.3449232 L182.470556,59.3449232 C187.420116,56.7199538 192.537917,54.4241118 197.790557,52.472381 C200.919947,51.2414779 213.493558,47.707294 213.493558,47.707294 C213.493558,47.707294 204.152094,46.5882912 199.154411,47.4461933 C196.538801,47.9031195 192.615386,48.7703467 192.615386,48.7703467 C192.615386,48.7703467 194.408947,45.721064 201.396362,41.0305772 C205.154112,38.568572 209.154418,36.4969482 213.334753,34.8480867 C217.072942,33.3425348 221.00863,32.3815431 225.020925,31.9946295 C225.020925,31.9946295 223.236705,30.7637264 216.912534,30.4746507 C211.527852,30.3500949 206.178231,31.3704558 201.218874,33.4679832 C196.548142,35.3329879 194.857337,36.2654902 194.605118,36.1442649 C189.299166,34.559011 182.283726,39.7064239 163.367262,46.1500151 C158.883359,47.5114685 155.548456,48.3786957 155.548456,48.3786957 C157.739875,49.2314848 160.055653,49.7228003 162.405091,49.8333993 C162.52653,49.9732747 162.638627,50.122475 162.750725,50.2623504 C155.660554,53.684634 132.633844,69.6956992 128.71043,62.058505 C123.311063,51.5398786 153.110334,31.5097283 179.088946,18.5665958 L181.648507,17.2704175 C200.649045,8.38367021 224.376364,4.84948633 224.376364,4.84948633 C207.12268,-3.95333578 164.086554,7.2646674 140.191089,21.849004 C135.034601,25.0008619 124.927137,31.388503 124.787015,31.4724282 L124.413356,31.780154 C107.523989,45.7676891 77.9489134,76.5402664 84.3104505,88.4016962 C88.1404508,95.6099393 102.61972,92.4394313 114.800989,87.7116445 C121.405405,85.0073877 124.273234,83.7205344 125.487624,83.142383 C123.946283,83.9816351 120.125624,86.2849159 112.484306,91.9918302 C108.050415,95.3937485 104.102947,99.3844661 100.751427,103.85326 L26.1785191,103.85326 L37.9487639,118.036621 L37.9487639,147.326519 L26.0570801,162.647533 L241.779512,162.712808 L235.754267,152.846933 L235.819657,118.577472 Z" fill="#6D0020"></path>
                <path d="M150.233163,49.320523 C152.456431,50.7752267 156.576017,51.4466284 159.91092,51.7543541 L164.787164,49.2738979 C161.37753,49.2738979 157.080456,49.1433476 155.529773,48.3413956 L150.233163,49.2738979 L150.233163,49.320523 Z" fill="#B59A57"></path>
                <path d="M159.91092,51.7543541 L159.602651,51.7543541 C156.314456,51.4373034 152.3817,50.7752267 150.261187,49.3578231 L150.261187,49.3578231 L150.027651,49.3578231 C145.356919,50.103825 145.198114,50.085175 145.198114,50.085175 C148.000553,52.3977808 152.755358,53.4888085 155.791334,53.9177596 C157.024407,53.302308 158.285505,52.5656312 159.6587,51.8942295 C159.966969,51.7543541 159.938944,51.7823292 159.948286,51.7543541 L159.91092,51.7543541 Z" fill="#010101"></path>
                <path d="M124.787015,31.4537782 C124.189161,31.8640792 123.60999,32.2837052 123.012136,32.6846812 C103.114818,46.8493918 72.0918154,80.1117504 78.5000598,91.6654544 C82.4328162,98.7617972 100.70472,92.9616327 115.043868,87.0682179 C102.899964,91.7960047 88.1217679,95.6099393 84.2917676,88.4016962 C77.8741817,76.4097161 107.963038,45.329413 124.787015,31.4537782 L124.787015,31.4537782 Z" fill="#B59A57"></path>
                <path d="M192.848922,38.4009206 C192.848922,38.4009206 185.188922,42.5132559 180.826458,43.8840344 C180.826458,43.8840344 186.235166,44.4062357 189.383239,42.4573058 L192.848922,38.4009206 Z" fill="#FFFFFF"></path>
                <path d="M180.835799,43.9213345 C179.282555,44.5274163 177.687177,45.0198353 176.062311,45.3946882 C176.062311,45.3946882 183.740995,46.6815414 187.449556,44.7419365 L189.401922,42.4852809 C186.478044,44.2663603 181.545751,43.9866096 180.835799,43.9213345 L180.835799,43.9213345 Z" fill="#221F1F"></path>
                <path d="M166.188384,25.3645379 C146.692748,34.8387617 113.549233,56.0252149 119.182136,66.0589401 C123.581966,73.8919598 144.936553,60.1095751 144.936553,60.1095751 C144.936553,60.1095751 128.822527,68.2689706 125.412893,62.6553065 C121.676307,56.5380912 140.83565,39.7250739 166.216408,25.3552128 L166.188384,25.3645379 Z" fill="#010101"></path>
                <path d="M156.071578,31.4164781 C135.903357,44.0798599 122.255478,57.2281429 125.244746,62.6926066 C127.178429,66.1708404 135.09065,64.6695116 141.452187,61.6109039 C138.976699,62.8045069 131.90521,64.0633851 130.24243,61.0234274 C125.571698,52.6309064 160.181822,28.8893967 160.181822,28.8893967 L156.071578,31.4164781 Z" fill="#B59A57"></path>
                <path d="M196.155801,80.6992269 C177.538263,91.7960047 141.629674,107.872345 136.30504,97.6800945 C132.148088,89.7071995 154.240651,77.0811178 154.240651,77.0811178 C154.240651,77.0811178 139.724016,88.4110212 142.573162,94.3324111 C145.674528,100.776002 170.242579,94.0060353 196.146459,80.6619268 L196.155801,80.6992269 Z" fill="#010101"></path>
                <path d="M185.543897,85.8839399 C163.881042,95.7964398 145.375602,99.9927003 142.470406,94.4722864 C140.602113,90.9474276 145.693211,84.1308355 151.204675,79.7200994 C149.018773,81.4638788 144.964577,88.1592456 146.589992,91.2271783 C151.055212,99.6756495 189.915703,83.8137847 189.915703,83.8137847 L185.543897,85.8839399 Z" fill="#B59A57"></path>
                <path d="M26.8697875,162.395757 C26.8697875,162.395757 68.6074493,167.272744 92.7177682,175.124414 C116.828087,182.976084 135.548381,190.827753 135.548381,190.827753 C146.485193,184.543359 158.074533,179.465531 170.111799,175.683915 C190.840508,169.025849 241.658073,162.405082 241.658073,162.405082 L26.8697875,162.395757 Z" fill="#6D0020"></path>
                <path d="M59.2005949,162.479682 L205.665411,162.526307 C205.665411,162.526307 177.052507,165.379765 162.14353,170.704353 C152.880486,174.050618 143.90759,178.148681 135.314845,182.957434 C124.919366,178.306051 114.275872,174.227986 103.432428,170.741653 C87.1315727,165.59424 59.2005949,162.479682 59.2005949,162.479682 Z" fill="#030406"></path>
                <path d="M87.7667922,162.405082 L179.94836,162.405082 C179.94836,162.405082 161.89131,164.428612 152.493797,167.785621 C146.614847,169.925585 140.978716,172.679303 135.679162,176.000966 C129.134103,172.796397 122.373171,170.051291 115.44555,167.785621 C105.179281,164.568488 87.7667922,162.405082 87.7667922,162.405082 Z" fill="#B59A57"></path>
                <path d="M197.734508,103.85326 C203.600948,94.7706872 207.290826,92.8777074 209.476729,88.4483213 C204.310899,93.0175828 197.622411,98.4074463 190.205288,103.85326 L197.734508,103.85326 Z" fill="#B59A57"></path>
                <path d="M98.9578663,103.85326 C109.233477,93.4185588 128.430186,81.7809296 133.521284,78.8715223 L133.521284,78.8715223 C125.758527,82.8160072 84.94567,102.184081 79.3407916,91.8333048 C72.8671569,79.8692998 105.356769,44.6580113 125.113966,31.2206526 C86.8139629,56.2210404 65.0296685,84.3080109 64.6746929,103.83461 L98.9578663,103.85326 Z" fill="#231F20"></path>
                <path d="M101.050354,103.85326 C104.646818,99.0322229 110.690745,94.0433354 116.557185,89.8657249 C110.410501,94.0619854 103.796745,99.0322229 98.9952321,103.85326 L101.050354,103.85326 Z" fill="#B59A57"></path>
                <path d="M37.5937883,158.721698 L35.454593,158.721698 L43.002496,149.583175 L43.002496,117.066818 L35.454593,107.928295 L37.5937883,107.928295 L81.0502795,107.928295 L81.0502795,126.914043 L73.0166203,118.176496 L58.7335217,118.176496 L58.7335217,127.660045 L65.2725466,127.660045 L73.091352,122.018406 L73.091352,141.83408 L73.091352,143.699085 L65.281888,137.964196 L58.7428631,137.964196 L58.7428631,147.895346 C58.7315411,148.051397 58.7571407,148.207919 58.8175948,148.352272 C58.9586247,148.413615 59.1126483,148.43924 59.2659851,148.426872 L72.8764984,148.426872 L82.1338893,139.362949 L82.1338893,158.721698 L37.5937883,158.721698 Z" fill="#B59A57"></path>
                <path d="M79.0792306,122.167606 L73.8013033,116.432717 L56.9866679,116.432717 L56.9866679,129.487749 L65.8890832,129.487749 L71.1670104,125.68314 L71.3444983,125.68314 L71.3444983,140.099626 L71.138986,140.099626 L65.8610588,136.239066 L56.9586435,136.239066 L56.9586435,147.895346 C56.8791121,148.525546 57.0951439,149.157146 57.5441632,149.607197 C57.9931826,150.057249 58.6250148,150.275461 59.2566436,150.198626 L73.5957911,150.198626 L80.134816,143.773685 L80.3403282,143.773685 L80.3403282,156.949943 L39.3686665,156.949943 L39.3686665,156.754118 L44.7773742,150.226601 L44.7773742,116.432717 L39.3686665,109.9052 L39.3686665,109.70005 L79.2754013,109.70005 L79.2754013,122.195581 L79.0792306,122.167606 Z" fill="#FFFFFF"></path>
                <polygon fill="#B59A57" points="84.3104505 158.777648 82.1899381 158.777648 89.7191582 149.620475 89.7191582 117.122768 82.1058649 107.95627 84.3104505 107.965595 110.858892 107.965595 113.08216 107.95627 105.450184 117.122768 105.450184 148.482822 117.136355 148.482822 126.384405 139.484175 126.393746 142.067206 126.393746 158.777648"></polygon>
                <polygon fill="#FFFFFF" points="103.675306 116.488667 103.675306 150.226601 117.855648 150.226601 124.394673 143.810985 124.590844 143.810985 124.590844 156.977918 86.0853287 156.977918 86.0853287 156.772768 91.4940364 150.245252 91.4940364 116.488667 86.0853287 109.96115 86.0853287 109.765325 109.084013 109.765325 109.084013 109.96115"></polygon>
                <path d="M154.025797,159.3931 C140.592772,159.3931 126.309673,150.394452 126.309673,133.72131 L126.309673,132.910033 C126.309673,116.227566 140.592772,107.228918 154.025797,107.228918 C167.458823,107.228918 181.741922,116.227566 181.741922,132.910033 L181.741922,133.72131 C181.741922,150.394452 167.458823,159.3931 154.025797,159.3931 Z M154.025797,117.523744 C147.589529,117.523744 143.264431,123.650285 143.264431,132.770158 L143.264431,133.85186 C143.264431,142.971733 147.589529,149.098274 154.025797,149.098274 C160.462066,149.098274 164.75914,142.971733 164.75914,133.85186 L164.75914,132.770158 C164.75914,123.650285 160.462066,117.523744 154.025797,117.523744 Z" fill="#B59A57"></path>
                <path d="M179.967043,132.910033 L179.967043,133.72131 C179.967043,148.911773 167.215945,157.621345 154.025797,157.621345 C140.83565,157.621345 128.084551,148.911773 128.084551,133.72131 L128.084551,132.910033 C128.084551,117.710245 140.90104,109.000673 154.025797,109.000673 C167.150555,109.000673 179.967043,117.710245 179.967043,132.910033 Z M141.489553,132.770158 L141.489553,133.85186 C141.489553,143.848285 146.431187,150.870028 154.025797,150.870028 C161.620408,150.870028 166.571384,143.848285 166.571384,133.85186 L166.571384,132.770158 C166.571384,122.708457 161.620408,115.75199 154.025797,115.75199 C146.431187,115.75199 141.489553,122.708457 141.489553,132.770158 L141.489553,132.770158 Z" fill="#FFFFFF"></path>
                <polygon fill="#B59A57" points="221.377754 158.721698 195.202971 124.629412 195.202971 149.5552 202.862972 158.749673 200.621021 158.721698 178.808702 158.721698 176.632141 158.675073 184.217409 149.5552 184.217409 117.066818 176.632141 107.928295 178.808702 107.909645 202.227752 107.909645 220.480973 131.725755 220.480973 117.066818 212.989119 107.928295 215.062924 107.909645 236.60434 107.909645 238.827609 107.928295 231.195633 117.066818 231.195633 158.721698"></polygon>
                <polygon fill="#FFFFFF" points="229.420754 116.432717 229.420754 156.949943 222.24651 156.949943 193.428093 119.398074 193.428093 150.170651 198.846142 156.698168 198.846142 156.903318 180.574238 156.903318 180.574238 156.754118 185.992288 150.226601 185.992288 116.432717 180.574238 109.9052 180.574238 109.70005 201.340313 109.70005 222.24651 136.985068 222.24651 116.470017 216.837802 109.9425 216.837802 109.73735 234.820121 109.73735 234.820121 109.9425"></polygon>
            </g>
        </g>
    </g>
</svg>