<?xml version="1.0" encoding="UTF-8" standalone="no"?>
<svg width="250px" height="250px" viewBox="0 0 250 250" version="1.1" xmlns="http://www.w3.org/2000/svg" xmlns:xlink="http://www.w3.org/1999/xlink">
    <!-- Generator: Sketch 47.1 (45422) - http://www.bohemiancoding.com/sketch -->
    <title>LIB</title>
    <desc>Created with Sketch.</desc>
    <defs></defs>
    <g id="Page-1" stroke="none" stroke-width="1" fill="none" fill-rule="evenodd">
        <g id="LIB" fill-rule="nonzero">
            <g id="Group" transform="translate(0.000000, 13.000000)">
                <path d="M131.751009,168.014159 C131.751009,170.558755 131.751009,172.403587 137.678761,172.403587 C139.264309,172.536913 140.834114,172.006986 142.013031,170.940444 C143.287816,169.668146 144.75382,167.632469 146.538519,159.807836 L154.31471,123.547343 C154.31471,122.974809 154.633406,121.320821 154.31471,120.748287 C152.432912,119.44982 150.225604,118.7008 147.940783,118.585381 L142.267988,118.140076 L132.770837,162.161588 C132.348532,164.08396 132.134837,166.046124 132.133444,168.014159" id="Shape" fill="#1E3160"></path>
                <path d="M68.0117386,122.33866 L84.8389059,122.33866 C85.0186308,121.823709 85.0186308,121.263238 84.8389059,120.748287 C82.9717102,119.421116 80.7557541,118.669161 78.4649789,118.585381 L76.1066259,118.585381 C73.8120122,118.585381 71.5173985,118.585381 69.2227848,118.585381 L68.0117386,122.33866 Z" id="Shape" fill="#1E3160"></path>
                <path d="M169.99457,31.1148924 C169.99457,31.1148924 169.612135,31.1148924 169.420917,31.1148924 C169.24862,31.1833686 169.095524,31.29251 168.974742,31.4329669 L168.974742,31.4329669 L168.974742,31.4329669 L168.974742,31.4329669 C168.708783,31.796103 168.514136,32.2062234 168.401089,32.64165 L168.401089,32.64165 L168.401089,32.64165 C168.401089,32.64165 168.401089,32.9597245 168.401089,33.1505692 L168.401089,33.1505692 C168.3649,33.3182864 168.3649,33.4917712 168.401089,33.6594884 L168.401089,33.6594884 C168.386217,34.528633 168.606408,35.3857027 169.038481,36.1404695 L169.038481,36.1404695 C169.700493,37.3609782 170.666371,38.3906991 171.843009,39.1303698 L172.289184,39.4484443 C172.851221,39.7898602 173.449866,40.06726 174.073884,40.275438 C175.214194,40.6556844 176.470659,40.4145279 177.388326,39.639289 C175.670141,39.5431635 174.140775,38.5207404 173.397822,36.971527 C172.654868,35.4223135 172.816257,33.5922195 173.818927,32.1963457 C172.512795,31.9571554 171.232293,31.5950546 169.99457,31.1148924" id="Shape" fill="#FFFFFF"></path>
                <path d="M179.173025,32.7052649 C180.39791,33.2633819 181.653455,33.7518769 182.933642,34.1684076 C183.546515,34.2580481 184.169208,34.2580481 184.782081,34.1684076 C185.788196,34.3136372 186.810846,34.0530931 187.624112,33.4443333 C188.437379,32.8355735 188.974332,31.9286977 189.116351,30.9240476 C189.881223,24.5625576 179.810418,21.1273529 179.491722,21.0001231 L176.368497,19.9822847 C172.219826,18.4455909 167.95769,17.2332523 163.620643,16.3562354 C176.049801,21.5090424 179.555461,27.4252281 179.045547,32.7688798" id="Shape" fill="#C7C8C9"></path>
                <path d="M145.008777,50.3902072 C152.784968,49.4359837 156.545584,45.3646301 156.418106,40.5935125 C156.418106,45.3646301 152.784968,49.4359837 145.008777,50.3902072" id="Shape" fill="#FFFFFF"></path>
                <path d="M201.226813,81.7523533 C205.19444,81.883405 209.010309,80.2245211 211.616314,77.2356953 C212.178247,76.3669962 212.446323,75.3413737 212.381185,74.3094099 L210.277789,73.6732609 C201.979256,71.3932023 193.294238,70.873118 184.782081,72.1465033 L181.4039,72.7826523 C179.489528,73.3205123 177.664266,74.1349196 175.986062,75.2000185 C177.89824,75.7089377 180.447811,76.5995463 183.443556,77.6173847 L188.415219,79.334987 L193.5781,80.9253596 C194.215493,80.9253596 195.426539,81.4342788 197.020021,81.7523533 C198.482116,81.9034368 199.955935,81.9034368 201.41803,81.7523533" id="Shape" fill="#FFFFFF"></path>
                <path d="M218.372676,76.154242 L218.372676,76.154242 C216.460498,75.3908632 214.484581,74.6910993 212.381185,74.0549503 C212.41756,75.0839456 212.151696,76.1011034 211.616314,76.9812357 C209.059613,80.0648099 205.236514,81.8204723 201.226813,81.7523533 C199.764717,81.9034368 198.290898,81.9034368 196.828803,81.7523533 C198.167328,81.7523533 199.760809,82.3248874 201.545509,82.579347 C205.099315,82.9374953 208.686736,82.7659781 212.189967,82.0704278 C214.879442,81.6700075 217.484867,80.8318809 219.902419,79.5894466 C220.725975,79.1405895 221.514341,78.630215 222.260772,78.062689 L220.985986,77.2356953 L218.691373,76.2814718" id="Shape" fill="#C7C8C9"></path>
                <polyline id="Shape" fill="#FFFFFF" points="205.624822 63.2404172 204.604994 63.2404172 205.624822 63.2404172"></polyline>
                <path d="M227.359913,60.123287 C219.902419,41.7385808 194.661668,41.4841212 192.112097,41.611351 L192.112097,41.611351 C187.622169,46.8667621 182.304713,51.3573679 176.368497,54.9068652 C172.171433,57.4605817 167.676042,59.4902428 162.983251,60.9502808 C159.399731,62.0785983 155.701189,62.8040612 151.956357,63.1131874 L149.215568,63.5584917 C146.857215,63.9401811 144.75382,64.3218705 142.841641,64.7671748 C137.7425,66.1030877 134.874233,68.2659943 136.02154,74.4366397 C137.168846,80.6072851 141.885552,81.8795831 147.30339,80.7981298 C150.743385,79.9939279 154.079624,78.7986407 157.246716,77.2356953 C157.8176,76.9985659 158.371333,76.7222395 158.903937,76.4087016 C161.007333,75.3272483 163.238208,73.8004907 164.83169,72.8462672 C176.384068,65.2599788 190.2162,61.909871 203.967601,63.367647 L204.413776,63.367647 C220.221115,65.3397089 231.439227,70.8105904 227.168696,60.3777466 M205.943519,47.6547665 C205.943519,47.6547665 198.740981,52.6167288 198.549763,50.3902072 C198.358546,48.1636857 198.995938,45.4918599 204.222558,45.428245 C209.449178,45.3646301 205.943519,47.6547665 205.943519,47.6547665" id="Shape" fill="#FFFFFF"></path>
                <path d="M113.457838,68.8385284 C110.136636,65.9813119 106.06847,64.1277298 101.729812,63.4948768 C95.50245,62.6056759 89.1932241,62.4349121 82.9267278,62.9859576 C82.9267278,62.9859576 104.59808,62.9859576 102.558423,74.3094099 C101.729812,78.8896827 97.6504991,80.6709 92.3601397,80.6709 C94.6547534,81.3706639 96.9493672,82.1340427 99.1802416,83.0246513 C117.792108,90.213135 118.302023,74.0549503 113.457838,68.9657582" id="Shape" fill="#C7C8C9"></path>
                <path d="M246.481694,58.7237592 C243.174558,51.2780513 238.125223,44.7332691 231.757923,39.639289 C225.17564,34.6186558 217.441972,31.3169411 209.257961,30.033439 L208.875525,29.2700602 C208.214628,28.0258157 207.491333,26.8155981 206.70839,25.6440109 C205.192805,23.3298143 203.417899,21.1955463 201.41803,19.2825208 C191.766782,10.7429044 179.907685,5.07839596 167.190043,2.93349137 C163.620643,2.23372746 159.860027,1.59757845 155.971931,1.21588905 C152.083836,0.834199644 148.896872,0.45251024 145.008777,0.198050638 C142.395467,0.198050638 139.654678,0.198050638 136.977629,0.198050638 C108.486175,-0.374483468 80.7595926,6.6231556 46.0216905,22.7177255 C36.1421037,27.488843 25.816342,32.7052649 15.2993624,36.3949291 L8.92543546,38.6214506 L1.97785504,70.8742053 L17.0203227,72.337348 C18.6580612,72.4681386 20.2055007,73.1396256 21.4183324,74.245795 L21.4183324,74.245795 C21.7450097,75.2592615 21.7450097,76.3494586 21.4183324,77.3629251 L21.4183324,78.4443784 L20.2072862,84.1061046 L16.7016264,100.518749 L14.5344912,108.406997 L13.3871843,113.750648 L0.894287452,172.658046 L76.4890615,172.658046 C76.1171031,178.937601 76.8946726,185.232248 78.7836752,191.233597 C79.1661109,192.44228 79.6122857,193.587349 80.1221999,194.796032 C85.7256805,207.422144 96.8085878,216.796111 110.207135,220.241992 C118.066731,222.480251 126.191461,223.657001 134.364319,223.740812 C155.589495,223.740812 170.631963,218.333545 181.786335,206.628403 C191.009031,196.225745 197.164354,183.47672 199.569592,169.795376 L216.26928,92.6941162 C218.051769,92.0262982 219.77818,91.2179576 221.432161,90.27675 C223.360014,89.275568 225.194485,88.1046493 226.913738,86.7779304 L226.913738,86.7779304 L227.869827,87.5413092 C229.635534,89.1055411 231.066419,91.0096645 232.076619,93.1394205 C234.95359,98.0370823 236.878227,103.432818 237.749414,109.043146 C243.65797,99.903991 247.587575,89.6332819 249.286222,78.8896827 L249.286222,78.8896827 C249.317703,78.4449327 249.317703,77.9985199 249.286222,77.5537698 C249.73048,71.042996 248.684231,64.5166992 246.226737,58.4692996 L246.481694,58.7237592 Z M209.576657,94.093644 L193.64184,168.268618 C191.526623,180.877862 185.91863,192.644889 177.452065,202.238975 C167.508739,212.671819 153.804796,217.506551 134.364319,217.506551 C126.749135,217.422192 119.180435,216.309431 111.864356,214.198576 C100.197909,211.25762 90.5224767,203.147989 85.6037771,192.187821 C85.2213415,191.169982 84.8389059,190.152144 84.5202095,189.134306 C82.5852628,182.969254 81.977085,176.465778 82.73551,170.049835 C82.73551,169.604531 82.73551,169.222842 82.73551,168.777537 L82.73551,166.360171 L8.35178203,166.360171 L19.3149364,114.895716 L20.4622433,109.552065 L22.2469429,101.218513 L26.0075598,83.5971854 L27.0273881,78.8260678 C27.0273881,78.1899188 27.0273881,77.6173847 27.0273881,77.0448506 C27.2786506,75.742101 27.2786506,74.4034764 27.0273881,73.1007268 C26.8182029,72.4270664 26.5179896,71.7850075 26.1350383,71.1922798 C23.9615839,68.6538677 20.914474,67.0198092 17.5939762,66.6120069 L9.24413181,65.7850132 L9.24413181,64.3218705 L11.411267,54.7796354 L12.9410095,47.7183814 L77.4451506,47.7183814 L74.00323,64.1310258 L71.4536592,75.8997824 L68.7766099,88.6227625 L66.2907783,100.327904 L63.4225112,113.623418 L62.3389436,118.903455 L60.2355477,128.127616 L89.5556119,128.127616 L90.3204831,124.119877 C90.9072164,121.777821 90.5161704,119.298376 89.2369155,117.249468 L88.8544799,116.676934 C86.4611694,114.423899 83.3937677,113.016095 80.1221999,112.669195 L78.1462825,112.669195 L72.4097483,112.223891 L76.4890615,94.1572589 L141.24816,94.1572589 L140.037114,99.5645254 L138.698589,105.926016 L126.715606,161.016519 C126.238435,163.468626 126.003598,165.961561 126.014474,168.459463 C126.014474,172.785276 127.735435,178.574232 137.933718,178.574232 C141.185957,178.70131 144.346195,177.481122 146.665998,175.202642 C149.983518,171.21784 152.065567,166.354468 152.657489,161.207364 L160.43368,124.819641 C161.276715,122.160103 160.752135,119.256747 159.031416,117.058623 C156.073676,114.419305 152.287651,112.889857 148.323219,112.73281 L142.586684,112.287506 L144.626341,103.381419 L146.028605,97.0199294 L146.665998,94.3481036 L209.767875,94.3481036 L209.576657,94.093644 Z M75.3417547,118.394536 L77.7001077,118.394536 C79.9908829,118.478316 82.206839,119.230271 84.0740346,120.557443 C84.2537595,121.072393 84.2537595,121.632864 84.0740346,122.147815 L68.0117386,122.147815 L68.7766099,118.394536 C71.0712236,118.394536 73.3658373,118.394536 75.660451,118.394536 L75.3417547,118.394536 Z M142.459206,118.394536 L148.132001,118.83984 C150.416822,118.95526 152.62413,119.70428 154.505928,121.002747 C154.952103,121.575281 154.505928,123.229268 154.505928,123.801803 L146.793476,159.935066 C145.008777,167.759699 143.542773,169.795376 142.267988,171.067674 C141.156757,172.131198 139.663831,172.70428 138.124935,172.658046 C132.45214,172.658046 132.388401,170.813214 132.197183,168.268618 C132.198576,166.300584 132.412272,164.338419 132.834576,162.416047 L142.459206,118.394536 Z M239.342896,96.1929357 C237.968484,91.335495 235.303621,86.9393578 231.630444,83.4699556 C230.05714,82.1784226 228.372058,81.0288419 226.595042,80.0347509 C222.76432,83.8979742 217.966122,86.6658335 212.699881,88.0502284 C206.980869,89.9900994 200.862147,90.4497498 194.916625,89.3861413 C192.493552,89.0698232 190.089245,88.6238769 187.714087,88.0502284 C186.248084,87.7321539 184.782081,87.2868496 183.379817,86.8415453 C178.993017,85.4065699 174.729808,83.6195161 170.631963,81.4978937 C168.27361,83.4063407 165.214125,85.6328622 161.517248,87.8593837 L74.959319,87.8593837 L77.3814113,76.5995463 C82.034378,77.5537698 87.1972589,78.7624529 92.3601397,80.3528254 C97.6504991,80.3528254 101.729812,78.698838 102.558423,73.9913354 C104.59808,62.4770384 83.0542063,62.731498 82.9267278,62.731498 L80.2496784,62.731498 L84.9026451,40.975202 L16.38293,40.975202 C26.772431,37.0310781 36.6520179,32.4508053 48.252565,27.0435387 C79.5485465,12.4121116 110.270875,2.86987646 144.562602,4.96916819 C148.386958,4.96916819 152.083836,5.60531719 155.270799,5.9233917 C158.457763,6.2414662 162.600815,6.94123011 166.042736,7.57737911 C177.860962,9.55702171 188.895027,14.7769635 197.912371,22.6541106 C199.589461,24.2277554 201.066525,26.001046 202.31038,27.9341473 C203.028747,28.9562563 203.688445,30.0182103 204.286298,31.1148924 L204.732473,32.1963457 C204.949428,32.8565186 205.226801,33.4953619 205.561083,34.1047927 C213.779503,35.178428 221.611813,38.235366 228.379742,43.0108788 C234.101257,47.6316816 238.644569,53.5395439 241.63751,60.2505168 C246.024739,71.7659579 245.139643,84.6212962 239.215418,95.4295569 L239.342896,96.1929357 Z" id="Shape" fill="#FFFFFF"></path>
                <path d="M162.21838,56.4972377 C164.708292,55.6987528 167.136779,54.7207491 169.484656,53.5709523 C170.634038,53.0884889 171.742461,52.5140841 172.799098,51.85335 L173.56397,51.4080457 L174.456319,50.8355116 C175.626427,50.0699856 176.754138,49.2417792 177.834501,48.3545304 C178.216936,47.972841 178.663111,47.5911516 178.981807,47.2094622 C179.506868,46.6688904 179.996546,46.0951719 180.447811,45.4918599 L178.408154,45.4918599 L177.133369,45.4918599 L174.137623,45.4918599 L172.034227,45.428245 C169.99316,47.0087339 167.865201,48.4741608 165.6603,49.8176731 L165.6603,49.8176731 C163.097532,51.3362516 160.296049,52.4116426 157.374195,52.9984182 C129.073959,59.3599082 117.282194,42.6291894 117.282194,42.6291894 C122.760898,47.0330604 129.404602,49.751664 136.403975,50.4538221 C136.403975,50.4538221 149.151829,49.5632135 149.98044,40.975202 C150.094033,36.4690064 147.618743,32.2939271 143.606513,30.2242837 C136.586661,26.4364863 128.398435,25.4149551 120.660376,27.3616132 C118.429501,27.9341473 116.708541,28.5066814 115.752452,28.8247559 L115.242538,28.8247559 L115.242538,28.8247559 C121.896478,23.4728895 130.217608,20.6145658 138.762328,20.7456635 L141.821813,20.7456635 C153.074655,20.5833446 164.137095,23.6527022 173.691448,29.5881347 C175.539887,30.669588 177.324586,31.6874265 179.300504,32.64165 C179.682939,27.2979983 176.368497,21.4454275 163.620643,16.2290056 C158.732076,15.1588604 153.766026,14.4781586 148.769394,14.1933288 L148.769394,14.1933288 C143.111649,13.6872753 137.430054,13.4961346 131.751009,13.6207947 C125.177377,13.6217357 118.613745,14.1321896 112.119313,15.1475523 L108.422436,15.7200864 L106.637736,16.1017758 L101.09242,17.246844 C97.9054562,18.0102228 94.7184927,18.8372165 91.2765721,19.9186698 C87.1552211,21.2374177 83.1119381,22.7878584 79.1661109,24.5625576 L76.4890615,25.8348556 C74.2581871,26.9799238 72.0273126,28.1886069 70.1151345,29.4609049 L70.1151345,29.4609049 C84.670853,25.3511769 99.6313728,22.8341815 114.732623,21.9543467 C106.199329,24.7774821 98.7001218,30.0698289 93.1887502,37.1583079 C129.520134,24.4353278 139.782157,38.6850655 142.204249,43.519798 C142.204249,43.519798 125.249603,31.4329669 110.334614,39.8937486 C109.087149,40.6441658 107.968162,41.5891529 107.020172,42.6928043 C102.239727,50.1357476 108.358696,58.5965294 117.218455,60.8866659 C126.078213,63.1768023 149.08809,59.8052125 149.08809,59.8052125 C153.553336,59.2454372 157.95174,58.2438759 162.21838,56.8153122" id="Shape" fill="#FFFFFF"></path>
                <path d="M228.188524,43.519798 C221.420595,38.7442852 213.588286,35.6873472 205.369865,34.6137119 C205.009116,34.0175503 204.730411,33.3756382 204.541255,32.7052649 L204.09508,31.6238116 C203.497228,30.5271295 202.837529,29.4651755 202.119162,28.4430665 C200.875307,26.5099652 199.398243,24.7366746 197.721153,23.1630298 C188.703809,15.2858827 177.669744,10.0659409 165.851518,8.08629832 C162.409597,7.45014931 158.776459,6.87761521 155.079581,6.4323109 C151.382704,5.9870066 148.386958,5.73254699 144.498862,5.47808739 C110.207135,3.37879567 79.4848072,12.9210308 48.1888257,27.5524579 C36.5882786,32.9597245 26.6449525,37.5399973 16.3191908,41.4841212 L84.9026451,41.4841212 L80.2496784,63.2404172 L82.9267278,63.2404172 C89.1897295,62.6383123 95.5024737,62.7878139 101.729812,63.6857215 C106.082587,64.3123513 110.158064,66.1913709 113.457838,69.092988 C118.110805,74.1185652 117.792108,90.3403649 99.1802416,83.0882662 C96.9493672,82.2612725 94.6547534,81.4342788 92.3601397,80.7345149 C87.1972589,79.1441423 82.034378,77.9354592 77.3814113,76.9812357 L74.959319,88.2410731 L161.453508,88.2410731 C165.150386,85.8237069 168.209871,83.5971854 170.568224,81.8795831 C174.666069,84.0012055 178.929277,85.7882593 183.316078,87.2232347 C184.732138,87.7223761 186.180144,88.1261765 187.650348,88.4319178 C190.025505,89.0055663 192.429812,89.4515126 194.852886,89.7678307 C200.798408,90.8314392 206.91713,90.3717888 212.636142,88.4319178 C217.808604,86.9416793 222.493058,84.1101512 226.212606,80.2255956 C227.989623,81.2196866 229.674705,82.3692673 231.248009,83.6608003 C234.921185,87.1302025 237.586048,91.5263397 238.96046,96.3837804 C244.884686,85.5755198 245.769782,72.7201814 241.382553,61.2047404 C238.389612,54.4937674 233.846299,48.5859051 228.124785,43.9651023 M117.409673,60.5685913 C108.549914,58.2784549 102.430944,49.8176731 107.21139,42.3747298 C108.151456,41.2875529 109.246767,40.344423 110.462092,39.5756741 C125.185864,31.1148924 142.331727,43.2017235 142.331727,43.2017235 C139.909635,38.4942208 129.583873,24.1172533 93.2524895,36.8402334 C98.7995281,29.7610443 106.31575,24.4723368 114.860102,21.6362722 C99.7588514,22.516107 84.7983315,25.0331024 70.2426131,29.1428304 L70.2426131,29.1428304 C72.4097483,27.8705324 74.6406227,26.6618493 76.6165401,25.5167811 L79.2935894,24.2444831 C83.2393661,22.5781357 87.2837695,21.1547342 91.4040507,19.9822847 C94.782232,18.9008314 97.7779777,18.0738377 101.219898,17.3104589 C103.068337,16.8651546 104.980515,16.4834652 106.765215,16.1653907 L108.549914,15.7837013 L112.246792,15.2111672 C118.697522,14.1810467 125.21829,13.6493437 131.751009,13.6207947 C137.412357,13.5619203 143.072614,13.8167721 148.705654,14.3841735 L148.705654,14.3841735 C153.715113,14.6424683 158.699562,15.2589937 163.620643,16.2290056 C167.953431,17.1779688 172.213387,18.4322037 176.368497,19.9822847 L179.491722,21.1273529 C179.874157,21.1273529 189.944962,25.0078619 189.180091,31.0512775 C189.086868,32.1033927 188.560989,33.0699187 187.727583,33.7208765 C186.894178,34.3718343 185.827761,34.6490211 184.782081,34.4864821 C184.169208,34.5761226 183.546515,34.5761226 182.933642,34.4864821 C181.653455,34.0699514 180.39791,33.5814564 179.173025,33.0233394 C177.197108,32.0691159 175.412408,31.0512775 173.56397,29.9698241 C164.003816,24.0475808 152.945325,20.979319 141.694335,21.1273529 L138.762328,21.1273529 C130.130519,20.9362198 121.709095,23.7979732 114.987581,29.2064453 L114.987581,29.2064453 L115.497495,29.2064453 C116.389844,29.2064453 118.174544,28.3158367 120.405418,27.7433026 C129.930919,24.1119552 140.608505,25.1235232 149.279308,30.4787433 C150.735235,31.5044673 152.043439,32.7245027 153.167403,34.1047927 C154.536474,35.6811839 155.518544,37.5543676 156.03567,39.5756741 L156.03567,39.5756741 L156.03567,39.9573635 C156.03567,40.275438 156.03567,40.5935125 156.03567,40.9115871 C156.03567,45.6827046 152.402532,49.7540582 144.626341,50.7082817 C141.749002,51.082673 138.835139,51.082673 135.9578,50.7082817 L135.9578,50.7082817 C128.960627,49.9524257 122.32591,47.2154268 116.836019,42.8200341 C116.836019,42.8200341 128.627784,59.2962933 156.92802,53.1892629 C159.849874,52.6024873 162.651357,51.5270963 165.214125,50.0085178 L165.214125,50.0085178 C167.419026,48.6650055 169.546985,47.1995786 171.588052,45.6190897 L173.691448,46.0007791 L176.687194,46.0007791 L177.961979,46.0007791 L180.001636,46.0007791 C179.550371,46.6040911 179.060693,47.1778096 178.535633,47.7183814 C178.535633,48.1000708 177.770761,48.4817602 177.388326,48.8634496 C176.307963,49.7506984 175.180252,50.5789048 174.010144,51.3444308 L173.117795,51.9169649 L172.352923,52.3622692 C171.296287,53.0230033 170.187863,53.5974081 169.038481,54.0798715 C166.690604,55.2296683 164.262117,56.207672 161.772205,57.0061569 C157.505565,58.4347206 153.107161,59.4362819 148.641915,59.9960572 C148.641915,59.9960572 125.759517,63.4312619 116.77228,61.0775106 M176.368497,40.6571274 C175.450831,41.4323663 174.194365,41.6735228 173.054055,41.2932765 C172.430037,41.0850984 171.831393,40.8076986 171.269356,40.4662827 L170.823181,40.1482082 C169.646543,39.4085375 168.680664,38.3788166 168.018653,37.1583079 L168.018653,37.1583079 C167.58658,36.4035411 167.366388,35.5464714 167.38126,34.6773268 L167.38126,34.6773268 C167.345071,34.5096096 167.345071,34.3361248 167.38126,34.1684076 L167.38126,34.1684076 C167.345071,34.0006904 167.345071,33.8272056 167.38126,33.6594884 L167.38126,33.6594884 L167.38126,33.6594884 C167.541681,33.2313242 167.755853,32.8251906 168.018653,32.4508053 L168.018653,32.4508053 L168.018653,32.4508053 L168.018653,32.4508053 C168.139435,32.3103484 168.292531,32.201207 168.464828,32.1327308 C168.464828,32.1327308 168.911003,32.1327308 169.038481,32.1327308 C170.075311,32.9340833 171.184956,33.6369071 172.352923,34.2320225 C171.802248,35.6209162 171.944681,37.1882207 172.736748,38.4555651 C173.528815,39.7229096 174.876513,40.5398822 176.368497,40.6571274 M219.647462,79.334987 C217.221297,80.5697833 214.620547,81.4278575 211.93501,81.8795831 C208.612468,82.4708687 205.226122,82.6206039 201.864205,82.3248874 L197.147499,81.5615086 L193.705579,80.6709 L188.542698,79.0805274 L183.252339,77.2356953 C180.256593,76.2178569 177.707022,75.3272483 175.794844,74.8183291 C177.473048,73.7532302 179.29831,72.9388229 181.212682,72.4009629 C182.305907,72.148446 183.412457,71.9573014 184.527124,71.8284288 C193.033653,70.5094328 201.723847,71.0081439 210.022832,73.2915715 L212.126228,73.9277205 C214.229624,74.5638695 216.205541,75.2636334 218.117719,76.0270122 L218.117719,76.0270122 L220.985986,77.2356953 L222.579468,77.9354592 C221.833037,78.5029852 221.044671,79.0133597 220.221115,79.4622168 M237.175761,79.4622168 C235.291808,76.9832397 233.008663,74.8335326 230.419398,73.1007268 C228.772981,71.9053892 227.048157,70.8215078 225.256517,69.8563668 C222.151924,68.2031429 218.910502,66.8197133 215.568148,65.7213983 C212.62115,64.6053451 209.566788,63.79528 206.453433,63.3040321 L206.007258,63.3040321 L206.007258,63.3040321 L205.051169,63.3040321 L204.604994,63.3040321 C190.853592,61.8462561 177.021461,65.1963639 165.469082,72.7826523 C163.875601,73.7368758 161.644726,75.2636334 159.54133,76.4087016 L157.246716,77.2356953 C153.992202,78.9150567 150.546657,80.1966053 146.984694,81.0525894 C141.630595,82.1976576 136.977629,81.0525894 135.766583,74.6910993 C134.555536,68.3296092 137.487543,66.3575473 142.586684,65.0216344 C144.435123,64.5763301 146.538519,64.2582556 148.960611,63.8129513 L151.7014,63.367647 C155.446232,63.0585208 159.144774,62.3330579 162.728294,61.2047404 C167.421085,59.7447024 171.916476,57.7150413 176.11354,55.1613248 C182.027089,51.6062048 187.322685,47.1158794 191.793401,41.8658106 L193.514361,41.8658106 C198.550064,41.3509808 203.63683,41.6951733 208.556829,42.883649 C217.287584,44.2801392 225.044599,49.2340204 229.973223,56.5608526 L231.056791,58.0876102 L231.056791,58.0876102 C231.502966,58.7237592 231.885401,59.3599082 232.267837,59.9960572 C233.357753,61.7954672 234.174012,63.7463789 234.689929,65.7850132 C236.091707,70.3602074 236.779644,75.1234617 236.729586,79.9075211" id="Shape" fill="#1E3160"></path>
                <path d="M204.477515,45.0465556 C199.187156,45.0465556 198.613503,47.7183814 198.740981,50.0085178 C198.86846,52.2986543 206.134736,47.2730771 206.134736,47.2730771 C206.134736,47.2730771 209.704136,44.9193258 204.477515,45.0465556" id="Shape" fill="#1E3160"></path>
                <path d="M143.542773,29.9698241 C147.555003,32.0394675 150.030294,36.2145468 149.9167,40.7207423 C149.151829,49.3087539 136.467714,50.1993625 136.340236,50.2629774 L136.340236,50.2629774 C139.217575,50.6373687 142.131438,50.6373687 145.008777,50.2629774 C152.784968,49.3087539 156.545584,45.2374003 156.418106,40.4662827 C156.418106,40.1482082 156.418106,39.8301337 156.418106,39.5120592 L156.418106,39.1303698 L156.418106,39.1303698 C155.90098,37.1090633 154.91891,35.2358796 153.549839,33.6594884 C152.425875,32.2791984 151.117671,31.059163 149.661743,30.033439 C140.99094,24.6782189 130.313355,23.6666509 120.787854,27.2979983 C128.525914,25.3513402 136.71414,26.3728714 143.733991,30.1606688" id="Shape" fill="#C7C8C9"></path>
                <path d="M232.395316,59.6779827 C232.029744,59.0185259 231.625354,58.3812608 231.18427,57.7695357 L231.18427,57.7695357 L230.100702,56.2427781 C225.172078,48.9159459 217.415063,43.9620647 208.684307,42.5655745 C203.764308,41.3770988 198.677543,41.0329063 193.64184,41.5477361 L192.112097,41.5477361 C194.661668,41.5477361 219.902419,41.5477361 227.359913,60.0596721 C231.630444,70.4925158 220.412333,65.0216344 204.604994,63.0495725 L205.561083,63.0495725 L206.134736,63.0495725 C209.244413,63.5885375 212.296183,64.4192144 215.249452,65.5305536 C218.602023,66.6016965 221.845854,67.9861545 224.937821,69.6655221 C226.713794,70.6341327 228.437165,71.6958657 230.100702,72.8462672 C232.680642,74.5907075 234.962016,76.7387477 236.857065,79.2077572 C236.907123,74.4236978 236.219185,69.6604435 234.817408,65.0852493 C234.301491,63.046615 233.485232,61.0957033 232.395316,59.2962933" id="Shape" fill="#C7C8C9"></path>
                <path d="M111.418181,167.505239 C111.382833,164.220851 111.660283,160.940541 112.246792,157.708545 L112.246792,157.708545 C111.640377,160.937879 111.362761,164.220145 111.418181,167.505239" id="Shape" fill="#1E3160"></path>
                <path d="M161.899683,94.093644 L146.665998,94.093644 L146.028605,96.7654698 L144.626341,103.12696 L142.586684,112.033046 L148.323219,112.47835 C152.287651,112.635397 156.073676,114.164846 159.031416,116.804164 C160.752135,119.002287 161.276715,121.905644 160.43368,124.565181 L152.657489,160.952905 C152.065567,166.100008 149.983518,170.96338 146.665998,174.948183 C144.346195,177.226662 141.185957,178.44685 137.933718,178.319772 C127.735435,178.319772 126.269431,172.530816 126.014474,168.205003 C126.003598,165.707101 126.238435,163.214166 126.715606,160.76206 L138.698589,105.671556 L140.037114,99.3100658 L141.24816,93.9027993 L76.4890615,93.9027993 L72.4097483,111.969431 L78.1462825,112.414735 L80.1221999,112.414735 C83.3937677,112.761635 86.4611694,114.16944 88.8544799,116.422474 L89.2369155,116.995008 C90.5161704,119.043917 90.9072164,121.523362 90.3204831,123.865417 L89.5556119,127.873156 L60.2355477,127.873156 L62.3389436,118.140076 L63.4225112,112.86004 L66.2907783,99.5645254 L68.7766099,87.8593837 L71.4536592,75.1364036 L74.00323,63.367647 L77.4451506,46.9550026 L13.3234451,46.9550026 L11.7937026,54.0162566 L9.62656743,63.5584917 L9.62656743,65.0216344 L17.9764118,65.8486281 C21.2475488,66.4462499 24.1786584,68.2377681 26.1987776,70.8742053 C26.5817289,71.466933 26.8819422,72.1089919 27.0911274,72.7826523 C27.3423899,74.0854019 27.3423899,75.4240265 27.0911274,76.7267761 C27.0911274,77.2993102 27.0911274,77.8718443 27.0911274,78.5079933 L26.0075598,83.5971854 L22.2469429,101.409358 L20.4622433,109.74291 L19.3149364,115.086561 L8.35178203,166.296556 L83.1179456,166.296556 L83.1179456,168.777537 C83.1179456,169.159227 83.1179456,169.540916 83.1179456,169.98622 C82.3595206,176.402163 82.9676984,182.905639 84.9026451,189.070691 C85.2213415,190.088529 85.6037771,191.106367 85.9862127,192.124206 C90.9049123,203.084375 100.580345,211.194005 112.246792,214.134962 C119.562871,216.245816 127.131571,217.358577 134.746754,217.442936 C154.187232,217.442936 167.891175,212.608204 177.834501,202.17536 C186.301066,192.581274 191.909058,180.814248 194.024275,168.205003 L210.086571,94.2844887 L210.086571,94.2844887 L161.899683,94.2844887 L161.899683,94.093644 Z M194.661668,102.681656 L199.059677,102.681656 L185.228256,166.296556 C183.392841,177.358706 178.541361,187.703009 171.205617,196.19556 C162.983251,204.783571 151.318964,208.91854 134.364319,208.91854 L131.751009,208.91854 C125.840578,208.618839 119.982457,207.658616 114.286449,206.055869 C107.94918,204.369645 102.264872,200.823884 97.9691955,195.877485 C96.1350881,193.760713 94.6309605,191.380251 93.5074466,188.816231 C92.4876183,186.33525 91.0216151,181.754977 93.1887502,178.892307 C95.6609404,176.615583 98.8238027,175.227534 102.175987,174.948183 L104.088165,174.948183 L105.745386,174.948183 L109.952178,174.948183 L112.246792,174.948183 L112.246792,174.948183 L112.246792,174.948183 C111.558338,172.891682 111.150983,170.751892 111.035746,168.586693 C110.962588,165.340115 111.261986,162.095848 111.928096,158.917228 L112.246792,157.5177 L18.9962401,157.5177 L19.7611113,153.891651 L27.8559986,115.72271 L29.0033055,110.442673 L30.9154836,101.345743 L34.9947968,82.2612725 L35.504711,79.971136 C35.8712069,78.277506 36.0634221,76.5509444 36.0783644,74.8183291 C36.025593,73.4872424 35.8333271,72.1653281 35.504711,70.8742053 C35.0751225,69.1471823 34.3413272,67.5101346 33.3375758,66.0394728 C32.2730702,64.4588448 30.9348761,63.0801785 29.3857411,61.9681192 C27.5487564,60.6795094 25.5293438,59.6717732 23.3942497,58.9782188 C22.2251952,58.6199411 21.0324927,58.3436039 19.8248506,58.1512251 L20.2710255,56.2427781 L66.8006925,56.2427781 L64.8885144,65.276094 L62.8488578,74.6274844 L60.7454619,84.487794 L60.1080692,87.668539 L57.6222376,99.4372956 L57.1123235,101.536587 L54.626492,113.241729 L53.5429244,118.458151 L50.3559609,133.407653 L49.5910896,137.033702 L96.6306708,137.033702 L98.797806,126.091939 L98.797806,126.091939 C99.3989097,122.955135 99.2016677,119.717928 98.2241526,116.676934 C97.631858,114.846116 96.7023421,113.141733 95.4833639,111.651357 L95.4833639,111.651357 C94.6188723,110.626064 93.6345369,109.70772 92.5513575,108.915916 C89.6921754,106.948374 86.4603761,105.584574 83.0542063,104.908177 L83.5003812,102.99973 L130.603702,102.99973 L130.603702,103.635879 L129.265177,109.679295 L118.49324,159.426147 C117.792613,162.621033 117.492862,165.89049 117.600891,169.159227 C117.700437,173.00628 118.918413,176.741484 121.10655,179.910145 C124.428332,184.135348 129.380147,186.768083 134.746754,187.162244 C135.871871,187.227325 136.999819,187.227325 138.124935,187.162244 C143.731791,187.323372 149.154867,185.158375 153.103664,181.182443 C157.513965,176.072758 160.347596,169.797907 161.26229,163.115811 L169.102221,126.537243 C170.402298,121.330131 169.226698,115.815595 165.915257,111.587742 C164.991426,110.536204 163.966715,109.577412 162.855772,108.725071 C159.99659,106.757529 156.764791,105.39373 153.358621,104.717332 L153.741057,102.808885 L194.852886,102.808885 L194.661668,102.681656 Z" id="Shape" fill="#1E3160"></path>
                <path d="M155.015842,102.681656 L153.549839,102.681656 L153.167403,104.590103 C156.573573,105.2665 159.805372,106.630299 162.664554,108.597841 C163.775497,109.450183 164.800208,110.408974 165.724039,111.460512 C169.035481,115.688365 170.21108,121.202901 168.911003,126.410014 L161.071073,162.988581 C160.156378,169.670677 157.322748,175.945528 152.912446,181.055213 C148.96365,185.031145 143.540574,187.196143 137.933718,187.035014 C136.808601,187.100095 135.680653,187.100095 134.555536,187.035014 C133.579229,187.098277 132.599838,187.098277 131.62353,187.035014 C125.068727,187.502861 118.703493,184.719043 114.605145,179.59207 C113.627982,178.226617 112.855019,176.726565 112.310531,175.139027 L112.310531,175.139027 L110.015917,175.139027 L105.809126,175.139027 L104.151905,175.139027 L102.239727,175.139027 C98.9848442,175.455077 95.9206189,176.816778 93.5074466,179.019536 C91.3403114,181.882207 92.8063146,186.46248 93.8261429,188.943461 C94.9263083,191.43828 96.3631286,193.771232 98.096674,195.877485 C102.402564,200.811953 108.082928,204.355254 114.413927,206.055869 C120.109936,207.658616 125.968056,208.618839 131.878487,208.91854 C144.226351,209.394175 156.229477,204.79544 165.086647,196.19556 C172.422391,187.703009 177.273871,177.358706 179.109286,166.296556 L193.004447,102.681656 L155.015842,102.681656 Z" id="Shape" fill="#C42032"></path>
                <path d="M122.253857,111.460512 L123.528643,105.544326 L124.166035,102.681656 L83.4366419,102.681656 L82.9904671,104.590103 C86.3966369,105.2665 89.6284361,106.630299 92.4876183,108.597841 C93.5707976,109.389645 94.555133,110.30799 95.4196247,111.333282 L95.4196247,111.333282 C96.6386029,112.823659 97.5681188,114.528042 98.1604133,116.358859 C99.1271922,119.379995 99.3243508,122.593969 98.7340667,125.71025 L98.7340667,125.71025 L96.5669315,136.652013 L43.2171626,136.652013 L43.9820339,133.025963 L47.2327367,117.758387 L48.3800435,112.541965 L50.6746572,101.600202 L50.6746572,101.282128 L54.626492,83.5971854 L54.626492,83.5971854 L56.5386701,74.5002546 L58.1958911,66.6756218 L60.3630262,56.4972377 L20.2710255,56.4972377 L19.8248506,58.4056847 C21.0140778,58.6425918 22.1854345,58.9614294 23.3305104,59.3599082 C25.4915784,60.0673516 27.533059,61.0968239 29.3857411,62.4134235 C30.9348761,63.5254828 32.2730702,64.9041491 33.3375758,66.4847771 C34.3413272,67.9554389 35.0751225,69.5924866 35.504711,71.3195096 C35.8910257,72.7289269 36.0840027,74.1841305 36.0783644,75.6453228 C36.0634221,77.3779381 35.8712069,79.1044997 35.504711,80.7981298 L34.9947968,83.0882662 L30.9154836,102.172736 L29.0033055,111.269667 L27.8559986,116.549704 L19.7611113,154.718644 L18.9962401,158.344694 L112.246792,158.344694 L122.253857,111.460512 Z" id="Shape" fill="#C42032"></path>
                <path d="M131.751009,187.035014 C132.748518,187.100323 133.749244,187.100323 134.746754,187.035014 C129.380147,186.640853 124.428332,184.008118 121.10655,179.782915 C118.918413,176.614254 117.700437,172.879051 117.600891,169.031997 C117.492862,165.76326 117.792613,162.493804 118.49324,159.298917 L129.265177,109.552065 L130.603702,103.508649 L130.603702,102.8725 L124.229775,102.8725 L123.592382,105.735171 L122.317597,111.651357 L112.310531,157.899389 C111.724022,161.131386 111.446572,164.411695 111.481921,167.696084 C111.430805,164.411136 111.708384,161.129299 112.310531,157.899389 L111.991835,159.298917 C111.325726,162.477537 111.026327,165.721804 111.099485,168.968382 C111.214722,171.133581 111.622077,173.273372 112.310531,175.329872 L112.310531,175.329872 C112.855019,176.91741 113.627982,178.417462 114.605145,179.782915 C118.763214,184.886632 125.184741,187.602712 131.751009,187.035014" id="Shape" fill="#FFFFFF"></path>
                <polygon id="Shape" fill="#FFFFFF" points="56.6024093 74.1185652 54.626492 83.215496 54.5627527 83.5335705 50.7383965 101.472972 50.6746572 101.854662 48.3163042 112.73281 47.2327367 118.012847 43.9820339 133.280423 43.2171626 136.906472 49.5273504 136.906472 50.2922216 133.280423 53.4791851 118.330921 54.626492 113.114499 57.1123235 101.409358 57.5584984 99.3100658 60.0443299 87.5413092 60.7454619 84.3605642 62.8488578 74.5002546 64.8247751 65.1488642 66.8006925 56.1155483 62.3389436 56.1155483 60.4267655 56.1155483 58.2596303 66.2939324"></polygon>
                <path d="M164.83169,196.322789 C155.97452,204.922669 143.971394,209.521405 131.62353,209.045769 L134.364319,209.045769 C151.318964,209.045769 162.983251,205.038031 171.205617,196.322789 C178.541361,187.830239 183.392841,177.485936 185.228256,166.423786 L199.059677,102.808885 L192.685751,102.808885 L178.854329,166.296556 C177.018914,177.358706 172.167434,187.703009 164.83169,196.19556" id="Shape" fill="#FFFFFF"></path>
            </g>
        </g>
    </g>
</svg>