<?xml version="1.0" encoding="UTF-8" standalone="no"?>
<svg width="250px" height="250px" viewBox="0 0 250 250" version="1.1" xmlns="http://www.w3.org/2000/svg" xmlns:xlink="http://www.w3.org/1999/xlink">
    <!-- Generator: Sketch 47.1 (45422) - http://www.bohemiancoding.com/sketch -->
    <title>PURDUE</title>
    <desc>Created with Sketch.</desc>
    <defs></defs>
    <g id="Page-1" stroke="none" stroke-width="1" fill="none" fill-rule="evenodd">
        <g id="PURDUE" fill-rule="nonzero">
            <g id="Purdue_Boilermakers_logo" transform="translate(0.000000, 57.000000)">
                <path d="M244.943182,15.6605114 C235.667614,1.62215909 216.789773,0 203.380682,0 L57.9119318,0 L34.65625,54.5951705 L60.3125,54.5951705 L60.5625,54.5951705 L49.2088068,81.2571023 L23.2571023,81.2571023 L1.42108547e-14,135.870739 L135.423295,135.870739 L151.677557,97.7017045 L176.221591,97.7017045 C219.556818,97.7017045 234.166193,77.4161932 243.50142,55.4943182 C247.305398,46.5610795 254.386364,29.9332386 244.950284,15.6605114 L244.943182,15.6605114 Z" id="Shape" fill="#000000"></path>
                <path d="M233.053977,23.5241477 C228.87642,17.203125 219.448864,14.2599432 203.382102,14.2599432 L67.3338068,14.2599432 L56.2301136,40.3338068 L82.1349432,40.3338068 L58.6363636,95.5170455 L32.6860795,95.5170455 L21.5738636,121.609375 L125.995739,121.609375 L137.106534,95.5170455 L110.789773,95.5170455 L115.934659,83.4375 L176.221591,83.4375 C213.051136,83.4375 222.855114,67.5767045 230.382102,49.90625 C234.369318,40.5426136 237.859375,30.7940341 233.053977,23.5241477 Z M134.291193,40.3338068 L178.887784,40.3338068 C182.103693,40.3338068 184.447443,41.09375 185.323864,42.4190341 C186.336648,43.9488636 185.524148,46.4431818 184.948864,47.7911932 C182.433239,53.6960227 176.451705,57.3650568 169.338068,57.3650568 L127.038352,57.3650568 L134.291193,40.3338068 L134.291193,40.3338068 Z" id="Shape" fill="#9D968D"></path>
                <path d="M203.380682,16.9588068 L69.1136364,16.9588068 L60.3082386,37.6363636 L86.2130682,37.6363636 L60.4161932,98.2159091 L34.4659091,98.2159091 L25.6519886,118.911932 L124.208807,118.911932 L133.019886,98.2159091 L106.707386,98.2159091 L114.149148,80.7400568 L176.22017,80.7400568 C211.795455,80.7400568 220.734375,65.6676136 227.897727,48.8480114 C235.056818,32.03125 238.954545,16.9588068 203.380682,16.9588068 L203.380682,16.9588068 Z M169.336648,60.0625 L122.953125,60.0625 L132.504261,37.6363636 L178.884943,37.6363636 C187.09375,37.6363636 190.403409,41.859375 187.430398,48.8494318 C184.450284,55.8394886 177.545455,60.0625 169.336648,60.0625 Z" id="Shape" fill="#CEB888"></path>
            </g>
        </g>
    </g>
</svg>