<?xml version="1.0" encoding="UTF-8" standalone="no"?>
<svg width="250px" height="250px" viewBox="0 0 250 250" version="1.1" xmlns="http://www.w3.org/2000/svg" xmlns:xlink="http://www.w3.org/1999/xlink">
    <!-- Generator: Sketch 47.1 (45422) - http://www.bohemiancoding.com/sketch -->
    <title>OHIOST</title>
    <desc>Created with Sketch.</desc>
    <defs></defs>
    <g id="Page-1" stroke="none" stroke-width="1" fill="none" fill-rule="evenodd">
        <g id="OHIOST" fill-rule="nonzero">
            <g id="2013_Ohio_State_Buckeyes_logo" transform="translate(0.000000, 2.000000)">
                <g id="Group" transform="translate(0.000000, 66.620879)" fill="#000000">
                    <path d="M63.1043956,22.5700549 L62.9141484,100.348214 C66.0281593,99.3021978 68.8811813,98.3152473 72.3351648,97.2781593 L72.3598901,20.4340659 C69.2774725,21.1428571 66.1895604,21.7445055 63.1043956,22.5700549" id="Shape"></path>
                    <path d="M197.113324,35.0631868 C197.820055,35.2644231 204.626374,37.3743132 204.626374,37.3743132 L204.644918,107.344093 C207.999313,109.01511 210.903846,110.591346 213.902473,112.539148 L213.928571,40.6298077 C213.928571,40.6298077 222.212912,43.8296703 222.81456,44.1016484 L222.81456,33.6607143 C214.554945,30.1497253 205.565934,27.5418956 197.069368,24.9409341 L197.113324,35.0631868 Z" id="Shape"></path>
                    <path d="M167.430632,18.2870879 C159.065247,16.8076923 151.589973,16.0226648 143.173764,15.2788462 L143.191621,24.9869505 C145.965659,25.2541209 150.194368,25.7293956 150.194368,25.7293956 L150.184066,91.3543956 C153.642857,91.8550824 157.241758,92.2973901 160.379121,92.8571429 L160.0625,26.948489 C160.0625,26.948489 163.916209,27.4869505 167.432005,28.084478 L167.432005,18.2843407 L167.430632,18.2870879 L167.430632,18.2870879 Z" id="Shape"></path>
                    <path d="M86.6497253,83.9182692 L86.8612637,28.0247253 L92.8756868,27.1531593 L93.1215659,82.7026099 L86.6497253,83.9182692 Z M82.875,18.4361264 L77.364011,25.6820055 L77.4519231,90.1414835 L82.4443681,94.6291209 C88.0865385,93.2671703 92.3145604,92.5831044 97.7657967,91.7451923 L102.344093,85.7307692 L102.54739,22.7870879 L96.1318681,16.4903846 C91.7307692,17.0789835 87.3104396,17.6085165 82.875,18.4361264 L82.875,18.4361264 Z" id="Shape"></path>
                    <path d="M184.651786,54.1112637 L178.960165,52.6799451 L178.95467,30.4347527 L184.663462,31.8461538 L184.651786,54.1112637 Z M193.971154,32.1751374 L188.708791,22.7067308 C184.239011,21.4986264 180.317308,20.7850275 175.84272,19.8248626 L169.695742,25.4471154 L169.712225,94.8784341 C172.815934,95.6826923 175.869505,96.3166209 178.874313,97.2809066 L178.874313,62.676511 L184.878434,64.3921703 L184.878434,99.3358516 C187.973901,100.477335 191.010302,101.470467 193.980769,102.785027 L193.980769,32.1799451 L193.971154,32.1751374 L193.971154,32.1751374 Z" id="Shape"></path>
                    <path d="M48.4526099,58.3605769 L42.2142857,60.7520604 L42.1009615,28.654533 C38.8811813,29.8166209 35.8777473,30.6799451 32.6943681,31.9739011 L32.6771978,115.414835 C36.0611264,113.076923 38.6703297,111.826236 42.7362637,109.362637 L42.6407967,71.2300824 C42.6407967,71.2300824 46.2465659,69.6703297 48.9986264,68.7300824 L49.0858516,106.070055 C52.1909341,104.563874 54.7781593,103.570055 58.0281593,102.192308 L58.0425824,23.9375 C54.834478,24.8695055 51.6428571,25.5638736 48.4567308,26.7431319 L48.4567308,58.3612637 L48.4519231,58.3612637 L48.4526099,58.3605769 L48.4526099,58.3605769 Z" id="Shape"></path>
                    <polygon id="Shape" points="110.178571 74.7898352 110.178571 105.956731 117.164148 112.831731 134.156593 112.936813 141.054258 105.956731 140.857143 56.220467 133.412088 49.0831044 120.580357 49.092033 120.548077 10.9141484 130.823489 10.9608516 130.836538 35.4423077 140.917582 35.4278846 140.945742 7.16552198 134.102335 0.348901099 117.147665 0.348901099 110.178571 7.20123626 110.178571 53.7149725 117.745879 60.9100275 130.459478 60.9100275 130.553571 103.305632 120.328984 103.305632 120.328984 74.7898352"></polygon>
                    <path d="M17.1723901,140.698489 L10.1222527,145.499313 L10.168956,52.5528846 L17.1881868,48.8516484 L17.1723901,140.698489 Z M5.10508242,44.2087912 L0.252747253,53.4739011 L0.252747253,152.449863 L7.9375,157.597527 C9.22115385,156.792582 21.2836538,149.488324 22.0542582,149.056319 L26.5645604,139.386676 L26.6586538,42.1902473 L19.6016484,37.0384615 C14.6325549,39.3674451 9.87156593,41.5418956 5.10508242,44.2087912 L5.10508242,44.2087912 Z" id="Shape"></path>
                    <path d="M226.190934,140.917582 C233.096841,146.168956 243.23283,154.206731 249.588599,159.588599 L249.588599,146.880495 C245.258929,143.377747 236.339973,136.190247 236.339973,136.190247 L236.339973,97.5096154 C236.339973,97.5096154 245.502747,102.479396 249.588599,104.971841 L249.588599,92.9052198 C245.598901,90.4148352 235.934753,85.282967 235.934753,85.282967 L235.953297,50.0885989 C235.953297,50.0885989 244.945055,54.5501374 249.592033,57.1875 L249.595467,46.0233516 C242.12706,41.6085165 233.856456,38.4608516 225.936126,34.9052198 L226.190934,140.917582 Z" id="Shape"></path>
                </g>
                <g id="Group" fill="#666666">
                    <path d="M96.2383242,164.231456 L96.2383242,178.480082 L111.414148,193.347527 L139.846841,193.558379 L154.978022,178.306319 L155.016484,164.39011 C152.441621,163.956044 150.458791,163.657967 147.824176,163.328297 L147.824176,175.330357 L137.074176,186.083791 L114.405907,186.122253 L103.487637,175.51511 L103.487637,163.376374 C100.861264,163.71772 98.8125,163.776099 96.2383242,164.231456" id="Shape"></path>
                    <path d="M111.617445,52.9608516 L96.2431319,68.0164835 L96.2431319,76.9416209 C98.8598901,76.6043956 100.89011,76.5089286 103.478022,76.2575549 L103.478022,70.9635989 L114.495879,60.2177198 L136.854396,60.2177198 L147.616758,70.918956 L147.616758,76.1401099 C150.205357,76.3832418 152.317308,76.7046703 154.930632,77.0343407 L154.930632,68.0254121 L139.918269,52.9615385 L111.617445,52.9608516 L111.617445,52.9608516 Z" id="Shape"></path>
                    <path d="M207.25206,45.8825549 L161.769918,0.509615385 L89.8152473,0.509615385 L43.7486264,45.7445055 L43.8200549,81.2424451 C29.4395604,85.8440934 14.3475275,91.3392857 0.410714286,98.845467 L0.410714286,106.32761 C15.7376374,97.4848901 38.6346154,89.8447802 51.0570055,86.1916209 L51.0570055,49.0817308 L92.9807692,7.86057692 L158.659341,7.84684066 L200.086538,48.7994505 L200.032967,86.0618132 C214.371566,90.0885989 235.817308,98.2259615 249.620192,105.927885 L249.620192,98.4423077 C235.727335,90.9883242 221.977335,85.9903846 207.304945,81.2973901 L207.25206,45.8825549 Z" id="Shape"></path>
                    <path d="M200.065247,197.115385 L158.701236,238.866758 L92.7802198,238.82967 L51.073489,197.344093 L51.073489,177.8125 C43.4684066,181.502747 38.146978,184.774725 32.6936813,188.76511 L32.6936813,197.383242 C35.9787088,194.778846 40.0425824,191.344093 43.7396978,189.184066 L43.7396978,200.125687 L89.9423077,246.061813 L161.493132,246.125 L207.258929,200.325549 L207.254121,189.594093 C212.426511,192.695055 217.011676,195.817308 221.26717,199.4375 L221.26717,190.978709 C215.037088,186.216346 208.043269,181.571429 200.105082,177.802885 L200.065247,197.115385 Z" id="Shape"></path>
                </g>
                <g id="Group" transform="translate(57.692308, 14.423077)" fill="#BB0000">
                    <path d="M37.9656593,0.141483516 L0.0123626374,37.5178571 L0.0123626374,69.9340659 C10.8152473,66.9134615 21.1854396,65.0604396 31.8784341,63.4491758 L31.8784341,50.6565934 L51.1201923,31.8887363 L85.0199176,31.8887363 L103.888736,50.7802198 L103.888736,63.3715659 C114.570742,64.9436813 124.892857,66.915522 135.697115,69.8997253 L135.697115,37.6916209 L98.1462912,0.140796703 L37.9656593,0.140796703 L37.9656593,0.141483516 Z" id="Shape"></path>
                    <path d="M0.0728021978,180.076236 L37.8186813,217.249313 L98.2870879,217.722527 L135.711538,179.888736 L135.712912,160.512363 C125.760989,156.302198 115.633242,153.237637 103.936126,150.93544 L103.904533,166.68956 L85.1957418,185.834478 L50.9635989,185.591346 L31.8592033,166.735577 L31.8592033,151.043956 C20.584478,153.269918 9.53777473,156.478022 0.0769230769,160.557005 L0.0769230769,180.068681 L0.0782967033,180.068681 L0.0728021978,180.076236 L0.0728021978,180.076236 Z" id="Shape"></path>
                </g>
            </g>
        </g>
    </g>
</svg>