<?xml version="1.0" encoding="UTF-8" standalone="no"?>
<svg width="250px" height="250px" viewBox="0 0 250 250" version="1.1" xmlns="http://www.w3.org/2000/svg" xmlns:xlink="http://www.w3.org/1999/xlink">
    <!-- Generator: Sketch 47.1 (45422) - http://www.bohemiancoding.com/sketch -->
    <title>MINN</title>
    <desc>Created with Sketch.</desc>
    <defs></defs>
    <g id="Page-1" stroke="none" stroke-width="1" fill="none" fill-rule="evenodd">
        <g id="MINN" fill-rule="nonzero">
            <g id="Minnesota_Golden_Gophers_logo" transform="translate(0.000000, 51.000000)">
                <polygon id="Shape" fill="#862334" points="234.360795 110.2302 190.789773 37.8701238 202.795597 37.8701238 202.795597 0.161771429 130.260085 0.161771429 130.260085 37.8701238 142.265909 37.8701238 125.606818 65.5103333 108.969034 37.8687048 120.966193 37.8687048 120.966193 0.160352381 48.4392045 0.160352381 48.4392045 37.8687048 60.4450284 37.8687048 16.8740057 110.228781 1.32428977 110.228781 1.32428977 147.928619 75.2944602 147.928619 75.2944602 110.228781 62.009517 110.228781 84.7069602 72.5289429 93.5059659 87.1479714 85.0698864 87.1479714 85.0698864 124.856324 166.162216 124.856324 166.162216 87.1479714 157.726136 87.1479714 166.525142 72.5289429 189.222585 110.228781 175.928977 110.228781 175.928977 147.928619 249.899148 147.928619 249.899148 110.228781 234.357955 110.228781"></polygon>
                <polygon id="Shape" fill="#FBB93C" points="197.897727 5.05677619 197.897727 33.094319 182.174716 33.094319 231.572443 115.126624 245.013068 115.126624 245.013068 143.164167 180.723295 143.164167 180.723295 115.126624 197.724716 115.126624 166.470455 63.222119 149.11392 92.0543286 161.266619 92.0543286 161.266619 120.083357 89.8461648 120.083357 89.8461648 92.0543286 102.016193 92.0543286 84.63125 63.2178619 53.3769886 115.122367 70.3869318 115.122367 70.3869318 143.15991 6.09715909 143.15991 6.09715909 115.122367 19.5291193 115.122367 68.9268466 33.0900619 53.212358 33.0900619 53.212358 5.05251905 116.058949 5.05251905 116.058949 33.0900619 100.335938 33.0900619 125.540483 74.9434524 150.745028 33.0900619 135.03054 33.0900619 135.03054 5.05251905 197.877131 5.05251905"></polygon>
                <polygon id="Shape" fill="#862334" points="193.053977 9.89232286 193.053977 28.2675705 173.615057 28.2675705 228.838068 119.96217 240.169602 119.96217 240.169602 138.328904 185.551705 138.328904 185.551705 119.96217 206.278977 119.96217 166.466477 53.852999 140.553125 96.881361 156.422443 96.881361 156.422443 115.256609 94.6823864 115.256609 94.6823864 96.881361 110.560227 96.881361 84.646875 53.852999 44.834375 119.96217 65.5616477 119.96217 65.5616477 138.328904 10.94375 138.328904 10.94375 119.96217 22.2752841 119.96217 77.4982955 28.2675705 58.059375 28.2675705 58.059375 9.89232286 111.234091 9.89232286 111.234091 28.2675705 91.7951705 28.2675705 125.548011 84.3256276 159.317898 28.2675705 139.878977 28.2675705 139.878977 9.89232286 193.053693 9.89232286"></polygon>
            </g>
        </g>
    </g>
</svg>