<?xml version="1.0" encoding="UTF-8" standalone="no"?>
<svg width="250px" height="250px" viewBox="0 0 250 250" version="1.1" xmlns="http://www.w3.org/2000/svg" xmlns:xlink="http://www.w3.org/1999/xlink">
    <!-- Generator: Sketch 47.1 (45422) - http://www.bohemiancoding.com/sketch -->
    <title>PSU</title>
    <desc>Created with Sketch.</desc>
    <defs></defs>
    <g id="Page-1" stroke="none" stroke-width="1" fill="none" fill-rule="evenodd">
        <g id="PSU" fill-rule="nonzero">
            <g id="Penn_State_Nittany_Lions_logo" transform="translate(0.000000, 38.000000)">
                <path d="M125.288988,1.99609504 C57.2827893,1.99609504 2.15262397,40.0084917 2.15262397,86.8948554 C2.15241736,133.785351 57.2827893,171.795682 125.288988,171.795682 C193.291054,171.795682 248.417087,133.785351 248.417087,86.8948554 C248.417087,40.0084917 193.291054,1.99609504 125.288988,1.99609504 Z" id="Shape" fill="#FFFFFF"></path>
                <path d="M125.288988,5.81768595 C59.3964256,5.81768595 5.98113636,42.1172727 5.98113636,86.8961983 C5.98196281,104.623471 14.3538636,121.022231 28.5555165,134.365207 C27.4356818,132.937521 16.2197727,118.10281 16.2197727,95.4478512 C16.2197727,39.6028099 85.6329959,27.1771901 85.6329959,27.1771901 L87.0420868,27.1771901 C79.1949793,33.0821488 33.7466322,52.747438 33.7466322,98.9106612 C33.7466322,151.336281 89.7982851,164.247438 96.2796901,165.563554 C105.56688,167.14 115.283822,167.978843 125.290021,167.978843 C191.180517,167.978843 244.595806,131.67719 244.595806,86.8961983 C244.595806,42.1172727 191.180517,5.81768595 125.290021,5.81768595 L125.288988,5.81768595 Z" id="Shape" fill="#002D62"></path>
                <path d="M110.140227,10.8736777 C104.392293,12.8674793 101.873698,19.1439256 99.7042769,24.1249174 C95.1298967,36.3831818 92.0844421,49.4554959 90.4418802,62.8211983 C105.334442,52.3253306 122.510062,47.3439256 140.921219,45.3480579 C151.530723,44.8811157 163.375764,43.0050826 173.280723,46.1703719 C178.79312,48.3997107 180.549318,55.083595 185.710475,58.1311157 C193.917087,63.4658264 202.355103,68.1600413 210.338574,74.0794628 C215.25593,78.4183058 222.817913,82.6951653 223.003864,89.9678926 C221.227004,96.3273967 219.01626,101.633182 212.859236,103.744752 L212.569979,103.331529 C213.850971,98.9348347 213.375764,93.9554959 211.268326,90.083595 C203.59064,78.065 190.749731,72.0236777 178.495599,67.7447521 C175.33031,66.9844215 173.001798,66.4265702 168.937748,65.4596281 C170.348905,63.5257438 170.171219,60.7674793 169.350971,58.600124 C168.764194,57.6042562 168.063781,56.0794628 166.541054,56.4906198 L144.727004,66.3397934 C154.634029,65.9885537 163.665021,68.6269835 172.34064,71.6745041 C183.127831,76.7757438 198.311715,84.9823554 199.487335,98.8211983 C200.072045,105.565 196.495599,111.069132 191.045186,114.881116 C176.970806,122.736488 162.140227,128.835661 146.84064,133.876983 C124.619566,138.271612 95.3075826,141.734421 78.7765909,122.856322 C78.0121281,121.920372 77.3695661,120.688967 76.4873347,120.042273 C76.0203926,125.614587 77.545186,130.651777 80.0038636,135.106322 C83.8736983,141.087727 90.0885744,144.315 96.7703926,144.957562 C115.355103,146.073264 131.598905,139.858388 148.423285,135.695165 L183.421219,141.147645 C197.623698,142.930702 199.838574,133.817066 202.594773,129.478223 C204.526591,125.257149 206.805517,120.920372 208.045186,116.697231 C196.026591,121.503017 183.774525,125.728223 171.460475,129.88938 L170.935682,129.449298 C170.522459,129.03814 169.706343,128.715826 170.350971,128.368719 C179.082376,125.023678 187.582376,121.093926 196.084442,117.108388 C204.700145,112.362521 213.788988,108.843926 221.578244,102.040207 C225.545186,96.5422727 229.388161,89.5546694 225.627831,82.7592149 C215.152624,68.8026033 199.429483,63.7592149 186.650558,53.3831818 C182.371632,49.457562 180.136095,43.5897934 175.152624,41.1269835 C159.735269,35.1476446 144.026591,30.0505372 127.435682,27.0588017 C122.685682,21.2530165 118.993533,11.1680992 110.140227,10.8736777 L110.140227,10.8736777 Z" id="Shape" fill="#FFFFFF"></path>
                <path d="M110.84064,15.801157 C108.499731,16.6792562 107.677417,19.2007438 106.33031,21.0197521 C101.642293,30.6333884 98.8241116,41.0114876 97.295186,51.9742975 L97.5927066,51.9742975 C103.045186,42.7098347 111.607169,31.7470248 121.927417,27.4680992 C122.041054,26.4701653 121.216674,25.8875207 120.809649,25.0672727 C117.817913,21.8441322 115.94188,16.1523967 110.84064,15.801157 Z" id="Shape" fill="#002D62"></path>
            </g>
        </g>
    </g>
</svg>