<?xml version="1.0" encoding="UTF-8" standalone="no"?>
<svg width="250px" height="250px" viewBox="0 0 250 250" version="1.1" xmlns="http://www.w3.org/2000/svg" xmlns:xlink="http://www.w3.org/1999/xlink">
    <!-- Generator: Sketch 47.1 (45422) - http://www.bohemiancoding.com/sketch -->
    <title>KSTATE</title>
    <desc>Created with Sketch.</desc>
    <defs></defs>
    <g id="Page-1" stroke="none" stroke-width="1" fill="none" fill-rule="evenodd">
        <g id="KSTATE" fill-rule="nonzero" fill="#512888">
            <g id="Kansas_State_Wildcats_logo" transform="translate(0.000000, 31.000000)">
                <path d="M103.92619,176.235714 L103.92619,177.965619 L105.051571,177.965619 C105.591,177.965619 105.953714,177.891333 106.149024,177.72381 C106.344262,177.575 106.437357,177.351786 106.437357,177.091381 C106.437357,176.924 106.400214,176.765857 106.307119,176.635643 C106.214024,176.496119 106.0745,176.403024 105.90719,176.328714 C105.749095,176.263714 105.432857,176.235619 104.986429,176.235619 L103.92619,176.235714 Z M103.92619,181.230238 L102.996143,181.230238 L102.996143,175.445238 L104.977167,175.445238 C105.64681,175.445238 106.139738,175.500952 106.437357,175.612619 C106.744262,175.715 106.976786,175.900952 107.16281,176.161357 C107.339476,176.431071 107.432524,176.719405 107.432524,177.007714 C107.432524,177.435548 107.274429,177.798262 106.976786,178.114476 C106.679167,178.421405 106.279238,178.598119 105.78631,178.644619 C105.981548,178.728429 106.149024,178.830571 106.269952,178.942238 C106.502333,179.174857 106.781476,179.565381 107.125595,180.095524 L107.813833,181.23019 L106.697762,181.23019 L106.176929,180.309429 C105.777,179.593286 105.460786,179.146857 105.209667,178.970143 C105.042286,178.830619 104.791143,178.774905 104.465619,178.774905 L103.92619,178.774905 L103.92619,181.230238 Z M105.34919,173.761905 C104.586524,173.761905 103.870381,173.966429 103.154238,174.347833 C102.438095,174.738476 101.889357,175.28719 101.489429,176.003357 C101.0895,176.728786 100.89419,177.472833 100.89419,178.254095 C100.89419,179.026048 101.089429,179.779381 101.480143,180.486238 C101.870762,181.193071 102.4195,181.751119 103.135643,182.151048 C103.83319,182.541667 104.567929,182.746286 105.34919,182.746286 C106.111833,182.746286 106.846571,182.541762 107.553429,182.151048 C108.260262,181.751119 108.809,181.193071 109.199619,180.486238 C109.590262,179.779381 109.785571,179.026048 109.785571,178.254095 C109.785571,177.472833 109.590333,176.728786 109.190333,176.003357 C108.781095,175.28719 108.241667,174.738476 107.525524,174.347833 C106.809381,173.966524 106.083929,173.761905 105.34919,173.761905 L105.34919,173.761905 Z M105.34919,172.878357 C106.232738,172.878357 107.107,173.110976 107.962524,173.566595 C108.81819,174.040929 109.478524,174.691952 109.952857,175.556929 C110.42719,176.421881 110.669,177.324024 110.669,178.254071 C110.669,179.184119 110.436619,180.076976 109.962167,180.923357 C109.497119,181.797619 108.836786,182.448667 107.990429,182.932286 C107.153381,183.39731 106.260524,183.639143 105.349,183.639143 C104.409643,183.639143 103.535381,183.39731 102.689,182.932286 C101.842643,182.448667 101.18231,181.797619 100.717262,180.923357 C100.233643,180.077 100.001119,179.184143 100.001119,178.254071 C100.001119,177.324 100.252238,176.421857 100.726571,175.556929 C101.200905,174.691952 101.861238,174.040929 102.716905,173.566595 C103.563262,173.110857 104.44681,172.878357 105.349048,172.878357 L105.34919,172.878357 Z M160.770476,110.833119 C160.770476,110.833119 165.160476,133.880024 184.663333,126.839548 C184.663333,126.839548 193.117619,126.858595 203.06,112.739786 C203.06,112.739786 206.008333,117.213357 200.102381,129.47169 C200.102381,129.47169 206.724286,133.935976 206.343095,136.540262 C206.343095,136.540262 184.254048,165.51169 164.750238,168.45931 C164.750238,168.45931 149.701905,141.683119 125.409762,159.856214 C125.409762,159.856214 118.778333,164.311214 118.043571,170.263595 C118.043571,170.263595 84.9792857,139.739786 122.154524,114.506452 C122.154524,114.506452 135.035952,105.224548 160.77119,110.832643 L160.770476,110.833119 Z M164.472857,94.1102619 C164.472857,94.1102619 161.152619,100.788119 161.887381,104.889786 C161.887381,104.889786 93.4992857,86.9583571 79.4659524,140.482643 C79.4659524,140.482643 72.0811905,161.288119 93.0169048,183.982643 C93.0169048,183.982643 44.8216667,200.286452 23.5502381,151.942167 C23.5502381,151.942167 10.352619,112.889786 63.7002381,93.2469286 C63.7002381,93.2469286 107.859762,77.3057381 164.471667,94.111881 L164.472857,94.1102619 Z M31.4430952,2.49045238 C31.4430952,2.49045238 57.5502381,2.89966667 93.9621429,2.5742619 C93.9621429,2.5742619 97.6078571,29.3409286 68.2002381,26.3280714 C68.2002381,26.3280714 49.0688095,27.4255476 31.4430952,2.48997619 L31.4430952,2.49045238 Z M249.855,48.8447381 C249.855,48.8447381 247.994881,67.4459286 230.686429,88.6042619 L222.222857,86.7441429 C222.222857,86.7441429 216.689048,100.118429 211.17381,99.737 C211.17381,99.737 218.92119,80.0477143 200.17119,75.1917619 C181.42119,70.3274762 199.073714,74.4384286 199.073714,74.4384286 C199.073714,74.4384286 182.528,67.7234286 167.06181,90.017 C167.06181,90.017 65.3689524,48.267 0.776095238,129.228905 L0.906333333,16.9622381 L27.7563333,8.07080952 C27.7563333,8.07080952 47.9572857,37.4612857 79.2158571,31.5455714 C79.2158571,31.5455714 101.295381,27.4905714 99.1099048,2.20271429 C99.1099048,2.20271429 146.933714,-4.80990476 187.736095,16.0605714 L168.97681,16.7860238 C168.97681,16.7860238 221.562524,24.2915 249.855381,48.8455476 L249.855,48.8447381 Z" id="Shape"></path>
            </g>
        </g>
    </g>
</svg>