<?xml version="1.0" encoding="UTF-8" standalone="no"?>
<svg width="250px" height="250px" viewBox="0 0 250 250" version="1.1" xmlns="http://www.w3.org/2000/svg" xmlns:xlink="http://www.w3.org/1999/xlink">
    <!-- Generator: Sketch 47.1 (45422) - http://www.bohemiancoding.com/sketch -->
    <title>IOWAST</title>
    <desc>Created with Sketch.</desc>
    <defs></defs>
    <g id="Page-1" stroke="none" stroke-width="1" fill="none" fill-rule="evenodd">
        <g id="IOWAST" fill-rule="nonzero">
            <g id="Iowa_State_Cyclones_logo" transform="translate(0.000000, 36.000000)">
                <polyline id="Shape" fill="#FFCA38" points="175.879171 178.427761 72.8425644 178.427761 79.2444741 135.723662 96.5658875 135.723662 96.5658875 42.6908664 79.2444741 42.6908664 72.8425644 0 175.881817 0 169.474615 42.6908664 152.155848 42.6908664 152.155848 135.723662 169.474615 135.723662 175.879171 178.427761"></polyline>
                <polyline id="Shape" fill="#B81237" points="145.60044 142.279069 145.60044 36.1381055 163.826961 36.1381055 168.265159 6.55805386 80.4592226 6.55805386 84.8921282 36.1381055 103.123941 36.1381055 103.123941 142.279069 84.8921282 142.279069 80.4592226 171.875 168.265159 171.875 163.826961 142.279069 145.60044 142.279069"></polyline>
                <polyline id="Shape" fill="#830B2C" points="124.057842 21.6696308 88.3061272 21.6696308 84.8921282 36.1381055 103.123941 36.1381055 124.057842 21.6696308"></polyline>
                <polyline id="Shape" fill="#830B2C" points="145.60044 36.1381055 163.826961 36.1381055 160.415608 21.6696308 124.057842 21.6696308 145.60044 36.1381055"></polyline>
                <polyline id="Shape" fill="#830B2C" points="145.60044 142.279069 145.60044 36.1381055 124.057842 21.6696308 124.057842 158.052274 145.60044 142.279069"></polyline>
                <polyline id="Shape" fill="#830B2C" points="160.61145 158.052274 88.1102854 158.052274 80.4592226 171.875 168.265159 171.875 160.61145 158.052274"></polyline>
                <polyline id="Shape" fill="#830B2C" points="168.265159 171.875 160.608803 158.052274 163.826961 142.279069 168.265159 171.875"></polyline>
                <polyline id="Shape" fill="#830B2C" points="163.826961 36.1381055 160.415608 21.6696308 168.265159 6.55805386 163.826961 36.1381055"></polyline>
                <path d="M182.868606,178.433054 L182.741574,176.419059 C182.730987,176.154408 182.730987,175.839473 182.715108,175.461022 L182.680704,175.461022 C182.590722,175.760078 182.495448,176.167641 182.392234,176.482575 L181.772951,178.388063 L181.066332,178.388063 L180.462928,176.432292 L180.211509,175.461022 L180.174458,175.461022 C180.174458,175.778603 180.163872,176.120003 180.147993,176.419059 L180.023607,178.433054 L179.364626,178.433054 L179.618691,175.011115 L180.65083,175.011115 L181.233062,176.68371 C181.320397,176.948361 181.383913,177.19978 181.460662,177.554412 L181.481834,177.554412 L181.709434,176.710175 L182.302253,175.011115 L183.297341,175.011115 L183.551406,178.433054 L182.868606,178.433054 L182.868606,178.433054 Z M179.166137,175.011115 L179.166137,175.574822 L178.067835,175.574822 L178.067835,178.433054 L177.390329,178.433054 L177.390329,175.574822 L176.307906,175.574822 L176.307906,175.011115 L179.166137,175.011115 Z" id="Shape" fill="#FFCA38"></path>
                <path d="M162.673082,103.325076 C162.106728,103.245681 161.540375,103.171579 160.971375,103.09483 C160.929031,103.08689 158.065506,102.695207 156.678735,102.52583 C155.270791,102.367039 153.86814,102.210895 152.460196,102.07063 L152.359629,101.768928 L153.198573,101.853616 C153.357364,100.8797 153.518801,99.9031377 153.677591,98.9265752 C154.085154,96.4706131 154.487424,94.0172976 154.89234,91.5666286 C155.112,90.2301406 155.331661,88.8962991 155.553968,87.5598111 C154.14867,87.4010205 152.735434,87.2554624 151.324843,87.1204903 C149.951304,86.9881648 148.580412,86.8611323 147.209519,86.7552718 C146.018589,83.1745427 144.827659,79.6123391 143.636729,76.047489 C144.507431,76.1083587 145.383426,76.1692285 146.254129,76.2327447 C149.668128,76.5000423 153.074187,76.8308562 156.480246,77.2251863 C157.869665,77.383977 159.256436,77.5533537 160.637915,77.7412559 C160.442073,76.3730098 160.246231,75.0047637 160.055683,73.6391641 C159.86778,72.3291413 159.679878,71.0191184 159.494622,69.711742 C160.553227,69.8467141 161.614477,69.9869792 162.673082,70.1351838 L162.673082,103.325076 L162.673082,103.325076 Z M120.559155,85.8766303 C121.808308,82.0100779 123.046875,78.1541116 124.290735,74.3007918 C125.550474,78.1461721 126.815506,81.9994919 128.075246,85.8633977 C125.571646,85.8316396 123.062754,85.8369326 120.559155,85.8766303 Z M93.257749,102.502011 C91.8683308,102.663449 87.2554624,103.293318 86.6917556,103.372713 L86.6917556,70.182821 C87.7477134,70.0319699 88.8089643,69.8917048 89.8675686,69.7567327 C89.6823128,71.0641091 89.4997036,72.3767785 89.3091548,73.6841548 L88.7216294,77.7836001 C90.1084011,77.6009909 91.4951728,77.4316142 92.8819444,77.264884 C96.2853574,76.8679074 99.6940633,76.534447 103.108062,76.2592099 C104.092564,76.1877541 105.077066,76.1136518 106.066861,76.047489 C103.176872,84.6724678 100.281589,93.3397908 97.3968919,102.054751 C96.0154133,102.195016 94.6365811,102.343221 93.257749,102.502011 Z M221.97345,85.2282351 C225.718263,86.6441184 229.441904,88.139397 233.136433,89.7220105 C232.892954,91.9715447 232.649475,94.2210789 232.405996,96.4679666 C228.949653,94.9991531 225.472138,93.6070884 221.97345,92.283833 L221.97345,85.2282351 Z M204.125381,112.384083 C203.101181,112.074441 202.069042,111.772739 201.039549,111.473683 C200.393801,116.245342 199.750699,121.011708 199.097011,125.786014 C216.423717,130.642361 233.377265,137.232173 249.708884,145.552803 C249.610963,143.763762 249.510395,141.974721 249.412475,140.185679 C249.057842,133.463542 248.70321,126.738758 248.345931,120.013974 C243.209053,117.430979 238.008659,115.020008 232.757982,112.781059 C233.086149,116.250635 233.414317,119.717564 233.74513,123.189787 C229.849466,121.506606 225.924691,119.923992 221.97345,118.43136 L221.97345,107.95647 C225.437733,109.263847 228.878197,110.645325 232.300136,112.095613 C232.824145,107.91148 233.353447,103.727346 233.880102,99.5405657 C238.477092,101.530742 243.03703,103.647951 247.549331,105.897485 C247.935722,99.2150449 248.319466,92.532605 248.700563,85.8475186 C248.806424,84.6751143 248.909638,83.5000635 249.015498,82.3223662 C247.800749,81.6951431 246.583355,81.0679201 245.363313,80.4592226 C231.278582,73.5941734 216.757177,68.0179751 201.955242,63.6962229 L201.960535,63.6776973 C201.20628,63.4606834 200.446731,63.2489626 199.689829,63.0372417 L199.097011,62.8599255 L199.097011,62.8652185 C198.790015,62.7805301 198.485666,62.6905488 198.178671,62.6058604 C180.75669,57.7839177 162.977431,54.7166116 145.097603,53.3960027 C143.79552,53.3033748 142.504023,53.2186865 141.201939,53.1392912 C141.297214,54.4016768 141.392488,55.666709 141.48247,56.9317412 C141.871507,62.1903582 142.255251,67.4463288 142.641641,72.7022993 L142.673399,73.1601457 C140.680577,67.1949102 138.685108,61.2429074 136.689638,55.3173696 C136.411755,54.5022442 136.136518,53.6844724 135.863927,52.8719936 C134.993225,52.8349424 134.119876,52.8084773 133.249174,52.7820122 C127.657097,52.609989 122.062373,52.609989 116.470296,52.7820122 C115.604887,52.8111238 114.742124,52.8455285 113.871422,52.8878726 C113.596185,53.6977049 113.318301,54.5154768 113.048357,55.3279556 C110.894097,61.6901677 108.739837,68.0788449 106.590871,74.4939871 C106.633215,73.9038152 106.672912,73.3136433 106.717903,72.7261179 C107.101647,67.4701474 107.490684,62.2141768 107.877075,56.9582063 C107.969703,55.6931741 108.062331,54.4254954 108.157605,53.1578167 C106.858168,53.2372121 105.561378,53.3271934 104.264588,53.4277608 C86.3874068,54.7668953 68.608147,57.8553735 51.1941057,62.6958418 C50.5060129,62.8916836 46.020177,64.1911204 45.3241446,64.4001948 C35.4791243,67.374873 25.7611365,70.9106114 16.2178184,75.0153498 C12.7800008,76.4973958 9.74445291,78.6754743 7.18792344,81.4384316 C6.68773289,81.9756733 6.2510586,82.4758638 5.82761687,83.005166 C2.564469,87.0913787 0.926278794,91.439596 0.926278794,95.827511 L0.926278794,107.260438 C0.926278794,111.698637 2.5882876,114.474826 5.7138169,115.364054 L6.32516091,115.514905 L6.39397019,115.525491 C8.99549035,116.086551 12.2956894,115.477854 16.2178184,113.786734 C21.0132961,111.725102 25.8564109,109.803735 30.7365769,108.025279 C31.1017954,107.8956 31.3135163,107.866489 31.4061441,107.866489 C31.4458418,107.945884 31.5411162,108.194656 31.5411162,108.798061 L31.5411162,115.967459 C31.5411162,116.568216 31.4405488,116.891091 31.4034976,116.996951 C31.3082232,117.060467 31.0965024,117.184853 30.7365769,117.317179 C26.737699,118.77276 22.7599932,120.331555 18.8140456,121.975038 C19.0072409,120.617378 19.2057292,119.254425 19.3989245,117.899411 C19.6027058,116.45177 19.8144267,115.012068 20.0155615,113.567073 C18.6896596,114.114901 17.3584646,114.673315 16.0325627,115.250254 C12.2480522,116.875212 8.4952998,118.595444 4.76901253,120.403011 C3.73951982,120.905848 2.7100271,121.411331 1.68318089,121.927401 C1.60378557,123.052168 1.51909722,124.174289 1.4397019,125.299056 C1.05331131,130.734989 0.666920732,136.173569 0.28317666,141.609502 C0.185255759,142.924818 0.0952743902,144.237487 0,145.552803 C1.19886941,144.944106 2.40038533,144.343348 3.60454776,143.747883 C13.5289634,138.875656 23.675686,134.630653 33.9864922,131.018166 C37.8292259,129.679031 41.1426575,127.802655 43.8050474,125.39433 C44.2046706,125.034405 44.548717,124.700944 44.8954099,124.348958 C48.2617717,120.852918 50.04552,116.711128 50.0428735,112.267636 L50.0428735,100.114859 C50.04552,95.692539 48.2617717,92.522019 44.8954099,91.055852 L44.8557122,91.0399729 L44.8133681,91.0188008 C44.5196054,90.9050008 44.2126101,90.812373 43.8950288,90.7223916 C41.1426575,89.9390244 37.8027608,90.1877964 33.9864922,91.5189914 C29.1433774,93.2154048 24.3373137,95.0494368 19.5735942,97.0263804 C19.2242547,97.169292 19.0125339,97.2116362 18.9278455,97.2195757 C18.8855014,97.1428269 18.7875805,96.9046409 18.7875805,96.2906504 L18.7875805,89.7696477 C18.7875805,89.2165269 18.8696223,88.9201177 18.9066734,88.8195503 C18.9966548,88.750741 19.2110222,88.6104759 19.5735942,88.4596248 C23.0458164,87.0225694 26.5418572,85.6569699 30.0590701,84.3654726 C29.8870469,85.4426025 29.1036797,90.5080242 28.8734333,91.9636052 C30.2390329,91.4581216 31.5966929,90.9579311 32.9675855,90.4736196 C36.6621147,89.1635967 40.3831089,87.9329692 44.1226287,86.7896765 C45.1997586,86.4588626 46.2768886,86.1306953 47.361958,85.8157605 C47.4466463,84.709519 47.5313347,83.6006309 47.6186695,82.4917429 C47.8198044,79.9405064 48.0235857,77.38927 48.2194275,74.84068 C48.4205623,77.5110095 48.6137576,80.1786924 48.8069529,82.8490218 C48.8863482,83.9182122 48.9604505,84.9847561 49.0398459,86.0539465 C50.1355014,85.7416582 51.2311568,85.4320164 52.3188728,85.1356072 C55.6508299,84.2252075 58.9907266,83.3809705 62.3412093,82.5976033 C63.7068089,82.280022 65.075055,81.9730268 66.4433012,81.673971 C66.2501059,80.3745342 66.0569106,79.0750974 65.8637153,77.7783071 C65.681106,76.5318005 65.4984968,75.2879404 65.3105945,74.0467268 C66.3639058,73.8111873 67.4066311,73.5835874 68.4599424,73.363927 L68.4599424,106.553819 C67.8988821,106.675559 64.7177761,107.368945 63.6962229,107.596545 C63.5480183,108.63927 63.3998137,109.681995 63.2516091,110.716781 C62.8705115,113.416222 62.4841209,116.107724 62.1056699,118.801872 L61.5128515,122.978066 C62.8784511,122.652545 64.2519902,122.342903 65.6228828,122.035908 C73.5518293,120.286564 81.533706,118.894499 89.5579268,117.859714 C90.9446985,117.679751 92.3367632,117.510374 93.7288279,117.348937 L93.7288279,117.346291 L94.4248603,117.266895 C99.0377287,116.750826 103.661183,116.356496 108.292577,116.075965 C109.176512,116.023035 110.063093,115.975398 110.95232,115.930407 C111.216972,115.09411 111.481623,114.255166 111.746274,113.424162 C113.413576,108.186717 115.080877,102.970444 116.745533,97.7647569 C117.007537,98.143208 117.264249,98.5190125 117.526253,98.9001101 C117.886179,99.4161797 118.243458,99.9375423 118.600737,100.461551 C119.251778,100.445672 119.905467,100.435086 120.559155,100.421854 C124.581851,100.358338 128.615134,100.384803 132.63783,100.498603 C133.844639,104.735666 135.046155,108.98067 136.247671,113.230966 C136.501736,114.101668 136.753155,114.977663 137.00722,115.848366 C137.928205,115.888063 138.843898,115.933054 139.762237,115.983338 C145.020855,116.266514 150.274179,116.705835 155.508977,117.290714 L155.633363,117.303946 L155.633363,117.309239 C157.025428,117.46803 158.414846,117.63476 159.806911,117.81737 C167.831131,118.841569 175.815655,120.225694 183.744601,121.961806 C185.11814,122.263508 186.491679,122.57315 187.859925,122.89867 C187.661437,121.503959 187.462949,120.111894 187.264461,118.722476 C186.886009,116.025682 186.499619,113.33418 186.118521,110.640032 L185.673908,107.522442 C184.644415,107.286903 183.614922,107.056657 182.590722,106.839643 C182.027016,106.72055 181.465955,106.59881 180.907541,106.482364 L180.907541,73.2924712 C181.958206,73.5147781 183.003578,73.7344385 184.056889,73.969978 C183.868987,75.2138381 183.686378,76.4576982 183.503769,77.7015583 C183.307927,79.0009951 183.117378,80.2977854 182.921536,81.5972222 C184.287136,81.8936314 185.660675,82.2006267 187.026275,82.518208 C190.379404,83.2962822 193.7193,84.1378726 197.051258,85.0376863 C198.14162,85.3393886 199.237276,85.6463838 200.330285,85.9586721 C200.404387,84.8868352 200.489075,83.8202913 200.563178,82.7511009 C200.69021,81.0096968 200.817243,79.2656462 200.946922,77.5268886 L201.039549,78.2705581 C202.360158,78.6516557 203.683414,79.0406928 204.996083,79.4456089 L204.996083,86.5012068 C203.699293,86.1068767 202.399856,85.7204861 201.097773,85.3473281 C201.740875,90.7541497 202.378684,96.1636179 203.024433,101.583672 C203.683414,101.774221 204.337102,101.970063 204.996083,102.176491 L204.996083,112.646087 L204.125381,112.384083 Z" id="Shape" fill="#830B2C"></path>
                <path d="M42.7993733,94.2396045 L42.0901084,94.0093581 C39.8802718,93.3980141 37.1940633,93.6097349 33.9600271,94.734502 C29.1195588,96.4256225 24.3108486,98.2543614 19.541836,100.223366 C17.9380505,100.88764 16.8053438,100.845296 16.117251,100.114859 C15.614414,99.5882029 15.3471164,98.6989753 15.3471164,97.4048315 C15.3471164,95.2346926 15.3471164,93.0566142 15.3471164,90.8864753 C15.3497629,89.5049966 15.6673442,88.3114202 16.2760417,87.2951601 C16.972074,86.1333418 18.0571435,85.2202956 19.541836,84.606305 C24.3637788,82.6134824 29.2280657,80.7662178 34.1241108,79.0618648 C33.7324272,81.5866362 33.3354505,84.1114075 32.9411204,86.6361789 C36.6382961,85.3340955 40.3592903,84.1061145 44.0988101,82.9628218 C44.4984333,77.8550559 44.9007029,72.741997 45.3029726,67.634231 L45.3029726,67.628938 C35.4553057,70.5930301 25.7320249,74.1181826 16.1860603,78.2096883 C13.2696054,79.461488 10.858634,81.1975991 8.82876016,83.367738 C8.46618818,83.7488355 8.11420224,84.1458122 7.77809536,84.5586679 C5.37771003,87.5359925 4.22912432,90.6032986 4.22912432,93.8241023 C4.22912432,97.6324314 4.22912432,101.443407 4.22912432,105.254383 C4.22912432,108.557228 5.37771003,110.560637 7.69340701,111.246083 L8.2041836,111.367823 C10.2896341,111.830962 12.9387915,111.322832 16.1860603,109.933414 C20.9841845,107.871782 25.8299458,105.961001 30.7154048,104.182546 C32.2053904,103.640011 33.3089854,103.703527 34.0182503,104.320164 C34.6507664,104.857406 34.9815803,105.831322 34.9815803,107.263084 C34.9815803,109.650237 34.9815803,112.040036 34.9815803,114.429836 C34.9815803,115.745152 34.6957571,116.859333 34.1664549,117.796197 C33.4624831,119.034765 32.3138974,119.950457 30.7154048,120.527397 C25.3588669,122.475229 20.0552591,124.587144 14.7992886,126.87373 C15.1989118,124.063135 15.5985349,121.249894 16.0008045,118.441946 C12.216294,120.06955 8.46089516,121.781843 4.73196138,123.586763 C4.34027778,129.014757 3.95918022,134.442751 3.56749661,139.878684 C13.4945588,135.014397 23.6492209,130.785273 33.9600271,127.180725 C37.2152354,126.048018 39.8776253,124.5448 42.0054201,122.612847 L42.7993733,121.845359 C45.3003261,119.225313 46.5044885,116.292979 46.5044885,112.995427 C46.5044885,108.943619 46.5044885,104.891811 46.5044885,100.837356 C46.5044885,97.537157 45.3003261,95.3114414 42.7993733,94.2396045" id="Shape" fill="#FFE46D"></path>
                <path d="M89.5420478,114.085789 C89.1530107,111.526613 88.7639736,108.97273 88.382876,106.418847 C86.6097138,106.654387 84.8418445,106.903159 83.0739753,107.173103 C83.0739753,93.760586 83.0739753,80.3454226 83.0739753,66.9302591 C86.7155742,66.3744919 90.3598196,65.8954734 94.0120046,65.4879107 C93.6282605,68.1582402 93.2445164,70.8259231 92.8660654,73.4962525 C96.2694783,73.0992759 99.6781843,72.7737551 103.092183,72.503811 C103.478574,67.2372544 103.864964,61.9812839 104.251355,56.7173738 C86.3741743,58.0379827 68.592268,61.1105818 51.1755801,65.929878 C51.5487381,71.0588161 51.9218962,76.1904006 52.3029937,81.3166921 C55.6296579,80.4142319 58.9695545,79.5699949 62.3226838,78.7892742 C61.9495257,76.2512703 61.5737212,73.7159129 61.1952702,71.1805556 C64.7918784,70.3283791 68.3964262,69.5529514 72.016853,68.8489795 C72.016853,82.264143 72.016853,95.6766599 72.016853,109.091823 C70.2595698,109.433223 68.5075796,109.793149 66.7555894,110.168953 C66.3718454,112.857808 65.9881013,115.546663 65.6043572,118.235518 C73.5359502,116.496761 81.5178269,115.112636 89.5420478,114.085789" id="Shape" fill="#FFE46D"></path>
                <path d="M115.607533,89.3065083 C118.489583,80.2951389 121.368987,71.3261137 124.258977,62.4047256 C127.183371,71.3208206 130.102473,80.2845528 133.029514,89.2932757 C127.223069,89.1106665 121.413978,89.113313 115.607533,89.3065083 M139.751651,112.262343 C145.007622,112.55346 150.260946,113.00072 155.498391,113.590892 C155.884782,111.02113 156.273819,108.451368 156.665502,105.884252 C154.389503,105.616955 152.113504,105.381415 149.837504,105.167048 C149.003853,102.642276 148.172849,100.117505 147.339198,97.6033198 C148.257537,97.6774221 149.175877,97.7594639 150.094216,97.8415058 C150.501778,95.3828972 150.904048,92.9242886 151.311611,90.4683266 C149.070016,90.2460196 146.828421,90.0581174 144.58418,89.8966802 C140.804963,78.5537348 137.020452,67.2954776 133.235942,56.1086763 C127.646511,55.9313601 122.04914,55.9234206 116.457063,56.0848577 L116.470296,56.1060298 C110.9682,72.2735645 105.471397,88.6025364 99.982533,105.103532 C97.7356453,105.30202 95.4861111,105.532266 93.2445164,105.786331 C93.6335535,108.35874 94.0225906,110.928502 94.4089812,113.495617 C99.0244961,112.984841 103.647951,112.59845 108.279345,112.323213 C110.703548,104.666857 113.133045,97.03432 115.562542,89.4414804 C117.221905,91.8392192 118.881267,94.2554836 120.545922,96.6796875 C125.492251,96.6082317 130.43858,96.6743945 135.384909,96.8649433 C136.829903,101.991235 138.274898,107.117526 139.727833,112.262343" id="Shape" fill="#FFE46D"></path>
                <path d="M183.726076,118.293742 C183.344978,115.60224 182.958587,112.913385 182.574843,110.22453 C180.8255,109.846079 179.068216,109.486153 177.316226,109.142107 C177.316226,95.7269436 177.316226,82.3117801 177.316226,68.8992632 C180.93136,69.6058816 184.538554,70.3866023 188.132516,71.2414253 C187.759358,73.7794292 187.380907,76.3147866 187.002456,78.8527905 C190.358232,79.6308647 193.698128,80.4777481 197.024793,81.3907944 C197.403244,76.2592099 197.781695,71.1329184 198.160146,66.0039804 C180.740811,61.163512 162.961551,58.0750339 145.079078,56.7385459 C145.468115,61.9971629 145.854505,67.2637195 146.240896,72.5249831 C149.654895,72.7949272 153.066247,73.125741 156.467014,73.5227176 C156.085916,70.8523882 155.704819,68.1873518 155.321075,65.5170224 C158.97326,65.9272315 162.620152,66.4141895 166.253811,66.9673103 C166.253811,80.3877668 166.253811,93.8029302 166.253811,107.215447 C164.491235,106.945503 162.723366,106.691438 160.955496,106.453252 C160.569106,109.007135 160.177422,111.561018 159.791032,114.120194 C167.815252,115.152333 175.799776,116.547044 183.726076,118.293742" id="Shape" fill="#FFE46D"></path>
                <path d="M245.326262,83.9182122 C231.614689,77.2119538 217.482321,71.7151507 203.085302,67.4225102 C203.426702,70.1272442 203.762809,72.8293318 204.104209,75.5340659 C205.562436,75.9760332 207.020664,76.4312331 208.476245,76.897019 C208.476245,81.5972222 208.476245,86.3027185 208.476245,91.0082148 C207.335599,90.6403498 206.18966,90.2830708 205.046367,89.9310849 C205.400999,92.9137026 205.750339,95.8936738 206.104971,98.873645 C206.896278,99.122417 207.687585,99.3738355 208.476245,99.6279006 C208.476245,105.466103 208.476245,111.312246 208.476245,117.150449 C207.020664,116.687309 205.562436,116.234756 204.104209,115.787496 C203.762809,118.293742 203.426702,120.792048 203.085302,123.298294 C217.770791,127.672976 232.175749,133.302105 246.141387,140.188326 L246.125508,140.1698 C245.80528,134.085472 245.482406,127.998497 245.162178,121.914168 C242.285421,120.511518 239.395431,119.159151 236.486916,117.86236 C236.80979,121.339876 237.14325,124.812098 237.466125,128.289613 C231.217713,125.471079 224.884612,122.903963 218.493288,120.575034 C218.493288,114.736831 218.493288,108.890689 218.493288,103.049839 C222.100483,104.357215 225.689151,105.751927 229.256648,107.223387 C229.595401,104.489541 229.944741,101.758342 230.288787,99.0324356 C226.379891,97.402185 222.449822,95.8698552 218.493288,94.4301533 C218.493288,89.72995 218.493288,85.0218072 218.493288,80.3189575 C224.686124,82.5737847 230.823382,85.0562119 236.883892,87.771532 C236.555725,90.7885544 236.227558,93.8135163 235.902037,96.8331851 C238.739096,98.0902778 241.562923,99.3976541 244.362932,100.755314 C244.688453,95.1420647 245.008681,89.5314617 245.331555,83.9208587" id="Shape" fill="#FFE46D"></path>
                <path d="M33.7271341,98.7280869 C30.7233443,99.6781843 19.293064,104.126969 16.7444741,105.307313 C14.6801956,106.191247 13.0949356,106.389736 11.9463499,105.995406 C10.6971968,107.779154 9.45333672,109.565549 8.2041836,111.367823 C10.2896341,111.830962 12.9387915,111.322832 16.1860603,109.933414 C20.9841845,107.871782 25.8299458,105.961001 30.7154048,104.182546 C32.2053904,103.640011 33.3089854,103.703527 34.0182503,104.320164 C35.5161755,102.367039 37.0246867,100.435086 38.5331978,98.5137195 C37.3052168,98.0505801 35.6643801,98.0532266 33.7271341,98.7280869" id="Shape" fill="#FFCA38"></path>
                <path d="M9.80796917,91.9133215 C9.80796917,94.9303438 9.80796917,99.1382961 9.80796917,101.917132 C9.81061568,104.156081 10.5410527,105.526973 11.9463499,105.995406 C13.3331216,104.023755 14.7251863,102.065337 16.117251,100.114859 C15.614414,99.5882029 15.3471164,98.6989753 15.3471164,97.4048315 C15.3471164,95.2346926 15.3471164,93.0566142 15.3471164,90.8864753 C15.3497629,89.5049966 15.6673442,88.3114202 16.2760417,87.2951601 C14.9739583,86.5911882 13.671875,85.9004488 12.3750847,85.2176491 C10.609862,87.2660484 9.80796917,89.6346756 9.80796917,91.9133215" id="Shape" fill="#FFCA38"></path>
                <path d="M42.7993733,94.2396045 L42.0901084,94.0093581 C40.8991785,95.5072832 39.7161882,96.9999153 38.5331978,98.5137195 C39.9887788,99.0589007 40.8594809,100.260417 40.8594809,101.893314 C40.8594809,106.140964 40.8594809,110.385967 40.8594809,114.630971 C40.8277227,116.388254 39.8458672,118.709244 38.4432165,120.395071 C39.6262068,121.125508 40.8171367,121.866531 42.0054201,122.612847 L42.7993733,121.845359 C45.3003261,119.225313 46.5044885,116.292979 46.5044885,112.995427 C46.5044885,108.943619 46.5044885,104.891811 46.5044885,100.837356 C46.5044885,97.537157 45.3003261,95.3114414 42.7993733,94.2396045" id="Shape" fill="#FFCA38"></path>
                <path d="M17.588711,81.538999 C15.3232978,82.4943894 13.6136518,83.7779472 12.3750847,85.2176491 C13.671875,85.9004488 14.9739583,86.5938347 16.2760417,87.2951601 C16.972074,86.1333418 18.0571435,85.2202956 19.541836,84.606305 C24.3637788,82.6134824 29.2280657,80.7662178 34.1241108,79.0618648 C35.9660823,77.1246189 37.8159934,75.2138381 39.6659045,73.3189363 C32.218623,75.7325542 24.8560298,78.4743394 17.588711,81.538999" id="Shape" fill="#FFCA38"></path>
                <path d="M38.575542,80.7741574 C36.6965193,82.7061103 34.8201431,84.6618818 32.94906,86.6335324 C36.6488821,85.3288025 40.3645833,84.103468 44.0988101,82.9628218 C42.2541921,82.2112127 40.409574,81.4834223 38.575542,80.7741574" id="Shape" fill="#FFCA38"></path>
                <path d="M38.4432165,120.395071 C37.6863144,121.300178 36.8103193,122.030615 35.897273,122.374661 C26.975885,125.412856 18.1709434,128.922129 9.51949949,132.907774 C7.52667683,135.204946 5.5417937,137.528582 3.56749661,139.878684 C13.4945588,135.014397 23.6492209,130.785273 33.9600271,127.180725 C37.2152354,126.048018 39.8776253,124.5448 42.0054201,122.612847 C40.8171367,121.866531 39.6262068,121.125508 38.4432165,120.395071" id="Shape" fill="#FFCA38"></path>
                <path d="M16.0008045,118.441946 C14.1059028,120.606792 12.2215871,122.800749 10.3452109,125.015879 C10.0673272,127.643864 9.79209011,130.274496 9.51949949,132.907774 C11.2714897,130.875254 13.0367124,128.863906 14.7992886,126.87373 C15.1989118,124.063135 15.5985349,121.249894 16.0008045,118.441946" id="Shape" fill="#FFCA38"></path>
                <path d="M39.6659045,73.3189363 C39.300686,75.8013635 38.9354675,78.2890837 38.575542,80.7741574 C40.409574,81.4834223 42.2541921,82.2112127 44.0988101,82.9628218 C44.4984333,77.8550559 44.9007029,72.741997 45.3029726,67.634231 C43.4186568,69.5106072 41.5396341,71.405509 39.6659045,73.3189363" id="Shape" fill="#FFCA38"></path>
                <path d="M62.3226838,78.7892742 C60.5706936,77.892107 58.8160569,77.0134654 57.0693598,76.1454099 C55.4788067,77.8577024 53.8882537,79.580581 52.3029937,81.3166921 C55.6349509,80.4142319 58.9722011,79.5699949 62.3226838,78.7892742" id="Shape" fill="#FFCA38"></path>
                <path d="M62.3226838,78.7892742 C61.9495257,76.2512703 61.5737212,73.7159129 61.1952702,71.1805556 C59.5147358,70.2780954 57.8342014,69.3915142 56.15896,68.5181657 C56.4659553,71.0588161 56.7676575,73.602113 57.0693598,76.1454099 C58.8160569,77.0134654 60.5706936,77.892107 62.3226838,78.7892742" id="Shape" fill="#FFCA38"></path>
                <path d="M77.5401211,63.9344089 C70.3680767,65.1729759 63.241023,66.7053057 56.15896,68.5181657 C57.8342014,69.3915142 59.5147358,70.2780954 61.1952702,71.1805556 C64.7918784,70.3283791 68.3964262,69.5529514 72.016853,68.8489795 C73.856178,67.1896172 75.695503,65.551427 77.5401211,63.9344089" id="Shape" fill="#FFCA38"></path>
                <path d="M77.5401211,111.746274 C77.5401211,95.8063389 77.5374746,79.8690506 77.5374746,63.9344089 C79.3794461,64.9136179 81.2267107,65.9113525 83.0739753,66.9302591 C83.0739753,80.3454226 83.0739753,93.760586 83.0739753,107.173103 C81.2267107,108.678968 79.3794461,110.203358 77.5401211,111.746274" id="Shape" fill="#FFCA38"></path>
                <path d="M92.8660654,73.4962525 C94.6471672,71.9850949 96.4309155,70.4871697 98.2120173,69.0077702 C99.842268,70.1590024 101.461933,71.3234671 103.089537,72.503811 C99.6781843,72.7737551 96.2694783,73.0992759 92.8660654,73.4962525" id="Shape" fill="#FFCA38"></path>
                <path d="M99.2071054,61.0576516 C100.884993,59.5941311 102.568174,58.1491362 104.251355,56.7173738 C103.864964,61.9812839 103.478574,67.2372544 103.092183,72.503811 L103.089537,72.503811 C101.461933,71.3234671 99.842268,70.1590024 98.2120173,69.0077702 C98.5454776,66.3586128 98.873645,63.7068089 99.2071054,61.0576516" id="Shape" fill="#FFCA38"></path>
                <path d="M77.5374746,63.9344089 C84.725398,62.6852558 91.9583122,61.7272188 99.2071054,61.0576516 C97.4709942,62.5158791 95.7428227,63.9952786 94.0120046,65.4879107 C90.3598196,65.8954734 86.7155742,66.3771384 83.0739753,66.9302591 C81.2267107,65.9113525 79.3794461,64.9136179 77.5374746,63.9344089" id="Shape" fill="#FFCA38"></path>
                <path d="M89.5420478,114.085789 C88.1658621,112.876334 86.797616,111.672171 85.4214304,110.489181 C80.1575203,111.243437 74.9068428,112.153836 69.6826304,113.215087 C68.3276169,114.879743 66.9646638,116.552337 65.6043572,118.235518 C73.5359502,116.496761 81.5178269,115.112636 89.5420478,114.085789" id="Shape" fill="#FFCA38"></path>
                <path d="M88.382876,106.418847 C87.393081,107.768568 86.4059324,109.126228 85.4214304,110.489181 C86.797616,111.672171 88.1658621,112.876334 89.5420478,114.085789 C89.1530107,111.526613 88.7639736,108.97273 88.382876,106.418847" id="Shape" fill="#FFCA38"></path>
                <path d="M96.2615388,109.120935 C95.6396087,110.576516 95.0282647,112.03739 94.4089812,113.495617 C99.0244961,112.984841 103.647951,112.59845 108.279345,112.323213 C106.900512,111.015837 105.526973,109.713753 104.156081,108.424903 C101.517509,108.618098 98.884231,108.850991 96.2615388,109.120935" id="Shape" fill="#FFCA38"></path>
                <path d="M147.339198,97.6033198 C148.257537,97.6774221 149.175877,97.7594639 150.094216,97.8415058 C149.511983,96.5288364 148.927105,95.2188135 148.342226,93.9034976 C145.637492,93.6732512 142.93805,93.4747629 140.235963,93.3212652 C142.60459,94.7159765 144.973217,96.1450923 147.339198,97.6033198" id="Shape" fill="#FFCA38"></path>
                <path d="M153.64848,109.210916 C150.824653,108.914507 148.000826,108.655149 145.171706,108.440782 C143.361492,109.697874 141.556572,110.970846 139.751651,112.262343 C145.007622,112.55346 150.260946,113.00072 155.498391,113.590892 C154.881754,112.127371 154.265117,110.67179 153.64848,109.210916" id="Shape" fill="#FFCA38"></path>
                <path d="M144.58418,89.8966802 C140.804963,78.5537348 137.020452,67.2954776 133.235942,56.1060298 C131.896807,57.371062 130.557673,58.6440337 129.218538,59.930238 C132.891895,70.9847138 136.565252,82.1185849 140.235963,93.3212652 C141.686251,92.1673865 143.139185,91.0240938 144.58418,89.8966802" id="Shape" fill="#FFCA38"></path>
                <path d="M120.106601,59.9275915 C114.784468,75.933689 109.459688,92.1038703 104.156081,108.424903 C105.526973,109.713753 106.900512,111.015837 108.279345,112.323213 C113.598831,95.5284553 118.928904,78.8924881 124.258977,62.4047256 C122.872205,61.5684282 121.485434,60.7400703 120.106601,59.9275915" id="Shape" fill="#FFCA38"></path>
                <path d="M140.235963,93.3212652 C134.072239,92.9692793 127.903222,92.8263677 121.736852,92.889884 C121.339876,94.1522696 120.940252,95.4173018 120.545922,96.6796875 C125.492251,96.6082317 130.43858,96.6743945 135.384909,96.8649433 C137.001927,95.6713669 138.618945,94.48573 140.235963,93.3212652" id="Shape" fill="#FFCA38"></path>
                <path d="M149.837504,105.167048 C149.003853,102.642276 148.172849,100.117505 147.339198,97.6033198 C144.973217,96.1450923 142.60459,94.7159765 140.235963,93.3212652 C141.884739,98.3469893 143.525576,103.385946 145.171706,108.440782 C146.727854,107.337187 148.281356,106.244178 149.837504,105.167048" id="Shape" fill="#FFCA38"></path>
                <path d="M150.094216,97.8415058 C149.511983,96.5288364 148.927105,95.2188135 148.342226,93.9034976 C149.334667,92.7549119 150.321816,91.6089727 151.311611,90.4683266 C150.904048,92.9242886 150.501778,95.3828972 150.094216,97.8415058" id="Shape" fill="#FFCA38"></path>
                <path d="M155.498391,113.590892 C154.881754,112.127371 154.265117,110.67179 153.64848,109.210916 C154.651507,108.096735 155.657182,106.985201 156.665502,105.884252 C156.273819,108.451368 155.884782,111.02113 155.498391,113.590892" id="Shape" fill="#FFCA38"></path>
                <path d="M120.106601,59.9275915 C121.485434,60.7400703 122.872205,61.5684282 124.258977,62.4047256 C125.913046,61.5631352 127.561822,60.7374238 129.218538,59.930238 C126.180344,59.8773078 123.139503,59.8746612 120.106601,59.9275915" id="Shape" fill="#FFCA38"></path>
                <path d="M156.467014,73.5227176 C154.683266,72.01156 152.90481,70.5162813 151.115769,69.0342353 C149.496104,70.182821 147.8685,71.3499322 146.243543,72.5249831 C149.654895,72.7949272 153.066247,73.125741 156.467014,73.5227176" id="Shape" fill="#FFCA38"></path>
                <path d="M156.467014,73.5227176 C156.085916,70.8523882 155.704819,68.1873518 155.321075,65.5170224 C153.614075,64.0243902 151.904429,62.5476372 150.194783,61.0867632 C150.501778,63.7385671 150.808774,66.3797849 151.115769,69.0342353 C152.90481,70.5162813 154.683266,72.01156 156.467014,73.5227176" id="Shape" fill="#FFCA38"></path>
                <path d="M171.795605,63.976753 C164.628853,62.7249534 157.419758,61.76427 150.194783,61.0867632 C151.904429,62.5476372 153.614075,64.0243902 155.321075,65.5170224 C158.97326,65.9272315 162.620152,66.4141895 166.253811,66.9673103 C168.103722,65.9510501 169.953633,64.9559621 171.795605,63.976753" id="Shape" fill="#FFCA38"></path>
                <path d="M171.795605,111.788618 C171.795605,95.8513296 171.795605,79.9140413 171.795605,63.976753 C173.637576,65.6017107 175.479548,67.2372544 177.316226,68.8992632 C177.316226,82.3117801 177.316226,95.7269436 177.316226,109.142107 C175.479548,110.00487 173.637576,110.888804 171.795605,111.788618" id="Shape" fill="#FFCA38"></path>
                <path d="M187.002456,78.8527905 C188.759739,77.9529768 190.511729,77.0716887 192.261073,76.2142192 C193.851626,77.9238652 195.439533,79.6467437 197.027439,81.3907944 C193.695482,80.4777481 190.355585,79.6308647 187.002456,78.8527905" id="Shape" fill="#FFCA38"></path>
                <path d="M193.232342,68.602854 C194.873179,67.7215659 196.519309,66.8535103 198.160146,66.0039804 C197.781695,71.1329184 197.403244,76.2592099 197.024793,81.3907944 C195.439533,79.6467437 193.851626,77.9238652 192.261073,76.2142192 C192.583947,73.6762153 192.904175,71.1382114 193.232342,68.602854" id="Shape" fill="#FFCA38"></path>
                <path d="M171.795605,63.976753 C178.983528,65.2311992 186.1344,66.7714685 193.232342,68.602854 C191.535929,69.4656165 189.839516,70.3442581 188.135163,71.2414253 C184.538554,70.3866023 180.93136,69.6058816 177.316226,68.8992632 C175.479548,67.2372544 173.637576,65.6017107 171.795605,63.976753" id="Shape" fill="#FFCA38"></path>
                <path d="M183.726076,118.293742 C182.368415,116.605268 181.010755,114.932673 179.645156,113.270664 C174.42359,112.201474 169.172912,111.285781 163.909002,110.523586 C162.53811,111.709223 161.164571,112.910738 159.791032,114.120194 C167.815252,115.152333 175.799776,116.547044 183.726076,118.293742" id="Shape" fill="#FFCA38"></path>
                <path d="M182.574843,110.22453 C181.598281,111.232851 180.621718,112.249111 179.645156,113.268017 C181.010755,114.932673 182.368415,116.605268 183.726076,118.293742 C183.344978,115.60224 182.958587,112.913385 182.574843,110.22453" id="Shape" fill="#FFCA38"></path>
                <path d="M240.970105,85.7522442 C240.66311,89.2906292 240.353468,92.8263677 240.046473,96.3647527 C241.494114,97.8150407 242.933816,99.2759146 244.362932,100.755314 C244.688453,95.1420647 245.008681,89.5314617 245.331555,83.9208587 C243.881267,84.5163237 242.428332,85.1276677 240.970105,85.7522442" id="Shape" fill="#FFCA38"></path>
                <path d="M240.970105,85.7522442 C231.934917,81.5284129 222.722413,77.8180047 213.38023,74.6316057 C215.087229,76.5079819 216.794228,78.4028836 218.493288,80.3189575 C224.686124,82.5737847 230.823382,85.0562119 236.883892,87.771532 C238.254785,87.0834392 239.609798,86.4112254 240.970105,85.7522442" id="Shape" fill="#FFCA38"></path>
                <path d="M213.38023,74.6316057 C213.38023,82.0021384 213.38023,89.3753176 213.38023,96.7511433 C215.087229,95.9598366 216.794228,95.1844089 218.493288,94.4301533 C218.493288,89.72995 218.493288,85.0218072 218.493288,80.3189575 C216.794228,78.4028836 215.087229,76.5079819 213.38023,74.6316057" id="Shape" fill="#FFCA38"></path>
                <path d="M218.493288,103.049839 C222.100483,104.357215 225.689151,105.751927 229.256648,107.223387 C228.735285,105.511094 228.213923,103.793509 227.695207,102.081216 C222.960599,100.170435 218.186293,98.39198 213.38023,96.7511433 C215.087229,98.8313008 216.791582,100.93263 218.493288,103.049839" id="Shape" fill="#FFCA38"></path>
                <path d="M213.38023,96.7511433 C213.38023,105.29408 213.38023,113.84231 213.38023,122.385247 C215.087229,121.765964 216.794228,121.159913 218.493288,120.575034 C218.493288,114.736831 218.493288,108.890689 218.493288,103.049839 C216.794228,100.93263 215.087229,98.8313008 213.38023,96.7511433" id="Shape" fill="#FFCA38"></path>
                <path d="M245.162178,121.914168 C243.690718,121.956513 242.227198,122.014736 240.747798,122.088838 C241.075965,126.013614 241.39884,129.938389 241.724361,133.860518 C243.198467,135.951262 244.664634,138.057884 246.125508,140.183033 C245.80528,134.093411 245.482406,128.001143 245.162178,121.914168" id="Shape" fill="#FFCA38"></path>
                <path d="M241.724361,133.860518 C230.008257,128.339897 217.998391,123.692624 205.790036,119.916053 C204.887576,121.038173 203.987763,122.16294 203.085302,123.298294 C217.770791,127.672976 232.173103,133.302105 246.141387,140.188326 C244.67522,138.065824 243.20376,135.953908 241.724361,133.860518" id="Shape" fill="#FFCA38"></path>
                <path d="M213.38023,96.7511433 C211.493267,96.1053946 209.601012,95.4808181 207.698171,94.8800601 C207.168869,96.2139016 206.639566,97.5450965 206.104971,98.8762915 C206.896278,99.122417 207.687585,99.3738355 208.476245,99.6279006 C210.111789,98.6486916 211.747332,97.6933012 213.38023,96.7511433" id="Shape" fill="#FFCA38"></path>
                <path d="M213.38023,74.6316057 C210.844872,73.7688432 208.301575,72.9378388 205.750339,72.1491785 C205.199864,73.2792387 204.652037,74.4040058 204.104209,75.5340659 C205.562436,75.9760332 207.020664,76.4312331 208.476245,76.897019 C210.111789,76.1242378 211.747332,75.3699822 213.38023,74.6316057" id="Shape" fill="#FFCA38"></path>
                <path d="M229.256648,107.223387 C228.735285,105.511094 228.213923,103.793509 227.695207,102.081216 C228.560616,101.059663 229.423378,100.043403 230.288787,99.0324356 C229.944741,101.758342 229.595401,104.489541 229.256648,107.223387" id="Shape" fill="#FFCA38"></path>
                <path d="M235.902037,96.8331851 C237.286162,96.6664549 238.670287,96.5076643 240.046473,96.3647527 C241.494114,97.8150407 242.933816,99.2759146 244.362932,100.755314 C241.562923,99.3976541 238.739096,98.0902778 235.902037,96.8331851" id="Shape" fill="#FFCA38"></path>
            </g>
        </g>
    </g>
</svg>