<?xml version="1.0" encoding="UTF-8" standalone="no"?>
<svg width="250px" height="250px" viewBox="0 0 250 250" version="1.1" xmlns="http://www.w3.org/2000/svg" xmlns:xlink="http://www.w3.org/1999/xlink">
    <!-- Generator: Sketch 47.1 (45422) - http://www.bohemiancoding.com/sketch -->
    <title>KANSAS</title>
    <desc>Created with Sketch.</desc>
    <defs></defs>
    <g id="Page-1" stroke="none" stroke-width="1" fill="none" fill-rule="evenodd">
        <g id="KANSAS" fill-rule="nonzero">
            <g id="Kansas_Jayhawks_logo" transform="translate(0.000000, 14.000000)">
                <g id="Group" transform="translate(125.008170, 110.669935) scale(-1, 1) rotate(-180.000000) translate(-125.008170, -110.669935) translate(1.437908, 0.375817)">
                    <g transform="translate(0.817198, 1.653799)" id="Shape">
                        <path d="M232.113333,191.271319 C217.380802,207.08208 195.221559,209.411708 180.02833,204.95176 C177.875139,206.853365 173.480538,210.43766 169.896243,211.434205 C164.410344,212.953528 160.992684,212.143222 158.993059,211.094399 C156.029562,212.933924 149.864052,216.217622 143.930524,215.933361 C137.418674,215.619694 133.082885,211.450542 131.09633,209.035962 C123.480111,211.476681 115.416264,211.430938 108.241139,208.820316 C96.9295347,204.703441 93.2733576,197.953073 91.8585903,195.185618 C90.3915451,194.934031 88.0063715,194.296896 85.8237743,192.31034 C84.9350521,191.503302 83.631375,189.709521 81.3997674,186.608795 C79.2890521,183.677972 76.6620937,180.02833 75.2407917,178.682177 C70.9899549,174.66659 69.1046875,174.03599 66.7064444,174.19609 C65.1805868,174.297378 63.8442361,173.284497 63.5207674,171.788045 C63.481559,171.598538 63.4619549,171.402497 63.4619549,171.196653 C63.4619549,168.481476 66.8404062,164.43975 69.5686528,163.430135 C70.8037153,162.969438 71.950559,162.698247 72.9863125,162.538146 C72.7608646,161.832396 72.5582882,161.09724 72.4275937,160.388222 C72.2511562,159.421083 71.6728333,157.369181 71.1598576,155.555795 C70.3136111,152.549823 69.8365764,150.860597 69.8365764,149.717021 C69.8365764,148.792358 70.1469757,148.223837 70.8298542,147.609573 C71.4898611,147.014913 72.2054132,146.809069 72.9013611,146.815604 C72.7118542,146.057576 72.492941,145.253806 72.2184826,144.397757 C71.7839236,143.054872 70.8952014,141.290497 70.1796493,139.872462 C69.4379583,138.392347 68.7518125,137.033125 68.7518125,135.837271 C68.7518125,135.004094 69.0883507,134.246066 69.9738056,133.589326 C70.3626215,133.305066 71.0977778,132.801892 73.2248299,132.880309 C73.1562153,132.765951 73.0189861,132.543771 73.0189861,132.543771 C72.0747187,131.050587 71.3657014,129.933149 71.3657014,128.783038 C71.3657014,128.387688 71.4506528,127.985802 71.6368924,127.561045 C71.9440243,126.868365 72.4831389,126.37826 73.1562153,126.035188 C72.3622465,125.424191 71.6662986,124.672698 71.2252049,123.757837 C70.8853993,123.055354 70.7154965,122.310396 70.7154965,121.558903 C70.7154965,120.872757 70.8592604,120.180076 71.1467882,119.516802 C71.4767917,118.748972 71.8819444,118.160847 72.3361076,117.67401 C71.9015486,117.487771 71.480059,117.304799 71.0781736,117.121826 C69.0295382,124.270813 66.3960451,127.881247 63.2267049,127.832236 C62.6157083,127.825701 61.8478785,127.714611 61.0735139,127.391142 C60.8546007,128.028278 60.6454896,128.645809 60.4690521,129.168587 L59.201316,132.808427 C54.8982014,144.348747 50.9937049,144.071021 49.7096319,143.982802 C45.7005799,143.698542 44.6452222,139.751569 44.4295764,135.948361 C43.6715486,136.716191 42.7632222,137.170354 41.5804375,137.085403 C40.9335,137.03966 40.4107222,136.840351 39.9369549,136.585497 C39.2475417,138.046007 38.4829792,139.499983 37.7086146,140.604351 L37.2413819,141.277427 C34.9378924,144.590531 31.7848889,149.132163 27.5503889,147.364521 C24.0837187,145.913813 23.1655903,142.620313 23.1655903,138.964135 C23.1655903,136.735795 23.5053958,134.373493 23.8157951,132.213767 C23.9955,130.962368 24.2340174,129.619483 24.4986736,128.270063 C24.2209479,128.361549 23.9432222,128.472639 23.6622292,128.511847 C22.2997396,128.691552 21.018934,128.247191 20.0485278,127.27025 C18.6272257,125.835878 18.1567257,124.251208 18.1567257,122.722083 C18.1567257,120.797608 18.9049514,118.961351 19.4506007,117.628267 C19.4506007,117.628267 19.7381285,116.896378 19.7773368,116.798358 C19.7283264,116.772219 19.6825833,116.752615 19.6303056,116.723208 C16.9510694,119.212938 13.0596424,121.97059 9.60604167,120.104927 C8.40692014,119.45799 7.57047569,118.383028 7.19472917,116.997667 C7.04443056,116.442215 6.97581597,115.841021 6.97581597,115.216955 C6.97581597,110.985722 10.0634722,105.630517 10.7626875,104.473872 C11.1122951,103.898816 11.7853715,102.709497 12.46825,101.494038 C11.6383403,101.199976 10.7822917,100.608583 10.2954549,99.3898576 C10.0928785,98.8834167 10.0046597,98.3769757 10.0046597,97.8770694 C10.0046597,96.4688368 10.7104097,95.0965451 11.6023993,93.8908889 C10.5143681,93.6752431 9.61911111,93.0805833 9.03098611,91.9860174 C7.24373958,92.5480035 2.51260069,93.6850451 1.16971528,90.4372882 C1.01614931,90.0680764 0.947534722,89.6890625 0.947534722,89.3002465 C0.947534722,86.4674444 4.72460417,83.4189965 6.39422569,82.2100729 C6.18511458,81.7722465 6.03808333,81.3115486 6.03808333,80.8279792 C6.03808333,80.609066 6.06095486,80.3901528 6.10343056,80.1745069 C6.53472222,78.0474549 8.73365625,76.4758542 13.5040035,73.750875 C13.5040035,73.750875 13.7588576,73.6038437 14.0039097,73.4600799 C13.9745035,73.362059 13.9320278,73.2869097 13.9091562,73.1823542 C13.8536111,72.9275 13.8274722,72.6791806 13.8274722,72.4373958 C13.8274722,69.3856806 17.8299896,67.3403125 19.2153507,66.6345625 C19.2153507,66.6345625 19.4636701,66.5169375 19.8132778,66.3503021 C18.8396042,64.8832569 18.2286076,63.3116562 18.0881111,61.6256979 C18.0717743,61.4263889 18.0652396,61.2238125 18.0652396,61.0277708 C18.0652396,57.1200069 21.2672535,54.1859167 24.466,53.8395764 C24.4725347,53.8395764 24.6587743,53.8199722 24.9430347,53.8003681 C25.0279861,53.3788785 25.1423437,52.9377847 25.3547222,52.2516389 C25.3579896,52.2320347 25.6683889,51.3759861 26.2205729,50.4055799 C25.2599687,50.2781528 24.0967882,50.0657743 22.6134062,49.7030972 C19.4767396,48.9352674 14.9775833,47.3081215 12.5597361,46.4324688 L11.3638819,46.0044444 C6.99542014,44.4720521 6.70135764,42.6553993 6.60333681,42.0542049 C6.57719792,41.8908368 6.56086111,41.7274688 6.56086111,41.5673681 C6.56086111,40.6427049 6.98888542,39.75725 7.73057639,39.1789271 C7.95602431,39.0057569 8.18473958,38.8783299 8.4101875,38.7770417 C4.45014583,36.4049375 2.823,32.3926181 2.823,29.6284306 C2.823,29.3082292 2.84260417,29.0043646 2.88507986,28.7201042 C3.08438889,27.3837535 3.34251042,26.3676042 3.56142361,25.6553194 C3.31963889,24.8156076 3.14320139,23.8223299 3.14320139,22.701625 C3.14320139,20.5255625 3.77380208,17.9410799 5.72768403,15.4480833 C9.67792361,10.3967431 17.7875139,8.28929514 24.0673819,8.43959375 C28.8344618,8.55395139 31.5169653,9.30217708 32.8631181,9.69752778 C40.2440868,7.26661111 48.4745694,6.5281875 57.3389201,7.51493056 C66.7881285,8.56702083 75.51525,11.9389375 79.3282604,13.5758854 C80.5959965,12.4976563 82.3897778,11.52725 84.6703958,11.4292292 C90.2053056,11.1939792 93.5282118,16.6276007 96.0440799,21.9795382 C97.0210208,24.0510451 97.7594444,25.6977951 98.3443021,27.0570174 C98.6579687,26.7596875 98.9814375,26.4754271 99.3179757,26.2336424 L99.945309,25.7664097 C101.595326,24.5313472 103.467524,23.1296493 106.065076,23.5968819 C107.110632,23.7863889 107.891531,24.2830278 108.476389,24.8809549 C109.100455,24.4365937 109.809472,23.9497569 110.717799,23.4008403 L111.10008,23.1688576 C112.426628,22.3618194 113.723771,21.5743854 114.978437,20.9829931 C114.743187,20.6791285 114.511205,20.3785313 114.28249,20.0354583 C111.318993,15.6049167 110.38126,11.6710139 110.38126,8.65850694 C110.38126,6.43996875 110.890969,4.71806944 111.475826,3.67904861 C112.62267,1.63694792 114.259618,1.48338194 114.91309,1.50952083 C115.200618,1.52259028 117.726288,1.71863194 117.92233,4.69846528 C118.036687,6.43016667 120.320573,8.91989583 122.212375,10.7006076 C123.512785,11.9258681 124.669431,12.6969653 125.581024,13.1936042 C126.188753,12.0925035 126.966385,10.8378368 127.842038,9.81188542 C129.054229,8.39058333 131.044052,7.39730556 132.501295,6.67195139 C132.501295,6.67195139 132.975062,6.42689931 133.216847,6.30273958 C133.311601,6.17857986 133.432493,6.03154861 133.432493,6.03154861 C134.569535,4.54816667 136.938372,1.46051042 142.04199,1.4115 C147.158677,1.35922222 153.562705,6.43996875 156.477191,10.0602049 C160.012476,14.4548056 161.874872,18.6076215 162.652503,20.6170486 C164.714208,21.7312187 169.007521,24.5574861 175.104417,31.1869618 C185.125413,42.0803437 189.526549,54.849191 190.307448,57.2997118 C191.908455,62.3118437 192.699156,66.3601042 192.699156,69.6143958 C192.699156,71.868875 192.320142,73.7443403 191.562115,75.2930694 C189.980712,78.5277569 187.742569,79.9261875 185.89651,80.4064896 C184.204017,83.0007743 179.897635,88.454 172.820531,89.8949062 C170.938531,90.2804549 169.183958,90.4666944 167.520872,90.5059028 C170.265455,92.0219583 172.323892,93.1753368 173.549153,94.0542569 C174.731937,94.8972361 184.053719,101.817507 184.053719,109.531747 C184.053719,110.440073 183.923024,111.361469 183.635497,112.286132 C182.139045,117.089153 178.015635,119.137788 174.637184,120.016708 C174.74174,120.477406 174.813622,120.951174 174.813622,121.457615 C174.813622,121.869302 174.774413,122.300594 174.692729,122.741687 C174.44441,124.012691 173.905295,125.012503 173.150535,125.80974 C179.368323,126.123406 186.628399,126.86183 193.623819,128.479174 C203.403031,130.746722 209.098042,132.762684 213.675615,134.383295 C215.763458,135.118451 217.563774,135.758854 219.462111,136.324108 C223.899187,137.647389 227.398531,138.545913 229.280531,139.029483 C231.13966,139.506517 231.335701,139.555528 231.809469,139.875729 C232.747201,140.496528 233.30592,141.548618 233.30592,142.652986 C233.30592,142.721601 233.30592,142.790215 233.299385,142.855562 C233.227503,144.015476 232.557694,145.018556 231.508872,145.547868 L231.054708,145.747177 C225.042764,148.328392 219.605875,151.425851 216.103264,153.56924 C212.378472,155.84659 208.794177,158.5585 206.154149,160.692087 C209.339826,161.433778 213.165906,162.234281 215.505337,162.391115 C224.431767,162.995576 230.172521,161.260608 232.224424,160.486243 C235.073562,159.411281 236.867344,157.718788 236.886948,157.702451 L240.151042,154.588656 L241.680167,158.826424 C241.912149,159.483163 247.221611,175.058674 232.113333,191.271319" fill="#FFFFFF"></path>
                        <path d="M144.060565,4.39052393 C136.495971,4.75333171 132.33466,11.5889125 132.33466,11.5889125 C132.33466,11.5889125 131.967696,11.7330842 131.369769,11.5174384 C128.512788,10.4883503 119.528852,7.58588809 109.227516,11.333682 C96.128796,16.1006311 94.5641221,24.3573834 93.6361916,24.8932306 C93.3355943,25.0696681 90.3617729,24.911005 87.7805577,27.2569703 C86.173016,28.7207481 80.1247385,38.1155875 77.2329932,40.8471014 C72.9396807,44.9051639 70.2115649,46.3741695 66.496706,46.12585 C65.7648171,46.0768396 68.184102,50.3404845 70.5756796,51.22607 C74.4541679,52.6702436 77.3145466,51.9663234 77.3145466,51.9663234 C77.3145466,51.9663234 75.7535583,55.0598609 75.2928603,57.5464534 C74.8321624,60.0329152 72.4740426,67.3396495 72.7810699,67.6141078 C73.0882019,67.8918335 74.6955344,66.8793698 75.1856386,66.7258038 C75.6757428,66.5722378 76.6355366,66.2101619 76.6355366,66.2101619 C76.6355366,66.2101619 76.3769969,69.61057 74.9916358,73.9038825 C74.0146948,76.9260608 71.3510113,81.1932344 71.7038863,81.4546233 C72.1123065,81.7552206 74.0137015,81.5559115 75.0886111,81.3729393 C76.1635729,81.1899671 77.8710958,80.7501019 77.8710958,80.7501019 C77.8710958,80.7501019 77.1867797,83.3760146 76.5692484,84.6045424 C75.9582519,85.8330702 74.1391421,88.2935238 74.3025101,88.6529335 C74.3939962,88.8685794 76.2214705,89.4189337 79.3514979,88.9745726 C82.0733404,88.5922913 84.2883498,87.3817209 84.2883498,87.3817209 C84.2883498,87.3817209 83.6926707,88.4826125 83.4051429,89.2145014 C83.1339519,89.9039146 82.970793,91.4046528 82.6342548,91.6497049 C82.2944493,91.8947569 78.6065134,92.1724826 77.227687,92.5482292 C75.4306384,93.035066 72.9108495,94.6136196 73.822574,96.7244394 C74.7962476,98.9854533 76.6191737,98.6738255 80.8832106,99.2260095 C85.1503843,99.7781936 86.1619593,100.303219 86.1619593,100.303219 C86.1619593,100.303219 86.143662,100.297992 86.11091,100.297992 C86.0324933,100.363339 84.236255,101.984551 85.1511161,103.376368 C86.0888488,104.800938 89.1161242,104.898358 90.5830386,104.953903 C92.0043407,105.009448 92.5301768,104.709269 92.6608712,104.964097 C92.8144372,105.254892 92.1787394,105.514843 91.8389338,106.194454 C91.505663,106.864263 91.7284447,108.410745 94.6723894,108.956289 C99.6549844,109.877685 104.025929,109.922827 104.862374,109.962035 C105.698818,110.004511 106.108049,110.200971 106.108049,110.298992 C106.108049,110.593054 105.930383,110.381486 102.891658,110.646142 C100.297374,110.868323 95.6425604,110.914066 93.4468937,110.482774 C90.5585465,109.910986 90.0511907,108.835214 89.9957762,108.093523 C89.9533005,107.505398 90.179977,106.403696 90.108095,106.322012 C90.0394804,106.237061 85.2875611,107.342239 83.7877117,105.117166 C81.8828402,102.297303 84.0583015,100.369821 84.1399855,100.297678 C82.5030376,100.336886 80.1122441,100.480232 77.8708344,100.94093 C74.3060127,101.672819 69.1255463,104.509411 69.1255463,104.509411 C69.1255463,104.509411 66.4029197,92.4457909 63.2597183,92.4915339 C60.3125586,92.537277 60.7162737,96.0738686 60.4058744,96.0346603 C59.8079473,95.959511 57.5747713,88.6501628 56.4442644,85.614915 C55.3235595,82.6220123 52.5116686,76.1557739 49.9043144,76.3387461 C47.2969602,76.5217184 47.1756758,81.2094667 47.3618892,85.8752584 C47.5448614,90.54105 47.4554142,95.3913823 47.3312544,95.3913823 C47.2103621,95.3913823 45.9501801,93.1305775 44.7837322,89.3109539 C43.7969891,86.0893359 42.8190288,83.1638714 41.7767144,83.2357534 C39.8979818,83.3697152 39.9596434,87.9914628 39.8060774,87.9326503 C39.6557788,87.8705704 37.3859823,81.4543881 35.2981647,78.4776914 C33.2103209,75.5009948 30.881738,71.8114906 28.6664672,72.7394211 C25.3044833,74.1443864 25.9069847,79.2618581 26.7009534,84.7674923 C27.5471999,90.6388095 29.7437815,98.893732 29.7437815,98.893732 C29.7437815,98.893732 24.5180948,89.766032 22.1164537,92.1904139 C19.9861343,94.3403375 21.639419,97.2827923 22.5248738,99.6287575 C23.449537,102.072744 24.8777921,104.333758 24.7405629,104.448246 C24.1818441,104.895874 22.361924,102.687347 21.1464657,103.187254 C19.8329865,103.723101 20.5115782,105.468081 20.2632588,105.438675 C20.0182067,105.406001 14.1302913,98.1749387 10.9870899,99.8739664 C7.82742097,101.579529 12.370203,109.938223 13.2589253,111.411933 C14.1476475,112.885513 17.034165,118.104535 17.0929775,118.25797 C17.1550573,118.411536 15.927549,118.474844 15.0355594,118.533657 C14.1437005,118.583321 13.2947094,118.350684 13.0006469,119.082573 C12.7653969,119.670698 12.9775663,120.942512 15.4052156,123.432346 C17.8295975,125.918808 19.4157053,127.199221 19.2392678,127.424538 C18.8537192,127.924445 12.2204533,125.142901 11.5047706,126.868068 C11.0440726,127.965901 12.5768832,129.328809 12.5768832,129.328809 C12.5768832,129.328809 10.1065491,128.843409 8.36512406,128.261819 C6.31322128,127.578941 4.10082572,127.492761 3.86217767,128.067816 C3.58118461,128.750695 6.59604406,131.862922 8.742831,133.254817 C13.3890185,136.267324 14.2364413,135.866249 14.3279274,136.052463 C14.4194135,136.235435 8.71878322,135.464756 8.95716989,136.634471 C9.24143031,138.026367 14.2821843,140.683647 15.8797932,141.637716 C17.4742654,142.588518 21.0202671,144.126844 20.928781,144.277221 C20.8372949,144.430787 19.9773777,144.277221 18.993902,144.277221 C18.0136937,144.277221 16.8819582,144.226564 16.7577985,144.808154 C16.6336388,145.393012 17.4396576,146.563746 20.5306857,148.141908 C23.3306835,149.573012 24.6125346,149.958979 24.5537221,150.112545 C24.4916423,150.262844 21.2973393,152.328234 20.9902074,156.003989 C20.7712942,158.634084 23.0788614,160.453351 24.768061,160.63946 C26.4540193,160.822432 27.6524874,160.511823 27.6524874,160.511823 C27.721102,162.896997 27.6637271,162.73078 28.1374945,164.279483 C28.5981924,165.782469 29.8030383,166.8986 29.8324446,166.8986 C29.8618508,166.8986 29.5894313,167.666639 29.3117056,168.251496 C29.0372473,168.833086 28.8216015,169.849445 28.8216015,169.849445 C28.8216015,169.849445 27.9126739,169.401215 23.2927037,170.528455 C19.685537,171.410642 14.064369,173.533904 12.3164615,174.148168 C10.5684233,174.762432 9.23599342,175.681789 9.51358842,175.894168 C9.78804675,176.109813 10.6765599,175.958495 11.9998411,176.236221 C13.319855,176.510679 16.72157,177.461063 18.3813894,177.614629 C20.0379415,177.768195 21.3884072,177.920951 21.3884072,177.920951 C21.3884072,177.920951 21.3487911,178.291182 21.3781869,178.722474 C21.4075932,179.150498 21.4496611,179.702682 21.4496611,179.702682 C21.4496611,179.702682 20.7455317,180.098843 20.1018877,180.621621 C19.4549502,181.144399 18.9378968,181.851978 18.9378968,181.851978 C18.9378968,181.851978 14.7311041,178.732302 10.6469027,180.682864 C6.45814573,182.685757 5.54746684,186.763293 5.76624934,188.233605 C6.11912434,190.595907 6.65455334,191.715305 6.65455334,191.715305 C6.65455334,191.715305 4.64246009,195.824338 8.01764412,200.133857 C11.2165213,204.22773 18.3553133,206.157564 23.9817091,206.020335 C30.03626,205.873304 32.4117622,204.632935 32.9311419,204.662341 C33.4539197,204.691747 42.2352794,208.608268 56.9972169,206.964811 C69.0080363,205.625193 80.0525011,200.266721 80.0525011,200.266721 C80.0525011,200.266721 81.5761108,202.896555 84.7747527,203.033784 C87.3396312,203.141607 89.9397972,201.466679 93.3770611,194.160938 C96.814325,186.855197 97.43068,184.573193 97.43068,184.573193 C97.43068,184.573193 99.1922058,187.445857 101.034971,188.795147 C102.874496,190.147834 103.99703,191.18317 105.53269,190.908711 C107.06835,190.630986 107.302162,188.148706 107.579888,188.116032 C107.857613,188.086626 108.717949,189.361707 112.220586,191.485597 C114.867149,193.086603 117.885929,194.996833 119.281223,194.313824 C119.797466,194.05897 118.301014,190.969876 118.301014,190.969876 L118.311209,190.975104 C118.108632,190.514406 117.821104,189.823163 117.576052,189.091274 C117.252584,188.117601 117.412684,186.20162 117.412684,186.20162 C117.412684,186.20162 119.782331,187.157938 122.334114,188.340722 C125.333552,189.735885 127.049831,189.942539 127.873206,189.423029 C128.693314,188.900251 126.686135,186.674786 125.846423,184.756715 C125.140673,183.142638 124.541726,180.341595 124.881532,180.243574 C125.335695,180.116147 126.064735,181.403487 131.181527,183.919225 C132.932833,184.781808 137.081858,186.478797 137.660051,186.318696 C138.212235,186.161863 137.787478,182.138826 135.863002,177.067882 C135.033092,174.885285 131.824282,171.930806 132.059532,171.49298 C132.069204,171.473376 133.973997,171.501344 133.973997,171.661445 C133.973997,171.632039 133.96145,172.22628 134.229269,172.468065 C134.418776,172.641235 135.39143,173.069887 136.041635,172.850947 C137.087191,172.498072 139.1817,172.235455 145.236251,173.065365 C150.90839,173.846264 155.637176,177.590006 155.712195,176.929999 C155.970316,174.606906 156.761436,170.860027 158.58146,167.230119 C161.345648,161.714814 162.991352,160.463806 162.844452,160.133934 C162.393556,159.150458 158.471416,156.448089 154.191173,155.350256 C149.188712,154.062915 146.340096,154.57793 146.114779,154.176044 C145.925272,153.839506 148.929676,149.376944 153.098828,148.677729 C156.418467,148.122278 157.977129,149.682848 158.535979,149.463935 C158.725486,149.388785 158.355464,148.240713 157.453672,147.554567 C155.976825,146.430595 153.997327,146.553944 153.997327,146.553944 C153.997327,146.553944 153.715523,139.724637 158.87798,134.735246 C161.874019,131.840364 169.286747,130.217923 175.393576,133.831624 C183.650328,138.722733 183.474674,145.023251 182.030501,152.639339 C180.893459,158.625145 176.910154,162.654193 174.99548,164.248665 C174.544584,164.624412 174.921559,162.916601 174.862747,161.946195 C174.807202,160.972521 174.516616,159.483415 174.091859,159.516089 C173.379574,159.568366 173.860085,162.876766 172.994235,165.974224 C171.141641,172.587363 169.88423,175.355733 166.352343,179.600165 C160.036665,187.180443 153.399478,188.928612 153.543242,189.320695 C153.739284,189.866345 155.100335,190.500004 155.100335,190.500004 C155.100335,190.500004 155.189182,192.898247 152.379277,196.953172 C147.060013,204.628073 140.454977,206.986585 138.452216,207.352529 C137.498146,207.522432 134.734482,206.946749 132.336239,205.090888 C130.816916,203.914638 129.540684,201.408442 129.553754,199.898921 C129.560289,199.274855 131.528468,198.389609 133.09688,197.330984 C134.586797,196.324637 135.224952,194.56549 134.551875,194.03304 C133.770976,193.412242 132.910431,195.349996 131.825589,196.039409 C130.737558,196.725555 129.029251,197.600607 128.941163,197.290207 C128.803934,196.796836 128.84722,196.293061 127.981369,195.437012 C127.291956,194.754134 126.659107,194.23729 126.659107,194.23729 C126.659107,194.23729 128.233557,193.862563 129.752906,192.179872 C130.94876,190.859858 131.079455,187.974386 129.752906,185.634955 C128.59626,183.589587 126.004328,182.061246 125.602312,182.061246 C125.200426,182.061246 125.365833,182.885249 125.653361,183.342679 C125.940889,183.80011 126.358902,183.907514 127.077721,184.476035 C127.786739,185.034754 129.544997,187.34504 128.966674,189.668003 C128.58766,191.184058 127.237639,192.312736 124.499538,192.195111 C122.323476,192.103624 121.221983,191.53939 119.261566,190.30106 C119.042653,190.160564 118.704076,190.386012 119.047149,191.199585 C119.233389,191.640679 119.88605,192.315585 120.170311,192.59331 C120.238925,192.65539 120.306312,192.713183 120.384728,192.771996 C121.338798,193.516954 122.564659,193.730143 122.564659,193.854303 C122.564659,193.978462 119.391137,194.95786 116.698831,198.979877 C111.304287,207.043725 113.645025,212.996857 114.769049,212.947977 C115.497671,212.918571 113.502542,210.851141 120.190778,204.555041 C123.987451,200.980548 126.985843,200.486262 126.985843,200.486262 C126.985843,200.486262 128.38775,203.725915 130.054026,205.673263 C131.207404,207.029217 134.043866,208.131128 134.965262,208.716091 C135.886658,209.297681 137.218931,212.998163 142.051253,213.050441 C145.834857,213.086382 151.559013,208.743798 154.1763,205.489506 C158.698327,199.869645 160.28731,194.656244 160.28731,194.656244 C160.28731,194.656244 164.898472,192.954759 172.933043,184.221077 C181.300625,175.124743 185.889307,164.261421 187.503383,159.200148 C189.989845,151.401088 190.327167,146.273945 188.912426,143.379063 C186.92587,139.317602 184.108359,139.708378 184.108359,139.708378 C184.108359,139.708378 180.130282,131.976495 172.223268,130.365817 C165.025402,128.898772 159.000127,129.836504 155.069622,136.32862 C151.769588,141.785113 152.549258,146.270808 151.689864,146.610613 C150.830548,146.943884 149.422524,147.470139 147.243116,149.433875 C145.063786,151.397559 143.835128,154.010794 143.649019,154.197165 C143.466047,154.380137 140.687483,154.667665 140.060149,155.422425 C139.753018,155.788369 139.349694,158.755395 138.186514,161.349679 C135.902629,166.430557 135.455261,166.475254 135.455261,166.475254 C135.455261,166.475254 133.004741,163.065175 130.390852,160.660397 C127.727822,158.213143 123.329431,155.520707 123.146459,155.305061 C122.963486,155.089416 123.054162,155.18132 123.207728,154.906862 C123.361294,154.629136 134.792222,144.326623 142.852672,138.513857 C155.232572,129.58429 168.278492,123.493929 171.830244,120.951661 C175.394804,118.403119 182.58509,111.63184 180.820715,105.97277 C179.317728,101.137076 173.880055,99.9901015 171.243164,99.7187799 C171.210491,99.7449188 170.384267,100.445964 169.701388,100.867453 C169.30277,101.115773 168.472233,101.343887 168.583323,101.546463 C168.651938,101.670623 169.554958,101.559533 172.044635,102.199935 C174.534364,102.840338 176.272339,104.859306 175.102624,107.218341 C173.635578,110.1655 168.950052,112.418673 165.581272,113.186372 C159.928737,114.47698 155.457419,114.228869 155.493229,114.3759 C155.532437,114.522932 156.301914,114.891333 156.759345,116.315903 C157.282122,117.949583 155.469756,119.902158 153.558376,120.486885 C152.24163,120.888771 147.422795,120.358648 147.442399,120.874891 C147.448934,121.054596 149.912733,124.111931 145.446251,126.163834 C142.551369,127.490382 135.107797,128.271281 130.732931,127.960882 C125.926512,127.617809 124.837305,127.755248 124.856909,127.353362 C124.873377,126.941675 128.315868,126.855704 139.039347,125.734999 C145.949686,125.012912 146.420186,123.437234 146.309095,122.44725 C146.201272,121.460506 144.623947,120.250354 144.532461,120.047778 C144.440975,119.848469 144.439537,119.516636 145.19103,119.552577 C145.939256,119.588518 149.747039,119.501527 152.292444,118.766371 C154.514249,118.129236 155.246922,116.936231 155.171904,116.223946 C155.100022,115.508394 153.117544,114.011524 152.823481,113.844889 C152.532686,113.681521 152.291111,113.136682 153.114486,113.130147 C155.257875,113.110543 162.544351,111.643707 166.883407,110.56221 C171.219064,109.483981 173.782505,107.053587 173.94901,105.58981 C174.056833,104.606334 172.219347,103.350857 169.425675,102.955532 C166.570001,102.553647 165.490465,102.585719 165.474259,102.16423 C165.464588,101.974723 166.698709,101.237319 167.414261,100.923652 C168.080803,100.632857 169.612594,99.7482123 169.808636,99.637122 L169.778001,99.637122 C169.778001,99.637122 172.319198,97.9027544 171.799687,95.2005684 C171.371663,92.9787628 169.468412,91.6563964 161.303355,91.3461278 C155.186855,91.1174125 151.663333,91.2377037 151.634057,91.2082974 C151.601384,91.1788912 151.875424,90.4449635 152.032257,89.7686197 C152.185823,89.0955433 152.278538,88.2911713 152.307944,88.3238449 C152.33735,88.3532512 173.853185,90.4792838 192.951302,86.0520095 C206.935608,82.813924 212.307672,80.1383473 218.610281,78.2563473 C225.432531,76.2240487 229.987494,75.1967904 230.173603,75.0757673 C230.356575,74.9548749 230.485832,74.6115929 230.178831,74.4580269 C229.871699,74.304461 223.332794,71.6833839 214.556662,66.3152403 C206.878364,61.616775 199.88412,55.236795 199.88412,55.236795 C199.88412,55.236795 210.402409,52.4098742 215.296916,52.0766033 C224.115654,51.4786763 230.26535,53.0355869 233.241786,54.1595591 C236.760603,55.4861077 238.903469,57.5748663 238.903469,57.5748663 C238.903469,57.5748663 244.023293,43.2091944 229.954036,28.1084969 C216.197139,13.3478663 194.528,10.5334922 179.24982,15.7089922 C179.24982,15.7089922 173.194485,9.91504606 169.100612,8.78114106 C161.340499,6.62795009 159.043152,9.8481305 159.043152,9.8481305 C159.043152,9.8481305 151.136399,4.0374555 144.059295,4.38039772 L144.060565,4.39052393 Z M139.373863,182.166335 C138.826985,182.126708 138.428994,182.398318 138.337508,182.738123 C138.138199,183.479814 139.673649,183.652566 140.170288,185.015056 C140.686531,186.423288 140.472506,187.237279 140.456195,187.394113 C140.407185,187.890752 139.383273,189.881594 140.507245,189.911 C141.722703,189.940407 142.812773,185.437591 141.29345,183.447637 C140.612219,182.557294 139.92074,182.205831 139.373863,182.166204 L139.373863,182.166335 Z" fill="#0051BA" transform="translate(121.827890, 108.708228) scale(-1, 1) rotate(-180.000000) translate(-121.827890, -108.708228) "></path>
                        <path d="M145.398876,31.7979597 C144.463653,31.7991848 143.468467,31.8918976 142.391859,32.0838668 C137.131407,33.0215995 134.014083,38.317469 134.014083,38.317469 C134.014083,38.317469 137.376851,40.4028557 139.461428,41.5236652 C141.405508,42.5692207 142.237116,42.8998254 143.749774,43.050124 C145.269097,43.20369 146.73954,43.1965436 146.853767,43.6474499 C146.955055,44.0297311 146.161296,44.975227 145.020986,44.9850291 C142.080361,45.0079006 142.842075,45.2788825 133.023759,40.201351 C124.309576,35.6923927 117.050284,37.0233849 116.90652,37.0463872 C115.932847,37.1966858 106.553952,38.1523758 100.447123,43.9486222 C97.1601581,47.0722194 95.954894,50.5884227 96.0463801,51.1930152 C96.2097481,52.3006506 96.7558157,52.5579618 97.1184928,53.5414375 C97.4354268,54.4072882 97.4196912,56.0481047 96.929587,55.9664468 C96.3120558,55.8618913 95.3191962,52.663014 92.7740264,52.6175324 C91.3984674,52.5913935 89.4609223,52.5295227 85.6673853,58.5447868 C83.1874583,62.4786896 79.8650748,66.388806 78.5353895,67.7545629 C77.2121083,69.1203199 73.5209051,72.1566132 72.3477917,72.5944396 C70.1096494,73.4341514 69.6596684,72.9034013 69.5093698,73.1713249 C69.3558038,73.4359811 70.6061837,75.2802104 73.9357292,75.5350646 C78.2747848,75.8650681 81.7481203,73.1313062 81.9407639,73.2325944 C82.0126459,73.2718028 79.0205273,78.3179153 78.203687,80.5331861 C77.298628,82.993509 76.9821122,84.6066705 76.4985427,86.0673117 C76.0443795,87.4396033 75.7784948,88.8748897 75.4876996,89.3550611 C75.3406684,89.5968458 79.157861,88.5082134 81.7160741,86.6034203 C84.7058402,84.3783473 86.0658466,82.4068217 86.0658466,82.4068217 C86.0658466,82.4068217 85.8612313,85.6161544 83.3191721,87.5734344 C80.9209291,89.4194935 79.2213785,90.01844 78.6071146,90.9071883 C78.4960243,91.0705564 78.4525292,94.429665 77.5605396,97.3245469 C75.9758695,102.470771 74.4207363,104.813861 74.4207363,104.813861 C74.4207363,104.813861 76.9872615,104.784455 80.5879458,102.445025 C84.0905569,100.167674 85.5809963,98.5649679 85.5809963,98.5649679 C85.5809963,98.5649679 85.8758691,100.527423 83.395942,102.70014 C81.3179004,104.52006 80.3735023,104.8423 80.1643912,105.120026 C80.0500336,105.273592 79.5701497,107.701451 79.1127191,109.005049 C78.4461775,110.92299 77.2650134,112.445973 77.4382096,112.691155 C77.6277166,112.955812 80.9740171,112.285192 84.7999663,109.648327 C87.3583101,107.883952 90.2167283,106.044036 90.2167283,106.044036 C90.2167283,106.044036 88.3326894,108.598093 86.9799496,111.532157 C85.3135955,115.145858 84.4734654,117.147575 84.6825766,119.506609 C84.695646,119.643838 87.0356778,118.330987 89.1497127,117.602339 C90.7801259,117.04362 92.7228988,116.520633 94.9185654,114.044052 C96.5097703,112.256805 98.3338727,110.10283 98.3338727,110.10283 C98.3338727,110.10283 97.3618197,112.530689 96.9860993,114.804694 C96.6070854,117.078777 96.5519585,120.438147 96.8329515,120.742142 C96.9767154,120.902243 102.366554,117.620113 104.026374,115.718509 C106.636995,112.728743 108.871217,108.571091 108.871217,108.571091 C108.871217,108.571091 109.024182,108.796539 109.060123,109.061196 C109.099331,109.329119 108.592289,114.573364 108.758898,116.494573 C108.958207,118.807864 109.07727,119.421867 109.243905,122.411633 C109.286381,123.205602 109.192255,123.788002 109.381735,123.90236 C109.567975,124.01345 109.848968,123.604011 110.606996,123.264205 C111.361756,122.921132 116.350494,121.069558 119.127751,118.592924 C123.999517,114.257005 125.055005,111.54771 125.055005,111.54771 C125.055005,111.54771 124.012116,117.028512 123.93694,118.975859 C123.809513,122.197477 124.211399,127.415584 124.590413,127.68037 C124.966159,127.948294 126.622502,126.369557 128.710424,125.173703 C129.729841,124.588846 131.708032,123.547185 134.994997,119.103469 C137.063237,116.313143 138.577071,114.342532 138.818855,114.273787 C139.070442,114.205172 137.473931,118.477704 137.460862,119.879271 C137.450929,121.444337 138.210917,123.940993 138.609535,125.03569 C138.929737,125.901541 139.003056,126.369192 139.25791,127.578115 C139.25791,127.578115 142.907945,124.028454 145.149355,121.666283 C150.200695,116.330813 149.887028,113.314123 149.887028,113.314123 C142.378632,112.487481 135.263627,110.041535 130.849553,108.443664 C119.256955,104.241838 112.81189,98.9220513 106.094195,92.622579 C102.202637,88.9696693 100.917911,85.2574243 101.744423,83.336216 C102.227992,82.2155111 103.362786,81.7586818 103.362786,81.7586818 C103.362786,81.7586818 97.7264572,75.1533845 98.5791077,69.209924 C99.0757466,65.723519 104.065138,64.3661265 113.328237,66.1467076 C125.182223,68.4240583 137.210556,75.1421448 137.210556,75.1421448 C137.210556,75.1421448 132.640432,71.9678382 130.85959,69.4650395 C129.075611,66.9655083 128.169114,64.992937 128.169114,64.992937 C128.169114,64.992937 125.076622,65.4971301 121.838537,64.6508835 C118.587382,63.8013697 115.523904,63.1762843 113.210612,59.1117916 C112.50813,57.8767291 113.418495,58.3359894 114.405238,59.6069928 C114.47712,59.7017463 115.20697,60.3478735 116.232921,60.4034187 C117.520261,60.4753006 121.427503,59.8540838 127.24994,54.7568959 C133.30423,49.4538381 138.479991,45.4676575 142.080623,46.8692248 C145.681255,48.2709227 146.97147,51.6474137 144.847686,54.4147378 C142.727168,57.1823234 142.228569,58.3201492 142.228569,58.3201492 C142.228569,58.3201492 143.028053,58.8098352 144.204303,60.0252935 C145.380553,61.2374845 146.665044,62.4145448 146.665044,62.4145448 C146.665044,62.4145448 150.801001,57.218395 161.112792,50.585652 C171.421447,43.9529089 176.499972,42.0905131 176.499972,42.0905131 C176.499972,42.0905131 174.795847,39.2416356 170.286758,37.1536612 C167.179367,35.7160223 164.791318,35.4141965 163.471304,35.5710298 C162.442085,35.6886548 161.210891,36.1889793 161.15864,36.8881946 C161.129234,37.3031495 161.778811,37.7064725 162.736174,38.190042 C163.896087,38.7748996 164.680855,38.917435 164.834447,39.2212995 C164.984746,39.5251641 165.264719,40.2180538 165.013133,40.24746 C163.738862,40.401026 162.321089,39.8723147 161.628408,39.4867661 C159.847696,38.4934883 155.69854,35.5638417 152.735174,33.8812814 C150.468932,32.5970778 148.205304,31.7969664 145.400602,31.8006258 L145.398876,31.7979597 Z M187.66546,84.344968 C187.497753,84.3428246 187.314624,84.3664019 187.124306,84.4317491 C184.477744,85.3368081 179.322109,87.143136 176.469572,88.1790202 C173.561621,89.2441799 166.127721,92.5525791 164.650874,93.0852897 C163.174027,93.6178695 162.667167,93.9846243 162.190133,94.0042284 C160.928931,94.0467041 159.85661,94.3932535 160.500306,94.7853368 C160.604861,94.8506841 168.615908,94.9015242 173.967846,94.7905646 C180.411082,94.6598702 189.187214,94.6229098 189.896362,94.5608299 C190.778549,94.488948 192.163309,93.8950986 195.149756,92.3757757 C198.217938,90.8205118 198.869842,90.724948 199.402553,90.5583126 C200.219393,90.300191 199.744606,90.134575 199.744606,90.134575 C199.568169,90.01695 196.77732,89.0620703 194.343266,87.8270078 C192.363245,86.8206606 188.533375,84.5852628 188.533375,84.5852628 C188.533375,84.5852628 188.168607,84.351738 187.665486,84.3453078 L187.66546,84.344968 Z M147.670346,181.524129 C144.155188,181.374353 142.073487,182.097564 141.789096,182.259285 C141.413349,182.474931 140.199329,185.817311 139.741898,187.196137 C139.284468,188.571696 137.108928,193.133586 137.05665,193.378507 C137.001105,193.620292 136.948827,194.102842 136.974966,194.292349 C137.001105,194.481856 137.055421,194.642767 137.107699,194.721184 C137.159977,194.802868 137.35215,195.13227 137.459947,195.318509 C137.564502,195.508016 137.643729,195.692426 137.807098,195.721833 C137.970466,195.747971 142.711799,195.902348 146.230877,196.640771 C150.736699,197.585039 153.799915,199.39581 154.077772,199.310859 C154.69857,199.121352 154.971591,195.858173 156.860256,192.107242 C157.967892,189.908308 159.749126,186.550115 159.938633,186.282191 C160.124873,186.011 160.122416,185.873771 160.122416,185.873771 C159.691124,185.11901 155.895235,182.867015 151.647665,182.014103 C150.170818,181.716773 148.84244,181.573924 147.670633,181.523998 L147.670346,181.524129 Z M146.868823,184.822073 C147.52057,184.840631 148.148609,184.890687 148.681189,184.985441 C150.925866,185.380791 154.510161,186.954849 154.725807,187.170495 C154.725807,187.170495 154.726419,187.359401 154.618585,187.522769 C154.510762,187.68287 153.626928,189.663099 153.025734,191.081056 C152.270973,192.8585 151.674667,194.910664 151.514592,194.884526 C151.351224,194.858387 148.928881,193.643137 145.766128,192.806693 C142.096751,191.836287 140.126663,192.731335 139.884878,192.352321 C139.796659,192.215091 140.859362,189.733204 141.212237,188.707253 C141.561844,187.681301 142.450357,185.178241 142.636597,185.067151 C142.77874,184.988734 144.913634,184.766345 146.868745,184.822099 L146.868823,184.822073 Z M51.5533646,196.579345 C51.1906875,196.484591 50.8184175,197.349214 50.0473203,198.100707 C49.4624626,198.672495 47.7005447,199.204264 47.1678603,199.142185 C46.2529991,199.037629 45.8149636,198.764399 45.8149636,198.764399 C45.8149636,198.764399 44.8864319,199.137689 43.0633228,200.255126 C41.2401353,201.369296 40.1389039,202.381969 40.2042511,202.741379 C40.4689074,204.247632 40.6631193,203.7563 42.894727,206.223079 C45.1263346,208.693204 46.3678011,210.815943 46.5246345,210.89436 C46.6847352,210.976044 50.1325853,209.082621 52.9981917,208.157879 C56.9451639,206.883609 60.8283573,206.44803 61.1258178,206.21278 C61.2499775,206.114759 59.4443554,203.256733 57.8074859,201.623053 C56.7292567,200.548091 55.6465316,199.769858 55.4080143,199.688174 C54.6499865,199.436587 54.1811071,199.619768 53.8151627,199.40739 C52.9689161,198.904216 51.7638872,197.54847 51.7475243,197.247873 C51.7313182,196.950543 51.7561501,196.631361 51.5535214,196.579084 L51.5533646,196.579345 Z M50.7058896,199.203428 C50.8953965,199.236102 52.0698168,200.444006 52.9062612,201.34253 C53.7231015,202.22145 55.2452736,204.450705 55.1831937,204.466911 C55.1211138,204.483118 52.8580611,205.369304 51.9464151,205.666634 C51.0348213,205.967231 48.8042593,206.951936 48.663632,206.922529 C48.5198681,206.889856 47.2170014,205.499188 46.3968937,204.502643 C45.5147062,203.434216 44.1334228,201.939595 44.2118394,201.812168 C44.2902561,201.688008 46.7279166,200.538916 47.6067583,200.16317 C48.4889458,199.787423 50.5160167,199.173969 50.7055236,199.203376 L50.7058896,199.203428 Z" fill="#E8000D" transform="translate(120.041654, 121.347440) scale(-1, 1) rotate(-180.000000) translate(-120.041654, -121.347440) "></path>
                        <path d="M193.750593,6.39077582 C189.623524,6.53474359 185.299106,7.27542037 180.813934,8.75961262 C164.081909,14.2945223 150.819559,25.8066118 148.242265,30.3547785 C147.797904,31.1422125 153.142784,36.2260957 149.212253,40.8918873 C146.033241,44.6624221 139.798071,42.1835144 139.798071,42.1835144 C145.215355,45.6338477 148.22368,48.8782066 148.553553,49.4890725 C148.785535,49.9203641 148.931338,50.52033 148.931338,50.52033 C143.919206,47.0469945 139.355879,44.1019259 134.422164,41.7494259 C132.546698,40.8541689 108.710907,30.1014142 101.902772,34.198685 C98.0342164,36.5283135 103.952218,45.1255248 105.272336,46.7168603 C107.216416,49.0628256 112.079948,53.1956453 116.258773,55.4467264 C119.232071,57.0477334 119.349435,56.900493 119.398576,57.606243 C119.421317,57.9003055 118.454518,58.2599243 117.239059,57.9789313 C116.167365,57.7306118 111.844515,55.261271 110.250043,53.996933 C108.655571,52.7324642 105.466365,50.2446955 105.466365,50.2446955 C105.466365,50.2446955 104.428155,49.8609766 104.016467,50.4948446 C102.748731,52.4454592 113.253428,64.7831455 128.404312,70.8800413 C144.714979,77.4474371 157.719076,78.9940752 181.191798,76.7918738 C193.519421,75.6319606 206.026095,70.7882938 212.456523,68.6286988 C216.811785,67.164921 220.517756,66.0970951 220.517756,65.9076405 C220.517756,65.7214009 212.963356,64.2372086 204.951787,63.5183892 C191.300752,62.2963961 183.937165,62.9028968 173.2427,62.6709141 C158.137559,62.3409107 149.457619,63.8457265 134.355875,61.1240147 C129.658717,60.2718869 124.41787,58.1650925 120.991062,55.4414202 C115.6948,51.2330591 109.702198,43.9502419 111.796446,42.7802652 C113.812408,41.656293 116.27822,44.3028555 117.284567,45.3124701 C121.407977,49.4424145 121.088037,52.1585065 121.088037,52.1585065 C121.088037,52.1585065 126.273731,59.7633548 147.726179,60.3676859 C159.357984,60.6976894 165.725417,55.1945384 175.770592,51.887969 C190.591342,47.0099295 191.62409,45.1809915 209.798198,41.7437276 C228.399154,38.228047 237.173456,44.8884973 237.173456,44.8884973 C237.173456,44.8884973 240.624835,30.5748418 224.742062,17.4975557 C216.754018,10.9197043 206.133787,5.95331537 193.751795,6.38539121 L193.750593,6.39077582 Z M140.787976,14.1762439 C140.036483,14.0814904 137.077561,14.5515722 131.261658,19.4753808 C125.445756,24.3994247 123.666743,25.807788 122.072271,26.4643969 C120.477798,27.1211365 118.787135,27.4440041 118.973505,27.633511 C119.163012,27.8197506 121.933212,28.5655192 123.246691,28.7158178 C126.105762,29.042554 127.744409,28.5320353 127.744409,28.5320353 C127.744409,28.5320353 127.606579,24.1671023 129.812048,22.2882389 C133.625189,19.040482 140.410583,22.7068794 140.410583,22.7068794 C140.410583,22.7068794 142.899894,19.9068816 143.504382,18.5868677 C144.255875,16.9433851 143.882167,16.0495658 143.882167,16.0495658 C143.320181,14.549847 141.53662,14.2706837 140.788368,14.1759302 L140.787976,14.1762439 Z M175.931713,15.1105 C177.491995,15.0168496 178.377136,15.6976056 178.74478,16.2693938 C179.166269,16.9195987 180.34048,18.7029767 176.24321,21.2776049 C172.145939,23.8522855 170.247994,21.9035006 169.800496,21.5277541 C169.356135,21.1520076 168.33285,18.5204749 172.358239,16.3052041 C173.813861,15.5026618 174.995653,15.1667771 175.931948,15.1105785 L175.931713,15.1105 Z M175.421194,17.0709167 C174.764454,17.1072759 174.017039,17.3502892 173.399508,17.806073 C172.164445,18.7176667 170.857082,19.7029721 171.592239,20.506743 C172.327395,21.3137812 174.20388,20.4902755 175.007546,20.0983228 C175.814584,19.7029721 177.428661,18.39459 176.886279,17.571215 C176.644494,17.2052706 176.077803,17.0345575 175.421063,17.0708906 L175.421194,17.0709167 Z M196.893768,46.9921028 C196.893768,46.9921028 195.349744,47.4427895 194.193098,47.7629909 C193.03972,48.0831923 190.731002,48.6004548 190.792952,48.7278819 C190.858299,48.855309 195.673344,52.1327335 197.343096,52.776273 C199.012717,53.4199431 201.973861,54.6368391 202.999813,54.8949606 C204.029031,55.1498148 205.440113,55.3464838 205.440113,55.6045792 C205.440113,55.8627007 203.513808,56.6287008 200.942395,57.7232668 C198.374249,58.8145654 195.801398,60.2311625 195.801398,60.4239368 C195.801398,60.6167111 204.091608,61.3853513 208.07439,61.8329798 C212.057434,62.2838756 217.133607,62.9267354 218.417549,63.1195097 C219.701622,63.312284 221.05078,63.7002897 220.985486,63.5075154 C220.923406,63.3147411 220.476588,63.1209474 219.127167,62.5426245 C217.777747,61.9643015 212.636359,58.8144347 209.80996,56.8247425 C206.983824,54.8316522 202.23099,51.0420361 200.365196,49.6927467 C198.5028,48.3433265 196.89369,46.9920767 196.89369,46.9920767 L196.893768,46.9921028 Z M168.274299,122.719078 C164.349283,122.566035 160.756232,123.875933 158.885733,125.685319 C153.723302,130.674449 154.000113,137.504018 154.000113,137.504018 C154.000113,137.504018 155.981362,137.380668 157.461425,138.50464 C158.363216,139.190786 158.731409,140.338858 158.538634,140.414008 C157.983183,140.632921 156.417908,139.069084 153.101484,139.627802 C148.929195,140.327018 145.927928,144.786312 146.117434,145.126118 C146.342882,145.528003 149.191629,145.012988 154.193828,146.300329 C158.477469,147.398162 162.391245,150.1004 162.842141,151.084007 C162.99244,151.41401 161.343442,152.664991 158.57915,158.180192 C156.762497,161.810361 155.96811,165.55711 155.709884,167.880073 C155.638002,168.54008 150.914443,164.796206 145.238906,164.015438 C139.187754,163.185528 137.093244,163.448146 136.044291,163.801021 C135.394086,164.019934 134.424699,163.588015 134.231925,163.418138 C133.964001,163.176353 133.976652,162.578845 133.976652,162.611518 C133.976652,162.451417 132.070134,162.423449 132.057065,162.443053 C131.821815,162.880879 135.035591,165.835358 135.865501,168.017955 C137.789977,173.0889 138.209636,177.115073 137.657452,177.268769 C137.079129,177.432137 132.935201,175.731881 131.183895,174.869298 C126.06381,172.35343 125.34316,171.066089 124.889128,171.193647 C124.546055,171.291668 125.139904,174.092711 125.848922,175.706788 C126.685366,177.624729 128.695708,179.850324 127.875705,180.373102 C127.055597,180.892613 125.335946,180.685959 122.336613,179.290795 C119.781537,178.108011 117.409955,177.151693 117.409955,177.151693 C117.409955,177.151693 117.251684,179.06574 117.57842,180.03612 C117.820205,180.771276 118.111,181.464375 118.313577,181.925073 C118.463875,182.258343 118.568849,182.476446 118.568849,182.476446 C118.568849,182.476446 118.776523,182.669012 119.06405,182.838914 C119.348311,183.012084 120.309725,183.676169 120.309725,183.676169 C120.309725,183.676169 120.253579,183.621852 120.171895,183.543436 C119.887634,183.26571 119.234973,182.590804 119.048733,182.14971 C118.70566,181.336137 119.04751,181.110689 119.26315,181.251186 C121.223567,182.486248 122.32506,183.05375 124.501122,183.145236 C127.242569,183.262861 128.587415,182.137451 128.963031,180.618128 C129.541354,178.298302 127.791486,175.984749 127.079201,175.426161 C126.363649,174.85764 125.944198,174.750235 125.659938,174.292805 C125.37241,173.835374 125.205173,173.006275 125.603791,173.006275 C126.005677,173.006275 128.602706,174.539686 129.759352,176.58495 C131.082633,178.92438 130.955206,181.809852 129.759352,183.129866 C128.240029,184.812557 126.665553,185.187284 126.665553,185.187284 C126.665553,185.187284 127.290037,185.704155 127.982718,186.387007 C128.848568,187.243056 128.802015,187.746831 128.942512,188.240202 C129.03073,188.550601 130.737103,187.67372 131.821972,186.984307 C132.906735,186.298161 133.772377,184.362315 134.553224,184.983061 C135.223033,185.518908 134.588146,187.27471 133.098229,188.281005 C131.529896,189.33963 129.558501,190.224876 129.555103,190.848942 C129.542033,192.358462 130.814866,194.864659 132.337587,196.040909 C134.732563,197.89677 137.496358,198.470597 138.453564,198.297427 C140.456457,197.93475 147.058225,195.578198 152.380626,187.903037 C155.18742,183.848372 155.101684,181.449868 155.101684,181.449868 C155.101684,181.449868 153.740632,180.816209 153.544591,180.270559 C153.404094,179.878476 160.04115,178.127171 166.353692,170.550029 C169.888976,166.305597 171.137893,163.537227 172.990617,156.924088 C173.856468,153.82663 173.375956,150.518231 174.088241,150.465953 C174.516266,150.433279 174.810537,151.925653 174.86935,152.896059 C174.928162,153.869733 174.549357,155.57425 174.996986,155.198529 C176.911659,153.604057 180.894965,149.575009 182.032006,143.589203 C183.479447,135.969717 183.651807,129.672597 175.395081,124.781488 C173.105079,123.426344 170.628132,122.810773 168.273279,122.718973 L168.274299,122.719078 Z M185.024622,133.261414 C184.360406,133.697856 185.983997,137.180418 184.3201,143.55883 C181.683209,153.658374 175.647217,157.301873 175.059092,158.236339 C174.595127,158.96496 171.452448,167.125913 168.289642,171.076022 C165.15951,174.980649 162.282926,177.431432 157.150032,180.48001 C156.241706,181.019125 157.049972,181.724065 157.017299,182.17496 C156.981358,182.625856 155.816949,188.458227 150.696915,193.202435 C142.858385,200.455977 138.938598,200.00874 138.383146,200.564192 C138.141362,200.805976 140.009874,202.154795 141.885235,201.978358 C143.701887,201.808455 149.489299,199.07485 154.240042,192.370225 C158.020248,187.031357 158.721554,182.950815 158.783765,182.66015 C158.920994,182.003411 159.129687,181.792261 159.753753,182.200681 C160.00534,182.367317 160.295115,183.249713 160.585911,183.145158 C163.189997,182.178019 170.383028,176.052631 176.88194,166.629562 C181.613078,159.768104 185.9307,148.684431 186.923978,144.145935 C188.312606,137.804118 186.953802,133.715735 185.463886,133.261441 C185.25927,133.198943 185.119715,133.199099 185.024831,133.261441 L185.024622,133.261414 Z M34.9873994,155.729619 C34.8697744,155.762293 34.3606934,157.005119 33.7366013,157.393935 C33.1125353,157.776216 33.0567811,157.479487 32.4653887,158.103553 C31.870729,158.730886 29.9662757,161.521474 32.312241,163.540703 C33.5897792,164.638537 36.0310207,164.311591 36.9785554,163.984855 C37.9260901,163.661387 38.6808506,162.401623 38.2854999,161.610921 C37.9293575,160.898637 37.1570318,161.193719 36.6211845,160.452028 C36.0886047,159.707069 35.9664838,158.813433 35.6103414,158.042336 C35.2541991,157.271239 35.0140611,157.062729 35.0793822,156.709854 C35.1970072,156.026975 34.9874778,155.729645 34.9874778,155.729645 L34.9873994,155.729619 Z M27.2377416,162.80045 C26.2575333,162.888669 24.6252904,163.008124 21.5964466,163.867439 C18.5643355,164.730023 14.2294622,165.943233 14.2294622,166.302643 C14.2294622,166.593438 20.4881578,167.146642 22.6020097,167.104166 C25.421873,167.045353 28.6923708,165.740866 29.1367319,164.551546 C29.581093,163.365494 28.2145258,162.712231 27.2375848,162.80045 L27.2377416,162.80045 Z M63.6466,164.520389 C63.6466,164.520389 62.4288937,164.516207 61.1807617,164.663343 C59.9358972,164.813641 58.3880829,165.112618 58.3880829,165.112618 C58.3880829,165.112618 60.2907064,167.0424 61.476654,168.676132 C62.6659734,170.306546 64.2068609,172.763732 64.0599081,173.250438 C63.9716893,173.544501 62.3690356,172.893485 54.7071523,175.19044 C48.6790017,176.997291 45.7064873,179.072849 45.4973761,179.131662 C45.288265,179.190474 45.1122457,177.883321 44.282336,176.635189 C43.4491589,175.387057 42.6182298,174.199985 42.5006048,174.199985 C42.3829798,174.199985 42.232263,177.131723 41.2651241,179.039862 C40.2424401,181.059091 39.1470638,182.542996 38.5490321,182.072496 C37.7158551,181.419024 39.4116155,179.040908 40.1827127,176.900917 C40.728362,175.391396 40.5707184,172.183632 40.5707184,172.183632 C40.5707184,172.183632 39.8243224,171.351474 39.6772911,171.351474 C39.5269925,171.351474 38.5504698,173.992024 37.4820427,175.00177 C36.4136156,176.011384 34.9892553,177.560532 34.4240541,176.727355 C33.8588006,175.897445 36.4702324,174.439993 37.3035141,172.597149 C38.1334238,170.754357 38.7303315,169.539944 38.789144,167.517317 C38.8479565,165.498088 38.9030834,165.618771 38.6972396,165.592632 C38.4881285,165.563226 36.8885592,166.32656 34.6896252,166.297154 C31.7163266,166.257945 31.6596052,165.41149 31.3916816,165.352677 C31.123758,165.293865 30.8272384,166.806235 28.0631555,167.874662 C25.9001624,168.711106 24.2330241,168.587966 23.876751,169.002921 C23.5206087,169.417876 23.5230657,171.586384 24.2647567,173.756016 C24.7809998,175.259003 26.4312262,177.852242 25.4542853,178.182376 C24.4283339,178.525449 24.1448838,177.730251 23.1058629,175.211168 C22.4033803,173.505606 22.3606955,173.041641 22.2430705,172.924016 C22.1254455,172.806391 21.7119283,172.746977 21.5028171,172.867869 C21.293706,172.985494 20.1981206,174.293667 20.047822,174.532185 C19.9007908,174.767435 20.7893039,175.927348 21.1454463,176.492601 C21.5015886,177.054587 22.3031115,178.506733 21.9469691,179.101393 C21.5908268,179.696053 21.35129,179.757322 21.1454463,179.489399 C20.9363351,179.221475 19.8015414,175.825511 16.4231946,173.904302 C12.5643104,171.705368 8.11808542,174.253701 7.69332847,177.942499 C7.20322431,182.190069 11.4591582,186.746861 19.2158735,189.265866 C27.7076143,192.020382 32.7294176,188.607297 32.7294176,188.607297 C32.7294176,188.607297 40.6272829,192.909496 55.657144,191.364165 C71.0367435,189.782762 76.2951038,185.964132 77.9875968,184.686463 C79.6245447,183.451401 79.8303885,182.692772 79.6212774,182.751584 C79.4121663,182.810397 77.1556482,184.087935 75.4042904,182.424848 C72.261089,179.43848 74.0697694,172.95316 73.7757069,172.714774 C73.4751097,172.476256 72.6688818,172.952481 71.7540207,172.776043 C70.2085589,172.478713 69.6755608,170.992273 69.3749636,171.024947 C68.8391164,171.083759 68.3655581,173.664713 65.9902389,173.429516 C64.0592285,173.236741 63.1695914,171.411515 63.2741469,168.23232 C63.3590983,165.546549 63.6468352,164.520859 63.6468352,164.520859 L63.6466,164.520389 Z M139.373575,173.102309 C139.919642,173.141935 140.611905,173.488276 141.293163,174.378619 C142.815753,176.368442 141.719148,180.871257 140.506957,180.841982 C139.379718,180.815843 140.40363,178.82683 140.455908,178.330191 C140.472375,178.173358 140.682976,177.359367 140.170001,175.951134 C139.673362,174.591912 138.137911,174.415893 138.33722,173.674202 C138.428706,173.334396 138.827534,173.062787 139.373575,173.102413 L139.373575,173.102309 Z M8.01520275,185.277803 C7.7505465,185.150376 6.20793383,191.443444 18.4605641,194.671597 C21.8162747,195.560319 28.1821397,194.916858 30.7437508,194.145761 C32.8217925,193.518428 33.1965196,193.072446 33.3730616,193.043014 C33.6736589,192.994003 34.072486,193.044647 34.072486,193.247237 C34.072486,193.446546 34.0981021,193.793487 34.0981021,193.793487 C34.0981021,193.793487 40.3662077,196.606816 49.4852819,196.453381 C58.6077541,196.303082 68.2833252,194.473987 75.3996377,191.118434 C78.9479919,189.442277 79.1827191,189.110836 79.3102769,188.836378 C79.4344366,188.56192 79.6121026,187.759769 79.5859637,187.406894 C79.5598248,187.057287 79.4838652,186.329685 79.4838652,186.329685 C79.4838652,186.329685 77.032325,188.157969 67.0833149,191.317507 C61.8586738,192.974059 55.6036377,194.024189 45.6055127,193.471927 C36.6790822,192.978555 33.9316236,190.900095 33.1997347,190.766029 C32.5233909,190.638602 28.5362955,193.939552 18.6395894,191.240816 C10.6442261,189.061486 9.11666939,185.803927 8.015438,185.278012 L8.01520275,185.277803 Z M124.798531,186.594968 C123.653516,186.598889 121.596778,187.162862 119.126653,190.010275 C115.830016,193.810347 114.642527,198.67218 114.884311,198.995518 C115.126096,199.318987 115.488564,196.541521 120.392821,192.823343 C125.297078,189.105164 126.305176,189.907288 126.886766,188.861733 C127.171027,188.355292 126.584549,187.075087 125.620651,186.712436 C125.46055,186.652813 125.180367,186.59374 124.798713,186.59502 L124.798531,186.594968 Z" fill="#FFC82D" transform="translate(122.572703, 104.176712) scale(-1, 1) rotate(-180.000000) translate(-122.572703, -104.176712) "></path>
                        <path d="M133.359304,35.685819 C132.827404,35.7672677 132.314559,35.9416925 131.837942,36.2320695 C127.854899,38.6629861 130.440113,45.07381 134.34461,48.9389675 C138.17082,52.7225717 143.344229,54.8267522 146.056139,53.5948264 C149.205875,52.1637222 148.527074,49.3778395 148.527074,49.3778395 C148.527074,49.3778395 146.795373,52.4021089 143.7894,52.3236922 C139.126745,52.2060672 135.381043,46.8303433 135.381043,46.8303433 C135.381043,46.8303433 136.109063,46.5611912 137.693733,46.3096044 C138.964737,46.107028 140.042155,45.7531336 140.042155,45.7531336 C140.042155,45.7531336 138.281048,45.1023275 136.856348,44.7167789 C135.382768,44.3181609 133.869718,43.8386691 133.869718,43.8386691 C133.869718,43.8386691 132.462087,40.9111135 134.742705,39.0191808 C137.291247,36.9084655 141.757337,39.0600358 141.757337,39.0600358 C141.757337,39.0600358 137.082397,35.1154161 133.359173,35.6855053 L133.359304,35.685819 Z M67.9781014,120.595386 C66.3836292,120.595386 66.3852498,121.390792 66.3852498,121.652181 C66.3852498,121.969115 66.5206492,122.714073 67.7687812,122.714073 C68.3634409,122.714073 68.9852589,122.752262 69.2237763,122.811075 C70.2007173,123.020186 70.4180098,123.331814 70.4898918,124.557074 C70.5748432,125.867286 70.5766729,127.001478 70.5766729,133.30759 L70.5766729,140.608182 C70.5766729,144.395184 70.5732748,147.65967 70.3673527,149.358697 C70.2039846,150.541482 70.0322521,150.9883 69.7087834,151.053647 C69.2382834,151.16147 68.8133173,151.206795 68.3558868,151.206795 C67.1044874,151.206795 67.0081134,151.979121 67.0081134,152.217638 C67.0081134,152.547642 67.1534979,153.315263 68.5192548,153.315263 C69.4733243,153.315263 70.71615,153.27974 71.8171984,153.243799 L73.7469803,153.19275 L75.6052985,153.238702 C76.8109547,153.271375 78.3132874,153.315289 79.715116,153.315289 C81.1135465,153.315289 81.1854285,152.400637 81.1854285,152.217664 C81.1854285,151.730828 80.8031472,151.206821 79.9601681,151.206821 C79.4537271,151.206821 78.5695008,151.126967 78.0303862,151.04855 C77.8016709,151.012609 77.2261971,150.913569 77.1216416,149.430187 C76.9974818,147.675614 76.9991286,144.401588 76.9991286,140.608312 L76.9991286,138.494748 C77.9826043,139.579512 92.7998255,155.944547 92.7998255,155.944547 L92.8304603,155.970163 C94.6667173,157.597309 95.9182473,158.605486 98.3491639,158.834201 C99.2509556,158.915885 100.01327,158.915885 101.274367,158.915885 L104.883886,158.915885 C105.344584,158.915885 106.563519,158.917927 106.563519,157.823358 C106.563519,157.316917 106.189602,156.807418 105.343356,156.807418 C105.046026,156.807418 104.233681,156.607299 102.841785,156.051847 C100.851963,155.274215 98.9601604,153.617872 97.3688249,152.095204 C97.3361513,152.059263 92.5699863,146.882848 92.5699863,146.882848 C92.5668496,146.879711 83.2506882,136.859107 81.1138341,134.558885 C83.0481118,132.55926 88.3566588,127.2332 89.5885846,126.099556 C91.3529596,124.48548 93.3013524,122.832195 94.392651,122.832195 C94.9154288,122.832195 95.393692,122.966157 95.4851781,124.547559 C95.5668622,125.854504 95.5668622,126.98786 95.5668622,133.277426 L95.5668622,139.316816 C95.5668622,144.740635 96.8113085,148.384919 99.4775013,150.783162 C102.826416,153.815273 107.234217,153.815796 109.116217,153.815796 C111.62555,153.815796 114.923232,153.46313 118.167852,150.675993 C121.830434,147.536189 122.333869,142.584961 122.333869,137.703524 L122.333869,133.277164 C122.333869,126.987625 122.333869,125.850844 122.415553,124.547298 C122.497237,123.139065 122.789469,122.932803 123.390664,122.821713 C123.861164,122.743297 124.070693,122.704297 124.462776,122.704297 C125.707641,122.704297 125.89226,122.047976 125.89226,121.652625 C125.89226,120.95341 125.371312,120.59583 124.345361,120.59583 C123.290003,120.59583 121.852573,120.651793 120.797268,120.687734 C120.797268,120.687734 119.646346,120.718369 119.633277,120.718369 L119.526055,120.718369 C117.212764,120.620348 115.716312,120.595856 114.870196,120.595856 C113.840978,120.595856 113.3182,120.953436 113.3182,121.652651 C113.3182,121.969585 113.455429,122.704323 114.706828,122.704323 C115.193665,122.704323 115.800375,122.756 116.02909,122.811545 C117.009298,123.020656 117.2182,123.312262 117.290082,124.547324 C117.371766,125.854269 117.371766,126.987625 117.371766,133.27719 L117.371766,138.44877 C117.371766,142.74548 117.206961,146.189801 115.171395,148.225237 C113.33187,150.061494 110.904221,150.257117 109.943617,150.257117 C108.525582,150.257117 106.857921,150.073125 105.211171,148.720438 C103.420657,147.25666 102.224542,145.055504 102.224542,139.066301 L102.224542,133.27706 C102.224542,126.98752 102.224542,125.85074 102.306226,124.547194 C102.391177,123.138961 102.681972,122.932699 103.286434,122.821609 C103.753667,122.743192 103.966463,122.704193 104.358547,122.704193 C105.606679,122.704193 105.70632,121.90084 105.70632,121.652521 C105.70632,120.597163 104.505552,120.595725 104.113469,120.595725 L101.07064,120.672312 L99.0234427,120.723362 L91.079573,120.723362 L88.7209565,120.651898 L86.8115891,120.595752 C85.6386064,120.595752 85.4638157,121.257196 85.4638157,121.652547 C85.4638157,122.495526 86.2418658,122.669506 86.5359283,122.734854 C86.5424631,122.73799 86.5586692,122.740081 86.5716602,122.740081 C86.5781949,122.762822 86.5870821,122.808696 86.5870821,122.90345 C86.5870821,123.321672 85.6630201,124.403586 84.8461799,125.364191 L84.6725915,125.568388 C83.9635741,126.398297 81.5019443,128.955203 79.3324165,131.209683 C78.4436943,132.131078 77.6299122,132.974659 76.9993116,133.634666 L76.9993116,133.30793 C76.9993116,127.001923 76.9993116,125.864358 77.0809956,124.557414 C77.1626796,123.142646 77.4549124,122.932725 78.0561068,122.821635 C78.5135374,122.743218 78.7297844,122.714413 79.0924615,122.714413 C80.2948504,122.714413 80.358577,121.828958 80.358577,121.652521 C80.358577,120.953305 79.8357992,120.595725 78.8065805,120.595725 L75.8711832,120.672312 L73.7831304,120.723362 L71.955447,120.677409 C70.7726623,120.638201 69.3049637,120.595725 67.9784151,120.595725 L67.9781014,120.595386 Z M44.1773361,130.320882 C43.5990132,130.48425 43.4832179,132.260257 43.528961,134.573679 C43.5779714,136.890238 43.7158018,137.608666 43.5033449,137.749031 C43.2942338,137.886261 40.7172007,136.66019 38.6226915,135.686516 C35.9858004,134.461256 32.5370354,132.240627 32.3279243,132.28637 C32.0763375,132.341915 34.6883967,135.733566 35.5900576,137.677515 C36.6552174,139.971203 37.6009224,142.073031 37.3003251,142.190656 C36.9997279,142.308281 35.5923056,141.660925 33.808431,141.036859 C32.0277192,140.409526 30.1270299,139.692327 29.9898007,139.852454 C29.8493042,140.015822 32.1358557,142.540839 33.2009632,144.207193 C34.2661229,145.873547 34.6304467,146.195996 34.6304467,146.427979 C34.6304467,146.659962 34.3384231,146.961578 34.1097078,146.98445 C33.8777252,147.007191 32.4200639,147.097579 31.240442,147.117183 C30.0576572,147.143322 28.7184574,147.025906 28.5551939,147.163135 C28.3918259,147.303632 30.7475932,150.04155 32.5575806,151.818994 C35.1257264,154.341397 37.2335664,155.336243 37.3054484,155.453868 C37.3707956,155.568226 36.0518011,156.274786 34.4312161,157.026279 C30.8893967,158.669762 30.2197184,158.392454 30.1478364,158.67018 C30.1020934,158.859687 33.1423075,159.781083 35.3348375,160.548913 C38.1808397,161.54219 40.5205317,161.700461 41.1447284,161.769076 C41.7687943,161.840958 40.5649678,162.415203 40.1696171,162.647186 C39.7775338,162.879168 39.0158204,163.203657 39.0158204,163.367025 C39.0158204,163.693761 44.2368021,166.268964 48.6085312,166.64458 C53.1927696,167.039931 57.2696521,166.435887 59.4979924,165.266172 C59.9390861,165.034189 59.9135484,164.686019 59.4723762,164.525918 C58.9169249,164.320075 58.1791024,165.351541 51.6050935,165.194708 C45.7499824,165.054211 41.5604413,163.484231 41.374071,163.27512 C41.2139703,163.098683 42.9765156,162.487895 43.7378107,162.095812 C44.5023732,161.703729 45.44766,161.397825 45.3561739,160.98287 C45.2490044,160.509756 43.6493044,160.601243 41.9999405,160.420884 C39.8931461,160.190862 34.4771683,158.823798 34.3621572,158.685262 C34.2445322,158.544766 35.9854345,157.712007 36.8382157,157.22517 C37.6942643,156.7416 38.5233638,156.209021 38.7782179,156.163277 C39.0330721,156.117534 39.4719179,155.911063 39.4980568,155.698685 C39.5666714,155.143233 39.0330721,155.055433 38.7782179,154.892065 C38.5233638,154.731964 37.6432151,153.908171 34.8268021,151.696063 C33.088566,150.330306 31.4467824,148.660292 31.3552963,148.500061 C31.2605428,148.336693 32.8127484,148.295655 34.0151896,148.249912 C35.2208458,148.204169 35.8410433,148.132496 36.164512,147.969128 C36.4912481,147.809027 36.8375884,147.66691 36.8179842,147.274827 C36.794982,146.882743 36.2106733,146.049775 35.194524,144.70689 C34.4462983,143.720147 33.0198991,142.233498 33.0656422,142.093001 C33.1113852,141.955772 34.1530722,142.36725 35.5417007,142.782205 C36.9303292,143.200427 38.5905407,143.986424 38.982624,143.685827 C39.3747074,143.385229 39.2039943,142.066444 38.2270533,140.122312 C36.8612964,137.4138 35.3528211,135.522652 35.5161891,135.405027 C35.6762898,135.290669 38.0894321,136.842038 39.6871716,137.717691 C41.2849112,138.599878 43.9896328,140.050587 44.2870933,140.004844 C44.5876905,139.959101 45.1247663,138.831443 45.0528843,137.789155 C44.9842697,136.746866 44.8006963,134.845654 44.915054,134.77717 C45.0294116,134.708556 47.832154,138.015256 49.1064248,139.152298 C50.3774283,140.286072 51.6935736,141.327942 52.3175873,141.837546 C52.9449206,142.347254 53.9387996,143.318262 54.1707823,143.527373 C54.4027649,143.733216 54.91412,143.687055 55.0284515,143.2721 C55.1428091,142.853878 55.0511923,140.797688 55.0284515,140.101714 C55.0057106,139.409034 55.0723648,137.465085 55.1867224,137.370462 C55.3043474,137.278976 56.5087752,139.68642 57.6882925,141.398465 C58.5018654,142.577982 60.2825772,145.428036 60.7922856,146.284084 C61.3019939,147.140133 62.1204548,148.252866 62.3851372,148.08623 C63.1268282,147.622265 60.8578419,144.166965 59.613108,141.919021 C58.3159657,139.582857 54.4284594,131.935533 54.1963461,131.912793 C53.9643634,131.890052 53.8038445,135.638107 53.7777056,137.232579 C53.7547034,138.830319 53.7115481,141.004944 53.5939231,141.076826 C53.4762981,141.14544 51.2069198,138.968149 49.5863087,137.370331 C47.9656976,135.775859 45.9323534,133.624367 45.5175292,132.673434 C45.099307,131.7259 44.5898078,130.197193 44.1748529,130.314818 L44.1773361,130.320882 Z M151.953203,139.694026 C149.519019,141.236221 147.039353,142.882448 144.56583,144.666427 C138.847948,148.789837 131.346348,155.264178 127.621557,158.593488 C129.134345,159.642311 130.943548,160.962743 132.374652,162.279595 C133.315652,163.142178 134.218672,164.113185 135.019124,165.031235 C135.17269,164.694697 135.336476,164.333641 135.519448,163.928488 C136.117375,162.58887 136.502715,161.058699 136.78044,159.941262 C137.094107,158.68006 137.259514,157.98738 137.811698,157.327373 C138.720024,156.236074 140.139288,155.801097 141.763114,155.43842 C142.43619,154.32425 143.581596,152.566802 145.280624,151.037677 C146.963315,149.518354 148.319793,148.707839 149.339209,148.214415 L149.354631,148.117414 C149.606218,146.362841 150.071203,143.232317 151.953203,139.693634 L151.953203,139.694026 Z M63.4286278,150.113771 C63.1901104,150.143178 62.7980271,151.593285 62.4484194,152.753276 C62.1020792,153.893585 60.9301159,157.77508 60.6360534,159.813913 C60.3419909,161.852746 61.3903956,163.948563 61.7694095,164.13807 C61.7694095,164.13807 62.5678742,158.505662 62.8619367,157.087627 C63.1559992,155.669592 64.4496651,152.094315 64.4496651,151.594278 C64.4496651,151.215264 63.6638778,150.084339 63.4286278,150.113745 L63.4286278,150.113771 Z M121.433436,160.671269 C120.547119,161.027254 117.088891,164.679406 114.658759,169.390941 C111.607044,175.301466 110.896066,179.377303 110.850323,179.596347 C110.798045,179.864271 109.450873,177.967764 109.313644,175.108823 C109.097998,170.632538 110.257911,166.344976 109.313644,166.021376 C108.415119,165.714245 104.672684,173.035225 103.646733,175.05759 C102.620781,177.083354 98.2506203,184.908292 98.9498356,185.502952 C99.7503391,186.182563 103.05338,179.863225 103.968241,178.350568 C104.847161,176.906394 107.317155,172.494934 107.317155,172.494934 C107.317155,172.494934 107.236909,177.326185 108.047214,178.917259 C108.854253,180.511731 109.961888,182.558406 111.069393,182.34276 C112.173761,182.127114 111.444721,181.402361 112.039381,179.621702 C112.630773,177.84099 115.684188,171.01129 116.736278,169.227311 C117.788368,167.446599 121.755467,161.619065 121.647514,160.726945 C121.636535,160.636687 121.559713,160.619932 121.433096,160.670798 L121.433436,160.671269 Z M145.239168,165.158793 C144.537495,165.16193 144.076405,165.226597 143.942444,165.301747 C143.671253,165.445511 143.27734,166.137773 142.957138,166.925207 C142.636937,167.709374 142.318983,169.03655 142.318983,169.186822 C142.318983,169.333853 143.079468,168.917069 146.05606,169.753513 C149.035894,170.589958 150.097394,170.639778 150.293436,170.590768 C150.489477,170.541757 151.007158,169.434122 151.350231,168.548667 C151.696571,167.659945 152.090484,166.629079 152.090484,166.629079 C151.995731,166.384027 150.173144,165.693386 147.980667,165.373184 C146.886101,165.213084 145.940814,165.1555 145.23922,165.158767 L145.239168,165.158793 Z M60.9830733,166.036903 C60.9830733,166.036903 59.8415358,167.176611 59.6454941,168.512961 C59.400442,170.195652 59.9456731,171.579837 59.7986419,172.321398 C59.6483432,173.063089 58.9052146,175.537788 58.9052146,175.537788 C58.9052146,175.537788 59.4010432,175.386052 60.1917446,175.297833 C61.0151196,175.199812 61.2301642,175.093819 61.2791747,174.89451 C61.3281851,174.695201 61.04944,173.213256 61.04944,172.520576 C61.04944,171.827895 61.3790252,170.243826 61.5293238,168.410758 C61.6763551,166.581036 60.9830733,166.036825 60.9830733,166.036825 L60.9830733,166.036903 Z M43.0737522,170.835742 C43.0737522,170.835742 42.4809222,171.5807 41.6902208,172.22437 C40.8962521,172.864773 40.3015924,173.456583 40.3015924,173.704903 C40.3015924,173.953222 40.2527911,174.890955 40.1024924,175.338583 C39.9554612,175.782945 40.2536014,177.022085 40.449643,177.074362 C40.6489521,177.123373 41.4927415,176.726402 42.4304742,176.380061 C43.3682068,176.033721 44.5083067,175.440682 44.5083067,175.440682 C44.5083067,175.440682 44.1123548,174.450671 43.9620562,173.807001 C43.815025,173.166599 43.5669146,171.830457 43.5179042,171.484117 C43.4688938,171.137776 43.0737522,170.835742 43.0737522,170.835742 L43.0737522,170.835742 Z M50.1241947,179.407467 C50.000035,179.329051 49.0202449,179.830395 48.5824185,179.974159 C48.1413247,180.114655 46.823977,180.586174 46.7292236,180.693997 C46.6377374,180.80182 47.4507092,181.625195 47.7349434,182.000942 C48.0159365,182.376688 48.9299873,183.398771 49.1031574,183.415108 C49.171772,183.421643 50.2647174,182.946046 50.8593771,182.756539 C51.4573042,182.567032 52.0084688,182.311968 52.1816389,182.138798 C52.263323,182.057114 51.5549329,181.027686 51.1759191,180.54085 C50.8001725,180.050745 50.2484067,179.48591 50.124247,179.407494 L50.1241947,179.407467 Z" fill="#FFFFFF" transform="translate(90.318812, 110.591529) scale(-1, 1) rotate(-180.000000) translate(-90.318812, -110.591529) "></path>
                    </g>
                </g>
            </g>
        </g>
    </g>
</svg>