<svg width="500" height="500" viewBox="0 0 500 500" fill="none" xmlns="http://www.w3.org/2000/svg">
<g clip-path="url(#clip0)">
<path d="M195.384 163.205H104.631C92.6666 163.22 80.9968 166.915 71.2045 173.789C61.4122 180.663 53.9714 190.383 49.8916 201.629L-0.0595703 337.638H131.344L127.807 347.305L172.726 379.844H240.151C254.738 379.844 268.972 375.367 280.932 367.018C292.892 358.668 302.001 346.848 307.028 333.155L307.942 330.624L318.219 337.638H395.403C407.534 337.636 419.37 333.896 429.301 326.928C439.232 319.961 446.775 310.103 450.904 298.696L500.062 163.205H369.421L372.867 153.782L327.612 121H259.546C232.528 121 204.655 137.833 195.506 163.205H195.384Z" fill="#FF3600"/>
<path d="M61.6011 206.204L38.8822 268.049L52.6965 277.868H35.3142L18.0234 324.861H149.366L142.901 342.518L176.812 367.097H240.852C252.949 367.095 264.751 363.36 274.646 356.401C284.541 349.442 292.047 339.599 296.14 328.216L302.239 311.23L322.213 324.861H395.402C404.918 324.866 414.204 321.942 422 316.486C429.796 311.03 435.724 303.308 438.98 294.366L482.161 175.191H351.092L357.191 158.327L323.372 133.931H260.461C248.44 133.932 236.71 137.623 226.855 144.506C217 151.389 209.496 161.131 205.356 172.416L204.288 175.465H106.124C96.4549 175.442 87.0094 178.374 79.0524 183.868C71.0953 189.361 65.0065 197.155 61.6011 206.204V206.204Z" fill="black"/>
<path d="M331.941 189.127L341.486 163.145L319.072 146.891H260.186C250.935 146.892 241.907 149.732 234.321 155.027C226.735 160.322 220.957 167.818 217.767 176.502L195.445 237.34L257.472 286.681L244.908 322.025H204.258L215.45 291.134H44.6763L37.083 311.718H168.213L158.515 337.639L180.868 353.954H240.242C249.38 353.953 258.297 351.148 265.79 345.918C273.283 340.689 278.991 333.286 282.143 324.709L304.892 263.169L243.383 214.377L256.1 178.728H295.927L284.674 210.352H455.295L462.919 189.005L331.941 189.127Z" fill="#FF3600"/>
<path d="M145.765 277.868C151.867 277.865 157.821 275.993 162.826 272.503C167.831 269.014 171.647 264.075 173.76 258.351L194.253 202.514L174.736 188.242H107.097C99.7906 188.212 92.6516 190.432 86.6502 194.6C80.6488 198.768 76.0759 204.683 73.5527 211.54L54.4932 263.382L74.3761 277.868H145.765ZM113.806 201.629H158.512L135.885 264.785H90.9655L113.806 201.629Z" fill="#FF3600"/>
<path d="M391.347 287.382C390.14 290.741 387.925 293.645 385.005 295.698C382.084 297.75 378.601 298.85 375.032 298.848H342.036L369.665 223.311H333.711L306.631 298.482L326.788 312.205H393.725C400.917 312.207 407.936 309.995 413.828 305.871C419.72 301.746 424.2 295.909 426.66 289.15L450.629 223.311H414.31L391.347 287.382Z" fill="#FF3600"/>
<path d="M442.881 337.73C441.447 337.724 440.046 337.293 438.857 336.492C437.667 335.69 436.742 334.555 436.197 333.228C435.652 331.901 435.513 330.443 435.797 329.037C436.08 327.631 436.774 326.341 437.79 325.329C438.806 324.317 440.099 323.629 441.506 323.351C442.913 323.074 444.371 323.219 445.696 323.769C447.02 324.319 448.152 325.25 448.948 326.443C449.744 327.635 450.169 329.038 450.169 330.472C450.177 331.43 449.994 332.38 449.63 333.266C449.267 334.152 448.73 334.957 448.051 335.633C447.372 336.309 446.565 336.843 445.677 337.203C444.789 337.563 443.839 337.742 442.881 337.73V337.73ZM442.881 324.037C441.597 324.019 440.337 324.383 439.261 325.084C438.185 325.785 437.343 326.79 436.84 327.971C436.338 329.153 436.198 330.457 436.44 331.718C436.681 332.979 437.293 334.139 438.196 335.051C439.1 335.963 440.254 336.586 441.513 336.839C442.771 337.093 444.077 336.966 445.263 336.475C446.449 335.983 447.462 335.15 448.173 334.081C448.884 333.012 449.26 331.755 449.254 330.472C449.262 329.635 449.105 328.804 448.792 328.028C448.48 327.252 448.017 326.544 447.431 325.947C446.844 325.349 446.146 324.873 445.376 324.546C444.606 324.218 443.779 324.045 442.942 324.037H442.881ZM444.649 331.356L446.54 334.131H444.558L442.911 331.661H441.569V334.131H439.862V326.416H443.277C445.137 326.416 446.327 327.361 446.327 328.977C446.359 329.497 446.218 330.013 445.925 330.443C445.633 330.874 445.205 331.195 444.71 331.356H444.649ZM443.216 327.941H441.569V330.197H443.277C444.131 330.197 444.588 329.74 444.588 329.069C444.588 328.398 444.131 327.941 443.277 327.941H443.216Z" fill="#FF3600"/>
</g>
<defs>
<clipPath id="clip0">
<rect width="500" height="258.874" fill="white" transform="translate(0 121)"/>
</clipPath>
</defs>
</svg>
