<?xml version="1.0" encoding="UTF-8" standalone="no"?>
<svg width="250px" height="250px" viewBox="0 0 250 250" version="1.1" xmlns="http://www.w3.org/2000/svg" xmlns:xlink="http://www.w3.org/1999/xlink">
    <!-- Generator: Sketch 47.1 (45422) - http://www.bohemiancoding.com/sketch -->
    <title>MIZZOU</title>
    <desc>Created with Sketch.</desc>
    <defs></defs>
    <g id="Page-1" stroke="none" stroke-width="1" fill="none" fill-rule="evenodd">
        <g id="MIZZOU" fill-rule="nonzero">
            <g id="Group" transform="translate(0.000000, 54.000000)">
                <path d="M124.674537,0.0989859471 C55.9356554,0.0989859471 0.216975284,31.8253108 0.216975284,70.9531175 C0.216975284,110.102103 55.9356554,141.819109 124.674537,141.819109 C138.319722,141.819109 151.451106,140.565339 163.740196,138.25264 L163.588583,138.743983 C166.048085,138.506783 168.802391,137.668112 171.39666,136.651541 C174.597383,135.914528 177.722299,135.101271 180.788254,134.220243 L180.729293,134.491329 C180.981982,134.338843 181.226247,134.186357 181.46209,134.0254 C221.631155,122.275537 249.115253,98.4454253 249.115253,70.9531175 C249.115253,31.8253108 193.397415,0.0989859471 124.674537,0.0989859471 Z" id="Shape" fill="#2C2A29"></path>
                <path d="M124.674537,3.57683591 C58.1079351,3.57683591 4.14207164,33.756279 4.14207164,70.9576842 C4.14384046,108.170949 58.1079351,138.336838 124.674537,138.336838 C131.227595,138.336838 137.663574,138.040533 143.938674,137.481394 C144.654625,135.837938 145.672623,133.70314 145.883197,132.822112 C143.550039,132.983069 140.94802,133.118281 138.977049,133.118281 C138.926511,132.81331 138.866767,132.492124 138.799384,132.170244 C134.166759,132.475215 129.449905,132.635181 124.674091,132.635181 C115.055078,132.635181 105.722445,131.991217 96.8025373,130.805184 L96.7778581,130.805184 C88.5317865,129.720842 79.6253554,127.866109 75.1317097,126.62081 C75.029792,126.595396 74.9209422,126.570066 74.8240782,126.544652 L78.6620812,125.273938 C80.7855078,124.697882 83.3945177,123.66369 85.3478006,122.833406 C85.6173351,122.706335 85.7521024,122.639826 85.7689483,122.639826 L88.2036872,121.562684 C83.432084,120.249614 81.7021778,118.953402 81.7021778,118.953402 C91.90069,116.988032 96.8862362,113.506531 96.8862362,113.506531 C84.2989744,110.016305 74.3219859,105.00207 74.3219859,105.00207 C82.1368022,103.917728 90.1664039,101.50261 90.1664039,101.50261 C72.3821797,96.0470137 54.3654821,87.1274528 54.3654821,87.1274528 C61.0878413,89.3130799 75.6233323,91.2688772 75.6233323,91.2688772 C72.3670184,88.2191651 71.0713155,85.8220066 71.0713155,85.8220066 C82.3521772,93.0227158 110.683624,99.8515296 110.683624,99.8515296 C103.919992,93.6589197 93.4089883,75.4944953 91.7075517,72.5176374 C95.5989562,79.1507613 105.992039,86.2540492 105.992039,86.2540492 C105.343471,81.2482855 106.210833,79.2816448 106.210833,79.2816448 C116.149918,104.51886 131.184891,112.761554 131.184891,112.761554 C129.660336,108.619028 126.603309,92.3623684 126.603309,92.3623684 C128.127864,95.6323376 130.730893,97.3691486 130.730893,97.3691486 C128.995765,93.44688 128.99526,86.253795 128.99526,86.253795 C133.122507,94.5388463 140.922162,98.8931576 140.922162,98.8931576 C140.778972,98.6898434 140.475088,98.2583939 140.458242,98.2329796 C131.858407,84.7303791 128.808455,72.8195589 127.705048,66.4651448 C127.309161,64.2193707 127.158803,62.659104 127.091419,61.9763074 C117.337639,82.3365245 126.59348,101.579361 127.343122,105.721887 C120.840602,101.316747 113.950626,84.0934975 112.965141,80.57701 C109.200081,67.5081463 111.954386,51.6682803 112.965141,47.7654959 L112.586108,47.3902119 C104.946489,56.817211 106.320188,65.7384662 106.446533,68.2460073 C101.56122,61.5900105 100.937079,43.6119574 100.937079,41.852443 C89.4313243,34.9406093 87.670927,20.4443109 87.670927,20.4443109 C83.398805,20.700995 74.1739862,22.3796921 72.0707747,22.8930603 C73.3830709,32.0633753 80.6369185,48.6970136 80.9131914,49.3281346 L80.8194186,49.7930717 C79.9931269,49.5143618 71.3250654,42.452584 71.3250654,42.452584 C75.8835678,55.4773962 82.3700844,66.2115358 82.3700844,66.2115358 C88.395023,77.770792 101.181067,92.6339029 102.006516,93.5488166 L103.04296,94.6921198 C94.4515478,92.3963642 74.2465668,80.1560057 72.2368501,78.8742795 C46.3118413,62.2999411 40.1833003,51.1676447 39.0832626,49.7935799 L38.8118245,49.7935799 C42.3679955,67.5005475 55.5263335,80.7989867 56.0721409,81.354712 L56.2547505,81.8097206 C41.1625024,74.4217929 22.1729536,59.0266766 14.9039446,52.8628695 C29.2903493,27.6298901 72.9886324,9.27824734 124.671875,9.27824734 C125.994279,9.27824734 127.316009,9.29674045 128.62999,9.3196133 C129.051146,8.71390658 129.573697,8.08456459 130.230688,7.45657804 C132.311157,5.47426514 134.231085,3.84139844 142.603164,7.45657804 C144.590981,8.30795601 147.160993,9.49505646 149.788954,10.7640756 C201.093165,16.9202584 239.442872,41.5263525 239.442872,70.9492975 C239.442872,91.4492931 220.836568,109.603552 192.215372,120.819715 C191.29727,123.132414 189.915737,125.784477 187.801575,128.351318 C222.23461,116.491327 245.188,95.2187373 245.188,70.9489587 C245.188,33.7484005 191.23056,3.56980463 124.672381,3.56980463 L124.674537,3.57683591 Z M131.455689,15.8849658 C129.678445,15.9264758 128.432101,16.053149 127.513999,16.2191889 C127.337117,16.2530745 127.143456,16.2854269 126.949728,16.3184655 C122.982517,17.0148164 117.565716,18.2691799 115.333633,18.9045366 C118.096362,19.0680351 122.729408,18.7535759 126.966574,18.3469476 C131.413894,17.9233765 135.415639,17.4004356 136.350587,17.2267714 L147.703886,21.254001 C148.71464,21.6140364 151.369218,20.4167872 151.369218,20.4167872 C153.121193,21.106361 159.800595,24.4117407 162.184291,25.6138356 C162.689668,25.8637425 163.269841,25.7402716 163.632028,25.534416 C164.583822,25.0117292 164.820844,24.8833109 165.898982,24.2140601 C167.57515,25.0544252 177.639737,32.1874477 177.639737,32.1874477 L176.570443,32.4803048 C165.730102,29.2950499 157.71145,27.2432714 155.71521,27.0738429 L155.101581,26.5145935 L158.04136,26.1141832 C151.707299,24.7697684 139.527708,23.5990178 137.19455,23.5990178 L136.368705,22.9752416 C138.17964,22.578779 143.528215,22.4259206 143.528215,22.4259206 C140.529644,21.5838612 135.188986,21.0873512 130.353874,21.0873512 C129.25889,21.0873512 128.138637,21.0713995 126.984692,21.0459852 C117.070876,20.8104797 105.489315,19.6385431 101.151494,18.7312537 C97.5043547,17.9772971 96.8138409,17.9017828 96.3000408,17.7832168 C95.718857,17.6468269 95.3987847,17.5604184 94.5564894,17.3443971 C92.1475247,17.2850971 91.8619865,18.5761419 91.8535636,18.6862704 C91.5166454,21.5131842 95.6259518,25.2689894 99.3404743,27.246643 C105.034391,30.7021363 112.666429,32.5547517 114.527902,32.9681571 C116.296722,33.3324283 117.787416,33.4465045 119.168781,33.5803529 C122.0747,33.8658399 124.988368,34.6729123 127.127798,35.3209761 C128.315435,35.677623 129.259395,35.9883548 129.840579,36.1399933 C129.4447,35.7833464 127.987529,34.0145133 127.103119,32.9267827 C126.690394,32.422733 126.403955,32.0631211 126.403955,32.0631211 C126.403955,32.0631211 126.411535,32.0697288 126.428634,32.0697288 C124.828273,30.0086317 124.795086,28.7274985 124.795086,28.7274985 C133.243309,31.994079 144.184725,32.2153526 144.184725,32.2153526 C152.2118,32.6541723 158.503747,36.3534731 158.503747,36.3534731 C161.653931,38.347646 167.146539,40.8567967 169.563927,41.9326673 C169.462851,41.8903102 170.220125,42.1828623 171.913173,42.4852921 L171.913173,42.4654351 C172.839698,42.5340536 173.622695,42.7272953 174.313378,42.8145509 C174.456568,42.8289523 174.608838,42.8455478 174.777297,42.864185 C178.870853,43.0954548 180.268642,44.3433801 180.268642,44.3433801 L178.467225,45.7216805 C183.925299,45.3201351 187.142024,47.2472143 187.142024,47.2472143 L185.187647,48.7743577 C189.955038,48.6371206 193.795905,51.4771651 195.985873,53.590785 L196.566602,53.723151 C196.810868,53.9222294 197.123368,54.1996854 197.232866,54.3403111 C198.386811,53.7041072 199.017774,52.4607565 199.017774,52.4606718 L205.917352,52.2968684 C205.917352,52.2968684 206.943942,54.0699371 207.154516,54.414724 C207.306129,54.218187 207.517158,54.0193458 207.626656,53.8753316 C208.63741,52.8138624 209.790597,52.5162613 210.253944,52.2968514 C209.714866,51.2514779 208.519742,49.8423414 205.512747,47.5813187 C204.897872,47.1255562 204.316267,46.7057972 203.844581,46.3635517 C203.153899,45.8755978 202.396844,45.3616366 201.554549,44.8015908 C201.621932,44.8312408 201.697739,44.8530971 201.765123,44.8793585 C201.731431,44.8530971 201.696644,44.8391616 201.67135,44.8247602 C201.881924,44.9535258 195.414106,42.7091071 193.906397,42.3677088 C192.718761,42.0966233 189.526293,41.1324059 188.86088,40.787619 C183.647072,38.143688 184.328573,35.6716422 184.328573,35.6716422 C184.328573,35.6716422 187.630539,35.1839678 189.163516,36.824857 C189.500435,37.1696439 190.308533,38.972532 190.308533,38.972532 L191.177108,39.2107908 C191.480334,36.5211141 191.158914,35.3220689 190.88099,34.2834725 C190.341913,32.2604968 181.405168,26.6112439 179.577387,25.2690317 C175.340641,22.1778096 171.560167,20.7431742 169.058802,20.2374303 C162.674204,18.9565512 144.531162,16.3851356 138.525596,16.0513615 C135.527024,15.8844745 133.227053,15.8418886 131.458232,15.8842457 L131.455689,15.8849658 Z" id="Shape" stroke="#C69214" stroke-width="0.842295356" fill="#C6921E"></path>
                <path d="M135.439072,8.78235567 C135.093731,8.77557854 134.782208,8.80263626 134.521138,8.85515908 C132.246941,9.39309442 131.859232,13.3707662 131.724465,15.0184579 C131.901347,15.0142222 132.077505,15.0184579 132.245964,15.0184579 C132.245964,15.0184579 132.457119,10.2027083 138.5385,11.5140845 L153.884279,14.7471182 L153.943492,14.7421201 L153.616109,14.2755311 C151.308219,13.8680556 142.454853,10.6847492 140.104849,9.85446503 C137.982265,9.11067413 136.500583,8.80180606 135.439291,8.78232179 L135.439072,8.78235567 Z M92.7422778,17.0569024 C91.9336743,17.0179339 91.0413466,17.1243688 90.4770087,17.6343485 C89.5589068,18.4899622 89.862849,20.3764633 90.5872315,21.8733636 C90.9409955,22.5773389 92.8192299,26.2501241 97.0475526,29.4430033 C101.284298,32.6248696 107.422947,35.1114016 118.094829,37.2707672 C118.094829,37.2707672 114.752348,33.3102924 114.524929,32.9671998 C112.663456,32.5563358 105.031418,30.7044829 99.337501,27.2489896 C95.6229785,25.268371 91.5136721,21.5143447 91.8505903,18.6869227 C91.8590132,18.5751 92.1445345,17.2858341 94.5535161,17.3434398 C94.2924045,17.2782099 93.5592706,17.0953203 92.7422441,17.0571989 L92.7422778,17.0569024 Z M124.792458,28.7279814 C124.792458,28.7279814 124.825729,30.0099617 126.426006,32.071906 C126.417583,32.071906 126.401327,32.063604 126.401327,32.063604 C126.401327,32.063604 126.687766,32.4206999 127.100491,32.9272655 C127.100491,32.7358114 127.100693,32.5428917 127.092068,32.3531233 C127.285796,32.4251304 127.478606,32.5008057 127.621796,32.5533285 L127.621796,32.5550228 C127.621796,32.5550228 127.621594,32.5591738 127.630219,32.5600209 C127.731294,32.5956009 127.80769,32.6260472 127.816113,32.6328243 C130.654649,33.4816609 133.754885,33.9020128 136.635788,34.7771108 C141.900134,36.3375468 148.183657,34.3891027 153.195315,36.4366625 C157.945861,38.4630268 163.041748,40.4261943 168.213441,41.823979 C168.659858,41.8790432 169.105937,41.8992984 169.560777,41.9331841 C167.143389,40.8573134 161.650949,38.3464685 158.500596,36.3539899 C158.500596,36.3539899 152.20865,32.6521476 144.181575,32.2158694 C144.181575,32.2158694 133.240159,31.9954599 124.791936,28.7280152 L124.792458,28.7279814 Z M147.89662,37.794945 C147.89662,37.794945 147.779356,37.9935575 147.728818,38.2731144 C147.67828,38.5425057 147.408939,40.5838644 148.562884,44.0029305 C147.501592,43.8724706 145.959518,43.4491282 144.94034,43.0052511 C142.57349,42.1682745 140.568153,40.9666032 138.369763,39.9856125 C136.752556,39.5688185 133.644991,38.5825755 133.644991,38.5825755 C133.644991,38.5825755 133.509954,38.4311742 133.164613,38.6785398 C134.849204,41.0191938 136.963955,43.2207471 139.036001,45.4639799 C144.755187,47.7173783 150.827294,48.9952924 157.169778,49.2596008 C164.800974,50.142323 172.618317,50.0549487 180.030516,52.3354896 C177.992162,53.2148233 177.081556,53.6238235 175.29589,55.0588825 C166.005372,55.1579982 155.376447,55.3331448 146.052237,56.832629 C142.632518,57.3409144 139.380669,58.3337651 139.338554,58.4210207 C152.933201,58.619252 166.822651,59.9741714 180.046688,61.9701232 C180.046688,61.9701232 186.53211,63.2493928 189.463551,64.084675 L189.328648,64.3841568 C181.503725,63.6759458 173.620682,62.9291052 165.846296,63.100228 C159.941806,63.1646108 153.775362,63.3301085 148.249904,64.2171003 L148.300947,64.3047965 C159.621397,65.1883659 170.87362,66.9827826 181.469696,69.7698806 C184.156618,70.6797114 187.020338,71.3587807 189.614608,72.5363084 C189.496678,72.659144 189.303346,72.8210668 189.177002,72.9549153 C181.419461,70.5608913 172.820468,70.3664721 164.591242,69.9386653 C161.255753,69.9683152 157.995649,69.6872758 154.711118,70.2828168 C154.711118,70.2828168 174.067908,73.9094328 182.111828,78.2595083 C182.036022,78.3721783 181.959558,78.4665245 181.858483,78.5639459 C178.65776,77.5846494 175.844999,77.141001 172.223466,76.3633244 C163.269866,74.3894829 151.038896,74.7171576 145.17652,82.5464463 C143.416123,84.9506361 140.309063,90.1951244 140.923939,98.8954448 C140.923939,98.8954448 133.124116,94.5410489 128.997037,86.2645537 C128.997037,86.2645537 128.9975,93.4478118 130.732671,97.3697416 C130.732671,97.3697416 128.129473,95.6329306 126.613341,92.3629614 C126.613341,92.3629614 129.662197,108.619621 131.186752,112.762147 C131.186752,112.762147 116.143357,104.519114 106.212695,79.2822378 C106.212695,79.2822378 105.345299,81.252013 105.9939,86.2645537 C105.9939,86.2645537 95.6008177,79.151439 91.7094132,72.5179762 C93.4108498,75.4931399 103.922696,93.6592585 110.677905,99.8518684 C110.677905,99.8518684 82.3531963,93.0234783 71.0748615,85.8223455 C71.0748615,85.8223455 72.3688799,88.2211135 75.6251937,91.2708256 C75.6251937,91.2708256 61.0888605,89.3134187 54.3673435,87.1277917 C54.3673435,87.1277917 72.3848835,96.0490468 90.1682653,101.504643 C90.1682653,101.504643 82.1381583,103.918067 74.325532,105.002409 C74.325532,105.002409 84.3025205,110.018338 96.8880977,113.508564 C96.8880977,113.508564 91.9022988,116.990065 81.7040393,118.955435 C81.7040393,118.955435 83.4338613,120.251647 88.2055487,121.564718 L85.7708097,122.640165 C85.7539638,122.631693 85.6191966,122.70836 85.3496621,122.835406 C83.3972214,123.665605 80.7882116,124.698187 78.6639427,125.274243 L74.8259397,126.544957 C74.9236459,126.570371 75.0324958,126.595447 75.1335712,126.629332 C79.6289015,127.874631 88.533648,129.722757 96.7881425,130.807099 L96.8045673,130.807099 C105.471786,127.06273 117.332147,122.681649 127.161734,121.613911 L129.805447,121.385581 C124.85275,118.539183 120.583155,117.548619 116.641213,116.489692 C115.832609,116.260963 115.520286,116.235879 114.635791,115.981737 C115.798159,115.846194 116.060113,115.811715 117.197212,115.794772 C119.934672,115.837129 122.89972,116.260506 125.611911,116.862002 C127.330193,117.38723 129.047718,117.988193 130.698617,118.716735 C133.596113,119.987449 136.282782,121.640308 138.430635,123.902178 C139.517196,125.232191 139.972036,126.086704 140.746948,128.043602 C141.06702,129.144887 141.243573,129.602768 141.46257,130.56851 C141.46257,130.56851 145.71633,130.32377 148.403252,129.823956 C148.184255,131.340341 147.351225,133.636266 146.542622,135.322079 C149.827574,134.652837 153.364035,133.830855 156.278714,132.721098 C156.278714,132.721098 155.175897,135.295818 154.35887,136.769845 C157.744897,135.897289 163.0522,134.195295 167.314215,131.865654 C166.935182,133.50911 165.805664,136.237078 165.805664,136.237078 C171.566964,134.661393 180.284721,129.383104 182.508381,127.366651 C182.626302,128.484879 182.551422,128.966733 182.399809,130.372989 C183.536908,129.432661 183.123256,129.798119 183.771824,129.264419 C186.374517,127.087263 188.32881,124.190206 190.013401,121.208266 C190.948349,119.175124 191.781632,117.378505 192.143819,115.44702 C190.855107,115.336883 189.98072,115.294196 187.655985,115.107825 C189.829107,112.286841 190.923585,108.763068 190.275018,105.916331 C187.908168,108.567886 182.753236,112.422807 179.257795,113.803649 C178.289155,114.091678 175.813228,114.650393 173.977024,114.243765 C173.496907,114.125165 172.915816,114.031386 172.570475,113.63323 C173.572806,112.642073 174.447277,111.481319 175.230612,110.320734 C176.645668,108.228293 177.716647,105.476436 176.512164,102.994309 C175.855174,103.663551 175.761536,103.891687 175.289825,104.289843 C171.086772,108.449312 165.747461,113.608408 159.04279,111.914124 C156.136871,110.431625 152.194171,108.085464 148.757522,110.415106 L148.211344,109.745008 C147.369048,107.847409 146.634819,105.661951 146.306324,103.527153 L146.737344,103.298823 C150.611902,101.714667 154.545169,102.467962 157.207075,103.46759 C160.719447,104.450275 162.404122,109.881474 166.750281,108.509103 C169.150823,107.687375 171.314174,105.959036 172.771345,104.069908 C170.90145,102.917795 170.413592,100.01108 170.497822,98.3930386 C170.598897,97.0630253 171.053535,95.5555356 171.558946,94.6321506 C173.420418,91.2435815 176.731481,87.3385946 181.279876,87.1352804 C181.507296,90.0409784 180.740807,93.2086127 180.016433,95.9870699 C179.982741,96.3174554 179.561594,96.9780569 179.805859,96.8425142 C182.560165,95.2498867 184.514543,93.3870209 185.971714,91.5826079 C186.603436,90.8201798 186.737672,90.5316432 187.327304,89.5574296 C188.422288,87.5666453 188.489419,86.8724122 188.952682,85.5169846 C191.538528,84.8223279 194.780692,84.7237375 197.332846,85.6361097 C198.090912,86.2545236 198.218267,87.4733071 198.201421,88.2950351 C198.007694,90.2265195 197.325266,91.8788705 196.381895,93.573155 C196.146052,93.9204833 194.975093,95.7339607 194.705559,96.0897605 C197.384058,95.0477755 198.874752,93.8452571 199.834969,92.9642291 C201.848055,91.1598161 204.687096,87.44874 204.308063,83.7049642 C203.381538,83.4330315 202.496622,83.0645501 201.66275,82.6096093 C200.500382,82.1047125 199.75015,81.7312075 198.739396,81.0526465 C196.861077,81.9870444 194.47856,82.5449723 192.372822,82.8330007 C182.551658,84.2087597 174.785695,85.2455771 169.2097,91.3789718 C167.600915,93.166442 166.193271,96.9696024 166.30277,100.366304 C165.393091,99.5106904 164.9225,99.0714471 164.080205,98.4784475 C161.839699,97.06372 159.286786,95.6650034 156.38929,96.0462174 C157.560081,96.9103025 158.596104,98.1467913 158.705603,98.8838051 C157.635888,98.2653912 156.666827,97.9362765 155.352846,97.4195197 C151.924704,96.3605919 147.747761,97.427144 145.069262,99.274253 C145.069262,99.274253 143.695984,92.3956272 147.048319,86.4908762 C150.156389,81.0098658 156.751562,79.3199864 162.824511,79.4241849 C166.850683,79.6198748 170.329615,80.7710564 173.20159,81.6876643 C175.416827,82.4145124 176.915944,82.6745004 178.541574,82.9269488 C184.429219,83.3412013 191.108621,81.9155456 193.770274,80.1687383 C198.268131,77.2062818 201.696189,73.0191964 201.494038,67.3057302 C201.771996,63.5927056 199.665331,60.5202054 196.969986,59.0427893 C195.554929,58.5201025 194.156382,58.0545131 192.631828,57.7935933 C191.014621,54.2254301 189.111286,53.9483299 189.111286,53.9483299 L189.137565,53.2931161 C189.137565,53.2931161 191.393822,53.3046966 192.480467,53.3046966 C193.853409,53.336888 194.763256,53.3716039 195.984584,53.5876252 C193.794616,51.4740052 189.953497,48.6364175 185.186358,48.7745017 L187.140736,47.245664 C187.140736,47.245664 183.924178,45.3169753 178.465936,45.7185207 L180.267353,44.3402202 C180.267353,44.3402202 178.869564,43.0939892 174.776008,42.8627194 C174.607549,42.8440823 174.455279,42.8257925 174.312089,42.8130853 C173.621407,42.7258297 172.838409,42.53424 171.911884,42.4656215 L171.911884,42.4838181 C171.55812,43.1056205 170.935832,43.5984032 170.464147,44.1516718 C170.144075,44.4371587 169.974369,44.4375992 169.393168,44.4511535 C166.83259,44.4841921 162.99265,44.8122055 160.861559,44.5851714 C161.762815,43.4821922 162.023,42.6890129 162.023,42.6890129 L158.847967,41.7939224 C158.847967,41.7939224 156.489372,44.515621 153.381302,44.9773136 C152.555853,44.7909423 152.194761,44.2851475 151.790459,43.5675841 C151.495655,43.0330374 151.259088,42.2489225 151.259088,42.2489225 C151.798157,41.8202685 153.448972,40.9309386 153.718507,40.4768703 L150.500686,40.0599154 C150.298535,38.8620562 150.392114,38.4946506 150.392114,38.4946506 C149.457166,38.2049279 148.875224,38.0430221 147.898161,37.7931067 L147.89662,37.794945 Z M201.551677,44.8003879 C202.402395,45.3603489 203.151027,45.8760044 203.841709,46.3639584 C204.313395,46.7062039 204.894999,47.1259628 205.509875,47.5817254 C208.516869,49.8402066 209.712171,51.2518845 210.242817,52.2972581 C210.579735,52.165951 211.321966,51.923321 211.321966,51.923321 C211.321966,51.923321 211.616702,52.3066698 211.675662,52.7522666 C211.684085,52.831898 209.939355,54.9049398 209.198135,57.4065509 C208.212649,58.0351305 205.138945,59.9042652 203.766004,62.9327988 C202.940546,65.2548157 202.191669,73.3204572 202.469627,76.7234276 C202.528588,78.7684291 203.698452,82.3329495 206.368528,83.371546 C207.893082,82.2846624 208.82862,81.2204823 209.502456,80.2708359 C209.957296,79.6210777 210.386698,79.0781443 210.774154,77.9726236 C210.032934,77.9150179 207.859896,77.8292617 206.630145,77.6632134 C206.529069,77.4836192 206.495706,77.3863842 206.33567,77.0907316 C207.07689,77.0263488 207.489446,76.9518765 208.095899,76.8756337 C209.654145,76.6553767 210.35325,76.4318159 211.46508,75.9192948 C211.903074,75.2941038 212.837011,73.0562081 212.980201,71.2831393 L208.322897,71.2980321 L207.985651,70.5352737 C207.985651,70.5352737 211.802007,69.774379 213.360253,69.271168 C213.604519,67.6006035 214.050085,65.5379815 213.957432,63.7581356 C212.272841,64.2164395 208.339406,64.4332063 208.339406,64.4332063 L208.044931,63.8574122 C208.044931,63.8574122 212.813165,62.0559642 214.186107,60.9470549 C214.085031,59.1595848 213.772725,57.3947333 213.511614,55.4852746 C213.107312,52.6846223 212.348319,50.9029127 211.514447,50.0930447 C208.78541,47.7320592 205.240947,46.236599 201.762351,44.8794771 C201.694968,44.8532157 201.619161,44.8271661 201.551778,44.8000575 L201.551677,44.8003879 Z" id="Shape" fill="#FFFFFF"></path>
                <path d="M10.1897523,66.4801667 C9.99181289,67.9609713 9.88652597,69.4527889 9.88652597,70.9547721 C9.88652597,94.4384027 34.3004569,114.84606 70.2327767,125.274381 C76.3082531,123.724111 82.0872416,121.843455 81.5591224,121.733326 C76.658648,120.589684 68.8151937,118.573486 65.9008517,117.150287 C68.5304978,117.031687 84.1736072,115.405174 88.6832565,113.888789 C83.3009892,112.76209 63.1566535,105.840938 54.893736,101.190127 C58.524029,101.317198 75.033018,102.426954 80.9375084,101.190127 L78.4207299,100.43617 C68.9625953,98.0980573 28.9771502,80.5630596 10.1897523,66.4801667 Z" id="Shape" fill="#2C2A29"></path>
            </g>
        </g>
    </g>
</svg>