<?xml version="1.0" encoding="UTF-8" standalone="no"?>
<svg width="250px" height="250px" viewBox="0 0 250 250" version="1.1" xmlns="http://www.w3.org/2000/svg" xmlns:xlink="http://www.w3.org/1999/xlink">
    <!-- Generator: Sketch 47.1 (45422) - http://www.bohemiancoding.com/sketch -->
    <title>WISC</title>
    <desc>Created with Sketch.</desc>
    <defs></defs>
    <g id="Page-1" stroke="none" stroke-width="1" fill="none" fill-rule="evenodd">
        <g id="WISC" fill-rule="nonzero">
            <g id="Wisconsin_Badgers_logo" transform="translate(0.000000, 6.000000)">
                <g id="Group" transform="translate(124.948020, 118.873762) scale(-1, 1) rotate(-180.000000) translate(-124.948020, -118.873762) translate(0.566832, 0.680693)">
                    <g id="Shape">
                        <path d="M171.913676,226.314975 C167.784189,225.873886 165.321473,225.555863 165.321473,225.555863 L158.928991,164.168178 C158.928991,164.168178 162.711788,164.271674 164.162902,161.561278 C165.594817,158.870065 165.253218,155.392033 164.013057,151.403171 L154.624134,118.092528 L157.410798,105.037763 L171.344431,156.626562 C172.584576,160.577058 172.263351,162.746612 170.825046,165.476191 C169.373948,168.231296 165.391414,168.302769 165.391414,168.302769 L171.913846,226.314836 L171.913676,226.314975 Z M96.5625,212.551207 C92.4009901,211.221566 89.8603032,210.313892 89.8603032,210.313892 L82.8985149,149.305229 C82.8985149,149.305229 85.3824257,149.788506 87.5430074,146.758199 C89.7227723,143.709004 88.7064356,140.698175 87.5430074,135.731126 L78.4936572,98.0547649 L81.3004332,85.1698639 L94.5847772,138.847153 C95.7418162,143.782178 96.5728651,145.628403 94.5847772,149.444616 C92.8460705,152.781559 89.7903775,152.850712 89.7903775,152.850712 L96.5623453,212.550588 L96.5625,212.551207 Z M14.7292698,170.849474 C10.3312191,167.141863 7.73746906,164.6069 7.73746906,164.6069 L0.775680693,100.182395 C0.775680693,100.182395 6.56126238,103.747061 10.9337871,102.359839 C14.1236077,101.343441 15.1596535,99.4172339 16.2974938,95.8374072 L48.3287438,1.17465965 C62.8205446,24.788521 81.203125,34.9818998 103.474165,41.6867265 L104.532921,46.7207611 C82.562005,41.089573 62.9131807,31.4825186 49.9366955,12.4385829 L21.2300124,100.784808 C20.0921411,104.396504 19.0558168,107.451733 15.1371906,108.685489 C11.1738552,109.932024 8.02549505,107.956358 8.02549505,107.956358 L14.7276918,170.86168 L14.7292698,170.849474 Z M121.793007,100.032642 L118.676671,84.2312809 L127.806002,45.4070235 C127.806002,45.4070235 137.453434,47.5935953 155.883045,46.9352104 C171.992265,46.3471071 187.375928,42.1508663 187.375928,42.1508663 L189.153775,47.9740408 C182.908261,49.6425124 171.2763,52.1491646 155.812191,52.9482054 C141.224474,53.7089109 131.939975,52.4489635 131.939975,52.4489635 L121.791925,100.032503 L121.793007,100.032642 Z" fill="#000000"></path>
                        <path d="M210.44245,235.705446 C190.855507,235.475325 172.71349,233.455291 172.71349,233.455291 L171.914434,226.314821 L165.38767,168.308942 C165.38767,168.308942 169.376532,168.232209 170.827645,165.477104 C172.26595,162.741182 172.579192,160.574103 171.339047,156.623453 L157.409746,105.042389 L154.622618,118.083075 L147.833787,149.95034 C146.945235,153.52367 147.028326,159.168317 148.556142,162.505105 C150.403605,166.551516 153.631791,166.711324 153.631791,166.711324 L160.599613,232.438428 C160.599613,232.438428 144.266074,230.885056 126.572695,227.215811 C110.828574,223.949257 97.4034499,220.030631 97.4034499,220.030631 L96.5618657,212.543007 L89.7920637,152.843131 C89.7920637,152.843131 92.8412593,152.772741 94.579966,149.435953 C96.5680538,145.619585 95.737005,143.77862 94.579966,138.843595 L81.3027382,85.1523824 L78.4964264,98.0461015 L71.6563892,129.484839 C70.7934097,133.275526 70.8509437,139.386757 72.2317141,142.397741 C74.6992265,147.767481 77.9657797,148.4194 77.9657797,148.4194 L84.9336015,216.760984 C84.9336015,216.760984 62.0808787,209.000464 43.4267946,198.043472 C27.1009901,188.448329 15.4982673,178.092976 15.4982673,178.092976 L14.7311726,170.843905 L8.0254177,107.935489 C8.0254177,107.935489 11.1768719,109.910736 15.1338645,108.664233 C19.0524907,107.424087 20.0944152,104.368441 21.2322556,100.750248 L49.9389387,12.3993812 C62.9092358,31.4355817 82.5534189,41.037995 104.530523,46.6753713 C106.870251,47.2762686 109.23535,47.8324257 111.626129,48.3501856 L118.677027,84.1933168 L121.783772,100.008601 L131.941414,52.4095916 C131.941414,52.4095916 141.223283,53.6753094 155.810535,52.9209932 C171.274025,52.1219369 182.908308,49.6032333 189.153666,47.9349165 C192.522478,47.0399598 194.337918,46.3943224 194.337918,46.3943224 L228.864527,158.191971 C228.864527,158.191971 230.443425,166.361525 234.528202,169.219044 C237.43043,171.251841 241.201934,170.957751 241.201934,170.957751 L247.73504,234.658246 C247.73504,234.658246 234.962763,235.968704 210.440795,235.674644" stroke="#A00000" stroke-width="0.826425" fill="#A00000"></path>
                    </g>
                </g>
            </g>
        </g>
    </g>
</svg>