<?xml version="1.0" encoding="UTF-8" standalone="no"?>
<svg width="250px" height="250px" viewBox="0 0 250 250" version="1.1" xmlns="http://www.w3.org/2000/svg" xmlns:xlink="http://www.w3.org/1999/xlink">
    <!-- Generator: Sketch 47.1 (45422) - http://www.bohemiancoding.com/sketch -->
    <title>UCIRV</title>
    <desc>Created with Sketch.</desc>
    <defs></defs>
    <g id="Page-1" stroke="none" stroke-width="1" fill="none" fill-rule="evenodd">
        <g id="UCIRV">
            <g id="Group" transform="translate(11.000000, 0.000000)">
                <path d="M76.6778854,61.5763889 C76.6952339,42.2569444 76.7125824,27.7916667 76.7125824,25.9583333 L76.7160521,22.7881944 L90.0466278,22.7881944 L90.0466278,3.17013889 L39.1184157,3.17013889 L39.1184157,22.7881944 L52.4455218,22.7881944 L52.4455218,68.3125 C60.4397036,65.4513889 68.6871733,63.1909722 76.6778854,61.5763889" id="Fill-243" fill="#0C223E"></path>
                <path d="M52.4461946,103.309723 L52.4461946,136.747223 C58.8894218,140.094445 67.03974,143.184723 76.6403915,145.552778 C76.6334521,130.431251 76.6403915,111.712501 76.6542703,93.6013896 C67.0952552,96.3097229 58.9206491,99.7229174 52.4461946,103.309723" id="Fill-246" fill="#0C223E"></path>
                <path d="M161.786429,181.219792 C161.932157,187.928125 162.154217,198.067014 159.440914,203.514931 C156.05796,210.299653 147.258808,221.851736 126.343475,222.980208 C123.935505,223.108681 119.279172,223.178125 119.234066,223.178125 C119.192429,223.178125 114.539566,223.108681 112.128126,222.980208 C91.212793,221.851736 82.4171112,210.299653 79.0341566,203.514931 C76.3173839,198.067014 76.5394445,187.928125 76.6851718,181.219792 C76.7268082,179.490625 76.7580354,178.001042 76.7198688,177.150347 C76.7129294,176.997569 76.7094597,176.667708 76.7025203,176.185069 C68.0733839,174.469792 59.9473536,172.285764 52.4458688,169.688542 L52.4458688,194.556597 C52.4458688,204.806597 54.8607778,219.233681 66.3593536,229.751042 C79.2735657,241.563542 95.0988536,246.827431 117.665763,246.827431 C118.186217,246.827431 118.710141,246.823958 119.234066,246.817014 C119.764929,246.823958 120.288854,246.827431 120.809308,246.827431 C143.372748,246.827431 159.198035,241.563542 172.115717,229.751042 C183.610823,219.233681 186.025732,204.806597 186.025732,194.556597 L186.025732,173.560069 C178.794884,175.254514 170.682732,176.806597 161.734384,178.018403 C161.734384,178.862153 161.758672,179.976736 161.786429,181.219792" id="Fill-248" fill="#0C223E"></path>
                <path d="M161.832553,146.443406 C171.218083,144.908683 179.347583,143.082294 186.02675,141.318406 L186.02675,97.8670167 C179.444735,95.8427111 171.422795,93.8184056 161.818674,92.0822944 C161.832553,111.016322 161.839492,130.745489 161.832553,146.443406" id="Fill-250" fill="#0C223E"></path>
                <path d="M186.027467,66.0857639 L186.027467,22.790625 L199.351104,22.790625 L199.351104,3.16909722 L148.426361,3.16909722 L148.426361,22.790625 L161.753467,22.790625 L161.760407,25.9572917 C161.760407,27.7697917 161.777755,41.9260417 161.795104,60.9121528 C168.203634,61.9434028 175.143028,63.3913194 183.432134,65.4364583 C184.313437,65.6517361 185.173922,65.8704861 186.027467,66.0857639" id="Fill-252" fill="#0C223E"></path>
                <path d="M135.598899,61.7867962 L135.598899,85.439574 C179.906929,89.3180462 202.362808,99.9465184 209.808778,104.231241 L223.580005,82.4256851 C218.205445,79.7729073 205.08999,74.0367962 182.675748,68.5090184 C162.669475,63.5854073 150.504717,62.1617962 135.598899,61.7867962" id="Fill-254" fill="#0C223E"></path>
                <path d="M208.491654,137.191334 C206.624957,138.167029 197.010427,141.941334 182.514033,145.486473 C171.619185,148.149668 155.426109,151.274668 135.60026,152.660084 L135.60026,177.118418 C163.507033,175.948279 185.345306,170.962168 199.37676,166.694807 C211.145972,163.114945 219.29976,159.503834 223.366245,157.531612 L209.952397,136.455223 C209.504806,136.670501 209.008639,136.917029 208.491654,137.191334" id="Fill-256" fill="#0C223E"></path>
                <path d="M102.874811,176.581262 L102.874811,152.848624 C89.9883567,151.886818 77.6952204,149.584735 66.7552658,146.04654 C53.872281,141.883346 43.5429931,136.244457 37.6653264,130.178485 C34.2025688,126.598624 32.4989476,123.081263 32.6030385,119.720151 C32.9777658,107.539596 62.2967052,89.5152903 102.874811,85.4944569 L102.874811,61.7722347 C83.7949476,61.9493181 59.3162355,67.7895958 40.3578113,76.7027903 C17.6243567,87.3937625 4.45338702,101.362513 3.27022035,116.039596 C2.51382641,125.463207 6.00087187,134.490985 13.6342052,142.876401 C30.1603719,161.036124 63.4868113,173.431957 102.874811,176.581262" id="Fill-258" fill="#0C223E"></path>
                <path d="M186.027467,194.555556 C186.027467,204.805556 183.612558,219.236111 172.113982,229.75 C159.196301,241.5625 143.371013,246.826389 120.807573,246.826389 C120.287119,246.826389 119.763195,246.822917 119.235801,246.815972 C118.708407,246.822917 118.184482,246.826389 117.664028,246.826389 C95.1005885,246.826389 79.2753006,241.5625 66.3576188,229.75 C54.859043,219.236111 52.4476036,204.805556 52.4476036,194.555556 L52.4476036,169.6875 C59.9456188,172.288194 68.0716491,174.472222 76.7042551,176.184028 C76.7077248,176.666667 76.7111945,176.996528 76.7216036,177.149306 C76.7563006,178 76.7250733,179.493056 76.6834369,181.21875 C76.5411794,187.927083 76.3191188,198.065972 79.0324218,203.517361 C82.4153763,210.298611 91.2145278,221.850694 112.129861,222.979167 C114.537831,223.111111 119.194164,223.177083 119.235801,223.177083 C119.277437,223.177083 123.93377,223.111111 126.34521,222.979167 C147.260543,221.850694 156.056225,210.298611 159.439179,203.517361 C162.152482,198.065972 161.933891,187.927083 161.788164,181.21875 C161.760407,179.975694 161.732649,178.861111 161.736119,178.017361 C170.684467,176.805556 178.796619,175.253472 186.027467,173.559028 L186.027467,194.555556 Z M39.1204975,22.7881944 L39.1204975,3.17013889 L90.0487097,3.17013889 L90.0487097,22.7881944 L76.7181339,22.7881944 L76.7111945,25.9583333 C76.7111945,27.7916667 76.693846,42.2569444 76.6764975,61.5763889 C68.6857854,63.1909722 60.4383157,65.4513889 52.4476036,68.3125 L52.4476036,22.7881944 L39.1204975,22.7881944 Z M147.100937,213.170139 C142.330104,216.559028 135.61277,219.302083 126.171725,219.815972 C123.794982,219.940972 119.280907,220.003472 119.235801,220.003472 C119.194164,220.003472 114.676619,219.940972 112.303346,219.815972 C102.862301,219.302083 96.1414975,216.559028 91.3706642,213.170139 L147.100937,213.170139 Z M94.4170582,54.1875 L94.4170582,34.2361111 L144.058013,34.2361111 L144.058013,54.1875 L132.431058,54.1875 L132.431058,190.041667 L144.058013,190.041667 L144.058013,210 L94.4170582,210 L94.4170582,190.041667 L106.040543,190.041667 L106.040543,54.1875 L94.4170582,54.1875 Z M161.760407,25.9583333 L161.753467,22.7881944 L148.426361,22.7881944 L148.426361,3.17013889 L199.351104,3.17013889 L199.351104,22.7881944 L186.027467,22.7881944 L186.027467,66.0868056 C185.173922,65.8715278 184.313437,65.6527778 183.432134,65.4340278 C175.143028,63.3888889 168.203634,61.9444444 161.795104,60.9131944 C161.777755,41.9270833 161.760407,27.7708333 161.760407,25.9583333 L161.760407,25.9583333 Z M186.027467,141.319444 C179.348301,143.083333 171.218801,144.90625 161.83327,146.444444 C161.84021,130.746528 161.83327,111.017361 161.819391,92.0798611 C171.423513,93.8159722 179.445452,95.8402778 186.027467,97.8680556 L186.027467,141.319444 Z M135.598891,88.6180556 C144.08577,89.3680556 151.746861,90.3715278 158.648088,91.53125 C158.661967,110.961806 158.672376,131.090278 158.661967,146.944444 C151.608073,148.013889 143.891467,148.909722 135.598891,149.486111 L135.598891,88.6180556 Z M182.67574,68.5104167 C205.089982,74.0381944 218.205437,79.7708333 223.579998,82.4236111 L209.80877,104.232639 C202.362801,99.9479167 179.906922,89.3159722 135.598891,85.4409722 L135.598891,61.7881944 C150.50471,62.1597222 162.669467,63.5868056 182.67574,68.5104167 L182.67574,68.5104167 Z M79.8096339,146.302083 C79.8026945,130.881944 79.8131036,111.538194 79.8235127,92.75 C86.8635278,90.9305556 94.5870733,89.5069444 102.876179,88.6770833 L102.876179,149.670139 C94.5419672,149.045139 86.8218915,147.864583 79.8096339,146.302083 L79.8096339,146.302083 Z M49.2763006,134.996528 C40.4424521,129.819444 35.6299824,124.232639 35.7687703,119.819444 C35.8902097,115.871528 40.7304369,110.430556 49.2763006,105.15625 L49.2763006,134.996528 Z M76.6383309,145.555556 C67.0411491,143.1875 58.8873612,140.097222 52.4476036,136.746528 L52.4476036,103.309028 C58.9220582,99.7222222 67.0966642,96.3090278 76.6522097,93.6006944 C76.6418006,111.711806 76.6313915,130.430556 76.6383309,145.555556 L76.6383309,145.555556 Z M3.27158845,116.038194 C4.45475512,101.364583 17.6222551,87.3958333 40.3557097,76.7013889 C59.3176036,67.7881944 83.7963157,61.9479167 102.876179,61.7708333 L102.876179,85.4965278 C62.2980733,89.5138889 32.9756642,107.538194 32.6009369,119.722222 C32.496846,123.079861 34.2004672,126.600694 37.6666945,130.177083 C43.5408915,136.243056 53.8701794,141.881944 66.7531642,146.045139 C77.6931188,149.586806 89.9862551,151.885417 102.876179,152.847222 L102.876179,176.579861 C63.4881794,173.434028 30.16174,161.034722 13.6321036,142.878472 C5.99877027,134.489583 2.51172482,125.465278 3.27158845,116.038194 L3.27158845,116.038194 Z M79.8859672,177.010417 C79.8824975,176.961806 79.8824975,176.878472 79.8824975,176.795139 C87.2243763,178.131944 94.9132248,179.131944 102.876179,179.756944 L102.876179,186.868056 L91.2492248,186.868056 L91.2492248,213.079861 C86.26674,209.506944 83.4354672,205.229167 81.8706339,202.100694 C78.8103612,195.954861 80.0733309,181.21875 79.8859672,177.010417 L79.8859672,177.010417 Z M156.604437,202.100694 C155.043073,205.229167 152.204861,209.506944 147.225846,213.079861 L147.225846,186.871528 L135.598891,186.871528 L135.598891,180.295139 C143.74921,179.961806 151.410301,179.305556 158.568285,178.427083 C158.596043,183.861111 159.383664,196.520833 156.604437,202.100694 L156.604437,202.100694 Z M199.378861,166.694444 C185.343937,170.961806 163.505664,175.947917 135.598891,177.118056 L135.598891,152.659722 C155.42474,151.274306 171.617816,148.149306 182.516134,145.486111 C197.012528,141.940972 206.627058,138.166667 208.490285,137.190972 C209.01074,136.916667 209.506907,136.670139 209.954498,136.454861 L223.364876,157.53125 C219.298391,159.503472 211.148073,163.114583 199.378861,166.694444 L199.378861,166.694444 Z M207.019134,134.378472 C206.054558,134.885417 199.784816,137.496528 189.195301,140.458333 L189.195301,98.8784722 C204.333588,103.881944 210.804573,108.590278 210.804573,108.590278 L228.090604,81.2256944 C228.090604,81.2256944 216.404664,74.1493056 189.195301,66.90625 L189.195301,25.9618056 L202.522407,25.9618056 L202.522407,0 L145.255058,0 L145.255058,25.9618056 L158.589104,25.9618056 C158.596043,31.84375 158.609922,44.6493056 158.62727,60.4270833 C150.855149,59.3194444 143.697164,58.8229167 135.598891,58.6180556 L135.598891,57.3576389 L147.225846,57.3576389 L147.225846,31.0625 L91.2492248,31.0625 L91.2492248,57.3576389 L102.876179,57.3576389 L102.876179,58.59375 C95.9402551,58.6597222 88.0709824,59.4652778 79.8478006,60.9652778 C79.8616794,44.9340278 79.8755582,31.9131944 79.8824975,25.9618056 L93.216543,25.9618056 L93.216543,0 L35.9526642,0 L35.9526642,25.9618056 L49.2763006,25.9618056 L49.2763006,69.4861111 C23.8573006,79.1736111 1.78308845,95.0347222 0.110694514,115.784722 C-1.65885094,137.8125 17.9206491,156.909722 49.2763006,168.548611 L49.2763006,194.555556 C49.2763006,206.663194 52.5169975,221.395833 64.2202854,232.09375 C75.663346,242.552083 91.2388157,250 117.664028,250 C118.184482,250 118.708407,249.993056 119.235801,249.986111 C119.763195,249.993056 120.287119,250 120.804104,250 C147.236255,250 162.811725,242.552083 174.251316,232.09375 C185.954604,221.395833 189.195301,206.663194 189.195301,194.555556 L189.195301,172.788194 C214.298558,166.534722 227.90671,158.763889 227.90671,158.763889 L211.161952,132.444444 C211.161952,132.444444 209.361179,133.152778 207.019134,134.378472 L207.019134,134.378472 Z" id="Fill-260" fill="#FFC52F"></path>
                <polygon id="Fill-262" fill="#0C223E" points="106.042255 190.040256 94.4187698 190.040256 94.4187698 209.99859 144.056255 209.99859 144.056255 190.043728 132.4293 190.043728 132.4293 54.1860896 144.056255 54.1860896 144.056255 34.2347007 94.4187698 34.2347007 94.4187698 54.1860896 106.042255 54.1860896"></polygon>
                <polygon id="Fill-264" fill="#0C223E" points="195.497311 231.721528 193.422432 226.665972 191.632069 226.652083 191.632069 233.846528 192.728493 233.846528 192.728493 227.738889 192.756251 227.738889 195.146872 233.846528 195.819993 233.846528 198.266129 227.738889 198.304296 227.738889 198.304296 233.846528 199.397251 233.846528 199.397251 226.665972 197.610357 226.665972"></polygon>
                <polygon id="Fill-266" fill="#0C223E" points="184.52717 227.738194 186.876155 227.738194 186.876155 233.845833 187.972579 233.845833 187.972579 227.738194 190.318095 227.738194 190.318095 226.651389 184.52717 226.651389"></polygon>
            </g>
        </g>
    </g>
</svg>