<?xml version="1.0" encoding="UTF-8" standalone="no"?>
<svg width="250px" height="250px" viewBox="0 0 250 250" version="1.1" xmlns="http://www.w3.org/2000/svg" xmlns:xlink="http://www.w3.org/1999/xlink">
    <!-- Generator: Sketch 47.1 (45422) - http://www.bohemiancoding.com/sketch -->
    <title>BOISE</title>
    <desc>Created with Sketch.</desc>
    <defs></defs>
    <g id="Page-1" stroke="none" stroke-width="1" fill="none" fill-rule="evenodd">
        <g id="BOISE" fill-rule="nonzero">
            <g id="Boise_State_Broncos_logo" transform="translate(0.000000, 21.000000)">
                <path d="M113.594298,2.1189693 L122.351316,11.8012061 L122.409145,11.8654539 C82.5714254,10.1384803 57.8521272,21.0176469 56.746864,21.5154539 L46.190943,26.2825592 L57.4600219,28.929489 C62.1639693,30.0355855 66.4777851,31.4987873 69.9113377,32.8229101 C26.5780044,53.8064627 7.12186404,80.8952785 6.26660088,82.1123838 L1.89817982,88.3130417 L20.8962061,88.3130417 C14.8560746,97.836068 11.0733991,107.889357 9.70453947,118.330586 C7.1264693,137.828831 13.4049781,157.900761 26.9163816,173.396375 C45.4606798,194.675322 75.0172588,206.870059 108.015066,206.870059 C162.047961,206.870059 193.598399,178.155147 193.876908,177.874445 L198.130197,173.370936 L184.927127,169.021156 C149.953443,157.487603 136.475373,135.646156 131.736338,124.593524 C139.848838,125.193853 147.106952,124.283086 150.001689,123.822537 C158.813092,128.037011 171.221864,136.145564 176.337215,139.75609 C179.577346,145.603239 185.010241,155.368371 206.791162,153.106748 C223.094452,151.429116 228.769232,146.079774 230.742917,142.724511 C238.674496,139.842055 244.279759,131.294029 244.279759,127.363107 C244.324934,126.302252 245.467566,121.423853 246.528443,117.45609 C249.122961,111.275827 249.270548,105.554336 246.926754,100.443371 C243.230044,92.3841601 234.504386,88.8486338 232.316886,88.0756075 C230.347325,86.7186996 221.75307,78.3418355 213.903289,70.3690285 C214.935351,58.6545548 207.648684,50.7538969 202.274342,47.303239 C196.217325,9.90192325 154.471711,9.38657237 154.033114,9.38657237 L144.858553,9.38016886 L146.869518,11.5003443 C134.916447,7.58587061 126.367325,5.38499342 126.239693,5.35209868 L113.598246,2.12666009 L113.594298,2.1189693 Z" id="Shape" fill="#FFFFFF"></path>
                <path d="M125.269737,9.15416667 L131.848684,16.439693 C86.7960526,12.2785088 58.3684211,25.0942982 58.3684211,25.0942982 C70.1535088,27.8662281 79.5175439,32.7258772 79.5175439,32.7258772 C30.9846491,53.872807 9.48245614,84.3881579 9.48245614,84.3881579 L28.3969298,84.3881579 C20.2554825,95.0585526 15.177193,106.778509 13.5942982,118.85307 C11.1971491,137.052193 16.9864035,156.028509 29.8811404,170.817982 C47.3934211,190.925 75.8942982,202.953947 108.019298,202.953947 C160.637719,202.953947 191.025877,175.179825 191.025877,175.179825 L183.703509,172.752193 C137.725439,157.591009 127.203509,124.682018 125.874561,119.89693 C137.967325,122.1625 150.578509,119.742719 150.578509,119.742719 C164.094298,125.968158 179.335088,137.063772 179.335088,137.063772 C182.460088,142.622982 186.272368,151.291404 206.383333,149.206535 C226.482018,147.125943 227.880702,139.49864 227.880702,139.49864 C235.495833,137.767544 240.364035,129.446886 240.364035,127.362237 C240.364035,125.285746 242.786184,116.273202 242.786184,116.273202 C250.755044,97.8975439 230.649781,91.6591667 230.649781,91.6591667 C228.227851,90.6229825 209.788596,71.7874561 209.788596,71.7874561 C212.325658,56.557193 198.699561,49.7567544 198.699561,49.7567544 C194.186404,13.3532456 154.032895,13.3137719 154.032895,13.3137719 L160.971711,20.5865789 C141.563816,13.3137719 125.269956,9.15171053 125.269956,9.15171053 L125.269737,9.15416667 Z" id="Shape" stroke="#FA4616" stroke-width="0.5625" fill="#FA4616"></path>
                <path d="M139.594298,18.0973684 C141.165022,19.8202193 142.729605,23.0315789 142.729605,23.0315789 C107.93136,14.6473684 73.7471491,25.0875 73.7471491,25.0875 C76.8309211,25.8851974 81.6280702,28.160307 85.4274123,30.1052632 L103.969079,31.42875 C95.0217105,32.4731579 86.3997807,34.9094518 78.2826754,38.1620833 C54.7958333,48.3305044 36.9625,62.826557 27.3484649,71.7717325 C22.216886,76.574364 19.3239035,79.8026535 19.3239035,79.8026535 L29.7442982,79.6283114 C57.2969298,48.67875 97.6719298,41.799364 97.6719298,41.799364 C97.6719298,41.799364 61.5710526,53.7802851 37.6061404,79.5011184 L37.818136,79.4945395 C31.609364,85.9748026 26.6084868,93.0217325 23.0477412,100.554627 C22.5419956,101.623706 21.8571272,103.203092 21.8077851,103.343004 C19.6614035,108.474583 18.1794956,113.807917 17.451864,119.334232 C11.8887061,161.571075 52.451864,198.509671 108.048355,199.051338 C120.73739,199.174693 133.335636,197.346469 145.054934,194.053092 C96.4759868,164.118882 101.572478,125.250461 101.572478,125.250461 C101.572478,125.250461 103.194846,130.62875 107.129934,138.099803 C114.597039,151.747171 131.022478,174.527434 164.452303,186.922171 C166.722039,185.909013 174.208882,182.346513 182.488487,176.464934 C130.047697,158.040592 122.400768,122.767566 122.400768,122.767566 C103.971382,122.821031 97.0805921,113.496075 95.9621711,111.941908 C95.8717105,111.802105 95.8080044,111.717039 95.8080044,111.717039 C86.1080044,121.856952 85.0593202,134.583268 85.0593202,134.583268 C83.500943,118.324934 87.8198465,107.530636 91.3685307,101.618355 C88.7862939,92.6505921 92.7305702,83.6098026 92.7305702,83.6098026 C92.7305702,83.6098026 92.0942544,88.4225219 95.1204825,95.2773465 C95.3014035,95.6967544 95.5188158,96.1125658 95.5188158,96.1125658 C107.118158,120.671776 151.663553,115.123531 151.663553,115.123531 C163.258947,120.284057 183.222763,134.044583 183.222763,134.044583 C185.340351,143.563662 196.515526,145.435811 196.515526,145.435811 C196.515526,145.435811 222.138333,145.18011 224.425614,135.80511 C233.418377,134.090461 235.84886,126.122873 235.84886,126.122873 C236.091447,123.754452 239.498202,110.844803 239.498202,110.844803 C242.405219,99.8704605 228.376711,95.5347149 228.376711,95.5347149 C228.376711,95.5347149 212.152368,80.5211184 204.038991,72.6312061 C204.038991,72.6312061 210.174518,61.4266009 193.977807,51.8662939 C193.977807,44.1360307 191.108947,29.2500658 166.512895,20.7698026 C166.512895,20.7698026 162.274737,19.4530044 166.127412,21.4636842 C175.202412,26.2005263 188.778728,35.3935088 187.05943,53.7158772 C187.05943,53.7158772 205.654825,62.5053509 192.192763,68.5825439 C208.998026,82.7312281 223.852851,100.069386 223.852851,100.069386 C236.767982,103.042193 233.965351,108.839123 233.965351,108.839123 C234.101096,110.960833 232.75443,115.572675 232.577588,119.491316 C232.413114,123.401842 227.404342,130.400088 228.555658,124.483421 C229.71932,118.562368 228.228004,116.992193 228.228004,116.992193 C228.228004,116.992193 228.926754,120.362807 224.983487,125.190219 C221.044452,130.034079 222.914715,124.759759 222.914715,124.759759 C229.851557,104.496601 212.584452,103.168969 208.95375,103.082785 C205.310768,103.000548 203.775461,99.5492325 203.775461,99.5492325 C195.531382,87.489364 176.200899,74.8650219 176.200899,74.8650219 C181.764057,73.9686404 183.550899,69.5130482 183.550899,69.5130482 C178.394759,71.6841009 170.633794,72.1099781 164.026338,64.276864 C157.385548,56.4354167 146.679627,54.4983553 146.679627,54.4983553 C155.783136,39.9713816 136.643224,33.9621711 125.927654,33.4895833 C115.203969,33.0167325 112.358575,26.7373904 112.358575,26.7373904 C119.784452,31.7128289 124.701557,30.0952851 143.185329,32.8667763 C161.672171,35.6216009 154.653311,51.6463816 154.653311,51.6463816 C164.126996,52.7072368 171.216469,58.4823465 171.216469,58.4823465 C171.216469,58.4823465 179.909452,66.691557 181.611864,58.8421491 C185.748268,39.7386404 168.408794,29.5395175 168.408794,29.5395175 C159.000899,24.1191228 139.606162,18.1066228 139.606162,18.1066228 L139.594298,18.0973684 Z" id="Shape" fill="#0033A0"></path>
                <path d="M123.156195,36.6070901 C126.980718,38.5895264 132.072772,41.2737101 133.47846,45.33288 C133.289865,45.5258605 133.131972,45.8021736 132.818379,45.7341918 C131.364446,44.5587649 129.761392,43.4074607 127.704395,43.0324644 C130.208756,44.887709 131.63418,48.1289047 132.053036,51.499485 C134.590291,50.7560714 138.480603,49.3701203 140.631897,51.0894014 L142.327056,52.4293003 C143.434501,48.8284591 142.191092,45.6048071 140.044184,43.109218 C135.677999,39.4118866 129.132012,37.6860266 123.156195,36.6070901 L123.156195,36.6070901 Z M166.346552,83.9750374 C168.403549,87.3960559 168.1075,91.8543446 166.035152,96.1306176 C163.954032,99.8389139 160.61196,103.676595 156.77428,105.612979 C161.379497,104.672199 165.109723,102.292837 168.493461,99.3126034 L169.90792,97.4792884 C175.798212,98.9551508 185.53715,106.077887 190.927447,108.709439 L194.868197,111.691866 C189.769564,105.963853 178.135908,98.1371765 170.960541,94.2030053 C171.050453,90.0100648 169.45617,86.3017686 166.346552,83.9750374 Z M78.2224335,93.3543296 C78.2224335,93.3543296 53.9551323,130.386854 69.586555,177.557435 C69.586555,177.557435 82.7026519,184.425787 98.6652115,185.188938 C60.474804,146.498535 78.2224335,93.3543296 78.2224335,93.3543296 Z M211.817589,111.126082 C210.775933,111.417745 209.446998,111.709409 209.197001,112.78396 C208.863671,115.501038 210.302253,117.540491 211.688204,119.465911 C211.001807,118.119433 210.172868,116.358486 211.201367,114.573416 C211.738642,113.676495 213.177224,113.479128 214.065373,113.634829 C216.405262,114.220349 218.089456,115.900157 219.155235,117.503211 C218.431558,114.801484 215.826321,111.619498 211.817589,111.126082 Z M180.653427,123.803587 C180.653427,123.803587 193.019531,128.968009 198.885701,136.220129 C211.911886,138.316599 220.677149,134.268394 220.677149,134.268394 C213.221084,134.987685 203.769424,133.226738 203.769424,133.226738 C195.973449,126.446104 189.776143,124.000953 189.776143,124.000953 L180.653427,123.803587 Z" id="Shape" stroke="#FA4616" stroke-width="0.562494375" fill="#FA4616"></path>
                <path d="M154.815789,65.7697368 C152.743421,69.5072368 153.928158,73.7802632 156.267807,76.2677632 C160.264518,79.0144737 165.600702,78.3704605 170.839298,75.7923246 C164.975702,73.5719298 158.512544,70.5063596 154.816053,65.7695175 L154.815789,65.7697368 Z" id="Shape" fill="#FFFFFF"></path>
            </g>
        </g>
    </g>
</svg>