<svg width="500" height="485" viewBox="0 0 500 485" fill="none" xmlns="http://www.w3.org/2000/svg">
<g clip-path="url(#clip0_201_2)">
<path d="M296.97 466.565H309.192V468.384H304.091V481.616H302.071V468.384H296.97V466.565Z" fill="#124734"/>
<path d="M323.535 481.617V472.728C323.535 472.273 323.586 470.354 323.586 468.94H323.535L319.293 481.566H317.273L313.03 468.94H312.98C312.98 470.303 313.03 472.223 313.03 472.677V481.566H311.061V466.516H313.99L318.283 479.243H318.333L322.626 466.516H325.505V481.566H323.535V481.617Z" fill="#124734"/>
<path d="M484.141 134.545C466.414 111.566 435.101 108.939 413.03 108.939C413.03 108.939 375.202 108.939 333.838 108.939C336.818 96.1616 341.566 75.9596 342.626 70.6061C345.96 53.5859 342.222 37.3737 331.97 24.9495C318.232 8.23232 295.253 0.10101 261.768 0.10101L152.828 0C94.596 0 61.3637 24.899 45 80.6566L44.899 81.0101C44.8485 81.2626 44.798 81.4647 4.14145 238.485C-3.23229 266.061 -0.757538 287.576 11.7677 303.939C29.1414 326.566 58.7374 329.192 79.495 329.192L159.646 329.293C148.788 364.293 134.748 409.646 133.586 413.384C130.303 418.232 85.9596 483.99 85.9596 483.99L277.475 484.04C277.475 484.04 296.212 423.636 302.727 402.727C320.859 402.778 348.384 402.879 348.384 402.879C409.394 402.879 441.162 379.495 457.98 322.121L458.131 321.616L490.96 199.747C494.343 187.071 502.02 157.778 484.141 134.545Z" fill="#124734"/>
<path d="M220.404 143.889C220.404 143.889 227.172 162.222 228.737 166.515C227.626 170.303 218.889 199.849 218.889 199.849H341.97C350.152 199.849 351.667 201.313 351.667 201.364C351.869 201.717 352.02 202.323 352.02 203.333C352.02 205.909 351.111 211.212 347.929 221.667C347.929 221.667 326.111 296.717 326.061 296.919C325.808 297.576 324.95 299.849 324.95 299.849C320.859 310.505 320.404 311.616 310.404 311.616H189.495C189.495 311.616 155.505 421.212 154.798 423.586C153.485 425.556 129.646 460.859 129.646 460.859L260.404 460.909C260.404 460.909 282.374 390.051 285.657 379.546C296.263 379.546 348.485 379.697 348.485 379.697C398.99 379.697 421.869 362.929 435.758 315.606C435.808 315.404 468.586 193.738 468.586 193.738C472.778 177.677 475.354 161.212 465.758 148.788C457.02 137.475 440.303 132.222 413.03 132.222L228.535 132.172H216.061L220.404 143.889Z" fill="#AA955D"/>
<path d="M67.2727 87.2221C67.2222 87.4746 26.6161 244.343 26.6161 244.343V244.293C21.0606 265 22.2222 279.444 30.202 289.899C38.7878 301.06 53.9899 306.06 79.5454 306.06L189.343 306.161C237.727 306.161 263.333 288.737 275.354 247.879L286.414 210.454H168.485L167.323 217.879C167.273 218.081 164.091 237.879 150.96 237.879C147.778 237.879 146.818 237.222 146.818 237.222C146.566 236.566 146.768 234.091 147.576 230.05C148.586 225.101 164.545 160.959 177.879 107.576L178.131 106.616C181.263 93.6362 189.848 90.5554 194.848 91.717C196.212 92.0201 196.97 92.7776 197.273 93.2322C196.465 96.717 190.909 121.01 190.909 121.01L201.818 121.06L307.121 121.161L308.737 114.444C309.141 112.778 318.485 73.4342 319.899 66.2625C321.919 56.0605 319.899 46.9191 314.091 39.8484C305.05 28.8383 287.929 23.4848 261.818 23.4848C261.768 23.4848 152.828 23.3838 152.828 23.3838C104.747 23.2322 80.7575 41.1615 67.2727 87.2221Z" fill="#AA955D"/>
<path d="M237.778 166.666L237.929 166.212L228.586 140.858C228.586 140.858 413.03 140.909 413.081 140.909C467.121 140.909 467.828 162.475 460.202 191.464C460.202 191.515 427.424 313.182 427.424 313.182C414.747 356.313 395.505 371.01 348.485 371.01L279.242 370.808L254.04 452.172L146.01 452.121L162.727 427.374L195.909 320.303H310.404C327.828 320.303 328.99 313.182 334.343 299.697C334.343 299.697 349.899 245.353 356.313 224.192C363.485 200.454 363.838 191.111 342.02 191.111C320.202 191.111 230.606 191.111 230.606 191.111L237.778 166.666Z" fill="#F8DF8D"/>
<path d="M35.0505 246.515C35.0505 246.464 75.606 89.6462 75.606 89.6462C88.1313 47.02 108.333 31.9189 152.778 31.9189L261.768 32.02C301.111 32.02 315.101 45.1008 311.313 64.4441C309.899 71.5149 300.252 112.272 300.252 112.272L201.818 112.171C201.818 112.171 205.303 97.2724 206.01 93.9391C206.919 89.5957 202.778 84.3936 196.818 83.03C187.525 80.9088 174.04 86.2623 169.646 104.596C169.646 104.596 140.606 220.909 139.091 228.131C137.626 235.353 135.707 246.414 151.01 246.414C171.97 246.414 175.96 219.04 175.96 219.04H274.747L266.97 245.303C256.162 282.272 233.737 297.373 189.293 297.373L79.4949 297.272C40 297.272 24.7475 284.848 35.0505 246.515Z" fill="#F8DF8D"/>
</g>
<defs>
<clipPath id="clip0_201_2">
<rect width="500" height="484.848" fill="white"/>
</clipPath>
</defs>
</svg>
