<?xml version="1.0" encoding="UTF-8" standalone="no"?>
<svg width="250px" height="250px" viewBox="0 0 250 250" version="1.1" xmlns="http://www.w3.org/2000/svg" xmlns:xlink="http://www.w3.org/1999/xlink">
    <!-- Generator: Sketch 47.1 (45422) - http://www.bohemiancoding.com/sketch -->
    <title>NEVADA</title>
    <desc>Created with Sketch.</desc>
    <defs></defs>
    <g id="Page-1" stroke="none" stroke-width="1" fill="none" fill-rule="evenodd">
        <g id="NEVADA" fill-rule="nonzero" fill="#002E62">
            <g id="Nevada_Wolf_Pack_logo" transform="translate(0.000000, 46.000000)">
                <g id="Group" transform="translate(124.970060, 79.567183) scale(-1, 1) rotate(-180.000000) translate(-124.970060, -79.567183) translate(0.531437, 0.253803)">
                    <path d="M122.183757,0.485789868 C118.044536,0.525203952 113.905314,0.68465184 109.781063,0.961072966 L109.781063,7.1007124 C110.821482,7.16341663 111.54753,7.34257156 111.974177,7.63743071 C112.393338,7.92930395 112.610404,8.39286733 112.610404,9.02364198 C112.610404,9.35657156 112.595434,9.63202226 112.572979,9.84700818 C112.550524,10.0672194 112.520584,10.2672758 112.468189,10.4538955 C110.671781,17.5894871 108.882859,24.7422476 107.093937,31.9166561 C105.132859,24.9549941 103.179266,18.0216983 101.233159,11.1085575 C101.158308,10.9025293 101.105913,10.7039659 101.068488,10.5180927 C101.038548,10.3284871 101.016093,10.1276842 101.016093,9.90896592 C101.016093,9.32895184 101.233159,8.85568423 101.65232,8.49588142 C102.078967,8.13682508 102.78256,7.82927578 103.770584,7.58443071 L103.770584,1.44800114 C97.5804641,2.03771945 91.4053144,2.89579691 85.2750749,4.01551522 L85.2750749,10.155304 C86.2107036,10.2165152 86.9142964,10.4329941 87.3783683,10.7890645 C87.8424401,11.1496138 88.2391467,11.8699659 88.568488,12.9471349 C91.315494,21.9750504 94.069985,31.0559659 96.824476,40.1921209 C102.984656,39.4053321 109.174775,38.8857828 115.37238,38.6289941 C117.999626,29.0165856 120.634356,19.4497124 123.269087,9.93359973 C123.553518,8.98183916 123.935254,8.2525293 124.406811,7.73596592 C124.878368,7.22014902 125.514596,6.84870114 126.315494,6.62378705 L126.315494,0.485789868 C124.938249,0.472502544 123.561003,0.47265184 122.183757,0.485789868 L122.183757,0.485789868 Z M136.046033,0.797743389 C133.508608,9.85477156 130.963698,18.9603209 128.426272,28.1084194 C128.029566,29.5640532 127.595434,30.5411941 127.138847,31.0420814 C126.674775,31.5459547 126.023578,31.8826166 125.170284,32.062518 L125.170284,38.4501378 C130.686751,38.4702927 136.203219,38.7069265 141.704716,39.1525744 L141.704716,32.7612223 C140.686751,32.648504 139.953219,32.4297856 139.489147,32.0976025 C139.03256,31.764673 138.800524,31.2839406 138.800524,30.651673 C138.800524,30.5023772 138.815494,30.3418842 138.837949,30.1672082 C138.867889,29.9940251 138.897829,29.7745603 138.94274,29.5110532 C139.099925,29.0422645 139.249626,28.5704899 139.406811,28.0987152 C142.87238,28.3398279 146.330464,28.6682786 149.788548,29.0795885 C149.938249,29.6282504 150.087949,30.1769124 150.245135,30.7300532 C150.290045,30.9502645 150.32747,31.1600251 150.349925,31.3541096 C150.37238,31.5481941 150.38735,31.7109265 150.38735,31.8423068 C150.38735,32.3603631 150.140344,32.7440532 149.661302,33.0030814 C149.174775,33.264349 148.523578,33.3696025 147.70771,33.3307856 L147.70771,39.7169124 C153.793039,40.3812786 159.863398,41.3024335 165.888847,42.4870955 L165.888847,36.0972363 C165.072979,35.7583349 164.444237,35.3164194 164.00262,34.7774617 C163.561003,34.235518 163.164296,33.3621378 162.8125,32.1498561 C160.050524,22.2433349 157.281063,12.3950392 154.496632,2.59750395 C148.373877,1.73405184 142.213698,1.1311955 136.046033,0.79804198 L136.046033,0.797743389 Z M81.053518,4.83343212 C68.5909431,7.37243071 56.3087575,11.0256983 44.3566617,15.7857701 L44.3566617,21.9218265 C45.3604042,21.6881786 46.0452844,21.7322209 46.4180389,22.0487279 C46.7848054,22.3629955 46.9689371,23.2968406 46.9689371,24.8420518 L46.9689371,42.4037138 C46.9689371,43.951911 46.7848054,45.0238547 46.4180389,45.6225307 C46.0452844,46.2256856 45.3604042,46.8042068 44.3566617,47.3692913 L44.3566617,53.755418 C56.3087575,48.9973617 68.5909431,45.3440941 81.053518,42.8060659 L81.053518,30.0823335 C77.2136976,30.8638969 73.3970808,31.7507138 69.5991766,32.7412913 L69.5991766,34.1148124 C69.5991766,35.6951082 69.2024701,36.8752913 68.4075599,37.6605871 C67.6156437,38.4473758 66.197979,39.1154744 64.1583084,39.7036997 C62.3978293,40.2135448 60.6403443,40.7457842 58.8880988,41.3026575 L58.8880988,32.1732209 C63.6201347,30.6727983 68.3933383,29.3336152 73.1942365,28.1691082 L73.1942365,21.780742 C68.3933383,22.9482349 63.6201347,24.2836856 58.8880988,25.7841082 L58.8880988,17.8557561 C60.3678892,17.3824885 61.8514222,16.9316152 63.3364521,16.4941786 C65.6702844,15.807418 67.300524,15.6611082 68.2196856,15.9940378 C69.1380988,16.3329392 69.5991766,17.2354321 69.5991766,18.6955448 L69.5991766,19.096404 C73.3970808,18.1058265 77.2136976,17.2160237 81.053518,16.4344603 L81.053518,4.83343212 Z M170.177769,5.40060677 L170.177769,11.5355434 C171.225674,11.9304307 171.936751,12.4029518 172.318488,12.9501209 C172.700225,13.4920645 172.88735,14.5371349 172.88735,16.0860786 L172.88735,33.6469941 C172.88735,35.1922054 172.700225,36.1544166 172.318488,36.5209378 C171.936751,36.8919378 171.225674,37.0457124 170.177769,36.9830082 L170.177769,43.3706279 C176.046033,44.6433744 181.876871,46.1661913 187.640344,47.9323603 C195.619386,50.3920082 200.866392,51.4572335 203.523578,50.4957687 C206.180763,49.551473 207.498129,46.2580082 207.498129,40.5362476 L207.498129,31.4515997 C207.498129,26.0202194 206.113398,21.6779518 203.321482,18.5225856 C200.529566,15.3806561 195.349925,12.3350223 187.640344,9.96121945 C181.876871,8.19281099 176.046033,6.67335325 170.177769,5.40060677 L170.177769,5.40060677 Z M144.384356,8.57127578 C145.611901,13.527149 146.831961,18.49198 148.059506,23.4650223 C145.626871,23.1977828 143.186751,22.9678673 140.746632,22.7827406 C141.966692,18.0373744 143.171781,13.2964871 144.384356,8.57127578 Z M185.035554,16.6922194 C186.195734,17.0154448 187.348428,17.343149 188.501123,17.6850363 C188.725674,17.7581913 188.950225,17.8305997 189.18226,17.9000223 C191.68226,18.6920363 193.388847,19.6602194 194.302021,20.7575434 C195.22268,21.8526279 195.671781,23.6710504 195.671781,26.1971349 L195.671781,37.6496138 C195.671781,39.8278392 195.200225,41.0893885 194.249626,41.4462054 C193.299027,41.8052617 191.412799,41.4984589 188.568488,40.6086561 C187.393338,40.2443744 186.218189,39.886811 185.035554,39.5449237 L185.035554,16.6922194 L185.035554,16.6922194 Z M37.9696856,18.4524166 C32.6373503,20.7747124 27.3813623,23.3246842 22.2099551,26.0978532 L22.2099551,32.2346561 C23.175524,31.8509659 23.8551647,31.8300645 24.2518713,32.1644871 C24.6545659,32.4966701 24.8529192,33.3379518 24.8529192,34.6823603 L24.8529192,46.0601913 C20.7279192,41.0819237 16.6568114,36.24698 12.6485778,31.5508814 C8.48166168,34.0702476 4.38211078,36.7374166 0.348428144,39.5635856 C0.361377246,41.601473 0.369610778,43.6401068 0.378967066,45.6794871 C1.25194611,45.2368251 1.86167665,45.1226138 2.20785928,45.3346138 C2.55314371,45.5481068 2.72687126,46.2087406 2.72687126,47.3262194 L2.72687126,65.6612335 C2.72687126,67.1601631 2.55703593,68.2634589 2.2239521,68.9748532 C1.88525449,69.6877406 1.27155689,70.4021209 0.378967066,71.1239659 C0.369610778,73.2603885 0.361377246,75.3945716 0.348278443,77.5369659 C5.18832335,74.14198 10.1342066,70.9701913 15.1678892,68.0186138 C15.1581587,65.8971209 15.1484281,63.7733885 15.1386976,61.6518955 C14.1866018,62.0915716 13.5383982,62.165473 13.1836078,61.863149 C12.8243263,61.5615716 12.6484281,60.7053603 12.6484281,59.2915293 L12.6484281,47.9644589 C16.6566617,52.7269941 20.7277695,57.6298673 24.8527695,62.675318 C28.2846557,60.8949659 31.7547156,59.2094166 35.2614521,57.623149 L35.2614521,30.0325434 C35.2614521,28.40298 35.4500749,27.2563885 35.8377994,26.6054589 C36.2225299,25.9485575 36.9298653,25.2737406 37.9695359,24.5862335 L37.9695359,18.4524166 L37.9696856,18.4524166 Z M221.53256,23.5934166 C219.204716,31.618811 216.861901,39.6897406 214.504117,47.80098 C214.13735,49.0931349 213.733159,49.8955997 213.306512,50.2098673 C212.879865,50.5241349 212.266093,50.5950504 211.47268,50.4241068 L211.47268,56.8132194 C216.62238,59.0847547 221.697231,61.565304 226.689746,64.2571068 L226.689746,57.87098 C225.769087,57.3439659 225.102919,56.8206842 224.683757,56.3041209 C224.264596,55.7830786 224.055015,55.2120223 224.055015,54.5760223 C224.055015,54.4267265 224.0625,54.2714589 224.084955,54.10798 C224.10741,53.9452476 224.13735,53.7407124 224.18226,53.4973603 C224.324476,53.0890363 224.459207,52.6799659 224.601422,52.271642 C227.760105,53.9295716 230.888847,55.6711068 233.980165,57.4955011 C234.114895,58.1091068 234.249626,58.7212194 234.391841,59.3348251 C234.429266,59.5766842 234.466692,59.8013744 234.481662,60.0029237 C234.504117,60.2037265 234.519087,60.3746701 234.519087,60.5060504 C234.519087,61.0211209 234.302021,61.3100082 233.867889,61.3719659 C233.441243,61.4324307 232.85741,61.2734307 232.116392,60.8964589 L232.116392,67.2810927 C237.587949,70.4401913 242.954716,73.8575716 248.201722,77.5369659 L248.201722,71.1448673 C247.490644,70.466318 246.944237,69.7691068 246.555015,69.0420363 C246.173278,68.3209378 245.821482,67.2803462 245.514596,65.9262335 C243.096931,54.8798392 240.656811,43.8886842 238.186751,32.9490363 C232.745135,29.5674871 227.183757,26.4501913 221.53256,23.5934166 L221.53256,23.5934166 Z M229.12238,34.781642 C230.230165,40.2354166 231.330464,45.698149 232.430763,51.1765575 C230.245135,49.9097828 228.044536,48.6855575 225.821482,47.5008955 C226.929266,43.2504448 228.029566,39.0096983 229.12238,34.781642 L229.12238,34.781642 Z M141.51759,52.8942054 C140.499626,53.0412617 137.864895,52.9979659 138.366392,56.4877547 C138.590943,58.0717828 138.882859,61.2502899 139.302021,63.0925997 C139.302021,63.0925997 111.996632,63.1567969 98.3813623,60.8964589 L102.311003,64.6228814 C102.311003,64.6228814 72.3431886,68.4888955 59.7241766,67.6117828 L64.4577096,71.6465011 C64.4577096,71.6465011 48.5175898,75.9171068 21.0999251,79.3509096 C21.0999251,79.3509096 39.6822605,81.4858392 50.2436377,88.8013321 C88.7855539,80.6049941 126.763099,81.5156983 126.763099,81.5156983 C126.763099,81.5156983 95.2660928,85.4720363 72.2204341,91.6528814 C72.2204341,91.6528814 77.4292665,92.3769659 79.308009,94.3028814 C79.308009,94.3028814 48.0228293,101.394431 17.5078593,114.666825 C17.5078593,114.666825 34.9711826,115.540205 50.0108533,118.018515 L51.697979,118.324572 C88.6867515,104.014572 122.855913,101.469079 122.855913,101.469079 C91.1568114,107.537952 65.6216317,121.064149 65.6216317,121.064149 C71.4824102,122.482459 73.074476,122.885557 78.7241766,124.692036 C78.7241766,124.692036 112.055015,108.597952 144.330464,105.962881 C144.330464,105.962881 140.049027,108.50091 138.986153,112.905135 C138.986153,112.905135 151.605913,108.911473 164.712201,109.687811 C164.712201,109.687811 151.605913,111.830205 141.037051,117.49598 C135.370883,120.534149 126.95771,127.633163 126.95771,127.633163 C126.95771,127.633163 126.95771,120.810346 129.697231,116.316543 C129.697231,116.316543 111.703219,119.713022 97.2720808,132.544994 C97.2720808,132.544994 115.408308,141.905839 119.113398,155.753022 C119.113398,155.753022 119.450225,157.298234 119.480165,157.634149 L119.510105,157.970065 C145.333458,117.003304 210.236153,130.999783 210.236153,130.999783 C210.236153,130.999783 212.436751,131.320769 216.284057,128.924572 C216.284057,128.924572 217.361901,128.207952 217.331961,127.319642 C217.324476,127.02105 216.935254,126.782177 216.373877,126.603022 C216.568488,125.386262 216.568488,124.632318 216.501123,124.423304 C216.403817,124.109783 216.239147,124.363586 216.239147,124.363586 C215.8125,125.057811 215.363398,125.699783 214.929266,126.274572 C214.495135,126.207388 214.053518,126.14767 213.626871,126.110346 C213.858907,124.520346 213.926272,123.169219 213.858907,122.960205 C213.761602,122.646684 213.596931,122.907952 213.596931,122.907952 C212.870883,124.079924 212.09244,125.1026 211.403817,125.916262 C210.011602,125.483304 209.113398,125.080205 208.462201,124.684572 C208.656811,123.594712 208.686751,122.43767 208.754117,121.101473 C208.769087,120.840205 208.813997,120.802881 208.754117,120.750628 C208.656811,120.653586 208.394835,120.929783 208.394835,120.929783 C207.788548,121.676262 207.09244,122.355557 206.448728,122.915417 C205.992141,122.474994 205.423278,121.989783 204.495135,121.437388 C204.846931,119.854853 204.854416,119.317388 204.727171,117.637811 C204.704716,117.384008 204.68226,117.204853 204.54753,117.197388 C204.397829,117.174994 204.135853,117.51091 204.135853,117.51091 C203.155314,118.533586 201.95771,119.324853 201.052021,119.847388 C200.460704,119.645839 199.891841,119.474149 199.315494,119.332318 C199.300524,119.183022 199.293039,119.033726 199.278069,118.876966 C199.068488,117.025698 198.641841,115.928374 198.424775,115.808938 C198.20771,115.689501 197.893338,116.129924 197.893338,116.129924 C197.204716,117.174994 196.119386,118.070769 195.093937,118.750065 C193.843937,118.697811 192.623877,118.735135 191.426272,118.794853 C191.426272,118.794853 190.236153,118.779924 189.876871,118.100628 C188.813997,116.114994 191.007111,113.980065 191.007111,113.980065 C192.571482,112.681191 195.947231,110.2626 200.82747,109.926684 C200.984656,110.337248 201.194237,110.77767 201.486153,111.352459 C201.486153,111.352459 201.927769,112.322881 202.18226,112.3826 C202.436751,112.434853 203.349925,111.942177 204.367889,110.770205 C204.53256,110.583586 204.68226,110.359642 204.824476,110.128234 C205.483159,110.232741 206.164296,110.389501 206.867889,110.583586 C206.718189,111.15091 206.538548,111.763022 206.291542,112.397529 C206.291542,112.397529 205.992141,113.061896 206.433757,112.942459 C206.748129,112.860346 207.803518,112.345276 209.046033,111.3226 C209.510105,111.501755 209.981662,111.703304 210.460704,111.927248 C210.311003,112.584149 210.101422,113.308234 209.816991,114.054712 C209.816991,114.054712 209.51759,114.719079 209.951722,114.599642 C210.266093,114.517529 211.306512,114.017388 212.534057,113.009642 C212.563997,113.024572 212.593937,113.039501 212.623877,113.061896 C213.305015,113.457529 213.971183,113.793445 214.60741,114.084572 C214.120883,116.0926 213.492141,118.234994 212.743638,119.832459 C212.743638,119.832459 212.661302,119.996684 212.773578,120.063867 C212.885853,120.13105 213.028069,120.004149 213.028069,120.004149 C213.19274,120.011614 215.483159,117.899079 217.466692,115.099783 C218.394835,115.331191 219.263099,115.465557 220.071482,115.517811 C219.921781,116.26429 219.689746,117.197388 219.360404,118.048374 C219.360404,118.048374 219.300524,118.242459 219.382859,118.264853 C219.510105,118.287248 220.640344,117.51091 222.339446,115.465557 C224.854416,115.181896 226.486153,114.204008 227.040045,113.860628 C227.855913,113.345557 227.975674,113.188797 227.975674,113.188797 C228.484656,112.748374 228.858907,112.255698 229.315494,111.568938 C232.683757,106.545135 228.522081,104.701332 228.522081,104.701332 C226.179266,103.641332 223.843937,102.879924 223.843937,102.879924 C219.899326,101.08091 209.143338,96.9976701 204.330464,91.033304 C197.601422,82.6876701 194.150823,80.6945716 194.150823,80.6945716 C187.698728,76.9845716 176.358907,70.7126561 170.82747,68.6105716 C170.303518,68.3784166 169.584955,68.0462335 169.053518,67.8275152 C150.086452,59.7827124 142.534057,52.7434166 141.516093,52.8942054 L141.51759,52.8942054 Z M140.028069,66.6771913 C141.188249,66.7130223 142.572979,67.3482758 142.572979,67.3482758 C142.572979,67.3482758 151.794536,71.3800082 158.965195,76.0216138 C158.965195,76.0216138 159.825973,76.6038673 159.444237,77.0816138 C159.264596,77.3055575 158.793039,77.4249941 158.793039,77.4249941 C155.761602,78.4402054 149.204716,78.0744307 149.204716,78.0744307 C149.204716,78.0744307 151.218189,81.2618955 154.025075,82.762318 C154.025075,82.762318 151.023578,83.4192194 149.848428,83.3520363 C149.848428,83.3520363 152.647829,84.7330223 149.376871,86.3379518 C149.376871,86.3379518 148.052021,87.2337265 146.846931,85.69598 C145.641841,84.1656983 140.102919,78.4849941 138.508608,69.8445011 C138.508608,69.8445011 137.999626,67.501304 139.00262,66.8876983 C139.279566,66.7204871 139.638847,66.6652476 140.028069,66.6771913 L140.028069,66.6771913 Z M190.110404,87.7562617 C190.305015,87.7264025 190.477171,87.8831631 190.477171,87.8831631 L210.566991,101.170487 C196.278069,93.3847124 193.516093,98.2218955 193.516093,98.2218955 C193.516093,98.2218955 193.381362,98.3189378 193.299027,98.2218955 C193.216692,98.1248532 193.313997,98.2293603 193.284057,97.9606279 C192.730165,93.3324589 189.945734,88.4654166 189.945734,88.4654166 C189.945734,88.4654166 189.676272,88.1295011 189.923278,87.8682335 C189.983159,87.8010504 190.050524,87.7637265 190.110404,87.7562617 L190.110404,87.7562617 Z M195.19274,92.9517547 C195.19274,92.9517547 196.293039,94.422318 196.053518,95.6092194 C196.053518,95.6092194 198.179266,96.4452758 198.980165,95.1240082 C198.980165,95.1240082 197.086452,93.541473 195.19274,92.9517547 Z M223.785554,104.641614 C224.496632,104.619219 225.162799,104.716262 225.596931,104.873022 C226.742141,105.30598 230.087949,106.515276 228.695734,109.478797 C227.303518,112.442318 225.918787,112.778234 225.918787,112.778234 C225.918787,112.778234 225.245135,112.9126 224.983159,112.599079 C224.721183,112.278093 224.616392,112.00936 224.863398,111.860065 C225.110404,111.718234 226.989147,110.867248 227.086452,109.747529 C227.183757,108.627811 226.510105,108.306825 226.255614,108.29936 C226.001123,108.291896 225.34244,108.463586 225.671781,109.292177 C226.001123,110.113304 225.230165,110.673163 225.230165,110.673163 C225.230165,110.673163 224.668787,111.128515 224.302021,110.740346 C223.927769,110.359642 221.809506,108.665135 221.420284,108.411332 C221.420284,108.411332 220.140344,107.500628 220.866392,105.992741 C221.315494,105.044712 222.602919,104.686403 223.785554,104.641614 L223.785554,104.641614 Z M199.698728,105.604572 C200.761602,105.567248 201.824476,105.761332 202.834955,106.134572 C203.605913,106.418234 205.185254,107.052741 205.462201,107.933586 C205.469686,107.95598 205.469686,107.97091 205.454716,107.993304 C205.26759,108.202318 203.306512,107.672318 203.216692,107.649924 C202.101422,107.448374 200.963698,107.41105 199.833458,107.523022 C198.688249,107.634994 197.565494,107.903726 196.47268,108.269501 C195.694237,108.538234 194.638847,109.292177 193.800524,109.105557 C193.793039,108.523304 194.563997,107.814149 195.035554,107.44091 C195.858907,106.776543 196.787051,106.239079 197.805015,105.918093 C198.426272,105.724008 199.0625,105.619501 199.698728,105.604572 L199.698728,105.604572 Z" id="Shape" transform="translate(124.275000, 79.222972) scale(-1, 1) rotate(-180.000000) translate(-124.275000, -79.222972) "></path>
                </g>
            </g>
        </g>
    </g>
</svg>