<?xml version="1.0" encoding="UTF-8" standalone="no"?>
<svg width="250px" height="250px" viewBox="0 0 250 250" version="1.1" xmlns="http://www.w3.org/2000/svg" xmlns:xlink="http://www.w3.org/1999/xlink">
    <!-- Generator: Sketch 47.1 (45422) - http://www.bohemiancoding.com/sketch -->
    <title>UTAHST</title>
    <desc>Created with Sketch.</desc>
    <defs></defs>
    <g id="Page-1" stroke="none" stroke-width="1" fill="none" fill-rule="evenodd">
        <g id="UTAHST" fill-rule="nonzero">
            <g id="Utah_State_Aggies_logo" transform="translate(0.000000, 30.000000)">
                <g id="Group" transform="translate(125.010745, 95.225849) scale(-1, 1) rotate(-180.000000) translate(-125.010745, -95.225849) translate(0.100287, 0.673962)">
                    <g id="Shape">
                        <path d="M23.032235,0.640479245 L23.032235,3.08273208 L23.032235,54.5160906 L99.515043,54.5168075 L99.515043,3.08344906 L99.515043,0.640837736 L97.0795129,0.640837736 L25.4727794,0.640837736 L23.034384,0.640837736 L23.032235,0.640479245 Z M154.285817,0.640479245 L154.285817,3.08273208 L154.285817,54.5160906 L230.768625,54.5168075 L230.768625,3.08344906 L230.768625,0.640837736 L228.325931,0.640837736 L156.721347,0.640837736 L154.285817,0.640837736 L154.285817,0.640479245 Z M99.515043,116.095951 C73.8345272,117.551423 48.2514327,121.0718 23.032235,126.664253 L23.034384,144.64614 C22.9412607,146.789913 22.9842407,157.143121 31.719914,167.324253 C42.9340974,180.387649 63.1733524,187.449913 91.8861032,188.288781 L91.9219198,188.288781 L91.9577364,188.288781 L161.87894,188.288781 L161.914756,188.288781 L161.950573,188.288781 L162.058023,188.288781 C190.682665,187.442743 210.868911,180.387649 222.079513,167.324253 C230.611032,157.386894 230.897564,147.535574 230.768625,144.64614 L230.768625,126.721611 C205.553725,121.114819 179.966332,117.587272 154.285817,116.110291 L154.285817,133.712177 C154.285817,140.659725 154.285817,145.685762 151.871777,148.568026 C149.321633,151.593687 143.454871,152.955951 132.831662,152.955951 L120.969198,152.955951 C110.345989,152.955951 104.472063,151.593687 101.936246,148.568026 C99.515043,145.685762 99.515043,140.659725 99.515043,133.712177 L99.515043,116.095951 L99.515043,116.095951 Z" fill="#002A42" transform="translate(126.903239, 94.464630) scale(-1, 1) rotate(-180.000000) translate(-126.903239, -94.464630) "></path>
                        <path d="M27.6239255,5.34186792 L27.6239255,54.5346604 L94.9283668,54.5346604 L94.9283668,5.34186792 L27.6239255,5.34186792 Z M158.870344,5.34186792 L158.870344,54.5346604 L226.176934,54.5346604 L226.176934,5.34186792 L158.870344,5.34186792 Z M94.9305158,116.373566 C72.3445559,117.879226 49.8474212,120.990925 27.6260745,125.687151 L27.6260745,144.751679 C27.5687679,145.776962 27.2908309,155.033189 35.1712034,164.224887 C45.5035817,176.27017 64.6045845,182.787528 91.9577364,183.590547 L161.87894,183.590547 L161.929083,183.590547 C189.221347,182.787528 208.297278,176.27017 218.626791,164.224887 C226.320201,155.255453 226.270057,146.436585 226.176934,144.780358 L226.176934,125.73017 C203.956304,121.019604 181.463467,117.900736 158.870344,116.395075 L158.870344,133.703 C158.870344,148.637717 158.870344,157.63583 132.831662,157.63583 L120.969198,157.63583 C94.9305158,157.63583 94.9305158,148.637717 94.9305158,133.703 L94.9305158,116.373566 L94.9305158,116.373566 Z" fill="#9D968D" transform="translate(126.903109, 94.466208) scale(-1, 1) rotate(-180.000000) translate(-126.903109, -94.466208) "></path>
                        <path d="M220.039398,85.6433962 C220.026862,87.8525943 220.017013,90.0564151 220.006268,92.2674057 C228.741941,91.208066 237.459706,90.0035377 246.147923,88.6493396 C246.144341,94.2104245 246.140759,99.7750943 246.135387,105.336179 C237.412249,106.130236 228.676576,106.839151 219.922099,107.461132 C219.91404,109.33066 219.903295,111.203774 219.894341,113.071509 C229.202185,112.584858 238.500179,112.022925 247.784742,111.383915 L247.784742,112.169906 C247.784742,117.765943 247.77937,123.361981 247.77937,128.959811 L247.77937,129.128302 C170.555158,129.101415 88.8162607,129.09783 11.5956304,129.049434 C5.42084527,129.09783 0.214899713,123.89434 0.21758596,117.687075 L0.21758596,98.2129717 C0.21758596,94.8996226 3.01396848,91.524434 6.35476361,90.1962264 C4.36604585,89.9022642 2.37732808,89.6011321 0.391296562,89.2946226 L0.391296562,74.8626887 C0.393087393,69.8160377 5.44143983,65.0176415 11.3628223,66.4498113 C21.6511461,68.8391509 31.9967765,70.8924057 42.3827006,72.6095755 C47.5886461,73.53 55.6330587,78.9037736 55.6679799,84.0803774 C55.7082736,89.7481132 55.7458811,95.4212264 55.784384,101.090755 C55.7387178,104.978585 52.2233166,107.075755 48.008596,107.973774 C50.3465258,108.106415 52.6889327,108.23816 55.0304441,108.364528 C55.0429799,110.298585 55.0564112,112.230849 55.0707378,114.166698 C60.2516117,114.364764 65.4333811,114.539528 70.6205229,114.690094 C70.5354585,101.929623 70.4548711,89.1691509 70.3733883,76.407783 C77.786533,77.2188679 85.2122135,77.8587736 92.6450573,78.3319811 C99.2290473,78.7290094 105.81841,78.9951887 112.406877,79.1296226 C113.775967,82.2278774 115.142371,85.3144811 116.506984,88.3912264 C123.241404,88.4566509 129.977615,88.4091509 136.712034,88.2478302 C138.110673,85.1379245 139.511999,82.0163679 140.914219,78.8795755 C155.684097,78.319434 170.437858,77.0942925 185.124463,75.2023585 C185.037607,88.2711321 184.946275,101.339906 184.858524,114.412264 C187.761461,114.308302 195.179979,114.199858 198.087393,114.084245 C198.176934,100.719717 198.266476,87.360566 198.359599,73.9996226 C215.359957,71.4982547 232.258238,68.1006604 248.990867,63.8068396 L248.990867,80.8485849 C239.379477,82.6661321 229.726898,84.2641038 220.042085,85.6433962 M32.0048352,85.6066509 C29.004298,85.2006604 26.0073424,84.7767453 23.0103868,84.3304245 C23.019341,86.3299057 23.0282951,88.330283 23.0372493,90.3279717 C26.0342049,90.4830189 29.0338467,90.6282075 32.0334885,90.7617453 C32.0245344,89.042783 32.0155802,87.3256132 32.0048352,85.6066509 M32.3218123,108.756179 C28.5888252,108.83684 24.7985315,108.9175 22.4122493,108.964104 C22.4194126,110.623915 22.4265759,112.285519 22.4355301,113.942642 C25.7405086,114.114717 29.0490688,114.280519 32.3558381,114.436462 C32.3441977,112.544528 32.3352436,110.651698 32.3218123,108.756179 M162.676397,115.053962 C162.733703,104.434575 162.791905,93.8196698 162.852794,83.2011792 C157.465974,94.212217 152.091691,104.871934 146.742479,115.341651 C152.053188,115.271745 157.364792,115.17316 162.676397,115.053962 M131.072708,101.75934 C128.150072,101.791604 125.22654,101.803255 122.305695,101.803255 C123.819842,105.147075 125.33399,108.486415 126.844556,111.828443 C128.249463,108.478349 129.659742,105.125566 131.072708,101.75934 M108.655981,115.39184 C103.353331,105.108538 98.0247135,94.7087264 92.6781877,84.0364623 C92.722063,94.421934 92.7659384,104.814575 92.8125,115.200047 C98.0936605,115.288774 103.374821,115.351509 108.655981,115.39184" fill="#9D968D"></path>
                        <path d="M30.5873926,8.40122642 L30.5873926,54.5260566 L91.9555874,54.5260566 L91.9555874,8.40122642 L30.5873926,8.40122642 Z M161.833811,8.40122642 L161.833811,54.5260566 L223.202006,54.5260566 L223.202006,8.40122642 L161.833811,8.40122642 Z M117.578797,61.8657925 C109.691977,77.1267358 101.740688,92.4701321 93.7535817,108.415792 C99.3123209,108.100321 104.878223,107.885226 110.444126,107.75617 C111.812321,104.651642 113.180516,101.561453 114.541547,98.478434 C122.578797,98.3780566 130.616046,98.4354151 138.646132,98.6361698 C140.04298,101.755038 141.446991,104.881075 142.851003,108.028623 C149.140401,108.279566 155.422636,108.645226 161.697708,109.132774 C153.696275,92.7856038 145.723496,77.2127736 137.808023,61.8722453 C131.067335,61.8650755 124.319484,61.8600566 117.578797,61.8657925 L117.578797,61.8657925 Z M140.888252,61.8779811 C142.485673,65.0606604 144.090258,68.2555283 145.694842,71.4676038 C152.249284,71.5414528 158.810888,71.6418302 165.372493,71.7780566 C165.444126,84.3323962 165.515759,96.8939057 165.587393,109.448245 C171.196275,109.914283 176.790831,110.487868 182.385387,111.147491 C182.299427,98.1629623 182.213467,85.178434 182.120344,72.1867358 C186.833811,72.3229623 196.060172,72.4735283 200.766476,72.638434 C200.859599,86.1033396 200.952722,99.5539057 201.038682,113.018811 C216.232092,115.241453 231.332378,118.152396 246.310888,121.751642 C246.303725,117.915792 246.303725,114.087113 246.303725,110.258434 C236.690544,108.379943 227.034384,106.738057 217.342407,105.318434 C217.32808,101.518434 217.299427,97.718434 217.2851,93.9112642 C226.031519,94.8648491 234.756447,95.969 243.452722,97.2022075 C243.452722,93.4667358 243.445559,89.7312642 243.445559,85.9957925 C234.72063,85.1282453 225.981375,84.3610755 217.227794,83.6871132 C217.206304,80.2240943 217.184814,76.7539057 217.170487,73.283717 C226.482808,73.6852264 235.795129,74.1512642 245.08596,74.6818302 L245.08596,73.9003208 C245.08596,70.1433396 245.078797,66.3856415 245.078797,62.6229245 L245.078797,62.4651887 C211.869628,62.1253396 174.126074,61.9288868 140.888252,61.8779811 Z M114.570201,61.9274528 C94.7636103,61.9417925 74.9570201,62.0070377 55.1590258,62.1246226 C55.1353868,65.5783208 55.1117479,69.0334528 55.0881089,72.4878679 C61.1676218,72.294283 67.2492837,72.1222075 73.3309456,71.9788113 C73.252149,84.6693774 73.1733524,97.3671132 73.0945559,110.057679 C78.6962751,109.512774 84.3123209,109.068245 89.9283668,108.709755 C89.9856734,96.3561698 90.0429799,84.0025849 90.1002865,71.649 C96.6618911,71.5514906 103.223496,71.4797925 109.7851,71.4396415 C111.382521,68.2626981 112.972779,65.0929245 114.570201,61.9274528 L114.570201,61.9274528 Z M44.027937,62.1597547 C33.2113181,62.2293019 22.3961318,62.3225094 11.5845272,62.4271887 C6.85673352,62.4422453 2.86962751,66.4939057 2.86962751,71.1205849 C2.86618911,77.5425849 2.86117479,83.9667358 2.85580229,90.3908868 C2.85401146,93.4022075 6.9734957,96.9727736 10.1967765,96.7433396 C10.6208453,96.6573019 34.6774355,95.6033396 34.6917622,95.6678679 C34.6731375,98.3708868 34.6609599,101.073906 34.6430516,103.776925 C34.6380372,104.658811 33.5219914,105.47617 32.8994986,105.569377 C29.3457736,106.085604 25.7963467,106.630509 22.2512178,107.211264 C21.2139685,107.38334 20.3450573,106.695038 20.3472063,105.83466 C20.3543696,103.640698 20.3636819,101.453906 20.3737106,99.2599434 C14.5800143,100.055792 8.79921203,100.92334 3.03202006,101.862585 C3.0265043,105.741453 3.0247851,109.620321 3.02206304,113.506358 C3.02206304,117.112774 6.9754298,120.919943 11.3651862,119.909 C21.6574499,117.62183 32.0041547,115.657302 42.3938395,114.008245 C46.5027221,113.312774 52.9661891,108.795792 52.9934097,105.146358 C53.032808,99.4535283 53.0700573,93.7535283 53.1094556,88.0535283 C53.0664756,83.6799434 46.4146132,82.8052264 43.1689112,82.7622075 C41.3451289,82.6546604 19.7319484,82.3822075 19.7369628,82.3965472 C19.7498567,79.7078679 19.7577364,77.0191887 19.7691977,74.3305094 C19.7713467,73.6852264 20.4755014,72.6025849 21.5191977,72.5523962 C25.2863897,72.3874906 29.058596,72.2297547 32.8286533,72.0791887 C33.9124642,72.0433396 35.0206304,72.8391887 35.0148997,73.6852264 C35.0034384,75.5923962 34.9934097,77.5067358 34.9826648,79.4139057 C40.7756447,79.0554151 46.5679083,78.7399434 52.3694842,78.4531509 C52.3924069,75.3701321 52.4117479,72.2871132 52.4325215,69.1976415 C52.4554441,65.7152642 48.9719198,62.1432642 44.0277937,62.1597547 L44.027937,62.1597547 Z M126.79298,70.8022453 L127.043696,70.8022453 C129.61533,76.9403208 132.201289,83.0920189 134.794413,89.279566 C129.35745,89.2006981 123.913324,89.1720189 118.476361,89.1935283 C121.255731,83.0561698 124.027937,76.9259811 126.79298,70.8022453 Z M91.9577364,116.567868 C71.3775072,118.059189 50.8739255,120.862585 30.5895415,125.006736 L30.5895415,144.859943 C30.5895415,144.859943 27.8044413,178.622585 91.9577364,180.522585 L161.83596,180.522585 C225.997851,178.622585 223.204155,144.859943 223.204155,144.859943 L223.204155,125.142962 C202.924785,120.970132 182.423352,118.130887 161.83596,116.625226 L161.83596,133.703717 C161.83596,148.767491 161.83596,160.705226 132.831662,160.705226 L120.969198,160.705226 C91.9577364,160.705226 91.9577364,148.767491 91.9577364,133.703717 L91.9577364,116.567868 Z" fill="#002A42" transform="translate(124.583345, 94.461906) scale(-1, 1) rotate(-180.000000) translate(-124.583345, -94.461906) "></path>
                    </g>
                </g>
            </g>
        </g>
    </g>
</svg>