<?xml version="1.0" encoding="UTF-8" standalone="no"?>
<svg width="250px" height="250px" viewBox="0 0 250 250" version="1.1" xmlns="http://www.w3.org/2000/svg" xmlns:xlink="http://www.w3.org/1999/xlink">
    <!-- Generator: Sketch 47.1 (45422) - http://www.bohemiancoding.com/sketch -->
    <title>NMEXST</title>
    <desc>Created with Sketch.</desc>
    <defs></defs>
    <g id="Page-1" stroke="none" stroke-width="1" fill="none" fill-rule="evenodd">
        <g id="NMEXST" fill-rule="nonzero">
            <g id="New_Mexico_State_Aggies_logo" transform="translate(0.000000, 32.000000)">
                <path d="M245.12963,159.359259 L238.944444,159.359259 L239.474537,156.711111 L245.483796,156.676389 L249.550833,133.26713 L244.879537,133.26713 C245.7175,132.542593 246.398056,131.607407 246.870278,130.5125 C247.729074,128.514722 247.754537,126.281019 246.9675,124.385093 C246.652685,121.577315 244.756759,119.107315 242.2175,118.137315 C240.564722,116.479907 238.215278,115.519167 235.72213,115.519167 C235.240648,115.519167 234.754537,115.556204 234.291574,115.627963 C233.680463,115.725185 232.948981,115.940463 232.2475,116.296944 L223.870093,114.783056 C222.409444,113.681204 220.821574,113.415 219.964907,113.273796 L208.550463,111.417315 L208.351389,111.396481 C207.636111,111.317778 206.971759,111.343241 206.314352,111.456667 C204.879167,110.688148 203.413981,110.470556 202.013426,110.375648 L201.490278,110.340926 L200.983333,110.465926 C200.200926,110.66037 199.226389,111.070093 197.578148,111.905741 C194.267963,111.086296 190.948519,110.264537 187.825926,109.500556 C188.196296,105.049074 188.143056,99.0375926 186.680093,92.0490741 C187.390741,87.0861111 186.971759,83.292037 186.406944,79.9240741 C185.629167,75.35 182.800463,70.8337037 178.835093,67.85 C176.816574,66.3268519 174.268056,64.9611111 171.080463,63.6996296 C170.55037,63.0283333 169.805,62.5121296 168.8975,62.2135185 C167.626667,61.7852778 166.360463,61.3848148 165.124352,61.0144444 C164.203056,59.0746296 162.538796,57.1325926 159.071019,57.29 L159.063981,57.29 C158.688981,57.29 158.624167,57.282963 157.533889,55.8756481 C157.464444,55.7876852 157.392685,55.6974074 157.318611,55.6025 C157.656574,52.6325 158.14963,47.4543519 158.408889,42.1349074 C168.17963,35.9450926 173.42037,27.8641667 174.040741,23.8849074 C174.177315,22.9913889 174.603241,20.2737963 172.883333,18.2667593 C172.191204,17.4612037 170.915741,16.5005556 168.744444,16.5005556 C167.957407,16.5005556 167.093981,16.6255556 166.103333,16.8848148 C164.438981,17.3176852 162.383333,18.5561111 160.006111,19.9844444 C158.969074,20.6094444 157.871852,21.2691667 156.816296,21.8548148 C156.489907,20.7136111 156.230648,19.7877778 155.999167,18.9681481 C155.721389,17.9612037 155.482963,17.1209259 155.232963,16.2551852 C155.184352,16.0977778 147.425185,0.167222222 142.17037,0.134814815 C140.158889,0.134814815 138.943519,1.30842593 138.218889,2.00518519 C137.63787,2.56537037 137.441111,2.7575 136.64713,2.83388889 C136.357778,2.83388889 135.797593,2.56768519 135.151759,2.25981481 C133.573056,1.50981481 131.411019,0.479722222 127.913241,0.479722222 L127.591481,0.482037037 C122.154074,0.576944444 109.815926,14.8848148 109.093704,16.7783333 L108.802037,17.5352778 C108.304352,18.8385185 107.677037,20.470463 106.938704,22.4565741 C103.873889,20.8616667 100.665556,19.4565741 97.7812963,18.9173148 C92.5683333,17.9358333 86.0057407,21.1812037 85.9201852,27.2065741 C85.8252778,33.9913889 92.2235185,42.7784259 104.653519,46.9473148 L105.026204,47.6811111 C105.084074,47.8408333 105.109537,48.0167593 105.146574,48.1996296 C105.271574,48.7899074 105.438241,49.5931481 105.850278,50.4635185 C105.836389,51.2690741 105.859537,52.2459259 105.896574,53.2737037 C101.850278,53.0514815 97.5562037,52.8593519 93.0147222,52.9218519 C91.9522222,52.9311111 91.1675,53.2412963 90.6073148,53.607037 C86.3989815,53.8801852 81.035463,54.6325 75.4360185,57.4288889 C74.6235185,57.6441667 73.8503704,57.8386111 73.1026852,58.0307407 C68.9615741,59.0886111 65.3850926,60.0007407 60.7115741,62.2459259 C54.6699074,65.1487037 51.0078704,68.0607407 47.7763889,70.6277778 C46.3967593,71.7273148 45.0958333,72.762037 43.7625,73.6601852 C39.3875,76.5953704 34.8087963,80.7690741 33.9962037,89.437963 C33.5239815,94.4518519 34.704537,99.3175926 37.4150926,103.509815 C39.1674074,106.213519 42.1002778,109.69037 44.9382407,113.051481 C46.3456481,114.718148 47.6860185,116.310741 48.8526852,117.762222 L48.9198148,118.887222 L51.767037,121.885 C53.797037,124.016852 55.8944444,126.220556 57.1466667,127.621111 C57.4151852,127.926667 57.7137963,128.169722 58.0147222,128.359537 C58.1512963,128.584074 58.2878704,128.815556 58.4290741,129.044722 C58.6165741,129.667407 58.9360185,130.722963 59.2624074,131.794722 C59.4151852,132.294722 59.567963,132.799352 59.7091667,133.266944 L9.26101852,133.266944 L5.22861111,155.581759 L7.52712963,155.581759 L6.51324074,161.206759 L4.21472222,161.206759 L0.179907407,183.521574 L113.746574,183.521574 C116.225833,183.521574 118.459537,183.310926 120.454907,182.667407 L120.272037,183.521574 L240.870185,183.521574 L245.129444,159.358611 L245.12963,159.359259 Z" id="Shape" fill="#FFFFFF"></path>
                <path d="M142.188889,3.47407407 C140.610185,3.46481481 140.305556,5.81833333 137.092593,6.14703704 C134.294074,6.45490741 132.884259,3.7287037 127.65963,3.8212963 C124.337778,3.88148148 112.772037,16.5092593 112.211852,17.9814815 C111.429444,20.0207407 110.250185,23.0555556 108.743333,27.2407407 C105.152963,25.2037037 100.685741,22.8514815 97.1764815,22.1987037 C93.6972222,21.5459259 89.3064815,23.5761667 89.2555556,27.2659259 C89.1814815,32.5205556 94.7988889,40.5907407 107.007222,44.2111111 C107.3475,44.9078704 107.727556,45.6303889 108.030796,46.2438889 C108.512278,47.1860185 108.360944,48.4614815 109.22437,49.6583333 C109.097056,51.0078704 109.303944,54.7037037 109.303944,54.9607407 C108.72987,55.4977778 108.225963,56.0680926 107.788463,56.7185556 C103.114759,56.4616111 98.3660556,56.1828148 93.0605,56.2592037 C92.5998519,56.2638333 92.217037,56.3817407 92.2286111,56.8632222 C92.0191667,56.8702593 91.8100185,56.8806296 91.6028889,56.8921667 C87.2717778,57.1282778 82.0630741,57.7799074 76.6325185,60.5669815 C71.2204815,62.0021667 67.4621481,62.7095741 62.1612222,65.2580926 C53.8164074,69.2673519 50.1932593,73.362537 45.6284444,76.4343889 C41.426963,79.2538333 37.9788148,82.7140185 37.3167778,89.7627222 C36.8329815,94.9130926 38.4132778,98.9190185 40.2212222,101.712907 C42.8345556,105.747722 48.5402963,111.956796 52.1352963,116.549389 C52.1445556,116.822537 52.1601852,117.184222 52.1787037,117.489778 C54.5907407,120.040704 57.8942593,123.467185 59.6512963,125.432556 C59.8133333,125.617741 60.1343704,125.737093 60.3565926,125.783389 C60.7200185,126.413019 61.105,127.039037 61.5031481,127.6895 C61.7577778,128.55987 63.2223333,133.352833 63.4816667,134.232463 C63.7617593,135.091259 64.2238519,135.869037 64.7909815,136.605056 L33.0446852,136.605056 L31.9379074,143.263759 L29.8979074,136.605056 L12.048463,136.605056 L9.22012963,152.266167 L11.5205,152.266167 L9.29975926,164.545611 L7.00309259,164.545611 L4.17105556,180.210426 L23.6377222,180.210426 L24.6793889,173.754315 L26.6795741,180.210426 L58.1721667,180.210426 L59.4923333,172.687278 L62.5414074,180.897648 L67.3156667,174.293204 L66.2450741,180.210426 L113.756185,180.210426 C120.45063,180.210426 123.737296,178.502241 126.248963,171.620241 L124.400722,180.210426 L238.104426,180.210426 L241.247574,163.023019 L234.7335,163.023019 L236.502167,153.34413 L242.459204,153.34413 L245.558833,136.605056 L214.699574,136.605056 C214.972722,136.17913 215.228074,135.717037 215.441037,135.18 C217.723444,135.031852 219.115852,134.074537 219.900667,132.514259 C220.727056,131.650833 221.473148,130.567222 222.088815,129.382037 C222.690667,129.270926 223.338537,128.997778 223.817704,128.629722 L233.60863,130.412852 L234.129444,132.441926 L238.759074,132.156185 L241.301667,131.494296 C243.808704,130.876241 244.969259,127.482815 243.696111,125.244296 C243.707222,123.255778 242.226056,121.365593 240.365,121.073926 C239.165926,119.430407 236.909074,118.600407 234.809444,118.929111 C234.221481,119.019389 233.410296,119.349259 233.019093,119.826111 L222.3565,117.901852 C221.564833,117.008333 220.564981,116.757037 219.437611,116.567222 L208.022611,114.71537 C207.163815,114.627407 206.43363,114.779463 205.769278,115.131315 C204.618815,114.080389 203.398537,113.811444 201.794278,113.702648 C201.02113,113.897093 199.503722,114.657944 198.003722,115.449611 C193.272241,114.273685 188.46687,113.085722 184.205204,112.053315 C184.969093,106.675907 184.986463,99.8051667 183.308204,92.1644259 C184.10913,87.1227593 183.634593,83.4718333 183.134593,80.4927593 C182.377185,76.0316481 179.47163,72.5038704 176.842,70.5242407 C174.832741,69.0103519 172.189407,67.6499815 168.657,66.3466481 C168.659222,65.9508148 168.452,65.5859444 167.843204,65.3845556 C164.370981,64.2178889 160.8695,63.2449259 157.621907,62.3862222 C158.712185,62.0366852 159.82487,61.2587593 160.757833,60.444 C156.697648,61.2750185 156.147463,59.3027963 153.860426,56.6245556 C153.876722,56.4879815 153.891241,56.3569074 153.907444,56.2411667 C154.321796,52.8593148 154.942889,46.2943148 155.169741,40.2363519 C165.301593,34.3267222 170.308444,26.312463 170.762148,23.3887593 C171.308444,19.8772778 169.615593,19.4235741 166.95363,20.1226481 C164.407333,20.7893148 158.644,25.2195 154.699556,26.506537 C153.231963,21.4741296 152.684926,19.3996852 152.048444,17.207463 C151.701222,16.0176481 144.241963,3.49524074 142.188815,3.48135185 L142.188889,3.47407407 Z" id="Shape" fill="#000000"></path>
                <path d="M97.1648148,59.8266192 C98.3981481,61.2914341 97.7296296,65.9414341 97.1648148,70.5136563 C96.7981481,73.4858785 96.3222222,77.2914341 95.6925926,81.3710637 L103.855556,86.3340266 L109.027778,85.1266192 C108.392593,76.154397 105.705556,68.0266192 105.862963,62.4229155 C105.97037,61.6395822 106.098148,60.9303229 106.261111,60.2858785 C103.533333,60.1784711 99.7814815,59.9192118 97.1648148,59.8266192 L97.1648148,59.8266192 Z M152.846296,64.9321748 C152.401852,67.8469896 151.885185,70.0784711 151.237037,71.4895822 C150.559259,73.1247674 149.203704,73.6914341 148.342593,73.9969896 C148.294444,74.2451378 148.216667,74.6099526 148.162963,74.8506933 C146.903704,80.6118044 144.881481,85.3321748 142.387037,89.2284711 L146.22037,90.7358785 L155.122222,86.9562489 C155.557407,84.5118044 156.018519,82.16736 156.442593,80.0118044 C157.590741,74.1747674 160.272222,69.1099526 162.62963,67.5766192 C160.374074,66.9099526 155.653704,65.604397 152.846296,64.9321748 L152.846296,64.9321748 Z M95.1648148,84.6192118 C93.3777778,95.0062489 90.5055556,106.245138 85.6555556,110.061804 L91.112963,114.191434 C91.9722222,114.872916 92.6185185,115.754397 93.012963,116.780323 L96.4222222,119.708101 C97.8148148,120.109953 99.1925926,121.461804 99.7907407,122.619212 L102.216667,124.778471 C103.416667,126.234027 104.211111,129.028471 103.233333,130.934027 C103.174074,132.700693 102.1,134.206249 100.307407,134.808101 L100.194444,138.030323 L100.192593,138.080323 C101.824074,137.178471 103.774074,136.602545 106.025926,136.602545 L106.864815,136.602545 C108.694444,128.111804 111.872222,115.028471 113.855556,107.13773 C110.442593,107.782175 106.685185,108.230323 102.585185,108.44699 C106.607407,102.961804 108.724074,97.0969896 109.077778,91.4710637 C109.187037,89.6692118 109.181481,87.8821748 109.088889,86.1247674 L103.438889,89.4414341 L95.1648148,84.6192118 L95.1648148,84.6192118 Z M141.692593,90.2692118 C138.355556,95.11736 134.272222,98.6266192 130.07037,101.265508 C126.744444,103.358101 122.485185,105.11736 117.3,106.389582 C115.118519,114.304397 111.775926,127.958101 109.22037,136.602545 L144.535185,136.602545 C147.209259,129.756249 150.862963,123.048841 155.824074,115.569212 C152.307407,110.141434 153.018519,99.9803229 154.524074,90.4969896 L146.187037,93.86736 L141.692593,90.2692118 Z M90.4444444,129.226619 C90.9666667,131.343286 89.537037,133.472916 88.1148148,134.959953 C87.8574074,135.185879 87.4907407,136.002545 87.3018519,136.602545 L97.9666667,136.602545 L94.0037037,133.400693 L94,132.372916 L90.4444444,129.226619 L90.4444444,129.226619 Z M190.518519,134.095138 C189.388889,136.082175 188.425926,138.252545 187.425926,140.534027 C188.240741,141.869212 190.037037,142.319212 193.111111,143.061804 C193.851852,143.245138 194.648148,143.398841 195.388889,143.471064 C194.222222,142.415508 193.222222,140.841434 194.018519,139.365508 C192.648148,137.859953 191.777778,136.839582 190.981481,135.289582 C190.796296,134.913656 190.648148,134.509953 190.518519,134.095138 L190.518519,134.095138 Z M99.75,138.041434 L99.7185185,138.215508 L99.9425926,138.215508 C99.9462963,138.209953 99.9518519,138.209953 99.9574074,138.208101 L99.8185185,138.091434 L99.8148148,138.091434 L99.75,138.041434 L99.75,138.041434 Z" id="Shape" fill="#891216"></path>
                <path d="M128.301852,8.52032294 C133.927778,12.8792118 125.548148,18.5118044 116.457407,19.2988415 C123.966667,20.7266192 138.203704,12.7656933 128.301852,8.52032294 Z M143.257407,8.73365628 C141.97963,9.79847109 142.22963,11.8582859 143.662963,13.9601378 C144.903704,15.7864341 146.896296,17.4895822 149.161111,18.2395822 C146.244444,15.574397 142.92037,12.1479155 143.257407,8.73365628 L143.257407,8.73365628 Z M167.698148,23.0858785 C161.6,28.5229155 154.124074,32.9025452 139.540741,35.1414341 C147.72037,35.154397 160.67963,33.0192118 167.698148,23.0858785 Z M96.0388889,25.1210637 C93.8351852,25.1155081 92.2703704,26.0784711 92.3148148,27.5988415 C94.3388889,25.3284711 97.3907407,26.3599526 101.753704,28.5081007 C105.255556,30.2247674 109.575926,32.0377304 113.798148,33.0932859 C109.666667,31.3303229 104.653704,28.4321748 102.351852,27.2951378 C100.244444,26.254397 97.3592593,25.1284711 96.0388889,25.1210637 L96.0388889,25.1210637 Z M151.874074,27.704397 C147.581481,28.7914341 139.624074,29.3340266 134.372222,29.454397 C124.014815,29.6932859 117.707407,29.3136563 111.490741,28.5969896 C117,30.6247674 125.783333,31.5062489 134.783333,31.7414341 C141.087037,31.904397 147.759259,31.5932859 152.538889,30.4747674 C152.257407,29.2247674 152.077778,28.5562489 151.877778,27.704397 L151.874074,27.704397 L151.874074,27.704397 Z M113.805556,34.1969896 C111.240741,34.1266192 108.987037,34.7858785 107.668519,36.7469896 C108.47037,36.1932859 110.585185,34.9729155 111.375926,34.8692118 C111.298148,35.4636563 111.498148,35.9340266 111.961111,36.4321748 C112.292593,35.6155081 112.75,35.0655081 113.35,34.6414341 C113.353704,35.2395822 113.501852,36.5136563 114.098148,37.5636563 C114.622222,36.5914341 115.074074,35.36736 115.877778,34.8358785 C115.794444,35.2581007 115.822222,35.8932859 116.268519,36.7784711 C116.996296,35.3414341 117.425926,34.9914341 118.624074,34.9858785 C116.992593,34.5432859 115.344444,34.2395822 113.805556,34.1969896 L113.805556,34.1969896 Z M137.116667,52.6247674 C136.17963,52.5488415 135.003704,52.8932859 134.209259,53.0155081 C130.496296,53.5840266 128.177778,57.3895822 124.414815,58.8377304 C127.642593,58.2358785 128.642593,56.9710637 129.838889,55.8006933 C129.968519,56.1247674 130.411111,56.5136563 130.67037,56.81736 C130.977778,55.8451378 131.27037,55.3210637 132.066667,54.3136563 C132.146296,55.0377304 132.342593,55.5599526 132.755556,56.2636563 C133.094444,55.2562489 133.342593,54.7303229 134.233333,53.7710637 C134.283333,54.3229155 134.603704,54.9192118 135.185185,55.8618044 C135.464815,54.9358785 135.766667,54.3525452 136.372222,53.5803229 C136.535185,54.2562489 136.87963,54.9618044 137.45,55.51736 C137.662963,54.86736 137.857407,54.2655081 138.085185,53.9377304 C138.887037,54.16736 139.668519,54.5932859 141.522222,54.1081007 C139.783333,54.0081007 138.951852,53.4821748 137.951852,52.86736 C137.716667,52.7229155 137.42963,52.6506933 137.116667,52.6247674 L137.116667,52.6247674 Z M145.988889,52.6581007 C145.62037,52.7414341 145.388889,52.9951378 145.074074,53.3414341 C144.446296,54.0229155 143.511111,54.1618044 142.483333,54.1284711 C143.690741,54.4303229 143.822222,55.3951378 143.22963,57.5247674 C143.77037,57.0747674 144.525926,56.2099526 144.722222,54.4877304 C145.083333,54.7358785 145.344444,55.3506933 145.525926,55.71736 C146.016667,54.9525452 146.037037,54.4062489 145.992593,53.8006933 C146.409259,53.8229155 146.718519,54.1340266 147.12037,54.6655081 C147.324074,54.2766192 147.368519,53.9358785 147.301852,53.5729155 C147.861111,53.5210637 148.290741,53.6099526 149.175926,53.7525452 C148.835185,53.4710637 147.922222,53.06736 147.731481,52.9932859 C146.864815,52.6599526 146.357407,52.5729155 145.988889,52.6581007 L145.988889,52.6581007 Z M78.5111111,108.635878 C78.1722222,108.678471 77.8222222,108.782175 77.5462963,108.980323 C77.4851852,109.16736 77.5185185,109.758101 77.7203704,109.959953 C78.937037,111.171064 79.2851852,111.91736 79.2425926,113.080323 L84.1462963,116.961804 C85.062963,117.689582 84.987037,118.254397 84.8814815,118.654397 L81.7777778,116.202545 C79.5018519,116.404397 78.4314815,118.248841 78.5944444,120.176619 C77.7055556,118.478471 78.4796296,115.998841 80.9537037,115.550693 L79.1018519,114.085879 C78.3777778,115.415508 77.9074074,116.33773 77.7277778,117.602545 C77.562963,118.748841 77.9148148,120.030323 78.2037037,121.248841 L80.9962963,124.156249 C80.9185185,123.806249 81.0222222,123.511804 81.0759259,123.280323 C80.2,122.49699 79.9166667,121.535878 80.3388889,120.391434 C80.5222222,119.893286 81.1537037,118.952545 82.5018519,118.471064 C82.337037,118.002545 82.2814815,117.726619 82.437037,117.124767 C82.6981481,117.84699 83.0685185,118.404397 83.6518519,118.782175 C82.0444444,119.204397 81.3648148,119.950693 81.1277778,120.691434 C80.6,122.324767 81.7740741,122.572916 81.9074074,123.104397 C82.0703704,123.743286 81.2351852,124.676619 82.6277778,125.993286 C83.4685185,126.78773 85.4740741,126.66736 85.9407407,124.915508 C86.2,127.328471 83.4074074,127.632175 82.2018519,126.59699 L78.8222222,123.06736 C79.7055556,124.741434 80.5574074,126.456249 81.8944444,127.802545 L81.887037,127.809953 C83.4555556,129.339582 83.762963,132.222916 83.9981481,134.211804 C84.512963,134.378471 85.3018519,134.335878 85.8611111,133.993286 C86.2388889,132.524767 86.4648148,128.171064 86.4407407,126.448841 L86.4407407,126.406249 C88.4148148,126.604397 89.2722222,125.915508 89.5981481,125.071064 C88.1796296,123.726619 87.6796296,123.026619 87.1166667,121.808101 L96.5425926,130.152545 L96.55,132.182175 L97.8148148,133.206249 L97.8481481,132.221064 C98.9759259,133.034027 101.214815,132.082175 100.564815,130.24699 C101.727778,129.498841 100.809259,127.058101 100.337037,126.513656 L98.4407407,124.828471 L98.4407407,125.498841 C98.3944444,126.51736 95.8407407,124.73773 95.3277778,123.328471 C96.3833333,124.154397 97.1796296,124.985878 97.5555556,124.832175 L97.5981481,124.080323 C97.6333333,123.422916 95.8092593,121.809953 95.4240741,122.209953 L90.787037,118.228471 C90.6555556,117.432175 90.0685185,116.598841 89.55,116.202545 L83.3296296,111.49699 C82.6611111,110.989582 81.4111111,111.454397 80.8333333,111.584027 C80.0796296,110.350693 80.4722222,109.315508 79.4092593,108.672916 C79.1796296,108.61736 78.8518519,108.593286 78.5111111,108.635878 L78.5111111,108.635878 Z M202.092593,116.29699 C201.740741,116.409953 201.351852,116.608101 200.944444,116.821064 C202.944444,117.359953 203.666667,118.693286 203.5,119.830323 C204.166667,120.232175 204.666667,120.811804 204.759259,121.632175 C204.851852,122.43773 204.796296,123.259953 204.814815,124.072916 C204.851852,125.454397 205.259259,126.532175 205.648148,127.765508 C205.703704,127.924767 205.777778,128.122916 205.814815,128.265508 C205.944444,128.68773 206.037037,129.106249 206.092593,129.509953 C206.814815,129.839582 207.740741,130.302545 208.537037,130.835878 C209.351852,131.369212 209.981481,131.939582 210.425926,132.611804 C210.962963,133.435878 211.185185,134.628471 210.685185,135.59699 C210.37037,136.250693 209.444444,136.948841 208.314815,137.339582 C209.962963,137.521064 211.592593,136.728471 212.462963,135.532175 C212.925926,134.871064 213.111111,134.139582 213.277778,133.454397 C212.462963,133.24699 211.518519,132.921064 210.407407,132.102545 C211.444444,132.248841 212.574074,132.430323 213.462963,132.561804 C215.833333,132.869212 217.37037,132.439582 217.722222,131.078471 C219.018519,129.895138 219.777778,128.345138 220.537037,126.79699 C221.981481,127.158101 222.555556,126.480323 222.87037,125.86736 C222.537037,125.628471 222.203704,125.51736 221.87037,125.461804 L220.240741,125.165508 C219.5,125.176619 219.407407,125.993286 220.055556,126.558101 C219.092593,126.541434 218.5,125.609953 218.814815,124.89699 L216.277778,124.406249 C216.296296,124.484027 216.333333,124.563656 216.37037,124.645138 C216.5,125.030323 216.666667,125.828471 216.648148,126.278471 C216.648148,127.885878 215.796296,129.952545 214.444444,129.743286 L207,128.611804 C206.981481,128.252545 207.074074,127.939582 206.962963,127.689582 L214.37037,128.854397 C215.277778,128.995138 215.722222,126.971064 215.722222,126.206249 C215.722222,125.400693 215.37037,124.445138 215.111111,123.421064 C215.092593,123.665508 215.055556,123.954397 215.018519,124.289582 C214.944444,124.789582 214.537037,125.302545 214.092593,125.419212 C214.037037,125.698841 214,125.982175 213.944444,126.358101 C215.037037,125.148841 215.314815,126.158101 215.222222,126.658101 C215.055556,127.774767 213.962963,128.46736 213.685185,127.302545 C210.888889,127.021064 209.925926,126.691434 209.648148,125.53773 C209.407407,124.506249 211.722222,125.134027 213.814815,125.424767 C213.611111,124.71736 213.462963,123.889582 214.018519,123.14699 C212.444444,122.91736 210.444444,122.572916 210.703704,121.219212 C210.87037,120.413656 213.240741,121.045138 214.888889,121.328471 C214.888889,121.209953 214.907407,121.093286 214.925926,120.972916 L208.481481,119.876619 C207.388889,121.134027 206.425926,123.634027 206.055556,126.254397 C205.055556,123.622916 206.185185,121.052545 207.425926,119.700693 L205.685185,119.352545 C206.240741,118.965508 207.203704,118.78773 207.925926,118.89699 L218.333333,120.654397 L215.796296,121.089582 C215.796296,122.404397 215.888889,123.072916 216.055556,123.66736 L218.592593,124.159953 C217.555556,122.709953 218.407407,120.119212 220.296296,120.21736 C218.537037,120.934027 218.777778,123.443286 219.685185,124.341434 L221.888889,124.806249 C222.481481,124.926619 222.796296,125.389582 222.87037,125.86736 L235.666667,128.202545 L236.074074,129.769212 L238.351852,129.628471 L238.092593,128.608101 L240.425926,129.043286 C241.462963,129.209953 242.333333,126.724767 240.962963,125.982175 C241.537037,124.89699 240.666667,123.791434 240.092593,123.621064 L238.611111,123.31736 C238.574074,121.661804 234.333333,120.291434 234.425926,122.665508 L220.777778,120.202545 C220.537037,119.415508 220.148148,119.261804 219.018519,119.082175 L207.722222,117.243286 C206.87037,117.109953 206.037037,118.111804 205.518519,118.372916 C204.222222,117.724767 204.388889,116.434027 202.092593,116.29699 L202.092593,116.29699 Z" id="Shape" fill="#8A8A8A"></path>
                <g id="Group" transform="translate(9.259259, 33.333333)">
                    <path d="M110.261111,1.77106369 C110.12963,2.01365628 110.007407,2.25810072 109.892593,2.51180443 L109.896296,2.51180443 C108.018519,6.60254517 108.137037,11.8655081 108.448148,14.3655081 C107.125926,13.6506933 105.696296,12.8618044 104.67963,12.3006933 C103.15,7.48773035 101.874074,4.35254517 100.348148,4.20254517 C98.9981481,4.04698961 98.4888889,5.47476739 98.437037,6.61735998 C98.2592593,9.26735998 100.194444,11.8914341 100.448148,13.4210637 C100.983333,16.5247674 102.842593,17.4729155 103.787037,17.4469896 C104.372222,17.3932859 104.522222,16.4506933 104.474074,15.2803229 C105.212963,16.5562489 105.212963,18.2877304 104.166667,18.7192118 C103.65,18.9321748 102.97037,18.704397 102.322222,18.2525452 C102.146296,20.2766192 102.355556,25.5155081 102.796296,27.104397 C104.909259,34.7858785 112.95,41.2599526 123.238889,43.0210637 L123.238889,43.0247674 C123.264815,43.0303229 123.287037,43.0321748 123.314815,43.0395822 C123.47037,43.0655081 123.627778,43.0858785 123.788889,43.1081007 C123.994444,43.1414341 124.2,43.1729155 124.407407,43.1988415 C124.568519,43.2229155 124.72963,43.2451378 124.890741,43.2636563 C125.12037,43.2895822 125.348148,43.3099526 125.575926,43.3321748 C125.714815,43.3488415 125.855556,43.3618044 125.994444,43.3766192 C126.353704,43.4062489 126.705556,43.4303229 127.064815,43.4488415 C127.181481,43.4525452 127.292593,43.4562489 127.405556,43.4636563 C127.675926,43.4729155 127.95,43.4821748 128.222222,43.4877304 C128.359259,43.4877304 128.492593,43.4951378 128.631481,43.4951378 C128.892593,43.4951378 129.164815,43.4932859 129.431481,43.4877304 C129.553704,43.4858785 129.677778,43.4840266 129.803704,43.4803229 C130.188889,43.4710637 130.574074,43.454397 130.968519,43.4303229 C131.511111,43.3932859 132.844444,43.0414341 133.42037,42.7469896 C133.844444,41.9081007 134.037037,41.5395822 134.187037,41.2488415 C133.827778,41.2803229 132.627778,41.3192118 132.214815,41.3395822 C131.896296,41.3562489 131.57037,41.3636563 131.25,41.3766192 C131.112963,41.3766192 130.968519,41.3803229 130.82963,41.3803229 C130.644444,41.3821748 130.462963,41.3877304 130.277778,41.3877304 C130.12037,41.3877304 129.966667,41.3840266 129.814815,41.3803229 C129.642593,41.3784711 129.468519,41.3766192 129.292593,41.3729155 C129.144444,41.3692118 128.994444,41.3636563 128.844444,41.3618044 C128.65,41.354397 128.464815,41.3488415 128.274074,41.3395822 C128.153704,41.3377304 128.02963,41.3284711 127.911111,41.3210637 C127.605556,41.3081007 127.301852,41.2914341 127.011111,41.2710637 C126.937037,41.2692118 126.872222,41.2599526 126.801852,41.2525452 C126.561111,41.2377304 126.322222,41.21736 126.088889,41.1988415 C126.014815,41.1914341 125.942593,41.1877304 125.868519,41.1803229 C125.631481,41.1618044 125.403704,41.1395822 125.185185,41.1155081 C125.131481,41.1081007 125.074074,41.1006933 125.022222,41.0969896 C124.762963,41.06736 124.511111,41.0414341 124.266667,41.0099526 C124.262963,41.0081007 124.253704,41.0081007 124.248148,41.0081007 C122.862963,40.8321748 121.794444,40.6321748 121.285185,40.4747674 C119.987037,40.0914341 116.853704,38.8969896 112.727778,36.2692118 C109.237037,34.0303229 106.183333,31.554397 104.553704,29.61736 C103.737037,28.6747674 103.224074,22.7469896 103.631481,19.204397 C103.837037,20.2988415 105.037037,27.9155081 106.003704,28.804397 C108.881481,31.4562489 111.47963,33.0358785 114.22963,34.5877304 C116.694444,36.0006933 119.312963,37.0488415 121.064815,37.6284711 C121.162963,37.6618044 121.251852,37.6895822 121.346296,37.7192118 C121.814815,37.86736 122.214815,37.9840266 122.507407,38.0562489 C124.087037,38.4118044 128.625926,38.5525452 131.814815,38.4210637 C132.042593,38.4099526 132.27037,38.4025452 132.498148,38.3951378 C133.212963,38.36736 133.907407,38.3451378 134.566667,38.3118044 C134.585185,38.3081007 134.612963,38.3081007 134.631481,38.3062489 C134.890741,38.2932859 135.137037,38.2784711 135.37963,38.2618044 C135.405556,38.2581007 135.435185,38.254397 135.459259,38.254397 C137.157407,38.1266192 138.47963,37.8821748 139.022222,37.2303229 C139.924074,35.6599526 140.427778,32.4562489 140.953704,28.2618044 C139.744444,27.9469896 138.52963,27.5877304 137.337037,27.2414341 C137.17963,27.1969896 137.027778,27.154397 136.87037,27.1118044 C136.585185,27.0247674 136.3,26.9432859 136.02037,26.8655081 C135.503704,26.7192118 134.992593,26.5747674 134.490741,26.4488415 C134.168519,26.4581007 133.855556,26.4747674 133.557407,26.4932859 C133.5,26.4969896 133.442593,26.5006933 133.383333,26.5062489 C133.15,26.5229155 132.92037,26.5432859 132.7,26.5655081 C132.659259,26.5729155 132.609259,26.5729155 132.562963,26.5766192 L132.562963,26.5803229 C126.224074,27.2321748 125.387037,29.8525452 122.635185,29.5988415 C122.122222,29.5599526 120.764815,29.404397 119.777778,28.0692118 C119.325926,28.11736 118.827778,28.1562489 118.27963,28.16736 C115.581481,28.2488415 111.657407,27.8692118 108.268519,24.8099526 C117.057407,26.8988415 118.638889,19.6081007 124.801852,18.6951378 C124.922222,18.6636563 125.042593,18.6414341 125.155556,18.6192118 C125.075926,18.3247674 125.035185,17.9692118 125.046296,17.5377304 C125.12963,15.6432859 126.890741,14.0710637 127.827778,14.1081007 C128.148148,13.3766192 128.564815,12.4803229 129.288889,11.4506933 C129.138889,12.4969896 129.044444,13.5155081 129.090741,14.2358785 C129.701852,14.4729155 130.172222,15.1747674 130.146296,15.8766192 C127.107407,12.86736 125.083333,19.6803229 128.487037,18.0506933 C128.614815,18.0340266 128.753704,18.0951378 128.927778,18.1914341 C128.938889,18.1988415 128.948148,18.204397 128.961111,18.2099526 C129.096296,18.2951378 129.259259,18.4025452 129.440741,18.5284711 C129.477778,18.5506933 129.514815,18.5747674 129.553704,18.6006933 C129.590741,18.6229155 129.625926,18.6451378 129.666667,18.6729155 C129.714815,18.704397 129.764815,18.7340266 129.814815,18.7636563 C129.851852,18.7858785 129.890741,18.8099526 129.92963,18.8358785 C129.985185,18.8655081 130.038889,18.8969896 130.1,18.9303229 C130.138889,18.9488415 130.177778,18.9710637 130.218519,18.9951378 C130.283333,19.0303229 130.353704,19.0599526 130.422222,19.0932859 C130.461111,19.1136563 130.5,19.1321748 130.540741,19.1506933 C130.65,19.2006933 130.768519,19.2451378 130.888889,19.2914341 C130.901852,19.2951378 130.914815,19.304397 130.927778,19.3062489 C131.038889,19.3451378 131.15,19.3821748 131.268519,19.4136563 C131.314815,19.4303229 131.362963,19.4395822 131.409259,19.454397 C131.5,19.4766192 131.596296,19.5006933 131.690741,19.5192118 C131.75,19.5340266 131.805556,19.5432859 131.861111,19.5525452 C131.955556,19.56736 132.053704,19.5840266 132.15,19.5951378 C132.212963,19.6025452 132.27963,19.6062489 132.346296,19.6136563 C132.448148,19.6229155 132.548148,19.6321748 132.657407,19.6358785 C132.722222,19.6395822 132.790741,19.6377304 132.859259,19.6377304 C132.97963,19.6377304 133.101852,19.6340266 133.227778,19.6321748 C133.290741,19.6266192 133.351852,19.6284711 133.416667,19.6210637 C133.605556,19.6081007 133.809259,19.5858785 134.012963,19.5562489 C135.205556,19.3747674 135.592593,18.5321748 135.557407,17.8340266 C138.057407,18.6192118 135.796296,13.4395822 135.424074,15.3747674 C134.592593,12.9747674 133.962963,11.4451378 132.418519,8.76180443 C132.612963,8.57476739 132.788889,8.39328591 132.968519,8.22661924 C132.972222,8.22106369 132.97963,8.21180443 132.985185,8.20624887 C133.066667,8.12661924 133.148148,8.05254517 133.231481,7.97476739 C133.238889,7.96921183 133.248148,7.95995257 133.257407,7.95624887 C133.435185,7.7895822 133.62037,7.62661924 133.814815,7.46365628 C133.82037,7.45810072 133.82963,7.45439702 133.835185,7.44884146 C133.924074,7.37847109 134.009259,7.30810072 134.1,7.2358785 C134.12963,7.21550813 134.157407,7.19143406 134.187037,7.16735998 C134.259259,7.11180443 134.337037,7.05624887 134.418519,6.99698961 C134.455556,6.96921183 134.490741,6.9395822 134.52963,6.91365628 C134.609259,6.85624887 134.692593,6.79884146 134.772222,6.74143406 C135.47037,6.25995257 136.387037,5.71180443 137.724074,4.9858785 C136.362963,6.11365628 135.631481,6.78032294 135.075926,7.39143406 C135.074074,7.39328591 135.074074,7.40069331 135.07037,7.40254517 C134.97037,7.51365628 134.874074,7.62291554 134.783333,7.7321748 C134.77037,7.74884146 134.755556,7.75995257 134.744444,7.77476739 C134.655556,7.88402665 134.568519,7.99143406 134.47963,8.10810072 C134.468519,8.12476739 134.453704,8.14143406 134.444444,8.15439702 C134.355556,8.27106369 134.27037,8.38402665 134.17963,8.50995257 C134.168519,8.52476739 134.155556,8.54143406 134.146296,8.55254517 C134.051852,8.6821748 133.955556,8.81735998 133.853704,8.95810072 C134.874074,10.6877304 135.512963,11.8081007 136.396296,13.6599526 C136.440741,13.6340266 136.483333,13.6192118 136.527778,13.6099526 C137.2,13.4729155 138.296296,15.2636563 138.418519,16.604397 C138.498148,17.4840266 138.490741,18.2062489 138.053704,18.5784711 C138.414815,18.6414341 138.801852,18.7766192 139.222222,18.9988415 C140.235185,19.5451378 141.088889,20.1025452 141.825926,20.6618044 C142.272222,16.7303229 142.714815,10.0581007 142.835185,7.37661924 C142.853704,6.90995257 142.87037,6.3858785 142.885185,5.84698961 C142.044444,5.90069331 141.194444,6.06921183 140.361111,6.31365628 C140.962963,6.65254517 141.422222,7.17476739 142.274074,8.42661924 C141.55,8.30995257 141.342593,8.33402665 140.751852,8.37476739 L139.709259,10.5414341 L134.968519,8.79884146 C134.931481,8.82106369 134.898148,8.84143406 134.862963,8.86365628 C134.998148,8.67847109 135.138889,8.49328591 135.290741,8.30995257 C137.3,5.81550813 140.696296,3.32106369 142.933333,3.41365628 C142.937037,3.24328591 142.940741,3.0858785 142.940741,2.9395822 C139.437037,4.16365628 135.596296,4.78032294 131.424074,4.85624887 C131.322222,4.85810072 131.216667,4.85810072 131.112963,4.85995257 C130.003704,4.87291554 128.87037,4.85069331 127.712963,4.79143406 C127.609259,4.78402665 127.505556,4.77476739 127.401852,4.77291554 C126.238889,4.70439702 125.05,4.60069331 123.838889,4.46180443 C123.735185,4.45254517 123.622222,4.4395822 123.512963,4.42661924 C122.301852,4.28032294 121.068519,4.10439702 119.809259,3.89143406 C119.692593,3.86921183 119.574074,3.85254517 119.455556,3.82847109 C118.205556,3.61365628 116.927778,3.36180443 115.631481,3.08402665 C115.488889,3.05254517 115.348148,3.02291554 115.201852,2.9895822 C114.557407,2.84698961 113.911111,2.70069331 113.255556,2.54513776 C112.061111,2.24884146 111.094444,2.00069331 110.261111,1.77106369 L110.261111,1.77106369 Z M84.5166667,27.154397 C83.4555556,27.1803229 82.387037,27.2229155 81.3111111,27.2988415 C74.5944444,27.754397 67.3759259,29.9247674 62.9925926,35.4155081 C63.362963,33.8118044 63.5944444,32.8229155 64.4777778,31.7914341 C49.8944444,35.1747674 43.5592593,42.8877304 38.3722222,46.1729155 C33.2148148,49.4340266 32.0907407,53.2488415 31.7518519,56.3321748 C31.2611111,60.8340266 32.4574074,64.4210637 35.287037,68.2321748 C35.5240741,67.0840266 35.8148148,65.8932859 36.5740741,64.4155081 C36.5518519,66.9803229 36.7518519,69.06736 37.7314815,71.3377304 C37.6925926,67.2506933 38.0425926,63.8118044 39.4425926,59.9562489 C39.3981481,66.2136563 39.9351852,70.5655081 41.7,76.0155081 C42.7759259,77.3210637 43.9759259,78.7562489 45.0259259,80.054397 C45.6740741,72.7655081 51.8518519,70.1358785 57.4648148,70.7747674 C57.4962963,70.7747674 57.5277778,70.7784711 57.5555556,70.7858785 C57.7555556,70.8062489 57.9518519,70.8321748 58.1481481,70.8655081 C58.1814815,70.8692118 58.2185185,70.8766192 58.2537037,70.8821748 C58.4259259,70.9136563 58.5944444,70.9432859 58.762963,70.9803229 C58.7962963,70.9877304 58.8296296,70.9932859 58.8648148,70.9988415 C59.0574074,71.0432859 59.25,71.0877304 59.4407407,71.1358785 C59.4425926,71.1358785 59.4425926,71.1340266 59.4481481,71.1358785 C60.0388889,71.2914341 60.6518519,71.4840266 61.2592593,71.7395822 C61.0018519,71.7025452 60.6722222,71.6655081 60.3111111,71.6284711 L60.3,71.6284711 C60.0351852,71.5969896 59.7462963,71.5766192 59.4444444,71.5562489 C59.4074074,71.5506933 59.3685185,71.5506933 59.3314815,71.5488415 C59.062963,71.5321748 58.7944444,71.5192118 58.5148148,71.5118044 L58.4888889,71.5118044 C58.2425926,71.5081007 57.9944444,71.5099526 57.7481481,71.5118044 C57.6888889,71.5118044 57.6388889,71.5099526 57.5814815,71.5118044 L57.5055556,71.5118044 C49.7833333,71.7062489 46.1388889,76.3692118 46.5277778,82.5951378 C47.2185185,83.2895822 47.8481481,83.954397 48.8,85.1655081 C48.8555556,83.5618044 49.2203704,81.5969896 49.8814815,80.1025452 C51.3537037,76.7821748 53.2574074,74.6506933 55.8740741,73.9432859 C56.8407407,73.6784711 57.8351852,73.66736 58.7777778,73.7618044 C58.9407407,73.7784711 59.1018519,73.7969896 59.2592593,73.8192118 C59.2944444,73.8247674 59.3296296,73.8321748 59.3648148,73.8340266 C59.5648148,73.8618044 59.7611111,73.8951378 59.9537037,73.9284711 C59.9722222,73.9321748 59.9888889,73.9340266 60.0037037,73.9395822 C60.1777778,73.9710637 60.35,74.004397 60.5148148,74.0358785 C60.5722222,74.0451378 60.6259259,74.0581007 60.6814815,74.0692118 C60.8111111,74.0969896 60.9351852,74.1247674 61.0611111,74.1451378 C61.4333333,74.2284711 61.7833333,74.2988415 62.0981481,74.3506933 C62.1333333,74.3562489 62.1666667,74.3618044 62.1962963,74.3655081 C62.3074074,74.3840266 62.4148148,74.3988415 62.5148148,74.4136563 C62.55,74.4155081 62.5814815,74.4210637 62.612963,74.4229155 C62.7388889,74.4377304 62.8611111,74.4414341 62.9703704,74.4414341 C63.8518519,74.4303229 64.5055556,74.3599526 65.3111111,74.2784711 C61.3481481,70.9636563 59.8537037,66.7655081 57.5333333,62.0321748 C57.4777778,61.9840266 57.4185185,61.9395822 57.3611111,61.8914341 C57.0981481,61.6710637 56.8314815,61.4618044 56.5648148,61.2506933 C56.4574074,61.1692118 56.3555556,61.0932859 56.25,61.0118044 C55.9962963,60.8210637 55.7388889,60.6303229 55.4796296,60.4451378 C55.3944444,60.3858785 55.3092593,60.3229155 55.2259259,60.2636563 C54.887037,60.0266192 54.5388889,59.7914341 54.1925926,59.5692118 C54.1296296,59.5321748 54.0703704,59.4969896 54.0074074,59.4562489 C53.7203704,59.2766192 53.4277778,59.1006933 53.1314815,58.9284711 C53.0814815,58.8969896 53.0277778,58.8636563 52.9722222,58.8321748 L52.9722222,58.8377304 C49.9388889,57.1006933 46.6537037,55.9710637 43.1240741,55.6562489 C44.2240741,55.2877304 45.2425926,55.0710637 46.2240741,54.9784711 C46.2740741,54.9729155 46.3240741,54.9636563 46.3759259,54.9618044 C46.637037,54.9377304 46.8981481,54.9303229 47.1574074,54.9247674 C47.25,54.9229155 47.3388889,54.9210637 47.4277778,54.9210637 C47.6666667,54.9210637 47.9055556,54.9303229 48.1444444,54.9469896 C48.2351852,54.954397 48.3277778,54.9618044 48.4166667,54.9692118 C48.6759259,54.9895822 48.937037,55.0192118 49.1962963,55.0581007 C49.2555556,55.06736 49.3148148,55.0747674 49.3703704,55.0840266 C49.6759259,55.1321748 49.9833333,55.1951378 50.2925926,55.2618044 C50.3037037,55.2636563 50.312963,55.2636563 50.3259259,55.2692118 C50.6592593,55.3432859 51,55.4284711 51.3425926,55.5247674 C51.4259259,55.2618044 51.4481481,54.8599526 51.4185185,54.3895822 C51.3925926,53.8895822 51.3092593,53.3284711 51.1759259,52.7395822 C51.1092593,52.4321748 51.0333333,52.1192118 50.9407407,51.8247674 C52.6092593,53.0062489 53.737037,55.1803229 54.2888889,56.6358785 C56.2018519,57.5321748 58.1092593,58.7636563 59.9759259,60.2784711 C62.2962963,59.4229155 65.55,58.0081007 67.4666667,56.3321748 C67.3925926,55.9840266 67.3314815,55.6266192 67.2777778,55.2692118 C67.2648148,55.16736 67.25,55.06736 67.2388889,54.9692118 C67.1981481,54.6858785 67.1666667,54.3969896 67.137037,54.1081007 C67.1296296,54.0155081 67.1203704,53.9284711 67.1111111,53.8358785 C67.0814815,53.4655081 67.0537037,53.0951378 67.0351852,52.7229155 C67.0333333,52.6506933 67.0314815,52.5840266 67.0277778,52.5118044 C67.0166667,52.2006933 67.0092593,51.8877304 67.0074074,51.5729155 C66.9740741,48.304397 67.4203704,45.0562489 67.9259259,43.0766192 C69.1907407,52.8988415 72.112963,62.1284711 77.2574074,69.2840266 C80.8814815,61.5432859 83.1203704,47.0284711 84.5296296,34.6025452 C84.7425926,32.7192118 85.0722222,30.56736 84.862963,28.6006933 C84.837037,28.354397 84.7055556,27.804397 84.5166667,27.154397 L84.5166667,27.154397 Z M99.8740741,28.1025452 C99.2666667,29.8488415 100.016667,33.9858785 100.488889,36.3488415 C101.555556,41.6951378 102.690741,48.2081007 102.896296,52.8377304 C102.994444,55.1081007 103.027778,57.4988415 102.585185,60.9766192 C102.194444,64.0525452 100.855556,68.2155081 99.1203704,71.5525452 C103.509259,71.0581007 110.392593,69.7766192 115.777778,67.1858785 C122.703704,63.8581007 127.335185,59.054397 130.15,54.8488415 C125.055556,58.0618044 119.857407,59.9877304 113.353704,61.2766192 C118.67037,59.0192118 124.088889,56.7414341 128.685185,52.8951378 C132.02037,50.1081007 133.894444,47.7414341 134.638889,45.5469896 C132.946296,46.2988415 132.192593,46.3414341 129.448148,46.4895822 C129.164815,46.5062489 128.87963,46.5155081 128.594444,46.5229155 C128.47037,46.5247674 128.344444,46.5266192 128.222222,46.5266192 C128.061111,46.5266192 127.901852,46.5321748 127.740741,46.5266192 C127.6,46.5247674 127.461111,46.51736 127.322222,46.5155081 C127.177778,46.5136563 127.033333,46.5099526 126.888889,46.504397 C126.746296,46.4988415 126.605556,46.4932859 126.461111,46.4840266 C126.32037,46.4766192 126.177778,46.46736 126.035185,46.4581007 C125.898148,46.4469896 125.759259,46.4377304 125.625926,46.4247674 C125.475926,46.4118044 125.322222,46.3988415 125.17037,46.3821748 C125.048148,46.36736 124.927778,46.3581007 124.807407,46.3451378 C124.625926,46.3229155 124.438889,46.3006933 124.259259,46.2766192 C124.17037,46.26736 124.083333,46.2581007 123.998148,46.2451378 C123.440741,46.1710637 122.896296,46.0821748 122.362963,45.9840266 C122.362963,45.9840266 122.361111,45.9766192 122.355556,45.9766192 C120.698148,45.6692118 119.174074,45.2618044 117.877778,44.8414341 C108.388889,41.7506933 101.985185,35.3432859 99.8740741,28.1025452 L99.8740741,28.1025452 Z M156.442593,35.9729155 C156.303704,36.1155081 156.162963,36.2581007 156.014815,36.4136563 C155.587037,36.8469896 154.862963,37.8210637 154.648148,38.0840266 C151.766667,41.5247674 150.65,47.8284711 149.942593,51.7136563 C148.751852,58.2803229 147.475926,65.4932859 147.727778,72.0988415 C151.607407,68.5932859 154.768519,64.3895822 156.87963,59.2969896 C157.518519,62.9692118 156.661111,67.0081007 153.605556,72.46736 C152.855556,78.51736 150.455556,84.8729155 147.977778,87.7803229 C148.214815,93.3784711 149.203704,98.104397 151.381481,100.256249 C151.483333,100.359953 151.603704,100.459953 151.737037,100.552545 C151.757407,100.569212 151.777778,100.584027 151.801852,100.598841 C151.933333,100.689582 152.074074,100.771064 152.231481,100.856249 C152.257407,100.869212 152.27963,100.884027 152.307407,100.895138 C152.475926,100.978471 152.657407,101.06736 152.853704,101.145138 C152.861111,101.14699 152.87037,101.148841 152.875926,101.152545 C153.055556,101.224767 153.246296,101.293286 153.45,101.358101 C153.587037,101.402545 153.733333,101.443286 153.881481,101.485878 C153.948148,101.504397 154.012963,101.524767 154.07963,101.543286 C154.261111,101.591434 154.446296,101.639582 154.637037,101.680323 C154.677778,101.691434 154.722222,101.700693 154.762963,101.709953 C154.97963,101.758101 155.201852,101.802545 155.437037,101.84699 C155.451852,101.852545 155.466667,101.856249 155.483333,101.861804 C155.672222,101.89699 155.866667,101.930323 156.064815,101.963656 C156.248148,101.993286 156.435185,102.021064 156.622222,102.048841 C156.62963,102.048841 156.637037,102.048841 156.644444,102.052545 L156.648148,102.052545 C156.677778,102.056249 156.703704,102.059953 156.738889,102.06736 L156.742593,102.06736 L156.746296,102.06736 C157.157407,102.130323 157.583333,102.184027 158.02963,102.234027 C158.042593,102.234027 158.055556,102.241434 158.064815,102.241434 C158.083333,102.243286 158.103704,102.239582 158.12037,102.245138 C158.351852,102.271064 158.596296,102.29699 158.838889,102.321064 C158.985185,102.335878 159.122222,102.354397 159.274074,102.36736 L159.285185,102.36736 L159.292593,102.36736 C159.353704,102.371064 159.418519,102.378471 159.483333,102.385879 L159.490741,102.385879 C159.551852,102.391434 159.616667,102.395138 159.67963,102.400693 C159.72963,102.408101 159.792593,102.411804 159.844444,102.419212 C159.866667,102.419212 159.881481,102.415508 159.9,102.419212 C160.101852,102.434027 160.309259,102.458101 160.518519,102.472916 L160.525926,102.472916 C160.640741,102.484027 160.740741,102.493286 160.861111,102.502545 L160.864815,102.502545 C160.948148,102.508101 161.038889,102.509953 161.122222,102.515508 C161.142593,102.521064 161.162963,102.521064 161.183333,102.522916 C161.240741,102.528471 161.3,102.530323 161.361111,102.534027 C161.37037,102.535879 161.375926,102.53773 161.381481,102.53773 L161.4,102.53773 C161.52037,102.54699 161.646296,102.550693 161.766667,102.563656 C162.101852,102.585879 162.435185,102.609953 162.781481,102.628471 C163.188889,102.650693 163.603704,102.676619 164.02963,102.700693 L164.055556,102.700693 C164.603704,102.728471 165.164815,102.756249 165.740741,102.780323 C165.777778,102.782175 165.82037,102.78773 165.859259,102.78773 C166.409259,102.809953 166.972222,102.835879 167.546296,102.856249 L167.614815,102.856249 C168.188889,102.878471 168.774074,102.895138 169.368519,102.921064 C169.487037,102.922916 169.605556,102.928471 169.725926,102.935879 C170.3,102.954397 170.87963,102.974767 171.477778,102.993286 C171.218519,102.195138 171.011111,101.530323 170.866667,101.000693 C170.85,100.941434 170.831481,100.882175 170.814815,100.822916 C170.775926,100.678471 170.742593,100.535879 170.718519,100.415508 L170.711111,100.415508 C168.72037,92.4266192 170.42037,84.7099526 176.074074,84.4784711 C173.231481,85.3562489 169.335185,89.9340266 172.183333,100.515508 L172.172222,100.515508 C172.324074,101.071064 172.52037,101.730323 172.75,102.443286 C172.768519,102.502545 172.788889,102.558101 172.803704,102.61736 C172.924074,102.974767 173.048148,103.343286 173.187037,103.732175 C174.685185,103.871064 175.388889,103.871064 176.796296,103.930323 C176.851852,103.81736 176.925926,103.652545 177.018519,103.474767 C177.185185,103.130323 177.388889,102.730323 177.481481,102.522916 C177.37037,102.282175 177.240741,102.032175 177.111111,101.782175 C177.074074,101.702545 177.037037,101.621064 177,101.539582 C176.907407,101.372916 176.833333,101.211804 176.759259,101.04699 C175.166667,97.7562489 173.761111,93.9321748 174.814815,90.5655081 C175.648148,87.904397 177.296296,84.5599526 181.185185,84.0118044 C181,83.9710637 180.537037,83.8599526 180.111111,83.7488415 C176.333333,82.8062489 172.566667,81.9488415 170.757407,81.4506933 C164.768519,81.0099526 161.37037,81.7747674 156.405556,86.2155081 C156.516667,85.8877304 156.640741,85.5766192 156.77037,85.2784711 C156.77963,85.2599526 156.785185,85.2395822 156.792593,85.2210637 C156.92037,84.9340266 157.055556,84.6562489 157.194444,84.3914341 C157.212963,84.3581007 157.231481,84.3210637 157.248148,84.2877304 C157.387037,84.0377304 157.527778,83.7969896 157.677778,83.56736 C157.705556,83.5210637 157.735185,83.4821748 157.764815,83.4414341 C157.894444,83.2469896 158.02963,83.0618044 158.17037,82.8840266 C158.222222,82.8136563 158.272222,82.7506933 158.325926,82.6803229 C158.448148,82.5377304 158.577778,82.3895822 158.705556,82.2506933 C158.77037,82.1784711 158.835185,82.1025452 158.905556,82.0340266 C159.038889,81.8951378 159.181481,81.7618044 159.324074,81.6321748 C159.409259,81.5562489 159.494444,81.4803229 159.577778,81.4081007 C159.716667,81.2914341 159.859259,81.1710637 160.007407,81.0599526 C160.096296,80.9932859 160.183333,80.9284711 160.275926,80.8655081 C160.425926,80.7581007 160.583333,80.654397 160.738889,80.5581007 C160.82037,80.504397 160.903704,80.4581007 160.985185,80.4099526 C161.155556,80.3025452 161.333333,80.2062489 161.516667,80.1136563 C161.574074,80.0803229 161.631481,80.0488415 161.696296,80.0192118 C161.9,79.9192118 162.109259,79.8229155 162.314815,79.7303229 C162.355556,79.7136563 162.392593,79.7025452 162.427778,79.6858785 C162.666667,79.5877304 162.901852,79.4932859 163.148148,79.4081007 C163.159259,79.4062489 163.177778,79.3988415 163.194444,79.3969896 C163.455556,79.304397 163.716667,79.2229155 163.990741,79.1469896 C163.996296,79.1432859 164.005556,79.1432859 164.014815,79.1395822 C164.287037,79.0655081 164.559259,78.9969896 164.840741,78.9340266 C164.851852,78.9321748 164.87037,78.9284711 164.887037,78.9229155 C165.155556,78.8599526 165.427778,78.8099526 165.701852,78.7636563 C165.725926,78.7618044 165.748148,78.7562489 165.774074,78.7525452 C166.046296,78.7062489 166.324074,78.6655081 166.601852,78.6303229 C166.637037,78.6247674 166.666667,78.6247674 166.7,78.6192118 C166.983333,78.5840266 167.27037,78.554397 167.559259,78.5284711 L167.562963,78.5284711 C167.514815,78.4062489 167.466667,78.2840266 167.411111,78.1710637 C167.377778,78.0969896 167.337037,78.0284711 167.296296,77.9581007 C167.251852,77.8784711 167.207407,77.7988415 167.159259,77.7303229 C167.133333,77.6858785 167.107407,77.6432859 167.07963,77.5988415 C166.974074,77.454397 166.868519,77.3155081 166.753704,77.1840266 L166.742593,77.1692118 C166.462963,76.8469896 166.146296,76.5692118 165.82037,76.3340266 C165.790741,76.3099526 165.761111,76.2932859 165.733333,76.2747674 C165.583333,76.1692118 165.42963,76.0710637 165.277778,75.9784711 C165.212963,75.9414341 165.144444,75.9081007 165.075926,75.8710637 C164.927778,75.7914341 164.774074,75.7155081 164.625926,75.6506933 C164.55,75.6155081 164.474074,75.5803229 164.394444,75.5451378 C164.162963,75.4525452 163.938889,75.3710637 163.72963,75.3062489 C164.064815,75.2414341 164.385185,75.2025452 164.696296,75.1877304 C165.624074,75.1321748 166.442593,75.2692118 167.125926,75.4655081 C167.125926,75.4655081 167.127778,75.4636563 167.133333,75.4692118 C167.238889,75.4969896 167.338889,75.5321748 167.440741,75.56736 C167.5,75.5877304 167.561111,75.6081007 167.622222,75.6321748 C167.698148,75.6581007 167.768519,75.6858785 167.835185,75.7118044 C167.912963,75.7432859 167.985185,75.7729155 168.055556,75.8062489 C168.155556,75.8432859 168.244444,75.8895822 168.337037,75.9321748 C168.414815,75.9692118 168.490741,76.004397 168.561111,76.0432859 C168.638889,76.0840266 168.716667,76.1210637 168.792593,76.1636563 C168.875926,76.2099526 168.955556,76.2506933 169.035185,76.2969896 C169.1,76.3358785 169.166667,76.3766192 169.231481,76.4136563 C169.312963,76.4618044 169.394444,76.5118044 169.477778,76.5655081 C169.537037,76.604397 169.598148,76.6414341 169.657407,76.6803229 C169.737037,76.7340266 169.814815,76.7858785 169.888889,76.8395822 C169.953704,76.8821748 170.016667,76.9284711 170.077778,76.9692118 C170.146296,77.0210637 170.212963,77.0655081 170.27963,77.1155081 C170.362963,77.1747674 170.440741,77.2321748 170.518519,77.2914341 C170.564815,77.3266192 170.605556,77.3599526 170.651852,77.3932859 C170.896296,77.5821748 171.133333,77.76736 171.353704,77.9432859 C171.607407,76.3581007 171.757407,74.1303229 171.766667,71.754397 C171.77963,68.6988415 171.564815,65.4081007 171.046296,62.9321748 C170.52037,63.6581007 169.987037,64.1951378 167.888889,65.5469896 C170.027778,61.7840266 170.87963,57.4451378 170.807407,53.16736 C170.783333,51.6099526 170.631481,50.0581007 170.381481,48.5525452 C170.32037,48.1747674 170.253704,47.7969896 170.175926,47.4266192 C169.740741,45.2581007 168.727778,43.4247674 166.764815,41.304397 C164.996296,39.3969896 161.109259,37.5747674 156.442593,35.9729155 L156.442593,35.9729155 Z M68.3592593,60.2525452 C66.5092593,61.4803229 64.6388889,62.4025452 62.2222222,63.3488415 C64.0981481,67.1747674 64.8907407,69.3155081 69.0944444,72.7599526 C69.5796296,72.7136563 70.0703704,72.7321748 70.5259259,72.8062489 C70.4259259,69.9692118 70.287037,67.1562489 70.1240741,64.3618044 C69.8555556,63.8062489 68.8240741,61.5469896 68.3592593,60.2525452 L68.3592593,60.2525452 Z M74.1074074,70.5469896 C74.1277778,70.9266192 74.1388889,71.3210637 74.1574074,71.7081007 C74.1833333,72.3506933 74.2074074,73.0284711 74.2333333,73.7506933 C74.2351852,73.7432859 74.2425926,73.7395822 74.2481481,73.7321748 C74.3222222,73.6710637 74.3907407,73.6025452 74.4648148,73.5377304 C74.5092593,73.4932859 74.5574074,73.454397 74.6018519,73.4118044 C74.6962963,73.3210637 74.787037,73.2284711 74.8777778,73.1284711 C74.8981481,73.1081007 74.9240741,73.0840266 74.9425926,73.0636563 C75.162963,72.8192118 75.3685185,72.5618044 75.5722222,72.2784711 C75.0444444,71.7395822 74.5537037,71.1636563 74.1074074,70.5469896 L74.1074074,70.5469896 Z M149.414815,75.2229155 C149.012963,75.5488415 148.592593,75.86736 148.166667,76.1747674 C148.275926,76.6932859 148.390741,77.1932859 148.527778,77.6821748 C148.581481,77.86736 148.637037,78.0506933 148.701852,78.2358785 C149.074074,77.2192118 149.281481,76.2895822 149.414815,75.2229155 Z M57.7981481,76.2506933 C56.7092593,76.2414341 55.737037,76.5155081 54.7777778,77.3469896 C52.1351852,79.6247674 51.1518519,84.0284711 51.2037037,84.9821748 C51.4111111,88.5840266 53.4740741,91.4729155 54.4555556,93.0914341 C55.1018519,94.1562489 56.0666667,99.8414341 57.4333333,101.604397 C59.35,104.076619 64.9092593,108.534027 66.7351852,108.621064 C66.8555556,108.628471 67.3185185,108.578471 67.9537037,108.461804 C68.9111111,108.291434 70.2666667,107.961804 71.4888889,107.428471 C72.6351852,106.922916 73.6666667,106.241434 74.1314815,105.330323 C71.9388889,105.563656 69.5074074,105.485878 67.9574074,105.254397 C66.1611111,104.984027 64.0740741,103.834027 62.5944444,102.324767 C64.762963,103.100693 65.7407407,103.68773 68.2222222,104.161804 C69.7148148,104.450693 72.0185185,104.480323 74.3166667,104.298841 C74.837037,103.848841 75.2055556,103.395138 75.462963,102.939582 C72.762963,102.928471 66.0740741,102.304397 63.6722222,99.7932859 C66.0722222,100.530323 70.5555556,101.515508 73.6444444,101.748841 C73.6166667,101.521064 73.5907407,101.280323 73.5611111,101.050693 C73.0259259,101.021064 72.5333333,100.941434 72.1037037,100.806249 C70.8,100.395138 69.8314815,99.8562489 69.0462963,99.4340266 C66.3759259,97.9951378 64.6037037,96.4340266 63.8555556,94.804397 C66.1148148,96.4895822 69.3592593,98.6988415 72.3092593,99.8006933 C72.6222222,99.9136563 73.0055556,99.9914341 73.4333333,100.032175 C73.3777778,99.6247674 73.3203704,99.2192118 73.25,98.8155081 C73.0277778,97.6284711 72.7111111,96.3525452 71.8925926,95.4266192 L71.9,95.4266192 C70.05,93.6284711 68.8944444,90.9284711 68.0444444,89.4229155 C67.5703704,87.2729155 67.0037037,85.4432859 67.3611111,83.6932859 C67.4925926,83.0266192 67.9296296,81.6506933 68.787037,80.2006933 C68.9037037,78.6451378 68.4240741,78.4192118 68.0740741,77.9432859 C67.8833333,77.6858785 67.3462963,77.3414341 67.1907407,76.7136563 C65.8018519,76.6581007 63.5518519,77.2562489 61.5277778,76.8432859 C60.0925926,76.5488415 58.887037,76.2581007 57.7981481,76.2506933 L57.7981481,76.2506933 Z M187.240741,86.4247674 C185.814815,86.4506933 184.407407,86.6821748 182.962963,86.5229155 C179.925926,86.1840266 178.259259,87.904397 177.148148,91.6692118 C176.537037,93.7247674 177.925926,97.5284711 178.592593,98.9969896 C178.962963,99.8136563 179.314815,100.53773 179.685185,101.198841 C179.944444,100.71736 180.851852,99.1488415 180.851852,99.1488415 C180.62963,97.7692118 180.962963,96.5858785 182.462963,95.9655081 C182.685185,95.8710637 182.925926,95.8451378 183.185185,95.8284711 C183.166667,95.6784711 183.148148,95.5377304 183.148148,95.4081007 C183.148148,95.2784711 183.166667,95.1562489 183.166667,95.0321748 C183.037037,95.0692118 182.888889,95.1006933 182.740741,95.1266192 C182.722222,95.1284711 182.685185,95.1340266 182.666667,95.1414341 C182.62963,95.1451378 182.592593,95.154397 182.537037,95.1562489 C182.5,95.1655081 182.444444,95.1710637 182.37037,95.1766192 C182.37037,95.1766192 182.351852,95.1766192 182.351852,95.1803229 C182.111111,95.2025452 181.851852,95.21736 181.592593,95.2025452 C181.574074,95.2025452 181.555556,95.1951378 181.555556,95.1951378 C181.481481,95.1932859 181.407407,95.1877304 181.333333,95.1803229 C181.314815,95.1766192 181.277778,95.1729155 181.259259,95.1710637 C181.185185,95.1636563 181.148148,95.154397 181.092593,95.1451378 C181.037037,95.1395822 181,95.1284711 180.962963,95.1192118 C180.925926,95.1099526 180.888889,95.104397 180.833333,95.0951378 C180.796296,95.0803229 180.740741,95.0710637 180.703704,95.054397 C180.666667,95.0432859 180.62963,95.0321748 180.611111,95.0210637 C180.555556,95.0006933 180.5,94.9821748 180.462963,94.9636563 C180.425926,94.9451378 180.388889,94.9377304 180.351852,94.9210637 C180.314815,94.9025452 180.277778,94.8784711 180.240741,94.8562489 C180.203704,94.8321748 180.166667,94.8118044 180.12963,94.7840266 C180.092593,94.7655081 180.074074,94.7432859 180.037037,94.7210637 C180,94.6877304 179.962963,94.6525452 179.907407,94.6136563 C179.888889,94.5969896 179.87037,94.5803229 179.851852,94.5618044 C179.814815,94.5099526 179.759259,94.454397 179.722222,94.3969896 C179.722222,94.3877304 179.722222,94.3803229 179.703704,94.3710637 C179.648148,94.2988415 179.611111,94.2210637 179.574074,94.1395822 C181.981481,94.8914341 183.740741,92.5432859 186.388889,91.6840266 C186.592593,91.6321748 186.777778,91.6247674 186.981481,91.6229155 C188.759259,91.6469896 189.407407,93.4655081 189.851852,94.7284711 C190.666667,97.0118044 191.833333,99.4840266 193.796296,99.0506933 C194.074074,98.9858785 194.333333,98.9118044 194.537037,98.8266192 C194.555556,98.8192118 194.555556,98.8118044 194.574074,98.804397 C194.62963,98.7840266 194.685185,98.7636563 194.740741,98.7358785 C195.277778,98.4747674 195.518519,98.1192118 195.62963,97.6377304 C195.666667,97.4358785 195.685185,97.21736 195.703704,96.9710637 C195.703704,96.86736 195.703704,96.7581007 195.685185,96.6488415 C195.685185,96.5877304 195.685185,96.5284711 195.666667,96.4655081 C195.666667,96.4136563 195.666667,96.3618044 195.648148,96.3062489 C195.648148,96.2803229 195.648148,96.2525452 195.62963,96.2266192 C195.611111,96.0395822 195.574074,95.8414341 195.518519,95.6395822 C195.425926,95.5710637 195.333333,95.5099526 195.240741,95.4525452 C195.222222,95.4377304 195.185185,95.4266192 195.166667,95.4081007 C195.092593,95.3747674 195.037037,95.3414341 194.962963,95.3118044 C194.925926,95.2951378 194.87037,95.2784711 194.833333,95.2636563 C194.796296,95.2414341 194.740741,95.2266192 194.685185,95.2062489 C194.62963,95.1932859 194.592593,95.1803229 194.537037,95.16736 C194.5,95.1525452 194.444444,95.1432859 194.388889,95.1340266 C194.351852,95.1266192 194.314815,95.1118044 194.277778,95.1081007 L194.277778,95.1155081 C193.259259,94.9581007 192.185185,95.3210637 191.5,95.7377304 C191.981481,94.6469896 193.037037,94.2395822 194.092593,94.2914341 C194.12963,94.2914341 194.148148,94.2895822 194.166667,94.2951378 C194.240741,94.2969896 194.314815,94.304397 194.37037,94.3099526 C194.407407,94.3155081 194.462963,94.3247674 194.5,94.3303229 C194.537037,94.3377304 194.592593,94.3432859 194.62963,94.3525452 C194.722222,94.3692118 194.796296,94.3877304 194.888889,94.4099526 C194.888889,94.4136563 194.888889,94.4099526 194.907407,94.4099526 C195,94.4358785 195.092593,94.4655081 195.166667,94.4932859 C195.092593,94.2599526 195.018519,94.0395822 194.962963,93.8321748 C194.925926,93.7469896 194.907407,93.6599526 194.888889,93.5710637 C194.814815,93.3340266 194.740741,93.1099526 194.685185,92.8988415 C194.666667,92.804397 194.648148,92.7118044 194.62963,92.61736 C194.592593,92.51736 194.574074,92.4192118 194.555556,92.3210637 C194.537037,92.1951378 194.518519,92.0655081 194.5,91.9395822 L194.462963,91.7451378 C194.351852,90.9506933 194.351852,90.2655081 194.37037,89.6914341 C194.37037,89.3729155 194.37037,89.0099526 194.333333,88.6932859 C194.333333,88.6303229 194.314815,88.5710637 194.296296,88.5155081 C194.296296,88.4784711 194.296296,88.4469896 194.277778,88.4136563 C194.259259,88.3636563 194.240741,88.3136563 194.222222,88.2692118 C194.203704,88.1932859 194.166667,88.1229155 194.111111,88.0710637 C192.425926,87.1321748 190.296296,86.6821748 188.666667,86.4895822 C188.185185,86.4303229 187.722222,86.4192118 187.240741,86.4284711 L187.240741,86.4247674 L187.240741,86.4247674 Z M144.672222,92.2469896 C143.940741,93.5229155 143.275926,94.7506933 142.646296,95.9506933 L138.638889,103.269212 L149.272222,103.269212 C147.02963,101.41736 145.8,98.1618044 145.142593,95.0655081 C144.933333,94.0932859 144.77963,93.1395822 144.672222,92.2469896 Z M186.259259,93.6081007 C186.037037,93.5895822 185.833333,93.6099526 185.648148,93.6618044 C184.259259,94.0395822 184.185185,95.2525452 184.481481,96.2618044 C185.055556,96.2581007 185.462963,96.7081007 185.759259,97.2821748 C186.166667,97.5192118 186.481481,97.5692118 187.092593,97.6414341 C186.851852,97.8581007 186.444444,98.0747674 186.12963,98.1210637 C186.333333,98.6655081 186.481481,99.1932859 186.648148,99.4858785 C186.944444,100.043286 188.833333,101.898841 190.444444,103.098841 C190.444444,103.109953 190.462963,103.124767 190.5,103.13773 C190.518519,103.163656 190.555556,103.191434 190.592593,103.213656 C190.666667,103.272916 190.759259,103.332175 190.833333,103.38773 C190.87037,103.413656 190.907407,103.439582 190.944444,103.46736 C191.018519,103.515508 191.092593,103.558101 191.166667,103.604397 C191.203704,103.630323 191.240741,103.654397 191.277778,103.676619 C191.388889,103.741434 191.481481,103.800693 191.574074,103.854397 C192.481481,104.343286 193.777778,104.11736 194.481481,104.050693 C193.537037,104.702545 192.240741,104.904397 191.351852,104.791434 C190.407407,104.530323 186.444444,101.241434 185.814815,99.8581007 C185.481481,99.1266192 185.185185,98.2025452 185.037037,97.8655081 C184.648148,96.9636563 183.333333,96.9229155 182.87037,97.0877304 C181.592593,97.5321748 181.962963,98.9210637 182.314815,100.035878 C182.796296,100.313656 183.611111,100.485878 184.277778,100.526619 C184.018519,100.728471 183.12963,100.956249 182.555556,100.878471 C183.166667,102.365508 184.259259,103.735878 185.222222,104.772916 C186.574074,104.19699 187.944444,104.841434 189.259259,105.593286 C189.314815,105.628471 189.37037,105.66736 189.444444,105.702545 C189.722222,105.871064 190.018519,106.043286 190.296296,106.206249 C190.333333,106.230323 190.37037,106.24699 190.407407,106.271064 C190.5,106.326619 190.611111,106.376619 190.703704,106.426619 C190.740741,106.456249 190.796296,106.482175 190.851852,106.513656 C190.925926,106.550693 191.018519,106.591434 191.092593,106.628471 C191.148148,106.658101 191.222222,106.685878 191.277778,106.711804 C191.351852,106.74699 191.407407,106.776619 191.481481,106.802545 C191.555556,106.832175 191.62963,106.858101 191.703704,106.878471 C191.759259,106.898841 191.796296,106.924767 191.851852,106.935878 C191.981481,106.974767 192.111111,107.002545 192.222222,107.019212 C192.592593,107.080323 193.259259,106.784027 193.62963,106.404397 C193.592593,106.522916 193.555556,106.635878 193.518519,106.745138 C193.481481,106.828471 193.425926,106.908101 193.388889,106.985878 C193.388889,107.004397 193.37037,107.028471 193.351852,107.045138 C193.277778,107.193286 193.166667,107.311804 193.037037,107.428471 C192.888889,107.576619 192.722222,107.702545 192.518519,107.771064 C192.5,107.785878 192.462963,107.804397 192.425926,107.811804 C192.259259,107.86736 192.074074,107.880323 191.888889,107.850693 C191.518519,107.791434 191.111111,107.624767 190.703704,107.428471 C189.166667,106.684027 187.462963,105.341434 186.555556,105.861804 C185.12963,106.704397 185.592593,107.959953 186.777778,109.091434 C187.351852,109.191434 187.907407,109.111804 188.759259,108.734027 C188.5,109.213656 188.222222,109.550693 187.592593,109.778471 C187.833333,109.952545 188.092593,110.098841 188.333333,110.259953 C189.722222,111.139582 191.314815,111.785878 192.240741,111.765508 C193.925926,111.734027 194.851852,109.99699 194.5,108.509953 C194.388889,108.115508 194.333333,107.763656 194.277778,107.428471 C194.018519,105.771064 194.333333,104.695138 195.87037,103.535878 C195.703704,103.471064 195.537037,103.38773 195.37037,103.304397 C195.333333,103.276619 195.277778,103.248841 195.222222,103.221064 C195.111111,103.154397 194.981481,103.076619 194.87037,103.000693 C194.814815,102.971064 194.777778,102.93773 194.722222,102.909953 C194.574074,102.804397 194.407407,102.695138 194.259259,102.578471 C194.203704,102.53773 194.148148,102.493286 194.092593,102.454397 C194,102.36736 193.888889,102.280323 193.759259,102.191434 C193.703704,102.135878 193.648148,102.078471 193.574074,102.021064 C193.481481,101.932175 193.37037,101.845138 193.277778,101.748841 C193.185185,101.674767 193.092593,101.593286 193.018519,101.513656 C192.518519,101.04699 192.055556,100.54699 191.611111,100.048841 C191.259259,99.8618044 190.944444,99.6062489 190.62963,99.2747674 C189.648148,98.2062489 188.962963,96.4895822 188.351852,95.1562489 C188.296296,95.0562489 188.259259,94.9525452 188.203704,94.8488415 C187.592593,94.0469896 186.888889,93.6618044 186.259259,93.6081007 L186.259259,93.6081007 Z M196.851852,97.4951378 C196.722222,98.2710637 196.333333,98.9692118 195.5,99.5358785 C195.037037,99.854397 194.388889,100.100693 193.796296,100.272916 C193.592593,100.334027 193.388889,100.372916 193.185185,100.389582 C193.388889,100.630323 193.611111,100.859953 193.851852,101.08773 C193.833333,101.085878 193.833333,101.084027 193.833333,101.084027 C193.888889,101.124767 193.925926,101.165508 193.962963,101.206249 C194.037037,101.261804 194.092593,101.321064 194.148148,101.380323 C194.240741,101.454397 194.333333,101.530323 194.407407,101.604397 C194.462963,101.659953 194.537037,101.711804 194.592593,101.759953 C194.722222,101.872916 194.87037,101.982175 195,102.085878 C195.055556,102.132175 195.111111,102.174767 195.166667,102.215508 C195.259259,102.276619 195.333333,102.335878 195.407407,102.385878 C195.481481,102.432175 195.537037,102.472916 195.592593,102.511804 C195.666667,102.561804 195.740741,102.600693 195.814815,102.64699 C195.87037,102.678471 195.925926,102.711804 195.981481,102.743286 C196.055556,102.784027 196.111111,102.819212 196.185185,102.856249 C196.222222,102.878471 196.277778,102.89699 196.314815,102.91736 C196.407407,102.961804 196.518519,103.000693 196.592593,103.026619 C198,103.419212 200.203704,102.445138 200.444444,101.535878 C200.481481,101.441434 200.5,101.350693 200.5,101.261804 C200.5,101.230323 200.5,101.202545 200.518519,101.174767 L200.518519,100.989582 L200.518519,100.891434 C200.5,100.835879 200.5,100.774767 200.5,100.722916 C200.481481,100.68773 200.481481,100.656249 200.481481,100.624767 C200.462963,100.569212 200.444444,100.508101 200.425926,100.454397 C200.407407,100.424767 200.407407,100.395138 200.388889,100.36736 C200.37037,100.295138 200.333333,100.221064 200.296296,100.154397 C200.296296,100.139582 200.296296,100.126619 200.277778,100.11736 C200.240741,100.034027 200.185185,99.9525452 200.148148,99.8692118 C200.12963,99.8451378 200.111111,99.8229155 200.092593,99.8006933 C200.055556,99.7414341 200,99.6858785 199.962963,99.6303229 C199.944444,99.6025452 199.907407,99.5710637 199.888889,99.5432859 C199.833333,99.4914341 199.796296,99.4414341 199.740741,99.3877304 C199.722222,99.3581007 199.685185,99.3340266 199.666667,99.3081007 C199.611111,99.2525452 199.555556,99.1969896 199.5,99.1451378 C199.462963,99.1229155 199.444444,99.0988415 199.407407,99.0729155 C199.333333,99.0081007 199.259259,98.9451378 199.166667,98.8803229 C199.166667,98.8710637 199.148148,98.8581007 199.148148,98.8488415 C199.037037,98.7747674 198.944444,98.6988415 198.833333,98.6247674 C198.814815,98.6099526 198.796296,98.5988415 198.777778,98.5840266 C198.685185,98.5266192 198.592593,98.4636563 198.5,98.4081007 C198.462963,98.3821748 198.444444,98.3599526 198.388889,98.3395822 C198.314815,98.2895822 198.240741,98.2432859 198.166667,98.1932859 C198.111111,98.1692118 198.074074,98.1395822 198.018519,98.1136563 C198,98.0969896 197.962963,98.0784711 197.944444,98.0636563 C197.592593,97.86736 197.222222,97.6766192 196.851852,97.4951378 L196.851852,97.4951378 Z M96.7703704,107.763656 C92.8240741,107.763656 90.5148148,110.448841 90.1944444,112.263656 L88.95,119.313656 C88.8444444,119.91736 88.9814815,120.548841 89.3592593,121.193286 L89.3944444,121.258101 C89.5018519,121.422916 89.6,121.561804 89.7055556,121.693286 C89.8796296,121.904397 90.012963,122.050693 90.1592593,122.191434 C90.362963,122.385879 90.5203704,122.522916 90.687037,122.64699 C90.9,122.811804 91.0907407,122.941434 91.2796296,123.052545 L102.67963,129.871064 L101.533333,136.345138 L95.5833333,136.345138 L95.962963,134.185879 L86.3277778,134.185879 L84.8814815,142.382175 L103.290741,142.382175 C106.475926,142.382175 110.562963,139.785879 110.962963,137.513656 L112.453704,129.674767 C112.787037,127.99699 112.003704,126.48773 110.12037,125.343286 L98.7203704,118.524767 L99.6277778,113.395138 L105.585185,113.395138 L105.207407,115.519212 L114.848148,115.519212 L116.337037,107.763656 L96.7703704,107.763656 L96.7703704,107.763656 Z M119.407407,107.763656 L117.972222,115.519212 L124.107407,115.519212 L124.316667,114.365508 L128.555556,114.365508 L124.655556,135.680323 L122.351852,135.680323 L121.12963,142.382175 L134.67963,142.382175 L135.905556,135.680323 L133.601852,135.680323 L137.5,114.365508 L141.738889,114.365508 L141.52963,115.519212 L147.662963,115.519212 L149.096296,107.763656 L119.411111,107.763656 L119.407407,107.763656 L119.407407,107.763656 Z M197.611111,107.763656 C197.888889,108.400693 198.037037,109.782175 196.481481,112.369212 C195.981481,113.106249 195.333333,113.678471 194.537037,114.082175 C194.333333,114.193286 194.111111,114.285878 193.888889,114.365508 L196.037037,114.365508 L195.833333,115.519212 L201.962963,115.519212 L203.407407,107.763656 L197.611111,107.763656 L197.611111,107.763656 Z M206.62963,107.763656 L205.407407,114.365508 L207.703704,114.365508 L203.796296,135.680323 L201.5,135.680323 L200.277778,142.382175 L225.092593,142.382175 L226.592593,134.185879 L218.666667,134.185879 L218.388889,135.680323 L212.592593,135.680323 L214.074074,127.595138 L221.296296,127.595138 L222.351852,121.750693 L215.148148,121.750693 L216.5,114.365508 L222.296296,114.365508 L222.074074,115.519212 L229.462963,115.519212 L230.888889,107.763656 L206.62963,107.763656 Z M6.55555556,107.76736 L5.35111111,114.441434 L7.65166667,114.441434 L3.80666667,135.700693 L1.51,135.700693 L0.302037037,142.378471 L10.5627778,142.378471 L14.0498148,120.756249 L20.7405556,142.378471 L31.4646296,142.378471 L32.6701852,135.700693 L30.3683333,135.700693 L34.2109259,114.441434 L36.5109259,114.441434 L37.7183333,107.76736 L27.6053704,107.76736 L23.9887037,129.53773 L17.3275926,107.76736 L6.55555556,107.76736 Z M40.8407407,107.76736 L39.6314815,114.441434 L41.9833333,114.441434 L38.1425926,135.704397 L35.7907407,135.704397 L34.587037,142.378471 L45.1481481,142.378471 L48.6814815,122.250693 L54.5777778,138.113656 L66.0111111,122.282175 L62.3759259,142.382175 L73.0925926,142.382175 L74.2962963,135.708101 L72,135.708101 L75.8407407,114.441434 L78.1407407,114.441434 L79.3462963,107.76736 L75.8944444,107.76736 C71.8944444,111.054397 68.6462963,111.74699 66.6185185,111.74699 C66.4296296,111.74699 66.2481481,111.739582 66.0722222,111.728471 L57.2537037,124.198841 L51.5685185,107.76736 L40.8407407,107.76736 Z M154.142593,107.76736 L144.157407,135.680323 L141.596296,135.680323 L140.37037,142.378471 L150.653704,142.378471 L153.431481,133.756249 L159.985185,133.756249 L159.659259,142.378471 L169.905556,142.378471 L171.131481,135.680323 L168.792593,135.680323 L168.953704,107.76736 L154.142593,107.76736 L154.142593,107.76736 Z M175.45,107.934027 L173.666667,108.082175 L172.292593,115.519212 L178.431481,115.519212 L178.635185,114.369212 L182.875926,114.369212 L178.968519,135.680323 L176.672222,135.680323 L175.45,142.382175 L188.987037,142.382175 L190.227778,135.680323 L187.912963,135.680323 L191.764815,114.632175 C191.357407,114.602545 190.931481,114.530323 190.487037,114.411804 C189.135185,114.050693 188.116667,113.550693 187.227778,113.056249 C186.524074,113.074767 185.801852,113.019212 184.857407,112.863656 C183.746296,112.684027 182.635185,112.402545 181.561111,112.130323 L181.283333,112.058101 C180.542593,111.865508 179.857407,111.648841 179.209259,111.391434 C176.57963,110.139582 175.709259,108.565508 175.45,107.934027 Z M160.361111,112.465508 L160.327778,128.315508 L155.075926,128.315508 L160.361111,112.465508 Z" id="Shape" fill="#FFFFFF"></path>
                    <path d="M129.488889,25.7 C130.643981,25.6560185 131.973148,25.855963 133.405926,26.1846667 C129.521667,25.7587407 125.860741,27.1153704 124.117778,27.6061111 C123.770556,27.7056481 123.087259,27.7617778 122.57337,27.446963 C124.510778,26.7640926 125.743556,25.8319444 129.488926,25.7 L129.488889,25.7 Z" id="Shape" fill="#FFFFFF"></path>
                    <path d="M114.518519,3.42847109 C114.446296,3.57661924 114.383333,3.73402665 114.32963,3.89143406 C114.316667,3.92847109 114.301852,3.96735998 114.290741,4.00624887 C114.238889,4.16180443 114.194444,4.31921183 114.153704,4.48773035 C114.011111,5.10810072 113.937037,5.81735998 113.87037,6.67847109 C115.572222,6.29328591 117.457407,6.39143406 119.285185,6.73032294 C118.424074,7.06550813 117.777778,7.5821748 116.572222,8.86365628 C117.57963,8.74513776 117.87037,8.77106369 118.692593,8.80995257 L120.142593,10.9729155 L126.761111,9.22476739 C126.631481,9.07291554 126.487037,8.92291554 126.342593,8.76921183 C126.268519,8.6895822 126.185185,8.61180443 126.107407,8.53032294 C126.011111,8.43773035 125.92037,8.34698961 125.82037,8.25254517 C125.740741,8.17476739 125.651852,8.09884146 125.564815,8.01735998 C125.462963,7.92661924 125.359259,7.8358785 125.253704,7.74328591 C125.161111,7.66550813 125.07037,7.5895822 124.974074,7.51550813 C124.861111,7.41921183 124.746296,7.32476739 124.627778,7.2321748 C124.535185,7.16180443 124.435185,7.08773035 124.338889,7.01550813 C124.214815,6.92291554 124.088889,6.83032294 123.959259,6.73773035 C123.855556,6.66550813 123.755556,6.59698961 123.653704,6.52661924 C123.522222,6.43773035 123.385185,6.35069331 123.25,6.25995257 C123.144444,6.19513776 123.040741,6.12661924 122.931481,6.05624887 C122.792593,5.97291554 122.648148,5.88773035 122.503704,5.80439702 C122.398148,5.7395822 122.285185,5.67476739 122.172222,5.61180443 C122.027778,5.5321748 121.881481,5.44884146 121.733333,5.36921183 C121.618519,5.31180443 121.501852,5.25069331 121.387037,5.19328591 C121.237037,5.11921183 121.081481,5.04698961 120.931481,4.97661924 C120.807407,4.91735998 120.688889,4.85995257 120.564815,4.80254517 C120.414815,4.7358785 120.262963,4.67476739 120.109259,4.60624887 C119.987037,4.55995257 119.855556,4.50624887 119.733333,4.45810072 C119.575926,4.39513776 119.418519,4.34143406 119.262963,4.28773035 C119.137037,4.24143406 119.005556,4.19328591 118.87963,4.15439702 C118.72037,4.09884146 118.559259,4.05254517 118.403704,4.00624887 C118.274074,3.96735998 118.146296,3.92661924 118.016667,3.89513776 C117.853704,3.85069331 117.690741,3.81180443 117.524074,3.77476739 C117.396296,3.74328591 117.268519,3.71365628 117.140741,3.68402665 C116.972222,3.65254517 116.807407,3.62847109 116.637037,3.59698961 C116.512963,3.57847109 116.383333,3.55254517 116.261111,3.5358785 C116.075926,3.50995257 115.892593,3.49884146 115.703704,3.47847109 C115.598148,3.47106369 115.494444,3.45254517 115.390741,3.44513776 C115.098148,3.42661924 114.805556,3.42291554 114.518519,3.42847109 L114.518519,3.42847109 Z M100.083333,5.63773035 C99.0574074,5.90624887 99.8037037,8.81180443 100.038889,9.4895822 C100.37963,10.5081007 101.438889,13.4432859 102.416667,14.4192118 C101.438889,12.1692118 100.885185,10.5303229 100.524074,8.84884146 C100.396296,8.25624887 100.2,7.02476739 100.477778,6.82847109 C100.72037,6.65439702 101.212963,6.70439702 102.159259,7.7895822 C101.372222,6.03773035 100.624074,5.49328591 100.083333,5.63773035 L100.083333,5.63773035 Z M103.092593,10.7729155 C102.994444,10.7988415 102.894444,10.8951378 102.803704,11.0988415 C102.401852,11.9858785 102.112963,12.5858785 102.353704,13.0636563 C102.57037,13.504397 103.790741,13.9210637 103.509259,13.4136563 C103.107407,12.7006933 103.109259,12.0803229 103.511111,11.454397 C103.640741,11.2599526 103.383333,10.6988415 103.092593,10.7729155 Z M101.97037,35.9395822 C103.077778,42.4951378 109.296296,43.1192118 111.137037,46.6358785 C112.898148,49.9988415 112.933333,53.0210637 112.872222,56.3932859 C114.096296,54.2988415 115.457407,49.8803229 113.016667,45.5469896 C111.059259,42.06736 105.114815,41.5636563 101.97037,35.9395822 L101.97037,35.9395822 Z M107.422222,48.2229155 C108.542593,51.9599526 108.798148,55.3099526 108.037037,57.9155081 C107.212963,60.7247674 106.507407,63.0229155 101.15,69.9525452 C106.25,66.7099526 110.985185,59.4118044 110.701852,55.1451378 C110.464815,51.5581007 108.938889,49.6562489 107.422222,48.2229155 L107.422222,48.2229155 Z M73.2425926,78.7062489 C72.9018519,78.7081007 72.4592593,78.7969896 72.1537037,78.9192118 L77.4518519,83.06736 C76.8425926,81.8914341 74.9925926,80.004397 73.2425926,78.7062489 L73.2425926,78.7062489 Z M78.7537037,83.61736 L78.7537037,83.6210637 C78.4907407,83.6210637 78.2388889,83.654397 78.0203704,83.7155081 C76.1407407,84.2432859 75.0518519,86.9451378 76.3592593,88.4581007 C75.8648148,89.2951378 76.4,92.1155081 79.2814815,91.7525452 C77.1555556,91.1636563 76.7888889,89.5340266 77.2574074,88.6192118 C76.1481481,87.4247674 76.5574074,84.8506933 78.4388889,84.3303229 C79.1333333,84.1377304 80.0907407,84.16736 81.0759259,84.6877304 C80.4703704,83.9229155 79.5481481,83.6192118 78.7537037,83.61736 Z M74.1388889,86.5155081 C73.5055556,86.5155081 72.9222222,87.0303229 72.8333333,87.6655081 C72.7481481,88.2988415 73.1962963,88.8155081 73.8277778,88.8155081 C74.4592593,88.8155081 75.0444444,88.2988415 75.1296296,87.6655081 C74.4796296,87.6747674 73.9444444,87.1729155 74.1388889,86.5155081 L74.1388889,86.5155081 Z M106.594444,88.2266192 C105.874074,88.3284711 105.25,88.8469896 105.053704,89.5932859 C104.790741,90.5840266 105.383333,91.6136563 106.375926,91.8747674 C106.051852,91.2303229 106.022222,90.5655081 106.25,89.8247674 C106.47963,89.0840266 106.901852,88.6951378 107.335185,88.2692118 C107.087037,88.204397 106.833333,88.1914341 106.594444,88.2266192 Z M75.0185185,89.704397 C74.387037,89.704397 73.8018519,90.2229155 73.7166667,90.854397 C73.6277778,91.4895822 74.0722222,92.0062489 74.7037037,92.0062489 C75.337037,92.0062489 75.9259259,91.4895822 76.0092593,90.854397 C76.0962963,90.2229155 75.65,89.704397 75.0185185,89.704397 Z M230.537037,91.1340266 C230.240741,91.1340266 230,91.6247674 230,92.2303229 C230,92.8340266 230.240741,93.3229155 230.537037,93.3229155 C230.833333,93.3229155 231.092593,92.8340266 231.092593,92.2303229 C231.092593,91.6247674 230.833333,91.1340266 230.537037,91.1340266 Z M81.0611111,92.8914341 C80.5759259,93.5099526 79.9981481,93.8729155 79.3222222,94.0821748 C80.562963,94.4747674 81.7555556,94.5803229 82.3203704,94.0025452 L81.0611111,92.8914341 Z M231.518519,93.4266192 C231.314815,93.4266192 231.12963,93.7803229 231.12963,94.2081007 C231.12963,94.6414341 231.314815,94.9895822 231.518519,94.9895822 C231.740741,94.9895822 231.907407,94.6414341 231.907407,94.2081007 C231.907407,93.7803229 231.740741,93.4266192 231.518519,93.4266192 Z M89.7055556,94.4395822 C89.0740741,94.4395822 88.487037,94.9506933 88.4,95.5821748 C88.3148148,96.21736 88.7611111,96.7358785 89.3944444,96.7358785 C90.0296296,96.7358785 90.6111111,96.21736 90.6981481,95.5821748 C90.7833333,94.9506933 90.3407407,94.4395822 89.7055556,94.4395822 Z M78.312963,95.9877304 C78.2722222,96.8192118 78.2074074,97.6562489 78.1259259,98.4803229 C78.6814815,97.6062489 79.062963,96.5729155 78.4462963,96.0784711 C78.4055556,96.0451378 78.3592593,96.0136563 78.312963,95.9877304 Z M90.5018519,97.1192118 C90.2259259,97.4784711 89.5962963,97.6062489 89.1962963,97.51736 C89.2037037,97.8488415 89.4166667,98.2747674 89.9740741,98.1395822 C90.4296296,98.0303229 90.5037037,97.5414341 90.5018519,97.1192118 Z" id="Shape" fill="#000000"></path>
                </g>
            </g>
        </g>
    </g>
</svg>