<?xml version="1.0" encoding="UTF-8" standalone="no"?>
<svg width="250px" height="250px" viewBox="0 0 250 250" version="1.1" xmlns="http://www.w3.org/2000/svg" xmlns:xlink="http://www.w3.org/1999/xlink">
    <!-- Generator: Sketch 47.1 (45422) - http://www.bohemiancoding.com/sketch -->
    <title>GMASON</title>
    <desc>Created with Sketch.</desc>
    <defs></defs>
    <g id="Page-1" stroke="none" stroke-width="1" fill="none" fill-rule="evenodd">
        <g id="GMASON" fill-rule="nonzero">
            <g id="George_Mason_Patriots_logo" transform="translate(0.000000, 21.000000)">
                <path d="M226.589958,93.79293 C225.495293,82.59889 223.537448,62.588185 223.248013,59.65905 C226.642573,57.881923 249.031485,46.16183 249.031485,46.16183 C249.031485,46.16183 224.090063,38.012293 220.563912,36.8608075 C220.116569,33.027852 216.395711,0.9452025 216.395711,0.9452025 L211.069561,8.1220535 C211.069561,8.1220535 208.995921,10.919205 206.353975,14.478684 L199.059519,13.4954749 C190.401987,12.3861029 181.633787,11.8550339 172.965377,11.9129269 C132.299059,12.1915866 93.5532427,24.9263119 60.9151674,48.7282769 L55.2837866,52.8346043 C55.2837866,52.8346043 61.0256276,57.3878784 63.1098326,59.0335443 C49.2207113,68.8760858 36.7583682,80.4539543 26.0899582,93.3879194 C18.8955021,94.0293717 11.8430962,94.6550864 4.9748954,95.2071599 L0.0908995816,95.5962343 L0.0751108787,197.240249 L7.92218201,192.960452 C17.0323285,187.991895 26.4587929,183.62787 36.1261569,179.884367 C39.4418473,182.607846 42.7837929,185.341984 44.0416381,186.372458 C42.7574331,189.910933 35.8945669,208.833688 35.8945669,208.833688 L46.5253201,205.011287 C72.4029351,195.720819 97.0598389,191.393892 124.127831,191.393892 C149.932224,191.393892 176.620508,196.036514 201.308793,204.827367 L211.908165,208.60243 C211.908165,208.60243 205.071554,189.747495 203.792684,186.21435 C205.050529,185.183823 208.387245,182.455067 211.681805,179.747263 C221.349797,183.474987 230.775948,187.818007 239.88578,192.765873 L247.722287,197.024666 L247.743312,95.5656157 L242.859316,95.1765413 C237.5385,94.750662 232.101994,94.2827215 226.586303,93.7936928" id="Shape" fill="#F2A900"></path>
                <path d="M242.583682,98.699205 C206.453975,95.806645 165.481172,90.974565 124.100418,90.974565 C106.132845,90.974565 88.248954,91.878908 70.8023013,93.146075 C90.8838912,85.70672 112.311715,81.736765 134.225941,81.584195 L145.846234,81.75244 L143.020084,78.7187005 L140.293828,75.816422 L140.293828,75.821647 L140.220188,75.7427809 C140.214958,75.7322682 137.104498,72.4251148 134.725628,69.8961104 C145.97249,69.8487928 157.198431,70.8162224 168.160774,72.7668299 C162.308368,81.0162689 157.145084,88.2986649 157.145084,88.2986649 L200.274791,67.8668249 C201.885251,69.5546044 222.810356,91.4796449 222.810356,91.4796449 C222.810356,91.4796449 219.71046,59.8171899 219.5,57.6352299 C221.368305,56.6572771 239.972803,46.9145749 239.972803,46.9145749 C239.972803,46.9145749 219.236402,40.1425569 217.3159,39.5169154 C217.073797,37.4558619 213.916004,10.2255654 213.916004,10.2255654 L211.252929,13.8166034 C211.252929,13.8166034 209.863494,15.6884074 207.958368,18.2594209 L198.590377,16.9975834 C190.111715,15.9092159 181.501464,15.3887014 172.996234,15.4464899 C133.071548,15.7198932 95.0412134,28.2174349 63.0066946,51.5836349 L61.1278243,52.9507039 C61.1278243,52.9507039 67.0328452,57.6248844 68.9853556,59.1706484 C53.3849372,69.6614034 39.5271967,82.3748734 27.8807531,96.7760184 C20.1757322,97.4698984 12.623431,98.1376534 5.28138075,98.7322584 L3.65502092,98.8576584 L3.63922594,191.288953 L6.25491632,189.857303 C16.107113,184.483809 26.3229079,179.809628 36.8061715,175.850123 C40.1849372,178.615716 47.0267782,184.225798 48.242364,185.224714 C47.5160774,187.227979 41.8110879,202.959409 41.8110879,202.959409 L45.3530335,201.687017 C71.6312762,192.249308 96.666841,187.853307 124.155335,187.853307 C150.35931,187.853307 177.458682,192.574826 202.520397,201.496827 L206.051778,202.753439 C206.051778,202.753439 200.367782,187.069034 199.641527,185.065769 C200.873117,184.056268 207.783264,178.393653 211.051569,175.712183 C221.534833,179.655491 231.750314,184.308667 241.602824,189.660843 L244.213285,191.080476 L244.229079,98.8268309 L242.602824,98.6953908" id="Shape" fill="#FFFFFF"></path>
                <path d="M209.121339,175.00615 C182.021967,165.079486 153.160042,159.911125 124.093096,159.911125 C94.8943515,159.911125 65.9110879,165.121599 38.7123431,175.13782 L50.3221757,184.654426 L44.7487448,200.023241 C71.13159,190.548748 96.3993724,186.090256 124.145188,186.090256 C150.554184,186.090256 177.917155,190.869563 203.105439,199.834096 L197.542469,184.496631 L209.120921,175.006359 M210.020502,18.454909 C210.020502,18.454909 199.10523,33.166419 197.75795,34.980539 C195.542259,34.2549641 165.038285,24.291234 165.038285,24.291234 C165.038285,24.291234 185.200418,47.598914 186.842678,49.491409 C185.358577,51.5840215 162.506904,83.809209 162.506904,83.809209 L200.679498,65.722349 C202.268933,67.3890195 220.563389,86.553379 220.563389,86.553379 C220.563389,86.553379 217.847699,58.781459 217.631904,56.620399 C219.463389,55.663482 235.451987,47.2930425 235.451987,47.2930425 L215.699895,40.841735 C215.463065,38.8122405 212.684205,14.863035 212.684205,14.863035 L210.02113,18.454073" id="Shape" fill="#000000"></path>
                <path d="M173.043933,17.21324 C132.238494,17.49121 94.5481172,30.793015 64.0899582,53.00658 L71.6555439,59.003835 L71.6968096,58.9790163 L72.0092992,59.2419069 C56.2268724,69.5372469 42.1818933,82.1545769 30.3293828,96.5557219 C32.587751,96.3561269 34.8628556,96.1450369 37.1463285,95.9402169 C52.793818,81.4492019 71.0354498,69.6041269 91.1065795,61.1239519 L87.6281276,57.8131829 L87.6366004,57.8047184 L82.760136,53.2038969 C106.958881,41.5416969 134.126245,34.8860919 162.844864,34.6864969 C165.865785,34.665461 168.87363,34.7216611 171.857521,34.8425885 C165.663274,27.686951 159.55522,20.6379035 159.55522,20.6379035 C159.55522,20.6379035 194.877395,32.1757485 197.120073,32.9114285 C197.930565,31.817836 202.953964,25.050416 206.790785,19.8813235 L198.391098,18.750738 C190.107207,17.6887045 181.64319,17.156695 173.038588,17.2144835 L173.043933,17.21324 Z M149.903766,51.906195 C134.646444,52.006097 119.830544,53.945199 105.661088,57.468103 L107.749372,59.680577 L107.897406,59.7053958 L113.218013,64.9796152 L113.20159,64.9796152 L114.969582,67.1155952 C90.2227197,71.9422412 67.2446862,81.6201952 47.1285774,95.0641203 C52.9548326,94.5593748 58.8482427,94.0592065 64.8011715,93.6017472 C86.2216736,84.8843572 109.670418,79.9895772 134.246778,79.8171522 C136.773033,79.8011638 139.281925,79.8533302 141.771046,79.9321545 L139.040921,77.032175 L138.958703,76.9418243 L130.792699,68.2580833 L130.891339,68.1923424 C132.012364,68.1607938 133.144895,68.1401028 134.271151,68.1348464 C146.265921,68.050724 157.980356,69.1111586 169.327636,71.1826935 C173.685377,65.031092 178.260272,58.5737235 181.276381,54.3247535 C171.082238,52.6790874 160.609017,51.8358769 149.903996,51.909445 L149.903766,51.906195 Z M124.140167,92.736435 C113.389121,92.736435 102.794979,93.0445846 92.4058577,93.5497481 C87.2115063,93.802335 82.0677824,94.1073705 76.9790795,94.4452086 C61.7123431,95.4587854 46.9424686,96.795518 32.8127615,98.0845256 C23.3916318,98.943944 14.2594142,99.7831731 5.44560669,100.491579 L5.42635983,188.309199 C40.6784519,169.081199 81.1156904,158.140049 124.118828,158.140049 C166.975523,158.140049 207.290377,168.997599 242.455649,188.109604 L242.47249,100.460229 C233.681276,99.75779 224.565586,98.9249146 215.17228,98.0710451 C205.774791,97.2129747 196.099059,96.3381216 186.183787,95.5472656 C181.223954,95.1518794 176.209414,94.777529 171.135669,94.4368486 C155.916004,93.4231986 140.204707,92.7334986 124.137762,92.7334986 L124.140167,92.736435 Z" id="Shape" fill="#046A38"></path>
                <path d="M119.550209,97.959345 C115.092259,97.964361 111.606485,100.547183 111.606485,103.833395 L111.606485,116.377575 C111.606485,118.307167 112.87887,119.74352 114.073536,120.937119 C114.141946,121.000237 130.457427,138.102289 130.462657,138.106469 L130.462657,141.754041 L125.216109,141.754041 L125.216109,137.868209 L111.606276,137.868209 L111.606276,147.118549 C111.606276,150.557121 114.944979,153.05812 119.55,153.05812 C124.160356,153.05812 131.431799,153.337448 136.341841,153.337448 C141.136611,153.337448 144.285565,149.401351 144.285565,146.420279 L144.285565,135.157269 C144.285565,132.917417 142.624163,131.228697 141.103138,129.677812 C141.103138,129.677812 126.526778,114.366472 125.42113,113.362227 L125.42113,109.41892 L130.675628,109.41892 L130.675628,113.313008 L144.28546,113.313008 L144.28546,103.963811 C144.28546,100.97741 141.830962,97.9665555 136.341736,97.9665555 L119.549895,97.9581955 L119.550209,97.959345 Z M93.5732218,98.6247697 C87.541841,98.9139525 81.5711297,99.2685315 75.6872385,99.668129 L75.2925209,100.949717 L60.4818515,161.144852 C65.2866632,159.904019 70.122751,158.796215 74.9964958,157.834083 C75.4701569,155.988613 78.0621862,145.862563 78.6148013,143.711953 L90.7445084,143.711953 C91.1918619,145.736222 92.8414749,153.135136 93.2362448,154.917488 C97.9939854,154.333876 102.76386,153.885655 107.55319,153.570169 L93.5688808,98.6366095 L93.5732218,98.6247697 Z M161.17887,98.9123119 C158.584205,98.8281894 156.323013,99.6691009 154.649477,101.335771 C153.560042,102.429364 153.276151,104.376408 153.276151,105.254417 L153.276151,149.748427 C153.276151,153.775857 157.777406,155.196743 160.940272,155.696462 C166.503033,156.57977 178.20387,158.78705 182.34613,159.812299 C186.804079,160.916446 191.547803,158.223481 191.547803,154.464094 L191.547803,106.108809 C191.547803,102.270628 187.688075,100.820691 183.604079,100.489739 L161.245293,98.9124164 L161.187762,98.9124164 L161.179393,98.9124164 L161.17887,98.9123119 Z M55.9696653,101.171602 C51.2279289,101.565933 46.5493724,101.980338 41.9654812,102.395715 C40.6444561,106.601944 35.2747908,123.72521 33.0433054,130.82912 C30.9276151,123.878302 26.0368201,107.82031 24.8529289,103.923505 C20.0691423,104.344128 14.0213389,104.867297 10.56841,105.17228 C10.56841,112.722509 10.5572071,166.8649 10.5519456,179.85843 C14.9201464,177.665915 19.3516318,175.607161 23.8406485,173.672343 C23.8406485,170.833183 23.8488075,158.053773 23.8488075,148.353038 C26.4065481,156.691929 29.3845816,166.441988 29.9424268,168.381508 L30.6660983,170.854292 C32.3397385,170.191804 34.011705,169.549296 35.6907845,168.923759 C36.4275941,166.657676 39.9807427,155.730634 42.6808473,147.391534 C42.6808473,154.23712 42.6837762,164.266194 42.6892155,166.442929 C47.078546,164.960283 51.5069979,163.592587 55.9695502,162.351754 L55.9695502,101.172229 L55.9696653,101.171602 Z M200.833682,101.910971 L200.833682,164.891031 C205.165272,166.263325 209.46705,167.756525 213.719665,169.360182 L213.719665,141.781587 C217.182636,152.644362 222.454498,169.305842 223.744142,173.385522 C228.338494,175.346674 232.877197,177.443884 237.345607,179.678512 C237.345607,166.718422 237.353975,112.698192 237.353975,105.148067 C234.238285,104.874664 228.996444,104.413955 224.459623,104.014347 C224.464854,108.693752 224.467992,132.324442 224.467992,132.324442 C221.247071,122.229533 216.540272,107.528682 215.150941,103.201337 C210.477406,102.775457 205.70251,102.337414 200.833996,101.911493 L200.833682,101.910971 Z M166.871339,110.767241 C169.566004,110.982804 175.584623,111.468165 177.932008,111.662702 C177.937238,114.775339 177.932008,143.070177 177.932008,147.144632 C177.932008,147.144632 169.287343,145.60148 166.871339,145.107195 L166.871339,110.76745 L166.871339,110.767241 Z M84.8619247,118.309006 C86.2513598,124.513171 87.4259414,129.781016 87.9785565,132.241991 L81.4411088,132.241991 L81.4495816,132.225585 C81.4495816,132.225585 83.2675732,124.796993 84.8622385,118.30932 L84.8619247,118.309006 Z M120.452929,166.411401 L109.023013,166.723595 L109.393065,180.29501 L113.282709,180.188221 L113.167594,175.801102 L119.112992,175.636808 L122.435167,179.941476 L126.850962,179.826474 L123.249079,175.061692 C125.138515,174.27302 126.053577,172.860295 125.995628,170.830696 C125.958598,169.474181 125.4325,168.389471 124.416757,167.569251 C123.395753,166.74903 122.074079,166.36353 120.453054,166.410868 L120.452929,166.411401 Z M130.140167,166.468876 L129.720774,180.040291 L133.618682,180.163528 L134.038075,166.583753 L130.140167,166.468751 L130.140167,166.468876 Z M106.185146,166.887858 L89.4508368,168.604794 L89.7633264,171.652641 L96.1937657,170.995419 L97.2792259,181.453779 L101.152448,181.059438 L100.075146,170.601078 L106.497636,169.935653 L106.185146,166.887806 L106.185146,166.887858 Z M145.303347,166.994647 C143.338075,167.093191 141.602197,167.630843 140.106067,168.604783 C138.342992,169.745714 137.379184,171.320111 137.194979,173.328392 C137.010774,175.368441 137.66932,177.095617 139.185042,178.520579 C140.927092,180.155795 143.220084,181.105491 146.051674,181.363084 C148.867364,181.615451 151.277615,181.095605 153.288389,179.802167 C155.035669,178.671791 155.998849,177.085585 156.183054,175.045327 C156.367259,173.036837 155.694571,171.318544 154.168305,169.878011 C152.43682,168.242795 150.163912,167.29613 147.342887,167.043762 C146.636349,166.97939 145.958577,166.961625 145.303452,166.994438 L145.303347,166.994647 Z M157.950837,168.506344 L157.449215,171.521378 L163.822437,172.589368 L162.095554,182.965278 L165.935826,183.606051 L167.670973,173.230141 L174.044195,174.289876 L174.545816,171.266691 L157.950628,168.506323 L157.950837,168.506344 Z M120.164226,169.483952 C121.464226,169.447377 122.127929,169.910166 122.154289,170.872339 C122.170293,171.356059 122.005962,171.758593 121.669132,172.063535 C121.32704,172.368486 120.860617,172.532447 120.271119,172.548216 L113.08409,172.737162 L113.001872,169.672804 L120.164529,169.483858 L120.164226,169.483952 Z M83.6767782,169.590751 L79.3182008,170.33012 L74.1537657,184.969525 L78.109205,184.3041 L79.1782427,181.264404 L87.4099372,179.884273 L89.4246862,182.398125 L93.3718619,181.7327 L83.6766736,169.590845 L83.6767782,169.590751 Z M147.055439,170.091881 C148.713285,170.2391 150.016527,170.740565 150.953347,171.587067 C151.890146,172.438825 152.305544,173.474964 152.195084,174.684238 C152.084561,175.925071 151.493128,176.880723 150.435251,177.543149 C149.372176,178.205626 147.996548,178.459645 146.307113,178.307169 C144.601883,178.154693 143.283264,177.653229 142.351674,176.811983 C141.420126,175.965481 141.0159,174.930983 141.12636,173.69015 C141.236883,172.475651 141.834885,171.531807 142.919038,170.864052 C144.003243,170.196318 145.381799,169.939363 147.055335,170.091839 L147.055439,170.091881 Z M180.640167,172.548258 C179.673096,172.523909 178.8159,172.632067 178.058054,172.868655 C176.542364,173.336595 175.613075,174.247114 175.28682,175.587849 C174.718421,177.927604 176.488703,179.770775 180.599059,181.116944 C182.946339,181.88458 184.399582,182.386724 184.957636,182.628537 C185.947071,183.04916 186.398013,183.464181 186.298013,183.869056 C186.098023,184.699789 184.692782,184.812179 182.087657,184.18124 C179.214121,183.481957 176.953138,182.236913 175.295084,180.459786 L172.762343,182.341099 C175.062238,184.791206 177.935565,186.43426 181.372071,187.270364 C183.903556,187.885524 185.966423,187.94533 187.556276,187.451107 C189.098326,186.962131 190.046025,186.005872 190.393305,184.57579 C190.6775,183.4033 190.306485,182.367182 189.274895,181.478619 C188.306517,180.621593 186.610879,179.787913 184.184519,178.972918 C182.895084,178.541782 181.609623,178.114262 180.335983,177.683179 C179.472856,177.320386 179.093619,176.902417 179.209414,176.434404 C179.409414,175.593158 180.823536,175.486035 183.444561,176.12222 C185.491841,176.62171 187.432845,177.574979 189.275105,178.989387 L191.635251,177.058854 C189.945816,175.213384 187.350418,173.863453 183.855753,173.016898 C182.682113,172.730328 181.607531,172.57293 180.640481,172.548624 L180.640167,172.548258 Z M69.1129707,172.622244 C68.4268096,172.57292 67.6876569,172.641158 66.9009414,172.835831 L55.799477,175.563281 L59.0394351,188.749091 L62.8221757,187.820776 L61.7777929,183.556967 L68.9076046,181.807115 C70.63909,181.381235 71.8778975,180.666497 72.6409728,179.646473 C73.3988389,178.626458 73.6050628,177.405052 73.2577092,175.990645 C72.9314121,174.670914 72.1892992,173.720591 71.0209937,173.131733 C70.4368096,172.839896 69.799341,172.671651 69.1131485,172.6224 L69.1129707,172.622244 Z M82.039749,173.164463 L85.1893305,177.148839 L80.3706067,177.953949 L82.0399582,173.164296 L82.039749,173.164463 Z M68.1223849,175.787413 C68.8748222,175.788458 69.3384937,176.140989 69.5121339,176.838996 C69.6279184,177.31745 69.5504498,177.739044 69.2818724,178.112433 C69.0187238,178.480482 68.5973536,178.726298 68.0237134,178.868251 L61.0421234,180.585186 L60.3102406,177.61122 L67.2754079,175.902436 C67.591182,175.824897 67.87159,175.786932 68.1224059,175.787434 L68.1223849,175.787413 Z" id="Shape" fill="#FFFFFF"></path>
                <path d="M211.223849,20.67219 C210.023849,22.2916265 198.864017,37.324265 198.864017,37.324265 L198.674885,37.5871556 C198.674885,37.5871556 174.716726,29.7539402 172.006475,28.8706017 L202.753337,47.3221666 L211.223316,20.6715316 L211.223849,20.67219 Z M202.75387,47.322825 L229.874163,47.7746621 C228.111088,47.1963068 213.764331,42.5084891 213.764331,42.5084891 L202.75387,47.3224906 L202.75387,47.322825 Z M202.745502,47.331185 L189.695293,49.311042 C189.721862,49.3425905 189.736611,49.3603346 189.736611,49.3603346 C189.736611,49.3603346 171.064017,75.6964246 169.284728,78.2044246 L169.293096,78.2044246 L202.746025,47.3393046 L217.827615,80.4062397 C217.606569,78.1033732 215.385251,55.3659496 215.385251,55.3659496 C215.385251,55.3659496 215.391527,55.3516436 215.418096,55.3411309 L202.74864,47.3324599 L202.745502,47.331185 Z M96.532113,64.943615 C73.864749,71.621165 56.5593096,81.62077 39.1492678,95.75962 C41.0697699,95.591375 43.0017782,95.41895 44.9390167,95.250705 C57.9693515,84.098465 75.2381799,72.70483 96.532113,64.943615 L96.532113,64.943615 Z M119.548849,99.727485 C116.143724,99.727485 113.373117,101.574314 113.373117,103.835171 L113.373117,116.379351 C113.373117,117.509728 114.116831,118.480846 115.322071,119.69012 C115.338075,119.706109 115.37636,119.741743 130.296967,135.37348 L132.229393,137.394406 L132.229393,138.109123 L132.237762,143.531419 L123.446967,143.531419 L123.446967,139.637331 L113.373326,139.637331 L113.373326,147.121516 C113.373326,149.540064 115.970293,151.294933 119.549059,151.294933 L136.3409,151.574261 C140.109205,151.574261 142.516632,148.526414 142.516632,146.423352 L142.516632,135.160342 C142.516632,133.640807 141.217678,132.325048 139.844038,130.921299 C133.981067,124.764264 125.001987,115.381104 124.227929,114.671549 L123.652291,114.145778 L123.652291,107.655597 L132.443086,107.655597 L132.443086,111.549685 L142.516831,111.549685 L142.516831,103.967165 C142.516831,102.011238 140.898839,99.736169 136.341098,99.736169 L119.549257,99.7278089 L119.548849,99.727485 Z M92.2141213,100.475099 C89.966841,100.606539 78.949477,101.246685 77.0174686,101.362367 C77.0124477,101.372879 76.9846234,101.460962 76.9846234,101.460962 C76.9846234,101.466396 65.8109833,146.871437 62.8894351,158.737412 C66.4261506,157.864618 69.9922594,157.053604 73.5547071,156.33851 C74.0231067,154.50882 77.2388075,141.945725 77.2388075,141.945725 L92.1645397,141.945725 C92.1645397,141.945725 94.5233264,152.54307 94.6233264,152.995555 C98.1758368,152.580189 101.748536,152.239738 105.322071,151.976848 C104.390533,148.312137 92.8722803,103.058308 92.2143305,100.476113 L92.2141213,100.475099 Z M161.116841,100.680494 C159.022176,100.617397 157.218933,101.271974 155.903138,102.586469 C155.313692,103.175337 155.031464,104.522645 155.031464,105.248189 L155.031464,149.750559 C155.031464,152.416249 158.391506,153.501691 161.207197,153.948533 C166.912218,154.858132 178.613054,157.080189 182.760544,158.105438 C184.697364,158.583891 186.897573,158.153717 188.360753,157.012786 C188.88705,156.59742 189.775188,155.717404 189.775188,154.466017 L189.775188,106.110732 C189.775188,103.339914 186.335544,102.486149 183.451234,102.249561 C183.472259,102.249561 161.116506,100.680389 161.116506,100.680389 L161.116841,100.680494 Z M54.2130753,103.098624 C51.6395397,103.319453 44.9962343,103.896168 43.3166318,104.043387 C43.2955753,104.106484 33.0290795,136.814587 33.0290795,136.814587 C33.0290795,136.814587 24.3414226,108.273547 23.5885983,105.802122 C21.5623431,105.98088 14.5998954,106.593396 12.3469665,106.787975 C12.3469665,109.627136 12.3388075,172.03046 12.3388075,177.03601 C15.5491632,175.469137 18.8046025,173.955873 22.083682,172.525686 C22.083682,171.090274 22.091841,136.526481 22.091841,136.526481 L31.6472803,167.892156 C31.6472803,167.892156 31.7311611,168.156008 31.8364226,168.508288 C32.9626778,168.082408 33.6291004,167.824095 34.2869456,167.571727 C34.7553452,166.120536 44.4426987,136.329362 44.4426987,136.329362 C44.4426987,136.329362 44.4620711,161.133482 44.4675418,164.014547 C47.6990272,162.952514 50.9544665,161.949523 54.2124163,161.024175 L54.2124163,103.099825 L54.2130753,103.098624 Z M202.612657,103.846196 L202.612657,163.612881 C205.765167,164.627638 208.889017,165.713435 211.962552,166.833257 C211.962552,162.71115 211.954184,130.259302 211.954184,130.259302 L225.202092,172.091697 C228.707218,173.600677 232.177824,175.208619 235.58818,176.864944 C235.58818,171.780496 235.596548,109.737279 235.596548,106.764254 C233.628243,106.590752 227.875209,106.084701 226.23818,105.942737 C226.23818,109.291962 226.254603,143.650517 226.254603,143.650517 C226.254603,143.650517 214.005649,105.385752 213.837238,104.849667 C212.153138,104.702448 205.222803,104.07875 202.612343,103.847408 L202.612657,103.846196 Z M165.114749,108.849551 L179.710983,110.032596 L179.710983,149.309966 L165.114749,146.549598 L165.114749,108.849133 L165.114749,108.849551 Z M84.9536611,110.509011 L90.2002092,134.004791 L79.2054393,134.004791 L79.7482008,131.803081 L84.953431,110.509116 L84.9536611,110.509011 Z" id="Shape" fill="#F2A900"></path>
            </g>
        </g>
    </g>
</svg>