<?xml version="1.0" encoding="UTF-8" standalone="no"?>
<svg width="250px" height="250px" viewBox="0 0 250 250" version="1.1" xmlns="http://www.w3.org/2000/svg" xmlns:xlink="http://www.w3.org/1999/xlink">
    <!-- Generator: Sketch 47.1 (45422) - http://www.bohemiancoding.com/sketch -->
    <title>NCWILM </title>
    <desc>Created with Sketch.</desc>
    <defs></defs>
    <g id="Page-1" stroke="none" stroke-width="1" fill="none" fill-rule="evenodd">
        <g id="NCWILM-" fill-rule="nonzero">
            <g id="Group" transform="translate(125.500000, 125.000000) scale(-1, 1) rotate(-180.000000) translate(-125.500000, -125.000000) translate(16.000000, 0.000000)">
                <path d="M109.532049,11.9741429 C102.629454,16.9724286 97.2666244,24.1994286 93.3908585,30.8441429 C92.0989366,26.1298571 91.3368878,23.0092857 91.3368878,23.0092857 C74.5860585,33.8255714 70.8783707,49.7078571 70.8783707,49.7078571 L33.2773171,49.7078571 L97.505922,142.292143 C65.3204,140.620714 35.7087512,132.895429 15.8755415,121.502143 L5.09775024,135.232143 C34.8375941,144.382143 70.800599,149.735 109.53974,149.735 C148.277458,149.735 184.239038,144.382714 213.976033,135.235 L203.201233,121.504571 C183.362326,132.899143 153.746404,140.620286 121.558033,142.291714 L185.789487,49.7074286 L148.201253,49.7074286 C148.201253,49.7074286 144.481315,33.8245714 127.734189,23.0088571 C127.734189,23.0088571 126.973693,26.1294286 125.681073,30.8437143 C121.789639,24.199 116.432507,16.972 109.521366,11.9737143 L109.532049,11.9741429 Z M109.540453,220.945571 C70.7998868,220.945571 34.836882,226.301714 5.09561366,235.451286 L15.87312,249.179 C38.3770615,236.255714 71.9855493,228.049 109.541022,228.049 C147.095071,228.049 180.696437,236.253857 203.200379,249.173286 L213.977885,235.448429 C184.238041,226.298429 148.280734,220.945571 109.541592,220.945571 L109.540453,220.945571 Z" id="Shape" fill="#006666" transform="translate(109.536749, 130.576357) scale(-1, 1) rotate(-180.000000) translate(-109.536749, -130.576357) "></path>
                <path d="M109.540595,0.839914286 C100.062987,8.61677143 94.5973171,17.8699143 91.6944098,24.1627714 C90.4231415,20.5199143 89.2957366,16.9783429 88.2808585,13.5712 C82.526322,20.3194857 78.4887454,28.3183429 75.6309912,35.8569143 L53.701079,35.8569143 L109.532903,126.234057 L165.165313,35.8569143 L143.457606,35.8569143 C140.599994,28.3194857 136.562275,20.3197714 130.807739,13.5712 C129.796421,16.9783429 128.669017,20.5199143 127.394187,24.1627714 C124.495553,17.8699143 119.023046,8.61705714 109.542304,0.839914286 L109.540595,0.839914286 Z M0.373902439,125.059914 L0.373902439,202.551343 C14.3222439,199.647771 28.3588976,197.623629 42.4660585,196.164629 L42.4910993,132.080343 C37.5199774,131.449986 32.5623871,130.758571 27.6076457,129.996057 L27.5992418,186.078914 C27.5992418,186.5932 24.80003,187.2682 21.3619793,187.641486 C17.9274896,188.0147 15.1413822,187.916271 15.1413822,187.368057 L15.144231,127.912343 C10.2104281,127.031986 5.28688078,126.076629 0.374728585,125.0552 L0.373902439,125.059914 Z M218.30561,125.062771 C213.571221,126.048486 208.824014,126.969629 204.070111,127.825057 L204.07296,187.177914 C204.071536,187.670771 201.922131,187.810386 199.265643,187.5211 C196.610864,187.228243 194.452771,186.630929 194.452771,186.1595 L194.441376,129.468071 C189.708839,130.230571 184.95978,130.927071 180.205877,131.566357 L180.225391,184.942071 C180.225391,185.390286 178.061742,185.581586 175.38745,185.394086 C172.716718,185.203014 170.546802,184.722329 170.546802,184.291971 L170.527288,132.766257 C165.728802,133.319829 160.926613,133.806671 156.11958,134.222686 L156.113883,194.482686 C176.99402,195.886257 197.74881,198.287829 218.30561,202.5574 L218.30561,125.063114 L218.30561,125.062771 Z M52.5778049,133.257486 L52.5555417,195.2332 C57.5302246,194.811771 62.5143085,194.459429 67.5030929,194.170143 L67.5197867,166.064429 C70.7531526,173.643 74.0075994,181.047286 77.7074531,189.557286 C80.1609653,194.046571 84.7153106,193.367286 84.7153106,193.379857 C88.1089204,193.262 91.5048092,193.176286 94.9002706,193.112 L94.9113809,136.074857 C89.9100619,135.942714 84.9114492,135.738814 79.913976,135.463814 L79.9028658,158.493814 C75.7775467,150.743814 71.6523701,142.830957 67.5340306,134.640957 C62.5486648,134.2481 57.559738,133.7856 52.5779331,133.257014 L52.5778049,133.257486 Z M146.76561,134.962343 C132.587657,135.953414 118.371815,136.384329 104.164946,136.248614 L104.162098,192.9929 C118.379221,192.896471 132.605746,193.189886 146.791249,193.922029 L146.785551,171.369171 L131.796693,171.369171 C131.796693,174.781743 131.797694,178.407314 131.799541,182.234171 C131.799541,182.675243 128.968993,182.9594 125.48992,182.9094 C122.008995,182.8594 119.176738,182.489757 119.180299,182.061186 C119.176738,168.691471 119.178304,160.532614 119.174743,147.158329 C119.174743,146.729743 121.996176,146.345829 125.47881,146.265471 C128.963153,146.1869 131.782021,146.444371 131.785582,146.876514 C131.789143,151.028229 131.791138,154.210371 131.791138,157.878229 L132.58958,157.853086 C147.467336,157.412014 146.772803,148.605657 146.763972,148.519943 L146.76682,134.962514 L146.76561,134.962343 Z M49.1777854,224.7952 C48.2252244,224.7952 47.5089698,224.851057 47.0300898,224.9654 C46.549358,225.081543 46.1415124,225.282143 45.8032197,225.5625 C45.4115124,225.8875 45.1121625,226.301786 44.9074064,226.8125 C44.7008699,227.321429 44.5985986,227.902557 44.5985986,228.550786 L44.5985986,229.415743 C44.5985986,230.565743 44.8604443,231.430457 45.3803467,232.016171 C45.9002492,232.6001 46.7219514,232.954229 47.8508092,233.079229 L50.8804872,233.408471 C51.5161214,233.483471 51.92297,233.593057 52.1045797,233.7377 C52.284409,233.880557 52.3744304,234.117057 52.3744304,234.4492 L52.3744304,235.057457 C52.3744304,235.444957 52.2629292,235.715829 52.0350267,235.8694 C51.8089048,236.022971 51.4105171,236.0982 50.844322,236.0982 L49.9095659,236.0982 C49.2294195,236.0982 48.7550263,235.996914 48.4879532,235.796857 C48.2190995,235.598643 48.0845659,235.244743 48.0845659,234.739386 L48.0845659,234.599814 L44.5040761,234.599814 L44.5040761,235.565214 C44.5040761,236.790214 44.8741897,237.684071 45.6113116,238.246643 C46.350214,238.809143 47.532814,239.089286 49.1583282,239.089286 L52.1991165,239.089286 C53.4080677,239.089286 54.3710267,238.7414 55.0867828,238.048543 C55.8043194,237.355686 56.1606449,236.4294 56.1606449,235.272257 L56.1606449,233.930186 C56.1606449,232.919471 55.867306,232.134186 55.2815255,231.575329 C54.6975255,231.014614 53.8085635,230.666514 52.6191977,230.529014 L49.8594416,230.2221 C48.8570269,230.107814 48.3571372,229.7943 48.3571372,229.2818 L48.3571372,228.701443 C48.3571372,228.3568 48.465633,228.117071 48.688194,227.976 C48.9089744,227.835 49.3165922,227.763943 49.9094946,227.763943 L50.7691426,227.763943 C51.2801426,227.763943 51.6314542,227.845229 51.8290884,228.009486 C52.024942,228.1702 52.1239799,228.460371 52.1239799,228.880014 L52.1239799,229.030686 L55.7044697,229.030686 L55.7044697,228.073657 C55.7044697,227.009371 55.3353532,226.198514 54.6000117,225.6378 C53.8646702,225.0753 52.8041405,224.795171 51.411799,224.795171 L49.1777854,224.795171 L49.1777854,224.7952 Z M166.43359,224.7952 C165.479249,224.7952 164.763778,224.851057 164.283046,224.9654 C163.802314,225.081543 163.395466,225.282143 163.058953,225.5625 C162.663685,225.8875 162.365119,226.301786 162.160363,226.8125 C161.953826,227.321429 161.848777,227.902557 161.848777,228.550786 L161.848777,229.415743 C161.848777,230.565743 162.111634,231.430457 162.633317,232.016171 C163.15322,232.6001 163.976688,232.954229 165.10378,233.079229 L168.133458,233.408471 C168.769092,233.483471 169.17594,233.593057 169.35755,233.7377 C169.53916,233.880557 169.630178,234.117057 169.630178,234.4492 L169.630178,235.057457 C169.630193,235.444957 169.514091,235.715829 169.287997,235.8694 C169.060095,236.022971 168.661707,236.0982 168.097292,236.0982 L167.162536,236.0982 C166.48417,236.0982 166.009791,235.996914 165.740938,235.796857 C165.473865,235.598643 165.340328,235.244743 165.340328,234.739386 L165.340328,234.599814 L161.759838,234.599814 L161.759838,235.565214 C161.759838,236.790214 162.128186,237.684071 162.867088,238.246643 C163.60599,238.809143 164.78859,239.089286 166.414105,239.089286 L169.452044,239.089286 C170.662776,239.089286 171.622245,238.7414 172.339853,238.048543 C173.057389,237.355686 173.413715,236.4294 173.413715,235.272257 L173.413715,233.930186 C173.413715,232.919471 173.123154,232.134186 172.537373,231.575329 C171.951593,231.014614 171.061562,230.666514 169.872196,230.529014 L167.115147,230.2221 C166.110952,230.107814 165.610136,229.7943 165.610136,229.2818 L165.610136,228.701443 C165.610136,228.3568 165.721381,228.117071 165.94397,227.976 C166.16297,227.835 166.569591,227.763943 167.162493,227.763943 L168.022141,227.763943 C168.533141,227.763943 168.886234,227.845229 169.082087,228.009486 C169.277941,228.1702 169.376979,228.460371 169.376979,228.880014 L169.376979,229.030686 L172.957468,229.030686 L172.957468,228.073657 C172.957468,227.009371 172.590132,226.198514 171.853011,225.6378 C171.117669,225.0753 170.05543,224.795171 168.664798,224.795171 L166.433633,224.795171 L166.43359,224.7952 Z M60.2994244,224.962614 L60.2994244,238.9219 L70.9099922,238.9219 L70.9099922,235.808043 L64.0300449,235.808043 L64.0300449,233.182471 L70.5621561,233.182471 L70.5621561,230.492757 L64.0300449,230.492757 L64.0300449,228.073614 L70.759719,228.073614 L70.759719,224.962614 L60.299282,224.962614 L60.2994244,224.962614 Z M78.310839,224.962614 L74.3102966,238.9219 L78.310839,238.9219 L78.9479118,236.483329 L83.3296211,236.483329 L83.9583612,238.9219 L87.9589036,238.9219 L84.0529407,224.962614 L78.3109387,224.962614 L78.310839,224.962614 Z M91.6394283,224.962614 L91.6394283,238.9219 L95.3700488,238.9219 L95.3700488,233.464329 L100.230211,233.464329 L100.230211,238.9219 L103.960831,238.9219 L103.960831,224.962614 L100.230211,224.962614 L100.230211,230.183043 L95.3700488,230.183043 L95.3700488,224.962614 L91.6394283,224.962614 Z M111.662082,224.962614 L107.658833,238.9219 L111.662082,238.9219 L112.299169,236.483329 L116.680878,236.483329 L117.306827,238.9219 L121.30452,238.9219 L117.398557,224.962614 L111.66211,224.962614 L111.662082,224.962614 Z M124.183897,224.962614 L126.326037,238.9219 L131.700831,238.9219 L133.46736,229.452043 L135.167227,238.9219 L140.489177,238.9219 L142.803811,224.962614 L139.059231,224.962614 L137.598661,235.657329 L135.606794,224.962614 L131.439313,224.962614 L129.269397,235.657329 L127.953503,224.962614 L124.183854,224.962614 L124.183897,224.962614 Z M146.77615,224.962614 L146.77615,238.9219 L150.504064,238.9219 L150.504064,233.352757 L150.776707,233.352757 L154.432262,238.9219 L159.03931,238.9219 L153.992695,231.720471 L158.583078,224.962614 L154.142968,224.962614 L150.796221,230.202614 L150.504107,230.202614 L150.504107,224.962614 L146.776193,224.962614 L146.77615,224.962614 Z M81.0505112,227.858757 L81.2925436,227.858757 L82.677991,233.642757 L79.6289413,233.642757 L81.050554,227.858757 L81.0505112,227.858757 Z M114.398336,227.858757 L114.640368,227.858757 L116.025815,233.642757 L112.976766,233.642757 L114.398378,227.858757 L114.398336,227.858757 Z" id="Shape" fill="#003366" transform="translate(109.339756, 119.964600) scale(-1, 1) rotate(-180.000000) translate(-109.339756, -119.964600) "></path>
                <path d="M87.953961,129.649571 C87.3040829,130.799571 86.9023621,132.135286 86.9023621,133.578143 C86.9023621,137.778143 90.0776129,141.178571 93.9965378,141.178571 C95.6399992,141.178571 97.1227895,140.560486 98.3281085,139.565857 C97.3328158,138.358714 96.3946412,137.284 95.5043973,136.312571 C95.1376168,137.312571 94.1900697,138.031286 93.0701143,138.031286 C91.6279192,138.031286 90.4633378,136.859743 90.4633378,135.416857 C90.4633378,134.282929 91.1822133,133.324 92.1881319,132.961429 C90.5517924,131.452571 89.1467739,130.387 87.953847,129.649429 L87.953961,129.649571 Z M131.111561,129.649571 C129.916498,130.386714 128.512049,131.452429 126.876849,132.961 C127.881044,133.3235 128.598937,134.282429 128.598937,135.416429 C128.598937,136.859286 127.434384,138.030857 125.99216,138.030857 C124.872233,138.030857 123.925655,137.312114 123.560726,136.312143 C122.672262,137.283571 121.734088,138.358286 120.737015,139.565429 C121.940624,140.560071 123.422418,141.178143 125.065879,141.178143 C128.984661,141.178143 132.162761,137.777714 132.162761,133.577714 C132.162761,132.134857 131.757479,130.799143 131.111162,129.649143 L131.111561,129.649571 Z M109.532049,141.293 C105.518829,147.009 103.739908,154.267286 103.739908,154.267286 L101.734082,149.563 C96.9179337,150.229071 96.7988546,153.717571 96.7988546,153.717571 C102.054855,154.931857 109.532191,176.009 109.532191,176.009 C109.532191,176.009 117.011237,154.931857 122.265528,153.717571 C122.265528,153.717571 122.148244,150.229 117.3303,149.563 L115.324474,154.267286 C115.324474,154.267286 113.547262,147.009 109.532334,141.293 L109.532049,141.293 Z" id="Shape" fill="#FFD700" transform="translate(109.532562, 152.829071) scale(-1, 1) rotate(-180.000000) translate(-109.532562, -152.829071) "></path>
                <path d="M132.183415,206.375 C130.518659,203.466071 125.081049,194.242857 117.75078,184.717857 L116.461707,183.044643 L116.609488,185.153571 C116.61661,185.278571 117.501512,197.683929 120.508756,211.835714 C119.71822,213.017857 115.699659,218.823214 109.539171,224.298214 C103.380463,218.823214 99.3619024,213.017857 98.5695854,211.835714 C101.582171,197.683929 102.470634,185.278571 102.477756,185.153571 L102.625537,183.044643 L101.336463,184.717857 C94.0026341,194.242857 88.5650244,203.466071 86.9002683,206.375 C85.5364146,203.957143 82.2407317,196.541071 85.0165122,185.030357 C85.2266098,185.091071 85.4776585,185.130357 85.771439,185.130357 C88.3887561,185.130357 93.4791707,182.025 102.949585,167.489286 C103.562073,170.641071 105.269561,177.635714 109.040634,182.407143 L109.539171,183.041071 L110.039488,182.408929 C113.814122,177.635714 115.52339,170.641071 116.134098,167.489286 C125.604512,182.025 130.693146,185.130357 133.310463,185.130357 C133.604244,185.130357 133.853512,185.091071 134.06539,185.030357 C136.83939,196.541071 133.547268,203.957143 132.183415,206.375" id="Shape" fill="#FFFFFF"></path>
            </g>
        </g>
    </g>
</svg>