<?xml version="1.0" encoding="UTF-8" standalone="no"?>
<svg width="250px" height="250px" viewBox="0 0 250 250" version="1.1" xmlns="http://www.w3.org/2000/svg" xmlns:xlink="http://www.w3.org/1999/xlink">
    <!-- Generator: Sketch 47.1 (45422) - http://www.bohemiancoding.com/sketch -->
    <title>AMER</title>
    <desc>Created with Sketch.</desc>
    <defs></defs>
    <g id="Page-1" stroke="none" stroke-width="1" fill="none" fill-rule="evenodd">
        <g id="AMER">
            <g id="American_Eagles_logo" transform="translate(4.000000, 0.000000)">
                <g id="Group" transform="translate(120.253846, 125.826923) scale(-1, 1) rotate(-180.000000) translate(-120.253846, -125.826923) translate(0.061538, 3.230769)">
                    <g transform="translate(1.747115, 1.747115)" id="Shape">
                        <path d="M141.379808,1.56091756 L64.1644231,1.7862791 C64.1644231,1.7862791 72.6751923,7.28666371 71.9921154,17.8470483 C71.6951538,22.4370483 42.8186538,88.4816637 35.6340385,102.93551 C28.4486538,117.39051 12.3544231,133.809741 12.3544231,133.809741 L61.9351923,133.809741 C51.3005769,134.632818 1.00442308,144.978971 1.00442308,144.978971 L1.00442308,213.982818 C1.00442308,213.982818 62.8698077,198.613202 81.5044231,198.613202 L81.8725,200.145664 C86.0401923,216.242587 97.3351923,233.978741 138.5725,235.730279 C180.591731,237.514971 193.618654,204.818356 193.618654,204.818356 C195.905269,205.316125 232.787885,213.967971 232.787885,213.967971 L232.718654,146.521818 C232.718654,146.521818 208.735192,139.861818 197.352115,138.003356 C197.352115,138.003356 197.023692,132.854125 197.787808,125.300664 C198.524769,118.006048 215.748962,98.1822022 215.748962,98.1822022 L164.952808,98.1822022 L133.207038,17.6822022 C130.620846,10.6191252 141.380115,1.56143294 141.380115,1.56143294 L141.379808,1.56091756 Z" stroke="#085299" stroke-width="0.625" fill="#C4122E" fill-rule="nonzero" transform="translate(116.896154, 118.680843) scale(-1, 1) rotate(-180.000000) translate(-116.896154, -118.680843) "></path>
                        <path d="M129.850962,125.096154 C129.850962,125.096154 119.821154,122.410625 119.793269,111.513942 C119.754327,96.1197115 119.421875,95.2951923 119.615962,57.2014423 C119.615962,57.2014423 118.788413,39.9798077 138.412115,40.0504808 C158.386635,40.1221154 158.463558,54.6254808 158.482308,56.0158654 C158.520288,59.0897115 158.482308,109.895673 158.482308,109.895673 C158.482308,109.895673 158.170433,122.017788 149.050577,124.989423 L129.850577,125.094231 L129.850962,125.096154 Z" stroke="#C4122E" stroke-width="0.5343625"></path>
                        <path d="M205.350962,132.692308 C200.299038,128.773125 194.442788,120.990865 193.072115,116.812019 C191.113558,111.588942 191.377548,108.128846 191.378173,101.734135 L191.45,51.6956731 C191.45,51.6956731 192.823654,7.90528846 138.425962,8.56009615 C95.2009615,9.08004808 87.3826923,35.1740385 86.6663462,50.71875 L86.5291827,109.112981 C86.5291827,109.112981 86.9413462,116.490385 83.5081731,121.042788 C77.2875,129.290865 71.9942308,132.758173 71.9942308,132.758173 L127.749038,132.758173 L129.734135,125.745673 C129.734135,125.745673 119.657692,122.726587 119.630288,111.71875 C119.590865,96.1682692 119.252404,95.3341346 119.44976,56.8533654 C119.44976,56.8533654 118.607308,39.4572115 138.576683,39.5278846 C158.903606,39.6009615 158.982933,54.2528846 159.00024,55.6557692 C159.039663,58.7613942 159.00024,110.083654 159.00024,110.083654 C159.00024,110.083654 158.683846,122.329327 149.402644,125.330769 L149.583173,132.756731 L205.347596,132.690385 L205.350962,132.692308 Z" fill="#FFFFFF" fill-rule="nonzero"></path>
                        <path d="M205.350962,132.692308 C200.299038,128.773125 194.442788,120.990865 193.072115,116.812019 C191.113558,111.588942 191.377548,108.128846 191.378173,101.734135 L191.45,51.6956731 C191.45,51.6956731 192.823654,7.90528846 138.425962,8.56009615 C95.2009615,9.08004808 87.3826923,35.1740385 86.6663462,50.71875 L86.5291827,109.112981 C86.5291827,109.112981 86.9413462,116.490385 83.5081731,121.042788 C77.2875,129.290865 71.9942308,132.758173 71.9942308,132.758173 L127.749038,132.758173 L129.734135,125.745673 C129.734135,125.745673 119.657692,122.726587 119.630288,111.71875 C119.590865,96.1682692 119.252404,95.3341346 119.44976,56.8533654 C119.44976,56.8533654 118.607308,39.4572115 138.576683,39.5278846 C158.903606,39.6009615 158.982933,54.2528846 159.00024,55.6557692 C159.039663,58.7613942 159.00024,110.083654 159.00024,110.083654 C159.00024,110.083654 158.683846,122.329327 149.402644,125.330769 L149.583173,132.756731 L205.347596,132.690385 L205.350962,132.692308 Z" stroke="#C4122E" stroke-width="0.5417375"></path>
                        <path d="M139.283654,13.7980769 C106.933173,13.7980769 91.2475962,28.3668269 91.2475962,58.0639423 L91.2475962,108.121635 C91.2475962,118.393269 88.6329327,124.744231 82.9139423,127.545192 L123.271154,127.545192 C117.225962,124.37 115.102404,118.580288 115.102404,108.121635 L115.102404,59.0014423 C115.102404,42.9394231 123.435577,34.1610577 139.284135,34.1610577 C155.133654,34.1610577 163.303846,42.7514423 163.303846,59.0014423 L163.303846,108.121635 C163.303846,117.833654 161.995529,123.810096 155.133654,127.545192 L195.655288,127.545192 C190.1,124.930625 187.157692,118.206731 187.157692,108.121635 L187.157692,58.0639423 C187.157692,28.3668269 171.636538,13.7980769 139.283654,13.7980769" fill="#085299" fill-rule="nonzero"></path>
                        <path d="M122.456731,156.730769 L101.589904,212.394231 L82.1798077,156.730769 L122.456731,156.730769 Z M127.261587,132.790865 L76.6894712,132.795673 C73.82375,125.324038 76.2294231,120.065385 76.2294231,120.065385 C76.8790385,117.403558 80.8550481,112.944231 83.3654808,110.340865 L27.9472115,110.4375 C32.9683654,116.445192 38.7553846,123.934615 42.6640385,132.025 L79.7395192,219.693269 C80.2441827,221.306346 80.4460577,222.80851 80.0423077,224.423077 C79.8740865,225.095385 79.6204327,226.825337 77.1986058,229.478846 L129.347644,229.469231 C127.244808,227.209712 126.481923,224.737933 126.364808,223.967308 C126.235385,223.113798 126.162933,221.428942 126.81125,219.775913 L161.301154,131.530721 C165.072067,123.537933 171.140577,116.209087 177.052596,110.447548 L122.360288,110.471587 C122.360288,110.471587 127.513173,115.198462 129.022308,120.237452 C130.817163,126.232163 127.261106,132.787452 127.261106,132.787452 L127.261587,132.790865 Z" fill="#FFFFFF" fill-rule="nonzero"></path>
                        <path d="M122.456731,156.730769 L101.589904,212.394231 L82.1798077,156.730769 L122.456731,156.730769 Z M127.261587,132.790865 L76.6894712,132.795673 C73.82375,125.324038 76.2294231,120.065385 76.2294231,120.065385 C76.8790385,117.403558 80.8550481,112.944231 83.3654808,110.340865 L27.9472115,110.4375 C32.9683654,116.445192 38.7553846,123.934615 42.6640385,132.025 L79.7395192,219.693269 C80.2441827,221.306346 80.4460577,222.80851 80.0423077,224.423077 C79.8740865,225.095385 79.6204327,226.825337 77.1986058,229.478846 L129.347644,229.469231 C127.244808,227.209712 126.481923,224.737933 126.364808,223.967308 C126.235385,223.113798 126.162933,221.428942 126.81125,219.775913 L161.301154,131.530721 C165.072067,123.537933 171.140577,116.209087 177.052596,110.447548 L122.360288,110.471587 C122.360288,110.471587 127.513173,115.198462 129.022308,120.237452 C130.817163,126.232163 127.261106,132.787452 127.261106,132.787452 L127.261587,132.790865 Z" stroke="#C4122E" stroke-width="0.5417375"></path>
                        <g transform="translate(4.807692, 28.846154)" fill-rule="nonzero">
                            <polygon fill="#FFFFFF" points="97.6298077 185.048077 73.0701923 121.956731 122.921154 121.956731 97.6278846 185.048077"></polygon>
                            <polygon stroke="#C4122E" stroke-width="0.542" fill="#C4122E" stroke-linejoin="round" points="96.7596154 169.423077 84.1629808 133.095673 110.646635 133.066827 96.7596154 169.425481"></polygon>
                            <path d="M117.634615,128.75 L96.7682692,180.153846 L77.3581731,128.75 L117.634615,128.75 Z M161.794712,86.0375 L125.2375,86.0375 C127.663846,88.9959615 128.796154,91.5846154 128.796154,94.9129808 C128.796154,97.6865385 128.149135,100.275 127.663846,101.569712 L124.913942,108.780769 L69.4331731,108.780769 L67.3303365,103.41875 C66.6833173,101.754615 66.1980288,98.9811058 66.1980288,96.2076923 C66.1980288,91.7700481 67.4920673,88.4418269 69.9184615,86.0379808 L32.8761538,86.0379808 C37.7290385,91.5850962 40.9641346,98.2418269 44.1992308,105.822596 L78.33,186.995673 C79.3005288,189.214519 79.7858173,191.06351 79.7858173,192.173077 C79.7858173,192.912692 79.4623077,194.022115 78.6535096,196.056058 L118.606394,196.056058 C117.959375,194.207019 117.312356,192.912692 117.312356,191.988173 C117.312356,191.063654 117.797644,189.399567 118.768173,186.995865 L150.4725,105.822788 C153.545913,98.0569231 157.26625,91.4001923 161.795577,86.0381731 L161.794712,86.0375 Z" fill="#085299"></path>
                            <path d="M222.134615,3.41346154 C222.134615,3.41346154 163.115385,19.5057692 112.379808,19.5057692 C61.6442308,19.5057692 2.49519231,3.65096154 2.49519231,3.65096154 L2.43307692,57.4442308 C2.43307692,57.4442308 62.6638462,72.4908654 113.399423,72.4908654 C164.135,72.4908654 222.173462,57.1307692 222.173462,57.1307692 L222.137885,3.41442308 L222.134615,3.41346154 Z" stroke="#005299" stroke-width="0.542" fill="#FFFFFF"></path>
                            <path d="M216.528846,11.3461538 C216.528846,11.3461538 159.495192,25.6745192 112.610577,25.6745192 C65.7278846,25.6745192 7.53365385,11.3461538 7.53365385,11.3461538 L7.54663462,52.3673077 C7.54663462,52.3673077 65.7293269,66.4182692 112.609135,66.4182692 C159.492788,66.4182692 216.541827,52.3673077 216.541827,52.3673077 L216.527404,11.3461538 L216.528846,11.3461538 Z" stroke="#005299" stroke-width="0.52" fill="#085299"></path>
                            <path d="M110.822115,21.3059519 L98.5548077,21.4036057 C99.7822308,22.0330288 100.314654,23.303375 100.327654,25.4601442 L100.425308,40.9951442 C100.438385,43.1917596 99.9583462,44.5149519 98.7050769,45.164375 L107.336231,45.0967596 C106.113154,44.508298 105.540077,43.158298 105.528538,40.958298 L105.498538,36.0829134 L107.909885,36.0679134 C110.006269,36.0517596 111.650615,36.9188365 113.025654,38.8248365 C114.469808,40.8099134 115.143846,42.441875 115.151538,43.6402211 C115.154773,44.1594519 114.951615,44.5551826 114.535538,45.0374519 L123.444769,44.9698365 C121.479077,43.4676826 120.5225,41.1587596 119.215538,38.8925288 C118.261808,37.2232596 117.344269,35.8675288 115.557192,34.9636826 C119.220692,34.135298 121.197192,31.610298 121.176038,28.2556057 C121.157192,25.1004134 119.603808,22.6771442 117.187192,21.8179134 C115.645962,21.2706057 113.514231,21.287875 110.8245,21.3071057 L110.822115,21.3059519 Z M124.929808,21.568875 C126.156577,22.2811442 126.591308,23.6269903 126.492308,25.820798 L125.786192,41.2504134 C125.686538,43.4441057 125.140615,44.7358365 123.855615,45.2992596 L132.471769,45.8100673 C131.245,45.0970673 130.779538,43.7519519 130.879231,41.5581442 L131.585346,26.1208365 C131.685,23.9271442 132.2685,22.6429134 133.5535,22.079298 L124.929654,21.5684903 L124.929808,21.568875 Z M94.2582692,21.7716826 L72.5259615,23.7473365 C73.7896154,24.2739134 74.3972308,25.496798 74.5466923,27.6461826 L75.6284231,43.2111826 C75.7778846,45.3612211 75.3486923,46.7251442 74.1710769,47.4331057 L96.2210769,45.4215673 C95.9493077,45.0451057 95.7849615,44.7402596 95.7628462,44.4224519 C95.7214231,43.8248365 96.3960769,41.8790673 97.3103077,38.3901442 C95.5568462,40.3922596 92.8706923,41.644875 89.4226154,41.9583365 L80.7187692,42.746798 L80.3072308,36.7737211 L88.3149231,36.046798 C89.2550769,35.9609903 89.988,35.4164519 90.3807308,34.4993365 L91.8906538,30.9912211 C91.2158077,31.3728365 90.3677692,31.7736057 89.1487692,31.8851442 L80.0218462,32.7114519 L79.6387308,27.1826057 L87.8945,26.4314134 C90.7155385,26.1747211 93.1771923,26.3484903 95.6245,27.7685673 C94.6824231,24.809375 94.0130385,23.2274134 93.9793846,22.7504903 C93.9605385,22.4716826 94.0461538,22.1471826 94.2648462,21.7664134 L94.2582692,21.7716826 Z M146.150577,22.8984903 C139.940962,23.3087211 135.855192,27.5961826 135.303269,34.3469519 C134.678885,41.9819519 138.564769,46.8481057 145.940192,47.635798 C149.175346,47.9809903 151.740962,47.449798 153.271731,47.6131057 C153.724,47.6619519 154.202154,47.8370288 154.774115,48.1389519 L155.299962,41.7312596 C152.352077,43.0204519 149.773423,43.6702596 147.164577,43.3914134 C142.537654,42.8973365 140.331115,39.8572596 140.756885,34.6475673 C141.143808,29.9164134 144.237692,26.836798 148.794577,27.3233365 C151.160115,27.5762596 153.183808,28.5086442 155.074577,30.2755673 L157.403308,24.5890288 C156.941962,24.6611442 156.579538,24.7476826 156.231423,24.7092211 C154.874577,24.5634903 152.485577,23.3457596 148.937192,22.9664519 C147.967462,22.8628365 147.037346,22.8402596 146.150231,22.8988365 L146.150577,22.8984903 Z M70.0005769,23.9877211 L59.6490385,25.5727596 C59.8638462,25.901875 59.9989615,26.1667596 60.0321538,26.4441442 C60.051,26.6024134 60.0117692,26.890375 59.9495385,27.2629519 L56.8095,44.9914134 L49.8233462,28.9756442 C49.6253846,28.4823365 49.5168462,28.1741442 49.4928077,27.9765673 C49.4655,27.7384519 49.4997308,27.4559519 49.6355385,27.1126826 L39.4943846,28.6676826 C40.7755,29.0759134 41.4855769,30.3371442 41.7404615,32.5138365 L43.5358462,47.8307596 C43.7914231,50.0081442 43.3939615,51.4382596 42.2513077,52.2176826 L50.2216923,51.0007211 C48.9392692,50.5924519 48.2230385,49.3319519 47.9680769,47.1545673 L46.1050769,31.2741826 L54.1127692,48.7095673 C54.3068846,49.1637596 54.41,49.4669134 54.4282692,49.6260288 C54.4425,49.7443365 54.4001923,49.9901057 54.3381154,50.3622211 L60.2273462,49.4607596 C60.0183462,49.1715673 59.9171923,48.9094903 59.8893077,48.6719903 C59.8666154,48.4744903 59.9023846,48.225298 59.9644231,47.8531826 L63.8255769,29.0881826 L65.6284615,44.442798 C65.8523462,46.3435673 65.7402692,47.4891442 64.5542308,48.7997211 L72.5919231,47.5677596 C71.2292692,46.7697596 70.7803077,45.670798 70.5486538,43.6916057 L68.7532692,28.3669903 C68.4976923,26.1896057 68.8278462,24.8121442 70.0002692,23.987375 L70.0005769,23.9877211 Z M110.985192,25.3774519 C114.304462,25.3516826 115.7025,26.0597596 115.717885,28.6151442 C115.733269,31.1712596 114.342154,31.9366442 111.022885,31.9654903 L105.471346,32.0105673 L105.426269,25.4224903 L110.985115,25.3774134 L110.985192,25.3774519 Z M169.662115,26.2939134 C169.780385,26.7577211 169.825038,26.9996057 169.804846,27.157798 C169.775615,27.3944903 169.621346,27.7761442 169.354115,28.2169903 L159.889115,44.3827596 C158.994923,45.8908365 158.130423,47.2044134 156.944423,48.2214134 L164.8675,49.5175673 C164.412615,48.9192596 164.223923,48.1603365 164.341654,47.211375 C164.415462,46.6182211 164.594885,46.0416826 164.777346,45.7089903 L165.370808,44.6347596 L177.232346,46.5653365 L177.6305,48.2029519 C177.699731,48.4973365 177.771846,49.0746442 177.698115,49.667798 C177.609462,50.379298 177.296885,50.8926057 176.699,51.4406442 L184.519,52.7176826 C183.694038,51.4130288 183.068154,49.8586826 182.618462,48.090375 L178.006154,29.6257596 C177.863308,29.0784519 177.801346,28.7120673 177.825885,28.5139903 C177.8505,28.3164903 178.021346,28.0602596 178.209,27.6876826 L169.667846,26.2979519 L169.662115,26.2939134 Z M188.404423,29.4114134 C189.541885,30.2974519 189.822885,31.689875 189.478654,33.8510288 L187.052269,49.0552596 C186.707423,51.2164134 186.023385,52.4180673 184.685962,52.7887211 L192.761346,54.4714134 C191.532615,53.4854903 191.3465,52.1853365 191.657077,50.016798 L193.798,34.346798 L199.559538,54.3437211 C199.668154,54.7727596 199.734308,55.027375 199.709769,55.1850673 C199.684385,55.3418365 199.578615,55.5682211 199.356692,55.8461442 L207.574769,57.558875 C207.249962,56.922798 207.278154,56.2726442 207.4095,55.4479903 L210.151385,38.2829903 C210.164077,38.2046057 210.175231,38.1261442 210.181385,38.0876826 C210.462846,36.3192596 210.712615,34.988375 212.472538,34.4218365 L204.599846,32.7842211 C205.709577,33.6236442 206.078385,35.0776826 205.734154,37.2388365 L203.412923,52.2626826 L198.244462,32.9569134 C198.135192,32.5279134 198.084731,32.1971826 198.109231,32.0404519 C198.128846,31.9227211 198.228538,31.7382211 198.409731,31.4920673 L188.403577,29.4112211 L188.404423,29.4114134 Z M173.109808,30.320375 L176.204769,42.0392211 L167.588615,40.6419903 L173.109769,30.3204519 L173.109808,30.320375 Z M29.2675,30.7819134 L20.7713462,32.5088365 C21.0100962,32.9065673 21.1149154,33.1258365 21.1394346,33.2825673 C21.1763192,33.5192596 21.1374873,33.932875 21.0042192,34.4469134 L16.4292192,53.1819134 C15.9911808,54.9340288 15.52095,56.4872211 14.6714115,57.8769134 L22.5514115,56.284375 C21.9561423,55.8776057 21.5708731,55.2224134 21.4246038,54.2786826 C21.3327231,53.6884903 21.3417692,53.0744134 21.4246038,52.6936442 L21.6953731,51.462875 L33.4969115,49.0744134 L34.3176808,50.4859519 C34.4632577,50.740375 34.6921808,51.2636826 34.7834115,51.8531442 C34.8934115,52.5609903 34.7356423,53.1627211 34.3176808,53.8964134 L42.0926808,52.318875 C40.9532577,51.3744134 39.9374885,50.1188365 39.0277577,48.6004134 L29.6042962,32.7042596 C29.3189115,32.2350288 29.1623731,31.9004134 29.1308346,31.7042596 C29.10045,31.5081057 29.1900654,31.2004134 29.2662192,30.7811826 L29.2675,30.7819134 Z M25.1509615,35.1088365 L31.2882692,45.137298 L22.7244231,46.8725673 L25.1508077,35.1087211 L25.1509615,35.1088365 Z" fill="#FFFFFF" transform="translate(113.571975, 39.588553) scale(-1, 1) rotate(-180.000000) translate(-113.571975, -39.588553) "></path>
                        </g>
                    </g>
                </g>
            </g>
        </g>
    </g>
</svg>