<?xml version="1.0" encoding="UTF-8" standalone="no"?>
<svg width="250px" height="250px" viewBox="0 0 250 250" version="1.1" xmlns="http://www.w3.org/2000/svg" xmlns:xlink="http://www.w3.org/1999/xlink">
    <!-- Generator: Sketch 47.1 (45422) - http://www.bohemiancoding.com/sketch -->
    <title>UOP</title>
    <desc>Created with Sketch.</desc>
    <defs></defs>
    <g id="Page-1" stroke="none" stroke-width="1" fill="none" fill-rule="evenodd">
        <g id="UOP" fill-rule="nonzero">
            <g id="Group" transform="translate(0.000000, 38.000000)">
                <path d="M209.979424,60.8382353 C188.117284,53.9411765 177.932099,69.5882353 152.932099,63.9779412 C130.246914,58.8308824 90.8436214,70.8235294 115.534979,109.272059 C123.336738,120.650236 123.559735,135.5998 116.100823,147.205882 C126.781784,139.694112 131.698428,126.34987 128.446502,113.698529 C119.547325,67.375 161.676955,72.5220588 161.676955,72.5220588 C140.792181,75.0441176 129.115226,115.397059 156.944444,130.838235 C170.781893,138.970588 171.296296,146.897059 171.296296,146.897059 C171.296296,146.897059 176.440329,138.404412 182.561728,128.727941 C182.561728,128.727941 156.32716,126.566176 156.32716,101.705882 C156.32716,90.9485294 166.872428,84.3088235 170.061728,82.25 C173.119813,79.9665639 175.823913,77.2435296 178.08642,74.1691176 C190.6893,58.2132353 200,65.625 202.366255,71.5441176 C204.063786,75.8161765 216.100823,78.2352941 217.438272,72.2132353 C218.455804,67.0231841 215.142715,61.9706098 209.979424,60.8382353 L209.979424,60.8382353 Z" id="Shape" fill="#FFFFFF"></path>
                <path d="M181.584362,122.036765 C181.584362,123.683824 184.567901,124.147059 185.853909,122.5 C188.462176,118.904022 189.619401,114.456196 189.09465,110.044118 C186.625514,117.713235 181.430041,119.977941 181.584362,122.036765 Z" id="Shape" fill="#FFFFFF"></path>
                <path d="M206.018519,77.6691176 C205.135789,81.9430462 203.384916,85.9899419 200.874486,89.5588235 C205.215187,86.7267322 208.757397,82.8280091 211.162551,78.2352941 C209.42767,78.4882088 207.656974,78.2933177 206.018519,77.6691176 Z" id="Shape" fill="#FFFFFF"></path>
                <path d="M193.055556,68.1985294 C190.226337,72.4705882 192.592593,78.4926471 185.90535,89.9191176 C191.851301,85.3802298 196.296082,79.1574628 198.662551,72.0588235 C197.94078,69.6074538 195.601639,67.9970061 193.055556,68.1985294 Z" id="Shape" fill="#FFFFFF"></path>
                <path d="M178.343621,112.411765 C176.35513,114.544324 174.224014,116.539121 171.965021,118.382353 C171.64378,118.799416 171.44755,119.299205 171.399177,119.823529 C171.323828,120.697439 171.727161,121.543693 172.453268,122.035172 C173.179374,122.52665 174.11448,122.586343 174.897119,122.191176 C175.636991,121.799495 176.299378,121.276251 176.851852,120.647059 C180.68256,116.408641 182.840226,110.919822 182.921811,105.205882 C181.654398,107.762901 180.119768,110.178346 178.343621,112.411765 Z" id="Shape" fill="#FFFFFF"></path>
                <path d="M184.259259,48.5367647 C184.845458,47.3892339 184.845458,46.0298837 184.259259,44.8823529 C183.078591,45.5941953 181.818181,46.1643051 180.504115,46.5808824 C181.515536,47.6165943 182.831219,48.3018732 184.259259,48.5367647 L184.259259,48.5367647 Z" id="Shape" fill="#FFFFFF"></path>
                <path d="M178.909465,51.4705882 L178.909465,51.4705882 C177.296876,50.5298255 176.264253,48.8416235 176.160709,46.9767364 C176.057165,45.1118493 176.896543,43.3195861 178.395062,42.2058824 C175.743426,42.1925862 173.516162,44.1983022 173.251029,46.8382353 C173.380833,48.206088 174.051836,49.4652299 175.114632,50.3353018 C176.177428,51.2053738 177.543783,51.6141412 178.909465,51.4705882 L178.909465,51.4705882 Z" id="Shape" fill="#FFFFFF"></path>
                <path d="M184.979424,51.8823529 C177.263374,54.7132353 174.382716,52.8088235 172.788066,50.3897059 C166.820988,41.1764706 136.162551,42.6176471 122.685185,44.5735294 C91.8209877,49.1029412 61.6255144,73.1397059 86.6769547,109.169118 C97.9938272,125.433824 107.253086,132.022059 102.623457,156.367647 C102.623457,156.367647 112.294239,146.742647 105.967078,124.044118 C100.360082,104.073529 92.5925926,97.3308824 93.6213992,82.3529412 C95.936214,52.2941176 122.993827,49.6176471 151.234568,57.2867647 C163.35043,60.9877619 176.386707,60.2580307 188.014403,55.2279412 C188.323045,55.2279412 203.806584,49.2573529 215.58642,52.0882353 C210.082305,46.7867647 196.502058,47.6617647 184.979424,51.8823529 Z" id="Shape" fill="#F47920"></path>
                <path d="M159.259259,41.5882353 C165.57652,43.0843508 172.220607,42.2624833 177.983539,39.2720588 L189.300412,45.6029412 C192.46611,47.3730952 196.395238,47.0045228 199.176955,44.6764706 L175.05144,34.3823529 L156.378601,31.8088235 L131.584362,24.4485294 L128.600823,30.8823529 C113.186917,29.1386247 97.5849484,31.4448168 83.3333333,37.5735294 C49.8971193,51.9852941 67.9012346,85.6985294 67.9012346,85.6985294 C63.117284,35.4117647 122.582305,35.4117647 159.259259,41.5882353 Z" id="Shape" fill="#F47920"></path>
                <path d="M181.069959,88.9926471 C179.879106,86.6827696 177.370464,85.3659863 174.794239,85.6985294 C182.510288,90.8455882 175.205761,102.683824 175.154321,102.735294 C173.729044,106.018489 173.729044,109.746216 175.154321,113.029412 C173.031709,112.557247 171.263486,111.096477 170.398344,109.100388 C169.533202,107.104299 169.675801,104.814368 170.781893,102.941176 C175.925926,89.4558824 168.415638,89.5588235 166.409465,90.3308824 C166.409465,90.3308824 154.886831,102.426471 169.238683,116.580882 C169.960217,117.244349 170.821676,117.736901 171.759259,118.022059 C174.013231,116.228446 176.144229,114.285346 178.13786,112.205882 C175.925926,104.125 184.36214,95.0661765 181.069959,88.9926471 Z" id="Shape" fill="#F47920"></path>
                <path d="M226.59465,67.4779412 C229.989712,61.9705882 234.002058,53.6323529 219.238683,47.3014706 L176.954733,28.4117647 L159.3107,26.25 L129.166667,17.0882353 L124.485597,25.7352941 C124.485597,25.7352941 43.1069959,10.2941176 43.0555556,69.0220588 C45.0983887,62.7105529 49.8812202,57.6600896 56.0699588,55.2794118 C50.9259259,69.5882353 55.5555556,92.2867647 83.7962963,124.044118 L84.4135802,124.816176 C48.8683128,110.610294 25.8744856,86.9852941 27.6234568,61.7647059 C30.0411523,26.8676471 79.218107,1.33823529 139.917695,1.85294118 C135.802469,1.28676471 131.378601,0.823529412 126.903292,0.514705882 C60.0308642,-4.06617647 3.7037037,22.5441176 1.02880658,59.9632353 C-1.18312757,92.1323529 37.037037,121.727941 90.2263374,132.485294 C96.9603883,141.37361 99.8845225,152.577039 98.3539095,163.625 C101.080247,161.463235 153.549383,114.316176 171.039095,157.654412 C173.611111,153.588235 184.002058,137.426471 197.479424,116.117647 L194.238683,98.2058824 L211.471193,93.8823529 C213.168724,91.1544118 214.763374,88.3235294 216.306584,85.4411765 C220.33753,91.9360408 222.508382,99.4138618 222.582305,107.058824 C222.582305,142.058824 175.257202,170.882353 114.557613,174.588235 C118.930041,174.897059 123.353909,175 127.880658,175 C194.753086,175 249.279835,144.580882 249.279835,107.058824 C249.279835,92.2867647 240.843621,78.6470588 226.59465,67.4779412 Z M67.9012346,85.6985294 C67.9012346,85.6985294 49.9485597,51.9852941 83.3333333,37.5735294 C97.5849484,31.4448168 113.186917,29.1386247 128.600823,30.8823529 L131.584362,24.6544118 L156.378601,31.8088235 L175.05144,34.4338235 L199.176955,44.7279412 C196.395238,47.0559934 192.46611,47.4245658 189.300412,45.6544118 L177.983539,39.2720588 C172.220607,42.2624833 165.57652,43.0843508 159.259259,41.5882353 C122.582305,35.4117647 63.117284,35.4117647 67.9012346,85.6985294 Z M184.259259,48.5367647 C182.794569,48.3229872 181.43981,47.6361723 180.401235,46.5808824 C181.7153,46.1643051 182.975711,45.5941953 184.156379,44.8823529 C184.775143,46.0132911 184.813415,47.3727671 184.259259,48.5367647 Z M179.115226,51.4705882 L179.115226,51.4705882 C176.288888,51.7392429 173.779412,49.6659794 173.50823,46.8382353 C173.773364,44.1983022 176.000627,42.1925862 178.652263,42.2058824 C177.12815,43.2782789 176.242786,45.0437393 176.294523,46.907341 C176.346259,48.7709426 177.328205,50.4845029 178.909465,51.4705882 L179.115226,51.4705882 Z M102.520576,156.367647 C107.150206,132.022059 97.8909465,125.485294 86.5740741,109.169118 C61.6255144,73.1397059 91.718107,49.1029412 122.582305,44.5735294 C136.059671,42.6176471 166.718107,41.0735294 172.685185,50.3897059 C174.279835,52.8088235 177.160494,54.7132353 184.876543,51.8823529 C196.296296,47.6617647 209.979424,46.7352941 215.740741,51.8823529 C203.960905,49.0514706 188.477366,55.0220588 188.168724,55.0220588 C176.541028,60.0521483 163.504751,60.7818795 151.388889,57.0808824 C123.096708,49.3602941 96.0390947,52.0367647 93.6213992,82.3529412 C92.4897119,97.7941176 100.257202,104.330882 105.761317,124.301471 C112.191358,146.742647 102.520576,156.367647 102.520576,156.367647 Z M185.853909,122.5 C184.567901,124.147059 181.738683,123.683824 181.584362,122.036765 C181.430041,120.389706 186.728395,117.713235 189.09465,110.044118 C189.619401,114.456196 188.462176,118.904022 185.853909,122.5 L185.853909,122.5 Z M169.444444,116.786765 C155.092593,102.632353 166.615226,90.5367647 166.615226,90.5367647 C168.621399,89.7647059 176.337449,89.6617647 170.987654,103.147059 C169.878021,104.970338 169.689347,107.209436 170.478212,109.192878 C171.267077,111.17632 172.941742,112.673447 175,113.235294 C173.574723,109.952099 173.574723,106.224372 175,102.941176 C175,102.941176 182.355967,91.2058824 174.639918,85.9044118 C177.216143,85.5718687 179.724785,86.888652 180.915638,89.1985294 C184.41358,95.2720588 176.080247,104.330882 178.395062,112.617647 C180.168144,110.400442 181.702687,108.002386 182.973251,105.463235 C182.891666,111.177175 180.734,116.665994 176.903292,120.904412 C176.350818,121.533604 175.688432,122.056848 174.94856,122.448529 C174.16592,122.843696 173.230815,122.784003 172.504708,122.292524 C171.778602,121.801046 171.375269,120.954792 171.450617,120.080882 C171.49899,119.556558 171.695221,119.056769 172.016461,118.639706 C171.020117,118.242659 170.136785,117.606287 169.444444,116.786765 Z M185.90535,89.9191176 C192.592593,78.4411765 190.226337,72.4705882 193.055556,68.1985294 C195.646134,68.0138865 198.001279,69.700211 198.662551,72.2132353 C196.268859,79.2555104 191.826371,85.4212964 185.90535,89.9191176 L185.90535,89.9191176 Z M200.977366,89.5588235 C203.487797,85.9899419 205.23867,81.9430462 206.121399,77.6691176 C207.759855,78.2933177 209.530551,78.4882088 211.265432,78.2352941 C208.860278,82.8280091 205.318068,86.7267322 200.977366,89.5588235 L200.977366,89.5588235 Z M217.438272,72.0588235 C216.100823,78.0808824 204.063786,75.6617647 202.366255,71.3897059 C200,65.4705882 190.6893,58.0588235 178.08642,74.0147059 C175.843766,77.1803933 173.138705,79.9911477 170.061728,82.3529412 C166.872428,84.4117647 156.27572,91.0514706 156.32716,101.808824 C156.32716,126.669118 182.561728,128.830882 182.561728,128.830882 C176.697531,138.507353 171.296296,147 171.296296,147 C171.296296,147 170.781893,138.970588 156.944444,130.735294 C129.115226,115.294118 140.792181,74.9411765 161.676955,72.4191176 C161.676955,72.4191176 119.547325,67.2720588 128.446502,113.595588 C131.698428,126.246928 126.781784,139.591171 116.100823,147.102941 C123.559735,135.496859 123.336738,120.547295 115.534979,109.169118 C90.8436214,70.7205882 130.246914,58.7794118 152.932099,63.875 C177.932099,69.4852941 188.117284,53.8382353 209.979424,60.7352941 C215.118797,61.8678429 218.424605,66.8865023 217.438272,72.0588235 L217.438272,72.0588235 Z" id="Shape" fill="#231F20"></path>
            </g>
        </g>
    </g>
</svg>