<?xml version="1.0" encoding="UTF-8" standalone="no"?>
<svg width="250px" height="250px" viewBox="0 0 250 250" version="1.1" xmlns="http://www.w3.org/2000/svg" xmlns:xlink="http://www.w3.org/1999/xlink">
    <!-- Generator: Sketch 47.1 (45422) - http://www.bohemiancoding.com/sketch -->
    <title>UCSB</title>
    <desc>Created with Sketch.</desc>
    <defs></defs>
    <g id="Page-1" stroke="none" stroke-width="1" fill="none" fill-rule="evenodd">
        <g id="UCSB">
            <g id="ucsb" transform="translate(0.000000, 42.000000)">
                <path d="M238.584016,43.7353642 C232.156762,39.4352469 223.068135,35.607 211.570184,32.3541173 C203.433402,30.0526605 194.360143,28.1154815 184.602459,26.5687099 L184.602459,18.1421605 C184.602459,15.106 182.830943,12.3977407 179.336066,10.0937222 C176.197234,8.02487037 171.521516,6.20296914 165.438012,4.68181481 C154.595799,1.97150617 140.241291,0.47904321 125.018955,0.47904321 C109.796107,0.47904321 95.4405738,1.97150617 84.5993852,4.68181481 C78.5153689,6.20296914 73.8396516,8.02487037 70.7008197,10.0937222 C67.2069672,12.3977407 65.4344262,15.106 65.4344262,18.1421605 L65.4344262,26.5687099 C55.6767418,28.1154815 46.6039959,30.0526605 38.4667008,32.3541173 C26.9692623,35.607 17.880123,39.4352469 11.4533811,43.7353642 C4.05942623,48.6805247 0.31045082,54.1759444 0.31045082,60.0694568 C0.31045082,65.9619444 4.05942623,71.4573642 11.4533811,76.4035494 C17.880123,80.7021296 26.9692623,84.5308889 38.4667008,87.7837716 C46.5512295,90.0703704 55.5594262,91.9978148 65.2453893,93.539463 C64.9795082,99.6604568 66.0317623,105.663611 68.3319672,111.047852 C70.6106557,116.380858 74.1193648,121.084704 78.2115779,124.2925 L78.923668,124.850957 L79.8094262,124.663951 C84.6890369,123.634648 90.5522541,121.391599 96.7597336,119.016877 C99.5235656,117.959395 102.396004,116.861438 105.282275,115.836747 L105.282275,117.09763 L144.464139,117.09763 L144.464139,115.756309 C147.426742,116.803543 150.377049,117.931728 153.213115,119.016877 C159.420594,121.391599 165.283811,123.634648 170.163934,124.663951 L171.049693,124.850957 L171.761783,124.2925 C175.853996,121.084704 179.362193,116.380858 181.640881,111.047852 C183.940574,105.666173 184.992316,99.6666049 184.728484,93.5491975 C194.438012,92.0060123 203.468238,90.0754938 211.570184,87.7837716 C223.068135,84.5308889 232.156762,80.7021296 238.584016,76.4035494 C245.977971,71.4573642 249.726434,65.9619444 249.726434,60.0694568 C249.726434,54.1759444 245.977971,48.6805247 238.584016,43.7353642" id="Fill-1" fill="#1A1919"></path>
                <path d="M158.411885,100.209179 C158.411885,100.209179 158.411885,100.208154 158.411373,100.208154 C158.408811,100.201494 158.407275,100.194321 158.405225,100.18766 L157.365779,100.635963 C157.669057,101.504389 157.685963,102.479383 157.345287,103.410827 C156.561988,105.557556 154.186988,106.66166 152.041496,105.878284 C151.120902,105.542698 150.393955,104.912 149.923668,104.134259 L148.946721,104.608179 C148.947234,104.608691 148.947234,104.609204 148.947746,104.609716 C149.415471,105.406414 150.097336,106.079123 150.944672,106.543309 C151.174693,106.668833 151.414447,106.783086 151.669057,106.875821 C154.38832,107.868747 157.399078,106.469531 158.392418,103.747438 C158.532275,103.366253 158.619365,102.97892 158.667008,102.592099 C158.768443,101.774907 158.67623,100.960278 158.411885,100.209179" id="Fill-2" fill="#151546"></path>
                <path d="M167.01127,94.0999691 C164.638832,94.3469198 162.23873,94.5728642 159.811475,94.7772901 C149.61168,97.9369259 139.06916,108.601914 130.034324,104.263883 C141.425205,114.125512 158.801742,88.2100432 174.19877,98.0424691 C171.869365,95.7174444 169.464139,94.5175309 167.01127,94.0999691" id="Fill-3" fill="#151546"></path>
                <path d="M100.113217,104.134259 C99.6429303,104.912 98.9159836,105.542698 97.9959016,105.878284 C95.8504098,106.66166 93.4748975,105.557556 92.6921107,103.410827 C92.3514344,102.479383 92.3683402,101.504389 92.6711066,100.635963 L91.6321721,100.18766 C91.6296107,100.194321 91.6280738,100.201494 91.6255123,100.208154 C91.6255123,100.208667 91.6255123,100.209179 91.6255123,100.209179 C91.3606557,100.960278 91.2689549,101.774907 91.369877,102.592099 C91.4185451,102.97892 91.5056352,103.366253 91.6449795,103.747438 C92.6383197,106.469531 95.6485656,107.868747 98.3683402,106.875821 C98.6224385,106.783086 98.8621926,106.668833 99.0927254,106.543309 C99.9395492,106.079123 100.621926,105.406414 101.089139,104.609716 C101.089652,104.609204 101.090164,104.608691 101.090676,104.608179 L100.113217,104.134259" id="Fill-4" fill="#151546"></path>
                <path d="M90.2254098,94.7772901 C87.798668,94.5728642 85.3980533,94.3469198 83.0251025,94.0999691 C80.5727459,94.5175309 78.1675205,95.7174444 75.838627,98.0424691 C91.2351434,88.2100432 108.612193,114.125512 120.002561,104.263883 C110.967725,108.601914 100.425205,97.9369259 90.2254098,94.7772901" id="Fill-5" fill="#151546"></path>
                <path d="M125.018443,96.2021235 C115.433402,96.2021235 106.017418,95.8870309 96.9108607,95.2799012 C104.497439,97.3600247 114.409324,98.5204877 124.954406,98.5619877 C125.150102,98.5630123 125.345799,98.564037 125.542008,98.564037 C136.46209,98.564037 146.740779,97.3646358 154.509221,95.1871667 C144.974385,95.8568025 135.089139,96.2021235 125.018443,96.2021235" id="Fill-6" fill="#151546"></path>
                <path d="M182.856045,30.0895494 L182.856045,34.015142 C192.254611,35.510679 200.978996,37.3817654 208.790984,39.604321 C219.240266,42.5769506 227.724898,46.1387778 233.32582,49.9060556 C235.869877,51.6167778 238.766906,54.0171173 240.177766,56.7668765 C238.765881,55.3148889 237.076332,54.0391481 235.51793,53.0113827 C229.802766,49.2446173 221.148053,45.6822778 210.48668,42.7096481 C202.193648,40.3979444 192.890881,38.4653765 182.856045,36.9416605 L182.856045,43.9397901 C185.14293,45.3789691 186.704406,48.2301728 186.704406,51.5086728 C186.704406,54.7861481 185.14293,57.6378642 182.856045,59.0770432 L182.856045,60.0689444 C182.856045,64.9157346 176.852971,68.8736049 165.013832,71.8344506 C154.307377,74.5109444 140.102971,75.9854753 125.018443,75.9854753 C109.933914,75.9854753 95.7295082,74.5109444 85.0230533,71.8344506 C73.1839139,68.8736049 67.1813525,64.9157346 67.1813525,60.0689444 L67.1813525,59.0770432 C64.8944672,57.6378642 63.3324795,54.7861481 63.3324795,51.5086728 C63.3324795,48.2301728 64.8944672,45.3784568 67.1813525,43.9397901 L67.1813525,36.9411481 C57.1460041,38.4653765 47.8432377,40.3974321 39.5502049,42.7096481 C28.8893443,45.6822778 20.2336066,49.2446173 14.5189549,53.0113827 C12.9605533,54.0391481 11.2715164,55.3148889 9.85911885,56.7658519 C11.2710041,54.0160926 14.1670082,51.6167778 16.7110656,49.9060556 C22.3119877,46.1387778 30.7966189,42.5769506 41.2459016,39.604321 C49.0578893,37.3817654 57.7827869,35.510679 67.1813525,34.015142 L67.1813525,30.0895494 C30.0107582,35.9041605 4.82018443,47.1491235 4.82018443,60.0689444 C4.82018443,78.9524691 58.6347336,94.2608457 125.018443,94.2608457 C191.401639,94.2608457 245.216189,78.9524691 245.216189,60.0689444 C245.216189,47.1491235 220.026639,35.9041605 182.856045,30.0895494" id="Fill-7" fill="#151546"></path>
                <path d="M77.7858607,15.9400988 C80.5635246,14.6469383 84.446209,13.4280679 89.0143443,12.4161852 C98.9021516,10.2259074 111.689037,9.01933333 125.018443,9.01933333 C138.347848,9.01933333 151.134734,10.2259074 161.022541,12.4161852 C165.590676,13.4280679 169.473873,14.6469383 172.251025,15.9400988 C174.329406,16.9084321 175.33043,17.6912963 175.78791,18.1421605 C175.33043,18.5925123 174.329406,19.3764012 172.251025,20.3442222 C169.473873,21.6373827 165.590676,22.8562531 161.022541,23.8686481 C160.123463,24.0674383 159.199283,24.2580309 158.254098,24.4404259 C159.420082,24.1012531 161.076332,23.5504815 162.120389,23.2005494 C165.597336,22.0359877 168.655225,20.7049136 171.115266,19.2954506 C168.655225,18.1846852 165.597336,17.1364259 162.120389,16.2183025 C151.960041,13.5371975 138.783299,12.061642 125.018443,12.061642 C111.253586,12.061642 98.0768443,13.5371975 87.9170082,16.2183025 C84.4400615,17.1364259 81.3816598,18.1846852 78.9221311,19.2954506 C81.3816598,20.7049136 84.4400615,22.0359877 87.9170082,23.2005494 C88.960041,23.5504815 90.6168033,24.1012531 91.7822746,24.4404259 C90.8370902,24.2575185 89.9129098,24.0674383 89.0143443,23.8686481 C84.446209,22.8562531 80.5635246,21.6373827 77.7858607,20.3442222 C75.7079918,19.3764012 74.7069672,18.5925123 74.2494877,18.1421605 C74.7069672,17.6912963 75.7079918,16.9084321 77.7858607,15.9400988 M177.35502,22.0078086 L177.35502,46.8437654 C173.32377,48.8608704 166.227971,48.8598457 166.227971,48.8598457 C171.913934,47.2182901 175.55123,43.7901852 177.114242,42.0389877 C173.048668,43.9397901 166.227971,43.9408148 166.227971,43.9408148 C172.068648,42.2551975 175.747439,38.6831235 177.237705,36.9805988 C173.188012,38.940321 166.227971,38.9413457 166.227971,38.9413457 C171.914447,37.2992778 175.55123,33.8706605 177.114754,32.1199753 C173.048668,34.0207778 166.227971,34.0223148 166.227971,34.0223148 C171.914447,32.3802469 175.55123,28.9511173 177.114754,27.2009444 C173.048668,29.1012346 166.227971,29.1027716 166.227971,29.1027716 C169.996926,28.014037 172.866291,26.1409012 174.828381,24.4906358 C175.988217,23.5151296 176.831455,22.6175 177.35502,22.0078086 M75.5835041,52.6199506 C76.161373,52.4882778 76.7807377,52.4180864 77.4369877,52.4180864 C78.642418,52.4180864 79.9093238,52.6542778 81.2018443,53.1189753 C83.0532787,53.7860494 84.7612705,54.8501914 86.1951844,56.1469383 C89.3411885,56.9062346 92.8411885,57.5743333 96.6290984,58.1338148 C97.9385246,57.5507654 99.4579918,57.2238889 101.104508,57.2238889 C101.547131,57.2238889 102,57.2484815 102.448258,57.2956173 C104.584016,57.5225864 106.621926,58.2711235 108.328381,59.4351728 C111.697234,59.6985185 115.202869,59.882963 118.8125,59.9828704 C120.57377,59.0370802 122.704406,58.4827222 124.997439,58.4827222 C127.292008,58.4827222 129.422643,59.0375926 131.184426,59.9838951 C134.798156,59.8850123 138.308914,59.7005679 141.681865,59.4372222 C143.38832,58.2721481 145.427254,57.5225864 147.564549,57.2956173 C148.01332,57.2484815 148.465676,57.2238889 148.907787,57.2238889 C150.557377,57.2238889 152.078381,57.5517901 153.389857,58.1363765 C157.170594,57.5784321 160.666496,56.9123827 163.808402,56.1551358 C165.244877,54.8548025 166.95543,53.7875864 168.810451,53.1189753 C170.103484,52.6542778 171.370389,52.4180864 172.57582,52.4180864 C173.238217,52.4180864 173.863217,52.4893025 174.446209,52.623537 C178.574283,50.6745741 180.914959,48.4525309 180.914959,46.093179 L180.914959,18.1421605 C180.914959,10.4236728 155.888832,4.16690741 125.018443,4.16690741 C94.147541,4.16690741 69.1219262,10.4236728 69.1219262,18.1421605 L69.1219262,46.093179 C69.1219262,48.4509938 71.4605533,50.6715 75.5835041,52.6199506" id="Fill-8" fill="#151546"></path>
                <path d="M160.849898,100.306525 C160.869365,100.393111 160.886783,100.48021 160.903689,100.567309 C160.886783,100.48021 160.869365,100.393111 160.849898,100.306525" id="Fill-9" fill="#FFFFFE"></path>
                <path d="M147.858094,107.004932 C147.743852,106.875821 147.634221,106.742611 147.529201,106.60684 C147.634221,106.742611 147.743852,106.875821 147.858094,107.004932" id="Fill-10" fill="#FFFFFE"></path>
                <path d="M147.476947,106.538698 C147.374488,106.402414 147.276127,106.263568 147.182889,106.121648 C147.276127,106.263568 147.374488,106.402414 147.476947,106.538698" id="Fill-11" fill="#FFFFFE"></path>
                <path d="M160.77459,100.00629 C160.793545,100.076994 160.810963,100.147698 160.827869,100.219426 C160.810963,100.147698 160.793545,100.076994 160.77459,100.00629" id="Fill-12" fill="#FFFFFE"></path>
                <path d="M160.686475,99.7070802 C160.701332,99.7537037 160.714139,99.8013519 160.727971,99.8484877 C160.714139,99.8013519 160.701332,99.7537037 160.686475,99.7070802" id="Fill-13" fill="#FFFFFE"></path>
                <path d="M148.272029,107.435815 C148.14293,107.311827 148.01998,107.183228 147.901127,107.051043 C148.01998,107.183228 148.14293,107.311827 148.272029,107.435815" id="Fill-14" fill="#FFFFFE"></path>
                <path d="M160.912398,100.608809 C160.930328,100.70513 160.945697,100.800426 160.960041,100.897259 C160.945697,100.800426 160.930328,100.70513 160.912398,100.608809" id="Fill-15" fill="#FFFFFE"></path>
                <path d="M161,101.222086 C161.010758,101.323531 161.019467,101.424975 161.025102,101.52642 C161.019467,101.424975 161.010758,101.323531 161,101.222086" id="Fill-16" fill="#FFFFFE"></path>
                <path d="M160.962602,100.913654 C160.976947,101.014586 160.989754,101.115519 160.999488,101.216451 C160.989754,101.115519 160.977459,101.014586 160.962602,100.913654" id="Fill-17" fill="#FFFFFE"></path>
                <path d="M158.392418,103.747438 C157.399078,106.469531 154.38832,107.868747 151.669057,106.875821 C151.414447,106.783086 151.174693,106.668833 150.944672,106.543309 C150.043033,106.944475 149.152152,107.264691 148.277664,107.441451 C149.008709,108.141315 149.893443,108.704895 150.905225,109.074809 C154.819672,110.503741 159.152664,108.488685 160.58248,104.572827 C160.911373,103.672636 161.055328,102.750926 161.038422,101.847148 C160.252049,102.003414 159.460553,102.265222 158.667008,102.592099 C158.619365,102.97892 158.532275,103.366253 158.392418,103.747438" id="Fill-18" fill="#FFFFFE"></path>
                <path d="M146.871414,105.602642 L146.871414,105.602642 C146.955943,105.757883 147.047643,105.909025 147.143443,106.05863 C147.047643,105.909025 146.955943,105.757883 146.871414,105.602642" id="Fill-19" fill="#FFFFFE"></path>
                <path d="M161.026127,101.53513 C161.031762,101.6335 161.035861,101.731358 161.03791,101.829728 C161.035861,101.731358 161.031762,101.6335 161.026127,101.53513" id="Fill-20" fill="#FFFFFE"></path>
                <path d="M158.667008,102.592099 C159.460553,102.265222 160.252049,102.003414 161.038422,101.847148 C161.038422,101.841 161.038422,101.835364 161.03791,101.829728 C161.035861,101.731358 161.031762,101.6335 161.026127,101.53513 C161.026127,101.532568 161.025615,101.530006 161.025102,101.52642 C161.019467,101.424975 161.010758,101.323531 161,101.222086 C161,101.220549 161,101.2185 160.999488,101.216451 C160.989754,101.115519 160.976947,101.014586 160.962602,100.913654 C160.961578,100.908531 160.960553,100.902383 160.960041,100.897259 C160.945697,100.800426 160.930328,100.704617 160.912398,100.608809 C160.909836,100.594975 160.90625,100.581654 160.903689,100.567309 C160.886783,100.48021 160.869365,100.393111 160.849898,100.306525 C160.843238,100.277321 160.835041,100.24863 160.827869,100.219426 C160.810963,100.14821 160.793545,100.076994 160.77459,100.00629 C160.760246,99.9530062 160.743852,99.9012593 160.727971,99.8484877 C160.714139,99.8013519 160.701332,99.7537037 160.686475,99.7070802 C160.655225,99.6081975 160.621414,99.5088025 160.585553,99.4104321 C160.585553,99.4099198 160.585553,99.4099198 160.585041,99.4088951 C160.545082,99.422216 160.505635,99.4370741 160.465676,99.4509074 C160.275615,99.5144383 160.085553,99.5805309 159.895492,99.6486728 C159.820697,99.6748025 159.745902,99.7009321 159.671107,99.7280864 C159.436988,99.8131358 159.202869,99.9007469 158.967725,99.9909198 C158.938525,100.002191 158.909324,100.012438 158.880635,100.02371 C158.724385,100.083142 158.568135,100.146673 158.411885,100.209179 C158.67623,100.960278 158.768443,101.774907 158.667008,102.592099" id="Fill-21" fill="#829BC1"></path>
                <path d="M147.143443,106.05863 C147.156762,106.079123 147.16957,106.100642 147.182889,106.121648 C147.276127,106.263568 147.374488,106.402414 147.476947,106.538698 C147.494365,106.561241 147.51127,106.583784 147.529201,106.60684 C147.634221,106.742611 147.743852,106.875821 147.858094,107.004932 C147.871926,107.020302 147.886783,107.035673 147.901127,107.051043 C148.01998,107.183228 148.14293,107.311827 148.272029,107.435815 C148.274078,107.437864 148.275615,107.439914 148.277664,107.441451 C149.152152,107.264691 150.043033,106.944475 150.944672,106.543309 C150.097336,106.079123 149.415471,105.406414 148.947746,104.609716 C148.251025,104.948377 147.558402,105.281401 146.871414,105.602642 C146.955943,105.757883 147.047643,105.909025 147.143443,106.05863" id="Fill-22" fill="#829BC1"></path>
                <path d="M152.063012,103.086512 C152.03791,103.545574 152.306865,103.986704 152.761783,104.152191 C153.318648,104.356105 153.934426,104.069191 154.13832,103.512272 C154.307889,103.048086 154.133709,102.545475 153.749488,102.272395 C153.747951,102.27137 153.746926,102.270858 153.745902,102.269833 C153.670082,102.216037 153.589139,102.168389 153.497439,102.135086 C152.941598,101.932198 152.324283,102.219111 152.121414,102.776031 C152.084529,102.876963 152.06916,102.979944 152.063525,103.082414 C152.063525,103.083951 152.063525,103.084975 152.063012,103.086512" id="Fill-23" fill="#FFFFFE"></path>
                <path d="M154.734631,101.80821 C154.577869,102.346685 154.858094,102.921537 155.392418,103.116228 C155.949283,103.31963 156.565574,103.032716 156.769467,102.476821 C156.96209,101.94808 156.710041,101.369642 156.207992,101.138062 C156.20543,101.136525 156.202357,101.1355 156.199283,101.133963 C156.175717,101.123204 156.154201,101.108858 156.129098,101.099636 C155.571721,100.895722 154.95543,101.183148 154.752049,101.739556 C154.744877,101.760049 154.742316,101.78208 154.735656,101.803086 L154.734631,101.80821" id="Fill-24" fill="#F2B229"></path>
                <path d="M89.1296107,100.583191 C89.147541,100.489944 89.1664959,100.397722 89.1875,100.304988 C89.1664959,100.397722 89.147541,100.489944 89.1296107,100.583191" id="Fill-25" fill="#FFFFFE"></path>
                <path d="M102.506148,106.608889 C102.402152,106.743636 102.293033,106.875821 102.179816,107.003907 C102.293033,106.875821 102.402152,106.743636 102.506148,106.608889" id="Fill-26" fill="#FFFFFE"></path>
                <path d="M89.2044057,100.238383 C89.2228484,100.160506 89.2418033,100.082117 89.2633197,100.004753 C89.2418033,100.082117 89.2228484,100.160506 89.2044057,100.238383" id="Fill-27" fill="#FFFFFE"></path>
                <path d="M102.853484,106.121648 C102.760758,106.263568 102.663422,106.401389 102.561475,106.536648 C102.663422,106.401389 102.760758,106.263568 102.853484,106.121648" id="Fill-28" fill="#FFFFFE"></path>
                <path d="M99.0927254,106.543309 C98.8621926,106.668833 98.6224385,106.783086 98.3683402,106.875821 C95.6485656,107.868747 92.6383197,106.469531 91.6449795,103.747438 C91.5056352,103.366253 91.4185451,102.97892 91.3703893,102.592099 C90.576332,102.265222 89.7848361,102.003414 88.9984631,101.847148 C89.0066598,101.428049 89.0491803,101.013562 89.125,100.606759 C88.8842213,101.891722 88.973873,103.255586 89.4544057,104.572827 C90.8842213,108.488685 95.2182377,110.503741 99.1321721,109.074809 C100.324795,108.638802 101.339139,107.93279 102.135246,107.052068 C102.014344,107.186302 101.889857,107.316438 101.759221,107.441451 C100.884734,107.264691 99.9938525,106.944475 99.0927254,106.543309" id="Fill-29" fill="#FFFFFE"></path>
                <path d="M89.3012295,99.8751296 C89.317623,99.8187716 89.3329918,99.7619012 89.3509221,99.7065679 C89.3329918,99.7619012 89.317623,99.8187716 89.3012295,99.8751296" id="Fill-30" fill="#FFFFFE"></path>
                <path d="M102.89498,106.057093 C102.990266,105.908512 103.081455,105.757883 103.165471,105.602642 L103.165984,105.602642 C103.081455,105.75737 102.990266,105.908 102.89498,106.057093" id="Fill-31" fill="#FFFFFE"></path>
                <path d="M99.0927254,106.543309 C99.9938525,106.944475 100.884734,107.264691 101.759221,107.441451 C101.889857,107.316438 102.014344,107.186302 102.135246,107.052068 C102.14959,107.036185 102.165471,107.020302 102.179816,107.003907 C102.293545,106.875821 102.402152,106.743636 102.506148,106.608889 C102.52459,106.584809 102.543545,106.560728 102.561475,106.536648 C102.663422,106.401389 102.760758,106.263568 102.853484,106.121648 C102.867828,106.100642 102.881148,106.078611 102.89498,106.057093 C102.989754,105.908 103.081455,105.75737 103.165984,105.602642 C102.478996,105.281401 101.786373,104.948377 101.089139,104.609716 C100.621926,105.406414 99.9395492,106.079123 99.0927254,106.543309" id="Fill-32" fill="#829BC1"></path>
                <path d="M89.3012295,99.8751296 C89.2884221,99.9181667 89.2751025,99.961716 89.2628074,100.004753 C89.2418033,100.082117 89.2233607,100.160506 89.2044057,100.238383 C89.1987705,100.260926 89.192623,100.282957 89.1875,100.304988 C89.1664959,100.397722 89.147541,100.489944 89.1296107,100.583191 C89.1285861,100.590877 89.1265369,100.599074 89.125,100.606759 C89.0491803,101.013562 89.0066598,101.428049 88.9984631,101.847148 C89.7848361,102.003414 90.576332,102.265222 91.369877,102.592099 C91.2689549,101.774907 91.3606557,100.960278 91.6255123,100.209179 C91.4707992,100.147698 91.3155738,100.084679 91.1608607,100.025247 C91.1219262,100.010389 91.0824795,99.9960432 91.0430328,99.9811852 C90.8181352,99.8951111 90.5942623,99.8110864 90.3709016,99.7301358 C90.2909836,99.7009321 90.2105533,99.6732654 90.1306352,99.6450864 C89.9456967,99.5789938 89.7612705,99.5144383 89.5768443,99.4524444 C89.5348361,99.4380988 89.4928279,99.4227284 89.4518443,99.4088951 C89.4518443,99.4099198 89.451332,99.4099198 89.451332,99.4104321 C89.4159836,99.5082901 89.3826844,99.6071728 89.3509221,99.7065679 C89.3329918,99.7619012 89.317623,99.8187716 89.3012295,99.8751296" id="Fill-33" fill="#829BC1"></path>
                <path d="M96.2879098,102.272395 C95.9036885,102.545475 95.7289959,103.048086 95.8985656,103.512272 C96.1019467,104.069191 96.71875,104.356105 97.2751025,104.152191 C97.7300205,103.986704 97.9994877,103.545574 97.9743852,103.086512 C97.9743852,103.084975 97.973873,103.083951 97.973873,103.082926 C97.9682377,102.979944 97.9528689,102.877475 97.9154713,102.776031 C97.7126025,102.219111 97.0963115,101.932198 96.5389344,102.135086 C96.4477459,102.168389 96.366291,102.216037 96.2904713,102.269833 C96.289959,102.270858 96.2889344,102.27137 96.2879098,102.272395" id="Fill-34" fill="#FFFFFE"></path>
                <path d="M93.8288934,101.138062 C93.3273566,101.369642 93.0753074,101.94808 93.2679303,102.476821 C93.4713115,103.032716 94.0881148,103.320142 94.6444672,103.116228 C95.1793033,102.921537 95.4590164,102.346685 95.3022541,101.80821 C95.3017418,101.806673 95.3017418,101.805136 95.3012295,101.803086 C95.2945697,101.78208 95.2925205,101.760049 95.2848361,101.739556 C95.0814549,101.183148 94.4651639,100.895722 93.9077869,101.099636 C93.8831967,101.108858 93.861168,101.123204 93.8376025,101.133963 C93.8345287,101.1355 93.8319672,101.136525 93.8288934,101.138062" id="Fill-35" fill="#F2B229"></path>
                <path d="M210.48668,77.4282407 C187.716701,83.776716 157.363217,87.272963 125.018443,87.272963 C92.6731557,87.272963 62.3201844,83.776716 39.5502049,77.4282407 C28.8893443,74.4550988 20.2336066,70.8932716 14.5189549,67.1265062 C12.9605533,66.0987407 11.2710041,64.8224877 9.85911885,63.3715247 C11.2710041,66.121284 14.1670082,68.5211111 16.7110656,70.2318333 C22.3119877,73.9991111 30.7966189,77.5609383 41.2459016,80.5340802 C63.5640369,86.8825556 93.3145492,90.3782901 125.018443,90.3782901 C156.722336,90.3782901 186.473361,86.8825556 208.790984,80.5340802 C219.240266,77.5609383 227.724898,73.9991111 233.32582,70.2318333 C235.869877,68.5211111 238.766906,66.121284 240.177766,63.3715247 C238.765881,64.8224877 237.076332,66.0987407 235.51793,67.1265062 C229.802766,70.8932716 221.148053,74.4550988 210.48668,77.4282407" id="Fill-36" fill="#005795"></path>
                <path d="M64.8852459,51.5086728 C64.8852459,54.768216 66.6844262,57.5077284 69.1219262,58.2936667 L69.1219262,44.7226543 C66.6844262,45.5085926 64.8852459,48.2481049 64.8852459,51.5086728" id="Fill-37" fill="#F2B229"></path>
                <path d="M112.657275,66.9430864 L112.686475,66.9461605 M91.8934426,64.738463 L91.9118852,64.74 M69.1219262,57.4319012 L68.4154713,57.1772654 M158.10041,64.74 L158.119877,64.738463 M137.356045,66.9430864 L137.326332,66.9461605" id="Stroke-38" stroke-linecap="round" stroke-linejoin="round"></path>
                <path d="M124.997439,74.0590556 C130.189037,74.0590556 134.398566,70.9199136 134.398566,67.0470926 C134.398566,63.174784 130.189037,60.0351296 124.997439,60.0351296 C119.805328,60.0351296 115.596311,63.174784 115.596311,67.0470926 C115.596311,70.9199136 119.805328,74.0590556 124.997439,74.0590556" id="Fill-39" fill="#F2B229"></path>
                <path d="M93.460041,64.9152222 C93.460041,68.7875309 97.4108607,72.3467963 102.284836,72.8642654 C107.158299,73.3817346 111.109119,70.6616914 111.109119,66.788358 C111.109119,62.9165617 107.158299,59.3572963 102.284836,58.8398272 C97.4108607,58.3228704 93.460041,61.0429136 93.460041,64.9152222" id="Fill-40" fill="#F2B229"></path>
                <path d="M118.274078,68.7234877 C118.274078,65.5694877 122.193648,62.9052901 126.833504,62.9052901 C127.958504,62.9052901 129.039959,63.0630926 130.034324,63.3448827 C128.695697,62.500537 126.91752,61.9764074 124.997439,61.9764074 C120.953381,61.9764074 117.536885,64.298358 117.536885,67.0470926 C117.536885,67.8345679 117.818135,68.586179 118.313012,69.2588889 C118.28791,69.082642 118.274078,68.9038333 118.274078,68.7234877" id="Fill-41" fill="#FBD896"></path>
                <path d="M123.159836,71.1678889 C122.035348,71.1678889 120.953893,71.0105988 119.959016,70.727784 C121.297643,71.572642 123.076332,72.0967716 124.996926,72.0967716 C129.040471,72.0967716 132.45748,69.774821 132.45748,67.0260864 C132.45748,66.2391235 132.175205,65.487 131.68084,64.8137778 C131.70543,64.9910494 131.720287,65.1693457 131.720287,65.3502037 C131.720287,68.5036914 127.800205,71.1678889 123.159836,71.1678889" id="Fill-42" fill="#BB8323"></path>
                <path d="M96.3847336,67.6521728 C96.2832992,67.2674012 96.2284836,66.8775062 96.2284836,66.4855617 C96.2284836,63.7465617 99.0358607,61.6812963 102.757172,61.6812963 C103.123463,61.6812963 103.498975,61.7012778 103.872951,61.7412407 C104.714652,61.8303889 105.530738,62.0184198 106.30123,62.2868889 C105.112193,61.4932654 103.645492,60.9363457 102.079406,60.7703457 C101.753074,60.7360185 101.424693,60.7180864 101.104508,60.7180864 C97.852459,60.7180864 95.401127,62.5225679 95.401127,64.9152222 C95.401127,65.8661358 95.7622951,66.8057778 96.3847336,67.6521728" id="Fill-43" fill="#FBD896"></path>
                <path d="M101.804303,70.0340679 C101.438012,70.0340679 101.063012,70.0135741 100.688525,69.9741235 C99.8468238,69.8849753 99.0307377,69.6964321 98.2607582,69.427963 C99.4487705,70.2220988 100.915984,70.7790185 102.48207,70.9455309 C102.808914,70.979858 103.136783,70.9977901 103.456455,70.9977901 C106.708504,70.9977901 109.160861,69.1933086 109.160861,66.800142 C109.160861,65.8492284 108.798668,64.9100988 108.176742,64.064216 C108.278176,64.447963 108.332992,64.8383704 108.332992,65.2303148 C108.332992,67.9693148 105.526127,70.0340679 101.804303,70.0340679" id="Fill-44" fill="#BB8323"></path>
                <path d="M72.3934426,58.6102963 C72.3934426,62.4826049 76.1014344,66.9574321 80.6767418,68.6046235 C85.2510246,70.2518148 88.9595287,68.4478457 88.9595287,64.575537 C88.9595287,60.7032284 85.2510246,56.2278889 80.6767418,54.5801852 C76.1014344,52.9335062 72.3934426,54.7374753 72.3934426,58.6102963" id="Fill-45" fill="#F2B229"></path>
                <path d="M76.1065574,62.9565247 C75.6121926,61.9554012 75.3329918,60.9389074 75.3329918,59.9818457 C75.3329918,57.3417284 77.5194672,56.9477346 78.8222336,56.9477346 C79.7228484,56.9477346 80.6997951,57.1347407 81.7264344,57.504142 C82.1772541,57.6670679 82.6193648,57.8602222 83.0517418,58.0779691 C82.1280738,57.3755432 81.0973361,56.7955679 80.0189549,56.4066975 C79.1065574,56.0777716 78.2377049,55.9112593 77.4364754,55.9112593 C76.2776639,55.9112593 74.3335041,56.262216 74.3335041,58.6102963 C74.3335041,60.0146358 75.0097336,61.5614074 76.1065574,62.9565247" id="Fill-46" fill="#FBD896"></path>
                <path d="M82.557377,66.248858 C81.65625,66.248858 80.6793033,66.0613395 79.6526639,65.6919383 C79.2023566,65.530037 78.7597336,65.3363704 78.3278689,65.1181111 C79.2510246,65.820537 80.2817623,66.4010247 81.3601434,66.788358 C82.272541,67.1177963 83.1419057,67.2843086 83.9415984,67.2843086 C85.1009221,67.2843086 87.045082,66.9338642 87.045082,64.5862963 C87.045082,63.1814444 86.3693648,61.6346728 85.2730533,60.2395556 C85.7669057,61.240679 86.0461066,62.2566605 86.0461066,63.2142346 C86.0461066,65.8548642 83.8596311,66.248858 82.557377,66.248858" id="Fill-47" fill="#BB8323"></path>
                <path d="M66.2269467,50.3056852 C66.8324795,49.1928704 68.0440574,48.2399074 69.1219262,47.8966358 L69.1219262,46.2514938 C67.4800205,47.1998457 66.3796107,48.6533704 66.2269467,50.3056852" id="Fill-48" fill="#FBD896"></path>
                <path d="M66.2269467,52.6773333 C66.3796107,54.3291358 67.4800205,55.7831728 69.1219262,56.7310123 L69.1219262,55.085358 C68.0440574,54.7431111 66.8324795,53.7901481 66.2269467,52.6773333" id="Fill-49" fill="#BB8323"></path>
                <path d="M180.914959,44.7231667 L180.914959,58.2936667 C183.352459,57.5077284 185.151639,54.768216 185.151639,51.5086728 C185.151639,48.2486173 183.352459,45.5085926 180.914959,44.7231667" id="Fill-50" fill="#F2B229"></path>
                <path d="M183.809939,50.3056852 C183.657787,48.6533704 182.556865,47.1998457 180.914959,46.2514938 L180.914959,47.8966358 C181.992828,48.2399074 183.204918,49.1928704 183.809939,50.3056852" id="Fill-51" fill="#FBD896"></path>
                <path d="M183.809939,52.6773333 C183.204918,53.7901481 181.992828,54.7431111 180.914959,55.085358 L180.914959,56.7310123 C182.556865,55.7831728 183.657787,54.3291358 183.809939,52.6773333" id="Fill-52" fill="#BB8323"></path>
                <path d="M138.903689,66.788358 C138.903689,70.6616914 142.854508,73.3817346 147.728484,72.8642654 C152.601947,72.3467963 156.552766,68.7875309 156.552766,64.9152222 C156.552766,61.0429136 152.601947,58.3228704 147.728484,58.8398272 C142.854508,59.3578086 138.903689,62.9165617 138.903689,66.788358" id="Fill-53" fill="#F2B229"></path>
                <path d="M161.053279,64.575537 C161.053279,68.448358 164.761783,70.2518148 169.336578,68.6046235 C173.911373,66.9574321 177.619877,62.4826049 177.619877,58.6102963 C177.619877,54.7374753 173.911373,52.9335062 169.336578,54.5801852 C164.761783,56.2278889 161.053279,60.7032284 161.053279,64.575537" id="Fill-54" fill="#F2B229"></path>
                <path d="M145.777152,70.1093827 C145.39498,70.1503704 145.010758,70.1703519 144.636783,70.1703519 C144.046619,70.1703519 143.478484,70.1191173 142.941598,70.0233086 C143.925205,70.6273642 145.210041,70.9834444 146.653176,70.9834444 C146.973361,70.9834444 147.30123,70.9655123 147.627561,70.9311852 C151.470287,70.5238704 154.716701,67.7669383 154.716701,64.9126605 C154.716701,64.1753951 154.483094,63.4939753 154.066086,62.9042654 C154.068135,62.9585741 154.071209,63.0123704 154.071209,63.0671914 C154.071209,66.4066605 150.273053,69.6313642 145.777152,70.1093827" id="Fill-55" fill="#BB8323"></path>
                <path d="M140.845287,66.788358 C140.845287,67.5266481 141.078381,68.2075556 141.495389,68.7972654 C141.49334,68.7429568 141.489754,68.6886481 141.489754,68.6343395 C141.489754,65.2948704 145.288422,62.069142 149.783811,61.5921481 C150.165984,61.5511605 150.550205,61.531179 150.924693,61.531179 C151.514857,61.531179 152.08248,61.5824136 152.619877,61.6782222 C151.635758,61.0741667 150.351434,60.7180864 148.907787,60.7180864 C148.587602,60.7180864 148.260246,60.7360185 147.933402,60.7703457 C144.091189,61.1781728 140.845287,63.9345926 140.845287,66.788358" id="Fill-56" fill="#FBD896"></path>
                <path d="M162.993852,64.575537 C162.993852,65.2825741 163.171619,65.8077284 163.449283,66.1976235 C163.928279,62.6480926 167.595287,58.6026111 171.884734,57.0578889 C172.869365,56.7028333 173.811988,56.5050679 174.692111,56.4656173 C174.040471,56.0127037 173.196209,55.9117716 172.57582,55.9117716 C171.775615,55.9117716 170.905738,56.0777716 169.993852,56.4066975 C166.199795,57.7731235 162.993852,61.5137593 162.993852,64.575537" id="Fill-57" fill="#FBD896"></path>
                <path d="M166.751025,66.1371667 C165.766393,66.4922222 164.823258,66.6905 163.943135,66.7294383 C164.594775,67.1828642 165.439549,67.283284 166.059939,67.283284 C166.860656,67.283284 167.729508,67.1167716 168.641906,66.7878457 C172.435451,65.4219321 175.641906,61.680784 175.641906,58.6195185 C175.641906,57.9124815 175.464139,57.3873272 175.185963,56.9974321 C174.70748,60.546963 171.040471,64.5924444 166.751025,66.1371667" id="Fill-58" fill="#BB8323"></path>
                <path d="M72.53125,36.8458519 C72.5681352,36.8894012 72.6080943,36.9344877 72.6485656,36.9811111 C76.6992828,38.940321 83.6588115,38.9413457 83.6588115,38.9413457 C77.9713115,37.2992778 74.335041,33.8706605 72.7715164,32.1199753 C72.6910861,32.0825741 72.6091189,32.0451728 72.53125,32.0062346 L72.53125,36.8458519" id="Fill-59" fill="#005795"></path>
                <path d="M72.53125,31.8463827 L72.53125,32.0062346 C72.6091189,32.0456852 72.6910861,32.0825741 72.7715164,32.1199753 C76.8381148,34.0207778 83.6588115,34.0223148 83.6588115,34.0223148 C77.9713115,32.3802469 74.335041,28.9511173 72.7715164,27.2009444 C72.6910861,27.1635432 72.6091189,27.126142 72.53125,27.0872037 L72.53125,31.8463827" id="Fill-60" fill="#005795"></path>
                <path d="M72.53125,22.0078086 L72.53125,27.0872037 C72.6091189,27.126142 72.6910861,27.1635432 72.7715164,27.2004321 C76.8381148,29.1017469 83.6588115,29.1027716 83.6588115,29.1027716 C79.7464139,27.9735617 76.8048156,25.9979568 74.8396516,24.3051667 C73.7920082,23.4019012 73.0210041,22.5785617 72.53125,22.0078086" id="Fill-61" fill="#005795"></path>
                <path d="M72.53125,46.8437654 C76.5635246,48.860358 83.6588115,48.8598457 83.6588115,48.8598457 C77.9723361,47.2182901 74.335041,43.7896728 72.7720287,42.0389877 C72.6910861,42.0015864 72.6091189,41.9641852 72.53125,41.9257593 L72.53125,46.8437654" id="Fill-62" fill="#005795"></path>
                <path d="M72.53125,36.9252654 L72.53125,41.9252469 C72.6091189,41.9646975 72.6910861,42.0015864 72.7720287,42.0389877 C76.8381148,43.9397901 83.6588115,43.9408148 83.6588115,43.9408148 C77.8171107,42.2551975 74.138832,38.6831235 72.6485656,36.9805988 C72.6080943,36.9344877 72.5681352,36.8894012 72.53125,36.8458519 L72.53125,36.9252654" id="Fill-63" fill="#005795"></path>
                <path d="M125.032787,29.3445988 C110.496926,29.3445988 97.0502049,28.1810617 86.0957992,26.2064815 C95.3155738,29.0213086 109.32377,30.8175926 125.010758,30.8175926 C140.66291,30.8175926 154.64293,29.0295062 163.863217,26.2259506 C152.928791,28.1887469 139.522029,29.3445988 125.032787,29.3445988" id="Fill-64" fill="#005795"></path>
                <path d="M228.112193,115.080525 C225.313012,111.930623 220.64959,110.333642 214.253074,110.333642 L184.796107,110.333642 L184.802766,110.302901 L178.901127,110.302901 C181.773566,103.294525 181.703893,96.4413889 181.534324,93.7777037 C181.061988,93.846358 180.582992,93.9104012 180.107582,93.9770062 C179.609119,94.0466852 179.113217,94.1179012 178.611168,94.1860432 C179.29457,98.9011605 179.021516,103.079852 178.271004,106.671907 C178.002049,107.958407 177.671107,109.169593 177.30123,110.302901 L146.028176,110.302901 C141.446721,110.302901 137.608094,111.296852 134.570697,113.26221 L135.159324,110.354648 L134.945697,110.354648 L134.946209,110.353623 L96.9134221,110.353623 C92.0722336,110.353623 88.3191598,111.183111 85.3632172,112.93687 L85.9272541,110.333642 L72.6168033,110.333642 C71.2069672,106.0325 70.366291,100.605735 71.2966189,94.1860432 C70.3160861,94.053858 69.3417008,93.9180864 68.3729508,93.7777037 C68.2044057,96.4454877 68.1342213,103.315019 71.0194672,110.333642 L30.8084016,110.333642 L19.1598361,165.697716 L57.6670082,165.697716 C63.4569672,165.697716 67.2079918,165.044988 71.6536885,161.46984 L71.7648566,161.376593 C72.6460041,160.634204 73.4006148,159.848265 74.0435451,159.004432 C74.3309426,159.477327 74.6501025,159.928704 74.9994877,160.355488 C77.8529713,163.847123 82.4518443,165.61779 88.6685451,165.61779 L118.407787,165.61779 L118.405738,165.628549 L118.444672,165.628549 L118.433402,165.681833 L148.918033,165.681833 L148.930328,165.628549 L156.546619,165.628549 C160.195697,165.628549 164.649078,165.253 168.526127,162.730722 L167.902152,165.697716 L206.304816,165.697716 C212.110143,165.697716 215.859631,165.042426 220.255635,161.446272 L220.369877,161.350975 C222.879611,159.199123 224.387807,156.61434 225.115266,153.20929 L226.746926,145.365278 L226.757684,145.310457 C227.207992,142.999265 226.993852,140.742895 226.141393,138.735012 C227.622951,137.038123 228.625512,135.022043 229.128074,132.719562 L230.650102,125.271593 C230.90625,124.153654 230.90625,123.236043 230.90625,122.743679 C230.90625,121.0555 230.543545,117.815426 228.112193,115.080525" id="Fill-65" fill="#151546"></path>
                <path d="M214.253074,113.594722 L182.196209,113.594722 L171.921107,162.437148 L206.304816,162.437148 C211.657275,162.437148 214.489754,161.948883 218.197234,158.916821 L218.247951,158.874296 C220.213627,157.188679 221.346311,155.239204 221.922643,152.544265 L223.556865,144.687957 C223.993852,142.440809 223.581455,140.343778 222.363217,138.622809 C222.245902,138.458346 222.122951,138.297981 221.992828,138.142228 C224.070697,136.578037 225.39498,134.529167 225.943135,132.01816 L227.465676,124.565068 C227.64498,123.798086 227.64498,123.138185 227.64498,122.743679 C227.64498,119.325821 225.905738,113.594722 214.253074,113.594722" id="Fill-66" fill="#005795"></path>
                <path d="M33.454918,113.594722 L23.178791,162.437148 L57.6670082,162.437148 C63.0133197,162.437148 65.852459,161.949907 69.6188525,158.920407 L69.6623975,158.883519 C71.6521516,157.205074 72.8196721,155.264309 73.451332,152.561173 L81.8842213,113.594722 L33.454918,113.594722" id="Fill-67" fill="#005795"></path>
                <path d="M172.778176,150.731074 L174.420082,142.56121 C175.453893,137.464907 173.689037,134.420037 171.941598,132.724173 L177.102971,132.724173 L180.970799,113.616241 L180.797643,113.616241 L180.808402,113.564494 L146.028176,113.564494 C134.455943,113.564494 131.521004,120.244969 130.252561,126.090321 L128.787398,133.369728 C127.731045,138.57721 129.596311,141.644111 131.374488,143.312309 L126.290471,143.312309 L125.853484,145.470309 L125.846824,145.470309 L122.399078,162.366444 L122.433402,162.366444 L122.422131,162.420753 L146.29252,162.420753 L146.304303,162.366444 L156.546619,162.366444 C162.728996,162.366444 168.88627,161.236722 172.047643,153.054049 C172.385246,152.207654 172.59375,151.422741 172.778176,150.731074" id="Fill-68" fill="#005795"></path>
                <path d="M125.057377,143.235969 L101.29918,143.235969 L103.454918,132.724173 L127.303279,132.724173 L131.171619,113.616241 L130.997439,113.616241 L130.997439,113.615216 L96.9134221,113.615216 C88.4846311,113.615216 84.0056352,116.308617 81.4605533,122.895846 C81.1224385,123.746852 80.90625,124.559432 80.7320697,125.21216 L75.7648566,149.260642 C75.0235656,152.917765 75.6152664,155.956488 77.5245902,158.290735 C79.7289959,160.988235 83.4784836,162.355685 88.6690574,162.355685 L120.897029,162.355685 L121.239242,160.709006 L125.057377,143.235969" id="Fill-69" fill="#005795"></path>
                <path d="M204.28125,130.188574 C204.043545,131.203531 203.107582,131.858821 201.714139,131.985883 L200.83043,132.065296 L201.716701,127.956796 L203.056865,127.956796 C203.447234,127.956796 203.787398,127.990099 204.068135,128.056191 L204.682377,128.201698 L204.28125,130.188574 Z M200.446209,147.416198 C200.409836,147.588346 200.386783,147.665198 200.345287,147.745123 L200.299693,147.82966 L200.232582,147.898827 C200.029713,148.103765 199.631148,148.295383 198.097336,148.303068 L197.286885,148.306142 L198.215164,143.969136 L199.297131,143.969136 C199.729508,143.969136 200.108607,143.986043 200.425205,144.018321 L201.14498,144.091586 L200.446209,147.416198 Z M214.253074,115.877735 L184.048668,115.877735 L174.734631,160.153111 L206.304816,160.153111 C211.38832,160.153111 213.607582,159.721204 216.728996,157.168698 L216.761783,157.141543 C218.344262,155.784852 219.219262,154.269846 219.688012,152.079568 L221.316598,144.251951 C221.635246,142.608858 221.361168,141.15892 220.5,139.943123 C220.101947,139.380568 219.575307,138.875907 218.935451,138.441951 L218.02459,137.825086 L219.003074,137.321963 C221.615266,135.979105 223.154201,134.091623 223.705943,131.561148 L225.239242,124.064506 C225.362193,123.546012 225.362193,123.081827 225.362193,122.743679 C225.362193,118.252969 221.521004,115.877735 214.253074,115.877735 L214.253074,115.877735 Z" id="Fill-70" fill="#F2B229"></path>
                <path d="M58.8483607,115.877735 L51.9866803,147.417222 C51.9564549,147.562216 51.9344262,147.657512 51.880123,147.755883 L51.835041,147.837346 L51.7704918,147.902414 C51.5722336,148.100691 51.1547131,148.303068 49.5563525,148.303068 L48.5517418,148.303068 L55.6039959,115.877735 L35.3078893,115.877735 L25.9918033,160.153111 L57.6664959,160.153111 C62.7520492,160.153111 64.9815574,159.720179 68.1588115,157.165623 L68.1905738,157.137957 C69.8022541,155.779216 70.7085041,154.263185 71.2202869,152.078543 L79.0543033,115.877735 L58.8483607,115.877735" id="Fill-71" fill="#F2B229"></path>
                <path d="M170.231045,134.244302 C168.352459,132.522309 165.484119,131.685648 161.465676,131.685648 L151.186988,131.685648 L151.869877,128.177617 L156.254611,128.177617 L155.760246,130.440648 L175.236168,130.440648 L178.179303,115.899765 L178.002049,115.899765 L178.012295,115.845969 L146.028176,115.845969 C136.171107,115.845969 133.695184,120.991457 132.490779,126.540673 L131.024078,133.823154 C130.337602,137.210784 130.994365,139.855512 132.976434,141.686636 C134.840676,143.40863 137.707992,144.24529 141.741291,144.24529 L152.021004,144.24529 L151.33709,147.753321 L147.161373,147.753321 L147.633197,145.595833 L128.157275,145.595833 L127.720287,147.753321 L127.711578,147.753321 L125.195184,160.083432 L125.224385,160.083432 L125.213627,160.137228 L144.45543,160.137228 L144.467213,160.083432 L156.546619,160.083432 C162.929303,160.083432 167.392418,158.767728 169.926742,152.208167 C170.211066,151.495494 170.39293,150.818173 170.567111,150.163395 L172.182889,142.107272 C172.869877,138.720154 172.213115,136.073889 170.231045,134.244302" id="Fill-72" fill="#F2B229"></path>
                <path d="M102.321209,147.618062 L98.0696721,147.618062 L102.068648,128.124846 L106.465676,128.124846 L105.959529,130.440648 L125.435963,130.440648 L128.380635,115.899765 L128.201844,115.899765 L128.201844,115.898228 L96.9134221,115.898228 C89.4036885,115.898228 85.7909836,118.021901 83.5819672,123.741216 C83.2955943,124.459012 83.1080943,125.161438 82.942623,125.781889 L78.0020492,149.713556 C77.4031762,152.667228 77.8370902,155.067568 79.2920082,156.84592 C81.0420082,158.987525 84.1967213,160.072673 88.6685451,160.072673 L119.039959,160.072673 L119.043033,160.059864 L119.04457,160.059864 L122.221824,145.518469 L102.746414,145.518469 L102.321209,147.618062" id="Fill-73" fill="#F2B229"></path>
                <path d="M201.348361,133.626926 C203.602971,133.59516 205.428279,132.477735 205.867828,130.529284 L206.220287,128.785259 C206.475922,127.303043 205.364754,126.334198 203.056865,126.334198 L200.407787,126.334198 L198.831967,133.626926 L201.348361,133.626926 Z M198.014857,149.926179 C200.663934,149.926179 201.690574,149.355938 202.031762,147.759981 L202.715164,144.512222 C202.972336,142.973136 202.116803,142.347049 199.297131,142.347049 L196.903176,142.347049 L195.280225,149.926179 L198.014857,149.926179 Z M176.733607,158.530512 L185.365266,117.501358 L214.253074,117.501358 C220.577869,117.501358 223.739754,119.324796 223.739754,122.744191 C223.739754,123.029056 223.739754,123.37079 223.655225,123.713037 L222.115779,131.235809 C221.432889,134.369827 218.868852,136.307006 213.313525,137.502821 L211.945184,137.78871 L211.006148,137.958809 L211.432889,137.958809 L213.142418,138.187315 C218.184426,138.927654 220.320697,140.865858 219.721824,143.943006 L218.099385,151.749617 C217.672131,153.744179 216.903176,154.883636 215.705943,155.909864 C213.057377,158.074525 211.176742,158.530512 206.304816,158.530512 L176.733607,158.530512 L176.733607,158.530512 Z" id="Fill-74" fill="#FFFFFE"></path>
                <path d="M60.1557377,117.501358 L53.5732582,147.759981 C53.2310451,149.355938 52.204918,149.926179 49.5563525,149.926179 L46.5384221,149.926179 L46.5384221,149.924642 L53.5906762,117.501358 L36.6239754,117.501358 L27.9923156,158.530512 L57.7120902,158.530512 C62.5840164,158.530512 64.473873,158.074525 67.164959,155.909864 C68.3821721,154.883636 69.173668,153.744179 69.6403689,151.749617 L77.0517418,117.501358 L60.1557377,117.501358" id="Fill-75" fill="#FFFFFE"></path>
                <path d="M67.78125,121.904969 L62.1311475,148.738049 C61.7961066,150.301728 61.1931352,151.195259 60.2556352,152.000154 C58.1777664,153.697556 56.7038934,154.054148 52.883709,154.054148 L37.4221311,154.054148 L46.545082,149.928228 L53.5804303,117.512117 L44.1019467,121.905994 L37.3539959,154.06337 L28.0742828,158.530512 L57.7120902,158.530512 C62.5840164,158.530512 64.473873,158.074525 67.164959,155.909864 C68.3821721,154.883636 69.173668,153.744179 69.6403689,151.749617 L77.0568648,117.47984 L67.78125,121.904969" id="Fill-76" fill="#A4B3CF"></path>
                <path d="M211.626537,140.542056 C211.624488,140.537444 211.621926,140.533346 211.618852,140.528222 L211.633197,140.532321 L211.623975,140.53642 C211.625,140.537957 211.626025,140.540006 211.626537,140.542056 L211.626537,140.542056 Z M205.390369,137.928068 L205.385758,137.929093 L205.379098,137.928068 L205.390369,137.928068 Z M222.984119,120.252654 L214.281762,123.850858 C214.768955,124.440056 215.012807,125.15734 215.012807,125.996562 C215.012807,126.219944 215.012807,126.488926 214.946209,126.756883 L213.739242,132.654494 C213.203381,135.111191 211.193135,136.629784 206.837602,137.568914 L205.765881,137.791784 L205.028176,137.926019 L189.513832,137.926019 L198.831967,133.626926 L200.407787,126.334198 L203.056865,126.334198 C204.495389,126.334198 205.46875,126.710772 205.935963,127.353253 L214.309426,123.887747 C213.253074,122.574605 211.010758,121.886525 207.57377,121.886525 L192.79918,121.886525 L189.425717,137.926019 L189.425205,137.926019 L186.032275,154.054148 L195.280225,149.926179 L196.903176,142.347049 L199.297131,142.347049 C201.914959,142.347049 202.837602,142.889111 202.751537,144.196617 L211.633197,140.555377 C211.936988,141.149698 212.016393,141.835216 211.86373,142.617056 L210.590164,148.738049 C210.254611,150.301728 209.651639,151.195259 208.713627,152.000154 C206.63627,153.697556 205.162398,154.054148 201.34375,154.054148 L186.032275,154.054148 L176.733607,158.530512 L206.304816,158.530512 C211.176742,158.530512 213.057377,158.074525 215.705943,155.909864 C216.903176,154.883636 217.672131,153.744179 218.099385,151.749617 L219.721824,143.943006 C220.20082,141.484772 218.929816,139.758167 215.833504,138.782148 L215.82377,138.786247 C214.441086,138.29337 212.108607,138.015167 211.209529,137.921407 L211.945184,137.788198 L213.313525,137.502821 C218.868852,136.307006 221.432889,134.369827 222.115779,131.235809 L223.655225,123.713037 C223.739754,123.37079 223.739754,123.029056 223.739754,122.744191 C223.739754,121.784056 223.481557,120.955593 222.984119,120.252654 L222.984119,120.252654 Z" id="Fill-77" fill="#A4B3CF"></path>
                <path d="M126.214652,117.484963 L96.9134221,117.484963 C90.2520492,117.484963 87.0870902,119.133179 85.088627,124.305821 C84.8401639,124.93242 84.6726434,125.557481 84.5066598,126.181519 L79.5922131,150.000981 C79.017418,152.831179 79.5384221,154.913864 81.0394467,156.300272 C82.5829918,157.72613 85.1644467,158.41421 88.6685451,158.41421 L117.719775,158.41421 L120.185451,146.574414 L120.168545,146.574414 L120.198258,146.562117 L103.825307,146.562117 L103.279713,149.205309 L96.0804303,149.205309 L96.0824795,149.196086 L100.74334,126.466895 L107.970287,126.466895 L107.963627,126.469969 L107.380123,129.318099 L107.396516,129.318099 L107.366803,129.330395 L123.739754,129.330395 L124.330943,126.466895 L124.382172,126.466895 L126.214652,117.484963" id="Fill-78" fill="#FFFFFE"></path>
                <path d="M100.74334,126.503272 L107.970799,126.503272 L116.990779,121.881914 L116.831455,121.869105 L98.7628074,121.869105 C95.432377,121.869105 93.848873,122.693981 92.8504098,125.280302 C92.7259221,125.592833 92.6419057,125.906389 92.5584016,126.217895 L87.6419057,149.657198 C87.3473361,151.104574 87.6260246,152.160519 88.4159836,152.852698 L96.0824795,149.232463 L100.74334,126.503272" id="Fill-79" fill="#A4B3CF"></path>
                <polyline id="Fill-80" fill="#A4B3CF" points="116.977459 121.897284 116.172643 125.697864 107.366291 129.367284 123.739754 129.367284 126.179303 117.547981 116.977459 121.897284"></polyline>
                <path d="M120.165471,146.61079 L111.39293,150.266889 L110.633709,153.864068 L92.1798156,153.864068 C90.4651639,153.864068 89.1931352,153.53463 88.4159836,152.852698 L81.0394467,156.33716 C82.5829918,157.763019 85.1644467,158.450586 88.6685451,158.450586 L117.719775,158.450586 L118.673668,153.864068 L118.672131,153.864068 L120.185451,146.61079 L120.165471,146.61079" id="Fill-81" fill="#A4B3CF"></path>
                <path d="M173.485143,129.367284 L175.925205,117.547981 L175.898566,117.560278 L175.906762,117.521852 L146.606045,117.521852 C139.94416,117.521852 136.780225,119.169556 134.78125,124.342198 C134.53125,124.968796 134.365266,125.593858 134.198258,126.217895 L132.610656,134.155667 C132.036373,136.987401 132.556352,139.070599 134.057377,140.457006 C135.600922,141.882352 138.182377,142.570944 141.686475,142.570944 L152.502561,142.570944 L152.502561,142.569407 L153.998463,142.569407 L153.996926,142.578117 L152.661885,149.427154 L145.388832,149.427154 L145.966189,146.61079 L145.949795,146.61079 L145.979508,146.598494 L129.606045,146.598494 L127.166496,158.417796 L127.191598,158.406012 L127.191086,158.409599 L156.491803,158.409599 C163.153689,158.409599 166.318135,156.76087 168.316086,151.586691 C168.566086,150.96163 168.733094,150.336568 168.899078,149.712531 L170.487193,141.774247 C171.061988,138.943537 170.540984,136.86034 169.040471,135.47342 C167.496926,134.047562 164.914959,133.359994 161.410861,133.359994 L149.116803,133.359994 L149.116291,133.361019 L149.098361,133.361019 L149.100922,133.352309 L150.436475,126.503272 L157.715676,126.503272 L157.709016,126.506346 L157.125,129.354475 L157.141393,129.354475 L157.11168,129.367284 L173.485143,129.367284" id="Fill-82" fill="#FFFFFE"></path>
                <path d="M141.741291,142.570944 L152.557377,142.570944 L152.557377,142.569407 L154.053279,142.569407 L154.051742,142.578117 L161.718238,138.958395 C160.941086,138.275951 159.651127,137.98084 157.9375,137.98084 L149.824795,137.98084 L149.824283,137.983401 L145.252561,137.983401 C143.538934,137.983401 142.266393,137.653963 141.489754,136.972543 L134.112193,140.457006 C135.655738,141.882352 138.237193,142.570944 141.741291,142.570944" id="Fill-83" fill="#A4B3CF"></path>
                <path d="M162.492828,142.154407 L160.901127,149.712531 C160.818135,150.025062 160.735143,150.337593 160.610143,150.650123 C159.610656,153.236957 158.028689,154.060809 154.697746,154.060809 L136.456455,154.060809 L127.245902,158.409599 L156.546619,158.409599 C163.208504,158.409599 166.372951,156.76087 168.371414,151.586691 C168.620902,150.96163 168.78791,150.336568 168.953893,149.712531 L170.542008,141.774247 C171.116803,138.943537 170.595799,136.86034 169.095287,135.472907 L161.718238,138.958395 C162.508197,139.650574 162.786885,140.707031 162.492828,142.154407" id="Fill-84" fill="#A4B3CF"></path>
                <path d="M142.597848,125.280302 C142.472848,125.592833 142.389857,125.906389 142.30584,126.217895 L140.714652,133.776531 C140.421107,135.223395 140.699795,136.279852 141.489754,136.972543 L149.155225,133.352309 L150.490779,126.503272 L157.770492,126.503272 L166.578381,121.869105 L148.509734,121.869105 C145.178791,121.869105 143.596824,122.693981 142.597848,125.280302" id="Fill-85" fill="#A4B3CF"></path>
                <polyline id="Fill-86" fill="#A4B3CF" points="157.196209 129.354475 157.166496 129.367284 173.539959 129.367284 175.98002 117.547981 175.953381 117.560278 175.961578 117.521852 166.578381 121.869105 165.972336 125.697864 157.196209 129.354475"></polyline>
                <polyline id="Fill-87" fill="#A4B3CF" points="145.44416 149.427154 146.021004 146.61079 146.004611 146.61079 137.228484 150.267401 136.456455 154.060809 145.436988 149.45892 145.44416 149.427154"></polyline>
                <polyline id="Fill-88" fill="#1A1919" points="190.331967 95.4392407 190.331967 96.0468827 189.305328 96.0468827 189.305328 98.8704198 188.583504 98.8704198 188.583504 96.0468827 187.552766 96.0468827 187.552766 95.4392407 190.331967 95.4392407"></polyline>
                <path d="M193.026639,95.4392407 L194.058402,95.4392407 L194.058402,98.8704198 L193.390369,98.8704198 L193.390369,96.5500062 C193.390369,96.4828889 193.390881,96.389642 193.39293,96.2692407 C193.393955,96.1493519 193.394467,96.0561049 193.394467,95.991037 L192.744877,98.8704198 L192.048156,98.8704198 L191.402664,95.991037 C191.402664,96.0561049 191.403176,96.1493519 191.404713,96.2692407 C191.40625,96.389642 191.406762,96.4828889 191.406762,96.5500062 L191.406762,98.8704198 L190.73873,98.8704198 L190.73873,95.4392407 L191.782275,95.4392407 L192.406762,98.1372531 L193.026639,95.4392407" id="Fill-89" fill="#1A1919"></path>
            </g>
        </g>
    </g>
</svg>