<?xml version="1.0" encoding="UTF-8" standalone="no"?>
<svg width="250px" height="250px" viewBox="0 0 250 250" version="1.1" xmlns="http://www.w3.org/2000/svg" xmlns:xlink="http://www.w3.org/1999/xlink">
    <!-- Generator: Sketch 47.1 (45422) - http://www.bohemiancoding.com/sketch -->
    <title>NTEXAS</title>
    <desc>Created with Sketch.</desc>
    <defs></defs>
    <g id="Page-1" stroke="none" stroke-width="1" fill="none" fill-rule="evenodd">
        <g id="NTEXAS" fill-rule="nonzero">
            <g id="Group" transform="translate(125.500000, 125.000000) scale(-1, 1) rotate(-180.000000) translate(-125.500000, -125.000000) translate(14.000000, 0.000000)">
                <g transform="translate(0.471658, 0.925941)" id="Shape">
                    <path d="M22.7422386,0.593107527 C22.7422386,0.593107527 17.6142058,2.88353763 15.8302058,6.49235484 C14.0483552,10.1025699 4.72534313,30.9504194 4.72534313,30.9504194 L4.67665928,31.0708495 C4.03990024,32.7133226 3.43828386,34.9363333 3.43828386,37.4699892 C3.43828386,40.8153656 4.5302853,44.7012796 7.93439373,48.5108495 C6.43787566,51.596871 1.35186361,62.0775161 1.35186361,62.0775161 L1.30350217,62.1947204 C0.432996145,64.2775161 0.0609354217,66.2237527 0.0609354217,68.0334301 C0.0609354217,74.9151505 5.4122906,79.7785914 9.24627855,82.6043978 C7.13986892,87.1110645 3.22001253,95.5000968 3.22001253,95.501172 C2.43145229,97.145043 2.09286843,98.6957957 2.09286843,100.148806 C2.09286843,107.248269 10.1943778,112.015473 13.6039672,114.021925 C13.6039672,114.021925 14.5387832,114.576366 14.5401266,114.576366 C16.4382596,115.721527 61.9139242,142.872065 105.150131,168.623677 C87.7872977,168.624753 61.5474519,168.627978 61.5474519,168.627978 C54.9649218,168.627978 55.0776577,168.556796 52.2928982,167.806828 C48.3998018,166.758441 42.0077083,164.377366 42.0077083,164.377366 C42.0077083,164.377366 42.2647118,169.720806 46.6360061,173.855215 C51.0073005,177.989624 54.6906587,181.384247 54.7255864,181.417796 L55.2524467,181.94072 C56.3459527,183.054914 58.3067407,185.007495 60.9827407,186.483301 C61.5254636,187.746742 62.5784534,188.805022 63.3777069,189.58728 L66.3309792,192.477065 L70.7410057,196.782333 L71.4147881,197.366172 C72.7272103,198.508645 74.3207737,199.883269 76.4755448,200.785204 L75.803858,201.593763 L83.838951,209.437742 C88.6656383,214.099032 93.4626638,216.009355 104.973978,212.758065 C108.52317,211.754032 123.397539,207.07086 128.355125,205.506344 C130.560944,206.467366 137.439339,209.467634 139.043326,210.166559 C149.119917,223.749355 160.617905,232.628925 166.2547,236.517097 C166.049164,237.378656 165.918857,238.234301 165.918857,239.05828 C165.918857,241.668495 166.234463,243.021935 167.444821,244.516559 C168.653858,246.013871 171.64281,248.151935 171.64281,248.151935 L175.41683,243.947419 C178.123781,241.241828 181.049541,239.482903 183.827637,239.476237 C183.825488,239.58914 183.821189,239.695323 183.810872,239.84586 C183.800125,240.001774 183.796149,240.153731 183.796149,240.301581 C183.796149,243.364806 186.193049,244.455344 186.692784,244.648892 L189.826606,245.856419 L191.902494,243.218677 C197.898024,235.593624 196.330038,230.384269 193.961617,227.360613 C190.68787,223.172441 185.337159,223.383301 181.635897,224.197817 C180.296607,221.751581 179.385585,220.083301 177.870259,217.31986 C179.820408,216.205452 181.409243,215.299108 183.252136,214.245237 C186.111802,214.785785 188.577484,215.251323 190.008875,215.522118 C190.020912,215.542226 191.22006,217.557172 191.22006,217.557172 L193.392564,217.846989 C197.625588,218.412849 201.454202,218.152688 202.882262,219.256237 C204.310322,220.361075 199.674931,226.646559 199.674931,226.646559 C200.429907,226.49871 214.478907,225.405161 218.761581,221.30172 C219.328485,220.793656 221.330756,218.793333 221.465094,215.513763 C221.469392,215.407634 221.471542,215.296946 221.471542,215.184043 C221.471542,213.430065 220.895493,210.914151 218.371251,208.352323 L218.304082,208.282968 C218.304082,208.282968 216.381339,206.492645 214.76929,204.989957 C214.939899,204.080011 215.06105,203.108022 215.06105,202.062323 C215.06105,198.339204 213.763243,193.926516 209.601472,190.047269 L192.1086,173.916086 L184.770449,167.206194 C184.342311,166.816194 183.956332,166.465968 183.580328,166.128774 C188.943612,131.543828 165.536135,105.187914 156.584969,95.1169462 L155.130364,93.4683441 C155.130364,93.4683441 153.415467,94.9569462 151.702612,96.4421075 C153.41407,94.9541505 155.126172,93.4641505 155.126172,93.4641505 C153.378497,91.4521075 93.22997,23.8329677 90.6485435,20.9297419 C88.3997363,18.4392043 88.0080086,16.5104946 88.0080086,15.4714624 C87.1146652,11.1798495 87.3845973,3.91232258 87.3845973,3.91232258 C87.3845973,3.91232258 82.7110547,5.37189247 79.8806204,10.6810323 C78.8717469,13.064043 72.4039409,27.5939355 72.4039409,27.5939355 L72.347272,27.7493441 C71.822013,29.205043 71.6021189,30.5584839 71.6021189,31.8151505 C71.6021189,36.3366559 74.468448,39.5861183 76.3437974,41.7151505 C76.3437974,41.7151505 76.8435324,42.2823548 76.8475625,42.2863871 C76.9107011,42.3603118 77.03312,42.4963978 77.187608,42.6644086 C75.9167766,45.5287097 71.2285106,56.0945161 71.2285106,56.0945161 L71.1550442,56.3150323 C70.7829297,57.4575054 70.6197905,58.5330968 70.6197905,59.5492258 C70.6197905,59.7677957 70.636502,59.9810215 70.6512791,60.1939677 C51.7838671,42.567086 27.0711683,19.4885914 27.0700936,19.4885914 C24.5520743,16.5660108 23.9169273,14.534828 23.4763008,11.9907419 C23.0356743,9.44773118 22.758402,0.599344086 22.758402,0.599344086 L22.7422386,0.593107527 Z M218.756552,221.292032 C218.730974,221.314828 218.669609,221.378269 218.649512,221.397086 L218.861518,221.201774 C218.827987,221.234032 218.790158,221.259839 218.75652,221.292097 L218.756552,221.292032 Z M203.723665,219.983645 C203.729039,219.985796 203.738496,219.986871 203.74258,219.990097 C203.77611,220.015581 203.853822,220.080419 203.853822,220.080419 C203.853822,220.080419 203.765374,220.01472 203.723687,219.98386 L203.723665,219.983645 Z" fill="#000000" transform="translate(110.766239, 124.372522) scale(-1, 1) rotate(-180.000000) translate(-110.766239, -124.372522) "></path>
                    <path d="M19.9587687,5.72530108 L8.90549157,30.065086 C5.94469639,37.7021828 10.5020641,42.5500323 13.6912328,45.1145484 C16.8804014,47.6777742 121.41904,132.328527 121.41904,132.328527 L121.513506,135.856699 L17.5589663,56.0007849 C12.4030988,52.094871 13.0020284,45.7962688 13.0020284,45.7962688 L5.4957947,61.2984194 C1.84848193,70.0255161 10.8496217,75.609172 14.6097778,78.1747634 C18.3685369,80.7433656 121.982934,152.956484 121.982934,152.956484 L122.893903,157.289065 C122.893903,157.289065 22.457927,90.419172 18.7674113,88.1503548 C14.3248214,85.4125054 14.6659308,79.0861613 14.6659308,79.0861613 L7.31520602,94.8184194 C4.23888072,101.235086 13.0137964,105.707667 16.8867959,108.045301 C19.1624706,109.417559 75.3547092,142.962505 121.64521,170.514118 L61.5523525,170.52057 C52.7034976,170.52057 49.7392634,167.893258 49.7392634,167.893258 L57.795313,175.42229 C59.1628672,176.676269 62.7879337,181.237559 68.0888855,181.237559 C71.8462475,181.237559 90.2459506,181.258527 90.2459506,181.258527 L94.6055737,183.144441 L75.2652942,184.652398 C71.4205593,184.828473 70.3497294,185.232366 65.2193323,182.384226 C65.1723142,182.354656 73.8001573,190.78057 73.8001573,190.78057 C76.195446,192.830247 78.1117414,194.857344 82.213007,194.514656 C86.3170667,194.169226 110.587205,190.123258 110.587205,190.123258 L114.430542,191.862183 L88.9655545,197.419172 C83.1568075,198.706806 78.9889106,195.711753 78.9889106,195.711753 C78.9889106,195.711753 83.8061405,200.447022 86.9967063,203.526376 C90.3014051,206.718634 93.2680036,208.707237 103.749111,205.746161 C107.912279,204.568742 128.616567,198.02186 128.616567,198.02186 L141.951429,203.834978 C155.369044,222.384441 172.032248,232.219925 172.032248,232.219925 C168.839103,235.986054 171.547377,240.399925 171.547377,240.399925 C174.320099,234.777559 180.52584,231.695516 185.21862,232.383688 C189.295812,232.979118 188.202414,237.946484 188.346208,237.766376 C190.85563,234.574118 192.931303,230.742398 190.399098,227.507237 C187.321376,223.571753 179.446843,226.980108 179.446843,226.980108 L171.762316,212.944624 L182.179802,206.988602 C187.876995,170.735914 158.864211,146.12086 158.864211,146.12086 L23.9035366,20.0670968 C17.4059077,13.735914 19.9690643,5.70043011 19.9690643,5.70043011 L19.9587687,5.72530108 Z M83.9259157,10.2427204 L76.6108708,26.644871 C74.9853889,31.1543333 78.0245296,34.0778817 80.2652766,36.6625054 C82.5073133,39.2418602 148.352819,108.064656 148.352819,108.064656 L147.914127,111.849065 L85.5687002,49.5759462 C80.5511465,44.4374516 81.9199904,40.5527204 82.1578212,39.9908925 L75.4661017,55.0779892 C73.941319,59.7513226 78.7309292,62.8372366 82.0422911,66.0285269 C85.5646164,69.4222903 154.943409,134.325301 160.618893,139.503796 C172.757616,150.566161 178.688879,165.186591 178.688879,165.186591 C185.674421,129.305946 158.481318,101.616699 151.702118,93.7962688 C149.951648,91.7814301 87.2814477,21.3274516 87.2814477,21.3274516 C81.8529292,15.3154086 83.7679349,10.6018602 83.9251634,10.2425054 L83.9259157,10.2427204 Z M178.692855,165.188957 C179.985181,169.279065 187.315701,182.508312 183.438725,207.019065 L192.861254,208.797882 L193.996781,210.704763 C193.996781,210.704763 204.771711,212.141215 206.448241,213.72057 C206.448241,213.72057 210.166914,216.304118 206.183758,219.85928 C206.183758,219.85928 212.269025,218.672398 215.698604,215.322935 C215.698604,215.322935 218.82458,212.632935 215.142361,208.89229 L209.653445,203.776376 C207.881481,203.13928 204.701877,204.471516 204.701877,204.471516 C203.960335,199.951301 198.858203,193.691946 198.858203,193.691946 C198.858203,193.691946 209.031731,203.156892 209.642805,203.753667 C209.751618,203.523828 212.907633,196.686247 206.513175,190.726785 C196.964476,181.833022 178.66558,165.096677 178.692447,165.189151 L178.692855,165.188957 Z" fill="#00853E" transform="translate(110.789826, 123.050177) scale(-1, 1) rotate(-180.000000) translate(-110.789826, -123.050177) "></path>
                </g>
            </g>
        </g>
    </g>
</svg>