<?xml version="1.0" encoding="UTF-8" standalone="no"?>
<svg width="250px" height="250px" viewBox="0 0 250 250" version="1.1" xmlns="http://www.w3.org/2000/svg" xmlns:xlink="http://www.w3.org/1999/xlink">
    <!-- Generator: Sketch 47.1 (45422) - http://www.bohemiancoding.com/sketch -->
    <title>RICH</title>
    <desc>Created with Sketch.</desc>
    <defs></defs>
    <g id="Page-1" stroke="none" stroke-width="1" fill="none" fill-rule="evenodd">
        <g id="RICH" fill-rule="nonzero" fill="#002244">
            <g id="Richmond_Spiders_logo" transform="translate(34.000000, 0.000000)">
                <g id="g3315" transform="translate(0.786090, 0.362263)">
                    <path d="M179.634827,140.719726 C178.507639,138.771224 176.949569,136.268208 176.949569,136.268208 L174.210459,133.703578 L172.721654,130.010657 C172.721654,130.010657 171.517519,127.854209 169.555514,126.891512 C167.593508,125.928815 164.723601,124.342281 164.723601,124.342281 C164.723601,124.342281 163.103988,122.328312 161.476683,119.613506 C159.85322,116.898689 158.098958,115.86668 158.098958,115.86668 L156.002305,115.18123 L151.935964,112.8361 L151.366593,111.164846 L146.923233,109.474349 L148.300484,108.095761 L143.091561,106.05484 L139.186785,106.220426 C139.186785,106.220426 139.875411,104.81873 137.497927,103.998511 C135.116593,103.178293 132.188983,103.478657 132.188983,103.478657 C132.188983,103.478657 131.408028,101.876725 128.199569,102.042311 C124.987279,102.204042 119.27823,103.9215 119.27823,103.9215 L117.035395,102.82017 L107.763963,106.162668 C107.763963,106.162668 107.875536,105.088289 110.522317,103.952307 C113.161395,102.82017 115.54658,99.1272575 116.86612,98.210765 C118.185669,97.2904278 118.655008,94.5640576 118.655008,94.5640576 C118.655008,94.5640576 120.951705,93.7784996 122.398201,91.183054 C123.844697,88.5876183 125.687437,86.8393533 125.687437,86.8393533 L123.894708,86.0037362 L125.972127,83.8896491 C125.972127,83.8896491 126.726147,81.9989058 127.137784,80.4585864 C127.54173,78.9221116 129.072854,77.9324625 129.072854,77.9324625 L131.004083,74.7016364 C131.004083,74.7016364 130.292372,72.6106565 129.461406,73.596461 C128.626599,74.5822654 128.795865,72.8571076 128.795865,72.8571076 L130.823274,69.3952386 L132.581377,66.9653884 L134.512605,62.5485213 L132.03125,63.9309543 C132.03125,63.9309543 132.78912,61.485696 132.573685,60.1610213 C132.354398,58.8363466 132.558321,58.0661869 132.758344,56.5990339 C132.954545,55.1280264 131.892751,53.3874704 131.892751,53.3874704 L132.854524,50.7265674 L132.773767,49.1207808 L131.719664,48.0810726 L130.353955,42.7130521 L130.884857,38.7967961 L130.577092,35.1693415 L130.280869,32.231181 L130.61556,30.482916 L129.896158,27.6949428 L128.976713,26.3741226 L129.088277,25.4537756 C129.088277,25.4537756 128.995996,23.9057571 126.79158,23.6284996 C127.684099,22.4154968 126.564602,20.6633872 126.564602,20.6633872 L123.20227,13.6818908 L122.321284,15.7382098 L122.290557,18.3875591 L122.940714,21.6684444 L122.886843,23.5553332 C122.886843,23.5553332 121.855835,25.3074428 122.425195,26.9786968 C122.994566,28.6537953 124.825764,32.8396096 124.825764,32.8396096 C124.825764,32.8396096 123.925553,34.3144618 124.021733,37.3180895 C124.114014,40.3217074 125.064284,44.9850256 125.064284,44.9850256 L125.237401,49.5944302 L126.022207,53.4413841 C126.022207,53.4413841 124.341041,53.314304 124.783445,55.9636534 C125.222017,58.6168573 125.13738,61.169933 125.13738,61.169933 C125.13738,61.169933 123.133055,62.9374507 122.582929,64.0580343 C122.032802,65.1824625 121.590389,68.4941542 121.590389,68.4941542 C121.590389,68.4941542 119.23598,68.9215891 119.743798,71.7827386 C120.251605,74.6438782 119.28215,75.2060923 119.28215,75.2060923 L116.581508,78.2289728 C116.581508,78.2289728 116.44686,80.6087638 116.035223,82.1490832 C115.627436,83.6855481 113.276879,87.3938683 113.276879,87.3938683 C113.276879,87.3938683 111.538011,87.7519913 111.057119,89.084375 C110.580088,90.4167488 110.583939,91.1137421 110.583939,91.1137421 C110.583939,91.1137421 109.460591,89.8622338 108.637317,91.5450315 C107.806351,93.2278293 107.125427,95.3303628 107.125427,95.3303628 C107.125427,95.3303628 105.517346,95.4111987 104.624827,96.8860903 C103.724617,98.3609424 101.420229,98.7113663 101.420229,98.7113663 L103.628446,95.1224271 L103.212958,92.3691049 L102.708992,90.2088032 L104.620986,85.7303233 C104.620986,85.7303233 104.340147,84.0475256 104.263211,83.1387421 C104.186294,82.2299487 106.109802,80.2159799 106.109802,80.2159799 C106.109802,80.2159799 105.555824,78.0325808 105.255751,75.7991128 C104.959528,73.5656546 104.809486,71.7480777 104.809486,71.7480777 C104.809486,71.7480777 105.082634,66.6303628 104.728729,65.5868001 C104.370953,64.5393829 104.07473,66.8652603 104.07473,66.8652603 L103.289934,64.5624901 L102.574373,61.7745071 L100.67008,58.9249211 L101.420258,56.33333 L100.077634,54.4579949 L98.7234674,50.4878155 C98.7234674,50.4878155 99.4736462,47.8962342 98.3464477,46.6447259 C97.2192591,45.3970623 96.3113568,44.7732354 96.3113568,44.7732354 C96.3113568,44.7732354 96.2267583,43.1674487 95.6535076,40.7953569 C95.0764455,38.4271195 94.7186697,37.3797023 93.6684174,36.3399842 C92.6143242,35.3002662 91.2139977,34.610972 91.2139977,34.610972 L88.8711318,29.1081822 L88.8557682,27.6525828 C88.8557682,27.6525828 88.8442455,26.994095 87.0207098,25.7464412 C85.1972038,24.5064767 84.1508023,23.4860213 84.1508023,23.4860213 C84.1508023,23.4860213 84.3508545,22.0150138 83.0851667,20.3476144 C81.8156379,18.6802248 80.2114083,18.7610903 80.2114083,18.7610903 L79.2033568,16.512224 C79.2033568,16.512224 78.9533038,13.6741818 77.4298614,13.4161771 C76.6027462,14.7947654 75.5217174,11.548541 75.5217174,11.548541 L73.0672977,9.81953864 C73.0672977,9.81953864 73.7597644,9.11483636 72.2824917,7.52061317 C70.8090697,5.92252563 68.2853955,4.68257098 68.2853955,4.68257098 C68.2853955,4.68257098 65.9694553,2.67245662 65.2654462,1.97930797 C64.5614371,1.28616916 63.0495371,0.427434937 63.0495371,0.427434937 C63.0495371,0.427434937 60.2719591,0.346598975 60.6989795,1.60193218 C61.1260098,2.85344046 61.0798402,2.01011435 62.1993371,2.5607847 C63.3188341,3.11144519 65.6193811,7.01230284 65.6193811,7.01230284 L69.0894258,9.77717863 L69.3125629,11.155767 C69.3125629,11.155767 69.3510705,12.9040221 70.1204439,13.8051163 C70.8975485,14.7062007 71.3322705,16.6624014 72.0324288,17.3555501 C72.7364477,18.0486889 73.9213386,18.1103017 73.9213386,18.1103017 C73.9213386,18.1103017 75.1677924,20.1743297 76.1564818,21.7030954 C77.1451811,23.2318711 77.7107008,24.2061218 78.9763886,25.8735114 C80.2459174,27.5409109 80.9076076,28.3303233 80.9076076,28.3303233 L82.1040508,29.7859227 C82.1040508,29.7859227 81.6193182,30.4213032 82.4656674,31.5303332 C83.3120265,32.6432177 84.0891311,34.2451498 84.0891311,34.2451498 C84.0891311,34.2451498 84.589247,35.7084582 85.7087439,36.2552642 C86.8320917,36.8097792 86.7705386,37.99583 86.7705386,37.99583 C86.7705386,37.99583 87.1244636,39.0432472 88.255503,40.9878943 C89.3865424,42.9402504 90.5945182,45.7936909 90.5945182,45.7936909 C90.5945182,45.7936909 88.4440129,44.5922417 89.0095326,46.2634957 C89.5827439,47.9347397 92.3218538,51.3658024 92.3218538,51.3658024 L92.9066076,53.1294657 C92.9066076,53.1294657 92.5526727,55.6286376 93.0489477,57.0919361 C93.5452129,58.5590891 94.8839962,59.7335864 94.8839962,59.7335864 L95.6033985,63.2224073 C95.6033985,63.2224073 94.7031879,63.9964215 94.8532197,65.1131506 C94.9994106,66.2298797 95.8457598,67.5622634 95.8457598,67.5622634 L95.8457598,70.5042685 C95.8457598,70.5042685 95.1109742,72.0291897 95.4648992,73.0766069 C95.822675,74.1201696 96.0034932,74.1471215 96.4343644,76.0994775 C96.8690765,78.0518336 95.9342485,79.915625 95.9342485,79.915625 C95.9342485,79.915625 94.4723591,80.4162263 94.4108061,81.6061218 C94.349253,82.7921629 94.5762311,84.8176853 94.5762311,84.8176853 C94.5762311,84.8176853 94.4454333,86.4966384 94.3146258,87.4747338 C94.183828,88.4528391 94.7416561,88.726252 93.9106902,89.7120564 C93.0797242,90.6940063 93.0874159,91.3948541 93.5875318,92.8581526 C94.0838068,94.321461 93.3797977,95.5999211 93.3797977,95.5999211 C93.3797977,95.5999211 92.7257894,94.483192 91.6716962,92.8157926 C90.5445076,91.0251774 87.4360795,89.869933 87.4360795,89.869933 L88.6632894,88.0022969 L89.5635098,85.7380323 L89.5366235,83.038614 L89.7366758,81.5676163 L89.0980606,80.38542 L87.5746182,75.5950217 C87.5746182,75.5950217 85.5818462,74.4821471 84.8162742,73.9391857 C82.4734182,72.2833399 82.8850553,75.0443612 82.8850553,75.0443612 L84.2661477,76.4229495 C84.2661477,76.4229495 85.0009333,77.7091088 84.8739864,79.3880619 C84.7470295,81.0670051 84.300775,80.6126183 85.150975,82.4224862 C86.001175,84.232364 83.1543424,88.2526025 83.1543424,88.2526025 C83.1543424,88.2526025 82.1579515,86.8201006 79.7881598,87.3938683 C77.4183682,87.9714905 77.5530167,89.9854594 77.5530167,89.9854594 L75.7564364,88.44514 L73.0173265,86.5659503 C73.0173265,86.5659503 72.8211348,84.1553529 72.3287106,83.3890379 C71.8324356,82.6227326 71.9286159,81.1709779 71.9286159,81.1709779 L72.2056045,77.3047812 L70.3282371,77.4780659 C70.3282371,77.4780659 68.8124864,79.6691739 68.4008492,80.5124901 C67.9853712,81.3558162 68.1738811,81.9334385 68.3200917,83.0501676 C68.4662826,84.1669065 69.1818341,86.2578864 69.1818341,86.2578864 L68.5586121,87.1705244 C68.5586121,87.1705244 69.1279826,88.8417685 70.3244159,90.3012224 C71.5208492,91.7606763 73.1558553,93.0506901 73.1558553,93.0506901 L73.7059818,94.7065359 C73.7059818,94.7065359 72.7326758,96.4663545 71.9132523,98.8461455 C71.089978,101.229791 72.209475,103.675049 71.0861371,103.124379 C69.9666402,102.577573 68.1008152,100.867813 68.1008152,100.867813 L66.612,97.8757492 C66.612,97.8757492 67.0197864,96.3354298 65.6848538,95.1570781 C64.3499212,93.9787362 63.2304341,93.4280757 63.2304341,93.4280757 C63.2304341,93.4280757 63.3612318,92.4499704 62.1724902,91.6875099 C60.976047,90.9289038 59.5103167,90.7286672 59.5103167,90.7286672 C59.5103167,90.7286672 60.1296977,89.119026 59.0756045,88.0793178 C58.0176606,87.0357453 57.2482477,86.8316542 57.2482477,86.8316542 L55.5478379,83.2119085 C55.5478379,83.2119085 54.486053,80.8667685 53.4973538,79.3341483 C52.5048136,77.8053825 52.7702598,75.7567626 52.7702598,75.7567626 L51.5622841,72.2024744 C51.5622841,72.2024744 52.3124629,70.3117311 51.5276174,68.0128056 C50.7428212,65.7138801 48.7115712,64.5393829 48.7115712,64.5393829 C48.7115712,64.5393829 49.815675,62.2982157 49.3155591,60.8310627 C48.8192841,59.3677642 47.3343197,57.0726834 47.3343197,57.0726834 L46.9534591,52.5364452 L47.3150856,50.1874606 C47.3150856,50.1874606 47.8152015,48.701045 47.3150856,47.2377465 C46.8188106,45.7744381 46.1917379,44.1571076 46.1917379,44.1571076 L46.2456091,41.5732157 L46.5803098,39.8249606 L45.2492182,38.6466088 L45.0914947,36.8290319 C45.0914947,36.8290319 45.8570568,36.3361297 45.4223348,33.6829357 C44.983772,31.0335864 43.1564152,29.0927839 43.1564152,29.0927839 L42.9179045,25.6694203 L43.8104235,23.4937204 C43.8104235,23.4937204 42.66015,20.9637421 43.4872652,19.2809444 C44.3105394,17.5981467 43.7180939,17.3709483 43.779647,16.1810528 C43.8412,14.9911573 44.6721659,12.3495071 44.6721659,12.3495071 C44.6721659,12.3495071 46.5995439,7.53215694 42.8986606,10.5858438 L41.7253121,14.1131802 L40.7904742,16.8549487 L40.3634538,19.770002 L39.8364023,23.6862579 L38.1975553,27.8066147 L39.3747545,30.7563289 L39.63635,34.9613959 L39.4709348,38.1306092 L40.4173053,39.9828371 L39.2285636,42.8786376 L37.9936621,42.123886 L39.9210402,48.5585666 L39.9402447,51.3503943 L40.5173068,53.9573837 L41.1866886,56.8377859 L41.4867621,59.5371944 L41.0443485,62.8026715 L41.5790917,66.6881309 L42.8986311,71.975276 L41.0289652,71.3822555 L43.5103205,75.2484523 L44.6721364,79.3341483 L45.737772,81.1170741 L46.6841424,82.9731565 L47.6228311,83.8973482 L47.9190538,86.5967567 L48.9654553,89.6619874 L51.6814803,92.1611593 L52.7163394,93.3626084 L52.9163917,95.7847595 L53.862772,97.6408419 L55.0899818,100.332551 L56.3056591,101.160479 L56.8750197,102.835578 L58.3830689,105.431013 L61.3722417,106.902021 L63.6381614,110.579525 L60.6066697,110.856782 L57.8483258,110.579525 L53.4357417,108.923689 L52.8971576,110.548718 L49.6694644,108.777356 L47.3381508,109.516709 C47.3381508,109.516709 46.3956212,107.660627 44.806775,106.647861 C43.2140977,105.635104 42.1022924,106.016335 42.1022924,106.016335 L41.5521659,107.136918 L36.0239307,101.869026 L34.6620694,103.482512 C34.6620694,103.482512 33.4079269,100.582857 32.3846073,100.309454 C31.3574418,100.039896 27.248777,98.0182275 27.248777,98.0182275 C27.248777,98.0182275 27.3295642,96.4355481 25.7330332,94.4908912 C24.140349,92.5423896 21.9782983,89.8583793 21.9782983,89.8583793 L20.5587121,86.6083103 C20.5587121,86.6083103 19.0583565,84.9447654 17.6618729,84.4865142 C16.2576936,84.0321274 16.6193182,82.3531743 16.519295,81.144026 C16.4192708,79.9310233 14.2764562,74.6939373 14.2764562,74.6939373 L13.3185374,76.3228214 L12.1951936,74.8402701 L12.4644886,73.8121057 L11.1487921,71.7750296 L9.74076705,70.3848975 L8.88671924,67.8780264 L7.47099955,65.5598482 L5.48976114,61.5665615 L4.07788826,59.9030166 C4.07788826,59.9030166 4.7318897,59.3369578 4.34718227,58.2240733 C3.97017045,57.1073442 3.09303977,54.5735114 1.13873106,54.3078076 C-0.815577652,54.0421037 0.342388485,57.4154081 0.342388485,57.4154081 L0.550130455,59.6103608 L1.77734424,62.525414 L2.25822705,64.8513013 L4.72034826,71.1666108 L4.27408879,73.5001873 C4.27408879,73.5001873 5.31279568,75.6335371 6.43229167,76.1841976 C7.55178765,76.734858 8.21348273,77.7553233 8.21348273,77.7553233 L9.24449598,78.960627 L8.89056606,81.571461 C8.89056606,81.571461 9.55610795,83.5199724 10.1216267,84.2631703 C10.6871444,85.0025237 11.3411458,86.022989 11.3411458,86.022989 L12.9376778,87.967636 L14.2495265,89.076666 L15.4844339,92.700276 L17.1771423,94.9221806 L19.8046875,98.0721313 C19.8046875,98.0721313 21.2050189,98.526528 21.2088658,99.4584188 C21.2165476,100.390319 19.2430156,100.089955 19.2430156,100.089955 C19.2430156,100.089955 21.6051136,102.435095 23.2901283,103.728963 C24.9712952,105.022831 27.2333691,108.91598 27.2333691,108.91598 L28.2643823,109.189393 L29.6724074,111.507571 L31.7305871,112.982423 L37.7089227,115.920584 L39.193897,115.724192 C39.193897,115.724192 39.1670106,117.541769 40.8442864,117.903746 C42.5216015,118.265724 45.5530932,118.500621 45.5530932,118.500621 L48.1998735,119.382453 C48.1998735,119.382453 49.3386045,120.953578 50.5504311,120.85346 C51.7584068,120.749487 54.9668561,120.264284 54.9668561,120.264284 L61.433775,120.241216 L52.6047561,124.677336 L52.0161614,126.73751 L48.4922455,129.394558 C48.4922455,129.394558 46.1955492,131.693484 45.9262523,132.721648 C45.6531144,133.749813 44.5451598,135.059089 44.5451598,135.059089 L42.4177295,137.030698 L40.3787879,138.351518 L38.4437182,140.877642 L34.9544276,144.401124 C33.0308944,144.809306 34.7620739,146.495958 33.9349548,147.712806 C33.1078367,148.925808 30.2379261,151.463486 29.037642,152.495505 C27.8335111,153.531368 28.0258639,154.089728 28.3105471,154.9215 L28.5952294,155.757098 L27.3987921,157.724852 L27.9720055,159.396106 L28.0720286,160.609099 C28.0720286,160.609099 27.1564278,162.476745 26.6062973,163.601173 C26.0561669,164.721757 24.4865646,166.500828 24.4865646,166.500828 C24.4865646,166.500828 24.1249411,168.179771 24.5057987,169.2965 C24.8866583,170.413239 25.6329893,170.779062 25.6329893,170.779062 L24.1595634,172.839235 C24.1595634,172.839235 23.609433,173.959819 24.3634576,175.257541 C25.1136354,176.555264 25.4021655,177.394736 25.4021655,177.394736 C25.4021655,177.394736 24.6827642,180.752632 23.940281,181.314846 C23.2016446,181.880915 24.1364805,182.805106 23.7787038,184.48405 C23.4170802,186.163003 22.7977031,190.733902 22.7977031,190.733902 C22.7977031,190.733902 22.4399254,192.412845 22.820788,193.525729 C23.2016476,194.642459 25.0944033,199.286524 25.7137804,194.715625 C26.3293107,190.14858 25.5752861,188.850858 25.5752861,188.850858 L26.8602061,186.232315 L27.6103829,183.567567 C27.6103829,183.567567 29.5377629,183.136278 30.0878923,182.015694 C30.6380228,180.89511 29.1222789,177.363929 30.2225398,175.122762 C31.3266476,172.87775 32.5230848,170.913841 32.5230848,170.913841 L33.7079797,168.01804 L33.3155796,165.041374 C33.3155796,165.041374 34.5120169,163.077465 35.6199714,161.764343 C36.727926,160.451222 37.5473485,158.302474 37.5473485,158.302474 C37.5473485,158.302474 39.2246735,158.664452 39.4016311,157.35903 C39.5785985,156.053608 40.0056189,150.928194 40.0056189,150.928194 C40.0056189,150.928194 41.3982636,153.204022 42.1291985,151.709907 C42.8639939,150.211948 43.8834598,146.800138 45.0914455,146.70002 C46.303272,146.596047 48.253725,145.92986 49.2578174,143.407591 C50.2657409,140.885312 50.4465591,140.51179 51.4737265,140.785193 C52.5008841,141.058596 53.5011258,138.832837 55.0899621,136.2528 C57.1481379,132.910312 59.5025462,133.214521 59.5025462,133.214521 L66.6734742,128.520396 C66.6734742,128.520396 64.5614371,131.801282 63.3649939,133.765191 C62.1685606,135.729091 60.6528197,135.806112 59.7795348,139.009976 C62.8571864,138.012618 57.6328705,143.345978 57.6405621,144.277869 C57.6484409,145.209759 55.6362477,150.254308 55.6362477,150.254308 C55.6362477,150.254308 54.7129523,151.193898 55.1899833,152.587894 C55.6631735,153.981881 55.7631947,155.191029 55.7631947,155.191029 L53.4818917,161.263742 C53.4818917,161.263742 53.2087439,162.288052 53.2164455,163.219943 C53.2243242,164.151834 53.601147,165.264718 53.601147,165.264718 L52.9702333,167.97568 C52.9702333,167.97568 51.9584492,169.566059 52.1546508,171.052465 C52.354703,172.542725 53.204903,174.117705 53.204903,174.117705 C53.204903,174.117705 53.0317864,176.355018 53.1356682,177.568021 C53.2395303,178.777169 53.8896879,180.278983 53.8896879,180.278983 L53.0894985,185.223403 L52.6547765,189.416926 C52.6547765,189.416926 52.0315545,190.899487 53.4357318,192.285775 C54.8399091,193.672062 54.9207061,194.24583 54.9207061,194.24583 L55.089972,197.53056 C56.4710644,199.186406 57.5367098,201.49303 56.105597,202.694479 L57.5328591,206.876449 L59.2255674,209.098354 L58.9524295,213.815586 L60.6066598,211.882482 L61.6145932,217.928243 L62.841803,220.623797 L64.9961591,222.379761 L64.7345636,224.335972 L66.0502621,226.373038 L67.2620788,227.204811 C67.2620788,227.204811 67.7391197,228.598797 68.1199803,229.711682 C68.5008409,230.828411 69.3510409,232.407246 69.3510409,232.407246 L70.2974212,235.195219 L71.0552917,236.489087 L72.7364576,237.782955 L73.2134886,239.176942 C73.2134886,239.176942 73.9713591,241.406556 74.6330591,242.427021 C75.2909083,243.447476 76.3719273,244.31391 76.3719273,244.31391 L80.4075015,248.846303 C80.4075015,248.846303 84.9624258,248.534385 82.5233894,245.942794 C80.0881939,243.355057 77.6568492,241.695367 77.6568492,241.695367 L78.0569439,239.700651 L77.5837538,238.310519 L76.7335538,236.731684 L75.133175,234.787037 L75.4101636,233.758872 L73.7905508,229.018543 L72.7595424,227.817094 L70.6744311,222.614659 L69.8319227,221.967725 L67.8199068,214.254574 C67.8199068,214.254574 69.3164136,214.986228 68.4623629,212.479357 C67.6044712,209.972486 66.758122,208.393661 66.758122,208.393661 C66.758122,208.393661 64.6807023,204.123127 64.7614894,202.536593 C64.842247,200.953924 65.8463591,198.431644 65.0846477,196.202031 C64.3267773,193.972417 63.3765462,191.184444 63.3765462,191.184444 C63.3765462,191.184444 65.4885833,193.313939 65.5693705,191.73126 C65.650128,190.14858 63.0418553,183.829416 63.0418553,183.829416 L63.8651295,181.680668 C63.8651295,181.680668 66.0887303,179.986317 64.4883515,178.04167 C63.8266515,177.233005 63.5188864,176.955747 63.3842477,176.897979 L63.545822,175.719637 L63.5958523,173.135755 L64.1344364,170.61733 L65.1731462,169.562214 L65.4385924,167.602149 L66.4118985,167.03609 L66.1849205,164.313575 L66.6735038,160.817045 L67.7776076,156.677435 L68.8817212,153.916414 L69.1548591,150.458399 C69.1548591,150.458399 70.33975,150.520012 70.4705576,148.844913 C70.5975045,147.16597 71.6015871,143.465349 71.6015871,143.465349 L73.325072,140.611909 C73.0173068,141.49374 74.5984515,142.883882 75.0293227,144.14309 C75.456353,145.394598 76.245,146.519036 76.245,146.519036 L76.6797121,148.590763 C76.6797121,148.590763 78.6994295,150.943602 79.4649917,151.147693 C80.2344045,151.351784 80.4498402,152.953716 81.2884977,153.365753 C82.1310061,153.781634 83.2081841,155.164077 83.2081841,155.164077 L85.6587629,155.094775 C85.6587629,155.094775 85.8049538,156.20766 87.2052803,156.896954 C88.6094674,157.586248 89.9290068,156.665901 89.9290068,156.665901 C89.9290068,156.665901 90.6407174,158.718385 91.8217576,158.779998 C93.0105091,158.837766 95.3533652,160.266404 95.3533652,160.266404 L98.5733568,160.46664 L103.901545,158.883961 C105.852008,158.348709 107.487004,155.572279 107.487004,155.572279 L107.763992,153.935686 L110.245358,152.260588 L110.814718,149.772979 L111.645684,147.824468 L113.003702,145.359957 L113.911604,142.04442 C113.911604,142.04442 114.665633,138.201331 114.657932,136.80349 C114.646409,135.405649 113.70386,134.061721 113.830817,132.386623 C113.957773,130.70767 113.126808,128.431851 114.384794,128.70141 C115.638939,128.970958 116.77767,128.843888 117.697115,130.164708 C118.612719,131.485538 119.332121,130.746185 119.966886,131.928371 C120.605501,133.114422 122.34822,132.752445 122.34822,132.752445 L124.467948,136.225868 C124.467948,136.225868 125.79903,137.408064 126.572294,137.6083 C127.337856,137.816246 127.980322,139.695436 127.980322,139.695436 C127.980322,139.695436 129.376808,139.687549 129.86153,139.056201 C130.346263,138.42082 131.32727,139.252593 131.32727,139.252593 C131.32727,139.252593 131.546547,140.581122 132.531395,141.40904 C133.512403,142.240812 135.262814,142.579683 135.262814,142.579683 C135.262814,142.579683 136.04761,144.878608 136.470789,145.433123 C136.890118,145.991493 137.455638,146.961889 138.50589,147.304614 C139.556133,147.647338 140.11011,147.223778 140.11011,147.223778 C140.11011,147.223778 140.683331,149.595869 141.460436,150.496954 C142.233689,151.401893 143.641717,152.78818 143.641717,152.78818 C143.641717,152.78818 144.137992,154.251489 144.907405,154.45558 L145.676818,154.655816 L147.377218,157.582423 C147.377218,157.582423 148.42362,157.921293 148.7083,158.75692 C148.99299,159.592537 150.97422,163.350917 151.547441,165.026015 C152.116802,166.697269 152.066791,169.285006 152.066791,169.285006 C152.066791,169.285006 153.690255,171.995968 153.836436,173.112697 C153.982627,174.229426 152.809278,176.262648 152.809278,176.262648 C152.809278,176.262648 153.736414,178.280471 154.090349,179.327888 C154.444274,180.375306 154.671252,182.396974 154.671252,182.396974 C154.671252,182.396974 153.213214,183.594568 153.4325,184.923097 C153.651777,186.247772 154.294242,188.130806 154.294242,188.130806 C154.294242,188.130806 153.751808,190.645377 154.244212,191.411692 C154.744328,192.177997 156.563993,193.421806 156.563993,193.421806 C156.563993,193.421806 155.471422,196.363821 155.967697,197.827119 C156.467813,199.290428 157.044875,201.66252 157.044875,201.66252 L157.975862,205.078174 L156.956386,208.928973 L157.82583,213.534523 L156.998705,214.516483 L156.467813,218.432739 L157.11797,221.713624 L156.306239,225.491256 C156.306239,225.491256 156.044633,227.451311 157.579618,227.859493 C159.118444,228.267685 159.530071,226.723511 159.726273,225.256358 C159.926325,223.789205 160.595717,220.288831 160.595717,220.288831 L161.684427,215.948975 L161.041971,214.069785 L161.599799,204.773965 L161.026588,202.401873 L161.711363,201.000177 L160.711121,197.376577 L162.64235,197.530609 L160.884238,191.712056 L160.018655,188.508192 C160.018655,188.508192 162.180702,188.003736 161.88833,186.467261 L160.814993,182.635716 L160.23409,179.562786 L159.660879,177.891532 L160.007112,176.84027 L159.85323,175.026538 L160.261016,173.486218 L159.968644,171.949754 L160.437983,169.223393 L158.81452,166.508576 L157.668097,162.465241 L156.756344,161.845258 L157.16413,160.304939 L156.517823,157.721057 L155.194433,155.849566 L156.848673,155.021648 C155.748411,153.916463 155.194433,150.604781 153.947989,149.499596 C151.839793,147.63196 150.504861,146.241828 150.504861,146.241828 C150.504861,146.241828 150.081681,145.683458 149.723905,144.639896 C149.36613,143.596323 149.785458,143.453845 148.589025,141.990546 C147.388741,140.534937 146.765519,140.746737 146.765519,140.746737 L146.542382,139.422062 C146.542382,139.422062 146.742434,137.951055 145.338257,136.564767 C143.93408,135.17848 142.737636,134.419874 142.737636,134.419874 L141.741245,131.493267 L137.390224,128.31251 C137.390224,128.31251 138.844412,126.414058 136.393833,125.382049 C133.943255,124.353884 131.354177,123.602977 131.354177,123.602977 L129.603766,122.567114 C129.603766,122.567114 130.500126,121.096106 127.911058,120.345199 C125.32198,119.594302 124.625662,119.598147 124.625662,119.598147 L123.221485,118.211859 C123.221485,118.211859 123.417686,119.116798 121.178692,118.015467 C118.935848,116.914146 116.862289,116.37503 116.862289,116.37503 C114.657912,116.101627 110.930113,115.100414 113.619212,114.830856 C113.619212,114.830856 115.504271,112.682118 118.785816,112.724478 C122.06352,112.774556 123.309964,111.646254 123.309964,111.646254 L126.03369,111.419056 L127.987994,111.680905 C127.987994,111.680905 129.742255,112.716769 130.792508,113.059493 C131.838909,113.402218 133.843223,114.364915 134.67804,114.079959 C135.512857,113.794992 137.013205,114.203184 137.013205,114.203184 C137.013205,114.203184 139.598432,114.950237 140.717929,115.504752 C141.837426,116.055412 142.745338,115.978401 143.65324,115.897535 L144.561152,115.824389 L148.273568,117.82295 L150.324052,121.092281 L151.855186,120.799616 L154.1865,124.904564 L156.914067,125.374369 L158.802977,126.129121 C158.802977,126.129121 159.156912,127.176538 160.56494,128.562825 C161.969117,129.949113 163.646433,130.080037 163.646433,130.080037 L165.200652,132.579209 C165.200652,132.579209 165.843108,134.462254 166.889509,134.104131 L167.93206,133.749852 L171.152061,135.682955 C171.152061,135.682955 171.309785,137.496678 172.640867,138.67502 C173.975799,139.853371 174.460532,139.221836 174.460532,139.221836 C174.460532,139.221836 175.530018,142.356388 175.953198,142.910903 C176.380218,143.469272 178.484564,147.720554 179.738709,147.293109 C180.989004,146.86182 180.762026,142.668306 179.634837,140.719795" id="path3317"></path>
                    <path d="M166.093161,227.690014 C166.716383,227.690014 167.312679,227.844046 167.88589,228.155964 C168.459102,228.467873 168.905366,228.91457 169.232365,229.496037 C169.559364,230.077504 169.724789,230.685933 169.724789,231.321313 C169.724789,231.952849 169.563205,232.553569 169.243908,233.127336 C168.920749,233.701114 168.474495,234.151656 167.901273,234.471274 C167.328062,234.790881 166.727925,234.952622 166.093161,234.952622 C165.462237,234.952622 164.8621,234.790881 164.288889,234.471274 C163.715667,234.151656 163.269413,233.701114 162.946255,233.127336 C162.626957,232.553569 162.469223,231.952849 162.469223,231.321313 C162.469223,230.685933 162.630798,230.077504 162.957797,229.496037 C163.284796,228.91457 163.731061,228.467873 164.304272,228.155964 C164.877483,227.844046 165.47378,227.690014 166.093161,227.690014 L166.093161,227.690014 Z M166.093161,228.413959 C165.596886,228.413959 165.119855,228.537185 164.662048,228.783636 C164.208092,229.033941 163.846475,229.392064 163.58487,229.85416 C163.323274,230.32011 163.192467,230.809158 163.192467,231.317468 C163.192467,231.821924 163.319423,232.307118 163.577178,232.765369 C163.831082,233.22361 164.188858,233.581733 164.650505,233.839738 C165.108312,234.097743 165.589194,234.224823 166.093161,234.224823 C166.600968,234.224823 167.08185,234.097743 167.539657,233.839738 C167.997454,233.581733 168.35523,233.22361 168.612984,232.765369 C168.870739,232.307118 168.997695,231.821924 168.997695,231.317468 C168.997695,230.809158 168.866888,230.32011 168.605292,229.85416 C168.343687,229.392064 167.98207,229.033941 167.524264,228.783636 C167.066467,228.537185 166.589426,228.413959 166.093161,228.413959 L166.093161,228.413959 Z M164.465846,233.262116 L164.465846,229.403618 L165.246802,229.403618 C165.981597,229.403618 166.389383,229.407561 166.477862,229.415152 C166.735617,229.43822 166.93951,229.488299 167.08185,229.569184 C167.22419,229.65002 167.347296,229.773275 167.439626,229.93886 C167.535845,230.104446 167.585817,230.289284 167.585817,230.489521 C167.585817,230.766778 167.493536,231.00553 167.312679,231.201922 C167.131861,231.398314 166.877957,231.52154 166.550958,231.571599 C166.666372,231.613989 166.754851,231.663969 166.816404,231.714077 C166.881798,231.768001 166.966445,231.868109 167.078009,232.010588 C167.108736,232.049132 167.201115,232.206979 167.358839,232.480382 L167.812795,233.262096 L166.854872,233.262096 L166.531723,232.634414 C166.312437,232.210834 166.131629,231.94513 165.989289,231.837303 C165.843098,231.729485 165.66613,231.671717 165.446854,231.671717 L165.242961,231.671717 L165.242961,233.262096 L164.465846,233.262116 Z M165.242961,231.071017 L165.562258,231.071017 C166.012373,231.071017 166.293203,231.051794 166.404767,231.017094 C166.512489,230.982394 166.600968,230.920781 166.662521,230.83611 C166.727915,230.747486 166.758741,230.647417 166.758741,230.53959 C166.758741,230.431772 166.728014,230.335499 166.666461,230.250789 C166.604908,230.169953 166.516419,230.1083 166.404855,230.073649 C166.289451,230.035104 166.008611,230.015881 165.562347,230.015881 L165.243049,230.015881 L165.242961,231.071017 Z" id="path3319"></path>
                </g>
            </g>
        </g>
    </g>
</svg>