<?xml version="1.0" encoding="UTF-8"?>
<svg width="500px" height="500px" viewBox="0 0 500 500" version="1.1" xmlns="http://www.w3.org/2000/svg" xmlns:xlink="http://www.w3.org/1999/xlink">
    <!-- Generator: Sketch 63.1 (92452) - https://sketch.com -->
    <title>Team Logos / NCAA / Dark / HOU</title>
    <desc>Created with Sketch.</desc>
    <g id="Team-Logos-/-NCAA-/-Dark-/-HOU" stroke="none" stroke-width="1" fill="none" fill-rule="evenodd">
        <g id="Asset-1" transform="translate(0.000000, 33.000000)" fill-rule="nonzero">
            <polygon id="Path" fill="#CE0E2D" points="456.605505 231.651376 456.605505 146.926606 332.889908 146.926606 332.889908 84.7018349 358.669725 84.7018349 358.669725 0 199.357798 0 199.357798 84.7018349 223.394495 84.7018349 223.394495 146.926606 135.252294 146.926606 135.252294 84.7018349 159.288991 84.7018349 159.288991 0 0 0 0 84.7018349 25.7798165 84.7018349 25.7798165 239.357798 75.3440367 282.018349 125.458716 282.018349 125.458716 349.56422 99.6788991 349.56422 99.6788991 434.243119 258.990826 434.243119 258.990826 349.56422 234.931193 349.56422 234.931193 333.96789 321.353211 333.96789 321.353211 349.56422 297.316514 349.56422 297.316514 434.243119 456.605505 434.243119 456.605505 349.56422 430.848624 349.56422 430.848624 231.651376"></polygon>
            <path d="M444.56422,219.587156 L444.56422,158.990826 L320.848624,158.990826 L320.848624,72.6605505 L346.605505,72.6605505 L346.605505,12.0412844 L211.422018,12.0412844 L211.422018,72.6605505 L235.458716,72.6605505 L235.458716,158.990826 L123.211009,158.990826 L123.211009,72.6605505 L147.247706,72.6605505 L147.247706,12.0412844 L12.0412844,12.0412844 L12.0412844,72.6605505 L37.8211009,72.6605505 L37.8211009,233.944954 L79.8165138,269.954128 L137.614679,269.954128 L137.614679,361.697248 L111.743119,361.697248 L111.743119,422.270642 L246.926606,422.270642 L246.926606,361.62844 L222.889908,361.62844 L222.889908,321.926606 L333.394495,321.926606 L333.394495,361.62844 L309.357798,361.62844 L309.357798,422.201835 L444.678899,422.201835 L444.678899,361.62844 L418.784404,361.62844 L418.784404,219.587156 L444.56422,219.587156 Z M295,257.729358 L332.568807,224.334862 L332.568807,257.729358 L295,257.729358 Z" id="Shape" fill="#FFFFFF"></path>
            <polygon id="Path" fill="#CE0E2D" points="246.90367 219.56422 222.866972 219.56422 222.866972 258.509174 275.688073 258.509174 309.380734 228.577982 309.380734 61.2155963 335.16055 61.2155963 335.16055 23.5091743 222.866972 23.5091743 222.866972 61.2155963 246.90367 61.2155963"></polygon>
            <polygon id="Path" fill="#CE0E2D" points="137.522936 219.56422 111.766055 219.56422 111.766055 61.2155963 135.802752 61.2155963 135.802752 23.5091743 23.5091743 23.5091743 23.5091743 61.2155963 49.2889908 61.2155963 49.2889908 228.577982 84.059633 258.509174 137.522936 258.509174"></polygon>
            <polygon id="Path" fill="#CE0E2D" points="433.09633 208.142202 433.09633 170.43578 320.825688 170.43578 320.825688 208.142202 344.83945 208.142202 344.83945 269.931193 211.444954 269.931193 211.444954 208.142202 235.481651 208.142202 235.481651 170.43578 123.188073 170.43578 123.188073 208.142202 148.96789 208.142202 148.96789 373.073394 123.188073 373.073394 123.188073 410.733945 235.481651 410.733945 235.481651 373.073394 211.444954 373.073394 211.444954 310.481651 344.83945 310.481651 344.83945 373.073394 320.825688 373.073394 320.825688 410.733945 433.09633 410.733945 433.09633 373.073394 407.33945 373.073394 407.33945 208.142202"></polygon>
            <path d="M472.224771,420.550459 L472.224771,420.550459 C472.224771,412.95021 478.38599,406.788991 485.986239,406.788991 C493.586487,406.788991 499.747706,412.95021 499.747706,420.550459 L499.747706,420.550459 C499.747706,428.150708 493.586487,434.311927 485.986239,434.311927 C478.38599,434.311927 472.224771,428.150708 472.224771,420.550459 Z M496.743119,420.550459 L496.743119,420.550459 C496.743119,414.609598 491.9271,409.793578 485.986239,409.793578 C480.045377,409.793578 475.229358,414.609598 475.229358,420.550459 L475.229358,420.550459 C475.192334,423.408684 476.306681,426.161642 478.321439,428.189343 C480.336197,430.217044 483.081963,431.348996 485.940367,431.330275 C488.817179,431.342648 491.579074,430.202163 493.608992,428.163625 C495.638909,426.125088 496.767682,423.358385 496.743119,420.481651 L496.743119,420.550459 Z M480.688073,413.669725 L486.720183,413.669725 C488.309012,413.537273 489.883049,414.059191 491.077982,415.114679 C491.850414,415.890629 492.258657,416.95706 492.201835,418.050459 L492.201835,418.050459 C492.266634,419.803926 491.191272,421.398429 489.541284,421.995413 L492.637615,426.582569 L488.53211,426.582569 L485.894495,422.66055 L484.311927,422.66055 L484.311927,426.605505 L480.711009,426.605505 L480.688073,413.669725 Z M486.651376,419.862385 C487.889908,419.862385 488.600917,419.288991 488.600917,418.348624 L488.600917,418.348624 C488.600917,417.316514 487.821101,416.811927 486.605505,416.811927 L484.311927,416.811927 L484.311927,419.931193 L486.651376,419.862385 Z" id="Shape" fill="#CE0E2D"></path>
        </g>
    </g>
</svg>