<?xml version="1.0" encoding="UTF-8" standalone="no"?>
<svg width="250px" height="250px" viewBox="0 0 250 250" version="1.1" xmlns="http://www.w3.org/2000/svg" xmlns:xlink="http://www.w3.org/1999/xlink">
    <!-- Generator: Sketch 47.1 (45422) - http://www.bohemiancoding.com/sketch -->
    <title>CINCY</title>
    <desc>Created with Sketch.</desc>
    <defs></defs>
    <g id="Page-1" stroke="none" stroke-width="1" fill="none" fill-rule="evenodd">
        <g id="CINCY" fill-rule="nonzero">
            <g id="Cincinnati_Bearcats_logo" transform="translate(44.000000, 0.000000)">
                <g id="Group" transform="translate(81.117021, 124.237589) scale(-1, 1) rotate(-180.000000) translate(-81.117021, -124.237589) translate(1.329787, 0.124113)">
                    <g transform="translate(1.795833, 1.795833)" id="Shape">
                        <polygon fill="#E00122" points="78.9007092 1.44060284 2.2052305 1.44060284 11.3475177 32.6906028 88.0429965 32.6906028"></polygon>
                        <path d="M130.326241,42.9248625 C113.788121,42.5126285 88.2801418,60.4269902 84.8368794,78.8840824 C83.8727837,84.101281 85.2144858,88.01582 87.960461,90.2011037 C88.9001773,91.2183909 90.1044326,91.9409086 91.5828014,92.2511037 C96.1994681,93.226281 101.485638,91.6690469 105.995745,88.1716711 C109.078723,85.778054 111.78883,82.4911746 113.659397,78.4995079 C114.898316,75.8443661 115.707624,73.3995079 116.104255,71.1787633 C116.671631,68.0603235 116.480887,65.3961391 115.740638,63.2484441 C115.299592,61.9829299 114.680266,60.898976 113.915638,60.003586 C113.15766,59.1170611 112.247163,58.4219725 111.238688,57.9188342 C109.888954,57.2561569 108.440106,56.9058377 106.906418,56.8349157 C108.894362,55.8553058 111.007128,55.336281 113.070603,55.4116356 C114.741702,55.4670434 116.258014,55.8992242 117.565638,56.6306072 C117.583369,56.6461214 117.618688,56.6601125 117.645284,56.6756267 C118.117358,55.5940664 118.641525,54.5584281 119.224415,53.5589601 C122.008103,48.8447757 126.020514,45.1233218 130.357926,43.0798821 L130.324238,42.9256267 L130.326241,42.9248625 Z M85.214539,53.4211391 C71.5996454,55.9409973 53.8953901,74.4459618 54.2695035,89.6959618 C54.3714539,94.0266356 56.1664894,96.917593 58.7817376,98.1941888 C59.7347518,98.8480008 60.8404255,99.2192242 62.0992908,99.2192242 C66.0510638,99.2236569 70.1132979,97.089437 73.2051418,93.5433377 C75.3129433,91.123125 76.9689716,88.0459973 77.8179078,84.5465292 C78.3830674,82.2238342 78.5995745,80.143515 78.5485993,78.306281 C78.4710284,75.7264938 77.864734,73.6374867 76.8829078,72.041742 C76.3110993,71.1108909 75.6057624,70.3538874 74.8189007,69.7665647 C74.0387589,69.1925399 73.1775887,68.7840469 72.2665957,68.5579831 C71.0476241,68.2521321 69.7926596,68.2177703 68.5403546,68.4194547 C69.9964716,67.3046498 71.6268794,66.545164 73.34,66.2481781 C74.7163298,66.0154654 76.0267021,66.1006604 77.2323759,66.4663519 C77.2567553,66.4730895 77.278227,66.4794725 77.2981738,66.4905895 C77.4976418,65.5486569 77.7554255,64.6386391 78.0634929,63.7409441 C79.5040957,59.5654122 82.115266,55.9593838 85.273422,53.6012278 L85.2145567,53.4211569 L85.214539,53.4211391 Z M148.851064,66.9060682 C137.521809,67.2047739 122.833333,73.9622739 117.826241,83.9023448 C116.062057,87.3842597 116.170248,90.4225576 117.566525,92.5147562 C117.987624,93.4323094 118.651135,94.181281 119.58195,94.6998625 C122.507482,96.3310682 126.434433,96.3015647 130.213333,94.7656604 C132.804113,93.7062633 135.333901,91.9401285 137.437092,89.5089228 C138.846667,87.891015 139.888156,86.3291356 140.619539,84.8442065 C141.672287,82.7630008 142.094078,80.8479299 142.049752,79.1856959 C142.016507,78.206086 141.818706,77.3094547 141.481826,76.5225753 C141.153812,75.7468661 140.689911,75.0634086 140.107021,74.5071498 C139.337961,73.7624689 138.4175,73.2225221 137.402411,72.8656959 C138.969344,72.5775753 140.485922,72.6439228 141.880071,73.1115647 C142.999309,73.4861214 143.925816,74.1066888 144.650461,74.8846143 C144.67484,74.9067774 144.698936,74.9185505 144.698936,74.9296321 C145.250798,74.2691711 145.819982,73.6472207 146.433901,73.0665115 C149.248617,70.3626108 152.67344,68.5815824 155.977872,67.9897384 L155.995248,67.7715647 C153.898617,67.1120789 151.465461,66.8368838 148.851099,66.90582 L148.851064,66.9060682 Z M49.8333333,75.3211391 C39.5251773,78.7097916 27.8102837,94.7236214 29.7819149,106.314047 C30.3404255,109.605182 32.0519504,111.62043 34.2283688,112.311919 C35.039539,112.710855 35.942961,112.874313 36.9225177,112.741334 C39.9987589,112.320235 42.9175532,110.259951 44.9255319,107.221299 C46.304078,105.148958 47.2510638,102.621831 47.5193262,99.8624335 C47.6966312,98.0251994 47.6466312,96.4149157 47.4050532,95.0142065 C47.0593085,93.0617242 46.3503723,91.5305186 45.4172872,90.4223625 C44.8676418,89.7685505 44.2373759,89.2643484 43.5679965,88.8986391 C42.8942376,88.5484618 42.1753191,88.327664 41.4417553,88.2545257 C40.4643617,88.1547916 39.4823582,88.2642774 38.529344,88.5523448 C39.5421986,87.5417065 40.7238475,86.7866356 42.027039,86.3810682 C43.064273,86.0508377 44.0945922,85.9829654 45.0674645,86.1248094 C45.0896277,86.1336746 45.1120745,86.1329654 45.129805,86.1352703 C45.1785638,85.4016711 45.2731738,84.6716711 45.417234,83.9535328 C46.077695,80.6092065 47.7161702,77.5799512 49.9191844,75.4345611 L49.8326064,75.3202881 L49.8333333,75.3211391 Z M92.2535461,103.253763 C52.3741135,103.253763 18.7535461,138.964756 10.9503546,176.21121 C1.95212766,219.17043 28.181383,245.361919 57.8049645,244.805182 C89.5177305,244.200129 104.590426,210.198799 107.200355,203.204118 L106.898936,203.158019 C96.0234043,221.117238 79.822695,227.50199 72.7304965,227.50199 C42.6560284,227.50199 42.3865248,197.661565 48.822695,173.805182 C57.7166667,140.819366 71.6950355,120.326458 92.0851064,120.326458 C99.4698582,120.326458 110.10461,125.548976 112.471631,149.159792 L112.890656,149.208267 C114.845443,143.722806 124.592074,112.167487 124.592074,112.167487 C114.915656,106.819614 105.065479,103.253834 92.255195,103.253834 L92.2535461,103.253763 Z" fill="#000000" transform="translate(82.574477, 143.865883) scale(-1, 1) rotate(-180.000000) translate(-82.574477, -143.865883) "></path>
                    </g>
                </g>
            </g>
        </g>
    </g>
</svg>