<svg width="500" height="500" viewBox="0 0 500 500" fill="none" xmlns="http://www.w3.org/2000/svg">
<path d="M452.581 384.648L423.767 214.96L355.85 335.559L320.516 271.093C326.45 269.963 331.954 267.211 336.418 263.142C340.296 259.634 343.399 255.356 345.529 250.581C347.659 245.805 348.77 240.638 348.79 235.409C348.71 206.611 314.999 197.404 314.999 197.404C314.999 197.404 315.555 216.486 305.791 220.048C303.835 220.78 301.371 221.829 298.922 222.609C304.259 214.264 307.044 204.542 306.936 194.637C306.936 184.397 302.07 167.875 288.697 154.978C276.818 143.513 260.869 137.772 242.582 138.313C239.539 138.411 236.506 138.709 233.502 139.204L237.096 117.545C245.412 81.7186 284.467 63.845 284.467 63.845H199.933C196.019 63.8684 192.242 65.2872 189.28 67.8465C186.319 70.4057 184.367 73.9375 183.777 77.8068L178.418 114.794L140.588 53L102.837 114.842L97.4303 77.775C96.8369 73.9155 94.888 70.3936 91.9331 67.8409C88.9782 65.2881 85.2106 63.8715 81.3059 63.845H0C0 63.845 36.8922 84.9149 43.8571 115.923L73.1323 285.627L140.604 165.028L183.189 242.677C172.354 255.315 165.809 271.066 164.495 287.662C163.182 304.257 167.168 320.841 175.881 335.027C184.593 349.212 197.581 360.268 212.977 366.601C228.372 372.935 245.38 374.221 261.553 370.273L259.438 383.089C252.52 413.525 210.921 436.79 210.921 436.79H296.6C300.511 436.764 304.285 435.346 307.245 432.791C310.206 430.235 312.159 426.709 312.756 422.844L318.02 385.825L355.914 447.635L393.665 385.793L399.055 422.86C399.652 426.721 401.604 430.243 404.562 432.795C407.519 435.348 411.289 436.764 415.196 436.79L500 436.996C500 436.996 463.967 421.015 452.581 384.648ZM239.942 200.044L239.863 199.917L240.006 200.139L239.942 200.044Z" fill="#F7A00E"/>
<path d="M442.657 387.049L419.425 247.447L357.837 360.016H357.376L299.494 254.396C303.965 257.363 309.111 259.156 314.457 259.612C327.672 261.091 338.564 248.783 338.564 235.489C338.564 225.518 332.681 215.596 323.839 213.226C327.21 252.265 218.887 223.578 220.478 290.064C222.211 325.302 272.349 325.159 268.739 293.801C239.019 293.96 248.067 260.55 270.552 265.177L270.934 265.464C274.744 269.131 277.763 273.54 279.803 278.419C281.844 283.299 282.862 288.544 282.797 293.832C282.797 303.954 278.776 313.662 271.619 320.819C264.461 327.976 254.754 331.997 244.632 331.997C234.511 331.997 224.803 327.976 217.646 320.819C210.489 313.662 206.468 303.954 206.468 293.832C206.373 272.46 216.105 254.46 244.537 239.162C237.874 235.362 220.955 225.821 220.493 202.954C220.506 196.564 223.05 190.44 227.568 185.921C232.086 181.403 238.211 178.859 244.601 178.847C249.221 178.804 253.67 180.591 256.977 183.818C260.284 187.044 262.18 191.448 262.252 196.068C262.26 198.315 261.826 200.542 260.973 202.621C260.121 204.7 258.868 206.591 257.285 208.186C255.702 209.78 253.821 211.048 251.748 211.915C249.675 212.783 247.452 213.234 245.205 213.242C242.535 213.289 239.895 212.675 237.52 211.454C235.145 210.233 233.109 208.444 231.593 206.245C231.593 220.096 244.171 230.241 256.765 231.354C281.159 233.517 296.949 216.136 296.838 194.653C296.838 180.341 283.258 148.999 244.76 150.128C236.229 150.355 227.863 152.53 220.303 156.489L227.109 115.128C233.819 85.7257 252.551 75.7076 252.551 75.7076H201.666C200.63 75.7169 199.629 76.0872 198.837 76.7548C198.044 77.4224 197.51 78.3455 197.325 79.365L187.291 149.842H186.845L142.32 73.2905L98.0974 149.905H97.6362L87.3796 79.4286C87.161 78.4196 86.6124 77.5122 85.8204 76.8498C85.0285 76.1874 84.0383 75.8079 83.0066 75.7712H32.248C32.248 75.7712 50.2648 85.3759 57.2934 113.538L80.5259 253.14L142.114 140.571H142.575L199.567 244.569C187.515 255.741 180.005 270.963 178.474 287.325C176.942 303.687 181.497 320.039 191.266 333.253C201.036 346.467 215.334 355.616 231.426 358.948C247.517 362.281 264.273 359.564 278.487 351.317L272.842 385.459C266.132 414.861 247.399 424.879 247.399 424.879H298.285C299.321 424.87 300.322 424.5 301.114 423.832C301.906 423.164 302.441 422.241 302.626 421.222L312.66 350.745H313.105L357.63 427.296L401.885 350.745H402.346L412.603 421.222C412.82 422.226 413.364 423.129 414.15 423.791C414.935 424.453 415.918 424.836 416.944 424.879H467.734C467.734 424.879 449.686 415.211 442.657 387.049Z" fill="#134431"/>
</svg>
