<?xml version="1.0" encoding="UTF-8" standalone="no"?>
<svg width="250px" height="250px" viewBox="0 0 250 250" version="1.1" xmlns="http://www.w3.org/2000/svg" xmlns:xlink="http://www.w3.org/1999/xlink">
    <!-- Generator: Sketch 47.1 (45422) - http://www.bohemiancoding.com/sketch -->
    <title>LVILLE</title>
    <desc>Created with Sketch.</desc>
    <defs></defs>
    <g id="Page-1" stroke="none" stroke-width="1" fill="none" fill-rule="evenodd">
        <g id="LVILLE" fill-rule="nonzero">
            <g id="Louisville_Cardinals_logo" transform="translate(13.000000, 0.000000)">
                <path d="M215.980263,130.486513 C210.819737,120.770066 203.122368,113.845724 194.224342,110.622039 C194.491612,108.689474 196.51875,89.0305921 172.822368,77.6976974 C165.733553,74.3134868 157.657895,71.1845395 149.113487,67.8786184 C134.944079,62.3934211 118.883224,56.1763158 104.40625,47.4713816 C81.6825658,33.8108553 61.2944079,14.9417763 61.0904605,14.7483553 L50.3503289,4.76875 C50.3503289,4.76875 42.8421053,19.9578947 43.1217105,47.6832237 C40.5394737,44.1881579 38.6726974,42.2884868 38.6726974,42.2884868 C38.6726974,42.2884868 34.2523026,63.4069079 39.5444079,80.2292763 C21.9746711,93.3503289 10.1365132,108.679276 10.1365132,108.679276 C10.1365132,108.679276 13.9319079,109.682566 17.6819079,110.67352 C8.22467105,123.551809 1.35789474,140.003125 1.35789474,140.003125 C1.35789474,140.003125 10.1940789,139.258882 13.8453947,139.982401 C13.8453947,139.982401 3.8,170.985691 35.5805921,188.344243 L143.074013,247.712664 C142.041941,243.748849 127.600987,201.081086 151.462171,197.771875 C162.909539,199.786678 174.291118,197.566283 178.592105,196.534211 C190.631579,193.639474 200.064145,185.559868 203.522368,182.266118 C205.496053,188.368092 206.326645,191.114803 206.326645,191.114803 C223.789803,174.692105 223.740461,145.091776 215.985197,130.489803" id="Shape" fill="#000000"></path>
                <path d="M131.302632,101.154163 C125.624342,103.80219 121.684868,109.551203 121.684868,116.233111 C121.684868,125.42719 129.134868,132.879492 138.325,132.879492 C144.994408,132.879492 150.719737,128.953834 153.371711,123.300216 C152.287237,122.01038 151.202237,120.769295 150.14648,119.5739 C148.509967,123.37719 144.735625,126.037058 140.335954,126.037058 C134.431349,126.037058 129.651743,121.259755 129.651743,115.359098 C129.651743,110.893637 132.383618,107.083769 136.269178,105.484098 L136.282007,105.484098 C133.214572,102.688045 131.31523,101.178505 131.30273,101.153834 L131.302632,101.154163 Z M142.770724,111.710084 C141.997697,112.478999 141.517895,113.540874 141.517895,114.716861 C141.517895,117.072946 143.430263,118.989229 145.790263,118.989229 C146.888125,118.989229 147.879342,118.566729 148.623586,117.884163 C146.571776,115.626762 144.600559,113.551927 142.770625,111.709821 L142.770724,111.710084 Z M178.800329,152.996269 C176.312664,152.90992 174.163487,153.155907 172.304934,153.645183 C173.069737,155.750446 174.226974,159.409986 174.662829,163.308012 C176.681743,163.003736 178.835526,162.74288 181.068421,162.594854 C180.817599,158.577749 179.647533,155.052091 178.800493,152.99617 L178.800329,152.996269 Z M182.91875,153.381762 C183.49852,155.429459 184.238125,158.782091 184.242237,162.466302 C186.19125,162.433407 188.174803,162.499723 190.140263,162.684755 C190.012796,160.271104 189.535822,157.671927 188.495526,155.065019 C186.813783,154.324887 184.954079,153.735348 182.918882,153.381729 L182.91875,153.381762 Z M169.009211,154.936565 C164.548026,157.35844 162.597697,161.699723 162.301645,166.173407 C163.753125,165.700545 167.11875,164.703407 171.501974,163.860512 C171.07023,160.126959 169.741086,156.634854 169.009178,154.936499 L169.009211,154.936565 Z M192.735855,157.461499 C193.007237,158.682716 193.281974,160.647288 193.179145,163.089459 C195.551678,163.488308 197.873224,164.11538 200.072895,164.99117 C198.699539,162.95992 196.292632,159.949065 192.735724,157.461236 L192.735855,157.461499 Z M187.217105,166.308538 C186.195822,166.280249 185.109013,166.280249 183.95977,166.321367 C183.326546,170.762157 181.969638,174.130907 181.184276,175.804262 C183.441678,175.434196 185.901711,174.791203 188.566184,173.812584 C189.034934,172.455677 189.815164,169.793834 190.082434,166.475413 C189.190164,166.391137 188.238289,166.33663 187.217007,166.308374 L187.217105,166.308538 Z M181.042763,166.501269 C179.101974,166.669854 176.997039,166.953308 174.727303,167.368604 C174.38602,170.900841 173.08977,174.059723 172.234507,175.823538 C174.335658,176.247058 176.779243,176.348045 179.558849,176.035545 C179.965921,174.255117 180.779803,170.378637 181.042961,166.501334 L181.042763,166.501269 Z M192.754934,166.828933 C192.397204,168.708045 191.778618,170.765446 190.808224,172.932552 C193.427467,171.842913 196.211513,170.463144 199.192434,168.711499 C198.102796,168.197519 195.990757,167.36765 192.754934,166.829032 L192.754934,166.828933 Z M171.624013,167.991828 C169.062336,168.559262 166.308224,169.300677 163.368092,170.234065 C164.700329,172.475019 167.256908,174.527486 171.051974,175.547223 C171.257566,173.89015 171.537434,171.165973 171.623783,167.99163 L171.624013,167.991828 Z" id="Shape" fill="#FFFFFF"></path>
                <path d="M185.552632,117.904276 C162.633224,115.297368 157.921053,139.524342 157.921053,139.524342 C157.921053,139.524342 131.124342,141.465132 132.727632,167.147697 C134.351809,193.159211 164.261184,190.55625 176.451316,187.632895 C188.638816,184.701151 198.231579,174.623026 198.231579,174.623026 C169.785855,188.767763 155.481579,177.879605 155.481579,166.826974 C155.481579,155.774342 164.1,142.772697 184.091776,147.974342 C204.079276,153.171711 209.766118,171.864145 209.766118,171.864145 C219.358224,153.495724 208.473355,120.502303 185.552303,117.903618" id="Shape" fill="#FDB913"></path>
                <path d="M102.411184,178.966776 C102.411184,178.966776 115.001645,181.228289 123.077303,174.76875 C123.077303,174.76875 108.550329,174.443914 101.120066,163.785855 C101.120066,163.785855 112.740132,166.047368 121.781908,159.9125 C121.781908,159.9125 111.132237,155.718421 104.347697,148.292434 C104.347697,148.292434 114.438158,149.649342 123.331908,146.113158 C112.213487,142.235526 104.347697,132.679605 104.347697,121.495395 C104.347697,109.340789 113.627961,99.1144737 126.275987,95.9980263 C123.656743,91.7463816 118.414145,86.1378289 107.900329,81.1335526 C107.900329,81.1335526 124.043421,82.7495066 133.08125,88.5595395 C142.123355,94.3736842 145.996382,104.381908 154.397039,105.673026 C164.372368,107.210855 165.046711,101.475 163.751645,96.6309211 C163.751645,96.6309211 173.5625,104.024013 162.15625,116.799342 C164.356086,114.558388 171.749013,108.304276 185.153618,109.361184 C185.153618,109.361184 187.415132,94.8506579 168.866776,85.9769737 C150.320724,77.1118421 123.544408,69.6940789 99.6792763,55.3388158 C75.8075658,40.9835526 54.8404605,21.4703947 54.8404605,21.4703947 C54.8404605,21.4703947 45.6463816,51.7953947 60.8108553,74.6940789 C60.8108553,74.6940789 51.2917763,74.2088816 46.2960526,67.4407895 C46.2960526,67.4407895 46.1315789,82.4325658 60.9671053,97.5927632 C60.9671053,97.5927632 54.5197368,97.5927632 43.2286184,88.8838816 C43.2286184,88.8838816 31.78125,97.2720395 26.45625,103.558882 C26.45625,103.558882 31.9414474,105.014474 33.7134868,105.980757 C33.7134868,105.980757 22.2661184,117.753125 15.3253289,130.816283 C15.3253289,130.816283 22.1016447,130.651809 25.0046053,130.976645 C25.0046053,130.976645 16.1355263,156.297368 32.2618421,173.874671 L119.271711,223.249671 C119.271711,223.249671 108.86875,197.052961 124.686842,189.618092 C124.686842,189.618092 109.514145,189.618092 102.408882,178.968421" id="Shape" fill="#C9001F"></path>
            </g>
        </g>
    </g>
</svg>