<?xml version="1.0" encoding="UTF-8"?>
<svg width="250px" height="250px" viewBox="0 0 250 250" version="1.1" xmlns="http://www.w3.org/2000/svg" xmlns:xlink="http://www.w3.org/1999/xlink">
    <!-- Generator: Sketch 53 (72520) - https://sketchapp.com -->
    <title>ODU</title>
    <desc>Created with Sketch.</desc>
    <g id="ODU" stroke="none" stroke-width="1" fill="none" fill-rule="evenodd">
        <g id="Asset-1" transform="translate(0.000000, 22.000000)">
            <path d="M216.487207,75.9061834 L221.284648,75.9754797 L221.284648,93.4168443 C231.508529,92.7985075 248.139659,91.3379531 248.139659,91.3379531 L243.464819,122.100213 C243.363539,128.544776 242.883795,163.203625 242.739872,173.598081 C243.793538,175.470604 244.728224,177.407629 245.53838,179.397655 C246.582899,182.315154 247.352067,185.324011 247.835821,188.384861 C248.251599,190.794243 249.808102,204.840085 249.808102,204.840085 C249.808102,204.840085 221.295309,204.89339 217.020256,204.840085 C212.745203,204.78678 195.266525,204.712154 192.190832,204.696162 C185.657296,205.05587 179.1069,204.426888 172.761194,202.83049 C169.102903,201.912026 165.661398,200.28184 162.633262,198.033049 L150.65565,198.033049 C144.543819,201.42988 137.79336,203.520907 130.831557,204.173774 C125.159915,204.733475 119.301706,204.355011 113.518124,203.853945 C111.918977,203.715352 107.771855,203.853945 104.003198,203.955224 C101.908316,204.01919 99.9307036,204.093817 98.4701493,204.147122 L96.7057569,204.221748 L96.2313433,204.221748 C95.8513955,204.242889 95.4705661,204.242889 95.0906183,204.221748 L71.4445629,205.287846 L72.196162,201.6258 C66.1296552,203.532181 59.7963386,204.451853 53.4381663,204.34968 C21.7217484,203.987207 0,176.73774 0,150.063966 C0,127.995736 14.4616205,107.06823 34.5362473,97.7078891 L34.6002132,75.7889126 L39.2057569,75.858209 C35.3464819,69.2377399 32.4413646,62.4840085 32.4413646,54.0031983 C32.4452234,41.4750212 38.7077613,29.7770261 49.1315057,22.8271492 C59.5552502,15.8772723 72.7619463,14.5944446 84.3283582,19.4083156 C88.8966526,17.5028735 93.7975852,16.5226869 98.7473348,16.5245203 C100.270795,16.5225884 101.792907,16.6151614 103.304904,16.8017058 C107.122295,6.67214432 116.827887,-0.0225036525 127.65284,0.00717652092 C138.477793,0.0368566944 148.146529,6.78462577 151.908316,16.934968 C158.666684,15.9283611 165.571593,16.7815699 171.881663,19.4029851 C183.447203,14.5894761 196.652846,15.871727 207.076299,22.8203391 C217.499753,29.7689511 223.763017,41.4653046 223.768657,53.9925373 C223.768657,62.8358209 220.442431,69.4509595 216.487207,75.9168443 L216.487207,75.9061834 Z" id="Path" fill="#FFFFFF" fill-rule="nonzero"></path>
            <path d="M217.020256,97.8997868 C225.815565,97.5799574 243.107676,96.0660981 243.107676,96.0660981 L239.205757,121.74307 C239.109808,127.60661 238.58209,165.879531 238.459488,174.685501 L238.992537,175.65032 C239.953744,177.355783 240.806535,179.120117 241.545842,180.932836 C242.489943,183.588413 243.185884,186.325777 243.624733,189.109808 C244.029851,191.465885 245.037313,200.586354 245.037313,200.586354 C245.037313,200.586354 221.311301,200.634328 217.041578,200.586354 C212.771855,200.53838 194.5629,200.453092 192.036247,200.4371 C185.896432,200.792795 179.738271,200.210412 173.773987,198.710021 C166.689765,196.95629 161.471215,192.190832 158.075693,187.185501 C150.599372,194.499221 140.826916,199.006979 130.410448,199.946695 C124.99467,200.479744 119.392324,200.101279 113.885928,199.621535 C112.217484,199.477612 107.835821,199.589552 103.875267,199.706823 C101.74307,199.770789 99.7654584,199.845416 98.2942431,199.904051 L96.5298507,199.978678 L96.0501066,199.978678 C95.754894,199.990801 95.459193,199.981894 95.1652452,199.952026 L76.7164179,200.804904 C76.7164179,200.804904 77.3027719,197.905117 77.9690832,194.78678 C70.3369873,198.447489 61.9546533,200.27291 53.4914712,200.117271 C24.3763326,199.754797 4.26439232,174.680171 4.26439232,150.063966 C4.26439232,128.907249 18.8326226,108.598081 38.7899787,100.490405 L38.8486141,80.1012793 L47.0415778,80.2185501 C46.3432836,79.2270789 45.826226,78.4914712 45.6823028,78.2569296 C40.5117271,70.1066098 36.7057569,63.1769723 36.7057569,53.9872068 C36.7079419,42.565275 42.5788195,31.9457294 52.2503404,25.8693642 C61.9218613,19.792999 74.0370857,19.1123442 84.3283582,24.0671642 C91.1708751,20.7752616 98.9336266,19.9231835 106.327292,21.652452 C108.375276,11.4859846 117.336596,4.19381357 127.707111,4.25487009 C138.077625,4.3159266 146.952461,11.7131082 148.880597,21.9029851 C156.560015,19.854037 164.719212,20.621739 171.881663,24.0671642 C182.172936,19.1123442 194.28816,19.792999 203.959681,25.8693642 C213.631202,31.9457294 219.502079,42.565275 219.504264,53.9872068 C219.504264,63.0490405 215.570362,69.4136461 210.676972,77.1535181 C210.11194,78.0490405 209.386994,79.0884861 208.683369,80.0586354 L217.020256,80.1759062 L217.020256,97.8997868 L217.020256,97.8997868 Z" id="Path" fill="#A1D1F1" fill-rule="nonzero"></path>
            <path d="M206.204691,74.3230277 C205.442431,75.5277186 204.360341,76.9882729 203.491471,78.1769723 L198.240938,85.2025586 L211.727079,85.3997868 L211.727079,103.128998 C213.672708,103.208955 215.223881,103.251599 216.028785,103.230277 C224.488273,103.006397 236.860341,101.924307 236.860341,101.924307 L233.91791,121.30064 C233.832623,126.023454 233.203625,171.716418 233.144989,176.08209 C233.384861,176.487207 233.843284,177.265458 234.365672,178.214286 C235.2126,179.709279 235.963928,181.256445 236.615139,182.846482 C237.433238,185.176329 238.036323,187.576181 238.416844,190.015991 C238.80597,192.265458 239.136461,195.309168 239.136461,195.309168 C239.136461,195.309168 221.348614,195.341151 217.094883,195.309168 C212.622601,195.277186 193.049041,195.170576 191.839019,195.165245 C186.196549,195.501362 180.536054,194.961924 175.058635,193.566098 C166.705757,191.497868 161.247335,183.811301 159.179104,177.638593 C152.489339,187.446695 141.833689,193.523454 129.909382,194.696162 C124.808102,195.191898 119.541578,194.813433 114.34435,194.360341 C112.569296,194.205757 107.947761,194.301706 103.710021,194.429638 C101.577825,194.498934 99.5682303,194.573561 98.0863539,194.632196 L96.3059701,194.701493 L95.815565,194.701493 C95.7016334,194.70616 95.5878115,194.6899 95.4797441,194.653518 L83.2569296,195.21855 C83.2569296,195.21855 84.6215352,188.470149 85.7089552,185.223881 C85.9648188,184.466951 86.2793177,183.624733 86.6151386,182.793177 C77.4879597,190.791443 65.6992828,195.086704 53.5660981,194.834755 C27.6652452,194.498934 9.56289979,172.105544 9.56289979,150.058635 C9.56289979,130.069296 24.3123667,110.533049 44.0831557,104.216418 L44.1364606,85.4850746 L57.4626866,85.6769723 C57.4626866,85.6769723 50.7409382,76.3752665 50.1599147,75.4477612 C45.0319829,67.3347548 42.0042644,61.5298507 42.0042644,53.9872068 C42.0083837,44.3278616 47.004764,35.3567677 55.2147153,30.2675962 C63.4246665,25.1784247 73.6818511,24.6941633 82.3347548,28.9872068 L84.3283582,29.978678 L86.3219616,28.9872068 C92.3745004,25.9812404 99.3114739,25.271067 105.847548,26.9882729 L110.644989,28.2409382 L111.407249,23.358209 C112.678412,15.3629093 119.599658,9.49538258 127.695192,9.55001012 C135.790727,9.60463766 142.63216,15.565033 143.795309,23.5767591 L144.536247,28.7046908 L149.504264,27.228145 C156.276908,25.2164442 163.560186,25.8449698 169.88806,28.9872068 L171.881663,29.978678 L173.880597,28.9872068 C182.533029,24.6877541 192.793664,25.1690115 201.005679,30.2594623 C209.217694,35.349913 214.212918,44.3254329 214.211087,53.9872068 C214.211087,61.3166311 211.172708,66.4765458 206.215352,74.3230277 L206.204691,74.3230277 Z" id="Path" fill="#004677" fill-rule="nonzero"></path>
            <path d="M54.7334755,95.0266525 L200.788913,95.0266525 L200.75693,102.574627 C195.959488,102.302772 191.934968,102.041578 191.934968,102.041578 C191.934968,102.041578 176.913646,103.518124 168.422175,103.518124 C159.930704,103.518124 145.895522,101.84435 145.895522,101.84435 L149.418977,113.571429 C148.827292,113.176972 148.219616,112.798507 147.60661,112.430704 C133.779318,104.136461 116.689765,103.011727 110.074627,102.905117 C106.215352,102.846482 101.30064,103.054371 97.6759062,102.974414 C92.3081023,102.851812 76.6791045,99.8720682 76.652452,99.8667377 L75.858209,99.7121535 C75.858209,99.7121535 76.3646055,103.875267 76.7110874,106.609808 C70.3144989,103.662047 63.5287846,102.084222 57.3027719,102.084222 C56.4498934,102.084222 55.6023454,102.116205 54.7547974,102.16951 L54.7547974,95.0266525 L54.7334755,95.0266525 Z" id="Path" fill="#959A9D" fill-rule="nonzero"></path>
            <path d="M85.9328358,110.341151 C89.7249922,111.148701 93.5819668,111.614321 97.4573561,111.732409 C101.103412,111.812367 106.034115,111.604478 109.914712,111.663113 C122.5,111.865672 170.362473,116.172708 156.162047,163.779318 C152.334755,176.609808 141.711087,184.738806 129.061834,185.959488 C124.488273,186.407249 119.754797,186.023454 115.095949,185.618337 C107.265458,184.941365 95.1439232,186.19403 95.1332623,186.19936 L94.3869936,186.321962 C94.3869936,186.321962 95.4530917,182.521322 97.7878465,180.037313 C99.2415098,178.457877 100.969996,177.155642 102.889126,176.19403 L99.5362473,125.692964 C92.499695,123.503661 87.2595435,117.590011 85.9328358,110.341151 Z M116.945629,176.220682 C126.19936,176.615139 130.559701,174.402985 136.391258,168.496802 C142.750533,161.908316 142.71322,151.641791 140.687633,144.941365 C138.054371,136.215352 130.170576,131.407249 121.050107,129.083156 C120.319829,128.91791 118.352878,128.821962 117.217484,128.683369 C117.190832,144.253731 116.684435,160.21855 116.945629,176.220682 Z" id="Shape" fill="#959A9D"></path>
            <path d="M116.945629,176.231343 C126.19936,176.6258 130.559701,174.413646 136.391258,168.507463 C141.796375,162.910448 142.579957,154.648188 141.455224,148.192964 L144.973348,143.107676 C144.973348,143.107676 152.046908,168.086354 130.916844,177.50533 C124.722814,180.261194 113.688699,179.46162 113.688699,179.46162 L116.945629,176.210021 L116.945629,176.242004 L116.945629,176.231343 Z" id="Path" fill="#FFFFFF" fill-rule="nonzero"></path>
            <path d="M100.239872,181.966951 C98.7633262,182.745203 96.2260128,184.765458 94.3763326,186.289979 C94.4989339,185.858209 95.554371,182.377399 97.761194,180.047974 C99.2148574,178.468538 100.943343,177.166303 102.862473,176.204691 L99.5095949,125.703625 L103.944563,122.547974 L106.865672,179.104478 C104.576332,179.853093 102.35883,180.805745 100.239872,181.950959 L100.239872,181.966951 Z" id="Path" fill="#FFFFFF" fill-rule="nonzero"></path>
            <path d="M85.9328358,110.341151 C89.7249922,111.148701 93.5819668,111.614321 97.4573561,111.732409 C101.103412,111.812367 106.034115,111.604478 109.914712,111.663113 C119.605544,111.817697 150.21322,114.408316 157.297441,137.329424 L152.073561,136.673774 C152.073561,136.673774 147.153518,122.28145 124.413646,117.702559 C108.123667,114.429638 101.604478,117.345416 95.5063966,115.623667 C90.3198294,114.157783 87.4626866,112.020256 85.9115139,110.367804 L85.9115139,110.367804 L85.9328358,110.341151 Z" id="Path" fill="#FFFFFF" fill-rule="nonzero"></path>
            <path d="M174.307036,40.7409382 C181.647749,34.5392556 192.583195,35.2728627 199.029776,42.3994691 C205.476358,49.5260756 205.113289,60.480086 198.208955,67.1641791 L174.307036,93.04371 L174.307036,59.8347548 C173.323295,62.6464632 171.649989,65.1665011 169.440299,67.1641791 L145.522388,93.04371 L145.522388,56.1567164 C145.23486,58.6054397 144.435776,60.9663701 143.176972,63.0863539 L127.569296,93.0703625 L112.164179,62.4733475 C111.492647,61.2333327 110.970181,59.9182221 110.607676,58.5554371 L110.607676,93.04371 L86.7057569,67.1641791 C84.4950511,65.1599013 82.823401,62.6322639 81.8443497,59.8134328 L81.8443497,93.0223881 L57.9371002,67.1641791 C50.822487,60.5226647 50.3504785,49.402097 56.8767238,42.1816013 C63.4029691,34.9611056 74.5145084,34.3103279 81.8390192,40.7196162 L81.8390192,48.1396588 C83.7960267,42.4907576 88.4544915,38.1990497 94.2445719,36.7107846 C100.034652,35.2225194 106.18524,36.7359005 110.623667,40.7409382 L110.623667,49.4189765 C112.835988,41.1920497 120.560463,35.6805504 129.059605,36.2647285 C137.558748,36.8489066 144.45649,43.3654461 145.522388,51.8176972 L145.522388,40.7409382 C149.96109,36.7384274 156.10992,35.2260364 161.898818,36.7129253 C167.687715,38.1998143 172.346608,42.488189 174.307036,48.1343284 L174.307036,40.7409382 Z" id="Path" fill="#959A9D" fill-rule="nonzero"></path>
            <path d="M121.391258,25.1439232 C121.400085,21.6721593 124.2201,18.8640644 127.691871,18.8699451 C131.163641,18.8758257 133.974127,21.6934577 133.971193,25.1652317 C133.968258,28.6370056 131.153012,31.4498822 127.681237,31.4498934 C126.011728,31.4541542 124.409371,30.7928302 123.228846,29.6123055 C122.048321,28.4317808 121.386997,26.8294233 121.391258,25.1599147 L121.391258,25.1439232 Z" id="Path" fill="#959A9D" fill-rule="nonzero"></path>
            <path d="M121.391258,25.1439232 C121.396333,22.1045562 123.573964,19.5035857 126.565103,18.9642644 C129.556241,18.4249431 132.50515,20.1015661 133.571429,22.9477612 C131.663113,22.4413646 129.093817,22.3880597 126.865672,24.3283582 C124.861407,26.08742 124.472281,28.5927505 124.584222,30.6236674 C122.609112,29.5063179 121.387436,27.4131798 121.385928,25.1439232 L121.391258,25.1439232 Z" id="Path" fill="#FFFFFF" fill-rule="nonzero"></path>
            <path d="M110.607676,49.4189765 C112.785418,41.1742678 120.497513,35.6267854 129.006753,36.1841082 C137.515994,36.741431 144.438631,43.2474324 145.522388,51.7057569 C143.390192,48.6673774 137.798507,42.5319829 127.851812,43.6780384 C119.802772,44.6055437 115.836887,49.9733475 115.186567,55.7729211 C114.697897,60.3965372 114.897292,65.0670527 115.778252,69.6321962 L112.164179,62.4626866 C111.492647,61.2226717 110.970181,59.9075611 110.607676,58.5447761 L110.607676,49.4189765 L110.607676,49.4189765 Z" id="Path" fill="#FFFFFF" fill-rule="nonzero"></path>
            <path d="M145.522388,40.7409382 C149.943226,36.7607942 156.057758,35.2474066 161.824721,36.7060018 C167.591683,38.164597 172.251445,42.4030475 174.248401,48.0063966 C172.649254,46.2793177 167.057569,41.5031983 156.284648,43.6993603 C150.788913,44.8187633 147.350746,47.9637527 145.522388,51.663113 L145.522388,40.7409382 Z" id="Path" fill="#FFFFFF" fill-rule="nonzero"></path>
            <path d="M174.307036,40.7409382 C178.727874,36.7607942 184.842406,35.2474066 190.609369,36.7060018 C196.376331,38.164597 201.036093,42.4030475 203.033049,48.0063966 C201.433902,46.2793177 195.842217,41.5031983 185.063966,43.6993603 C179.605544,44.8134328 176.156716,47.7558635 174.307036,51.3539446 L174.307036,40.7409382 Z" id="Path" fill="#FFFFFF" fill-rule="nonzero"></path>
            <path d="M81.8390192,40.7409382 L81.8390192,48.358209 C80.303838,46.5138593 75.54371,43.2089552 70.0692964,43.6993603 C62.8678038,44.3443497 59.0511727,49.0724947 58.2995736,54.8933902 C57.6812367,59.6908316 58.4861407,64.6855011 59.9680171,69.3763326 L57.9371002,67.1641791 C50.822487,60.5226647 50.3504785,49.402097 56.8767238,42.1816013 C63.4029691,34.9611056 74.5145084,34.3103279 81.8390192,40.7196162 L81.8390192,40.7409382 Z" id="Path" fill="#FFFFFF" fill-rule="nonzero"></path>
            <path d="M110.607676,40.7409382 L110.607676,48.358209 C109.072495,46.5138593 104.312367,43.2089552 98.8379531,43.6993603 C91.6364606,44.3443497 87.8198294,49.0724947 87.0682303,54.8933902 C86.4498934,59.6908316 87.2547974,64.6855011 88.7313433,69.3763326 L86.7057569,67.1801706 C84.4950511,65.1758928 82.823401,62.6482553 81.8443497,59.8294243 L81.8443497,48.1396588 C83.8013572,42.4907576 88.459822,38.1990497 94.2499024,36.7107846 C100.039983,35.2225194 106.190571,36.7359005 110.628998,40.7409382 L110.607676,40.7409382 Z" id="Path" fill="#FFFFFF" fill-rule="nonzero"></path>
            <path d="M224.296375,179.275053 C225.546291,180.443273 226.573942,181.828524 227.329424,183.363539 C227.870073,184.490239 228.300298,185.666664 228.614072,186.876333 C228.614072,186.876333 221.513859,186.513859 217.158849,186.481876 C212.361407,186.444563 205.170576,186.918977 205.170576,186.918977 C205.943196,185.544687 206.814345,184.228165 207.777186,182.979744 C208.672178,181.922382 209.645044,180.93348 210.687633,180.021322 C210.687633,180.021322 210.597015,179.488273 210.527719,179.23774 C200.170576,187.633262 188.464819,188.166311 177.420043,185.069296 C172.521322,183.683369 168.608742,178.592751 167.372068,174.269723 C165.607676,168.091684 164.578891,134.211087 164.78145,120.852878 C163.977942,119.906216 163.245661,118.901335 162.590618,117.846482 C161.684435,116.247335 160.314499,111.705757 160.314499,111.705757 C163.410364,112.146262 166.528046,112.416746 169.653518,112.515991 C173.25693,112.585288 180.815565,111.695096 180.815565,111.695096 C180.815565,111.695096 179.637527,151.007463 180.75693,166.311301 C181.721748,170.815565 184.578891,175.724947 192.420043,175.373134 C202.697228,174.89339 208.779318,170.042644 209.872068,161.972281 C210.181237,156.332623 209.573561,122.9371 209.184435,121.561834 C208.113793,120.31555 207.180879,118.957284 206.401919,117.510661 C205.447761,115.570362 204.802772,112.180171 204.802772,112.180171 C204.802772,112.180171 211.124733,112.83049 215.175906,112.771855 C220.250533,112.697228 226.529851,112.041578 226.572495,112.036247 L225.101279,121.007463 C225.101279,121.007463 224.440299,157.761194 224.296375,179.23774 L224.296375,179.275053 Z" id="Path" fill="#959A9D" fill-rule="nonzero"></path>
            <path d="M180.063966,185.740938 C179.179104,185.54371 178.294243,185.314499 177.398721,185.069296 C172.5,183.683369 168.58742,178.592751 167.350746,174.269723 C165.586354,168.091684 164.333689,135.97548 164.536247,122.622601 C164.536247,122.622601 161.204691,119.690832 160.138593,117.691898 C159.163587,115.629669 158.361264,113.490143 157.739872,111.295309 C157.739872,111.295309 165.159915,112.297441 169.701493,112.361407 C173.40953,112.340367 177.113266,112.105435 180.794243,111.657783 C179.829424,113.486141 178.059701,114.637527 175.863539,115.922175 C174.123707,116.901236 172.245621,117.611135 170.293177,118.027719 C170.293177,138.939232 170.357143,162.270789 171.327292,170.447761 C172.350746,179.1258 179.706823,181.183369 179.706823,181.183369 L180.042644,185.740938 L180.063966,185.740938 Z" id="Path" fill="#FFFFFF" fill-rule="nonzero"></path>
            <path d="M188.022388,174.941365 C189.459028,175.321516 190.947606,175.467314 192.430704,175.373134 C202.707889,174.89339 208.789979,170.042644 209.882729,161.972281 C210.191898,156.332623 208.544776,121.407249 208.544776,121.407249 C207.332167,120.355011 206.217114,119.195357 205.21322,117.942431 C203.880597,116.103412 202.947761,112.212154 202.947761,112.212154 C202.947761,112.212154 211.135394,112.851812 215.207889,112.793177 C220.282516,112.71855 226.561834,112.0629 226.604478,112.057569 L226.604478,112.201493 C225.511727,113.011727 222.702559,115.015991 220.522388,115.932836 C218.797167,116.587847 217.028514,117.122183 215.229211,117.531983 L215.373134,150.97548 C215.43177,164.482942 214.205757,175.495736 198.166311,178.624733 C188.678038,180.463753 184.339019,178.03838 184.339019,178.03838 L188.070362,174.882729 L188.022388,174.941365 Z" id="Path" fill="#FFFFFF" fill-rule="nonzero"></path>
            <path d="M210.687633,180.021322 C210.687633,180.021322 210.602345,179.536247 210.533049,179.264392 L215.175906,175.597015 L215.175906,182.654584 C213.408345,183.094116 211.68336,183.689923 210.021322,184.434968 C208.335307,185.130477 206.710873,185.966767 205.165245,186.934968 C205.937866,185.560678 206.809015,184.244156 207.771855,182.995736 C208.666847,181.938374 209.639713,180.949471 210.682303,180.037313 L210.687633,180.021322 Z" id="Path" fill="#FFFFFF" fill-rule="nonzero"></path>
            <path d="M94.3763326,144.770789 C94.4882729,167.297441 76.1567164,186.012793 53.6407249,185.815565 C33.2569296,185.65032 18.5714286,167.739872 18.5714286,150.047974 C18.5714286,130.554371 36.4392324,111.210021 57.3081023,111.098081 C73.8592751,111.098081 94.2643923,124.792111 94.3763326,144.754797 L94.3763326,144.770789 Z M79.5895522,151.982942 C78.7526652,136.73774 64.6002132,125.383795 50.5863539,125.202559 C39.8933902,124.498934 32.9690832,131.599147 32.4626866,143.523454 C31.7217484,160.906183 47.2121535,172.126866 64.8560768,172.036247 C75.4157783,171.982942 80.2665245,164.221748 79.5895522,151.982942 Z" id="Shape" fill="#959A9D"></path>
            <path d="M79.5895522,151.982942 C79.3015794,147.056343 77.6396778,142.308844 74.7921109,138.278252 L76.3486141,131.791045 C85.0852878,140.570362 89.2430704,160.75693 77.8144989,171.684435 C68.901919,180.21322 50.9221748,177.38806 40.7356077,169.594883 L46.380597,167.462687 C52.0483092,170.534922 58.40989,172.100539 64.8560768,172.009595 C75.4157783,171.95629 80.2665245,164.195096 79.5895522,151.95629 L79.5895522,151.982942 Z" id="Path" fill="#FFFFFF" fill-rule="nonzero"></path>
            <path d="M34.5735608,179.808102 C24.7121535,173.04371 18.5820896,161.508529 18.5820896,150.063966 C18.5820896,130.570362 36.4498934,111.226013 57.3187633,111.114072 C66.9616205,111.114072 77.9157783,115.76226 85.3997868,123.592751 L79.9040512,125.021322 C67.3400853,114.301706 47.9744136,111.84435 34.1151386,125.708955 C13.2942431,146.497868 29.1791045,169.152452 35.2132196,173.267591 L34.5735608,179.808102 Z" id="Path" fill="#FFFFFF" fill-rule="nonzero"></path>
            <polygon id="Path" fill="#004677" fill-rule="nonzero" points="161.279318 192.121535 160.117271 192.121535 159.371002 194.376333 158.630064 192.121535 157.468017 192.121535 157.468017 195.938166 158.187633 195.938166 158.187633 192.857143 158.203625 192.857143 159.163113 195.938166 159.584222 195.938166 160.54371 192.857143 160.559701 192.857143 160.559701 195.938166 161.279318 195.938166 161.279318 192.121535"></polygon>
            <polygon id="Path" fill="#004677" fill-rule="nonzero" points="157.06823 192.121535 154.264392 192.121535 154.264392 192.857143 155.271855 192.857143 155.271855 195.938166 156.060768 195.938166 156.060768 192.857143 157.06823 192.857143 157.06823 192.121535"></polygon>
        </g>
    </g>
</svg>