<?xml version="1.0" encoding="UTF-8" standalone="no"?>
<svg width="250px" height="250px" viewBox="0 0 250 250" version="1.1" xmlns="http://www.w3.org/2000/svg" xmlns:xlink="http://www.w3.org/1999/xlink">
    <!-- Generator: Sketch 47.1 (45422) - http://www.bohemiancoding.com/sketch -->
    <title>USM</title>
    <desc>Created with Sketch.</desc>
    <defs></defs>
    <g id="Page-1" stroke="none" stroke-width="1" fill="none" fill-rule="evenodd">
        <g id="USM" fill-rule="nonzero">
            <g id="Group" transform="translate(0.000000, 58.000000)">
                <path d="M246.950423,56.882041 C241.957617,71.8120489 228.613002,83.2735075 219.19865,89.8218235 L228.015084,100.822079 L225.440609,102.960383 C223.886784,104.256324 186.739702,134.623282 133.178438,134.623282 L131.906434,134.615659 C78.3565952,134.123963 41.14477,102.304789 39.5871365,100.947862 L32.9909968,95.2152269 L44.4618818,94.8645604 C31.9627302,85.8653905 16.9005289,72.0216864 4.03957982,51.6525361 L0.135975185,45.4663214 L7.38335042,46.4344659 C7.5394946,46.4573355 22.5598035,48.4507984 34.6247982,48.4507984 C35.5350045,48.4507984 36.4109353,48.435552 37.2487821,48.416494 C34.4419952,44.749742 30.8963797,39.8823384 28.7903374,36.0936154 L24.985751,29.2556185 L32.587307,31.1080524 C32.6825168,31.130922 42.3710731,33.4559934 56.2107797,33.4559934 C76.6390092,33.4559934 109.13985,28.4780536 131.685547,4.78519455 L133.882991,2.47536948 L136.339405,4.5031367 C136.5184,4.6556004 150.857006,19.1815795 173.38747,25.2420116 C178.433593,26.3969241 183.456865,26.9800977 188.312569,26.9800977 L188.891445,26.9800977 C189.199925,26.9800977 189.516022,26.9762861 189.82831,26.9648514 C192.353276,26.7514022 194.912517,26.3664313 197.437483,25.8251852 C221.12189,20.7405208 222.051138,7.12170075 222.081605,6.39749818 L222.173007,0.150298051 L227.394316,3.63028201 C228.312139,4.24013682 249.844803,18.8499709 249.844803,41.3498015 C249.844803,46.621234 248.85462,51.8888548 246.950423,56.882041" id="Shape" fill="#FFFFFF" transform="translate(124.990389, 67.386790) scale(-1, 1) rotate(-180.000000) translate(-124.990389, -67.386790) "></path>
                <path d="M243.713287,52.8741457 C238.434852,68.6579502 223.026087,80.4853218 213.874514,86.3475511 L217.081183,89.6217091 L223.262208,97.4087926 C223.262208,97.4087926 185.547674,128.762953 131.94071,128.271257 C79.0382979,127.787185 41.830281,95.4458224 41.830281,95.4458224 L55.2891481,95.0341704 C42.3863067,87.1632319 22.9063675,72.2027313 6.93776823,46.9013802 C6.93776823,46.9013802 31.6961426,50.2212773 43.8334967,48.4069592 C43.3193634,47.7513653 42.7671462,47.0347859 42.1882701,46.2686558 C39.5223938,42.9030196 34.4229532,36.2556023 31.7799273,31.506358 C31.7799273,31.506358 94.3670868,46.0437719 134.164812,4.21916725 C134.164812,4.21916725 148.933767,19.2825809 172.629599,25.6555635 C177.767124,26.8257224 183.220745,27.530867 188.895253,27.4813163 C189.276093,27.4813163 189.653124,27.4736932 190.033963,27.4622584 C192.65033,27.241186 195.350482,26.848592 198.161078,26.2463604 C225.253998,20.4298702 225.505352,3.55595015 225.505352,3.55595015 C225.505352,3.55595015 246.432481,17.5025672 246.432481,38.42821 C246.432481,43.6043527 245.408023,48.4298288 243.713287,52.8741457" id="Shape" fill="#000000" transform="translate(126.685125, 65.916465) scale(-1, 1) rotate(-180.000000) translate(-126.685125, -65.916465) "></path>
                <path d="M134.934869,13.7616474 C98.8038667,12.948406 75.7798353,27.2629179 75.7798353,27.2629179 C86.5231646,27.5907149 95.1609086,28.287291 95.1609086,28.287291 C62.8809546,37.2027584 40.4540795,61.2865343 34.5068902,68.8853252 C67.7587466,44.8076477 100.60539,34.9591025 120.546145,33.0868483 C123.490034,32.9077035 126.192623,32.8059797 128.698547,32.7831101 C127.773107,31.830212 125.984106,30.960681 123.86676,30.1983625 C123.782976,30.1678698 123.706564,30.1395207 123.622779,30.1090279 C123.611202,30.1090279 123.598406,30.1030818 123.587072,30.1030818 C119.051121,28.5327057 113.361075,27.4437795 111.102544,27.0358171 C110.736756,26.9723068 110.53942,26.9417165 110.531285,26.9405273 L110.519403,26.9405273 C110.259366,26.8902295 110.108828,26.8631032 110.108828,26.8631032 C115.093864,26.1655818 119.979882,26.0383661 124.717525,26.3509166 C129.241898,26.6177281 133.527104,27.2945145 137.541152,28.262659 C157.367655,32.8249828 172.974457,43.7182092 179.272018,48.6427867 C186.629837,50.1293078 194.132375,48.2051549 200.789449,43.3721166 C194.703634,38.4969373 180.099202,28.6081417 180.099202,28.6081417 C190.854109,31.9470968 201.016429,37.7773087 204.794357,40.2395974 C207.048927,38.4900765 208.65028,36.5173486 208.65028,36.5173486 C197.697337,28.770973 186.229499,23.7875444 175.069379,20.7041186 C160.481703,15.9804882 146.981706,14.0307824 134.938038,13.7600069 L134.934869,13.7616474 Z M129.144891,43.8314532 C92.1547141,44.1706544 65.2278398,65.5276476 65.2278398,65.5276476 C100.856134,52.9417691 128.852406,53.7354951 128.852406,53.7354951 C140.464049,64.7281279 154.283648,64.219509 162.098169,62.6988361 C142.454469,60.0840836 137.775627,48.8831854 136.671193,44.0577093 C134.120757,43.8809429 131.609684,43.8087666 129.143672,43.8313922 L129.144891,43.8314532 Z M206.848331,50.459965 C201.303308,54.702115 194.421691,59.0329989 186.336621,62.3414612 C173.84143,67.4526543 165.654296,74.5013561 158.939943,84.0913228 C195.515767,79.7384842 216.934179,97.9618604 225.343114,106.674856 C225.56781,106.815885 225.774164,106.966915 225.979817,107.115568 C229.475923,102.511164 234.422876,93.1925824 231.216512,79.6422186 C231.216512,79.6422186 235.37924,83.5038192 237.649043,89.3736717 C237.172994,70.1290935 214.690212,55.1181275 206.849793,50.4588368 L206.848331,50.459965 Z M174.37034,91.4178135 C164.789028,91.2505913 156.858122,93.0949142 152.442213,94.8482468 C150.667501,98.1835427 148.523222,103.581672 146.77136,107.408511 C167.831783,94.0334807 185.918612,95.8648747 206.194506,100.06525 C195.184284,93.7666693 183.951957,91.5849137 174.371559,91.4178135 L174.37034,91.4178135 Z" id="Shape" fill="#FFC61D" transform="translate(136.077967, 60.568387) rotate(-360.000000) translate(-136.077967, -60.568387) "></path>
                <path d="M160.042854,43.5163347 C160.042854,43.5163347 152.445107,47.5032604 151.782446,54.5585182 C149.52026,55.4008801 146.195531,55.8125321 143.800051,55.9764306 C145.304367,52.3973452 150.727521,43.3791173 160.042854,43.5163347" id="Shape" fill="#FFFFFF" transform="translate(151.921453, 49.745608) scale(-1, 1) rotate(-180.000000) translate(-151.921453, -49.745608) "></path>
            </g>
        </g>
    </g>
</svg>