<?xml version="1.0" encoding="UTF-8" standalone="no"?>
<svg width="250px" height="250px" viewBox="0 0 250 250" version="1.1" xmlns="http://www.w3.org/2000/svg" xmlns:xlink="http://www.w3.org/1999/xlink">
    <!-- Generator: Sketch 47.1 (45422) - http://www.bohemiancoding.com/sketch -->
    <title>TULANE</title>
    <desc>Created with Sketch.</desc>
    <defs></defs>
    <g id="Page-1" stroke="none" stroke-width="1" fill="none" fill-rule="evenodd">
        <g id="TULANE" fill-rule="nonzero">
            <g id="Tulane_Green_Wave_logo" transform="translate(0.000000, 35.000000)">
                <g id="Group" transform="translate(124.990040, 89.387450) scale(-1, 1) rotate(-180.000000) translate(-124.990040, -89.387450) translate(0.488048, 0.368526)">
                    <g id="Shape">
                        <path d="M175.473108,177.390438 C160.136952,177.390438 144.691235,173.770916 131.979582,167.200697 C107.851096,154.729333 94.2417829,129.606076 89.5107072,119.381972 L84.8030378,109.203934 L79.5486803,103.774527 C74.970493,99.0419572 71.8952938,93.6848855 70.4191982,88.0225349 L61.6106823,73.9562998 C61.6106823,73.9562998 46.2570966,89.2339392 45.8985309,89.5788098 C45.6764193,91.3825946 45.198369,93.1714392 44.3616783,94.7222361 C43.0200448,97.1470369 40.9249253,98.7005727 38.2999253,99.2140189 C37.1923556,99.4311504 36.065488,99.5408367 34.9539343,99.5408367 C27.4947709,99.5408367 20.2079183,94.8662849 11.3271912,84.3802291 C8.17978088,80.6640936 5.26282371,75.9398655 3.32407869,71.4183267 C0.878859562,65.7141434 -0.00410856574,60.4142181 0.769795817,56.0908865 C1.52029382,51.9006474 3.42928287,49.563745 7.75946215,47.4068725 C9.34312749,46.6185259 13.0973606,46.7822709 17.1496514,45.3564492 C19.9638944,44.3654133 22.1200199,43.0473108 22.1200199,43.0473108 C19.5811753,41.8620518 17.4208167,39.6119273 16.4143426,36.6627241 C14.811753,31.9635209 14.9300299,24.5646165 14.9300299,24.5646165 C14.6765438,18.5631225 17.967256,6.52303287 32.2395418,3.90475598 C33.7186255,3.63284363 35.2289592,3.49428536 36.7274651,3.49428536 C47.0690986,3.49428536 55.7277141,9.971875 62.6861305,15.1760583 C64.7110309,16.6905005 66.6238795,18.1207794 68.3937998,19.2632097 L70.4733566,20.6016061 L97.6969622,7.96465388 L99.1521414,7.29157122 C99.4828187,5.05800548 100.5376,3.15661106 102.200448,1.87772659 C103.577938,0.817965637 105.28374,0.257208665 107.131848,0.257208665 C110.889318,0.257208665 114.863297,2.5095742 117.761205,6.27999253 C122.195468,12.0464268 122.307395,19.1485184 118.016036,22.4478212 C116.637052,23.5070842 114.932246,24.0683391 113.084636,24.0683391 C112.590613,24.0683391 112.092517,24.0292455 111.594472,23.9535483 L110.285209,25.2646788 C109.157719,26.3931648 107.522883,28.0284985 105.509437,30.0444348 C107.065214,30.2605702 109.754333,30.5346489 113.401743,30.5346489 C120.689592,30.5346489 132.467978,29.4386454 147.184114,24.2220244 C157.244373,20.6562874 165.207022,19.0180901 171.752092,16.2830304 C178.296414,13.5489666 185.809612,10.66687 185.809612,10.66687 C188.941584,9.46766683 192.371738,8.85773157 196.005204,8.85773157 C204.673033,8.85773157 212.799278,12.2692107 216.71113,17.5456051 C219.286828,21.0202067 220.389915,25.475386 219.738023,29.7702067 C219.137923,33.7189119 217.103561,37.1410981 214.008939,39.4035483 C211.272883,41.4040463 207.953038,42.4615662 204.408715,42.4615662 C199.746365,42.4615662 195.061728,40.5538222 192.470095,37.602129 C192.111529,37.1942605 191.786828,36.7774278 191.495493,36.3571091 C189.848581,38.412886 187.715364,40.8100473 185.052515,43.3195095 C194.989268,41.9669198 211.571439,47.7977216 211.571439,47.7977216 C217.529607,49.9386579 227.703162,57.1245393 223.558616,68.9979208 C221.950548,73.6044945 218.807869,76.7614915 214.647012,78.102129 L213.619871,80.3781499 C212.791185,82.2157993 210.234537,85.3251121 205.91631,85.3251121 C204.55376,85.3251121 201.801643,85.2820344 199.905229,82.5315364 C198.666683,80.7362176 198.551519,77.7327316 200.492729,75.3532495 C198.541534,73.5878113 197.029582,71.2250125 196.360757,68.4959288 C194.227789,69.6164467 191.914791,71.8441609 191.121962,76.2734437 C189.663795,84.4098979 194.340961,90.0881848 198.578511,94.1282744 C199.230403,94.7487923 199.981399,95.3344746 200.77871,95.9529756 C204.28369,98.6780752 208.647236,102.071252 210.927615,112.540376 C211.348929,114.474141 212.365488,117.050336 216.318177,117.045854 L216.399851,117.045854 C220.506922,116.997547 223.046638,112.421975 221.03369,108.842293 C220.279208,107.501158 219.351668,106.208454 217.742107,104.768713 C217.742107,104.768713 219.09507,103.207707 221.047261,101.977129 C223.48501,100.440276 227.310209,99.8394298 229.657321,100.117318 C232.959114,100.507258 237.174502,101.567268 240.666036,104.840675 C244.396116,108.336691 247.186703,113.941148 247.836604,120.140725 C248.63445,127.749788 246.375324,139.775934 234.001942,153.61184 C220.293028,168.943015 199.50742,177.387986 175.474801,177.387986 L175.473108,177.390438 Z M35.0099602,38.0976096 L41.6241285,34.8858317 C41.2441484,34.3808516 40.725498,33.73938 40.1806524,33.0825448 C38.2757719,30.7852341 34.9719871,30.061006 32.3758715,31.5321215 C32.0626245,31.7089143 31.8233566,31.8874502 31.7008466,32.061255 C31.2521414,32.6523904 31.3391932,33.1779258 31.5179781,33.6116783 C32.2326195,35.34624 35.9864791,33.8976469 35.9864791,33.8976469 C35.9864791,33.8976469 35.6408989,36.4257844 35.0099228,38.0975971 L35.0099602,38.0976096 Z" fill="#231F20"></path>
                        <path d="M174.335159,4.17948015 C159.892928,4.35199011 145.570219,7.82240843 133.76743,13.9235041 C110.560259,25.918524 97.4188247,50.4932252 93.062251,59.9075678 C97.6369522,53.7262929 109.444721,40.4693208 129.723606,35.0599582 C134.574203,33.7661335 139.554283,33.110755 144.514442,33.110755 C167.094124,33.110755 182.711653,46.3916315 183.369024,46.9573686 L185.390936,48.7103566 L184.494522,51.233265 C181.795319,58.8129463 187.641932,61.5400379 188.837151,62.0091614 C189.753486,62.3687232 190.62002,62.5420299 191.476594,62.5420299 C195.181773,62.5420299 198.289343,59.0948188 200.241534,56.2013925 C202.602092,52.6964124 206.994522,46.1735041 214.444721,46.1735041 C215.988546,46.1735041 217.562251,46.4663327 219.125996,47.045018 C224.773406,49.1316714 226.25747,53.8408347 226.785359,57.4254961 C228.090139,66.4165319 222.781375,72.3926276 222.781375,72.3926276 C226.795319,74.8129463 233.76743,74.4414323 238.1001,69.9304762 C242.382968,65.485257 251.297311,49.2501973 231.078187,26.6406355 C216.835159,10.7193208 195.450697,3.92748811 174.335159,4.17948015 Z M34.9128486,82.0201176 C28.7405378,82.0390419 22.2963147,86.3737033 14.315239,95.79701 C8.93177291,102.158564 3.21962151,113.015138 4.62599602,120.863743 C5.24601594,124.319918 7.28615538,125.873703 9.13525896,126.570914 C8.99930279,126.341831 8.85956175,126.132667 8.73456175,125.883663 C6.93027888,122.307966 6.98227092,117.776094 8.89013944,112.397608 C13.0512948,100.66454 23.4150398,88.7800778 32.485757,85.3468108 C34.2646414,84.6735041 35.8871514,84.3338626 37.4479084,84.3059742 C38.7556773,84.2850578 39.9090637,84.4912331 40.9439243,84.8388427 C40.2497012,83.5739025 39.1799801,82.5958148 37.5455179,82.2750977 C36.6710159,82.1037829 35.7945219,82.0181256 34.9130478,82.0201176 L34.9128486,82.0201176 Z M37.9068725,88.2282849 C36.7724104,88.1864523 35.4536853,88.4115519 33.872012,89.0101574 C26.5662351,91.7750977 16.625,102.307966 12.5821713,113.702389 C8.53356574,125.126691 15.6738048,127.288046 15.6738048,127.288046 L99.3401394,166.122707 C99.8381474,163.881671 100.903884,161.610755 102.447709,159.598803 C103.911853,157.696412 105.65488,156.182468 107.50747,155.146612 C99.6588645,147.288046 47.3939243,94.9593606 45.3710159,93.0579662 C43.0692231,90.8936236 41.311255,88.3527869 37.9068725,88.2282849 Z M205.725598,96.2392411 C205.018426,96.2661335 204.211653,96.4464124 203.295319,96.8478068 C203.295319,96.8478068 202.279382,98.6227072 203.763446,100.06693 C203.763446,100.06693 206.223606,99.1406355 210.048307,98.8816714 C210.048307,98.8816714 208.803287,96.1227072 205.725598,96.2392411 Z M209.420817,102.746213 C208.843127,102.756173 208.285359,102.815934 207.73755,102.895616 C203.454681,103.552986 199.291335,108.064938 199.978586,113.473305 C200.187749,115.076891 200.516434,115.933464 201.183765,117.009161 C202.787351,119.549002 206.104084,118.991233 207.588147,117.317926 C209.6001,115.01713 212.508466,114.011153 212.72759,119.060954 C212.867032,122.307966 210.24751,126.162548 210.24751,126.162548 C210.24751,126.162548 223.813247,121.28207 219.859064,109.937448 C217.876992,104.260157 213.434761,102.616731 209.420817,102.746213 L209.420817,102.746213 Z M88.7634462,107.288046 C88.5512948,107.288046 88.3431275,107.288046 88.1389442,107.307966 C87.1568725,107.377687 86.2724104,107.636651 85.5672311,107.925496 C86.1489044,108.294022 86.7265936,108.682468 87.2943227,109.110755 C90.2724104,111.401592 92.2006972,114.240237 93.0542829,117.288046 C93.624004,116.481273 96.3371514,112.278086 93.4497012,109.38964 C91.8989044,107.845815 90.24751,107.317926 88.7634462,107.288046 L88.7634462,107.288046 Z M71.8580677,109.798006 L71.8371514,109.798006 C71.187749,110.03705 70.7843625,110.256173 70.7216135,110.296014 C70.1917331,110.594819 69.8929283,111.112747 69.8311753,111.680476 L69.8032869,111.869719 C70.2455179,112.317926 70.6757968,112.746213 71.1210159,113.18446 L71.6419323,113.712349 C71.9407371,113.712349 72.2415339,113.642628 72.5194223,113.493225 C72.563247,113.473305 72.8351594,113.333863 73.2763944,113.1745 L73.4158367,113.134659 C72.8461155,112.078883 72.3301793,110.953385 71.8580677,109.798006 L71.8580677,109.798006 Z M84.6140438,112.019122 C84.6937251,112.437448 84.7724104,112.845815 84.8391434,113.19442 C84.8570717,113.343823 84.8650398,113.503185 84.9018924,113.642628 C84.9676295,113.881671 85.0214143,114.110755 85.0801793,114.349799 C85.1289841,114.549002 85.1767928,114.738245 85.2186255,114.907568 C85.7813745,117.317926 85.936753,119.140636 85.934761,120.425496 C85.9865538,121.112747 85.9178287,121.770118 85.7753984,122.387647 C85.7465139,122.53705 85.7186255,122.666532 85.6987052,122.736253 L85.685757,122.736253 C85.3441235,123.941432 84.7455179,124.947408 84.2873506,125.594819 C84.1718127,125.754181 84.0951195,125.923504 84.0383466,126.112747 C84.8072709,126.879679 85.5702191,127.646612 86.3291833,128.403584 C86.6957171,128.284062 87.0303785,128.064938 87.2714143,127.726293 C91.1150398,122.367727 90.186753,116.28207 84.9058765,112.218325 C84.8072709,112.148604 84.7116534,112.088843 84.6140438,112.019122 L84.6140438,112.019122 Z M26.1409363,137.596811 C25.8919323,137.606771 25.6309761,137.626691 25.3580677,137.666532 C20.2963147,138.403584 17.6369522,145.744221 21.1369522,149.798006 C24.2246016,153.373703 28.9726096,154.270118 33.6359562,150.993225 C33.6359562,150.993225 28.6658367,149.778086 27.6479084,146.361751 C26.9267928,143.931472 27.4785857,140.794022 31.0682271,140.365735 C31.0682271,140.365735 29.875996,137.437448 26.1409363,137.596811 L26.1409363,137.596811 Z M204.866036,139.110755 C200.971614,138.981273 197.256474,140.535058 195.423805,142.626691 C192.485558,145.973305 192.724602,150.345815 192.724602,150.345815 C197.455677,148.343823 199.617032,148.961353 201.121016,149.957369 C202.844124,151.092827 204.397908,155.007169 201.200697,158.533066 C197.983566,162.098803 187.216633,163.313942 187.216633,163.313942 C196.808267,166.989241 209.148904,163.732269 213.571215,157.766134 C217.286355,152.756173 216.828187,145.146612 211.698705,141.401592 C209.597112,139.867727 207.196713,139.180476 204.866036,139.110755 L204.866036,139.110755 Z M112.794323,157.497209 C110.443725,157.626691 107.664841,159.260157 105.563247,161.979281 C102.515438,165.953385 102.077191,170.724301 104.597112,172.656572 C107.107072,174.588843 111.609064,172.945416 114.656873,168.981273 C117.714641,165.01713 118.142928,160.236253 115.632968,158.303982 C114.846116,157.696412 113.87002,157.447408 112.794323,157.497209 Z" fill="#FFFFFF" transform="translate(124.100333, 88.819571) scale(-1, 1) rotate(-180.000000) translate(-124.100333, -88.819571) "></path>
                        <path d="M143.625498,140.61255 C139.568103,140.536977 135.285234,139.992069 130.835408,138.805279 C105.788098,132.125996 94.3426295,112.517928 94.3426295,112.517928 C94.3426295,112.517928 113.310508,119.095867 122.861056,108.648655 C122.861056,108.648655 98.0801793,117.205428 82.4564243,101.056026 L82.3707669,100.962649 L82.3608068,101.056026 C64.9541833,83.062998 77.2356823,62.5102092 81.7246763,60.7148904 L81.705254,60.7732819 L81.8200448,60.7148904 C81.8200448,60.7148904 77.6073954,72.9383715 84.333491,82.5263944 C91.1905627,92.3032869 104.398232,91.0540339 108.642505,86.6466633 C108.642505,86.6466633 88.0361803,91.5541584 84.8626245,73.9437251 C86.2326444,74.1389442 87.5446464,74.2783118 88.6093875,74.2783118 C91.4520169,74.2783118 94.080752,73.1545817 96.2117281,71.0295568 C100.085732,67.1650149 98.8445717,61.47876 96.0522161,57.8298556 L93.3208914,54.2387201 C92.9155129,52.0026643 91.9739044,49.7631225 90.451494,47.6401145 C90.2333665,47.3358317 89.982134,47.063384 89.7142057,46.8113919 C91.8257595,44.4956549 99.8060881,35.8352963 103.086965,33.6141808 C103.086965,33.6141808 120.92561,37.6919945 148.489106,27.9220742 C164.203748,22.3528511 174.68059,19.4604208 182.298867,18.4365164 C189.703748,17.5779507 196.52322,19.9143551 198.13552,21.6016061 C198.595182,22.0821838 199.16128,23.1157993 198.76387,23.8349228 C198.365961,24.5545443 197.555167,24.6920692 197.188172,24.6616907 C196.758889,24.6253362 196.132507,24.4925672 194.237102,23.6987425 L189.900946,21.8720493 C189.531424,23.3401768 188.360359,27.6562874 189.683068,32.2952316 C184.588944,39.1443352 173.970916,50.2334786 155.589442,56.1622634 C155.589442,56.1622634 161.059188,58.9387824 172.078486,51.7560134 C180.956474,45.9696589 195.832221,45.0030254 204.442779,50.8455926 C206.522958,52.2564492 207.812923,54.088994 208.63115,56.1622012 C208.63115,56.1622012 206.571265,55.0474851 204.318277,54.9872261 C201.644472,54.916509 199.291882,56.2880229 197.865588,58.5569472 C196.850149,60.1724851 196.351021,61.6098606 196.087575,63.6790837 C196.059188,63.9076693 196.054457,64.1304781 196.037027,64.3560757 C193.108242,65.4731076 188.556947,68.345991 187.259636,75.5885209 C185.301469,86.5257719 192.48374,93.7421564 195.869696,96.969248 C199.667505,100.588272 204.593302,101.895667 207.094298,113.379856 C209.467306,124.272784 221.91875,120.882968 222.808939,118.686753 C222.808939,118.686753 224.114716,124.621389 217.867704,126.929158 C210.572883,129.622883 206.114841,123.011205 203.584836,119.256723 C201.054955,115.502241 195.421987,108.889816 187.504158,111.990911 C179.12119,115.275274 179.35488,123.382719 180.899701,127.726718 C180.899701,127.726718 165.53491,141.018551 143.62505,140.610184 L143.625498,140.61255 Z M69.4285359,79.1396912 C67.7721614,76.5221614 66.1293576,73.8797311 64.4620269,71.1093127 C65.2075448,70.3647908 65.9846863,69.5896414 66.7575946,68.8177291 C67.2476345,69.6055777 67.9333167,70.2857321 68.7943227,70.7727839 C69.0124502,70.8957918 69.6491783,71.2238919 70.5878984,71.5645294 C70.4230578,72.162637 70.2587774,72.7613421 70.1287973,73.3659487 C69.7154507,75.2987176 69.4897286,77.225386 69.4284736,79.1397286 L69.4285359,79.1396912 Z M44.752241,32.5510458 C43.6157869,30.9768426 42.3549552,29.3944223 40.970493,27.8939243 C34.8703934,21.2808765 26.6179034,17.3341633 18.8502241,24.4078685 C18.8502241,24.4078685 18.2597859,10.4599104 32.9525647,7.76568725 C46.4859313,5.28311753 57.3910608,16.8314243 66.2742779,22.561504 L44.7528635,32.5507968 L44.752241,32.5510458 Z" fill="#005D41"></path>
                        <path d="M141.197709,134.487052 C141.197709,134.487052 148.136205,130.83989 150.111305,125.141683 C150.111305,125.141683 142.183516,122.795319 140.316484,115.609562 C138.593376,108.970618 142.886205,103.22012 145.856823,101.022908 C148.473357,99.0881474 151.494397,97.8232072 155.2937,98.1573705 C155.2937,98.1573705 156.015911,98.1273655 157.073705,96.9590388 C157.456673,96.5357321 158.306013,95.8378611 159.367281,95.9280005 C159.367281,95.9280005 159.838508,109.629445 156.851967,119.964355 C152.6438,134.526108 141.198332,134.486267 141.198332,134.486267 L141.197709,134.487052 Z M187.878486,107.161355 C184.364044,107.115289 180.876868,106.038621 178.029258,104.805528 C172.014318,102.200946 162.749128,93.3279382 162.749128,93.3279382 C163.005603,93.3229582 163.448257,93.2620767 164.474602,93.0205677 C165.499502,92.7780378 166.416086,93.0205677 166.416086,93.0205677 C166.416086,93.0205677 167.896041,91.1993526 172.003113,89.9314243 C176.165961,88.6460657 180.605702,89.4793327 183.663471,91.1725598 C188.086778,93.6217629 189.000996,97.7089143 189.748506,100.222361 C190.49502,102.735309 191.24253,104.093625 191.24253,104.093625 C192.396912,103.958167 192.625249,103.588023 195.111803,102.957545 C197.223357,102.42119 197.897535,103.338832 197.897535,103.338832 C194.93613,106.223543 191.393426,107.207607 187.878984,107.161417 L187.878486,107.161355 Z M138.652888,94.4758466 C130.731823,94.5905129 124.711155,92.1315986 121.624751,88.2818725 C116.107819,81.3964143 121.625174,73.7363048 130.197834,74.1471614 C136.758093,74.4614044 141.278386,78.4794572 146.659487,79.3918078 C152.193352,80.3295568 156.691235,79.8920692 161.706798,76.9737301 C166.722734,74.0549054 168.272659,72.7780129 169.048556,71.1823954 C169.823456,69.5862799 170.189181,68.21875 171.966633,67.717754 C171.966633,67.717754 172.605304,74.0104582 165.628735,79.5727092 C165.628735,79.5727092 164.259462,88.6924801 150.535359,92.6142928 C146.246389,93.8400149 142.253735,94.4239293 138.653137,94.4759711 L138.652888,94.4758466 Z M34.7671813,80.9922809 L30.9134711,76.0239044 L33.7945717,73.5785608 L23.9920319,59.8721365 L28.6744273,56.6350847 L38.6190239,69.5832918 L41.3035359,67.4744771 L45.0171813,71.5246514 L34.7671813,80.9926544 L34.7671813,80.9922809 Z M151.415588,74.4753486 C151.280615,74.4790837 151.144397,74.4703685 151.009001,74.4716135 C151.14441,74.4706175 151.280615,74.4765936 151.415588,74.4741036 C152.416459,74.4479582 153.404756,74.3528386 154.354955,74.1686877 C155.342119,73.9773406 156.237923,73.7789343 157.059014,73.5695219 C156.238035,73.779009 155.342131,73.9792206 154.354955,74.17063 C153.404694,74.3547809 152.416459,74.4498506 151.415588,74.4760583 L151.415588,74.4753486 Z M157.059014,73.5688247 C158.290563,73.2546937 159.35259,72.9156997 160.298058,72.539741 C159.352615,72.9157993 158.290463,73.2545941 157.059014,73.5688247 Z M151.008964,74.4714641 C150.674751,74.4739542 150.340712,74.4751992 150.005179,74.463994 C150.340737,74.4751992 150.674726,74.4739542 151.008964,74.4714641 Z M150.005179,74.463994 C149.812898,74.4565239 149.621601,74.4437002 149.429358,74.4328685 C149.621265,74.4440737 149.813247,74.4575199 150.005179,74.463994 Z M149.429358,74.4328685 C149.151419,74.4171813 148.873755,74.402241 148.59675,74.3783367 C148.873755,74.402241 149.151432,74.4171813 149.429358,74.4328685 Z M148.59675,74.3783367 C148.367891,74.3586653 148.141534,74.3331424 147.913932,74.3083665 C148.141198,74.3330179 148.368227,74.3587898 148.59675,74.3783367 Z M147.913932,74.3083665 C147.668974,74.2817231 147.425299,74.2548307 147.182483,74.2228337 C147.424875,74.2548307 147.669397,74.2818476 147.913932,74.3083665 Z M147.182483,74.2228337 C146.974128,74.1953187 146.768202,74.1663098 146.561915,74.1353088 C146.767966,74.1663098 146.974377,74.1953187 147.182483,74.2228337 Z M146.561915,74.1353088 C146.352353,74.1036853 146.148307,74.0689492 145.941347,74.0342131 C146.147323,74.0688247 146.353374,74.1039343 146.561915,74.1353088 Z M145.941347,74.0342131 C145.505291,73.960757 145.09812,73.872622 144.676905,73.7871514 C145.095842,73.8720618 145.507794,73.9612176 145.941347,74.0342131 Z M144.676905,73.7871514 C144.136741,73.6777141 143.614554,73.5694099 143.107059,73.4467131 C143.61067,73.5684761 144.14126,73.6784612 144.676905,73.7871514 Z M143.107059,73.4467131 C142.759089,73.3626743 142.44004,73.2812126 142.111043,73.1938247 C142.434574,73.2797311 142.765202,73.3640563 143.107059,73.4467131 Z M142.111043,73.1938247 C141.634973,73.0675174 141.193613,72.9474602 140.764928,72.8203187 C141.188085,72.9457669 141.641945,73.0691858 142.111043,73.1938247 Z M140.764928,72.8203187 C140.472161,72.7334163 140.203424,72.6537475 139.936218,72.5693601 C140.196539,72.6514069 140.480453,72.7359562 140.764928,72.8203187 Z M139.936218,72.5693601 C139.489853,72.428623 139.108491,72.3039716 138.743713,72.1783491 C139.099913,72.3008591 139.502901,72.4325324 139.936218,72.5693601 Z M138.743713,72.1783491 C138.573556,72.1198332 138.47012,72.0860931 138.319634,72.0324452 C138.446228,72.0773904 138.603748,72.1301793 138.743713,72.1783491 Z M138.319634,72.0324452 C137.355839,71.690625 136.75564,71.4449577 136.75564,71.4449577 C136.75564,71.4449577 137.393875,71.7024278 138.319634,72.0324452 Z M147.651432,71.6472734 C146.756648,71.5912475 145.899315,71.4684387 145.019335,71.3535234 C143.259624,71.1241907 141.95198,71.0465886 140.704594,71.0772908 C141.951855,71.0464143 143.259375,71.1224851 145.019335,71.3515812 C145.899191,71.4664965 146.756511,71.5911604 147.651432,71.6472734 L147.651432,71.6472734 Z M152.137363,71.1745518 C152.423581,71.0933765 152.719223,70.9999377 153.022498,70.8944223 C152.718439,71.000249 152.424265,71.0931897 152.137363,71.1745518 Z M46.7040961,70.0579308 C46.7040961,70.0579308 39.5352714,61.2841509 38.1114666,59.3857445 C36.6871638,57.4873381 34.1742156,52.9936877 38.9421315,49.5967754 C43.6493028,46.2436877 47.8426544,50.3090139 48.3770169,50.9624377 C48.9103835,51.6143302 56.8003237,61.1073581 56.8003237,61.1073581 L53.2286106,64.3424178 C53.2286106,64.3424178 45.9763695,55.2019796 43.7139193,54.0924178 C41.8956922,53.2004856 41.6893924,55.5319099 42.5175299,56.6349975 C43.1669323,57.4990413 50.2308018,66.9102714 50.2308018,66.9102714 L46.7039094,70.0578063 L46.7040961,70.0579308 Z M167.080092,67.8053162 C167.559636,67.3290588 168.055864,66.8195095 168.587687,66.2724477 L168.590177,66.2724477 C168.058242,66.819634 167.560184,67.3290961 167.08059,67.8053162 L167.080092,67.8053162 Z M59.6274029,59.0259338 L48.7314866,44.3944597 L56.4447585,39.8637077 L58.7092007,43.353623 L55.8943352,45.6180652 L63.8507595,55.9030503 L59.6274029,59.0253113 L59.6274029,59.0259338 Z M70.8909736,49.6591509 L57.3625872,39.4364168 L61.0353959,36.7420692 L63.7277515,38.3955802 L66.2994646,36.4366658 L65.7489417,34.2326071 L69.6065115,31.9681648 L75.8491658,45.3732943 L70.8905005,49.6589019 L70.8909736,49.6591509 Z M71.0757844,44.1499377 L69.2996389,39.5589268 L66.8504358,41.5782246 L71.0757844,44.1499377 Z M79.5847485,42.2512824 L70.70813,31.1706051 L74.3809387,29.0910483 L77.1355453,32.0888073 L77.3806524,26.9472485 L80.135259,25.4182395 L87.9711653,34.9679158 L85.0317978,37.5377615 L82.8296066,36.1916459 L82.3996887,40.1095991 L79.5848232,42.2514069 L79.5847485,42.2512824 Z M90.175137,33.0070095 L83.0124128,23.8872385 L88.521626,20.3973232 L90.2355204,22.478872 L87.7883093,24.3152764 L88.5217007,25.1731698 L90.0527017,24.1927166 L91.8891061,26.2742654 L90.3581051,27.3772908 L91.1557022,28.3557893 L93.9705677,26.459126 L95.7467131,28.8460782 L90.175249,33.0071838 L90.175137,33.0070095 Z M115.304619,17.2824079 C114.11438,17.2953561 112.484524,16.6779507 111.275859,15.8039467 C110.385919,15.2631101 109.427253,14.4412724 108.579644,13.3391808 C106.601556,10.7674676 106.495979,8.53054034 106.710122,7.81241285 C106.921277,6.59777141 107.520817,5.74256723 107.791733,5.55581424 C107.791733,5.55581424 107.697734,6.72548556 107.972647,7.69961404 C109.130515,8.06714392 110.658404,9.09876743 111.935296,10.759624 C113.6345,12.9692854 113.952478,14.9316858 113.872796,15.8973232 C114.602378,16.7753113 115.304569,17.2824079 115.304569,17.2824079 L115.304619,17.2824079 Z" fill="#231F20"></path>
                        <path d="M151.494024,119.223108 C149.978337,119.265065 147.651519,118.787587 146.021788,115.945219 C143.389816,111.354084 145.776681,106.784612 145.776681,106.784612 C149.979868,109.96738 154.941148,108.477092 154.941148,108.477092 C154.234973,115.771912 153.021078,118.985807 153.021078,118.985807 C153.021078,118.985807 152.403424,119.197983 151.493937,119.223145 L151.494024,119.223108 Z M184.858068,102.958167 C172.549801,99.7634462 170.110807,93.6944721 170.110807,93.6944721 C170.306524,93.7031873 170.618277,93.5923805 171.252739,93.3851594 C171.886205,93.177988 172.711778,93.3267679 172.711778,93.3267679 C176.354208,100.703262 184.276892,96.9373257 184.276892,96.9373257 C186.418825,100.089716 184.858553,102.958118 184.858553,102.958118 L184.858068,102.958167 Z M137.634462,90.0859064 C137.013807,90.0821713 136.332545,90.0257719 135.621016,89.8816484 C132.246016,89.1993775 133.097859,86.2399651 133.097859,86.2399651 C133.42007,86.2862799 134.653511,86.3897659 135.32134,86.3897659 C135.990164,86.3897659 139.712027,86.6776643 139.712027,86.6776643 C140.426668,87.7269671 140.818924,89.6287351 140.818924,89.6287351 C140.818924,89.6287351 139.49634,90.0956922 137.634412,90.0858815 L137.634462,90.0859064 Z M146.042206,89.7260209 C145.734686,89.7347361 145.417007,89.7197958 145.092866,89.6734811 C142.500237,89.3054532 142.663085,86.7476843 142.663085,86.7476843 C143.412089,86.8049552 144.471975,86.5515563 144.921676,86.4947834 C145.370879,86.4365164 147.674041,85.8823332 148.952428,86.3663969 C150.232308,86.8499626 150.059338,88.1425423 150.059338,88.1425423 C149.867605,88.4044323 148.194796,89.6625872 146.042156,89.7260832 L146.042206,89.7260209 Z M131.166708,88.1327689 C125.983939,87.6427291 126.349975,84.0319223 126.349975,84.0319223 C127.516808,84.4298307 128.18252,84.402739 129.528635,84.9948705 C131.652141,85.9271414 131.166584,88.1326942 131.166584,88.1326942 L131.166708,88.1327689 Z M153.252117,87.2768177 C152.192356,87.2656125 151.950697,86.2866285 151.950697,86.2866285 C151.950697,86.2866285 152.594895,85.9299303 153.619771,85.3995518 C154.646165,84.8691733 156.006723,84.8120642 156.006723,84.8120642 C155.719373,86.1024029 154.312874,87.2880354 153.252117,87.2768302 L153.252117,87.2768177 Z M145.22759,84.9307022 C144.016372,84.9956922 142.794696,84.8006723 141.78623,84.2478835 C139.769796,83.1408118 140.438123,80.720991 140.438123,80.720991 C140.438123,80.720991 141.188546,80.9982072 143.262699,81.2053785 C145.336902,81.4130478 146.544821,81.8723855 147.443227,82.4017679 C148.343127,82.9321464 148.608479,84.0514193 148.608479,84.0514193 C147.6406,84.5409612 146.438658,84.8657246 145.227502,84.9307146 L145.22759,84.9307022 Z M137.52988,84.5085657 C135.000125,84.5499004 132.291086,83.6934636 132.291086,83.6934636 C131.518177,82.2079059 130.437126,78.4974975 130.437126,78.4974975 C132.430652,77.8286728 135.079557,77.9776768 137.119397,79.9254109 C139.159238,81.872622 138.595991,84.4308889 138.595991,84.4308889 C138.250286,84.4785732 137.891335,84.5027266 137.52993,84.5087027 L137.52988,84.5085657 Z M152.674303,83.7712774 C152.551668,83.7787475 152.420169,83.7775025 152.283279,83.7638073 C151.190152,83.6477714 151.199726,82.9331424 151.199726,82.9331424 C151.742057,82.5187998 152.387861,82.5658491 152.656773,82.5499128 C152.8749,82.5374626 153.78313,82.5751868 153.78313,82.5751868 C154.014953,83.150386 153.532308,83.7158865 152.67429,83.7715762 L152.674303,83.7712774 Z M129.274153,82.8414094 C129.051046,82.8339392 127.337898,82.6112176 126.30752,82.0574328 C125.376743,81.5574328 125.251195,80.7210284 125.251195,80.7210284 C126.023108,78.9849726 128.211977,79.2347236 128.211977,79.2347236 C128.864866,80.5514567 129.274128,82.8414218 129.274128,82.8414218 L129.274153,82.8414094 Z" fill="#FFFFFF"></path>
                    </g>
                </g>
            </g>
        </g>
    </g>
</svg>