<svg width="100" height="123" viewBox="0 0 100 123" fill="none" xmlns="http://www.w3.org/2000/svg">
<g clip-path="url(#clip0_3258_362345)">
<path d="M89.8792 117.898V118.944H91.1631V122.194H92.3627V118.944H93.6467V117.898H89.8814H89.8792ZM97.6342 117.898L96.6012 119.557L95.5838 117.898H94.3131V122.194H95.486V119.684L96.5745 121.386H96.6168L97.7053 119.684V122.194H98.8893V117.898H97.6342Z" fill="#46231E"/>
<path d="M79.2496 59.9032L89.9414 50.1155V22.2565L77.1415 8.70358H8.92798V30.678H18.5046V91.9873H8.92798V114.113H77.1415L91.2965 100.56V69.8418L79.2496 59.9032ZM64.9614 92.245H42.3072V70.8193H64.9614V92.245ZM64.9614 51.6594H42.3072V30.2337H64.9614V51.6594Z" fill="#46231E"/>
<path d="M92.5138 59.561L98.6449 53.9475V18.7955L80.8935 0H0V38.4908H9.70988V84.1767H0V122.819H80.6358L100 104.278V65.7388L92.5138 59.5633V59.561ZM93.529 101.513L78.0389 116.343H6.6954V90.2013H16.1809V32.464H6.6954V6.47325H78.1033L92.1739 21.3702V51.0974L82.6506 59.8143L93.529 68.7889V101.513ZM44.5397 32.1286V49.7601H62.8421V32.1286H44.5397ZM58.9368 46.1902H48.4472V35.7006H58.9368V46.1902ZM44.5397 72.7141V90.3457H62.8421V72.7141H44.5397ZM58.9368 86.7758H48.4472V76.5084H58.9368V86.7758Z" fill="#CD142D"/>
</g>
<defs>
<clipPath id="clip0_3258_362345">
<rect width="100" height="122.816" fill="white"/>
</clipPath>
</defs>
</svg>
