<?xml version="1.0" encoding="UTF-8" standalone="no"?>
<svg width="250px" height="250px" viewBox="0 0 250 250" version="1.1" xmlns="http://www.w3.org/2000/svg" xmlns:xlink="http://www.w3.org/1999/xlink">
    <!-- Generator: Sketch 47.1 (45422) - http://www.bohemiancoding.com/sketch -->
    <title>SFLA</title>
    <desc>Created with Sketch.</desc>
    <defs></defs>
    <g id="Page-1" stroke="none" stroke-width="1" fill="none" fill-rule="evenodd">
        <g id="SFLA" fill-rule="nonzero">
            <g id="South_Florida_Bulls_logo" transform="translate(0.000000, 25.000000)">
                <path d="M102.649959,130.767014 C103.749959,130.040662 111.866851,124.790662 111.970905,124.601473 L144.994554,69.8393108 C157.291851,70.1589054 190.597932,69.7582297 200.342527,64.0575541 C198.723608,60.7278243 196.714149,57.6075541 195.526311,54.0785 C186.958743,28.7460676 214.458743,13.8866081 231.647932,2.0312027 L225.262797,26.8967432 C224.419554,30.1663378 224.781041,33.105527 226.732392,35.8812027 C234.658068,47.176473 251.493878,49.6339054 249.072932,70.4453919 C245.062122,104.941338 206.470905,114.47377 177.329689,116.064311 C169.549284,128.972419 165.131716,139.146068 150.708743,146.075797 L139.332392,165.950797 C139.772257,169.602149 139.946581,172.400797 138.103338,175.767689 C134.383743,182.55823 110.1905,195.223095 102.485095,199.758905 L31.7080676,199.042689 C26.4918514,190.894041 10.5073919,169.434581 18.0763108,160.211608 C19.338473,158.675797 24.8979324,154.4035 25.1844189,153.94877 L37.8100946,133.962284 C33.4013108,124.421743 33.0026622,121.779851 38.9682027,112.921743 C10.013473,108.44877 -9.04733784,93.5230946 6.83712162,63.1089054 C19.1256351,39.5926892 51.1817162,39.5494459 59.1621216,19.3426892 L66.2823919,1.23187838 L76.2486081,17.9595811 C88.8033378,39.1460676 73.8276622,51.3136351 59.1263108,64.4974189 C75.0357703,68.9690405 107.075635,68.4001216 124.596581,68.1156622 L84.4195541,128.319716 C85.3945541,130.544716 86.3290135,132.788635 87.1803649,135.063635 C83.4310405,141.831878 79.6567162,148.590662 75.7918514,155.292014 L88.3972568,155.576473 C93.042527,147.252149 97.5269865,138.829851 102.031716,130.432554 L102.639824,130.756878" id="Shape" fill="#CFC493"></path>
                <path d="M42.2269865,130.868365 C41.3094189,128.84877 40.2506351,126.426473 40.0722568,125.525122 C39.7736081,123.999446 39.5952297,121.614311 41.0188784,119.484581 L48.2715811,108.667014 C9.65536486,105.63323 -1.38044595,88.876473 11.5026622,65.6528243 C14.9033378,59.5102568 19.6236081,55.1257973 24.7303649,51.6257973 C27.2215811,49.9176892 29.8621216,48.3832297 32.5688784,46.9237703 C35.1682027,45.530527 37.8290135,44.2048514 40.4742838,42.8507973 C50.9492838,37.4866081 59.7796892,32.2818784 64.1026622,21.2920135 L67.2661757,13.2440405 L71.692527,20.6798514 C79.6803649,34.1028243 72.6803649,44.9683649 65.3729324,52.2609324 C63.5546892,54.0751216 61.6236081,55.7710676 59.7432027,57.3568784 C57.9452297,58.8622838 56.1972568,60.2609324 54.6526622,61.5629595 C53.1168514,62.8460676 51.9627973,63.8798514 51.1776622,64.7433649 C50.9080676,65.0399865 50.7161757,65.2785 50.592527,65.4575541 C50.6053649,65.9494459 50.9411757,66.5535 52.0330676,67.2724189 C53.2580676,68.0717432 55.1553649,68.8102568 57.6006351,69.4703919 C62.5161757,70.8007973 69.238473,71.7143108 76.1303649,72.3474189 C89.9850946,73.6197162 104.508068,73.7420135 106.505365,73.7129595 L114.580365,73.5845811 L78.3269865,127.911608 L79.8377973,130.905527 C80.2817162,131.802149 80.7303649,132.707554 81.0668514,133.404851 L81.4769865,134.292689 C81.6972568,134.799446 81.7053649,135.160257 81.6972568,135.235932 L80.6506351,135.100797 C80.6506351,135.100797 81.7513108,135.331203 81.3769865,135.950122 L80.8709054,136.788635 L79.0688784,139.777824 L73.6046892,148.821068 L66.6053649,160.396068 C71.8905,160.521068 87.0905,160.87377 91.4871216,160.950122 C93.5215811,157.169716 104.976311,135.862959 104.988473,135.721743 L105.046581,135.185932 L105.5155,134.918365 C105.768878,134.773095 114.375635,129.32377 116.02023,128.252824 L147.947932,75.2149865 L150.413473,75.2751216 C151.247932,75.2960676 163.981716,75.4582297 177.234419,74.2413378 C190.851986,72.9953919 203.889149,70.3386351 206.488473,65.4622838 C206.525635,65.2068784 206.483743,65.0697162 206.418203,64.8913378 C206.185095,64.2420135 205.869554,63.3487703 205.234419,62.1366081 C204.54523,60.826473 203.727662,59.4149865 202.942527,57.8933649 C202.058068,56.1893108 201.207392,54.3602568 200.551311,52.4089054 C197.557392,43.4987703 199.018878,32.9636351 213.376311,21.2474189 L222.979014,14.5129595 L220.135095,25.5960676 C217.606716,35.6001216 222.078338,39.901473 228.708743,45.0933649 C230.476986,46.4697162 232.274959,47.8271486 233.976986,49.251473 C235.745905,50.7379595 237.531716,52.4007973 239.084419,54.3352568 C242.297932,58.3440405 244.369554,63.3406622 243.808743,69.9602568 C241.89523,92.5170135 218.366851,109.217689 174.281716,110.910257 L162.341176,130.334581 C160.016176,134.127149 151.994554,139.858905 146.966851,141.974446 L133.896581,164.792689 C133.995905,165.863635 134.311446,169.112959 134.3655,169.899446 C134.439824,171.310932 133.916851,172.440662 133.547257,173.075797 C133.153338,173.764986 132.650635,174.362284 132.185095,174.852824 C131.259419,175.838635 130.038473,176.845392 128.756041,177.806878 C127.451986,178.783905 120.543878,182.934581 114.058743,186.785257 C107.536446,190.662284 101.071581,194.455527 101.071581,194.455527 L34.6377973,193.789311 C34.6377973,193.789311 31.8519865,189.438635 29.1330676,184.894041 C26.4344189,180.400122 23.4155,175.108905 22.4067162,172.310257 C22.1330676,171.562959 21.8668514,170.837959 21.638473,170.132554 C21.4019865,169.385257 21.2155,168.654176 21.1195541,167.94877 C20.9161757,166.456203 21.1114459,164.938635 22.2161757,163.547419 C22.6769865,162.966338 24.4580676,161.421743 26.0438784,160.0785 C27.5053649,158.837284 28.9546892,157.651473 29.4776622,157.238635 L43.8377973,134.3535 C43.5013108,133.644041 42.8709054,132.299446 42.2229324,130.87377" id="Shape" fill="#FFFFFF"></path>
                <path d="M68.0465811,22.8420135 C80.9087432,44.4480946 47.3202297,57.6737703 46.2702297,64.8791757 C44.2148243,78.9352568 106.575635,77.9494459 106.575635,77.9494459 L73.4269865,127.618365 C73.4269865,127.618365 76.8729324,135.37377 77.0844189,135.365662 C77.238473,135.361608 59.3641486,163.97377 59.1573919,164.496743 L93.8911757,165.231878 C94.2769865,165.065662 108.094554,138.163635 108.331041,138.205527 C108.435095,138.225797 119.158743,131.255527 119.158743,131.255527 L150.310095,79.5089054 C150.310095,79.5089054 203.399284,80.8149865 210.32023,66.7589054 C213.879014,59.5494459 189.528338,46.1737703 216.029014,24.551473 C209.647932,49.7757973 241.409419,47.9717432 239.582392,69.6007973 C237.934419,88.9980946 217.054014,105.557554 171.866176,106.745392 L158.725635,128.112284 C156.778338,131.284581 147.985095,137.454176 144.057392,138.521068 L129.662797,163.654176 C129.451311,164.014986 130.023608,168.4035 130.131716,170.143365 C130.339149,173.867689 105.033068,187.092689 99.9141486,190.204176 L37.0519865,189.569041 C34.7188784,185.593365 23.7783378,169.987284 25.8087432,166.052824 C26.8877973,163.970392 33.3898243,159.869041 33.0364459,159.702824 L48.6148243,134.702149 C47.7715811,131.910257 42.5776622,124.775797 44.5459054,121.829176 L55.938473,104.829176 C11.8499595,103.437284 4.13577027,87.6737703 15.2087432,67.6967432 C27.2013108,46.0737703 58.1405,48.0460676 68.0546892,22.8359324" id="Shape" fill="#006747"></path>
            </g>
        </g>
    </g>
</svg>