<?xml version="1.0" encoding="UTF-8" standalone="no"?>
<svg width="250px" height="250px" viewBox="0 0 250 250" version="1.1" xmlns="http://www.w3.org/2000/svg" xmlns:xlink="http://www.w3.org/1999/xlink">
    <!-- Generator: Sketch 47.1 (45422) - http://www.bohemiancoding.com/sketch -->
    <title>STLOU</title>
    <desc>Created with Sketch.</desc>
    <defs>
        <polygon id="path-1" points="0.0198622881 239.658369 247.613215 239.658369 247.613215 0 0.0198622881 0"></polygon>
    </defs>
    <g id="Page-1" stroke="none" stroke-width="1" fill="none" fill-rule="evenodd">
        <g id="STLOU">
            <g id="Saint_Louis_Billikens_logo" transform="translate(0.000000, 4.000000)">
                <g id="Group" transform="translate(124.851695, 120.868644) scale(-1, 1) rotate(-180.000000) translate(-124.851695, -120.868644) translate(0.381356, 0.370763)">
                    <g transform="translate(0.662076, 0.648835)">
                        <g id="Clipped">
                            <g>
                                <mask id="mask-2" fill="white">
                                    <use xlink:href="#path-1"></use>
                                </mask>
                                <g id="Shape"></g>
                                <path d="M228.058792,124.665651 C228.058792,124.665651 239.58554,143.994637 233.904595,168.614274 C227.628112,195.812699 224.41009,204.584878 229.085673,225.334349 C229.085673,225.334349 190.615731,219.59183 175.924258,179.349841 L170.672338,183.010461 C170.672338,183.010461 167.773437,197.752251 179.753377,212.207362 C179.753377,212.207362 168.845008,214.752715 159.978151,212.100768 C159.978151,212.100768 144.931806,246.747219 89.0631621,238.356396 C89.0631621,238.356396 97.2401351,225.929224 99.9639168,212.871425 C99.9639168,212.871425 86.6687632,221.586997 64.5130429,215.960673 C64.5130429,215.960673 78.7708554,200.636917 78.646054,183.745365 L72.0123808,180.027807 L72.0127119,180.027145 L72.2275556,179.283965 L71.6876324,179.349841 C56.9994703,219.590837 18.5295286,225.331038 18.5295286,225.331038 C23.2044492,204.584878 19.9864274,195.812368 13.7102754,168.614274 C8.02899894,143.994968 19.5557468,124.665651 19.5557468,124.665651 C6.7144465,114.860302 0.00132415254,102.939619 0.00132415254,102.939619 C50.8189883,15.346928 123.809587,-5.32907052e-14 123.809587,-5.32907052e-14 C123.809587,-5.32907052e-14 196.796875,15.3479211 247.614539,102.939619 C247.614539,102.939619 240.901417,114.859971 228.060117,124.663996" id="Shape" fill="#FFFFFF" fill-rule="nonzero" mask="url(#mask-2)"></path>
                            </g>
                        </g>
                        <g transform="translate(10.593220, 4.965572)" id="Shape" fill-rule="nonzero" fill="#003DA5">
                            <path d="M113.215042,6.49099576 C113.215042,6.49099576 56.0844809,25.5869306 14.9960275,99.7278867 C14.9960275,99.7278867 24.9440546,125.588255 58.7261653,131.905787 C58.7261653,131.905787 40.4528602,132.680416 25.3442797,124.227357 C25.3442797,124.227357 18.3001192,132.386785 18.3057468,144.977158 C18.3113745,157.845273 25.5862685,186.691274 25.7057733,193.891353 C25.7057733,193.891353 46.8170683,183.493445 52.4255164,159.542836 C52.4255164,159.542836 42.9085011,149.462725 40.6590969,144.374007 L42.0587262,153.396782 C42.0587262,153.396782 38.3352092,160.622352 30.6008342,164.428628 C30.6008342,164.428628 25.2923067,145.430019 31.0709084,134.599444 C31.0709084,134.599444 38.0657442,137.642677 45.329714,137.58938 C45.329714,137.58938 56.258607,156.315877 80.7541049,170.726298 L80.9729211,170.793167 C81.9458422,175.080773 84.0764036,187.047471 79.7927701,195.11156 C79.7927701,195.11156 94.7762182,192.083885 101.655853,180.429688 C102.297736,182.341764 108.153469,196.696901 104.455442,214.622617 C141.93558,209.716631 145.673001,170.723649 145.673001,170.723649 C170.169823,156.313559 181.097391,137.586732 181.097391,137.586732 C188.361361,137.640029 195.356197,134.596796 195.356197,134.596796 C201.13513,145.42737 195.826271,164.42598 195.826271,164.42598 C188.091896,160.619703 184.368379,153.394134 184.368379,153.394134 L185.768008,144.371359 C183.518604,149.460077 174.001589,159.540188 174.001589,159.540188 C179.610037,183.489804 200.721332,193.888705 200.721332,193.888705 C200.840837,186.691605 208.115731,157.845273 208.121359,144.97451 C208.126986,132.384137 201.083157,124.224709 201.083157,124.224709 C185.9759,132.677767 167.701271,131.903138 167.701271,131.903138 C201.483713,125.585606 211.431409,99.7252383 211.431409,99.7252383 C170.342956,25.5859375 113.215704,6.49165784 113.215704,6.49165784 L113.215042,6.49099576 Z M209.169756,119.060514 C209.169756,119.060514 218.231925,128.391486 217.795286,147.30866 C217.358647,166.226165 208.195511,191.164592 209.927503,209.133342 C209.927503,209.133342 175.582296,197.427503 168.686772,164.211467 C168.686772,164.211467 161.95147,169.785487 154.034362,173.770193 C154.034362,173.770193 150.431343,190.065215 158.248146,202.173927 C158.248146,202.173927 151.081502,202.107058 146.462195,198.997948 C146.462195,198.997948 135.402873,228.343816 90.2419889,226.170551 C90.2419889,226.170551 96.2539725,218.173994 95.7322564,197.381488 C95.7322564,197.381488 87.2934322,204.826867 67.5092691,204.545154 C67.5092691,204.545154 76.2688692,191.421478 74.8589778,175.002648 C74.8589778,175.002648 63.853946,169.653403 57.7449682,164.211467 C50.8461335,197.434454 16.5009269,209.139963 16.5009269,209.139963 C18.2319253,191.167903 9.06878972,166.2308 8.63215042,147.31197 C8.19551112,128.396451 17.2576801,119.064486 17.2576801,119.064486 C4.14658369,109.626589 0.031779661,98.6361229 0.031779661,98.6361229 C48.376589,17.5715042 113.213718,0.235037076 113.213718,0.235037076 C113.213718,0.235037076 178.047537,17.5711732 226.392346,98.6361229 C226.392346,98.6361229 222.277542,109.624272 209.166446,119.063824 L209.169756,119.060514 Z"></path>
                            <path d="M113.215042,56.961732 C104.361758,58.4484243 91.4701404,66.171875 91.4701404,66.171875 C101.007349,54.6517479 113.215042,50.3019068 113.215042,50.3019068 C113.215042,50.3019068 125.422405,54.6517479 134.959613,66.171875 C134.959613,66.171875 122.067995,58.4484243 113.215042,56.961732"></path>
                            <path d="M67.9157839,138.072696 C67.9157839,138.072696 74.8099841,139.995365 84.1816737,136.115599 C94.6944518,131.76344 102.350702,136.80151 103.585474,143.429555 C103.585474,143.429555 97.7615201,140.74285 92.612553,145.074484 C86.3612288,150.333355 79.6404926,153.256091 71.0457495,151.113612 C62.3751986,148.951933 58.2577463,140.212858 58.2577463,140.212858 C58.2577463,140.212858 65.9153204,145.9279 73.6967029,145.489605 C79.7811838,145.146981 88.5000662,140.050649 88.5000662,140.050649 C88.5000662,140.050649 75.9600106,145.600172 67.9157839,138.072696"></path>
                            <path d="M113.215042,130.193988 C103.851298,126.462195 98.4706038,120.155588 98.4706038,120.155588 C89.5729608,119.742452 79.7692664,120.469412 79.7692664,120.469412 C84.8119703,122.702264 95.6630694,125.287672 95.6630694,125.287672 C102.740003,134.411083 113.215042,137.720471 113.215042,137.720471 C113.215042,137.720471 123.689751,134.411083 130.766684,125.287672 C130.766684,125.287672 141.617783,122.702264 146.660818,120.469412 C146.660818,120.469412 136.856793,119.742452 127.95915,120.155588 C127.95915,120.155588 122.578456,126.462195 113.215042,130.193988"></path>
                            <path d="M182.934984,117.44571 C172.186507,121.933925 158.666578,120.567399 158.666578,120.567399 C158.666578,120.567399 171.031515,117.78701 177.240135,114.412738 C177.240135,114.412738 159.066141,92.1037474 113.210739,79.2167638 C67.3553363,92.1047405 49.1813427,114.412738 49.1813427,114.412738 C55.3899629,117.78701 67.7548994,120.567399 67.7548994,120.567399 C67.7548994,120.567399 54.2353019,121.933925 43.4864936,117.44571 C37.855866,107.248742 37.7439751,93.6606197 37.7439751,93.6606197 C37.7439751,93.6606197 41.8528204,105.649828 45.8822166,111.454913 C45.8822166,111.454913 66.7727092,82.4205508 113.208753,68.0094677 C159.646782,82.4192267 180.535289,111.454913 180.535289,111.454913 C184.564685,105.649828 188.67353,93.6606197 188.67353,93.6606197 C188.67353,93.6606197 188.561639,107.248742 182.931012,117.44571"></path>
                            <path d="M113.215042,56.961732 C104.361758,58.4484243 91.4701404,66.171875 91.4701404,66.171875 C101.007349,54.6517479 113.215042,50.3019068 113.215042,50.3019068 C113.215042,50.3019068 125.422405,54.6517479 134.959613,66.171875 C134.959613,66.171875 122.067995,58.4484243 113.215042,56.961732"></path>
                            <path d="M145.13705,141.498941 C144.926178,139.594147 143.18227,138.591764 141.548596,138.863877 C139.803694,139.154198 139.298861,140.73987 139.298861,140.73987 C139.298861,140.73987 142.538731,142.386785 144.639499,143.299126 C144.639499,143.299126 145.258872,142.599311 145.13705,141.498941 Z M152.729409,145.48795 C160.262182,146.181475 168.168697,140.211202 168.168697,140.211202 C168.168697,140.211202 164.050914,148.950278 155.380363,151.111957 C146.78562,153.254436 140.064883,150.3317 133.813559,145.072828 C128.664592,140.741194 122.840638,143.4279 122.840638,143.4279 C127.495365,134.070445 136.138771,139.196239 136.555879,139.393538 C138.301774,135.426377 141.471796,134.634534 141.471796,134.634534 C139.298861,133.196173 138.595405,131.770723 138.595405,131.770723 C149.087328,134.361427 161.099709,132.890294 161.099709,132.890294 C156.667108,136.114274 150.681608,136.42545 150.681608,136.42545 C154.749073,141.059653 152.729409,145.48795 152.729409,145.48795 L152.729409,145.48795 Z"></path>
                        </g>
                        <path d="M161.275159,141.393008 C161.275159,141.393008 167.260659,141.081833 171.69326,137.857852 C171.69326,137.857852 159.680879,139.328986 149.188957,136.738281 C149.188957,136.738281 149.892413,138.163731 152.065347,139.602092 C152.065347,139.602092 148.895326,140.393935 147.149431,144.361096 C146.732323,144.163798 138.088917,139.038003 133.43419,148.395458 C133.43419,148.395458 139.258144,145.708753 144.407111,150.040387 C150.658435,155.299258 157.379171,158.221994 165.973914,156.079515 C174.644465,153.917836 178.762248,145.178761 178.762248,145.178761 C178.762248,145.178761 170.855734,151.149033 163.322961,150.455508 C163.322961,150.455508 165.342624,146.027211 161.275159,141.393008 Z M178.29714,136.873014 C178.29714,136.873014 196.570445,137.647643 211.679025,129.194584 C211.679025,129.194584 218.722855,137.354012 218.717227,149.944386 C218.7116,162.8125 211.436706,191.658501 211.317201,198.858581 C211.317201,198.858581 190.205906,188.460673 184.597458,164.510064 C184.597458,164.510064 194.114473,154.429952 196.363877,149.341234 L194.964248,158.36401 C194.964248,158.36401 198.687765,165.589579 206.42214,169.395855 C206.42214,169.395855 211.730998,150.397246 205.952066,139.566671 C205.952066,139.566671 198.95723,142.609905 191.69326,142.556608 C191.69326,142.556608 180.764367,161.283104 156.268869,175.693525 C156.268869,175.693525 152.53178,214.686507 115.048001,219.589182 C115.048001,219.589182 123.807601,212.253046 123.807601,185.6346 L123.807601,142.685712 C123.807601,142.685712 134.282309,139.376324 141.359243,130.252913 C141.359243,130.252913 152.210342,127.667505 157.253377,125.434653 C157.253377,125.434653 154.726562,125.247617 151.077198,125.117187 L123.807601,116.273835 L123.807601,90.4826536 C123.807601,90.4826536 147.28317,93.5570048 186.502913,120.049656 C180.017214,123.113083 169.262116,125.532309 169.262116,125.532309 C169.262116,125.532309 182.781713,126.898835 193.530522,122.41062 C199.161149,112.213652 199.27304,98.6255297 199.27304,98.6255297 C199.27304,98.6255297 195.164195,110.614738 191.134799,116.419823 C191.134799,116.419823 170.244306,87.3854608 123.808263,72.9743776 L123.808263,61.926973 C132.661216,63.4136653 145.552834,71.137116 145.552834,71.137116 C136.015625,59.6169889 123.808263,55.2671478 123.808263,55.2671478 C123.808263,55.2671478 111.600569,59.6169889 102.063361,71.137116 C102.063361,71.137116 109.430283,58.5540254 123.808263,49.5246292 L123.808263,11.4552436 C123.808263,11.4552436 180.938824,30.5511785 222.027278,104.692135 C222.027278,104.692135 212.079251,130.552503 178.29714,136.870034 L178.29714,136.873014 Z" id="Shape" fill="#C8C9C7" fill-rule="nonzero"></path>
                        <path d="M164.042638,0.550847458 L165.144333,6.52078919 C165.165188,6.69061176 165.292638,6.83891684 165.545882,6.83891684 L165.63129,6.83891684 C165.821968,6.83891684 165.948424,6.71146716 165.990797,6.60520392 L167.832693,2.68869174 L169.716962,6.60520392 C169.780853,6.753509 169.907309,6.83891684 170.077132,6.83891684 L170.161878,6.83891684 C170.373742,6.83891684 170.542572,6.69061176 170.56442,6.52078919 L171.680019,0.529329979 C171.723053,0.275092691 171.532707,0.0638903602 171.278469,0.0638903602 L170.452529,0.0638903602 C170.262182,0.0638903602 170.09236,0.233050847 170.049987,0.423397775 L169.586533,3.06971663 L168.232587,0.190677966 C168.190546,0.0847457627 168.062765,0.000331038136 167.893935,0.000331038136 L167.766486,0.000331038136 C167.575808,0.000331038136 167.470538,0.0847457627 167.406978,0.211533369 L166.115599,3.06971663 L165.607124,0.402873411 C165.587262,0.233050847 165.375397,0.0638903602 165.206568,0.0638903602 L164.444518,0.0638903602 C164.169756,0.0638903602 163.999934,0.296610169 164.041976,0.550847458 L164.042638,0.550847458 Z M159.957296,0.465770657 L159.957296,5.16585011 L158.602357,5.16585011 C158.390162,5.16585011 158.199815,5.33567267 158.199815,5.56839248 L158.199815,6.33044227 C158.199815,6.54230667 158.390162,6.73298464 158.602357,6.73298464 L162.941936,6.73298464 C163.174656,6.73298464 163.344478,6.54230667 163.344478,6.33044227 L163.344478,5.56839248 C163.344478,5.33567267 163.174656,5.16585011 162.941936,5.16585011 L161.586997,5.16585011 L161.586997,0.465770657 C161.586997,0.254568326 161.39665,0.0638903602 161.185448,0.0638903602 L160.359838,0.0638903602 C160.126126,0.0638903602 159.957296,0.254568326 159.957296,0.465770657 L159.957296,0.465770657 Z" id="Shape" fill="#FFFFFF" fill-rule="nonzero"></path>
                    </g>
                </g>
            </g>
        </g>
    </g>
</svg>