<?xml version="1.0" encoding="UTF-8" standalone="no"?>
<svg width="250px" height="250px" viewBox="0 0 250 250" version="1.1" xmlns="http://www.w3.org/2000/svg" xmlns:xlink="http://www.w3.org/1999/xlink">
    <!-- Generator: Sketch 47.1 (45422) - http://www.bohemiancoding.com/sketch -->
    <title>MEMP</title>
    <desc>Created with Sketch.</desc>
    <defs></defs>
    <g id="Page-1" stroke="none" stroke-width="1" fill="none" fill-rule="evenodd">
        <g id="MEMP" fill-rule="nonzero">
            <g id="Memphis_Tigers_logo" transform="translate(0.000000, 15.000000)">
                <path d="M6.76864754,49.1086066 L6.76864754,100.151639 L17.4346311,100.151639 L17.4346311,166.809426 L6.76864754,166.809426 L6.76864754,217.469262 L79.5227459,217.469262 L79.5227459,191.94877 L91.5206967,210.803689 L101.997131,193.090984 L101.997131,217.468033 L176.271721,217.468033 L176.271721,168.330738 L165.608197,168.330738 L165.608197,144.713934 C165.608197,144.713934 170.941189,143.189857 173.226025,139.001844 C173.226025,139.001844 179.319877,134.050615 178.559016,129.860041 C178.559016,129.860041 181.604508,126.430123 180.462193,122.242213 C180.462193,122.242213 183.510348,121.478893 181.222951,115.385246 C181.222951,115.385246 181.98627,108.528279 175.892623,106.243443 C175.892623,106.243443 182.74959,110.813115 195.318852,108.14918 C195.318852,108.14918 201.794262,117.670082 209.793852,120.718443 C209.793852,120.718443 217.790779,127.954508 219.696516,128.33627 C219.696516,128.33627 217.41168,138.238934 228.83832,141.28709 C228.83832,141.28709 233.410451,143.571926 238.740984,137.857172 C238.740984,137.857172 250.170287,140.905328 248.646311,126.430533 C248.646311,126.430533 251.694467,121.479303 248.264652,116.909631 C248.264652,116.909631 250.549488,109.291803 243.69498,103.958811 C243.69498,103.958811 237.217111,96.720082 228.838422,91.7686475 C228.838422,91.7686475 227.314344,83.7690574 223.887193,79.1993852 C223.887193,79.1993852 217.411783,72.7239754 215.506045,71.1997951 C215.506045,71.1997951 218.172439,66.630123 213.981967,59.0096311 C213.981967,59.0096311 217.030123,51.7735656 211.697131,44.5372951 C211.697131,44.5372951 215.127049,37.2985656 211.697131,31.204918 C211.697131,31.204918 207.127459,28.920082 197.985656,28.1567623 C197.985656,28.1567623 186.938115,22.8237705 179.701844,23.5870902 C179.701844,23.5870902 166.369467,12.1577869 141.228484,12.9211066 C141.228484,12.9211066 125.232172,9.11209016 108.091189,19.3965164 C108.091189,19.3965164 88.664959,27.3961066 60.4784836,52.1547131 L56.6694672,48.3456967 L50.5731557,47.9640369 C50.5731557,47.9640369 45.2401639,38.061373 31.5284836,29.2984631 C31.5284836,29.2984631 22.004918,24.3472336 29.2436475,22.4439549 C29.2436475,22.4439549 37.6223361,21.6806352 41.0493852,24.728791 C41.0493852,24.728791 47.9063525,31.2042008 54.3817623,28.1560451 C54.3817623,28.1560451 63.1444672,25.871209 60.4780738,14.0628074 C60.4780738,14.0628074 55.5241803,3.39682377 39.1461066,1.49354508 C39.1461066,1.49354508 26.1952869,-3.83944672 11.719877,6.44477459 C11.719877,6.44477459 2.19631148,9.87202869 0.672336066,22.8228484 C0.672336066,22.8228484 -2.37315574,31.9646516 9.05348361,43.773668 L13.6256148,49.1066598 L6.76864754,49.1066598 L6.76864754,49.1086066 Z" id="Shape" fill="#FFFFFF"></path>
                <path d="M30.0614754,4.93015143 C21.7561475,5.0819957 14.2358607,8.41334816 8.79713115,15.1000285 C4.82684426,19.8498236 4.53155738,27.9584301 6.92397541,33.43384 C8.5147541,37.741217 11.8997951,40.7842498 15.3168033,43.7371186 C17.0194672,45.2125285 18.7479508,46.6735941 20.2909836,48.2678564 C21.8114754,49.8375285 23.1434426,51.536299 24.0942623,53.4871186 L11.1743852,53.4871186 L11.1743852,95.8908072 L21.5040984,95.8908072 L21.5040984,148.700233 L21.5040984,172.003512 L11.1743852,172.003512 L11.1743852,213.13466 L74.6702869,213.13466 L74.6702869,172.003512 L63.944877,172.003512 L63.944877,152.700233 L91.1805328,200.831381 L107.614959,172.243266 L107.614959,213.13466 L171.471516,213.13466 L171.471516,172.003512 L160.785041,172.003512 L160.785041,148.187938 L160.785041,141.376463 L161.03709,141.081381 C161.68668,141.261709 162.326025,141.214578 162.918238,141.116217 C163.545287,141.011709 164.172336,140.843676 164.774795,140.804742 C166.873156,140.474824 167.71127,138.987119 168.448975,137.622365 C168.633402,137.286299 168.81373,136.948184 169.014549,136.622365 C169.205123,136.304742 169.414139,136.005561 169.649795,135.741217 C170.119057,135.216627 170.71332,134.814987 171.571926,134.640807 L171.770697,134.501463 C171.977664,134.155151 172.201025,133.798594 172.416189,133.431791 C172.631352,133.054742 172.83627,132.669496 172.996107,132.28425 C173.323975,131.501463 173.504303,130.661299 173.244057,129.841627 L173.119057,129.446135 L171.7625,130.411299 C171.285041,130.530151 170.707172,130.778102 170.145697,130.878512 C169.815779,130.935889 169.522746,130.935889 169.276844,130.831381 C170.391598,130.505561 171.446926,129.997365 172.48791,129.23302 C173.98791,127.730971 175.625205,126.036299 175.46127,123.675643 L175.440779,123.337528 L175.108811,123.399004 C174.475615,123.50761 173.801434,123.638758 173.155943,123.675643 C172.750205,123.698184 172.375205,123.685889 172.035041,123.610069 L172.295287,123.43384 C172.543238,123.265807 172.778893,123.136709 173.096516,123.050643 C175.444877,121.835479 176.301434,119.112119 176.377254,117.011709 L176.389549,116.675643 L176.053484,116.698184 C175.459221,116.739168 174.93668,116.972774 174.469467,117.202283 C174.23791,117.312938 174.010451,117.435889 173.780943,117.53425 C173.565779,117.63466 173.344467,117.714578 173.080123,117.780151 C172.43873,118.011709 171.742008,117.970725 171.342418,117.679742 C173.473566,116.944086 175.834221,115.564987 176.881352,113.245315 L176.977664,113.032201 L176.797336,112.888758 C175.459221,111.78425 173.91209,111.157201 172.274795,110.771955 C170.694877,110.396955 169.014549,110.241217 167.328074,110.091627 C165.832172,108.331381 163.022746,108.329332 161.092418,108.585479 C161.147746,103.556791 160.805533,100.144906 161.356762,95.3785121 L165.018648,95.1592498 C167.21127,94.763758 168.871107,95.6879383 170.46332,96.9789219 C171.268648,97.6346596 172.043238,98.366217 172.83627,99.0485941 C173.629303,99.7289219 174.465369,100.372365 175.385451,100.825233 C181.850615,104.780151 190.350615,105.95843 197.481762,103.075233 C201.1375,108.872365 206.578074,114.728922 212.78709,117.550643 C213.606762,118.480971 214.508402,119.294496 215.430533,120.048594 C216.352664,120.814987 217.33627,121.521955 218.278893,122.224824 C220.123156,123.603922 221.885451,124.95843 223.217418,126.720725 C222.192828,130.327283 224.180533,133.353922 226.680533,135.530151 C228.914139,136.605971 231.905943,137.415397 234.467418,136.214578 L234.631352,136.038348 C235.266598,134.173594 236.270697,134.269906 237.541189,134.605971 C237.889549,134.694086 238.23791,134.798594 238.565779,134.88466 C238.934631,134.976873 239.303484,135.050643 239.672336,135.077283 C240.389549,135.126463 241.147746,134.98302 241.823975,134.368266 C243.975615,133.380561 244.83627,131.130561 244.692828,128.870315 C244.733811,128.388758 244.549385,127.93384 244.323975,127.544496 C244.119057,127.165397 243.832172,126.794496 243.627254,126.427692 C243.278893,125.792447 243.155943,125.294496 244.282992,124.55884 C245.06168,122.466627 244.71332,119.915397 243.278893,118.155151 C244.016598,116.136709 243.996107,113.579332 243.934631,111.515807 C243.893648,109.556791 242.541189,108.567037 241.291189,107.716627 C240.96332,107.505561 240.655943,107.296545 240.369057,107.077283 C240.06168,106.864168 239.795287,106.644906 239.549385,106.40925 C239.098566,105.939987 238.750205,105.407201 238.627254,104.587528 C237.725615,103.173594 236.598566,102.173594 235.369057,101.378512 C234.774795,100.98302 234.139549,100.638758 233.483811,100.312938 C232.848566,99.9932662 232.192828,99.6940859 231.53709,99.388758 C228.955123,98.1817908 226.496107,96.9481842 224.959221,94.0424465 C223.114959,90.1531023 221.475615,86.1408072 219.303484,82.3785121 C217.172336,78.6572006 214.528893,75.1735941 210.73791,72.3129383 C212.110861,68.1715449 212.110861,63.2535121 208.729713,59.9215449 C209.467418,56.2104793 209.692828,52.0383482 208.422336,48.2903973 C205.942828,46.513758 206.270697,44.7022826 207.131352,42.6326105 C207.56168,41.5629383 208.135451,40.468676 208.504303,39.3334301 C208.873156,38.1797416 209.057582,36.9358891 208.68873,35.6592498 C208.23791,34.5178564 207.33627,32.9748236 205.778893,32.7145777 C200.147746,33.4297416 195.301434,31.9707252 190.477664,30.2494137 C188.057582,29.388758 185.657992,28.4666268 183.18668,27.7309711 C180.719467,26.9994137 178.176434,26.4502334 175.469467,26.3272826 L166.539139,21.7883482 C146.528893,13.3121186 120.041189,15.4354793 102.379303,27.4235941 C94.4797131,31.4297416 87.0432377,36.6920367 79.7747951,42.2678564 C72.5985656,47.7699055 65.5739754,53.5895777 58.4018443,58.8252334 L55.0637295,53.4830203 L48.9653689,53.4830203 L45.0985656,48.1264629 C41.7604508,43.5629383 37.6354508,40.3252334 33.4469262,37.3334301 C31.3567623,35.8416268 29.2440574,34.4072006 27.1928279,32.8949055 C25.1497951,31.3908072 23.1764344,29.8129383 21.3526639,28.0281023 C20.4202869,26.7391678 20.9366803,24.7145777 21.5452869,23.2658072 C24.1989754,18.8621186 29.3629098,17.8754383 33.932582,17.9498236 C36.864959,17.6578154 39.1641393,18.9031023 41.4797131,20.3559711 C42.6477459,21.0854793 43.7993852,21.8600695 45.0145492,22.4932662 C46.2420082,23.1305613 47.5452869,23.6346596 49.0370902,23.8129383 C51.7645492,23.8129383 54.5780738,22.7207252 55.7194672,19.9379383 C56.4366803,17.22134 55.3834016,14.7524875 53.5821721,12.8748236 C48.4981557,8.4092498 42.3362705,6.4024875 35.9202869,5.33445471 C33.9387295,5.03281537 31.9838115,4.89633996 30.069877,4.93015143 L30.0616803,4.93015143 L30.0614754,4.93015143 Z M16.5415984,58.8420367 L51.9821721,58.8420367 L91.4780738,128.665807 L92.1665984,129.35843 L92.3612705,129.010069 C97.1256148,120.600233 101.523156,112.046955 106.129713,103.630971 L107.285451,106.561299 C102.58668,116.317447 96.8653689,125.641217 91.5620902,135.169906 L50.1297131,62.2641678 L19.6030738,62.2641678 L19.6030738,87.4342498 L29.6461066,87.4342498 L29.6461066,179.526463 L19.5231557,179.526463 L19.5518443,204.692447 L67.060041,204.692447 L67.060041,179.526463 L55.8817623,179.526463 L55.8817623,123.878922 L70.4084016,148.397365 L91.1891393,183.469086 L111.365369,148.696545 L118.148156,137.001873 L127.053893,121.194496 L127.053893,179.526463 L116.023156,179.526463 L116.023156,204.692447 L163.221926,204.692447 L163.221926,179.526463 L152.648156,179.526463 L152.648156,135.266217 L155.541598,138.415807 L155.541598,176.973184 L166.039549,176.973184 L166.039549,207.725233 L113.260861,207.725233 L113.260861,176.973184 L123.664549,176.973184 L123.664549,148.18425 L123.664549,133.53261 L114.930943,148.696545 L91.185041,189.952692 L66.7956967,148.364578 L58.8592213,134.829742 L58.8469262,176.973184 L69.8120902,176.973184 L69.8120902,207.725233 L16.5415984,207.725233 L16.5422131,176.973184 L26.7362705,176.973184 L26.7362705,90.1842498 L16.5422131,90.1842498 L16.5422131,58.8420367 L16.5415984,58.8420367 Z M118.648156,153.055151 L118.648156,172.003922 L107.758811,172.003922 L118.648156,153.055151 Z" id="Shape" fill="#0D3182"></path>
                <path d="M32.6864754,7.3877334 C31.477459,8.2252334 30.5758197,9.25740553 29.7377049,10.361299 C28.8688525,11.50884 28.0881148,12.7100695 27.1311475,13.8192908 L26.8319672,13.9115039 C25.9836066,13.7065859 25.9118852,13.9885531 25.9118852,14.5598645 C25.9118852,14.9055613 25.9610656,15.2992088 25.9631148,15.6604793 C25.9651639,15.8602744 25.9569672,16.0772826 25.9118852,16.2848645 C25.9754098,16.2643727 26.0409836,16.2395777 26.1106557,16.20884 L26.4385246,16.0447006 C26.5491803,15.9959301 26.6762295,15.9447006 26.8155738,15.9166268 C27.2397541,15.7373236 27.6987705,15.6432662 28.1516393,15.5844547 C28.6086066,15.5281023 29.0819672,15.4998236 29.545082,15.4563809 C30.4241803,15.3744137 31.1987705,15.2389629 31.7909836,14.7598645 C32.0389344,13.1410121 33.2192623,11.9953154 34.2991803,10.9578154 C34.579918,10.6914219 34.8565574,10.426258 35.1209016,10.1572006 C35.3790984,9.89347111 35.6209016,9.62789734 35.8360656,9.34879898 C36.192623,8.88527439 36.4631148,8.40617602 36.5881148,7.87605307 C35.2868852,7.72994652 33.9877049,7.52851209 32.6864754,7.3877334 L32.6864754,7.3877334 Z M40.0102459,8.69633996 L39.6516393,9.05658586 C39.4979508,9.67912684 39.2315574,10.4326105 39.1352459,11.1498236 C39.0491803,11.7518727 39.0983607,12.2516678 39.3709016,12.6307662 C40.7069672,11.1502334 42.4528689,10.6496186 44.2090164,10.4293318 C45.1946721,10.6983891 45.9610656,11.5123236 45.682377,12.6266678 C45.5286885,12.8930613 45.3770492,13.146135 45.2028689,13.4151924 C45.0245902,13.6942908 44.8114754,14.0006432 44.5655738,14.2516678 C44.1168033,14.7076105 43.4795082,15.0414219 42.8094262,14.5598645 C42.6557377,14.6955203 42.4877049,14.8334301 42.3237705,14.9639629 C42.0881148,15.158635 41.8422131,15.3533072 41.6209016,15.5684711 C41.2418033,15.9322006 40.9754098,16.2949055 40.9118852,16.6969547 C41.5553279,16.971135 42.1741803,17.3055613 42.7807377,17.6615039 C43.4385246,18.0508482 44.0860656,18.4666268 44.7418033,18.8580203 C46.0102459,19.6121186 47.2786885,20.2494137 48.7192623,20.4543318 C49.2520492,20.0035121 49.5163934,19.4768727 49.4405738,18.8621186 C48.397541,17.8401924 48.6188525,16.733635 49.0368852,15.7524875 C49.2418033,15.2709301 49.5061475,14.7924465 49.7172131,14.3235941 C49.8934426,13.9266678 50.0102459,13.573799 50.0286885,13.2510531 C46.8606557,11.1940859 43.6413934,9.45720061 40.0102459,8.69633996 L40.0102459,8.69633996 Z M23.7889344,9.00453668 C20.0368852,9.31191373 16.6653689,11.1205203 14.0321721,13.6793318 C15.3538934,14.0455203 16.5397541,14.7225695 17.6540984,15.5244137 C18.8012295,16.3465449 19.9016393,17.3158072 21.0163934,18.2379383 C21.1495902,17.9100695 21.2397541,17.5539219 21.3012295,17.1772826 C21.3852459,16.6598645 21.4159836,16.1223645 21.4610656,15.5844547 C21.545082,14.5008482 21.6598361,13.3354793 22.3217213,12.3826105 L22.5286885,12.086299 L23.0696721,12.6227744 L23.7930328,9.00453668 L23.7889344,9.00453668 L23.7889344,9.00453668 Z M9.6454918,21.7207252 L8.59303279,22.5567908 C7.48135246,25.263758 7.6,29.0957252 8.96516393,31.446135 C9.42110656,31.093676 9.78053279,30.6346596 10.1057377,30.1203154 C10.4977459,29.4973645 10.8231557,28.8129383 11.1663934,28.1674465 C11.8631148,26.8621186 12.7088115,25.5834301 14.4764344,25.4133482 L14.7284836,25.3908072 L14.7965164,25.6305613 C14.8938525,25.9625285 14.8641393,26.2719547 14.792623,26.5506432 C14.7565574,26.68384 14.7141393,26.8149875 14.6604508,26.9420367 L14.5043033,27.2944957 C14.4018443,27.5240039 14.3284836,27.7043318 14.3002049,27.8723645 C15.9856557,26.6735941 17.3006148,24.7617088 17.4620902,22.6244137 C14.9235656,22.2514629 12.0532787,22.6879383 9.86577869,23.2678564 L9.57745902,23.3457252 L9.49754098,23.0526924 C9.35655738,22.5403973 9.48053279,22.1449055 9.64959016,21.7207252 L9.6454918,21.7207252 L9.6454918,21.7207252 Z M122.131148,22.7207252 C115.422131,24.8129383 107.411885,29.4994137 106.625,37.2330203 C105.557377,40.4235941 105.02459,43.8395777 104.713115,47.3395777 C104.397541,50.843676 104.305328,54.411299 104.116803,57.8334301 C104.067623,58.0444957 104.022541,58.2350695 103.963115,58.4215449 C103.901639,58.616217 103.819672,58.8231842 103.706967,59.0096596 C103.469262,59.3990039 103.067623,59.7104793 102.446721,59.5526924 L102.258197,59.4215449 C98.3790984,53.3026924 96.5348361,46.321135 96.0143443,38.7699055 C95.0983607,39.6797416 94.3831967,40.7330203 93.6782787,41.7985941 C93.2663934,42.4215449 92.8606557,43.0383482 92.432377,43.6203154 C92,44.2063809 91.5368852,44.7658072 91.0040984,45.2576105 L90.7561475,45.4891678 L90.5553279,45.2166268 C89.977459,44.4317908 89.7786885,43.491217 89.6188525,42.5998236 C89.5368852,42.1592498 89.4651639,41.7104793 89.3586066,41.2760531 C89.2663934,40.888758 89.1516393,40.5240039 88.9877049,40.1817908 C88.6516393,40.0731842 88.4282787,40.1756432 88.182377,40.3867088 C88.0266393,40.5199055 87.8790984,40.6817908 87.7233607,40.8313809 C87.5819672,40.968676 87.4180328,41.1141678 87.2254098,41.2268727 C81.4754098,52.8313809 83.5717213,69.036299 86.2295082,81.4871186 L85.8135246,82.7781023 C85.2643443,83.3272826 84.8196721,83.1305613 84.5245902,82.8231842 L84.3442623,82.6141678 L84.1967213,82.4194957 C84.0881148,82.2883482 84.0204918,82.2248236 83.9733607,82.2022826 L83.8196721,82.0301514 C81.8586066,76.5199055 79.2991803,71.3252334 75.4754098,66.661299 L75.0942623,66.4850695 C74.9405738,66.4174465 74.795082,66.3641678 74.6598361,66.3375285 C74.4139344,66.286299 74.2397541,66.3272826 74.0942623,66.5649875 C73.875,66.8477744 73.7315574,67.1510531 73.6106557,67.4953154 C73.4856557,67.8457252 73.3893443,68.2145777 73.2827869,68.571135 C73.0635246,69.2903973 72.7663934,70.0772826 72.0020492,70.4830203 L71.7131148,70.6326105 L71.5860656,70.3395777 C71.1680328,69.4092498 70.7397541,68.4604793 70.2766393,67.513758 C69.8155738,66.5793318 69.3155738,65.6531023 68.7520492,64.7678564 C67.6331967,63.0158072 66.2663934,61.4420367 64.4282787,60.2985941 C63.1045082,59.8703154 61.7602459,60.2842498 60.6434426,60.9707252 C66.8913934,66.4666268 70.8647541,73.2309711 73.5655738,80.3539219 C73.7028689,79.4625285 73.852459,78.4748236 74.0819672,77.4809711 C74.4180328,76.0281023 74.9282787,74.536299 75.795082,73.30884 C76.9221311,72.9051514 77.8872951,73.7658072 78.4733607,74.4256432 C81.9508197,81.013758 83.7295082,88.241217 84.6844262,95.7740039 L88.1065574,95.7740039 C88.4057377,93.4850695 88.5491803,91.1285121 88.522541,88.7022826 C88.5737705,88.4522826 88.6680328,88.2043318 88.8401639,88.0178564 C89.0286885,87.8129383 89.3217213,87.6858891 89.6803279,87.8067908 L89.8565574,87.9584301 C91.0614754,90.4399875 92.0553279,93.1367088 93.0614754,95.7740039 L93.6864754,95.7781023 L93.057377,95.7781023 L93.2889344,96.3785121 C94.1147541,98.5260531 94.954918,100.612119 95.9385246,102.495315 C95.4364754,100.243266 94.9057377,98.0014629 94.317623,95.7740039 L94.3135246,95.7740039 C92.6782787,89.5690859 90.6372951,83.5178564 87.7868852,77.8682662 C87.6618852,77.5383482 87.5245902,76.9317908 87.602459,76.4440859 C87.692623,75.8846596 88.0840164,75.4256432 88.8995902,75.6264629 C91.5778689,78.8969547 94.0143443,81.7084301 97.0840164,84.1756432 C97.0717213,83.2453154 97.1967213,82.0977744 97.8811475,81.3457252 C98.9733607,81.0670367 99.5307377,81.5608891 100.006148,82.1141678 C102.088115,86.8867088 104.721311,91.5608891 108.157787,95.7740039 L111.747951,95.7781023 L108.157787,95.7822006 C110.084016,98.1510531 112.266393,100.378512 114.745902,102.399004 L115.762295,98.6592498 C115.901639,98.0014629 116.125,97.3621186 116.383197,96.7268727 C116.516393,96.4072006 116.657787,96.0854793 116.803279,95.7740039 L116.010246,95.7781023 C115.711066,96.4133482 115.442623,97.0629383 115.19877,97.7084301 L114.969262,98.3129383 L114.653689,97.7514629 C114.282787,97.1018727 113.909836,96.4440859 113.545082,95.7822006 L113.540984,95.7781023 C107.663934,85.2145777 102.411885,74.3498236 100.540984,62.0506432 L101.043033,60.5424465 L101.334016,60.6592498 C101.864754,60.8764629 102.372951,61.1531023 102.866803,61.4625285 C103.35041,61.7678564 103.821721,62.1018727 104.295082,62.4317908 C105.145492,63.0240039 105.97541,63.5854793 106.872951,63.9563809 C107.268443,62.4031023 107.463115,60.6735941 107.870902,59.0567908 C108.313525,57.3026924 109.020492,55.6264629 110.547131,54.4625285 L111.028689,54.093676 L111.032787,54.6981842 C111.106557,60.3293318 111.340164,66.3764629 112.848361,71.5813809 C113.491803,73.3969547 114.094262,75.2453154 114.85041,77.0117088 C115.567623,78.6879383 116.413934,80.2781023 117.55123,81.6776924 C117.266393,78.7965449 117.125,75.9440859 117.19877,72.9502334 C117.270492,72.741217 117.30123,72.6346596 117.340164,72.4891678 C117.377049,72.3334301 117.415984,72.1715449 117.471311,72.0178564 C117.596311,71.6797416 117.834016,71.321135 118.356557,71.2166268 L118.633197,71.3047416 C119.422131,72.1326105 119.989754,73.0731842 120.489754,74.0014629 C120.889344,74.7453154 121.245902,75.4994137 121.653689,76.2002334 C122.534836,74.3867088 123.629098,72.638758 125.120902,71.1490039 C125.612705,70.968676 125.901639,71.0485941 126.133197,71.1490039 L126.432377,71.2842498 C126.522541,71.3252334 126.602459,71.3518727 126.680328,71.3641678 L126.893443,71.4010531 L126.928279,71.6121186 C127.420082,74.4194957 127.875,77.2453154 128.565574,79.9645777 C129.252049,82.6674465 130.17418,85.2514629 131.588115,87.6059711 C133.946721,90.0854793 135.657787,92.8170367 136.846311,95.7781023 L136.85041,95.7781023 C138.02459,98.6879383 138.686475,101.804742 138.952869,105.112119 L138.907787,105.288348 C138.713115,105.626463 138.54918,106.036299 138.383197,106.485069 C138.213115,106.939988 138.047131,107.407201 137.848361,107.837528 C137.44877,108.704332 136.870902,109.532201 135.782787,109.622365 L135.485656,109.646955 L135.459016,109.349824 C135.092213,105.524004 134.151639,101.935889 132.163934,98.7801514 C131.995902,98.911299 131.862705,99.0834301 131.743852,99.2965449 C131.659836,99.4502334 131.588115,99.6141678 131.520492,99.7883482 L131.315574,100.349824 C131.040984,101.10802 130.67418,101.997365 129.602459,102.306791 L129.397541,102.366217 L129.27459,102.194086 C128.377049,100.946135 127.758197,99.5854793 127.276639,98.1797416 C127.008197,97.3928564 126.780738,96.5875285 126.57377,95.7781023 L122.602459,95.7822006 C122.194672,98.6879383 122.047131,101.698184 122.139344,104.796545 L122.879098,105.724824 C126.252049,105.25761 129.192623,103.993266 131.92418,101.925643 L132.10041,101.794496 L132.969262,102.415397 L132.940574,102.597774 C132.192623,107.081381 130.428279,111.120315 128.153689,114.993266 C130.94877,115.75761 133.983607,115.503512 136.543033,114.296545 L136.715164,114.212528 C137.860656,115.15925 137.985656,116.401053 137.848361,117.562938 C137.731557,118.536299 137.42418,119.528102 137.215164,120.325233 C140.54918,120.077283 143.77459,119.460479 146.567623,117.954332 L146.889344,117.974824 C148.05123,118.800643 147.522541,119.792447 146.928279,120.456381 C146.77459,120.626463 146.608607,120.788348 146.444672,120.942037 L146.05123,121.288348 C147.133197,120.673594 149.534836,119.749414 149.534836,119.749414 C150.381148,119.667447 151.321721,119.536299 152.235656,119.536299 C153.159836,119.536299 154.110656,119.669496 154.868852,120.175643 L154.997951,120.372365 C155.141393,121.18384 154.715164,121.68384 154.237705,122.046545 C154.014344,122.216627 153.758197,122.370315 153.516393,122.530151 C153.282787,122.68384 153.084016,122.831381 152.944672,122.991217 C151.284836,124.724824 150.762295,127.33343 151.55123,129.661299 C152.739754,131.874414 155.012295,133.745315 157.446721,133.817037 C159.616803,134.435889 160.012295,133.43384 160.440574,131.978922 C160.55123,131.601873 160.657787,131.214578 160.788934,130.835479 C160.92418,130.450233 161.088115,130.067037 161.313525,129.718676 C161.737705,129.064987 162.364754,128.55884 163.358607,128.380561 C163.295082,126.442037 164.086066,124.706381 165.606557,123.491217 C164.991803,122.653102 164.866803,121.837528 165.002049,121.056791 C165.07377,120.636709 165.221311,120.235069 165.391393,119.851873 C165.559426,119.476873 165.756148,119.105971 165.946721,118.743266 C166.69877,117.317037 167.202869,116.226873 165.483607,115.046545 C165.20082,114.544496 165.163934,114.165397 165.178279,113.804742 C165.192623,113.462528 165.260246,113.116217 165.319672,112.776053 C165.42623,112.163348 165.473361,111.669496 165.178279,111.204332 C160.545082,110.665397 156.106557,112.798594 152.108607,115.056791 L151.836066,115.073184 C150.811475,114.610069 150.670082,113.536299 150.690574,112.577283 C150.69877,112.091627 150.752049,111.58343 150.782787,111.10802 C150.809426,110.73302 150.815574,110.403102 150.786885,110.126463 C149.397541,110.003512 148.192623,110.614168 146.969262,111.464578 C146.317623,111.911299 145.684426,112.415397 145.030738,112.888758 C144.383197,113.360069 143.706967,113.812938 142.985656,114.144906 C142.77459,114.298594 142.512295,114.499414 142.217213,114.689987 C141.909836,114.88466 141.557377,115.079332 141.20082,115.189987 C140.434426,115.429742 139.635246,115.265807 139.272541,114.128512 L139.297131,113.892856 C142.053279,108.829332 141.842213,101.872365 139.532787,96.6981842 C139.282787,96.3969547 139.036885,96.093676 138.795082,95.7822006 L138.795082,95.7781023 L138.790984,95.7781023 C130.204918,84.8026924 126.114754,69.1592498 133.288934,56.2309711 L133.577869,55.911299 C133.665984,55.821135 133.770492,55.7248236 133.893443,55.6469547 C134.17418,55.4707252 134.543033,55.4379383 134.85041,55.8067908 L134.918033,55.991217 C134.993852,59.2145777 134.971311,62.7145777 135.493852,66.0301514 C135.987705,69.1715449 136.967213,72.1182662 138.956967,74.4748236 C139.120902,74.0977744 139.254098,73.7084301 139.415984,73.3498236 C139.657787,72.8313809 139.977459,72.3231842 140.67623,72.0567908 L140.42418,70.8682662 C140.161885,70.9625285 139.893443,70.8723645 139.659836,70.7043318 C139.581967,70.6469547 139.508197,70.5854793 139.428279,70.5158072 L139.223361,70.3313809 C139.088115,70.2084301 139.006148,70.1510531 138.94877,70.1367088 L138.776639,70.0076105 C133.963115,62.6469547 134.936475,51.2903973 139.252049,43.8334301 C137.256148,45.5178564 135.684426,48.1059711 134.741803,50.4973645 C134.559426,50.8416268 134.409836,51.2207252 134.284836,51.593676 C134.157787,51.9789219 134.045082,52.3785121 133.928279,52.7699055 C133.690574,53.5608891 133.411885,54.3805613 132.885246,55.1121186 C132.342213,55.3334301 132.05123,55.2145777 131.827869,55.0301514 C131.727459,54.9481842 131.641393,54.8518727 131.567623,54.7678564 C128.278689,57.9358891 127.602459,62.2104793 126.928279,66.6182662 C126.815574,66.8949055 126.772541,67.1469547 126.752049,67.4543318 C126.731557,67.7699055 126.731557,68.0957252 126.70082,68.3990039 C126.641393,69.0240039 126.436475,69.7391678 125.520492,69.8395777 L125.264344,69.8682662 L125.196721,69.6203154 C122.516393,59.80884 124.569672,48.7514629 132.016393,41.5834301 C132.520492,40.6940859 133.245902,40.0403973 134.016393,39.4973645 C134.782787,38.9584301 135.618852,38.5117088 136.375,38.0301514 C137.844262,37.0895777 138.891393,36.0854793 138.57582,33.9830203 C139.57377,30.6551514 142.795082,28.513758 145.877049,27.991217 C145.393443,26.821135 145.844262,25.7924465 146.469262,24.9256432 C146.809426,24.4563809 147.209016,24.0178564 147.581967,23.5977744 C147.741803,23.4133482 147.891393,23.2350695 148.020492,23.0690859 C136.534836,25.9420367 126.942623,37.4399875 122.342213,47.9031023 C122.157787,48.1305613 122.092213,48.321135 122.057377,48.571135 C122.02459,48.843676 122.036885,49.1346596 122.026639,49.411299 C122.008197,49.9994137 121.89959,50.7166268 121.006148,50.9645777 L120.709016,51.0444957 L120.633197,50.7494137 C118.391393,42.1531023 121.010246,33.7944957 125.079918,26.8785121 L120.57377,28.0240039 L119.360656,27.3149875 L119.415984,27.0957252 C119.659836,26.0772826 120.243852,25.2371186 120.846311,24.4543318 C121.143443,24.0670367 121.454918,23.6858891 121.741803,23.2883482 C121.877049,23.1039219 122.006148,22.9174465 122.127049,22.7289219 L122.131148,22.7207252 L122.131148,22.7207252 Z M88.1065574,95.7740039 L84.6844262,95.7781023 C85.1127049,99.1551514 85.3770492,102.589578 85.557377,106.060889 C86.7807377,102.782201 87.6372951,99.3580203 88.1065574,95.7740039 Z M158.879098,25.286299 C155,25.2760531 151.147541,26.116217 148.053279,27.9666268 C150.594262,28.2596596 153.303279,29.8826105 155.510246,31.5383482 C159.936475,29.9092498 165.010246,28.5465449 169.872951,27.7002334 C166.668033,26.1531023 162.758197,25.2944957 158.879098,25.286299 Z M18.9672131,30.2002334 C16.7973361,30.866217 14.7358607,32.9174465 13.4678279,35.0035121 C12.625,36.3416268 12.5288934,37.9420367 13.819877,38.8252334 C14.8956967,38.1182662 15.894877,37.2043318 16.9577869,36.4645777 C18.097541,35.6735941 19.352459,35.0424465 20.8831967,35.0752334 C21.942623,34.9440859 22.3893443,33.8354793 22.4159836,32.7453154 C22.1905738,32.468676 21.9590164,32.1756432 21.7172131,31.8867088 C21.4467213,31.571135 21.1721311,31.2699055 20.8790984,31.013758 C20.3012295,30.5055613 19.6782787,30.1797416 18.9672131,30.2002334 L18.9672131,30.2002334 Z M176.862705,30.7494137 C174.569672,30.8026924 172.354508,31.0342498 170.237705,31.4809711 C170.827869,31.4276924 171.434426,31.4051514 172.05123,31.4215449 L172.286885,31.5424465 L172.69877,31.9010531 C172.881148,32.0731842 173.069672,32.3416268 172.940574,32.7309711 L172.747951,32.9215449 C170.467213,33.68384 168.168033,34.3477744 165.946721,35.1715449 C163.747951,35.991217 161.637295,36.9625285 159.696721,38.3375285 C159.493852,38.5752334 159.264344,38.8416268 159.038934,39.1182662 C158.809426,39.4031023 158.594262,39.6899875 158.430328,39.9748236 C158.180328,40.4072006 158.079918,40.7678564 158.147541,41.05884 C160.620902,39.0383482 163.440574,37.7145777 166.29918,36.5403973 C167.262295,36.1531023 168.327869,35.7309711 169.405738,35.4789219 C170.495902,35.2268727 171.639344,35.1408072 172.735656,35.4645777 L173.10041,35.571135 L172.504098,36.6531023 C170.42623,38.0629383 168.25,39.1653973 166.184426,40.4707252 C164.137295,41.7617088 162.219262,43.2350695 160.651639,45.3621186 L160.385246,45.7453154 C160.295082,45.8805613 160.219262,46.0117088 160.172131,46.1305613 C160.106557,46.30884 160.108607,46.4358891 160.256148,46.5506432 C161.665984,46.3805613 162.813525,45.5752334 163.942623,44.5895777 C164.528689,44.0793318 165.098361,43.536299 165.680328,43.0281023 C166.270492,42.5158072 166.889344,42.0322006 167.561475,41.6551514 C168.356557,41.3354793 169.153689,40.8744137 169.954918,40.5629383 C170.77459,40.2391678 171.659836,40.036299 172.522541,40.3395777 L172.79918,40.43384 L172.711066,40.7145777 C172.434426,41.6059711 171.997951,42.4194957 171.510246,43.196135 C171.028689,43.9625285 170.489754,44.7043318 169.997951,45.4625285 C169.534836,46.1653973 169.118852,46.8703154 168.82582,47.6141678 C170.588115,45.4051514 172.786885,45.0752334 175.129098,45.5526924 C175.008197,45.3477744 174.905738,45.1694957 174.817623,44.9850695 C174.719262,44.7781023 174.633197,44.5444957 174.596311,44.3006432 C174.520492,43.7678564 174.723361,43.2596596 175.413934,42.9358891 C177.290984,42.9072006 178.918033,43.218676 180.467213,43.6715449 C182.008197,44.1223645 183.479508,44.7166268 184.934426,45.2903973 C186.204918,46.4502334 187.588115,47.0793318 189.016393,47.6674465 C189.739754,47.9645777 190.467213,48.2453154 191.165984,48.5670367 C191.875,48.8928564 192.567623,49.2678564 193.215164,49.7350695 L193.340164,49.9563809 C193.434426,50.9727744 192.82582,51.4809711 192.17418,51.8006432 C191.868852,51.9522826 191.532787,52.071135 191.213115,52.1981842 L190.885246,52.3416268 L191.329918,52.5649875 C191.637295,52.7145777 191.954918,52.8539219 192.254098,53.0055613 C192.872951,53.3190859 193.479508,53.7104793 193.903689,54.3867088 L194.038934,54.6100695 L193.844262,54.7781023 C192.778689,55.6797416 191.702869,55.843676 190.637295,55.8231842 C190.120902,55.8108891 189.594262,55.7617088 189.053279,55.7268727 C188.604508,55.7022826 188.145492,55.6940859 187.672131,55.7391678 C187.860656,56.0240039 188.043033,56.1633482 188.284836,56.3395777 L188.641393,56.6121186 C188.760246,56.7043318 188.883197,56.80884 188.989754,56.9235941 C189.204918,57.1551514 189.385246,57.446135 189.385246,57.821135 L189.280738,58.0485941 C187.026639,59.9932662 184.391393,61.0752334 181.625,61.7678564 L181.344262,61.6899875 C180.940574,61.30884 180.813525,60.911299 180.907787,60.5055613 C180.95082,60.321135 181.036885,60.1510531 181.129098,60.0014629 C181.213115,59.8580203 181.319672,59.7125285 181.42418,59.5690859 C181.805328,59.0526924 182.016393,58.7330203 181.672131,58.3047416 C180.204918,58.593676 179.032787,58.0957252 177.97541,57.6408072 C177.70082,57.5260531 177.430328,57.4072006 177.157787,57.3047416 C176.893443,57.2022826 176.631148,57.1121186 176.360656,57.0485941 C175.934426,56.946135 175.495902,56.9051514 175.028689,56.9768727 C175.336066,57.6694957 175.967213,58.2084301 176.678279,58.8047416 C177.069672,59.1367088 177.479508,59.4850695 177.817623,59.8744137 C178.161885,60.2658072 178.446721,60.7104793 178.57582,61.2514629 L178.647541,61.5424465 L178.35041,61.6141678 C177.17418,61.8990039 175.881148,61.7125285 174.680328,61.4153973 C173.938525,61.2309711 173.213115,60.9953154 172.55123,60.7903973 L175.717213,63.9563809 C175.504098,65.1326105 174.737705,65.4830203 173.97541,65.6653973 C173.610656,65.7494137 173.215164,65.8047416 172.836066,65.8723645 C172.463115,65.9420367 172.141393,66.0199055 171.875,66.1531023 L171.690574,66.1817908 C169.713115,65.8785121 167.797131,65.4133482 166.356557,63.6674465 C165.141393,62.7207252 164.764344,61.4276924 164.665984,60.0854793 C164.590164,59.0301514 164.686475,57.9010531 164.686475,56.80884 C164.313525,57.2658072 163.922131,57.7658072 163.538934,58.2924465 C163.614754,58.3641678 163.688525,58.4522826 163.766393,58.5485941 L163.893443,58.7166268 L163.778689,58.8969547 C162.577869,60.7781023 161.75,63.3149875 162.881148,65.3682662 C163.473361,66.696135 164.547131,67.9789219 165.940574,68.3272826 C170.383197,68.9932662 174.461066,66.696135 178.282787,64.4809711 C180.485656,63.5813809 182.346311,64.0526924 184.057377,64.8682662 C184.903689,65.2699055 185.721311,65.7658072 186.543033,66.2330203 C187.354508,66.7002334 188.151639,67.1285121 188.961066,67.4256432 C189.276639,67.5793318 189.563525,67.8621186 189.680328,68.1858891 C189.719262,68.2944957 189.737705,68.4031023 189.729508,68.5117088 C190.79918,68.5260531 192.043033,68.3026924 192.907787,68.6428564 C194.252049,67.5465449 196.010246,67.5014629 197.686475,67.5383482 C198.532787,67.55884 199.389344,67.6039219 200.211066,67.5547416 C201.018443,67.5076105 201.760246,67.3764629 202.411885,67.05884 C203.565574,66.7227744 203.668033,66.0629383 203.463115,65.1817908 C203.360656,64.7063809 203.17623,64.2166268 203.012295,63.7514629 C202.868852,63.2842498 202.735656,62.7842498 202.780738,62.3518727 L202.817623,62.0158072 L203.135246,62.0875285 C203.340164,62.1305613 203.504098,62.1899875 203.668033,62.263758 C205.061475,60.5977744 206.168033,57.5076105 206.127049,55.4358891 C205.983607,55.8272826 205.717213,56.2104793 205.348361,56.5875285 L204.713115,57.2248236 L204.508197,56.9276924 C204.405738,56.7719547 204.344262,56.5957252 204.303279,56.4072006 C204.262295,56.5199055 204.180328,56.638758 204.036885,56.7555613 C203.627049,56.9973645 203.278689,57.1346596 202.95082,57.2453154 C202.661885,57.3498236 202.381148,57.43384 202.141393,57.5444957 C201.723361,57.7309711 201.463115,57.9645777 201.403689,58.6059711 L201.368852,59.0096596 L200.991803,58.8621186 C199.770492,58.3805613 199.440574,57.3395777 199.27459,56.3272826 C199.192623,55.8334301 199.147541,55.3190859 199.063525,54.8272826 C198.977459,54.3580203 198.866803,53.9420367 198.657787,53.5977744 C197.120902,52.05884 195.969262,50.3539219 195.192623,48.4235941 L194.903689,47.7063809 L195.604508,48.0383482 C195.770492,48.1182662 195.94877,48.1879383 196.141393,48.2473645 C195.668033,47.7576105 195.252049,47.2781023 194.89959,46.8313809 L194.663934,46.786299 L194.467213,46.6653973 C194.258197,46.3846596 193.963115,46.1080203 193.627049,45.7985941 L193.118852,45.3293318 C192.946721,45.1653973 192.778689,44.9973645 192.622951,44.8252334 C191.989754,44.1367088 191.47541,43.2760531 191.834016,42.2043318 L192.034836,42.0117088 C195.182377,41.0670367 198.768443,42.0158072 201.604508,43.321135 C201.944672,43.8293318 202.211066,44.2002334 202.508197,44.5895777 C202.811475,44.9871186 203.114754,45.3826105 203.381148,45.7903973 L203.504098,45.9891678 L203.606557,45.6981842 C203.688525,45.3580203 203.647541,44.9399875 203.463115,44.5485941 L203.114754,44.8928564 L203.012295,44.3416268 C202.909836,43.8149875 202.684426,43.3231842 202.407787,42.8395777 C202.125,42.3477744 201.784836,41.8764629 201.456967,41.4031023 C200.795082,40.4481842 200.116803,39.4153973 200.034836,38.1408072 L200.084016,37.7248236 C199.567623,36.8826105 199.096311,36.093676 198.737705,35.4194957 L198.383197,35.4563809 L198.133197,35.3559711 C197.206967,34.3190859 196.096311,33.8908072 194.881148,33.7432662 C194.262295,33.6653973 193.620902,33.6633482 192.97541,33.6899875 C192.313525,33.7207252 191.643443,33.7822006 190.985656,33.8313809 C188.362705,34.0281023 185.64959,34.0690859 183.946721,31.1018727 C181.522541,30.8293318 179.151639,30.7043318 176.858607,30.7576105 L176.862705,30.7494137 L176.862705,30.7494137 Z M27.0881148,36.616217 C26.0491803,36.7125285 25.4692623,37.6223645 24.8790984,38.7658072 C24.647541,39.2145777 24.4221311,39.6858891 24.1782787,40.138758 C23.9303279,40.593676 23.6557377,41.0485941 23.3340164,41.4440859 C22.7213115,42.1858891 21.920082,42.7309711 20.7766393,42.7555613 C20.6782787,43.7473645 21.0819672,44.4932662 21.6045082,45.2944957 C21.8627049,45.321135 22.079918,45.2801514 22.3012295,45.2063809 C22.5778689,45.1141678 22.8381148,44.9891678 23.1290984,44.9092498 C25.7213115,43.2719547 28.8709016,40.6756432 29.8934426,37.8334301 L29.1639344,37.2207252 C28.5348361,36.8703154 28.0102459,36.6817908 27.5594262,36.6244137 C27.3913934,36.6039219 27.2356557,36.6018727 27.0881148,36.616217 L27.0881148,36.616217 Z M33.0840164,45.0649875 C32.6577869,45.0485941 32.2315574,45.0526924 31.8053279,45.0772826 C29.7684426,45.196135 27.7663934,45.7740039 26.2028689,46.7104793 C25.5758197,47.6305613 26.1516393,48.9133482 27.0348361,49.4768727 C29.1536885,50.1592498 31.3422131,49.9276924 33.647541,49.5403973 C34.8094262,49.3457252 35.9856557,49.116217 37.1782787,48.9522826 C38.2745902,48.8006432 39.3852459,48.7063809 40.5081967,48.7473645 C38.9364754,46.3006432 36.0553279,45.1756432 33.0840164,45.0649875 Z M203.668033,46.2022826 C203.954918,46.8272826 204.139344,47.5670367 203.852459,48.3908072 C204.692623,49.0055613 205.307377,49.5260531 205.512295,49.8170367 L206.618852,50.18384 C206.106557,48.5813809 205.163934,47.1797416 203.668033,46.2022826 L203.668033,46.2022826 Z M206.803279,79.3641678 L206.82377,79.3682662 C206.659836,79.3805613 206.495902,79.4256432 206.352459,79.513758 C206.209016,82.5895777 204.590164,85.3375285 202.608607,87.2453154 L202.42418,87.4174465 L202.22541,87.2740039 C201.616803,86.8416268 201.342213,86.2760531 201.159836,85.7330203 C201.07582,85.4748236 201.008197,85.2063809 200.932377,84.9481842 L200.819672,84.5998236 L199.467213,85.5485941 C198.75,85.2227744 198.604508,84.7289219 198.518443,84.3600695 C198.477459,84.1940859 198.446721,84.0260531 198.389344,83.8805613 C198.030738,84.3949055 197.647541,84.8805613 197.346311,85.4010531 C197.004098,85.9891678 196.786885,86.5957252 196.838115,87.3252334 C197.223361,88.1203154 197.47541,87.9850695 198.133197,87.2781023 L198.643443,86.7207252 C198.807377,86.5281023 198.991803,86.3354793 199.190574,86.1694957 C199.57582,85.8416268 200.057377,85.55884 200.610656,85.661299 L200.819672,85.8006432 C201.979508,87.6551514 201.790984,90.6797416 201.10041,92.7084301 C201.608607,92.9543318 201.82377,93.343676 201.895492,93.8047416 C201.932377,94.0403973 201.932377,94.3006432 201.92418,94.5772826 C201.920082,94.7760531 201.915984,94.9809711 201.920082,95.1940859 C202.372951,95.4072006 202.834016,95.5916268 203.29918,95.7699055 L203.319672,95.7699055 C204.241803,96.1059711 205.204918,96.388758 206.127049,96.7227744 C207.602459,97.2617088 209.057377,97.9440859 210.286885,99.2125285 L210.348361,99.5117088 C210.307377,99.6715449 210.245902,99.8108891 210.163934,99.9379383 C215.819672,98.1572006 219.32377,99.5240039 220.840164,106.23302 C222.397541,113.194086 224.815574,115.274004 227.540984,115.962528 L227.5,115.903102 L227.418033,115.669496 C227.5,114.948184 227.745902,114.292447 228.217213,113.712528 C228.770492,112.515807 228.606557,110.849824 227.72541,109.899004 C227.254098,108.651053 227.397541,107.226873 228.258197,106.364168 C229.057377,105.487119 230.122951,105.171545 231.209016,105.056791 C232.172131,104.950233 233.17623,105.005561 234.077869,104.987119 C233.954918,104.88466 233.872951,104.847774 233.770492,104.796545 C233.668033,104.751463 233.565574,104.706381 233.483607,104.655151 C230.061475,104.169496 226.844262,105.847774 224.692623,108.730971 L224.54918,108.921545 L224.32377,108.825233 C222.643443,108.085479 222.028689,106.753512 221.844262,105.267856 C221.762295,104.542447 221.782787,103.769906 221.82377,102.987119 C221.844262,102.241217 221.92623,101.48302 221.946721,100.761709 C221.598361,99.8231842 220.778689,99.3108891 219.733607,98.9563809 C218.647541,98.5875285 217.397541,98.4174465 216.372951,98.116217 C216.127049,97.9973645 215.881148,97.9215449 215.57377,97.8395777 C215.286885,97.7576105 214.979508,97.6756432 214.692623,97.55884 C214.098361,97.3108891 213.586066,96.8682662 213.729508,95.9543318 C213.790984,95.8969547 213.831967,95.8395777 213.893443,95.7781023 C214.938525,94.7699055 216.127049,94.4522826 217.27459,94.1653973 C217.889344,94.0178564 218.483607,93.8723645 219.057377,93.661299 C219.528689,93.4850695 219.979508,93.2699055 220.389344,92.9727744 L220.245902,92.7842498 C218.729508,92.6346596 217.069672,92.4174465 215.430328,92.3252334 C213.75,92.2330203 212.110656,92.2719547 210.67623,92.6408072 L210.491803,92.6879383 C210.307377,92.4584301 210.22541,92.3805613 210.122951,92.2924465 L209.856557,92.0199055 C209.651639,91.8334301 209.446721,91.5834301 209.385246,91.2555613 C209.385246,90.2535121 209.979508,89.6981842 210.57377,89.2985941 C210.881148,89.1039219 211.188525,88.9358891 211.495902,88.7617088 C211.70082,88.6490039 211.864754,88.5424465 212.008197,88.4297416 L210.840164,86.9420367 L211.127049,86.7658072 C212.172131,86.1428564 213.29918,86.1141678 214.385246,86.2207252 C215.245902,86.3047416 216.127049,86.4830203 216.967213,86.5444957 C216.372951,85.741217 215.512295,85.3826105 214.528689,85.2289219 C213.934426,85.1367088 213.319672,85.116217 212.72541,85.116217 C212.110656,85.116217 211.516393,85.1367088 210.983607,85.116217 C210.614754,85.1572006 210.266393,85.3067908 209.918033,85.5096596 C209.54918,85.7268727 209.20082,85.991217 208.831967,86.2207252 C208.114754,86.6940859 207.254098,87.1141678 206.270492,86.5260531 L206.045082,86.3969547 L206.127049,86.161299 C206.47541,85.1694957 206.987705,84.2371186 207.356557,83.2473645 C207.72541,82.286299 207.930328,81.3006432 207.72541,80.1572006 C207.684426,79.6244137 207.27459,79.3313809 206.803279,79.3641678 L206.803279,79.3641678 Z M125.10041,86.0444957 C123.89959,89.1264629 123.071721,92.3805613 122.594262,95.7740039 L126.565574,95.7699055 C126.401639,95.138758 126.247951,94.5035121 126.096311,93.866217 C125.901639,92.3498236 125.768443,90.80884 125.596311,89.3149875 C125.469262,88.1817908 125.315574,87.0772826 125.10041,86.0444957 L125.10041,86.0444957 Z M118.135246,92.3477744 C117.282787,93.366217 116.586066,94.5465449 116.006148,95.7740039 L116.790984,95.7658072 C116.92623,95.468676 117.065574,95.1735941 117.19877,94.8785121 C117.602459,93.9994137 117.956967,93.1633482 118.135246,92.3477744 Z M139.893443,126.204332 C140.879098,126.769906 141.858607,127.35802 142.858607,127.876463 C144.272541,128.612119 145.69877,129.196135 147.196721,129.405151 L144.538934,126.749414 C143.290984,126.876463 142.145492,126.722774 141.040984,126.480971 C140.653689,126.394906 140.27459,126.304742 139.893443,126.204332 L139.893443,126.204332 Z" id="Shape" stroke="#F8992E" stroke-width="0.3" fill="#F8992E"></path>
                <path d="M118.545082,27.4994137 L118.20082,27.8641678 C108.172131,38.4297416 110.981557,57.3149875 116.471311,68.8990039 L116.715164,69.4194957 L117.008197,68.9235941 C117.454918,68.1449055 117.653689,67.2207252 117.739754,66.30884 C117.827869,65.4051514 117.809426,64.4809711 117.803279,63.6203154 C116.567623,56.68384 115.858607,50.4727744 117.571721,43.2842498 C117.758197,42.5957252 118.016393,41.9440859 118.303279,41.2985941 C118.596311,40.6408072 118.913934,39.9973645 119.209016,39.3416268 C119.803279,38.0199055 120.317623,36.6203154 120.317623,34.9953154 L120.317623,34.8026924 L120.141393,34.718676 C118.985656,34.1920367 118.758197,33.1510531 118.776639,31.8498236 C118.786885,31.1920367 118.858607,30.5096596 118.885246,29.8600695 C118.909836,29.2043318 118.893443,28.5485941 118.704918,27.9789219 L118.545082,27.4994137 L118.545082,27.4994137 Z M180.571721,34.8313809 C177.745902,34.8846596 175.165984,36.2432662 173.127049,38.2822006 L173.038934,38.4932662 C173.038934,38.9194957 173.127049,39.3395777 173.540984,39.6510531 L173.848361,39.6817908 C177.19877,38.1203154 182.286885,37.9666268 185.643443,39.0854793 L185.895492,39.1694957 L186.010246,38.93384 C186.19877,38.5608891 186.04918,38.2658072 185.92623,38.0731842 C185.875,37.9994137 185.82582,37.9256432 185.778689,37.8498236 C185.747951,37.7903973 185.739754,37.7535121 185.739754,37.6121186 L183.469262,35.2350695 C182.485656,34.9399875 181.514344,34.8129383 180.571721,34.8313809 L180.571721,34.8313809 Z M187.969262,35.1920367 L187.547131,36.843676 C188.120902,37.6469547 188.67623,38.5649875 189.313525,39.3949055 C189.961066,40.2371186 190.719262,41.0158072 191.690574,41.5035121 L191.95082,41.6305613 L192.090164,41.3785121 C192.834016,40.0260531 193.995902,39.8867088 195.352459,40.0977744 C196.05123,40.2063809 196.768443,40.4010531 197.44877,40.5547416 C198.141393,40.7104793 198.840164,40.8354793 199.463115,40.7740039 L199.92623,40.7268727 L199.694672,40.3190859 C198.504098,38.2576105 196.661885,37.1346596 194.612705,36.4563809 C193.594262,36.1182662 192.518443,35.8867088 191.430328,35.7002334 C190.354508,35.5178564 189.268443,35.3805613 188.221311,35.2268727 L187.969262,35.1920367 L187.969262,35.1920367 Z M177.022541,39.7903973 L176.85041,39.8272826 C176.627049,39.9440859 176.356557,40.0424465 176.057377,40.1428564 C175.75,40.2473645 175.436475,40.3457252 175.145492,40.4666268 C174.55123,40.7145777 173.95082,41.0977744 173.803279,41.8641678 L173.752049,42.1346596 L174.020492,42.2125285 C174.893443,42.4502334 175.891393,42.5240039 176.922131,42.5608891 C177.944672,42.5977744 179.02459,42.5998236 180.079918,42.6756432 C182.184426,42.8272826 184.102459,43.2781023 185.502049,44.946135 C185.766393,45.0199055 186.053279,45.1264629 186.348361,45.2289219 C186.663934,45.3395777 186.993852,45.4420367 187.315574,45.4973645 C187.997951,45.6121186 188.727459,45.5322006 189.317623,44.8539219 L189.377049,44.5731842 C188.57582,41.7596596 186.543033,40.6817908 184.206967,40.2514629 C181.92418,39.8313809 179.27459,40.0178564 177.022541,39.7903973 L177.022541,39.7903973 Z M87.9754098,43.1756432 L87.7377049,43.343676 C87.1004098,43.7985941 86.8565574,44.5977744 86.7131148,45.3744137 C86.5737705,46.1367088 86.5184426,46.9789219 86.3217213,47.7432662 C85.1803279,58.3313809 85.9241803,69.7801514 92.9098361,77.8641678 L93.0983607,77.80884 C95.2807377,77.138758 96.8196721,78.2699055 98.4036885,79.7617088 L99.5942623,80.8990039 C100,81.2822006 100.409836,81.6531023 100.838115,81.9830203 C101.70082,82.6490039 102.657787,83.1694957 103.780738,83.2944957 L104.29918,83.3559711 L104.088115,82.8744137 C100.237705,74.0403973 95.9815574,65.3990039 93.3012295,55.9031023 C92.9631148,54.888758 92.8114754,53.7740039 92.625,52.6858891 C92.432377,51.5793318 92.1967213,50.4543318 91.5922131,49.2924465 L91.4036885,49.3006432 C89.9938525,49.3334301 89.5163934,48.6223645 89.2827869,47.6100695 C89.1577869,47.0731842 89.1106557,46.4707252 89.0512295,45.8908072 C88.9897541,45.2985941 88.9139344,44.6899875 88.7151639,44.1285121 L87.9754098,43.1756432 L87.9754098,43.1756432 Z M182.745902,62.9645777 L183.70082,63.8928564 C185.452869,65.5793318 189.161885,67.5547416 192.375,67.3990039 L192.631148,67.2309711 C193.07377,66.3395777 192.793033,65.2371186 192.39959,64.4481842 L192.29918,64.2494137 L192.07377,64.2883482 C189.334016,64.8067908 186.504098,64.218676 184.010246,63.388758 L182.745902,62.9645777 L182.745902,62.9645777 Z" id="Shape" fill="#0D3182"></path>
                <path d="M146.420082,31.5895777 C145.596311,31.5916268 144.821721,31.786299 144.170082,32.3334301 C143.530738,32.8744137 143.278689,33.5875285 143.170082,34.4072006 C143.057377,35.2555613 143.092213,36.1592498 142.981557,36.9891678 C143.063525,40.3949055 145.809426,43.5854793 148.44877,45.093676 L148.506148,44.7207252 C148.64959,43.9707252 148.608607,43.2207252 148.485656,42.4727744 C148.360656,41.7145777 148.153689,40.9666268 147.977459,40.2391678 C147.627049,38.7596596 147.375,37.2309711 148.280738,35.7473645 C148.991803,35.071135 149.67418,35.1879383 150.258197,35.4748236 C150.530738,35.6100695 150.80123,35.7883482 151.071721,35.968676 C151.329918,36.138758 151.561475,36.2944957 151.782787,36.3969547 C152.129098,36.6531023 152.247951,36.5895777 152.463115,36.2760531 C152.586066,36.0977744 152.702869,35.8785121 152.82377,35.68384 C152.891393,35.5731842 152.971311,35.4543318 153.063525,35.343676 C151.895492,33.9256432 150.481557,32.6285121 148.956967,32.0055613 C148.114754,31.7781023 147.243852,31.5875285 146.420082,31.5895777 L146.420082,31.5895777 Z M203.114754,34.7084301 C201.655738,34.8129383 200.079918,35.2535121 198.741803,35.4153973 C199.10041,36.0895777 199.57582,36.8785121 200.092213,37.7207252 L200.432377,37.8252334 C201.387295,38.1223645 202.112705,37.7289219 202.909836,37.1367088 C203.319672,36.8354793 203.729508,36.5014629 204.139344,36.2248236 C204.590164,35.9379383 205.061475,35.6940859 205.614754,35.6080203 L205.860656,35.571135 L206.372951,36.9481842 C206.065574,38.3723645 205.819672,39.7699055 205.430328,41.0547416 C205.020492,42.3518727 204.446721,43.5670367 203.52459,44.4891678 C203.647541,44.9379383 203.688525,45.3539219 203.627049,45.6940859 C204.262295,44.0690859 204.959016,42.6141678 205.553279,41.0957252 C206.147541,39.5301514 206.598361,37.9215449 206.659836,36.1408072 C205.901639,34.8723645 204.631148,34.5998236 203.114754,34.7084301 Z M153.5,42.8641678 C152.70082,44.9440859 152.709016,47.4809711 153.172131,49.6920367 C153.180328,51.8682662 151.795082,53.6203154 150.157787,54.7903973 C149.20082,55.2760531 148.153689,54.8047416 147.481557,54.4297416 L147.327869,54.218676 C146.891393,51.8129383 146.32582,49.3764629 144.69877,47.7063809 C140.366803,53.9072006 139.360656,62.3477744 140.997951,70.1510531 L140.961066,70.3723645 C140.793033,70.6428564 140.612705,70.7965449 140.428279,70.8600695 L140.67623,72.0485941 L141.518443,72.3846596 C142.206967,78.3703154 144.514344,83.5998236 149.036885,87.7903973 L149.282787,87.7903973 C150.237705,86.2268727 150.875,84.5158072 151.387295,82.7309711 C151.920082,80.8785121 152.313525,78.9604793 152.807377,77.05884 L152.92418,76.6305613 L153.280738,76.8949055 C155.44877,78.4871186 157.204918,81.0731842 158.659836,83.4399875 L158.747951,83.116217 C158.831967,82.7924465 158.901639,82.4666268 158.991803,82.1469547 C159.165984,81.4953154 159.409836,80.8231842 159.961066,80.2699055 L160.133197,80.1018727 L160.336066,80.2248236 C161.409836,80.9051514 162.233607,81.8334301 162.92623,82.843676 C163.586066,83.80884 164.133197,84.8703154 164.655738,85.8764629 C171.122951,88.4953154 177.717213,93.9543318 181.393443,100.341627 C185.483607,102.53425 191.561475,102.603922 195.872951,100.829332 C197.829918,99.7022826 199.04918,97.7022826 199.329918,95.5977744 C193.284836,93.5055613 186.153689,93.7432662 180.038934,95.5301514 L179.819672,95.593676 L179.69877,95.4031023 C178.258197,93.0506432 176.776639,90.5834301 175.053279,88.2145777 C173.331967,85.8498236 171.368852,83.5916268 168.961066,81.6346596 C168.280738,79.741217 169.133197,78.3129383 170.034836,77.0035121 C170.477459,76.3580203 170.965164,75.7084301 171.338115,75.0260531 C171.694672,74.3805613 171.930328,73.7289219 171.967213,73.0260531 C171.766393,72.6694957 171.557377,72.6776924 171.194672,72.7699055 C170.961066,72.8272826 170.721311,72.9153973 170.469262,72.9543318 C170.221311,72.9953154 169.940574,72.9973645 169.653689,72.888758 C168.57377,73.1182662 167.741803,73.7740039 167.012295,74.6264629 C166.635246,75.0670367 166.297131,75.5526924 165.971311,76.0465449 C165.633197,76.5526924 165.313525,77.0629383 164.991803,77.536299 C164.147541,78.3867088 163.352459,78.0834301 162.766393,77.5834301 C162.483607,77.3416268 162.229508,77.0444957 162.012295,76.7760531 L161.717213,76.3990039 C161.243852,76.6469547 160.979508,77.093676 160.747951,77.6121186 C160.612705,77.9194957 160.491803,78.2371186 160.360656,78.5485941 C160.22541,78.8785121 160.079918,79.2043318 159.903689,79.5014629 L159.696721,79.8416268 L159.428279,79.5526924 C156.008197,75.9789219 154.469262,70.7166268 155.010246,65.468676 C155.647541,62.7535121 157.60041,60.2576105 160.008197,58.6285121 C160.389344,58.5629383 160.643443,58.4809711 160.928279,58.3641678 C161.22541,58.241217 161.520492,58.0998236 161.809426,58.0055613 C162.366803,57.8149875 162.983607,57.7699055 163.534836,58.2883482 C163.920082,57.7596596 164.313525,57.2617088 164.686475,56.8047416 C164.688525,56.5813809 164.680328,56.3600695 164.670082,56.138758 C164.028689,55.6346596 163.307377,55.2617088 162.540984,54.9399875 C161.727459,54.5957252 160.870902,54.3170367 160.028689,54.013758 C158.321721,53.4031023 156.588115,52.6817908 155.237705,51.0977744 C153.131148,48.866217 153.086066,45.593676 153.5,42.8641678 L153.5,42.8641678 Z M173.420082,45.3928564 C171.713115,45.3580203 170.14959,45.9563809 168.82582,47.6141678 C168.493852,48.4502334 168.317623,49.3334301 168.389344,50.3170367 C168.471311,50.6653973 168.663934,50.7658072 169.006148,50.8477744 C169.204918,50.8969547 169.422131,50.9317908 169.620902,50.9932662 C169.795082,51.0444957 169.977459,51.1203154 170.145492,51.2494137 C174.713115,50.1756432 180.495902,49.5158072 184.971311,51.616217 C184.838115,51.2883482 184.633197,50.9789219 184.383197,50.6756432 C184.178279,50.43384 183.952869,50.2002334 183.721311,49.9727744 L183.014344,49.2801514 C182.497951,48.7658072 181.903689,48.4256432 181.256148,48.1715449 C180.598361,47.9072006 179.901639,47.7391678 179.206967,47.5670367 C177.79918,47.2166268 176.303279,46.8395777 175.168033,45.6264629 C174.571721,45.4871186 173.987705,45.4051514 173.420082,45.3928564 L173.420082,45.3928564 Z M198.317623,45.6735941 C198.059426,45.6428564 197.793033,45.6469547 197.510246,45.6899875 C197.559426,45.7289219 197.616803,45.7555613 197.686475,45.7822006 C197.780738,45.821135 197.889344,45.8477744 197.993852,45.8703154 L198.375,45.9379383 C198.911885,46.0403973 199.579918,46.2453154 199.579918,47.2432662 L199.579918,47.43384 L199.403689,47.5178564 C198.57377,47.9133482 197.713115,47.7453154 196.930328,47.491217 C196.540984,47.3682662 196.151639,47.2145777 195.764344,47.0793318 C195.47541,46.9768727 195.188525,46.8846596 194.903689,46.8231842 C195.256148,47.2740039 195.668033,47.7535121 196.141393,48.2432662 C196.409836,48.3293318 196.694672,48.3949055 196.997951,48.4584301 C197.522541,48.5670367 198.067623,48.6592498 198.57377,48.7944957 C199.567623,49.0567908 200.534836,49.5076105 200.959016,50.6449055 C201.243852,50.7084301 201.497951,50.6756432 201.735656,50.5957252 C201.885246,50.5444957 202.026639,50.4748236 202.168033,50.4010531 C202.317623,50.3190859 202.463115,50.2289219 202.608607,50.1408072 C203.217213,49.7781023 203.934426,49.3621186 204.897541,49.8641678 L205.040984,50.0485941 C205.348361,51.0772826 205.942623,52.1490039 206.209016,53.2063809 C206.393443,53.9420367 206.434426,54.696135 206.127049,55.4317908 C206.168033,57.5014629 205.061475,60.593676 203.668033,62.2596596 C204.897541,62.8026924 205.635246,64.1572006 206.086066,65.1490039 C207.008197,67.411299 206.721311,69.4072006 205.922131,71.2207252 C205.512295,72.1244137 205,72.9850695 204.446721,73.8129383 C203.934426,74.6018727 203.381148,75.3723645 202.868852,76.138758 C202.95082,76.4563809 203.17623,76.5957252 203.52459,76.6592498 C203.75,76.6981842 203.97541,76.7063809 204.20082,76.7043318 L204.795082,76.68384 C207.581967,74.1551514 209.262295,70.8334301 209.54918,67.0731842 C209.733607,66.1694957 209.54918,65.4276924 209.180328,64.7207252 C208.97541,64.3559711 208.75,64.013758 208.483607,63.6756432 C208.217213,63.3252334 207.95082,62.9809711 207.663934,62.6428564 C206.598361,61.2801514 205.57377,59.7658072 206.82377,57.7043318 C207.315574,55.2125285 207.377049,52.4871186 206.618852,50.18384 L205.512295,49.8170367 C205.286885,49.5260531 204.692623,49.0055613 203.852459,48.3908072 C203.811475,48.4809711 203.770492,48.5752334 203.729508,48.6674465 L203.606557,48.9358891 L203.340164,48.8108891 C202.80123,48.5649875 202.317623,48.2043318 201.848361,47.8231842 C201.389344,47.4481842 200.928279,47.0383482 200.45082,46.6735941 C199.776639,46.161299 199.094262,45.7658072 198.317623,45.6735941 L198.317623,45.6735941 Z M144.270492,52.4256432 L144.606557,52.9297416 C145.668033,54.5178564 147.514344,56.55884 149.518443,56.9891678 C150.665984,57.2678564 151.477459,56.946135 152.256148,56.4563809 C152.663934,56.2002334 153.04918,55.9092498 153.456967,55.638758 C153.870902,55.366217 154.32582,55.1059711 154.838115,54.9420367 L155.104508,54.8559711 L155.209016,55.1182662 C155.604508,56.1264629 155.258197,56.9748236 154.860656,57.7125285 C154.670082,58.071135 154.444672,58.4256432 154.268443,58.7883482 C154.092213,59.1408072 153.967213,59.4768727 153.936475,59.821135 C152.95082,63.93384 152.721311,68.8375285 153.39959,73.1326105 L153.436475,73.366217 L153.223361,73.4584301 C149.436475,75.1305613 148.231557,79.2289219 148.077869,83.2350695 L148.069672,83.5281023 L147.04918,83.5281023 L146.969262,83.3477744 C142.997951,74.4891678 140.610656,62.9174465 144.071721,52.9973645 L144.270492,52.4256432 L144.270492,52.4256432 Z M178.282787,53.2494137 L178.127049,54.9235941 L178.127049,54.9276924 C178.282787,55.2330203 178.663934,55.8375285 179.194672,55.6080203 C180.485656,56.0649875 180.561475,54.2535121 180.487705,54.1674465 L179.231557,55.571135 C178.319672,55.2658072 178.282787,54.0117088 178.663934,53.2494137 L178.282787,53.2494137 Z M176.606557,53.786299 L176.606557,53.7903973 L176.07377,54.3190859 C176.188525,54.4707252 176.27459,54.5752334 176.368852,54.6510531 C176.465164,54.7268727 176.569672,54.7719547 176.721311,54.8108891 C176.647541,54.5055613 176.989754,54.013758 176.610656,53.786299 L176.606557,53.786299 L176.606557,53.786299 Z M203.995902,53.9707252 C203.852459,54.071135 203.790984,54.2289219 203.75,54.4830203 C203.729508,54.6510531 203.709016,54.8252334 203.668033,54.9871186 C203.647541,55.093676 203.606557,55.2104793 203.565574,55.3231842 C203.790984,55.4973645 203.913934,55.5834301 204.016393,55.6715449 C204.118852,55.7453154 204.20082,55.8334301 204.262295,55.9358891 L204.262295,55.0424465 C204.282787,54.7248236 204.262295,54.4625285 204.20082,54.2617088 C204.159836,54.1264629 204.098361,54.0322006 203.995902,53.9707252 L203.995902,53.9707252 Z M202.397541,54.1674465 L202.016393,55.0793318 L202.397541,55.0793318 L202.397541,54.1674465 Z M201.256148,54.3190859 C201.331967,54.6981842 201.102459,55.30884 201.635246,55.2309711 L201.256148,54.3190859 Z M182.692623,54.6940859 C182.545082,55.0772826 182.008197,55.6100695 182.465164,55.8395777 L182.729508,55.571135 C182.692623,55.4584301 182.758197,55.2371186 182.797131,55.0465449 C182.815574,54.9543318 182.827869,54.8621186 182.817623,54.7985941 C182.805328,54.7350695 182.770492,54.6940859 182.692623,54.6940859 L182.692623,54.6940859 Z M180.596311,67.55884 C180.344262,67.571135 180.098361,67.6059711 179.848361,67.6592498 C181.094262,68.1059711 182.381148,68.2371186 183.614754,68.5035121 C184.907787,68.7822006 186.190574,69.2166268 187.239754,70.2248236 C187.522541,71.0608891 187.188525,71.5608891 186.663934,71.9133482 L186.45082,71.9604793 C185.14959,71.7678564 183.85041,71.446135 182.557377,71.1490039 C181.42418,70.888758 180.303279,70.6510531 179.190574,70.5485941 C180.438525,70.9194957 181.770492,71.2043318 183.104508,71.5281023 C184.555328,71.8826105 186.02459,72.286299 187.383197,72.9051514 L187.596311,73.0055613 L187.555328,73.2289219 C187.469262,73.7494137 187.206967,74.2924465 186.663934,74.6510531 L186.442623,74.6981842 C185.14959,74.4707252 183.840164,74.1449055 182.528689,73.9051514 C181.319672,73.6858891 180.131148,73.5444957 178.963115,73.6141678 L178.963115,73.8580203 C179.528689,73.9850695 180.116803,74.0608891 180.715164,74.1059711 C181.409836,74.1592498 182.122951,74.18384 182.821721,74.2309711 C184.223361,74.3252334 185.647541,74.5260531 186.82377,75.2944957 C187.69877,75.9522826 187.165984,76.821135 186.690574,77.2166268 L180.256148,76.9194957 C180.053279,77.1039219 179.969262,77.1674465 179.903689,77.2289219 C181.043033,77.5998236 182.362705,77.6182662 183.72541,77.5998236 C184.44877,77.5895777 185.165984,77.5731842 185.879098,77.5834301 C186.60041,77.5977744 187.311475,77.6408072 187.991803,77.7555613 L188.915984,78.3805613 L187.588115,79.9543318 C187.831967,80.8826105 188.038934,81.8272826 188.368852,82.7104793 C188.647541,83.4563809 189.014344,84.1490039 189.569672,84.7473645 C189.879098,83.093676 190.379098,81.4174465 191.598361,80.0567908 L191.821721,79.9584301 C192.557377,79.9584301 192.858607,80.4994137 193.030738,80.9789219 C193.112705,81.2104793 193.17623,81.4645777 193.256148,81.7104793 L194,79.9010531 L194.252049,79.9645777 C194.915984,80.1326105 195.04918,80.7371186 195.125,81.1694957 C195.159836,81.3846596 195.188525,81.6100695 195.243852,81.8190859 L196.233607,79.9051514 L196.465164,79.9645777 C197.202869,80.1633482 197.420082,80.7084301 197.502049,81.218676 C197.536885,81.4317908 197.55123,81.6572006 197.577869,81.8744137 L198.618852,80.2781023 L198.838115,80.3539219 C199.157787,80.4604793 199.356557,80.6776924 199.483607,80.93384 C199.60041,81.1776924 199.655738,81.4604793 199.690574,81.718676 C199.727459,81.9666268 199.754098,82.2330203 199.807377,82.4789219 L201.227459,80.0977744 C197.907787,79.3026924 194.17623,79.1531023 191.07377,79.2699055 L190.258197,78.8559711 C190.045082,77.7965449 190.534836,77.2391678 190.997951,76.7760531 C192.545082,76.3170367 194.239754,76.218676 195.747951,75.8744137 C196.821721,75.6326105 197.752049,75.2678564 198.397541,74.6100695 C198.217213,74.6899875 198.028689,74.7617088 197.842213,74.8231842 C197.288934,75.0035121 196.688525,75.0998236 196.07377,74.9215449 L195.768443,74.8354793 L195.872951,74.5301514 C196.346311,73.1735941 195.793033,72.5506432 194.969262,71.93384 C195.143443,72.2268727 195.284836,72.5383482 195.385246,72.8703154 L195.456967,73.1141678 L195.227459,73.2289219 C195.081967,73.3047416 194.930328,73.3969547 194.780738,73.4891678 C194.618852,73.5895777 194.436475,73.6920367 194.243852,73.7699055 C193.842213,73.9317908 193.356557,73.9563809 192.903689,73.5547416 C191.860656,72.4317908 191.352459,71.1858891 191.67418,69.4789219 L191.758197,69.0424465 L192.135246,69.2801514 C192.364754,69.4235941 192.606557,69.5813809 192.854508,69.7555613 C192.772541,69.5055613 192.729508,69.2268727 192.735656,68.9153973 L192.842213,68.6940859 C192.043033,68.3026924 190.79918,68.5260531 189.729508,68.5117088 C189.717213,68.7883482 189.555328,69.0485941 189.196721,69.2063809 C188.239754,69.5547416 187.139344,69.0506432 186.407787,68.6879383 C185.237705,68.5281023 184.061475,68.1141678 182.877049,67.8313809 C182.104508,67.6469547 181.348361,67.5219547 180.596311,67.5629383 L180.596311,67.55884 L180.596311,67.55884 Z M201.788934,80.2330203 C201.97541,81.0199055 202.104508,81.8621186 202.280738,82.6756432 C202.415984,83.2965449 202.579918,83.8867088 202.805328,84.4153973 C203.401639,83.3580203 203.770492,82.2002334 204.016393,80.9748236 C203.319672,80.6879383 202.567623,80.4420367 201.788934,80.2330203 L201.788934,80.2330203 Z M179.407787,83.263758 C179.153689,83.2555613 178.938525,83.3621186 178.735656,83.6285121 C178.735656,84.696135 179.311475,85.2166268 180.131148,85.6244137 C180.569672,85.8457252 181.055328,86.0199055 181.52459,86.2084301 C181.901639,86.366217 182.282787,86.536299 182.625,86.7576105 L184.622951,83.9871186 L185.711066,84.9727744 C185.639344,84.8723645 185.557377,84.7719547 185.47541,84.6715449 C185.297131,84.4645777 185.112705,84.2678564 184.930328,84.0670367 C184.803279,83.9235941 184.67418,83.7719547 184.557377,83.6080203 L182.788934,84.4235941 C182.297131,84.5260531 181.85041,84.3928564 181.452869,84.2125285 C181.067623,84.0342498 180.682377,83.786299 180.303279,83.5834301 C179.95082,83.3928564 179.659836,83.2719547 179.407787,83.263758 Z M184.778689,86.8457252 C183.946721,88.1264629 183.788934,89.6694957 183.885246,91.388758 C185.540984,91.1121186 187.272541,90.9666268 189.02459,90.9481842 C188.811475,90.7760531 188.659836,90.571135 188.545082,90.3477744 C188.473361,90.2084301 188.413934,90.0629383 188.360656,89.911299 L188.217213,89.4748236 C188.07582,89.0260531 187.944672,88.6633482 187.696721,88.411299 L187.584016,88.7576105 C187.510246,89.0219547 187.440574,89.2903973 187.352459,89.5465449 C187.17418,90.0813809 186.891393,90.6285121 186.252049,90.9481842 L185.920082,91.116217 L185.82377,90.7555613 C185.631148,90.0301514 185.5,89.2699055 185.319672,88.513758 C185.180328,87.9358891 185.014344,87.3723645 184.778689,86.8457252 L184.778689,86.8457252 Z M199.555328,88.4379383 C199.395492,88.5998236 199.252049,88.7760531 199.114754,88.9625285 C198.889344,89.2617088 198.690574,89.5813809 198.481557,89.8867088 C198.061475,90.5076105 197.581967,91.1449055 196.813525,91.4871186 L196.608607,91.5793318 C196.29918,91.2248236 196.192623,91.0158072 196.112705,90.8108891 C196.040984,90.6203154 195.991803,90.4153973 195.940574,90.2063809 C195.885246,89.9789219 195.836066,89.7740039 195.760246,89.5875285 C195.44877,90.0567908 195.108607,90.5260531 194.815574,90.991217 L194.536885,91.1326105 C193.862705,91.0752334 193.661885,90.5608891 193.579918,90.1264629 C193.540984,89.9297416 193.522541,89.7166268 193.491803,89.5117088 L192.219262,91.0526924 C194.655738,91.2330203 197.038934,91.6510531 199.215164,92.2801514 C199.387295,91.6367088 199.581967,90.9133482 199.670082,90.2043318 C199.752049,89.5444957 199.737705,88.9420367 199.555328,88.4379383 L199.555328,88.4379383 Z M190.69877,89.0670367 L189.670082,90.9481842 C190.258197,90.9502334 190.848361,90.9707252 191.438525,91.0035121 C191.354508,90.8395777 191.282787,90.6735941 191.22541,90.5158072 C191.139344,90.2883482 191.063525,90.05884 190.989754,89.8313809 C190.903689,89.5526924 190.813525,89.2965449 190.69877,89.0670367 L190.69877,89.0670367 Z M155.276639,96.2944957 C154.770492,96.4133482 154.411885,96.8805613 154.012295,97.2227744 C151.881148,98.9727744 151.961066,102.015807 152.567623,104.376463 C153.405738,105.517856 154.014344,107.950233 155.842213,107.493266 L155.842213,96.3108891 C155.633197,96.2535121 155.446721,96.2555613 155.276639,96.2944957 Z M214.016393,99.2371186 C212.868852,99.2535121 211.598361,99.4994137 210.163934,99.9440859 C209.754098,100.628512 208.97541,100.876463 208.237705,101.038348 C207.827869,101.13261 207.377049,101.200233 206.967213,101.306791 C208.135246,101.446135 209.446721,101.532201 210.635246,101.798594 C212.172131,102.146955 213.586066,102.831381 214.159836,104.419496 C213.97541,106.140807 212.520492,105.944086 211.782787,105.415397 C210.184426,105.050643 208.422131,105.13261 207.766393,106.464578 C207.438525,107.593676 207.663934,108.878512 208.586066,109.614168 C209.508197,110.677692 210.717213,111.077283 212.069672,111.187938 C212.745902,111.243266 213.442623,111.224824 214.139344,111.175643 C214.856557,111.128512 215.553279,111.052692 216.209016,110.995315 L216.47541,111.099824 C217.27459,112.026053 217.356557,113.13466 217.336066,114.220725 C217.336066,114.755561 217.295082,115.310889 217.295082,115.866217 C217.295082,116.407201 217.315574,116.93384 217.438525,117.442037 C217.868852,118.554742 218.647541,119.476873 219.569672,120.337528 C220.491803,121.210479 221.557377,122.003512 222.540984,122.829332 C224.487705,124.478922 226.168033,126.364168 225.696721,129.437938 C226.516393,130.140807 227.561475,130.497365 228.565574,130.282201 C227.827869,128.976873 227.069672,127.681791 226.516393,126.300643 C225.922131,124.786299 225.512295,123.157201 225.594262,121.312938 C225.717213,120.341627 226.25,119.618266 226.885246,119.019906 C227.459016,118.456381 228.155738,117.954332 228.75,117.370315 C228.913934,116.892856 228.770492,116.763758 228.606557,116.646955 C228.52459,116.597774 228.463115,116.55884 228.381148,116.513758 L228.094262,116.366217 C227.930328,116.269906 227.72541,116.149004 227.561475,115.970725 C224.815574,115.282201 222.418033,113.202283 220.840164,106.237119 C219.713115,101.206381 217.459016,99.18384 214.016393,99.2371186 L214.016393,99.2371186 Z M232.807377,107.368266 C232.438525,107.337528 232.04918,107.351873 231.70082,107.405151 L231.229508,107.618266 C231.045082,107.694086 230.901639,107.769906 230.778689,107.85802 C230.532787,108.015807 230.409836,108.187938 230.45082,108.470725 C231.004098,109.577283 231.127049,110.65925 231.086066,111.720725 C231.045082,112.614168 230.881148,113.497365 230.696721,114.380561 C231.741803,114.081381 232.704918,113.60802 233.586066,112.917447 C233.995902,112.288348 234.467213,111.700233 234.836066,111.054742 C235.184426,110.429742 235.409836,109.778102 235.348361,108.993266 C235.040984,107.954332 233.934426,107.462528 232.807377,107.368266 Z M238.401639,108.286299 C238.258197,109.327283 238.811475,109.851873 239.672131,110.343676 C240.163934,110.614168 240.696721,110.851873 241.188525,111.130561 C241.434426,111.267856 241.680328,111.415397 241.905738,111.587528 L241.741803,110.511709 C240.778689,109.321135 239.610656,108.126463 238.401639,108.286299 Z M167.739754,112.372365 C167.637295,112.423594 167.614754,112.499414 167.620902,112.68384 C167.622951,112.817037 167.645492,112.962528 167.651639,113.095725 C167.661885,113.204332 167.668033,113.331381 167.647541,113.456381 C167.713115,113.571135 167.768443,113.700233 167.819672,113.829332 L168.028689,114.368266 C168.168033,114.745315 168.303279,115.116217 168.477459,115.417447 C168.793033,115.978922 169.157787,116.253512 169.918033,115.825233 C171.5,115.292447 173.258197,114.642856 173.836066,113.669496 C172.92418,113.325233 171.965164,113.093676 170.981557,112.905151 C169.905738,112.702283 168.813525,112.554742 167.739754,112.372365 L167.739754,112.372365 Z M239.303279,112.511709 C238.831967,112.573184 238.586066,112.88466 238.463115,113.329332 C238.340164,113.790397 238.381148,114.347774 238.442623,114.745315 C238.155738,116.370315 236.659836,117.587528 235.389344,118.050643 C235.45082,118.089578 235.512295,118.136709 235.594262,118.204332 C237.090164,119.03425 239.42623,118.804742 240.696721,117.68384 C241.803279,116.776053 242.172131,115.388758 241.741803,114.13261 C241.311475,113.169496 240.368852,112.446135 239.303279,112.511709 L239.303279,112.511709 Z M236.229508,113.263758 L235.061475,114.997365 C235.122951,115.142856 235.266393,115.235069 235.45082,115.214578 C235.67623,114.880561 235.942623,114.45843 236.086066,114.021955 C236.188525,113.749414 236.25,113.493266 236.229508,113.263758 Z M174.360656,119.292447 C172.413934,119.886709 170.14959,119.915397 168.17623,119.323184 C167.618852,119.927692 167.297131,120.616217 167.461066,121.460479 C167.606557,121.712528 167.807377,122.00966 168.04918,122.210479 C168.295082,122.407201 168.557377,122.489168 168.885246,122.349824 C171.120902,121.968676 173.672131,121.370315 174.360656,119.292447 Z M240.471311,120.452283 C240.286885,120.48302 240.163934,120.677692 240.040984,120.90925 C239.856557,121.241217 239.713115,121.655151 239.528689,122.030151 C239.344262,122.40925 239.098361,122.814988 238.688525,123.03425 C238.504098,123.196135 238.258197,123.339578 238.053279,123.470725 L237.356557,123.853922 C237.04918,124.03425 236.803279,124.202283 236.618852,124.370315 C237.745902,124.995315 239.118852,125.317037 240.409836,124.927692 C241.577869,124.58343 242.561475,123.450233 242.418033,122.224824 L241.413934,121.001463 C240.963115,120.562938 240.67623,120.423594 240.471311,120.452283 L240.471311,120.452283 Z M167.217213,125.339578 C166.895492,125.329332 166.604508,125.419496 166.327869,125.663348 C166.276639,126.204332 166.102459,126.75966 166.02459,127.296545 C165.952869,127.776053 165.965164,128.185889 166.188525,128.548594 C166.795082,128.505561 167.440574,128.567037 168.069672,128.577283 C168.731557,128.585479 169.305328,128.521955 169.762295,128.228922 C170.639344,127.726873 171.696721,127.003512 172.239754,126.075233 C171.821721,126.198184 171.512295,126.241217 171.14959,126.20843 C170.625,126.321135 170.120902,126.255561 169.653689,126.124414 C169.188525,125.993266 168.741803,125.792447 168.305328,125.624414 C167.897541,125.464578 167.543033,125.351873 167.221311,125.339578 L167.217213,125.339578 L167.217213,125.339578 Z M240.942623,128.060889 C240.081967,128.062938 239.159836,128.591627 238.647541,129.685889 C238.340164,129.999414 238.032787,130.120315 237.766393,130.210479 C237.479508,130.294496 237.192623,130.35802 236.92623,130.429742 C236.434426,130.567037 236.270492,130.685889 236.25,130.907201 C237.356557,132.478922 239.241803,132.524004 241.02459,132.235069 C241.987705,131.702283 242.991803,130.751463 242.807377,129.614168 C242.581967,128.587528 241.803279,128.060889 240.942623,128.060889 L240.942623,128.060889 Z M232.356557,131.528102 C231.946721,131.526053 231.47541,131.667447 230.963115,131.860069 C230.245902,132.128512 229.487705,132.48302 228.729508,132.667447 C228.237705,132.788348 227.72541,132.841627 227.213115,132.739168 C228.360656,134.300643 230.430328,134.939988 232.561475,134.960479 C232.766393,134.800643 232.991803,134.679742 233.196721,134.577283 L233.545082,134.401053 C233.647541,134.347774 233.729508,134.290397 233.831967,134.228922 C234.098361,134.032201 234.282787,133.788348 234.057377,133.155151 C233.627049,131.927692 233.053279,131.530151 232.356557,131.528102 L232.356557,131.528102 Z M164.446721,131.956381 C163.762295,132.349824 163.340164,133.050643 163.237705,133.835479 C163.834016,134.274004 164.602459,134.456381 165.442623,134.524004 C166.342213,134.599824 167.268443,134.548594 168.053279,134.581381 C169.020492,134.286299 169.991803,133.620315 170.438525,132.896955 C168.346311,133.710479 166.190574,132.819086 164.446721,131.956381 L164.446721,131.956381 Z M161.577869,135.706381 C161.133197,135.761709 160.723361,136.079332 160.293033,136.83343 L160.096311,137.419496 C160.026639,137.628512 159.965164,137.851873 159.936475,138.067037 C159.887295,138.468676 159.973361,138.681791 160.231557,138.771955 C162.307377,138.968676 164.704918,138.726873 166.05123,137.323184 C165.588115,137.339578 165.153689,137.237119 164.743852,137.079332 C164.42623,136.956381 164.114754,136.790397 163.813525,136.622365 C163.526639,136.45843 163.243852,136.288348 162.969262,136.138758 C162.459016,135.853922 162.010246,135.655151 161.581967,135.706381 L161.577869,135.706381 Z" id="Shape" fill="#FFFFFF"></path>
            </g>
        </g>
    </g>
</svg>