<?xml version="1.0" encoding="UTF-8" standalone="no"?>
<svg width="250px" height="250px" viewBox="0 0 250 250" version="1.1" xmlns="http://www.w3.org/2000/svg" xmlns:xlink="http://www.w3.org/1999/xlink">
    <!-- Generator: Sketch 47.1 (45422) - http://www.bohemiancoding.com/sketch -->
    <title>MANH</title>
    <desc>Created with Sketch.</desc>
    <defs></defs>
    <g id="Page-1" stroke="none" stroke-width="1" fill="none" fill-rule="evenodd">
        <g id="MANH" fill-rule="nonzero">
            <g id="Group" transform="translate(0.000000, 21.000000)">
                <path d="M47.978525,77.3405025 C52.9670985,77.3405025 58.6278167,77.0884422 64.8766615,76.5843216 L64.8766615,44.1630653 L76.9437583,75.3870352 L81.5122414,74.830402 C84.442372,74.4628141 99.2925678,72.0577387 116.673808,69.1905528 L89.4834568,0 L10.8845424,0 L10.8845424,32.7678392 L26.7324528,32.7678392 L26.7324528,74.5363317 C29.6205743,75.8071357 35.6593739,77.3405025 47.978525,77.3405025 Z" id="Shape" fill="#00703C"></path>
                <path d="M176.221623,59.5492462 L183.489187,40.0670854 L183.489187,58.7195477 C190.399674,58.0473869 196.848062,57.6692965 202.771336,57.6692965 C209.099749,57.6213649 215.421685,58.0849846 221.675405,59.0556281 L221.675405,32.7678392 L237.523315,32.7678392 L237.523315,0 L159.197459,0 L133.382904,66.4388945 L165.866394,61.040603 C169.416158,60.4629648 172.8609,59.9903518 176.221623,59.5492462" id="Shape" fill="#00703C"></path>
                <path d="M112.031809,166.212764 L136.439062,166.212764 L147.382417,136.889749 C134.695687,138.990251 118.186134,141.678894 103.493472,144.115477 L112.031809,166.212764 Z" id="Shape" fill="#00703C"></path>
                <path d="M26.7324528,149.251206 L26.7324528,175.139899 L10.9055469,175.139899 L10.9055469,208.590402 L80.6825629,208.590402 L80.6825629,175.129397 L64.8766615,175.129397 L64.8766615,149.860352 C58.3232512,150.48 52.1899313,150.795075 46.5397153,150.795075 C39.905212,150.850198 33.278292,150.333666 26.7324528,149.251206" id="Shape" fill="#00703C"></path>
                <path d="M183.489187,131.995578 L183.489187,175.129397 L167.599267,175.129397 L167.599267,208.590402 L237.481306,208.590402 L237.481306,175.129397 L221.601889,175.129397 L221.601889,133.581457 C218.451211,132.415678 212.401909,131.155377 201.280015,131.155377 C196.028885,131.155377 190.074104,131.438945 183.426173,131.995578" id="Shape" fill="#00703C"></path>
                <path d="M248.771236,86.8977889 C248.771236,86.8977889 250.084018,54.6550754 167.032145,67.9932663 C167.032145,67.9932663 89.8405337,80.8798492 82.3944313,81.8250754 C-4.77432744,92.8632161 20.5991329,64.7479899 20.5991329,64.7479899 C20.5991329,64.7479899 0.00420090403,69.5581407 0.00420090403,85.5324623 C0.00420090403,87.3388945 0.487304868,121.59809 0.487304868,121.59809 C0.487304868,121.59809 -0.814975383,153.840804 82.2368974,140.502613 C82.2368974,140.502613 159.418007,127.61603 166.864109,126.670804 C254.032868,115.632663 228.659408,143.747889 228.659408,143.747889 C228.659408,143.747889 249.222833,138.958744 249.222833,122.984422 C249.222833,121.17799 248.729227,86.918794 248.729227,86.918794" id="Shape" fill="#00703C"></path>
                <path d="M79.3592781,128.151658 C79.3067668,128.151658 71.8396599,128.907839 67.6177513,129.20191 C68.744969,128.970151 69.5812355,128.018071 69.6656921,126.870352 C69.6656921,126.166683 67.56524,121.293518 67.040127,119.991206 L52.3894742,120.337789 C51.853859,121.608593 51.3392482,122.774372 50.7721262,124.024171 C50.2901039,125.113543 49.9851973,126.272925 49.8689318,127.458492 C49.8972156,128.655804 50.7844271,129.658377 51.9693838,129.83206 C51.8853657,129.83206 40.0703231,129.83206 39.944296,129.91608 C40.3328796,129.91608 43.2735125,128.120151 45.6995345,122.805879 C49.7744115,113.973266 53.8702929,104.594523 57.9556721,95.3628141 C59.5415133,95.3628141 61.1063501,95.3628141 62.7447027,95.2682915 C66.5990321,104.363467 70.4638638,113.616181 74.2971888,122.406784 C76.4921611,127.53201 78.8656719,128.183166 79.3172691,128.162161 M59.8670834,102.893116 C57.8506495,107.608744 55.8237133,112.345377 53.7967771,116.966482 L65.6118197,116.682915 C63.7004083,112.103819 61.7784947,107.556231 59.8670834,102.893116" id="Shape" fill="#FFFFFF"></path>
                <path d="M96.4569575,126.975377 C91.4158727,128.298693 86.3852901,127.49 81.7537934,126.723317 C81.7537934,126.723317 81.7537934,120.694874 81.7537934,117.859196 C84.3373494,122.93191 88.1496698,123.751106 92.6446371,123.194472 C96.194401,122.763869 99.4606039,120.106734 99.3870881,117.103015 C99.2925678,112.975528 94.4090168,112.355879 89.7355111,111.02206 C85.6186251,109.845779 81.8693183,107.493216 81.4912369,103.218693 C80.9346171,96.9171859 85.0830099,92.2225628 93.243266,91.2038191 C96.6249937,90.7837186 100.594848,90.8992462 102.485255,91.7604523 C102.537766,94.1130151 102.485255,96.4760804 102.485255,98.8391457 C100.417273,95.8044275 96.6873169,94.3659344 93.1172388,95.2262814 C89.168389,96.0139698 86.9314076,98.4295477 86.9839189,100.981658 C87.067937,104.132412 90.6071987,105.182663 94.6085598,106.075377 C99.6076356,107.209648 104.858766,109.583216 105.383879,115.380603 C105.929996,121.398543 102.726807,125.536533 96.4674598,126.933367" id="Shape" fill="#FFFFFF"></path>
                <path d="M219.911025,114.130804 C215.416058,114.351357 208.705113,112.502915 206.111055,110.675477 C206.048042,107.818794 206.111055,104.58402 206.111055,101.727337 C208.673607,107.440704 212.464922,109.520201 216.95989,109.709246 C220.44664,109.856281 223.733848,108.228392 223.670834,105.193166 C223.576314,100.992161 218.713767,99.2382412 214.061266,96.7911558 C209.965385,94.6381407 205.974526,91.9284925 205.859001,86.9923116 C205.711969,80.690804 210.637529,77.5400503 217.558519,77.7290955 C220.803045,77.8775782 223.961784,78.8187321 226.758498,80.4702513 C226.821512,82.8543216 226.758498,85.238392 226.758498,87.6224623 C224.854964,84.2010035 221.340181,81.9844204 217.432491,81.7410553 C213.494144,81.5940201 211.267665,83.4949749 211.330678,86.0680905 C211.404194,89.3028643 214.932954,91.119799 218.91331,92.9997487 C223.891381,95.3313065 229.499588,98.7551256 229.636118,104.920101 C229.772647,111.085075 226.653476,114.067789 219.911025,114.141307" id="Shape" fill="#FFFFFF"></path>
                <path d="M124.529499,107.083618 C122.840031,107.515278 121.105886,107.747913 119.362387,107.776784 C119.4254,110.612462 119.362387,113.02804 119.362387,115.863719 C119.467409,120.316784 121.903934,120.757889 122.460554,120.673869 C118.658735,121.619095 114.856917,122.564322 111.055099,123.47804 C111.506696,123.331005 113.491623,121.850151 113.386601,117.302563 C113.19756,109.541206 113.449614,101.779849 113.260574,94.0184925 C113.155551,89.418392 110.466972,89.460402 109.973366,89.481407 C115.045958,88.2526131 119.4254,87.1498492 124.48749,85.8895477 C132.217153,83.9675879 136.985179,87.8640201 137.090202,93.0627638 C137.226731,98.8181407 132.889298,104.993618 124.48749,107.083618 M123.437264,89.7229648 C121.914436,90.1010553 120.685672,90.4791457 119.162844,90.8572362 C119.267866,95.1632663 119.162844,99.479799 119.23636,103.785829 C120.83896,103.777065 122.433995,103.56533 123.983381,103.155678 C128.593873,102.010905 131.13542,98.4400503 131.051402,94.6066332 C130.967384,90.7732161 128.268303,88.5151759 123.437264,89.7229648" id="Shape" fill="#FFFFFF"></path>
                <path d="M167.084657,112.69196 C159.06093,113.742211 150.207525,115.422613 142.1943,117.197538 C142.593386,117.050503 144.672834,116.094774 144.546806,111.200603 C144.368268,103.523266 144.620322,95.8459296 144.431282,88.1580905 C144.315757,83.6105025 141.564165,83.6105025 141.049554,83.6315075 C148.873738,81.8880905 156.802944,80.3547236 164.595621,79.2624623 C164.658635,81.7725628 164.595621,84.2721608 164.595621,86.7822613 C163.75544,84.7342714 162.652703,83.0328643 158.094722,83.7995477 C155.521668,84.2301508 153.053637,84.7027638 150.491086,85.2068844 C150.575104,88.9457789 150.491086,92.6846734 150.543597,96.4235678 C152.69656,96.0034673 154.965048,95.5938693 157.118012,95.2262814 C160.835812,94.5856281 161.486952,93.1257789 161.602477,92.8317085 C161.602477,95.1317588 161.602477,97.4423116 161.602477,99.7423618 C161.549966,99.6058291 161.182386,98.1354774 157.29655,98.7866332 C155.091076,99.1647236 153.011628,99.5743216 150.816656,100.004925 C150.911176,103.911859 150.816656,107.818794 150.879669,111.725729 C153.599755,111.190101 156.015274,110.759497 158.73536,110.297387 C163.692427,109.488693 165.236259,108.133869 166.969132,104.552513 C167.084657,104.552513 166.969132,112.69196 166.969132,112.69196" id="Shape" fill="#FFFFFF"></path>
                <path d="M193.067248,111.127085 C190.686736,107.360184 188.306223,103.649296 185.925711,99.9944221 C184.486902,97.8098995 183.394667,96.9907035 181.724807,97.0852261 L180.863622,97.1377387 C180.937138,100.183467 180.863622,103.229196 180.863622,106.264422 C180.968644,110.72799 183.184621,111.200603 183.741241,111.232111 C179.981432,111.410653 176.211121,111.736231 172.440809,112.177337 C172.892406,112.072312 174.887836,111.326633 174.772311,106.768543 C174.58327,98.9966834 174.772311,91.2248241 174.635782,83.4529648 C174.520257,78.8318593 171.779167,78.5062814 171.275058,78.4747739 C176.032582,77.9076382 180.779604,77.5295477 185.537128,77.4245226 C193.508343,77.2354774 197.089614,82.0351256 197.299659,86.8767839 C197.446691,90.6156784 195.335736,95.1422613 188.950362,96.1505025 C190.000588,95.9929648 190.935289,97.5683417 191.859488,98.9966834 C193.812909,101.965394 195.766329,104.979615 197.719749,108.039347 C198.84545,109.891059 200.638425,111.240521 202.729327,111.809749 C199.484129,111.452663 196.238931,111.253116 193.004235,111.179598 M184.444893,81.0268844 C183.058594,81.079397 181.997866,81.1424121 180.611568,81.2369347 C180.71659,85.4379397 180.611568,89.6389447 180.685083,93.9029648 C182.071382,93.8189447 183.373662,93.7454271 184.75996,93.6929146 C190.116113,93.5353769 192.111542,90.5421608 192.017022,87.2023618 C191.943506,84.051608 189.35995,80.9008543 184.444893,81.0268844" id="Shape" fill="#FFFFFF"></path>
                <path d="M42.2968023,94.9742211 L30.0616693,93.6088945 C32.6475727,95.0226519 34.176499,97.8100375 33.9790123,100.750603 C34.1260439,107.052111 34.210062,110.423417 34.2625733,116.766935 C34.3255869,124.769849 29.3790224,125.494523 25.7347381,124.307739 C23.1826889,123.47804 21.9959335,121.965678 20.7671691,119.361055 L20.7671691,126.985879 C22.0142079,127.943884 23.4436982,128.637203 24.9680731,129.023367 C36.594075,131.827538 39.7342508,123.373015 39.6712373,118.394824 C39.5242056,112.177337 39.4926988,106.169899 39.3456672,99.9524121 C39.2721514,96.8646734 42.1812774,94.9742211 42.1812774,94.9742211" id="Shape" fill="#FFFFFF"></path>
            </g>
        </g>
    </g>
</svg>