<?xml version="1.0" encoding="UTF-8" standalone="no"?>
<svg width="250px" height="250px" viewBox="0 0 250 250" version="1.1" xmlns="http://www.w3.org/2000/svg" xmlns:xlink="http://www.w3.org/1999/xlink">
    <!-- Generator: Sketch 47.1 (45422) - http://www.bohemiancoding.com/sketch -->
    <title>PRINCE</title>
    <desc>Created with Sketch.</desc>
    <defs></defs>
    <g id="Page-1" stroke="none" stroke-width="1" fill="none" fill-rule="evenodd">
        <g id="PRINCE" fill-rule="nonzero">
            <g id="Group" transform="translate(17.000000, 0.000000)">
                <path d="M0.0902032852,0.151718352 L0.0902032852,56.3710991 L26.834927,56.3710991 L26.834927,192.817797 L0.0902032852,192.817797 L0.0902032852,249.007783 L127.24636,249.007783 L127.24636,192.817797 L100.501636,192.817797 L100.501636,153.887266 L128.120226,153.887266 C153.264085,153.887266 175.933213,146.262829 191.939413,132.40603 C207.989919,118.522285 216.818909,98.8497881 216.818909,77.0194922 C216.818909,55.1926257 207.989674,35.5193942 191.939413,21.637854 C175.93566,7.79011733 153.266533,0.157842201 128.122674,0.157842201 L12.1701238,0.157842201 L0.0902032852,0.157842201 L0.0902032852,0.151718352 Z M9.95779713,8.91641559 L12.1713477,8.91641559 L128.12145,8.91641559 C174.53674,8.91641559 206.953029,36.9171015 206.953029,77.0209619 C206.953029,117.124822 174.53674,145.130407 128.12145,145.130407 L90.6308599,145.130407 L90.6308599,201.584944 L117.380479,201.584944 L117.380479,240.255824 L9.95853147,240.255824 L9.95853147,201.584944 L36.7130464,201.584944 L36.7130464,47.6142404 L9.95853147,47.6142404 L9.95853147,8.91886513 L9.95779713,8.91641559 Z M90.6301256,47.6117909 L90.6301256,106.650592 L118.588961,106.650592 C142.579414,106.650592 158.084304,95.0657395 158.084304,77.1360903 C158.084304,59.1986025 142.580148,47.6117909 118.588961,47.6117909 L95.5739585,47.6117909 L90.6306151,47.6117909 L90.6301256,47.6117909 Z M100.502615,56.371834 L118.588716,56.371834 C137.1399,56.371834 148.212059,64.132465 148.212059,77.1356004 C148.212059,90.132367 137.140879,97.8944677 118.588716,97.8944677 L100.502615,97.8944677 L100.502615,56.3723239 L100.502615,56.371834 Z" id="Shape" fill="#FFFFFF" transform="translate(108.454556, 124.579751) rotate(-360.000000) translate(-108.454556, -124.579751) "></path>
                <path d="M5.02400021,4.53418945 L5.02400021,30.1049321 C38.4267551,49.1023356 70.2041671,74.6424591 95.5732242,97.5774973 L95.5732242,77.1343756 L95.5732242,70.3168173 C71.288545,43.2690023 45.2757151,20.9708444 24.7165961,4.5344344 L12.1715925,4.5344344 L5.02424499,4.5344344 L5.02400021,4.53418945 Z M56.1121504,4.53418945 C72.7596762,18.387805 90.3520549,34.5214518 107.777983,51.994017 L118.587492,51.994017 C140.228786,51.994017 153.143164,61.855863 153.143164,77.1360903 C153.143164,83.6494158 150.786123,89.1733723 146.411698,93.3738426 C158.430179,107.147113 169.91822,121.249602 180.436196,135.312408 C190.937526,128.494115 199.187121,119.45262 204.598729,108.703061 C170.557097,62.0295353 125.634969,28.233239 84.1887252,4.53394449 L56.1099474,4.53394449 L56.1121504,4.53418945 Z M140.417022,10.2034036 C179.129068,47.2404407 198.549957,78.9423807 208.204102,100.081906 C210.612718,92.9493374 211.885357,85.2244697 211.885357,77.0216968 C211.885357,75.0490826 211.813416,73.1016988 211.670219,71.1849341 C175.031466,25.8782518 140.417047,10.201199 140.417047,10.201199 L140.417022,10.2034036 Z M40.4168211,77.3648773 C60.8780279,101.865171 80.0810627,126.265034 97.3894959,149.513613 L117.578996,149.513613 C77.3909243,108.89535 40.4168211,77.3648773 40.4168211,77.3648773 Z M121.424499,102.205657 C120.495777,102.243944 119.551952,102.267851 118.58945,102.267851 L100.713861,102.267851 C122.27609,122.126268 138.600995,139.473906 146.419286,148.052194 C147.188362,147.926042 147.953032,147.793865 148.709331,147.650322 C141.070954,131.629599 131.731596,116.44074 121.42609,102.204016 L121.424499,102.205657 Z M31.7736196,102.540558 L31.7736196,134.646672 C51.6006,152.916073 71.7756583,174.143047 91.810947,198.741323 C91.810947,198.741323 71.3323607,150.977752 31.7736196,102.540558 Z M31.7736196,170.539774 L31.7736196,184.108019 C52.9091968,206.33612 68.392791,226.01474 80.4849506,244.643488 L113.985618,244.643488 C84.8640748,213.931162 55.6030069,188.967905 31.7711718,170.540019 L31.7736196,170.539774 Z M5.0191046,197.198113 L5.0191046,215.081711 C14.8947762,224.236619 24.7317725,234.081564 34.4074584,244.642753 L44.3661106,244.642753 C37.1573232,231.652845 26.8618529,215.069463 13.0415426,197.195173 L5.01934938,197.195173 L5.0191046,197.198113 Z" id="Shape" fill="#231F20" transform="translate(108.452231, 124.588716) rotate(-360.000000) translate(-108.452231, -124.588716) "></path>
                <path d="M24.7175752,4.53418945 C45.2776734,20.9705994 71.2919719,43.2687573 95.5742033,70.3165724 L95.5742033,51.9927922 L107.779696,51.9927922 C90.3537683,34.5202271 72.7638374,18.38756 56.1187595,4.53296468 L24.7183096,4.53296468 L24.7175752,4.53418945 Z M84.196803,4.53418945 C125.643047,28.2344638 170.560279,62.0297803 204.601912,108.700856 C205.993244,105.937286 207.200992,103.059322 208.206795,100.079702 C198.550202,78.9426257 179.129312,47.2406856 140.417267,10.201199 C140.417267,10.201199 175.031686,25.8762921 211.67044,71.1824846 C208.671878,31.6469173 175.156524,4.53296468 128.12194,4.53296468 L84.1960686,4.53296468 L84.196803,4.53418945 Z M5.02008372,30.1073817 L5.02008372,52.0001408 L31.7697031,52.0001408 L31.7697031,68.9747146 L31.7697031,102.540754 C71.328689,150.977948 91.8119261,198.741518 91.8119261,198.741518 C71.7741896,174.143243 51.5944805,152.913084 31.7672553,134.641969 L31.7672553,149.736276 L31.7672553,170.538256 C55.6005591,188.966876 84.8626061,213.929398 113.984149,244.641724 L122.312318,244.641724 L122.312318,197.196594 L95.5724898,197.196594 L95.5724898,149.511409 L97.3892266,149.511409 C80.0832412,126.265279 60.8777586,101.865416 40.4165518,77.3651222 C40.4165518,77.3651222 77.3931029,108.895595 117.578727,149.511409 L128.120447,149.511409 C134.481559,149.511409 140.59275,149.007489 146.416814,148.052218 C138.598523,139.47638 122.27166,122.128742 100.708941,102.270325 L95.569528,102.270325 L95.569528,97.5816615 C70.2029188,74.6466233 38.4206111,49.1052751 5.01785622,30.1090964 L5.02008372,30.1073817 Z M146.417573,93.3740875 C140.992012,98.5837681 132.453576,101.745634 121.42303,102.205902 C131.72976,116.442136 141.064222,131.62977 148.703823,147.652208 C160.693175,145.407695 171.399142,141.185914 180.439623,135.313633 C169.920668,121.249847 158.437522,107.148828 146.420021,93.3750674 L146.417573,93.3740875 Z M31.7721509,184.10748 L31.7721509,197.197329 L13.0408083,197.197329 C26.8608738,215.070884 37.1568336,231.652551 44.3653762,244.642459 L80.4851954,244.642459 C68.390588,226.013711 52.9082177,206.334111 31.7714165,184.10699 L31.7721509,184.10748 Z M5.01763591,215.081906 L5.01763591,244.642949 L34.4059897,244.642949 C24.7298142,234.080535 14.895021,224.235836 5.02008372,215.079457 L5.01763591,215.081906 Z" id="Shape" fill="#F4731C" transform="translate(108.344038, 124.587957) rotate(-360.000000) translate(-108.344038, -124.587957) "></path>
            </g>
        </g>
    </g>
</svg>