<?xml version="1.0" encoding="UTF-8" standalone="no"?>
<svg width="250px" height="250px" viewBox="0 0 250 250" version="1.1" xmlns="http://www.w3.org/2000/svg" xmlns:xlink="http://www.w3.org/1999/xlink">
    <!-- Generator: Sketch 47.1 (45422) - http://www.bohemiancoding.com/sketch -->
    <title>LOYMD</title>
    <desc>Created with Sketch.</desc>
    <defs></defs>
    <g id="Page-1" stroke="none" stroke-width="1" fill="none" fill-rule="evenodd">
        <g id="LOYMD" fill-rule="nonzero">
            <g id="Asset-1" transform="translate(11.000000, 0.000000)">
                <polygon id="Shape" fill="#0A0203" points="38.8290909 0 22.4545455 67.0138889 44.7709091 67.0138889 0 249.583333 209.069091 249.583333 226.341818 179.305556 140.323636 179.305556 184.403636 0"></polygon>
                <polygon id="Shape" fill="#DCDDDE" points="16.5818182 236.597222 61.3527273 54.0277778 38.9672727 54.0277778 49.1236364 12.5694444 167.96 12.5694444 123.741818 192.291667 209.76 192.291667 198.912727 236.597222"></polygon>
                <polygon id="Shape" fill="#007A5B" points="195.32 203.75 109.301818 203.75 123.603636 145.555556 153.450909 24.0277778 57.9672727 24.0277778 53.4072727 42.6388889 75.7927273 42.6388889 31.0218182 225.208333 39.2436364 225.208333 39.2436364 225.208333 190 225.208333 195.32 203.75 195.32 203.75"></polygon>
            </g>
        </g>
    </g>
</svg>