<svg width="500" height="500" viewBox="0 0 500 500" fill="none" xmlns="http://www.w3.org/2000/svg">
<path d="M253.408 170.007L307.802 252.202H199.013L253.408 170.007ZM436.436 331.444L289.862 114.201H134.176L96.7606 169.754H181.356L72.3913 331.444H37.4158L0 387H182.738L219.338 331.444H146.572L164.724 304.013H315.153L328.745 283.848L360.243 331.444H320.627L283.212 387H463.4L500 331.444H436.436Z" fill="#C7B784"/>
<path d="M180.261 262.277L248.157 159.679H258.654L326.55 262.277H180.261ZM431.079 341.522L284.808 124.727L284.503 124.276H139.537L115.692 159.679H200.295L77.7494 341.522H42.776L18.9336 376.925H177.309L200.633 341.522H127.818L159.308 293.938H309.793L328.82 265.706L378.992 341.522H325.988L302.145 376.925H457.97L481.294 341.522H431.079Z" fill="#011E41"/>
</svg>
