<svg width="500" height="500" viewBox="0 0 500 500" fill="none" xmlns="http://www.w3.org/2000/svg">
<g id="Team Logos / NCAA / Dark / STPETE">
<g id="Asset 1 7" clip-path="url(#clip0)">
<g id="Layer 2">
<g id="Saint Peter&#39;s Mascot Head">
<path id="Vector" d="M390.052 262.694C408.309 265.917 421.126 282.226 426.811 293.143C441.429 263.172 440.645 230.223 434.432 210.986C428.661 193.133 415.232 178.92 395.774 166.875C399.058 154.806 395.333 132.162 377.088 110.511C349.482 77.6847 309.23 59.5011 267.435 58.5331C246.605 58.0552 224.549 63.0422 208.902 70.7249L137.221 31.0248C134.17 17.4117 124.858 7.25384 106.993 0C87.7923 8.65069 77.5854 24.1631 78.4677 43.9641C63.96 59.8441 61.4849 76.6431 67.1458 94.0425C58.7157 111.993 60.6884 128.265 72.77 144.28C88.8828 146.731 107.875 139.465 115.533 131.267L148.531 130.606C122.42 172.426 113.818 214.87 120.814 254.864C127.137 291.207 143.826 327.66 156.165 351.872C167.695 374.492 184.947 408.347 192.287 457.359C199.945 452.458 211.34 444.138 216.315 438.146C224.824 458.087 231.334 478.823 235.748 500.049C249.901 495.221 272.336 481.351 280.901 473.656C280.901 473.656 284.785 483.826 285.802 487.845C315.149 464.919 330.832 438.073 337.082 395.947C342.118 361.981 332.303 304.869 290.924 273.416C303.406 271.008 315.285 266.143 325.87 259.104C352.668 270.659 367.923 258.773 390.052 262.694Z" fill="white"/>
<path id="Vector_2" d="M381.72 171.801C386.132 166.152 390.653 147.87 373.143 123.536C359.91 105.156 333.014 80.7846 292.481 72.1462C261.236 65.4928 224.427 72.6118 209.16 83.4436L129.821 38.9648C127.799 25.6334 119.308 17.816 107.864 13.6499C96.5417 19.6784 91.1749 28.807 90.6235 42.3344C98.1346 49.5637 113.757 52.9946 124.16 49.6128L169.828 83.6886L115.399 71.5703C109.346 61.4247 96.799 54.6978 85.9918 53.7911C77.0103 61.0571 73.0893 74.4253 76.704 87.4136C86.7883 91.4203 103.906 90.8322 111.589 84.093L164.926 101.333L109.101 107.08C100.45 99.2133 87.3151 97.2773 76.7652 99.6299C70.994 111.381 71.9743 123.046 78.9953 133.559C89.7658 134.331 104.653 128.657 110.388 120.325L164.669 119.235L165.343 125.643C148.63 148.924 122.102 194.065 131.696 253.075C143.385 324.866 187.166 366.662 199.786 437.362C205.19 433.294 214.588 424.876 218.852 419.35C228.446 436.345 237.955 460.839 243.824 482.135C259.153 474.673 272.901 466.096 285.215 453.328C287.627 458.012 289.529 462.941 290.888 468.032C304.906 455.913 321.276 430.635 325.785 393.68C331.397 347.792 312.307 308.055 298.019 294.65C299.494 304.475 299.72 314.446 298.693 324.327C290.325 304.232 274.481 289.835 254.803 281.172C256.383 292.776 255.195 306.695 252.352 315.297C241.888 293.964 231.657 283.524 211.317 261.849C172.278 220.311 179.691 182.767 186.222 177.351C186.896 205.913 197.887 226.719 215.078 242.562C252.462 277.03 308.496 263.54 324.584 245.282C335.11 253.945 352.301 253.86 369.283 250.943C397.98 246.042 415.674 258.05 424.214 269.899C433.269 237.441 431.443 196.38 381.72 171.801ZM263.319 417.537C282.544 404.23 295.667 380.103 301.671 351.37C304.183 364.26 301.365 388.901 294.184 404.757C286.636 421.433 273.354 435.794 256.065 447.054C242.121 408.2 225.261 378.339 204.822 355.891C230.015 366.98 251.789 392.761 263.319 417.537ZM343.956 111.638C345.293 112.097 346.479 112.911 347.389 113.992C348.299 115.073 348.899 116.38 349.124 117.775C349.349 119.17 349.191 120.6 348.667 121.912C348.144 123.225 347.273 124.37 346.15 125.227C341.383 128.903 332.671 125.643 332.855 119.1C339.913 121.931 344.741 118.634 343.956 111.638ZM345.182 134.919C352.803 138.791 359.53 135.507 359.395 127.273C364.566 129.932 366.747 138.889 360.302 142.945C354.898 146.326 349.519 142.43 349.519 142.43C349.519 142.43 349.519 149.561 342.731 150.921C337.082 152.061 330.551 148.471 330.478 140.286C336.972 144.317 343.626 142.369 345.145 134.87L345.182 134.919ZM325.699 163.432C331.434 168.652 338.773 166.213 340.403 159.437C347.314 164.669 355.707 161.594 356.001 154.156C362.912 158.236 370.043 154.659 369.908 146.608C375.447 149.341 376.697 158.947 371.134 163.322C366.159 167.23 360.939 163.616 360.939 163.616C361.374 165.489 361.088 167.458 360.136 169.129C359.185 170.801 357.638 172.052 355.805 172.634C353.969 173.337 351.959 173.451 350.055 172.959C348.151 172.467 346.447 171.394 345.182 169.889C340.623 180.758 323.702 178.515 325.662 163.383L325.699 163.432ZM264.434 239.72C243.297 237.918 231.448 228.324 223.067 213.817C213.902 197.888 220.176 179.765 226.204 178.54C228.238 202.078 247.206 234.071 301.61 221.72C301.144 230.812 284.529 241.386 264.409 239.671L264.434 239.72ZM365.877 234.831C345.169 239.585 332.095 232.233 328.468 224.183C352.607 227.601 358.954 215.605 392.062 222.063C390.641 214.466 382.26 208.584 374.221 206.599C359.861 202.924 350.561 207.911 333.492 206.44C312.564 204.651 300.311 191.075 294.552 184.189C292.83 185.386 290.78 186.019 288.683 186.002C287.281 185.978 285.898 185.678 284.612 185.12C283.326 184.561 282.163 183.755 281.189 182.747C280.215 181.738 279.45 180.548 278.936 179.244C278.422 177.94 278.17 176.547 278.194 175.146C278.197 173.12 278.752 171.133 279.799 169.399C275.976 165.723 272.361 162.39 268.195 158.959C257.388 172.168 260.586 193.93 277.324 199.787C265.867 202.029 254.043 194.077 250.624 184.519C246.36 172.524 248.174 158.151 254.411 149.377C241.263 142.724 231.485 146.143 223.986 151.264C213.081 158.702 207.138 171.384 204.381 180.28C201.771 173.945 199.48 152.429 213.485 139.71C229.145 125.57 249.902 125.631 270.854 140.347C281.772 148.017 290.619 157.06 299.171 165.821C311.963 178.895 325.087 187.73 335.244 189.286C344.63 190.732 359.751 189.825 368.94 183.882C397.184 195.155 411.14 214.637 411.618 239.597C398.715 232.625 382.933 230.91 365.877 234.831Z" fill="#003C71"/>
</g>
</g>
</g>
</g>
<defs>
<clipPath id="clip0">
<rect width="376.636" height="500" fill="white" transform="translate(62)"/>
</clipPath>
</defs>
</svg>
