<?xml version="1.0" encoding="utf-8"?>
<!-- Generator: Adobe Illustrator 27.4.1, SVG Export Plug-In . SVG Version: 6.00 Build 0)  -->
<svg version="1.1" id="Layer_1" xmlns="http://www.w3.org/2000/svg" xmlns:xlink="http://www.w3.org/1999/xlink" x="0px" y="0px"
	 viewBox="0 0 500 500" style="enable-background:new 0 0 500 500;" xml:space="preserve">
<style type="text/css">
	.st0{fill:#FFFFFF;}
	.st1{fill:#006549;}
	.st2{fill:#FFC62D;}
</style>
<g>
	<path class="st0" d="M244.9,491.9c-5.3-18-22.3-25.7-72.5-48.4l-4.1-1.9c-2.3-1-4.6-2.1-6.9-3.4c-24.1-12.2-47.3-29-59.2-42.8
		c-23.3-25.6-30.9-51.1-33.2-68.1c-2.5-18.8-0.9-37.6,1.8-47.8c9.1-33.7,21.1-65.7,29.6-86.7l0.7-1.6h-1.7c-3.4-0.1-7-0.4-10.6-0.9
		l-2.4-0.4l-1.5-1.9c-2.4-3.1-8-9.8-12.8-15.6c-5.1-6.2-7.4-8.9-8.1-9.9c-16.7-23.3-8.7-37.7,1-45.6c2.5-2.1,5.3-4.3,8.1-6.6
		c6-4.9,11.9-9.6,16.9-13.9c1.4-1.1,2.7-2.3,4-3.5l0.5-0.4l-0.1-0.7c-0.9-6-3-12.3-5-18.4l-1.5-4.7c-0.8-2.4-1.7-5.2-1.9-6
		c-2.4-9.4,0.5-19.9,7.6-26.8c1.5-1.7,3.7-3.1,5.5-4.3l23.9-15.8c1.2-0.8,3.4-2.1,6.1-3.7c3.7-2.2,8.2-5,12.1-7.5s7.6-3.6,12.4-3.6
		c3.6,0,7.8,0.6,12.9,1.3c2.4,0.4,4.7,0.7,7.2,1c6.2,0.8,13.3,6.2,18.3,14.2l0.5,0.8l0.9-0.4C217.1,8,242.5,2.6,266.9,2.6
		c17.2,0,33.7,2.6,48.9,7.8c4.3,1.5,8.5,3.1,12.4,4.9l0.7,0.3l0.6-0.5c6.9-5.8,15.8-9,24.8-9h8.5l2.5,1.2
		c32.5,14.9,53,37.4,55.2,39.9l3.3,3.7l0.5,19.1l-2.3,3.6c-0.2,0.4-6.2,9.9-9.7,21.7l-0.1,0.4l0.1,0.4c9.8,25.6,29.4,41.2,29.6,41.3
		l3.5,2.7l-3.6,9.3c-7.3,18.8-17.4,31.2-30.8,37.9c-1.7,0.9-3.4,1.7-5.1,2.3l-0.9,0.4l0.2,0.9c0.8,4.1,1.4,8.3,1.6,12.5
		c29.5,62.8,35.9,111.3,20.3,152.9c-19.3,51.7-73,94.6-174,139l-6.2,2.7l-1.9-6.5L244.9,491.9z"/>
	<path class="st1" d="M442.8,150l4-10.1l-4.1-3.3c0,0-19.6-15.5-29.2-40.8c3.4-11.7,9.3-21.1,9.5-21.5l2.5-3.9l-0.5-19.9l-3.6-4.1
		c-2.3-2.5-22.8-25.1-55.6-40.2l-3-1.4h-8.5c-9.4,0-18.4,3.3-25.5,9.3c-4-1.8-8.2-3.4-12.6-4.9c-37.5-12.7-82-9.8-123.3,7.7
		c-5.2-8.2-12.4-13.9-19.2-14.8c-2.7-0.4-5-0.7-7.2-0.9c-11.9-1.7-18.4-2.6-26.3,2.4c-3.9,2.5-8.4,5.2-12,7.5
		c-2.7,1.6-4.9,3-6.2,3.8L98.3,30.8c-1.8,1.2-4,2.7-5.6,4.4c-7.3,7.2-10.4,18.3-7.9,27.9c0.2,0.9,1.1,3.7,1.8,5.8
		c0.3,0.8,0.5,1.6,0.7,2.1l1,3c2,6,4.1,12.3,5,18.2c-1.3,1.2-2.6,2.3-3.9,3.4c-4.9,4.3-10.8,9-16.5,13.6c-3,2.4-5.8,4.7-8.5,6.9
		c-10.1,8.3-18.5,23.2-1.2,47.2c0.7,0.9,2.8,3.5,8.2,10c4.8,5.7,10.4,12.5,12.7,15.5l1.8,2.3l2.8,0.4c3.7,0.5,7.3,0.8,10.8,0.9
		c-8.4,20.7-20.4,53-29.6,86.8c-2.8,10.3-4.4,29.2-1.8,48.2c2.3,17.1,10,43,33.5,68.7c12,13.9,35.4,30.8,59.6,43.1
		c2.4,1.2,4.7,2.4,7,3.4l4.1,1.9c49.8,22.6,66.7,30.2,71.8,47.7l2.3,7.7l7.4-3.3c101.4-44.5,155.3-87.6,174.7-139.7
		c15.6-42,9.2-90.7-20.2-153.4c-0.2-4.3-0.8-8.5-1.6-12.7c1.7-0.7,3.4-1.5,5.2-2.4c13.6-6.9,23.9-19.5,31.3-38.6H442.8z M259,469.9
		c-8.4-15.7-35.6-22.5-82-46c-62.3-31.6-69.3-75.9-69.3-75.9s-4.4,5.3-5.5,13.7c-5.9-7.3-21-35.9-10.6-76.6
		c13.5-52.9,36.4-102.9,39-108.4c13.7-9.8,19.1-26.5,19.3-41.6c0.1-10.8-0.1-20.1,3.3-31.5c0.5-1.5-1.5-2.7-2.6-1.5
		c-11.3,11.7-9.7,31.9-12.5,42.6c-5.3,20.1-27.1,26.7-40.5,24.5c-4-5.2-10.9-13.3-15.2-19.6c-5.2-7.7-5.5-14.6,1.3-20.3
		c10.8-8.9,22.6-17.9,32.5-28c0.6-9.5-1.5-18.4-4.1-27c-1.6-5.3-3.4-10.6-5.2-15.8c-0.3-0.9-0.5-1.8-0.4-2.7c0.1-2.1,1.2-4.2,3-5.3
		l2.3-1.5l4.6-3c8.4-5.5,23.8-15.7,32-21.2l2.3-1.5l0.3-0.2c0,0,0.2-0.1,0.2-0.1c0.8-0.4,1.7-0.6,2.6-0.6l5.2,0.4
		c2.5,0.2,4.3,0.4,7.5,0.8c6.4,0.9,9.3,5.5,10.4,6.9c5.6,7.5,10.8,14.5,16.7,22.2c0.5-3.9,0.5-7.6,0.2-11.2
		C232.1,23,274,19,308.9,30.8c24.6,8.4,42.8,21.6,57.2,48.9c-2.6-0.1-5.2-0.1-7.6,0.1c-8.5,2-16.6,8.5-16.6,8.5l3.4-6.6
		c-6.8,1.5-12.5,3.8-17.4,6l-7.8,10.5l-2.8-13l-6.6,20.3l4.4,7.8L314,114c-11.5-9.2-22.8,0.5-25.4,3.2c0.6-0.1,1.2-0.1,1.9-0.2
		c19.6-1.1,27.6,2.5,27.6,2.5l15.3,18.5c-3.9,0.4-11.3,1.1-18.8,1.1c-7,0-15.6-2.2-21-2.7c-3.1-0.3-6.2,0.5-8.9,2.2l-7.4,4.9
		c-1.5,1-2.4,2.7-2.4,4.4v9.9c0,1.7,0.8,3.2,2.1,4.2l8.5,6.5c1,0.8,1.7,2,2,3.2l0.4,1.7c0.6,3,2.8,5.2,5.4,7c0.5,0.4,1.4,1,2.5,1.8
		l0,0c10.3,5.9,4.6,37.6,2.7,44.7s-3.3,14.8-16.5,20c-13.3,5.2-42.3,10-43.6,20.6c-0.5,4.1,0.7,5.7,1.8,6.3c0.7,0.4,1.6,0.2,2.1-0.5
		l2.6-3.5c0,0,6.8,0.3,12.4,11.6c5.6,11.3,10.1,20.6,28.9,19c20.3-1.8,27.6-0.4,34,0c6,0.4,9.8-0.7,12.7-3.8
		c-0.4,2.5-0.9,5.1-1.8,7.7c-2,6.2-5.5,12.1-11.7,15.6c-7.3,4-33.8,6-53.3,4.2c-16.4-1.5-28.3-10.8-33.3-15.5
		c8-5.5,11.1-12,9.7-13.2c-17.4,13.7-34.8,8.2-43.3,4.9c-19.1-7.6-52.4-38.7-56.5-106.1c-8.5,19.8-7.1,52.3,1.1,69.9
		c1-1.4,1.5-1.8,2.5-2.8c26.2,55.1,56.7,56.4,65.9,55.1c0.1,0,0.2,0,0.3-0.1c14.6,8.8,27.5,18.7,51.8,20.9
		c7.1,0.7,16.2,0.8,25.4,0.5c14-0.5,27.7-2.8,34.8-6.6c8.3-4.3,13-9.2,15.4-14.7c25.8-3.9,42.6-23.4,53.2-57.2
		c1.2-4.1,3.9-12.6,5.8-23.6c32.7,84.5,30.3,157.6-139.7,234.3L259,469.9z M346.6,263.2c-5.2-6.3-7.3-5.7-22.2-14.3
		c-7.3-4.2-11.9-10.8-11.1-21.4c0.8-10.7,0.5-39.5,10-44l1.8-1c2.7-1.4,4.7-3,5.4-6l0.7-2.7c0.3-1.1,0.9-2.2,1.8-3l6-5
		c1.2-1,2-2.4,2.3-3.9l1.4-9.9c0.3-1.5,0-3-0.7-4.3l-2.7-4.3c10.4,3.7,17.4,9.2,24.1,21.1c-1.8,17.8-15.2,42.8-15.2,42.8
		s7.8,9.7,10.5,18.9c1.5,5.2,0.4,12.4-2,19.3c-1,2.9,1.2,5.5,4.1,0.8c9.2-14.5,6.9-22.5,4.5-27.6l-5-10.4c0,0,12.6-16.4,16.3-33.1
		c0.2-0.7,0.2-1.3,0.3-2c10.5,15.8,16.2,32.5,5.5,70.9c0,0-1.7-2.5-3.4-5.5c-8.7,53-22.6,60.3-37.3,63.6c-0.1-1.4-0.2-2.8-0.4-4.3
		c-1.2-8.5-1.5-21,1.9-27.7c1.1,0.4,4,2,6.5,6C352.2,275,350.5,267.9,346.6,263.2L346.6,263.2z M323.7,280.6
		c-2.5,0.4-5.7,0.5-9.8-0.1c2-2,4.4-4.4,6.1-7.1c0.2-0.4,0.6-0.5,0.9-0.5s0.8,0.2,0.9,0.5C323.3,276.1,323.6,278.7,323.7,280.6
		L323.7,280.6z M340.4,120.6c-1.7-0.7-3-1.7-3.7-2.7c0,0,0,0.1-0.1,0c-0.2-0.2-1.9-0.3-2.4-0.3c-0.5,0-1.1-1.1-0.7-1.2
		c0.4,0,2.4,0.1,2.7-0.7c0.2-1.1,0.8-2.6,3.1-3.8c-0.4,1-0.6,2.1-0.6,3.3C338.7,117.2,339.3,119.1,340.4,120.6L340.4,120.6z
		 M339.5,116.5v-1.8c0-0.4,0.3-0.7,0.7-0.7h6c0.4,0,0.7,0.3,0.7,0.7v1.8c0,0.4-0.3,0.7-0.7,0.7h-6
		C339.8,117.2,339.5,116.9,339.5,116.5z M357.1,110.8c1.9,0.5,2.8,1.2,2.7,2.1c-0.2,2.3-1,4.1-2.3,5.5c0.4-1,0.6-2.1,0.6-3.3
		C358.2,113.6,357.8,112.1,357.1,110.8z M293.3,149.8c-3.4-1.1-6.8-2.1-10-3c0.8-1.2,4-3.1,6.4-4.1c2.2,1.1,3.8,2.8,5.2,5
		C295.6,148.8,294.5,150.2,293.3,149.8L293.3,149.8z M284,281.2c-5.4,0.1-9.1-0.7-11.9-2.3c-0.1-0.1-0.2-0.1-0.2-0.2
		c0.6-0.5,1.2-0.9,1.9-1.5c1.3-1.1,2.7-2.4,4-3.6c0.6-0.6,1.2-1.2,1.7-1.8c0.1-0.2,0.4-0.2,0.5-0.2c0.2,0,0.4,0.1,0.5,0.3
		C282.4,274.6,283.5,277.4,284,281.2L284,281.2z M393,173.2c-2-4-4.3-7.9-7.1-11.7c-6.7-8.9-15.9-27-14.4-39.5
		C385,102.6,384.3,82,384.3,82c-9.3-22.2-22.5-38.8-40.2-51c3.1-2.2,6.9-3.4,10.8-3.4h2.8c23.3,11.1,39.3,26.5,44.7,32l0.1,4.6
		c-2.7,4.7-9,16.5-12.3,30.3l-0.5,2l0.6,2c5,16.8,23.7,42,30.8,48.8C415,161.6,404.4,169.6,393,173.2L393,173.2z"/>
	<path class="st1" d="M340.5,215c-2.1,0-4,1.8-4,3.8c0,2.3,1.8,4.2,4.1,4.2c2.1,0,3.8-1.9,3.9-4.2C344.4,216.6,342.8,215,340.5,215z
		"/>
	<path class="st1" d="M279.3,210.2c2.1,0,3.8-1.7,3.9-3.9c0-2.4-1.8-4.3-4-4.3c-2.1,0-3.7,1.7-3.7,4
		C275.5,208.4,277.1,210.2,279.3,210.2z"/>
	<path class="st1" d="M281.1,223.6c0,2.3,1.6,4.1,3.8,4.1c2.1,0,3.9-1.7,3.9-4.1c0-2.3-1.5-4-3.7-4
		C282.8,219.6,281.1,221.4,281.1,223.6L281.1,223.6z"/>
	<path class="st1" d="M331.5,208.1c0.2-2.2-1.4-4.1-3.4-4.1c-2.3-0.1-4,1.5-4.1,4c-0.1,2.2,1.4,3.9,3.4,4
		C329.4,212.1,331.3,210.3,331.5,208.1z"/>
	<path class="st1" d="M329.3,228.9c-2,0-3.7,1.9-3.8,4c0,2,1.9,4,3.8,4c2.1,0,3.9-1.8,3.9-3.9C333.1,230.8,331.4,228.9,329.3,228.9z
		"/>
	<path class="st1" d="M267.5,231c-1.5,0.9-2.4,3.6-1.6,5.4c0.8,2.1,3.4,2.8,5.2,1.5c1.1-0.8,1.7-2,1.7-3.4
		C272.8,231.4,270,229.6,267.5,231z"/>
	<path class="st1" d="M266.6,214.8c-0.1-2-2-3.7-4-3.7c-2,0-3.5,1.6-3.4,3.9c0,2.4,1.5,3.9,3.7,3.9
		C265,218.8,266.8,216.9,266.6,214.8L266.6,214.8z"/>
	<path class="st1" d="M183.6,389.6c51,24.4,75-29.3,53.6-49.1C238.7,364.1,218.5,389.4,183.6,389.6z"/>
	<path class="st1" d="M288.2,390.1c-7.4,3.6-16.8,7.8-23.2,14.5c-7.8,7.5-11.1,19.4-5.1,29c3.3-8.6,6.1-14.2,14-19
		c25.7-15.7,45-22.6,67.3-37.9c23.7-16.4,23.9-36.1,13.3-52.3C357,351,346.9,362.2,288.2,390.1L288.2,390.1z"/>
	<path class="st1" d="M175.3,130c4.9,11.6,12.9,22,24.9,30.6c0.9,8.1,4.3,23.3,16.2,37.2c-0.3,0.2-0.6,0.4-0.9,0.6
		c-10.6,7.2-24.8,19.7-26,41.4c1.8,12.4,14.4,26.4,22.2,31.4c1.3,0.8,2.8-0.8,1.9-2c-3.6-4.7-14-19.9-14-29.7
		c0.9-25,24.7-35.2,33.3-37.4c-10-8.8-12.7-23.1-13.3-34.3c5.4-20.2,23.9-33.5,43.7-34.5c0,0,1.5,4,2.7,8.2
		c1.5-6.8,4.3-16.1,12.8-21h-10.4c0,0-3.4-0.4,0.6-6c3.7-5.2,12.2-7.5,12.2-7.5s-6.3-9.9-15.1-23.9c4.9,14.2,2.5,21.7-0.7,24.3
		c-3.5-8.5-7.4-18-7.4-18c-3.3-2.7-7.2-5-11.3-6.9c-2.4-1.2-4.8-2.3-7.2-3c-0.8-0.2-1.5-0.5-2.3-0.8l2.3,8.8l-15.7-12
		c-18.3-3.3-38.2-2.5-53.3,1.2c-2.1,15.1-2,37.2,14.3,53.5C182.1,130,178.7,130,175.3,130L175.3,130z M239.2,111.7
		c1,1.1,1.3,2.3,1.4,3c0.3,0.9,2.8,0.9,3.3,1c0.5,0.1-0.3,1.4-1,1.4s-2.8-0.2-3.3,0.2l0,0c-0.3,0.3-0.6,0.7-1,0.9
		c0.5-1.3,0.8-2.7,0.8-4.2c0-0.8-0.1-1.6-0.2-2.3L239.2,111.7z M226.6,112.9c0.4,0,0.7,0.3,0.7,0.7v2.3c0,0.4-0.3,0.7-0.7,0.7h-7.1
		c-0.4,0-0.7-0.3-0.7-0.7v-2.3c0-0.4,0.3-0.7,0.7-0.7H226.6z M219.4,107.6c-1.3,1.8-2.1,4-2.1,6.5c0,2.4,0.7,4.5,2,6.3
		c-4.4-1.4-8.1-4.4-8.3-9.8C210.9,109,213.5,107.8,219.4,107.6z"/>
	<path class="st2" d="M376.6,175.3c-3.7,16.7-16.3,33.1-16.3,33.1c13.1,1.7,21.3,15.5,18.7,30.3c1.7,3,3.4,5.5,3.4,5.5
		c10.7-38.3,5-55.1-5.5-70.9C376.8,174,376.8,174.5,376.6,175.3L376.6,175.3z"/>
	<path class="st2" d="M390.4,98.6l-0.6-2l0.5-2c3.3-13.9,9.5-25.7,12.3-30.3l-0.1-4.6c-5.4-5.5-21.4-20.9-44.7-32h-2.8
		c-3.9,0-7.6,1.2-10.8,3.4c17.7,12.1,30.9,28.8,40.2,51c0,0,0.7,20.6-12.8,39.9c-1.5,12.5,7.6,30.5,14.4,39.5
		c2.8,3.8,5.2,7.7,7.1,11.7c11.3-3.5,22-11.5,28.1-25.7C414.1,140.7,395.3,115.5,390.4,98.6L390.4,98.6z"/>
	<path class="st2" d="M329.6,282.8c-2,1.5-6.6,4.9-15.6,3c-9.1-1.9-15.5-1.4-28.6,0.9c-5.2,0.9-12,0-20.1-6.9
		c-0.4-0.2-1.5-0.5-1.7,0.4c1.1,1.4,3.8,6,11,9c3.4,1.4,5.5,2.1,14.7,0.9c9.2-1.3,16.7-1.1,23.4-0.2c7.3,0.9,13.7,2.8,21.3-8.1
		c-1.5-0.6-2.4-0.4-4.4,1.1L329.6,282.8z"/>
	<path class="st2" d="M268.2,274.1c3.1-2.4,5.4-4.6,6.6-6c1.2-1.5,3.1-2.4,5-2.4c2.1,0,4.1,1.1,5.3,2.8c2.7,3.9,4,7.7,4.6,12.3
		c0.4,0,0.8-0.1,1.2-0.1c5.5-0.6,10.7-0.9,15.3-0.8l2.5-2.5l0.4-0.4c1.8-1.8,4.4-4.4,6-6.8c1.3-1.9,3.4-3.1,5.7-3.1l0,0
		c2.5,0,4.9,1.4,6.1,3.7c1.5,2.8,2.1,5.5,2.3,7.8c3.1-2,3.9-4.4,3.9-4.4s1.4-4.2-2.1-6.6c-3.3-2.3-9.4-5.2-14.6-7.6
		c-4.3-2-7.3-5.9-9.2-9.5c0.9,3.7,0.8,6.7,0.2,10.4c-0.8,5-4.1,8-5.3,4.3c-0.9-2.9-2-7.1-5.1-11.9c-11,8.9-31.3,7.3-35.4,14
		c2.1,3,3.9,5.5,5.6,7.5L268.2,274.1L268.2,274.1z"/>
	<path class="st2" d="M297.8,165.2c5.2,3.5,12.7,0.1,11.4-7.7c-0.8-5.2-8.1-8.2-13.2-3.9c-1.3,1.1,0.4,4.1,2,3.2
		c4.1-2.3,7.1-0.5,7.6,2.6C306.3,162.5,303.6,165.8,297.8,165.2L297.8,165.2z"/>
	<path class="st2" d="M329.6,156.8c1.6,0.9,3.3-2.1,2-3.2c-5.1-4.3-12.3-1.2-13.2,3.9c-1.2,7.8,6.3,11.2,11.4,7.7
		c-5.8,0.7-8.5-2.6-8-5.7C322.4,156.3,325.4,154.5,329.6,156.8L329.6,156.8z"/>
	<path class="st2" d="M359.2,126.2c-2.7,3.3-8.5,4.4-15.5,3.2c1.1,0.9,14.2,8.8,15.3,9.8C361.5,135.8,360.5,129.6,359.2,126.2
		L359.2,126.2z"/>
	<path class="st2" d="M357.6,118.4c0.4-1,0.6-2.1,0.6-3.3c0-1.5-0.4-3-1.1-4.3c-1.1-0.3-2.5-0.5-4.2-0.6c1.4,1.2,2.2,3,2.2,4.9
		c0,3.7-3,6.6-6.6,6.6c-3,0-5.3-2-6.2-4.6h-2.1c-0.4,0-0.7-0.3-0.7-0.7v-1.8c0-0.4,0.3-0.7,0.7-0.7h1.8c0.2-1.2,0.7-2.4,1.5-3.4
		c-1.8,0.2-3.2,0.7-4.3,1.2c-0.4,1-0.6,2.1-0.6,3.3c0,2,0.6,3.9,1.7,5.5c2.1,0.9,5,1.5,8.1,1.4C351.8,121.8,355.3,120.8,357.6,118.4
		L357.6,118.4z"/>
	<path class="st2" d="M352.9,103.9c4.8,0.5,6.2,2.5,8.4,1.7c0.7-0.2,1.2-0.7,1.7-1.2l0,0l0,0c-0.5-4.7-11-7.3-18.4-6.6
		c-5.2,0.5-8.7,2.6-10.7,3.7c-0.2,0.1-0.9-0.7-1.4-1.7c-1.9,1.5-2.7,4.3-1.5,8.8c-0.7,0.7-1.5,1.2-2.7,1.4c-1.3,0.2-2.8,0.1-4.1,0
		c1.6,1.1,4.1,1.7,6.5,1.7c2.8-0.7,3.4-2.3,5.5-3.9C340.1,104.7,347.6,103.3,352.9,103.9L352.9,103.9z"/>
	<path class="st2" d="M266.1,82.9L266.1,82.9L266.1,82.9c-1.9-3.2-3.5-5.8-4.7-7.8c8.8-15.3,4-38,4-38l3.6-3.8c0,0,10.1-0.3,19.3,2
		c31.3,26,34.4,32.3,29,50l2.8,13l7.8-10.5c4.9-2.2,10.7-4.4,17.4-6l-3.4,6.6c0,0,8.1-6.5,16.6-8.5c2.4-0.2,5-0.2,7.6-0.1
		c-14.4-27.3-32.7-40.6-57.2-48.9C273.9,19,232,23.1,193.5,41.7c0.3,3.5,0.3,7.2-0.2,11.2c-5.8-7.7-11.1-14.7-16.7-22.2
		c-1.1-1.4-4-6-10.4-6.9c-3.3-0.5-5-0.7-7.5-0.8l-5.2-0.4c-0.9,0-1.8,0.2-2.6,0.6c-0.1,0-0.2,0.1-0.2,0.1l-0.3,0.2l-2.3,1.5
		c-8.2,5.4-23.6,15.6-32,21.2l-4.6,3l-2.3,1.5c-1.8,1.2-2.9,3.2-3,5.3c0,0.9,0.1,1.8,0.4,2.7c1.7,5.2,3.6,10.5,5.2,15.8
		c2.6,8.7,4.7,17.6,4.1,27c-9.8,10.1-21.7,19-32.5,28c-6.9,5.6-6.5,12.6-1.3,20.3c4.3,6.3,11.2,14.5,15.2,19.6
		c13.4,2.3,35.1-4.4,40.5-24.5c2.8-10.7,1.2-30.9,12.5-42.6c1.1-1.2,3.1,0,2.6,1.5c-3.4,11.4-3.1,20.7-3.3,31.5
		c-0.2,15.1-5.6,31.8-19.3,41.6c-2.5,5.5-25.5,55.5-39,108.4c-10.3,40.7,4.7,69.3,10.6,76.6c1-8.4,5.5-13.7,5.5-13.7
		c-2.2-12.6,1.1-24.5,5.4-30.2c0.2,14.8,7,22.5,12.3,24.7c-3.3-24.9,8.2-50.7,35.1-56.4c-4.8-6.7-9.7-14.8-14.3-24.7
		c-1.1,1-1.5,1.4-2.5,2.8c-8.2-17.5-9.6-50-1.1-69.9c2.4,39,14.5,65.8,28,82.9c-15.4-22.3-15.9-42.3-10.3-55.9
		c2.1,6.5,5.5,9.8,5.5,9.8s13.5-35.7,50.6-33.4c-11.8-13.9-15.2-29.1-16.2-37.2c-12.1-8.6-20.1-19-24.9-30.6c3.4,0,6.8,0,9.4,0
		c-16.3-16.4-16.4-38.5-14.3-53.5c15.2-3.7,35.1-4.6,53.3-1.2l15.7,12l-2.3-8.8c0.8,0.2,1.5,0.5,2.3,0.8c2.4,0.7,4.9,1.8,7.2,3
		c4.1,2,8,4.3,11.3,6.9c0,0,3.9,9.5,7.4,18c3.3-2.5,5.6-10.1,0.7-24.3L266.1,82.9z"/>
	<path class="st2" d="M233.9,108.9c1.2,1.4,2.1,3.1,2.1,5.2c0,3.3-2.1,5.9-4.9,7.1c3.3-0.5,5.9-1.5,7.5-2.8c0.5-1.3,0.8-2.7,0.8-4.2
		c0-0.8-0.1-1.6-0.2-2.3C238.2,110.7,236.6,109.7,233.9,108.9L233.9,108.9z"/>
	<path class="st2" d="M219.6,112.9h1.5c0.4-2.2,1.6-4,3.4-5.1c-1.9-0.1-3.6-0.1-5.1-0.1c-1.3,1.8-2.1,4-2.1,6.5s0.7,4.5,2,6.3
		c1.8,0.6,3.7,0.9,5.7,1.1c0.8,0,1.5,0,2.3,0c-2.8-0.5-5-2.3-5.9-5h-1.8c-0.4,0-0.7-0.3-0.7-0.7v-2.3
		C218.9,113.2,219.2,112.9,219.6,112.9z"/>
	<path class="st2" d="M206.7,124.4c-1.5,5.2,0.2,13.9,4.3,17.2c8.5-1.2,17.3-7.1,23.1-14.1C223.4,132.2,212,128.3,206.7,124.4z"/>
	<path class="st2" d="M249.6,106.3c-0.7-0.1-1.4-0.4-2-0.7c0.6-6.5-1.4-10.3-4.3-12.1c-0.4,1.3-0.9,2.4-1.3,2.3
		c-2.8-1.2-7.8-3.5-14.2-3.7c-9.4-0.3-21.6,3.7-20.9,9.7c0,0,0.1-0.1,0.1-0.1c0,0,0,0.1,0,0.1c0.5,0.7,1.2,1.3,2.1,1.5
		c2.7,0.8,4.3-2,10.2-3.1c6.3-1.2,15.7,0.1,20.7,3.9c2.5,2,3.4,4.1,6.9,4.8c2.9-0.4,5.9-1.4,7.8-3
		C253.1,106.2,251.2,106.5,249.6,106.3L249.6,106.3z"/>
</g>
</svg>
