<?xml version="1.0" encoding="UTF-8" standalone="no"?>
<svg width="250px" height="250px" viewBox="0 0 250 250" version="1.1" xmlns="http://www.w3.org/2000/svg" xmlns:xlink="http://www.w3.org/1999/xlink">
    <!-- Generator: Sketch 47.1 (45422) - http://www.bohemiancoding.com/sketch -->
    <title>CMICH</title>
    <desc>Created with Sketch.</desc>
    <defs></defs>
    <g id="Page-1" stroke="none" stroke-width="1" fill="none" fill-rule="evenodd">
        <g id="CMICH" fill-rule="nonzero">
            <g id="Group" transform="translate(125.000000, 125.500000) scale(-1, 1) rotate(-180.000000) translate(-125.000000, -125.500000) translate(0.000000, 38.000000)">
                <path d="M134.462733,0.317106195 L90.0627329,16.900292 L84.9360248,28.3967699 L37.7136646,28.3967699 L33.8219876,36.6748584 L81.2431056,36.6748584 L66.9549068,68.7125575 L18.1722981,68.7125575 L12.8248447,80.5477611 L61.6770186,80.5477611 L54.9101863,95.7197965 L20.2120497,95.7197965 L16.5751553,104.244805 L51.1080745,104.244805 L42.9632298,122.506752 L65.8042236,139.674717 L161.225342,139.674717 L205.63528,119.864097 L224.661366,77.8616195 L155.865093,78.0140708 L142.473789,108.701327 L120.406708,108.701327 L155.417888,31.2800885 L177.130932,31.2800885 L162.178137,60.4769027 L230.03528,60.5906372 L249.707329,18.6996637 L223.176894,0.311345133 L134.451429,0.311345133 L134.462733,0.317106195 Z M13.6279503,145.892327 L3.98608696,167.121531 L206.532671,167.121531 L216.397764,145.892327 L13.6275776,145.892327 L13.6279503,145.892327 Z" id="Shape" fill="#FFC82E" transform="translate(126.846708, 83.716438) scale(-1, 1) rotate(-180.000000) translate(-126.846708, -83.716438) "></path>
                <polygon id="Shape" fill="#FFFFFF" points="66.2111801 33.0486726 160.372671 33.0486726 202.135093 51.4376106 221.427019 94.2646018 154.490683 94.320354 141.631988 64.0174779 116.986025 64.0174779 151.995342 141.440265 176.290373 141.440265 161.388199 112.391814 228.32764 112.422788 247.819876 154.021681 222.333851 172.410619 133.607143 172.410619 91.8431677 154.021681 42.5279503 50.8274336 66.2111801 33.0486726"></polygon>
                <polygon id="Shape" fill="#6A0032" points="130.947205 174.969027 89.1832298 156.581637 42.9704969 54.3847345 68.2810559 35.610177 157.712733 35.610177 199.475155 53.9975664 218.984472 96.8245575 152.32764 96.6743363 138.97205 66.5789823 114.324534 66.5789823 149.335404 144.00177 173.630435 144.00177 160.698758 114.824779 225.417702 114.806195 245.158385 156.581637 219.673913 174.969027 130.947205 174.969027"></polygon>
                <path d="M34.1931677,4.84176991 L29.9836025,13.1198584 L98.4519255,13.1198584 L102.292671,4.84176991 L34.1932919,4.84176991 L34.1931677,4.84176991 Z M14.215528,44.7318584 L6.61652174,56.5695398 L107.053789,56.5695398 L112.209565,44.7318584 L14.2157764,44.7318584 L14.215528,44.7318584 Z M17.1439752,71.9253097 L12.2017391,80.4503186 L77.4091925,80.4503186 L81.4852174,71.9253097 L17.1436025,71.9253097 L17.1439752,71.9253097 Z M11.1875776,125.31115 L1.46322981,143.369912 L203.972547,143.369912 L212.209689,125.671681 L11.1786335,125.311138 L11.1875776,125.31115 Z" id="Shape" fill="#FFFFFF" transform="translate(106.836460, 74.105841) scale(-1, 1) rotate(-180.000000) translate(-106.836460, -74.105841) "></path>
                <path d="M37.1049689,7.26513274 L33.3491925,15.5432212 L100.679627,15.5432212 L106.386211,7.26513274 L37.1054658,7.26513274 L37.1049689,7.26513274 Z M15.6664596,47.0759292 L10.1515528,59.230531 L110.314286,59.230531 L117.362484,47.0759292 L15.6668323,47.0759292 L15.6664596,47.0759292 Z M18.3352795,74.2644248 L14.4387578,82.7917876 L81.0797516,82.7917876 L86.0219876,74.2644248 L18.3350311,74.2644248 L18.3352795,74.2644248 Z M7.95093168,132.576283 L1.50931677,146.857522 L201.807453,146.857522 L208.392298,132.576283 L7.95751553,132.576283 L7.95093168,132.576283 Z" id="Shape" fill="#6A0032" transform="translate(104.950807, 77.061327) scale(-1, 1) rotate(-180.000000) translate(-104.950807, -77.061327) "></path>
            </g>
        </g>
    </g>
</svg>