<?xml version="1.0" encoding="UTF-8" standalone="no"?>
<svg width="250px" height="250px" viewBox="0 0 250 250" version="1.1" xmlns="http://www.w3.org/2000/svg" xmlns:xlink="http://www.w3.org/1999/xlink">
    <!-- Generator: Sketch 47.1 (45422) - http://www.bohemiancoding.com/sketch -->
    <title>BGREEN</title>
    <desc>Created with Sketch.</desc>
    <defs></defs>
    <g id="Page-1" stroke="none" stroke-width="1" fill="none" fill-rule="evenodd">
        <g id="BGREEN">
            <g id="Bowling_Green_Falcons_logo" transform="translate(-6.000000, 0.000000)">
                <g id="Group" transform="translate(131.070619, 124.838918) scale(-1, 1) rotate(-180.000000) translate(-131.070619, -124.838918) translate(0.593814, 0.000000)">
                    <g transform="translate(1.035438, 1.352448)" id="Shape">
                        <path d="M163.261206,238.539278 C192.705052,250.044289 219.663629,241.51618 220.046871,241.388433 L221.68049,240.842603 L233.228082,219.090701 C251.019814,213.469814 256.427789,202.042227 257.980113,190.177201 C258.85499,183.487881 257.705263,177.824412 256.342624,173.841015 C255.649691,171.820284 254.902562,170.225376 254.325763,169.133716 C253.721866,167.98399 250.063644,162.668923 250.063644,162.668923 L248.236469,164.759335 C248.147433,164.863856 246.266062,167.012335 246.060892,167.194278 C245.743459,167.476871 245.186015,167.922052 244.357593,168.413686 C242.716232,169.393082 239.940629,170.600876 235.732706,171.053799 C231.602206,171.495108 228.025278,171.537691 225.005794,171.166062 L204.13651,96.4028505 C205.170103,96.0428351 210.756149,93.7240258 211.677479,93.441433 C214.71632,92.5046186 221.916629,91.014232 221.916629,91.014232 C221.916629,91.014232 203.037108,73.1566907 170.209892,83.0861495 L170.147954,3.78596907 L88.935433,3.78596907 C67.5396753,3.78596907 54.072,19.4214794 54.072,39.6752526 L54.072,72.3747216 L37.6971031,72.3747216 L37.6971031,83.0629227 L1.17682474,83.0629227 C1.17682474,83.0629227 3.99113918,93.0233505 5.62862887,97.4712835 C7.22740722,101.810825 9.60041237,107.489778 12.4650515,111.651247 C16.3400567,117.272134 21.2525258,122.405258 25.4720619,125.525392 C25.4681907,137.862696 25.6656186,187.231268 25.6965876,200.400866 C24.4500825,201.248644 23.1416392,202.231912 21.922232,203.331314 C18.0201289,206.854046 13.0418505,214.44534 11.5282371,217.042871 C10.5681959,218.691974 8.4661701,223.507665 6.7822268,227.436866 C5.01311856,231.559624 0.549701031,242.313634 0.549701031,242.313634 L105.062577,242.313634 C120.152258,242.313634 134.134794,234.308129 138.741443,219.915253 C146.441129,230.816366 152.464613,234.319742 163.261206,238.539278" fill="#FE5000" fill-rule="nonzero"></path>
                        <path d="M194.937147,8.81125756 C186.37358,8.9691286 176.07977,10.3587511 165.069026,14.400246 C149.247546,20.2032308 142.488856,29.6336229 135.315799,42.4780456 L135.315799,39.6956603 C135.315799,22.097485 121.444752,11.7144842 105.054371,11.7144842 L8.07162412,11.7144842 C8.07162412,11.7144842 14.3431709,26.8125263 15.8683977,29.4371551 C17.3471709,31.9804902 22.0033709,38.9805844 25.2860926,41.9458731 C26.9932627,43.4827133 28.9974262,44.8197101 30.723952,45.8532409 C30.7316942,52.4614215 30.4287857,123.706391 30.5062084,126.162239 C26.6428167,128.38427 20.9748571,133.856505 16.6004756,140.201139 C11.6206488,147.423126 7.81021419,160.913254 7.81021419,160.913254 L59.0919008,160.913254 L59.0919008,209.321011 C59.0919008,227.105 70.6021758,240.193459 88.9358666,240.193459 L165.132172,240.193459 L165.192654,159.382763 C166.520453,160.044726 167.746643,160.573864 168.846076,160.949364 C195.785143,170.108467 212.215164,159.600506 212.215164,159.600506 C212.215164,159.600506 207.731772,158.6269 204.944555,157.713313 C202.478643,156.904246 198.750741,155.287815 198.750741,155.287815 L221.584238,74.0497449 C225.68764,73.1245439 230.609555,73.0626058 236.19173,73.6626315 C245.881333,74.7039666 249.668231,79.3182035 249.668231,79.3182035 C249.668231,79.3182035 255.24731,71.1501107 253.702572,59.3818633 C252.274124,48.4770336 247.512164,38.3705866 230.270133,33.5239268 L218.67841,11.6981635 C218.67841,11.6981635 209.204042,8.5436538 194.931325,8.80692189 L194.937147,8.81125756 Z M47.8278608,165.901876 L46.8540384,171.641994 L48.3359704,171.641994 L48.8138232,168.339452 L48.8320949,168.339452 L50.1446571,171.641994 L50.7374361,171.641994 L52.1165199,168.339452 L52.1347916,168.339452 L52.5521308,171.641994 L54.0401019,171.641994 L53.1751357,165.901876 L51.6932036,165.901876 L50.4592719,168.968527 L49.2918927,165.901876 L47.8281086,165.901876 L47.8278608,165.901876 Z M42.6987631,165.90807 L42.6987631,167.166188 L43.9326948,167.166188 L43.9326948,171.642148 L45.4206658,171.642148 L45.4206658,167.166188 L46.6485276,167.166188 L46.6485276,165.90807 L42.6987321,165.90807 L42.6987631,165.90807 Z" fill="#4F2C1D" fill-rule="nonzero" transform="translate(130.891568, 124.492387) scale(-1, 1) rotate(-180.000000) translate(-130.891568, -124.492387) "></path>
                        <path d="M223.945103,208.731546 C223.945103,208.731546 224.312861,204.972675 219.396521,200.222794 C213.705954,194.721912 202.526119,188.524227 202.526119,188.524227 C202.526119,188.524227 218.959082,191.489515 232.430629,189.066186 C242.383314,187.273851 245.631196,181.498119 245.631196,181.498119 C245.631196,181.498119 248.391314,189.879124 242.12782,197.416222 C236.25918,204.484912 223.945103,208.731546 223.945103,208.731546" fill="#CDA077"></path>
                        <path d="M25.0872711,19.6644318 C25.0872711,19.6644318 28.6539792,27.4128936 32.5755928,30.9511101 C35.6221753,33.6996153 41.5940963,36.3645039 41.5940963,36.3645039 L41.5940963,130.420673 C41.5940963,130.420673 35.3442278,133.294975 33.1259132,135.501459 C27.776006,140.820397 25.7890303,147.121055 25.7890303,147.121055 L69.9757025,147.121055 L69.9757025,206.40515 C69.9757025,218.773578 77.1853025,226.40188 88.9380654,226.40188 L154.258032,226.40188 L154.258032,158.099591 L95.3610509,158.099591 C95.3610509,158.099591 106.458508,167.828215 115.025173,171.273525 C122.655333,174.343334 135.70539,175.416877 135.70539,175.416877 L135.70539,209.705833 L94.0891511,209.705833 C89.7612233,209.705833 88.5184344,207.847689 88.5184344,201.866942 L88.5184344,147.119816 L104.027126,147.119816 C111.65326,147.119816 115.162366,145.884924 119.076237,142.377832 C122.993825,138.46396 124.435435,134.341977 124.435435,126.711817 L124.435435,115.642851 L134.675669,115.642851 C134.675666,115.642851 136.53115,124.255969 139.012578,129.234248 C142.883712,136.976516 153.384085,146.152342 153.384085,146.152342 L153.51112,98.9492825 L124.435188,98.9492825 L124.435188,97.3100895 C124.435188,89.064574 122.376704,84.7295233 116.814009,81.0209769 C122.171658,77.5177555 124.435188,73.4004173 124.435188,66.5949637 L124.435188,36.7751538 C124.435188,26.4701951 116.814009,19.6635027 105.061246,19.6635027 L25.0867137,19.6635027 L25.0872711,19.6644318 Z M60.1442608,36.3648136 L97.8460093,36.3648136 C104.032081,36.3648136 105.884651,38.0175401 105.884651,43.3752825 L105.884651,65.3562008 C105.884651,71.3332318 104.44651,72.777939 98.6747416,72.777939 L60.146119,72.777939 L60.146119,36.3645039 L60.1442608,36.3648136 Z M205.754644,39.9333798 C203.593592,39.9228503 200.911701,39.9593938 198.829031,40.1450844 C195.089515,40.481873 189.320596,41.6512033 189.320596,41.6512033 L202.252662,47.0345571 L209.553311,39.9999323 C209.553311,39.9999323 207.915821,39.9440332 205.754644,39.9333798 L205.754644,39.9333798 Z M60.1442608,89.4777014 L97.2297247,89.4777014 C104.445519,89.4777014 105.885271,90.7142965 105.885271,97.3107089 L105.885271,98.9499019 L88.5196732,98.9499019 C77.595333,98.9499019 69.9744637,106.78229 69.9744637,117.70663 L69.9744637,127.940979 L69.9744637,130.420921 L60.1454996,130.420921 L60.1454996,89.4767104 L60.1442608,89.4777014 Z M96.1458072,115.64409 L105.884032,115.64409 L105.884032,123.410514 C105.884032,128.77188 104.030471,130.420983 97.4341206,130.420983 L88.5184344,130.420983 L88.5184344,127.941041 L88.5184344,122.654621 C88.5184344,117.08793 90.1687453,115.644152 96.1458072,115.644152 L96.1458072,115.64409 Z" fill="#FFFFFF" fill-rule="nonzero" transform="translate(117.320012, 123.032691) scale(-1, 1) rotate(-180.000000) translate(-117.320012, -123.032691) "></path>
                        <path d="M195.990096,96.1131949 C186.12273,96.0702501 175.363145,98.0584243 163.720323,103.395882 C156.291462,106.798454 154.762209,109.620046 154.762209,109.620046 C154.762209,109.61633 166.408748,107.42341 184.769691,108.658302 C209.014759,110.288049 220.024883,116.432777 223.530582,118.317865 L212.781217,98.1034223 C207.510281,96.8987254 201.911073,96.1393638 195.989786,96.1133498 L195.990096,96.1131949 Z M188.586629,122.854369 C175.571877,124.348627 149.785479,132.228707 135.316728,146.528677 L135.316728,147.575091 C135.316728,152.901771 134.263532,157.782497 131.681579,162.122193 C132.924213,164.309384 133.788188,166.62076 134.361116,169.047806 L150.849669,169.047806 C152.305216,165.164904 153.991482,161.147906 155.748976,157.942607 C164.75726,141.509798 178.359496,129.528173 188.588581,122.854648 L188.586629,122.854369 Z M212.218819,153.611613 C212.218819,153.611613 193.54261,155.53024 171.717466,165.769451 C169.398657,166.85724 167.239029,167.963889 165.245549,169.047837 L165.245549,169.066109 L165.209254,218.241899 C179.067914,227.854079 190.129756,230.932096 190.129756,230.932096 L212.223092,153.611613 L212.218819,153.611613 Z" fill="#FE5000" transform="translate(177.606080, 163.522305) scale(-1, 1) rotate(-180.000000) translate(-177.606080, -163.522305) "></path>
                    </g>
                </g>
            </g>
        </g>
    </g>
</svg>