<?xml version="1.0" encoding="UTF-8" standalone="no"?>
<svg width="250px" height="250px" viewBox="0 0 250 250" version="1.1" xmlns="http://www.w3.org/2000/svg" xmlns:xlink="http://www.w3.org/1999/xlink">
    <!-- Generator: Sketch 47.1 (45422) - http://www.bohemiancoding.com/sketch -->
    <title>MRSHL</title>
    <desc>Created with Sketch.</desc>
    <defs></defs>
    <g id="Page-1" stroke="none" stroke-width="1" fill="none" fill-rule="evenodd">
        <g id="MRSHL" fill-rule="nonzero">
            <g id="Group" transform="translate(0.000000, 43.000000)">
                <path d="M37.5055629,16.2852261 L37.5055629,28.6864132 C44.7105709,28.6864132 51.6863006,36.231279 51.6863006,44.0174999 L51.6863006,65.4629995 L119.762224,65.4629995 L90.1680696,16.2859627 L37.5055629,16.2859627 L37.5055629,16.2852261 Z M159.767584,16.2852261 L130.183291,65.4622629 L198.249353,65.4622629 L198.249353,44.0167634 C198.249353,36.2305424 205.229767,28.6856767 212.434775,28.6856767 L212.434775,16.2844895 L159.767337,16.2844895 L159.767584,16.2852261 Z M51.6863006,99.4533207 L51.6863006,116.17042 C51.6863006,123.714303 44.7076125,134.469954 37.5055629,134.469954 L37.5055629,149.096126 L100.064016,149.096126 L100.064016,134.469954 C93.0870531,134.469954 85.8785936,123.714303 85.8785936,116.17042 L85.8785936,99.4533207 L51.6865472,99.4533207 L51.6863006,99.4533207 Z M96.6889408,99.4533207 L124.97399,145.831325 L153.249178,99.4533207 L96.6914061,99.4533207 L96.6889408,99.4533207 Z M164.057306,99.4533207 L164.057306,116.17042 C164.057306,123.714303 156.85501,134.469954 149.871884,134.469954 L149.871884,149.096126 L212.435268,149.096126 L212.435268,134.469954 C205.23026,134.469954 198.249846,123.714303 198.249846,116.17042 L198.249846,99.4533207 L164.057799,99.4533207 L164.057306,99.4533207 Z" id="Shape" fill="#00B140" transform="translate(124.970415, 82.690308) rotate(-360.000000) translate(-124.970415, -82.690308) "></path>
                <path d="M245.300705,65.3884814 L245.300705,99.3789254 L208.70247,99.3789254 L208.70247,111.326988 C208.70247,120.503641 208.643917,126.430101 223.33745,126.430101 L223.33745,160.475789 L153.222675,160.475789 L124.978921,113.843662 L96.7290028,160.475789 L26.6142288,160.475789 L26.6142288,126.430101 C41.3077609,126.430101 41.2492086,120.503641 41.2492086,111.326988 L41.2492086,99.3789254 L4.58317567,99.3789254 L4.58317567,65.3884814 L41.2492086,65.3884814 L41.2492086,58.6671204 C41.2492086,49.7820337 41.3077609,39.3010074 26.6142288,39.3010074 L26.6142288,4.36527611 L111.012669,4.36527611 L111.012669,20.1159722 L120.519705,4.36527611 L129.435055,4.36527611 L138.942091,20.1159722 L138.942091,4.36527611 L223.33745,4.36527611 L223.33745,39.3010074 C208.643917,39.3010074 208.70247,49.7820337 208.70247,58.6671204 L208.70247,65.3884814 L245.300705,65.3884814 L245.300705,65.3884814 Z M33.1412634,132.32894 L33.1412634,153.201988 L92.6549992,153.201988 L124.978921,99.6183163 L157.296679,153.201988 L216.81966,153.201988 L216.81966,132.32894 C207.531425,132.32894 202.360337,125.800933 202.360337,117.468287 L202.360337,99.3789254 L198.255516,99.3789254 L130.186989,99.3789254 L119.770853,99.3789254 L51.6930804,99.3789254 L47.5913414,99.3789254 L47.5913414,117.468287 C47.5913414,125.800933 42.4202536,132.32894 33.1412634,132.32894 L33.1412634,132.32894 Z M104.424001,11.3137515 L33.1412634,11.3137515 L33.1412634,33.4973117 C42.4202536,33.4973117 47.5913414,43.2847181 47.5913414,52.2680165 L47.5913414,65.3884814 L51.6930804,65.3884814 L85.8875922,65.3884814 L89.8753083,65.3884814 L89.8753083,52.2680165 C89.8753083,42.7169319 95.5887749,33.4973117 104.424001,33.4973117 L104.424001,11.3137515 Z M124.978921,9.98789403 L91.4223203,65.3884814 L96.6981859,65.3884814 L153.256574,65.3884814 L158.53244,65.3884814 L124.978921,9.98789403 Z M216.81966,33.4973117 L216.81966,11.3137515 L145.527678,11.3137515 L145.527678,33.4973117 C154.362903,33.4973117 160.07637,42.7169319 160.07637,52.2680165 L160.07637,65.3884814 L164.067168,65.3884814 L198.255516,65.3884814 L202.360337,65.3884814 L202.360337,52.2680165 C202.360337,43.2847181 207.531425,33.4973117 216.81966,33.4973117 L216.81966,33.4973117 Z" id="Shape" fill="#231F20" transform="translate(124.941940, 82.420533) scale(-1, 1) rotate(-180.000000) translate(-124.941940, -82.420533) "></path>
                <path d="M22.8906757,0.661714162 L22.8906757,42.1144034 L26.6032579,42.1144034 C31.4629711,42.1144034 34.6213409,42.8011239 35.9928194,44.1668799 C37.5120961,45.6768843 37.519221,49.0357233 37.519221,53.292708 L37.519221,61.7615 L0.856886066,61.7615 L0.856886066,103.155262 L37.519221,103.155262 L37.519221,106.272255 C37.519221,111.471335 37.5088665,116.715838 34.793768,119.416659 C33.1820404,121.021806 30.4276195,121.833599 26.60311,121.833599 L22.8905278,121.833599 L22.8905278,164.177559 L114.725104,164.177559 L114.725104,158.072967 C115.757472,159.785533 118.408595,164.177559 118.408595,164.177559 L131.525037,164.177559 C131.525037,164.177559 134.179735,159.785533 135.218143,158.072967 L135.218143,164.177559 L227.042858,164.177559 L227.042858,121.833599 L223.325591,121.833599 C219.507245,121.833599 216.754673,121.02183 215.139864,119.416659 C212.42797,116.718784 212.414411,111.469371 212.414411,106.377832 L212.414411,103.155262 L249.010181,103.155262 L249.010181,61.7615 L212.414411,61.7615 L212.414411,53.292708 C212.414411,49.0357233 212.42945,45.6739379 213.94562,44.1668799 C215.313893,42.8011239 218.468812,42.1144034 223.325566,42.1144034 L227.042833,42.1144034 L227.042833,0.661714162 L151.11228,0.661714162 C151.11228,0.661714162 129.984657,35.5489535 124.969626,43.8257417 C119.957554,35.5464982 98.8220423,0.661714162 98.8220423,0.661714162 L22.8914893,0.661714162 L22.8906757,0.661714162 Z M26.6032579,4.36380294 L96.7204974,4.36380294 L124.971032,50.9947023 L153.211705,4.36380294 L223.324013,4.36380294 L223.324013,38.4064219 C208.630481,38.4064219 208.695567,44.3354602 208.695567,53.5121128 L208.695567,65.4625084 L245.291337,65.4625084 L245.291337,99.4535662 L208.695567,99.4535662 L208.695567,106.171981 C208.695567,115.060137 208.630457,125.54104 223.324013,125.54104 L223.324013,160.472475 L138.929887,160.472475 L138.929887,144.723988 L129.4247,160.472475 L120.507008,160.472475 L111.006752,144.723988 L111.006752,160.472475 L26.6027648,160.472475 L26.6027648,125.54104 C41.2992554,125.54104 41.2408264,115.060137 41.2408264,106.171981 L41.2408264,99.4535662 L4.57849149,99.4535662 L4.57849149,65.4625084 L41.2408264,65.4625084 L41.2408264,53.5121128 C41.2408264,44.3354602 41.2993787,38.4064219 26.6027648,38.4064219 L26.6027648,4.36380294 L26.6032579,4.36380294 Z M33.1325114,11.6385866 L33.1325114,32.5085658 C42.4116248,32.5085658 47.5827127,39.0401327 47.5827127,47.3697097 L47.5827127,65.4629995 L51.6853145,65.4629995 L51.6853145,44.0174999 C51.6853145,36.231279 44.7095848,28.6864132 37.5045768,28.6864132 L37.5045768,16.2852261 L90.1670834,16.2852261 L119.761238,65.4622629 L130.176388,65.4622629 L159.765612,16.2852261 L212.433049,16.2852261 L212.433049,28.6864132 C205.224836,28.6864132 198.247627,36.231279 198.247627,44.0174999 L198.247627,65.4629995 L202.350229,65.4629995 L202.350229,47.3697097 C202.350229,39.0401327 207.525015,32.5085658 216.810045,32.5085658 L216.810045,11.6385866 L157.288913,11.6385866 L124.973004,65.2228719 L92.6496987,11.6385866 L33.1334975,11.6385866 L33.1325114,11.6385866 Z M141.613183,70.4133585 L140.019378,70.7298702 L138.738551,71.3676813 L137.789955,72.00068 L137.144722,72.9549783 L134.915299,79.304117 L129.493484,79.304117 L132.681191,72.6335806 L124.066985,72.6335806 L125.025196,73.2665793 L125.343005,73.9091783 L125.665622,74.5373892 L125.343005,75.4916874 L124.707411,77.7167955 L124.066985,79.3040924 L116.728601,79.3040924 L118.649854,80.2583906 L119.603258,81.5292005 L119.921067,82.8000104 L119.921067,84.703819 L122.473205,84.3873073 L121.842419,85.9794166 L120.561591,89.791748 L119.921165,91.0577455 L119.921165,92.0168315 L120.238975,92.9663419 L120.879376,92.9663419 L121.842394,92.9663419 L122.79099,92.6498303 L123.431416,91.6907442 L124.384819,90.4199344 L127.259426,84.0707957 L133.321741,83.4329845 L132.040913,87.8832007 L130.447109,92.0169297 L129.811515,93.5994389 L129.811515,94.5585249 L130.365259,95.3881434 L130.447109,95.5080353 L131.400512,95.824547 L132.040938,95.824547 L132.681364,95.5080353 L132.796915,95.3881434 L133.321765,94.8702242 L133.957359,93.5994143 L139.056705,83.1165466 L142.889597,82.8000349 L141.931386,84.3873319 L141.295792,85.6629295 L141.295792,86.6124399 L141.295792,87.2502511 L141.613602,87.8832498 L141.931411,88.5210609 L142.889622,89.7918708 L144.165641,90.1083824 L145.759446,90.1083824 L152.139545,90.1083824 L157.238891,90.1083824 L159.155312,89.7918708 L160.753949,88.8375726 L161.707352,87.2502756 L162.665563,85.6629787 L167.134023,76.4507243 L170.639516,76.4507243 L171.279942,76.4507243 L171.910728,76.7624236 L172.233345,77.7167218 L171.910728,78.0332335 L171.592919,78.6662322 L170.316899,79.3040188 L167.764761,79.6253182 L167.133974,80.5748286 L166.493548,81.8456385 L166.170931,82.7999367 L166.493548,84.0707466 L167.764736,85.979343 L169.045563,87.5666399 L172.86884,90.1083579 L175.10307,91.3743554 L177.659893,92.3286536 L179.889316,92.9664401 L181.80093,92.9664401 L182.75914,92.9664401 L182.75914,92.6499285 L182.441331,92.0169297 L178.61337,90.1083333 L183.712716,90.1083333 L186.587323,89.7918217 L189.144146,89.1540106 L191.691353,88.1997123 L193.602967,86.9289025 L195.196772,85.0250939 L196.154982,82.7999858 L196.477599,81.5291759 L196.477599,79.9370666 L196.477599,78.6662568 L196.154982,77.0789598 L195.519388,75.8081499 L194.561178,74.8634519 L193.920752,74.2256408 L192.967349,73.5878297 L190.733118,72.9548309 L187.868126,72.6335315 L178.613419,72.6335315 L179.889439,72.9548309 L180.525033,73.5878297 L180.84765,74.2256408 L181.165459,74.8634519 L180.84765,75.8081499 L180.84765,76.4507489 L184.993395,76.1294494 L187.868003,76.4507489 L189.144022,76.4507489 L190.097426,77.0789598 L190.733019,77.7167709 L191.373421,78.3497697 L191.69123,79.9370666 L191.69123,81.2126643 L191.055636,82.7999613 L190.097426,84.0707711 L188.821406,85.0250693 L187.222769,85.6628559 L184.993346,85.9793675 L182.441208,85.9793675 L185.311131,79.3039206 L183.081708,79.3039206 L180.211785,79.3039206 L175.743324,88.1994423 L173.509093,85.979122 L171.592672,84.0705256 L171.279695,83.1162274 L171.279695,82.7997157 L171.592672,82.1619046 L171.910482,81.845393 L174.149519,81.2123942 L175.425539,80.258096 L176.378942,79.3037978 L176.701559,77.7165008 L177.019368,76.4505033 L176.701559,75.1749057 L176.061158,74.2253953 L175.425564,73.5875842 L174.785163,72.9545854 L173.826952,72.6332859 L172.550932,72.6332859 L163.618941,72.6332859 L160.113449,80.2581942 L158.519644,83.1163992 L157.561434,84.7036962 L157.238817,85.3415073 L156.603223,85.6628068 L154.696417,85.9793184 L148.634102,85.9793184 L147.353275,85.6628068 L147.353275,85.0250202 L147.671084,84.070722 L148.634102,82.1621256 L151.504025,81.8456139 L153.733448,81.2126152 L156.921156,79.9370175 L157.561582,79.6253182 L156.603371,79.3040188 L154.373948,79.3040188 L149.582772,79.3040188 L150.863599,76.4507243 L158.519768,76.4507243 L160.431381,72.6334824 L147.671183,72.6334824 L144.483475,79.3040188 L140.973299,79.3040188 L144.165691,72.6334824 L144.165691,71.683972 L143.843074,71.0461609 L142.889671,70.7296492 L141.613651,70.4131376 L141.613183,70.4133585 Z M53.5777231,70.7250578 L54.8537429,71.679356 L55.1715522,72.3171426 L55.1715522,72.6336542 L54.8537429,72.6336542 L52.6195125,73.9044641 L51.025708,74.8587623 L48.4735697,76.4460593 L55.8070228,76.1295476 L64.4212293,75.4917365 L63.1452094,79.9419526 L61.8691896,83.754284 L58.6767978,92.0121665 L58.041204,93.2829763 L58.041204,94.5537862 L58.3590132,95.1867849 L58.7586724,95.3881925 L58.9994392,95.5080844 L59.240206,95.3881925 L59.6398652,95.1867849 L60.5932683,94.8702733 L61.5514789,93.9207629 L62.5096895,92.3286536 L73.0308502,75.4917365 L78.4575957,74.8587378 L92.4938634,70.7250087 L53.5781915,70.7250087 L53.5777231,70.7250578 Z M92.8114261,72.6336542 L89.6190344,79.6255883 L84.5150043,79.6255883 L86.7492347,74.5374874 L81.0096354,76.4460838 L79.4158309,79.625441 L73.6713008,79.625441 L75.2651053,80.2632276 L76.5411252,81.529225 L77.817145,82.8000349 L76.2233405,86.2958792 L74.3069194,90.1082106 L79.4158802,90.1082106 L82.6035878,83.4327636 L87.7076179,83.4327636 L84.5152262,90.1082106 L89.6192563,90.1082106 L97.9156781,72.6334087 L92.811648,72.6334087 L92.8114261,72.6336542 Z M100.785379,72.9501659 L97.9107721,78.671241 L94.4052799,85.6631751 L94.0874706,87.250472 L94.0874706,87.8834708 L94.4052799,88.5212819 L95.0408738,89.1542806 L95.6764677,89.7920918 L96.9524875,90.1086034 L98.2333148,90.1086034 L105.248983,90.1086034 L105.889385,89.7920918 L106.842788,89.4707923 L108.123615,87.8834953 L109.394803,85.9796867 L101.738634,85.9796867 L101.103041,85.6631751 L100.785231,85.3418756 L100.462615,85.025364 L100.462615,84.0710657 L101.420825,82.4837688 L104.613217,82.1672571 L107.48314,81.529446 L110.993316,79.304338 L102.37911,79.304338 L103.972914,76.4461329 L111.951551,76.4461329 L114.180974,72.9502886 L100.785207,72.9502886 L100.785379,72.9501659 Z M47.5829592,99.4550394 L47.5829592,112.575627 C47.5829592,121.559048 42.4116248,131.345104 33.1327579,131.345104 L33.1327579,153.524245 L104.416112,153.524245 L104.416112,131.345104 C95.5807625,131.345104 89.8695147,122.126712 89.8695147,112.575627 L89.8695147,99.4550394 L85.877854,99.4550394 L85.877854,116.172138 C85.877854,123.716022 93.0863135,134.471673 100.063276,134.471673 L100.063276,149.097845 L37.5048233,149.097845 L37.5048233,134.471673 C44.7066263,134.471673 51.685561,123.716022 51.685561,116.172138 L51.685561,99.4550394 L47.5829592,99.4550394 Z M91.4145544,99.4550394 L124.970539,154.85133 L158.521592,99.4550394 L153.248931,99.4550394 L124.968813,145.833044 L96.6886942,99.4550394 L91.4113495,99.4550394 L91.4145544,99.4550394 Z M160.069837,99.4550394 L160.069837,112.575627 C160.069837,122.126712 154.358589,131.345104 145.52324,131.345104 L145.52324,153.524245 L216.816455,153.524245 L216.816455,131.345104 C207.52822,131.345104 202.351708,121.558803 202.351708,112.575627 L202.351708,99.4550394 L198.249106,99.4550394 L198.249106,116.172138 C198.249106,123.716022 205.22952,134.471673 212.434528,134.471673 L212.434528,149.097845 L149.871145,149.097845 L149.871145,134.471673 C156.854271,134.471673 164.056567,123.716022 164.056567,116.172138 L164.056567,99.4550394 L160.06959,99.4550394 L160.069837,99.4550394 Z" id="Shape" fill="#FFFFFF" transform="translate(124.933534, 82.419637) rotate(-360.000000) translate(-124.933534, -82.419637) "></path>
            </g>
        </g>
    </g>
</svg>