<?xml version="1.0" encoding="UTF-8" standalone="no"?>
<svg width="250px" height="250px" viewBox="0 0 250 250" version="1.1" xmlns="http://www.w3.org/2000/svg" xmlns:xlink="http://www.w3.org/1999/xlink">
    <!-- Generator: Sketch 47.1 (45422) - http://www.bohemiancoding.com/sketch -->
    <title>UMKC</title>
    <desc>Created with Sketch.</desc>
    <defs></defs>
    <g id="Page-1" stroke="none" stroke-width="1" fill="none" fill-rule="evenodd">
        <g id="UMKC" fill-rule="nonzero">
            <g id="UMKC_Kangaroos_logo-(1)" transform="translate(0.000000, 48.000000)">
                <g id="Group" transform="translate(125.219595, 77.623551) scale(-1, 1) rotate(-180.000000) translate(-125.219595, -77.623551) translate(0.641892, 0.404348)">
                    <g id="Shape">
                        <path d="M207.390203,95.8220109 C206.262669,95.1972373 205.19848,94.3801178 204.199043,93.4057518 C203.216498,92.4552536 202.304336,91.3699728 201.468187,90.1737772 C200.602477,88.9396739 199.870495,87.6199275 199.287725,86.2243659 L193.681025,72.5060236 C193.120777,71.1624094 192.699887,69.7668478 192.490146,68.3193388 C192.407095,67.7451087 192.357827,67.1624547 192.350788,66.5755888 C192.340935,65.7135417 192.422579,64.813587 192.65625,63.9220562 C193.026464,62.4380435 193.869651,61.0228261 195.021115,60.1397192 C196.064189,59.3113678 197.257883,59.0052989 198.343187,58.9912591 L198.37134,58.9912591 C198.538851,58.9884511 198.709178,58.992663 198.88232,59.0024909 L215.076014,60.0119565 L211.981982,57.7248641 L188.554336,56.3868659 C188.434685,56.379846 188.322072,56.378442 188.21509,56.378442 C187.443694,56.3995018 187.148086,56.572192 186.955236,56.7224185 C186.592061,57.0523551 186.490709,57.1885417 186.275338,57.8666667 C186.175394,58.2317029 186.100788,58.7483696 186.109234,59.4615942 C186.113457,59.8603261 186.145833,60.3236413 186.213401,60.8445199 C186.389358,62.195154 186.845439,63.8630888 187.660473,65.7837409 L194.410191,81.7709239 C195.226633,83.695788 196.247185,85.5322011 197.485923,87.2913949 C198.75,89.0870924 200.092905,90.6609601 201.518863,92.032654 C202.936374,93.3945199 204.352477,94.454529 205.772804,95.2421649 C206.722973,95.7700634 207.585867,96.1112319 208.362894,96.3007699 C208.032095,96.1589674 207.709741,96.000317 207.390203,95.8220109 L207.390203,95.8220109 Z M178.084178,53.2222826 C178.08277,53.2222826 174.793074,53.9677989 174.791667,53.9677989 C172.34375,54.5336051 172.124155,56.7013587 172.276182,58.1446558 L172.515484,59.6609601 C172.519707,59.672192 172.522523,59.6806159 172.519707,59.6820199 L173.260135,63.3815217 C173.536036,64.7939312 173.695101,66.167029 173.709178,67.526087 L173.710586,67.5527627 C173.717624,68.1326087 173.696509,68.6984149 173.652872,69.2459692 C173.490991,71.1343297 173.032095,72.9637228 172.16357,74.5684783 C171.303491,76.1732337 170.056306,77.4438406 168.638795,78.2455163 C168.285473,78.4448822 167.925113,78.6133605 167.559122,78.7523551 L170.501126,83.5567935 C171.272523,84.7726449 172.098818,85.6599638 173.044764,86.3437047 C174.054054,87.0765851 174.797297,87.3152627 175.249155,87.3489583 L187.186092,88.2390851 C186.903153,87.6662591 179.075169,69.0395833 179.075169,69.0395833 C176.962275,64.035779 175.3125,58.3061141 178.084178,53.2222826 L178.084178,53.2222826 Z M163.072917,87.0850091 L155.962838,75.9261322 C155.506757,75.2143116 155.268863,74.3606884 155.259009,73.5014493 C155.250563,72.8345562 155.37866,72.1606431 155.650338,71.5428895 C156.228885,70.2203351 157.357827,69.3990036 158.592342,69.3835598 C158.672579,69.3807518 158.748592,69.3835598 158.826014,69.3891757 L161.979167,69.6081975 C162.118525,69.6180254 162.242399,69.6222373 162.36768,69.6194293 C162.934966,69.6110054 163.260135,69.4930707 163.447354,69.3877717 C163.804899,69.164538 163.897804,69.0522192 164.085023,68.7363225 C164.228604,68.4681612 164.383446,68.0315217 164.455236,67.229846 C164.473536,67.0220562 164.481982,66.7721467 164.477759,66.5096014 C164.470721,65.8848279 164.396115,65.1421196 164.227196,64.2842844 L162.684403,56.5651721 C162.654842,56.4261775 162.635135,56.2984149 162.621059,56.2057518 C162.598536,56.0288496 162.588682,55.894067 162.583052,55.7929801 C162.545045,55.416712 162.521115,55.0334239 162.516892,54.6529438 L158.526182,54.4240942 L159.590372,60.0695199 L159.631194,60.3334692 C159.697354,60.838904 159.733953,61.3288949 159.740991,61.8343297 C159.739583,61.8680254 159.740991,61.8918931 159.740991,61.903125 C159.759291,63.545788 159.382038,65.3204257 158.457207,66.7609149 C157.882883,67.6664855 157.101633,68.3993659 156.237331,68.8500453 C155.382883,69.2965127 154.501689,69.4677989 153.666948,69.4790308 C153.483953,69.4818388 153.300957,69.4762228 153.119369,69.463587 L149.486205,69.2263134 C149.838119,69.4874547 150.153435,69.8258152 150.411036,70.231567 L158.599381,83.1047101 C159.508727,84.5536232 160.499718,85.8789855 161.589245,87.1032609 C162.691441,88.3401721 163.820383,89.4100091 164.967624,90.3169837 C166.116273,91.2281703 167.245214,91.9442029 168.353041,92.4833333 C168.475507,92.5437047 168.596565,92.5984601 168.714809,92.6504076 C168.282658,92.4033062 167.856137,92.125317 167.435248,91.8220562 C165.747466,90.6104167 164.282095,88.9972373 163.072917,87.0850091 L163.072917,87.0850091 Z M139.329955,74.1360507 C139.097691,73.5786685 138.976633,72.9763587 138.969595,72.3712409 C138.959741,71.5737772 139.146959,70.7735054 139.525619,70.0813406 C139.864865,69.460779 140.329392,68.977808 140.865709,68.6647192 L138.976633,68.5425725 C137.754786,68.4597373 136.656813,67.5892663 136.113457,66.266712 L130.598255,52.8291667 L127.560529,52.6550725 L140.620777,84.5845109 L140.791104,85.0969656 L140.798142,85.1250453 L141.00366,85.9000453 C141.530124,87.188904 141.904561,88.5297101 142.052365,89.9350996 C142.093187,90.3422554 142.119932,90.7466033 142.122748,91.163587 L142.124155,91.1972826 L146.552646,91.5398551 L139.329955,74.1360507 L139.329955,74.1360507 Z M118.534628,51.5571558 C117.709741,51.8182971 116.178209,52.1903533 115.943131,54.1741848 C115.941723,54.439538 129.840935,91.5384511 129.840935,91.5384511 C129.86768,91.5300272 129.960586,91.4879076 129.960586,91.4879076 C130.785473,91.2295743 132.317005,90.8547101 132.552083,88.8708786 C132.553491,88.6069293 128.507883,77.9562953 128.507883,77.9562953 L118.534628,51.5571558 Z M106.973536,57.0888587 L107.497185,56.7799819 L106.973536,57.0860507 C106.421734,55.7312047 106.014921,54.3398551 105.868525,52.8460145 C105.831926,52.4781703 105.812218,52.1033062 105.807995,51.729846 L105.806588,51.6680707 L101.699043,51.4336051 C101.692005,51.4350091 101.682151,51.4350091 101.67089,51.4336051 L108.897804,69.4046196 C109.118806,69.9549819 109.228604,70.5418478 109.235642,71.1202899 C109.251126,72.4091486 108.755631,73.6713315 107.846284,74.4659873 C107.263514,74.9756341 106.5808,75.2311594 105.900901,75.2395833 C105.039414,75.2508152 104.175113,74.8689312 103.516329,74.105163 L89.7255068,58.2288949 L83.3122185,57.835779 L82.027027,69.8047554 C81.8341779,71.5962409 80.6855293,73.0170743 79.2018581,73.2950634 C79.0399775,73.3245471 78.8766892,73.3413949 78.7162162,73.3427989 C77.4085023,73.3610507 76.1866554,72.4625 75.6123311,71.006567 L67.1114865,49.4567935 L64.0033784,49.2812953 L76.4414414,81.6024457 C77.0002815,82.9544837 77.3944257,84.3893569 77.5126689,85.9000453 C77.5337838,86.1850543 77.549268,86.4630435 77.5520833,86.7592844 C77.553491,86.8056159 77.553491,86.8519475 77.553491,86.898279 L84.4397523,87.4303895 L86.7215653,64.2674366 C86.8820383,62.7455163 87.7421171,61.4622736 88.9428491,60.9526268 C89.2975788,60.8009964 89.6635698,60.7265851 90.0267455,60.7223732 C90.8994932,60.7111413 91.7609797,61.1056612 92.4127252,61.8525815 L116.255631,89.2682065 L120.24634,89.5925272 L106.973536,57.0888587 L106.973536,57.0888587 Z M54.2159347,47.2904438 C53.3910473,47.5515851 51.8595158,47.9236413 51.6258446,49.9088768 C51.6244369,50.1714221 65.5954392,88.0663949 65.5954392,88.0663949 C65.6221847,88.057971 65.7150901,88.0158514 65.7150901,88.0158514 C66.5399775,87.7575181 68.071509,87.384058 68.3079955,85.3988225 C68.3094032,85.1348732 64.1891892,73.6895833 64.1891892,73.6895833 L54.2159347,47.2904438 Z M43.0489865,53.0116848 L43.5768581,52.7126359 L43.0489865,53.0102808 C42.5267455,51.6722826 42.1452703,50.282337 42.0396959,48.7856884 C42.0242117,48.5554348 42.0129505,48.3153533 42.0101351,48.0780797 C42.0087275,48.0640399 42.0087275,48.047192 42.0087275,48.0275362 C42.0087275,47.9798007 42.0073198,47.9348732 42.0073198,47.8885417 L37.6182432,47.6372283 C37.9603041,48.0022645 38.2432432,48.4501359 38.4431306,48.9653986 L52.191723,85.0113225 L55.4617117,85.2766757 L43.0489865,53.0116848 L43.0489865,53.0116848 Z M18.4445383,50.2289855 C18.9442568,48.823596 19.8761261,47.6091486 20.9853604,46.8748641 C21.0754505,46.8130888 21.1669482,46.7555254 21.2598536,46.7007699 L16.2148086,46.4143569 C16.0796734,46.407337 15.9473536,46.404529 15.8333333,46.405933 C15.0323761,46.4199728 14.6016329,46.6024909 14.3201014,46.7976449 C13.8457207,47.1528533 13.6852477,47.367663 13.4487613,47.9334692 C13.2840653,48.3588768 13.1573761,48.9611866 13.1672297,49.9074728 C13.1686374,50.0534873 13.174268,50.2205616 13.1855293,50.4002717 C13.2516892,51.5192482 13.5543356,52.9428895 14.2004505,54.6318841 L22.4563626,76.4891304 L22.6182432,77.0366848 L22.6252815,77.0633605 L22.6689189,77.2557065 C23.1376689,78.5080616 24.3567005,81.9085145 24.4355293,83.2914402 C24.4453829,83.4851902 24.4510135,83.6606884 24.4524212,83.8460145 C24.4538288,83.9204257 24.4538288,83.994837 24.4538288,84.0692482 L28.7908221,84.4062047 L18.8766892,58.6767663 C18.3699324,57.3275362 18.026464,55.9446105 17.9180743,54.5111413 C17.9011824,54.2640399 17.8899212,54.0099185 17.8856982,53.7600091 C17.8828829,53.7305254 17.8842905,53.7136775 17.8828829,53.7122736 C17.870214,52.5736413 18.022241,51.3732337 18.4445383,50.2289855 L18.4445383,50.2289855 Z M170.147804,101.48288 C168.505068,101.350906 166.873592,100.852491 165.263232,100.070471 C163.703547,99.3095109 162.179054,98.3337409 160.689752,97.1557971 C159.201858,95.9792572 157.774493,94.6173913 156.407658,93.0856431 C155.035191,91.5412591 153.780968,89.8663043 152.654842,88.0677989 L155.655968,95.3867754 L155.637669,95.4092391 C155.916385,96.1210598 156.054336,96.8609601 155.769989,97.6682518 C155.406813,98.6903533 154.490428,99.7040308 153.426239,99.7180707 C153.341779,99.7194746 153.254505,99.7166667 153.160191,99.7082428 L152.12134,99.6268116 L152.108671,99.6436594 L113.921734,97.2498641 C113.127815,97.1866848 112.377534,96.7893569 111.803209,96.1252717 L92.6323198,73.626404 L90.7573198,92.2685236 C90.5447635,94.2944746 89.6860923,95.8669384 87.4521396,95.8149909 C87.3676802,95.812183 87.2804054,95.812183 87.1875,95.805163 L72.4788851,94.6651268 L72.4845158,94.6974185 L61.1233108,93.870471 C61.0824887,93.873279 61.0416667,93.876087 60.9980293,93.876087 C60.9220158,93.8774909 60.8403716,93.876087 60.7516892,93.867663 L49.7578829,92.9761322 C48.5261824,92.8736413 47.4310248,91.9708786 46.9073761,90.6230525 L33.1714527,54.6164402 L28.4529842,54.3173913 C27.9786036,54.2963315 27.3719032,54.2794837 26.6455518,54.2766757 C24.5551802,54.2654438 25.6264077,56.5370924 25.6264077,56.5370924 L25.6151464,56.5356884 C28.3699324,63.739538 36.3992117,84.4328804 37.1185248,86.5472826 C37.5154842,87.7069746 37.8899212,89.1474638 37.5380068,90.3717391 C37.2423986,91.3980525 36.4414414,92.0438859 35.4954955,92.220788 C34.481982,92.4103261 33.4262387,92.223596 32.4113176,92.1365489 C30.4814189,91.9807065 11.0515203,90.385779 9.8071509,90.2748641 C9.26942568,90.2285326 8.73310811,90.1807971 8.19679054,90.1330616 C8.17567568,90.1316576 9.82967342,89.9786232 10.620777,89.8705163 C13.0954392,89.5293478 14.9352477,88.3935236 15.8938626,87.0737772 C17.6435811,84.6617301 15.6714527,79.1960145 14.7649212,76.6688406 C12.7111486,70.9518116 10.6503378,65.5942029 8.59234234,59.8785779 C8.40934685,59.3703351 8.24183559,58.8508605 8.0419482,58.3496377 C7.14667793,56.0007699 6.57376126,53.6603261 6.43158784,51.3142663 C6.41328829,51.0081975 6.40061937,50.6965127 6.3963964,50.3806159 C6.39498874,50.3567482 6.3963964,50.3441123 6.3963964,50.3427083 C6.37246622,48.434692 6.64132883,46.5477355 7.30855856,44.8264493 C8.05884009,42.8468297 9.33980856,41.176087 10.9177928,40.0950181 C12.3733108,39.0785326 14.0357545,38.6390851 15.7136824,38.6166214 L15.7347973,38.6166214 C15.9966216,38.6138134 16.25,38.6208333 16.4949324,38.6334692 L21.8623311,38.9367301 L48.7387387,40.4783062 L48.7626689,40.4783062 C48.8006757,40.4811141 48.8414977,40.4839221 48.8823198,40.489538 L48.9132883,40.492346 C48.9132883,40.492346 48.9287725,40.492346 48.9400338,40.495154 C48.9569257,40.496558 48.9625563,40.496558 48.9864865,40.5021739 C49.0216779,40.5063859 49.0456081,40.5105978 49.0610923,40.5148098 L58.3234797,41.1929348 C58.3530405,41.1873188 58.4079392,41.1788949 58.4923986,41.176087 C58.5585586,41.174683 58.6233108,41.176087 58.6908784,41.1788949 L69.8775338,41.7826087 C71.1303491,41.852808 72.2480293,42.7499547 72.7857545,44.1132246 L76.7849099,55.0123641 L77.1818694,51.8028533 C77.397241,49.7825181 78.0461712,49.503125 80.2759009,49.5915761 C80.3462838,49.5943841 90.9304617,50.1700181 90.9304617,50.1700181 C91.7412725,50.2205616 92.5154842,50.6235054 93.1052928,51.2988225 L93.9850788,52.311096 L91.7060811,45.4399909 C91.7060811,45.4399909 90.8713401,43.203442 93.1179617,43.2427536 C94.1047297,43.2610054 94.9605856,43.298913 95.6052928,43.3368207 C95.6447072,43.3340127 95.682714,43.3269928 95.7221284,43.3255888 C95.785473,43.3255888 95.8516329,43.3269928 95.9149775,43.3298007 L101.85107,43.6471014 C101.865146,43.6471014 101.894707,43.6485054 101.92286,43.6499094 L112.383164,44.2494112 C112.404279,44.2494112 112.426802,44.2522192 112.442286,44.2522192 C112.47607,44.2536232 112.501408,44.2592391 112.516892,44.2634511 L121.866554,44.5484601 C121.884854,44.5456522 121.910191,44.5428442 121.942568,44.5428442 C122.008727,44.5428442 122.07348,44.5428442 122.141047,44.5470562 L133.289696,45.1620018 C134.519989,45.2336051 135.627815,46.1054801 136.175394,47.4364583 L141.504786,61.3836504 L151.704673,62.0547554 C152.143863,61.9719203 152.792793,61.5844203 152.466216,59.9557971 C152.449324,59.872962 152.439471,59.8041667 152.428209,59.7297554 L150.274493,48.7702446 C150.274493,48.7702446 149.567849,46.1826993 151.625845,46.2697464 C152.937782,46.3259058 181.565315,48.0134964 200.33643,49.1212409 L200.273086,49.0749094 L225.398367,50.564538 C225.415259,50.564538 225.434966,50.564538 225.451858,50.5799819 C225.451858,50.5799819 229.168074,50.8004076 229.17089,50.8004076 C225.743243,50.5982337 222.985642,54.8719656 222.877252,57.8947464 C222.826577,59.3085598 223.098255,60.3952446 223.381194,61.7739583 L223.79786,63.3422101 C223.910473,63.6707428 223.997748,64.0034873 224.017455,64.3362319 C224.058277,65.0410326 224.047016,65.4144928 223.748592,66.0533062 C223.155968,67.3211051 221.479448,67.5738225 220.280124,67.5878623 C220.211149,67.5892663 220.135135,67.5878623 220.056306,67.5822464 L200.969876,66.363587 C200.899493,66.3706069 200.834741,66.3776268 200.750282,66.3804348 C199.334178,66.4267663 199.556588,67.7408967 199.811374,68.5130888 L205.796734,83.3686594 C206.113457,84.1254076 206.614583,85.1854167 207.160755,85.9674366 C207.736486,86.7887681 208.334741,87.4963768 208.961149,88.1028986 C209.580518,88.7052083 210.166104,89.1418478 210.730574,89.4535326 C211.271115,89.7553895 211.668074,89.8592844 211.955236,89.8817482 C214.383446,90.0656703 216.811655,90.2538043 219.238457,90.4545743 C222.105856,90.6932518 224.984516,90.9852808 227.853322,91.1762228 C229.608671,91.2927536 231.547016,91.6872736 232.128378,94.0979167 C233.765484,100.886187 240.758727,105.913859 248.734516,107.319248 L170.147804,101.48288 L170.147804,101.48288 Z" fill="#000000"></path>
                        <g transform="translate(8.445946, 42.119565)" fill="#FFFFFF">
                            <path d="M221.973536,60.0765399 L216.855293,59.6483243 L207.78857,58.8859601 L200.161881,59.190625 C198.63598,59.0628623 197.025619,58.509692 195.332207,57.5353261 C193.637387,56.5609601 191.987613,55.2763134 190.380068,53.6757699 C188.775338,52.0794384 187.271959,50.2528533 185.872748,48.1960145 C184.474944,46.1433877 183.303773,43.9644022 182.36205,41.6632699 L175.658784,25.3545743 C174.721284,23.0632699 174.130068,20.9376359 173.883727,18.9776721 C173.63598,17.0163043 173.703547,15.3273098 174.079392,13.9064764 C174.456644,12.4856431 175.116836,11.3750906 176.062782,10.5790308 C177.00732,9.78016304 178.223536,9.42355072 179.717061,9.5134058 L211.677928,11.2683877 C210.9192,11.2220562 211.090935,11.5786685 210.626408,11.9759964 C210.053491,12.4603714 209.718468,13.270471 209.57911,14.2827446 C209.239865,16.762183 209.926802,18.9875 211.20777,21.3588315 L189.099099,19.9309783 C188.333333,19.8818388 188.355856,20.7593297 187.881475,21.1510417 C187.405687,21.5343297 187.07911,22.086096 186.89893,22.7993207 C186.720158,23.5125453 186.701858,24.3689764 186.838401,25.3686141 C186.979167,26.3668478 186.936937,26.2278533 187.394426,27.3594656 L192.984234,41.5228714 C193.441723,42.6544837 194.023086,43.7425725 194.72973,44.7871377 C195.434966,45.8317029 196.189471,46.7583333 196.997466,47.567029 C197.802646,48.3799366 197.943412,49.2869112 198.789414,49.7726902 C199.634009,50.2598732 201.119088,51.923596 201.894707,51.9839674 L207.858953,52.4613225 C207.885698,52.4627264 207.905405,52.4543025 207.932151,52.4557065 L215.429336,53.0538043 L215.432151,53.0664402 L218.416385,53.3037138 C218.886543,54.4507699 219.491836,53.9074275 220.209741,54.9660326 C220.929054,56.0232337 220.595439,56.8852808 221.409065,57.6855525 C222.221284,58.4858243 222.212838,59.0081069 223.065878,59.5023098 C223.920327,59.9951087 224.156813,60.7967844 224.935248,60.8613678 L221.973536,60.0765399 L221.973536,60.0765399 Z"></path>
                            <path d="M38.0630631,9.02762681 L51.7553491,48.2226902 L41.040259,47.3508152 L26.0275901,7.28387681 L15.1984797,6.58048007 C14.4355293,6.53274457 13.8006757,6.68156703 13.2953266,7.03115942 C12.7913851,7.37934783 12.4225788,7.87495471 12.191723,8.52078804 C11.9594595,9.16662138 11.8778153,9.94021739 11.9439752,10.8429801 C12.0087275,11.7471467 12.2297297,12.7102808 12.6055743,13.7337862 L24.8662725,46.2585145 L24.8282658,46.2557065 L24.8690878,46.3146739 L9.31165541,46.108288 C10.0337838,46.0830163 10.1534347,46.0394928 10.6714527,45.7053442 C13.0095721,44.1918478 11.0670045,38.2965127 10.2364865,36.0262681 C8.94566441,32.4938406 7.63654279,28.969837 6.33727477,25.4402174 C5.21677928,22.4019928 4.09769144,19.3637681 2.9786036,16.3255435 C2.74352477,15.6881341 2.50844595,15.0507246 2.27477477,14.4119112 C1.50056306,12.3396286 1.06278153,10.4189764 0.957207207,8.64714674 C0.853040541,6.87391304 1.04307432,5.3477808 1.5259009,4.06875 C2.00872748,2.78831522 2.75337838,1.79008152 3.76126126,1.0754529 C4.76773649,0.358016304 6.01632883,0.0449275362 7.50844595,0.131974638 L12.3606419,0.786231884 L31.1838401,1.44750906 C31.1838401,1.44750906 37.660473,7.97884964 38.0630631,9.02762681"></path>
                            <path d="M101.618806,7.37092391 C101.418919,8.06870471 101.36402,8.87880435 101.449887,9.80543478 C101.535755,10.7053895 101.798986,11.6994112 102.231137,12.783288 L116.059966,50.761096 L116.259854,51.3886775 L116.703266,52.6845562 L105.526464,51.7129982 L80.464527,22.573279 L77.9786036,49.2504076 L62.4831081,49.0384058 C62.7759009,49.0047101 63.067286,48.9766304 63.3460023,48.8530797 C63.8640203,48.6214221 64.3468468,48.1707428 64.6438626,47.5979167 C64.7255068,47.4406703 64.7958896,47.273596 64.8550113,47.1023098 C65.0774212,46.4466486 65.1534347,45.6590127 65.0830518,44.7337862 C65.0112613,43.8099638 64.7621059,42.81875 64.3327703,41.7643569 L49.321509,2.41766304 L61.2162162,3.08596014 L69.7269144,26.7697917 L71.2809685,11.3076993 L83.071509,12.0181159 L96.4231419,28.2439764 L87.084741,4.25828804 L89.6410473,4.40289855 C89.6410473,4.40289855 101.814471,6.67033514 101.618806,7.37092391"></path>
                            <path d="M180.067568,57.5072464 L161.307714,56.0330616 C160.081644,55.9319746 158.802083,55.5472826 157.467624,54.8831975 C156.134572,54.2191123 154.807151,53.3542572 153.488176,52.2858243 C151.780687,50.9057065 149.670608,48.5413949 148.353041,46.5856431 C147.515484,45.3431159 140.001408,33.2421649 138.744369,31.2246377 C138.475507,30.7922101 138.205236,30.3583786 137.936374,29.9259511 L133.019426,29.4345562 L142.792793,53.4890399 L142.602759,53.473596 L142.754786,53.6813859 L126.997466,53.4609601 C127.747748,53.4384964 127.980011,53.3444293 128.475507,52.9850091 C128.97241,52.6283967 129.282095,52.115942 129.486205,51.439221 C129.6875,50.7625 129.739583,49.9467844 129.641047,48.9920743 C129.496059,47.562817 128.962556,46.2528986 128.547297,44.9219203 C128.385417,44.4066576 128.157376,43.9124547 127.958896,43.4154438 C126.842624,40.6257246 125.443412,36.7788043 124.32714,33.9890851 C123.102477,30.9298007 121.876408,27.8705163 120.651745,24.8112319 C119.41723,21.7294837 118.184122,18.6491395 116.951014,15.5673913 C115.975507,13.1328804 115.396959,11.7527627 114.421453,9.31825181 C113.973818,8.20067935 113.298142,6.59030797 112.851914,5.47413949 C112.839245,5.44605978 112.829392,5.41798007 112.818131,5.38990036 L123.526182,5.87146739 L129.808559,22.4511322 L143.140484,23.2893116 C144.139921,23.3567029 146.223255,23.3131793 146.891892,22.4623641 C147.498592,21.6915761 147.456363,20.7172101 147.390203,19.8074275 C147.239583,17.7042572 145.157658,7.66576087 145.084459,7.29230072 C145.084459,7.29230072 149.007601,7.48464674 149.007601,7.48324275 L159.524212,8.10099638 C158.764077,8.05747283 157.667511,8.52921196 157.191723,8.91109601 C156.714527,9.2901721 156.82714,8.49692029 156.648367,9.21576087 C156.468187,9.93600543 156.510417,11.2894475 156.623029,12.2399457 C156.624437,12.2610054 156.620214,12.2848732 156.621622,12.3087409 L158.182714,20.2791667 C158.490991,21.8881341 158.59375,23.3552989 158.483953,24.6792572 C158.372748,26.0018116 158.072917,27.1320199 157.580236,28.0614583 C157.088964,28.9923007 156.416104,29.7041214 155.561655,30.2025362 C154.708615,30.6981431 153.672579,30.901721 152.460586,30.8160779 L149.30884,30.5914402 L156.428773,42.0086504 C157.401464,43.5783062 158.174268,44.3575181 159.341216,45.5452899 C161.052928,47.2848279 163.334741,49.0341938 164.470721,49.1254529 L171.981982,50.9955616 C172.225507,52.6185688 174.294764,50.7203804 174.997185,51.7466938 C175.696791,52.7716033 175.565878,53.2096467 176.36402,53.9860507 C177.16357,54.7638587 177.65625,55.6230978 178.500845,56.1032609 C179.348255,56.5834239 179.51295,57.0748188 180.291385,57.1408062 L180.067568,57.5072464 L180.067568,57.5072464 Z"></path>
                        </g>
                        <path d="M236.373874,104.133605 C235.356137,104.035326 234.338823,103.928974 233.321087,103.826483 C232.499015,103.743648 231.677506,103.660027 230.855434,103.578596 C229.846143,103.477509 228.836852,103.374751 227.82897,103.273664 C226.69299,103.159941 225.557995,103.047356 224.422016,102.933633 C223.288851,102.818506 222.156954,102.706538 221.023789,102.591411 C219.918778,102.480496 218.812782,102.37107 217.709178,102.260155 C216.706926,102.159068 215.705518,102.057111 214.704673,101.957428 C213.885417,101.874592 213.064893,101.792375 212.245636,101.70954 C211.664274,101.651976 211.083615,101.593851 210.50366,101.536232 C210.240428,101.509556 209.978702,101.484004 209.714063,101.457328 C209.699986,101.45598 209.684783,101.45452 209.667891,101.453116 C208.14199,101.323949 206.531349,100.771214 204.837936,99.7968342 C203.143117,98.8238723 201.494468,97.5386639 199.886923,95.9381205 C198.280785,94.3417889 196.77797,92.5150634 195.380166,90.4582246 C193.980954,88.4041938 192.81288,86.2264719 191.869749,83.9253397 L185.119609,67.3849864 C184.182109,65.0922781 183.592441,62.9655208 183.344693,61.0055571 C183.098353,59.0441893 183.165386,57.3567391 183.542638,55.9359058 C183.91989,54.5150725 184.580617,53.4055027 185.526591,52.6080389 C186.469721,51.8105752 187.685656,51.4520254 189.177773,51.5418804 L220.755757,53.4110063 C220.326422,53.8476458 220.026675,54.3675557 219.82538,54.913692 C219.640977,55.3138279 219.512261,55.7831943 219.44047,56.3110928 C219.101225,58.7905313 219.80252,61.7261245 221.083488,64.0988601 L199.202858,62.670726 C198.438499,62.6215865 197.817286,62.7907668 197.344327,63.1796707 C196.868539,63.5657668 196.539935,64.1161291 196.361163,64.8293537 C196.180983,65.5425784 196.163837,66.3999923 196.30176,67.398226 C196.441118,68.3964597 196.738668,69.4577323 197.194749,70.5879407 L202.783573,84.7527505 C203.242469,85.8843628 203.822508,86.9724515 204.527801,88.0170168 C205.234445,89.060178 205.989654,89.9877912 206.797649,90.7964869 C207.604237,91.6079905 208.42828,92.2587378 209.274282,92.7445168 C210.118877,93.2302957 210.927717,93.5032024 211.704744,93.5649778 L217.671945,94.0432034 C217.698691,94.0445512 217.717835,94.0347794 217.744581,94.0361834 C217.744581,94.0361834 225.239794,94.6348007 225.24261,94.6460326 C226.168849,94.7204438 227.105082,94.7773053 228.027097,94.8741803 C228.141118,94.8868161 228.120566,94.8750648 228.25145,94.8960824 C228.320425,95.1165082 228.430307,95.6042106 228.48239,95.8218284 C228.865273,97.4574715 229.639569,98.9559452 230.684108,100.167585 C231.693398,101.339913 232.9327,102.326072 234.181292,103.148808 C234.876675,103.606507 235.598522,103.909164 236.374141,104.133802 L236.373874,104.133605 Z M198.254505,100.483243 L193.153998,100.026947 L171.233953,98.3421649 C170.006475,98.2410779 168.901886,97.771178 167.567427,97.1070928 C166.234375,96.4430077 164.905405,95.5767486 163.58643,94.5097197 C162.268863,93.4440947 160.989443,92.2028311 159.754927,90.7848057 C158.520411,89.3681843 157.396678,87.8312414 156.383164,86.1801544 L148.192427,73.0200367 L142.82348,72.6405254 L152.694679,96.898587 L136.091357,95.5823505 C136.841639,95.6441259 137.463218,95.4978306 137.958756,95.1370204 C138.454251,94.7804081 138.805194,94.2605824 139.007897,93.5839316 C139.2106,92.9072106 139.263373,92.0912142 139.166244,91.1379081 C138.960726,89.1302088 138.133376,87.1948148 137.4154,85.3991173 C136.293497,82.5967622 135.172157,79.7942668 134.050253,76.9905077 C132.829814,73.9424552 131.610783,70.8951046 130.390343,67.8470521 C129.167089,64.7919796 127.942708,61.7388727 126.719454,58.6838003 C125.753801,56.2717532 124.788429,53.8573193 123.822776,51.4466762 C123.379364,50.3389316 122.708981,48.7424597 122.265625,47.6361191 C122.252956,47.6038274 122.24085,47.572659 122.228181,47.5417713 L132.935107,48.0222011 L139.612753,64.6116938 L153.168074,65.5593841 C154.826295,65.6857428 155.710445,65.2538487 156.234093,64.4142654 C156.757742,63.5732781 156.783798,62.4625851 156.603618,61.0403478 L154.628533,49.4091703 C154.628533,49.4091703 158.772396,49.6518773 158.772396,49.6504733 L169.292385,50.2691114 C168.532249,50.2269918 167.896354,50.3735679 167.436106,50.7736617 C166.180476,51.8673664 166.230884,53.9369814 166.426548,55.4462659 C166.429364,55.4673256 166.425422,55.490351 166.426548,55.5142187 L167.988204,63.4840829 C168.296481,65.0916463 168.399338,66.5593727 168.289541,67.8847351 C168.176928,69.2058854 167.878238,70.3366553 167.385557,71.2674977 C166.892877,72.1969361 166.219496,72.9087568 165.366413,73.4085756 C164.511965,73.9027785 163.477196,74.1076621 162.265203,74.020615 L159.113316,73.7968619 L166.232967,85.2151952 C167.205659,86.784851 168.339245,88.0498419 169.639921,89.0059561 C170.939189,89.9648782 172.152872,90.487582 173.288851,90.578841 L189.75,91.8731472 C190.201858,92.9851037 190.776365,94.0532559 191.478744,95.0781653 C192.17835,96.1044787 192.930602,97.0044334 193.728744,97.7808374 C194.528294,98.5572414 195.353322,99.1851037 196.196509,99.6652668 C197.043919,100.14543 197.478167,100.417536 198.255208,100.483524 L198.254505,100.483243 Z M126.534347,94.8453986 L115.939471,94.483423 L90.7339527,64.8480969 L88.0616554,92.3732328 L71.5962838,91.0657713 C72.3423423,91.1289506 72.9708615,90.9877097 73.4790259,90.6423714 C73.9871903,90.2969909 74.3541526,89.7983234 74.5765625,89.144038 C74.7989724,88.4883768 74.8734938,87.7000389 74.8031109,86.7748125 C74.732728,85.85099 74.4824324,84.8610399 74.0530968,83.8066467 L59.1938626,44.4978605 L69.9425957,45.1274638 L79.3277309,69.423433 L81.0059403,53.3800906 L91.8009854,54.0601531 L106.506785,71.3684864 L96.7477759,46.3298089 L113.210332,47.3016336 C112.450197,47.2553021 111.82424,47.42013 111.33857,47.7908383 C110.85152,48.1572785 110.51288,48.6894733 110.315808,49.3901182 C110.115921,50.087899 110.059178,50.9006662 110.146453,51.8272966 C110.230912,52.7258474 110.495904,53.7202903 110.929462,54.8041671 L126.534755,94.8458338 L126.534347,94.8453986 Z M61.4456644,90.47774 L50.4460867,89.5629592 L35.8374155,50.4942545 L25.0071791,49.7900716 C24.2428209,49.7423361 23.6107827,49.8887717 23.1068412,50.2397822 C22.6014921,50.5865666 22.2313626,51.0820892 22.0005068,51.7292704 C21.7682432,52.3751037 21.6865991,53.1496825 21.7541667,54.0524452 C21.8189189,54.9566119 22.0381616,55.9203075 22.4140062,56.943813 L34.7090512,89.5331245 L34.6782235,89.5218927 L18.2086289,88.2341712 C18.9575028,88.2973505 19.5909488,88.1384194 20.1089668,87.8042006 C20.6255771,87.4700521 21.0009854,86.9827849 21.2416948,86.3453193 C22.0060529,84.3179642 20.307897,79.8305457 19.6096565,77.9478012 C18.292089,74.3943139 16.9821227,70.8397034 15.6659628,67.286216 C14.5440597,64.2493954 13.421875,61.2146807 12.2985642,58.1778601 C12.0620777,57.5362387 11.8252393,56.8919918 11.5859375,56.2517323 C10.8145411,54.1794497 10.3734093,52.2585168 10.2706503,50.486687 C10.1664837,48.7148573 10.3575028,47.1881635 10.8403153,45.9105367 C11.3231419,44.6286979 12.0663007,43.629341 13.0727196,42.9161164 C14.0791948,42.1986798 15.328491,41.8835693 16.8206081,41.9706164 L22.1740709,42.2843229 L49.0730011,43.866053 C48.3114583,43.8197215 47.6841639,43.9775294 47.1858953,44.3355177 C46.6875845,44.689322 46.3285473,45.2045847 46.1103604,45.8799017 C45.8907658,46.5552188 45.8130771,47.3380811 45.8750141,48.2338238 C45.9341357,49.1056988 46.167455,50.0661653 46.570045,51.1163465 L61.4447635,90.4756762 L61.4456644,90.47774 Z" stroke="#005293" stroke-width="0.563063063" fill="#005293"></path>
                        <g transform="translate(12.668919, 54.755435)" fill="#FFFFFF">
                            <path d="M11.3597973,31.5054348 C11.2809685,31.6444293 11.1880631,31.772192 11.0740428,31.8887228 C10.8643018,32.0993207 10.6081081,32.2663949 10.3490991,32.4053895 C10.3420608,32.4096014 10.1928491,32.4783967 10.1928491,32.4783967 L10.1914414,32.4615489 C10.6221847,32.1175725 10.8868243,31.4057518 10.9769144,30.8736413 C11.0824887,30.2474638 11.0627815,29.5903986 10.9895833,28.961413 C10.888232,28.1077899 9.79588964,25.1762681 9.54251126,24.3591486 C9.08783784,22.8990036 8.55292793,21.4599185 8.04054054,20.0222373 C7.7294482,19.1461504 6.08811937,14.7446558 5.59966216,13.4361413 C5.15625,12.2511775 4.71283784,11.0662138 4.26942568,9.88405797 C3.51632883,7.87074275 2.34375,4.8535779 1.59065315,2.8388587 C1.44425676,2.44995471 1.29926802,2.05964674 1.15287162,1.67074275 C1.04166667,1.38432971 0.930461712,1.09791667 0.824887387,0.811503623 C0.837556306,0.842391304 0.851632883,0.874682971 0.862894144,0.905570652 C0.891047297,0.974365942 0.914977477,1.04035326 0.941722973,1.10914855 L0.927646396,1.06983696 L0.824887387,0.811503623 C0.722128378,0.55317029 0.960022523,0.840987319 0.960022523,0.840987319 C1.01632883,0.98138587 1.07404279,1.12459239 1.12894144,1.26639493 C1.27956081,1.65249094 1.43158784,2.03858696 1.58502252,2.42608696 C1.82291667,3.02839674 2.47888514,4.63736413 2.71677928,5.2410779 C3.00394144,5.97255435 3.29251126,6.7040308 3.57967342,7.43410326 C3.91751126,8.29334239 4.25816441,9.15258152 4.59600225,10.0146286 C4.95073198,10.9145833 5.30546171,11.815942 5.66019144,12.7187047 C6.01351351,13.6144475 6.36683559,14.5129982 6.72156532,15.4115489 C7.07629505,16.3143116 7.43102477,17.2170743 7.7857545,18.118433 C8.06306306,18.8232337 8.34037162,19.5280344 8.61768018,20.2314312 C9.21311937,21.7393116 9.86908784,23.2219203 10.3533221,24.7719203 C10.7122748,25.9147645 12.0059122,29.3334692 11.7342342,30.5394928 C11.6582207,30.8764493 11.5287162,31.2077899 11.3597973,31.5054348"></path>
                            <path d="M64.4144144,34.1870471 C64.3369932,34.3246377 64.2454955,34.4566123 64.1314752,34.5717391 C63.9231419,34.7851449 63.6683559,34.9536232 63.4107545,35.0968297 C63.4037162,35.0982337 63.2559122,35.169837 63.2559122,35.169837 L63.2516892,35.1515851 C63.6824324,34.8048007 63.9400338,34.0901721 64.0259009,33.5594656 C64.1258446,32.9304801 64.1019144,32.2748188 64.0230856,31.6458333 C63.9161036,30.7936141 63.7035473,29.9540308 63.4431306,29.1383152 C62.9757883,27.6809783 62.3564189,25.4528533 61.8341779,24.0179801 C61.5146396,23.1461051 59.839527,18.7558424 59.3398086,17.4515399 C58.8865428,16.270788 58.433277,15.0900362 57.9814189,13.9106884 C57.2100225,11.9029891 56.4414414,9.89388587 55.6714527,7.88618659 C55.522241,7.50009058 54.6494932,5.4053442 54.4988739,5.0178442 C54.3876689,4.73283514 54.2736486,4.4464221 54.165259,4.16000906 C54.1779279,4.19230072 54.1891892,4.22459239 54.2018581,4.25688406 C54.2300113,4.32287138 54.2567568,4.3888587 54.2849099,4.45625 L54.2694257,4.41693841 L54.165259,4.16000906 C54.0596847,3.90307971 54.3003941,4.18668478 54.3003941,4.18668478 C54.3581081,4.32848732 54.4158221,4.47169384 54.4707207,4.61349638 C54.6269707,4.99678442 55.5067568,7.08591486 55.6630068,7.47201087 C55.9065315,8.07432065 56.1486486,8.67803442 56.3907658,9.2803442 C56.6835586,10.0076087 56.9791667,10.7376812 57.2719595,11.4649457 C57.6168356,12.3227808 57.9631194,13.179212 58.3065878,14.0370471 C58.6683559,14.9355978 59.0315315,15.8327446 59.3947072,16.7326993 C59.7536599,17.628442 60.1140203,18.5227808 60.4757883,19.4171196 C60.838964,20.3184783 61.200732,21.217029 61.5625,22.1169837 C61.8468468,22.8203804 62.1283784,23.5209692 62.4113176,24.2243659 C63.018018,25.7252264 63.7584459,27.998279 64.2567568,29.545471 C64.6227477,30.6841033 65.0436374,32.0080616 64.7804054,33.2182971 C64.7057995,33.5566576 64.5791104,33.8865942 64.4144144,34.1870471"></path>
                            <path d="M129.025901,38.5113225 C128.949887,38.650317 128.85839,38.7794837 128.744369,38.8960145 C128.534628,39.1094203 128.279842,39.2793025 128.022241,39.4197011 C128.01661,39.423913 127.868806,39.4941123 127.868806,39.4941123 L127.865991,39.4758605 C128.293919,39.1304801 128.552928,38.4158514 128.638795,37.882337 C128.738739,37.2561594 128.713401,36.5990942 128.63598,35.9715127 C128.52759,35.1178895 128.313626,34.2769022 128.056025,33.4625906 C127.588682,32.0066576 127.042511,30.5717844 126.518863,29.1383152 C126.200732,28.2636322 124.525619,23.8747736 124.023086,22.571875 C123.571227,21.3911232 123.119369,20.2103714 122.666104,19.0282156 C121.897523,17.0219203 119.998592,12.2230978 119.228604,10.2168025 C119.0808,9.82789855 118.932995,9.44039855 118.782376,9.05149457 C118.669764,8.76648551 118.386824,8.15996377 118.278435,7.87355072 C118.292511,7.90584239 118.302365,7.93673007 118.316441,7.96761775 C118.344595,8.03360507 118.369932,8.10240036 118.398086,8.16979167 L118.382601,8.13048007 L118.278435,7.87355072 C118.174268,7.61802536 118.41357,7.90163043 118.41357,7.90163043 C118.471284,8.04343297 118.528998,8.18523551 118.583896,8.32563406 C118.741554,8.71032609 119.065315,9.4165308 119.221565,9.80122283 C119.463682,10.4049366 120.327984,12.5403986 120.570101,13.1427083 C120.864302,13.8713768 121.662444,15.8552083 121.958052,16.5838768 C122.30152,17.440308 122.649212,18.2995471 122.994088,19.1559783 C123.354448,20.054529 123.717624,20.9544837 124.079392,21.8516304 C124.439752,22.7459692 124.80152,23.641712 125.160473,24.5360507 C125.523649,25.4360054 125.886824,26.3373641 126.248592,27.2373188 C126.531532,27.9379076 126.815878,28.6399004 127.09741,29.3432971 C127.70411,30.8441576 128.37134,32.3225543 128.869651,33.8683424 C129.23705,35.0083786 129.655124,36.332337 129.391892,37.5425725 C129.320101,37.878125 129.193412,38.2122736 129.025901,38.5113225"></path>
                            <path d="M194.059685,44.1974638 C192.761824,43.3213768 191.468187,42.4621377 190.278716,41.4161685 C187.521115,38.9928895 185.188626,36.0894475 183.364302,32.844837 C182.36205,31.0589674 181.617399,29.0245924 180.810811,27.1306159 C180.160473,25.6058877 179.529842,24.0727355 178.873874,22.5522192 C177.660473,19.7484601 175.896678,15.4185688 174.683277,12.6176178 C174.442568,12.0588315 175.488457,14.1760417 176.247185,15.7850091 C177.784347,19.0408514 179.963401,23.9211051 181.431588,27.2148551 C182.405687,29.4008605 182.923705,30.4875453 183.928773,32.6033514 C184.435529,33.6745924 185.620777,35.4253623 186.303491,36.3772645 C187.321227,37.7938859 188.4375,39.1585598 189.641047,40.4067029 C190.329392,41.1213315 191.058559,41.8064764 191.810248,42.4466938 C192.538007,43.0644475 193.300957,43.6344656 194.059685,44.1974638"></path>
                        </g>
                        <path d="M120.88964,112.599638 C120.608108,112.599638 120.302646,112.574366 119.954955,112.522418 C118.99634,112.38202 118.516329,112.359556 118.025056,112.271105 C117.875845,112.237409 117.681588,112.205118 117.454955,112.095607 C117.52393,113.047509 117.587275,114.005027 117.626689,114.973777 C117.837838,114.969565 118.060248,114.968161 118.291104,114.968161 C118.597973,114.968161 118.920327,114.972373 119.262387,114.980797 C119.855011,114.996241 120.55884,115.013089 121.337275,115.036957 C121.587838,113.961504 121.758164,112.978714 121.753941,112.498551 C121.483671,112.56875 121.193694,112.599638 120.88964,112.599638 M165.432151,125.022101 L160.464527,132.320018 L157.687218,135.841214 L157.359234,136.169746 L153.547297,139.29923 C153.54589,139.51404 153.544482,139.726042 153.544482,139.92962 C153.609234,140.941893 153.758446,142.197056 153.761261,143.558922 C153.759854,144.040489 153.737331,144.545924 153.681025,145.063995 C153.431869,147.410054 152.612613,149.692935 150.80518,151.31173 C150.337838,151.730118 149.793074,152.120426 149.238457,152.416667 C147.573198,153.303986 145.765766,153.524411 143.900619,153.587591 C143.375563,153.604438 142.850507,153.607246 142.324043,153.605842 C141.996059,153.604438 140.605293,153.563723 140.605293,153.563723 C140.605293,153.563723 141.61036,151.460553 142.286036,147.682428 C142.36768,147.200861 142.501408,146.813361 142.574606,146.518524 C142.858953,145.502038 142.927928,144.099457 143.381194,142.435734 C143.509291,141.992074 143.721847,141.379937 143.730293,141.346241 C143.647241,141.231114 143.50366,141.040172 143.310811,140.779031 C142.766047,140.006839 142.525338,139.252899 142.357827,138.637953 C142.257883,138.249049 142.210023,137.975272 142.180462,137.843297 C141.951014,137.667799 141.362613,137.351902 140.560248,136.887183 C139.914133,136.485643 139.290541,136.151495 138.689471,135.911413 C137.584459,135.765399 136.264077,135.814538 134.718468,136.214674 C133.648649,136.595154 132.502815,137.110417 131.365428,137.712726 C129.244088,138.823279 127.146678,140.178125 125.403998,141.295697 C121.371059,143.863587 117.440878,147.209284 112.511261,149.511821 C108.837275,151.220471 105.081644,151.953351 101.407658,151.950543 C93.5557432,151.937908 86.138795,148.708741 79.5594032,144.854801 C74.0639077,141.62423 69.0315315,137.926132 63.9245495,134.525679 C53.8246059,127.762681 40.1618806,120.306114 28.2207207,120.358062 C27.5830518,120.358062 26.9496059,120.377717 26.3203829,120.419837 C21.1936937,120.74837 15.7615428,122.812228 12.4253941,126.351676 C10.9403153,127.89606 9.67483108,130.04837 9.2652027,131.632065 C8.91328829,132.93356 8.60923423,134.31087 8.41356982,135.606748 C8.26717342,136.506703 7.91525901,137.191848 7.45495495,137.794158 C7.21846847,138.094611 6.95242117,138.374004 6.58783784,138.633741 C6.22888514,138.875226 5.76576577,139.1476 5.02252252,139.206567 C5.01970721,139.206567 5.00844595,139.206567 4.98733108,139.207971 C4.98170045,139.207971 4.97747748,139.209375 4.9732545,139.209375 C4.94369369,139.209375 4.90287162,139.210779 4.84656532,139.212183 C4.26238739,139.227627 3.55433559,138.973505 3.10951577,138.577582 C2.4268018,137.973868 2.25929054,137.372962 2.14386261,136.943342 C2.04251126,136.496875 2.02421171,136.127627 2.02280405,135.761187 C2.02843468,134.661866 2.2339527,133.547101 2.44510135,132.508152 C2.65625,131.486051 2.89273649,130.572056 2.98845721,130.183152 C4.83952703,122.673234 8.22775901,117.404076 12.8392455,114.148234 C17.446509,110.889583 23.0363176,109.734103 29.0202703,109.735507 C30.5461712,109.735507 32.1002252,109.811322 33.6838401,109.944701 C37.4648086,110.269022 40.8488176,111.209692 44.2666104,112.40308 C49.2046734,114.131386 54.0202703,116.012726 58.8541667,117.618886 C62.6661036,118.885281 66.7384572,119.51567 70.8248874,119.51567 C80.6770833,119.521286 90.5546171,115.84144 97.1494932,108.900136 C99.1272523,106.808197 101.569538,104.021286 105.746059,95.6352808 C106.879223,93.3790761 107.953266,89.4226449 108.793637,85.9772645 C109.221565,84.2461504 109.601633,82.630163 109.956363,81.3286685 C110.135135,80.6744112 110.304054,80.1015851 110.49268,79.5877264 C110.586993,79.3293931 110.685529,79.0879076 110.815034,78.8281703 C110.952984,78.5712409 111.089527,78.2988678 111.451295,77.9254076 C112.008727,77.3750453 112.578829,76.8373188 113.320664,76.3711957 C114.059685,75.9050725 114.969032,75.5709239 115.922016,75.4515851 C118.240428,75.1623641 120.071791,75.1665761 121.555462,74.6148098 C124.839527,73.4663496 127.881475,70.9981431 131.653998,68.9581522 C133.559966,67.9444746 135.679899,67.0543478 138.063063,66.7103714 C138.679617,66.6233243 139.694538,66.4941576 140.817849,66.4927536 C141.58643,66.4955616 142.402872,66.5461051 143.268581,66.7791667 C144.0808,67.0094203 145.070383,67.4362319 145.795327,68.4639493 L145.79955,68.4597373 C145.79955,68.4597373 145.815034,68.4850091 145.837556,68.5201087 C145.84741,68.5355525 145.858671,68.5467844 145.868525,68.5622283 C145.874155,68.5706522 145.886824,68.5945199 145.902309,68.6225996 C146.221847,69.1322464 147.218468,70.7243659 147.60839,71.3561594 C147.974381,71.9486413 147.840653,72.3768569 147.76464,72.5355072 L149.149775,74.7060688 L145.920608,74.3312047 C145.209741,74.6134058 144.54955,74.6597373 144.066723,74.6597373 C143.571227,74.6569293 141.179617,74.6372736 140.792511,74.6681612 C140.944538,74.8141757 142.77027,76.8064312 142.915259,77.8664402 L144.536881,79.7716486 L140.819257,79.820788 C140.144989,79.9513587 139.553773,79.9387228 139.158221,79.9555707 C139.097691,79.9569746 137.567568,79.8867754 137.01295,79.8895833 C136.659628,79.8881793 136.355574,79.9148551 136.124718,79.9710145 C136.090935,79.9724185 135.661599,80.1310688 135.133727,80.3865942 C133.226351,81.2949728 129.528435,83.4318388 126.07545,85.8452899 C124.50732,86.9263587 122.978604,88.0972826 121.682151,89.220471 C121.257038,90.1091938 120.929054,90.9263134 120.634854,91.7743207 C120.129505,93.2288496 119.717061,94.8153533 119.121622,96.9367754 C118.10107,100.477627 116.979167,103.379665 116.998874,106.205888 C116.998874,106.531612 117.01295,106.857337 117.041104,107.180254 C117.069257,107.494746 117.09741,107.816259 117.125563,108.13356 C117.300113,107.935598 117.550676,107.666033 117.863176,107.382428 C118.378378,106.952808 118.993525,106.399638 119.959178,106.208696 C119.856419,106.118841 119.760698,106.027582 119.686092,105.936322 C119.206081,105.381748 119.083615,104.714855 119.089245,104.307699 C119.10473,103.685734 119.246903,103.393705 119.344032,103.143795 C119.655124,102.462862 119.938063,102.163813 119.990146,102.07817 C120.043637,102.014991 120.49268,101.457609 121.116273,100.838451 C121.432995,100.52817 121.786318,100.201042 122.224099,99.8893569 C122.687218,99.6057518 123.141892,99.195788 124.310248,99.1396286 C124.498874,99.1396286 124.691723,99.1592844 124.876126,99.197192 C125.533502,99.3418025 126.886261,99.6450634 128.161599,99.9960598 C128.804899,100.172962 129.421453,100.35548 129.97607,100.566078 C130.257601,100.675589 130.520833,100.783696 130.824887,100.952174 C130.978322,101.040625 131.144426,101.141712 131.355574,101.318614 C131.556869,101.50394 131.849662,101.751042 132.09741,102.349139 C132.231137,102.726812 132.233953,102.88125 132.250845,103.010417 C132.263514,103.136775 132.264921,103.218207 132.264921,103.28981 C132.259291,103.69135 132.219876,103.949683 132.1692,104.365263 C131.876408,106.5625 130.903716,111.925725 130.320946,115.758605 C131.368243,115.922871 132.398649,116.125045 133.384009,116.380571 C135.89527,117.041848 138.229167,118.214176 140.13232,119.303668 C142.010135,120.381929 143.536036,121.443342 144.013232,121.724139 C145.076014,122.379801 145.782658,123.185688 146.386543,123.824502 C146.60473,124.061775 146.797579,124.273777 146.942568,124.426812 C147.287444,124.182518 147.695664,123.983152 148.108108,123.832926 C148.113739,123.82731 148.102477,123.837138 148.108108,123.832926 L155.350507,120.735734 C155.350507,120.735734 157.084741,119.473551 158.589527,118.899321 C158.940034,118.770154 159.275056,118.681703 159.572072,118.656431 C159.581926,118.656431 159.586149,118.653623 159.596002,118.653623 C159.82545,118.688723 160.043637,118.749094 160.236486,118.844565 C160.767173,119.109918 161.304899,119.75856 161.304899,120.513904 C161.304899,120.876132 161.000845,121.196241 160.73902,121.415263 C160.525056,121.594973 160.097128,121.979665 159.821227,122.082156 C159.808559,122.086368 159.797297,122.091984 159.784628,122.094792 C159.784628,122.094792 159.817005,122.08356 159.821227,122.082156 C159.985923,122.033016 160.146396,121.974049 160.305462,121.912274 C160.617962,121.794339 160.924831,121.665172 161.242962,121.562681 C161.373874,121.521966 161.506194,121.485462 161.642736,121.458786 C162.269144,121.342255 162.911036,121.350679 163.540259,121.43913 C163.994932,122.02038 165.305462,123.713587 165.432151,124.051947 C165.633446,124.586866 165.432151,125.022101 165.432151,125.022101" fill="#000000"></path>
                        <path d="M136.936937,78.2019928 C136.431588,78.1893569 135.930462,78.2062047 135.463119,78.3185236 C134.073761,78.6498641 127.31982,82.4350091 122.217061,86.4054801 L122.913851,84.6476902 C123.845721,83.9134058 127.877252,80.7403986 130.297016,78.8899457 C131.092342,78.279212 131.765203,77.7836051 131.963682,77.6502264 C131.986205,77.6418025 132.008727,77.6333786 132.038288,77.6235507 C132.115709,77.595471 132.208615,77.5617754 132.31982,77.5182518 C132.54223,77.4326087 132.83643,77.3174819 133.178491,77.1812953 C133.86402,76.9089221 134.746622,76.5509058 135.619369,76.1971014 C136.875,75.6860507 138.110923,75.179212 138.704955,74.9349185 C138.971002,75.0303895 139.210304,75.1525362 139.401745,75.3111866 L139.408784,75.3083786 L139.428491,75.3322464 C139.534065,75.4235054 139.629786,75.5245924 139.702984,75.6397192 C139.731137,75.6860507 139.766329,75.7394022 139.800113,75.7899457 L141.179617,77.4859601 L136.390766,77.0816123 L140.235079,78.4771739 L136.936937,78.2019928 Z M161.18384,127.049457 C161.230293,127.048053 161.275338,127.045245 161.321791,127.041033 C161.275338,127.045245 161.230293,127.048053 161.18384,127.049457 L161.18384,127.049457 Z M161.365428,127.036821 C161.411881,127.031205 161.456926,127.025589 161.501971,127.018569 C161.456926,127.025589 161.411881,127.031205 161.365428,127.036821 L161.365428,127.036821 Z M160.387106,126.896422 C160.346284,126.876766 160.305462,126.850091 160.267455,126.824819 C160.305462,126.850091 160.346284,126.876766 160.387106,126.896422 L160.387106,126.896422 Z M160.567286,126.970833 C160.525056,126.956793 160.484234,126.938542 160.44482,126.921694 C160.485642,126.938542 160.525056,126.956793 160.567286,126.970833 L160.567286,126.970833 Z M160.753097,127.018569 C160.710867,127.010145 160.668637,126.998913 160.626408,126.986277 C160.668637,126.998913 160.710867,127.010145 160.753097,127.018569 L160.753097,127.018569 Z M160.943131,127.045245 C160.899493,127.041033 160.855856,127.034013 160.813626,127.028397 C160.855856,127.035417 160.899493,127.041033 160.943131,127.045245 L160.943131,127.045245 Z M160.215372,126.793931 C160.161881,126.75462 160.10839,126.711096 160.057714,126.660553 C160.10839,126.711096 160.161881,126.75462 160.215372,126.793931 L160.215372,126.793931 Z M161.133164,127.050861 C161.088119,127.052264 161.043074,127.049457 160.999437,127.048053 C161.043074,127.049457 161.088119,127.052264 161.133164,127.050861 L161.133164,127.050861 Z M162.119932,126.857111 C162.155124,126.844475 162.184685,126.831839 162.212838,126.820607 C162.184685,126.831839 162.153716,126.844475 162.119932,126.857111 L162.119932,126.857111 Z M162.000282,126.897826 C162.038288,126.88519 162.074887,126.872554 162.107264,126.861322 C162.074887,126.872554 162.038288,126.88519 162.000282,126.897826 L162.000282,126.897826 Z M161.862331,126.938542 C161.904561,126.92731 161.942568,126.916078 161.980574,126.903442 C161.943975,126.916078 161.903153,126.92731 161.862331,126.938542 L161.862331,126.938542 Z M162.218468,126.819203 C162.248029,126.807971 162.271959,126.796739 162.291667,126.788315 C162.271959,126.796739 162.246622,126.807971 162.218468,126.819203 L162.218468,126.819203 Z M161.707489,126.977853 C161.751126,126.968025 161.794764,126.958197 161.835586,126.946966 C161.794764,126.958197 161.751126,126.968025 161.707489,126.977853 L161.707489,126.977853 Z M161.542793,127.011549 C161.587838,127.003125 161.631475,126.994701 161.675113,126.986277 C161.631475,126.994701 161.587838,127.004529 161.542793,127.011549 L161.542793,127.011549 Z M124.459459,115.598551 C123.849944,115.369701 123.186937,115.241938 122.338119,115.187183 C122.338119,115.187183 122.954673,112.097011 122.729448,111.5649 C122.218468,110.349049 123.151745,110.4024 122.218468,110.349049 C121.283784,110.295697 122.314189,111.313587 120.332207,111.022962 C118.350225,110.733741 117.533784,110.862908 117.484516,110.381341 C117.436655,109.89837 117.639358,109.001223 117.639358,109.001223 C117.639358,109.001223 119.197635,106.996332 120.396959,107.267301 C121.596284,107.53827 125.641892,108.450861 125.840372,108.966123 C125.884009,109.077038 125.782658,109.84923 125.603885,111.003306 C125.344876,111.806386 124.923986,113.614719 124.459459,115.598551 L124.459459,115.598551 Z M123.893581,117.999366 C123.63598,119.105707 123.809122,118.371422 123.710586,118.730842 C123.202421,120.571467 122.726633,122.466848 122.819538,124.395924 C122.937782,126.89923 124.887387,128.47731 127.129786,128.953261 C127.585867,129.050136 129.130068,129.295833 129.082207,129.284601 C128.61205,129.169475 127.697072,128.866214 127.29589,128.723007 C126.445664,128.419746 125.692568,127.926947 125.084459,127.260054 C124.522804,126.645109 124.183559,125.867301 124.000563,125.061413 C123.728885,123.869429 123.795045,122.458424 123.949887,121.255208 C124.199043,119.331748 124.677646,117.41952 125.015484,115.507292 C125.221002,114.34058 125.453266,113.159828 125.731982,112.004348 C126.421734,109.663904 127.087556,106.792754 126.753941,105.999502 C126.233108,104.763995 127.181869,104.817346 126.233108,104.763995 C125.284347,104.709239 126.331644,105.743976 124.314471,105.449139 C124.001971,105.402808 123.720439,105.367708 123.462838,105.339629 C122.916667,105.3649 122.126971,105.279257 120.996622,105.02654 C119.617117,104.716259 122.716779,101.590987 123.424831,101.335462 C124.632601,100.903034 127.01295,101.651359 128.210867,102.017799 C130.505349,102.71558 130.277309,103.531295 130.164696,105.381748 C130.021115,107.73202 129.420045,109.919429 129.168074,112.244429 C128.958333,114.162274 128.392455,116.25702 128.258727,118.226812 C129.835304,118.412138 131.389358,118.663451 132.774493,119.027083 C137.160755,120.176947 141.556869,123.406114 142.825169,124.17269 C143.88795,124.814312 144.935248,126.009103 145.51661,126.442935 C145.377252,126.994701 145.350507,127.573143 145.395552,128.143161 C145.461712,128.989764 145.668637,129.837772 146.010698,130.61558 L146.007883,130.588904 C146.010698,130.607156 146.014921,130.616984 146.014921,130.616984 C145.989583,129.983786 146.005068,129.353397 146.058559,128.724411 C146.106419,128.161413 146.214809,127.608243 146.432995,127.090172 C146.468187,127.004529 146.510417,126.918886 146.554054,126.833243 C146.556869,126.834647 146.559685,126.836051 146.563908,126.837455 C146.672297,126.633877 146.790541,126.435915 146.932714,126.247781 C146.951014,126.226721 146.967905,126.204257 146.986205,126.183197 C147.063626,126.086322 147.149493,125.992255 147.238176,125.900996 C147.347973,125.790082 147.461993,125.683379 147.578829,125.582292 C149.306025,124.157246 153.537444,122.563723 156.418919,121.600589 C156.984797,121.2875 157.526745,120.999683 158.022241,120.74135 L158.022241,120.742754 C158.692286,120.327174 159.324324,120.029529 159.72973,119.859647 C159.72973,119.859647 159.733953,119.851223 160.123874,119.710824 C160.157658,119.699592 160.175957,119.692572 160.175957,119.692572 C160.322354,119.640625 160.423705,119.642029 160.503941,119.674321 C160.608108,119.774004 160.685529,119.869475 160.746059,119.960734 C160.772804,120.021105 160.800957,120.084284 160.831926,120.14606 C160.857264,120.198007 160.872748,120.244339 160.881194,120.287862 C160.886824,120.321558 160.892455,120.355254 160.891047,120.386141 C160.900901,120.723098 160.565878,121.138678 159.884572,121.524774 C159.477759,121.757835 158.962556,121.978261 158.374155,122.176223 C157.98705,122.306793 157.570383,122.42894 157.128378,122.541259 C156.05152,122.813632 154.956363,123.06635 154.113176,123.380842 C153.918919,123.455254 153.724662,123.533877 153.538851,123.627944 C153.272804,123.762726 152.98705,123.926993 152.804054,124.168478 C152.713964,124.289221 152.657658,124.425408 152.629505,124.568614 C152.595721,124.742708 152.602759,124.92663 152.63795,125.103533 C152.728041,125.562636 152.809685,126.013315 152.943412,126.463995 C152.999718,126.647917 153.057432,126.833243 153.134854,127.008741 C153.360079,127.519792 153.818975,127.780933 154.373592,127.778125 C155.485642,127.771105 156.131757,126.814991 156.566723,125.919248 C157.180462,124.661277 157.880068,123.76413 158.605011,123.119701 C158.603604,123.118297 158.603604,123.116893 158.603604,123.116893 C159.769144,122.077944 161.002252,121.7101 162.063626,121.627264 C162.497185,121.842074 162.742117,122.325045 162.708333,122.767301 C162.673142,123.227808 161.489302,124.748324 161.489302,124.840987 C161.489302,124.93365 161.842624,125.17654 161.842624,125.17654 L164.072354,124.480163 L164.073761,124.494203 L162.357827,126.758832 C162.357827,126.758832 162.335304,126.770063 162.293074,126.788315 C162.317005,126.777083 162.338119,126.768659 162.346565,126.764447 C160.008446,129.906567 155.923423,134.960915 155.923423,134.960915 L151.38232,138.730616 C151.38232,138.730616 151.227477,140.036322 151.22607,140.684964 C151.223255,142.858333 151.717342,144.951676 151.016329,147.08433 C150.640484,148.23279 149.840935,149.542708 148.802083,150.406159 C148.776745,150.431431 148.758446,150.458107 148.7317,150.481975 C147.309966,151.72731 143.524775,152.10077 143.524775,152.10077 C144.28491,151.27663 144.413007,148.099411 144.413007,148.099411 L144.429899,148.095199 C144.48902,147.585553 144.601633,147.075906 144.718468,146.584511 C144.980293,145.489402 145.239302,144.391486 145.565878,143.310417 C145.740428,142.734783 146.510417,141.298505 145.844595,140.804303 C145.192849,140.31712 144.808559,139.473324 144.608671,138.705344 C144.445383,138.081975 144.438345,137.489493 143.983671,136.993886 C143.391047,136.350861 142.511261,135.987228 141.777872,135.529529 C140.809403,134.924411 139.788851,134.382473 138.688063,134.062364 C138.123592,133.898098 137.528153,133.802627 136.939752,133.87423 C132.708333,134.382473 127.543637,137.789946 124.049831,140.057382 C119.828266,142.796558 115.947354,146.111368 111.366836,148.266486 C100.796734,153.243614 89.9042793,149.295607 80.4659347,143.703533 C75.0886824,140.516486 70.0788288,136.800136 64.8986486,133.318252 C54.066723,126.037183 39.2004505,117.743841 25.7080518,118.677491 C20.0760135,119.067799 14.111768,121.298732 10.1984797,125.458741 C8.45720721,127.310598 7.01998874,129.712817 6.44988739,131.838451 C6.07545045,133.231205 5.74887387,134.709601 5.53209459,136.137455 C5.40962838,136.950362 5.24493243,138.500362 4.05968468,138.396467 C1.97353604,138.212545 2.97719595,133.850362 3.15878378,132.640127 C5.08586712,119.858243 15.6911599,113.429393 27.3958333,112.768116 C27.4873311,112.763904 27.5774212,112.758288 27.6689189,112.75548 C27.8026464,112.74846 27.9377815,112.745652 28.0729167,112.740036 C32.1058559,112.654393 36.1345721,113.242663 40.0140766,114.320924 C48.0785473,116.564493 55.4884572,120.586911 63.7570383,122.246422 C68.5022523,123.199728 73.4037162,123.491757 78.1813063,122.580571 C80.9543919,122.051268 83.6233108,121.069882 86.1570946,119.838587 C86.6849662,119.583062 89.4918356,118.077989 92.1790541,116.217708 C94.5537725,114.697192 96.7511261,112.904303 98.6979167,110.837636 C99.3862613,110.107563 100.40259,108.992799 101.525901,107.630933 C102.792793,105.7524 108.08277,97.6275362 109.82545,90.4307065 L109.832489,90.4686141 C111.145833,85.3875906 112.370495,80.1212409 113.071509,79.4136322 C114.11036,78.369067 114.893018,77.7471014 116.216216,77.5659873 C118.303773,77.2809783 120.343468,77.3202899 122.359234,76.5888134 C126.15991,75.2058877 129.298986,72.5888587 132.822354,70.6864583 C134.600225,69.7275362 136.480856,68.9441123 138.490991,68.6492754 C139.786036,68.4597373 142.940597,68.0947011 143.93018,69.3400362 L143.951295,69.3316123 L145.371622,71.1511775 L140.737613,70.720154 L145.6067,72.5355072 L140.249155,72.0904438 C140.064752,72.1086957 139.883164,72.1339674 139.707207,72.176087 C139.120214,72.3178895 137.588682,73.0662138 135.626408,74.1823822 C135.498311,74.2343297 135.370214,74.2862772 135.239302,74.3396286 C133.626126,74.9966938 131.855293,75.7099185 131.40625,75.8713768 L131.409065,75.8755888 C131.121903,75.951404 131.140203,75.9822917 131.065597,76.0131793 C131.012106,76.045471 130.967061,76.0735507 130.916385,76.1086504 C130.815034,76.1760417 130.696791,76.2616848 130.551802,76.3669837 C130.261824,76.5775815 129.877534,76.8668025 129.424268,77.210779 C128.517736,77.9015399 127.34375,78.8113225 126.178209,79.7182971 C123.849944,81.5336504 121.559685,83.3391757 121.558277,83.3405797 L121.269707,83.7294837 L119.172297,89.025317 C118.17286,91.3362772 117.671734,93.390308 116.829955,96.392029 C115.755912,100.216486 114.306025,103.695562 114.643863,107.644973 C114.814189,109.642844 115.001408,111.695471 115.123874,113.760734 C115.278716,117.880027 115.403998,122.04846 114.864865,126.141078 C114.443975,129.343569 113.409347,132.579755 111.013514,134.866848 C107.985642,137.754846 102.932151,139.275362 98.803491,138.967889 C96.5005631,138.798007 94.2553491,138.222373 92.0073198,137.736594 C94.0357545,138.824683 96.2753378,139.34837 98.5472973,139.631975 C99.9887387,139.811685 101.499155,139.84538 102.94482,139.712002 C108.29955,139.214991 113.531813,136.449139 115.530687,131.226313 C117.162162,126.966621 117.152309,122.268886 116.980574,117.725589 C117.576014,117.697509 118.285473,117.686277 119.130068,117.707337 C119.838119,117.724185 120.689752,117.742437 121.634291,117.773324 C122.224099,117.797192 123.361486,117.881431 123.893581,117.999366 L123.893581,117.999366 Z" fill="#FECB00"></path>
                        <path d="M144.904279,151.223279 C145.305462,151.000045 145.708657,150.780322 146.098578,150.538836 C146.644749,150.203284 147.174127,149.753826 147.631658,149.305954 C149.516512,147.454097 149.771157,144.639668 150.19627,142.178481 C150.390526,141.045465 150.537894,139.899111 150.66036,138.756267 C150.640653,138.931765 150.663176,139.122623 150.663176,139.298121 C150.650507,141.475702 150.665991,143.661989 150.493806,145.835358 C150.4558,146.311309 150.301056,146.837369 150.126506,147.281042 C149.55359,148.742591 148.211106,150.027378 146.776703,150.635304 C146.468426,150.764471 146.151872,150.874852 145.830926,150.973131 C145.55221,151.05737 145.156926,151.082782 144.904955,151.223223 L144.904279,151.223279 Z M0.844594595,139.640399 C0.844594595,139.640399 -0.637668919,133.591327 1.65399775,126.91678 C3.94566441,120.242233 9.08375563,116.930933 9.08375563,116.930933 C9.08375563,116.930933 5.64710023,119.183207 2.71635698,126.537283 C-0.214386261,133.894167 0.844594595,139.640399 0.844594595,139.640399 L0.844594595,139.640399 Z M152.561937,134.858143 C152.013035,134.891558 151.442145,134.802405 150.868384,134.597086 L150.808981,134.548789 C152.503801,135.124423 153.582489,134.083986 154.3567,132.809111 C153.849944,132.793667 153.441723,132.382032 153.441723,131.872385 C153.441723,131.352911 153.864457,130.93128 154.38529,130.93128 C154.737204,130.93128 155.040217,131.124496 155.203505,131.409505 C155.439992,131.102033 155.721157,130.833619 156.074479,130.683392 C157.133038,130.229905 157.913443,130.717088 157.761416,131.84168 C157.796608,131.587559 157.494932,131.319566 157.275338,131.284466 C156.996622,131.242347 156.644186,131.37713 156.417553,131.530164 C155.705279,132.010327 155.596974,133.045205 155.029688,133.655938 C154.330265,134.408826 153.47676,134.802419 152.561923,134.858101 L152.561937,134.858143 Z M196.296453,42.0940127 L171.009291,40.5781295 C170.007038,40.5177582 168.951436,40.2217699 167.846425,39.6896594 C166.741413,39.1603569 165.667089,38.474159 164.619792,37.6274855 C163.57531,36.7864982 162.601351,35.8073587 161.703266,34.7010181 C161.103604,33.9583098 160.581546,33.1838714 160.124015,32.3821957 C159.718609,31.5945598 159.199718,30.2825353 159.43339,29.0301803 C159.592455,28.186385 160.506898,27.3896232 161.285304,27.1523496 C161.953941,26.9473678 162.646073,26.9887011 163.333024,27.0448043 C164.514048,27.1416793 165.705771,27.1776214 166.889611,27.2422468 C168.460557,27.325082 170.029955,27.4130838 171.600901,27.4945149 C173.000113,27.5661182 174.399043,27.6480829 175.799662,27.7182822 C176.480968,27.7533818 177.162444,27.80912 177.84513,27.8301798 C177.847945,27.8301798 177.885529,27.8329878 177.886937,27.8273718 C177.886937,27.8273718 178.803604,27.7651753 178.19268,26.4650707 C178.142005,26.3583678 178.110755,26.2708854 178.082601,26.1908582 C178.07134,26.1655865 178.060079,26.1391916 178.04741,26.1097079 L177.499733,24.9645752 C176.353899,22.7701458 173.783235,18.919856 169.748888,18.6839864 C169.612345,18.6755625 169.486275,18.6661558 169.359586,18.6577319 L154.562289,17.8943148 C154.244158,17.2835811 153.850901,16.6913659 153.387767,16.1283818 C152.926084,15.5639796 152.430222,15.0708297 151.900999,14.6454923 C151.374535,14.2228786 150.837176,13.8859502 150.290921,13.6276028 C149.744764,13.3734814 149.216709,13.2316789 148.702942,13.2064072 L157.371016,13.6561318 C157.599057,13.63788 157.838288,13.6340892 158.090259,13.6448999 L172.390653,14.3359135 C173.383052,14.385053 174.420636,14.6677876 175.507348,15.1914742 C176.591244,15.7067369 177.659375,16.3914325 178.701042,17.2338519 C179.744116,18.0762432 180.717089,19.0570675 181.610952,20.169024 C182.506236,21.2851925 183.258896,22.4707178 183.86982,23.7272849 L183.900648,23.7300928 L187.516639,31.248014 C187.550422,31.3196173 187.575479,31.3749343 187.578294,31.3861662 C187.696537,31.7441825 187.725985,31.9847976 187.523395,32.3470258 C187.438936,32.4972523 187.316751,32.5869248 187.160501,32.6585281 C187.091526,32.6908197 186.890231,32.7068252 186.773395,32.7068252 C186.773395,32.7068252 186.698086,32.7040172 186.685417,32.7026132 L167.967793,31.6518143 C167.92134,31.6529375 167.876154,31.6546223 167.822635,31.6546223 C166.966779,31.6237346 167.091174,32.2235032 167.167188,32.4509488 C167.357221,32.7542097 167.566962,33.0515879 167.800633,33.3394049 C168.252492,33.8995951 168.737261,34.3917903 169.256715,34.8158361 C169.773325,35.2370317 170.307531,35.5803904 170.857925,35.8359158 C171.408319,36.0942491 171.929856,36.2364026 172.423944,36.2658863 L190.479969,37.3539751 C190.793891,37.9689207 191.181602,38.5636771 191.639091,39.1308591 C192.096579,39.6994733 192.586275,40.1951784 193.112767,40.6248401 C193.635008,41.0516517 194.170608,41.3969339 194.713978,41.6580752 C195.258742,41.9178125 195.783798,42.0637287 196.297593,42.0946445 L196.296453,42.0940127 Z M162.297297,40.0559873 L137.00732,38.5379982 C136.00366,38.4762228 134.957207,38.191298 133.86205,37.6802473 C132.765484,37.1734085 131.704814,36.495452 130.677224,35.6488207 C129.653857,34.8064293 128.697072,33.8388025 127.820101,32.7465018 C126.938908,31.6542011 126.213119,30.4995634 125.63598,29.2738841 L121.516329,20.4704737 C120.943412,19.2490063 120.597494,18.1154284 120.469398,17.0680553 C120.348339,16.024894 120.426886,15.117077 120.711332,14.3631368 C120.991456,13.6077926 121.453083,13.0139909 122.099198,12.5928514 C122.743905,12.1660399 123.560628,11.9791273 124.551619,12.0268628 L138.828083,12.71351 C139.817666,12.7640534 140.850465,13.0442328 141.931546,13.5580915 C143.005588,14.0663342 144.061191,14.7421707 145.094412,15.5719683 C146.123409,16.4031277 147.08315,17.3682274 147.971382,18.4633361 C148.855391,19.5612527 149.593567,20.7269819 150.186191,21.9667011 L156.549226,35.3813614 L156.577801,35.3841694 C156.893117,35.9471676 157.275816,36.4988356 157.734713,37.0491558 C158.192202,37.5953062 158.680124,38.0823207 159.199521,38.5189882 C159.717539,38.9514158 160.248226,39.3109203 160.783136,39.5917174 C161.319454,39.8739185 161.82058,40.0287079 162.296368,40.0567876 L162.297297,40.0559873 Z M128.344595,38.017962 L103.057432,36.4999728 C102.052365,36.4396014 101.008305,36.1572178 99.9187782,35.653187 C98.8320664,35.1519642 97.7840653,34.4864751 96.7691441,33.6525077 C95.7598536,32.8255602 94.8196791,31.8702885 93.9581926,30.7962396 C93.0952984,29.7193827 92.3859797,28.5829968 91.8313626,27.3783773 L87.8547297,18.7110131 C87.3015203,17.5077976 86.9741554,16.3924715 86.8671734,15.3633501 C86.7630068,14.3356327 86.8587275,13.4464887 87.1509009,12.7023764 C87.446509,11.958264 87.9193975,11.3747255 88.573902,10.9605919 C89.2256475,10.5436082 90.0454673,10.3564289 91.0350507,10.4055684 L105.307292,11.0944198 C106.29969,11.1421553 107.329251,11.4189932 108.401886,11.925832 C109.467483,12.4256508 110.513373,13.0926282 111.533925,13.9112079 C112.550253,14.7269235 113.496059,15.679668 114.364583,16.7565249 C115.234516,17.8404017 115.956503,18.9894235 116.526605,20.2094869 L122.669764,33.4156553 L122.70045,33.4156553 C123.004519,33.9674216 123.379744,34.5124348 123.828787,35.0543872 C124.277829,35.5935177 124.757841,36.0748179 125.271636,36.5044235 C125.784023,36.9284271 126.30556,37.2844357 126.837655,37.5596168 C127.366934,37.837606 127.869904,37.9900226 128.344271,38.0181024 L128.344595,38.017962 Z M94.745214,36.0480299 L61.6920045,34.0649004 C60.3842905,33.9862772 59.0188626,33.6155408 57.6097973,32.9570716 C56.200732,32.2971984 54.8474099,31.4413288 53.5495495,30.3925516 C52.2530968,29.3451784 51.0574324,28.132837 49.9622748,26.7597391 C48.8657095,25.3880453 47.9717061,23.9315507 47.2833615,22.3941866 L37.4847973,0.281414855 L46.7643581,0.696025815 L51.7176239,11.7897577 L63.9092061,12.3974167 C64.8734516,12.4451522 65.5996622,12.174183 66.0867117,11.590125 C66.5737613,11.006067 66.7651182,10.2138682 66.6651745,9.22974457 L65.2861064,1.52537409 L65.8755631,1.55162862 L65.8447354,1.51877536 L79.7387387,2.1374135 C78.7336712,2.09388995 77.902027,2.27711005 77.2488739,2.68144384 C76.5957207,3.08438768 76.1293497,3.67046739 75.8478181,4.43417935 C75.5634713,5.19794746 75.4666104,6.08217754 75.5552928,7.0930471 C75.5566441,7.1127029 75.5560248,7.1317971 75.5581081,7.15004891 L76.2443412,10.9057101 C76.5075732,12.3518152 76.4899634,13.6353388 76.1915541,14.7557192 C77.9440878,15.8044964 79.5883727,17.1715571 81.1227196,18.8689755 C82.6598818,20.56499 83.8962275,22.4304656 84.8265484,24.4564167 L87.507714,30.2654067 C87.8455518,30.9856793 88.2687359,31.6824493 88.7966075,32.3451304 C89.3596706,33.0527391 89.9699747,33.6718967 90.6288148,34.2054112 C91.2875985,34.7403297 91.9728604,35.1689805 92.6808981,35.4975131 C93.3903575,35.8260457 94.0789696,36.0074126 94.7462134,36.0481282 L94.745214,36.0480299 Z M149.338401,34.9621454 L143.021537,21.5935358 C142.723114,20.988418 142.347002,20.4070697 141.906405,19.8538573 C141.461585,19.302091 140.984122,18.8179828 140.474535,18.4038211 C139.964963,17.9882414 139.436472,17.6554126 138.893173,17.4012912 C138.348409,17.1513818 137.834797,17.0163465 137.349113,16.9910747 L130.196523,16.6312894 C129.692582,16.6060177 129.273986,16.6932052 128.951633,16.8967269 C128.626464,17.1059207 128.400521,17.4003225 128.265386,17.7808025 C128.127435,18.1598786 128.097452,18.6167917 128.166427,19.1474982 C128.235403,19.6753967 128.409614,20.2437441 128.685515,20.8432319 L132.835853,29.6773895 C133.114583,30.2782953 133.477393,30.8600788 133.91799,31.4104692 C134.359994,31.9608315 134.838246,32.4528302 135.352111,32.8824076 C135.868722,33.3120272 136.395538,33.6513564 136.944454,33.9068818 C137.492033,34.1595992 138.022114,34.3051784 138.530321,34.3346621 L149.338457,34.9620752 L149.338401,34.9621454 Z M115.460304,32.9965657 L109.358953,19.8342015 C109.067568,19.2389117 108.704561,18.6642464 108.27241,18.120918 C107.837444,17.5775897 107.366498,17.0999538 106.8625,16.692784 C106.359966,16.2814162 105.839217,15.9555091 105.298733,15.7055996 C104.758193,15.4599022 104.24413,15.3250494 103.761289,15.2997776 L96.6064471,14.9421966 C96.0996903,14.9155208 95.6837275,14.99976 95.3571509,15.2032536 C95.027759,15.4082355 94.7962838,15.6985095 94.655518,16.0719697 C94.5119369,16.4454298 94.470411,16.8936522 94.532348,17.4145308 C94.5914696,17.9354094 94.7581926,18.4950661 95.0228322,19.0861159 L99.0302928,27.7821214 C99.2963401,28.3746033 99.6480715,28.9439194 100.08163,29.4844538 C100.515189,30.0292002 100.988345,30.5133084 101.493651,30.93449 C102.001816,31.3584937 102.529322,31.6909013 103.068398,31.9436187 C103.613162,32.1935281 104.141033,32.3367346 104.652013,32.3648143 L115.460149,32.9966078 L115.460304,32.9965657 Z M78.0475788,29.5479561 L75.4390484,23.9408591 C75.0983953,23.177091 74.6511965,22.4419642 74.0951717,21.7427794 C73.539147,21.0435947 72.9353604,20.4281436 72.2850648,19.9044008 C71.6361346,19.3765023 70.95183,18.9521336 70.2395974,18.6320249 C69.525915,18.3133202 68.8493525,18.1356318 68.2117258,18.1033401 L54.1923001,17.368438 L56.668933,22.9098284 C57.0278857,23.6693845 57.4830096,24.3953854 58.0348114,25.0903582 C58.5852055,25.7853311 59.1886402,26.3992378 59.8361909,26.9243845 C60.4865287,27.4508791 61.1616836,27.8722432 61.8640625,28.1923519 C62.5678913,28.5166726 63.2389077,28.6983062 63.8765907,28.7320018 L78.0474803,29.5480684 L78.0475788,29.5479561 Z" fill="#231F20"></path>
                        <path d="M156.545608,126.513134 C156.545608,126.513134 155.161881,129.61173 153.229167,128.320063 C153.229167,128.320063 154.907095,130.383922 156.545608,126.513134" fill="#231F20"></path>
                        <path d="M102.519707,151.279438 C98.819116,151.266803 94.6380912,150.404306 89.8530405,148.293723 C89.8530405,148.293723 104.962838,153.009991 114.920608,146.056051 C120.611768,142.079964 132.523367,129.313524 141.373311,135.289167 C141.373311,135.289167 137.53308,132.81731 129.31799,137.127545 C122.814189,140.539932 115.736205,151.324647 102.519003,151.279719 L102.519707,151.279438 Z M4.03153153,138.450521 C3.93764077,138.439289 3.88020833,138.419774 3.88196791,138.417668 C3.40054899,138.280077 2.92554899,137.771918 2.86361205,137.173821 L2.89655124,137.202322 C3.29491836,137.69512 3.82260698,137.746015 4.05346284,137.316466 C4.29980293,136.857362 4.34617117,136.282346 4.45596847,135.769835 C4.5911036,135.146466 4.7579955,134.530635 4.95084459,133.922752 C5.82640766,131.16392 7.11835586,128.437942 8.84836712,126.10873 C9.76615991,124.873223 11.0048986,123.718304 12.1563626,122.701819 C13.2008446,121.7794 14.3397804,120.979831 15.5742962,120.332593 C17.3296453,119.412983 19.2439189,118.724188 21.1498874,118.189269 C21.5003941,118.09099 21.8463401,118.047902 22.1968468,117.972087 C22.1968468,117.972087 28.5629786,116.713063 40.761036,120.297367 C53.6256194,124.0783 66.3142455,134.38917 62.4966779,131.753047 C58.680518,129.116362 49.3636543,124.336072 49.3636543,124.336072 C49.3636543,124.336072 45.2887669,122.421317 42.7211993,121.51715 C40.1522241,120.612983 29.1513795,116.526262 18.861402,120.067114 C8.49681869,123.636045 6.5745214,131.173341 6.2254223,132.720533 C5.87773086,134.260705 5.51279561,136.866221 5.26645552,137.520479 C4.92439471,138.428155 4.3142455,138.483121 4.03255912,138.450619 L4.03153153,138.450521 Z M154.693131,127.220883 C154.321509,127.220883 153.919721,126.768533 153.604406,126.213959 C153.635374,126.159203 153.673381,126.095041 153.729828,126.012136 C153.89734,125.767842 154.18011,125.418784 154.640414,125.007416 C155.351281,124.368602 156.488105,123.579843 158.267385,122.804843 C157.504434,123.489988 156.775831,124.432203 156.153646,125.722466 C155.589175,126.891986 155.076436,127.22838 154.737261,127.218553 C154.723184,127.218553 154.707278,127.221361 154.693201,127.221361 L154.693131,127.220883 Z M153.417441,125.851997 C153.258376,125.510829 153.135656,125.158246 153.076534,124.864813 C153.066681,124.828309 153.063865,124.79321 153.063865,124.759514 C153.034305,124.478717 153.468117,124.117626 154.284558,123.822789 C154.981349,123.561648 155.896467,123.335522 156.83819,123.101056 C154.726703,124.218629 153.795256,125.291835 153.418004,125.852025 L153.417441,125.851997 Z M75.7414837,123.72187 C71.663781,123.838261 67.4279983,123.168181 63.791737,122.322279 C69.585656,123.47074 77.0325873,123.905694 83.4567145,120.964359 C95.8497325,115.290853 100.500633,108.82213 100.500633,108.82213 C100.500633,108.82213 93.8369229,118.610156 82.7486627,122.532891 C80.5780546,123.300506 78.1877111,123.652092 75.7412021,123.721885 L75.7414837,123.72187 Z" fill="#FFFFFF"></path>
                    </g>
                </g>
            </g>
        </g>
    </g>
</svg>