<?xml version="1.0" encoding="UTF-8" standalone="no"?>
<svg width="250px" height="250px" viewBox="0 0 250 250" version="1.1" xmlns="http://www.w3.org/2000/svg" xmlns:xlink="http://www.w3.org/1999/xlink">
    <!-- Generator: Sketch 50.2 (55047) - http://www.bohemiancoding.com/sketch -->
    <title>TOLEDO</title>
    <desc>Created with Sketch.</desc>
    <defs></defs>
    <g id="TOLEDO" stroke="none" stroke-width="1" fill="none" fill-rule="evenodd">
        <g id="Toledo-2c-(1)" transform="translate(0.000000, 52.000000)">
            <path d="M143.621399,36.6726316 L140.277778,46.9884211 C140.277778,46.9884211 144.650206,46.7305263 157.76749,41.5726316 C170.884774,36.4147368 183.487654,28.1621053 186.831276,25.8410526 C190.174897,23.52 195.833333,18.3621053 195.833333,18.3621053 L195.31893,10.6252632 C195.31893,10.6252632 193.004115,12.9463158 185.030864,17.0726316 C177.057613,21.1989474 168.055556,27.3884211 168.055556,27.3884211 L155.967078,33.32 L143.621399,36.6726316 Z" id="Shape" stroke="#FFCE00" stroke-width="1.02880658" fill="#FFCE00" fill-rule="nonzero" stroke-linejoin="bevel"></path>
            <path d="M70.31893,31.4115789 C70.31893,31.4115789 76.3374486,28.0589474 77.7777778,27.5431579 C79.218107,27.0273684 87.7057613,23.4168421 88.9917695,23.4168421 C90.2777778,23.4168421 97.7366255,20.1673684 99.7942387,20.1673684 C101.851852,20.1673684 105.452675,18.1042105 107.510288,18.62 C109.567901,19.1357895 107.76749,20.58 107.76749,20.58 C107.76749,20.58 100.565844,23.1589474 99.0226337,23.6747368 C97.4794239,24.1905263 90.5349794,27.8010526 90.5349794,27.8010526 L85.8024691,32.1852632 L82.5617284,34.9189474 C82.5617284,34.9189474 79.4753086,33.6294737 77.4176955,33.6294737 C75.308642,33.5778947 70.31893,31.4115789 70.31893,31.4115789 Z" id="Shape" stroke="#FFCE00" stroke-width="1.02880658" fill="#FFCE00" fill-rule="nonzero" stroke-linejoin="bevel"></path>
            <polygon id="Shape" fill="#0D2240" fill-rule="nonzero" points="91.8209877 41.5726316 81.9958848 54.1063158 0 82.2168421"></polygon>
            <path d="M72.8909465,31.2568421 C74.8971193,31.36 76.0288066,31.5147368 77.9320988,32.0305263 C79.4753086,32.4431579 80.3497942,32.7526316 81.7901235,33.4231579 C84.6707819,30.3284211 85.7510288,29.0389474 90.0205761,26.4084211 C94.9588477,23.3652632 99.6399177,21.4568421 105.812757,19.6515789 C98.3024691,20.8378947 92.7983539,22.5915789 84.8765432,25.6863158 C80.0925926,27.5947368 77.4691358,28.8326316 72.8909465,31.2568421 Z M146.553498,39.7157895 C145.524691,41.2115789 144.393004,42.6557895 142.901235,44.4094737 C153.858025,40.4894737 159.927984,37.7042105 170.113169,32.0821053 C178.652263,27.3884211 183.333333,24.3968421 191.152263,18.62 L192.078189,15.2157895 C184.104938,20.8378947 179.423868,23.8294737 170.833333,28.4715789 C161.00823,33.7842105 156.944444,35.7442105 146.553498,39.7157895 Z M150.102881,33.0105263 C158.796296,29.5031579 163.374486,27.1821053 171.553498,22.54 C180.144033,17.64 184.825103,14.4936842 192.644033,8.40736842 C172.067901,8.56210526 160.030864,10.8831579 140.843621,18.3621053 C124.434156,24.7578947 115.483539,30.0189474 101.748971,41.1084211 L99.8971193,38.5294737 C105.041152,33.3715789 108.230453,30.6894737 114.146091,26.4084211 C119.598765,22.4368421 122.839506,20.4252632 128.755144,17.2789474 C118.106996,19.2389474 113.734568,20.1673684 104.218107,23.4684211 C97.1707819,25.8926316 85.6481481,33.0105263 84.6193416,38.2715789 C80.7613169,36.4663158 78.4465021,35.6410526 74.2798354,34.6610526 C69.9074074,33.6294737 67.3353909,33.2684211 62.808642,33.1652632 C75.2057613,26.8210526 82.6131687,23.9326316 95.9876543,20.1157895 C111.625514,15.68 120.884774,14.1842105 137.139918,13.3589474 C149.897119,7.47894737 157.716049,5.00315789 171.553498,2.68210526 C188.323045,-0.154736842 198.353909,-0.206315789 215.123457,2.37263158 C203.960905,15.4221053 196.347737,22.0242105 181.893004,31.2052632 C164.969136,41.9336842 153.960905,46.5242105 134.36214,50.8052632 C121.759259,60.5536842 114.609053,65.7631579 99.382716,73.7063158 C93.0555556,77.0073684 88.117284,79.38 81.7386831,82.0621053 C81.7386831,82.0621053 81.8415638,80.7726316 85.8024691,78.5031579 C94.2901235,74.1705263 101.697531,70.2505263 110.545267,63.3905263 C119.855967,56.2210526 123.251029,52.4557895 130.401235,44.5642105 C122.633745,49.0515789 118.209877,51.4242105 110.236626,55.4989474 C102.314815,59.5221053 97.7880658,61.74 89.6604938,65.3505263 C94.5987654,58.6452632 101.234568,46.5757895 101.234568,46.5757895 C111.265432,42.6557895 116.975309,40.6442105 126.903292,36.5694737 L154.063786,25.5315789 C152.880658,28.5747368 151.388889,30.6378947 150.102881,33.0105263 Z" id="Shape" fill="#0D2240"></path>
            <g id="Group" transform="translate(10.802469, 54.673684)">
                <polygon id="Shape" fill="#FFCE00" fill-rule="nonzero" points="32.5617284 23.4684211 34.5164609 86.2915789 15.9465021 91.6042105 13.9403292 25.0673684 0.977366255 28.7810526 0.514403292 14.2357895 44.9588477 1.54736842 45.4218107 16.0926316 32.4588477 19.8063158 25.9773663 21.6115789"></polygon>
                <polygon id="Shape" fill="#0D2240" fill-rule="nonzero" points="32.5617284 23.4684211 32.0473251 23.4684211 34.0020576 85.9305263 16.4609053 90.9336842 14.4032922 24.3968421 1.44032922 28.1105263 1.02880658 14.5968421 44.4444444 2.21789474 44.9074074 15.68 32.3045267 19.2905263 24.1255144 21.6115789 32.4074074 23.9842105 32.5617284 23.4684211 32.0473251 23.4684211 32.5617284 23.4684211 32.7160494 22.9526316 27.8806584 21.6115789 32.6131687 20.2705263 45.936214 16.4536842 45.473251 0.825263158 0 13.8231579 0.462962963 29.4515789 13.4259259 25.7894737 15.4835391 92.2747368 35.0308642 86.7042105 33.0761317 23.0557895 32.7160494 22.9526316"></polygon>
                <polygon id="Shape" fill="#FFCE00" fill-rule="nonzero" points="97.1707819 55.3442105 90.5349794 59.9863158 96.9650206 59.0578947 110.493827 57.4073684 109.825103 69.6831579 80.7613169 73.5515789 84.2078189 6.39578947 99.7427984 3.66210526"></polygon>
                <polygon id="Shape" fill="#0D2240" fill-rule="nonzero" points="97.1707819 55.3442105 96.8621399 54.9315789 90.2263374 59.5221053 90.5864198 60.5021053 97.0164609 59.5736842 109.927984 58.0263158 109.36214 69.2189474 81.2757202 72.9326316 84.6707819 6.80842105 99.1769547 4.28105263 96.6563786 55.3442105 97.1707819 55.3442105 96.8621399 54.9315789 97.1707819 55.3442105 97.6851852 55.3957895 100.257202 3.71368421 99.6399177 3.19789474 84.1049383 5.88 83.6934156 6.34421053 80.2469136 73.5 80.8127572 74.0673684 109.876543 70.1989474 110.339506 69.6831579 111.00823 57.4589474 110.390947 56.8915789 96.9135802 58.5421053 96.9135802 58.5421053 92.5925926 59.1610526 97.4794239 55.8084211 97.6851852 55.3957895"></polygon>
                <polygon id="Shape" fill="#FFCE00" fill-rule="nonzero" points="133.590535 17.0726316 127.726337 13.8231579 134.053498 13.4621053 148.148148 12.6368421 149.742798 0.567368421 120.31893 2.37263158 111.368313 69.3736842 141.872428 67.5684211 143.518519 55.4989474 128.292181 56.4273684 130.504115 39.6642105 143.621399 38.8905263 145.164609 27.3884211 132.047325 28.2136842"></polygon>
                <polygon id="Shape" fill="#0D2240" fill-rule="nonzero" points="133.590535 17.0726316 133.847737 16.6084211 129.526749 14.2357895 134.104938 13.9778947 148.148148 13.1526316 148.662551 12.6884211 150.257202 0.670526316 149.742798 0.0515789474 120.26749 1.85684211 119.804527 2.26947368 110.853909 69.3221053 111.368313 69.8894737 141.923868 68.0842105 142.386831 67.62 144.032922 55.6021053 143.467078 54.9831579 128.858025 55.86 130.967078 40.18 143.67284 39.4063158 144.135802 38.9421053 145.679012 27.4915789 145.113169 26.8726316 132.664609 27.6463158 134.104938 17.1242105 133.847737 16.6084211 133.590535 17.0726316 133.076132 16.9694737 131.532922 28.1105263 132.098765 28.7294737 144.547325 27.9557895 143.158436 38.3747368 130.504115 39.1484211 129.989712 39.6126316 127.777778 56.3757895 128.292181 56.9431579 142.901235 56.0663158 141.460905 67.0526316 111.934156 68.8578947 120.781893 2.83684211 149.176955 1.13473684 147.685185 12.1210526 134.053498 12.9463158 127.726337 13.3073684 127.469136 14.2873684 133.333333 17.5368421 133.590535 17.0726316 133.076132 16.9694737"></polygon>
                <path d="M222.530864,5.77684211 C209.876543,4.22947368 202.109053,6.18947368 198.765432,16.9178947 L186.265432,57.2010526 C182.921811,67.9294737 188.940329,71.6431579 201.59465,73.1905263 C214.248971,74.7378947 222.016461,72.7778947 225.360082,62.0494737 L237.860082,21.7663158 C241.203704,10.9863158 235.133745,7.32421053 222.530864,5.77684211 Z M221.965021,20.6315789 L209.979424,59.2642105 C209.207819,61.74 207.921811,62.2042105 205.092593,61.8947368 C202.263374,61.5336842 201.388889,60.76 202.160494,58.3357895 L213.99177,20.1157895 L208.950617,15.8347368 L218.981481,17.0726316 C221.8107,17.4336842 222.736626,18.2073684 221.965021,20.6315789 Z" id="Shape" fill="#FFCE00" fill-rule="nonzero"></path>
                <path d="M222.530864,5.77684211 L222.582305,5.26105263 C220.113169,4.95157895 217.849794,4.79684211 215.6893,4.79684211 C211.316872,4.79684211 207.613169,5.51894737 204.68107,7.42736842 C201.748971,9.33578947 199.588477,12.3789474 198.251029,16.7631579 L185.751029,57.0463158 C185.133745,59.0578947 184.825103,60.8115789 184.825103,62.4105263 C184.825103,64.1642105 185.236626,65.7115789 185.95679,67.0526316 C187.088477,69.0126316 189.09465,70.4568421 191.666667,71.4884211 C194.290123,72.52 197.582305,73.1905263 201.440329,73.7063158 C203.909465,74.0157895 206.17284,74.1705263 208.333333,74.1705263 C212.705761,74.1705263 216.409465,73.4484211 219.341564,71.54 C222.273663,69.6315789 224.434156,66.5884211 225.771605,62.2042105 L238.271605,21.9210526 C238.888889,19.9094737 239.197531,18.1557895 239.197531,16.5568421 C239.197531,14.8031579 238.786008,13.2557895 238.065844,11.9147368 C236.934156,9.95473684 234.927984,8.51052632 232.355967,7.47894737 C229.73251,6.44736842 226.440329,5.77684211 222.582305,5.26105263 L222.530864,5.77684211 L222.479424,6.29263158 C227.623457,6.91157895 231.584362,7.94315789 234.259259,9.54210526 C235.596708,10.3673684 236.574074,11.2957895 237.242798,12.4305263 C237.911523,13.5652632 238.271605,14.9063158 238.271605,16.5568421 C238.271605,18.0010526 237.962963,19.7031579 237.397119,21.6115789 L224.845679,61.8947368 C223.50823,66.1757895 221.502058,68.9094737 218.82716,70.6631579 C216.152263,72.4168421 212.654321,73.1389474 208.384774,73.1389474 C206.32716,73.1389474 204.063786,72.9842105 201.646091,72.6747368 C196.502058,72.0557895 192.541152,71.0242105 189.866255,69.4252632 C188.528807,68.6 187.55144,67.6715789 186.882716,66.5368421 C186.213992,65.4021053 185.853909,64.0610526 185.853909,62.4105263 C185.853909,60.9663158 186.162551,59.2642105 186.728395,57.3557895 L199.228395,17.0726316 C200.565844,12.7915789 202.572016,10.0578947 205.246914,8.30421053 C207.921811,6.55052632 211.419753,5.82842105 215.6893,5.82842105 C217.746914,5.82842105 220.010288,5.98315789 222.427984,6.29263158 L222.530864,5.77684211 Z M221.965021,20.6315789 L221.450617,20.4768421 L209.465021,59.1094737 C209.3107,59.5736842 209.156379,59.9863158 208.950617,60.2442105 C208.693416,60.7084211 208.384774,60.9663158 207.973251,61.1726316 C207.613169,61.3789474 207.098765,61.4305263 206.430041,61.4305263 C206.018519,61.4305263 205.606996,61.3789474 205.092593,61.3273684 C204.012346,61.2242105 203.292181,61.0178947 202.880658,60.7084211 C202.674897,60.5536842 202.572016,60.4505263 202.469136,60.2957895 C202.366255,60.1410526 202.314815,59.9347368 202.314815,59.6768421 C202.314815,59.3673684 202.366255,58.9547368 202.572016,58.3873684 L214.454733,20.1673684 L214.300412,19.6 L210.596708,16.4536842 L218.930041,17.4852632 C220.010288,17.5884211 220.730453,17.7947368 221.141975,18.0526316 C221.347737,18.2073684 221.450617,18.3105263 221.553498,18.4652632 C221.656379,18.62 221.707819,18.8263158 221.707819,19.0842105 C221.707819,19.3936842 221.656379,19.8063158 221.450617,20.3736842 L221.965021,20.6315789 L222.479424,20.7863158 C222.685185,20.2189474 222.788066,19.7031579 222.788066,19.1873684 C222.788066,18.7747368 222.685185,18.4136842 222.530864,18.0526316 C222.376543,17.7947368 222.222222,17.5884211 222.016461,17.4336842 C221.707819,17.1757895 221.296296,16.9694737 220.781893,16.8663158 C220.31893,16.7115789 219.753086,16.6084211 219.135802,16.5568421 L209.104938,15.3189474 L208.693416,16.2473684 L213.477366,20.3221053 L201.646091,58.1810526 C201.440329,58.7484211 201.337449,59.2642105 201.337449,59.78 C201.337449,60.1926316 201.440329,60.5536842 201.59465,60.9147368 C201.748971,61.1726316 201.903292,61.3789474 202.109053,61.5336842 C202.417695,61.7915789 202.829218,61.9978947 203.343621,62.1010526 C203.806584,62.2557895 204.372428,62.3589474 204.989712,62.4105263 C205.504115,62.4621053 206.018519,62.5136842 206.430041,62.5136842 C206.944444,62.5136842 207.407407,62.4621053 207.81893,62.3589474 C208.436214,62.2042105 209.002058,61.8431579 209.41358,61.3789474 C209.825103,60.8631579 210.133745,60.2442105 210.390947,59.4705263 L222.376543,20.8378947 L221.965021,20.6315789 Z" id="Shape" fill="#0D2240" fill-rule="nonzero"></path>
                <path d="M177.572016,2.32105263 L158.024691,2.26947368 L144.032922,68.0326316 L163.580247,68.0842105 C177.623457,68.1357895 182.716049,65.1442105 187.294239,43.5326316 L190.792181,27.0789474 C195.421811,5.46736842 191.615226,2.37263158 177.572016,2.32105263 Z M177.263374,19.9610526 L170.884774,49.9284211 C169.855967,54.8284211 168.82716,56.2726316 165.534979,56.2726316 L161.574074,56.2726316 L169.907407,17.1242105 L164.454733,13.5652632 L170.730453,13.5652632 L174.691358,13.5652632 C177.880658,13.5652632 178.292181,15.0094737 177.263374,19.9610526 Z" id="Shape" fill="#FFCE00"></path>
                <path d="M177.572016,2.32105263 L177.572016,1.80526316 L158.024691,1.75368421 L157.510288,2.16631579 L143.518519,67.8778947 L144.032922,68.4968421 L163.580247,68.5484211 C163.683128,68.5484211 163.837449,68.5484211 163.940329,68.5484211 C167.386831,68.5484211 170.31893,68.3421053 172.890947,67.7231579 C174.794239,67.2589474 176.49177,66.4852632 177.983539,65.4021053 C180.246914,63.7515789 182.047325,61.3273684 183.641975,57.7684211 C185.185185,54.2610526 186.522634,49.6189474 187.808642,43.5842105 L191.306584,27.1305263 C192.541152,21.3536842 193.158436,16.8663158 193.158436,13.4105263 C193.158436,11.0378947 192.849794,9.07789474 192.23251,7.53052632 C191.769547,6.34421053 191.049383,5.36421053 190.174897,4.64210526 C188.888889,3.50736842 187.139918,2.78526316 185.082305,2.37263158 C182.973251,1.96 180.504115,1.80526316 177.572016,1.80526316 L177.572016,2.32105263 L177.572016,2.83684211 C180.144033,2.83684211 182.355967,2.94 184.207819,3.24947368 C185.596708,3.45578947 186.779835,3.81684211 187.757202,4.28105263 C189.248971,5.00315789 190.329218,5.98315789 191.049383,7.42736842 C191.769547,8.87157895 192.12963,10.8315789 192.12963,13.4621053 C192.12963,16.8147368 191.512346,21.2505263 190.277778,26.9757895 L186.779835,43.4294737 C185.648148,48.7936842 184.465021,52.9715789 183.179012,56.2210526 C182.201646,58.6452632 181.121399,60.6052632 179.938272,62.1010526 C178.13786,64.3705263 176.080247,65.7115789 173.50823,66.5368421 C170.936214,67.3621053 167.798354,67.5684211 163.940329,67.5684211 C163.837449,67.5684211 163.683128,67.5684211 163.580247,67.5684211 L144.650206,67.5168421 L158.436214,2.73368421 L177.572016,2.78526316 L177.572016,2.32105263 Z M177.263374,19.9610526 L176.748971,19.8578947 L170.37037,49.8252632 C170.113169,51.0115789 169.855967,52.0431579 169.598765,52.8168421 C169.393004,53.3842105 169.187243,53.9 168.930041,54.2610526 C168.569959,54.8284211 168.158436,55.1894737 167.644033,55.3957895 C167.12963,55.6536842 166.460905,55.7568421 165.58642,55.7568421 L165.534979,55.7568421 L162.191358,55.7568421 L170.37037,17.2273684 L170.164609,16.7115789 L166.152263,14.0810526 L170.679012,14.0810526 L174.639918,14.0810526 C175.154321,14.0810526 175.617284,14.1326316 175.977366,14.2357895 C176.234568,14.2873684 176.440329,14.3905263 176.59465,14.4936842 C176.851852,14.6484211 177.006173,14.8031579 177.109053,15.1126316 C177.211934,15.4221053 177.314815,15.7831579 177.314815,16.3505263 C177.314815,17.2273684 177.160494,18.3621053 176.800412,19.9094737 L177.263374,19.9610526 L177.777778,20.0642105 C178.08642,18.5168421 178.292181,17.2789474 178.292181,16.2989474 C178.292181,15.7315789 178.240741,15.2673684 178.08642,14.8547368 C177.983539,14.5452632 177.829218,14.2357895 177.623457,14.0294737 C177.314815,13.6684211 176.851852,13.4105263 176.388889,13.2557895 C175.874486,13.1010526 175.308642,13.0494737 174.639918,13.0494737 L170.679012,13.0494737 L164.403292,13.0494737 L164.09465,13.9778947 L169.238683,17.3305263 L161.00823,56.1178947 L161.522634,56.7368421 L165.483539,56.7368421 L165.534979,56.7368421 C166.358025,56.7368421 167.12963,56.6336842 167.746914,56.3757895 C168.209877,56.1694737 168.67284,55.9115789 169.032922,55.5505263 C169.598765,55.0347368 170.010288,54.3126316 170.37037,53.3842105 C170.730453,52.4557895 171.039095,51.3210526 171.296296,49.9284211 L177.674897,19.9610526 L177.263374,19.9610526 Z" id="Shape" fill="#0D2240" fill-rule="nonzero"></path>
                <path d="M58.590535,11.3473684 C45.781893,14.5452632 38.7860082,19.1357895 38.7860082,30.0189474 L38.7860082,70.8694737 C38.7860082,81.7526316 45.781893,82.8873684 58.590535,79.7410526 C71.399177,76.5431579 78.3950617,71.9526316 78.3950617,61.0694737 L78.3950617,20.2189474 C78.3950617,9.28421053 71.399177,8.14947368 58.590535,11.3473684 Z M62.5514403,64.1126316 C62.5514403,66.5884211 61.4197531,67.5168421 58.590535,68.2389474 C55.7098765,68.9610526 54.6296296,68.6 54.6296296,66.0726316 L54.6296296,27.3368421 L48.4053498,25.3252632 L58.590535,22.7978947 C61.4711934,22.0757895 62.5514403,22.4368421 62.5514403,24.9642105 L62.5514403,64.1126316 Z" id="Shape" fill="#FFCE00" fill-rule="nonzero"></path>
                <path d="M58.590535,11.3473684 L58.4876543,10.8315789 C52.0576132,12.4305263 47.0164609,14.3905263 43.5699588,17.3821053 C41.8209877,18.8778947 40.5349794,20.6315789 39.6090535,22.7463158 C38.7345679,24.8610526 38.2716049,27.2336842 38.2716049,30.0189474 L38.2716049,70.8694737 C38.2716049,72.7778947 38.4773663,74.4284211 38.9403292,75.8210526 C39.6090535,77.9357895 40.7407407,79.4315789 42.3868313,80.4115789 C44.0329218,81.3915789 46.0390947,81.8042105 48.4567901,81.8042105 C51.3374486,81.8042105 54.7839506,81.2368421 58.744856,80.2568421 C65.1748971,78.6578947 70.2160494,76.6978947 73.6625514,73.7063158 C75.4115226,72.2105263 76.6975309,70.4568421 77.6234568,68.3421053 C78.4979424,66.2273684 78.9609053,63.8547368 78.9609053,61.0694737 L78.9609053,20.2189474 C78.9609053,18.3105263 78.755144,16.66 78.2921811,15.2673684 C77.6234568,13.1526316 76.4917695,11.6568421 74.845679,10.6768421 C73.1995885,9.69684211 71.1934156,9.28421053 68.7757202,9.28421053 C65.8950617,9.28421053 62.4485597,9.85157895 58.4876543,10.8315789 L58.590535,11.3473684 L58.6934156,11.8631579 C62.6028807,10.8831579 65.9979424,10.3157895 68.7242798,10.3157895 C70.2674897,10.3157895 71.6049383,10.4705263 72.7366255,10.8315789 C74.4341564,11.3989474 75.6687243,12.3273684 76.5432099,13.8231579 C77.4176955,15.3189474 77.8806584,17.3821053 77.8806584,20.1673684 L77.8806584,61.0178947 C77.8806584,63.7 77.4691358,65.9694737 76.6460905,67.8778947 C75.4115226,70.7663158 73.2510288,72.9842105 70.2160494,74.8410526 C67.18107,76.6463158 63.2201646,78.0389474 58.436214,79.2252632 C54.526749,80.2052632 51.1316872,80.7726316 48.4053498,80.7726316 C46.8621399,80.7726316 45.5246914,80.6178947 44.3930041,80.2568421 C42.6954733,79.6894737 41.4609053,78.7610526 40.5864198,77.2652632 C39.7119342,75.7694737 39.2489712,73.7063158 39.2489712,70.9210526 L39.2489712,30.0705263 C39.2489712,27.3884211 39.6604938,25.1189474 40.4835391,23.2105263 C41.718107,20.3221053 43.8786008,18.1042105 46.9135802,16.2473684 C49.9485597,14.4421053 53.909465,13.0494737 58.6934156,11.8631579 L58.590535,11.3473684 Z M62.5514403,64.1126316 L62.037037,64.1126316 C62.037037,64.68 61.9855967,65.1442105 61.8312757,65.5568421 C61.6255144,66.1242105 61.3168724,66.4852632 60.8024691,66.8463158 C60.2880658,67.2073684 59.5164609,67.4652632 58.436214,67.7231579 C57.6131687,67.9294737 56.9958848,68.0326316 56.5329218,68.0326316 C56.2242798,68.0326316 56.0185185,67.9810526 55.8641975,67.9294737 C55.7613169,67.8778947 55.6584362,67.8263158 55.5555556,67.7231579 C55.4526749,67.62 55.3497942,67.4136842 55.2469136,67.1557895 C55.1954733,66.8978947 55.1440329,66.5368421 55.1440329,66.0210526 L55.1440329,27.3368421 L54.7839506,26.8210526 L50.2572016,25.3768421 L58.6934156,23.2621053 C59.5164609,23.0557895 60.1337449,22.9526316 60.6481481,22.9526316 C60.9567901,22.9526316 61.1625514,23.0042105 61.3168724,23.0557895 C61.4197531,23.1073684 61.5226337,23.1589474 61.6255144,23.2621053 C61.7283951,23.3652632 61.8312757,23.52 61.9341564,23.8294737 C61.9855967,24.0873684 62.037037,24.4484211 62.037037,24.9642105 L62.037037,64.1642105 L62.5514403,64.1642105 L63.0658436,64.1642105 L63.0658436,24.9642105 C63.0658436,24.5 63.0144033,24.0873684 62.962963,23.7263158 C62.8600823,23.1589474 62.6028807,22.6947368 62.1399177,22.3852632 C61.7283951,22.0757895 61.2139918,21.9726316 60.6481481,21.9726316 C60.0308642,21.9726316 59.3106996,22.0757895 58.4876543,22.3336842 L48.3024691,24.8610526 L48.2510288,25.8410526 L54.1152263,27.7494737 L54.1152263,66.1242105 C54.1152263,66.5884211 54.1666667,67.0010526 54.218107,67.3621053 C54.3209877,67.9294737 54.5781893,68.3936842 55.0411523,68.7031579 C55.4526749,69.0126316 55.9670782,69.1157895 56.5329218,69.1157895 C57.1502058,69.1157895 57.8703704,69.0126316 58.6934156,68.8063158 C60.1337449,68.4452632 61.2139918,68.0326316 61.9855967,67.2589474 C62.345679,66.8978947 62.654321,66.4336842 62.808642,65.9178947 C62.962963,65.4021053 63.0658436,64.8347368 63.0658436,64.1642105 L62.5514403,64.1642105 L62.5514403,64.1126316 Z" id="Shape" fill="#0D2240" fill-rule="nonzero"></path>
            </g>
        </g>
    </g>
</svg>