<svg width="500" height="500" viewBox="0 0 500 500" fill="none" xmlns="http://www.w3.org/2000/svg">
<g clip-path="url(#clip0)">
<path d="M250 497.981C386.956 497.981 497.981 386.956 497.981 250C497.981 113.044 386.956 2.01904 250 2.01904C113.044 2.01904 2.01953 113.044 2.01953 250C2.01953 386.956 113.044 497.981 250 497.981Z" fill="#340E04"/>
<path d="M250.001 13.8922C281.578 13.8355 312.841 20.154 341.916 32.4691C398.524 56.4572 443.585 101.518 467.573 158.125C482.887 194.306 488.917 233.741 485.116 272.845C481.314 311.949 467.801 349.483 445.805 382.037C428.818 407.183 407.164 428.836 382.018 445.824C336.582 476.485 281.893 490.381 227.332 485.13C172.771 479.88 121.736 455.809 82.9805 417.046C44.225 378.284 20.1638 327.245 14.9232 272.682C9.68257 218.12 23.5891 163.434 54.2579 118.003C71.2606 92.8631 92.9197 71.2108 118.065 54.2161C157.029 27.8444 203.012 13.7759 250.062 13.8317L250.001 13.8922ZM250.062 -0.0605338C200.612 -0.0765072 152.267 14.5718 111.142 42.032C70.0176 69.4921 37.9593 108.531 19.0217 154.211C0.0840636 199.891 -4.88219 250.161 4.75086 298.664C14.3839 347.167 38.1836 391.724 73.1403 426.701C108.097 461.677 152.641 485.502 201.138 495.162C249.635 504.823 299.908 499.885 345.599 480.973C391.29 462.061 430.347 430.025 457.83 388.916C485.314 347.806 499.989 299.47 500.001 250.02C500.001 183.714 473.663 120.124 426.779 73.2364C379.896 26.3491 316.307 0.00539542 250.001 4.03932e-05L250.062 -0.0605338Z" fill="#FDDC01"/>
<path d="M313.726 131.189V182.215H329.799L307.81 271.02L274.533 131.189H225.466L192.189 271.02L170.2 182.215H186.273V131.189H95.832V182.235H108.856L164.183 397.848H214.885L250 260.964L285.134 397.848H335.817L391.143 182.235H404.167V131.189H313.726Z" fill="#FDDC01"/>
</g>
<defs>
<clipPath id="clip0">
<rect width="500" height="500" fill="white"/>
</clipPath>
</defs>
</svg>
