<?xml version="1.0" encoding="UTF-8" standalone="no"?>
<svg width="250px" height="250px" viewBox="0 0 250 250" version="1.1" xmlns="http://www.w3.org/2000/svg" xmlns:xlink="http://www.w3.org/1999/xlink">
    <!-- Generator: Sketch 47.1 (45422) - http://www.bohemiancoding.com/sketch -->
    <title>KENTST</title>
    <desc>Created with Sketch.</desc>
    <defs></defs>
    <g id="Page-1" stroke="none" stroke-width="1" fill="none" fill-rule="evenodd">
        <g id="KENTST">
            <g id="Group-2" transform="translate(0.000000, 39.000000)">
                <path d="M101.30883,5.79747234 C73.3906502,5.61445674 46.8880524,12.7526985 28.6317721,29.7959474 C28.5361241,28.6614407 27.7280695,20.9206406 27.7280695,20.9206406 L20.1337394,30.4849474 L18.7608454,32.2041541 C12.3569915,40.2853379 5.44869855,50.2600049 2.73796913,62.9830724 C2.02544895,66.2992011 1.66055034,69.5197058 1.66055034,72.7481263 C1.66055034,78.7957471 2.94655468,84.9044153 5.60545299,91.7811158 C3.38068755,91.3378254 0.747893967,90.8312078 0.747893967,90.8312078 L4.30179328,97.6730783 C15.1718246,118.608417 34.2793457,133.696755 59.9212445,142.275691 C70.1916238,145.714041 75.9876286,146.159104 79.2633298,146.499488 C59.5038211,139.282721 46.1229444,125.040434 37.6855705,111.635966 C39.3973214,111.993764 41.1091354,112.342887 41.1091354,112.342887 L38.6001816,105.94684 C36.5147675,100.64971 35.5155367,93.6860613 35.5155367,88.0746382 C35.5155367,85.203573 35.7588214,82.681504 36.2888418,80.9186648 C38.9042953,72.2352394 60.3751766,62.6797984 73.1658596,64.3206061 C72.0101897,64.4516934 69.2209569,65.0013102 69.2209569,65.0013102 C69.2209569,65.0013102 80.2996999,65.4813303 89.6406502,67.7938496 C98.9816006,70.1064323 110.338416,73.4575176 120.279018,77.8559082 C124.693112,79.8106921 137.84863,86.4430763 147.589349,93.0841996 L145.929681,90.2218735 C145.929681,90.2218735 146.694348,90.3877908 148.805804,91.8188588 C152.064291,94.0179591 155.392517,98.2066733 155.652933,99.0007964 C155.678786,99.5416107 155.26193,99.6989787 152.881041,100.213829 C149.744249,100.894533 146.442507,101.461755 146.442507,101.461755 C146.442507,101.461755 149.605403,104.673204 154.462457,106.296406 C159.311062,107.919546 162.508891,108.059182 165.558855,107.727538 C168.217754,111.72437 173.109678,116.131057 182.103196,118.496328 C195.571719,122.030682 206.954386,118.923786 215.079008,115.546673 C216.790759,119.203186 217.711864,122.658951 217.711864,125.539072 C217.711864,126.481571 217.616273,127.362959 217.416389,128.17456 C216.695167,131.141629 211.194953,135.854249 207.57163,137.250614 C203.948245,138.655591 202.966354,138.995912 201.819386,139.397343 C203.157536,140.53185 206.554996,142.198621 208.08433,142.757167 C210.143639,143.507658 212.63746,143.9702 213.984312,144.205777 C220.188408,145.279173 226.47044,144.738359 231.944865,142.957851 C238.966026,140.671486 244.152921,136.212238 246.933641,130.060001 C249.0625,125.347571 249.888015,120.740137 249.888015,116.428821 C249.888015,105.302233 244.387737,96.1216886 241.494149,92.0636818 C243.075565,90.4841748 243.961864,88.4333868 244.040052,86.09465 C244.040052,85.9812943 244.04825,85.8761712 244.04825,85.7628155 C244.04825,79.4186968 238.139566,72.3146517 232.161143,67.9165777 C230.501665,60.8131659 226.270051,53.7705482 218.849627,45.8989774 C215.347874,42.1726784 211.098921,38.5511226 206.615088,34.7286929 C202.513809,31.2292952 189.001967,21.8308424 185.387661,16.8039294 C185.387661,16.8039294 187.881419,22.3890717 188.628745,24.0643927 C179.566498,17.8771354 164.672934,10.4857748 155.462508,6.83812819 L142.941069,1.87264257 C142.941069,1.87264257 146.025714,5.86073621 148.47609,9.01975018 C138.127522,5.71236059 126.457324,3.26014148 122.05231,2.66676564 L122.191346,2.69209652 C112.946239,1.3306884 98.5911647,0.58893693 94.1167903,0.903103162 C95.2290153,1.64491796 98.1051377,3.59970192 101.311352,5.77264808" id="Shape" fill="#FFFFFF"></path>
                <path d="M233.99522,81.9167648 C231.953251,77.9024537 229.17272,77.2479671 229.17272,77.2479671 L229.051087,81.9516581 C229.051087,81.9516581 227.973605,77.8937145 227.382781,75.9040373 C225.33211,69.0450684 219.292839,59.8296945 212.281137,53.3190252 C212.759029,54.3138955 213.089248,55.2912875 213.063143,56.1115647 C209.27468,51.4515062 198.430627,42.593741 198.430627,42.593741 L199.768778,46.6953169 C199.768778,46.6953169 199.056258,45.7528182 198.274251,44.8190587 C191.096714,36.2578548 171.241992,25.8823266 165.212054,22.7488968 L167.853549,27.05122 C167.384294,26.7890454 166.723921,26.4401125 165.872364,26.0127173 L168.548603,30.5855109 L154.550419,23.9703518 L162.092413,24.1888306 C159.963554,23.1940237 157.41765,22.0682561 154.593927,20.898856 C147.659781,18.4553761 140.126614,16.5005921 131.063736,14.7901878 C129.456215,14.4849507 127.81395,14.2227761 126.163047,13.9960014 C127.640171,14.9559784 130.220881,18.4990085 131.419996,19.616037 C101.859236,15.4620894 77.520682,17.4867233 58.4591909,24.7386374 C45.8683918,30.5855109 34.2946681,39.6876558 23.7544138,52.698862 L23.4416112,50.9011928 C23.4238297,50.920191 23.4155695,50.9328564 23.3982294,50.9518546 L22.372894,45.0961785 C18.1499193,50.6638425 12.9714109,59.8096198 11.3288312,66.2063001 C11.3110497,66.2569619 11.1898078,66.7471144 11.1811315,66.7996759 C9.73004944,72.4807589 9.59101342,77.4810745 10.4599097,82.3332044 C11.6590244,87.5604847 13.9964059,92.7005001 17.1248108,98.4689746 L16.4818402,98.3378873 C16.8033381,98.9572273 17.142214,99.5770739 17.4810709,100.214146 L14.2399869,99.5612421 C19.6968195,108.086983 28.264654,117.573397 37.7184726,124.222753 C31.5925646,117.634191 27.1176856,111.097558 24.4586612,103.697775 L24.806226,103.767435 C24.5542398,103.165193 24.3196315,102.563141 24.1024074,101.952287 L28.6120927,102.877308 C28.2589853,101.547436 27.9809133,100.280892 27.7375214,99.0143484 C25.6176163,89.7052502 26.1996128,80.1428433 28.8321542,73.4301603 C30.9785424,67.920694 39.6416528,55.6352175 54.1613007,51.8355856 L51.9976985,55.1342361 C52.9361443,54.8638289 53.9006318,54.6282517 54.9085641,54.418702 L51.4849992,58.9566024 C63.4238108,53.9736385 80.3155834,52.289515 100.839948,58.3372624 L98.7892769,58.6165354 C99.4062059,58.8609784 100.005795,59.1054213 100.570577,59.3845043 L97.0601228,60.2571531 C103.281622,61.7668735 111.049479,63.9921913 114.533892,65.2052237 C118.235466,66.496782 122.762554,68.6260957 127.219904,70.9299391 C126.09904,70.1183378 125.438603,69.6383809 125.438603,69.6383809 C131.972981,71.6630148 136.352143,75.9303814 141.035859,78.4085646 L140.227748,76.9337375 C146.953182,80.6338824 153.018431,82.7457178 155.512252,85.3549884 C155.529907,85.3803192 155.546932,85.3993174 155.573415,85.4246483 C160.465465,89.5349634 162.993713,92.9124562 163.767397,94.0206822 C163.984747,96.1936283 164.384326,98.0698866 165.114249,99.7977692 C163.063578,90.3816481 165.201202,87.6237486 165.948402,85.9398784 C166.156862,85.468724 166.461101,85.0323363 166.791257,84.6483835 C169.884603,79.8748426 176.897063,77.2042713 182.901149,77.4050185 C189.13135,77.6234974 195.152713,79.3510633 201.192109,82.9639433 C200.071183,81.6898634 200.010398,79.9445025 200.3927,78.6616835 C200.445035,78.4786678 200.514332,78.3038848 200.583819,78.1379675 C200.653242,77.7630705 200.748833,77.4049552 200.896634,77.0733107 C201.235491,76.3053417 201.92197,75.8079699 202.63449,75.4938037 C202.208743,74.0538698 200.69675,71.0082749 197.090768,70.6068438 C194.779428,70.353535 193.675904,71.2090854 193.632459,71.2525912 C193.66714,71.2082622 194.379723,69.9697722 195.587539,69.4461829 C194.371021,68.7392614 191.251633,69.4271847 191.173445,69.4525156 C191.312418,69.4018539 194.188603,66.6773911 198.611399,68.0649534 C199.497698,68.3442263 200.271067,68.7804874 200.983587,69.1732427 C200.366658,68.2831156 199.975655,67.7507871 199.958251,67.742048 C200.479589,67.7610461 203.816264,68.7281791 205.614905,72.5592213 C206.023311,73.4143918 207.048647,75.6484487 207.613429,76.852742 C208.630063,79.0082732 210.593845,82.045129 212.627112,84.1309369 C215.937683,87.5343306 219.578283,88.7211456 223.705855,88.6949915 C227.92883,88.6696606 229.484205,85.8588195 229.501545,85.7453372 C229.483889,85.8498271 229.605838,87.8048644 228.354577,89.2796915 C229.284321,88.7737072 230.448629,87.5604847 230.761444,86.71399 C231.178553,85.5620683 230.891716,83.3018573 230.474671,82.8306396 C230.692021,83.0750826 233.376898,85.4486493 232.820754,87.8484968 C232.725163,88.2848212 232.577488,88.7996713 232.22993,89.3319997 C232.620933,89.6024069 233.090124,89.9342414 233.611525,90.2919767 L232.881602,89.2447982 L235.262428,90.6148821 C236.157429,89.5851186 235.940142,85.6930289 233.985125,81.8358326" id="Shape" fill="#EFAB00" fill-rule="nonzero"></path>
                <path d="M128.260517,18.1541317 C129.416165,18.9046748 131.327723,21.4195617 132.535494,22.7547939 C119.762526,20.9572079 107.954778,20.3113065 97.1352056,20.7477457 C117.528676,20.6844245 154.432671,31.2894852 169.439488,41.5867331 C181.899614,50.1389392 179.840336,52.1356216 166.485105,46.1489701 C136.786446,32.814699 112.734253,32.0746111 112.734253,32.0746111 L96.2840541,42.0928739 C96.2840541,42.0928739 123.898877,45.7232542 142.996845,55.9856513 C159.436723,64.8170212 153.807876,65.2883111 137.498438,59.4239055 C113.029833,50.6186291 86.6144173,49.0565986 74.4495166,50.6449012 C85.2674873,51.0375177 104.24427,53.5316193 111.656032,56.0274723 C109.779157,56.603118 104.982777,58.7327875 102.688778,59.273779 C106.798792,59.0033726 152.597614,73.1143696 165.136217,89.6422245 C165.179727,89.1185154 165.270003,88.5601342 165.382985,87.9667056 C166.87751,81.1511414 175.627412,77.1910189 182.900371,77.4353319 C189.130523,77.6449371 195.150333,79.3708914 201.188651,82.9925144 C200.059056,81.7184408 200.006915,79.9644272 200.389248,78.6815605 C200.728108,77.5470689 201.46496,76.7006057 201.890731,76.6221467 C202.125363,76.2903135 202.396457,76.0127761 202.700562,75.7948603 C202.405141,74.5295263 200.945371,71.0580119 197.087375,70.6390875 C194.767395,70.3857848 193.663906,71.2396293 193.629027,71.2743907 C193.663728,71.2427212 194.376271,70.0002814 195.575482,69.4766259 C194.367694,68.7697088 191.248365,69.4582712 191.161346,69.4835961 C191.309047,69.4329284 194.183352,66.7014304 198.606208,68.0978034 C199.492487,68.3682098 200.267564,68.8134064 200.980107,69.1973549 C200.363178,68.3159694 199.961733,67.7731549 199.944365,67.7731549 C200.474399,67.792153 203.810938,68.7610229 205.609692,72.5832793 C206.018042,73.4471858 207.043428,75.6724894 207.60811,76.8767183 C208.624758,79.041042 210.590254,82.067342 212.623551,84.1617853 C215.430233,87.0415332 218.48,88.3331572 221.868769,88.6473505 C220.035314,88.1584743 218.834484,87.1044791 219.060485,85.9874307 C221.641166,87.0782963 224.117567,87.5320358 225.403459,84.4689906 C226.680773,81.4058739 226.029072,71.0542945 214.020664,57.8590691 C214.150926,58.5833937 214.465512,59.8487814 214.482916,61.1925922 C211.354849,56.7245418 204.994436,50.022466 201.066824,46.950592 C201.231787,47.7447075 201.885321,50.3731186 202.20683,51.4640378 C200.112673,49.2736208 194.226684,44.2627915 194.226684,44.2627915 L195.443156,47.9977243 C195.443156,47.9977243 194.793198,47.1354799 194.080708,46.2803129 C187.520453,38.4699819 169.403898,29.0014681 163.894458,26.1383413 L166.309998,30.0654003 C165.88291,29.8366361 165.274309,29.5131492 164.500211,29.1288969 L166.940132,33.3002688 L154.160224,27.2614305 L161.048981,27.4604017 C159.111068,26.5542811 156.783436,25.5248423 154.201331,24.459659 C147.876864,22.2256338 140.995402,20.4384136 132.722345,18.8853192 C131.254228,18.6059767 129.759419,18.3598765 128.255712,18.1591717 L128.260517,18.1541317 Z M109.756913,25.2445704 C113.510664,25.7505503 117.775319,26.4471015 120.660123,26.979425 C135.71837,29.7544418 148.865751,34.1458206 160.525264,40.7431652 L161.828631,39.7378538 C151.037531,34.2046201 138.751622,30.0171632 125.317913,27.5490121 C121.112872,26.7715713 113.998292,25.6545587 109.75766,25.2452853 L109.756913,25.2445704 Z" id="Shape" fill="#785100"></path>
                <path d="M107.185485,5.35048627 C109.262202,6.7554558 112.129567,9.03484069 113.771899,10.3700729 C78.0851065,6.33810414 44.848733,18.9392576 25.6635672,40.8260922 L25.3160062,36.6895711 L24.8120419,30.7030983 C23.8823061,31.8899734 22.7856855,33.2338021 21.6040743,34.7348883 C16.1994489,41.5504525 8.96136859,51.3678318 6.25914484,64.0560228 C3.86104359,75.2960293 5.93763626,84.9915201 11.7159107,97.1642769 L7.49432001,96.3135601 C9.51017716,100.179496 11.8406561,103.938914 14.5081789,107.560537 L14.5151369,107.567507 C24.8812836,121.65241 40.2258572,133.59122 60.8809189,141.549712 C64.7736515,143.050691 67.9990585,144.132781 70.8142827,144.953115 C74.0727891,145.904345 76.7906728,146.508211 79.3887937,146.988223 C53.6958687,137.598168 38.4915225,123.502362 31.0530666,107.567507 L31.0425673,107.560537 C30.9304566,107.306751 30.8094483,107.056541 30.695558,106.802755 L34.3797291,107.560233 L35.1165634,107.563807 C31.7639196,98.9154488 30.9916015,86.2780149 32.7462229,80.2389978 C33.832362,76.4953077 35.5441856,72.6833457 37.9597263,69.7426536 C39.5585316,67.7879709 41.8871598,65.9099599 43.9378959,64.8453129 L42.6241008,66.9222414 L38.4115858,73.0239899 C45.1195426,66.6972304 63.2948224,59.3301301 82.7504775,60.6215754 C84.4187915,60.7260563 86.0976047,60.8937511 87.7659187,61.1381893 L80.0325939,62.8590857 L78.1731578,63.2675013 C80.1021737,63.127544 83.2024794,63.4262779 86.9734918,64.0808294 C95.6451654,65.5818084 112.015107,70.4075889 121.973384,74.8146952 C127.569132,77.2930334 135.528458,80.94772 144.998787,87.4054827 C143.973454,85.4944082 143.08027,83.5761847 142.072341,81.8483002 C146.998984,85.6007478 153.020574,90.4771781 154.428364,91.9782643 C157.790973,95.5387644 160.727918,99.0050779 160.580216,101.082007 C160.43255,103.158935 156.060198,102.947686 155.842916,103.18342 C161.412683,104.911287 165.8528,104.901064 167.607955,103.801262 C165.140274,100.947608 164.158327,97.9824305 163.767363,94.0553716 C162.029541,91.5857907 151.586981,77.7975657 125.44152,69.6723265 C125.44152,69.6723265 127.518237,71.1907309 130.585444,73.4422888 C125.875904,71.2255996 120.245456,68.862537 114.892793,66.9950707 C110.635078,65.5115171 99.9822479,62.5148671 93.5864215,61.1621201 L100.574655,59.4249421 C88.105454,53.3430318 61.6900378,55.4733983 49.6550432,61.4159054 L54.9137468,54.4625465 C39.4992375,57.6303943 31.8776675,68.1633765 29.201247,75.1978752 C26.281742,82.8598669 25.8560773,94.124537 29.1143523,104.613732 L24.4466322,103.664272 C24.9245441,104.990711 25.4649889,106.289341 26.0558656,107.563271 L26.0558656,107.570241 C29.4707931,114.935554 34.7953395,121.558993 41.8597372,128.427101 C33.2661852,123.225933 25.1418965,115.380751 19.060336,107.570241 L19.0533958,107.563271 C16.8900152,104.776995 14.9786167,102.005016 13.4058638,99.3509944 L17.472457,100.178281 C11.1031456,88.4416057 7.99073907,79.2874639 11.1709459,66.7554759 C11.1798436,66.7054338 11.3031653,66.2246715 11.3204268,66.1728421 C12.9713014,59.7585089 18.1744835,50.5614738 22.4149372,45.0014318 L23.7461183,52.6634234 C50.978341,19.0225778 85.1258363,11.5502101 125.894981,18.7062398 C125.044363,17.74686 123.097552,14.3452438 120.682723,12.1197972 C137.591864,12.1577935 163.145985,24.406936 167.847516,27.0075201 L164.145906,20.9861966 C176.797331,26.6497187 189.845949,33.8212971 198.14392,41.256848 C197.700763,40.0525654 196.953483,37.3212104 196.649378,36.5444845 C198.100464,37.6527576 208.735979,46.7913328 214.54972,52.2455714 C223.638516,60.7802627 227.68767,70.2303682 229.616686,76.1746625 C229.746948,76.0961321 229.349044,73.0854524 229.314307,72.4745805 C234.180267,77.4750439 239.487552,84.4823769 236.203065,90.2245366 C236.072803,90.4689747 235.925084,90.7046197 235.751241,90.9401217 L232.883876,89.2890341 L233.641567,90.3711423 C234.493092,91.5841644 239.167912,98.5743042 241.253171,107.562592 L241.253171,107.569562 C242.686889,113.748161 242.904099,120.868983 239.810787,127.711534 C236.943422,134.038293 230.57251,137.886893 223.881814,139.178339 C220.449625,139.832819 216.218069,140.180308 213.69807,139.761276 C214.488788,139.892369 221.309674,136.794133 224.055497,131.453562 C226.088793,127.500409 225.628214,121.114136 223.933777,116.541354 C222.943216,113.879647 221.665937,111.094086 220.145325,108.694385 C219.641325,107.89153 219.415431,107.559911 219.415431,107.559911 C211.291142,95.5606936 198.117957,89.644816 191.731206,88.0827855 C183.302795,86.0146143 176.907502,88.6082283 175.187048,94.1495045 C175.187048,94.1495045 174.980319,95.5614621 175.023687,96.1985524 C175.049543,96.1542294 175.091398,96.1130876 175.134908,96.06939 C175.786609,95.9034645 176.638134,95.8246838 177.585327,95.807598 C179.392623,95.7822731 181.5302,95.9717721 183.198514,96.163648 C185.848776,96.4688874 190.931839,97.3940776 193.312679,97.8566281 C191.20998,96.7483371 185.077169,94.9856376 182.68761,94.7325672 C182.331347,94.7008977 181.982042,94.6645635 181.634481,94.6208659 C180.200745,94.4809087 178.906098,94.4006268 177.82859,94.540584 C177.976255,94.4709182 178.054502,94.4358708 178.054502,94.4358708 L178.732255,93.5806502 C181.478078,90.6485367 186.588902,90.4321044 191.046459,91.5316022 C196.155682,92.7969899 205.314058,96.7676212 212.247838,104.359733 C208.224665,106.035234 198.378143,108.94985 187.385956,105.337128 C178.062438,102.274011 177.532493,96.5581233 177.549932,96.2962955 C177.524076,96.6363678 175.275153,103.729702 185.74558,107.560608 C185.74558,107.560608 185.987152,107.660067 186.569309,107.860808 C196.509613,111.220603 204.340279,109.316552 208.927386,107.571081 L208.945181,107.564111 C210.378881,107.014434 211.501483,106.475033 212.274869,106.10851 L213.334938,105.591896 C213.864972,106.228968 214.375912,106.88343 214.871193,107.564093 C214.871193,107.564093 215.175297,107.967326 215.826999,108.953371 C208.693199,112.19092 197.588545,115.470469 184.129923,111.927484 C180.019909,110.845358 176.815322,109.276322 174.32166,107.574709 L174.311161,107.567739 C168.18529,103.38761 166.388494,98.4482695 166.362334,98.1953778 L166.414475,99.5288049 C166.440331,99.7821076 166.744632,103.579718 170.046506,107.567721 L170.053446,107.574692 C172.495146,110.52432 176.570281,113.576892 183.399958,115.365899 C197.797819,119.153198 209.701483,114.711348 217.218239,111.229378 C220.233305,116.517763 222.892286,123.621248 221.458515,129.537662 C220.554831,133.264016 216.123469,137.472026 211.135789,139.985215 C211.787472,140.290454 213.673049,140.74271 214.906801,140.952137 C224.925405,142.653856 238.889593,140.561272 244.101851,129.024587 C247.560021,121.38011 247.151796,113.875036 245.335709,107.57437 L245.335709,107.5674 C243.589202,101.545897 240.55837,96.6242504 238.36011,93.7269878 C238.342315,92.8107157 237.995056,90.8803034 238.168953,90.7843297 C244.850928,86.8923003 238.143149,76.369684 229.375559,70.4618489 C228.185068,63.7685306 224.299435,56.8569926 216.626793,48.7149536 C210.101238,41.7773223 200.979342,35.2741642 190.951663,25.5257716 C191.290522,26.5206277 192.950081,31.9572622 192.828539,31.8264377 C187.685683,26.5630742 166.388209,15.211009 154.397703,10.4548586 C155.396022,11.7466614 157.680945,14.8532075 159.350148,17.3317245 C149.409666,12.1829218 128.7724,7.44428621 121.778828,6.51064238 C117.077297,5.69906569 112.324159,5.58378999 107.181303,5.34823437 L107.185485,5.35048627 Z M102.377182,30.6360775 C91.577896,30.7135893 80.8892976,32.0851557 72.3884593,34.7272033 C76.8025957,33.5927117 80.5910475,32.913711 83.719114,32.4338423 C98.1603957,30.1823023 126.853261,33.4269649 138.158646,38.217823 C138.549645,37.8948545 139.618434,37.1025262 140.191942,36.8145692 C130.333497,32.5783212 116.262537,30.5364221 102.376826,30.636149 L102.377182,30.6360775 Z M196.133758,67.6833649 C194.387233,67.6833649 192.753709,68.257563 191.285237,69.3833151 C191.224377,69.4270127 191.180956,69.4633469 191.180956,69.4950164 C191.241816,69.4684226 192.61293,69.1633977 193.89884,69.1633977 C194.654786,69.1633977 195.221337,69.2783338 195.577582,69.453124 C194.873758,69.7672815 194.20298,70.3694854 193.655506,71.2159129 L193.648388,71.2857217 C193.657286,71.2769643 194.489503,70.5945679 196.262169,70.5945679 C196.531537,70.5945679 196.809554,70.6152639 197.096326,70.6469334 C201.006498,71.074508 202.492232,74.6333281 202.761653,75.9771389 C203.117898,75.7586691 203.526319,75.6455202 203.995512,75.6455202 C205.133791,75.6455202 206.28257,76.3258971 206.716954,76.6229152 C207.368638,77.5741453 207.994269,78.6578441 208.64597,79.7575207 C208.602727,79.7512654 208.548808,79.7505505 208.496489,79.7505505 C208.148928,79.7505505 207.811831,79.8726356 207.516357,80.1170737 C208.246269,80.9373362 208.698146,81.7735944 208.732829,81.7925926 L206.751673,81.5308006 C206.656112,82.6390737 207.384227,84.035411 208.965592,84.5503091 C209.417416,84.6991309 209.851854,84.7702265 210.268959,84.7702265 C210.686047,84.7702265 211.087456,84.700382 211.461105,84.5433389 C212.034596,85.1716719 212.658465,85.7827761 213.292781,86.3235711 L213.25114,86.3549904 C212.529947,87.0006773 211.834826,87.6011476 210.627037,87.6011476 L210.557458,87.6011476 C210.479158,87.6011476 210.409756,87.6031135 210.331546,87.6220938 C210.453266,87.6657198 211.859579,88.7153185 211.867783,88.7216453 C216.403461,92.1425634 218.558478,94.5074132 220.470054,96.5930992 C221.000089,97.1777883 221.50585,97.7275372 222.044533,98.2860792 L222.062329,98.2721389 C220.533032,95.4009697 217.637871,92.1984498 213.189034,88.5157039 C213.701664,88.5885331 214.223033,88.6204171 214.892102,88.6204171 C215.239663,88.6204171 215.588932,88.6057619 215.962599,88.5994709 L216.299732,88.5925007 C218.680572,90.0498358 221.097892,90.843862 223.487451,90.9312571 C221.81912,91.2377654 220.505307,91.2628758 220.140324,91.2628758 L220.098683,91.2628758 C220.003122,91.2628758 219.940127,91.2655566 219.931941,91.29081 C219.949736,91.29081 220.010062,91.3079674 220.105801,91.3396726 C221.83494,91.8980181 223.53105,92.1879052 225.155943,92.1879052 C227.015379,92.1879052 228.716793,91.8126426 230.202526,91.0708926 C232.105383,90.128402 232.609347,88.9240837 232.844068,87.8769514 C233.069998,86.8734094 232.871829,85.2154231 230.59527,82.9551257 C230.543307,82.8994002 230.506649,82.8678557 230.463228,82.8678557 C230.871632,83.3216488 231.177445,85.5799624 230.751709,86.7320045 C230.447586,87.5610066 229.300623,88.774261 228.370869,89.3150739 C229.109429,88.4423742 229.491976,87.2905108 229.517833,85.8768197 C229.517833,85.814124 229.516053,85.7904433 229.490072,85.7651184 C229.490072,85.8000049 227.962537,88.6790022 223.713524,88.704202 L223.574542,88.704202 C219.143144,88.704202 215.676076,87.2643102 212.643571,84.1489352 C210.514713,81.9672755 208.592637,78.9216736 207.62813,76.8708384 C207.324007,76.2163584 206.891278,75.2738142 206.491576,74.4098362 C206.144015,73.6593467 205.822471,72.969855 205.640051,72.5772206 C203.832755,68.7461354 200.537768,67.7880067 199.964402,67.7880067 L199.946607,67.7880067 C199.990028,67.8141537 200.356683,68.311823 200.999736,69.1842724 L200.832993,69.0935174 C200.181292,68.7357159 199.43403,68.3275506 198.626014,68.0742478 C197.791857,67.812706 196.950724,67.6832934 196.133953,67.6832934 L196.133758,67.6833649 Z M201.910306,76.6089213 C201.484552,76.6785871 200.739016,77.5252112 200.391437,78.6858499 C200.009069,79.9599234 200.069929,81.7123285 201.19084,82.9862591 C195.15181,79.3733935 189.130398,77.6472962 182.909678,77.4290766 C175.628177,77.1846385 166.886924,81.1448861 165.39247,87.9604503 C164.740804,91.102026 165.288207,93.3115663 165.288207,93.3115663 C165.288207,93.3115663 165.53147,91.4771635 165.774803,90.7179524 C166.843574,84.9584566 174.542216,79.4797331 183.292011,79.6631019 C191.190477,79.8201449 194.752928,81.4153998 205.849395,87.1226015 L207.604586,87.517041 C205.910202,86.1382364 204.231478,84.9076995 202.554444,83.8344738 C200.842674,82.0629811 200.251904,79.6891953 201.911463,76.6087426 L201.910306,76.6089213 Z M34.3759921,107.570724 L35.182335,107.734791 C35.1563004,107.684123 35.1336113,107.632151 35.1162964,107.570724 L34.3759743,107.570724 L34.3759921,107.570724 Z" id="Shape" fill="#003875"></path>
                <g id="Group" transform="translate(0.061605, 7.317325)" fill-rule="nonzero">
                    <path d="M76.649345,29.5924315 L70.5668947,55.3981038 L76.5692659,55.3981038 L64.2653836,106.344603 L58.3149748,106.344603 L51.7459996,133.031375 L167.006476,133.031375 L173.481669,106.351752 L159.300911,106.351752 L145.88482,73.6974514 L157.660358,63.5710618 C161.906506,66.271194 165.896402,69.1770354 169.623638,72.3116409 L172.098259,71.7356734 C168.03736,68.5983871 163.457015,65.5899593 158.577886,62.778662 L167.138339,55.4169233 L179.980887,55.4169233 L186.209259,29.6112509 L76.6504127,29.5937362 L76.649345,29.5924315 Z" id="Shape" fill="#EFAB00"></path>
                    <path d="M78.5676836,31.6513091 L73.3819409,53.0496965 L79.5060324,53.0496965 L66.1109393,108.684074 L60.105009,108.684074 L54.7802846,130.682967 L165.198646,130.682967 L170.429589,108.691223 L157.719083,108.691223 L143.086501,73.0343927 L166.241809,53.0568454 L178.034787,53.0568454 L183.376951,31.658458 L78.5694632,31.6514879 L78.5676836,31.6513091 Z M196.716345,54.2882401 C192.823612,54.1052288 189.452283,55.8503599 187.453688,58.2676646 C185.854882,60.2050113 185.653332,63.1998561 186.643857,65.2419339 C186.296314,63.0602742 187.323337,61.0793194 188.565932,59.5696545 C190.173422,57.6235504 193.492753,56.35659 196.768521,56.2604376 C200.522272,56.1559567 204.978049,57.3687286 207.39359,60.5190259 C205.638381,56.9149176 202.312128,54.5691911 196.71638,54.298606 L196.71638,54.2880614 L196.716345,54.2882401 Z" id="Shape" fill="#FFFFFF"></path>
                    <path d="M18.3339861,22.0271284 C13.0336414,28.8078418 4.15500784,39.0164436 1.27892353,53.2409291 L1.49794868,57.8251489 C4.23505132,44.4388696 12.8458648,29.0616271 18.3375096,22.0271284 L18.3340395,22.0271284 L18.3339861,22.0271284 Z M81.7121218,35.6314485 L78.5427701,49.0695571 L84.8163425,49.0695571 L69.4262128,112.644554 L63.1804012,112.644554 L59.7047916,126.614182 L99.2745297,126.614182 L102.680738,112.644554 L96.3550248,112.644554 L97.9190758,106.343888 L115.28004,91.4282842 L124.080374,112.610418 L114.445794,112.610418 L111.039587,126.614897 L162.149609,126.614897 L165.555817,112.610418 L154.979329,112.610418 L138.296189,71.8403509 L164.982094,49.0711656 L174.894638,49.0711656 L178.050465,35.6321634 L127.451169,35.6321634 L124.149242,49.0711656 L129.93629,49.0711656 L107.101298,68.4446325 L111.769018,49.0711656 L115.894692,49.0711656 L119.196619,35.6321634 L81.7124955,35.6321634 L81.7121218,35.6314485 Z M203.638735,53.2209122 C206.488661,54.2593408 210.174611,56.7133192 214.945011,63.8255619 L216.335272,65.9548561 C218.255568,68.9568498 219.861243,70.8593457 222.702626,71.5574339 C220.495647,71.0166211 219.643961,67.9951466 217.784525,65.1066414 L216.376895,62.9424964 C211.328533,55.4549374 205.506784,53.3254646 203.638629,53.2209122 L203.638735,53.2209122 Z M122.1218,140.937679 C118.272489,140.943935 113.726311,142.672534 113.68289,147.175435 C113.648207,150.404227 116.324432,152.228264 119.174357,152.917595 C120.312636,153.196866 120.887853,153.406489 120.887853,153.982242 C120.887853,154.558513 120.382163,154.79557 119.643567,154.79557 C118.661691,154.789315 117.61205,154.149812 117.568629,153.067686 C115.518071,153.556562 113.457014,154.043311 111.406278,154.540748 C111.797277,158.38917 116.107097,159.438089 119.313463,159.438089 C123.249616,159.444344 128.230179,157.978967 128.186758,153.196759 C128.160901,150.168672 125.726017,148.327299 122.997634,147.611696 C122.302512,147.428684 120.651495,147.131666 120.547215,146.372509 C120.494878,145.979892 120.887835,145.562683 121.68722,145.562683 C122.564816,145.562683 123.26864,146.103496 123.303394,146.88914 C125.397551,146.601005 127.500249,146.310957 129.594406,146.023447 C129.394653,142.05278 125.458411,140.937554 122.121783,140.937554 L122.1218,140.937679 Z M76.0354054,141.304059 C75.7573353,142.805092 75.4792652,144.295509 75.2012485,145.796595 C74.9579149,147.131845 74.7233544,148.475638 74.5582491,149.828385 L74.4296421,149.828385 C73.951748,148.737573 73.3938816,147.681576 72.8204087,146.634444 C71.8385325,144.862879 70.8584715,143.082701 69.8765241,141.311208 L63.3771288,141.311208 C62.221481,147.463535 61.0658688,153.607104 59.9187806,159.758895 C62.2127791,159.695574 64.4978798,159.645156 66.7831586,159.584355 L67.5895014,155.266431 C67.8501677,153.826504 68.1125957,152.384896 68.2950514,150.944933 L68.4340865,150.944933 C69.1118402,152.306258 69.8764707,153.617006 70.6410657,154.934723 C71.5447313,156.435756 72.4483613,157.943687 73.3520092,159.444595 C75.3853058,159.412925 77.4184244,159.367726 79.451721,159.332893 C80.5986846,153.328906 81.7542612,147.31634 82.9100691,141.303416 L76.0351919,141.303416 L76.0354054,141.304059 Z M85.0129811,141.304059 C84.6740687,143.093067 84.3247994,144.880287 83.9772384,146.669294 C85.6194822,146.663039 90.8243549,146.65178 90.8243549,146.65178 L88.4330158,149.067386 L86.4796204,159.225231 C88.8170395,159.199906 91.1457389,159.174403 93.48298,159.148434 C94.2997509,154.977062 95.1165397,150.804082 95.9333996,146.623953 C97.5756434,146.623953 99.2161076,146.616982 100.85844,146.616982 C101.197299,144.845418 101.546622,143.075606 101.894183,141.304113 L85.0129811,141.304113 L85.0129811,141.304059 Z M131.704418,141.304059 C131.356857,143.084363 131.011022,144.854015 130.672145,146.634265 C132.314389,146.64052 137.467121,146.662199 137.467121,146.662199 L135.138422,149.0115 C134.486721,152.397389 133.833293,155.790426 133.181646,159.176315 C135.519065,159.20164 137.847764,159.239511 140.185005,159.263585 C141.001794,155.074698 141.811607,150.877233 142.628307,146.679768 C144.27055,146.686023 145.912794,146.697872 147.546407,146.704199 C147.893772,144.907685 148.24176,143.109384 148.589108,141.304113 L131.704347,141.304113 L131.704418,141.304059 Z M154.149692,141.307634 C150.734764,147.329136 147.292254,153.324188 143.833906,159.319239 C146.240727,159.350908 148.640786,159.408189 151.038887,159.451886 C151.49943,158.640417 151.959921,157.828751 152.411762,157.008399 C154.5319,157.052722 158.779116,157.137561 158.779116,157.137561 L160.770594,157.137561 L159.057097,158.875919 C159.091781,159.102628 159.138582,159.345136 159.182216,159.633396 C161.493476,159.684064 163.804914,159.747135 166.116174,159.807936 C165.125614,153.646852 164.126298,147.477189 163.127089,141.306633 L154.149514,141.306633 L154.149692,141.307634 Z M60.5675101,141.311208 C55.6059888,141.311208 50.6531872,141.318178 45.691666,141.318178 C44.5360182,147.653695 43.380406,153.978846 42.2333178,160.314542 C47.1861194,160.13153 52.1458611,159.976275 57.0986627,159.836317 C57.4288554,158.064825 57.7520723,156.30209 58.082265,154.530418 C55.3626018,154.593739 52.6498788,154.643531 49.9387574,154.704958 C50.0691083,154.032999 50.1402541,153.692677 50.2793781,153.011996 C52.6427785,152.967673 55.0045772,152.923046 57.3766972,152.879348 C57.6373813,151.334743 57.9102018,149.790138 58.17957,148.254201 C55.8247114,148.273199 53.4682513,148.298399 51.1135707,148.334483 C51.252588,147.653785 51.3117931,147.32045 51.4507036,146.648491 C54.1529274,146.623166 56.8571086,146.59768 59.5593324,146.578682 C59.8893293,144.817002 60.2286154,143.064293 60.5672787,141.311208 L60.5675101,141.311208 Z M44.0441726,141.325149 C41.4647367,141.331404 38.8851229,141.328723 36.3142288,141.328723 C34.8631427,143.571506 33.4207051,145.824654 31.9871117,148.076194 C31.6395508,148.082449 31.4657614,148.079411 31.1182004,148.093709 C31.5091999,145.842169 31.901961,143.583837 32.2929782,141.332297 C29.9642788,141.338553 27.6286393,141.339268 25.2999399,141.339268 L22.839199,141.339268 L24.924636,143.440681 C23.8906194,149.339938 22.8671377,155.247951 21.8417697,161.155786 C24.1791888,161.051305 26.5078882,160.94611 28.8451293,160.841629 C29.2622167,158.468022 29.6845003,156.094415 30.1102719,153.720629 C30.5012713,153.714373 30.6959168,153.702524 31.086934,153.696197 C31.7907401,156.017439 32.4841358,158.338681 33.1965726,160.660101 C35.6382725,160.563841 38.0797944,160.468243 40.530214,160.380848 C39.4353729,157.274123 38.3579357,154.167398 37.2804273,151.060852 C39.5213956,147.807039 41.7684143,144.561626 44.0440836,141.325327 L44.0441726,141.325149 Z M168.180969,141.325149 C167.833408,143.166522 167.485829,145.007716 167.138268,146.857846 C168.789196,146.876844 172.629735,146.934643 172.629735,146.934643 L173.926161,146.934643 L171.632163,149.248914 C170.98048,152.809414 170.318368,156.35937 169.657947,159.91987 C171.995366,159.989536 174.332785,160.060631 176.661307,160.139787 C177.478095,155.750196 178.287908,151.358996 179.104608,146.969583 C180.746852,146.988581 182.380376,147.013424 184.022709,147.032422 C184.37027,145.130105 184.717848,143.229396 185.065409,141.335657 L185.065409,141.328687 C179.434783,141.322432 173.802555,141.325113 168.180648,141.325113 L168.180969,141.325149 Z M187.343,141.325149 C186.196037,147.67818 185.0474,154.031212 183.891593,160.384065 C188.853114,160.567076 193.807695,160.776449 198.760496,160.994937 C199.090725,159.136228 199.41218,157.279127 199.733689,155.420418 C197.022745,155.333023 194.311624,155.244752 191.60068,155.165596 C191.730942,154.476158 191.800397,154.128848 191.930855,153.430742 C194.294255,153.494063 196.668155,153.560047 199.031555,153.629713 C199.300923,151.989116 199.56853,150.365891 199.837898,148.725402 C197.474498,148.693732 195.119639,148.648534 192.764959,148.613701 C192.90394,147.915595 192.963252,147.566479 193.102109,146.868373 C195.804333,146.900042 198.508514,146.938271 201.210738,146.973086 C201.384243,145.979356 201.556733,144.984089 201.739029,143.981637 L204.37363,141.339232 L201.634748,141.339232 L201.634748,141.346202 C196.864349,141.339947 192.104449,141.337981 187.342947,141.325256 L187.343,141.325149 Z M157.364955,146.651958 L157.497033,146.651958 L158.070505,152.369633 C157.045191,152.363378 156.019947,152.343254 154.994579,152.324256 L157.36492,146.651976 L157.364955,146.651958 Z" id="Shape" fill="#003875"></path>
                    <path d="M95.9519601,0.78369304 C65.7852844,1.1892133 41.5711529,10.7617434 25.4076373,27.1934458 L25.7551983,31.329967 C43.5772404,11.0056989 72.6334864,-0.137618969 109.571292,1.57275075 C109.457402,1.44192624 109.345291,1.30967194 109.240299,1.17848998 C104.693587,0.855718014 100.262545,0.72614455 95.9525118,0.784050484 L95.9519601,0.78369304 Z M20.9516819,25.3258007 C15.8593648,31.9492388 5.92760257,43.1533221 2.73814215,58.6163512 C0.418696353,69.8472429 2.53901219,79.5178914 8.33460148,91.665627 L4.12208645,90.8184847 C13.9929886,109.711189 31.5340422,125.969531 57.3586527,135.917199 C62.8325021,138.029693 66.9770389,139.312917 70.5485655,140.202953 C67.7244436,139.384406 64.5017058,138.292415 60.6187607,136.800086 C34.6553464,126.798802 17.075321,110.504715 7.23983161,91.5691171 L11.4801074,92.4173497 C5.70124572,80.2428058 3.62452849,70.5560723 6.02262973,59.3073084 C8.73375116,46.6180451 15.9631117,36.8008446 21.3675592,29.986174 L20.9511481,25.3251037 L20.9516819,25.3258007 Z M205.133545,52.6059297 C207.983648,53.6443583 211.676539,56.1035196 216.44676,63.207005 L217.830064,65.3468438 C219.75036,68.3400801 221.356034,70.2495462 224.197418,70.938877 C221.990438,70.4065535 221.149252,67.3889216 219.289816,64.4916589 L217.882168,62.3344841 C212.833806,54.8381678 207.010278,52.7194182 205.133402,52.6059297 L205.133545,52.6059297 Z M197.167279,54.9271713 C193.144284,54.7352954 189.642515,56.5503247 187.574518,59.0461777 C185.923608,61.0534047 185.723802,64.149585 186.740361,66.2613643 C186.384098,64.001067 187.442441,61.952019 188.728457,60.3899886 C190.396771,58.3741829 193.83074,57.0652228 197.219508,56.9690704 C201.112241,56.855707 205.726219,58.1105679 208.219881,61.3742107 C206.403866,57.639278 202.962957,55.2149138 197.167368,54.9269926 L197.167279,54.9271713 Z M183.236902,72.3631128 C175.303735,72.1971873 168.241117,76.6810368 166.199279,81.8123247 C165.43463,84.8316545 165.843033,88.6993777 167.346242,92.2075122 L167.294102,90.9404088 C167.337611,91.2982103 169.883503,100.873064 184.081522,104.599418 C197.541035,108.133646 208.646222,104.851041 215.778598,101.621909 C214.996581,100.443845 214.162424,99.3267609 213.276216,98.2708712 L212.223087,98.7770119 C208.973301,100.347835 199.608142,104.833365 186.514147,100.52234 C181.691607,98.9428481 179.335147,96.6930417 178.214218,94.5985983 C176.598044,92.9056183 175.598835,90.9160311 175.520536,88.6644911 C175.372923,88.6898161 175.225115,88.7150337 175.08608,88.7517611 C175.04257,88.7960842 174.999168,88.837226 174.964431,88.8809235 C174.929748,88.243851 175.13822,86.8318756 175.13822,86.8318756 C176.858675,81.2904206 183.253967,78.6968067 191.682379,80.7651566 C198.260073,82.3795526 212.049156,88.6121256 220.096212,101.370018 C221.608123,103.769897 222.895777,106.551884 223.877724,109.213591 C225.580775,113.786373 226.032563,120.167285 223.999444,124.129195 C221.253622,129.469945 214.441384,132.567913 213.642017,132.436909 C216.161839,132.847273 220.400335,132.506522 223.832702,131.843499 C230.514677,130.551946 236.892531,126.703453 239.751175,120.376694 C240.289912,119.189819 240.72435,117.994329 241.071928,116.798679 C243.287627,102.827264 232.843359,83.4705969 231.583448,84.0460818 C229.654433,84.9187278 227.901057,84.9816022 226.554127,84.7896012 C223.069797,85.1910823 220.063273,83.9955035 219.880871,83.9693028 C219.915572,83.9693028 221.41887,84.0138582 223.4435,83.6376841 C220.958379,83.5243208 218.525399,82.6585019 216.26628,81.2710472 C215.119334,81.2963721 214.170521,81.3424287 213.145153,81.1942503 C216.507762,84.0128753 218.951242,86.5069411 220.593575,88.7584811 C224.877271,93.8374034 228.153039,98.9093556 228.153039,98.9093556 C228.153039,98.9093556 223.61736,93.828646 221.253782,91.4462815 C217.056927,87.2313014 211.122178,83.0617167 205.42215,79.6234625 C194.621619,74.0820076 191.04849,72.5199771 183.236688,72.3628805 L183.236902,72.3631128 Z M10.1451003,111.726638 C10.3970824,113.803566 15.0875805,119.320536 23.18571,124.861991 C33.5952774,131.991749 38.9739217,133.00403 40.9988545,133.169705 C33.508792,129.661571 28.5125698,126.806129 23.4120669,123.263144 C16.2079757,118.280374 11.5785157,113.663984 10.1447444,111.726638 L10.1451003,111.726638 Z M112.155159,139.669825 L104.533055,144.08551 C104.533055,144.08551 104.465362,144.462792 104.091642,145.684232 C103.718046,146.897254 103.500783,147.558669 103.500783,147.558669 L105.255991,146.895449 C105.255991,146.895449 104.943185,148.195741 104.230677,150.08939 C103.518169,151.98304 102.510222,154.417859 102.510222,154.417859 L104.560781,153.545195 C104.560781,153.545195 104.578398,153.634306 103.761378,155.876981 C103.074922,157.744448 102.242509,159.716645 102.242509,159.716645 C102.242509,159.716645 103.917781,158.11787 105.255974,156.773987 C106.594095,155.438809 107.699275,154.271164 107.699275,154.271164 L106.187364,154.749388 C106.187364,154.749388 106.969363,153.632394 107.959941,152.20117 C108.9418,150.778721 109.913337,149.209721 109.913337,149.209721 L108.132022,149.697632 C108.132022,149.697632 108.957477,148.0029 110.008898,145.428499 C111.060283,142.862766 112.156796,139.668824 112.156796,139.668824 L112.155159,139.669825 Z" id="Shape" fill="#EFAB00"></path>
                </g>
            </g>
        </g>
    </g>
</svg>