<?xml version="1.0" encoding="UTF-8" standalone="no"?>
<svg width="250px" height="250px" viewBox="0 0 250 250" version="1.1" xmlns="http://www.w3.org/2000/svg" xmlns:xlink="http://www.w3.org/1999/xlink">
    <!-- Generator: Sketch 47.1 (45422) - http://www.bohemiancoding.com/sketch -->
    <title>ORAL</title>
    <desc>Created with Sketch.</desc>
    <defs></defs>
    <g id="Page-1" stroke="none" stroke-width="1" fill="none" fill-rule="evenodd">
        <g id="ORAL" fill-rule="nonzero">
            <g id="Oral_Roberts_Golden_Eagles_logo" transform="translate(0.000000, 51.000000)">
                <g id="Group" transform="translate(33.016518, 78.427203)">
                    <path d="M154.115513,67.2537594 C154.178544,66.5661297 154.228195,65.2524211 154.225837,64.3343759 C154.221233,62.5393195 153.929855,61.3131729 153.279102,60.3503383 L152.973689,59.8984654 L144.464062,57.7730519 C134.769448,55.3516383 131.306975,54.5558602 128.163839,54.0267323 L125.953739,53.6546876 L123.839062,54.1772639 C116.105943,56.0881887 106.407422,60.4217789 96.2246652,66.5159293 L93.4653181,68.1672977 L90.9930804,66.1096248 C75.5550223,53.2430835 53.7720982,41.5032338 27.4104911,31.8359406 C23.1080357,30.2571812 13.8097656,27.1539105 9.69285714,25.9242865 C6.11584821,24.8546248 0.662444196,23.3509782 0.361104911,23.3509782 C-0.485546875,23.3509782 0.702636719,22.8721759 5.47452567,21.2903842 C15.7647042,17.8794293 24.1743025,15.4937639 33.2702846,13.4049331 C39.9549944,11.8698504 48.1056641,10.3862338 53.917606,9.64679023 C55.4522042,9.45153872 56.7617746,9.27616429 56.8277623,9.25708008 C56.8937305,9.23799308 55.4243025,7.91517632 53.5624163,6.31752744 C50.7296875,3.88665526 50.222154,3.39605752 50.4526228,3.3110688 C51.3617746,2.97574586 59.4156529,1.86820789 63.9622489,1.45327932 C68.7831194,1.01331316 70.3724051,0.937101504 76.33976,0.859763158 C82.8245536,0.775710564 86.1120815,0.893616767 90.9575056,1.38400865 C98.0053571,2.09735752 105.038142,3.61750113 109.978153,5.49518158 C110.656124,5.75291579 111.225586,5.96378797 111.243638,5.96378797 C111.261691,5.96378797 111.060324,4.7090985 110.796164,3.17557368 C110.532017,1.64202105 110.348786,0.354532331 110.388993,0.31447218 C110.480831,0.222908308 114.173033,2.57953985 117.115974,4.60828045 C131.490974,14.5176038 141.477023,24.2307992 145.557659,32.2734308 C146.440458,34.0132654 147.193262,36.0827617 147.499902,37.6121414 L147.668011,38.4507617 L149.900153,40.5210925 C153.644713,43.9942241 156.103278,46.5406865 157.053474,47.930412 C158.784361,50.4618519 159.695494,52.9396 159.830259,55.4821677 C159.956055,57.8557316 159.941295,57.8955135 156.893876,63.3954383 C155.396247,66.0982466 154.131459,68.3491263 154.083329,68.397115 C154.035128,68.4451733 154.047266,67.9218876 154.110296,67.2342718 L154.115513,67.2537594 Z" id="Shape" fill="#A38C30"></path>
                    <path d="M79.7419085,4.53885517 C78.7231306,4.54272208 77.7448382,4.56121513 76.8544922,4.59536363 C73.414202,4.72729923 70.3645368,4.92695874 69.3133371,5.0889937 L68.7950893,5.16886641 L71.9291574,8.79305814 C73.6520926,10.7877198 75.0625279,12.4638476 75.0625279,12.5194867 C75.0625279,12.5747349 74.544601,12.6309847 73.9115792,12.6444577 C72.2458426,12.6799123 68.313365,13.0283118 65.017885,13.4323212 C51.5586217,15.0822987 38.6506975,18.4004754 28.2572824,22.8820656 C27.2597935,23.3121836 26.3808873,23.7267227 26.3041574,23.8033099 C26.211091,23.8962175 26.2343122,23.9176984 26.3739118,23.8676969 C27.509389,23.460989 44.2296596,20.7830653 49.392885,20.1807721 C50.0450893,20.104712 51.0809431,19.9760063 51.6947824,19.8947037 C52.7518136,19.7547018 53.954269,19.6213349 58.5535993,19.1337416 C74.0279297,17.4923882 90.9531529,17.3073882 102.825363,18.6496815 C106.388281,19.0522443 110.870843,19.7902552 111.382282,20.0586025 C111.523145,20.132494 111.671317,20.1600173 111.711719,20.1197304 C111.752121,20.0794449 111.404339,19.3233819 110.938686,18.4394297 C110.473047,17.5554774 110.117257,16.8321552 110.148228,16.8321552 C110.179199,16.8321552 111.699009,17.8764316 113.525321,19.152862 C115.351772,20.4292368 120.3893,23.7870425 124.720075,26.6147605 C133.488351,32.3396064 133.408133,32.2985725 134.194685,31.4589786 L134.598772,31.0278312 L134.824107,31.8238319 C134.948103,32.261656 135.258761,33.2614071 135.5143,34.0456402 C135.769824,34.8298037 135.936872,35.4713921 135.885686,35.4713921 C135.834515,35.4713921 135.413853,35.2272477 134.950809,34.9288552 C133.437835,33.9538496 133.667522,33.936824 132.295257,35.1266383 C127.681138,39.1272286 121.97606,41.1658451 115.381194,41.1705744 C111.895285,41.1730782 109.465039,40.7988357 106.458901,39.796706 C101.21476,38.0454654 96.6570033,34.4164052 94.6215681,30.3644879 C94.1011998,29.3296007 93.4650391,27.6812925 93.5864118,27.6812925 C93.6341267,27.6812925 93.6375432,27.6458796 93.594043,27.6025061 C93.3675781,27.3767087 87.664774,29.7920437 85.8839425,30.8681039 C85.500293,31.0998963 84.9352818,31.4247452 84.6283622,31.5902159 C83.6601004,32.1122636 78.1612863,35.8574565 75.9090541,37.5287159 C73.7205776,39.1528211 72.0149414,40.497479 69.6630999,42.452776 L68.3696429,43.5280711 L69.8696429,44.5316336 C70.6946289,45.0835039 71.8333705,45.8667772 72.4001953,46.2723027 L73.4307059,47.009632 L74.0211635,46.4910061 C78.1570452,42.8590249 81.7657227,39.916273 85.7401925,36.9340174 C87.8192941,35.3738971 88.1250977,35.1868106 88.2513532,35.3982392 C88.6574079,36.0782185 89.8451032,37.5361715 90.8584961,38.5983219 C94.107101,42.0032956 99.2690709,45.2197918 105.693876,47.8428971 C107.455036,48.5618794 108.029534,48.7296869 109.321108,48.9013475 C114.518234,49.5921208 121.580315,50.7838963 126.201688,51.7500693 C128.277581,52.1841238 133.742704,53.4515129 133.906348,53.5369189 C133.923772,53.5459602 134.038281,53.4009369 134.16084,53.2144347 C134.367104,52.9005606 134.363853,52.8306918 134.116699,52.2755249 C133.824093,51.6182742 133.098703,50.9052591 131.960868,50.1562317 C131.446861,49.8178486 129.135533,48.9299042 124.318429,47.2204347 C117.195522,44.6927505 116.390695,44.4069046 113.436733,43.3542129 C112.477609,43.012408 111.019322,42.4951869 110.196219,42.205029 C109.373103,41.9148711 108.721331,41.6558572 108.747977,41.6293452 C108.774568,41.6028332 110.640974,41.7079632 112.895299,41.8629877 C115.149763,42.0179982 118.532296,42.2491787 120.412179,42.3767174 C124.930176,42.6832332 129.646833,42.6803678 131.50007,42.3699016 C134.289551,41.9026723 135.406738,41.3721257 136.381208,40.052255 C137.259626,38.8625102 137.571666,37.9392211 137.571666,36.5294655 C137.571666,35.4326659 137.499623,35.1597561 136.172531,31.2298414 C135.402972,28.9510031 134.790876,27.0706798 134.812319,27.0512061 C134.849065,27.0178699 137.142397,29.0173527 139.559947,31.1904768 C140.478195,32.0158132 140.623912,32.1054617 140.496177,31.7675099 C139.635812,29.4914535 137.497294,26.2706452 134.932143,23.3877054 C132.920982,21.127367 126.625781,15.8651602 119.923772,10.8423407 C116.085045,7.96538205 114.414007,6.76941964 114.338253,6.84494972 C114.305845,6.87726769 114.46596,8.37071287 114.694113,10.1636828 C114.922266,11.9566527 115.109431,13.5393069 115.109905,13.6804911 C115.1113,13.8951467 115.002079,13.8545997 114.448061,13.4329945 C108.131376,8.6260546 99.778697,5.84340423 88.7435407,4.86999821 C86.2287528,4.64819295 82.8070173,4.52856889 79.7506557,4.54018355 L79.7419085,4.53885517 Z M138.011998,31.804795 C137.949986,31.8260714 138.30445,33.0150706 138.820717,34.5109416 C139.353627,36.0550657 139.806724,37.3287837 139.827525,37.3413025 C140.140332,37.5289732 143.121889,39.6628439 144.120494,40.4136935 C147.497307,42.9529228 150.758608,45.950201 152.759724,48.3533928 C153.988114,49.8285243 155.225126,51.8233251 155.463546,52.7132725 L155.630036,53.3345943 L155.674456,52.5046258 C155.698926,52.0481349 155.645843,51.2990935 155.556473,50.8400431 C155.328111,49.6672961 154.608636,47.9270582 153.850698,46.7146822 C153.2012,45.6756777 152.147154,44.6208439 147.11995,39.9787349 C144.653292,37.7010093 138.241881,31.9436146 138.019503,31.8064642 C138.016574,31.8046976 138.014202,31.8041552 138.012109,31.8048367 L138.011998,31.804795 Z" id="Shape" fill="#C7B582"></path>
                    <path d="M115.555246,22.8885338 C115.539648,22.8858214 115.529478,22.8869481 115.524735,22.8917887 C115.262291,23.1595936 114.681808,24.4670707 114.476772,25.2518602 C113.4476,29.1915256 116.058803,33.3701609 120.122559,34.2863977 C121.237068,34.5376778 122.86084,34.4550259 123.91469,34.0935109 C124.973758,33.7302154 125.696777,33.3432038 126.381487,32.7728891 C127.000865,32.2569338 127.935198,31.2055357 127.935198,31.0247086 C127.935198,30.9662723 127.599289,30.6959094 127.188602,30.4240289 L126.441741,29.9298564 L126.132478,30.6742519 C125.685352,31.749853 124.875516,32.5967218 123.780497,33.1343346 C122.924805,33.5543541 122.741127,33.5915489 121.520871,33.5910203 C120.353976,33.5904639 120.097042,33.5438606 119.407589,33.2065959 C118.543541,32.7839891 117.512221,31.7752801 117.079743,30.9302613 C116.640137,30.0711102 116.446847,28.8399004 116.612165,27.9524568 C116.749651,27.2143346 116.99827,26.4280846 117.094182,26.4280846 C117.120271,26.4280846 118.416881,26.7121083 119.9756,27.059185 C121.534319,27.4062617 122.83358,27.6664857 122.862458,27.6375812 C122.891448,27.6086739 121.280566,26.5001929 119.282938,25.1742992 C117.226018,23.8090827 115.789495,22.9294008 115.555399,22.8886451 L115.555246,22.8885338 Z M112.291574,23.9198184 C111.312319,23.9098034 109.482701,24.045375 107.837054,24.2767989 C105.224609,24.6441838 101.171317,25.385853 101.035435,25.5213481 C100.820619,25.7355308 102.082129,28.4732805 103.273019,30.3775286 C106.142578,34.966085 111.89202,38.4173782 117.787528,39.0907504 C119.403739,39.2753053 122.106585,39.1207398 123.753488,38.7495158 C126.794922,38.0639726 129.150251,36.8402602 131.237305,34.8615947 C131.952902,34.1831455 132.538393,33.5769992 132.538393,33.5143496 C132.538393,33.4127443 130.615123,32.101812 129.92832,31.7354286 C129.695159,31.6110195 129.576967,31.704165 129.043583,32.4344504 C127.943066,33.9412962 126.394866,35.0553301 124.538979,35.6755669 C119.521959,37.3522511 114.120452,34.3478511 112.799302,29.1459015 C112.533608,28.0998447 112.531557,26.0559842 112.795257,24.9675444 C112.906417,24.5085218 112.999595,24.0860124 113.00233,24.0286346 C113.005678,23.9592554 112.736286,23.9245158 112.291169,23.9199645 L112.291574,23.9198184 Z" id="Shape" fill="#FFFFFF"></path>
                </g>
                <path d="M125.092411,145.319308 C111.282422,133.635098 92.9969866,123.174947 70.2654018,113.969459 C60.1677455,109.877203 48.4643415,105.861451 38.3876116,103.032203 C36.4693638,102.493547 34.5255859,101.947018 34.0681362,101.817685 L33.2364258,101.58254 L37.9046735,100.025063 C55.1451869,94.2719801 70.2763253,90.5552883 84.9833566,88.4604763 C86.5946847,88.2308398 88.3695173,87.999562 88.927553,87.9465241 C89.4855469,87.8934861 89.970745,87.8038515 90.0057757,87.74735 C90.0408022,87.6908415 88.6345843,86.4159203 86.8809152,84.9142071 C85.1271484,83.4125079 83.6226842,82.1002598 83.5377232,81.9980229 C83.4114467,81.8463229 83.8874023,81.7309692 86.136356,81.3682301 C95.1457031,79.9150759 104.244615,79.2325233 113.06995,79.3476962 C124.423047,79.495891 133.339202,80.8153165 141.529771,83.5592977 C143.79442,84.3180203 144.34534,84.4594827 144.344782,84.2820635 C144.344782,84.1607355 144.153767,82.9698015 143.92115,81.6355898 C143.688532,80.3013365 143.516211,79.1289094 143.538211,79.0300109 C143.583984,78.8244105 143.67885,78.8817883 147.836342,81.6300259 C161.380287,90.5829132 172.063463,100.287206 177.003474,108.123973 C178.65805,110.748609 179.848898,113.453782 180.341783,115.706748 L180.600405,116.889079 L182.736565,118.894173 C183.911454,119.997009 185.848451,121.874759 187.040974,123.067105 C190.068597,126.09415 191.359194,128.070312 192.291532,131.106955 C192.627162,132.200124 192.667648,132.555936 192.675949,134.484804 L192.685156,136.640819 L189.973661,141.541372 C188.48231,144.236669 187.241378,146.421199 187.215988,146.395883 C187.190569,146.370553 187.242997,145.448488 187.332492,144.346834 C187.522838,142.003872 187.358245,140.839624 186.606864,139.214267 L186.163797,138.255869 L176.240806,135.804271 C166.371526,133.365888 163.752246,132.771106 160.645103,132.262704 L159.018011,131.996457 L157.557213,132.325576 C149.635617,134.1102 138.310561,139.205489 127.767871,145.728339 C127.128767,146.123738 126.563756,146.446083 126.512291,146.444665 C126.460822,146.443274 125.822307,145.937556 125.093345,145.320908 L125.092411,145.319308 Z M129.757868,139.655805 C131.777121,136.829338 132.355246,135.926316 132.296094,135.691241 C132.176949,135.217933 130.916057,133.889368 129.800419,133.061459 C126.845619,130.863714 123.091434,129.055444 117.420396,127.094165 L114.699972,126.151834 L118.327204,126.14474 C124.16635,126.133334 131.875753,126.441477 137.509682,126.911308 C144.77447,127.517176 155.323577,129.275135 164.285631,131.373702 C166.862919,131.977164 167.006055,131.996165 167.180441,131.758349 C167.46031,131.376721 167.402134,130.96431 166.980273,130.339413 C166.554436,129.708577 165.098577,128.487605 164.313979,128.103278 C164.034863,127.966559 158.95558,126.137966 153.02659,124.039815 C147.09774,121.941665 142.391406,120.206421 142.568164,120.183748 C142.744922,120.161144 145.681027,120.337715 149.092997,120.576129 C160.70572,121.387611 164.821233,121.274733 167.510965,120.070981 C168.938281,119.432342 170.165541,117.854737 170.571652,116.136741 C170.886733,114.803697 170.697796,113.879741 169.249079,109.668556 C168.515025,107.534797 167.937751,105.765613 167.966253,105.737237 C168.01543,105.688206 170.957324,108.220688 172.715555,109.825459 C173.165499,110.236159 173.562919,110.54298 173.598717,110.507288 C173.729715,110.376679 172.688002,108.213566 171.866574,106.910359 C169.038728,102.424318 166.348158,99.7411226 158.10346,93.1848895 C154.587835,90.377897 147.48683,85.0977466 147.249665,85.0977466 C147.215667,85.0977466 147.387374,86.6781752 147.631264,88.6099647 C147.87514,90.5417541 148.053209,92.1466639 148.026967,92.1765699 C148.000739,92.2065038 147.710868,92.0122677 147.382813,91.7449218 C145.38644,90.1180346 141.744699,88.0890158 138.615932,86.8605045 C129.803153,83.3997526 117.177595,82.1158805 103.646624,83.3065571 C102.629953,83.3960095 101.798131,83.5132564 101.798131,83.567115 C101.798131,83.6209681 103.20466,85.2920662 104.923689,87.2804684 L108.049247,90.895897 L105.586356,91.059462 C91.3090123,92.0076079 75.3101283,95.5112853 63.6974051,100.232541 C60.3907645,101.576921 58.8335658,102.253631 58.8310547,102.347383 C58.8300781,102.386354 59.9434989,102.784609 61.3055246,103.232379 C72.2154018,106.819292 86.4129464,113.396946 99.4012277,120.8811 C106.553292,125.002567 116.210658,132.710251 124.115234,140.606552 C125.690011,142.179608 127.016183,143.431488 127.062221,143.388506 C127.108225,143.345581 128.322531,141.663416 129.760742,139.650394 L129.757868,139.655805 Z M153.482757,114.458248 C152.29442,114.268992 151.569392,114.029159 150.47341,113.462712 C148.414955,112.398795 146.80279,110.507024 146.06702,108.291892 C145.733119,107.286661 145.688239,106.94021 145.693792,105.410482 C145.698117,104.235579 145.770006,103.45755 145.915667,103.011046 L146.131236,102.350332 L144.514328,102.350332 C143.50678,102.350332 141.974149,102.485015 140.447363,102.707716 C137.982799,103.0672 134.058133,103.797255 133.936203,103.918895 C133.753153,104.101406 135.309738,107.39467 136.281906,108.881625 L136.59608,109.36218 L135.952316,108.920558 C134.915485,108.209296 133.290765,106.664671 131.822294,104.993968 L131.395089,104.507961 L130.371456,104.768324 C125.154799,106.095177 119.049051,108.693106 116.184794,110.804888 C115.34774,111.421953 115.911537,110.670544 116.935435,109.804469 C121.287556,106.123247 129.185575,102.050604 135.576618,100.192119 C138.567829,99.3223132 140.672461,98.9362056 143.966964,98.6527244 L144.914174,98.5712424 L144.074177,96.9766258 C143.612165,96.0996006 143.311482,95.428607 143.405971,95.485498 C143.500474,95.5424363 145.021763,96.5947608 146.786551,97.8240093 C150.133231,100.155148 151.557757,101.096701 163.318359,108.752363 C164.584403,109.576503 165.819754,110.292314 166.063477,110.343084 C166.574023,110.449422 167.275349,110.150824 167.427846,109.762184 C167.493708,109.594321 167.74541,110.212819 168.203027,111.666989 C168.575739,112.851365 168.869057,113.827316 168.854827,113.835801 C168.840597,113.844286 167.479213,112.987861 165.829576,111.932666 C164.179883,110.877442 162.767355,110.0127 162.690625,110.01103 C162.613895,110.009333 162.394169,110.263813 162.202344,110.57656 C161.28856,112.066297 158.89096,113.759116 157.031306,114.227459 C155.99781,114.487752 154.344922,114.59508 153.483036,114.457846 L153.482757,114.458248 Z M156.231222,112.769323 C157.564858,112.494063 158.94202,111.730875 159.989314,110.686613 C160.515778,110.161714 160.946512,109.637858 160.946512,109.52249 C160.946512,109.297708 159.571554,108.302839 159.403823,108.40623 C159.348563,108.44028 159.261872,108.640861 159.211175,108.851969 C159.052232,109.513713 158.16603,110.655928 157.413881,111.168503 C156.661565,111.681217 155.383189,112.088426 154.534696,112.085588 C152.76935,112.079691 151.074874,111.039073 150.194573,109.420197 C149.739383,108.583093 149.716239,108.472552 149.719169,107.149288 C149.721261,106.216456 149.790165,105.615318 149.928432,105.324047 L150.134612,104.889728 L153.0643,105.551277 C155.658747,106.137115 156.263658,106.239255 156.052162,106.055673 C155.962054,105.977486 148.750265,101.173203 148.656655,101.12897 C148.521708,101.065243 147.737863,102.636929 147.497252,103.453711 C147.177595,104.538785 147.20346,106.542376 147.551632,107.666286 C148.277595,110.009666 150.437514,112.048282 152.89329,112.707745 C153.784738,112.947132 155.239411,112.973936 156.23118,112.769236 L156.231222,112.769323 Z M184.663142,136.511917 C184.663142,136.336223 182.512333,134.808526 181.664816,134.382192 C181.127079,134.111702 178.58404,133.144138 176.013588,132.232019 C173.443136,131.319941 170.660352,130.327492 169.829436,130.026624 C168.998619,129.725728 168.264425,129.479539 168.198019,129.479539 C168.131571,129.479539 168.20639,129.770559 168.364118,130.12626 C168.637877,130.743311 168.652344,131.100709 168.452386,132.306756 C168.415109,132.531538 169.323089,132.789467 176.362263,134.553741 C184.285533,136.539639 184.663044,136.628662 184.663044,136.51182 L184.663142,136.511917 Z M187.66077,135.113011 C188.460268,133.783445 188.77228,132.582962 188.763393,130.87053 C188.756836,129.604407 188.69608,129.234184 188.307031,128.088575 C187.657826,126.177094 186.872879,124.879034 185.500251,123.447718 C183.452818,121.312429 171.006669,109.944248 170.86716,110.08265 C170.836705,110.113014 171.491783,112.13309 172.322935,114.571752 L173.834096,119.005632 L173.434654,119.826253 C172.618987,121.501963 170.302121,123.220238 168.858064,123.220238 C168.515974,123.220238 165.010686,123.002369 161.068443,122.736066 C157.1262,122.469777 153.398661,122.218052 152.784821,122.176671 L151.66875,122.101447 L153.133594,122.652844 C153.939258,122.956105 159.840485,125.057009 166.247433,127.321521 C172.654381,129.586032 178.681166,131.722295 179.64029,132.068927 C182.421959,133.074019 184.217857,134.154002 185.7625,135.750566 L186.546038,136.560435 L186.852204,136.254058 C187.020605,136.085555 187.384222,135.572131 187.66024,135.113109 L187.66077,135.113011 Z M172.903516,123.031677 C173.37952,122.68186 174.003753,122.08207 174.290723,121.698828 C174.577679,121.315586 174.827665,121.017166 174.846247,121.03568 C174.864816,121.054208 175.071931,121.566268 175.306487,122.173611 C175.602344,122.939677 175.688421,123.32228 175.587542,123.422875 C175.507561,123.50262 174.676214,123.590335 173.740165,123.617793 L172.038156,123.667715 L172.903599,123.031677 L172.903516,123.031677 Z M5.31143973,77.9222782 C1.12854353,72.9328421 0.725223214,72.4070526 0.766936384,71.9994962 C0.792159598,71.7532932 2.37952009,61.6617519 4.29455915,49.5741579 C6.20959821,37.4865639 8.33822545,24.0288571 9.0250279,19.6681429 C9.71177455,15.3074286 10.3216239,11.5707068 10.3802316,11.3641466 C10.4550307,11.1006398 12.3778599,9.36962406 16.8314035,5.55681579 L23.1762695,0.125048872 L48.8724191,0.125048872 L74.5685686,0.125048872 L75.6702009,1.41170301 C76.2761021,2.11936278 78.3501674,4.58271429 80.2792969,6.88589474 L83.7868304,11.0734323 L78.8708147,41.7194474 L73.9547991,72.3654624 L72.2315848,73.8714737 C70.5909598,75.3041805 70.4751674,75.3779023 69.8864397,75.3779023 C68.2011719,75.3779023 53.1523438,76.871812 45.3635603,77.8121128 C33.1369978,79.2879398 19.6060268,81.3952707 11.1699219,83.1381654 L9.9008231,83.4003925 L5.31056083,77.9235579 L5.31143973,77.9222782 Z M46.0327009,65.6288195 C46.7776786,65.0112256 47.3873326,64.4687444 47.3873326,64.4228421 C47.3873326,64.3772695 48.9888951,54.2112594 50.9462054,41.8319774 C52.9036551,29.4524173 54.5172154,19.1785188 54.5318638,19.0018647 C54.5495243,18.7891008 54.2776088,18.3426526 53.7282366,17.6824391 L52.8979213,16.6845797 L41.7720843,16.6812414 C35.6529436,16.6794053 30.6462472,16.7067255 30.6462472,16.7419492 C30.6462472,16.7771729 31.9328823,18.3387913 33.5054827,20.2122988 L36.3647182,23.6185244 L34.3991769,36.040092 C33.3181083,42.8720168 31.8543945,52.1156183 31.1466657,56.5806559 L29.8596959,64.699374 L30.695731,65.7263744 L31.5317662,66.7533747 L38.1045898,66.7533747 L44.6774135,66.7533747 L46.0324079,65.6297988 L46.0327009,65.6288195 Z M223.794978,83.1453985 C222.66084,82.8779831 213.631473,81.2172256 209.983594,80.6051955 C197.310742,78.4788083 181.539118,76.4792782 169.874777,75.519782 C166.950251,75.2792541 167.264146,75.4147089 165.906585,73.8073496 C164.930357,72.6515586 164.719182,72.3209511 164.776451,72.0380263 C164.815179,71.8466695 166.389732,61.9880752 168.275474,50.1301316 C170.161217,38.2720489 172.078069,26.2220113 172.53524,23.3538158 C172.992397,20.4849248 173.6226,16.5242556 173.935631,14.5522669 L174.504869,10.9668835 L169.955762,5.54568797 L165.407771,0.125048872 L184.798117,0.125048872 L204.188463,0.125048872 L204.117829,0.507567669 C204.07899,0.717953008 202.949944,7.8067218 201.608901,16.2603872 C200.267801,24.7140526 198.761802,34.1970414 198.262221,37.3336955 C197.762653,40.4703496 196.578348,47.9180602 195.630385,53.8835451 L193.906752,64.7310827 L194.745117,65.7416278 L195.583482,66.7521729 L201.991127,66.7521729 L208.398772,66.7521729 L209.680259,65.6232556 L210.961733,64.4943383 L216.084222,32.4142256 C218.901604,14.7696767 221.208803,0.286819549 221.211175,0.229789474 C221.213546,0.172411654 227.522838,0.125466165 235.231822,0.125466165 C246.386119,0.125466165 249.234333,0.160968083 249.18411,0.299338346 C249.121429,0.468731579 248.013588,7.37398872 243.119657,38.0991504 C238.252469,68.6561429 237.654255,72.3867444 237.614774,72.4270827 C237.59255,72.449241 234.756934,74.9046917 231.313435,77.883609 C224.666392,83.6337707 224.967453,83.4230376 223.796833,83.1469286 L223.794978,83.1453985 Z M83.0165179,74.0414511 C83.0639509,73.8202857 84.4548549,65.1558872 86.1080357,54.7903233 C87.7621931,44.4240639 89.4901507,33.594609 89.9481585,30.7264135 C90.4060826,27.8575226 91.304841,22.2553609 91.9453683,18.2771654 L93.1100307,11.0440827 L88.6238421,5.68881955 C86.1564872,2.74342481 84.099428,0.270962406 84.0526925,0.194458647 C83.996024,0.101797293 95.9098354,0.0785790977 119.739076,0.124909774 L155.510561,0.194458647 L160.043206,5.60703008 C162.53623,8.5838609 164.577246,11.0876203 164.57906,11.1709398 C164.580734,11.2541968 163.625795,17.3797068 162.45685,24.7831842 L160.331571,38.2439511 L156.5619,41.4749135 C154.488658,43.2518872 152.276465,45.1532143 151.646024,45.6998684 L150.499763,46.6939444 L153.983301,50.8298767 C155.899316,53.1046812 157.500042,55.0193617 157.540778,55.0848767 C157.60293,55.1851439 157.065681,58.660106 154.816588,72.7057789 C154.678223,73.5699237 154.539369,74.302482 154.508036,74.3337789 C154.476716,74.3650133 152.821094,74.3014151 150.829046,74.1924417 C144.880246,73.8670504 141.020452,73.7216098 133.744782,73.5486695 C129.946652,73.4583937 126.821931,73.3723771 126.801004,73.3575075 C126.780024,73.3426449 127.329339,69.7817218 128.021708,65.4443759 C128.709487,61.1086992 129.275893,57.4629474 129.275893,57.3447143 C129.275893,57.2266565 128.857701,56.6039075 128.346568,55.9608447 L127.417439,54.7924237 L120.758398,54.7924237 L114.099358,54.7924237 L113.961807,55.5922357 C113.886154,56.0321323 113.208737,60.2173748 112.456505,64.8928673 L111.08869,73.3936868 L107.033723,73.4864275 C99.6669545,73.6549166 90.8367369,73.9963876 84.5127972,74.357388 L82.9275572,74.4478767 L83.0114118,74.0440064 L83.0165179,74.0414511 Z M131.320089,36.9371278 L132.844503,35.6418774 L134.20127,27.1887684 L135.558036,18.7356594 L134.634361,17.706656 L133.709417,16.6773327 L123.613156,16.6773327 C118.059305,16.6773327 113.515499,16.7107162 113.515499,16.7524455 C113.515499,16.7937742 114.739383,18.2804342 116.235226,20.0560169 C117.827162,21.9457989 118.955232,23.4028477 118.95565,23.5699041 C118.956069,23.7269038 118.452944,27.0328816 117.837681,30.9164906 C117.222433,34.8000996 116.754478,38.0348177 116.797782,38.1046447 C116.843456,38.178329 119.589216,38.2317467 123.335728,38.2318399 L129.794992,38.231979 L131.319406,36.9367286 L131.320089,36.9371278 Z" id="Shape" fill="#091F42"></path>
            </g>
        </g>
    </g>
</svg>