<svg width="500" height="500" viewBox="0 0 500 500" fill="none" xmlns="http://www.w3.org/2000/svg">
<g clip-path="url(#clip0)">
<path d="M429.392 130.731C437.793 131.996 445.881 133.276 453.47 134.572V55.6057C445.522 54.2316 437.433 52.9355 429.392 51.7332V130.731ZM434.701 57.9012C439.198 58.5882 443.711 59.3222 448.192 60.0717V128.31C443.804 127.592 439.292 126.889 434.701 126.171V57.9012Z" fill="#FFDA00"/>
<path d="M146.443 90.6464L154.173 90.0374L150.316 71.3303L146.443 90.6464Z" fill="#FFDA00"/>
<path d="M343.289 72.3767C349.972 72.8607 356.968 73.4385 364.198 74.0944V43.9882C357.312 43.348 350.316 42.7546 343.289 42.2549V72.3767ZM348.583 47.9544L358.889 48.8133V68.3167C355.391 68.0044 351.94 67.7233 348.583 67.4735V47.9544Z" fill="#FFDA00"/>
<path d="M191.228 160.181C197.325 157.568 203.259 154.59 208.998 151.265L191.228 160.181ZM312.355 160.29C324.66 160.806 335.56 161.524 346.522 162.274L357.905 163.054V117.77L349.941 117.177V112.43C358.67 113.132 367.493 113.991 376.487 114.866L380.625 114.975L388.433 109.322V145.753L391.556 148.751C394.148 151.218 396.709 153.857 399.613 156.824C402.127 159.416 404.641 162.008 407.421 164.756L410.013 166.943L413.058 167.38C432.062 170.05 448.973 172.548 463.417 176.062L468.992 177.046L472.505 174.75C478.22 171.044 483.946 167.401 489.682 163.819L494.648 160.696L494.492 42.3017L491.634 39.366C486.356 33.8851 480.61 27.9669 474.457 21.7364L472.193 19.7064L469.476 19.0818C454.407 15.6152 436.981 12.6171 417.821 10.0094L413.636 9.54091L410.279 11.852C406.25 14.6939 401.815 17.8482 397.568 20.8776C393.195 16.7552 388.808 12.6327 384.186 8.38538L381.453 6.1524L378.236 5.87133C354.954 3.66958 330.344 2.12367 305.047 1.21799L294.023 0.843223V46.2836L301.909 46.6115V114.194L293.195 113.882C284.529 113.57 275.285 113.367 265.681 113.226C263.214 113.226 260.778 113.226 258.327 113.226V45.2842H266.134V0H248.63C236.871 0 224.785 0.140537 212.715 0.437227L202.315 0.671455V45.862H210.122V113.663L202.049 113.96C194.596 79.3671 187.142 44.847 179.688 10.3997L177.768 1.56152L168.726 2.02998C155.672 2.71705 142.758 3.59151 130.313 4.6065L123.411 5.16864L117.555 5.71518C102.58 7.12055 88.1674 8.83823 74.7071 10.6496L69.1324 11.4304L58.436 13.07C42.4304 15.6152 27.9394 18.5977 15.3691 21.8613L6 24.3285V70.2686L15.6034 68.3791L39.6352 177.967L52.4085 175.312C63.2455 173.064 75.4254 170.971 88.6202 169.066L94.8663 168.176L101.112 167.395C114.307 165.834 128.408 164.272 143.086 163.117L151.581 162.445L159.154 161.946C169.382 161.259 180.047 160.665 190.947 160.212L312.355 160.29ZM296.787 152.655C301.827 155.479 307.013 158.033 312.324 160.306L296.787 152.655ZM208.998 151.265V120.581L216.899 120.315V39.2723L208.998 39.5378V7.19863L212.886 7.10493C224.973 6.82386 237.027 6.68332 248.661 6.68332H259.591V38.7883H251.784V119.831L265.838 119.909C275.207 120.034 284.435 120.253 293.18 120.565L297.006 120.706V152.639L208.998 151.265ZM67.4928 57.7764L70.5066 57.3392L65.9469 79.3723L61.7308 60.5091L61.356 58.7133L67.4928 57.7764ZM89.0887 159.681L88.5265 162.398L85.7627 162.804C72.4741 164.678 60.138 166.786 49.1293 169.051L44.2261 170.097L20.1786 60.3529L12.1368 61.9144V29.3879L15.1193 28.6227C27.4866 25.4997 41.7745 22.5484 57.5615 19.9875L62.2149 19.238V52.9825L55.0006 54.1224L56.5621 61.3835L62.1212 86.243L66.0718 104.622L75.8157 57.4172L77.1586 50.7339L70.3504 51.7333V18.0356L73.7701 17.5671C87.0587 15.7245 101.378 14.0537 116.306 12.6796L120.631 12.2736V45.2842L112.558 46.1899C104.673 84.1349 96.8807 121.799 89.0887 159.619V159.681ZM204.985 153.029L201.144 153.154C186.621 153.654 172.349 154.357 158.717 155.278L154.485 155.559V123.36L161.481 122.861L160.591 118.676C153.689 119.176 146.834 119.738 139.979 120.347L139.104 124.61L146.178 123.969V156.152L142.524 156.449C127.799 157.714 113.527 159.088 100.285 160.837L95.8345 161.383V129.325L103.642 128.357L108.295 106.184C114.651 75.5621 121.037 44.7845 127.362 14.4285L127.986 11.524L130.922 11.243C143.18 10.228 156.031 9.36914 169.117 8.69769L172.49 8.51031L173.208 11.8207C181.047 48.1001 188.896 84.442 196.756 120.846L204.969 120.55L204.985 153.029ZM486.059 158.198C480.344 161.831 474.619 165.506 468.883 169.222L467.555 170.066L464.573 169.55C450.191 166.052 433.155 163.538 413.979 160.837L412.855 160.681L411.778 159.76C409.279 157.339 406.796 154.778 404.329 152.233C401.487 149.329 398.801 146.565 396.116 143.988L395.038 142.973V96.3304C389.895 100.036 384.753 103.763 379.61 107.511L378.533 108.307H376.862C365.76 107.167 354.454 106.168 343.274 105.34V123.36L351.237 123.969V155.981L346.99 155.684C333.124 154.731 318.883 153.997 304.579 153.498L300.753 153.357V120.924L308.639 121.252V40.2092L300.753 39.8813V7.80762L304.876 7.94816C329.985 8.807 354.47 10.3373 377.643 12.4922L378.829 12.6015L379.985 13.5384C385.648 18.8372 391.311 24.162 396.974 29.5128C402.455 25.609 408.67 21.1899 414.151 17.3329L415.416 16.4428L416.978 16.6458C435.95 19.2224 453.111 22.2361 468.024 25.609L469.023 25.8432L469.991 26.7021C475.816 32.6515 481.547 38.5384 486.809 44.0194L487.793 45.0187L487.918 157.027L486.059 158.198Z" fill="#FFDA00"/>
<path d="M169.335 12.6483C177.393 49.9063 185.456 87.2267 193.523 124.61V124.953H193.883L200.956 124.656V149.157C186.294 149.656 172.068 150.375 158.389 151.28V127.03C160.841 126.843 163.308 126.671 165.775 126.515H166.259L166.166 126.062L163.792 114.913V114.553H163.417C154.891 115.147 146.006 115.849 137.028 116.677H136.715V116.974L134.279 128.513L134.17 129.091H134.732L142.227 128.42V152.498C127.299 153.701 113.105 155.153 99.8008 156.824V132.823C102.096 132.527 104.485 132.261 106.703 131.996H106.999V131.683C115.088 92.9575 123.208 53.732 131.25 15.1936C143.492 14.1943 156.234 13.3354 169.335 12.6483V12.6483ZM141.353 95.253L159.248 93.9413L155.032 74.3129L150.66 54.2473L150.222 52.3267L149.832 54.2473L141.353 95.253ZM173.083 7.80762L169.101 8.02623C156.078 8.69769 143.227 9.58775 130.891 10.5715L127.409 10.8682L126.69 14.2879C119.57 48.3916 112.293 83.4635 105.266 117.349L103.111 127.733L99.2386 128.201L95.1318 128.716V162.164L100.394 161.508C113.792 159.822 128.002 158.385 142.555 157.199L146.865 156.855V123.204L141.853 123.673L140.088 123.829L140.666 121.034C147.084 120.472 153.611 119.941 160.107 119.472L160.591 122.174L158.061 122.361L153.736 122.689V156.293L158.733 155.965C172.349 155.044 186.622 154.403 201.144 153.841L205.672 153.685V119.8L200.816 119.972L197.302 120.112C189.495 83.8851 181.687 47.7358 173.879 11.6646L173.083 7.80762ZM147.193 90.0999L150.316 74.8282L150.425 75.2811L153.548 89.6315L147.209 90.0999H147.193Z" fill="white"/>
<path d="M116.681 16.6303V41.6147L114.698 41.8333C112.996 42.0363 111.262 42.2081 109.576 42.4267H109.264V42.739C101.248 81.3295 93.2423 119.998 85.2473 158.745C71.8651 160.634 59.529 162.758 48.3641 165.069L47.3491 165.241C39.3333 128.805 31.3435 92.4059 23.3797 56.0432L23.1767 55.7153H22.7707L16.0562 57.0426V32.4642C28.2673 29.3411 42.3835 26.4523 58.2173 23.907V49.5941C55.7033 49.9845 53.1736 50.3905 50.6596 50.8121L50.2067 50.8902L50.316 51.3274L51.5184 56.8552L52.6739 62.2112L55.3441 74.2037L58.2329 87.1175L63.0581 109.307L65.7595 121.799L66.1811 123.751L66.5715 121.799C69.1324 109.473 71.6829 97.1477 74.2229 84.8221C76.0343 75.963 77.8613 67.1144 79.7039 58.2762L82.0462 46.6428L82.1711 46.0494L81.5777 46.1431L74.3166 47.1894V21.5023C87.5428 19.6597 101.706 18.0201 116.681 16.6303V16.6303ZM121.365 11.4929L116.244 11.9614C101.425 13.3511 87.1055 14.9907 73.6764 16.8646L69.6321 17.4267V52.5142L74.9881 51.749L76.2685 51.5304L75.1286 57.23L72.7395 68.8165L69.6165 83.8071C68.4297 89.5535 67.2377 95.3155 66.0406 101.093L62.777 86.0869L59.8725 73.1419L57.218 61.165L56.0624 55.8402L55.8282 54.6534L58.9512 54.1694L62.9175 53.5604V18.3949L57.5303 19.2849C41.4934 21.8614 27.1898 24.7659 14.9319 27.9358L11.4185 28.8415V62.8358L17.0243 61.7115C17.8988 61.5242 18.7576 61.3524 19.6321 61.1962L31.2967 114.288L42.7114 166.256L43.6795 170.706L48.1611 169.847H48.7233H49.0512H49.2542C60.4191 167.536 72.677 165.428 85.8407 163.601L89.1043 163.133L89.7757 159.9L90.7283 155.216C98.1299 119.597 105.672 82.8702 113.167 46.8458L115.307 46.5491L117.259 46.3305L121.428 45.8621V11.5085L121.365 11.4929Z" fill="white"/>
<path d="M304.673 11.8676C330.329 12.7889 354.642 14.3504 377.268 16.4272C383.077 21.8509 388.891 27.3163 394.71 32.8232V91.599C388.87 95.7631 383.041 99.9896 377.221 104.279C364.854 103.014 352.237 101.921 339.745 101.031H339.307V126.968H339.698C342.243 127.155 344.757 127.327 347.271 127.53V151.655C333.577 150.718 319.367 149.969 304.72 149.453V125.062C307.203 125.156 309.685 125.25 312.168 125.375H312.605V36.3679H312.199L304.72 36.04V11.8676H304.673ZM368.133 78.4353V40.3654H367.758C358.53 39.4909 349.114 38.7102 339.745 38.0543H339.307V76.0618H339.698C348.755 76.7021 358.171 77.4984 367.68 78.3729H368.133V78.4353ZM299.988 7.01123V40.5996L304.501 40.7714L307.874 40.9119V120.55L304.845 120.425L299.988 120.237V153.966L304.501 154.138C318.648 154.638 332.921 155.372 346.896 156.324L351.909 156.668V123.235L347.599 122.892L343.945 122.611V106.043C354.782 106.839 365.806 107.823 376.737 108.948L378.533 109.119L380.001 108.057C385.247 104.2 390.931 100.062 397.443 95.4091L399.395 94.0037V30.7932L397.927 29.4191C392.415 24.2036 386.481 18.6134 380.454 12.9919L379.282 11.8988L377.721 11.7583C354.298 9.61898 329.829 8.07307 304.876 7.183L300.019 7.01123H299.988ZM343.945 71.7052V43.02C350.582 43.5197 357.109 44.0662 363.402 44.5815V73.2979C356.672 72.7045 350.16 72.158 343.945 71.7364V71.7052Z" fill="white"/>
<path d="M416.415 20.5653C435.341 23.1262 452.33 26.1399 467.118 29.466C472.927 35.3997 478.658 41.2711 483.92 46.752V154.825C478.184 158.448 472.458 162.123 466.743 165.849L465.307 165.615C450.847 162.086 433.733 159.572 414.557 156.871C409.357 151.796 404.126 146.112 398.942 141.115V33.0262C404.485 29.06 410.887 24.5003 416.478 20.534L416.415 20.5653ZM457.515 139.21V52.2642H457.171C446.834 50.4841 436.34 48.7976 425.941 47.2673H425.456V134.151H425.816C436.387 135.712 446.881 137.383 457.046 139.147H457.546L457.515 139.21ZM415.213 15.6152L413.651 16.6771C408.467 20.3154 402.237 24.7502 396.084 29.1693L394.132 30.5746V143.004L395.569 144.394C398.27 146.986 401.034 149.828 403.72 152.592C406.172 155.106 408.701 157.698 411.2 160.134L412.308 161.196L413.87 161.415C433.795 164.225 450.16 166.646 464.151 170.066H464.292H464.432L465.26 170.206L465.9 170.315L467.711 170.628L469.273 169.628C475.597 165.553 481.203 161.946 486.45 158.698L488.62 157.324V44.8626L487.324 43.5041C482.421 38.4135 476.909 32.7452 470.475 26.1868L469.507 25.203L468.164 24.8907C453.08 21.5022 435.887 18.4728 417.055 15.9275L415.213 15.6152ZM430.11 130.044V52.5609C437.668 53.7008 445.272 54.9188 452.768 56.1992V133.713C445.678 132.511 438.089 131.309 430.11 130.106V130.044Z" fill="white"/>
<path d="M248.63 10.6497H255.563V34.8221H247.661V123.829H255.844C259.061 123.829 262.308 123.829 265.541 123.829C274.582 123.938 283.748 124.157 292.789 124.469V150.375C262.043 149.141 235.138 148.954 221.787 148.954C216.119 148.954 212.902 148.954 212.902 148.954V124.407C215.416 124.407 217.899 124.251 220.382 124.204H220.788V35.1968H220.366C217.883 35.1968 215.4 35.3217 212.902 35.3998V11.0713C224.613 10.811 236.512 10.6705 248.598 10.6497H248.63ZM248.598 5.96509C237.043 5.96509 225.332 6.09001 212.793 6.3867L208.217 6.48039V40.2874L213.058 40.1156L216.103 40.0219V119.66H215.01H212.761L208.217 119.8V153.717H212.902C212.902 153.717 216.119 153.717 221.74 153.717C235.029 153.717 261.902 153.904 292.555 155.137L297.427 155.325V120.003L292.899 119.847C283.858 119.535 274.66 119.316 265.556 119.207H258.514H252.268V39.5691H260.169V5.99632H248.551L248.598 5.96509Z" fill="white"/>
<path d="M142.227 128.342L134.732 129.013H134.17L134.279 128.435L136.653 116.911V116.615H136.965C145.944 115.787 154.829 115.053 163.355 114.491H163.73V114.85L166.103 125.999L166.197 126.452H165.713C163.246 126.608 160.778 126.78 158.327 126.968V151.281C172.006 150.375 186.231 149.719 200.894 149.157V124.657L193.82 124.953H193.461V124.61C185.445 87.2164 177.403 49.896 169.335 12.6484C156.219 13.3355 143.492 14.21 131.25 15.1937C123.208 53.7321 115.088 92.9576 107.062 131.637V131.949H106.765C104.47 132.214 102.159 132.48 99.8633 132.776V156.777C113.167 155.106 127.362 153.654 142.29 152.452L142.227 128.342ZM149.832 54.2162L150.222 52.2955L150.66 54.2162L155.032 74.2818L159.248 93.9101L141.353 95.2531L149.832 54.2162Z" fill="#5B3100"/>
<path d="M109.248 42.5046H109.576C111.262 42.286 112.996 42.1142 114.698 41.9112L116.681 41.6926V16.7083C101.706 18.098 87.5427 19.7376 74.3166 21.5802V47.1892L81.5777 46.143L82.1711 46.0493L82.0461 46.6427L79.7039 58.276C77.8717 67.1247 76.0447 75.9733 74.2229 84.8219C71.662 97.1163 69.1115 109.442 66.5714 121.799L66.1811 123.766L65.7595 121.799L63.058 109.307L58.2173 87.0861L55.3285 74.1723L52.6583 62.1798L51.5027 56.8238L50.3004 51.296L50.1911 50.8588L50.6439 50.7807C53.158 50.3591 55.6876 49.9531 58.2017 49.5627V23.9069C42.4303 26.4522 28.3141 29.3254 16.0405 32.464V57.1205L22.7551 55.7932H23.1611L23.2548 56.1992C31.229 92.5202 39.2187 128.919 47.2242 165.397L48.2392 165.225C59.404 162.914 71.7401 160.79 85.1223 158.901C93.1382 120.144 101.144 81.4751 109.139 42.895L109.248 42.5046Z" fill="#5B3100"/>
<path d="M304.673 11.8677V36.0713L312.153 36.3992H312.559V125.406H312.059C309.576 125.281 307.093 125.187 304.61 125.094V149.454C319.257 149.969 333.467 150.718 347.162 151.655V127.561C344.648 127.358 342.134 127.186 339.588 126.999H339.198V100.984H339.635C352.128 101.874 364.791 102.967 377.112 104.232C382.942 99.9637 388.771 95.7371 394.601 91.5522V32.7921C388.771 27.2747 382.957 21.8094 377.159 16.3961C354.673 14.3505 330.329 12.789 304.673 11.8677ZM368.086 40.7559V78.4354H367.633C358.124 77.561 348.708 76.7646 339.651 76.1244H339.261V37.992H339.698C349.067 38.6478 358.436 39.4286 367.712 40.303H368.086V40.7559Z" fill="#5B3100"/>
<path d="M467.118 29.4659C452.362 26.1398 435.341 23.1261 416.415 20.5652C410.825 24.5002 404.423 29.0599 398.879 33.0574V141.115C404.095 146.112 409.326 151.796 414.495 156.871C433.67 159.572 450.784 162.086 465.244 165.615L466.681 165.849C472.427 162.133 478.153 158.458 483.858 154.825V46.7519C478.658 41.271 472.896 35.3997 467.118 29.4659ZM457.452 52.6077V139.272H456.952C446.849 137.508 436.356 135.837 425.722 134.275H425.363V47.1267H425.847C436.215 48.6882 446.709 50.3435 457.077 52.1236H457.421L457.452 52.6077Z" fill="#5B3100"/>
<path d="M247.661 123.829V34.8221H255.563V10.6809H248.63C236.543 10.6809 224.645 10.8214 212.933 11.1025V35.4623C215.432 35.3842 217.914 35.3061 220.397 35.2593H220.819V124.266H220.413C217.93 124.266 215.447 124.391 212.933 124.469V148.985C212.933 148.985 249.004 148.61 292.821 150.375V124.532C283.779 124.219 274.613 124.001 265.572 123.891C262.34 123.891 259.092 123.891 255.875 123.891L247.661 123.829Z" fill="#5B3100"/>
<path d="M383.545 359.01L379.719 365.521C364.026 392.239 337.043 430.981 297.162 463.491C292.477 467.239 288.292 470.487 284.232 473.438C281.109 475.703 277.892 477.967 274.598 480.184C271.303 482.402 267.836 484.635 264.495 486.696L251.565 494.363L245.319 490.553C239.979 487.43 234.388 483.947 228.814 480.184C225.956 478.264 222.974 476.171 219.195 473.438L218.305 472.767C215.556 470.737 213.011 468.801 210.497 466.88L206.14 463.429L204.844 462.32C178.679 440.413 155.783 414.873 136.856 386.477L136.496 385.946C131.937 379.138 127.611 372.283 123.661 365.553L119.835 358.604V184.572H120.428C120.803 184.572 158.327 179.325 194.585 162.929C215.214 153.658 234.295 141.271 251.159 126.202L251.721 125.671L252.315 126.234C269.205 141.266 288.301 153.621 308.935 162.867C339.292 176.608 370.928 182.651 383.186 184.619L383.623 184.806L383.545 359.01Z" fill="white"/>
<path d="M383.03 180.528L381.734 180.325C363.188 177.336 344.959 172.631 327.283 166.271C321.459 164.147 315.884 161.899 310.716 159.541C306.359 157.589 301.955 155.387 297.224 152.826C282.732 145.05 269.191 135.618 256.874 124.719L251.721 119.847L246.568 124.734C234.328 135.581 220.872 144.971 206.468 152.717C201.784 155.325 197.208 157.542 192.727 159.572C187.418 161.992 181.796 164.257 175.691 166.458C158.058 172.775 139.877 177.438 121.381 180.387L115.135 181.074V360.493L119.897 368.66C124.082 375.718 128.408 382.589 132.796 389.101L133.186 389.694C152.172 418.185 175.147 443.805 201.409 465.771L202.767 466.958L207.03 470.3C209.826 472.47 212.308 474.375 214.916 476.265L215.697 476.874C219.679 479.763 222.677 481.839 225.488 483.729C230.797 487.289 236.418 490.803 242.102 494.175L251.628 499.984L267.758 490.319C271.069 488.289 274.504 486.071 277.908 483.807C281.312 481.543 284.982 478.904 287.589 476.999C291.696 474.047 295.959 470.753 300.613 467.005C340.978 434.041 368.102 395.331 383.748 368.707L388.183 360.899V181.324L383.03 180.528ZM381.609 358.838L377.83 365.24C362.355 391.583 335.669 429.7 296.49 461.774C291.899 465.459 287.746 468.66 283.748 471.565C280.625 473.798 277.502 476.031 274.27 478.217C271.037 480.403 267.602 482.589 264.307 484.603L251.565 492.177L245.319 488.429C240.057 485.306 234.576 481.918 229.048 478.217C226.237 476.327 223.286 474.25 219.554 471.565L218.679 470.909C215.978 468.91 213.48 466.989 211.028 465.1L206.734 461.696L205.453 460.634C179.684 439.032 157.132 413.861 138.48 385.884L138.136 385.368C133.639 378.67 129.391 371.908 125.488 365.272L121.74 358.432V186.992H122.318C122.677 186.992 159.638 181.824 195.366 165.662C215.704 156.525 234.52 144.323 251.159 129.482L251.706 128.966L252.299 129.513C268.903 144.329 287.69 156.501 307.999 165.6C337.902 179.138 369.054 185.087 381.156 187.024L381.593 187.227L381.609 358.838Z" fill="#5B3100"/>
<path d="M291.759 216.927C291.556 215.256 291.29 213.57 290.994 211.899C290.744 210.509 290.494 209.135 290.182 207.745C290.15 207.493 290.103 207.242 290.041 206.995C289.901 206.324 289.776 205.684 289.62 205.044C289.463 204.403 289.432 204.232 289.354 203.826C288.059 198.614 286.384 193.505 284.342 188.538C284.331 188.508 284.331 188.475 284.342 188.445C279.665 177.786 273.446 167.874 265.884 159.025C263.776 156.511 261.762 154.341 259.935 152.327C259.781 152.173 259.635 152.011 259.498 151.842C258.217 150.5 257.062 149.344 256.031 148.329C253.439 145.768 251.784 144.347 251.784 144.347C252.518 145.674 253.22 147.002 253.876 148.313C254.532 149.625 255.157 150.984 255.734 152.311C256.703 154.544 257.577 156.761 258.311 158.979C259.754 163.229 260.8 167.605 261.434 172.049C263.917 188.741 260.325 204.372 254.11 218.894L253.673 219.941C247.209 234.791 238.058 248.719 229.001 263.569L227.908 265.35C227.658 265.724 227.44 266.115 227.205 266.49C227.147 266.599 227.079 266.704 227.002 266.802L226.721 267.317C226.44 267.77 226.159 268.238 225.909 268.691L225.55 269.316C224.535 271.002 223.551 272.673 222.568 274.391C221.584 276.109 220.491 278.014 219.445 279.872C218.149 282.23 216.899 284.556 215.666 287.07C212.271 293.735 209.277 300.597 206.703 307.62C203.609 316.068 201.345 324.796 199.941 333.682C199.473 336.805 199.207 339.819 198.989 343.051C198.989 343.473 198.989 343.879 198.989 344.3C198.989 345.284 198.848 346.283 198.817 347.283C198.817 347.283 198.817 347.392 198.817 347.47C198.817 349.032 198.817 350.593 198.817 352.155C198.817 352.436 198.817 352.717 198.817 353.014C198.817 353.685 198.911 354.372 198.926 355.059C198.926 356.777 199.036 358.479 199.207 360.228C200.58 375.965 205.855 391.11 214.557 404.294C215.152 400.821 216.024 397.4 217.165 394.066C221.115 382.105 229.47 365.756 245.866 341.646C247.739 338.929 249.691 336.118 251.768 333.167C252.237 332.495 252.689 331.824 253.189 331.137L255.797 327.327C276.097 297.658 290.463 267.317 292.337 236.555C292.707 230.307 292.55 224.039 291.868 217.817C291.759 217.411 291.759 217.177 291.759 216.927Z" fill="#FFDA00"/>
<path d="M305.25 216.255C305.982 223.122 306.144 230.037 305.734 236.93C305.578 239.179 305.375 241.427 305.125 243.691C302.658 265.678 294.601 288.257 280.297 313.117C276.3 320.066 271.834 327.17 266.868 334.494L264.182 338.382L263.667 339.101L262.699 340.506C260.653 343.348 258.764 346.127 256.952 348.798C242.711 369.675 233.811 385.806 229.751 398.11C228.867 400.612 228.168 403.174 227.658 405.778C227.127 408.401 226.815 410.041 226.456 412.617C226.19 414.585 225.831 417.895 225.675 420.144C227.721 425.328 229.626 430.231 231.359 434.681L235.95 446.362L234.95 445.596C235.138 446.08 235.341 446.596 235.528 447.049C232.53 444.847 229.641 442.583 226.784 440.318C191.681 412.071 167.04 377.639 152.33 352.873C152.065 352.42 151.799 351.999 151.565 351.561L151.487 351.452V238.054L152.143 239.616V237.836L169.163 280.106L187.902 326.702C189.419 318.734 191.576 310.901 194.351 303.279C197.098 295.75 200.294 288.392 203.923 281.246C205.235 278.67 206.562 276.155 207.936 273.61C209.029 271.643 210.107 269.706 211.168 267.895C212.23 266.084 213.48 263.913 214.635 261.961L215.182 261.056L215.728 260.103L215.994 259.666L216.899 258.198L217.758 256.808L222.614 248.891L222.911 248.407L210.606 217.177C185.264 215.555 160.108 211.752 135.419 205.809V355.497L137.746 359.432C141.103 365.131 144.975 371.346 149.301 377.858L149.801 378.607C149.807 378.633 149.807 378.66 149.801 378.685C167.588 405.439 189.098 429.521 213.683 450.203C214.151 450.562 214.573 450.921 215.01 451.296L215.931 452.03L218.945 454.403C221.334 456.262 223.77 458.135 226.284 459.978L226.503 460.165C226.687 460.272 226.859 460.398 227.018 460.54C228.579 461.711 230.282 462.851 231.937 464.022C233.28 464.975 234.638 465.896 235.997 466.833C240.681 469.956 246.849 473.891 251.909 476.858C254.594 475.297 257.405 473.735 260.013 472.08C262.621 470.425 265.478 468.613 268.164 466.818C271.287 464.756 274.207 462.648 277.143 460.571C281.312 457.558 285.278 454.466 289.167 451.327C325.94 421.284 351.253 385.431 366.431 359.588L366.587 359.369L368.601 355.856V205.778C347.786 210.9 326.606 214.403 305.25 216.255V216.255ZM352.002 351.077C351.952 351.175 351.895 351.269 351.831 351.358V351.53C336.075 378.388 308.28 417.27 267.836 447.049L351.831 238.164V238.413L352.002 237.992V351.077Z" fill="#5B3100"/>
</g>
<defs>
<clipPath id="clip0">
<rect width="488.585" height="500" fill="white" transform="translate(6)"/>
</clipPath>
</defs>
</svg>
