<?xml version="1.0" encoding="UTF-8" standalone="no"?>
<svg width="250px" height="250px" viewBox="0 0 250 250" version="1.1" xmlns="http://www.w3.org/2000/svg" xmlns:xlink="http://www.w3.org/1999/xlink">
    <!-- Generator: Sketch 47.1 (45422) - http://www.bohemiancoding.com/sketch -->
    <title>BCU</title>
    <desc>Created with Sketch.</desc>
    <defs></defs>
    <g id="Page-1" stroke="none" stroke-width="1" fill="none" fill-rule="evenodd">
        <g id="BCU" fill-rule="nonzero">
            <g id="Asset-3" transform="translate(5.000000, 0.000000)">
                <path d="M240.658004,130.154915 C240.658004,127.793803 239.888514,127.419872 237.783104,127.435897 C232.89898,127.467949 228.016637,127.483974 223.136075,127.483974 L194.94816,127.483974 C193.93286,127.483974 193.093902,127.532051 192.575565,127.019231 C192.313725,126.752137 189.51898,124.273504 188.95255,123.707265 C188.626585,123.38141 188.701397,122.713675 189.78082,122.713675 L223.136075,122.713675 C228.123511,122.713675 233.110946,122.72792 238.098381,122.75641 C240.006075,122.75641 240.674035,122.371795 240.663348,120.309829 C240.572506,104.428419 240.599224,82.1314103 240.663348,66.25 C240.742872,65.0333464 240.286017,63.8428005 239.412927,62.991453 C231.240658,54.8290598 223.116482,46.6257123 215.040399,38.3814103 C214.16056,37.4005617 212.8829,36.8719856 211.567007,36.9444444 C206.843193,37.0245726 203.300333,36.9764957 198.571175,36.9764957 C194.119889,36.9764957 193.927517,36.9764957 194.184013,32.5106838 C194.376386,29.2361111 192.185477,26.9230769 189.759446,24.6527778 C181.898891,17.2863248 174.262772,9.69551282 166.578559,2.12606838 C165.633925,1.08311946 164.282436,0.502155508 162.875388,0.534188034 C125.143659,0.598290598 84.734745,0.608974359 47.0243902,0.534188034 C44.8334812,0.534188034 44.3525499,1.13782051 44.3792683,3.20512821 C44.4861419,13.6965812 44.3792683,24.1933761 44.4647672,34.6848291 C44.4647672,36.3995726 44.0586475,36.9764957 42.2685144,36.9230769 C37.8279157,36.7948718 36.0484701,36.9978632 31.6078714,36.8269231 C29.5078049,36.7467949 28.1024169,37.4786325 26.6809978,38.9636752 C18.6298522,47.2115385 10.5199261,55.4131054 2.35121951,63.5683761 C1.12198393,64.7089417 0.457417609,66.3326727 0.534368071,68.0074786 C0.593148559,87.1955128 0.571773836,106.388889 0.571773836,125.576923 C0.571773836,144.864672 0.571773836,164.150641 0.571773836,183.434829 C0.571773836,184.903846 0.780177384,186.073718 1.94509978,187.174145 C10.5377384,195.422009 19.0876275,203.72151 27.5947672,212.07265 C28.3193236,212.891126 29.3658204,213.351742 30.45898,213.333333 C35.3751663,213.263889 37.6248559,213.40812 42.5356984,213.253205 C44.5662971,213.189103 45.0418847,213.824786 45.0258537,215.785256 C44.9296674,226.180556 45.0258537,236.581197 44.9296674,246.981838 C44.9296674,249.059829 45.3892239,249.652778 47.5587583,249.652778 C85.103459,249.583333 125.314656,249.594017 162.859357,249.652778 C164.166619,249.700363 165.426783,249.161594 166.295344,248.183761 C173.600155,240.779915 180.803437,233.274573 188.338027,226.105769 C191.635078,222.975427 193.858049,219.823718 192.922905,215.117521 C192.506098,213.012821 193.601552,212.676282 195.466497,212.708333 C201.611729,212.815171 207.756962,212.676282 213.902195,212.793803 C215.499279,212.865303 217.037753,212.185281 218.059579,210.956197 C225.006364,203.612892 232.008367,196.312322 239.065588,189.054487 C240.092752,188.09994 240.657644,186.74855 240.615255,185.347222 C240.577849,169.086538 240.540443,146.415598 240.658004,130.154915 Z" id="Shape" fill="#FFFFFF"></path>
                <g id="NVlbO1.tif" transform="translate(7.481153, 7.478632)">
                    <path d="M0.0854988914,118.055556 C0.0854988914,99.9839744 0.0854988914,81.9123932 0.0480931264,63.840812 C-0.0278696113,62.2567868 0.599920419,60.7200993 1.76341463,59.642094 C9.45831486,51.9747151 17.0944346,44.2521368 24.6717738,36.474359 C26.0130377,35.1014957 27.3436142,34.4123932 29.3154324,34.4871795 C33.4941907,34.6474359 37.6836364,34.4551282 41.8677384,34.5779915 C43.5509978,34.6260684 43.9517738,34.0865385 43.9357428,32.4412393 C43.8662749,22.5587607 43.9357428,12.6762821 43.8555876,2.7991453 C43.8555876,0.838675214 44.283082,0.267094017 46.3297118,0.272435897 C81.861626,0.343660969 117.395322,0.343660969 152.930798,0.272435897 C154.251952,0.236763921 155.523411,0.776756897 156.414878,1.75213675 C163.650222,8.86752137 170.842816,16.0309829 178.249157,22.9647436 C180.536253,25.1014957 181.455366,27.2809829 181.295055,30.3685897 C181.05459,34.5619658 181.236275,34.5726496 185.425721,34.5726496 C189.88235,34.5726496 194.333636,34.6207265 198.784922,34.5726496 C200.023846,34.5029008 201.227254,35.0002206 202.055255,35.9241453 C209.661094,43.6805556 217.298995,51.4049145 224.968958,59.0972222 C225.789718,59.9009977 226.21901,61.0226311 226.144568,62.1688034 C226.112506,77.1260684 226.085787,92.0833333 226.144568,107.040598 C226.144568,108.985043 225.530044,109.353632 223.734568,109.342949 C209.573814,109.273504 195.41306,109.305556 181.252306,109.305556 C179.307206,109.305556 174.016962,113.044872 173.349002,114.813034 C173.087162,115.507479 173.562749,115.785256 173.88337,116.148504 C176.742239,119.198718 179.627827,122.227564 182.476009,125.288462 C183.282905,126.159188 184.29286,125.849359 185.228004,125.854701 C197.961996,125.854701 210.695987,125.90812 223.429978,125.82265 C225.412483,125.82265 226.149911,126.16453 226.13388,128.386752 C226.027007,143.696581 226.059069,159.011752 226.107162,174.326923 C226.152088,175.647003 225.621795,176.921616 224.653681,177.820513 C218.013267,184.647436 211.422727,191.520655 204.882062,198.440171 C203.919678,199.594912 202.472461,200.233291 200.970488,200.165598 C195.183282,200.058761 189.390732,200.165598 183.603525,200.08547 C181.850798,200.053419 180.814124,200.373932 181.209557,202.355769 C182.08592,206.78953 179.996541,209.754274 176.891863,212.708333 C169.800798,219.455128 162.998293,226.522436 156.137007,233.498932 C155.315494,234.416318 154.129757,234.922923 152.898736,234.882479 C117.544945,234.836182 82.1893718,234.836182 46.8320177,234.882479 C44.7907317,234.882479 44.3365188,234.348291 44.3578936,232.361111 C44.4594235,222.569444 44.3578936,212.777778 44.4487361,202.980769 C44.4487361,201.137821 44.015898,200.53953 42.1028603,200.598291 C37.4805765,200.742521 32.8422616,200.598291 28.2092905,200.673077 C27.1629579,200.714979 26.152969,200.285633 25.4572949,199.503205 C17.4524612,191.643519 9.40665928,183.828348 1.31988914,176.057692 C0.251152993,174.989316 0.0267184035,173.92094 0.0267184035,172.521368 C0.0801552106,154.373219 0.0997487066,136.217949 0.0854988914,118.055556 Z" id="Shape" fill="#FCB713"></path>
                    <path d="M8.63538803,117.740385 C8.63538803,100.913462 8.63538803,84.0865385 8.59798226,67.2649573 C8.52212192,65.6829825 9.15239686,64.148917 10.3186475,63.0769231 C16.5921286,56.8874644 22.805048,50.6410256 28.9574058,44.3376068 C29.7243661,43.4853483 30.8370402,43.0274584 31.981929,43.0929487 C38.3943459,43.1410256 44.8067627,43.0395299 51.2191796,43.1623932 C53.1108426,43.1944444 53.5864302,42.6282051 53.5703991,40.7852564 C53.4742129,31.1698718 53.5703991,21.5544872 53.4795565,11.9391026 C53.4795565,10 53.8803326,9.4017094 55.9429933,9.40705128 C87.2925868,9.4747151 118.64218,9.48361823 149.991774,9.43376068 C151.312414,9.35571532 152.602292,9.85240434 153.52929,10.7959402 C159.339653,16.5651709 165.20167,22.2827635 171.115344,27.9487179 C172.248493,28.9363088 172.843748,30.4041083 172.718448,31.9017094 C172.595543,34.8344017 172.836009,37.7777778 172.632949,40.7104701 C172.48867,42.8472222 173.284878,43.1891026 175.192572,43.1517094 C181.78133,43.0395299 188.370089,43.1517094 194.964191,43.0769231 C196.369564,43.0169619 197.724066,43.6082483 198.635299,44.6794872 C204.406475,50.6143162 210.268492,56.4636752 216.151885,62.3076923 C217.129471,63.1977173 217.661829,64.4753384 217.605366,65.7959402 C217.551929,76.4797009 217.519867,87.1634615 217.605366,97.8472222 C217.605366,99.866453 217.070998,100.352564 215.093836,100.336538 C203.875669,100.236823 192.653939,100.236823 181.428647,100.336538 C179.611796,100.336538 178.970554,99.9465812 179.029335,98.0128205 C179.173614,93.3012821 179.029335,88.5790598 179.10949,83.8621795 C179.10949,82.2596154 178.858337,81.517094 176.972018,81.5438034 C172.665011,81.6185897 172.665011,81.5064103 172.665011,85.9294872 C172.665011,91.0897436 172.616918,96.2553419 172.697073,101.42094 C172.772564,102.750602 172.235096,104.041665 171.238248,104.925214 C168.277849,107.751068 165.493792,110.763889 162.479956,113.536325 C161.058537,114.845085 161.20816,115.608974 162.479956,116.869658 C165.477761,119.780983 168.277849,122.900641 171.254279,125.838675 C172.22689,126.729479 172.746923,128.010486 172.670355,129.326923 C172.606231,136.44765 172.713104,143.573718 172.595543,150.694444 C172.563481,152.622863 172.974945,153.547009 175.053636,153.205128 C175.762279,153.100436 176.482466,153.100436 177.191109,153.205128 C178.794213,153.413462 179.114834,152.67094 179.088115,151.223291 C179.013304,146.50641 179.130865,141.78953 179.018647,137.07265 C178.981242,135.411325 179.478204,134.978632 181.11337,134.989316 C192.602284,135.05698 204.089416,135.05698 215.574767,134.989316 C217.033592,134.989316 217.578647,135.315171 217.56796,136.891026 C217.503836,148.461538 217.525211,160.037393 217.56796,171.613248 C217.59587,172.584697 217.206933,173.521719 216.499224,174.188034 C211.219667,179.610043 205.950798,185.042735 200.756741,190.53953 C199.842971,191.50641 198.891796,191.666667 197.700155,191.661325 C190.12816,191.629274 182.561508,191.709402 174.989512,191.602564 C173.097849,191.570513 172.5902,192.110043 172.638293,193.974359 C172.734479,197.601496 173.52,201.645299 172.216142,204.759615 C170.912284,207.873932 167.406829,210.101496 164.847206,212.708333 C161.10663,216.522436 157.301929,220.272436 153.625477,224.150641 C152.557901,225.33245 151.009865,225.963647 149.42,225.865385 C118.344715,225.82265 87.2676497,225.831553 56.1888027,225.892094 C53.8963636,225.892094 53.4368071,225.235043 53.4635255,223.071581 C53.5864302,213.370726 53.4635255,203.66453 53.5597118,193.963675 C53.5597118,192.094017 53.0841242,191.565171 51.1978049,191.602564 C44.6998891,191.720085 38.2019734,191.602564 31.698714,191.67735 C30.3767591,191.750343 29.0899983,191.236203 28.1825721,190.272436 C22.2546489,184.342949 16.273289,178.479345 10.2384922,172.681624 C9.11954258,171.688163 8.5154488,170.238433 8.59798226,168.744658 C8.65676275,151.741453 8.63538803,134.74359 8.63538803,117.740385 Z" id="Shape" fill="#FEFEFE"></path>
                    <path d="M57.2628825,83.082265 C57.2628825,60.6463675 57.2628825,38.2104701 57.2147894,15.7745726 C57.2147894,13.7660256 57.6155654,13.1036325 59.7850998,13.1036325 C89.0862823,13.1819801 118.385684,13.1819801 147.683304,13.1036325 C149.178518,13.0257063 150.631757,13.6122808 151.653659,14.7061966 C156.687406,19.7435897 161.806652,24.7008547 166.941929,29.6314103 C167.978596,30.4820179 168.538328,31.7823089 168.443503,33.1196581 C168.291208,35.6975405 168.291208,38.2821604 168.443503,40.8600427 C168.587783,42.8205128 167.861042,43.1517094 166.060222,43.1463675 C141.035765,43.082265 116.011308,43.1463675 90.9868514,43.0555556 C88.8493792,43.0555556 88.1707317,43.4294872 88.1814191,45.7264957 C88.2954176,63.7962963 88.2954176,81.8678775 88.1814191,99.9412393 C88.1814191,101.907051 88.6035698,102.446581 90.6341685,102.435897 C105.596475,102.339744 120.55878,102.339744 135.521086,102.435897 C137.551685,102.435897 138.027273,101.901709 137.973836,99.9412393 C137.829557,94.5138889 137.973836,89.0811966 137.893681,83.6485043 C137.893681,82.142094 138.08071,81.4797009 139.870843,81.5117521 C148.9551,81.6185897 158.039357,81.5865385 167.123614,81.5117521 C168.464878,81.5117521 168.983215,81.7788462 168.956497,83.2532051 C168.870998,88.7731481 168.870998,94.2930912 168.956497,99.8130342 C168.956497,101.148504 168.331286,101.949786 167.492328,102.777778 C164.013592,106.223291 160.641729,109.780983 157.061463,113.119658 C155.485078,114.583333 155.27133,115.45406 156.949246,117.04594 C160.433326,120.347222 163.655565,123.931624 167.048803,127.334402 C167.963005,128.161803 168.465519,129.350228 168.422129,130.582265 C168.372254,154.172009 168.372254,177.763533 168.422129,201.356838 C168.471303,202.589284 167.972428,203.780316 167.05949,204.610043 C161.694435,209.951923 156.37391,215.334758 151.097916,220.758547 C150.258635,221.66426 149.054332,222.141498 147.822239,222.056624 C118.431996,222.028134 89.0417517,222.038818 59.6515078,222.088675 C57.6262528,222.088675 57.1613525,221.554487 57.188071,219.599359 C57.3056319,211.05235 57.321663,202.505342 57.188071,193.958333 C57.1506652,191.858974 57.8132816,191.53312 59.7156319,191.538462 C84.8309313,191.602564 109.946231,191.538462 135.06153,191.634615 C137.289845,191.634615 138.021929,191.271368 138.005898,188.808761 C137.872306,171.004274 137.899024,153.199786 138.005898,135.389957 C138.005898,133.333333 137.540998,132.745726 135.414213,132.761752 C120.277347,132.865028 105.136918,132.865028 89.9929268,132.761752 C88.0852328,132.761752 87.6256763,133.29594 87.6737694,135.117521 C87.8073614,140.277778 87.6417073,145.448718 87.7592683,150.608974 C87.8020177,152.462607 87.52949,153.21047 85.3759867,153.173077 C76.8260976,153.023504 68.2762084,153.044872 59.7263193,153.173077 C57.7010643,153.199786 57.2094457,152.638889 57.2147894,150.635684 C57.2896009,128.130342 57.2628825,105.603632 57.2628825,83.082265 Z" id="Shape" fill="#850038"></path>
                    <path d="M82.7789579,187.863248 C66.4807317,187.863248 50.1825055,187.863248 33.8896231,187.895299 C32.4847184,187.969343 31.1178259,187.424723 30.1490466,186.404915 C24.9122395,181.191239 19.6273392,176.027422 14.2943459,170.913462 C13.3670166,170.111564 12.8523522,168.93334 12.8943016,167.708333 C12.9299261,134.588675 12.9299261,101.469017 12.8943016,68.349359 C12.8240778,67.1226339 13.2969841,65.9270919 14.1874723,65.0801282 C19.5560902,59.7382479 24.8801774,54.360755 30.1597339,48.9476496 C31.0826869,47.8767548 32.4447654,47.2864573 33.857561,47.3450855 C39.7356098,47.4412393 45.6136585,47.4412393 51.4917073,47.3450855 C53.0948115,47.3450855 53.5917738,47.6976496 53.5757428,49.3856838 C53.483119,58.1997863 53.483119,67.0138889 53.5757428,75.8279915 C53.5757428,77.5106838 53.1161863,77.9647436 51.4917073,77.8632479 C49.5412639,77.724359 47.5587583,77.9754274 45.6136585,77.7938034 C43.6685588,77.6121795 43.3265632,78.3867521 43.3319069,80.1762821 C43.3924686,105.105057 43.3924686,130.033832 43.3319069,154.962607 C43.3319069,157.238248 44.133459,157.467949 46.041153,157.467949 C74.4481596,157.41453 102.86051,157.467949 131.267517,157.366453 C133.78439,157.366453 134.334789,158.082265 134.29204,160.464744 C134.147761,168.744658 134.169135,177.024573 134.29204,185.304487 C134.318758,187.350427 133.837827,187.948718 131.705698,187.932692 C115.37541,187.820513 99.077184,187.863248 82.7789579,187.863248 Z" id="Shape" fill="#850038"></path>
                    <path d="M143.964102,47.3717949 C160.433326,47.3717949 176.897206,47.3717949 193.36643,47.3397436 C194.772854,47.268006 196.136852,47.8330408 197.080288,48.8782051 C202.028537,53.9957265 207.05694,59.0277778 212.08,64.0758547 C212.882367,64.7612932 213.340168,65.7665503 213.330421,66.8215812 C213.26986,76.0808405 213.26986,85.3400997 213.330421,94.599359 C213.330421,96.0363248 213.041863,96.5865385 211.460133,96.5705128 C202.553999,96.4957265 193.647864,96.4957265 184.741729,96.5705128 C183.192062,96.5705128 182.769911,96.0363248 182.791286,94.5726496 C182.871441,89.7649573 182.6951,84.957265 182.882129,80.1495726 C182.962284,78.0448718 182.246231,77.724359 180.34388,77.7297009 C151.862062,77.7884615 123.380244,77.7297009 94.8984257,77.8365385 C92.34949,77.8365385 91.8899335,77.0619658 91.9273392,74.7435897 C92.0609313,66.383547 92.0449002,58.0181624 91.9273392,49.6367521 C91.9273392,47.7350427 92.4617073,47.3130342 94.2785588,47.3237179 C110.854656,47.4038462 127.409379,47.3717949 143.964102,47.3717949 Z" id="Shape" fill="#850038"></path>
                    <path d="M213.298359,155.512821 C213.298359,159.519231 213.143392,163.525641 213.351796,167.526709 C213.596258,170.080237 212.602958,172.596409 210.679956,174.294872 C206.565322,178.231838 202.707184,182.435897 198.790266,186.581197 C198.038521,187.445858 196.931769,187.918333 195.787118,187.863248 C188.840333,187.799145 181.893548,187.78312 174.946763,187.863248 C173.279534,187.863248 172.643636,187.542735 172.665011,185.699786 C172.76476,176.974715 172.76476,168.249644 172.665011,159.524573 C172.665011,157.676282 173.279534,157.280983 174.936075,157.387821 C176.977361,157.516026 179.040022,157.334402 181.081308,157.451923 C182.502727,157.532051 182.876785,157.040598 182.85541,155.657051 C182.780599,150.763889 182.930222,145.860043 182.775255,140.96688 C182.716475,139.022436 183.357716,138.659188 185.16388,138.680556 C193.713769,138.776709 202.263659,138.776709 210.813548,138.680556 C212.710554,138.653846 213.426608,138.990385 213.346452,141.095085 C213.170111,145.892094 213.298359,150.705128 213.298359,155.512821 Z" id="Shape" fill="#850038"></path>
                    <path d="M112.976098,98.1196581 C106.659867,98.1196581 100.343636,98.0608974 94.0274058,98.1623932 C92.3441463,98.1891026 91.8899335,97.6709402 91.9594013,96.0523504 C92.0662749,91.875 92.0502439,87.6923077 91.9594013,83.5096154 C91.9594013,82.0459402 92.3013969,81.5224359 93.8670953,81.5277778 C106.691929,81.5847578 119.506075,81.5847578 132.309534,81.5277778 C133.848514,81.5277778 134.270665,82.0032051 134.238603,83.4935897 C134.147761,87.5854701 134.115698,91.6826923 134.238603,95.7799145 C134.297384,97.6014957 133.843171,98.215812 131.914102,98.1784188 C125.613902,98.0395299 119.297672,98.1196581 112.976098,98.1196581 Z" id="Shape" fill="#FCB713"></path>
                    <path d="M113.227251,137.115385 C119.543481,137.115385 125.865055,137.174145 132.181286,137.077991 C133.859202,137.051282 134.29204,137.564103 134.243947,139.182692 C134.137073,143.274573 134.174479,147.366453 134.243947,151.469017 C134.243947,152.69765 133.92867,153.178419 132.60878,153.173077 C119.620074,153.133903 106.629586,153.133903 93.6373171,153.173077 C92.3388027,153.173077 91.964745,152.740385 91.9861197,151.485043 C92.0449002,147.307692 92.082306,143.125 91.9861197,138.94765 C91.9433703,137.297009 92.6487361,137.088675 94.0327494,137.099359 C100.413104,137.147436 106.820177,137.115385 113.227251,137.115385 Z" id="Shape" fill="#FCB713"></path>
                    <path d="M47.1098891,117.211538 C47.1098891,106.175214 47.1740133,95.1442308 47.0511086,84.0918803 C47.0511086,81.9284188 47.681663,81.2713675 49.722949,81.517094 C51.5291131,81.741453 53.639867,80.625 53.6078049,84.241453 C53.4296822,106.303419 53.4296822,128.367165 53.6078049,150.432692 C53.6078049,153.450855 52.1863858,153.189103 50.241286,153.141026 C48.4458093,153.098291 46.9602661,153.477564 47.0350776,150.550214 C47.2381375,139.455128 47.1098891,128.333333 47.1098891,117.211538 Z" id="Shape" fill="#FCB713"></path>
                </g>
            </g>
        </g>
    </g>
</svg>