<?xml version="1.0" encoding="UTF-8" standalone="no"?>
<svg width="250px" height="250px" viewBox="0 0 250 250" version="1.1" xmlns="http://www.w3.org/2000/svg" xmlns:xlink="http://www.w3.org/1999/xlink">
    <!-- Generator: Sketch 47.1 (45422) - http://www.bohemiancoding.com/sketch -->
    <title>HOW</title>
    <desc>Created with Sketch.</desc>
    <defs></defs>
    <g id="Page-1" stroke="none" stroke-width="1" fill="none" fill-rule="evenodd">
        <g id="HOW" fill-rule="nonzero">
            <g id="Howard_University_Athletics_logo" transform="translate(28.000000, 0.000000)">
                <g id="Group" transform="translate(97.610294, 125.316176) scale(-1, 1) rotate(-180.000000) translate(-97.610294, -125.316176) translate(1.102941, 1.235294)">
                    <g id="Shape">
                        <path d="M191.746324,167.095588 C192.520221,181.702206 184.496324,193.863971 176.9375,200.321691 C174.047794,205.196691 171.102941,207.681985 169.102941,209.371324 C166.990809,211.152574 166.71875,211.382353 166.547794,214.972426 C166.444853,217.227941 165.389706,219.340074 163.65625,220.768382 C161.941176,222.180147 159.696691,222.806985 157.501838,222.481618 C156.198529,222.292279 154.305147,221.909926 152.033088,221.152574 C151.387868,222.676471 150.560662,224.159926 149.555147,225.580882 C144.354779,232.933824 134.704044,238.174632 123.742647,239.601103 C110.659926,241.305147 104.009191,244.123162 101.757353,245.255515 C100.310662,245.983456 98.6948529,246.391544 97.0716912,246.443015 C96.9613971,246.446691 96.8529412,246.448529 96.7371324,246.448529 C96.6231618,246.450368 96.5128676,246.446691 96.4025735,246.443015 C94.7775735,246.391544 93.1617647,245.983456 91.7169118,245.255515 C89.4650735,244.123162 82.8143382,241.305147 69.7297794,239.601103 C58.7683824,238.174632 49.1194853,232.933824 43.9172794,225.580882 C42.9117647,224.159926 42.0845588,222.676471 41.4393382,221.152574 C39.1691176,221.909926 37.2775735,222.292279 35.9761029,222.481618 C33.7775735,222.805147 31.5330882,222.181985 29.8180147,220.770221 C28.0863971,219.34375 27.03125,217.233456 26.9246324,214.977941 C26.7536765,211.382353 26.4816176,211.152574 24.3694853,209.369485 C22.3694853,207.681985 19.4246324,205.196691 16.5367647,200.321691 C8.97610294,193.863971 0.952205882,181.702206 1.72794118,167.095588 C2.18198529,158.516544 5.91176471,146.568015 19.8272059,134.84375 C16.8566176,133.023897 13.9227941,130.869485 11.8988971,128.529412 C10.3952206,126.792279 9.77022059,124.5 10.1856618,122.242647 C10.5992647,119.987132 11.9963235,118.069853 14.0220588,116.977941 C16.9761029,115.391544 18.7334559,114.301471 19.1930147,113.957721 C20.78125,112.564338 22.3731618,111.529412 23.9411765,110.795956 C22.8106618,105.522059 23.1360294,98.7003676 27.8566176,90.5808824 C30.9283088,85.2996324 30.9154412,81.5441176 30.7665441,80.1727941 C30.3382353,76.1948529 32.6268382,72.3363971 36.3308824,70.7904412 C40.7830882,68.9319853 41.7297794,66.9356618 41.7702206,66.8492647 C41.8069853,66.7665441 41.8474265,66.6819853 41.8878676,66.6011029 C41.7849265,66.0459559 41.7408088,65.4779412 41.7591912,64.90625 L41.7886029,63.9264706 C42.0018382,56.5183824 42.2941176,46.3713235 57.4338235,38.6084559 C64.6066176,34.9283088 67.5533088,31.7316176 68.2886029,30.8345588 C69.0588235,29.8988971 70.0275735,29.1838235 71.0992647,28.71875 C72.8713235,20.7279412 78.8602941,16.1544118 83.0955882,12.9209559 C85.9558824,10.7371324 88.4264706,8.85110294 89.0808824,6.79411765 C90.1433824,3.45220588 93.21875,1.20772059 96.7389706,1.20772059 C100.257353,1.20772059 103.334559,3.45404412 104.391544,6.79411765 C105.045956,8.85110294 107.518382,10.7371324 110.378676,12.9209559 C114.612132,16.1544118 120.602941,20.7279412 122.375,28.7205882 C123.444853,29.1856618 124.415441,29.9007353 125.1875,30.8400735 C125.919118,31.7316176 128.865809,34.9301471 136.038603,38.6084559 C151.180147,46.3713235 151.472426,56.5183824 151.683824,63.9264706 L151.713235,64.9025735 C151.731618,65.4761029 151.6875,66.0459559 151.584559,66.6011029 C151.626838,66.6838235 151.665441,66.7683824 151.704044,66.8529412 C151.742647,66.9375 152.689338,68.9319853 157.141544,70.7904412 C160.845588,72.3345588 163.134191,76.1930147 162.705882,80.1746324 C162.556985,81.5441176 162.544118,85.2996324 165.615809,90.5827206 C170.336397,98.7022059 170.663603,105.522059 169.53125,110.795956 C171.101103,111.529412 172.693015,112.564338 174.277574,113.957721 C174.738971,114.301471 176.498162,115.393382 179.457721,116.981618 C181.477941,118.069853 182.873162,119.987132 183.286765,122.242647 C183.702206,124.501838 183.077206,126.792279 181.577206,128.527574 C179.551471,130.867647 176.617647,133.023897 173.645221,134.84375 C187.560662,146.568015 191.290441,158.516544 191.746324,167.095588" fill="#FFFFFF"></path>
                        <path d="M160.018382,133.75 C197.935662,157.455882 184.055147,185.737132 171.408088,195.652574 C165.533088,206.459559 159.992647,203.077206 159.444853,214.637868 C159.422794,215.125 159.022059,215.507353 158.540441,215.435662 C156.575368,215.148897 151.731618,214.090074 146.330882,210.40625 C148.487132,220.533088 137.988971,230.566176 122.830882,232.538603 C109.106618,234.325368 101.693015,237.319853 98.5643382,238.893382 C97.9963235,239.180147 97.3786765,239.321691 96.7591912,239.325368 L96.7591912,239.327206 L96.7426471,239.327206 L96.7261029,239.327206 L96.7261029,239.325368 C96.1084559,239.321691 95.4908088,239.180147 94.9209559,238.893382 C91.7922794,237.319853 84.3786765,234.325368 70.65625,232.538603 C55.4981618,230.566176 45,220.533088 47.15625,210.40625 C41.7555147,214.090074 36.9099265,215.148897 34.9466912,215.435662 C34.4632353,215.507353 34.0643382,215.125 34.0422794,214.637868 C33.4926471,203.077206 27.9540441,206.459559 22.0790441,195.652574 C9.43014706,185.737132 -4.44852941,157.455882 33.46875,133.75 C33.46875,133.75 21.6930147,128.959559 17.2886029,123.867647 C17.1176471,123.670956 17.1672794,123.369485 17.3970588,123.246324 C18.7132353,122.538603 22.6966912,120.365809 23.8455882,119.349265 C29.0955882,114.704044 33.1525735,116.733456 34.9393382,118.139706 C34.8253676,117.952206 34.7040441,117.753676 34.5680147,117.527574 C32.09375,113.402574 27.1433824,105.979779 34.0183824,94.15625 C38.0330882,87.25 38.1176471,81.8713235 37.8511029,79.40625 C37.7573529,78.5275735 38.2647059,77.6948529 39.0808824,77.3547794 C45.3327206,74.7444853 47.5294118,71.3933824 48.2573529,69.7922794 C48.4025735,69.4705882 48.8731618,69.4852941 48.9963235,69.8180147 C51.2959559,76.0091912 48.3161765,83.7077206 48.3161765,83.7077206 C48.3161765,83.7077206 60.1709559,74.2775735 49.2095588,65.8180147 C48.9963235,65.6544118 48.8713235,65.3988971 48.8805147,65.1323529 C49.1231618,57.6121324 48.7610294,51.0551471 60.6893382,44.9375 C68.7279412,40.8143382 72.4411765,37.0018382 73.7959559,35.3511029 C74.0330882,35.0625 74.5055147,35.2261029 74.5091912,35.5992647 C74.5367647,37.53125 74.2003676,41.9393382 71.4136029,48.5128676 C71.4136029,48.5128676 78.0808824,41.0165441 77.7371324,34.4889706 C76.9963235,20.4044118 92.6819853,18.9705882 95.8713235,8.94852941 C95.9908088,8.57169118 96.3474265,8.32169118 96.7426471,8.32169118 L96.7444853,8.32169118 C97.1397059,8.32169118 97.4963235,8.57169118 97.6158088,8.94852941 C100.803309,18.9705882 116.490809,20.4044118 115.75,34.4889706 C115.40625,41.0165441 122.073529,48.5128676 122.073529,48.5128676 C119.284926,41.9393382 118.950368,37.53125 118.976103,35.5992647 C118.981618,35.2261029 119.454044,35.0625 119.691176,35.3511029 C121.045956,37.0018382 124.757353,40.8143382 132.797794,44.9375 C144.726103,51.0551471 144.363971,57.6121324 144.606618,65.1323529 C144.613971,65.3988971 144.490809,65.6544118 144.277574,65.8180147 C133.316176,74.2775735 145.170956,83.7077206 145.170956,83.7077206 C145.170956,83.7077206 142.191176,76.0091912 144.490809,69.8180147 C144.613971,69.4852941 145.084559,69.4705882 145.229779,69.7922794 C145.957721,71.3933824 148.154412,74.7444853 154.40625,77.3547794 C155.220588,77.6948529 155.729779,78.5275735 155.634191,79.40625 C155.369485,81.8713235 155.454044,87.25 159.46875,94.15625 C166.341912,105.979779 161.393382,113.402574 158.919118,117.527574 C158.783088,117.753676 158.661765,117.952206 158.547794,118.139706 C160.334559,116.733456 164.389706,114.704044 169.641544,119.349265 C170.788603,120.365809 174.773897,122.538603 176.090074,123.246324 C176.318015,123.369485 176.369485,123.670956 176.198529,123.867647 C171.794118,128.959559 160.018382,133.75 160.018382,133.75" fill="#003763"></path>
                        <path d="M60.3882353,46.0275676 C59.9455882,45.9496265 59.4735294,46.2687441 59.4588235,46.7893323 C59.3823529,49.5496265 58.8691176,55.1510971 56.1808824,60.0246265 C52.4397059,66.7996265 55.4779412,73.3437441 60.3852941,76.3819794 C63.8147059,78.5055088 65.6455882,82.9069794 66.4382353,85.3687441 C66.6485294,86.0246265 67.5470588,86.1055088 67.8852941,85.5069794 C72.1882353,77.8849206 72.8220588,72.2305088 72.8426471,69.6893323 C72.8485294,69.1202147 72.2632353,68.7128618 71.7485294,68.9540382 C68.25,70.5996265 65.5073529,62.4481559 65.2941176,56.0496265 C65.1352941,51.2716853 62.4794118,47.9055088 60.8029412,46.2466853 C60.6794118,46.1246265 60.5367647,46.0540382 60.3882353,46.0275676 L60.3882353,46.0275676 Z M133.094118,46.0275676 C132.945588,46.0540382 132.802941,46.1246265 132.680882,46.2466853 C131.004412,47.9055088 128.348529,51.2716853 128.188235,56.0496265 C127.975,62.4481559 125.232353,70.5996265 121.733824,68.9540382 C121.219118,68.7128618 120.633824,69.1202147 120.639706,69.6893323 C120.660294,72.2305088 121.294118,77.8849206 125.597059,85.5069794 C125.935294,86.1055088 126.833824,86.0246265 127.045588,85.3687441 C127.836765,82.9069794 129.669118,78.5055088 133.097059,76.3819794 C138.004412,73.3437441 141.042647,66.7996265 137.301471,60.0246265 C134.614706,55.1510971 134.1,49.5496265 134.025,46.7893323 C134.008824,46.2687441 133.536765,45.9496265 133.094118,46.0275676 L133.094118,46.0275676 Z M83.0397059,83.5658029 C82.2147059,83.5775676 81.4720588,84.4099206 81.5867647,85.4981559 L83.0941176,99.6878618 C83.2058824,100.748156 82.0073529,101.256979 81.5117647,100.359921 C79.6455882,96.9863912 76.8558824,91.6908029 74.4,86.98345 C73.7294118,85.6966853 72.0691176,85.9746265 71.7205882,87.4231559 C71.2058824,89.5422735 70.6191176,91.5746265 69.95,93.3849206 C69.8441176,93.6760971 69.8044118,93.9893323 69.85,94.3010971 C70.4352941,98.4305088 72.1632353,107.124626 74.2882353,114.968744 C75.2897059,118.674626 77.5147059,121.792274 80.4882353,123.674626 L90.7029412,127.836391 C94.45,130.204038 98.975,130.204038 102.723529,127.851097 L112.994118,123.659921 C115.972059,121.777568 118.197059,118.659921 119.201471,114.954038 C121.322059,107.111391 123.05,98.4290382 123.635294,94.3010971 C123.679412,93.9878618 123.638235,93.6746265 123.532353,93.3819794 C122.844118,91.5246265 122.244118,89.4319794 121.722059,87.2496265 C121.373529,85.7996265 119.713235,85.5216853 119.042647,86.8113912 C116.564706,91.5613912 113.729412,96.9452147 111.842647,100.356979 C111.344118,101.255509 110.145588,100.748156 110.260294,99.6878618 L111.752941,85.6069794 C111.907353,84.1569794 110.532353,83.15845 109.477941,83.9555088 C107.423529,85.5113912 105.351471,87.0010971 103.472059,88.6628618 C99.4985294,92.1775676 94.0029412,92.1908029 90.0279412,88.6775676 C88.1014706,86.9760971 85.9691176,85.4422735 83.8602941,83.8466853 C83.5970588,83.6466853 83.3147059,83.5613912 83.0397059,83.5658029 L83.0397059,83.5658029 Z M43.4191176,97.9466853 C43.2220588,97.9628618 43.0411765,98.1863912 43.0926471,98.4378618 C43.9926471,102.85845 47.9544118,103.959921 50.0970588,106.609921 C51.3941176,108.209921 50.7117647,110.65845 50.0632353,112.198156 C49.9073529,112.568744 50.2764706,112.880509 50.5544118,112.615803 C53.9823529,109.334921 56.9544118,102.968744 57.6338235,100.249626 C57.7102941,99.9525676 57.4632353,99.7128618 57.2088235,99.8363912 C52.1058824,102.356979 49.6897059,101.123156 48.2044118,100.674626 C46.5617647,100.177568 44.6132353,98.7805088 43.6147059,98.0069794 C43.5544118,97.9599206 43.4852941,97.9408029 43.4191176,97.9466853 L43.4191176,97.9466853 Z M150.058824,97.9466853 C150,97.9408029 149.926471,97.9599206 149.867647,98.0069794 C148.867647,98.7805088 146.922059,100.177568 145.277941,100.674626 C143.792647,101.123156 141.376471,102.356979 136.273529,99.8363912 C136.020588,99.7128618 135.770588,99.9525676 135.845588,100.249626 C136.526471,102.968744 139.5,109.334921 142.927941,112.615803 C143.205882,112.880509 143.576471,112.568744 143.419118,112.198156 C142.770588,110.65845 142.089706,108.209921 143.385294,106.609921 C145.527941,103.959921 149.485294,102.85845 150.397059,98.4378618 C150.441176,98.1863912 150.264706,97.9628618 150.058824,97.9466853 L150.058824,97.9466853 Z M117.080882,133.865803 C116.85,133.865803 116.617647,133.880509 116.386765,133.924626 L99.4485294,137.056979 C97.4764706,137.424626 95.4514706,137.424626 93.4823529,137.042274 L77.0852941,133.939332 C76.1573529,133.762862 75.1897059,133.98345 74.4632353,134.586391 C73.0088235,135.777568 71.9544118,137.174626 71.1970588,138.659921 C70.5205882,139.98345 70.3897059,141.512862 70.7720588,142.939332 C71.5808824,145.98345 72.7838235,149.204038 74.5661765,151.851097 C74.5941176,151.895215 74.6294118,151.939332 74.6691176,151.968744 L76.5279412,153.351097 C77.2705882,153.909921 78.2911765,153.145215 77.9176471,152.292274 C77.0235294,150.277568 76.2338235,147.571685 76.4044118,144.571685 L73.6955882,141.98345 C73.3264706,141.630509 73.6705882,141.027568 74.1705882,141.145215 C76.0088235,141.615803 79.0573529,142.498156 82.3102941,143.865803 C85.5558824,145.012862 89.5455882,146.865803 92.3735294,149.674626 C92.6382353,149.939332 92.8632353,150.23345 93.0514706,150.542274 C93.8073529,151.806979 95.7,155.174626 95.7117647,157.23345 C95.9176471,157.23345 96.1191176,157.218744 96.3264706,157.218744 C96.8147059,157.218744 97.2955882,157.23345 97.7676471,157.262862 C97.7647059,155.204038 99.6720588,151.821685 100.430882,150.556979 C100.622059,150.23345 100.841176,149.939332 101.105882,149.674626 C103.692647,147.115803 107.247059,145.365803 110.317647,144.23345 C113.880882,142.645215 117.313235,141.659921 119.310294,141.145215 C119.810294,141.027568 120.152941,141.630509 119.783824,141.98345 L117.072059,144.586391 C117.267647,147.586391 116.491176,150.277568 115.595588,152.306979 C115.223529,153.159921 116.242647,153.939332 116.986765,153.365803 L118.813235,151.98345 C118.851471,151.954038 118.886765,151.924626 118.913235,151.880509 C120.695588,149.23345 121.897059,146.012862 122.707353,142.968744 C123.088235,141.542274 122.960294,140.012862 122.285294,138.689332 C121.520588,137.189332 120.458824,135.777568 118.994118,134.571685 C118.452941,134.130509 117.775,133.895215 117.080882,133.865803 Z M96.6455882,162.424626 L89.7970588,163.409921 C89.6102941,163.424626 89.4647059,163.556979 89.4294118,163.73345 L88.9735294,165.98345 C88.8102941,166.806979 89.5676471,167.527568 90.4720588,167.424626 L96.7029412,166.645215 L96.8205882,166.645215 L103.007353,167.409921 C103.922059,167.527568 104.686765,166.777568 104.501471,165.954038 L103.998529,163.73345 C103.961765,163.556979 103.811765,163.424626 103.627941,163.409921 L96.6455882,162.424626 Z" fill="#6B818D" transform="translate(96.743829, 106.725181) scale(-1, 1) rotate(-180.000000) translate(-96.743829, -106.725181) "></path>
                        <path d="M29.2220588,116.723413 C29.1,116.719001 28.9720588,116.760178 28.8573529,116.858707 C-2.87794118,143.817531 33.9529412,169.630766 44.3852941,169.607237 C42.1573529,165.157237 43.5897059,161.685178 44.6897059,158.661648 C45.4514706,156.561648 42.2455882,155.304295 40.2088235,155.352825 C39.5455882,155.367531 39.1544118,154.623413 39.5338235,154.076354 C43.2485294,148.726354 47.7132353,147.385178 47.7132353,147.385178 C47.7132353,147.385178 29.8147059,146.894001 26.6455882,132.577825 C25.4191176,127.046943 27.3720588,121.608707 29.6794118,117.53959 C29.9029412,117.142531 29.5882353,116.735178 29.2220588,116.723413 L29.2220588,116.723413 Z M164.264706,116.723413 C163.897059,116.735178 163.573529,117.14106 163.808824,117.536648 C166.117647,121.608707 168.058824,127.046943 166.838235,132.577825 C163.661765,146.894001 145.769118,147.385178 145.769118,147.385178 C145.769118,147.385178 150.235294,148.726354 153.955882,154.076354 C154.323529,154.620472 153.941176,155.367531 153.279412,155.352825 C151.235294,155.305766 148.029412,156.561648 148.794118,158.661648 C149.897059,161.685178 151.323529,165.154295 149.102941,169.607237 C159.529412,169.629295 196.367647,143.81459 164.632353,116.855766 C164.514706,116.757237 164.382353,116.719001 164.264706,116.723413 L164.264706,116.723413 Z M49.6235294,180.745472 C49.2808824,180.780766 48.9720588,181.004295 48.8455882,181.345472 C45.3014706,190.879295 54.3808824,191.973413 56.8529412,193.733707 C57.1470588,193.942531 57.5573529,193.758707 57.5823529,193.401354 C58.2632353,184.01459 52.2279412,181.41459 49.9735294,180.774884 C49.8573529,180.74106 49.7382353,180.733707 49.6235294,180.745472 L49.6235294,180.745472 Z M143.858824,180.745472 C143.744118,180.733707 143.625,180.74106 143.508824,180.774884 C141.254412,181.41459 135.217647,184.01459 135.897059,193.401354 C135.923529,193.758707 136.335294,193.942531 136.629412,193.733707 C139.101471,191.973413 148.176471,190.879295 144.638235,181.345472 C144.510294,181.004295 144.202941,180.780766 143.858824,180.745472 Z" fill="#FFFFFF" transform="translate(96.744179, 155.272368) scale(-1, 1) rotate(-180.000000) translate(-96.744179, -155.272368) "></path>
                    </g>
                </g>
            </g>
        </g>
    </g>
</svg>