<?xml version="1.0" encoding="UTF-8" standalone="no"?>
<svg width="250px" height="250px" viewBox="0 0 250 250" version="1.1" xmlns="http://www.w3.org/2000/svg" xmlns:xlink="http://www.w3.org/1999/xlink">
    <!-- Generator: Sketch 47.1 (45422) - http://www.bohemiancoding.com/sketch -->
    <title>NORFLK</title>
    <desc>Created with Sketch.</desc>
    <defs>
        <radialGradient cx="50%" cy="50%" fx="50%" fy="50%" r="52.3947999%" gradientTransform="translate(0.500000,0.500000),scale(1.000000,0.914295),translate(-0.500000,-0.500000)" id="radialGradient-1">
            <stop stop-color="#D0E0DE" offset="0%"></stop>
            <stop stop-color="#359E87" offset="100%"></stop>
        </radialGradient>
        <radialGradient cx="50%" cy="50%" fx="50%" fy="50%" r="52.3947999%" gradientTransform="translate(0.500000,0.500000),scale(0.931497,1.000000),translate(-0.500000,-0.500000)" id="radialGradient-2">
            <stop stop-color="#D0E0DE" offset="0%"></stop>
            <stop stop-color="#359E87" offset="100%"></stop>
        </radialGradient>
    </defs>
    <g id="Page-1" stroke="none" stroke-width="1" fill="none" fill-rule="evenodd">
        <g id="NORFLK">
            <g id="Asset-2">
                <path d="M125,1.13636364 C193.181818,1.13636364 248.863636,56.8181818 248.863636,125 C248.863636,193.181818 193.181818,248.863636 125,248.863636 C56.8181818,248.863636 1.13636364,193.181818 1.13636364,125 C1.13636364,56.8181818 56.8181818,1.13636364 125,1.13636364 Z" id="Shape" fill="#FFFFFF"></path>
                <path d="M125,250 C55.9644063,250 8.45442189e-15,194.035594 0,125 C-8.45442189e-15,55.9644063 55.9644063,1.26816328e-14 125,0 C194.035594,-1.26816328e-14 250,55.9644063 250,125 C249.937349,194.009626 194.009626,249.937349 125,250 Z M125,2.27272727 C57.2195989,2.27272727 2.27272727,57.2195989 2.27272727,125 C2.27272727,192.780401 57.2195989,247.727273 125,247.727273 C192.780401,247.727273 247.727273,192.780401 247.727273,125 C247.664624,57.2455658 192.754434,2.33537589 125,2.27272727 Z" id="Shape" fill="#008061" fill-rule="nonzero"></path>
                <path d="M124.454545,26.3522727 C164.066336,26.3476766 199.780037,50.2063134 214.940936,86.801957 C230.101836,123.397601 221.723927,165.522577 193.714161,193.532343 C165.704395,221.542109 123.579419,229.920018 86.9837752,214.759118 C50.3881316,199.598219 26.5294948,163.884518 26.5340909,124.272727 C26.6466086,70.2394285 70.4212467,26.4647904 124.454545,26.3522727 L124.454545,26.3522727 Z" id="Shape" fill="#FFFFFF"></path>
                <path d="M124.454545,223.340909 C69.7406994,223.340909 25.3863636,178.986573 25.3863636,124.272727 C25.3863636,69.5588813 69.7406994,25.2045455 124.454545,25.2045455 C179.168391,25.2045455 223.522727,69.5588813 223.522727,124.272727 C223.460105,178.960613 179.142432,223.278287 124.454545,223.340909 Z M124.454545,27.4886364 C85.3034046,27.4886366 50.0075507,51.0733217 35.0261195,87.2446993 C20.0446883,123.416077 28.3281795,165.050419 56.0138418,192.732831 C83.6995041,220.415243 125.334819,228.693846 161.504437,213.708168 C197.674055,198.72249 221.254596,163.423868 221.25,124.272727 C221.187369,70.8418782 177.885402,27.5449944 124.454545,27.4886364 Z" id="Shape" fill="#231F20" fill-rule="nonzero"></path>
                <polygon id="Shape" fill="url(#radialGradient-1)" points="127.375 116.329545 128.579545 136.477273 126.181818 138.386364 128.102273 141.75 125.693182 144.147727 127.375 146.545455 125.215909 150.386364 126.420455 154.465909 124.261364 157.579545 119.943182 158.056818 107.715909 156.852273 116.352273 168.852273 120.659091 172.931818 116.829545 179.636364 110.829545 183.715909 135.295455 173.647727 142.727273 182.522727 151.840909 186.829545 162.386364 188.511364 161.909091 153.261364 150.397727 148.704545 161.193182 142.704545 165.988636 143.431818 170.784091 155.897727 174.147727 155.420455 162.875 121.363636 154.954545 118.25 140.806818 115.852273 132.170455 116.090909 127.375 116.329545"></polygon>
                <path d="M156.431818,70.7954545 C174.045455,70.7954545 189.761364,75.5454545 206.431818,81.5568182 C188.704545,90.4204545 171.306818,104.977273 164.659091,122.386364 L175.738636,156.25 L173.204545,156.25 L161.488636,121.75 C153.681818,118.897727 143.034091,116.068182 132.375,117 L126.363636,97.375 C135.454545,85.4545455 145.136364,77.0227273 156.431818,70.7954545 Z" id="Shape" fill="#FEBE10"></path>
                <path d="M176.136364,156.534091 L173.011364,156.534091 L161.284091,121.965909 C150.636364,118.102273 140.931818,116.522727 132.409091,117.284091 L132.181818,117.284091 L126.056818,97.2954545 L126.147727,97.1818182 C135.125,85.3863636 144.704545,76.9204545 156.306818,70.5227273 L156.443182,70.5227273 C173.284091,70.5227273 188.102273,74.6477273 206.545455,81.2954545 L207.159091,81.5227273 L206.568182,81.8181818 C186.363636,91.8863636 170.852273,107.056818 164.954545,122.386364 L176.136364,156.534091 Z M173.420455,155.965909 L175.352273,155.965909 L164.363636,122.375 L164.363636,122.284091 C170.227273,106.931818 185.647727,91.7613636 205.693182,81.6022727 C187.625,75.1022727 173.022727,71.0909091 156.477273,71.0795455 C145.022727,77.4090909 135.534091,85.7840909 126.647727,97.4318182 L132.556818,116.75 C141.125,116.034091 150.886364,117.647727 161.568182,121.534091 L161.693182,121.534091 L161.693182,121.670455 L173.420455,155.965909 Z" id="Shape" fill="#008061" fill-rule="nonzero"></path>
                <path d="M128.261364,100.863636 C144.693182,94.2613636 159.829545,96.3181818 173.522727,100.545455 C179.00677,93.9033991 185.276013,87.9508614 192.193182,82.8181818 C182.102273,78 164.215909,76.1022727 148.636364,77 C140.357786,82.7206326 133.130203,89.8290376 127.272727,98.0113636 L128.227273,100.863636 L128.261364,100.863636 Z" id="Shape" fill="#FFE8BA"></path>
                <path d="M128.090909,101.238636 L126.954545,97.9659091 L127.034091,97.8522727 C132.715909,89.8977273 139.068182,83.5568182 148.431818,76.7727273 L148.488636,76.7727273 L148.579545,76.7727273 C152.943182,76.5227273 157.318182,76.4772727 161.568182,76.6477273 C158.045455,76.7954545 153.840909,77.0340909 148.693182,77.3409091 C139.465909,84.0340909 133.136364,90.25 127.579545,98.1136364 L128.386364,100.545455 C146.079545,93.5340909 161.693182,96.6931818 173.375,100.272727 C178.724477,93.789985 184.828209,87.9685509 191.556818,82.9318182 C189.284091,81.8636364 187.397727,80.9431818 185.670455,80.1704545 C187.915646,80.8196598 190.107691,81.6402521 192.227273,82.625 L192.636364,82.8181818 L192.272727,83.1022727 C185.3659,88.2138454 179.111016,94.1519785 173.647727,100.784091 L173.522727,100.931818 L173.340909,100.931818 C151.125,94.1136364 137.590909,97.5227273 128.272727,101.238636 L128.090909,101.238636 Z" id="Shape" fill="#008061" fill-rule="nonzero"></path>
                <path d="M128.954545,104.602273 C141.818182,97.2272727 162.727273,101.329545 171.579545,103.727273 L162.340909,119.318182 C154.488636,116.306818 140.886364,113.761364 133.193182,114.352273 L128.954545,104.613636 L128.954545,104.602273 Z" id="Shape" fill="#FFE8BA"></path>
                <path d="M162.5,119.659091 L162.272727,119.579545 C154.920455,116.75 141.193182,114.011364 133.25,114.625 L133.045455,114.625 L128.625,104.465909 L128.852273,104.340909 C142.590909,96.4659091 165.113636,101.659091 171.681818,103.443182 L172.045455,103.534091 L162.5,119.659091 Z M135.647727,113.977273 C144.717604,114.274374 153.688716,115.956697 162.25,118.965909 L171.170455,103.909091 C164.261364,102.068182 142.693182,97.2727273 129.352273,104.727273 L133.409091,114.045455 C134.090909,114 134.829545,113.977273 135.613636,113.977273 L135.647727,113.977273 Z" id="Shape" fill="#008061" fill-rule="nonzero"></path>
                <path d="M41.8636364,117.954545 C46.5227273,115.761364 48.0795455,113.590909 57.1136364,112.272727 C64.7045455,83.7386364 106.25,80.1704545 125.090909,98.6363636 L135.227273,132.5 L133.636364,136.931818 L139.965909,134.659091 L127.943182,98.6477273 C142.613636,77.125 165.181818,67.3068182 184.284091,61.9318182 C125.193182,9.36363636 39.5909091,42.7045455 41.8636364,117.954545 Z" id="Shape" fill="#FEBE10"></path>
                <path d="M133.170455,137.409091 L134.920455,132.5 L124.840909,98.7954545 C114.613636,88.8295455 97.3522727,84.9886364 81.8863636,89.2386364 C69.125,92.7386364 60.4318182,100.965909 57.3863636,112.397727 L57.3863636,112.579545 L57.2045455,112.579545 C50.5,113.522727 47.9090909,114.988636 45.1590909,116.534091 C44.2045455,117.068182 43.2159091,117.670455 42.0340909,118.181818 L41.6477273,118.363636 L41.6477273,117.931818 C40.6477273,84.7159091 57,56.9772727 85.3977273,43.7045455 C100.66136,36.6743395 117.685601,34.3938832 134.261364,37.1590909 C152.363636,40.0227273 169.761364,48.5227273 184.590909,61.6931818 L184.977273,62.0454545 L184.477273,62.1818182 C158.522727,69.5 140.159091,81.4318182 128.386364,98.6704545 L140.454545,134.875 L133.170455,137.409091 Z M94.6931818,86.9545455 C106.375,86.9545455 117.727273,91.0454545 125.295455,98.4431818 L125.295455,98.4431818 L135.522727,132.534091 L134.090909,136.477273 L139.602273,134.545455 L127.625,98.6022727 L127.704545,98.4886364 C139.5,81.1818182 157.818182,69.1818182 183.704545,61.7954545 C169.045455,48.8636364 151.886364,40.5681818 134.090909,37.7386364 C117.630833,34.988863 100.724209,37.253638 85.5681818,44.2386364 C57.5,57.3522727 41.25,84.7159091 42.1363636,117.5 C43.125,117.022727 43.9886364,116.534091 44.8181818,116.068182 C48.493926,113.855143 52.6164943,112.488718 56.8863636,112.068182 C59.9886364,100.704545 69.0340909,92.1818182 81.7386364,88.6931818 C85.9594704,87.536103 90.3166237,86.9513272 94.6931818,86.9545455 Z" id="Shape" fill="#008061" fill-rule="nonzero"></path>
                <path d="M55.1477273,110.670455 C63.375,56.0227273 115.602273,56.4431818 144.397727,74.5909091 C152.717358,68.9784252 161.635914,64.3095226 170.988636,60.6704545 C147.034091,43.0454545 87.9659091,30.4886364 56.4204545,75.2272727 C48.3977273,87.5 42.9090909,97.7954545 43.1818182,114.772727 C47.1931818,112.034091 50.8863636,111.5 55.2045455,110.659091 L55.1477273,110.670455 Z" id="Shape" fill="#FFE8BA"></path>
                <path d="M42.8522727,115.318182 L42.8522727,114.772727 C42.6363636,97.1818182 48.5340909,86.7954545 56.1931818,75.0568182 C67.2888736,59.0436563 84.4903198,48.3076521 103.75,45.375 C130.147727,41.0795455 157.159091,50.1704545 171.159091,60.4318182 L171.568182,60.7386364 L171.090909,60.9318182 C161.760248,64.5705787 152.861302,69.2315684 144.556818,74.8295455 L144.409091,74.9318182 L144.25,74.8295455 C128.693182,65.0227273 103.909091,59.2954545 83.6363636,68.5795455 C68.2727273,75.6136364 58.5227273,90.1704545 55.4318182,110.715909 L55.4318182,110.909091 L54.1704545,111.159091 C50.2954545,111.897727 46.9431818,112.534091 43.3181818,115.022727 L42.8522727,115.318182 Z M117.545455,44.8636364 C112.954003,44.8698664 108.370681,45.2499097 103.840909,46 C84.7031372,48.7937451 67.5984266,59.4445473 56.6477273,75.3863636 C49.0909091,86.9204545 43.3068182,97.1363636 43.3977273,114.261364 C46.9545455,111.988636 50.2159091,111.318182 54.0340909,110.602273 L54.8977273,110.431818 C58.0568182,89.7727273 67.9090909,75.1590909 83.3977273,68.0681818 C103.852273,58.7159091 128.693182,64.4318182 144.397727,74.25 C152.544465,68.7755078 161.262378,64.2031761 170.397727,60.6136364 C158.886364,52.2727273 138.795455,44.8522727 117.545455,44.8522727 L117.545455,44.8636364 Z" id="Shape" fill="#008061" fill-rule="nonzero"></path>
                <path d="M126.215909,97.0795455 C129.761364,90.9772727 133.556818,84.9545455 139.034091,79.4886364 C98.2613636,53.8295455 62.0568182,76.0795455 56.0795455,109.727273 C72.5681818,72.4431818 119.875,86.2954545 126.193182,97.0795455 L126.215909,97.0795455 Z" id="Shape" fill="#FFE8BA"></path>
                <path d="M56.3636364,109.840909 L55.8181818,109.670455 C58.8181818,92.75 69.4545455,78.7272727 84.3181818,72.1704545 C100.818182,64.8636364 120.295455,67.3863636 139.181818,79.2727273 L139.488636,79.4659091 L139.227273,79.7159091 C133.545455,85.3977273 129.670455,91.7272727 126.454545,97.25 L126.215909,97.6704545 L125.965909,97.25 C124.272727,94.3522727 119.602273,91.2840909 113.465909,89.0340909 C106.429659,86.4965937 98.9589361,85.3840972 91.4886364,85.7613636 C80.0454545,86.3636364 64.6477273,91.1022727 56.3636364,109.840909 Z M103.943182,68.625 C97.2611192,68.6168067 90.6520815,70.0145001 84.5454545,72.7272727 C70.5454545,78.875 60.3181818,91.7840909 56.8181818,107.488636 C65.4318182,90.25 80.2954545,85.8068182 91.4545455,85.2272727 C106.704545,84.3636364 122.136364,90.4318182 126.204545,96.5909091 C129.601497,90.4001972 133.779629,84.6714978 138.636364,79.5454545 C126.965909,72.2954545 115.136364,68.625 103.943182,68.625 Z" id="Shape" fill="#008061" fill-rule="nonzero"></path>
                <path d="M113.068182,194.545455 L113.704545,198.340909 C125.306818,196.227273 134.375,199.818182 140.977273,211.977273 C140.022727,201.431818 133.022727,196.579545 124.840909,194.579545 L113.068182,194.545455 Z" id="Shape" fill="#008061"></path>
                <path d="M126.363636,175.863636 L135.227273,175.556818 C139.659091,183.511364 143.454545,183.147727 147.568182,186.920455 L142.5,195.147727 C148.829545,189.034091 152.318182,185.761364 163.386364,189.136364 L163.704545,151.159091 L156.431818,151.477273 L160.545455,153.375 L160.647727,158.670455 C157.488636,158.670455 154.215909,155.590909 152,154.329545 C155.159091,158.227273 158.954545,162.136364 161.488636,166.034091 L161.488636,187.238636 C149.568182,186.818182 140.5,181.011364 136.170455,170.784091 C133.534091,173.420455 131.534091,174.193182 126.363636,175.840909 L126.363636,175.863636 Z" id="Shape" fill="#008061"></path>
                <path d="M112.409091,163.159091 L118.693182,173.454545 C117.556818,179.238636 112.011364,181.670455 107.693182,185.045455 C116.238636,183.443182 119.397727,179.454545 121.931818,172.386364 C118.291456,169.831284 115.0776,166.717142 112.409091,163.159091 L112.409091,163.159091 Z" id="Shape" fill="#008061"></path>
                <path d="M148.863636,148.647727 C154.022727,153.193182 157.954545,147.909091 160.579545,145.170455 C163.840909,142.386364 165.75,144.852273 166.909091,148.011364 L170.704545,161.647727 L173.238636,161.011364 L168.488636,144.875 C166.488636,139.5 162.261364,139.806818 158.681818,142.977273 C155.953379,145.685614 152.571294,147.642839 148.863636,148.659091 L148.863636,148.647727 Z" id="Shape" fill="#008061"></path>
                <polygon id="Shape" fill="#008061" points="168.715909 166.454545 170.397727 171.625 168.329545 174.886364 169.943182 177.784091 166.943182 184.261364 168.806818 187.488636 165.693182 189.488636 172.909091 189.477273 170 184.5 173.147727 177.579545 171.863636 174.704545 173.113636 172.193182 171.829545 168.227273 173.068182 164.409091 168.715909 166.454545"></polygon>
                <path d="M125.625,97.5909091 C121.931818,94.5113636 118.011364,91.0909091 112.511364,89.7045455 L102.681818,87.3068182 L95.7272727,86.5909091 L86.6363636,87.0681818 L76.7954545,89.7045455 L69.3181818,94.0227273 L64.5454545,97.8636364 L59.75,103.852273 L56.3409091,111.806818 L56.3409091,118.761364 L60.4204545,129.556818 L66.1818182,136.022727 L64.5,140.818182 L55.8636364,149.454545 L76.25,145.136364 L78.1704545,144.181818 L81.5795455,149.943182 L88.2954545,153.772727 L100.795455,156.170455 L118.977273,156.897727 L118.25,121.397727 L112.022727,116.363636 L118.011364,115.886364 L122.556818,113.965909 L128.318182,116.840909 L131.340909,116.613636 L125.659091,97.625 L125.625,97.5909091 Z" id="Shape" fill="url(#radialGradient-2)"></path>
                <path d="M43.1818182,161.363636 L45.7159091,166.113636 C54.1477273,164.318182 66.3863636,162.522727 75.7840909,182.568182 C75,162.818182 55.2272727,158.954545 43.1818182,161.363636 Z" id="Shape" fill="#008061"></path>
                <path d="M102.272727,158.465909 L97.8409091,157.829545 C98.1590909,162.375 94.0454545,165.318182 87.3977273,165.784091 C103.227273,179.181818 106.386364,195.113636 113.034091,210.727273 C111.977273,196.909091 106.806818,178.022727 92.7840909,167.363636 C97.1022727,167.579545 99.8522727,165.579545 100.056818,160.409091 L102.329545,158.511364 L102.272727,158.465909 Z" id="Shape" fill="#008061"></path>
                <path d="M54.7045455,113.806818 C54.5227273,123.772727 58.3068182,133.568182 63.8863636,136.875 C64.125,144.625 56.4431818,144.625 54.875,150.386364 C59.5681818,147.443182 64.0681818,143.420455 66.4090909,138.136364 L67.1363636,134.727273 C63.5113636,133.318182 56.6136364,123.363636 57.0454545,113.647727 L54.7045455,113.829545 L54.7045455,113.806818 Z" id="Shape" fill="#008061"></path>
                <path d="M68.75,146.056818 C72.3636364,145.045455 76.8977273,144.215909 78.4886364,142.454545 C84.25,154.590909 90.9886364,153.818182 117.045455,155.613636 L117.045455,132.954545 C113.386364,127.522727 109.897727,124.295455 106.056818,119.977273 C109.78362,122.537481 113.69596,124.816514 117.761364,126.795455 L117.590909,122.829545 L114.340909,119.590909 L120.647727,119.590909 L120.647727,158.681818 C107.761364,157.386364 85.6590909,159.818182 77.4659091,146.068182 L68.75,146.056818 Z" id="Shape" fill="#008061"></path>
                <path d="M109.272727,115.011364 C113.011364,118.420455 114.954545,118.420455 119.386364,116.147727 C121.835483,114.958582 124.744016,115.239345 126.920455,116.875 L128.056818,136.363636 L125.113636,137.829545 L126.590909,141.875 L124.931818,144.079545 L125.852273,147.022727 L123.647727,150.147727 L125.488636,153.818182 L123.465909,158.045455 C126.625,157.943182 128.818182,156.909091 126.772727,150.511364 L128.977273,146.465909 L127.272727,144.227273 L129.659091,142.204545 L128,138.352273 L130.204545,137.977273 L128.920455,115.556818 C125.306818,112.738636 122.238636,111.204545 116.977273,114.636364 C114.590909,115.863636 112.011364,115.613636 109.25,115.011364 L109.272727,115.011364 Z" id="Shape" fill="#008061"></path>
                <path d="M21.1704545,122.727273 L20.4090909,122.659091 L20.5113636,121.522727 C20.5549954,121.292061 20.5015498,121.053612 20.3636364,120.863636 C20.1395169,120.699629 19.8686235,120.611987 19.5909091,120.613636 L7.48863636,119.556818 C7.25592548,119.505193 7.01223836,119.554756 6.81818182,119.693182 C6.6661136,119.934537 6.58717799,120.214758 6.59090909,120.5 L6.5,121.454545 L5.79545455,121.386364 L6.35227273,115.159091 L15.7613636,109.477273 L8.76136364,108.863636 C8.440577,108.801887 8.1083426,108.849921 7.81818182,109 C7.61016032,109.251359 7.50464734,109.571956 7.52272727,109.897727 L7.43181818,110.897727 L6.72727273,110.829545 L7.15909091,105.909091 L7.86363636,105.977273 L7.78409091,106.818182 C7.73249092,107.095456 7.79386153,107.381852 7.95454545,107.613636 C8.20401741,107.817037 8.51929116,107.922128 8.84090909,107.909091 L22.7272727,109.090909 L22.7272727,109.727273 L7.95454545,118.613636 L19.8295455,119.647727 C20.0562575,119.684045 20.2877046,119.62205 20.4659091,119.477273 C20.6457855,119.314471 20.7488895,119.083517 20.75,118.840909 L20.875,117.477273 L21.6363636,117.534091 L21.1818182,122.727273 L21.1704545,122.727273 Z" id="Shape" fill="#008061"></path>
                <path d="M16.0909091,100.477273 C18.0113636,100.954545 19.3409091,101.261364 20.0795455,101.375 C20.6408326,101.486718 21.2166101,101.505911 21.7840909,101.431818 C22.3304963,101.36029 22.8358636,101.103595 23.2159091,100.704545 C23.9831408,99.6713525 24.3062866,98.3746791 24.1136364,97.1022727 C23.9711613,96.5684093 23.6452973,96.1017399 23.1931818,95.7840909 C22.6934991,95.433607 22.1411032,95.1650812 21.5568182,94.9886364 C20.8068182,94.7386364 19.5340909,94.375 17.7272727,93.9318182 C15.9204545,93.4886364 14.6363636,93.1931818 13.8522727,93.0681818 C13.2569618,92.9537903 12.6476935,92.930799 12.0454545,93 C11.4950057,93.0690269 10.9852468,93.3259132 10.6022727,93.7272727 C9.83668768,94.7655906 9.51387099,96.0650299 9.70454545,97.3409091 C9.85144685,97.8727127 10.1814632,98.3355404 10.6363636,98.6477273 C11.0982802,98.9813652 11.6130416,99.2349043 12.1590909,99.3977273 C12.8636364,99.6477273 14.1818182,100 16.0909091,100.534091 L16.0909091,100.477273 Z M14.9545455,104.954545 C13.9580621,104.71185 13.0220524,104.267052 12.2045455,103.647727 C11.3695389,103.022888 10.6536156,102.253078 10.0909091,101.375 C9.52531219,100.464327 9.13956116,99.4536598 8.95454545,98.3977273 C8.77170346,97.3585715 8.81824448,96.2920064 9.09090909,95.2727273 C9.32471732,94.2627201 9.77012758,93.3138026 10.3977273,92.4886364 C11.0669316,91.6466667 11.887901,90.9374725 12.8181818,90.3977273 C13.7377945,89.8644452 14.7465705,89.5025179 15.7954545,89.3295455 C16.8045393,89.1602916 17.8378028,89.2028605 18.8295455,89.4545455 C19.830476,89.7004316 20.7703104,90.1490768 21.5909091,90.7727273 C22.4570308,91.4247445 23.1834949,92.2439488 23.7272727,93.1818182 C24.2987673,94.0771677 24.6851537,95.0779084 24.8636364,96.125 C25.0304147,97.1587151 24.9761928,98.216041 24.7045455,99.2272727 C24.4658557,100.239058 24.0209757,101.190715 23.3977273,102.022727 C22.7391069,102.860076 21.9249535,103.562331 21,104.090909 C20.08754,104.630753 19.0812244,104.993181 18.0340909,105.159091 C17.0114793,105.30966 15.9693245,105.259483 14.9659091,105.011364 L14.9545455,104.954545 Z" id="Shape" fill="#008061"></path>
                <path d="M25.7954545,90.3068182 L26.5681818,88.6363636 L13.9204545,82.7613636 L13.1363636,84.4090909 L12.5,84.0909091 L16.1477273,76.2727273 C16.6704178,74.9573557 17.5379625,73.807172 18.6590909,72.9431818 C19.5146451,72.3164274 20.65277,72.232612 21.5909091,72.7272727 C22.5405931,73.1308994 23.223776,73.9848781 23.4090909,75 C23.5813352,76.3530038 23.3438309,77.7265704 22.7272727,78.9431818 L22.9090909,79.0340909 C23.5322508,77.8469311 24.5724628,76.9321921 25.8295455,76.4659091 C27.2091917,76.2388175 28.6249939,76.4914961 29.8409091,77.1818182 C30.2712079,77.4398622 30.7599368,77.584526 31.2613636,77.6022727 C31.560802,77.5526451 31.8092293,77.3434432 31.9090909,77.0568182 C31.9788354,76.907734 32.0321786,76.7515147 32.0681818,76.5909091 C32.0681818,76.4204545 32.1363636,76.2272727 32.1590909,76.0227273 L32.8409091,76.0227273 C32.8442101,76.544788 32.7985557,77.0660083 32.7045455,77.5795455 C32.6421843,77.9732576 32.5235466,78.3559599 32.3522727,78.7159091 C32.1103455,79.258244 31.7758002,79.754294 31.3636364,80.1818182 C31.0076814,80.5405452 30.5713992,80.8093262 30.0909091,80.9659091 C28.776575,81.1615685 27.43441,80.9179017 26.2727273,80.2727273 L25.7613636,80.0681818 C25.0446536,79.6802315 24.2050788,79.5864926 23.4204545,79.8068182 C22.7042738,80.2136551 22.1563914,80.8622513 21.875,81.6363636 L21.7045455,82.0113636 L28.2045455,85.0340909 L29.0568182,83.2045455 L29.7386364,83.5227273 L26.4772727,90.6363636 L25.7954545,90.3068182 Z M21.0227273,81.8181818 L21.8522727,80.0568182 C22.1962502,79.4995164 22.2910427,78.8236045 22.1136364,78.1931818 C21.6335172,77.5372739 20.9629382,77.0452514 20.1931818,76.7840909 C19.4072101,76.2949282 18.5049876,76.0242614 17.5795455,76 C17.2045455,76.1022727 16.8068182,76.6022727 16.3863636,77.5113636 L15.5681818,79.2727273 L21.0227273,81.8181818 Z" id="Shape" fill="#008061"></path>
                <path d="M33.0681818,76.5681818 L32.3977273,76.1363636 L33.3181818,74.5454545 L21.2386364,67.6136364 L20.2954545,69.25 L19.6818182,68.8863636 L26.2386364,57.5227273 L30.1931818,59.6477273 L29.7954545,60.3409091 C28.7255132,59.9944475 27.5798374,59.9550772 26.4886364,60.2272727 C25.5711545,60.6036063 24.8232906,61.3029601 24.3863636,62.1931818 L23.1931818,64.25 L28.6931818,67.4090909 C28.7355606,67.3594236 28.77358,67.3061963 28.8068182,67.25 L28.9772727,66.9659091 C29.3646551,66.384633 29.4961365,65.6697028 29.3409091,64.9886364 C29.0628767,64.2489851 28.5576404,63.6164452 27.8977273,63.1818182 L28.2954545,62.5 L33.9772727,65.7954545 L33.5909091,66.4772727 C32.8712596,66.0556631 32.0309949,65.8876101 31.2045455,66 C30.4847839,66.2150237 29.8849438,66.7162599 29.5454545,67.3863636 L29.3181818,67.7840909 L35.2386364,71.1931818 L36.375,69.2272727 L37.0340909,69.6136364 L33.0681818,76.5681818 Z" id="Shape" fill="#008061"></path>
                <path d="M36.8295455,56.8181818 C38.3636364,58.0681818 39.4431818,58.8977273 40.0681818,59.3181818 C40.5295177,59.6514844 41.0392268,59.9120876 41.5795455,60.0909091 C42.1053905,60.248387 42.6684485,60.2284204 43.1818182,60.0340909 C44.3157249,59.4253979 45.1557579,58.3845766 45.5113636,57.1477273 C45.6036172,56.6005273 45.5032139,56.0382691 45.2272727,55.5568182 C44.9289192,55.0309091 44.5448511,54.5585053 44.0909091,54.1590909 C43.5227273,53.6022727 42.5227273,52.75 41.0681818,51.5681818 C39.6136364,50.3863636 38.6363636,49.6022727 37.9204545,49.1590909 C37.4463162,48.8056514 36.9214385,48.5259721 36.3636364,48.3295455 C35.8444356,48.1511899 35.2805644,48.1511899 34.7613636,48.3295455 C34.1852564,48.6160071 33.6834648,49.0322218 33.2954545,49.5454545 C32.8709758,50.0262992 32.5705772,50.6036888 32.4204545,51.2272727 C32.3336792,51.7707659 32.433833,52.3276214 32.7045455,52.8068182 C32.9827264,53.3039816 33.344011,53.7498221 33.7727273,54.125 C34.3181818,54.6477273 35.3522727,55.5340909 36.8863636,56.7727273 L36.8295455,56.8181818 Z M33.9204545,60.3977273 C33.1209507,59.7570007 32.4598685,58.9606092 31.9772727,58.0568182 C31.4862223,57.1180078 31.170453,56.0975339 31.0454545,55.0454545 C30.914501,53.9813766 30.9838774,52.902188 31.25,51.8636364 C31.8521705,49.8593834 33.21992,48.1731729 35.0568182,47.1704545 C36.0158377,46.6914229 37.0569146,46.398379 38.125,46.3068182 C39.1865458,46.2100481 40.256842,46.3062977 41.2840909,46.5909091 C43.2828462,47.1623406 44.9616372,48.5250756 45.9318182,50.3636364 C46.4302701,51.3115304 46.7463499,52.3445717 46.8636364,53.4090909 C47.0019484,54.4660174 46.9285535,55.5399015 46.6477273,56.5681818 C46.357732,57.5730705 45.8667567,58.5086296 45.2045455,59.3181818 C44.5585205,60.1318245 43.7495549,60.8014468 42.8295455,61.2840909 C41.8807879,61.7706077 40.8464023,62.0678006 39.7840909,62.1590909 C38.7256045,62.2577829 37.6579967,62.1575743 36.6363636,61.8636364 C35.6441701,61.573403 34.7205312,61.0864636 33.9204545,60.4318182 L33.9204545,60.3977273 Z" id="Shape" fill="#008061"></path>
                <path d="M50.5795455,52.3863636 L50.0568182,51.8295455 L51.1931818,50.6931818 L41.6704545,40.4659091 L40.5340909,41.5454545 L40.0454545,41.0340909 L45.7272727,35.7840909 L46.2159091,36.3068182 L44.6022727,37.8409091 L54.1136364,48.0681818 L55.7613636,46.5227273 C56.6039276,45.8295529 57.1422177,44.8345317 57.2613636,43.75 C57.2414883,42.4670254 56.8721844,41.2137491 56.1931818,40.125 L56.7386364,39.625 L60.1477273,43.5113636 L50.6022727,52.4090909 L50.5795455,52.3863636 Z" id="Shape" fill="#008061"></path>
                <path d="M60.0454545,33.3863636 L61.3636364,25.6818182 C61.3728064,25.5721611 61.3728064,25.4619298 61.3636364,25.3522727 C61.363713,25.2819691 61.3396433,25.2137715 61.2954545,25.1590909 C61.251597,25.0968422 61.1781922,25.0622989 61.1022727,25.0681818 C61.0124665,25.0665325 60.9246137,25.0944857 60.8522727,25.1477273 L59.5568182,26.0568182 L59.1590909,25.5 L63.8181818,22.2272727 L64.2045455,22.7954545 L63.4318182,23.3409091 C63.0966952,23.5651267 62.8106084,23.8550796 62.5909091,24.1931818 C62.353499,24.6670385 62.1997232,25.1783428 62.1363636,25.7045455 L61.3636364,30.25 L72.0227273,34.3409091 L73.5454545,33.2840909 L73.9772727,33.9090909 L67.2727273,38.6363636 L66.8295455,38.0113636 L68.3636364,36.875 L60.4090909,33.7840909 L60.0795455,33.3181818 L60.0454545,33.3863636 Z M59.5,43.1818182 L61.0340909,42.0454545 L53.0340909,30.6818182 L51.4886364,31.8181818 L51.1022727,31.25 L57.4204545,26.8295455 L57.8068182,27.3863636 L56.2613636,28.5227273 L64.2159091,39.9545455 L65.7613636,38.8181818 L66.2045455,39.4431818 L59.8863636,43.875 L59.5,43.1818182 Z" id="Shape" fill="#008061"></path>
                <path d="M81.9659091,30.5 L80.3522727,26.2727273 L81.1931818,25.9431818 C81.8718887,26.9019281 82.8101591,27.6470251 83.8977273,28.0909091 C84.8795977,28.4445728 85.9585441,28.4161795 86.9204545,28.0113636 C87.7816816,27.7207777 88.510997,27.1324902 88.9772727,26.3522727 C89.4018252,25.6693192 89.473647,24.8243573 89.1704545,24.0795455 C88.9459432,23.315814 88.2898857,22.7579421 87.5,22.6590909 C86.5986004,22.5536256 85.6863149,22.5881238 84.7954545,22.7613636 L83.6590909,22.9090909 C82.4349252,23.1296632 81.1732138,22.9956064 80.0227273,22.5227273 C79.069463,22.0111603 78.3493402,21.1527088 78.0113636,20.125 C77.4818942,18.9238534 77.4877681,17.5543 78.027521,16.3577392 C78.567274,15.1611785 79.5900557,14.2503389 80.8409091,13.8522727 C81.3623983,13.6410721 81.9154152,13.5181795 82.4772727,13.4886364 C83.0250859,13.4647441 83.5732864,13.5260812 84.1022727,13.6704545 L84.6477273,12.7272727 L85.3409091,12.4545455 L86.8863636,16.2272727 L86.1590909,16.5113636 C85.5892392,15.611602 84.7559812,14.9092845 83.7727273,14.5 C82.8693954,14.1702712 81.874745,14.19463 80.9886364,14.5681818 C80.2812611,14.8133651 79.6742652,15.2845856 79.2613636,15.9090909 C78.8923168,16.438132 78.8153782,17.1177563 79.0568182,17.7159091 C79.4090909,18.625 80.625,18.9204545 82.7159091,18.6022727 L83.3636364,18.5 C84.8505633,18.1857682 86.3963877,18.3040711 87.8181818,18.8409091 C88.9479494,19.4439956 89.7934866,20.4692605 90.1704545,21.6931818 C90.7272825,23.0236335 90.7272825,24.5218211 90.1704545,25.8522727 C89.6287782,27.1583189 88.5594588,28.1739659 87.2272727,28.6477273 C86.5944472,28.9007129 85.9285506,29.0614465 85.25,29.125 C84.6373096,29.167215 84.0219591,29.101834 83.4318182,28.9318182 L82.7727273,30.1704545 L81.9659091,30.4772727 L81.9659091,30.5 Z" id="Shape" fill="#008061"></path>
                <path d="M95.4545455,25.4545455 L95.2613636,24.7159091 L97.0909091,24.2159091 L93.4886364,10.7386364 L92.6931818,10.9545455 C91.8096678,11.1459261 91.051699,11.7092253 90.6136364,12.5 C90.1433402,13.6522473 89.930049,14.8932144 89.9886364,16.1363636 L89.3977273,16.2954545 L88.2613636,11.4204545 L102.181818,7.68181818 L103.659091,12.5 L103.068182,12.6590909 C102.509735,11.5619616 101.709279,10.6060772 100.727273,9.86363636 C99.969654,9.39340457 99.04587,9.27327123 98.1931818,9.53409091 L97.3409091,9.76136364 L100.954545,23.25 L102.795455,22.7272727 L102.988636,23.4659091 L95.4545455,25.4545455 Z" id="Shape" fill="#008061"></path>
                <path d="M107.375,17.5568182 L111.534091,17.0454545 L108.852273,11.9204545 L107.375,17.6022727 L107.375,17.5568182 Z M103.965909,23.1477273 L103.875,22.3863636 L104.818182,22.2613636 C105.054438,22.2436255 105.272649,22.1283443 105.420455,21.9431818 C105.61545,21.6423195 105.7505,21.3066259 105.818182,20.9545455 L109.363636,6.61363636 L110.284091,6.5 L117.863636,20.6590909 L119.227273,20.4886364 L119.318182,21.25 L111.897727,22.1704545 L111.795455,21.4090909 L113.670455,21.1818182 L111.875,17.7727273 L107.227273,18.3522727 L106.534091,21.0795455 C106.519667,21.1546165 106.519667,21.2317471 106.534091,21.3068182 C106.525058,21.420275 106.525058,21.5342704 106.534091,21.6477273 C106.540847,21.7716357 106.621576,21.8792744 106.738636,21.9204545 C106.90931,21.9703284 107.09069,21.9703284 107.261364,21.9204545 L108.625,21.75 L108.715909,22.5113636 L103.931818,23.1022727 L103.965909,23.1477273 Z" id="Shape" fill="#008061"></path>
                <path d="M120.522727,21.4204545 L120.522727,20.6590909 L122.420455,20.6590909 L122.181818,6.70454545 L121.340909,6.70454545 C120.444972,6.67042436 119.578367,7.027018 118.965909,7.68181818 C118.222089,8.69318706 117.713501,9.85789207 117.477273,11.0909091 L116.863636,11.0909091 L116.965909,6.10227273 L131.352273,5.85227273 L131.636364,10.8295455 L131.022727,10.8295455 C130.74335,9.63356469 130.199752,8.51530594 129.431818,7.55681818 C128.811166,6.91179158 127.938974,6.5712214 127.045455,6.625 L126.170455,6.625 L126.409091,20.5795455 L128.306818,20.5795455 L128.306818,21.3409091 L120.522727,21.4772727 L120.522727,21.4204545 Z" id="Shape" fill="#008061"></path>
                <path d="M131.522727,21.5909091 L131.625,20.8295455 L133.488636,21.0568182 L135.227273,7.19318182 L133.636364,7 L133.715909,6.29545455 L146.488636,7.86363636 L146.034091,11.8977273 L145.261364,11.7954545 C145.066362,10.7671126 144.634496,9.79833185 144,8.96590909 C143.385485,8.37610174 142.578083,8.02891886 141.727273,7.98863636 L139.090909,7.67045455 L138.318182,13.9545455 L138.522727,13.9545455 C138.63237,13.9640441 138.74263,13.9640441 138.852273,13.9545455 C139.516503,14.1121537 140.216179,13.997587 140.795455,13.6363636 C141.385279,13.0952206 141.783963,12.3775907 141.931818,11.5909091 L142.704545,11.6818182 L141.863636,18.1818182 L141.102273,18.0909091 C141.200085,17.2644318 141.020185,16.4288984 140.590909,15.7159091 C140.098773,15.1435605 139.39064,14.8018451 138.636364,14.7727273 L138.181818,14.7727273 L137.352273,21.5909091 L139.909091,21.8977273 C140.982963,22.0974154 142.092344,21.8690134 143,21.2613636 C143.974808,20.4282039 144.702022,19.3432791 145.102273,18.125 L145.818182,18.2159091 L145.034091,23.2954545 L131.522727,21.5909091 Z" id="Shape" fill="#008061"></path>
                <path d="M156.988636,22.0568182 L160.772727,12.2045455 L159.090909,11.5568182 L159.340909,10.8977273 L166.545455,13.6363636 L166.295455,14.2954545 L164.409091,13.6363636 L160.659091,23.4090909 C160.216095,24.3239024 160.10366,25.3639213 160.340909,26.3522727 C160.689543,27.175563 161.390961,27.7976544 162.25,28.0454545 C162.747714,28.2404815 163.273148,28.3555401 163.806818,28.3863636 C164.288913,28.403666 164.769191,28.3184554 165.215909,28.1363636 C165.697092,27.9507375 166.120536,27.6409962 166.443182,27.2386364 C166.931619,26.4961217 167.314092,25.689103 167.579545,24.8409091 L167.659091,24.625 L170.477273,17.2954545 C170.642639,16.9858113 170.706256,16.6319419 170.659091,16.2840909 C170.579545,16.1022727 170.306818,15.9204545 169.829545,15.7386364 L169.125,15.4659091 L169.375,14.8068182 L173.920455,16.5568182 L173.659091,17.2159091 L172.954545,16.9545455 C172.607833,16.765135 172.205208,16.7047414 171.818182,16.7840909 C171.602273,16.875 171.409091,17.1590909 171.227273,17.625 L168.340909,25.1590909 C168.059755,25.9477501 167.705963,26.7085931 167.284091,27.4318182 C167.022128,27.842761 166.677748,28.1948795 166.272727,28.4659091 C165.597429,28.9090466 164.80771,29.1459624 164,29.1477273 C162.964772,29.1299638 161.942544,28.9139457 160.988636,28.5113636 C159.453397,28.0349019 158.108697,27.0840636 157.147727,25.7954545 C156.453832,24.6789172 156.360139,23.2905527 156.897727,22.0909091 L156.988636,22.0568182 Z" id="Shape" fill="#008061"></path>
                <path d="M168.181818,31.0568182 L168.556818,30.3863636 L169.602273,30.9659091 C169.793958,31.099861 170.032263,31.1491655 170.261364,31.1022727 C170.42803,31.0492424 170.609848,30.844697 170.806818,30.4886364 L176.693182,19.8636364 C176.832371,19.6742397 176.885942,19.4352333 176.840909,19.2045455 C176.682356,18.963857 176.457342,18.7743712 176.193182,18.6590909 L175.363636,18.2045455 L175.704545,17.5795455 L181.170455,20.6136364 L182.545455,31.5340909 L185.954545,25.3863636 C186.148141,25.1202855 186.240784,24.794022 186.215909,24.4659091 C186.215909,24.2727273 185.931818,24.0568182 185.522727,23.8295455 L184.647727,23.3522727 L184.988636,22.7386364 L189.306818,25.125 L188.965909,25.7386364 L188.181818,25.3068182 C187.945808,25.1360329 187.649766,25.0702458 187.363636,25.125 C187.078561,25.2711955 186.853484,25.5123491 186.727273,25.8068182 L179.977273,38 L179.409091,37.6931818 L177.318182,20.6477273 L171.590909,31.0795455 C171.471138,31.2771233 171.434373,31.5140531 171.488636,31.7386364 C171.575009,31.9582955 171.741522,32.1369925 171.954545,32.2386364 L173.170455,32.9090909 L172.795455,33.5795455 L168.25,31.0568182 L168.181818,31.0568182 Z" id="Shape" fill="#008061"></path>
                <polygon id="Shape" fill="#008061" points="181.556818 38.7045455 181.988636 38.0909091 183.545455 39.1818182 191.556818 27.7386364 190 26.6477273 190.397727 26.0795455 196.772727 30.5340909 196.375 31.1136364 194.818182 30.0227273 186.806818 41.4659091 188.363636 42.5454545 187.931818 43.1704545 181.556818 38.7045455"></polygon>
                <path d="M192.920455,48.0795455 L197.875,32.5454545 L196.863636,31.6931818 L197.318182,31.1590909 L202.886364,35.8295455 L202.431818,36.375 L201.068182,35.2386364 L197.943182,45.0909091 L205.261364,40.7727273 C205.450711,40.6716068 205.632951,40.5577068 205.806818,40.4318182 C205.920301,40.3587858 206.023491,40.2708832 206.113636,40.1704545 C206.235525,40.0483063 206.27543,39.8665153 206.215909,39.7045455 C206.039174,39.4260713 205.811754,39.1832331 205.545455,38.9886364 L204.818182,38.3863636 L205.272727,37.8409091 L209.090909,40.9886364 L208.636364,41.5227273 L208.136364,41.1022727 C207.88728,40.8692183 207.556944,40.7427934 207.215909,40.75 C206.699071,40.8573167 206.208586,41.0658696 205.772727,41.3636364 L193.522727,48.5340909 L192.977273,48.0795455 L192.920455,48.0795455 Z" id="Shape" fill="#008061"></path>
                <path d="M198.636364,52.9090909 L199.215909,52.4090909 L200.443182,53.8181818 L210.977273,44.7272727 L209.920455,43.5113636 L210.454545,43.0454545 L218.897727,52.75 L215.909091,55.3977273 L215.397727,54.8068182 C215.938903,53.9084886 216.265554,52.8974266 216.352273,51.8522727 C216.295614,50.996396 215.932542,50.1895702 215.329545,49.5795455 L213.579545,47.5681818 L208.795455,51.7386364 L208.920455,51.9090909 L209.136364,52.1590909 C209.557834,52.7202294 210.189741,53.0854224 210.886364,53.1704545 C211.681824,53.146944 212.449479,52.8724974 213.079545,52.3863636 L213.590909,52.9772727 L208.613636,57.2840909 L208.113636,56.7045455 C208.74024,56.1575086 209.167842,55.4181977 209.329545,54.6022727 C209.342642,53.8460322 209.0424,53.1180465 208.5,52.5909091 L208.204545,52.25 L203,56.8181818 L204.693182,58.7727273 C205.365031,59.6326782 206.341193,60.2021061 207.420455,60.3636364 C208.702678,60.3958267 209.968897,60.0733737 211.079545,59.4318182 L211.556818,59.9772727 L207.568182,63.2386364 L198.636364,53.0113636 L198.636364,52.9090909 Z" id="Shape" fill="#008061"></path>
                <path d="M208.431818,63.2386364 L209.420455,64.7727273 L221.136364,57.1704545 L220.136364,55.6818182 L220.727273,55.2954545 L225.420455,62.5 C226.268093,63.6415779 226.786861,64.9935192 226.920455,66.4090909 C226.98977,67.4428275 226.476975,68.4289707 225.590909,68.9659091 C224.729994,69.5617015 223.624703,69.6773715 222.659091,69.2727273 C221.432941,68.7214954 220.397112,67.8200865 219.681818,66.6818182 L219.522727,66.7954545 C220.193347,67.9564837 220.411855,69.3241807 220.136364,70.6363636 C219.604895,71.9294592 218.640903,72.9978841 217.409091,73.6590909 C216.955863,73.8866864 216.565602,74.2223107 216.272727,74.6363636 C216.152071,74.9215196 216.200268,75.2501372 216.397727,75.4886364 C216.489303,75.6184847 216.59196,75.740152 216.704545,75.8522727 L217.136364,76.25 L216.738636,76.7954545 C216.298133,76.5190943 215.883562,76.2034112 215.5,75.8522727 C215.182765,75.5847591 214.903657,75.2750641 214.670455,74.9318182 C214.339689,74.4369856 214.10101,73.8864841 213.965909,73.3068182 C213.840841,72.8184868 213.840841,72.3065132 213.965909,71.8181818 C214.499186,70.5997565 215.417307,69.5898242 216.579545,68.9431818 L217.034091,68.6136364 C217.740431,68.2131347 218.262374,67.5525498 218.488636,66.7727273 C218.524714,65.9508442 218.262372,65.1436369 217.75,64.5 L217.534091,64.1590909 L211.522727,68.0681818 L212.659091,69.75 L212.011364,70.1704545 L207.784091,63.6363636 L208.431818,63.2159091 L208.431818,63.2386364 Z M218.193182,63.7159091 L219.261364,65.3522727 C219.543552,65.940743 220.065099,66.3795055 220.693182,66.5568182 C221.50589,66.5073923 222.281868,66.2009807 222.909091,65.6818182 C224.170455,64.8636364 224.852273,64.2613636 224.954545,63.8863636 C225.056818,63.5113636 224.852273,62.8977273 224.306818,62.0681818 L223.25,60.4431818 L218.181818,63.7159091 L218.193182,63.7159091 Z" id="Shape" fill="#008061"></path>
                <path d="M215.909091,77.2727273 L220.011364,75.3636364 L220.397727,76.1818182 C219.488167,76.9273039 218.810125,77.9167718 218.443182,79.0340909 C218.16233,80.039569 218.26772,81.1137349 218.738636,82.0454545 C219.086961,82.8833109 219.723928,83.5686547 220.534091,83.9772727 C221.251242,84.3272731 222.089668,84.3272731 222.806818,83.9772727 C223.159834,83.8257935 223.468694,83.5873066 223.704545,83.2840909 C223.921671,82.9664729 224.054611,82.5989329 224.090909,82.2159091 C224.132113,81.3083103 224.032446,80.3998069 223.795455,79.5227273 C223.693182,79.0568182 223.625,78.6931818 223.568182,78.3863636 C223.26572,77.1777158 223.316998,75.9076042 223.715909,74.7272727 C224.162881,73.7386943 224.97845,72.9639029 225.988636,72.5681818 C227.147627,71.962395 228.506817,71.8676636 229.738636,72.3068182 C230.95019,72.8079346 231.90594,73.7800931 232.386364,75 C232.629542,75.5093488 232.790623,76.0539569 232.863636,76.6136364 C232.931422,77.1591138 232.908383,77.7120524 232.795455,78.25 L233.772727,78.7159091 L234.090909,79.3977273 L230.431818,81.2045455 L230.102273,80.5 C230.95305,79.8607949 231.593976,78.9824897 231.943182,77.9772727 C232.212404,77.04969 232.118973,76.0544516 231.681818,75.1931818 C231.386042,74.4828798 230.862318,73.8911919 230.193182,73.5113636 C229.64128,73.1871521 228.964622,73.1573621 228.386364,73.4318182 C227.5,73.8522727 227.25,75.0795455 227.75,77.1477273 C227.806818,77.4204545 227.852273,77.6363636 227.886364,77.7840909 C228.311243,79.2462753 228.311243,80.7991792 227.886364,82.2613636 C227.352994,83.420532 226.392044,84.3285483 225.204545,84.7954545 C223.914064,85.4482954 222.415264,85.5547675 221.045455,85.0909091 C219.707275,84.6409109 218.621708,83.6461514 218.056818,82.3522727 C217.764289,81.7356882 217.557814,81.0818535 217.443182,80.4090909 C217.358016,79.803777 217.381102,79.1881445 217.511364,78.5909091 L216.227273,78.0113636 L215.909091,77.2727273 Z" id="Shape" fill="#008061"></path>
                <polygon id="Shape" fill="#008061" points="220.659091 87.3977273 221.386364 87.1477273 222 88.9431818 235.193182 84.3977273 234.579545 82.6022727 235.25 82.375 237.784091 89.7386364 237.113636 89.9659091 236.488636 88.1704545 223.295455 92.7159091 223.909091 94.5113636 223.193182 94.7613636 220.659091 87.3977273"></polygon>
                <path d="M223.863636,97.7272727 L224.613636,97.5454545 L225.068182,99.3863636 L238.613636,95.9772727 L238.409091,95.1704545 C238.241017,94.2870652 237.697901,93.5200696 236.920455,93.0681818 C235.780215,92.5785033 234.547319,92.3420045 233.306818,92.375 L233.159091,91.7727273 L238.045455,90.75 L241.522727,104.715909 L236.738636,106.113636 L236.590909,105.511364 C237.692966,104.976157 238.660139,104.199311 239.420455,103.238636 C239.911465,102.494214 240.048704,101.570965 239.795455,100.715909 L239.579545,99.8636364 L226.034091,103.272727 L226.5,105.113636 L225.75,105.295455 L223.863636,97.7272727 Z" id="Shape" fill="#008061"></path>
                <path d="M226.772727,111.818182 L227.534091,111.75 L227.704545,113.647727 L234.25,113.068182 L241.215909,107.954545 L241.090909,106.443182 L241.795455,106.375 L242.465909,114.113636 L241.761364,114.113636 L241.590909,112.227273 L235.670455,116.534091 L240.875,118.806818 C241.05675,118.885071 241.242632,118.953354 241.431818,119.011364 C241.533313,119.029199 241.637141,119.029199 241.738636,119.011364 C241.878926,119.001272 242.001772,118.913524 242.056818,118.784091 C242.121785,118.590366 242.141228,118.384275 242.113636,118.181818 L242,116.852273 L242.704545,116.795455 L243.136364,121.761364 L242.431818,121.761364 L242.375,121.125 C242.359499,120.766417 242.218759,120.424621 241.977273,120.159091 C241.554777,119.797298 241.069463,119.516124 240.545455,119.329545 L234.863636,116.920455 L228.045455,117.511364 L228.204545,119.409091 L227.443182,119.477273 L226.761364,111.715909 L226.772727,111.818182 Z" id="Shape" fill="#008061"></path>
                <path d="M72.9204545,231.636364 L74.8295455,227.522727 L75.6477273,227.909091 C75.4421972,229.054146 75.5562204,230.233696 75.9772727,231.318182 C76.419179,232.263563 77.190959,233.015139 78.1477273,233.431818 C78.9569727,233.846212 79.8861619,233.962863 80.7727273,233.761364 C81.5585586,233.587601 82.2159235,233.052439 82.5454545,232.318182 C82.7259803,231.967504 82.8121371,231.575882 82.7954545,231.181818 C82.7591566,230.798794 82.6262166,230.431254 82.4090909,230.113636 C81.8577481,229.391955 81.1984984,228.759536 80.4545455,228.238636 L79.5795455,227.556818 C78.5637702,226.824659 77.7758539,225.820066 77.3068182,224.659091 C77.0146589,223.619852 77.1368611,222.507812 77.6477273,221.556818 C78.1475052,220.352092 79.1217447,219.406627 80.3409091,218.943182 C81.5851214,218.523504 82.9463026,218.626003 84.1136364,219.227273 C84.6263482,219.461188 85.0982449,219.775786 85.5113636,220.159091 C85.9145158,220.532205 86.2525013,220.97005 86.5113636,221.454545 L87.5681818,221.181818 L88.2386364,221.5 L86.6022727,225.238636 L85.8977273,224.909091 C86.1445295,223.874285 86.0732386,222.78908 85.6931818,221.795455 C85.299012,220.914841 84.589631,220.213568 83.7045455,219.829545 C83.0050485,219.468913 82.2049367,219.352897 81.4318182,219.5 C80.7933169,219.612794 80.2548401,220.040156 80,220.636364 C79.5795455,221.522727 80.2159091,222.602273 81.8977273,223.886364 L82.4090909,224.284091 C83.6678559,225.128696 84.6640331,226.309934 85.2840909,227.693182 C85.6189381,228.926568 85.464224,230.241638 84.8522727,231.363636 C84.2793488,232.687376 83.2044371,233.729591 81.8636364,234.261364 C80.5446994,234.77238 79.071229,234.702215 77.8068182,234.068182 C77.1801253,233.77933 76.6014307,233.396089 76.0909091,232.931818 C75.6271659,232.52861 75.2419117,232.04319 74.9545455,231.5 L73.6022727,231.875 L72.8295455,231.522727 L72.9204545,231.636364 Z" id="Shape" fill="#008061"></path>
                <path d="M83.4886364,234.988636 L85.2613636,235.602273 L89.8068182,222.409091 L88.0340909,221.795455 L88.2613636,221.125 L95.8181818,223.727273 C97.4320099,224.169451 98.9014542,225.027606 100.079545,226.215909 C100.866898,227.138234 101.07301,228.423143 100.613636,229.545455 C100.263949,230.769491 99.2752979,231.705879 98.0340909,231.988636 C96.3464951,232.251465 94.6190469,232.038977 93.0454545,231.375 L91.0681818,230.681818 L88.9431818,236.852273 L91.0227273,237.556818 L90.7727273,238.284091 L83.2386364,235.693182 L83.4886364,234.965909 L83.4886364,234.988636 Z M93.4886364,223.625 L91.2159091,230.068182 L93.2613636,230.772727 C93.8371818,231.043495 94.5037272,231.043495 95.0795455,230.772727 C95.7561059,230.008638 96.2290242,229.086252 96.4545455,228.090909 C96.8539834,227.240466 97.022509,226.299858 96.9431818,225.363636 C96.7954545,224.931818 96.2727273,224.556818 95.3863636,224.227273 L93.4318182,223.545455 L93.4886364,223.625 Z" id="Shape" fill="#008061"></path>
                <path d="M99.2159091,235.227273 L103.329545,236.034091 L102.352273,230.352273 L99.2159091,235.227273 Z M94.2159091,239.477273 L94.3522727,238.727273 L95.2954545,238.909091 C95.5266927,238.95601 95.7671141,238.911185 95.9659091,238.784091 C96.2429226,238.55698 96.4742931,238.279336 96.6477273,237.965909 L104.488636,225.465909 L105.397727,225.647727 L108.227273,241.454545 L109.568182,241.715909 L109.420455,242.465909 L102.090909,241.045455 L102.227273,240.284091 L104.068182,240.647727 L103.409091,236.863636 L98.8636364,235.965909 L97.3636364,238.352273 C97.3226269,238.415174 97.2919366,238.484228 97.2727273,238.556818 C97.2727273,238.647727 97.2727273,238.761364 97.1931818,238.886364 C97.1632323,239.01236 97.2072608,239.144445 97.3068182,239.227273 C97.4459227,239.334938 97.6101924,239.405339 97.7840909,239.431818 L99.1363636,239.693182 L98.9886364,240.443182 L94.2613636,239.522727 L94.2159091,239.477273 Z" id="Shape" fill="#008061"></path>
                <path d="M108.943182,241.420455 L110.761364,241.579545 L111.977273,227.681818 L110.159091,227.522727 L110.159091,226.818182 L118.75,227.568182 C120.169791,227.607976 121.552203,228.032125 122.75,228.795455 C123.607396,229.373122 124.068362,230.382856 123.943182,231.409091 C123.888466,232.454627 123.30053,233.398758 122.386364,233.909091 C121.196281,234.53448 119.849595,234.799078 118.511364,234.670455 L118.511364,234.863636 C119.837882,235.053413 121.049821,235.719979 121.920455,236.738636 C122.611829,237.958299 122.856922,239.380644 122.613636,240.761364 C122.53233,241.254352 122.563406,241.759337 122.704545,242.238636 C122.862055,242.502119 123.147588,242.66219 123.454545,242.659091 C123.613441,242.670241 123.772923,242.670241 123.931818,242.659091 C124.127536,242.635545 124.321246,242.597562 124.511364,242.545455 L124.693182,243.204545 C124.203831,243.37732 123.702492,243.514048 123.193182,243.613636 C122.784651,243.686998 122.369105,243.713684 121.954545,243.693182 C121.360789,243.648566 120.779736,243.498493 120.238636,243.25 C119.792147,243.037747 119.402616,242.722227 119.102273,242.329545 C118.468047,241.159988 118.232656,239.815462 118.431818,238.5 C118.431818,238.25 118.431818,238.068182 118.431818,237.943182 C118.547549,237.142083 118.347935,236.32733 117.875,235.670455 C117.244322,235.125377 116.43579,234.830263 115.602273,234.840909 L115.204545,234.840909 L114.579545,241.977273 L116.590909,242.159091 L116.522727,242.920455 L108.806818,242.25 L108.875,241.477273 L108.943182,241.420455 Z M115.340909,234.022727 L117.272727,234.193182 C117.909763,234.332857 118.576105,234.192139 119.102273,233.806818 C119.564431,233.140533 119.803167,232.344746 119.784091,231.534091 C119.971581,230.626811 119.916709,229.686145 119.625,228.806818 C119.397727,228.488636 118.784091,228.284091 117.806818,228.204545 L115.863636,228.034091 L115.340909,234.034091 L115.340909,234.022727 Z" id="Shape" fill="#008061"></path>
                <path d="M127.159091,243.181818 L127.159091,242.420455 L129.056818,242.352273 L128.545455,228.409091 L127.715909,228.409091 C126.817058,228.39141 125.954742,228.764528 125.352273,229.431818 C124.627647,230.447691 124.138519,231.612281 123.920455,232.840909 L123.306818,232.840909 L123.306818,227.852273 L137.681818,227.352273 L138.056818,232.318182 L137.443182,232.318182 C137.144369,231.128502 136.581161,230.021507 135.795455,229.079545 C135.169548,228.438526 134.290719,228.109486 133.397727,228.181818 L132.522727,228.181818 L133.011364,242.125 L134.909091,242.056818 L134.909091,242.829545 L127.125,243.090909 L127.159091,243.181818 Z" id="Shape" fill="#008061"></path>
                <path d="M139.022727,237.25 L143.125,236.454545 L140.090909,231.534091 L139.022727,237.215909 L139.022727,237.25 Z M135.965909,243.068182 L135.818182,242.318182 L136.761364,242.136364 C136.995151,242.097043 137.201479,241.960867 137.329545,241.761364 C137.507604,241.4495 137.623385,241.106017 137.670455,240.75 L140.238636,226.204545 L141.147727,226.022727 L149.693182,239.659091 L151.034091,239.397727 L151.181818,240.147727 L143.840909,241.579545 L143.704545,240.829545 L145.534091,240.465909 L143.522727,237.193182 L138.909091,238.090909 L138.409091,240.863636 C138.401496,240.939204 138.401496,241.015342 138.409091,241.090909 C138.409091,241.181818 138.409091,241.295455 138.409091,241.420455 C138.42973,241.549616 138.522449,241.65558 138.647727,241.693182 C138.815668,241.734584 138.99115,241.734584 139.159091,241.693182 L140.511364,241.431818 L140.659091,242.181818 L135.920455,243.102273 L135.965909,243.068182 Z" id="Shape" fill="#008061"></path>
                <path d="M150.522727,240.522727 L150.306818,239.795455 L151.443182,239.454545 C151.673546,239.421947 151.877536,239.288729 152,239.090909 C152.094514,238.82637 152.094514,238.537266 152,238.272727 L148.659091,226.602273 C148.568182,226.272727 148.443182,226.090909 148.284091,226.022727 C148.005559,225.97159 147.718284,225.999136 147.454545,226.102273 L146.534091,226.363636 L146.340909,225.681818 L152.352273,223.954545 L161.045455,230.704545 L159.113636,223.954545 C158.977273,223.5 158.829545,223.215909 158.647727,223.125 C158.343707,223.010781 158.008565,223.010781 157.704545,223.125 L156.75,223.397727 L156.545455,222.727273 L161.295455,221.363636 L161.488636,222.045455 L160.613636,222.295455 C160.330723,222.33963 160.079286,222.500385 159.920455,222.738636 C159.80701,223.038884 159.80701,223.370207 159.920455,223.670455 L163.761364,237.068182 L163.147727,237.238636 L149.613636,226.670455 L152.897727,238.125 C152.949576,238.353811 153.093454,238.551129 153.295455,238.670455 C153.518139,238.75844 153.765952,238.75844 153.988636,238.670455 L155.306818,238.284091 L155.522727,239.022727 L150.522727,240.454545 L150.522727,240.522727 Z" id="Shape" fill="#008061"></path>
                <path d="M166.125,236.090909 L164.204545,231.988636 L165.022727,231.602273 C165.764713,232.515639 166.755395,233.194513 167.875,233.556818 C168.880478,233.83767 169.954644,233.73228 170.886364,233.261364 C171.727368,232.913586 172.416494,232.27685 172.829545,231.465909 C173.188313,230.750809 173.188313,229.908282 172.829545,229.193182 C172.679984,228.838984 172.44588,228.526846 172.147727,228.284091 C171.806542,228.063677 171.416192,227.930957 171.011364,227.897727 C170.107502,227.85623 169.202696,227.955912 168.329545,228.193182 L167.193182,228.420455 C165.988392,228.723264 164.721813,228.67197 163.545455,228.272727 C162.554704,227.82516 161.776508,227.010295 161.375,226 C160.775338,224.835222 160.680832,223.475157 161.113636,222.238636 C161.588865,221.016627 162.540521,220.040359 163.75,219.534091 C164.259887,219.292318 164.80427,219.131303 165.363636,219.056818 C165.909333,218.994733 166.46136,219.017734 167,219.125 L167.477273,218.147727 L168.147727,217.829545 L169.954545,221.488636 L169.25,221.818182 C168.613272,220.964897 167.734122,220.323355 166.727273,219.977273 C165.803411,219.708747 164.811956,219.802204 163.954545,220.238636 C163.244243,220.534413 162.652556,221.058137 162.272727,221.727273 C161.94846,222.283267 161.91871,222.963266 162.193182,223.545455 C162.602273,224.420455 163.840909,224.681818 165.897727,224.181818 L166.534091,224.034091 C167.995733,223.605417 169.549722,223.605417 171.011364,224.034091 C172.178371,224.560106 173.092365,225.523063 173.556818,226.715909 C174.200276,228.005434 174.302535,229.498421 173.840909,230.863636 C173.394701,232.204048 172.398705,233.290964 171.102273,233.852273 C170.490343,234.15649 169.834755,234.363518 169.159091,234.465909 C168.554062,234.556407 167.937461,234.533284 167.340909,234.397727 L166.761364,235.681818 L165.988636,236.045455 L166.125,236.090909 Z" id="Shape" fill="#008061"></path>
                <path d="M200.545455,231.522727 C202.079299,231.531051 203.586874,231.921614 204.931818,232.659091 C206.343748,233.412457 207.50492,234.56178 208.272727,235.965909 C209.857185,238.724263 209.857185,242.116647 208.272727,244.875 C207.512427,246.269252 206.368899,247.416723 204.977273,248.181818 C202.224718,249.757587 198.843464,249.757587 196.090909,248.181818 C194.693538,247.420527 193.545383,246.272372 192.784091,244.875 C191.192635,242.118518 191.192635,238.722391 192.784091,235.965909 C193.551898,234.56178 194.71307,233.412457 196.125,232.659091 C197.469409,231.920264 198.977332,231.529611 200.511364,231.522727 L200.545455,231.522727 Z M200.545455,233 C199.263968,233.009365 198.005512,233.341567 196.886364,233.965909 C195.714629,234.597718 194.748469,235.552047 194.102273,236.715909 C193.447071,237.853507 193.098572,239.141777 193.090909,240.454545 C193.094319,241.750548 193.435036,243.023342 194.079545,244.147727 C194.719918,245.311116 195.677521,246.268718 196.840909,246.909091 C199.134539,248.227927 201.95637,248.227927 204.25,246.909091 C205.409955,246.268011 206.363709,245.310316 207,244.147727 C207.641029,243.022455 207.977847,241.749596 207.977273,240.454545 C207.972437,239.144351 207.632075,237.857233 206.988636,236.715909 C206.338905,235.554734 205.373637,234.601285 204.204545,233.965909 C203.083764,233.345626 201.826359,233.013702 200.545455,233 L200.545455,233 Z M196.590909,245.386364 L196.590909,235.784091 L199.897727,235.784091 C200.720743,235.744146 201.544967,235.832319 202.340909,236.045455 C202.835059,236.213124 203.25902,236.541093 203.545455,236.977273 C203.840433,237.387961 203.999387,237.880718 204,238.386364 C204.006757,239.072362 203.736328,239.732045 203.25,240.215909 C202.720151,240.753175 202.004185,241.06641 201.25,241.090909 C201.550199,241.21286 201.827015,241.38587 202.068182,241.602273 C202.612403,242.182818 203.08894,242.823285 203.488636,243.511364 L204.625,245.386364 L202.738636,245.386364 L201.886364,243.875 C201.488176,243.024462 200.937401,242.254148 200.261364,241.602273 C199.895468,241.360292 199.460496,241.244565 199.022727,241.272727 L198.113636,241.272727 L198.113636,245.352273 L196.590909,245.386364 Z M198.147727,239.977273 L200.022727,239.977273 C200.662752,240.03867 201.306042,239.899687 201.863636,239.579545 C202.186378,239.320875 202.367612,238.924688 202.352273,238.511364 C202.355593,238.238674 202.272011,237.972009 202.113636,237.75 C201.953471,237.521463 201.727556,237.347073 201.465909,237.25 C200.959817,237.108254 200.433865,237.050668 199.909091,237.079545 L198.181818,237.079545 L198.181818,239.977273 L198.147727,239.977273 Z" id="Shape" fill="#008061"></path>
            </g>
        </g>
    </g>
</svg>