<?xml version="1.0" encoding="UTF-8" standalone="no"?>
<svg width="250px" height="250px" viewBox="0 0 250 250" version="1.1" xmlns="http://www.w3.org/2000/svg" xmlns:xlink="http://www.w3.org/1999/xlink">
    <!-- Generator: Sketch 47.1 (45422) - http://www.bohemiancoding.com/sketch -->
    <title>BUTLER</title>
    <desc>Created with Sketch.</desc>
    <defs></defs>
    <g id="Page-1" stroke="none" stroke-width="1" fill="none" fill-rule="evenodd">
        <g id="BUTLER" fill-rule="nonzero">
            <g id="Butler_Bulldogs_logo" transform="translate(2.000000, 0.000000)">
                <g id="Group" transform="translate(122.782273, 124.668182) scale(-1, 1) rotate(-180.000000) translate(-122.782273, -124.668182) translate(0.623182, 2.509091)">
                    <g id="Shape">
                        <path d="M228.914773,213.113636 C220.693182,216.920455 219.147727,218.534091 219.147727,223.289773 C219.147727,233.227273 210.380682,239.909091 202.215909,239.909091 C186.278409,239.909091 175.613636,233.090909 168.568182,228.573864 C167.255682,227.721591 165.823864,226.8125 164.636364,226.136364 C161.556818,227.551136 157.301136,228.829545 152.034091,228.829545 C138.880682,228.829545 131.352273,224.221591 126.369318,221.176136 C125.085227,220.392045 123.147727,219.198864 122.625,219.198864 C122.125,219.198864 120.181818,220.392045 118.903409,221.176136 C113.914773,224.221591 106.397727,228.829545 93.2272727,228.829545 C87.9545455,228.829545 83.7045455,227.551136 80.625,226.136364 C79.4261364,226.8125 78.0056818,227.721591 76.6875,228.573864 C69.6363636,233.090909 58.9943182,239.909091 43.0511364,239.909091 C34.875,239.909091 26.125,233.227273 26.125,223.289773 C26.125,218.534091 24.5681818,216.920455 16.3465909,213.113636 C10.8125,210.556818 1.55113636,206.261364 1.55113636,195.715909 C1.55113636,188.232955 4.76136364,183.244318 7.32386364,179.238636 C10.6534091,174.068182 14.4318182,168.1875 14.4318182,150.778409 L14.4318182,145.897727 L17.9375,142.511364 C18.1477273,142.318182 18.5852273,141.909091 19.2329545,141.403409 C16.8295455,134.079545 12.3238636,117.471591 16.2670455,105.352273 L16.7329545,103.897727 L17.5738636,102.619318 C21.1590909,97.1363636 24.6193182,86.4715909 27.1477273,78.6704545 C29.4318182,71.625 30.7613636,67.6420455 32.5056818,64.8806818 C29.9715909,55.1590909 32.125,46.7670455 39.2443182,38.5568182 C58.3295455,16.5170455 74.9090909,5.35227273 88.5113636,5.35227273 C92.8579545,5.35227273 96.8977273,6.68181818 100.227273,9.17045455 C102.534091,8.15909091 104.755682,7.64772727 106.869318,7.64772727 C110.227273,7.64772727 113.039773,8.63636364 115.079545,9.64772727 C117.454545,8.96022727 119.988636,8.61363636 122.625,8.61363636 C125.272727,8.61363636 127.806818,8.96022727 130.193182,9.64772727 C132.215909,8.63636364 135.034091,7.64772727 138.392045,7.64772727 C140.522727,7.64772727 142.744318,8.15909091 145.028409,9.17045455 C148.357955,6.68181818 152.420455,5.35227273 156.75,5.35227273 C170.329545,5.35227273 186.897727,16.5170455 206.022727,38.5568182 C213.136364,46.7670455 215.289773,55.1590909 212.755682,64.8806818 C214.511364,67.6420455 215.829545,71.625 218.119318,78.6477273 C220.625,86.4545455 224.096591,97.125 227.693182,102.607955 L228.528409,103.897727 L229.005682,105.352273 C232.943182,117.471591 228.4375,134.073864 226.005682,141.403409 C226.664773,141.909091 227.119318,142.318182 227.306818,142.5 L230.823864,145.897727 L230.823864,150.778409 C230.823864,168.1875 234.619318,174.068182 237.9375,179.238636 C240.511364,183.244318 243.710227,188.232955 243.710227,195.715909 C243.710227,206.261364 234.443182,210.556818 228.914773,213.113636" fill="#7B7979"></path>
                        <path d="M227.647727,210.397727 C219.659091,214.102273 216.142045,216.443182 216.142045,223.295455 C216.142045,231.448864 208.926136,236.914773 202.210227,236.914773 C187.153409,236.914773 177.340909,230.642045 170.1875,226.051136 C168.232955,224.795455 166.221591,223.505682 164.681818,222.784091 C161.863636,224.267045 157.590909,225.835227 152.028409,225.835227 C139.721591,225.835227 132.903409,221.664773 127.926136,218.619318 C125.119318,216.909091 123.857955,216.204545 122.625,216.204545 C121.397727,216.204545 120.136364,216.909091 117.329545,218.619318 C112.352273,221.664773 105.545455,225.835227 93.2272727,225.835227 C87.6704545,225.835227 83.3977273,224.267045 80.5795455,222.784091 C79.0454545,223.505682 77.0284091,224.795455 75.0681818,226.051136 C67.9147727,230.642045 58.1136364,236.914773 43.0511364,236.914773 C36.3238636,236.914773 29.1136364,231.448864 29.1136364,223.295455 C29.1136364,216.443182 25.6022727,214.102273 17.6022727,210.397727 C12.0909091,207.846591 4.54545455,204.346591 4.54545455,195.721591 C4.54545455,189.119318 7.35795455,184.732955 9.84659091,180.875 C13.2215909,175.607955 17.4261364,169.068182 17.4261364,150.784091 L17.4261364,147.181818 L20.0227273,144.670455 C20.3352273,144.375 21.3011364,143.5 22.7954545,142.551136 C21.1477273,137.892045 14.9772727,118.965909 19.1079545,106.272727 L19.4545455,105.210227 L20.0795455,104.255682 C23.875,98.4488636 27.4090909,87.5511364 29.9886364,79.5965909 C32.5511364,71.7045455 33.8465909,67.8863636 35.7727273,65.4488636 L35.6420455,64.9943182 C33.0227273,55.9375 34.8920455,48.1477273 41.5056818,40.5113636 C54.2329545,25.8295455 72.6988636,8.32954545 88.5113636,8.32954545 C93.7954545,8.32954545 97.4488636,10.5056818 99.8011364,12.7159091 C102.318182,11.3465909 104.6875,10.6590909 106.863636,10.6590909 C110.284091,10.6590909 113.045455,11.8693182 114.761364,12.9034091 C117.198864,12.0340909 119.840909,11.6136364 122.625,11.6136364 C125.426136,11.6136364 128.0625,12.0340909 130.494318,12.9034091 C132.210227,11.8693182 134.965909,10.6590909 138.392045,10.6590909 C140.568182,10.6590909 142.943182,11.3465909 145.471591,12.7159091 C147.801136,10.5056818 151.465909,8.32954545 156.744318,8.32954545 C172.539773,8.32954545 191.028409,25.8295455 203.755682,40.5113636 C210.380682,48.1590909 212.232955,55.9375 209.613636,64.9943182 L209.482955,65.4488636 C211.426136,67.8806818 212.698864,71.7045455 215.261364,79.5738636 C217.823864,87.5397727 221.369318,98.4375 225.170455,104.255682 L225.806818,105.210227 L226.147727,106.284091 C230.278409,118.954545 224.119318,137.880682 222.454545,142.551136 C223.965909,143.5 224.926136,144.375 225.227273,144.670455 L227.846591,147.170455 L227.846591,150.784091 C227.846591,169.079545 232.039773,175.607955 235.414773,180.875 C237.903409,184.732955 240.721591,189.119318 240.721591,195.721591 C240.721591,204.357955 233.164773,207.846591 227.647727,210.397727" fill="#FFFFFF"></path>
                        <path d="M226.818182,208.585227 C218.9375,212.227273 214.147727,215.045455 214.147727,223.289773 C214.147727,230.244318 207.988636,234.914773 202.215909,234.914773 C187.744318,234.914773 178.210227,228.823864 171.267045,224.363636 C168.755682,222.755682 166.346591,221.221591 164.551136,220.556818 C161.988636,222.073864 157.738636,223.835227 152.034091,223.835227 C140.284091,223.835227 133.75,219.835227 128.971591,216.920455 C126.068182,215.136364 124.465909,214.204545 122.625,214.204545 C120.806818,214.204545 119.198864,215.136364 116.295455,216.920455 C111.517045,219.835227 104.988636,223.835227 93.2272727,223.835227 C87.5340909,223.835227 83.2897727,222.073864 80.7102273,220.556818 C78.9034091,221.221591 76.5056818,222.755682 74,224.363636 C67.0568182,228.823864 57.5340909,234.914773 43.0511364,234.914773 C37.2954545,234.914773 31.1193182,230.244318 31.1193182,223.289773 C31.1193182,215.045455 26.3352273,212.227273 18.4488636,208.585227 C13.1477273,206.130682 6.54545455,203.068182 6.54545455,195.715909 C6.54545455,189.698864 9.07954545,185.755682 11.5284091,181.943182 C15.0511364,176.465909 19.4261364,169.647727 19.4261364,150.778409 L19.4261364,148.022727 L21.4147727,146.113636 C21.6761364,145.863636 23.0511364,144.579545 25.25,143.443182 L24.9829545,142.693182 C24.125,140.403409 16.75,119.971591 21.0113636,106.892045 L21.2784091,106.073864 L21.7556818,105.352273 C25.7045455,99.3238636 29.2784091,88.2840909 31.8977273,80.2159091 C34.7613636,71.4034091 35.9375,67.9829545 38.0056818,65.9545455 L37.5625,64.4318182 C35.125,55.9772727 36.8068182,49 43.0284091,41.8181818 C55.4715909,27.4602273 73.4545455,10.3238636 88.5113636,10.3238636 C93.6193182,10.3238636 97.1988636,12.6534091 99.4602273,15.2272727 C102.602273,13.2556818 105.0625,12.6534091 106.869318,12.6534091 C110.380682,12.6534091 113.096591,14.1193182 114.522727,15.1193182 C116.835227,14.1647727 119.511364,13.6079545 122.625,13.6079545 C125.761364,13.6079545 128.431818,14.1647727 130.738636,15.1193182 C132.159091,14.1193182 134.886364,12.6534091 138.392045,12.6534091 C140.215909,12.6534091 142.676136,13.2556818 145.806818,15.2272727 C148.073864,12.6534091 151.653409,10.3238636 156.75,10.3238636 C171.772727,10.3238636 189.795455,27.4602273 202.238636,41.8181818 C208.471591,49 210.147727,55.9886364 207.698864,64.4318182 L207.267045,65.9431818 C209.329545,67.9829545 210.517045,71.3806818 213.369318,80.1931818 C215.965909,88.2613636 219.5625,99.3125 223.511364,105.352273 L223.988636,106.073864 L224.244318,106.892045 C228.505682,119.971591 221.125,140.409091 220.284091,142.693182 L220.005682,143.4375 C222.210227,144.579545 223.602273,145.852273 223.846591,146.102273 L225.840909,148.022727 L225.840909,150.778409 C225.840909,169.647727 230.215909,176.465909 233.732955,181.943182 C236.193182,185.755682 238.727273,189.698864 238.727273,195.715909 C238.727273,203.068182 232.125,206.130682 226.818182,208.585227" fill="#13294B"></path>
                        <path d="M43.0557955,16.8238636 C40.6239773,16.8238636 37.6048864,18.7765909 37.6048864,21.9638636 C37.6048864,43.1002273 13.0307955,41.2202273 13.0307955,49.5379545 C13.0307955,60.7106818 25.92125,61.5788636 25.92125,94.4788636 C25.92125,94.4788636 28.72625,97.1970455 32.68625,97.1970455 C40.4535227,97.1970455 50.0585227,88.7106818 50.0585227,64.2243182 C50.0585227,57.4788636 38.9539773,54.7379545 38.9539773,44.2738636 C38.9539773,33.8988636 51.1085227,30.8420455 51.1085227,30.8420455 C51.1085227,30.8420455 47.28125,43.3088636 67.4267045,54.2334091 L67.0539773,54.9788636 C67.0539773,54.9788636 58.58125,52.6970455 53.6403409,58.1834091 C53.6403409,58.1834091 59.93125,97.1152273 31.0530682,104.828864 C31.0530682,104.828864 23.5035227,125.047045 27.1907955,136.347045 C34.7535227,147.910682 40.0998864,172.769773 42.6739773,174.797045 L50.7267045,144.6925 C50.7267045,144.6925 53.3039773,138.187955 67.9403409,129.201591 L72.7857955,116.301591 C75.9585227,109.528864 87.58125,119.069773 98.7176136,108.751591 C98.7176136,108.751591 97.9085227,101.428864 116.599432,100.587955 L113.908523,98.0470455 C110.83125,98.0470455 99.8994318,96.6334091 99.8994318,96.6334091 C99.8994318,96.6334091 98.8494318,110.778864 84.5085227,110.778864 C75.1676136,110.778864 69.43125,103.056136 69.43125,95.4470455 C69.43125,85.8470455 76.6585227,81.9606818 76.6585227,81.9606818 C76.6585227,81.9606818 72.9630682,79.5379545 67.7085227,78.7561364 C67.7085227,78.7561364 59.9721591,81.3834091 53.6403409,96.6334091 L52.88125,96.2606818 C54.88125,83.1697727 57.6630682,72.1243182 63.4767045,70.3288636 C63.4767045,70.3288636 71.8176136,70.5606818 81.5039773,72.1243182 C83.4494318,72.4152273 83.7948864,75.6470455 83.7948864,75.6470455 C83.7948864,75.6470455 91.9994318,87.4334091 114.613068,92.9334091 C118.735795,94.0425 119.572159,100.737955 119.572159,100.737955 L125.690341,100.737955 C125.690341,100.737955 126.513068,94.0425 130.653977,92.9334091 C153.267614,87.4334091 161.458523,75.6470455 161.458523,75.6470455 C161.458523,75.6470455 161.808523,72.4152273 163.776705,72.1243182 C173.453977,70.5606818 181.790341,70.3288636 181.790341,70.3288636 C187.613068,72.1243182 190.358523,83.1697727 192.38125,96.2606818 L191.635795,96.6334091 C185.290341,81.3834091 177.544886,78.7561364 177.544886,78.7561364 C172.294886,79.5379545 168.599432,81.9606818 168.599432,81.9606818 C168.599432,81.9606818 175.822159,85.8470455 175.822159,95.4470455 C175.822159,103.056136 170.099432,110.778864 160.749432,110.778864 C146.417614,110.778864 145.353977,96.6334091 145.353977,96.6334091 C145.353977,96.6334091 134.43125,98.0470455 131.344886,98.0470455 L128.653977,100.587955 C147.349432,101.428864 146.544886,108.751591 146.544886,108.751591 C157.68125,119.069773 169.299432,109.528864 172.485795,116.301591 L177.313068,129.201591 C191.963068,138.187955 194.540341,144.6925 194.540341,144.6925 L202.58125,174.797045 C205.167614,172.769773 210.513068,147.910682 218.08125,136.347045 C221.758523,125.047045 214.203977,104.828864 214.203977,104.828864 C185.326705,97.1152273 191.635795,58.1834091 191.635795,58.1834091 C186.676705,52.6970455 178.213068,54.9788636 178.213068,54.9788636 L177.840341,54.2334091 C197.967614,43.3088636 194.167614,30.8420455 194.167614,30.8420455 C194.167614,30.8420455 206.308523,33.8988636 206.308523,44.2738636 C206.308523,54.7379545 195.203977,57.4788636 195.203977,64.2243182 C195.203977,88.7106818 204.808523,97.1970455 212.558523,97.1970455 C216.522159,97.1970455 219.335795,94.4788636 219.335795,94.4788636 C219.335795,61.5788636 232.235795,60.7106818 232.235795,49.5379545 C232.235795,41.2202273 207.649432,43.1002273 207.649432,21.9638636 C207.649432,18.7765909 204.653977,16.8238636 202.208523,16.8238636 C181.272159,16.8238636 172.299432,31.5165909 163.03125,31.5165909 C163.03125,31.5165909 159.144886,27.9034091 152.03125,27.9034091 C134.944886,27.9034091 131.563068,37.5356818 122.626705,37.5356818 C113.708523,37.5356818 110.326705,27.9034091 93.2221591,27.9034091 C86.1085227,27.9034091 82.2403409,31.5165909 82.2403409,31.5165909 C72.9767045,31.5165909 63.9994318,16.8238636 43.0557955,16.8238636 L43.0557955,16.8238636 Z M82.9176136,60.8743182 C92.0494318,66.1152273 97.3130682,62.8379545 100.940341,62.8379545 C104.744886,62.8379545 106.349432,77.6379545 108.176705,77.6379545 C108.176705,77.6379545 113.340341,76.9152273 119.172159,78.3470455 C119.567614,78.4288636 119.090341,79.0697727 118.685795,79.1197727 C112.244886,79.9606818 106.167614,83.2197727 106.167614,83.2197727 C101.235795,84.6925 102.83125,75.4334091 98.1267045,68.6970455 C95.1994318,66.1470455 85.8539773,67.4834091 82.9176136,60.8743182 Z M162.340341,60.8743182 C159.408523,67.4834091 150.072159,66.1470455 147.140341,68.6970455 C142.435795,75.4334091 144.03125,84.6925 139.103977,83.2197727 C139.103977,83.2197727 133.022159,79.9606818 126.576705,79.1197727 C126.176705,79.0697727 125.703977,78.4288636 126.090341,78.3470455 C131.926705,76.9152273 137.08125,77.6379545 137.08125,77.6379545 C138.903977,77.6379545 140.522159,62.8379545 144.317614,62.8379545 C147.944886,62.8379545 153.213068,66.1152273 162.340341,60.8743182 Z M81.1403409,85.4334091 C80.43125,85.3879545 79.9448864,85.5288636 79.9448864,85.5288636 C79.9448864,85.5288636 73.6767045,88.0197727 73.6767045,94.9652273 C73.6767045,100.133409 77.5676136,106.278864 84.3448864,106.278864 C93.3539773,106.278864 95.4267045,98.8106818 95.4267045,95.5152273 L94.6903409,94.7697727 C94.6903409,99.7652273 91.7357955,102.678864 88.7039773,103.915227 C88.4676136,104.010682 88.1494318,103.624318 88.3494318,103.451591 C89.1721591,102.851591 89.7267045,101.860682 89.7267045,100.756136 C89.7267045,98.8970455 88.2130682,97.3834091 86.3630682,97.3834091 C84.4903409,97.3834091 82.9903409,98.8970455 82.9903409,100.756136 C82.9903409,102.397045 84.1630682,103.760682 85.7130682,104.065227 C85.9585227,104.115227 85.9176136,104.624318 85.7130682,104.624318 C85.5585227,104.637955 85.3994318,104.651591 85.2357955,104.651591 C81.5676136,104.651591 75.9994318,102.110682 75.9994318,95.7106818 C75.9994318,88.0652273 83.6721591,86.4697727 83.6721591,86.4697727 C82.78125,85.7106818 81.8539773,85.4788636 81.1403409,85.4334091 L81.1403409,85.4334091 Z M164.122159,85.4334091 C163.408523,85.4788636 162.472159,85.7197727 161.576705,86.4788636 C161.576705,86.4788636 169.263068,88.0652273 169.263068,95.7106818 C169.263068,102.110682 163.699432,104.651591 160.013068,104.651591 C159.872159,104.651591 159.713068,104.637955 159.540341,104.624318 C159.353977,104.624318 159.299432,104.115227 159.540341,104.056136 C161.099432,103.756136 162.267614,102.397045 162.267614,100.756136 C162.267614,98.8970455 160.763068,97.3834091 158.913068,97.3834091 C157.058523,97.3834091 155.53125,98.8970455 155.53125,100.756136 C155.53125,101.869773 156.085795,102.860682 156.913068,103.460682 C157.108523,103.628864 156.803977,104.010682 156.558523,103.915227 C153.53125,102.669773 150.558523,99.7652273 150.558523,94.7697727 L149.822159,95.5152273 C149.822159,98.8197727 151.922159,106.278864 160.935795,106.278864 C167.713068,106.278864 171.590341,100.133409 171.590341,94.9652273 C171.590341,88.0197727 165.33125,85.5288636 165.33125,85.5288636 C165.33125,85.5288636 164.835795,85.3879545 164.122159,85.4334091 L164.122159,85.4334091 Z M98.1176136,113.769773 C89.08125,119.537955 80.83125,119.1425 80.83125,119.1425 C75.9039773,132.060682 67.7176136,146.333409 67.7176136,146.333409 C67.7176136,146.333409 69.7221591,157.647045 76.1767045,167.065227 L75.4585227,167.651591 C75.4585227,167.651591 59.5585227,151.997045 62.0539773,140.224318 C62.0539773,140.224318 55.2085227,143.578864 53.6130682,148.660682 L43.80125,182.615227 C42.0626136,188.610682 42.9521591,193.447045 47.93125,199.183409 C52.8948864,204.924318 73.5721591,228.428864 88.5085227,228.428864 C94.2494318,228.428864 96.0403409,223.365227 96.0403409,223.365227 C96.0403409,223.365227 75.7948864,203.0425 75.7948864,193.928864 C75.7948864,182.856136 80.1721591,177.301591 80.1721591,174.051591 C80.1721591,171.7425 77.8903409,169.856136 77.8903409,166.097045 C77.8903409,162.310682 78.8403409,155.056136 88.6539773,148.874318 C87.7539773,138.065227 101.163068,126.765227 105.840341,129.660682 C105.840341,129.660682 104.28125,134.710682 107.535795,139.319773 C113.294886,139.319773 125.894886,131.474318 119.944886,122.0425 C116.603977,121.078864 115.167614,116.728864 113.676705,114.283409 C113.676705,114.283409 110.240341,116.833409 106.763068,116.833409 C106.763068,116.833409 108.140341,119.833409 110.749432,119.833409 C113.349432,119.833409 115.567614,122.010682 107.676705,122.010682 C97.9948864,122.010682 97.9130682,117.765227 98.1176136,113.769773 L98.1176136,113.769773 Z M147.140341,113.769773 C147.326705,117.765227 147.276705,122.010682 137.594886,122.010682 C129.690341,122.010682 131.908523,119.833409 134.499432,119.833409 C137.122159,119.833409 138.508523,116.833409 138.508523,116.833409 C135.022159,116.833409 131.576705,114.283409 131.576705,114.283409 C130.094886,116.724318 128.653977,121.078864 125.317614,122.0425 C119.38125,131.474318 131.963068,139.310682 137.73125,139.310682 C140.990341,134.710682 139.440341,129.660682 139.440341,129.660682 C144.099432,126.769773 157.513068,138.065227 156.603977,148.874318 C166.440341,155.056136 167.372159,162.310682 167.372159,166.097045 C167.372159,169.856136 165.08125,171.737955 165.08125,174.051591 C165.08125,177.301591 169.458523,182.856136 169.458523,193.928864 C169.458523,203.037955 149.235795,223.365227 149.235795,223.365227 C149.235795,223.365227 151.022159,228.428864 156.744886,228.428864 C171.68125,228.428864 192.363068,204.924318 197.335795,199.1925 C202.317614,193.451591 203.203977,188.606136 201.453977,182.615227 L191.663068,148.660682 C190.063068,143.574318 183.199432,140.224318 183.199432,140.224318 C185.694886,151.997045 169.794886,167.651591 169.794886,167.651591 L169.094886,167.056136 C175.544886,157.647045 177.544886,146.333409 177.544886,146.333409 C177.544886,146.333409 169.367614,132.060682 164.440341,119.1425 C164.440341,119.1425 156.172159,119.537955 147.140341,113.769773 L147.140341,113.769773 Z M102.067614,134.356136 C102.067614,134.356136 93.4721591,138.7425 93.4721591,147.0425 C93.4721591,153.537955 95.8085227,156.428864 99.9267045,156.428864 C103.122159,156.428864 106.426705,153.574318 106.426705,150.610682 C106.426705,145.397045 100.503977,143.578864 102.067614,134.356136 L102.067614,134.356136 Z M143.208523,134.356136 C144.735795,143.578864 138.840341,145.397045 138.840341,150.610682 C138.840341,153.574318 142.140341,156.428864 145.326705,156.428864 C149.472159,156.428864 151.790341,153.533409 151.790341,147.0425 C151.790341,138.7425 143.208523,134.356136 143.208523,134.356136 L143.208523,134.356136 Z M118.872159,147.078864 C118.067614,147.078864 116.563068,151.560682 115.844886,151.560682 C114.563068,150.924318 112.73125,148.160682 111.990341,148.160682 C111.185795,148.160682 109.063068,154.519773 109.063068,154.519773 C109.063068,154.519773 114.140341,153.410682 122.626705,153.410682 C131.126705,153.410682 136.203977,154.519773 136.203977,154.519773 C136.203977,154.519773 134.08125,148.160682 133.263068,148.160682 C132.535795,148.160682 130.703977,150.924318 129.408523,151.560682 C128.699432,151.560682 127.185795,147.078864 126.38125,147.078864 C125.58125,147.078864 123.740341,150.833409 122.626705,150.833409 C121.517614,150.833409 119.667614,147.078864 118.872159,147.078864 L118.872159,147.078864 Z M90.0448864,153.897045 C90.0448864,153.897045 84.1176136,159.187955 84.1176136,163.860682 C84.1176136,168.533409 88.5903409,172.860682 96.18125,172.860682 C105.349432,172.860682 110.494886,162.374318 122.626705,162.374318 C134.78125,162.374318 139.93125,172.860682 149.085795,172.860682 C156.676705,172.860682 161.140341,168.533409 161.140341,163.860682 C161.140341,159.187955 155.190341,153.897045 155.190341,153.897045 C155.190341,153.897045 153.763068,160.137955 145.940341,160.137955 C138.772159,160.137955 131.849432,155.1925 122.626705,155.1925 C113.422159,155.1925 106.48125,160.137955 99.3221591,160.137955 C91.5039773,160.137955 90.0448864,153.897045 90.0448864,153.897045 L90.0448864,153.897045 Z M122.617614,164.365227 C112.572159,164.365227 102.953977,182.251591 86.8585227,178.001591 C86.8585227,178.001591 82.0903409,186.147045 82.0903409,194.033409 C82.0903409,204.115227 100.290341,226.119773 106.867614,226.119773 C109.403977,226.119773 111.226705,224.501591 111.226705,224.501591 C111.226705,224.501591 104.972159,215.537955 104.072159,210.715227 L104.749432,210.333409 C108.490341,214.710682 111.385795,225.169773 122.617614,225.169773 C133.876705,225.169773 136.767614,214.710682 140.526705,210.333409 L141.163068,210.715227 C140.276705,215.537955 134.035795,224.501591 134.035795,224.501591 C134.035795,224.501591 135.858523,226.119773 138.394886,226.119773 C144.972159,226.119773 163.163068,204.115227 163.163068,194.033409 C163.163068,186.147045 158.413068,178.001591 158.413068,178.001591 C142.299432,182.251591 132.68125,164.365227 122.617614,164.365227 Z" fill="#FFFFFF" transform="translate(122.633295, 122.626364) scale(-1, 1) rotate(-180.000000) translate(-122.633295, -122.626364) "></path>
                        <path d="M18.9257955,22.0738636 C19.2894318,22.9056818 19.7721591,23.8147727 20.34625,24.7284091 C24.2780682,30.7965909 29.5689773,39.0693182 29.8985227,59.4965909 C30.6257955,59.9011364 31.6130682,60.2784091 32.7039773,60.2784091 C36.2039773,60.2784091 41.4103409,57.2420455 44.1830682,47.4238636 C44.4103409,46.0238636 44.5907955,44.6965909 44.7157955,43.4465909 C43.0567045,50.7875 39.2735227,53.4829545 36.4948864,53.7784091 C35.5630682,53.8875 34.6926136,53.6511364 34.0448864,53.3875 C32.8971591,44.2511364 30.8776136,38.1375 28.6557955,33.6875 C25.2580682,28.2011364 21.9371591,24.6829545 18.9257955,22.0738636 L18.9257955,22.0738636 Z M226.339432,22.0738636 C223.307614,24.6829545 220.007614,28.2011364 216.598523,33.6875 C214.398523,38.1375 212.375795,44.2511364 211.212159,53.3875 C210.557614,53.6511364 209.689432,53.8875 208.757614,53.7784091 C205.984886,53.4829545 202.193977,50.7875 200.539432,43.4465909 C200.67125,44.6965909 200.848523,46.0238636 201.080341,47.4238636 C203.853068,57.2420455 209.066705,60.2784091 212.557614,60.2784091 C213.643977,60.2784091 214.634886,59.9011364 215.348523,59.4965909 C215.703068,39.0693182 220.984886,30.7965909 224.916705,24.7284091 C225.503068,23.8147727 225.980341,22.9056818 226.339432,22.0738636 L226.339432,22.0738636 Z M34.2030682,75.1647727 C32.1067045,81.4420455 28.7689773,94.3056818 30.8826136,101.7375 C34.2917045,107.128409 37.15125,114.660227 39.5830682,121.828409 C40.4126136,124.260227 41.1848864,126.651136 41.9180682,128.901136 C41.94625,128.982955 41.9694318,129.064773 41.9980682,129.132955 L46.8980682,110.7375 L46.9707955,110.514773 L47.0571591,110.310227 C47.2435227,109.810227 48.5435227,106.860227 53.1207955,102.473864 C42.61625,107.955682 42.9489773,112.196591 41.9089773,114.060227 C40.1535227,109.519318 36.7739773,102.205682 35.4103409,99.7829545 C33.5467045,96.5329545 34.2030682,75.1647727 34.2030682,75.1647727 L34.2030682,75.1647727 Z M211.103068,75.1647727 C211.103068,75.1647727 211.766705,96.5329545 209.903068,99.7829545 C208.516705,102.205682 205.166705,109.519318 203.407614,114.060227 C202.37125,112.196591 202.689432,107.955682 192.166705,102.473864 C196.753068,106.860227 198.034886,109.810227 198.257614,110.310227 L198.330341,110.514773 L198.398523,110.7375 L203.307614,129.132955 C203.330341,129.064773 203.357614,128.982955 203.380341,128.901136 C204.116705,126.651136 204.898523,124.260227 205.72125,121.828409 C208.148523,114.660227 211.003068,107.128409 214.425795,101.7375 C216.543977,94.3056818 213.189432,81.4420455 211.103068,75.1647727 L211.103068,75.1647727 Z M54.0894318,124.864773 L46.6757955,150.546591 C45.1439773,155.842045 46.0894318,159.578409 50.1939773,164.305682 C61.3303409,177.160227 71.6576136,186.069318 79.8621591,190.096591 C73.7530682,184.278409 66.9757955,176.746591 59.7530682,167.664773 C54.6394318,161.223864 52.8576136,155.805682 53.1939773,147.669318 L54.0894318,124.864773 L54.0894318,124.864773 Z M191.153068,124.864773 L192.07125,147.669318 C192.398523,155.805682 190.625795,161.223864 185.507614,167.664773 C178.275795,176.746591 171.503068,184.278409 165.398523,190.096591 C173.593977,186.069318 183.939432,177.160227 195.07125,164.305682 C199.175795,159.578409 200.125795,155.842045 198.584886,150.546591 L191.153068,124.864773 L191.153068,124.864773 Z M85.7757955,162.923864 C85.7757955,167.219318 89.0985227,173.701136 93.4121591,179.710227 C98.5348864,185.960227 103.389432,189.823864 105.580341,190.264773 C103.807614,188.264773 101.989432,186.205682 98.9757955,182.401136 C97.3303409,180.328409 95.2439773,177.414773 94.3939773,176.246591 C93.5530682,175.073864 87.3076136,166.051136 85.7757955,162.923864 L85.7757955,162.923864 Z M159.47125,162.923864 C157.948523,166.051136 151.707614,175.073864 150.866705,176.246591 C150.016705,177.414773 147.943977,180.328409 146.275795,182.401136 C143.262159,186.205682 141.457614,188.264773 139.680341,190.264773 C141.880341,189.823864 146.716705,185.960227 151.843977,179.710227 C156.148523,173.701136 159.47125,167.219318 159.47125,162.923864 L159.47125,162.923864 Z M112.157614,181.442045 C114.903068,185.632955 117.557614,188.269318 122.634886,188.269318 C127.707614,188.269318 130.353068,185.632955 133.103068,181.442045 C133.103068,181.442045 129.657614,184.142045 122.734886,184.142045 C115.807614,184.142045 112.157614,181.442045 112.157614,181.442045 Z" fill="#C8C7C7" transform="translate(122.632614, 106.169318) scale(-1, 1) rotate(-180.000000) translate(-122.632614, -106.169318) "></path>
                    </g>
                </g>
            </g>
        </g>
    </g>
</svg>