<?xml version="1.0" encoding="UTF-8" standalone="no"?>
<svg width="250px" height="250px" viewBox="0 0 250 250" version="1.1" xmlns="http://www.w3.org/2000/svg" xmlns:xlink="http://www.w3.org/1999/xlink">
    <!-- Generator: Sketch 47.1 (45422) - http://www.bohemiancoding.com/sketch -->
    <title>CLEVST</title>
    <desc>Created with Sketch.</desc>
    <defs></defs>
    <g id="Page-1" stroke="none" stroke-width="1" fill="none" fill-rule="evenodd">
        <g id="CLEVST" fill-rule="nonzero">
            <g id="Group" transform="translate(0.000000, 29.000000)">
                <path d="M58.2781189,184.944856 C55.2719823,182.60116 51.166785,176.080148 46.0781479,165.562 C43.2979366,159.818687 38.277077,149.4476 38.277077,138.440576 C38.277077,131.12729 40.4951328,123.533133 47.0589298,116.829288 C49.3859614,114.45247 51.8365874,112.450591 54.3669517,110.842198 C54.3244246,110.390417 54.2818975,109.922738 54.2327255,109.38484 L53.9656019,106.421105 C53.9656019,106.421105 57.9060065,104.731895 59.0396204,104.245667 C59.0250017,102.42662 58.9917774,98.4175618 58.9665269,95.1862026 C58.6887716,95.1226088 58.2355918,95.0192689 58.2355918,95.0192689 L57.8050046,89.0772246 C57.6774232,87.4714815 56.8973161,82.6078818 54.8679745,79.648121 C53.3609193,77.4488359 49.0018882,75.2959213 46.5299986,74.5341207 L36.5228328,71.4471724 L39.0106701,67.0168053 C39.3429133,66.4232633 41.0838678,63.3787109 42.6361081,61.7358714 L42.8102035,61.5490647 C44.4979991,59.7459159 46.6775146,57.81028 51.2903795,57.0829261 C51.1149551,55.6083452 51.0245849,54.0542721 51.0245849,52.4299808 C51.0245849,46.5343069 52.2366082,40.2689942 54.3483461,35.2437602 C58.0056795,26.5446603 66.1110851,22.1633135 67.0227605,21.6916596 C67.0227605,21.6916596 69.9039737,20.2051548 70.7930566,19.7454247 C72.3612446,17.3421096 73.421765,16.2623401 74.3586908,15.3177074 L74.9793212,14.6844193 L75.1268372,14.5506074 C79.9297452,10.3560673 85.9460054,9.83936777 86.6171367,9.79432217 C86.6171367,9.79432217 87.5926028,9.72940351 88.4617511,9.66978434 C91.8320263,6.85045984 95.8295768,4.97576804 98.9167808,3.5343089 L104.232672,1.05150152 C104.232672,1.05150152 104.293805,2.54330574 104.354938,4.03246022 C106.069313,2.93414255 108.11726,2.05442852 110.518714,1.7046627 C112.548056,1.4078917 120.713265,0.864694778 123.97988,0.852770943 C124.694868,0.818324309 130.231369,0.602370412 137.753355,1.7046627 C140.561475,2.11404769 142.839335,3.30245656 144.641422,4.82605767 C145.044101,3.65752186 145.71789,1.71261192 145.71789,1.71261192 L149.619754,3.5343089 C153.251837,5.22881831 156.878604,7.11145934 159.874109,9.64858641 C160.888115,9.72012942 161.934017,9.79564704 161.934017,9.79564704 C162.575911,9.84069264 168.344982,10.3613668 173.142574,14.5506074 L173.258195,14.6526224 L173.913379,15.3203572 C174.851633,16.2676396 175.914812,17.3500588 177.476355,19.7454247 C178.365438,20.2038299 181.245322,21.6916596 181.245322,21.6916596 C182.156997,22.1619886 190.262403,26.5406857 193.921065,35.2437602 C196.032803,40.270319 197.243498,46.5343069 197.243498,52.4299808 C197.243498,54.0701705 197.150469,55.6388172 196.972387,57.1253219 C200.343991,57.7440365 203.269061,59.2623381 205.50838,61.607359 C207.011448,63.1799803 208.873339,66.3530452 209.232162,66.9730846 L211.807711,71.4299491 L201.738084,74.5341207 C199.267523,75.2959213 194.908492,77.4461862 193.401437,79.6467961 C191.370766,82.6092066 190.590659,87.4728064 190.461749,89.0984225 L190.249113,92.0237366 L190.032491,95.0192689 C190.032491,95.0192689 189.58064,95.1226088 189.301556,95.1862026 C189.276305,98.4175618 189.243081,102.42662 189.229791,104.245667 C190.363405,104.731895 194.302481,106.421105 194.302481,106.421105 L194.035357,109.38484 C193.987514,109.922738 193.943658,110.390417 193.90246,110.842198 C196.432824,112.450591 198.88345,114.453795 201.209153,116.830613 C207.774279,123.533133 209.991006,131.12729 209.991006,138.440576 C209.991006,149.4476 204.971475,159.818687 202.191264,165.562 C197.099969,176.080148 192.997429,182.602485 189.989964,184.944856 C186.796442,187.431638 182.769654,187.811876 179.477788,185.935859 C174.257583,182.958875 173.197062,176.070873 172.826279,169.068933 C172.738567,167.416819 172.696039,165.617645 172.696039,163.729704 C172.696039,159.67825 172.894056,155.209462 173.276801,150.863887 C173.319328,150.396207 173.339262,149.952376 173.339262,149.535042 C173.339262,148.757343 173.25155,148.098882 173.114666,147.523888 C170.673343,148.377105 168.584197,147.990243 167.172828,147.188696 C166.844572,147.053559 166.521631,146.921072 166.202678,146.793884 C163.584601,149.989472 161.106067,152.92936 158.909275,155.008082 C146.657474,166.595399 133.016896,174.083568 124.155305,174.083568 C115.252515,174.083568 101.610609,166.595399 89.3601368,155.008082 C87.1633446,152.92936 84.6848102,149.989472 82.0667336,146.793884 C81.7796754,146.907823 81.4899593,147.025737 81.1962563,147.147625 C79.8566517,147.929299 77.7249792,148.431424 75.1534166,147.530512 C75.0165324,148.104181 74.9301492,148.761317 74.9301492,149.536366 C74.9301492,149.953701 74.9500838,150.396207 74.9912819,150.862562 C75.3753551,155.209462 75.5733721,159.6809 75.5733721,163.733679 C75.5733721,165.620295 75.529516,167.416819 75.4431327,169.068933 C75.0723493,176.070873 74.009171,182.958875 68.7902945,185.935859 C65.4984286,187.811876 61.4703118,187.431638 58.2781189,184.944856" id="Shape" fill="#006A4D" transform="translate(124.165272, 93.964902) scale(-1, 1) rotate(-180.000000) translate(-124.165272, -93.964902) "></path>
                <path d="M123.929379,4.72565916 C120.917927,4.72565916 112.81385,5.25958198 110.909432,5.53912966 C105.691885,6.29695561 102.693722,10.3232372 101.876403,12.0296704 C101.787362,12.1952792 101.500304,12.8709632 101.500304,12.8709632 C101.497646,12.8709632 101.445816,12.7742476 101.07902,11.67593 C100.49693,9.93769983 100.383967,7.04550746 100.383967,7.04550746 C94.3863122,9.8449589 88.3461305,12.9623793 86.2197738,18.7798858 L85.6589473,20.9685719 L86.7114938,13.6592612 C86.7114938,13.6592612 81.4633799,14.0116767 77.5150014,17.4616396 C76.3494922,18.6765459 75.4085794,19.4171485 73.5772548,22.3252393 C73.3446845,22.6935533 73.3473425,22.6988528 72.9978226,22.8790352 C70.6176322,24.1085151 68.6294887,25.1366146 68.6294887,25.1366146 C68.3171801,25.2969239 60.9586572,29.1655459 57.8023466,36.6749121 C55.8460986,41.3278574 54.8001969,47.0248007 54.8001969,52.2567144 C54.8001969,55.0482166 55.0992158,57.7072318 55.7145302,60.0032324 C55.7876238,60.2721811 55.8421116,60.4921096 55.9072313,60.7425101 C55.1537037,60.682891 54.3696097,60.6577184 53.5469755,60.7107133 C48.1646353,61.0604791 46.5911314,63.0146631 45.3006987,64.3806046 C44.010266,65.747871 42.2600088,68.8652914 42.2600088,68.8652914 L47.5001488,70.4816334 C49.5667017,71.1188962 55.4686703,73.5579828 57.9246122,77.1417576 C61.0357377,81.6781143 61.5646689,88.5329944 61.5699848,88.6018877 L61.7839494,91.5483998 L62.7155594,91.7630288 L62.8285221,105.603951 L64.2877343,106.136549 C60.9772629,107.555486 57.9923898,108.83796 57.9923898,108.83796 C57.9923898,108.83796 58.3578573,112.896039 58.4163321,112.865567 C56.0839847,114.088422 52.9861489,116.144621 49.6730195,119.527016 C35.2456899,134.258251 44.8342292,154.06639 49.4417782,163.58426 C54.1224207,173.25979 58.0482066,179.637717 60.4961747,181.544205 C62.4550807,183.071781 64.7821122,183.324831 66.7197547,182.219889 C69.5850202,180.586324 70.9272829,176.662057 71.3498962,168.675738 C71.6143618,163.662428 71.4535561,157.24078 70.9086772,151.053635 C70.4461947,145.815097 72.1419641,143.406482 73.6809147,142.30419 C73.6184529,142.349235 73.8682999,142.127982 74.0104999,142.240596 C77.440579,144.939357 79.2626008,143.341564 79.2626008,143.341564 C79.2626008,143.341564 83.0714371,141.755693 83.1950316,141.905404 C86.3207758,145.742229 89.3774134,149.500887 91.8652507,151.853857 C103.250561,162.625054 116.145585,169.861497 123.953301,169.861497 L123.99317,169.861497 C131.800886,169.861497 144.694581,162.625054 156.08122,151.853857 C158.569058,149.500887 161.625695,145.742229 164.750111,141.905404 C164.873705,141.755693 168.68387,143.341564 168.68387,143.341564 C168.68387,143.341564 170.505892,144.939357 173.934642,142.240596 C174.0795,142.127982 174.328018,142.349235 174.265556,142.30419 C175.804507,143.406482 177.500276,145.815097 177.036465,151.053635 C176.491586,157.24078 176.332109,163.662428 176.596575,168.675738 C177.017859,176.662057 178.360122,180.586324 181.226716,182.219889 C183.164359,183.324831 185.490061,183.071781 187.451625,181.544205 C189.898264,179.637717 193.822721,173.25979 198.504693,163.58426 C203.112242,154.06639 212.700781,134.258251 198.273452,119.527016 C194.961651,116.144621 191.862486,114.088422 189.530139,112.865567 C189.588614,112.896039 189.954081,108.83796 189.954081,108.83796 C189.954081,108.83796 186.969208,107.555486 183.657408,106.136549 L185.117949,105.603951 L185.230912,91.7630288 L186.161193,91.5483998 L186.376486,88.6018877 C186.381802,88.5329944 186.910733,81.6781143 190.021859,77.1417576 C192.477801,73.5579828 198.37844,71.1188962 200.446322,70.4816334 L205.686462,68.8652914 C205.686462,68.8652914 203.783373,65.5716632 202.539455,64.2679906 C201.324773,62.9987647 198.855542,61.0008599 194.399496,60.7107133 C193.576861,60.6577184 192.792767,60.682891 192.037911,60.7425101 C192.104359,60.4921096 192.158847,60.2721811 192.231941,60.0032324 C192.847255,57.7072318 193.144945,55.0482166 193.144945,52.2567144 C193.144945,47.0248007 192.099044,41.3278574 190.144124,36.6749121 C186.987814,29.1655459 179.629291,25.2969239 179.318311,25.1366146 C179.318311,25.1366146 177.32751,24.1085151 174.948648,22.8790352 C174.599129,22.6988528 174.601787,22.6935533 174.367887,22.3252393 C172.539221,19.4171485 171.59565,18.6765459 170.43147,17.4616396 C166.48442,14.0116767 161.502101,13.6592612 161.502101,13.6592612 L162.287524,20.9685719 L161.728026,18.7798858 C159.600341,12.9623793 153.827282,9.8449589 147.829628,7.04550746 C147.829628,7.04550746 146.848846,9.88470501 146.080699,11.5434429 C145.712574,12.341015 145.45874,12.8749378 145.456082,12.8736129 C145.456082,12.8736129 145.143774,12.2774212 145.090615,12.1237362 C144.495235,10.529917 142.255916,6.29695561 137.037039,5.53912966 C129.435314,4.42358868 123.929379,4.72565916 123.929379,4.72565916" id="Shape" fill="#000000" transform="translate(123.973236, 93.794140) scale(-1, 1) rotate(-180.000000) translate(-123.973236, -93.794140) "></path>
                <path d="M123.934695,22.0747429 C111.957992,22.0747429 77.5152672,46.7236942 72.7043854,78.4665323 C72.7043854,78.4665323 73.838903,77.9891655 76.099539,77.2804022 L76.2469699,77.2162255 C77.478981,72.861323 83.8910093,52.2599042 98.3036671,39.6662149 C114.501189,25.512358 124.052783,24.7693706 124.052783,24.7693706 L124.052783,70.149896 C157.99794,70.149896 175.889104,78.1942979 175.889104,78.1942979 C170.940009,46.5542698 136.416483,22.073842 123.93477,22.073842 L123.934695,22.0747429 Z M124.032295,73.1712898 C105.412853,73.2083861 86.8051067,76.2153123 68.9086262,82.2312844 C68.8528093,85.4030245 68.8525648,88.4313605 68.8525648,91.6626668 C104.841151,79.0901754 143.289931,79.1601285 179.284896,91.7309771 C179.256934,88.4122294 179.257891,85.2022271 179.257891,81.9310687 C161.301872,76.065178 142.664357,73.1327625 124.040662,73.1703888 L124.032295,73.1712898 Z" id="Shape" fill="#AAAAAC" transform="translate(124.068730, 56.902410) rotate(-360.000000) translate(-124.068730, -56.902410) "></path>
                <path d="M93.8191066,86.7962583 L95.9475896,91.9797878 L95.2893333,93.6917325 C95.2893333,93.6917325 103.708961,94.1981616 108.211202,96.2834972 C112.717803,98.3755208 115.5247,100.982654 115.5247,100.982654 L119.160663,98.5689519 C119.160663,98.5689519 114.982691,94.4825212 110.13194,91.9321984 C105.256205,89.3693689 93.8164061,86.7959403 93.8164061,86.7959403 L93.8191066,86.7962583 Z M154.395817,86.8873458 C154.395817,86.8873458 142.953892,89.4602444 138.080283,92.0212721 C133.229532,94.5729728 129.05156,98.6580256 129.05156,98.6580256 L132.687523,101.073847 C132.687523,101.073847 135.494527,98.4667143 140.001021,96.3746907 C144.503581,94.2907223 152.925016,93.782926 152.925016,93.782926 L152.266749,92.0688615 L154.395232,86.8873458 L154.395817,86.8873458 Z M161.16114,92.7767663 C161.16114,92.7767663 167.691925,96.2172961 169.323904,98.8670371 C170.957158,101.514128 170.958115,104.6882 170.958115,104.6882 L174.76642,102.570527 C174.76642,102.570527 173.950771,103.891688 176.668552,109.979415 C179.392946,116.07117 183.203378,118.4482 183.203378,118.4482 C183.203378,118.4482 179.393159,118.717477 175.310554,116.336674 C171.226674,113.954557 167.96378,108.923652 167.96378,108.923652 C167.96378,108.923652 167.145462,113.686827 171.228056,118.982281 C175.311937,124.275192 181.301245,126.925251 181.301245,126.925251 L169.595652,123.749696 C169.595652,123.749696 175.037637,127.187046 179.392627,137.246417 C183.743685,147.306106 177.492622,157.627165 177.492622,157.627165 C177.492622,157.627165 184.281972,154.501425 186.469461,148.094351 C188.686188,141.611812 190.002403,137.145621 188.37574,127.452868 C187.333825,121.240497 186.743549,120.04186 186.743549,120.04186 C186.743549,120.04186 190.009632,121.895195 194.088197,121.627571 C198.17346,121.365247 199.262898,119.776886 199.262898,119.776886 C199.262898,119.776886 190.551109,117.13149 186.743974,111.570956 C182.929822,106.010527 181.920228,97.9290288 181.920228,97.9290288 L161.166987,92.7768723 L161.16114,92.7767663 Z M86.7056995,92.8574986 L65.4750919,98.1507273 C65.4750919,98.1507273 64.9341999,106.092849 61.1226525,111.651688 C57.3124341,117.210845 48.6016016,119.857618 48.6016016,119.857618 C48.6016016,119.857618 49.691572,121.441951 53.7741767,121.708303 C57.8567814,121.969303 61.1229715,120.120578 61.1229715,120.120578 C61.1229715,120.120578 61.1220582,121.442481 59.4887601,127.531586 C57.8567814,133.616664 58.9031827,142.250368 61.3950388,148.180488 C64.0198134,154.42455 70.3738985,157.707155 70.3738985,157.707155 C70.3738985,157.707155 64.1146489,147.382704 68.4697462,137.326407 C72.8247372,127.266718 78.2709744,123.827566 78.2709744,123.827566 L66.5653812,127.003122 C66.5653812,127.003122 72.5544773,124.354335 76.634424,119.060152 C80.7196867,113.764698 79.9028468,109.001523 79.9028468,109.001523 C79.9028468,109.001523 76.6360188,114.033805 72.556072,116.414545 C68.4708094,118.796662 64.6632489,118.530204 64.6632489,118.530204 C64.6632489,118.530204 68.4708094,116.149147 71.193928,110.061419 C73.9156644,103.974964 73.0980803,102.648398 73.0980803,102.648398 L76.9085114,104.766071 C76.9085114,104.766071 76.9073419,101.591469 78.5407027,98.9470275 C80.1726814,96.2960146 86.7055932,92.8567567 86.7055932,92.8567567 L86.7056995,92.8574986 Z" id="Shape" fill="#D4AF7B" transform="translate(123.932250, 122.251548) rotate(-360.000000) translate(-123.932250, -122.251548) "></path>
                <path d="M124.009118,88.4581759 C116.334246,88.406506 112.01753,88.9798463 112.01753,88.9798463 L120.84276,93.9543642 L119.069379,89.9776328 L122.387665,91.7889958 L124.075885,88.9177364 L125.512877,91.7040981 L128.912177,89.8989885 L127.398424,93.99782 L136.829985,88.9695653 C136.829985,88.9695653 131.421278,88.5059454 124.009118,88.4582501 L124.009118,88.4581759 Z M95.3139353,96.817261 L93.5094027,96.8317498 L92.6227333,100.030093 L90.089392,99.6719649 C87.5549876,99.3221991 82.7954573,99.5433677 83.0333966,106.178351 C83.3948772,116.369255 94.3966463,121.12819 94.3966463,121.12819 C94.3966463,121.12819 91.73583,121.962689 89.0766084,120.892194 C87.1694791,120.129058 86.072917,118.956611 85.5881077,118.341871 C86.2202948,119.196868 87.7635832,121.392995 88.459965,123.397047 C90.0042314,127.838013 89.6497678,129.185035 89.6497678,129.185035 L95.9789746,130.064834 L109.551509,123.949762 C109.551509,123.949762 108.024147,120.080928 111.104706,117.387519 C113.119429,115.624063 115.82458,116.191002 115.82458,116.191002 L117.953063,106.562903 C117.953063,106.562903 114.583107,108.854081 108.093785,109.821236 C103.531474,110.49957 100.005762,108.589531 100.005762,108.589531 C100.005762,108.589531 104.69693,108.787678 109.25669,107.134293 C113.819,105.470255 113.818788,103.778661 113.818788,103.778661 L99.6466208,97.3355504 C99.6466208,97.3355504 98.9780624,96.9963835 98.5979761,100.316509 C98.2165609,103.635363 100.38167,105.947209 100.38167,105.947209 C100.38167,105.947209 97.7523241,104.539666 96.8100292,102.868952 C95.3043561,100.187414 95.3170079,96.8159892 95.3170079,96.8159892 L95.3139353,96.817261 Z M85.5875549,118.342698 C85.4210824,118.117554 85.2760755,117.926603 85.2760755,117.926603 C85.2760755,117.926603 85.3956193,118.099356 85.5875549,118.342698 Z M153.03346,96.9380892 C153.03346,96.9380892 153.049621,100.312905 151.542459,102.993172 C150.600217,104.66378 147.968798,106.071429 147.968798,106.071429 C147.968798,106.071429 150.135236,103.759583 149.752492,100.440729 C149.372406,97.1206034 148.703847,97.4597703 148.703847,97.4597703 L134.527428,103.901927 C134.527428,103.901927 134.529554,105.596913 139.093672,107.259679 C143.652049,108.914389 148.342473,108.712903 148.342473,108.712903 C148.342473,108.712903 144.818143,110.622942 140.25445,109.944608 C133.766405,108.976128 130.397193,106.686275 130.397193,106.686275 L132.523549,116.316388 C132.523549,116.316388 135.230827,115.750827 137.24555,117.512905 C140.324727,120.206313 138.798747,124.075147 138.798747,124.075147 L152.369155,130.188206 L158.700488,129.310474 C158.700488,129.310474 158.343993,127.962074 159.888271,123.522486 C160.579422,121.536452 162.106592,119.352323 162.749709,118.47971 C162.260136,119.097884 161.168444,120.257369 159.273647,121.015619 C156.614426,122.086114 153.951483,121.251615 153.951483,121.251615 C153.951483,121.251615 164.954315,116.49215 165.315796,106.301776 C165.553682,99.6668244 160.792078,99.4477438 158.257674,99.7975096 L155.724333,100.153571 L154.839737,96.9552278 L153.033184,96.9386616 L153.03346,96.9380892 Z M162.749528,118.479424 C162.947715,118.229172 163.071384,118.048841 163.071384,118.048841 C163.071384,118.048841 162.926292,118.239591 162.749528,118.479424 Z M124.070038,97.2666571 L119.426926,100.166852 C119.426926,100.166852 119.293614,100.377262 119.898296,103.95312 C120.502979,107.526243 121.437034,107.505469 121.437034,107.505469 C121.437034,107.505469 118.956001,108.974591 118.650338,113.430078 C118.314108,118.352025 120.469329,120.824551 120.469329,120.824551 L119.258688,122.056257 C119.258688,122.056257 115.799106,117.079831 112.956486,120.576111 C110.753049,123.281497 114.407937,126.374487 114.407937,126.374487 L118.286837,124.890208 C118.286837,124.890208 120.926602,128.481879 124.061596,128.481879 C127.19659,128.481879 130.048141,124.890208 130.048141,124.890208 L133.92704,126.374487 C133.92704,126.374487 137.581929,123.281497 135.378491,120.576111 C132.535765,117.079725 129.074163,122.056257 129.074163,122.056257 L127.867668,120.824551 C127.867668,120.824551 130.019541,118.352025 129.68464,113.430078 C129.380305,108.974485 126.897943,107.505469 126.897943,107.505469 C126.897943,107.505469 127.831967,107.526349 128.436681,103.95312 C129.041364,100.377241 128.908052,100.166852 128.908052,100.166852 L124.06974,97.2666571 L124.070038,97.2666571 Z" id="Shape" fill="#EAD1B3" transform="translate(124.174593, 109.321544) rotate(-360.000000) translate(-124.174593, -109.321544) "></path>
                <path d="M111.795857,99.8478282 C111.795857,99.8478282 108.48007,96.2388809 104.348293,97.6313198 C98.0383297,99.7564122 99.5706354,104.979052 99.5706354,104.979052 L99.6955589,105.376513 L111.795857,99.8478282" id="Shape" fill="#FFFFFF" transform="translate(105.601369, 101.344134) scale(-1, 1) rotate(-180.000000) translate(-105.601369, -101.344134) "></path>
                <path d="M136.607781,99.9723661 C136.607781,99.9723661 139.922239,96.3634187 144.055345,97.7558577 C150.363979,99.88095 148.833002,105.10359 148.833002,105.10359 L148.70675,105.456005 L136.607781,99.9723661" id="Shape" fill="#FFFFFF" transform="translate(142.802125, 101.446149) scale(-1, 1) rotate(-180.000000) translate(-142.802125, -101.446149) "></path>
                <path d="M228.77205,174.926153 C229.803333,175.028168 230.59673,174.772468 231.346271,174.095459 C233.836766,171.847154 234.720533,166.174058 234.720533,161.999391 C234.720533,158.605073 233.969663,155.066344 232.608795,152.036365 C231.194768,149.026259 229.978758,148.926893 228.144775,149.124299 C227.856388,149.156096 227.558698,149.207766 227.237087,149.284609 L227.237087,174.65058 C227.791268,174.776442 228.308239,174.879782 228.77205,174.926153 L228.77205,174.926153 Z M212.800454,173.136253 C212.79248,173.623805 212.788493,174.079561 212.788493,174.507494 C212.788493,176.229825 212.865574,177.481828 213.127382,178.507278 C213.227054,177.092316 213.280213,174.217347 213.280213,169.915492 L213.280213,150.506139 L213.282871,149.680745 C213.2842,149.482014 213.285529,149.263411 213.285529,149.031558 C213.285529,148.183641 213.266924,147.158191 213.159277,146.282452 C213.044985,154.860989 212.800454,173.136253 212.800454,173.136253 L212.800454,173.136253 Z M173.546582,135.263504 C174.507429,135.242306 175.086862,135.156189 175.230391,134.903139 L175.637056,134.189034 L175.607819,134.189034 C175.607819,134.189034 175.233049,134.01945 175.186535,133.998252 C175.108125,133.988978 174.94732,133.974405 174.650959,133.974405 L173.546582,133.974405 L173.546582,135.263504 L173.546582,135.263504 Z M135.563208,131.632034 L138.488277,133.746527 C139.422545,134.393064 140.052478,134.664662 140.893718,134.753429 L140.893718,120.197076 L140.905679,118.803312 C140.905679,117.571183 140.803348,117.066407 140.649187,116.809382 C139.445138,118.030913 139.205923,118.685399 138.542765,120.501796 L138.295576,121.173506 C138.295576,121.173506 136.589175,125.882095 134.725955,131.025243 C135.020987,131.238547 135.563208,131.632034 135.563208,131.632034 L135.563208,131.632034 Z M130.006772,144.04607 C130.006772,144.04607 129.924376,144.272623 129.848625,144.481953 C130.192829,144.481953 130.692522,144.480628 130.692522,144.480628 C132.372344,144.477978 134.065456,144.450156 135.753251,144.432933 C135.733317,144.35344 133.876741,136.930191 133.349139,134.823647 C131.576289,139.715069 130.006772,144.04607 130.006772,144.04607 L130.006772,144.04607 Z M112.364657,131.66648 C112.364657,131.66648 113.73217,137.815204 114.39267,140.782914 L114.39267,140.651752 L115.668484,139.813109 C115.819987,139.713744 115.914344,139.635576 115.974148,139.581257 C115.891751,139.166572 115.596719,138.292158 115.487744,137.974189 C115.483757,137.959615 115.287069,137.360774 115.221949,137.164693 L109.37181,120.036767 C108.860156,118.570135 108.522597,117.779187 107.945823,117.057133 C107.641488,117.697045 107.580355,118.57411 107.580355,120.283193 L107.580355,134.817022 C107.697305,134.787875 107.745148,134.761378 107.750464,134.757403 L107.777043,134.693809 L111.260281,126.703515 L112.364657,131.66648 L112.364657,131.66648 Z M80.4108334,135.86897 C81.7411352,135.86897 83.270783,135.329747 84.8363131,134.312247 C84.8363131,134.312247 85.6283809,133.796872 86.1706018,133.444456 C86.161299,133.408685 86.0563102,132.991351 86.0350466,132.902584 C84.740627,133.694857 83.418299,134.304297 82.1212215,134.877966 L81.9019409,134.976007 L82.0521149,134.900489 L81.3823125,135.198585 C81.1085441,135.313849 80.477282,135.581473 80.0108125,135.835848 C80.1423808,135.854396 80.2779361,135.86897 80.4108334,135.86897 L80.4108334,135.86897 Z M162.21443,149.655572 C162.21443,150.253089 162.595846,151.566036 162.779244,152.196674 C162.779244,152.197999 162.954668,152.794191 163.130093,153.398332 C163.803882,153.370509 166.055162,153.279093 167.204723,153.232723 C167.559559,152.048288 168.103109,150.231891 168.103109,150.231891 L168.125702,150.162998 C168.333021,149.520435 168.333021,149.520435 168.339666,149.1137 L168.339666,149.072629 C168.339666,148.975914 168.335679,148.929543 168.330364,148.903046 C168.281192,148.850051 168.162913,148.748036 167.861236,148.534732 L166.647884,147.674891 C166.647884,147.674891 166.677121,145.462357 166.681108,145.135114 L163.696235,145.135114 L163.668327,146.548751 L163.632444,147.873621 C163.632444,147.873621 162.87493,148.598326 162.835061,148.636747 C162.252971,149.223664 162.218417,149.407822 162.21443,149.655572 L162.21443,149.655572 Z M128.352201,169.896944 L128.361504,171.085353 C128.361504,171.103901 128.357517,173.039537 128.35353,174.972523 C128.393399,174.944701 128.466493,174.893031 128.466493,174.893031 C129.123005,174.434626 129.731675,173.641028 129.742307,170.955516 C129.742307,170.954191 129.671871,161.975543 129.633331,157.056299 C128.955555,157.064248 127.342182,157.084121 127.314273,157.084121 C127.311615,157.572999 127.300984,159.446366 127.300984,159.446366 C127.300984,159.45034 127.281049,167.782451 127.27972,168.256755 C127.767453,168.254105 128.338911,168.251455 128.338911,168.251455 L128.352201,169.896944 L128.352201,169.896944 Z M120.960454,158.276505 C121.283394,158.273855 121.507991,158.264581 121.65152,158.251332 C121.727271,158.01418 122.179122,156.611143 122.179122,156.611143 C122.179122,156.611143 126.47702,156.596569 126.932858,156.595244 C126.87837,156.523701 126.43848,155.936783 126.43848,155.936783 C125.672992,154.927232 124.657657,154.569517 122.56984,154.574817 C122.090081,154.574817 121.531912,154.593365 120.969757,154.654309 C120.967099,155.838743 120.964441,156.921162 120.960454,158.276505 L120.960454,158.276505 Z M120.933875,170.327527 C122.339928,170.294405 122.697422,170.135421 122.88082,169.78433 C122.88082,169.78433 123.339315,168.911241 123.465568,168.671439 C123.364566,168.623744 123.202431,168.545576 123.157246,168.524378 C123.078837,168.515104 122.936637,168.50583 122.682803,168.50583 L122.714698,168.475358 C122.593762,168.487282 122.482128,168.50583 122.342586,168.507155 C122.342586,168.507155 121.147839,168.50848 120.937861,168.509805 C120.936533,169.302077 120.935204,169.53128 120.933875,170.327527 L120.933875,170.327527 Z M107.455432,171.078729 L107.495301,153.729549 C107.495301,150.920824 106.82284,150.078206 106.236763,149.658222 L105.053978,148.81163 L105.053978,145.135114 L100.23778,145.135114 C101.326209,149.050106 105.275916,163.246094 107.455432,171.078729 L107.455432,171.078729 Z M83.5923944,154.867613 C83.5923944,154.867613 83.8063591,155.796347 83.9538751,156.43626 C84.7074027,154.168081 85.231018,152.594135 85.231018,152.594135 C86.2038262,149.735065 87.0849352,147.673566 89.8771072,145.532575 C89.5541668,145.584245 89.2205946,145.635915 89.2205946,145.635915 C89.2205946,145.635915 88.8032971,143.973203 88.7647569,143.816868 C88.4737119,143.930807 87.4211653,144.340192 87.4211653,144.340192 C85.6111043,145.045023 83.5591701,145.512702 81.4793276,145.711433 C81.896625,147.517231 83.5923944,154.867613 83.5923944,154.867613 L83.5923944,154.867613 Z M79.1190717,170.55673 C79.1190717,170.55673 79.1204007,170.791232 79.1204007,170.982013 C80.1862369,167.774502 82.3125936,161.374052 83.7545291,157.035101 C83.2614802,156.995355 78.7376565,156.63764 78.7376565,156.63764 L77.9655233,155.561845 C76.8159617,153.940204 74.1925692,153.638133 73.1187591,153.583813 C72.637671,153.558641 72.1180426,153.553341 71.606388,153.577189 C71.605059,154.965653 71.6024011,156.570072 71.5997431,158.113546 C71.7339694,158.105597 71.8389583,158.096322 71.9147097,158.085723 C71.9904612,157.835323 72.4462989,156.318346 72.4462989,156.318346 L77.5960688,156.348818 L77.6080295,159.157544 L77.5920819,168.901967 C77.928312,168.883418 79.1137558,168.8185 79.1137558,168.8185 L79.1190717,170.55673 L79.1190717,170.55673 Z M71.5811375,171.015135 C71.5811375,171.015135 71.5798085,171.261561 71.5798085,171.352977 C73.128062,171.237713 73.3845537,171.031033 73.5958604,170.592501 L74.3214796,169.080824 C74.3214796,169.080824 77.1136516,168.928464 77.2811022,168.91919 C76.8744365,168.929789 74.6191695,168.989408 74.6191695,168.989408 L73.9148139,169.009281 C73.9148139,169.009281 73.4961874,168.801276 73.4616341,168.784053 C73.3805668,168.777429 73.2410246,168.772129 73.025731,168.777429 C73.0217441,168.777429 72.3160595,168.790677 71.5837955,168.803926 C71.5824665,169.883696 71.5811375,171.015135 71.5811375,171.015135 L71.5811375,171.015135 Z M33.6615542,171.382124 C33.6615542,171.382124 34.3885024,175.078513 35.0702655,178.543049 C35.1832281,177.919035 35.2084786,177.149286 35.2084786,176.125161 C35.2084786,175.952927 35.2058207,174.592285 35.2058207,174.592285 C35.2058207,174.584336 35.2603086,163.014242 35.290875,156.38194 C35.0343832,156.162011 32.5026898,154.003797 32.5026898,154.003797 C29.2772726,151.254691 26.2498724,149.797333 23.5055434,149.67412 C21.906789,149.598603 20.6269881,150.050384 19.5903893,151.051986 C17.4693486,153.100236 16.3038393,157.448461 16.3915516,162.97847 C16.4712899,168.399841 17.546429,172.342655 19.4176228,174.080885 C20.3479038,174.943376 21.5027813,175.305066 23.0510347,175.216299 C25.4724233,175.074538 27.2598918,173.849033 29.3556821,171.918697 L33.0900959,168.481983 L33.6615542,171.382124 L33.6615542,171.382124 Z M6.69536539,181.991687 L6.67011491,181.966515 L6.61031113,181.901596 C2.69515701,177.507001 0.265794577,169.797579 0.418626459,162.264365 C0.572787313,154.413182 2.93703008,147.519881 7.07943856,142.852362 C11.9634139,137.176617 17.5703505,136.821551 21.908118,137.148794 C25.585386,137.421718 29.5497121,138.333229 32.7817741,139.648825 C32.7817741,139.648825 33.4462606,139.919099 33.5313149,139.953545 C33.5339728,139.511039 33.5366307,139.065882 33.5366307,139.065882 L36.6929413,139.462018 C42.984299,140.217195 49.3899483,140.887579 55.7238331,141.453299 L57.7146344,141.632156 L57.7452008,141.751395 C57.8262682,141.758019 59.3173757,141.886531 59.3173757,141.886531 C62.7062566,142.178003 66.1270328,142.437678 69.5544539,142.673505 C67.2659626,140.699447 65.9117392,137.788707 65.9117392,134.707058 C65.9117392,127.37125 71.6622049,124.693687 75.4670542,122.922335 C76.4730867,122.453331 78.5077442,121.500749 78.7987893,120.995973 C78.5741928,120.87276 78.0160242,120.709801 77.1894031,120.709801 C74.8876221,120.709801 72.0396332,121.790895 70.1046486,123.400613 L63.6724199,128.749115 L67.246028,112.960633 L68.6454364,112.412137 C71.5944272,111.25685 74.7108687,110.671257 77.9083774,110.671257 C80.9437515,110.671257 84.494767,111.00115 87.8238441,113.45746 C90.7542293,115.643496 92.3649445,118.918576 92.3649445,122.686508 C92.3649445,126.080826 91.065209,128.812709 88.2743659,131.284917 L88.2624052,131.292867 C88.366065,131.368384 88.8298766,131.703577 88.8378504,131.708876 C88.9388524,131.642633 89.2285685,131.455826 89.2285685,131.455826 L89.2285685,131.991073 C89.9129895,132.486575 91.6552729,133.746527 91.6552729,133.746527 C92.5895409,134.393064 93.219474,134.664662 94.0593849,134.753429 L94.0593849,120.197076 L94.0713456,118.804637 C94.0713456,117.024011 93.860039,116.747113 93.5836126,116.56958 L92.2785612,115.734912 L92.2785612,111.229027 L120.664093,111.229027 L120.664093,115.505709 L119.506558,116.47684 C119.437451,116.535134 119.277974,116.667621 119.157038,116.777585 C119.243421,117.303559 119.599586,118.335633 119.727167,118.706597 C119.727167,118.706597 119.911894,119.23522 120.09928,119.770468 L124.431731,119.770468 C124.765303,118.77549 125.181272,117.538061 125.181272,117.538061 C125.191904,117.504939 125.369986,117.004138 125.371315,117.001488 L125.369986,116.977641 C125.369986,116.952468 125.371315,116.911397 125.371315,116.87695 C125.291577,116.812032 125.15735,116.712666 124.906175,116.547058 L123.635676,115.708415 L123.635676,111.229027 L156.280566,111.229027 L156.280566,115.407669 L155.392812,116.244987 C154.531638,117.055808 154.416017,117.791111 154.416017,120.283193 L154.416017,134.815697 C154.531638,134.787875 154.579481,134.762703 154.584797,134.758728 L154.583468,134.757403 L154.610047,134.696459 L158.091956,126.695566 C158.091956,126.695566 159.630907,133.610065 160.024283,135.380092 L160.024283,120.15468 L160.030928,119.375656 C160.034915,119.161027 160.036244,118.962297 160.036244,118.779465 C160.036244,117.270437 159.920623,116.808057 159.547182,116.56958 L158.243459,115.733587 L158.243459,111.229027 L182.058653,111.229027 L185.234899,123.371466 L179.997416,123.371466 L179.145545,122.327468 C178.500993,121.53652 177.576028,121.010547 175.158626,121.010547 C174.677538,121.010547 174.114054,121.026445 173.546582,121.08209 L173.546582,124.045825 C173.590438,124.043175 173.634294,124.040525 173.668848,124.037876 C173.737954,123.83517 174.193792,122.518249 174.193792,122.518249 L179.269139,122.518249 L179.269139,133.465654 L180.669877,133.465654 L180.669877,142.488023 C187.393151,141.972648 193.776207,141.418852 193.878538,141.409578 L195.691257,141.250594 L195.669994,144.386562 L195.656704,145.498129 L195.058666,146.273178 C193.774878,147.861698 193.497123,149.977516 193.455925,152.885607 L193.44928,153.329438 C193.44928,153.329438 193.42403,155.096816 193.401437,156.555498 C194.956335,153.985249 196.509905,151.413675 196.509905,151.413675 L196.491299,151.479919 C196.626854,151.214945 196.860753,150.812184 197.284696,150.082181 C198.984452,147.138318 200.215081,145.009251 203.487012,142.61521 L203.472394,142.644357 C203.630541,142.510546 203.81394,142.370109 204.030562,142.208475 C205.536288,141.08101 207.598854,139.536211 209.201596,138.822106 L213.282871,137.007033 C213.282871,137.007033 213.268253,138.145097 213.257621,138.889674 C214.817835,138.669746 225.333997,137.185891 225.333997,137.185891 L226.623101,137.054729 C231.730344,136.522131 237.522008,135.91799 242.619948,141.096909 L242.651843,141.13003 C246.810199,145.596169 249.195706,153.178403 249.195706,161.931823 C249.195706,171.590129 246.560352,179.41084 241.773392,183.952496 L241.717575,184.004166 C236.174429,188.939308 229.849847,188.018523 224.26949,187.206378 C224.26949,187.206378 212.626359,185.407204 212.575858,185.400579 C212.525357,185.393955 200.518087,183.91275 200.518087,183.91275 L200.583206,181.308054 L200.600483,180.150117 L201.270285,179.372418 C202.441111,177.994553 202.568692,176.664383 202.612548,173.489993 C202.612548,173.489993 202.647101,170.985988 202.684313,168.354795 C199.369854,173.719196 194.371587,181.81018 194.371587,181.81018 L193.46257,183.270187 L180.394779,182.363976 L180.276501,179.846722 L180.243276,179.257155 L180.208723,178.631816 L180.886499,177.777274 C182.665994,175.574015 182.941091,174.681052 182.996908,170.934318 L183.262703,152.995571 C183.269348,152.575587 183.274664,152.159578 183.274664,151.752842 C183.274664,150.752565 183.234794,149.810582 183.071331,148.995787 C182.210156,150.24249 181.907151,151.165925 181.200137,153.387733 L172.270768,181.408744 L170.117832,181.331902 C166.504355,181.210014 162.811139,181.049704 159.145832,180.857598 L156.417451,180.714512 L156.486557,175.894633 L158.34579,175.218949 C158.428187,175.191127 158.491977,175.165954 158.551781,175.142107 C158.440147,174.59361 158.211564,173.784114 158.109233,173.4211 L157.864702,172.516213 C157.864702,172.516213 156.049325,166.178033 154.446584,160.57913 C153.460486,159.822629 149.54799,156.825772 149.54799,156.825772 C148.712066,156.185859 146.491352,154.482076 144.897914,154.54302 L144.056674,154.564218 C143.736391,154.569517 143.40149,154.578791 143.077221,154.596015 C143.067918,156.983431 143.020075,170.719689 143.020075,170.719689 L143.009443,171.562307 L143.002798,172.353254 C143.002798,173.937799 143.147656,174.708874 143.489202,174.932777 L144.767674,175.77142 L144.767674,180.257432 L141.935633,180.264056 C137.989913,180.274655 133.989704,180.246833 130.046642,180.179264 C130.046642,180.179264 128.583442,180.154092 128.341569,180.150117 L128.341569,180.47736 L124.742711,180.517106 C124.742711,180.517106 124.34269,180.322351 124.30415,180.303802 C124.126067,180.289229 123.797811,180.287904 123.639663,180.289229 C118.658673,180.388594 113.552759,180.427015 108.494688,180.401843 L95.1265501,180.404492 L95.2036305,177.480503 L95.2209072,176.625962 L95.2408418,175.617735 L96.8023849,174.858584 C97.8243651,174.364408 97.8243651,174.164352 97.8243651,173.887454 C97.8230361,173.425075 97.6183743,172.687122 97.4535816,172.094905 L97.3951068,171.882925 C97.3911199,171.869677 95.477399,164.77102 95.3139353,164.165554 C94.0181867,168.266029 92.5735932,172.836832 92.5735932,172.836832 L92.5416979,172.773238 C92.485881,173.068684 92.4114585,173.350882 92.3410229,173.574785 C92.0473199,174.496895 91.3801756,176.598139 91.3137269,177.418234 C91.3217007,177.491102 91.3416353,177.660686 91.3416353,177.660686 L91.3203718,180.726436 L89.7694604,180.815202 C89.6817482,180.820502 80.9012244,181.323953 75.2916298,181.550505 C72.5486298,181.661795 58.0960497,182.858153 57.9511916,182.871401 L56.1530913,183.019787 L56.1597362,179.96596 L56.1623941,178.476806 L57.1896901,177.627564 C57.9099935,177.035347 57.9990346,175.629659 57.9990346,174.042464 C57.9990346,173.788089 57.9963767,173.52709 57.9937187,173.264765 L57.9897318,172.378427 C57.9897318,172.358554 58.0030216,163.38653 58.0109954,157.482907 C57.5206044,156.976807 55.2148364,154.593365 55.2148364,154.593365 C53.9828786,153.321489 52.3748214,152.596785 50.4358499,152.44045 C50.0039338,152.404679 49.4975951,152.484171 48.9513872,152.653754 C48.9407555,154.680806 48.8437404,174.372357 48.8437404,174.372357 L48.8304507,175.445502 L48.8211479,176.341115 C48.8211479,178.103192 48.9872695,178.316497 49.5667017,178.780201 L50.6245641,179.632093 L50.6099454,183.658375 L48.1260951,183.955146 C44.2667578,184.420175 40.336985,184.856057 36.4484103,185.250869 L35.0490019,185.393955 C34.9546448,185.412503 33.5764999,185.680127 33.5764999,185.680127 C32.4668076,185.896081 31.3252199,186.231273 30.1171835,186.586338 C28.2366869,187.138809 26.3163211,187.703204 24.2750187,187.90061 C17.1929222,188.580269 11.1142002,186.537318 6.69536539,181.991687 L6.69536539,181.991687 Z" id="Shape" fill="#000000" transform="translate(124.803760, 149.349774) scale(-1, 1) rotate(-180.000000) translate(-124.803760, -149.349774) "></path>
                <path d="M228.77205,174.926153 C229.803333,175.028168 230.59673,174.772468 231.346271,174.095459 C233.836766,171.847154 234.720533,166.174058 234.720533,161.999391 C234.720533,158.605073 233.969663,155.066344 232.608795,152.036365 C231.194768,149.026259 229.978758,148.926893 228.144775,149.124299 C227.856388,149.156096 227.558698,149.207766 227.237087,149.284609 L227.237087,174.65058 C227.791268,174.776442 228.308239,174.879782 228.77205,174.926153 L228.77205,174.926153 Z M212.800454,173.136253 C212.79248,173.623805 212.788493,174.079561 212.788493,174.507494 C212.788493,176.229825 212.865574,177.481828 213.127382,178.507278 C213.227054,177.092316 213.280213,174.217347 213.280213,169.915492 L213.280213,150.506139 L213.282871,149.680745 C213.2842,149.482014 213.285529,149.263411 213.285529,149.031558 C213.285529,148.183641 213.266924,147.158191 213.159277,146.282452 C213.044985,154.860989 212.800454,173.136253 212.800454,173.136253 L212.800454,173.136253 Z M173.546582,135.263504 C174.507429,135.242306 175.086862,135.156189 175.230391,134.903139 L175.637056,134.189034 L175.607819,134.189034 C175.607819,134.189034 175.233049,134.01945 175.186535,133.998252 C175.108125,133.988978 174.94732,133.974405 174.650959,133.974405 L173.546582,133.974405 L173.546582,135.263504 L173.546582,135.263504 Z M135.563208,131.632034 L138.488277,133.746527 C139.422545,134.393064 140.052478,134.664662 140.893718,134.753429 L140.893718,120.197076 L140.905679,118.803312 C140.905679,117.571183 140.803348,117.066407 140.649187,116.809382 C139.445138,118.030913 139.205923,118.685399 138.542765,120.501796 L138.295576,121.173506 C138.295576,121.173506 136.589175,125.882095 134.725955,131.025243 C135.020987,131.238547 135.563208,131.632034 135.563208,131.632034 L135.563208,131.632034 Z M130.006772,144.04607 C130.006772,144.04607 129.924376,144.272623 129.848625,144.481953 C130.192829,144.481953 130.692522,144.480628 130.692522,144.480628 C132.372344,144.477978 134.065456,144.450156 135.753251,144.432933 C135.733317,144.35344 133.876741,136.930191 133.349139,134.823647 C131.576289,139.715069 130.006772,144.04607 130.006772,144.04607 L130.006772,144.04607 Z M112.364657,131.66648 C112.364657,131.66648 113.73217,137.815204 114.39267,140.782914 L114.39267,140.651752 L115.668484,139.813109 C115.819987,139.713744 115.914344,139.635576 115.974148,139.581257 C115.891751,139.166572 115.596719,138.292158 115.487744,137.974189 C115.483757,137.959615 115.287069,137.360774 115.221949,137.164693 L109.37181,120.036767 C108.860156,118.570135 108.522597,117.779187 107.945823,117.057133 C107.641488,117.697045 107.580355,118.57411 107.580355,120.283193 L107.580355,134.817022 C107.697305,134.787875 107.745148,134.761378 107.750464,134.757403 L107.777043,134.693809 L111.260281,126.703515 L112.364657,131.66648 L112.364657,131.66648 Z M80.4108334,135.86897 C81.7411352,135.86897 83.270783,135.329747 84.8363131,134.312247 C84.8363131,134.312247 85.6283809,133.796872 86.1706018,133.444456 C86.161299,133.408685 86.0563102,132.991351 86.0350466,132.902584 C84.740627,133.694857 83.418299,134.304297 82.1212215,134.877966 L81.9019409,134.976007 L82.0521149,134.900489 L81.3823125,135.198585 C81.1085441,135.313849 80.477282,135.581473 80.0108125,135.835848 C80.1423808,135.854396 80.2779361,135.86897 80.4108334,135.86897 L80.4108334,135.86897 Z M162.21443,149.655572 C162.21443,150.253089 162.595846,151.566036 162.779244,152.196674 C162.779244,152.197999 162.954668,152.794191 163.130093,153.398332 C163.803882,153.370509 166.055162,153.279093 167.204723,153.232723 C167.559559,152.048288 168.103109,150.231891 168.103109,150.231891 L168.125702,150.162998 C168.333021,149.520435 168.333021,149.520435 168.339666,149.1137 L168.339666,149.072629 C168.339666,148.975914 168.335679,148.929543 168.330364,148.903046 C168.281192,148.850051 168.162913,148.748036 167.861236,148.534732 L166.647884,147.674891 C166.647884,147.674891 166.677121,145.462357 166.681108,145.135114 L163.696235,145.135114 L163.668327,146.548751 L163.632444,147.873621 C163.632444,147.873621 162.87493,148.598326 162.835061,148.636747 C162.252971,149.223664 162.218417,149.407822 162.21443,149.655572 L162.21443,149.655572 Z M128.352201,169.896944 L128.361504,171.085353 C128.361504,171.103901 128.357517,173.039537 128.35353,174.972523 C128.393399,174.944701 128.466493,174.893031 128.466493,174.893031 C129.123005,174.434626 129.731675,173.641028 129.742307,170.955516 C129.742307,170.954191 129.671871,161.975543 129.633331,157.056299 C128.955555,157.064248 127.342182,157.084121 127.314273,157.084121 C127.311615,157.572999 127.300984,159.446366 127.300984,159.446366 C127.300984,159.45034 127.281049,167.782451 127.27972,168.256755 C127.767453,168.254105 128.338911,168.251455 128.338911,168.251455 L128.352201,169.896944 L128.352201,169.896944 Z M120.960454,158.276505 C121.283394,158.273855 121.507991,158.264581 121.65152,158.251332 C121.727271,158.01418 122.179122,156.611143 122.179122,156.611143 C122.179122,156.611143 126.47702,156.596569 126.932858,156.595244 C126.87837,156.523701 126.43848,155.936783 126.43848,155.936783 C125.672992,154.927232 124.657657,154.569517 122.56984,154.574817 C122.090081,154.574817 121.531912,154.593365 120.969757,154.654309 C120.967099,155.838743 120.964441,156.921162 120.960454,158.276505 L120.960454,158.276505 Z M120.933875,170.327527 C122.339928,170.294405 122.697422,170.135421 122.88082,169.78433 C122.88082,169.78433 123.339315,168.911241 123.465568,168.671439 C123.364566,168.623744 123.202431,168.545576 123.157246,168.524378 C123.078837,168.515104 122.936637,168.50583 122.682803,168.50583 L122.714698,168.475358 C122.593762,168.487282 122.482128,168.50583 122.342586,168.507155 C122.342586,168.507155 121.147839,168.50848 120.937861,168.509805 C120.936533,169.302077 120.935204,169.53128 120.933875,170.327527 L120.933875,170.327527 Z M107.455432,171.078729 L107.495301,153.729549 C107.495301,150.920824 106.82284,150.078206 106.236763,149.658222 L105.053978,148.81163 L105.053978,145.135114 L100.23778,145.135114 C101.326209,149.050106 105.275916,163.246094 107.455432,171.078729 L107.455432,171.078729 Z M83.5923944,154.867613 C83.5923944,154.867613 83.8063591,155.796347 83.9538751,156.43626 C84.7074027,154.168081 85.231018,152.594135 85.231018,152.594135 C86.2038262,149.735065 87.0849352,147.673566 89.8771072,145.532575 C89.5541668,145.584245 89.2205946,145.635915 89.2205946,145.635915 C89.2205946,145.635915 88.8032971,143.973203 88.7647569,143.816868 C88.4737119,143.930807 87.4211653,144.340192 87.4211653,144.340192 C85.6111043,145.045023 83.5591701,145.512702 81.4793276,145.711433 C81.896625,147.517231 83.5923944,154.867613 83.5923944,154.867613 L83.5923944,154.867613 Z M79.1190717,170.55673 C79.1190717,170.55673 79.1204007,170.791232 79.1204007,170.982013 C80.1862369,167.774502 82.3125936,161.374052 83.7545291,157.035101 C83.2614802,156.995355 78.7376565,156.63764 78.7376565,156.63764 L77.9655233,155.561845 C76.8159617,153.940204 74.1925692,153.638133 73.1187591,153.583813 C72.637671,153.558641 72.1180426,153.553341 71.606388,153.577189 C71.605059,154.965653 71.6024011,156.570072 71.5997431,158.113546 C71.7339694,158.105597 71.8389583,158.096322 71.9147097,158.085723 C71.9904612,157.835323 72.4462989,156.318346 72.4462989,156.318346 L77.5960688,156.348818 L77.6080295,159.157544 L77.5920819,168.901967 C77.928312,168.883418 79.1137558,168.8185 79.1137558,168.8185 L79.1190717,170.55673 L79.1190717,170.55673 Z M71.5811375,171.015135 C71.5811375,171.015135 71.5798085,171.261561 71.5798085,171.352977 C73.128062,171.237713 73.3845537,171.031033 73.5958604,170.592501 L74.3214796,169.080824 C74.3214796,169.080824 77.1136516,168.928464 77.2811022,168.91919 C76.8744365,168.929789 74.6191695,168.989408 74.6191695,168.989408 L73.9148139,169.009281 C73.9148139,169.009281 73.4961874,168.801276 73.4616341,168.784053 C73.3805668,168.777429 73.2410246,168.772129 73.025731,168.777429 C73.0217441,168.777429 72.3160595,168.790677 71.5837955,168.803926 C71.5824665,169.883696 71.5811375,171.015135 71.5811375,171.015135 L71.5811375,171.015135 Z M33.6615542,171.382124 C33.6615542,171.382124 34.3885024,175.078513 35.0702655,178.543049 C35.1832281,177.919035 35.2084786,177.149286 35.2084786,176.125161 C35.2084786,175.952927 35.2058207,174.592285 35.2058207,174.592285 C35.2058207,174.584336 35.2603086,163.014242 35.290875,156.38194 C35.0343832,156.162011 32.5026898,154.003797 32.5026898,154.003797 C29.2772726,151.254691 26.2498724,149.797333 23.5055434,149.67412 C21.906789,149.598603 20.6269881,150.050384 19.5903893,151.051986 C17.4693486,153.100236 16.3038393,157.448461 16.3915516,162.97847 C16.4712899,168.399841 17.546429,172.342655 19.4176228,174.080885 C20.3479038,174.943376 21.5027813,175.305066 23.0510347,175.216299 C25.4724233,175.074538 27.2598918,173.849033 29.3556821,171.918697 L33.0900959,168.481983 L33.6615542,171.382124 L33.6615542,171.382124 Z M6.69536539,181.991687 L6.67011491,181.966515 L6.61031113,181.901596 C2.69515701,177.507001 0.265794577,169.797579 0.418626459,162.264365 C0.572787313,154.413182 2.93703008,147.519881 7.07943856,142.852362 C11.9634139,137.176617 17.5703505,136.821551 21.908118,137.148794 C25.585386,137.421718 29.5497121,138.333229 32.7817741,139.648825 C32.7817741,139.648825 33.4462606,139.919099 33.5313149,139.953545 C33.5339728,139.511039 33.5366307,139.065882 33.5366307,139.065882 L36.6929413,139.462018 C42.984299,140.217195 49.3899483,140.887579 55.7238331,141.453299 L57.7146344,141.632156 L57.7452008,141.751395 C57.8262682,141.758019 59.3173757,141.886531 59.3173757,141.886531 C62.7062566,142.178003 66.1270328,142.437678 69.5544539,142.673505 C67.2659626,140.699447 65.9117392,137.788707 65.9117392,134.707058 C65.9117392,127.37125 71.6622049,124.693687 75.4670542,122.922335 C76.4730867,122.453331 78.5077442,121.500749 78.7987893,120.995973 C78.5741928,120.87276 78.0160242,120.709801 77.1894031,120.709801 C74.8876221,120.709801 72.0396332,121.790895 70.1046486,123.400613 L63.6724199,128.749115 L67.246028,112.960633 L68.6454364,112.412137 C71.5944272,111.25685 74.7108687,110.671257 77.9083774,110.671257 C80.9437515,110.671257 84.494767,111.00115 87.8238441,113.45746 C90.7542293,115.643496 92.3649445,118.918576 92.3649445,122.686508 C92.3649445,126.080826 91.065209,128.812709 88.2743659,131.284917 L88.2624052,131.292867 C88.366065,131.368384 88.8298766,131.703577 88.8378504,131.708876 C88.9388524,131.642633 89.2285685,131.455826 89.2285685,131.455826 L89.2285685,131.991073 C89.9129895,132.486575 91.6552729,133.746527 91.6552729,133.746527 C92.5895409,134.393064 93.219474,134.664662 94.0593849,134.753429 L94.0593849,120.197076 L94.0713456,118.804637 C94.0713456,117.024011 93.860039,116.747113 93.5836126,116.56958 L92.2785612,115.734912 L92.2785612,111.229027 L120.664093,111.229027 L120.664093,115.505709 L119.506558,116.47684 C119.437451,116.535134 119.277974,116.667621 119.157038,116.777585 C119.243421,117.303559 119.599586,118.335633 119.727167,118.706597 C119.727167,118.706597 119.911894,119.23522 120.09928,119.770468 L124.431731,119.770468 C124.765303,118.77549 125.181272,117.538061 125.181272,117.538061 C125.191904,117.504939 125.369986,117.004138 125.371315,117.001488 L125.369986,116.977641 C125.369986,116.952468 125.371315,116.911397 125.371315,116.87695 C125.291577,116.812032 125.15735,116.712666 124.906175,116.547058 L123.635676,115.708415 L123.635676,111.229027 L156.280566,111.229027 L156.280566,115.407669 L155.392812,116.244987 C154.531638,117.055808 154.416017,117.791111 154.416017,120.283193 L154.416017,134.815697 C154.531638,134.787875 154.579481,134.762703 154.584797,134.758728 L154.583468,134.757403 L154.610047,134.696459 L158.091956,126.695566 C158.091956,126.695566 159.630907,133.610065 160.024283,135.380092 L160.024283,120.15468 L160.030928,119.375656 C160.034915,119.161027 160.036244,118.962297 160.036244,118.779465 C160.036244,117.270437 159.920623,116.808057 159.547182,116.56958 L158.243459,115.733587 L158.243459,111.229027 L182.058653,111.229027 L185.234899,123.371466 L179.997416,123.371466 L179.145545,122.327468 C178.500993,121.53652 177.576028,121.010547 175.158626,121.010547 C174.677538,121.010547 174.114054,121.026445 173.546582,121.08209 L173.546582,124.045825 C173.590438,124.043175 173.634294,124.040525 173.668848,124.037876 C173.737954,123.83517 174.193792,122.518249 174.193792,122.518249 L179.269139,122.518249 L179.269139,133.465654 L180.669877,133.465654 L180.669877,142.488023 C187.393151,141.972648 193.776207,141.418852 193.878538,141.409578 L195.691257,141.250594 L195.669994,144.386562 L195.656704,145.498129 L195.058666,146.273178 C193.774878,147.861698 193.497123,149.977516 193.455925,152.885607 L193.44928,153.329438 C193.44928,153.329438 193.42403,155.096816 193.401437,156.555498 C194.956335,153.985249 196.509905,151.413675 196.509905,151.413675 L196.491299,151.479919 C196.626854,151.214945 196.860753,150.812184 197.284696,150.082181 C198.984452,147.138318 200.215081,145.009251 203.487012,142.61521 L203.472394,142.644357 C203.630541,142.510546 203.81394,142.370109 204.030562,142.208475 C205.536288,141.08101 207.598854,139.536211 209.201596,138.822106 L213.282871,137.007033 C213.282871,137.007033 213.268253,138.145097 213.257621,138.889674 C214.817835,138.669746 225.333997,137.185891 225.333997,137.185891 L226.623101,137.054729 C231.730344,136.522131 237.522008,135.91799 242.619948,141.096909 L242.651843,141.13003 C246.810199,145.596169 249.195706,153.178403 249.195706,161.931823 C249.195706,171.590129 246.560352,179.41084 241.773392,183.952496 L241.717575,184.004166 C236.174429,188.939308 229.849847,188.018523 224.26949,187.206378 C224.26949,187.206378 212.626359,185.407204 212.575858,185.400579 C212.525357,185.393955 200.518087,183.91275 200.518087,183.91275 L200.583206,181.308054 L200.600483,180.150117 L201.270285,179.372418 C202.441111,177.994553 202.568692,176.664383 202.612548,173.489993 C202.612548,173.489993 202.647101,170.985988 202.684313,168.354795 C199.369854,173.719196 194.371587,181.81018 194.371587,181.81018 L193.46257,183.270187 L180.394779,182.363976 L180.276501,179.846722 L180.243276,179.257155 L180.208723,178.631816 L180.886499,177.777274 C182.665994,175.574015 182.941091,174.681052 182.996908,170.934318 L183.262703,152.995571 C183.269348,152.575587 183.274664,152.159578 183.274664,151.752842 C183.274664,150.752565 183.234794,149.810582 183.071331,148.995787 C182.210156,150.24249 181.907151,151.165925 181.200137,153.387733 L172.270768,181.408744 L170.117832,181.331902 C166.504355,181.210014 162.811139,181.049704 159.145832,180.857598 L156.417451,180.714512 L156.486557,175.894633 L158.34579,175.218949 C158.428187,175.191127 158.491977,175.165954 158.551781,175.142107 C158.440147,174.59361 158.211564,173.784114 158.109233,173.4211 L157.864702,172.516213 C157.864702,172.516213 156.049325,166.178033 154.446584,160.57913 C153.460486,159.822629 149.54799,156.825772 149.54799,156.825772 C148.712066,156.185859 146.491352,154.482076 144.897914,154.54302 L144.056674,154.564218 C143.736391,154.569517 143.40149,154.578791 143.077221,154.596015 C143.067918,156.983431 143.020075,170.719689 143.020075,170.719689 L143.009443,171.562307 L143.002798,172.353254 C143.002798,173.937799 143.147656,174.708874 143.489202,174.932777 L144.767674,175.77142 L144.767674,180.257432 L141.935633,180.264056 C137.989913,180.274655 133.989704,180.246833 130.046642,180.179264 C130.046642,180.179264 128.583442,180.154092 128.341569,180.150117 L128.341569,180.47736 L124.742711,180.517106 C124.742711,180.517106 124.34269,180.322351 124.30415,180.303802 C124.126067,180.289229 123.797811,180.287904 123.639663,180.289229 C118.658673,180.388594 113.552759,180.427015 108.494688,180.401843 L95.1265501,180.404492 L95.2036305,177.480503 L95.2209072,176.625962 L95.2408418,175.617735 L96.8023849,174.858584 C97.8243651,174.364408 97.8243651,174.164352 97.8243651,173.887454 C97.8230361,173.425075 97.6183743,172.687122 97.4535816,172.094905 L97.3951068,171.882925 C97.3911199,171.869677 95.477399,164.77102 95.3139353,164.165554 C94.0181867,168.266029 92.5735932,172.836832 92.5735932,172.836832 L92.5416979,172.773238 C92.485881,173.068684 92.4114585,173.350882 92.3410229,173.574785 C92.0473199,174.496895 91.3801756,176.598139 91.3137269,177.418234 C91.3217007,177.491102 91.3416353,177.660686 91.3416353,177.660686 L91.3203718,180.726436 L89.7694604,180.815202 C89.6817482,180.820502 80.9012244,181.323953 75.2916298,181.550505 C72.5486298,181.661795 58.0960497,182.858153 57.9511916,182.871401 L56.1530913,183.019787 L56.1597362,179.96596 L56.1623941,178.476806 L57.1896901,177.627564 C57.9099935,177.035347 57.9990346,175.629659 57.9990346,174.042464 C57.9990346,173.788089 57.9963767,173.52709 57.9937187,173.264765 L57.9897318,172.378427 C57.9897318,172.358554 58.0030216,163.38653 58.0109954,157.482907 C57.5206044,156.976807 55.2148364,154.593365 55.2148364,154.593365 C53.9828786,153.321489 52.3748214,152.596785 50.4358499,152.44045 C50.0039338,152.404679 49.4975951,152.484171 48.9513872,152.653754 C48.9407555,154.680806 48.8437404,174.372357 48.8437404,174.372357 L48.8304507,175.445502 L48.8211479,176.341115 C48.8211479,178.103192 48.9872695,178.316497 49.5667017,178.780201 L50.6245641,179.632093 L50.6099454,183.658375 L48.1260951,183.955146 C44.2667578,184.420175 40.336985,184.856057 36.4484103,185.250869 L35.0490019,185.393955 C34.9546448,185.412503 33.5764999,185.680127 33.5764999,185.680127 C32.4668076,185.896081 31.3252199,186.231273 30.1171835,186.586338 C28.2366869,187.138809 26.3163211,187.703204 24.2750187,187.90061 C17.1929222,188.580269 11.1142002,186.537318 6.69536539,181.991687 L6.69536539,181.991687 Z" id="Shape" fill="#000000" transform="translate(124.803760, 149.349774) scale(-1, 1) rotate(-180.000000) translate(-124.803760, -149.349774) "></path>
                <path d="M101.893946,98.3003741 L101.837884,98.7785676 C101.837884,98.7785676 101.372414,102.061597 104.022397,103.250059 C106.310888,104.278158 107.788493,103.494831 108.518046,102.943685 C109.247653,102.392539 109.238594,101.670537 109.238594,101.670537 L101.893946,98.3003847 L101.893946,98.3003741 Z M146.522982,98.4142282 L139.165894,101.751206 C139.165894,101.751206 139.16802,102.506298 139.896829,103.057422 C140.626435,103.609893 142.103987,104.39268 144.392479,103.365874 C147.043726,102.17614 146.576991,98.8923687 146.576991,98.8923687 L146.522982,98.4141752 L146.522982,98.4142282 Z M14.4762358,105.123373 C14.4815517,106.378078 14.4882816,107.631405 14.4949265,108.884733 C87.8988832,120.424885 162.670087,120.433364 236.082549,108.913668 C236.070642,107.649742 236.058522,106.387193 236.045232,105.123267 C162.647654,116.713234 87.8807029,116.713234 14.4788725,105.123267 L14.4762358,105.123373 Z M68.4537985,188.395195 L68.4537985,192.108966 L180.480897,192.108966 L180.480897,188.395195 L68.4537985,188.395195 Z" id="Shape" fill="#006A4D" transform="translate(125.279393, 145.204670) rotate(-360.000000) translate(-125.279393, -145.204670) "></path>
                <path d="M124.253649,73.7976885 C122.133884,73.7976885 120.416213,75.5618861 120.416213,77.7412452 C120.416213,79.9206042 122.133884,81.6889354 124.253649,81.6889354 C126.372032,81.6889354 128.091085,79.9206042 128.091085,77.7412452 C128.091085,75.5618861 126.372032,73.7976885 124.253649,73.7976885 Z M101.212449,75.327543 C99.0926836,75.327543 97.3750128,77.0937544 97.3750128,79.2732195 C97.3750128,81.4525785 99.0926836,83.2209097 101.212449,83.2209097 C103.332213,83.2209097 105.051904,81.4525785 105.051904,79.2732195 C105.051904,77.0938604 103.332107,75.327543 101.212449,75.327543 Z M146.800471,75.4248415 C144.680706,75.4248415 142.963035,77.1931727 142.963035,79.3725318 C142.963035,81.5518908 144.680706,83.3182082 146.800471,83.3182082 C148.918854,83.3182082 150.639927,81.5519968 150.639927,79.3725318 C150.639927,77.1931727 148.918854,75.4248415 146.800471,75.4248415 Z M168.307505,79.8093151 C166.189122,79.8093151 164.470069,81.5755265 164.470069,83.7549915 C164.470069,85.9343505 166.189122,87.7006679 168.307505,87.7006679 C170.428546,87.7006679 172.144941,85.9344565 172.144941,83.7549915 C172.144941,81.5756325 170.428546,79.8093151 168.307505,79.8093151 Z M79.5151056,79.9211024 C77.3967229,79.9211024 75.6776699,81.6873138 75.6776699,83.8667788 C75.6776699,86.0461378 77.3967229,87.8124552 79.5151056,87.8124552 C81.6361464,87.8124552 83.3525414,86.0462438 83.3525414,83.8667788 C83.3525414,81.6874197 81.6361464,79.9211024 79.5151056,79.9211024 Z M104.288223,99.2663319 C104.076917,99.4173672 103.913453,99.6226373 103.823083,99.8770124 C103.533367,100.691808 103.86528,101.716251 104.844733,102.13756 C105.824186,102.558868 107.075919,102.21879 107.365636,101.40267 C107.443992,101.182741 107.461003,100.947243 107.423791,100.715391 L104.288266,99.2663001 L104.288223,99.2663319 Z M144.146778,99.3449974 L141.021672,100.769286 C140.979145,101.010413 140.992541,101.254274 141.073555,101.483476 C141.363271,102.299597 142.616333,102.640989 143.594457,102.218366 C144.572581,101.797057 144.905781,100.772561 144.616108,99.957819 C144.525737,99.7021189 144.360775,99.4947714 144.14681,99.3450716 L144.146778,99.3449974 Z" id="Shape" fill="#000000" transform="translate(123.911305, 88.099024) rotate(-360.000000) translate(-123.911305, -88.099024) "></path>
                <path d="M184.376382,8.51294421 C180.709268,8.49749728 180.601674,24.0669243 181.600105,35.3972171 C182.70581,47.9050548 173.59299,49.1281753 173.59299,49.1281753 C173.59299,49.1281753 176.427317,52.6498931 180.29601,59.1205608 C184.072951,65.4269445 185.078186,70.9468851 185.078186,70.9468851 C185.078186,70.9468851 190.027494,69.7766535 195.847119,63.8319064 C207.445331,51.9918034 200.7539,36.4304041 195.338367,25.2431973 C189.92679,14.0559905 186.731726,9.89801686 185.632719,9.04056065 C185.175552,8.68358754 184.760912,8.51432208 184.378168,8.51273223 L184.376382,8.51294421 Z M63.7269078,8.5212114 C63.3475445,8.52281185 62.9309381,8.68992572 62.4726763,9.04701542 C61.3735626,9.90420666 58.1778612,14.0646711 52.7649015,25.2517719 C47.3492838,36.4379188 40.6584901,51.9993181 52.2540762,63.840481 C58.0737016,69.7838502 63.0251357,70.9554597 63.0251357,70.9554597 C63.0251357,70.9554597 64.0304239,65.4331873 67.8073117,59.1270156 C71.6760049,52.6576198 74.510332,49.1366438 74.510332,49.1366438 C74.510332,49.1366438 65.3996381,47.9137353 66.5053435,35.4056856 C67.5026048,24.0753928 67.3930974,8.50657423 63.7261954,8.52141278 L63.7269078,8.5212114 Z M124.675731,75.7854183 C124.592058,75.7854183 124.509694,75.7913537 124.428627,75.8019845 C124.428627,75.8019845 125.705716,76.1736054 125.705716,77.7727559 C125.705716,79.3719064 124.470197,79.7724625 124.470197,79.7724625 C124.537921,79.7804117 124.606667,79.7828495 124.675773,79.7828495 C125.789452,79.7828495 126.692091,78.8867388 126.692091,77.7831429 C126.692091,76.6795469 125.789474,75.7854501 124.675773,75.7854501 L124.675731,75.7854183 Z M101.636657,77.3194064 C101.552931,77.3194064 101.469865,77.3245999 101.387469,77.3338952 C101.387469,77.3338952 102.666579,77.7068515 102.666579,79.3046666 C102.666579,80.9038383 101.431059,81.3043732 101.431059,81.3043732 C101.498837,81.3123224 101.567529,81.3167952 101.636635,81.3167952 C102.751697,81.3167952 103.652953,80.4206845 103.652953,79.3170886 C103.652953,78.2134926 102.751665,77.3193958 101.636635,77.3193958 L101.636657,77.3194064 Z M147.224679,77.4167049 C147.141007,77.4167049 147.058643,77.4211565 146.977575,77.4291269 C146.977575,77.4291269 148.252539,77.80415 148.252539,79.4019121 C148.252539,81.0023557 147.019039,81.4016187 147.019039,81.4016187 C147.086764,81.4095679 147.15418,81.4140407 147.224616,81.4140407 C148.339677,81.4140407 149.240933,80.5166052 149.240933,79.4143341 C149.240933,78.3107699 148.339634,77.4166413 147.224616,77.4166413 L147.224679,77.4167049 Z M168.729587,81.8011784 C168.645809,81.8011784 168.562796,81.8063719 168.480399,81.8156672 C168.480399,81.8156672 169.759509,82.1906904 169.759509,83.7884524 C169.759509,85.3876242 168.52399,85.788159 168.52399,85.788159 C168.590438,85.7961082 168.660459,85.798546 168.729566,85.798546 C169.844627,85.798546 170.745883,84.9031773 170.745883,83.8008532 C170.745883,82.6972891 169.844595,81.8011466 168.729566,81.8011466 L168.729587,81.8011784 Z M79.9371874,81.9108989 C79.8547911,81.9108989 79.7724798,81.9148205 79.6900835,81.9253877 C79.6900835,81.9253877 80.9671733,82.299086 80.9671733,83.8981729 C80.9671733,85.4959668 79.7336738,85.8978795 79.7336738,85.8978795 C79.8014515,85.9044509 79.8680702,85.9082665 79.9371768,85.9082665 C81.0522382,85.9082665 81.9555145,85.0129084 81.9555145,83.9105737 C81.9555145,82.8056317 81.0521425,81.9108671 79.9371768,81.9108671 L79.9371874,81.9108989 Z M21.5357398,112.196379 C16.0096579,112.19002 11.2687332,114.077166 7.71867451,117.727767 L7.70206235,117.746421 L7.68545019,117.767089 C4.03215689,121.868888 1.76450388,129.132358 1.9106909,136.273941 C2.05687791,143.732962 4.27286046,150.251855 8.1547371,154.624987 C12.5442814,159.725739 17.4239509,160.092039 21.6167008,159.775448 C25.131781,159.514448 28.9144631,158.64687 31.9909821,157.394815 L32.5308747,157.175374 L36.3454521,143.322527 L33.4154391,145.821127 C29.9029106,148.816606 26.5366754,150.405391 23.4149713,150.547205 C21.3643129,150.641324 19.6370735,150.022472 18.2735473,148.706907 C15.7910259,146.306242 14.4754491,141.639836 14.5711351,135.568431 C14.6588473,129.607786 15.8873499,125.359721 18.1240644,123.282112 C19.3906287,122.108276 20.9782729,121.594121 22.9810882,121.706788 C25.887605,121.879021 28.0161943,123.32207 30.3153174,125.439213 L31.870641,126.871769 L34.2586458,114.739135 L33.0957413,114.511426 C31.9009416,114.279574 30.7163483,113.930879 29.4617979,113.56124 C27.6783163,113.037916 25.8325324,112.496574 23.9507068,112.315014 C23.1304009,112.236369 22.3251072,112.197948 21.5356973,112.197015 L21.5357398,112.196379 Z M230.535332,112.368199 C228.476168,112.397134 226.395315,112.698431 224.341042,112.997513 L212.637575,114.806756 L202.045236,116.112972 L202.072241,117.222578 L202.080746,117.79807 L202.358991,118.123076 C203.95514,120.000365 204.057312,121.886239 204.101221,125.057979 C204.101221,125.057979 204.215757,133.257973 204.256955,136.180532 C200.499896,130.05963 196.658633,123.842278 192.796956,117.632344 L192.414882,117.01752 L181.812124,117.752409 L181.764387,118.801961 L181.731216,119.406431 L182.019858,119.77077 C184.134307,122.386065 184.429658,123.713267 184.486751,127.612308 L184.752545,145.552115 C184.792414,148.297247 184.831433,150.891025 183.269943,152.565661 L183.207641,152.627771 L182.979228,152.369008 C180.718698,149.654402 180.476081,148.891382 179.455429,145.682546 L170.908433,118.857627 L170.011376,118.888682 C166.404544,119.011895 162.722013,119.170625 159.065955,119.362731 L157.930056,119.422721 L157.95908,121.513579 L158.74815,121.80132 C160.094346,122.262375 160.10349,122.789101 160.106254,122.962648 C160.116886,123.541617 159.767196,124.778357 159.537284,125.595855 L159.279792,126.554319 L159.290424,126.508744 L153.816757,145.623976 C153.093796,148.059088 152.515108,149.459847 151.194109,150.799238 L150.845259,151.153222 L150.880556,152.906609 L161.871694,153.30407 L161.844689,152.05583 L161.828103,151.418228 L161.497933,151.103577 C160.809525,150.411994 160.407856,149.834033 160.393185,148.942342 L160.393185,148.9009 C160.393185,148.08213 160.786561,146.725675 161.024447,145.909554 C161.024447,145.909554 161.454949,144.43545 161.736691,143.470945 C163.024413,143.522668 167.101383,143.688965 168.288102,143.737986 C168.624332,144.862748 169.513203,147.82855 169.513203,147.82855 L169.536061,147.90518 C169.775276,148.643133 169.818218,148.776362 169.82885,149.430795 L169.82885,149.497039 C169.82885,150.450946 169.483561,150.796048 168.655632,151.382912 L168.151037,151.738974 L168.173896,153.620714 L169.282791,153.668304 C177.365604,154.080338 193.856031,155.516869 193.856031,155.516869 L193.847525,154.196132 L193.83902,153.643407 L193.579456,153.305978 C192.020624,151.375695 191.678174,148.96708 191.631713,145.706627 C191.631713,145.706627 191.51975,138.009553 191.490512,135.929506 C193.883939,139.889491 197.778255,146.32974 197.778255,146.32974 L198.552802,147.660864 C200.212636,150.53721 201.309091,152.437393 204.300556,154.624701 L204.854982,155.040795 C206.298247,156.12189 208.277247,157.602565 209.70988,158.241152 L211.425105,159.002953 L210.976572,125.457231 C210.923413,121.662802 210.972319,119.230764 212.536042,117.137468 L212.754078,116.843516 L213.323038,117.125046 C213.78686,117.348949 214.385557,118.212606 214.535699,119.141393 C214.769599,120.835956 214.770343,126.721348 214.770343,128.655659 L214.770343,148.066603 L214.772469,148.882225 C214.789799,151.599587 214.807873,154.678586 213.065536,155.605996 L212.421814,155.947558 L212.421814,157.918329 L225.369199,159.744107 L226.625451,159.87246 C231.594534,160.391809 236.732662,160.928626 241.270732,156.318098 C245.156649,152.144755 247.373588,144.981445 247.373588,136.640061 C247.373588,127.43751 244.918922,120.042083 240.462929,115.815216 L240.435924,115.790414 C237.339418,113.03214 233.96691,112.320207 230.535076,112.368538 L230.535332,112.368199 Z M34.8148369,114.829597 L34.8231297,116.139947 L34.825256,116.821004 L35.1927968,117.164644 C36.7184576,118.595504 36.708889,120.438982 36.6982572,122.991954 L36.6982572,123.981463 L36.8041604,146.715182 L36.8145796,147.688135 C36.8517908,150.510109 36.8936588,153.707181 35.3361238,155.310274 L35.0038806,155.651836 L35.006007,156.32256 L35.0142997,157.635029 L36.3204143,157.469421 C42.6383514,156.711595 49.0626063,156.040892 55.4119072,155.473848 L56.236285,155.399337 L56.4439344,154.598204 C56.8957851,152.850646 57.1859159,151.310087 57.4676581,149.818283 C57.7042153,148.559656 57.9284821,147.37077 58.2235141,146.228732 L59.3385755,141.924916 L56.2403676,145.12326 C54.7212984,146.694556 52.7576081,147.586353 50.4053261,147.777134 C49.2345541,147.871253 48.0597421,147.480936 47.134777,147.046378 C47.1308432,146.10837 47.0226436,124.20667 47.0226436,124.20667 L47.0101831,123.146774 C47.0034851,122.815556 46.999764,122.511906 46.999764,122.229709 C46.999764,120.295398 47.1898071,119.446845 48.361908,118.503537 L48.8000544,118.151609 L48.7937817,116.379568 L47.7638277,116.255359 C43.8925828,115.790329 39.9732823,115.355772 36.1167093,114.963557 L34.8147412,114.829003 L34.8148369,114.829597 Z M57.6487174,117.344731 L57.6508437,118.601238 L57.6529701,119.317495 L58.0828131,119.673557 C59.5274598,120.857991 59.507791,123.027599 59.4865274,125.324924 L59.482381,126.202656 L59.5093751,146.138248 L59.5197943,147.07808 C59.5503606,149.368728 59.5788538,151.530916 58.1222464,152.822612 L57.7235545,153.176607 L57.7318473,155.151512 L59.0109571,155.041792 C65.4803971,154.485346 72.0540286,154.027524 78.5468585,153.681732 L79.437685,153.632023 L81.8132506,143.335341 L79.4729825,143.519583 L79.1469695,143.970866 C77.6385321,146.09723 74.6724773,146.553728 73.0378406,146.637141 C71.9480829,146.692786 70.8167548,146.696072 69.7881298,146.436344 C69.786854,145.282329 69.7783486,140.145223 69.7756694,138.801804 C69.8527498,138.800744 70.0103128,138.799684 70.0103128,138.799684 L70.3882408,138.793325 C72.199684,138.7628 72.9988752,138.891153 73.2579717,139.749722 L73.5133897,140.594322 L75.7830627,140.581921 L75.7893355,139.408192 L75.7748018,131.268505 L74.4105314,131.233317 L74.1177427,131.224838 L73.8519482,131.357325 C73.8293556,131.367924 73.6121483,131.463537 72.8240674,131.446356 C72.8240674,131.446356 71.0145379,131.412227 69.7653034,131.38838 C69.7626454,129.973418 69.7582864,126.984298 69.7570106,125.469918 C69.9430668,125.481789 70.2263081,125.498853 70.2263081,125.498853 L70.7599705,125.525775 C72.8783533,125.625087 74.2184895,125.793473 74.9255031,127.266761 L75.2265952,127.896074 L77.2989424,128.009939 L77.3030887,126.761699 L77.294796,120.665174 L77.6644205,121.056425 C78.6013464,122.092473 79.3676322,123.494716 79.8779578,125.10968 L86.6370075,145.456512 C87.6603167,148.463968 88.4275061,150.083384 91.0309108,151.975299 C92.5393482,153.081619 94.2311839,153.796837 95.8670963,154.48842 L97.2791034,155.086678 L92.0795236,155.086678 C91.9346656,155.064208 90.2958294,154.803071 90.2958294,154.803071 L90.032108,155.852623 L87.5942401,165.602822 L90.5179805,163.489283 C92.0037722,162.459858 93.0042229,162.12509 94.6149381,162.12509 C94.9644579,162.12509 95.2657202,162.12827 95.5514493,162.143744 L95.5514493,178.372878 L95.5577221,179.138823 C95.5616558,179.356102 95.5639948,179.566014 95.5639948,179.76607 C95.5639948,181.538746 95.3983729,182.695835 94.3139098,183.388796 L93.7698602,183.738636 L93.7698602,185.690753 L118.843857,185.690753 L118.843857,183.833814 L118.27696,183.357688 C117.551341,182.752222 117.317612,182.511594 117.317612,181.978974 C117.317612,181.292691 117.743553,180.059608 117.998716,179.32298 C117.998716,179.32298 118.454968,178.01316 118.756645,177.149344 L125.459665,177.149344 C125.811843,178.197317 126.587272,180.507096 126.587272,180.507096 C126.599286,180.541543 126.614277,180.581607 126.614277,180.581607 C126.841531,181.195022 126.865538,181.260937 126.865538,181.765723 C126.865538,182.491752 126.592599,182.78032 125.657023,183.399024 L125.127507,183.748874 L125.127507,185.690604 L154.460596,185.690604 L154.460596,183.875108 L154.090972,183.525257 C152.666313,182.184488 152.595931,180.734974 152.595931,178.287885 L152.595931,162.083129 C152.904252,162.05006 153.22445,162.039673 153.57397,162.039673 C155.22987,162.039673 155.712234,162.634625 155.966121,163.217536 L157.415552,166.5525 L159.535742,157.032086 L159.735088,157.048621 L160.293671,157.396404 C161.51101,158.152905 161.553537,159.485566 161.522918,161.598682 L161.516539,162.36256 L161.516539,178.415751 L161.522918,179.177552 C161.553537,181.274875 161.509734,182.601971 160.279106,183.390216 L159.735067,183.737989 L159.735067,185.690106 L180.614825,185.690106 L182.928089,176.850782 L180.621098,176.850782 L180.266007,177.285499 C179.150946,178.652765 177.624541,179.210695 174.995832,179.210695 C173.903417,179.210695 172.7706,179.153672 171.72741,178.879477 L171.72741,172.85545 L171.943373,172.85545 L172.346211,172.85121 C174.060586,172.836583 174.709657,172.948932 174.935688,173.604733 L175.21187,174.401722 L177.450392,174.401722 L177.450392,166.03225 L175.801615,166.03225 L175.569045,166.137815 C175.5279,166.155092 175.285878,166.245458 174.487155,166.245458 L171.727463,166.245458 L171.727463,161.649854 L171.899815,161.649854 L172.460471,161.647734 C174.543025,161.629186 175.855837,161.702 176.509692,162.854638 L176.850239,163.452896 L178.849971,163.452896 L178.849971,154.870279 L177.280082,154.870279 L177.043354,154.979989 C176.812113,155.085979 176.20187,155.085555 175.757972,155.085555 L157.838101,155.085555 L138.916717,155.085555 C138.771859,155.063085 137.130896,154.801948 137.130896,154.801948 L136.869248,155.851499 L134.42936,165.601699 L137.353101,163.488159 C138.840274,162.458735 139.839343,162.123966 141.450058,162.123966 C141.800907,162.123966 142.10084,162.126086 142.38657,162.140501 L142.38657,178.371755 L142.392949,179.137699 C142.395075,179.354978 142.399328,179.565633 142.399328,179.767013 C142.399328,181.538312 142.233706,182.695507 141.149243,183.389739 L140.607277,183.737512 L140.297871,183.874143 L139.928257,183.524293 C137.921508,181.635027 137.621266,180.816045 136.823882,178.632659 L136.578852,177.964013 L128.287337,155.085088 L115.886425,155.085088 L115.886425,157.026819 L116.418014,157.376669 C117.374875,158.007308 117.497778,158.512772 117.497778,158.883736 C117.497778,159.35539 117.119435,160.463194 116.89351,161.125629 L116.611109,161.98265 L110.776067,179.065001 C110.054435,181.139748 109.58637,182.192332 108.161712,183.519852 L107.719408,183.942146 L107.256351,183.523985 C105.83031,182.181945 105.761204,180.732324 105.761204,178.286613 L105.761204,162.081857 C106.069525,162.048788 106.391807,162.038401 106.741316,162.038401 C108.394558,162.038401 108.87756,162.633353 109.131341,163.216264 L110.582792,166.547094 L113.134845,155.085374 L97.8909945,155.085374 L98.1920866,154.023358 L107.162654,121.777069 L107.700473,122.124843 C108.908456,122.910491 108.979902,124.38009 108.954704,126.703913 L108.948325,127.525746 L108.987769,144.796758 C108.994148,147.598913 108.392889,149.282982 107.040027,150.251515 L106.547892,150.60551 L106.547892,152.555508 L107.758533,152.526572 C114.198736,152.371563 120.702729,152.318154 127.089241,152.367175 L128.027836,152.375654 L130.255939,143.174057 L127.959261,143.147136 L127.602108,143.623262 C126.319702,145.30977 124.596609,145.653176 122.402528,145.647876 C121.314046,145.645757 120.18612,145.581209 119.154837,145.289748 C119.150584,144.121212 119.140909,140.209241 119.138251,138.640594 C119.551562,138.641654 119.989623,138.644833 119.989623,138.644833 L120.380012,138.640594 C122.106401,138.622046 122.721343,138.744358 122.963216,139.495549 L123.226938,140.311171 L125.488318,140.31965 L125.481939,139.13352 L125.463227,131.49898 L123.808283,131.488381 L123.554939,131.608446 C123.517727,131.626994 123.29413,131.716683 122.516681,131.714012 L119.125142,131.756408 C119.123016,130.401012 119.1177,127.998863 119.114511,126.632868 C119.328475,126.633928 119.623252,126.632868 119.623252,126.632868 L119.891131,126.632868 C122.090634,126.622269 123.478507,126.712148 124.18956,128.067438 L124.51972,128.698818 L126.538058,128.709417 L126.546563,127.519154 L126.529977,119.774914 L124.958068,119.75626 L124.696431,119.884614 C124.489037,119.986046 123.882887,119.98329 123.477497,119.981912 C118.473967,119.881222 113.383257,119.842886 108.344217,119.868058 L96.6683926,119.865938 L96.7016169,121.09351 L96.7182344,121.95882 L97.3702604,122.275549 C98.5756919,122.858492 99.3221494,123.474716 99.3221494,124.730693 L99.3221494,124.741292 C99.3208736,125.420951 99.0929813,126.242 98.8923064,126.966651 L98.8341612,127.175726 C98.8328854,127.179966 96.6408243,135.307251 95.2812319,140.345999 C93.7794926,135.596391 90.8354455,126.280114 90.8354455,126.280114 L90.6028753,125.539013 C90.1975385,124.269787 89.5284273,122.159957 89.4898339,121.183474 C89.4937676,121.153055 89.5272152,120.87089 89.5272152,120.87089 L89.5167961,119.452854 C89.5167961,119.452854 80.7250557,118.947178 75.0660765,118.717975 C72.2552457,118.605361 57.6544054,117.393105 57.6544054,117.393105 L57.6487174,117.344731 Z M141.766322,119.957164 C137.823206,119.946565 133.835969,119.975818 129.911884,120.042061 L128.748979,120.062729 L128.748979,121.973405 L129.253574,122.325322 C130.631666,123.287178 131.223963,124.869179 131.234595,127.610284 L131.101697,144.666137 L131.110203,145.48797 C131.114455,145.752944 131.118708,146.008814 131.118708,146.253915 C131.118708,148.124632 130.943943,149.427033 129.872769,150.147762 L129.351568,150.497613 L129.351568,152.437329 L130.531058,152.439449 C136.585858,152.450048 142.723586,152.554469 148.773071,152.7479 L149.680504,152.776835 L153.316468,140.815904 L150.394854,143.055783 C148.749585,144.315788 146.611534,145.752796 144.669851,145.678603 L143.851704,145.657935 C142.913449,145.640765 142.021123,145.618189 141.262333,145.392961 C141.257017,143.997925 141.200031,127.859094 141.200031,127.859094 L141.189399,127.028973 C141.184083,126.7481 141.180893,126.475845 141.180893,126.217495 C141.180893,124.287211 141.357817,122.952378 142.414393,122.259418 L142.945982,121.909578 L142.945982,119.961594 L141.766492,119.957354 L141.766322,119.957164 Z M229.521059,122.013363 C230.557658,122.112251 231.469865,122.526586 232.291171,123.267856 C235.180358,125.876473 236.211641,131.860542 236.211641,136.588634 C236.211641,140.21083 235.408941,143.988937 233.952387,147.226815 C232.257893,150.838412 230.413172,151.385 227.801687,151.104128 C227.078726,151.026014 226.34609,150.853727 225.415809,150.541058 L225.415809,122.640344 C226.618476,122.33165 227.558858,122.106761 228.441296,122.019319 C228.815385,121.982223 229.175548,121.980209 229.521059,122.01296 L229.521059,122.013363 Z M164.712899,132.332832 C165.205948,133.904129 165.646497,135.303298 166.091735,136.723559 C165.039189,136.693034 164.529076,136.678938 163.537662,136.651062 C163.891169,135.353961 164.254478,134.019339 164.713006,132.332832 L164.712899,132.332832 Z M79.1015293,154.410475 C75.8681914,154.410475 73.1547477,155.179483 71.036365,156.69381 L71.0300922,156.698049 C68.7614823,158.344916 67.4065679,161.02868 67.4065679,163.877152 C67.4065679,170.161066 72.3759696,172.47429 76.0054477,174.163553 C78.6912488,175.415502 80.3370488,176.25335 80.3370488,177.653791 C80.3370488,179.387994 77.8031759,179.523131 77.0270558,179.523131 C74.325307,179.523131 71.1268414,178.315803 68.8808772,176.449007 L66.2021995,174.221529 L68.5071701,184.404378 L69.0906742,184.634163 C71.8455819,185.713986 74.7587967,186.261316 77.7477099,186.261316 C80.5119735,186.261316 83.7343606,185.969357 86.6767066,183.797905 C89.1738998,181.935137 90.5452935,179.131605 90.5452935,175.896271 C90.5452935,172.969685 89.4571305,170.699069 87.0130962,168.532853 C85.2402464,166.962934 83.3201464,166.111943 81.2880937,165.212409 L81.0679839,165.117231 L80.5675458,164.901934 C78.9661867,164.22625 77.7435316,163.629952 77.7435316,162.631 C77.7435316,161.106021 79.9934296,161.061823 80.2498682,161.061823 C81.9018346,161.061823 83.7463427,161.693956 85.5803252,162.887707 L87.4097362,164.07797 L87.4097362,156.072891 L86.6580372,155.781006 C84.3908095,154.898642 81.7063906,154.41056 79.1016037,154.41056 L79.1015293,154.410475 Z M121.990142,167.159969 C122.586851,168.88495 122.87258,169.708596 123.252666,170.809616 L120.783647,170.809616 C121.145128,169.717923 121.417323,168.888978 121.990142,167.159969 Z" id="Shape" fill="#FFFFFF" transform="translate(124.638805, 97.387024) rotate(-360.000000) translate(-124.638805, -97.387024) "></path>
                <path d="M21.8759569,113.192979 C17.0094708,113.152067 12.3041626,114.657968 8.69998809,118.364107 C5.01203518,122.504275 3.09395519,129.6944 3.22419454,136.063318 C3.36240772,143.1235 5.46027115,149.473127 9.17342139,153.657599 C12.9025193,157.989925 16.8925212,158.773719 21.6593874,158.414732 C24.7931055,158.181554 28.5141233,157.402032 31.6744208,156.116876 C32.5528719,152.918639 33.4338746,149.725913 34.3136546,146.534353 C31.0364075,149.328452 27.3472851,151.371614 23.60107,151.53982 C16.44992,151.872362 13.3712746,144.615516 13.5174616,135.36368 C13.6370692,127.258122 15.8236017,119.927349 23.1795198,120.342828 C26.4022259,120.532285 28.783639,122.117519 31.2488305,124.385697 C31.8335786,121.416715 32.4158813,118.448581 32.9993536,115.482143 C29.987901,114.89655 26.9919709,113.592454 23.9686107,113.30236 C23.269571,113.235269 22.5707439,113.19849 21.8754253,113.19265 L21.8759569,113.192979 Z M230.535332,113.399987 C228.590885,113.431148 226.591791,113.716048 224.569519,114.010668 L213.906904,115.658489 L213.906904,115.844797 C214.80529,116.279355 215.588852,117.525475 215.788198,118.761632 C216.038045,120.564728 216.037386,126.316786 216.037386,128.468376 L216.037386,147.877199 C216.037386,151.16415 216.293048,155.103043 213.690951,156.488857 L213.690951,156.677233 L225.566653,158.351975 C230.98227,158.883248 235.986013,159.82025 240.455402,155.279971 C244.317397,151.131749 246.209429,143.901983 246.209429,136.451971 C246.209429,128.152982 244.172061,120.769744 239.67875,116.50684 C236.86877,114.004531 233.776622,113.347713 230.535842,113.399648 L230.535332,113.399987 Z M36.1012826,116.035208 L36.1012826,116.219449 C38.2223233,118.208027 37.9597183,120.714682 37.9742838,123.885044 L38.0822602,146.618763 C38.0982079,149.785203 38.3843517,153.86803 36.2818741,156.031597 C36.2818741,156.092541 36.2826215,156.154884 36.2840004,156.215828 C42.6524385,155.451378 49.0272556,154.785074 55.4084518,154.214002 C56.2417178,150.993189 56.5402052,148.356484 57.1901261,145.84453 C55.2989445,147.797389 52.9769631,148.660251 50.6034175,148.85241 C49.0499013,148.978272 47.4531138,148.439707 46.0683241,147.676561 C46.0297839,139.825378 45.9898296,131.973135 45.9499604,124.120363 C45.9297601,121.004267 45.6150593,119.191844 47.7201523,117.506609 C47.7201523,117.448315 47.718026,117.390275 47.718026,117.330655 C43.8400831,116.865626 39.9662866,116.433718 36.0932344,116.038854 L36.1012826,116.035208 Z M211.642653,116.200816 C208.881047,116.492288 206.115933,116.803792 203.349012,117.132359 C203.350075,117.188004 203.349767,117.243649 203.351138,117.297968 C205.227648,119.50658 205.333966,121.732045 205.377769,124.992604 C205.449533,130.155572 205.522542,135.320977 205.591648,140.48511 C201.017323,133.010191 196.435557,125.586146 191.849005,118.212447 C188.914633,118.395279 185.974626,118.599977 183.036214,118.825205 C183.034088,118.8729 183.033024,118.920384 183.029835,118.968047 C185.401998,121.90396 185.702027,123.549449 185.760502,127.546637 C185.84949,133.527102 185.938595,139.505448 186.026297,145.484324 C186.071482,148.505029 186.088386,151.33156 184.22389,153.332115 C184.22389,153.381188 184.224645,153.434395 184.226017,153.487379 C187.058111,153.694048 189.889568,153.922011 192.719004,154.168437 C192.717941,154.115442 192.716878,154.061292 192.716878,154.006972 C190.835052,151.67785 190.54927,148.754549 190.505361,145.676822 C190.437636,141.013278 190.368891,136.351324 190.299784,131.689369 C190.343694,131.689369 190.388028,131.688627 190.430598,131.687249 C193.249296,136.328324 196.06725,140.986569 198.882015,145.665163 C201.036227,149.324456 201.879115,151.265232 205.084597,153.610253 C206.384333,154.574759 208.764151,156.426716 210.273864,157.098372 C210.131664,146.539154 209.989039,135.980996 209.848178,125.423367 C209.795019,121.602441 209.833719,118.802088 211.646438,116.374926 C211.644312,116.318009 211.643248,116.258008 211.642185,116.201039 L211.642653,116.200816 Z M58.9383527,118.494538 L58.9383527,118.656003 C61.0354719,120.379607 60.7658499,123.323575 60.7698899,126.093932 L60.796884,146.029524 C60.8008178,148.799881 61.1049612,151.743002 59.0131898,153.59782 L59.0131898,153.757218 C65.5345129,153.198123 72.0594508,152.7456 78.5884288,152.397159 C79.1931115,149.772644 79.7986447,147.152686 80.4032742,144.530714 C80.3421414,144.536013 80.2809236,144.541949 80.2184619,144.547248 C78.5930749,146.836625 75.6001216,147.586395 73.2039304,147.708283 C71.7061248,147.783748 70.1230523,147.770181 68.7103009,147.184546 C68.704985,143.965111 68.6997755,140.744827 68.6957673,137.525392 C69.1662237,137.520093 69.6373392,137.515853 70.1077744,137.512991 C71.6919101,137.499743 73.8914133,137.301754 74.4933849,139.30358 C74.5651494,139.30358 74.6389128,139.30146 74.7093377,139.30146 C74.7066797,136.97096 74.7008323,134.641944 74.6968772,132.312715 C74.6251127,132.311656 74.5547622,132.309536 74.4829977,132.306356 C74.0975955,132.498462 73.5000574,132.532824 72.9006694,132.519575 C71.4959982,132.487778 70.0921776,132.461387 68.6874001,132.438811 L68.6769809,124.112795 C69.2524262,124.145864 69.8271272,124.1819 70.4025193,124.216347 C72.4982564,124.332935 74.9375064,124.237439 76.0963707,126.648703 C76.1402268,126.650823 76.1825839,126.654003 76.225111,126.657182 C76.2211772,124.294885 76.2173498,121.933436 76.2146918,119.571245 C76.1721647,119.567005 76.1284787,119.563825 76.0859516,119.560646 C75.6154952,119.764676 74.9295325,119.703976 74.2876918,119.649677 C69.1684882,119.200546 64.0519426,118.813853 58.9375234,118.494602 L58.9383527,118.494538 Z M78.5741928,119.715857 C78.5754686,119.763552 78.5763192,119.812308 78.5763192,119.858699 C79.6886163,121.089451 80.5035425,122.654282 81.0390654,124.348738 C83.2903455,131.113527 85.5426887,137.889975 87.7939688,144.681791 C88.7707639,147.551461 89.425097,148.917562 91.7601555,150.614774 C93.3735286,151.79783 95.270345,152.524071 97.0843398,153.301823 C100.110358,142.48982 103.134781,131.699014 106.160799,120.933646 C106.159524,120.884573 106.157929,120.836454 106.156653,120.788737 C103.408337,120.713167 100.659064,120.655339 97.9107483,120.616917 C97.9107483,120.665991 97.9136189,120.71411 97.9148947,120.761826 C99.1455236,121.358018 100.537968,122.256386 100.53127,124.291387 C100.528612,125.201574 100.23358,126.187648 99.999681,127.034293 C98.4646642,132.717988 96.9310295,138.406982 95.3960127,144.102865 C93.5088712,138.11975 91.6204538,132.144054 89.7333124,126.180017 C89.3306336,124.868395 88.3561775,122.043241 88.329598,120.702472 C88.3428878,120.588533 88.3536897,120.477658 88.3669794,120.365044 C88.3657036,120.317348 88.364853,120.268593 88.364853,120.222212 C85.0996198,120.027456 81.8367256,119.858858 78.574044,119.717097 L78.5741928,119.715857 Z M170.079823,119.920799 C166.441096,120.044012 162.800029,120.20201 159.157793,120.392792 C159.158856,120.440487 159.159919,120.489984 159.159919,120.53769 C160.088871,120.855659 161.294781,121.484559 161.317427,122.796223 C161.33465,123.815049 160.69298,125.71486 160.457751,126.685937 C158.633125,133.049343 156.808711,139.420593 154.984084,145.801169 C154.269097,148.205862 153.634805,149.888342 152.066617,151.479458 C152.06768,151.525776 152.069806,151.574637 152.070869,151.622301 C154.945491,151.705715 157.820644,151.810347 160.692608,151.934885 C160.691544,151.885812 160.689418,151.835573 160.688355,151.787909 C159.920208,151.016835 159.26157,150.169236 159.238924,148.815218 C159.2217,147.801692 159.658879,146.321706 159.936635,145.366421 C160.25293,144.280027 160.572139,143.194481 160.889763,142.108087 C163.663383,142.202206 166.436046,142.315096 169.208283,142.447583 C169.697345,144.079823 170.186567,145.71058 170.6743,147.34547 C170.938765,148.158941 171.027232,148.416602 171.041851,149.264519 C171.06843,150.860935 170.322377,151.520826 169.368196,152.197888 C169.369259,152.248233 169.371385,152.294551 169.372448,152.344864 C173.61857,152.560818 177.860013,152.824138 182.099756,153.131508 L182.09763,153.079785 L182.09763,152.976234 C179.662951,150.050919 179.383016,149.119376 178.322496,145.784624 C175.575456,137.145197 172.830436,128.522091 170.080738,119.921032 L170.079823,119.920799 Z M228.999039,120.572889 C235.221822,120.497107 237.4899,129.014752 237.4899,136.384424 C237.4899,140.298092 236.595331,144.251081 235.126773,147.519696 C233.33266,151.343272 231.157078,152.475348 227.732262,152.107034 C226.752809,152.002422 225.773994,151.757766 224.260347,151.192046 L224.260347,121.493748 C225.992052,121.048592 227.188234,120.72491 228.384309,120.605672 C228.59333,120.585004 228.798226,120.575041 228.998964,120.572603 L228.999039,120.572889 Z M125.278553,120.854419 C124.81607,121.082297 124.140633,121.077824 123.509318,121.073849 C118.475168,120.974537 113.438893,120.938225 108.404743,120.962073 L108.404743,121.10076 C110.472625,122.446829 110.185248,125.085653 110.190564,127.48494 L110.230008,144.758072 C110.235324,147.158738 109.849252,149.697402 107.787994,151.173307 L107.787994,151.312005 C114.24542,151.155671 120.702421,151.102262 127.155913,151.152608 C127.708766,148.867259 128.263532,146.582546 128.815109,144.298469 C128.744727,144.298469 128.674482,144.297727 128.605376,144.29635 C127.00795,146.400244 124.817803,146.796115 122.458929,146.790816 C120.98377,146.786576 119.424512,146.696379 118.031749,146.101459 C118.02537,143.207942 118.01899,140.315061 118.011017,137.421543 C118.69278,137.422603 119.374649,137.422455 120.056359,137.427903 C121.616573,137.423663 123.552515,137.246311 124.14917,139.098511 L124.35682,139.098511 C124.351504,136.944272 124.349377,134.789079 124.342254,132.633567 C124.273148,132.633567 124.201628,132.634627 124.132521,132.633567 C123.753764,132.817724 123.164444,132.858467 122.573051,132.857142 C121.048772,132.847603 119.524919,132.846225 118.000534,132.848663 C117.995218,130.355256 117.987882,127.860684 117.983948,125.367278 C118.550091,125.367278 119.116446,125.366705 119.682588,125.369398 C121.747812,125.363038 124.150382,125.258024 125.293299,127.437467 L125.419966,127.437467 C125.41465,125.243482 125.409334,123.050556 125.405401,120.856571 C125.362873,120.856571 125.319921,120.854451 125.278733,120.854451 L125.278553,120.854419 Z M141.899219,121.046939 C137.956103,121.03634 134.011606,121.065593 130.067108,121.131836 L130.067108,121.268467 C132.137648,122.715226 132.543356,125.138467 132.552712,127.514013 C132.508909,133.204385 132.465,138.895181 132.419815,144.583645 C132.428321,146.961841 132.729221,149.648254 130.669292,151.034069 L130.669292,151.1707 C136.765344,151.181299 142.857568,151.284384 148.94639,151.47914 C149.713208,148.951287 150.481088,146.422269 151.249235,143.898443 C149.40058,145.314677 147.075196,146.853011 144.760126,146.765569 C143.243821,146.707275 141.56485,146.825029 140.214613,146.09899 C140.192074,139.989959 140.17283,133.879444 140.150291,127.770201 C140.143912,125.349609 139.840141,122.534524 141.898688,121.183156 L141.898688,121.046525 L141.899219,121.046939 Z M164.641666,128.039817 L164.683237,128.039817 C165.702559,131.28575 166.724752,134.53465 167.744021,137.785883 C165.839656,137.723561 163.933802,137.668139 162.029437,137.624418 C162.899915,134.426181 163.771242,131.232713 164.641666,128.039775 L164.641666,128.039817 Z M79.0845184,155.505973 C76.4997193,155.505973 73.8709046,156.01961 71.7087189,157.565776 C69.7577867,158.982009 68.5731934,161.343565 68.5731934,163.790548 C68.5731934,173.406458 81.5014417,172.333313 81.5014417,177.569201 C81.5014417,179.973894 78.9149415,180.616403 77.0078122,180.616403 C73.9552147,180.616403 70.4806416,179.243096 68.1058203,177.269038 L69.5033681,183.448341 C72.1320765,184.477765 74.9309997,184.994729 77.7284345,184.994729 C80.7385049,184.994729 83.4523739,184.610019 85.9535008,182.763118 C88.2008471,181.088481 89.344508,178.598467 89.344508,175.809561 C89.344508,173.060402 88.2435869,171.131178 86.2089826,169.328082 C84.5119374,167.825679 82.6058713,167.009241 80.571267,166.106951 C79.0018032,165.420679 76.542778,164.605184 76.542778,162.546335 C76.542778,160.528504 78.5774887,159.797176 80.230731,159.797176 C82.3491137,159.797176 84.4281589,160.654197 86.2089826,161.813417 L86.2089826,156.793429 C84.0041634,155.934913 81.4606156,155.505867 79.0844121,155.505867 L79.0845184,155.505973 Z M177.524198,155.975889 C177.057728,156.191843 176.380431,156.191186 175.742524,156.191186 L160.903744,156.191186 L160.903744,156.319528 C162.9796,157.608574 162.685418,160.055239 162.685418,162.287699 L162.685418,178.34089 C162.685418,180.573244 162.979621,182.976771 160.903744,184.306941 L160.903744,184.437362 L179.685852,184.437362 L181.380239,177.953763 L181.170517,177.953763 C179.558526,179.929198 177.353919,180.315743 174.980374,180.315743 C173.495964,180.315743 171.926394,180.231057 170.528315,179.67193 L170.528315,171.600606 L171.925862,171.600606 C173.495326,171.600606 175.446684,171.429942 176.039406,173.146995 L176.251212,173.146995 L176.251212,167.137489 L176.039406,167.137489 C175.65799,167.308397 175.064354,167.350708 174.471643,167.350708 L170.528315,167.350708 L170.528315,160.397257 L171.886419,160.397257 C173.963656,160.397257 176.379942,160.183868 177.524134,162.200353 L177.652885,162.200353 L177.652885,155.975581 L177.524134,155.975581 L177.524198,155.975889 Z M91.1654135,156.0628 L89.5104702,162.672632 L89.8094891,162.457346 C91.4202042,161.341805 92.6483878,160.869621 94.5979379,160.869621 C95.3620973,160.869621 95.9977184,160.870533 96.7180217,161.041441 L96.7180217,178.297615 C96.7180217,180.529969 97.0156266,182.976952 94.9384739,184.307122 L94.9384739,184.435465 L106.428242,184.435465 L106.428242,184.307122 C104.604891,182.591361 104.561407,180.658428 104.561407,178.212717 L104.561407,161.041335 C105.283039,160.828031 105.962357,160.782572 106.725188,160.782572 C108.252124,160.782572 109.566,161.213897 110.201249,162.672579 L111.642387,156.188981 L91.9693358,156.188981 L91.1657219,156.062705 L91.1654135,156.0628 Z M138.001608,156.0628 L136.346664,162.672632 L136.64361,162.457346 C138.254325,161.341805 139.483253,160.869621 141.434185,160.869621 C142.197015,160.869621 142.831946,160.870533 143.552249,161.041441 L143.552249,178.297615 C143.552249,180.529969 143.849854,182.976952 141.772701,184.307122 L141.772701,184.435465 L153.262469,184.435465 L153.262469,184.307122 C151.439118,182.591361 151.397761,180.658428 151.397761,178.212717 L151.397761,161.041335 C152.118064,160.828031 152.796584,160.782572 153.559415,160.782572 C155.085076,160.782572 156.400227,161.213897 157.035476,162.672579 L158.478634,156.188981 L138.805583,156.188981 L138.001969,156.062705 L138.001608,156.0628 Z M117.323853,156.191154 L117.323853,156.319497 C118.171748,156.877267 118.935206,157.651892 118.935206,158.809829 C118.935206,159.712066 118.256685,161.38559 118.002851,162.244106 L112.151224,179.372032 C111.389723,181.56199 110.836073,182.804824 109.225358,184.307122 L109.225358,184.437542 L117.917691,184.437542 L117.917691,184.307122 C117.15486,183.663235 116.389372,183.108061 116.389372,181.903701 C116.389372,181.002789 116.855842,179.671559 117.153531,178.813043 L118.171025,175.894194 L126.566412,175.894194 L127.96396,180.059269 C128.219123,180.745552 128.302434,180.960509 128.302434,181.690555 C128.302434,183.063121 127.540592,183.663235 126.566476,184.307228 L126.566476,184.437648 L139.370333,184.437648 L139.370333,184.394192 L139.370333,184.307281 C136.95426,182.032531 136.740667,181.044178 135.72395,178.297774 L127.710669,156.191514 L117.323948,156.191514 L117.323853,156.191154 Z M122.199482,163.446887 L122.241052,163.446887 L125.166919,171.90327 L119.400452,171.90327 L122.199588,163.446887 L122.199482,163.446887 Z" id="Shape" fill="#006A4D" transform="translate(124.713702, 149.093449) rotate(-360.000000) translate(-124.713702, -149.093449) "></path>
            </g>
        </g>
    </g>
</svg>