<?xml version="1.0" encoding="UTF-8" standalone="no"?>
<svg width="250px" height="250px" viewBox="0 0 250 250" version="1.1" xmlns="http://www.w3.org/2000/svg" xmlns:xlink="http://www.w3.org/1999/xlink">
    <!-- Generator: Sketch 47.1 (45422) - http://www.bohemiancoding.com/sketch -->
    <title>HAMP</title>
    <desc>Created with Sketch.</desc>
    <defs>
        <polygon id="path-1" points="232.764905 0.238333333 0 0.238333333 0 249.166417 232.764905 249.166417"></polygon>
    </defs>
    <g id="Page-1" stroke="none" stroke-width="1" fill="none" fill-rule="evenodd">
        <g id="HAMP">
            <g id="Group-3" transform="translate(8.000000, 0.595000)">
                <mask id="mask-2" fill="white">
                    <use xlink:href="#path-1"></use>
                </mask>
                <g id="Clip-2"></g>
                <path d="M189.407955,245.358083 C172.294564,239.480583 157.952955,235.21225 142.215016,232.933917 C134.670492,238.138083 126.302535,243.11975 117.020116,247.783083 L114.265872,249.166417 L111.510794,247.783083 C102.253428,243.13225 93.8996681,238.163917 86.3609907,232.97475 C70.7291125,235.263083 56.4509728,239.516417 39.4394674,245.358917 L37.2848437,246.098917 L42.0859799,226.011417 L38.4030767,224.64975 L38.2377219,224.738083 C31.2861376,228.43475 23.6923419,231.713917 16.6806287,235.121417 L14.8792631,235.99725 L14.8792631,171.160583 L-0.00016702509,147.82475 L22.5240014,147.82475 C15.8814136,125.393917 16.9603957,109.20225 16.9712523,109.056417 L16.9712523,104.568083 L81.4404315,104.568083 L81.4404315,99.66225 C77.5771412,98.7814167 73.8508115,96.82475 70.8109548,93.39975 L75.0275032,90.3655833 C75.0275032,90.3655833 71.0063742,89.0939167 68.2613168,85.96225 L67.5614817,85.0814167 L16.9487039,85.0130833 L17.5007219,80.0955833 C17.534962,79.78475 19.2820444,64.52475 30.7516573,47.6980833 C42.3223204,30.72225 63.7683419,12.22475 102.750328,5.93725 L111.613514,5.21225 C110.571277,6.30641667 109.671012,7.90975 108.860941,9.43725 C107.095485,12.76475 106.801521,13.9389167 106.974392,16.18475 C107.233281,19.55475 109.945768,21.77475 113.611134,21.77475 C117.2765,21.77475 119.999009,19.3255833 120.247876,16.18475 C120.433274,13.8414167 119.943055,12.0789167 118.570109,9.43725 C117.824342,8.00225 116.949966,6.45475 115.871819,5.26141667 L124.558794,6.02141667 C166.731794,12.9680833 188.685571,35.18225 199.378518,53.08225 L228.414159,5.70308333 L231.740464,0.238083333 C231.740464,0.238083333 234.170679,17.24475 231.545044,32.3355833 C225.867862,64.9564167 216.000019,82.7514167 204.4185,104.568083 L210.862328,104.568083 L210.950851,109.056417 C210.962543,109.200583 212.155937,125.393083 205.642794,147.82475 L228.171973,147.82475 L213.442865,170.921417 L213.4437,235.923083 L211.64317,235.04975 C204.35169,231.513917 197.1337,227.840583 189.615066,224.810583 L189.459733,224.748083 L186.719686,225.82725 L191.561743,246.098083 L189.407955,245.358083 Z M151.355464,85.3555833 C154.002811,86.7455833 160.444969,87.91975 160.444969,87.91975 C160.444969,87.91975 156.320285,91.14975 151.459854,92.63475 C146.145116,94.2580833 142.204994,93.7355833 141.438349,93.9880833 L141.438349,96.2805833 L146.617797,96.2805833 L146.617797,104.555583 L167.799919,104.568083 L179.660371,85.3755833 L151.355464,85.3555833 Z" id="Fill-1" fill="#FEFEFE" mask="url(#mask-2)"></path>
            </g>
            <path d="M178.882618,109.69325 L195.855707,81.47075 L149.11123,81.47825 L146.379535,83.8174167 C146.379535,83.8174167 150.785657,88.4390833 159.324815,88.80825 C159.324815,88.80825 152.851757,91.8415833 143.633643,89.9824167 L143.58437,98.1040833 L131.377342,105.23575 L111.016148,105.23575 L102.04022,94.94075 C102.04022,94.94075 92.9323416,99.5724167 85.7611194,93.71325 C85.7611194,93.71325 88.5195387,92.5265833 90.0636857,88.9040833 C90.0636857,88.9040833 83.3217179,88.3190833 80.0096104,84.0249167 L84.5251337,81.47825 L30.8549616,81.46825 C30.8549616,81.46825 37.381467,22.9799167 111.76275,10.9815833 C110.39732,12.6240833 109.596435,14.62325 109.596435,16.7799167 C109.596435,22.3690833 114.975478,26.8999167 121.610549,26.8999167 C128.246456,26.8999167 133.626334,22.3690833 133.626334,16.7799167 C133.626334,14.65825 132.851338,12.6890833 131.525994,11.0624167 C178.840861,18.8565833 198.510571,45.5224167 206.540302,63.7049167 L236.406894,14.0449167 C236.406894,14.0449167 236.209804,25.29825 235.276969,31.73075 C231.205732,59.78575 219.743635,81.32575 208.19051,103.09325 C206.990435,105.35325 205.815413,107.557417 204.672127,109.69325 L213.05261,109.69325 C213.05261,109.69325 214.54832,128.219917 206.198736,152.96575 L227.770026,152.96575 L216.830718,170.119083 L216.830718,229.106583 L209.709603,225.65325 C205.881388,223.797417 201.890324,222.059917 197.748101,220.449917 L196.912976,220.554083 L189.305818,223.549917 L193.130693,239.559917 L185.334797,236.882417 C174.167499,233.046583 161.679868,230.104917 147.930363,228.459083 C140.298987,233.806583 131.778202,238.92575 122.266123,243.70325 C112.774087,238.93575 104.264159,233.82825 96.6344527,228.49325 C82.9968541,230.14575 70.6052627,233.074083 59.5147968,236.882417 L51.7180656,239.559917 L55.5203918,223.649917 L47.1323918,220.549083 L46.6238004,220.47825 C42.4648756,222.097417 38.4587789,223.844083 34.6180369,225.711583 L27.4919115,229.174083 L27.4919115,170.359083 L16.4014455,152.96575 L38.0044706,152.96575 C29.5170907,128.219917 30.8825208,109.69325 30.8825208,109.69325 L94.81889,109.69325 L94.81889,101.21325 L103.136739,101.21325 L108.393019,113.01575 L95.6932663,122.969083 L111.016983,122.969083 L104.448722,137.356583 L121.521191,127.76575 L139.48641,137.356583 L132.918148,122.969083 L148.241865,122.969083 L135.542112,113.01575 L140.798392,101.21325 L149.116241,101.21325 L149.116241,109.69325 L178.882618,109.69325 Z" id="Fill-4" fill="#0060A8"></path>
            <polygon id="Fill-6" fill="#FEFEFE" points="103.146427 101.23625 107.52833 101.23625 111.016649 105.235417 131.377843 105.235417 138.224201 101.23625 140.788036 101.23625 135.541778 113.01625 148.241531 122.96875 132.917814 122.96875 139.486911 137.357083 121.520857 127.765417 104.448387 137.357083 111.016649 122.96875 95.6929323 122.96875 108.39352 113.01625"></polygon>
            <polygon id="Fill-8" fill="#0060A8" points="121.451041 107.59975 111.822044 122.115583 121.451041 119.55725 132.113087 122.115583"></polygon>
            <path d="M121.660239,134.03 C126.052999,134.03 129.867852,137.055833 129.867852,141.0775 C129.867852,145.098333 126.052999,148.124167 121.660239,148.124167 C117.268315,148.124167 113.452627,145.098333 113.452627,141.0775 C113.452627,137.055833 117.268315,134.03 121.660239,134.03" id="Fill-10" fill="#FEFEFE"></path>
            <path d="M158.736886,126.678917 L169.327947,131.66975 L232.827546,25.9339167 C232.827546,25.9339167 232.875983,27.2555833 232.0918,31.95225 C227.503621,59.42475 216.932603,79.93225 205.417058,101.62725 C195.373005,120.54975 187.075198,135.511417 184.82203,139.008917 L195.119127,143.99975 L190.608614,152.513917 L153.869775,135.04225 L158.736886,126.678917 Z" id="Fill-12" fill="#FEFEFE"></path>
            <polygon id="Fill-14" fill="#FEFEFE" points="91.0689262 77.5545833 96.3644566 53.8729167 122.842944 44.0870833 136.376987 48.3920833 138.926625 55.63375 123.431708 51.1329167 100.875804 58.37375 93.8148186 75.7929167"></polygon>
            <path d="M94.1223118,84.2346667 C94.2734695,82.1063333 95.5804409,80.3921667 97.0510968,79.6096667 C96.7070251,80.573 95.7315986,82.2005 96.5116057,84.3071667 C97.3450609,86.5571667 99.3343297,87.2788333 101.36619,86.7038333 C103.539186,86.0896667 104.630695,83.8096667 104.112082,81.6155 C103.820624,80.3813333 103.103251,79.5921667 102.233885,78.9571667 C105.016523,79.568 106.534781,81.2938333 106.857975,83.9146667 C107.283889,87.3713333 104.164695,90.1905 100.679717,90.3738333 C96.9533871,90.5696667 93.8742796,87.7255 94.1223118,84.2346667" id="Fill-16" fill="#FEFEFE"></path>
            <path d="M174.847291,134.427167 L217.735159,61.9996667 C213.458481,74.6188333 206.389144,87.6888333 200.30275,99.1546667 C190.366428,117.877167 182.085324,132.687167 179.856374,136.148 L179.527334,136.661333 L174.847291,134.427167 Z" id="Fill-18" fill="#0060A8"></path>
            <path d="M104.406464,22.5705 C104.406464,21.5238333 104.51002,20.5005 104.70878,19.5088333 C106.217851,27.0638333 113.211192,32.7763333 121.610884,32.7763333 C130.010575,32.7763333 137.003916,27.0638333 138.513823,19.5088333 C138.711747,20.5005 138.815303,21.5238333 138.815303,22.5705 C138.815303,31.5896667 131.112941,38.9005 121.610884,38.9005 C112.108826,38.9005 104.406464,31.5896667 104.406464,22.5705" id="Fill-20" fill="#FEFEFE"></path>
            <path d="M63.769928,81.4685833 C63.597057,77.7744167 63.3941215,57.6735833 78.0747918,41.7644167 C78.0747918,41.7644167 56.8726269,55.8110833 55.3977953,81.4685833 L63.769928,81.4685833 Z" id="Fill-22" fill="#FEFEFE"></path>
            <path d="M179.955086,81.4685833 C180.127957,77.7744167 180.330892,57.6735833 165.650222,41.7644167 C165.650222,41.7644167 186.853222,55.8110833 188.327218,81.4685833 L179.955086,81.4685833 Z" id="Fill-24" fill="#FEFEFE"></path>
            <path d="M78.7976763,153.003 C76.1302857,147.287167 73.4912892,141.527167 73.4912892,141.527167 L68.3527624,146.753833 C61.5606871,137.013833 55.9018771,116.058 54.2767229,109.652167 L79.6244505,109.652167 C82.2676226,118.118 86.0056441,128.3055 90.1704147,134.277167 L95.3089416,129.0505 C95.3089416,129.0505 100.382329,140.8155 106.756841,153.003 L78.7976763,153.003 Z" id="Fill-26" fill="#FEFEFE"></path>
            <polygon id="Fill-28" fill="#0060A8" points="66.0656878 109.65175 68.024057 131.05175 57.4805982 109.65175"></polygon>
            <polygon id="Fill-30" fill="#0060A8" points="76.7253961 109.65175 78.5710233 129.812583 68.6372061 109.65175"></polygon>
            <polygon id="Fill-32" fill="#FEFEFE" points="144.322788 153.003 157.562032 140.853 180.979785 152.2055 180.979785 153.003"></polygon>
            <polygon id="Fill-34" fill="#FEFEFE" points="111.499686 59.0670833 123.627377 55.2429167 135.903722 58.6179167 110.624474 63.86125 115.193446 60.0379167"></polygon>
            <path d="M138.926291,61.6036667 L139.907563,65.127 L134.683854,65.1761667 L136.376653,71.6828333 C139.907563,71.9761667 141.279675,69.432 141.279675,69.432 L143.244725,76.7703333 L141.405778,80.7836667 C141.405778,80.7836667 138.338363,78.4353333 135.494761,77.7503333 L136.278943,75.1078333 L132.391434,74.2611667 L128.452983,75.812 L131.375087,64.5395 L128.514782,63.492 C131.699951,62.9395 136.662266,62.0195 138.926291,61.6036667" id="Fill-36" fill="#FEFEFE"></path>
            <path d="M130.716173,81.0771667 C130.716173,81.0771667 125.910861,86.9488333 116.370388,86.3613333 C116.370388,86.3613333 118.786406,89.0755 116.128201,91.3288333 C113.469997,93.5813333 119.018571,95.0705 119.018571,95.0705 C119.018571,95.0705 121.606624,90.7105 127.354793,91.1563333 C133.109642,91.6038333 132.06156,95.658 132.06156,95.658 L134.932721,95.658 L138.169667,88.3188333 C138.169667,88.3188333 132.248628,86.2405 130.716173,81.0771667" id="Fill-38" fill="#FEFEFE"></path>
            <path d="M111.859374,66.8876667 C111.859374,66.8876667 111.564575,73.926 118.233887,73.8351667 C125.491127,73.7376667 125.098618,66.986 125.098618,66.986 L127.158037,67.4751667 L123.263012,76.8201667 C123.263012,76.8201667 117.5257,77.5543333 113.750098,81.8601667 L110.624224,78.4301667 L112.644392,75.6951667 L108.215722,75.8485 L106.683267,73.6351667 L109.702245,71.096 L105.150811,70.5001667 L107.339675,67.9185 L111.859374,66.8876667 Z" id="Fill-40" fill="#FEFEFE"></path>
            <path d="M223.254419,155.4395 L214.352817,169.398667 L214.352817,225.153667 L210.792677,223.427833 C206.725616,221.456167 202.476498,219.615333 198.05952,217.917833 L196.294065,218.138667 L186.396158,222.036167 L189.67319,235.756167 L186.141444,234.543667 C168.200444,228.382 146.951513,224.506167 122.626814,224.506167 L122.222613,224.506167 C97.897914,224.506167 76.6489821,228.382 58.7079821,234.543667 L55.1754014,235.756167 L58.4415771,222.091167 L47.7411147,218.136167 L46.3272473,217.940333 C41.8885556,219.648667 37.617724,221.502 33.5322903,223.487 L29.9713154,225.217 L29.9713154,169.638667 L20.9168853,155.4395 L223.254419,155.4395 Z" id="Fill-42" fill="#FEFEFE"></path>
            <path d="M32.4477964,221.26475 L32.4477964,168.918917 L25.428567,157.910583 L218.742571,157.910583 L211.876169,168.678917 L211.876169,221.205583 C187.389456,209.33225 156.383753,202.150583 122.222947,202.150583 C88.0045168,202.150583 56.9520473,209.355583 32.4477964,221.26475" id="Fill-44" fill="#0060A8"></path>
            <path d="M194.37979,216.228917 L183.907317,220.891417 L186.948009,232.206417 C168.738933,225.953083 147.215245,222.03475 122.625811,222.03475 L122.424546,222.03475 L122.223281,222.03475 C97.6330122,222.03475 76.1101591,225.953083 57.901919,232.206417 L60.9334244,220.891417 L49.8688473,216.29975 C70.936557,208.72225 95.5928007,204.318917 122.223281,204.318917 C148.770249,204.318917 173.356342,208.69475 194.37979,216.228917" id="Fill-46" fill="#0060A8"></path>
            <path d="M77.6302545,215.82525 C76.7567133,212.05025 72.9777706,213.079417 70.2535914,213.706917 C68.7704086,214.048583 67.2972473,214.43525 65.810724,214.76275 C65.6896308,214.79025 65.2862652,214.836083 65.3280215,215.016083 C65.3948315,215.303583 65.9476846,214.93775 66.0620968,215.43525 L68.1799749,224.58775 C68.2918817,225.071083 67.6379785,224.998583 67.7039534,225.286083 C67.7565663,225.511917 69.2439247,225.121083 69.5011434,225.06275 C70.5458853,224.821917 71.575595,224.521083 72.6387097,224.291917 C72.7598029,224.264417 73.1673441,224.233583 73.1222473,224.036917 C73.0554373,223.75025 72.4992437,224.101917 72.3873369,223.618583 L71.8111004,221.126083 C74.0350394,220.613583 76.6464767,220.393583 77.5575986,217.92525 C77.7997849,217.249417 77.7872581,216.504417 77.6302545,215.82525 M73.6124659,216.718583 C73.8078853,217.564417 72.7289032,217.86025 72.108405,218.003583 C71.7902222,218.076917 71.4503262,218.123583 71.1329785,218.196917 L70.7521613,216.55025 L71.7167312,216.31275 C72.3188566,216.15775 73.40619,215.82775 73.6124659,216.718583" id="Fill-48" fill="#FEFEFE"></path>
            <path d="M82.9170161,211.45675 C82.962948,211.747583 83.5400197,211.420917 83.6201918,211.92675 L85.0925179,221.202583 C85.1685143,221.677583 84.5229624,221.575083 84.5688943,221.865917 C84.6056398,222.095917 86.1172168,221.80925 86.377776,221.768417 C87.4367151,221.600917 88.5006649,221.370917 89.5612742,221.218417 C89.6690054,221.200917 90.092414,221.197583 90.0615143,220.997583 C90.0147473,220.707583 89.4351703,221.018417 89.3575036,220.528417 L87.8851774,211.25175 C87.8075108,210.76175 88.4522276,210.86425 88.4088011,210.588417 C88.3745609,210.37425 86.863819,210.660083 86.6024247,210.70175 C85.5434857,210.868417 84.4778656,211.08425 83.4164211,211.235917 C83.3095251,211.253417 82.8877867,211.272583 82.9170161,211.45675" id="Fill-50" fill="#FEFEFE"></path>
            <path d="M109.447782,218.999917 C109.436926,218.876583 108.783858,218.714917 108.608481,218.497417 L106.094754,215.434083 C107.479392,214.69075 108.391349,213.537417 108.247707,211.90075 C108.20094,211.36075 108.058134,210.797417 107.723248,210.359917 C106.448012,208.619917 105.203675,208.65075 103.207725,208.824917 L96.0740835,209.447417 C95.9813846,209.45575 95.7650871,209.474083 95.7767789,209.61325 C95.8026677,209.906583 96.4014527,209.621583 96.4465495,210.13075 L97.2666427,219.487417 C97.3083989,219.96575 96.6720333,219.819083 96.6979222,220.112417 C96.7179652,220.344083 98.2454097,220.164917 98.5093093,220.141583 C99.5765996,220.04825 100.654747,219.891583 101.722872,219.814083 C101.831438,219.804917 102.254847,219.829917 102.237309,219.629083 C102.21142,219.33575 101.6118,219.606583 101.568374,219.111583 L101.361263,216.749917 L102.428553,216.65575 C102.658213,216.96325 104.107155,218.90575 104.120517,219.059917 C104.143901,219.32325 103.589377,219.23075 103.614431,219.50825 C103.636144,219.75575 105.193653,219.557417 105.456718,219.534917 C106.601675,219.434917 107.756653,219.271583 108.903281,219.187417 C109.011012,219.177417 109.464485,219.184917 109.447782,218.999917 M101.128263,214.09325 L100.94203,211.97825 L101.855657,211.899083 C102.520417,211.84075 103.809015,211.774917 103.891693,212.716583 C103.983557,213.767417 102.877851,213.956583 102.07279,214.026583 C101.763793,214.054083 101.437259,214.066583 101.128263,214.09325" id="Fill-52" fill="#FEFEFE"></path>
            <path d="M122.543886,214.32625 L120.446886,214.32625 L121.488287,210.885417 L122.543886,214.32625 Z M124.904785,208.234583 C124.904785,208.142083 124.73442,208.127083 124.671785,208.127083 C124.019552,208.080417 123.367319,208.080417 122.715086,208.080417 C121.41062,208.080417 120.089452,208.127083 118.784986,208.11125 C118.67642,208.11125 118.318986,208.080417 118.318986,208.234583 C118.318986,208.49875 118.754086,208.390417 118.754086,208.607083 C118.754086,209.11875 115.445319,216.82125 114.94842,218.06125 C114.870753,218.247083 114.823986,218.464583 114.622721,218.542083 C114.498287,218.58875 114.21852,218.58875 114.21852,218.774583 C114.21852,219.022917 115.84952,218.97625 116.144319,218.97625 C117.231653,218.97625 118.334853,218.91375 119.438054,218.929583 C119.561653,218.929583 119.794653,218.97625 119.794653,218.774583 C119.794653,218.542083 119.281886,218.619583 119.281886,218.26375 C119.281886,218.030417 119.483986,217.534583 119.561653,217.287083 L123.460853,217.287083 C123.522653,217.487917 123.724753,218.06125 123.724753,218.232083 C123.724753,218.650417 123.211986,218.542083 123.211986,218.75875 C123.211986,219.05375 124.718552,218.97625 124.998319,218.97625 C126.116552,218.97625 127.234785,218.929583 128.353853,218.929583 C128.461585,218.929583 128.772251,218.96125 128.772251,218.774583 C128.772251,218.542083 128.306251,218.60375 128.197685,218.417917 C127.902051,217.922083 124.43962,208.762083 124.43962,208.637917 C124.43962,208.374583 124.904785,208.51375 124.904785,208.234583 L124.904785,208.234583 Z" id="Fill-54" fill="#FEFEFE"></path>
            <path d="M144.233096,208.527083 C143.954164,208.507917 144.119519,209.03125 143.624289,208.997083 L133.707175,208.304583 C133.196078,208.269583 133.464153,207.77625 133.170189,207.754583 C132.968924,207.74125 133.024877,208.05625 133.015691,208.179583 C132.953056,209.075417 132.859522,209.970417 132.797723,210.852083 C132.781856,211.08375 132.633203,212.300417 132.851171,212.31625 C133.130103,212.335417 132.965583,211.795417 133.461648,211.830417 L136.296063,212.027917 L135.836744,218.582917 C135.801669,219.077917 135.228773,218.82125 135.207895,219.114583 C135.192028,219.34625 136.729494,219.407083 136.977526,219.424583 C138.046486,219.49875 139.13549,219.512917 140.20278,219.602917 C140.311347,219.610417 140.725569,219.70125 140.738931,219.500417 C140.760644,219.207083 140.140981,219.380417 140.176056,218.887083 L140.63454,212.330417 C141.255038,212.37375 141.859669,212.400417 142.479332,212.44375 C142.789164,212.46625 143.131565,212.47375 143.439727,212.527083 C143.869816,212.60375 143.634311,213.06875 143.913243,213.08875 C144.114508,213.102083 144.075257,212.787917 144.082773,212.664583 C144.146243,211.767917 144.224744,210.872083 144.286544,209.975417 C144.302411,209.759583 144.450228,208.542917 144.233096,208.527083" id="Fill-56" fill="#FEFEFE"></path>
            <path d="M154.241573,218.322833 L154.42363,217.032833 C155.253745,217.1495 156.088871,217.235333 156.903953,217.3495 C157.334878,217.410333 157.765803,217.471167 158.191716,217.562 C158.798018,217.7095 158.430562,218.205333 158.738724,218.248667 C158.922451,218.2745 158.94834,217.762 158.965043,217.6395 L159.257337,215.676167 C159.287401,215.461167 159.502863,214.4895 159.240634,214.452833 C158.980075,214.417 159.157122,215.052 158.510734,214.961167 L154.78858,214.4395 L154.972308,213.1345 C155.941053,213.271167 156.91481,213.376167 157.883555,213.512 C158.375444,213.581167 158.885706,213.637 159.371749,213.752 C160.008949,213.903667 159.625627,214.397833 159.94882,214.443667 C160.133383,214.468667 160.145075,213.938667 160.160107,213.831167 L160.469104,211.745333 C160.500003,211.531167 160.726322,210.482833 160.464093,210.446167 C160.203534,210.4095 160.378075,211.0595 159.731688,210.9695 L150.995441,209.7445 C150.887709,209.728667 150.478498,209.6245 150.453444,209.808667 C150.411688,210.100333 151.05891,209.957 150.987924,210.462833 L149.678448,219.7645 C149.611638,220.2395 149.024544,219.953667 148.983623,220.246167 C148.966086,220.368667 149.087179,220.400333 149.16401,220.412 C149.785344,220.562 150.449268,220.638667 151.09482,220.7295 C152.832716,220.973667 154.599842,221.127 156.337738,221.371167 C156.984125,221.462 157.647215,221.538667 158.269383,221.688667 C158.875684,221.837 158.505724,222.347833 158.828917,222.393667 C159.01348,222.4195 159.023501,221.9045 159.040204,221.781167 L159.34753,219.711167 C159.377595,219.496167 159.602243,218.463667 159.340014,218.427 C159.07862,218.390333 159.255666,219.026167 158.609279,218.9345 L154.241573,218.322833 Z" id="Fill-58" fill="#FEFEFE"></path>
            <path d="M175.639241,218.766333 C176.015882,218.5405 178.402671,216.419667 178.485348,216.2155 L178.395155,216.066333 C178.255689,216.047167 178.16132,216.168 178.055259,216.142167 C177.875707,216.096333 176.473531,215.044667 176.141986,214.833833 C175.225854,214.2705 174.223703,213.798 173.16894,213.5355 C170.892388,212.969667 167.469209,213.091333 166.773549,215.873833 C166.086241,218.626333 168.817101,219.609667 170.818062,220.378833 C171.13875,220.506333 172.06908,220.753833 171.948822,221.234667 C171.83608,221.686333 171.312456,221.603 170.965879,221.517167 C170.288592,221.348833 167.24289,220.143833 167.439144,219.362167 C167.461692,219.271333 167.51347,219.188833 167.551051,219.102167 L167.441649,218.963 C167.193617,218.933 164.897857,221.2055 164.509524,221.539667 C164.44856,221.588833 164.370058,221.648833 164.34751,221.738833 L164.441879,221.874667 C164.599718,221.882167 164.743359,221.758 164.848585,221.783833 L164.935438,221.821333 C165.866603,222.5805 166.582305,223.301333 167.720581,223.808833 C168.659262,224.218 169.638029,224.588833 170.632664,224.836333 C173.1347,225.458833 175.964105,225.093 176.692334,222.1755 C177.290284,219.784667 174.482592,218.5905 172.715467,217.847167 C172.454908,217.734667 171.366739,217.352167 171.456933,216.991333 C171.565499,216.5555 172.089123,216.637167 172.405635,216.716333 C173.340141,216.948 174.828334,217.718 175.555728,218.331333 L175.579112,218.432167 C175.534015,218.548833 175.473886,218.7255 175.639241,218.766333" id="Fill-60" fill="#FEFEFE"></path>
            <polygon id="Fill-62" fill="#FEFEFE" points="178.968301 224.03575 179.599656 224.222417 179.599656 226.467417 180.305337 226.676583 180.305337 224.431583 180.935857 224.617417 180.935857 224.07825 178.968301 223.494917"></polygon>
            <polygon id="Fill-64" fill="#FEFEFE" points="181.076492 226.904417 181.616818 227.064417 181.616818 224.936917 181.62517 224.939417 182.067786 227.19775 182.49537 227.324417 182.977238 225.409417 182.985589 225.411917 182.985589 227.469417 183.69127 227.678583 183.69127 224.89275 182.730041 224.608583 182.374277 226.064417 182.365926 226.061917 182.064446 224.411917 181.076492 224.119417"></polygon>
            <path d="M57.8376143,207.555417 C55.8525211,208.182083 51.4463993,209.617917 49.5047326,210.252083 L49.5047326,187.267917 L45.1278401,187.267917 L45.1278401,211.829583 C42.3435319,212.857917 38.5721054,214.402083 36.7957935,215.137083 L36.7957935,166.909583 L33.7776502,162.249583 L45.1278401,162.249583 L45.1278401,180.367917 L49.5047326,180.367917 L49.5047326,162.249583 L57.8376143,162.249583 L57.8376143,207.555417 Z" id="Fill-66" fill="#FEFEFE"></path>
            <path d="M174.738809,167.553 C174.423966,166.7455 173.726637,166.368 172.885665,166.367167 C172.148249,166.367167 171.522741,166.678 171.101837,167.283833 C170.858816,167.642167 170.749414,168.2005 170.684275,168.771333 C170.615794,169.371333 170.580719,170.171333 170.580719,171.171333 L170.580719,194.546333 C170.580719,196.681333 170.660056,198.174667 170.875518,198.828833 C171.177834,199.679667 171.896042,200.1055 172.772088,200.158 C173.722461,200.213833 174.48159,199.784667 174.78307,198.853833 C175.011059,198.146333 175.097077,196.6255 175.097077,194.451333 L175.097077,171.171333 C175.097077,169.463833 175.006884,168.193 174.738809,167.553 M183.155203,198.0455 C182.999034,199.466333 182.488773,200.743833 181.623583,201.881333 C180.785117,203.003 179.63849,203.848 178.160318,204.403833 C176.67964,204.9605 174.926712,205.1905 172.882325,205.068833 C170.946504,204.952167 169.224475,204.537167 167.706217,203.834667 C166.220529,203.1255 165.035486,202.138833 164.136056,200.873 C163.224934,199.592167 162.692124,198.241333 162.521758,196.813 C162.338031,195.273 162.247837,192.591333 162.247837,188.767167 L162.247837,177.083 C162.247837,173.348833 162.330515,170.711333 162.49921,169.166333 C162.671246,167.7105 163.181508,166.393833 164.040016,165.194667 C164.902701,164.008833 166.064361,163.091333 167.552554,162.443833 C169.039077,161.7955 170.794511,161.4605 172.838898,161.4605 C174.772214,161.4605 176.483386,161.781333 177.977425,162.403 C179.471465,163.006333 180.658178,163.909667 181.550092,165.109667 C182.455368,166.328 182.985672,167.639667 183.156038,169.054667 C183.339766,170.584667 183.429124,173.2605 183.429124,177.083 L183.429124,190.122167 C183.429124,193.853833 183.339766,196.496333 183.155203,198.0455" id="Fill-68" fill="#FEFEFE"></path>
            <path d="M71.8793301,169.254667 C71.8793301,169.254667 69.3505703,182.2755 69.102538,185.608 L69.0449143,186.384667 L73.9846814,186.384667 L73.8911473,185.578 C73.3959179,181.334667 71.8793301,169.254667 71.8793301,169.254667 L71.8793301,169.254667 Z M83.135986,201.598833 C80.972176,201.939667 76.6996742,202.784667 74.9166814,203.142167 L74.1266527,191.593 L69.2603767,191.593 L68.4394484,204.641333 C66.1729179,205.187167 61.9864341,206.264667 60.062305,206.762167 L64.4283409,166.198 L61.7910147,162.244667 L68.2431939,162.244667 L77.7201975,162.249667 L83.135986,201.598833 Z" id="Fill-70" fill="#FEFEFE"></path>
            <path d="M114.416528,198.625583 L107.315457,198.925583 L107.315457,173.85725 L102.57612,199.361417 L97.6839548,199.725583 L90.2329656,176.31975 L92.785109,200.315583 L85.6840373,201.291417 L85.6832022,166.286417 L83.112686,162.253917 L85.6840373,162.24975 L97.005833,162.24975 C97.3473993,164.366417 97.7090086,166.81725 98.0889907,169.600583 L100.191837,184.503083 L102.481751,166.506417 L99.7467147,162.253917 L103.023747,162.24975 L114.416528,162.24975 L114.416528,198.625583 Z" id="Fill-72" fill="#FEFEFE"></path>
            <path d="M126.734629,180.307667 L127.416926,180.346833 C127.712561,180.3635 127.966439,180.371 128.178561,180.371 C129.160668,180.371 130.060098,180.140167 130.607105,179.446833 C131.136575,178.780167 131.296919,177.616833 131.296919,176.239333 L131.296919,171.031833 C131.296919,169.759333 131.114862,168.626 130.47098,168.006833 C129.839625,167.401833 128.723897,167.226 127.459518,167.225167 L126.734629,167.225167 L126.734629,180.307667 Z M127.528833,162.249333 C130.168665,162.249333 132.133715,162.457667 133.459894,162.846 C134.821984,163.241 135.76317,163.791833 136.356944,164.447667 C136.990804,165.134333 137.42674,165.982667 137.649718,166.995167 C137.888564,168.0085 138.025525,171.7735 138.02636,174.152667 L138.02636,177.421833 C138.02636,179.797667 137.776657,181.414333 137.347403,182.365167 C136.939027,183.2685 136.175722,183.9985 134.971471,184.527667 C133.781417,185.059333 132.165449,185.346833 130.085152,185.346833 L126.734629,185.346833 L126.734629,193.509333 L130.434234,198.601 L122.220776,198.507667 L118.401747,198.505167 L118.401747,166.217667 L115.870482,162.226 L122.322661,162.226 L127.528833,162.249333 Z" id="Fill-74" fill="#FEFEFE"></path>
            <polygon id="Fill-76" fill="#FEFEFE" points="140.305417 172.3845 140.305417 162.401167 140.311263 162.2495 160.237356 162.2495 160.237356 171.832833 154.429059 169.3995 154.429059 196.686167 157.473926 201.0545 143.125636 199.625333 146.097012 195.967833 146.097012 169.3995"></polygon>
            <polygon id="Fill-78" fill="#FEFEFE" points="184.35912 206.936917 187.135912 202.85525 187.135912 166.39775 184.657259 162.248583 194.019851 162.249417 200.798564 190.214417 200.798564 162.249417 210.217944 162.249417 207.528005 166.196083 207.528005 215.151083 200.300829 212.256083 193.866188 193.46775 193.866188 209.906083"></polygon>
        </g>
    </g>
</svg>