<?xml version="1.0" encoding="UTF-8" standalone="no"?>
<svg width="250px" height="250px" viewBox="0 0 250 250" version="1.1" xmlns="http://www.w3.org/2000/svg" xmlns:xlink="http://www.w3.org/1999/xlink">
    <!-- Generator: Sketch 47.1 (45422) - http://www.bohemiancoding.com/sketch -->
    <title>UMES</title>
    <desc>Created with Sketch.</desc>
    <defs></defs>
    <g id="Page-1" stroke="none" stroke-width="1" fill="none" fill-rule="evenodd">
        <g id="UMES" fill-rule="nonzero">
            <g id="Asset-14" transform="translate(0.000000, 35.000000)">
                <path d="M248.75,102.787889 C247.210387,99.5789156 245.381631,96.5161371 243.28629,93.6373333 C239.190621,87.2233844 235.513645,80.5527795 232.278226,73.667 C229.83871,68.1565556 231.532258,61.3992222 230.665323,55.8887778 C231.25,54.481 225.302419,38.7138889 220.080645,34.028 C214.858871,27.9946667 192.278226,15.928 188.467742,13.2532222 C184.435484,11.2421111 180.524194,11.5638889 175.947581,11.6242222 C170.967742,10.2968889 152.33871,3.27811111 149.193548,3.11722222 C142.399194,1.60888889 94.4758065,-1.10611111 93.5080645,0.482666667 C85.4435484,0.482666667 62.0766129,8.36622222 55.0201613,10.5382222 C39.7983871,14.5604444 7.94354839,24.1333333 3.40725806,29.3622222 C-4.41532258,38.4122222 3.62903226,39.096 4.03225806,42.5953333 C4.95967742,44.0031111 17.4193548,51.1626667 18.9919355,50.3582222 C20.5040323,54.6418889 17.4596774,58.7847778 17.4193548,63.1891111 C18.1653226,66.1856667 21.5725806,65.2002222 23.4677419,67.3521111 C22.7822581,71.9977778 18.8306452,75.0144444 15.766129,78.1718889 C14.4153226,80.364 16.0080645,82.5158889 17.0362903,84.4867778 C21.0685484,89.8363333 15.5241935,94.9244444 14.7782258,100.274 C15.5846774,101.842667 21.0483871,104.135333 22.1370968,105.663778 C24.1532258,108.881556 20.4032258,110.027889 18.8709677,112.099333 C17.3387097,114.170778 20.6451613,121.752667 19.858871,123.140333 C19.233871,126.7 13.4879032,140.616889 13.0645161,142.788889 C14.6572581,146.650222 22.9637097,145.383222 24.2540323,146.308333 C22.8965093,154.717077 22.7336176,163.27469 23.7701613,171.728778 C24.7177419,175.127556 25.1008065,178.606778 28.3064516,180.939667 C34.7782258,181.603333 38.7298387,176.052667 42.6008065,170.884111 C49.858871,164.167 62.2983871,159.621889 67.016129,157.128111 C74.8991935,153.467889 82.1774194,148.239 89.6774194,143.995556 C94.9596774,137.962222 115.120968,132.793667 118.508065,133.336667 C122.862903,132.693111 139.375,135.066222 139.375,135.066222 L160.46371,141.099556 C160.46371,141.099556 169.657258,144.940778 174.052419,146.871444 L174.233871,146.670333 C176.633065,148.42 196.41129,153.930444 196.41129,153.930444 C196.41129,153.930444 184.314516,123.763778 186.491935,121.752667 C190.060484,121.752667 205.141129,121.109111 205.725806,120.304667 C206.290323,118.112556 190.16129,117.046667 188.75,115.297 C188.145161,114.311556 196.068548,110.329556 196.814516,109.122889 C197.560484,107.916222 202.399194,108.378778 203.447581,108.439111 C205.838562,108.571283 208.177625,109.187095 210.322581,110.249111 C215.665323,112.863556 219.556452,119.721444 217.600806,125.493333 C215.645161,131.265222 208.548387,135.548889 203.487903,138.847111 C203.487903,138.847111 215.584677,138.847111 220.423387,137.519778 C227.03629,135.508667 233.770161,133.618222 239.052419,128.952444 C243.084677,125.453111 245.987903,123.602889 247.681452,118.494667 C249.193548,113.969667 250.423387,107.433556 248.729839,102.767778" id="Shape" fill="#231F20"></path>
                <polygon id="Shape" fill="#231F20" points="49.1129032 171.487444 50.8064516 171.487444 50.8064516 176.535333 51.4112903 176.535333 51.4112903 171.487444 53.1653226 171.487444 53.1653226 170.884111 49.1129032 170.884111"></polygon>
                <polygon id="Shape" fill="#231F20" points="56.4112903 175.489556 54.9596774 170.884111 53.9919355 170.884111 53.9919355 176.535333 54.5967742 176.535333 54.5967742 171.748889 56.108871 176.535333 56.7137097 176.535333 58.2459677 171.748889 58.2459677 176.535333 58.8508065 176.535333 58.8508065 170.884111 57.8629032 170.884111"></polygon>
                <path d="M165.322581,64.7577778 L165.504032,63.1086667 L166.975806,61.6003333 L169.717742,59.5892222 C168.393551,58.6664422 166.87719,58.0545317 165.282258,57.7993333 C163.232471,57.6306843 161.262408,58.6288547 160.189912,60.3794696 C159.117416,62.1300845 159.12563,64.3342002 160.211145,66.0768127 C161.296659,67.8194253 163.274107,68.8029574 165.322581,68.6191111 C166.751288,68.4025654 168.122214,67.9034229 169.354839,67.151 L168.084677,66.8895556 L165.322581,64.7577778 Z" id="Shape" fill="#FFFFFF"></path>
                <path d="M153.487903,112.923889 C151.132518,109.009938 149.109341,104.906384 147.439516,100.656111 L137.883065,105.342 C137.883065,105.342 146.270161,112.018889 149.979839,115.397556 C156.814516,121.712444 164.395161,128.369222 171.25,134.603667 C177.782258,140.637 190.725806,152.200889 190.725806,152.200889 C190.725806,152.200889 161.854839,123.462111 162.258065,123.261 C161.834677,123.482222 157.540323,119.238778 153.487903,112.923889" id="Shape" fill="#A1A0A4"></path>
                <path d="M237.177419,92.5111111 C232.842742,86.4777778 219.032258,77.7093333 219.032258,77.7093333 C219.032258,77.7093333 204.919355,83.6018889 198.870968,82.355 L193.729839,88.0866667 C195.887097,92.7524444 161.169355,96.8752222 150.322581,99.4494444 L152.923387,105.724111 C156.794355,104.718556 160.544355,103.250444 164.395161,102.144333 C168.58871,100.937667 172.701613,99.3488889 176.995968,98.5042222 C185.449255,97.1761074 194.067892,97.2985357 202.479839,98.8662222 C208.991935,99.8717778 216.370968,101.581222 219.919355,107.715111 C222.5,112.179778 221.935484,117.207556 223.185484,122.014111 C228.573663,120.280188 233.37952,117.100492 237.076613,112.823333 C242.762097,106.307333 242.076613,99.2081111 237.076613,92.4306667 M211.854839,91.9681111 C211.229839,95.2261111 206.633065,98.2025556 203.487903,98.3232222 C200,98.464 201.612903,91.0832222 201.471774,87.1615556 C207.520161,86.7593333 212.782258,87.4431111 211.935484,91.9681111" id="Shape" fill="#A1A0A4"></path>
                <path d="M184.879032,70.7307778 C177.5,68.9811111 164.919355,73.1441111 158.669355,76.6434444 C145.504032,83.9437778 128.548387,83.2197778 114.516129,77.5685556 C109.637097,75.5574444 105.423387,72.4 100.403226,70.6905556 C93.5184717,68.6620033 86.4981773,67.1229955 79.3951613,66.0851111 C79.3226635,68.2344065 78.0460425,70.1608998 76.0920966,71.0696225 C74.1381507,71.9783452 71.838126,71.7152444 70.141129,70.3888889 C66.6935484,68.2168889 68.7096774,66.3666667 70.9879032,64.5767778 C72.7620968,63.169 74.2741935,60.3534444 76.4516129,59.6495556 C79.7983871,58.5836667 84.1935484,61.6606667 87.641129,61.6606667 C92.8024194,61.8818889 98.0241935,59.6495556 102.903226,58.3021111 C100.383065,57.4574444 95,60.1322222 93.3669355,58.5233333 C91.0685484,56.3111111 95.3830645,51.585 97.2379032,50.4788889 C100.100806,48.8498889 102.520161,49.8956667 105.16129,51.4844444 C108.447581,53.4955556 104.395161,63.3097778 102.358871,66.789 C106.129032,68.3777778 131.774194,78.2925556 135.806452,77.6087778 C140.766129,76.7641111 157.762097,70.9117778 157.762097,70.9117778 C157.762097,70.9117778 135.080645,61.2584444 132.721774,60.3333333 C130.362903,59.4082222 131.310484,51.4844444 127.096774,50.2777778 C122.165819,48.7095097 117.430773,46.5840421 112.983871,43.9427778 C98.5080645,36.3206667 85.3024194,30.1666667 65.8266129,28.9197778 C46.9959677,27.7734444 46.3709677,20.3725556 26.2096774,24.4953333 C26.2096774,24.4953333 16.8548387,27.2505556 12.9637097,31.494 C9.07258065,35.7374444 17.8629032,42.2333333 21.2701613,45.1092222 C25.2636531,48.2421209 28.3067679,52.4194706 30.0604839,57.1758889 C31.0887097,60.4741111 30.2620968,61.6204444 29.9395161,63.893 C28.9919355,66.3264444 26.6935484,68.1364444 27.1370968,70.952 C27.3991935,72.6212222 28.5685484,74.1295556 28.8508065,75.8591111 C29.0122191,77.5446079 29.0122191,79.2416143 28.8508065,80.9271111 C33.1653226,81.0477778 35.7862903,81.9125556 35.1814516,86.6788889 C34.1400461,92.0874401 32.1760706,97.277661 29.375,102.023667 C30.5328086,102.517946 31.4297102,103.473966 31.8474557,104.659093 C32.2652011,105.844219 32.1654882,107.14979 31.5725806,108.258111 C30.6048387,110.953 30.2016129,111.315 31.0282258,114.110444 C32.7217742,119.822 31.0282258,123.884444 27.5403226,128.449667 C34.8790323,129.575889 40.7258065,132.733333 38.3064516,141.139778 C37.0967742,145.343 34.7379032,148.942889 34.1330645,153.387444 C33.7421232,157.024751 33.9601495,160.701584 34.7782258,164.267556 C34.5766129,160.004 39.4556452,163.402778 43.608871,161.130222 C47.7620968,158.857667 50.5040323,154.051111 54.4354839,152.241111 C58.9919355,150.23 60.483871,147.213333 63.7903226,143.613444 C58.1680184,138.705291 52.9807682,133.322363 48.2862903,127.524556 C48.8494734,126.854365 49.5332532,126.295061 50.3024194,125.875444 C53.6693548,124.005111 61.1693548,130.702111 64.4153226,131.064111 C63.0686777,127.853531 61.9239847,124.562333 60.9879032,121.209667 C60.2620968,118.434333 64.8387097,120.163889 65.0201613,117.448889 C65.3024194,114.170778 56.2298387,110.007778 53.891129,108.097222 C46.391129,101.943222 53.3870968,92.2898889 61.8145161,96.9556667 C63.729246,98.1419349 65.3712526,99.7181758 66.6330645,101.581222 C67.3790323,102.606889 68.1854839,104.819111 69.3346774,105.442556 C71.7137097,106.729667 74.3548387,112.119444 76.5120968,111.134 C85.9677419,106.769889 93.0241935,115.679111 103.004032,114.935 C108.709677,114.633333 118.951613,109.846889 124.53629,110.188778 C127.217742,110.349667 131.330645,103.371111 133.004032,100.515333 C135.967742,95.4272222 131.370968,94.12 139.919355,92.31 C145.504032,91.1033333 151.270161,93.0742222 156.935484,93.9188889 C167.923387,95.568 191.552419,83.441 193.729839,88.0866667 L198.850806,82.2745556 C191.633065,80.7863333 192.056452,72.4201111 184.879032,70.7307778 M31.6532258,43.4601111 C30.5672455,44.2499231 29.1818918,44.5085686 27.8830645,44.164 C24.1776289,43.3161406 21.3232463,40.3663287 20.6048387,36.6424444 C20.483871,35.7575556 21.5524194,35.6972222 22.1169355,35.2748889 C25.7056452,35.8581111 29.1330645,38.0703333 33.5887097,39.1563333 C34.2943548,39.3373333 32.0766129,43.1785556 31.5725806,43.4601111 M33.8306452,33.304 L35.0201613,28.1555556 C38.226014,28.0155012 41.4118189,27.57787 44.5362903,26.8483333 L45.9274194,27.6326667 C45.9558473,29.0504568 45.7235139,30.4614372 45.2419355,31.7956667 C44.2741935,33.6861111 43.0443548,32.6805556 41.2096774,32.7207778 C39.1935484,32.7207778 35.8064516,34.4101111 33.8508065,33.2838889 M50.483871,114.371889 C49.4959677,119.701333 45.1008065,119.218667 41.3104839,117.147222 C39.3327301,113.627451 38.2980894,109.658501 38.3064516,105.623556 C38.3064516,105.402333 38.3064516,105.181111 38.3064516,104.939778 C38.8508065,101.963333 40.483871,99.8516667 44.8790323,101.36 C49.7379032,103.009111 51.391129,109.846889 50.5241935,114.392 M45.2217742,45.7326667 C45.1008065,44.4455556 48.7903226,43.2791111 49.9596774,42.9774444 C51.733871,42.5551111 57.358871,41.3484444 60.0403226,42.6958889 C60.9029707,43.0711593 61.4526312,43.9293561 61.4314516,44.8678889 C61.3192912,45.8783663 60.6841606,46.7561764 59.7580645,47.1806667 C59.7580645,47.3214444 59.9193548,47.3214444 59.9395161,47.4622222 C57.0532464,47.6632952 54.1564311,47.6632952 51.2701613,47.4622222 C49.9798387,47.4622222 45.4233871,47.8242222 45.2217742,45.6924444 M63.2459677,80.6455556 C59.858871,78.8958889 51.7540323,81.9728889 52.0766129,76.2211111 C55.2419355,74.9943333 61.5524194,71.7564444 63.9919355,77.0657778 C63.608871,78.0713333 64.233871,79.64 63.2459677,80.6455556 M69.9395161,44.2444444 C69.9395161,42.6556667 71.6935484,42.2333333 73.0846774,42.0322222 C75.6854839,43.1785556 78.6491935,41.7506667 80.8467742,43.1182222 C81.2701613,45.6924444 79.6975806,47.1404444 77.5403226,48.508 C74.9193548,46.3561111 70.5645161,47.2007778 67.7822581,45.4511111 L67.7822581,44.4656667 C68.3669355,44.0634444 69.1733871,44.4656667 69.9596774,44.2444444 M67.2983871,53.576 C68.9962573,51.637672 71.2710135,50.2917184 73.7903226,49.7347778 C76.9758065,49.2923333 79.1733871,51.2632222 81.8548387,52.2084444 C82.0564516,53.5961111 83.4677419,54.3603333 83.2862903,55.9491111 C80.5443548,58.7646667 78.2862903,53.6363333 74.9395161,54.481 C71.7540323,54.3201111 69.5967742,56.4921111 67.0362903,57.3367778 C66.2298387,56.3513333 67.1975806,54.9636667 67.3790323,53.576 M80.8467742,92.5111111 C78.5080645,95.3065556 75.6854839,92.3703333 72.9233871,92.5111111 C71.7137097,91.948 68.5483871,92.3703333 68.891129,90.1983333 C70.9072581,86.7995556 77.5403226,81.9728889 80,88.4687778 C80.2016129,89.8564444 81.6129032,91.224 80.8266129,92.491 M79.1129032,81.4097778 C76.7741935,81.4097778 74.2540323,80.0221111 77.2580645,78.1115556 C77.4395161,76.4423333 80.6451613,76.1004444 81.9959677,75.6781111 C86.5322581,74.4312222 87.7822581,78.1316667 88.6491935,81.8924444 C86.108871,86.0755556 82.2782258,81.5706667 79.1129032,81.4097778 M110.887097,92.9736667 C106.481449,92.3381917 102.018937,92.1898115 97.5806452,92.5312222 L96.3709677,91.3647778 C97.5403226,89.5748889 99.5362903,89.1525556 100.403226,87.5436667 C103.568548,86.3168889 108.91129,85.5325556 110.947581,89.7961111 C111.149194,90.9826667 111.572581,91.9681111 110.78629,92.9736667" id="Shape" fill="#98002E"></path>
                <path d="M218.91129,68.3777778 C217.883065,64.1745556 219.375,60.0718889 217.399194,56.1904444 C216.391129,54.1793333 213.245968,48.5482222 211.995968,46.698 C211.270161,45.612 205.443548,39.3172222 204.939516,38.191 C203.709677,35.4357778 193.266129,30.8102222 190.282258,29.4627778 C188.064516,26.1243333 177.943548,21.0362222 175.947581,21.0764444 C169.780959,18.8892149 162.950697,19.6297869 157.399194,23.0875556 C156.25,23.7512222 150.766129,21.4183333 149.637097,20.634 C147.654258,19.3214568 146.891487,16.7852138 147.822581,14.6006667 C149.53629,8.56733333 144.475806,8.18522222 139.435484,7.88355556 C132.560484,7.50144444 125.725806,8.10477778 118.870968,8.18522222 C112.016129,8.26566667 104.758065,9.39188889 97.641129,9.79411111 C91.3856388,9.82953161 85.1502023,10.5034121 79.0322581,11.8052222 C70.4233871,14.0777778 61.733871,17.9391111 52.8225806,18.5223333 C56.8548387,18.6631111 101.209677,27.0092222 105.725806,27.5522222 C119.193548,27.9745556 131.935484,28.0952222 143.346774,32.4995556 C146.209677,33.2637778 159.83871,54.0988889 160.967742,53.2944444 C160.645161,51.7458889 155.665323,24.1132222 158.58871,29.1611111 C159.939516,31.4537778 161.774194,39.9607778 164.879032,45.25 C167.347229,49.4698779 170.746326,53.0737195 174.818548,55.7882222 C177.452644,57.3769595 180.186826,58.7943893 183.004032,60.0316667 C187.749449,62.2766093 191.690186,65.9197384 194.294355,70.4693333 C195.282258,72.3798889 200.342742,69.0213333 202.358871,69.7453333 C204.375,70.4693333 205.584677,72.5407778 207.560484,73.4256667 C210.094,74.1665816 212.722833,74.5324826 215.362903,74.5116667 L219.052419,73.1038889 C219.383803,71.4984313 219.383803,69.8424576 219.052419,68.237" id="Shape" fill="#98002E"></path>
                <path d="M87.2983871,117.207556 L87.7016129,116.604222 L86.5120968,116.423222 C85.3427061,118.941695 84.763551,121.692712 84.8185484,124.467667 C89.0120968,126.478778 87.9435484,120.666667 90.1008065,118.856667 C89.1129032,118.273444 87.7217742,118.293556 87.2983871,117.308111" id="Shape" fill="#98002E"></path>
                <path d="M136.350806,119.178444 C135.544355,118.796333 134.939516,117.408667 133.951613,118.213111 C132.96371,119.017556 129.919355,118.474556 130.806452,120.827556 C132.739718,122.450639 135.291419,123.14215 137.782258,122.718 C140.342742,120.908 135.967742,120.184 136.350806,119.178444" id="Shape" fill="#98002E"></path>
                <path d="M122.278226,120.546 C117.157258,122.979444 111.330645,118.655556 106.633065,122.677778 C110.020161,125.010667 114.959677,122.677778 119.334677,122.677778 C121.350806,122.054333 123.366935,123.220778 125.262097,122.014111 C124.892637,121.617529 124.617056,121.143335 124.455645,120.626444 C123.72932,120.781201 122.973765,120.725374 122.278226,120.465556" id="Shape" fill="#98002E"></path>
                <path d="M148.266129,123.542556 C143.387097,126.941333 153.870968,131.225 154.193548,129.575889 C154.268721,128.464591 153.986181,127.358384 153.387097,126.418444 C152.217742,124.266556 150.040323,122.396222 148.266129,123.562667" id="Shape" fill="#98002E"></path>
                <path d="M152.923387,63.0885556 C153.406242,62.7477552 153.766667,62.2613353 153.951613,61.7008889 C154.455645,60.5143333 154.516129,58.9858889 153.427419,58.6842222 C150.423387,57.7993333 152.137097,63.5108889 152.923387,63.0885556" id="Shape" fill="#98002E"></path>
            </g>
        </g>
    </g>
</svg>