<?xml version="1.0" encoding="UTF-8" standalone="no"?>
<svg width="250px" height="250px" viewBox="0 0 250 250" version="1.1" xmlns="http://www.w3.org/2000/svg" xmlns:xlink="http://www.w3.org/1999/xlink">
    <!-- Generator: Sketch 47.1 (45422) - http://www.bohemiancoding.com/sketch -->
    <title>MILW</title>
    <desc>Created with Sketch.</desc>
    <defs>
        <linearGradient x1="-3460.53338%" y1="245.221161%" x2="24.0193908%" y2="51.9213302%" id="linearGradient-1">
            <stop stop-color="#A7A9AC" offset="0%"></stop>
            <stop stop-color="#4D4D4F" offset="100%"></stop>
        </linearGradient>
        <linearGradient x1="12936.4586%" y1="-9668%" x2="8273.06832%" y2="653%" id="linearGradient-2">
            <stop stop-color="#A7A9AC" offset="0%"></stop>
            <stop stop-color="#4D4D4F" offset="100%"></stop>
        </linearGradient>
        <linearGradient x1="-2.1159618%" y1="-133.699207%" x2="106.79427%" y2="265.329254%" id="linearGradient-3">
            <stop stop-color="#E4E5E6" offset="0%"></stop>
            <stop stop-color="#B2B4B7" offset="100%"></stop>
        </linearGradient>
        <linearGradient x1="33337%" y1="2526.23547%" x2="31536%" y2="3681.78422%" id="linearGradient-4">
            <stop stop-color="#A7A9AC" offset="0%"></stop>
            <stop stop-color="#4D4D4F" offset="100%"></stop>
        </linearGradient>
        <linearGradient x1="195.21883%" y1="166.370675%" x2="30.1213682%" y2="40.1646718%" id="linearGradient-5">
            <stop stop-color="#BFBFBF" offset="0%"></stop>
            <stop stop-color="#333333" offset="100%"></stop>
        </linearGradient>
        <linearGradient x1="48.8080645%" y1="34.435122%" x2="-462.41129%" y2="811.12878%" id="linearGradient-6">
            <stop stop-color="#F6F6F6" offset="0%"></stop>
            <stop stop-color="#1C1C1C" offset="100%"></stop>
        </linearGradient>
        <linearGradient x1="14033.3817%" y1="-1362%" x2="9177.21651%" y2="11689%" id="linearGradient-7">
            <stop stop-color="#F6F6F6" offset="0%"></stop>
            <stop stop-color="#1C1C1C" offset="100%"></stop>
        </linearGradient>
        <linearGradient x1="182.908051%" y1="97.3696682%" x2="-81.9066856%" y2="-43.1516588%" id="linearGradient-8">
            <stop stop-color="#999999" offset="0%"></stop>
            <stop stop-color="#262626" offset="100%"></stop>
        </linearGradient>
        <linearGradient x1="-0.918589577%" y1="47.9484932%" x2="97.5649468%" y2="47.9484932%" id="linearGradient-9">
            <stop stop-color="#E3E3E3" offset="0%"></stop>
            <stop stop-color="#A7A7A7" offset="100%"></stop>
        </linearGradient>
        <linearGradient x1="30336%" y1="8850%" x2="32739%" y2="8850%" id="linearGradient-10">
            <stop stop-color="#E3E3E3" offset="0%"></stop>
            <stop stop-color="#A7A7A7" offset="100%"></stop>
        </linearGradient>
        <linearGradient x1="7870%" y1="-1571.70009%" x2="4187%" y2="645.12727%" id="linearGradient-11">
            <stop stop-color="#999999" offset="0%"></stop>
            <stop stop-color="#262626" offset="100%"></stop>
        </linearGradient>
        <linearGradient x1="5129%" y1="1742.54012%" x2="16645%" y2="12291.4936%" id="linearGradient-12">
            <stop stop-color="#999999" offset="0%"></stop>
            <stop stop-color="#262626" offset="100%"></stop>
        </linearGradient>
        <linearGradient x1="4136.60744%" y1="-9778%" x2="1672.86948%" y2="2980%" id="linearGradient-13">
            <stop stop-color="#999999" offset="0%"></stop>
            <stop stop-color="#262626" offset="100%"></stop>
        </linearGradient>
        <linearGradient x1="2978.12432%" y1="-6429%" x2="-2916.00354%" y2="21059%" id="linearGradient-14">
            <stop stop-color="#999999" offset="0%"></stop>
            <stop stop-color="#262626" offset="100%"></stop>
        </linearGradient>
        <linearGradient x1="119.839399%" y1="72.3260011%" x2="-38.3208165%" y2="11.7236323%" id="linearGradient-15">
            <stop stop-color="#E3E3E3" offset="0%"></stop>
            <stop stop-color="#7D7D7D" offset="100%"></stop>
        </linearGradient>
        <linearGradient x1="1246.61878%" y1="1365%" x2="1570.32988%" y2="4731%" id="linearGradient-16">
            <stop stop-color="#E3E3E3" offset="0%"></stop>
            <stop stop-color="#A7A7A7" offset="100%"></stop>
        </linearGradient>
        <linearGradient x1="-6107.98876%" y1="2061.75714%" x2="1589.25843%" y2="-460.057143%" id="linearGradient-17">
            <stop stop-color="#E9E9EA" offset="0%"></stop>
            <stop stop-color="#5C5D60" offset="100%"></stop>
        </linearGradient>
        <linearGradient x1="964.136304%" y1="2448%" x2="1761.57615%" y2="3307%" id="linearGradient-18">
            <stop stop-color="#999999" offset="0%"></stop>
            <stop stop-color="#262626" offset="100%"></stop>
        </linearGradient>
        <linearGradient x1="4.27697564%" y1="22.7340908%" x2="115.410102%" y2="177.265909%" id="linearGradient-19">
            <stop stop-color="#BABABA" offset="0%"></stop>
            <stop stop-color="#262626" offset="100%"></stop>
        </linearGradient>
        <linearGradient x1="-20708%" y1="94.1154768%" x2="34840%" y2="-331.086422%" id="linearGradient-20">
            <stop stop-color="#999999" offset="0%"></stop>
            <stop stop-color="#262626" offset="100%"></stop>
        </linearGradient>
        <linearGradient x1="1104.34465%" y1="11587%" x2="856.118189%" y2="14275%" id="linearGradient-21">
            <stop stop-color="#999999" offset="0%"></stop>
            <stop stop-color="#262626" offset="100%"></stop>
        </linearGradient>
        <linearGradient x1="934.216122%" y1="-8819%" x2="144.847239%" y2="-10686%" id="linearGradient-22">
            <stop stop-color="#999999" offset="0%"></stop>
            <stop stop-color="#262626" offset="100%"></stop>
        </linearGradient>
        <linearGradient x1="6157%" y1="-1646.85522%" x2="-3645%" y2="6077.0814%" id="linearGradient-23">
            <stop stop-color="#999999" offset="0%"></stop>
            <stop stop-color="#262626" offset="100%"></stop>
        </linearGradient>
        <linearGradient x1="107.232841%" y1="-10.7861937%" x2="2.86707211%" y2="103.739214%" id="linearGradient-24">
            <stop stop-color="#FFFFFF" offset="0%"></stop>
            <stop stop-color="#A7A7A7" offset="100%"></stop>
        </linearGradient>
        <linearGradient x1="1368.19664%" y1="5550%" x2="869.434964%" y2="7939%" id="linearGradient-25">
            <stop stop-color="#FFFFFF" offset="0%"></stop>
            <stop stop-color="#A7A7A7" offset="100%"></stop>
        </linearGradient>
        <linearGradient x1="1456.56452%" y1="6430%" x2="928.841985%" y2="8818%" id="linearGradient-26">
            <stop stop-color="#FFFFFF" offset="0%"></stop>
            <stop stop-color="#A7A7A7" offset="100%"></stop>
        </linearGradient>
        <linearGradient x1="30533%" y1="-2193.80158%" x2="35022%" y2="-7227.33607%" id="linearGradient-27">
            <stop stop-color="#F6F6F6" offset="0%"></stop>
            <stop stop-color="#1C1C1C" offset="100%"></stop>
        </linearGradient>
        <linearGradient x1="6061.23826%" y1="10101%" x2="4972.20641%" y2="6507%" id="linearGradient-28">
            <stop stop-color="#F6F6F6" offset="0%"></stop>
            <stop stop-color="#1C1C1C" offset="100%"></stop>
        </linearGradient>
        <linearGradient x1="458.992806%" y1="465.458015%" x2="-537.410072%" y2="-595.038168%" id="linearGradient-29">
            <stop stop-color="#F4F5F5" offset="0%"></stop>
            <stop stop-color="#434345" offset="100%"></stop>
        </linearGradient>
        <linearGradient x1="33838%" y1="-3023.0425%" x2="38328%" y2="-12856.7785%" id="linearGradient-30">
            <stop stop-color="#F6F6F6" offset="0%"></stop>
            <stop stop-color="#1C1C1C" offset="100%"></stop>
        </linearGradient>
        <linearGradient x1="-20079%" y1="-1985%" x2="35560%" y2="-6764%" id="linearGradient-31">
            <stop stop-color="#E9E9EA" offset="0%"></stop>
            <stop stop-color="#5C5D60" offset="100%"></stop>
        </linearGradient>
        <linearGradient x1="9849.48358%" y1="3253%" x2="7968.80339%" y2="9193%" id="linearGradient-32">
            <stop stop-color="#999999" offset="0%"></stop>
            <stop stop-color="#262626" offset="100%"></stop>
        </linearGradient>
        <linearGradient x1="-215.512546%" y1="150.207029%" x2="89.6564217%" y2="34.7867605%" id="linearGradient-33">
            <stop stop-color="#E8E8E8" offset="0%"></stop>
            <stop stop-color="#383838" offset="100%"></stop>
        </linearGradient>
        <linearGradient x1="-1005.05458%" y1="-1193%" x2="1930.24401%" y2="-5965%" id="linearGradient-34">
            <stop stop-color="#E8E8E8" offset="0%"></stop>
            <stop stop-color="#383838" offset="100%"></stop>
        </linearGradient>
        <linearGradient x1="30470%" y1="7757%" x2="32904%" y2="7757%" id="linearGradient-35">
            <stop stop-color="#E3E3E3" offset="0%"></stop>
            <stop stop-color="#A7A7A7" offset="100%"></stop>
        </linearGradient>
        <linearGradient x1="650.961585%" y1="-8764%" x2="445.266199%" y2="-11948%" id="linearGradient-36">
            <stop stop-color="#E3E3E3" offset="0%"></stop>
            <stop stop-color="#7D7D7D" offset="100%"></stop>
        </linearGradient>
    </defs>
    <g id="Page-1" stroke="none" stroke-width="1" fill="none" fill-rule="evenodd">
        <g id="MILW" fill-rule="nonzero">
            <g id="Asset-1" transform="translate(0.000000, 77.000000)">
                <path d="M236.141732,57.3238356 L247.145669,60.1709589 L224.547244,51.2876712 L224.547244,51.2876712 L220.564304,49.7161644 C221.136822,48.9653048 221.629438,48.1565256 222.034121,47.3030137 L248.418635,55.0093151 L238.523622,50.8931507 C238.527661,50.8825655 238.527661,50.8708592 238.523622,50.860274 L235.308399,49.5452055 C235.311585,49.5603818 235.311585,49.5760565 235.308399,49.5912329 L223.038058,44.5150685 C223.3188,43.416853 223.509721,42.2975286 223.608924,41.1682192 L249.475066,49.7161644 L223.753281,38.1369863 L223.582677,36.1643836 C223.464567,35.0728767 223.32021,34.4087671 223.32021,34.4087671 C223.733596,34.6389041 226.122047,26.7287671 226.122047,26.7287671 C219.394303,21.2683241 211.579858,17.3114923 203.2021,15.1232877 L202.742782,11.9736986 C185.124672,5.99013699 169.625984,4.35287671 157.375328,4.55013699 C150.958005,2.65643836 136.791339,-1.02575342 131.049869,1.49917808 C128.293963,2.71561644 130.288714,5.96383562 131.889764,7.96931507 C129.324147,8.67945205 127.952756,9.22520548 127.952756,9.22520548 C88.8976378,2.95890411 98.6811024,17.2471233 98.6811024,17.2471233 C49.2125984,25.6767123 27.1981627,46.7572603 18.9107612,57.5868493 C16.660105,54.3978082 15.5708661,51.0115068 15.8333333,47.539726 C18.3727034,13.8082192 91.7388451,8.58082192 92.5524934,8.02849315 C42.6509186,10.8427397 5.56430446,26.1830137 4.29790026,50.0843836 C3.06430446,73.4136986 56.7191601,92.3835616 121.391076,92.3835616 C130.229659,92.3835616 138.825459,92.0021918 147.086614,91.2854795 C134.947507,84.6246575 131.292651,80.390137 129.901575,78.2991781 C135.596009,75.1627029 142.288535,74.3816197 148.549869,76.1227397 C151.607612,79.1934247 153.195538,81.6131507 153.996063,83.4213699 C155.203412,86.1567123 154.619423,87.4783562 154.619423,87.4783562 C156.311432,89.2642327 158.383947,90.6442908 160.682415,91.5156164 C176.082677,95.7238356 192.388451,88.0635616 197.119423,83.4213699 C196.922572,83.6120548 194.908136,81.1134247 194.002625,80.5742466 C195.65393,77.0856919 196.908531,73.4221269 197.742782,69.6526027 C197.136349,70.2875176 196.477876,70.8703798 195.774278,71.3950685 C194.348422,72.631511 192.81072,73.7321568 191.181102,74.6827397 L187.900262,73.6438356 C188.591699,72.1589057 189.013856,70.5625016 189.146982,68.9293151 C187.492738,70.3262203 185.633679,71.4595029 183.635171,72.2893151 L182.933071,72.0657534 L180.695538,66.5161644 L176.509186,65.3852055 L176.128609,58.9347945 L171.154856,56.659726 C170.767717,55.9035616 174.790026,54.8646575 174.790026,54.8646575 C177.467944,55.6865138 180.222979,56.230736 183.011811,56.4887671 C184.435696,59.7041096 183.372703,65.5627397 183.372703,65.5627397 C188.989501,63.9715068 193.628609,56.6991781 193.628609,56.6991781 L198.923885,56.3835616 C199.212598,59.7238356 197.480315,64.7210959 197.480315,64.7210959 C206.279528,61.4794521 209.429134,55.0947945 209.429134,55.0947945 C212.315085,54.9384608 215.11441,54.0516704 217.565617,52.5172603 L232.65748,56.4230137" id="Shape" fill="#000000"></path>
                <path d="M217.893701,38.5052055 C217.893701,38.5052055 220.341207,51.820274 210.419948,50.4131507 C210.419948,50.4131507 216.961942,43.0816438 217.893701,38.5052055 Z" id="Shape" fill="url(#linearGradient-1)"></path>
                <path d="M218.615486,36.0657534 L210.013123,36.1249315 C209.88189,42.2268493 206.338583,53.7731507 180.052493,48.460274 C180.052493,48.460274 204.908136,43.7128767 207.513123,28.0767123 L218.615486,36.0657534 Z" id="Shape" fill="url(#linearGradient-2)"></path>
                <path d="M152.46063,29.740274 C152.46063,29.740274 163.444882,20.2191781 200.557743,38.8142466 C200.557743,38.7945205 167.565617,26.4657534 152.46063,29.740274 Z" id="Shape" fill="url(#linearGradient-3)"></path>
                <path d="M217.893701,38.5052055 C217.893701,38.5052055 220.341207,51.820274 210.419948,50.4131507 C210.419948,50.4131507 216.961942,43.0816438 217.893701,38.5052055 Z" id="Shape" fill="url(#linearGradient-4)"></path>
                <path d="M170.97769,74.5249315 C162.906824,70.0471233 169.009186,64.0043836 161.660105,58.9742466 L160.229659,56.9227397 C163.339895,57.2449315 166.135171,57.8038356 168.228346,60.1052055 C168.228346,60.1052055 170.74147,61.7621918 170.853018,67.68 C170.964567,73.5978082 178.070866,72.4142466 178.070866,72.4142466 C178.070866,72.4142466 174.757218,76.6224658 170.97769,74.5249315 Z" id="Shape" fill="url(#linearGradient-5)"></path>
                <path d="M186.653543,79.0027397 C189.230088,78.3089302 191.600743,77.0004371 193.562992,75.1890411 L194.790026,74.3408219 C194.790026,74.3408219 193.674541,79.1736986 190.446194,81.0805479 C189.052654,80.6571117 187.761448,79.9497228 186.653543,79.0027397 L186.653543,79.0027397 Z" id="Shape" fill="url(#linearGradient-6)"></path>
                <path d="M180.032808,80.1665753 C182.57874,80.2586301 185.721785,73.5912329 185.721785,73.5912329 C182.329396,76.3594521 176.122047,78.3649315 176.122047,78.3649315 C176.122047,78.3649315 176.896325,80.0547945 180.032808,80.1665753 Z" id="Shape" fill="url(#linearGradient-7)"></path>
                <path d="M166.259843,50.7550685 C166.259843,50.7550685 137.473753,54.3189041 167.801837,78.5030137 C167.801837,78.5030137 129.76378,53.049863 166.259843,50.7550685 Z" id="Shape" fill="url(#linearGradient-8)"></path>
                <polygon id="Shape" fill="#FFC20E" points="223.648294 37.2953425 223.720472 38.1632877 223.648294 37.2887671"></polygon>
                <polygon id="Shape" fill="url(#linearGradient-9)" points="248.418635 54.9830137 223.110236 44.4230137 223.39895 42.9830137"></polygon>
                <path d="M237.007874,55.660274 L236.259843,55.3315068 L221.272966,48.6575342 C221.049869,49.0060274 220.82021,49.3150685 220.564304,49.6832877 L224.547244,51.2876712 L224.547244,51.2876712 L247.145669,60.1512329 L237.007874,55.660274 Z" id="Shape" fill="url(#linearGradient-10)"></path>
                <path d="M221.003937,49.0717808 C220.925197,49.190137 220.839895,49.3084932 220.754593,49.420274 C220.839895,49.3150685 220.925197,49.190137 221.003937,49.0717808 Z" id="Shape" fill="#FFC20E"></path>
                <path d="M52.6771654,84.4931507 C51.4632546,55.2920548 76.1154856,30.700274 76.1154856,30.700274 C52.4146982,55.3249315 64.3700787,87.149589 64.3700787,87.149589 C64.3700787,87.149589 59.2650919,86.2421918 52.6771654,84.4931507 Z" id="Shape" fill="url(#linearGradient-11)"></path>
                <path d="M106.568241,92.0021918 C106.568241,92.0021918 67.5918635,86.2619178 72.8543307,45.3172603 C72.8543307,45.3172603 63.7729659,67.5419178 79.7375328,89.529863 C88.5992389,91.0829231 97.572503,91.9097689 106.568241,92.0021918 L106.568241,92.0021918 Z" id="Shape" fill="url(#linearGradient-12)"></path>
                <path d="M23.2742782,73.459726 C45.6364829,27.8926027 95.5183727,19.7260274 95.5183727,19.7260274 C42.0931759,35.9539726 35.6692913,78.9369863 35.6692913,78.9369863 C31.4154261,77.4025826 27.273681,75.5723775 23.2742782,73.459726 Z" id="Shape" fill="url(#linearGradient-13)"></path>
                <path d="M23.2742782,73.459726 C45.6364829,27.8926027 95.5183727,19.7260274 95.5183727,19.7260274 C95.5183727,19.7260274 42.3687664,26.0712329 19.5275591,71.1320548 C23.7270341,74.419726 34.9737533,78.7726027 34.9737533,78.7726027 C34.9737533,78.7726027 34.9737533,78.7726027 34.9737533,78.6871233 C30.9611014,77.2101743 27.052409,75.4637465 23.2742782,73.459726 Z" id="Shape" fill="url(#linearGradient-14)"></path>
                <path d="M195.052493,18.5161644 C195.052493,18.5161644 209.028871,20.0219178 221.469816,28.3791781 L219.225722,30.1742466 C219.225722,30.1742466 211.082677,23.2767123 187.395013,22.1917808 C187.395013,22.1786301 189.21916,19.7260274 195.052493,18.5161644 Z" id="Shape" fill="url(#linearGradient-15)"></path>
                <path d="M168.497375,26.3013699 C168.038058,26.0252055 169.232283,24.6180822 169.232283,24.6180822 C164.740948,24.5538028 160.272598,23.9623729 155.918635,22.8558904 C155.918635,22.8558904 160.761155,25.9660274 168.497375,26.3013699 Z" id="Shape" fill="#FFC20E"></path>
                <path d="M152.46063,29.740274 C152.46063,29.740274 163.444882,20.2191781 200.557743,38.8142466 C200.557743,38.7945205 167.565617,26.4657534 152.46063,29.740274 Z" id="Shape" fill="url(#linearGradient-16)"></path>
                <path d="M154.76378,28.5369863 C155.898647,28.1152255 157.072329,27.8068779 158.267717,27.6164384 C157.069789,27.794604 155.894851,28.1032817 154.76378,28.5369863 L154.76378,28.5369863 Z" id="Shape" fill="url(#linearGradient-17)"></path>
                <path d="M118.549869,25.209863 L124.166667,21.9221918 C119.520997,20.3835616 111.377953,18.969863 111.377953,18.969863 C128.43832,16.4186301 129.560367,15.5769863 141.804462,19.1605479 L142.211286,19.0487671 C142.211286,19.0487671 124.645669,12.1446575 108.746719,13.9857534 C91.2532808,15.9846575 115.912073,24.3287671 118.549869,25.209863 Z" id="Shape" fill="url(#linearGradient-18)"></path>
                <path d="M108.740157,13.9594521 C117.322835,12.9665753 126.397638,14.5249315 132.926509,16.1621918 C133.904199,16.3594521 134.895013,16.5632877 135.951444,16.819726 C135.951444,16.819726 116.05643,9.22520548 104.389764,11.6317808 C100.885827,12.3550685 101.574803,14.7550685 102.53937,16.4054795 C102.723097,15.3271233 104.475066,14.4657534 108.740157,13.9594521 Z" id="Shape" fill="url(#linearGradient-19)"></path>
                <path d="M123.293963,29.3260274 C123.293963,29.3260274 108.300525,48.5260274 124.015748,66.0493151 C124.015748,66.0493151 99.8884514,47.7041096 123.293963,29.3260274 Z" id="Shape" fill="url(#linearGradient-20)"></path>
                <path d="M180.249344,84.6838356 C180.249344,84.6838356 185.774278,85.689863 188.031496,85.44 C188.031496,85.44 175.787402,91.7720548 164.409449,87.7084932 C164.422572,87.7084932 173.228346,88.8657534 180.249344,84.6838356 Z" id="Shape" fill="url(#linearGradient-21)"></path>
                <path d="M143.35958,12.7890411 C143.35958,12.7890411 163.458005,21.100274 175.013123,18.3320548 L178.293963,15.5572603 L172.26378,16.819726 C172.26378,16.819726 163.845144,16.8854795 143.35958,12.7890411 Z" id="Shape" fill="url(#linearGradient-22)"></path>
                <path d="M152.677165,94.0734247 C152.694883,94.1404505 152.72615,94.2031152 152.769029,94.2575342 C150.688976,93.2186301 148.832021,92.2257534 147.073491,91.2789041 C138.812336,91.9956164 130.223097,92.3835616 121.384514,92.3835616 C56.7191601,92.3835616 3.06430446,73.4136986 4.29790026,50.0843836 C5.53149606,26.7550685 40.6824147,11.6778082 88.5826772,8.28493151 C91.3779528,8.01534247 95.5839895,7.73917808 95.8464567,7.51561644 C75.1968504,8.08767123 2.23753281,12.8284932 0.656167979,49.3150685 C-1.09580052,90.3715068 97.1128609,98.7813699 153.221785,94.3430137 L152.677165,94.0734247 Z" id="Shape" fill="#FFC20E"></path>
                <path d="M76.1154856,30.700274 C76.1154856,30.700274 46.5879265,53.9178082 47.7493438,83.0728767 C49.3547682,83.5375342 50.9973753,83.9758904 52.6771654,84.3879452 C51.5026247,55.2328767 76.1154856,30.700274 76.1154856,30.700274 Z" id="Shape" fill="url(#linearGradient-23)"></path>
                <polygon id="Shape" fill="url(#linearGradient-24)" points="101.502625 46.9808219 161.922572 33.8235616 156.745407 33.2646575"></polygon>
                <polygon id="Shape" fill="url(#linearGradient-25)" points="105.177165 51.6887671 176.05643 36.0657534 170.879265 35.5068493"></polygon>
                <polygon id="Shape" fill="url(#linearGradient-26)" points="112.125984 56.3967123 187.952756 39.149589 182.775591 38.5906849"></polygon>
                <path d="M185.314961,62.6367123 C186.913151,61.4491852 188.232346,59.9252491 189.17979,58.1720548 C188.170108,57.4764784 186.98532,57.0799675 185.761155,57.0279452 C186.232067,58.8958257 186.07524,60.8671851 185.314961,62.6367123 L185.314961,62.6367123 Z" id="Shape" fill="url(#linearGradient-27)"></path>
                <path d="M185.479003,56.1665753 C185.596477,56.4454553 185.690846,56.7335511 185.761155,57.0279452 C186.98532,57.0799675 188.170108,57.4764784 189.17979,58.1720548 C189.50115,57.596307 189.781804,56.9986754 190.019685,56.3835616 C190.019685,56.3835616 188.503937,56.8175342 185.479003,56.1665753 Z" id="Shape" fill="url(#linearGradient-28)"></path>
                <path d="M206.253281,55.7326027 C204.800732,56.0753671 203.308864,56.2213262 201.817585,56.1665753 C201.824136,56.7171215 201.782419,57.2671803 201.692913,57.810411 C202.539002,58.084839 203.309609,58.5531188 203.94357,59.1780822 C205.003428,58.2539828 205.800316,57.0652353 206.253281,55.7326027 L206.253281,55.7326027 Z" id="Shape" fill="url(#linearGradient-29)"></path>
                <path d="M201.692913,57.810411 C201.495565,59.2297521 200.964832,60.5818819 200.144357,61.7556164 C201.528834,61.0856737 202.808649,60.2173971 203.94357,59.1780822 C203.309609,58.5531188 202.539002,58.084839 201.692913,57.810411 L201.692913,57.810411 Z" id="Shape" fill="url(#linearGradient-30)"></path>
                <polygon id="Shape" fill="url(#linearGradient-31)" points="219.481627 29.9572603 219.730971 29.9112329 219.658793 29.8191781"></polygon>
                <path d="M218.615486,36.0657534 L210.013123,36.1249315 C209.88189,42.2268493 206.338583,53.7731507 180.052493,48.460274 C180.052493,48.460274 204.908136,43.7128767 207.513123,28.0767123 L218.615486,36.0657534 Z" id="Shape" fill="url(#linearGradient-32)"></path>
                <path d="M207.513123,28.0635616 L210.308399,30.0821918 C213.217179,30.4608154 216.163584,30.4453339 219.068241,30.0361644 C217.821522,29.0958904 209.192913,23.1780822 187.395013,22.1457534 L180.918635,22.1457534 L188.595801,15.0378082 L187.322835,15.2745205 C187.322835,15.2745205 186.010499,14.8865753 183.707349,14.2882192 C181.859853,14.5521776 180.037957,14.9723062 178.261155,15.5441096 L175.013123,18.2991781 C163.458005,21.0673973 143.35958,12.7561644 143.35958,12.7561644 L134.06168,10.2378082 L145.367454,16.8131507 L141.377953,19.7260274 L141.167979,19.9232877 C137.776352,20.2506755 134.430075,20.9451344 131.187664,21.9945205 L130.682415,22.1260274 C134.241536,22.9218652 137.720586,24.0421453 141.076115,25.4728767 C143.648294,24.0065753 147.427822,22.8427397 152.723097,23.3161644 L148.510499,18.7660274 C155.815324,20.9007565 163.370006,22.0571017 170.97769,22.2049315 C170.97769,22.2049315 176.410761,22.2049315 179.317585,21.0410959 L173.694226,25.709589 C173.694226,25.709589 191.122047,25.0520548 207.158793,29.5430137 C207.301599,29.0561327 207.419859,28.5623573 207.513123,28.0635616 L207.513123,28.0635616 Z" id="Shape" fill="url(#linearGradient-33)"></path>
                <path d="M180.052493,48.460274 C180.052493,48.460274 192.683727,46.0273973 200.879265,38.9917808 L200.557743,38.8142466 C200.557743,38.8142466 167.565617,26.4657534 152.46063,29.740274 C150.608238,29.273708 148.720973,28.9592418 146.817585,28.8 C148.434348,29.9790019 149.709292,31.5674898 150.511811,33.4027397 L109.993438,44.8438356 L110.288714,44.7780822 L156.745407,33.2383562 L161.843832,33.7972603 L161.942257,33.7972603 L167.65748,34.4021918 L124.350394,46.8953425 L128.615486,45.9484932 L170.879265,35.5068493 L174.028871,35.8487671 L174.028871,35.8487671 L179.967192,36.4536986 L138.55643,49.7358904 L182.755906,38.5972603 L187.933071,39.1561644 L184.25853,39.9912329 C184.776903,44.4821918 180.052493,48.460274 180.052493,48.460274 Z" id="Shape" fill="url(#linearGradient-34)"></path>
                <path d="M238.530184,50.860274 C238.533283,50.8710129 238.533283,50.8824118 238.530184,50.8931507 L238.530184,50.8931507 L239.908136,51.4652055 L239.908136,51.4652055 L238.530184,50.860274 Z" id="Shape" fill="#FFC20E"></path>
                <polygon id="Shape" fill="url(#linearGradient-35)" points="249.475066 49.7030137 223.720472 38.1632877 223.549869 36.1578082"></polygon>
                <polyline id="Shape" fill="#FFC20E" points="238.353018 57.8958904 236.148294 57.330411 236.049869 57.4816438"></polyline>
                <path d="M207.349081,83.3490411 C207.372997,84.1734455 207.056233,84.9711758 206.473636,85.5537413 C205.891039,86.1363068 205.094292,86.4520266 204.271654,86.4263014 C202.57652,86.4226717 201.204939,85.0433323 201.207352,83.3446669 C201.209766,81.6460015 202.585261,80.2705813 204.280398,80.2717886 C205.975535,80.2729959 207.349077,81.650374 207.349081,83.3490411 L207.349081,83.3490411 Z M201.955381,83.3490411 C201.915135,83.9732322 202.143208,84.5848716 202.582064,85.0296675 C203.02092,85.4744633 203.628657,85.7099459 204.251969,85.6767123 C204.881647,85.7015209 205.49272,85.4598831 205.93581,85.0108667 C206.378901,84.5618504 206.613175,83.9468365 206.581365,83.3161644 C206.507688,82.0840325 205.484558,81.1252049 204.252812,81.1339589 C203.021066,81.1427129 202.01161,82.115986 201.955381,83.3490411 L201.955381,83.3490411 Z M203.608924,85.0257534 L202.847769,85.0257534 L202.847769,81.6986301 L204.724409,81.6986301 C205.413386,81.6986301 205.833333,81.9747945 205.833333,82.7243836 C205.833333,83.3819178 205.511811,83.5923288 204.954068,83.6317808 L205.728346,85.0257534 L204.868766,85.0257534 L204.160105,83.7106849 L203.622047,83.7106849 L203.608924,85.0257534 Z M203.608924,82.2969863 L203.608924,83.1123288 L204.547244,83.1123288 C204.875328,83.1123288 205.059055,83.0005479 205.059055,82.7309589 C205.059055,82.4613699 204.816273,82.2969863 204.402887,82.2969863 L203.608924,82.2969863 Z" id="Shape" fill="#231F20"></path>
                <path d="M141.076115,7.96273973 C141.076115,7.96273973 172.152231,6.44383562 198.16273,13.2821918 L192.69685,14.3013699 L187.296588,15.3073973 C172.214525,11.1246849 156.709596,8.66087635 141.076115,7.96273973 L141.076115,7.96273973 Z" id="Shape" fill="url(#linearGradient-36)"></path>
            </g>
        </g>
    </g>
</svg>