<?xml version="1.0" encoding="UTF-8" standalone="no"?>
<svg width="250px" height="250px" viewBox="0 0 250 250" version="1.1" xmlns="http://www.w3.org/2000/svg" xmlns:xlink="http://www.w3.org/1999/xlink">
    <!-- Generator: Sketch 47.1 (45422) - http://www.bohemiancoding.com/sketch -->
    <title>ILLST</title>
    <desc>Created with Sketch.</desc>
    <defs></defs>
    <g id="Page-1" stroke="none" stroke-width="1" fill="none" fill-rule="evenodd">
        <g id="ILLST" fill-rule="nonzero">
            <g id="redbirds" transform="translate(17.000000, 0.000000)">
                <path d="M207.259923,127.733333 C205.163243,124.69155 202.861703,121.795963 200.371274,119.066667 C199.153668,117.7 197.969421,116.408333 196.885251,115.166667 C197.305101,114.268132 197.634745,113.33021 197.869344,112.366667 C198.127399,111.15426 198.280858,109.921961 198.328031,108.683333 C198.394749,107.558333 198.486486,101.075 198.486486,101.075 L196.134672,102.291667 C196.134672,100.908333 196.134672,99.5 195.984556,98.2333333 C194.700232,84.6666667 185.618224,74.6666667 176.135907,67.6166667 C171.558626,64.2652315 166.723153,61.2809199 161.674749,58.6916667 C157.137915,56.325 152.99305,54.4583333 149.932355,53.025 C118.624865,38.4166667 91.0619305,33.2333333 59.3207722,17.65 C52.0985328,14.1083333 43.4752124,9.85 37.6874131,4.9 L33.0588417,0.925 L32.074749,4.00833333 L26.387027,0 C26.387027,0 23.6265637,12.9583333 25.3695753,19.4833333 C21.6333591,17.9416667 18.0305792,15.95 18.0305792,15.95 C18.0305792,15.95 17.0965251,28.35 20.2072587,34.5666667 L13.7189189,31.5916667 C13.7189189,31.5916667 14.4611583,44.7833333 17.5635521,50.4083333 L12.6264093,48.9083333 C12.6264093,48.9083333 11.5088803,60.1833333 16.6461776,65.625 C13.5020849,65.4666667 12.276139,65.4666667 12.276139,65.4666667 C12.6133464,67.2566951 13.0617818,69.024004 13.6188417,70.7583333 L14.2943629,72.625 C17.0965251,80.65 23.1595367,85.2916667 29.6728958,88.3166667 C19.5567568,94.35 11.3254054,103.5 5.17065637,112.483333 L0.0166795367,120.308333 L8.93189189,120.441667 C32.2832432,120.558333 49.0628571,133.966667 68.3027027,153.55 L68.8197683,154.075 C88.0012355,172.833333 108.108417,215.325 115.672587,241.808333 L118.383012,249.983333 L125.730347,240.966667 C135.396139,229.35 151.158301,202.883333 150.941467,185.033333 C157.153168,185.524701 163.389398,185.63046 169.614208,185.35 C178.746255,184.7 190.405251,181.708333 195.10888,180.508333 C196.04136,181.490204 196.734828,182.673608 197.135444,183.966667 L198.144556,193.775 L205.016525,186.708333 C214.357066,177.108333 215.341158,166.658333 215.407876,154.883333 C215.58183,145.207107 212.733826,135.717203 207.259923,127.733333 L207.259923,127.733333 Z" id="Shape" fill="#FFFFFF"></path>
                <path d="M204.49112,129.583333 C202.478892,126.658485 200.269281,123.87424 197.877683,121.25 C196.034595,119.175 194.258224,117.266667 192.765405,115.416667 C193.676546,114.275366 194.315422,112.941601 194.633514,111.516667 C194.913801,109.864544 195.058838,108.192339 195.067181,106.516667 C195.067181,106.516667 193.457606,107.35 192.565251,107.766667 C192.826076,104.673205 192.856739,101.564665 192.656988,98.4666667 C191.497761,86.2833333 183.316448,77.0416667 174.134363,70.2 C169.696852,66.9610886 165.012254,64.074482 160.123552,61.5666667 C155.636757,59.225 151.541931,57.4 148.506255,55.9583333 C117.182085,41.35 89.1437838,35.8583333 57.886332,20.5166667 C50.8725869,17.075 42.0407722,12.7333333 36.036139,7.59166667 L34.5766795,6.34166667 L33.7427027,9.05833333 L31.8829344,7.675 L28.6387645,5.4 L28.3051737,7.38333333 C27.5462548,11.8166667 27.754749,19.6416667 29.7062548,25.0916667 C29.1725097,24.775 28.5970656,24.4333333 28.0383012,24.1083333 C27.1376062,23.5916667 26.2535907,23.1166667 25.5363707,22.7833333 C25.127722,22.5916667 21.7751351,20.8 21.5249421,20.9583333 C20.6159073,21.5333333 21.2830888,23.225 21.5249421,24.6583333 C22.4506564,31.325 23.9518147,37.4166667 26.0117375,41.0166667 C26.0117375,41.0166667 18.5893436,37 18.1890347,37.0583333 C17.63861,37.1333333 17.7386873,38.4083333 17.8471042,39.125 C18.3457435,42.5901864 19.2296646,45.9889799 20.482471,49.2583333 C21.2209575,51.4814453 22.3258916,53.5656809 23.7516602,55.425 C23.868417,55.4666667 23.8850965,55.4833333 23.7516602,55.425 L23.7516602,55.425 C22.9176834,55.1166667 16.2875676,53.225 16.2875676,53.225 C16.0872657,54.3092253 16.1042737,55.4223899 16.3376062,56.5 C17.3717375,62.3333333 19.9737452,65.3833333 23.3096525,69 C23.3096525,69 16.3542857,68.075 16.3292664,68.4083333 L17.4467954,71.2583333 C20.7827027,80.775 29.197529,85.025 37.9876448,87.8 C25.4779923,92.9333333 15.3701931,103.525 7.96447876,114.266667 L6.12972973,117.083333 L8.94857143,117.125 C33.767722,117.25 51.3979923,131.625 70.6628571,151.233333 L71.1549035,151.733333 C90.9284942,171.075 111.185792,214.108333 118.833359,240.841667 L119.608958,243.183333 L123.13668,238.85 C132.752432,227.308333 147.822394,201.8 147.572201,185.233333 L147.705637,181.466667 C151.450193,181.783333 162.083398,182.566667 169.389035,182.041667 C179.480154,181.325 192.740386,177.666667 195.776062,176.925 C198.277992,178.141667 200.296216,182.025 200.463012,183.641667 L200.738224,186.35 L202.639691,184.4 C211.021158,175.783333 212.021931,166.491667 212.088649,154.883333 C212.257314,145.864833 209.600977,137.019151 204.49112,129.583333 L204.49112,129.583333 Z" id="Shape" fill="#000000"></path>
                <path d="M161.349498,115.308333 C161.19188,116.292053 161.228713,117.297102 161.457915,118.266667 C162.01668,121.95 163.526178,123.058333 164.910579,124.808333 C167.76278,127.55 172.416371,126.391667 172.416371,126.391667 L175.135135,126.391667 L172.408031,126.391667 C169.639228,125.333333 166.136525,123.825 166.203243,120.05 L166.161544,117.75 C166.161544,117.216667 166.736988,115.758333 166.711969,115.483333 L166.495135,115.483333 L161.349498,115.308333 Z" id="Shape" fill="#E31837"></path>
                <path d="M170.665019,109.95 C169.397375,108.825 167.77112,107.275 167.012201,106.616667 C165.262869,107.936553 163.787132,109.5838 162.667181,111.466667 C163.906211,112.137374 165.096208,112.89482 166.228263,113.733333 C166.428417,113.875 166.611892,114.025 166.787027,114.158333 L167.245714,114.508333 C167.170656,114.158333 167.912896,113.008333 168.49668,112.191667 C169.14357,111.3747 169.8699,110.623808 170.665019,109.95 Z" id="Shape" fill="#E31837"></path>
                <path d="M111.002317,118.575 L90.3780695,104.966667 L110.326795,108.916667 C101.303166,103.866667 83.8396911,91.1166667 83.8396911,91.1166667 C83.8396911,91.1166667 103.187954,96.3166667 108.750579,97.6166667 L97.633668,87.8666667 C101.611737,88.2416667 116.815135,86.1166667 116.815135,86.1166667 L96.4827799,66.95 C93.5555212,63.4416667 89.5107336,60.4583333 86.9254054,56.95 L151.225019,85.7083333 C155.344865,84.7666667 159.498069,84.875 163.259305,84.875 C173.108571,91.1583333 177.812201,100.708333 185.192896,108.425 C186.760772,106.891667 186.502239,103.116667 186.577297,99.65 C186.960927,82.2416667 153.71027,64.5083333 153.71027,64.5083333 C148.706409,61.7583333 137.747954,57.275 137.747954,57.275 C109.392741,46.7 85.5993822,38.9416667 53.0492664,24.9333333 C43.1666409,20.6916667 38.3545946,13.5333333 36.0194595,12.0583333 L35.7525869,16.0916667 C35.9944402,27.0833333 44.2758301,36.5833333 53.2661004,42.3166667 C53.2661004,43.15 42.6996139,36.5583333 36.2362934,32.4083333 C34.4066377,31.3377005 32.6360405,30.1693404 30.9322008,28.9083333 C30.0398456,37.325 36.7700386,43.7666667 42.766332,48.625 C46.2773745,51.4666667 51.0310425,53.6666667 50.3722008,54.4583333 C43.000432,50.68115 35.3926945,47.3826466 27.5962934,44.5833333 C25.8366023,54.2 49.6132819,66.25 49.6132819,66.25 C42.6495753,64.15 34.8602317,62.6 28.1717375,59.7916667 C28.1717375,59.7916667 29.2976062,65.6916667 38.0627027,71.9916667 C42.0657915,74.8583333 49.8551351,76.4916667 49.8551351,76.4916667 C42.2659459,76.5583333 35.8359846,75.6583333 27.9382239,74.575 C28.4803089,78.3 32.1081081,79.9916667 35.2021622,81.3583333 C35.2021622,81.3583333 47.2948263,85.3333333 53.6497297,86.2916667 C53.6497297,86.2916667 62.6233205,87.9583333 61.9894981,88.4416667 C40.247722,93.1333333 35.5190734,99.1166667 20.7660232,110.108333 L19.3232432,111.55 C24.2687259,111.675 28.8472587,113.258333 34.5766795,115.458333 C43.3751351,118.833333 47.5867181,122.475 55.2259459,127.958333 C71.8220849,139.933333 86.1664865,159.45 91.8208494,165.541667 C94.0809266,161.966667 110.243398,134.508333 109.868108,132.9 L101.695135,128.366667 L109.984865,126.7 C109.984865,126.7 95.2484942,118.716667 91.4789189,115.75 C93.6889575,115.241667 113.02888,119.583333 111.002317,118.575 Z M89.0186873,72.5416667 C89.6108108,72.5416667 99.7853282,78.925 104.697452,81.1083333 L93.8557529,83.4583333 C93.1051737,82.0833333 88.4682625,72.525 89.0186873,72.5416667 Z M49.9552124,32.7166667 C46.4154981,29.6377306 43.5263315,25.8838622 41.4569884,21.675 C40.9983012,20.7083333 49.1796139,28.875 63.790888,35.0083333 C71.713668,38.3416667 84.5068726,42.5083333 84.5068726,42.5083333 C84.5068726,42.5083333 60.2965251,42.1583333 49.9552124,32.7166667 L49.9552124,32.7166667 Z M50.4222394,100.95 C44.8429344,105.175 37.4455598,113.333333 37.4455598,113.333333 C37.4455598,113.333333 29.0474131,109.383333 29.0557529,108.625 C29.0557529,106.958333 35.5440927,102.875 35.9527413,102.791667 C47.7201544,94.7916667 68.0441699,90.875 68.0441699,90.875 C62.2480309,94.3416667 56.735444,96.175 50.4222394,100.95 L50.4222394,100.95 Z M61.7976834,53.6583333 C53.7247876,52.1166667 48.5207722,50.4333333 42.7996911,44.5333333 C40.3894981,42.0333333 36.7950579,36.7166667 37.6123552,37.35 C46.5692664,42.5833333 54.0750579,47.6583333 64.1077992,50.3916667 C67.2352124,51.225 74.2656371,52.5166667 77.3513514,53.6416667 C77.3513514,53.6416667 67.752278,54.8 61.7976834,53.6583333 L61.7976834,53.6583333 Z M95.8906564,140.016667 L105.064402,136.683333 L93.9391506,156.433333 C93.9391506,152.083333 95.8906564,140.016667 95.8906564,140.016667 L95.8906564,140.016667 Z" id="Shape" fill="#E31837"></path>
                <path d="M195.075521,127.8 C195.075521,127.8 188.862394,120.566667 184.450656,117.216667 C184.450656,117.216667 181.748571,127.808333 176.677992,131.783333 C173.342085,134.433333 170.64834,137.091667 166.495135,135.991667 C163.458575,135.304654 160.897556,133.278872 159.531429,130.483333 C155.903629,120.208333 146.054363,115.991667 135.179305,116.775 C128.841081,117.225 124.137452,118.141667 120.167722,123.108333 C102.529112,145.183333 127.231506,169.591667 151.250039,174.425 C159.089421,176 171.71583,175.575 171.71583,175.575 C174.684788,175.941667 190.772201,172.191667 193.566023,170.883333 C182.198919,163.866667 123.253436,137.791667 123.036602,137.508333 L121.627181,136.975 C120.634749,138.641667 120.793205,141.141667 121.010039,143.016667 L119.909189,143.016667 L119.350425,139.941667 L119.292046,138.116667 C119.558919,122.45 141.359073,122.983333 151.700386,129.1 C151.466873,129.291667 148.105946,128.875 145.862548,129.1 C144.033686,129.371775 142.22331,129.755835 140.441699,130.25 C147.94749,133.425 172.524788,157.541667 193.816216,167.183333 C197.9861,169.066667 202.781467,176.533333 202.781467,176.533333 C203.898996,174.191667 206.509344,168.2 207.251583,162.566667 C208.772672,149.721956 204.280086,136.894142 195.075521,127.8 Z M182.799382,135.416667 C181.997982,135.761767 181.086898,135.746594 180.297452,135.375 C179.638393,134.98074 179.170861,134.332728 179.004788,133.583333 C178.170811,131.291667 180.781158,129.283333 182.607568,128.5 C183.07935,128.270247 183.64033,128.325013 184.058687,128.641667 C184.058687,128.641667 181.06471,131.066667 181.948726,132.566667 C182.982857,134.308333 186.402162,129.858333 186.402162,129.858333 C186.402162,129.858333 185.317992,134.783333 182.799382,135.416667 Z M204.574517,162.575 C204.574517,162.575 203.607104,168.591667 202.656371,170.908333 L199.720772,166.741667 C200.696525,164.825 201.271969,159.241667 201.24695,154.45 C201.205251,147.325 198.636602,142.525 197.710888,136.533333 C202.356139,144.65 205.033205,153.183333 204.574517,162.558333 L204.574517,162.575 Z" id="Shape" fill="#FFE512"></path>
                <path d="M182.715985,114.583333 C184.458996,114.058333 186.385483,114.033333 187.619768,112.566667 C180.822857,111.341667 177.13668,103.866667 171.257143,97.9583333 C167.362471,94.0583333 165.060695,89.7083333 160.323707,89 C154.127259,90.875 146.980077,91.1083333 142.743475,95.5916667 C144.653282,94.9083333 146.913359,93.975 148.581313,94.0083333 L155.253127,93.6916667 C158.75583,93.75 167.821158,102.375 168.354903,102.925 C172.649884,106.333333 176.569575,114.025 182.715985,114.583333 Z" id="Shape" fill="#FFFFFF"></path>
                <path d="M137.17251,132.008333 C137.17251,132.008333 133.836602,131.375 131.74332,131.916667 C129.049575,132.625 126.631042,133.75 125.947181,136.083333 C135.312741,140.858333 146.004324,143.275 156.120463,147.933333 C155.962008,147.4 151.675367,143.433333 150.232587,142.05 C149.840618,141.675 147.730656,143.366667 147.155212,143.35 C146.579768,143.333333 146.613127,143.033333 146.229498,142.858333 C146.229498,142.858333 148.422857,141.791667 149.740541,140.958333 C149.123398,140.958333 145.78749,137.45 145.78749,137.45 C145.78749,137.45 139.457606,139.425 138.915521,139.416667 C138.468284,139.448647 138.019319,139.386182 137.597838,139.233333 L137.597838,138.75 C139.724479,138.175 142.343166,137.308333 144.586564,136.658333 L144.161236,136.141667 C143.477375,135.525 141.284015,133.858333 140.091429,133.841667 C137.381004,133.791667 133.769884,136.766667 131.351351,136.725 C130.882995,136.689969 130.469294,136.40696 130.267181,135.983333 C133.077683,134.933333 138.565251,132.541667 138.565251,132.541667 C138.056525,132.458333 137.714595,132.016667 137.17251,132.008333 Z" id="Shape" fill="#FFFFFF"></path>
                <path d="M127.389961,199.116667 L127.039691,199.6 C125.046486,205 121.110116,209.658333 116.773436,213.358333 C118.674903,218.416667 122.127568,228.425 122.127568,228.425 C129.324788,219.075 140.475058,202.633333 140.791969,183.516667 L140.791969,179.008333 C139.249112,179.641667 135.462857,180.291667 134.29529,180.625 C132.919228,187.225 129.800154,192.841667 127.389961,199.116667 Z" id="Shape" fill="#FFFFFF"></path>
                <path d="M166.211583,113.75 C165.079529,112.911487 163.889532,112.154041 162.650502,111.483333 C163.770453,109.600467 165.246189,107.953219 166.995521,106.633333 L166.828726,106.475 C165.677838,105.25 165.302548,104.4 163.342703,103 C161.257761,101.808333 159.414672,100.6 157.504865,99.2666667 L156.670888,98.925 C155.509618,101.392591 154.719918,104.018213 154.327413,106.716667 C154.152558,108.656115 154.119111,110.605703 154.227336,112.55 C154.401511,113.850878 154.680407,115.135599 155.061313,116.391667 C156.170502,119 159.031042,120.733333 161.29112,123.733333 C163.192587,126.233333 163.250965,128.625 165.844633,130.45 C166.506052,130.956171 167.282442,131.291106 168.10471,131.425 C170.856834,131.475 173.750734,128.433333 175.085097,126.425 L172.366332,126.425 C172.366332,126.425 167.737761,127.583333 164.860541,124.841667 C163.476139,123.091667 161.966641,121.983333 161.407876,118.3 C161.178674,117.330435 161.141841,116.325386 161.299459,115.341667 L166.420077,115.533333 L166.636911,115.533333 L168.304865,115.425 L167.162317,114.55 L166.703629,114.2 L166.211583,113.75 Z" id="Shape" fill="#FFFFFF"></path>
            </g>
        </g>
    </g>
</svg>