<?xml version="1.0" encoding="UTF-8"?>
<svg width="250px" height="250px" viewBox="0 0 250 250" version="1.1" xmlns="http://www.w3.org/2000/svg" xmlns:xlink="http://www.w3.org/1999/xlink">
    <!-- Generator: Sketch 53 (72520) - https://sketchapp.com -->
    <title>WISGB </title>
    <desc>Created with Sketch.</desc>
    <g id="WISGB-" stroke="none" stroke-width="1" fill="none" fill-rule="evenodd">
        <g id="Group" transform="translate(0.000000, 28.000000)" fill-rule="nonzero">
            <path d="M0,112.502989 L27.2920038,139.766214 L0,112.502989 Z M249.730264,79.5583639 L222.138554,52.238888 L61.2899359,52.238888 L61.2899359,85.3710183 L103.024036,85.3710183 L103.024036,106.634083 L41.7902955,106.634083 L41.7902955,33.1321303 L146.687496,33.1321303 L146.687496,-1.98951966e-13 L27.2920038,-1.98951966e-13 L0,27.3194759 L0,112.502989 L27.2920038,139.766214 L103.024036,139.766214 L103.024036,193.8239 L222.101091,193.8239 L249.730264,166.504424 L249.730264,138.003667 L234.74495,123.003268 L249.730264,108.00287 L249.730264,79.5583639 Z M207.921237,160.71052 L146.650033,160.71052 L146.650033,137.797411 L207.921237,137.797411 L207.921237,160.71052 Z M207.921237,108.209125 L146.650033,108.209125 L146.650033,85.3710183 L207.921237,85.3710183 L207.921237,108.209125 Z" id="Shape" fill="#095540"></path>
            <path d="M235.512947,85.6710263 L212.192052,62.326656 L71.3488281,62.326656 L71.3488281,75.2832503 L117.765839,75.2832503 L117.765839,116.721851 L27.1608823,116.721851 L27.1608823,22.9693603 L136.591141,22.9693603 L136.591141,10.0690175 L36.0584128,10.0690175 L13.7864892,32.6821184 L13.7864892,106.221572 L37.2385063,129.697196 L117.784571,129.697196 L117.784571,182.873609 L212.960049,182.873609 L235.438021,160.373011 L235.438021,140.347479 L222.063628,127.334633 L222.063628,170.779538 L131.121501,170.779538 L131.121501,129.697196 L210.880837,129.697196 L235.512947,105.715309 L235.512947,85.6710263 Z M131.121501,116.721851 L131.121501,75.2832503 L222.138554,75.2832503 L222.138554,116.721851 L131.121501,116.721851 Z" id="Shape" fill="#163029"></path>
        </g>
    </g>
</svg>