<?xml version="1.0" encoding="UTF-8" standalone="no"?>
<svg width="250px" height="250px" viewBox="0 0 250 250" version="1.1" xmlns="http://www.w3.org/2000/svg" xmlns:xlink="http://www.w3.org/1999/xlink">
    <!-- Generator: Sketch 47.1 (45422) - http://www.bohemiancoding.com/sketch -->
    <title>WRIGHT</title>
    <desc>Created with Sketch.</desc>
    <defs></defs>
    <g id="Page-1" stroke="none" stroke-width="1" fill="none" fill-rule="evenodd">
        <g id="WRIGHT" fill-rule="nonzero">
            <g id="Group" transform="translate(0.000000, 30.000000)">
                <path d="M129.479058,0.877680529 L127.305121,2.22567901 C118.752373,7.52685902 109.841018,19.1076707 106.282594,29.4347024 C93.7562424,37.5252468 75.9724162,61.8838451 75.2076592,62.9348294 L71.7056247,67.7558502 L77.3672225,66.3355781 C71.4376834,75.2423006 64.8592985,88.0768922 60.7496969,98.8180266 L60.0190682,99.0095722 L59.5619647,99.7178949 C58.8294564,100.858157 57.9374364,102.132384 56.9560781,103.328248 L51.8668503,103.4186 L44.3193432,103.555931 L43.3331567,103.574064 C43.3285498,103.574064 42.6961049,104.332993 42.6961049,104.332993 C41.8507259,105.352985 41.0689783,106.401656 40.3133799,107.419335 C39.2031001,108.911159 38.1394429,110.313057 36.9302053,111.589781 C34.8662827,112.433992 30.1846796,114.14619 29.3898851,114.437616 C27.7382863,114.555574 25.395642,114.724564 25.0707585,114.759258 C20.6318506,115.224152 17.2685781,115.773754 13.3732927,116.414429 C12.3758836,116.580958 11.3574668,116.796632 10.3715752,117.007106 C9.39259402,117.215268 8.46871222,117.408404 7.57496001,117.55643 L6.7039478,117.700996 L6.18566366,118.420162 C5.43012056,119.463282 4.69112569,120.597994 3.97929351,121.694311 C3.33431769,122.693487 2.66932919,123.721342 2.01045874,124.639658 L1.00988011,126.038244 L2.14361861,127.332028 C3.32300297,128.675827 9.06181356,135.502877 11.148771,138.072608 C12.7566036,144.215685 13.9376465,149.923012 15.4210909,157.099496 L17.8828715,168.801319 C17.3000897,171.680794 16.3673257,177.632918 15.6693144,182.064445 C15.3376126,184.173815 15.0493821,185.994905 14.9134765,186.769821 L14.2044269,190.799273 L17.7388944,189.201906 C20.1713747,188.609821 49.8365769,181.453302 75.5453132,177.771156 C75.5407063,177.771156 81.0556181,176.986933 81.0556181,176.986933 C91.3822339,175.506673 96.0927687,174.831674 119.811294,172.946564 C132.091265,171.607391 156.211887,171.959101 173.290846,172.343043 C194.722472,172.844944 213.874568,174.042881 231.838066,176.011127 C231.810424,176.006501 244.100531,177.630161 244.100531,177.630161 L245.237881,177.778335 C245.247095,177.789807 246.004499,176.929073 246.004499,176.929073 L249.074584,173.441581 L249.783615,172.632064 C249.772558,172.643536 249.560472,171.587648 249.560472,171.587648 C249.067526,169.161503 247.876624,162.415959 247.717684,161.472294 L247.649317,161.07477 L247.444159,160.727834 C246.90975,159.828114 246.908608,159.827966 243.153964,159.307562 L243.045977,159.285876 L239.770789,153.601124 L237.870506,150.297924 L238.133251,147.189934 L238.215992,146.272007 C238.215992,146.262755 237.607725,145.5709 237.607725,145.5709 C236.264793,144.035131 233.152969,139.928705 231.823766,138.173302 C231.208735,137.363785 231.081472,137.197108 231.003154,137.099966 L230.538845,136.539817 L229.829814,136.377192 C229.762921,136.363315 229.700266,136.348864 225.150791,135.495402 L199.064283,120.443381 L198.71876,120.244619 C198.715075,120.242399 198.31565,120.179562 198.31565,120.179562 L190.246266,118.947208 L184.462307,115.907865 L184.725033,115.37301 C176.27585,111.200528 170.091084,106.738101 167.366154,98.5248796 C167.209517,98.0784888 166.764649,96.4702792 166.32238,94.8351473 C167.755148,94.7634473 169.346027,94.7040333 171.022964,94.6508365 C176.846174,94.4565524 183.450358,94.2410266 187.032185,93.1077028 L187.748422,92.8800203 L188.165924,92.2548142 C189.711562,89.9581913 191.220161,87.3890155 192.189836,84.2897218 C193.27017,83.8317665 194.302777,83.287808 194.4502,83.2091693 L195.152044,82.8369395 L195.443573,82.096088 C195.901966,80.9303835 196.679107,78.6837193 197.135197,76.5811955 C198.14182,76.1625595 198.819045,75.6600854 198.920398,75.5837595 L199.287518,75.2982544 L199.503475,74.8898878 C200.634486,72.7712661 200.63362,70.0725677 200.63362,66.9501449 L200.63362,66.306861 C200.63362,66.1796512 200.284485,65.6418914 200.284485,65.6418914 C197.262313,60.9929508 190.444365,57.8842204 184.430058,55.1435196 C182.379956,54.2091057 180.428628,53.3106805 178.779333,52.4294635 C180.004787,50.539912 181.150079,48.3498678 181.755804,46.8279758 L182.158914,45.823305 L181.593841,44.8945346 C178.523203,39.8616516 174.1534,35.2598943 169.928808,30.8074582 C168.615822,29.4243406 167.280538,28.0047715 166.002011,26.6009303 C166.782893,21.8063691 168.585969,17.1664951 171.803845,11.7080375 L174.024589,7.93874128 L169.694774,8.45553694 C169.231774,8.51335959 158.474775,9.89806851 148.854684,17.8914523 L148.563155,17.8842361 C144.92586,17.7963456 141.459023,17.732602 137.819516,17.9384506 C136.197863,14.9640538 131.971428,7.10739043 130.430305,3.25871524 L129.464684,0.888634451 L129.479058,0.877680529 Z" id="Shape" fill="#FFFFFF" transform="translate(125.396748, 95.838477) rotate(-360.000000) translate(-125.396748, -95.838477) "></path>
                <path d="M183.673612,54.2987724 C175.399493,58.383364 168.302456,63.1178821 165.220393,72.4018858 C164.87487,73.3918095 163.465137,78.7623766 163.465137,78.7623766 C169.246885,79.3035966 181.328664,79.0006059 186.28346,80.568756 C187.976522,83.0875104 189.535981,85.7265359 190.358326,88.9715427 C191.592994,89.3855528 193.339035,90.313028 193.339035,90.313028 C193.861926,91.6406359 194.843211,94.5317681 195.151878,96.6989608 C196.50172,96.9695708 197.501433,97.7443942 197.501433,97.7443942 C198.388275,99.4096864 198.376757,101.84055 198.376757,104.789505 C194.306499,111.055167 181.503729,114.596226 175.544613,118.505036 C177.032664,120.325293 178.838597,123.544858 179.65403,125.587154 C175.583772,132.264513 169.032661,138.257252 163.60565,144.319378 C164.421084,150.450891 166.795977,155.83071 169.848094,161.009306 C169.848094,161.009306 158.890416,159.697888 149.496804,151.540269 C144.912868,151.646663 140.893287,151.780812 136.484416,151.440814 C136.484416,151.440814 130.317987,162.586707 128.332383,167.54789 C119.648244,162.165758 111.053941,150.395381 107.962664,140.759816 C95.6367155,133.263688 76.8425808,107.403089 76.8425808,107.403089 C76.8425808,107.403089 80.0997087,108.219544 81.7282726,107.879547 C74.6082002,98.3943207 66.1244647,81.7622154 61.8514998,69.9085734 C61.8514998,69.9085734 65.0994138,70.9540068 67.5480184,70.581629 C67.5480184,70.581629 59.3982882,46.3284991 64.8368165,19.2628759 C65.9885591,21.1687103 67.075804,22.9403961 69.0429803,24.168549 C68.5638554,20.6159258 67.1287842,18.3099587 66.2672807,13.4065985 C70.3836086,11.1815832 68.4509846,11.3943705 74.5966828,9.08146475 C74.0576673,9.28268755 78.3306321,7.06229802 85.7962273,4.17810454" id="Shape" fill="#161A21" transform="translate(130.114130, 85.862997) scale(-1, 1) rotate(-180.000000) translate(-130.114130, -85.862997) "></path>
                <path d="M111.781842,12.217765 L84.8564053,22.0499274 C83.3015529,19.8064088 81.668382,16.3948728 80.7861472,15.0325713 C74.6680908,28.9400736 76.8494912,50.7924073 76.8494912,50.7924073 L72.3047151,46.5690413 C72.3738197,53.5863974 79.2934889,88.693994 96.0490394,104.125701 C87.0953928,90.5720735 82.7533235,75.1102984 79.2934889,59.3062134 C81.2975209,59.9006301 83.7023593,60.9414377 83.7023593,60.9414377 C80.9888539,45.35014 82.5483133,32.8118779 82.5483133,32.8118779 C83.9073695,35.7400166 86.4158647,38.5987681 88.9266635,40.1669182 C90.23965,31.7248122 94.8097644,33.7786725 103.913137,23.1855641 C100.361163,36.1008299 106.562145,36.8293952 110.701508,45.0702784 C111.719648,39.7575339 116.140036,32.5019485 117.552073,30.2214234 C119.53307,35.7515811 120.765434,39.6210724 123.849801,43.9577707 C127.086197,40.2409312 134.174021,36.0823266 134.174021,36.0823266 C134.71534,40.9162997 135.719659,45.1951753 137.29294,49.9759515 C140.414162,46.4325799 145.896457,42.0981945 150.316844,40.9856868 C146.315691,46.77489 144.972759,53.0914356 143.125364,60.8049763 L140.550068,57.058069 C138.140622,59.560633 136.290924,62.6206073 135.097718,64.6721547 C132.439497,62.4055071 128.813811,54.8793117 128.813811,54.8793117 C126.779834,58.4897576 125.699499,61.1403476 124.619165,65.6296977 C124.619165,65.6296977 119.926966,61.9637421 118.706119,59.7849849 C118.503412,63.3954308 118.411273,68.3011039 118.941074,73.0009284 C112.293216,69.8669411 106.292638,62.5766621 102.425086,56.5145361 C103.715038,63.6660407 105.693731,70.2971415 108.598426,76.8125971 C105.656876,76.9305553 100.322004,74.2244555 100.322004,74.2244555 C102.086474,79.4007386 106.787887,88.8836523 110.247721,93.4470153 C107.812938,93.1995344 104.882905,92.424711 101.768593,91.3353324 C106.990593,105.531948 116.835689,115.542204 124.715911,118.801088 C124.715911,118.801088 120.3462,113.132156 119.666672,110.067556 C119.666672,110.067556 126.655446,111.633393 130.046176,112.246313 C128.988876,110.386737 127.857865,109.355181 127.035521,106.464049 C132.326626,108.712193 138.799419,110.47694 144.901351,110.884012 C141.218078,113.585486 134.998669,115.856759 129.707563,116.469679 C130.7234,119.876589 138.649692,125.971096 138.649692,125.971096 C121.283718,125.765248 105.343602,120.202709 91.3683577,111.619516 C94.9664014,117.179741 106.020826,129.260048 112.532779,133.689263 C116.296673,143.495983 119.378736,151.308979 126.1625,158.666332 C127.710442,153.228691 128.680209,148.760157 131.052799,144.518287 C131.052799,144.518287 129.016518,142.543066 128.136587,141.72661 C126.213176,143.600064 125.245713,146.435686 124.363478,148.140298 C124.363478,148.140298 119.429413,139.883224 117.579714,133.691576 C117.579714,133.691576 119.993767,133.552801 121.622331,133.689263 C116.603037,131.23527 107.988003,123.267309 107.988003,123.267309 C107.988003,123.267309 125.904509,130.078817 139.985714,130.388746 C139.985714,130.388746 138.753349,132.246009 137.564751,133.892798 C143.058563,134.096334 147.591822,133.277565 151.908553,132.246009 C151.908553,132.246009 157.063752,126.926326 158.487306,124.816956 C159.565337,127.756659 159.090819,133.242872 157.869972,136.580395 C160.855289,135.014558 165.185841,129.685623 167.325778,126.775987 C168.406113,128.94318 168.362346,131.441118 168.362346,131.441118 C170.465428,129.465897 173.699521,125.434502 173.699521,125.434502 C173.185844,124.042133 170.769488,121.305965 170.769488,121.305965 C169.074123,122.649763 167.549216,123.403771 167.549216,123.403771 C168.293242,120.679168 168.431451,117.339332 170.804041,115.569959 C175.079309,112.503046 187.186427,108.15247 191.189884,104.814947 C188.745886,104.47495 185.868833,104.197401 183.777269,103.404075 C181.740988,104.222843 175.463991,107.292069 173.151292,108.066893 C175.770355,105.279841 180.05023,101.68096 183.173756,99.9393418 C183.64597,97.7605846 182.825929,95.7067242 185.539435,95.02673 C186.564486,94.8555749 188.00186,95.2695851 188.00186,95.2695851 C187.663248,96.155428 187.103501,97.5824908 187.257835,98.5469725 C188.105517,98.7782631 189.261867,98.7019372 189.261867,98.7019372 C189.282598,97.871604 189.337882,96.6110704 189.646549,95.6812823 C189.817007,95.3806045 190.763739,95.7067242 190.763739,95.7067242 C190.491928,94.4138099 189.542892,93.6644285 188.660657,92.7785856 L176.924401,90.5998283 C170.479249,93.3244313 157.441524,95.1123075 150.45275,96.3381475 C148.08016,95.0452332 145.725999,92.2119236 144.097435,90.0331664 L149.503714,83.8045112 C152.150418,85.0326642 154.997526,85.8491199 157.780136,86.8714242 C162.829375,86.7927854 173.464566,87.0564567 177.401222,85.2176966 C179.778419,85.8768748 181.876893,86.1706138 183.777269,86.7164596 C183.325786,85.0002835 181.837734,83.3558075 181.837734,83.3558075 C172.404963,82.6295551 156.402652,83.8762113 146.905383,80.9480726 C144.500545,82.580984 140.499391,85.5993261 139.396022,87.4380861 L134.87428,85.9092554 C136.567342,90.4032313 139.601032,96.0212794 143.807196,99.222341 C137.007308,96.7452189 127.922362,89.1982074 125.296389,78.2997955 C127.12766,79.5256355 129.15703,79.366045 131.329217,79.7060422 C131.02055,73.5930323 132.296681,67.4846481 132.296681,67.4846481 C134.06115,69.869254 138.467717,73.232219 140.483267,74.0810554 C141.568208,68.7012366 146.976791,62.3777522 150.114138,59.7849849 C151.268184,65.0283422 153.845784,69.7281667 157.102911,73.8844584 C156.423383,67.4800223 159.772651,56.0311388 161.714489,53.1099388 C159.000983,53.8570074 156.423383,54.9486989 154.04849,56.3780747 C156.688284,50.6120006 160.765453,44.3232098 165.784747,40.3704539 L111.781842,12.217765 L111.781842,12.217765 Z" id="Shape" stroke="#FFE1A5" stroke-width="0.921394032" fill="#FFE1A5" transform="translate(131.747299, 85.442048) scale(-1, 1) rotate(-180.000000) translate(-131.747299, -85.442048) "></path>
                <path d="M164.081089,44.6141734 L166.859645,55.7847681 L185.869847,66.0266849 L191.178735,66.0772727 L170.568993,54.3898824 L164.079615,44.6142474 L164.081089,44.6141734 Z M146.455743,48.8893484 C145.227414,48.8784315 143.980141,49.1015621 143.130063,49.8000597 C143.130063,49.8000597 143.612505,52.0667073 145.314688,53.153773 C147.01466,54.2385258 153.531865,54.4982929 155.694745,53.7211566 C155.694745,53.7211566 151.211794,49.8456517 149.666064,49.3808501 C148.894396,49.1472466 147.683961,48.9003393 146.455558,48.8893669 L146.455743,48.8893484 Z M151.361429,79.1088499 C151.361429,79.1088499 150.362011,79.9347053 149.64102,80.7604127 L150.900732,82.2818791 C150.900732,82.2818791 155.705802,80.6554808 157.35049,80.4496136 C157.35049,80.4496136 153.416137,79.4187793 151.361429,79.1088499 L151.361429,79.1088499 Z" id="Shape" fill="#FFFFFF" transform="translate(167.154399, 63.448026) rotate(-360.000000) translate(-167.154399, -63.448026) "></path>
                <path d="M150.206738,44.8491646 C146.732529,44.9302088 139.970787,46.5602893 134.913808,52.7672587 C137.73051,50.8401456 144.888267,47.7952515 149.263783,49.1569053 C148.590373,49.7112441 148.144437,50.5880759 148.144437,51.5854564 C148.144437,52.170418 148.307966,52.7314364 148.58713,53.2153333 C147.104478,52.820141 145.314154,51.7872158 143.130819,49.8001892 C143.400326,51.571875 145.069616,54.3980608 146.596919,55.0873067 C150.093609,56.8428022 153.907443,55.6646635 157.434171,55.5282021 L167.407524,60.4323024 C166.253478,58.6629295 163.774283,56.9653492 161.922281,54.798249 C162.779178,54.3125388 163.808191,53.3454481 163.808191,53.3454481 C163.448847,50.9215229 162.104183,48.7945748 161.461584,47.2125472 C161.461584,47.2125472 159.789402,50.9076455 156.42635,51.2384835 C155.205503,49.1938748 153.088877,46.9164953 151.481044,44.8996415 C151.133513,44.8568435 150.70324,44.8374706 150.206922,44.8490536 L150.206738,44.8491646 Z" id="Shape" fill="#161A21" transform="translate(151.160666, 52.639027) rotate(-360.000000) translate(-151.160666, -52.639027) "></path>
                <path d="M126.156511,12.2253513 C126.156511,12.2253513 119.581996,16.9645877 112.526329,37.2047335 C112.526329,37.2047335 102.00622,43.4569804 91.3600651,59.2754055 C91.3600651,59.2754055 101.280346,49.9382974 107.981092,47.6277971 C107.981092,47.6277971 117.69148,38.9643922 122.406621,37.0931589 L117.572988,37.2015695 C117.572988,37.2015695 122.39151,25.0956357 124.245908,23.4651296 C124.245908,23.4651296 126.678204,28.1223967 128.1294,29.1678301 L131.04469,26.37421 C129.111974,22.766077 127.375515,17.1777266 126.157064,12.2257029 L126.156511,12.2253513 Z M154.690241,27.6206071 C154.690241,27.6206071 156.227237,35.0994342 155.97155,37.4215916 L152.120492,33.0342869 C152.120492,33.0342869 135.682638,33.2957933 130.032834,36.1313602 C130.032834,36.1313602 130.80393,37.1623426 131.573294,37.6781206 C131.573294,37.6781206 119.498425,40.6885987 108.134873,47.5440514 C108.134873,47.5440514 124.551903,41.1171339 139.980093,40.5041213 L137.554247,36.9986814 C137.554247,36.9986814 147.757212,37.344026 151.569572,38.9537344 C151.569572,38.9537344 158.510064,45.2738881 158.569955,46.4164636 C158.569955,46.4164636 160.326943,39.4046585 158.785911,35.2784346 C158.785911,35.2784346 166.633424,43.1687738 167.614709,44.4686269 L168.683673,39.6115248 C168.683673,39.6115248 162.010569,31.6171973 154.689909,27.6204961 L154.690241,27.6206071 Z M98.5146898,63.6519783 C98.5146898,63.6519783 75.5996202,83.7354016 71.4349192,125.145666 C71.4349192,125.145666 75.024486,121.997709 76.2613654,121.065516 C76.2613654,121.065516 74.7869875,144.105758 80.7784075,155.86087 C80.7784075,155.86087 84.1626878,149.93428 84.8491263,148.842589 C84.8491263,148.842589 89.1009912,150.751198 111.645108,160.331254 C111.645108,160.331254 93.5539043,145.045352 89.8006979,127.867309 C89.8006979,127.867309 84.298317,134.100867 82.4439194,136.894858 C82.4439194,136.894858 82.3822965,116.694864 85.1649802,107.850312 C85.1649802,107.850312 80.4553668,110.796029 79.2874077,111.587043 C79.2874077,111.587043 90.4773696,72.9615165 98.5150583,63.6525334 L98.5146898,63.6519783 Z M136.802297,64.1326371 C130.225755,65.6822839 119.535742,71.8736551 115.617606,76.0946156 C119.022157,75.176392 121.588976,74.3512583 124.705499,74.6635006 C127.078089,70.5765036 132.280648,67.2294514 136.802482,64.1325631 L136.802297,64.1326371 Z M143.799179,71.6712296 C143.799179,71.6712296 131.371785,72.0092099 112.208264,99.3169296 C112.208264,99.3169296 116.570512,86.3981482 122.098876,79.4555452 C113.115284,83.8084339 106.504097,97.3376374 108.591055,94.0810661 C108.591055,94.0810661 103.012751,106.452706 102.418452,114.377277 C102.418452,114.377277 111.451062,101.73993 118.359306,99.3252561 C118.359306,99.3252561 117.693304,107.851367 118.697623,111.110159 C118.697623,111.110159 122.713611,106.686402 124.567825,105.754394 C124.567825,105.754394 126.779355,113.236552 128.804026,116.014259 C128.804026,116.014259 133.798534,107.589546 134.980314,107.022791 C134.980314,107.022791 138.431119,112.137274 140.541112,113.834947 C140.541112,113.834947 142.883111,110.876092 143.118067,110.087299 C143.118067,110.087299 144.34986,112.970105 150.53234,117.625892 C150.53234,117.625892 149.910546,115.647895 150.104039,111.109973 C150.104039,111.109973 142.527048,104.590355 140.810859,96.0579529 C140.810859,96.0579529 135.556149,98.1155138 132.536372,102.59552 C132.536372,102.59552 131.290039,93.185694 131.985692,90.3154704 C131.985692,90.3154704 128.278371,90.6274167 126.11549,91.8694471 C126.11549,91.8694471 129.194236,77.8005039 143.798332,71.6713036 L143.799179,71.6712296 Z" id="Shape" stroke="#CEA052" stroke-width="1.15174254" fill="#CEA052" transform="translate(120.059296, 86.278303) rotate(-360.000000) translate(-120.059296, -86.278303) "></path>
                <path d="M245.591291,124.622672 C245.586684,124.634237 242.030103,125.12226 241.707615,125.168518 C240.629584,127.021155 236.646858,133.964498 235.665574,135.666797 C235.771534,136.948147 235.872887,138.1763 235.988061,139.45765 C234.182129,141.520762 229.586676,147.682343 229.349417,147.969143 C229.294134,147.98302 227.446739,148.329956 224.394621,148.903557 C214.830551,154.385143 197.987468,164.136354 197.987468,164.136354 L189.563623,165.424643 L180.356593,170.265554 L166.328369,172.465128 L155.368387,175.548231 L145.286033,178.18957 L141.342466,175.987683 L133.013064,178.629022 L126.874277,183.030481 L101.888374,184.35115 L97.0671798,183.911698 L89.4311267,185.280939 C89.1961712,183.213201 79.2980958,182.604907 77.7870096,182.181645 C75.5779674,183.698911 73.2606615,185.424339 71.0516193,187.149766 C67.8221332,186.622424 64.4889903,186.374943 61.3654645,185.565426 C60.3496276,183.981086 59.2600791,182.394432 57.9977693,180.98356 C53.6810383,180.914173 48.9450729,180.807779 44.3473167,180.738392 C42.2419314,178.201134 40.5235315,175.416396 38.2062255,173.057232 C36.2413527,172.210708 29.9919977,169.941748 29.9919977,169.941748 L30.0058186,169.897802 C27.4074874,169.710457 25.5324506,169.571683 25.2882812,169.546241 C21.0429582,169.09985 17.818079,168.579446 13.7155721,167.906391 C11.8290178,167.591835 9.80886141,167.07837 7.92230713,166.766128 C6.51487775,164.823287 5.16733898,162.526572 3.75530262,160.553663 C5.0705926,159.052587 11.3153407,151.621221 13.112059,149.384641 C15.6251612,139.87166 17.0970882,131.45037 20.0777979,117.665452 C19.2554537,113.812151 17.4679493,101.785041 17.0302871,99.3079185 C17.053322,99.319483 48.4198783,106.984453 75.2370516,110.823876 C89.9954806,112.89624 92.0202439,113.472153 119.636727,115.667101 C132.225273,117.04328 157.114429,116.638521 173.335571,116.275395 C189.565927,115.896079 210.320327,114.975542 232.072137,112.595562 C236.197679,112.086723 240.178101,111.561693 244.395782,110.969589 C245.43235,112.130668 246.418242,113.247802 247.445596,114.436635 C246.943437,116.913757 245.757142,123.646626 245.591291,124.622672" id="Shape" fill="#161A21" transform="translate(125.600449, 143.228842) scale(-1, 1) rotate(-180.000000) translate(-125.600449, -143.228842) "></path>
                <path d="M50.716453,120.501074 C50.635831,120.346109 50.5390846,120.207335 50.4492487,120.066248 C51.0089956,120.077812 51.6032947,120.09169 51.9741558,120.098628 C51.9741558,120.096316 67.5779638,120.024615 73.3643183,119.82108 C73.3551043,119.834957 73.3504974,119.848835 73.3435869,119.860399 C75.2186238,119.770196 82.8938361,119.381628 84.9139925,119.252105 C84.907082,119.263669 101.268737,118.012387 107.036663,117.40178 C107.022842,117.422596 107.009021,117.445726 106.9952,117.468855 C109.075247,117.219061 116.213748,116.354034 117.782421,116.164376 C117.766297,116.187505 117.754779,116.210634 117.738655,116.233763 C119.873986,115.942337 131.421356,114.388064 133.586632,114.057319 C138.347936,113.335692 149.013072,111.700468 149.029196,111.688903 C149.28258,111.270267 153.154738,104.701615 154.050794,103.228294 C154.334122,103.704752 158.590963,110.081434 158.60248,110.079121 C158.862774,110.035175 169.233064,108.094648 181.952908,105.712355 C189.480698,106.468675 196.487899,107.39615 192.113581,107.904989 C187.670158,108.42308 183.735806,109.52171 180.15619,110.356669 C180.15619,110.356669 170.852414,114.892278 169.281437,116.960015 L166.535683,116.652399 L167.074698,115.354859 L166.703837,113.157598 C164.176914,113.65256 154.679645,116.039479 152.399195,116.566821 L148.361186,121.296714 L145.749033,121.088552 C145.749033,121.088552 143.873997,118.165039 142.936478,116.566821 C140.927839,117.374025 130.981391,121.169504 128.500537,122.707586 C128.500537,122.707586 108.243689,127.004965 106.868509,128.526857 C101.816966,129.162906 108.971591,128.302505 103.744983,128.549986 C101.805449,127.143739 98.9168783,123.373703 96.6364281,122.386092 C96.9036323,122.520241 88.3323643,122.379153 80.3139328,122.379153 L71.6528289,132.086419 L68.2137256,131.487376 C68.2137256,131.487376 69.5036773,128.901548 69.5382296,127.668769 C67.2923316,126.190822 64.8368165,125.096818 62.3789979,124.005126 C62.3789979,124.005126 60.1699557,125.871641 59.0113027,126.963333 C53.9850983,126.711226 50.4308208,126.496126 47.307295,124.872466 C47.307295,124.872466 51.6286331,121.379978 50.716453,120.501074" id="Shape" fill="#FFFFFF" transform="translate(120.385973, 117.657356) scale(-1, 1) rotate(-180.000000) translate(-120.385973, -117.657356) "></path>
                <path d="M150.897783,50.0911342 C150.54535,50.0911342 150.286788,50.2745754 150.134758,50.4272272 C149.849126,50.7140275 149.68486,51.1349764 149.68486,51.5836801 C149.68486,52.0300709 149.849126,52.4497245 150.134758,52.7365248 C150.286788,52.8914895 150.543047,53.0762259 150.897783,53.0762259 C151.568097,53.0762259 152.110706,52.4070745 152.110706,51.5836801 C152.110706,51.1349764 151.94644,50.7140275 151.660808,50.4272272 C151.508778,50.2745754 151.25252,50.0911342 150.897783,50.0911342 L150.897783,50.0911342 Z M72.3378853,102.975262 L71.1069029,103.19175 C71.6850777,104.53849 72.3270313,107.521139 72.3270313,107.521139 L72.3342182,107.748822 L72.1480966,107.874644 L63.7541969,112.235859 L63.1774043,111.741822 C63.1566729,111.725725 61.1674753,109.377478 59.9488396,108.243599 C57.6776033,108.009792 51.7858413,109.056095 50.8069523,109.074801 C53.474388,112.355057 54.1659864,114.215928 53.1248111,115.232867 L53.0348278,115.31961 L53.0024316,115.352139 C56.5243681,115.372955 68.4602907,115.45152 73.3670825,115.626801 C73.3578685,115.612923 73.3523402,115.598842 73.345485,115.587056 C75.2229175,115.675872 82.9003411,116.069214 84.9204054,116.197811 C84.9134028,116.188559 101.270911,117.45618 107.041233,118.073485 C107.025201,118.052669 107.014163,118.028189 106.998038,118.00482 C109.078178,118.257315 116.217507,119.132185 117.788484,119.323897 C117.770056,119.300546 117.75782,119.277288 117.741695,119.251624 C119.877118,119.548564 131.42366,121.115826 133.588936,121.452585 C138.350332,122.182075 149.019337,123.836913 149.033158,123.84857 C149.288845,124.269427 153.161556,130.909779 154.057704,132.399105 C154.341033,131.917466 158.59557,125.4726 158.607179,125.474821 C159.097822,125.561323 195.50901,132.451655 215.895775,136.316613 C210.240627,133.012858 199.183161,126.55578 193.588825,125.146018 C193.588825,125.146018 190.890799,124.937708 188.218756,125.735087 L185.271033,122.746443 C185.271033,122.746443 176.205068,121.531464 174.516706,119.808312 L169.287058,118.518137 L169.679369,120.191385 L169.337439,122.815145 L153.414645,118.894123 L148.368538,114.134533 C147.944697,114.845279 145.28408,119.342271 145.28408,119.342271 C145.28408,119.342271 131.32367,114.337328 129.444026,113.158856 C129.275872,113.055941 127.670343,109.408433 126.506991,107.853606 C122.759128,107.423405 106.873927,106.827249 106.873927,106.827249 C105.899552,107.170947 100.856118,112.551783 100.856118,112.551783 L100.575388,112.522863 C100.575388,112.522863 86.1106069,112.801133 81.4269768,112.801133 L81.2470101,112.801133 L81.06345,112.801133 L80.8834833,112.801133 L80.7611037,112.660194 L80.642336,112.522863 C80.5893559,112.45973 80.5499018,112.416784 80.5199565,112.374689 L80.523642,112.385606 L72.3390831,102.97504 L72.3378853,102.975262 Z" id="Shape" fill="#026937" transform="translate(133.351363, 93.203873) rotate(-360.000000) translate(-133.351363, -93.203873) "></path>
                <path d="M62.5195105,119.158201 C58.831723,119.148949 49.6091216,119.382257 49.6091216,119.382257 C45.9235455,119.474773 38.5704526,119.870132 38.5704526,119.870132 L42.0293657,125.952334 L42.9795441,140.888709 C41.3707902,136.183334 36.1483288,120.250189 36.1483288,120.250189 C35.5770645,120.271005 31.4658043,120.344148 31.4658043,120.344148 C31.4658043,120.344148 31.3047078,136.862921 31.1526778,142.142822 C30.0930746,136.503958 26.6068882,120.712363 26.6068882,120.712363 L13.2859261,122.540483 C13.2859261,122.540483 18.2804346,128.068328 19.3470403,129.42147 C22.0974015,140.250495 24.515508,151.469938 27.1645158,163.941126 C26.2500322,168.118234 24.4075206,177.211469 24.4075206,177.211469 L37.8504753,174.30942 C37.8504753,174.30942 37.8324159,156.859934 38.0304419,148.060715 L41.4460496,159.368604 L45.5814503,173.076179 L54.2338931,171.514968 C54.2338931,171.514968 50.8164426,127.645621 50.2243548,121.226845 L54.6549702,129.130507 L59.283501,159.775583 C58.4841916,163.474012 56.9619566,171.004093 56.9619566,171.004093 C56.9597452,171.004093 70.0665753,169.034422 70.0665753,169.034422 C70.0665753,169.032017 66.8669424,149.082372 66.8669424,149.082372 L70.4732787,148.945041 L73.7090302,168.597339 L82.3795323,167.524002 L81.4041446,161.962112 L79.0251052,148.167757 L78.9999143,148.012366 C78.9999143,148.010146 78.8847401,147.900329 78.8847401,147.900329 L74.4541247,143.632371 L77.5385834,139.270415 C77.5407947,139.268195 75.8181749,128.930986 75.8181749,128.930986 L75.8073024,128.844262 C75.8095138,128.846482 75.760514,128.771988 75.760514,128.771988 L70.2597917,119.531467 C70.1354035,119.175279 69.7554758,119.176427 62.5178704,119.155629 L62.5195105,119.158201 Z M74.3572125,119.244926 L79.6876612,128.800187 L81.062547,136.90979 L84.5970145,157.577916 C84.2238499,159.342663 82.7146065,167.411466 82.7146065,167.411466 C82.7123951,167.416091 91.3418031,166.36705 91.3418031,166.36705 C91.3418031,166.360204 93.263831,157.350418 93.263831,157.350418 L93.2854285,157.252851 C93.2854285,157.257476 93.2673692,157.166126 93.2673692,157.166126 L88.2033876,129.453814 L88.1925151,129.370698 C88.1903038,129.368477 88.1493202,129.298424 88.1493202,129.298424 C87.33619,127.875987 82.9196719,119.725214 82.9196719,119.725214 C80.3397687,119.554059 74.3571572,119.244556 74.3571572,119.244556 L74.3572125,119.244926 Z M87.476205,119.642449 C87.4739937,119.642449 91.4803992,127.330178 92.3026512,128.85429 L97.3054523,156.579554 L95.5382554,165.99012 L115.597003,164.656591 C115.599215,164.654371 117.407395,156.160271 117.407395,156.160271 L114.517166,141.877985 C114.519378,141.877985 104.464573,141.43709 104.464573,141.43709 C104.46918,141.43709 106.206579,150.558635 106.206579,150.558635 L108.038569,150.573068 L109.071543,155.849453 L105.688369,155.903668 C104.034467,147.276529 102.561342,139.391741 100.764623,129.651262 L104.100991,129.904239 L105.627041,138.013841 C105.629252,138.013841 113.847534,138.505343 113.847534,138.505343 C113.847534,138.503123 112.1919,130.034372 112.1919,130.034372 L112.17384,129.951255 L106.958566,121.162214 C106.956354,121.159993 87.4766104,119.640747 87.4766104,119.640747 L87.476205,119.642449 Z M111.065735,121.134995 C111.067946,121.132775 116.198268,129.949387 116.198268,129.949387 C118.239156,140.218688 119.823401,148.005039 121.48191,155.940896 L119.790286,164.346921 C119.788075,164.346921 127.953284,164.010828 127.953284,164.010828 L129.558519,155.977089 L129.536921,155.879521 L127.78771,147.816917 L130.616758,147.95064 L132.419963,156.04951 C132.17349,157.305418 131.142248,163.942255 131.142248,163.942255 C131.144459,163.942255 139.125205,163.82661 139.125205,163.82661 C139.127417,163.82661 140.244552,155.897599 140.244552,155.897599 L140.226492,155.800031 C138.406739,148.067895 136.723721,140.681029 134.777368,131.843878 L134.762994,131.767978 C134.762994,131.765758 129.958109,123.553462 129.958109,123.553462 C129.958109,123.551242 121.899597,122.45844 121.899597,122.45844 C121.901808,122.45844 126.99251,131.063189 126.99251,131.063189 L128.774117,139.458297 L125.970315,139.245084 L124.131121,130.387395 L124.073534,130.239221 L119.308268,122.129619 C119.310479,122.127398 111.06603,121.135791 111.06603,121.135791 L111.065735,121.134995 Z M132.261483,123.758756 C132.261483,123.756535 137.530752,132.721358 137.530752,132.721358 C137.530752,132.719137 141.18758,133.16588 141.18758,133.16588 C143.12951,141.619643 144.835011,148.802233 146.712259,156.381903 L145.330168,163.797634 L153.089964,163.841005 C153.092175,163.841005 154.454051,156.851774 154.454051,156.851774 C154.454051,156.853995 150.696422,142.187211 148.763706,134.13904 L152.712063,134.663052 C152.709668,134.660831 147.486101,126.069219 147.486101,126.069219 C147.483889,126.066998 132.261539,123.760014 132.261539,123.760014 L132.261483,123.758756 Z M159.623201,127.531752 C159.625412,127.531752 156.556617,132.710441 156.556617,132.710441 C156.556617,132.708221 159.400039,143.913601 159.400039,143.913601 L165.543894,149.334497 L170.989517,149.815156 L173.116648,156.974247 L168.004753,156.674495 L161.217765,150.831169 C161.213158,150.824323 164.881781,163.985867 164.881781,163.985867 C164.881781,163.983647 178.241994,164.423154 178.241994,164.423154 C178.244205,164.425375 181.103291,159.392492 181.103291,159.392492 C181.101448,159.392492 177.788484,148.897636 177.788484,148.897636 L171.309978,142.73587 C171.312189,142.73587 166.116264,142.132349 166.116264,142.132349 L164.453443,135.898421 L173.883358,137.286164 C173.885569,137.286164 168.139019,129.003001 168.139019,129.003001 C168.143626,129.003001 159.623311,127.528514 159.623311,127.528514 L159.623201,127.531752 Z M170.158051,129.367626 C170.15584,129.363 175.441693,137.491661 175.441693,137.491661 C175.441693,137.489441 179.64196,138.145788 179.64196,138.145788 C181.952448,145.757653 183.970854,152.028959 186.163771,158.412393 L185.451128,164.769184 L192.714293,165.19202 C192.716136,165.19424 193.383741,159.135167 193.383741,159.135167 C193.383741,159.135167 188.991456,146.617351 186.62808,139.262681 L191.641754,140.086649 C191.643596,140.086649 186.289744,132.360063 186.289744,132.360063 L170.158162,129.367719 L170.158051,129.367626 Z M187.588984,132.605694 C187.588984,132.605694 191.572539,138.297478 192.217514,139.247989 C193.710173,145.57832 195.453819,152.410273 197.400356,159.562703 L196.831671,165.467829 C196.833514,165.47005 206.171658,166.179779 206.171658,166.179779 C206.173501,166.175153 204.278562,160.542025 204.278562,160.542025 L206.772776,160.795001 C207.71949,162.631448 209.792553,166.494186 209.792553,166.494186 C209.794396,166.494186 216.94773,167.159137 216.94773,167.159137 C216.949573,167.159137 207.693986,151.066494 202.997272,141.443325 L202.982529,141.407189 L202.957283,141.37466 C201.402431,139.191277 198.328752,134.721448 198.328752,134.721448 C198.330595,134.723668 187.588799,132.607267 187.588799,132.607267 L187.588984,132.605694 Z M199.523985,134.954681 C199.525828,134.956902 205.019916,142.399277 205.019916,142.399277 L205.203458,142.428198 L209.000707,143.111227 C211.77871,149.950396 214.266842,155.627932 217.044845,161.451829 L217.170892,167.187095 C217.172735,167.184875 224.138842,167.909869 224.138842,167.909869 C224.140685,167.905243 223.930091,162.228817 223.930091,162.228817 L223.92272,162.124015 C223.92272,162.121795 223.875913,162.026447 223.875913,162.026447 C221.010378,156.401461 218.437661,150.902111 215.590554,144.321801 L220.283951,145.199984 C220.285793,145.199984 216.359733,140.356019 214.694406,138.214269 L199.523837,134.954552 L199.523985,134.954681 Z M216.227753,138.420339 C216.227753,138.420339 220.174268,143.533526 220.651181,144.155605 C220.651181,144.155605 226.572428,157.033124 229.868807,163.075174 L230.423081,168.633365 C230.421238,168.626518 244.445593,170.429475 244.445593,170.429475 L243.308261,164.303975 C243.310103,164.306195 236.350999,163.299304 236.350999,163.299304 C235.160097,161.256916 233.075627,157.271317 233.075627,157.271317 L236.836758,157.874837 L233.334723,151.503429 C233.336566,151.50565 229.865122,150.892674 229.865122,150.892674 C229.865122,150.892674 228.120812,147.992475 227.432089,146.588449 L234.025769,147.893076 C234.027611,147.893076 228.054767,140.994141 228.054767,140.994141 C228.05661,140.994141 216.227753,138.421079 216.227753,138.421079 L216.227753,138.420339 Z" id="Shape" fill="#CEA052" transform="translate(128.865759, 148.183549) rotate(-360.000000) translate(-128.865759, -148.183549) "></path>
                <path d="M61.9722025,120.111118 C58.3054228,120.106492 54.0364199,120.144942 50.7931129,120.291821 L55.5261298,128.741143 C55.5261298,128.741143 55.5693248,128.820355 55.5693248,128.813417 L60.2374755,159.719389 L60.2518492,159.80974 C60.2518492,159.80974 58.8287377,166.495518 58.1606533,169.849231 C58.1606533,169.849231 66.3442909,168.553431 68.9726595,168.215746 C68.9726595,168.215746 65.7573629,148.169329 65.7549672,148.169329 C65.7549672,148.169329 71.2783559,147.96102 71.2761446,147.963333 L74.5010237,167.539767 C75.4753979,167.421809 79.9361428,166.831574 81.2675572,166.690505 L78.1147311,148.483681 C78.1147311,148.483681 73.2018581,143.750736 73.2018581,143.753141 L76.5391473,139.038514 L74.8990659,129.183685 L69.5476094,120.191108 C68.7079983,120.1645 65.64182,120.116225 61.9748561,120.111599 L61.9722025,120.111118 Z M76.027147,120.284586 L80.5548773,128.405106 L80.5980723,128.477379 L80.612446,128.556888 C80.612446,128.556888 85.5625433,157.590331 85.5649389,157.590331 L85.5433415,157.680683 C85.1632664,159.468559 83.8877069,166.317998 83.8877069,166.317998 C84.8874195,166.206978 89.2426648,165.602144 90.5534399,165.47956 L92.3151453,157.240065 L87.2843339,129.694282 C86.4712037,128.264907 83.3929183,122.065764 82.5981239,120.659517 C80.4005991,120.513804 78.3215656,120.396993 76.0295058,120.283679 L76.027147,120.284586 Z M49.1887817,120.349643 C45.9823304,120.432908 43.1368814,120.551014 40.158383,120.729108 L42.9116927,125.575293 L44.1534186,144.328333 L43.2284311,144.516252 C43.0303314,143.954216 38.3970093,130.779627 35.8032851,121.205863 C35.3379812,121.215114 33.1008364,121.232322 32.4236118,121.260077 C32.4788955,131.790645 31.9698253,146.550314 31.9629148,146.626177 L31.0199233,146.673157 C30.8964565,145.984836 28.005122,129.959175 25.8932869,121.752985 C22.1303137,122.161907 18.7377409,122.618937 15.1173994,123.209191 C15.7376819,123.917865 20.2174997,128.987754 20.2174997,128.987754 L28.139277,163.945937 L28.1176795,164.047131 C27.2469622,168.023109 26.4714064,171.73227 25.6306528,175.944164 C28.9867384,175.15315 36.8924835,173.530045 36.8924835,173.530045 C36.8118615,163.929081 36.8910442,154.86027 37.1444294,145.042447 L38.0730288,144.915959 L46.2323415,171.951052 C47.6512883,171.664252 51.3300461,171.034272 53.2327248,170.715091 C52.1915495,152.877962 49.5534141,124.283045 49.1872521,120.351105 L49.1887817,120.349643 Z M89.121999,120.714638 C89.748547,121.896533 92.3444825,126.923773 93.1783441,128.466573 L98.2568837,156.49159 C98.2568837,156.49159 98.2712575,156.579628 98.2712575,156.581941 L98.2568837,156.672293 L96.6984379,164.944539 L98.5412259,164.8036 C104.025732,164.382651 109.216313,163.987292 114.827603,163.737498 L116.454434,156.25312 L113.733373,142.798485 L105.628054,142.440706 L106.995753,149.607013 C106.995753,149.607013 108.822841,149.628699 108.820537,149.628699 C108.820537,149.628699 110.226529,156.781869 110.224226,156.784274 C110.224226,156.784274 104.906861,156.870999 104.90465,156.870999 L99.6066339,128.607291 C99.6066339,128.607291 104.90336,129.008441 104.900964,129.008441 L106.42342,137.103611 L112.679686,137.479227 L111.848588,133.225331 L111.275481,130.298117 L106.388407,122.062322 C101.889793,121.574299 89.1231415,120.714324 89.1231415,120.714324 L89.121999,120.714638 Z M112.858952,122.311987 L117.059219,129.528993 L117.098802,129.601266 L117.116861,129.680775 C119.17157,140.031121 120.762818,147.851888 122.432936,155.838814 L122.454534,155.936382 L120.964474,163.33768 C120.964474,163.33768 125.824274,163.116788 127.16951,163.077487 L128.58759,155.987043 C128.58759,155.987043 126.592404,146.798146 126.590008,146.800552 C126.590008,146.800552 131.387707,147.02953 131.387707,147.031842 L133.370915,156.128038 C133.119836,157.397823 132.484645,161.898275 132.291152,162.969243 L138.319833,162.878892 C138.508719,161.736317 139.0676,157.172676 139.277217,155.932958 C137.468981,148.249486 135.796559,140.89611 133.864027,132.121131 L129.368546,124.434328 L123.728693,123.668182 L127.84972,130.639465 L129.965978,140.50188 L125.182653,140.144102 L123.217503,130.653972 L118.729393,123.021383 L112.859192,122.31306 L112.858952,122.311987 Z M134.089713,124.982745 L138.10994,131.827466 L141.964684,132.30089 L147.665902,156.453177 L146.474576,162.849749 L152.308843,162.882278 L153.478571,156.883156 L147.514756,133.006567 L150.858495,133.451089 L146.899449,126.938871 C142.338549,126.207993 138.326062,125.596664 134.089861,124.983818 L134.089713,124.982745 Z M160.108038,128.582182 L157.574204,132.857357 L160.284393,143.532805 L165.780324,148.393607 C165.780324,148.393607 171.719077,148.922541 171.719077,148.924854 C171.719077,148.924854 174.411206,158.004397 174.411206,158.006617 C174.411206,158.006617 167.628088,157.613997 167.630299,157.61631 L162.976522,153.604806 L165.60747,163.044422 L177.704453,163.449181 L180.065433,159.28595 C179.019651,156.071011 178.053108,153.010944 176.952042,149.423535 C174.844261,147.45516 172.955588,145.658494 170.88024,143.648487 L165.36625,143.00883 C165.36625,143.00883 163.158589,134.741579 163.156378,134.7438 L171.819693,136.019506 C170.421478,134.035033 169.084074,132.091637 167.579807,129.875873 L160.107854,128.582089 L160.108038,128.582182 Z M172.154528,130.696363 L176.002085,136.608705 L180.375021,137.291734 L187.119994,158.411339 L186.508133,163.875532 L191.867329,164.18994 L192.421622,159.141329 C190.079069,152.755489 185.244883,138.067982 185.244883,138.064281 L189.553138,138.772604 C188.327702,137.028673 187.112549,135.270865 185.72364,133.22163 C181.183379,132.345039 176.929855,131.5536 172.154638,130.695567 L172.154528,130.696363 Z M189.632267,133.981429 C190.17589,134.777069 192.37065,137.780145 193.047875,138.7771 C193.047875,138.7771 196.378346,152.187513 198.338704,159.395267 L198.360264,159.478384 L197.867171,164.588425 L204.810059,165.119672 C204.810059,165.119672 202.902405,159.439916 202.902405,159.442136 C202.902405,159.442136 207.379827,159.892579 207.379827,159.890266 C207.379827,159.890266 209.347556,163.674365 210.388732,165.589451 L215.157683,166.033973 C210.624424,158.482428 206.698917,151.196775 202.161051,141.896488 C200.645358,139.773241 199.281879,137.813562 197.759184,135.579295 L189.63212,133.981947 L189.632267,133.981429 Z M201.743623,136.391847 C203.005933,138.1219 204.222542,139.768134 205.55156,141.523537 L209.68346,142.26078 C209.68346,142.26078 215.125397,155.220824 217.947258,161.132241 L218.105554,166.321847 L223.147975,166.845858 L222.982493,162.364557 C220.00639,156.519752 214.004798,143.050869 214.002586,143.050869 L217.900452,143.780878 C216.61741,142.203476 215.395918,140.65901 214.052894,138.938208 L201.743623,136.390311 L201.743623,136.391847 Z M218.663366,139.926337 C219.121759,140.523067 221.470669,143.659552 221.470669,143.659552 L221.49223,143.71014 C221.49223,143.71014 227.448489,156.664632 230.749291,162.701871 C230.749291,162.701871 230.796098,162.78991 230.796098,162.792223 L230.803469,162.886182 L231.289357,167.768634 C235.345702,168.254344 239.096513,168.735576 243.256607,169.304551 C243.023955,168.074085 242.759497,166.672835 242.489989,165.148537 C242.489989,165.148537 235.765471,164.1751 235.763076,164.172787 L231.181352,155.998053 L235.039781,156.616024 C234.261203,155.214403 233.525525,153.863481 232.714735,152.362498 L228.924858,151.69392 C228.924858,151.69392 225.725225,145.27792 225.725225,145.275514 L231.451504,146.410281 C230.039468,144.798186 228.792361,143.348549 227.539265,141.856818 L218.663661,139.926929 L218.663366,139.926337 Z" id="Shape" fill="#FFFFFF" transform="translate(129.187003, 148.027459) rotate(-360.000000) translate(-129.187003, -148.027459) "></path>
                <path d="M62.6208639,128.27105 C62.6254708,128.27327 64.4745244,139.969357 64.4745244,139.969357 C64.4767357,139.969357 69.9813279,139.893457 69.9813279,139.893457 C69.9835393,139.895677 68.1169793,128.314495 68.1169793,128.314495 L62.6210481,128.271124 L62.6208639,128.27105 Z M198.349576,141.169107 L197.456985,141.497966 C198.021339,143.510194 200.703424,154.504452 200.703424,154.504452 L205.875393,155.028464 C205.875393,155.028464 199.533438,143.743334 198.349447,141.169163 L198.349576,141.169107 Z" id="Shape" fill="#CEA052" transform="translate(134.248129, 141.649757) rotate(-360.000000) translate(-134.248129, -141.649757) "></path>
                <path d="M172.266754,69.7341803 C171.783022,69.7341803 171.388555,70.1279479 171.388555,70.615971 C171.388555,71.1039941 171.783022,71.4977617 172.266754,71.4977617 C172.752789,71.4977617 173.148565,71.1039941 173.148565,70.615971 C173.148565,70.1279479 172.752807,69.7341803 172.266754,69.7341803 Z M177.305673,71.8267124 C176.821942,71.8267124 176.427474,72.22048 176.427474,72.7085031 C176.427474,73.1942133 176.821942,73.5902938 177.305673,73.5902938 C177.791709,73.5902938 178.183872,73.1942133 178.183872,72.7085031 C178.183872,72.22048 177.791709,71.8267124 177.305673,71.8267124 Z M173.710025,73.6553512 C173.226293,73.6553512 172.831826,74.0491188 172.831826,74.5371419 C172.831826,75.0228521 173.226293,75.4189326 173.710025,75.4189326 C174.193757,75.4189326 174.588224,75.0228521 174.588224,74.5371419 C174.588224,74.0491188 174.193757,73.6553512 173.710025,73.6553512 Z M63.7398048,129.237252 L65.2838585,139.00197 L68.8686341,138.95499 L67.3065764,129.262435 L63.7398601,129.237141 L63.7398048,129.237252 Z M199.396648,145.33008 C199.53025,145.912933 200.766079,151.386378 201.441037,153.627676 C201.874092,153.671621 203.846797,153.845959 204.201534,153.880652 C203.337727,152.233864 200.087694,146.595369 199.396648,145.330117 L199.396648,145.33008 Z" id="Shape" fill="#161A21" transform="translate(133.970669, 111.807416) rotate(-360.000000) translate(-133.970669, -111.807416) "></path>
            </g>
        </g>
    </g>
</svg>