<?xml version="1.0" encoding="UTF-8" standalone="no"?>
<svg width="250px" height="250px" viewBox="0 0 250 250" version="1.1" xmlns="http://www.w3.org/2000/svg" xmlns:xlink="http://www.w3.org/1999/xlink">
    <!-- Generator: Sketch 47.1 (45422) - http://www.bohemiancoding.com/sketch -->
    <title>DRAKE</title>
    <desc>Created with Sketch.</desc>
    <defs></defs>
    <g id="Page-1" stroke="none" stroke-width="1" fill="none" fill-rule="evenodd">
        <g id="DRAKE" fill-rule="nonzero">
            <g id="Group" transform="translate(6.000000, 0.000000)">
                <path d="M180.376415,77.9371666 C176.795963,68.464404 169.760751,59.3576593 161.040057,52.4328185 L179.345683,101.400555 C179.514314,101.190231 179.679439,100.978269 179.836404,100.763629 C183.657561,95.4745608 183.852918,87.1581417 180.375977,77.9372212 M226.447291,123.145353 C217.390869,135.083 203.772828,142.713655 187.345741,145.293262 C196.75925,151.878853 197.56379,160.130645 197.620749,161.820883 C207.236351,166.705966 204.580655,174.153503 204.035167,175.423639 C204.829411,177.758725 205.22363,180.182692 205.211965,182.630369 C205.184033,189.868783 201.638468,196.56418 195.476421,201.033969 C194.074034,217.772461 179.314958,223.691572 174.504145,225.176949 C171.803978,229.337316 167.411701,232.063003 166.396851,232.655733 C164.723473,243.126031 161.05468,248.432745 155.49749,248.432745 C151.212339,248.432745 146.857304,245.2379 143.889979,242.474301 C141.213087,243.228298 138.321178,243.609776 135.279915,243.609776 C134.651947,243.609776 134.065875,243.593387 133.529807,243.566072 C128.98418,247.188503 124.584016,249.025093 120.447396,249.025093 C114.878595,249.025093 110.965428,245.767206 108.620814,242.955205 C100.325118,242.863973 96.3851148,238.944468 94.1363444,235.99267 C93.2595649,234.838074 91.9501737,233.419072 90.2419078,231.765927 C22.6583066,218.873355 10.3683875,160.310486 8.59390721,148.729023 L8.63224474,148.647079 C8.44849841,148.399607 -9.67447694,123.396758 9.9881339,69.2867425 C8.88105536,67.91494 3.63396095,60.4383955 11.0288885,49.7779866 C10.8149103,48.6357921 9.49390828,42.3472763 5.70183294,39.3830773 C3.26679688,37.4801118 1.85739948,34.0737414 2.10626486,30.707906 C2.36674104,27.1991597 4.32732269,24.1856849 7.63234701,22.1993548 C7.69396091,20.758883 8.61263783,14.669765 19.8308037,13.5782667 C20.4238854,12.8501642 22.8438055,10.3170469 27.8345861,10.3170469 C30.331236,10.3170469 33.1081881,10.9641338 36.0793473,12.2413725 C36.3095916,12.2031319 36.7654249,12.1424931 37.3782778,12.1424931 C40.9203376,12.1424931 49.4918442,14.0443113 53.2374216,31.4917307 C54.8224049,30.719706 57.0702442,29.9252285 59.6365042,29.9252285 C61.2796511,29.9252285 62.87274,30.255191 64.3774884,30.9020594 C64.8484376,30.7217819 66.0287409,30.3416149 67.7521227,30.3416149 C71.4593625,30.3416149 77.2455923,32.0577474 83.7449002,40.2230065 C93.8709391,52.9473195 101.594857,59.925151 108.315975,65.4044941 L98.8953472,40.192414 L90.0519727,40.192414 L74.0055227,0.849310197 L135.701574,0.849310197 C179.56355,0.849310197 220.794476,29.8253657 233.74161,69.7535519 C240.159314,89.5638628 237.574432,108.54599 226.452549,123.193263" id="Shape" fill="#004477" transform="translate(119.016790, 124.937202) scale(-1, 1) rotate(-180.000000) translate(-119.016790, -124.937202) "></path>
                <path d="M120.040799,8.02806909 C117.826248,8.10318253 116.962054,9.51718301 116.070126,10.3583469 C114.288635,12.0418545 113.433117,13.5255055 107.829089,14.1568045 C102.223045,14.7892398 101.547428,17.0165081 100.700498,18.0833138 C99.8539171,19.1512558 99.12546,20.3083095 96.9951198,22.009823 C94.8659187,23.7124729 92.7762819,25.6034417 92.7762819,25.6034417 C88.843464,29.2709633 81.9348646,34.7514864 97.9279706,33.8319619 C113.920639,32.9137049 121.573249,16.6476931 121.880388,16.0174867 C122.189717,15.3872803 122.642012,15.5394563 122.642012,15.5394563 C123.094395,15.5394563 123.22391,16.1198843 123.22391,16.1198843 C122.351742,33.8224782 104.385063,41.4627475 92.4171797,41.4627475 C80.4523629,41.4627475 78.8277277,34.036626 78.8277277,34.036626 C63.5010375,61.46896 82.7299632,77.1257868 82.7299632,77.1257868 C65.9906991,67.8789719 65.9100807,54.2014827 66.9668823,47.8050188 C61.2223857,54.9824666 57.8618268,65.8157234 57.8618268,65.8157234 C56.6978115,43.2528483 75.2679449,29.5639962 75.2679449,29.5639962 C75.2679449,29.5639962 50.5584164,36.2043263 31.7616314,63.8696006 C12.9665991,91.5383712 18.088494,116.034258 18.088494,116.034258 C15.0810786,113.093003 13.58701,107.787382 13.58701,107.787382 C0.459360938,137.685038 18.5590599,181.637783 18.5590599,181.637783 C9.99116804,189.798562 18.9869331,197.232987 18.9869331,197.232987 C19.0869393,210.194611 9.9589908,216.984845 9.9589908,216.984845 C10.7125096,225.287661 19.5276019,221.038357 20.0822913,220.74917 C20.6381199,220.458541 20.9188821,220.280186 21.4514891,220.646729 C21.9875574,221.017117 21.4857081,221.713709 21.4857081,221.713709 C19.5169989,224.989559 15.6579643,226.698546 15.6579643,226.698546 C22.3606802,231.576745 28.322934,224.65846 28.322934,224.65846 C28.322934,224.65846 28.9188527,223.900988 29.4781864,224.20604 C30.0375201,224.511965 29.8290428,225.093748 29.8290428,225.093748 C29.4883338,227.828284 26.9879465,231.384886 26.9879465,231.384886 C34.8429792,232.375211 37.7978175,225.114289 37.8815029,224.931608 C37.9698983,224.753515 38.1170575,223.992679 38.8484851,223.992679 C39.5834267,223.992679 39.6186534,224.905997 39.6186534,224.905997 C39.9244774,226.239526 39.4646197,228.866639 39.4646197,228.866639 C43.0183123,225.767527 45.1512814,220.289364 46.4302216,214.457988 C36.7599612,212.740435 37.881608,203.859857 37.881608,203.859857 C37.881608,203.859857 32.7088885,198.904739 38.0698738,190.321782 C41.6700972,184.554651 46.1246999,184.005296 48.1931744,184.107562 C47.8908555,179.717532 46.966899,173.876105 44.4621214,168.119899 C39.4909478,156.697517 39.6184475,150.851719 39.6184475,150.851719 C40.4068863,149.267288 42.9301973,147.701998 42.9301973,147.701998 C33.4400138,141.116735 35.7674309,130.852062 35.7674309,130.852062 C35.9814069,134.500398 42.623497,145.505017 54.6452723,143.87793 C66.6635426,142.252986 72.6757447,145.422941 72.6757447,145.422941 C71.3500984,145.422941 69.1511887,144.467624 58.3506501,148.239772 C53.2537293,150.018903 49.8778353,150.300442 47.7138456,150.109107 C51.3291849,154.482093 59.5831471,159.927129 69.0049803,157.236733 C81.2405696,153.743676 81.410131,163.547101 92.0758529,160.045041 C95.5993136,158.887069 98.4775644,157.039324 100.778693,155.085553 L89.226169,147.454461 C89.226169,147.454461 102.951007,128.586728 127.478268,115.607186 C108.821251,111.649385 95.3961027,119.200761 95.3961027,119.200761 C105.786233,104.51197 120.672589,109.358703 135.214126,109.358703 C149.760483,109.358703 156.838688,99.3374594 156.838688,99.3374594 C158.501573,100.558408 171.10288,105.326605 180.953656,99.3287187 C190.799612,93.3330172 189.801959,85.6625924 189.801959,85.6625924 C182.548059,80.4671044 174.544058,82.6494454 174.544058,82.6494454 C181.061877,75.09265 190.899508,80.7997328 194.277593,80.4215652 C197.654539,80.0435288 201.666003,73.3026803 187.645418,73.3026803 C173.625709,73.3026803 165.811862,78.7787456 154.758822,90.3401049 C143.707095,101.899716 131.493851,103.049996 122.582455,103.049996 C113.666678,103.049996 108.436999,99.610039 108.436999,99.610039 C91.4054937,104.671794 85.4003019,116.451234 85.4003019,116.451234 C85.8794116,102.645693 99.1146248,96.4148663 103.721701,94.6592914 C102.552998,91.3958536 103.345161,88.5219901 103.345161,88.5219901 C107.600058,95.7645563 116.352759,96.0250299 116.352759,96.0250299 C110.312954,80.2432107 120.91383,76.2814763 120.91383,76.2814763 C115.862476,90.096195 124.85804,95.9568523 130.754967,95.9568523 C136.656318,95.9568523 144.905242,93.2440803 154.510657,83.3151391 C164.112567,73.3865476 170.264975,71.5697875 170.264975,71.5697875 C172.260455,66.620788 169.623183,60.2085909 169.623183,60.2085909 C179.890194,61.4003453 181.064418,68.6932143 181.064418,68.6932143 C186.913631,67.711893 193.857764,69.4273043 193.857764,69.4273043 C195.033434,66.323647 193.789282,61.7621239 193.789282,61.7621239 C195.635925,62.1177404 197.982445,63.7936437 197.982445,63.7936437 C197.899899,60.245433 194.876097,56.6489736 194.876097,56.6489736 C193.745775,58.0792187 190.700066,59.1755681 190.700066,59.1755681 C180.290219,58.0828898 176.126544,53.3026738 176.126544,53.3026738 C180.784007,50.7425149 188.432236,51.5699121 188.432236,51.5699121 C182.278514,48.2906536 168.454655,48.0125674 156.453034,57.8693539 C144.446594,67.7262715 145.704941,79.2347494 145.704941,79.2347494 C139.680033,68.7983216 145.87608,60.336424 145.87608,60.336424 C129.078543,54.4499816 121.84655,66.8578802 121.84655,66.8578802 C122.9873,54.7449811 133.612449,52.9920283 138.388211,52.8163397 C137.461407,50.1538269 137.742169,47.5981258 138.208485,45.8167657 C132.296618,43.9735213 127.84552,44.3144533 127.84552,44.3144533 C132.621282,38.5988921 141.148864,39.8553716 152.140127,45.0058448 C163.131389,50.1563181 168.581892,46.162243 168.972715,42.8121409 C169.366957,39.4619951 164.120717,35.8125669 164.120717,35.8125669 C164.120717,35.8125669 172.601856,35.5449521 177.359216,42.8204446 C178.212763,44.4994945 180.042844,45.7226281 181.954463,45.7226281 C184.305759,45.7226281 185.875451,43.8786407 185.454483,41.5998021 C185.320761,40.8694707 184.990007,40.1783851 184.538851,39.5853268 C179.169843,32.1963534 169.836953,31.0408293 169.836953,31.0408293 C159.159401,16.5906599 142.401735,25.0315797 142.401735,25.0315797 C143.7995,20.3177057 149.298987,18.8514488 149.298987,18.8514488 C143.178125,12.0852522 132.106244,13.7556051 132.106244,13.7556051 C125.810125,9.23664938 122.243639,7.96968104 120.031015,8.04485129 L120.040799,8.02806909 Z M144.712209,46.5331557 C144.325022,47.3163685 144.104636,48.1996627 144.104636,49.128059 C144.104636,52.4770684 146.906869,55.1971826 150.36877,55.1971826 C152.586345,55.1971826 154.533541,54.074174 155.648835,52.3974404 C154.859257,51.9249167 154.087512,51.4780033 153.321199,51.040224 C152.735139,51.8313035 151.786383,52.3547419 150.702592,52.3547419 C148.917596,52.3547419 147.467868,50.9580175 147.467868,49.2306314 C147.467868,48.797441 147.559483,48.3836113 147.724576,48.0099889 C146.703702,47.4899156 145.691591,46.9873239 144.714531,46.5328061 L144.712209,46.5331557 Z M173.242785,64.6889563 C173.242785,64.6889563 174.820977,67.2395878 174.415169,70.6042431 C175.383816,70.3513302 176.488376,70.0991165 177.701244,69.8786754 C176.829076,66.1077074 173.242698,64.6888689 173.242698,64.6888689 L173.242785,64.6889563 Z M197.614505,66.8143951 C197.614505,66.8143951 197.547426,68.6177382 196.715961,71.0225743 C197.5044,71.2793332 198.468271,71.6438652 199.454357,72.1322533 C199.619493,68.586359 197.614505,66.8143951 197.614505,66.8143951 L197.614505,66.8143951 Z M68.0905884,180.120436 C60.9602446,182.38494 59.9100152,183.593783 58.2411274,185.557605 C57.6899432,186.203545 57.0432437,186.968271 56.0931738,187.870839 C51.2753502,192.045847 48.510228,192.922542 47.0135305,192.889764 C45.8529766,192.867912 45.4509802,192.300115 45.4475188,192.292248 C45.4440312,192.297492 42.1817741,196.684463 43.1027512,200.401457 C43.1027512,200.401457 43.1189625,200.406702 43.1541016,200.401457 C43.4308329,201.969063 44.5739049,203.28428 46.2519061,204.029208 C46.2133495,204.395226 46.2137876,204.748483 46.2606689,205.096189 C46.5897584,207.516846 48.9536728,209.384958 52.2167887,209.517686 C52.7179808,209.545219 53.2247812,209.51748 53.7143625,209.457943 C54.6295561,211.107711 56.6218813,212.26695 59.1569783,212.377214 C60.941974,212.452603 62.6744802,211.987028 64.1119407,211.182182 C64.9933973,211.61865 66.0371423,211.894551 67.2012013,211.941882 C69.5978451,212.041833 71.9265766,211.187339 73.5336862,209.790833 C73.5450779,209.794168 73.5564696,209.802633 73.5678614,209.807878 C76.0994094,207.410908 79.0030288,204.213376 82.3136394,199.940471 C83.032282,199.014348 83.7346695,198.122007 84.4359179,197.243127 C80.8356945,199.182082 77.9895157,199.933479 75.7414026,199.820942 C67.7093599,199.424856 67.3667319,187.98862 68.0909827,180.120218 L68.0905884,180.120436 Z" id="Shape" fill="#FFFFFF" transform="translate(104.137674, 119.752863) rotate(-360.000000) translate(-104.137674, -119.752863) "></path>
                <path d="M127.44323,123.908847 C126.789684,124.043782 126.133839,124.189096 125.489604,124.299448 C113.096721,121.172125 76.3808617,109.157231 88.3602467,78.7493356 C89.4522093,78.8099744 90.6661948,79.0306778 92.0674866,79.4909317 C95.5909801,80.6489141 98.4747844,82.4967037 100.776132,84.4491636 L89.2184599,92.0825495 C89.2184599,92.0825495 102.936726,110.931927 127.443175,123.909175 M80.2031142,71.8483133 C77.8401527,67.0948876 75.5063277,61.7238203 68.5720531,59.5610367 L68.0824827,59.4037036 C67.1544953,49.3343863 67.9789714,33.4164303 84.4312516,42.2817124 C84.4849242,42.3090272 84.5370632,42.330879 84.5917216,42.3647493 C91.5466985,50.4657642 99.2191351,56.4045417 107.023562,62.5126708 C108.329448,63.5355544 110.958691,65.3372367 112.56717,66.3894017 L115.647591,74.6302681 L105.016592,81.6490717 C94.6714817,71.4038474 80.448803,71.8518096 80.2034428,71.8485318 M179.404559,151.236183 C179.404559,146.431023 172.859793,142.539706 164.785908,142.539706 C161.489208,142.539706 158.458571,143.194659 156.012089,144.28736 C153.163062,140.318305 145.526772,132.029037 128.675234,133.465247 C107.457598,135.273649 96.918609,130.026208 95.3938704,120.332305 C105.783891,135.021097 120.674738,130.174364 135.216166,130.174364 C149.761427,130.174364 156.835251,140.192329 156.835251,140.192329 C158.496964,138.971304 171.096814,134.209848 180.947371,140.208718 C190.794641,146.205403 189.797865,153.869381 189.797865,153.869381 C182.543855,159.06618 174.544454,156.886407 174.544454,156.886407 C177.405092,155.556287 179.404066,153.428248 179.404066,151.238259 M131.795964,226.009713 C119.510427,234.729681 117.840553,230.827274 116.070454,229.159543 C114.290114,227.477172 113.431901,225.99846 107.828979,225.367161 C102.221841,224.734714 101.543814,222.507686 100.698197,221.439733 C99.8516497,220.372928 99.1236746,219.209319 96.9944626,217.507827 C94.8652505,215.805188 92.7744308,213.912383 92.7744308,213.912383 C88.8404518,210.246031 81.9353137,204.77013 97.9294056,205.688452 C113.922183,206.607813 121.573808,222.87436 121.87996,223.504785 C122.19044,224.133844 122.642823,223.981701 122.642823,223.981701 C125.304598,227.855099 130.202437,226.562073 131.795636,226.009549 M116.34999,143.502552 C110.310185,159.285573 120.915388,163.242937 120.915388,163.242937 C115.863925,149.428218 124.851667,143.567561 130.749514,143.567561 C136.651304,143.567561 144.900447,146.287456 154.505643,156.216485 C164.107553,166.145404 170.264561,167.961837 170.264561,167.961837 C172.26003,172.911055 169.618026,179.31768 169.618026,179.31768 C179.884818,178.125936 181.060686,170.836989 181.060686,170.836989 C186.908803,171.819392 193.85666,170.10326 193.85666,170.10326 C195.032308,173.206928 193.786886,177.767785 193.786886,177.767785 C195.633495,177.412146 197.980191,175.734309 197.980191,175.734309 C197.897601,179.283645 194.875343,182.882585 194.875343,182.882585 C193.745043,181.452329 190.696004,180.347228 190.696004,180.347228 C180.287363,181.441075 176.123906,186.221543 176.123906,186.221543 C180.781205,188.782794 188.432994,187.952316 188.432994,187.952316 C182.279272,191.232656 168.449279,191.51733 156.447439,181.661724 C144.44067,171.804916 145.701427,160.293925 145.701427,160.293925 C139.676409,170.730352 145.868853,179.193015 145.868853,179.193015 C129.07263,185.080987 121.841623,172.668062 121.841623,172.668062 C122.982384,184.782163 133.606318,186.536864 138.382079,186.713318 C138.251841,187.085891 138.14833,187.456006 138.06344,187.822898 C136.45518,188.111889 134.763235,188.244638 133.001461,188.167064 C122.653064,187.710361 113.791069,180.685002 112.381343,172.143673 C106.503103,169.573408 102.286521,164.7075 101.719126,158.892732 C101.451639,156.13902 102.029605,153.492274 103.278533,151.124411 L103.327276,150.957791 C103.331931,150.968716 103.343706,151.006957 103.343706,151.006957 C107.598625,143.765265 116.349442,143.501951 116.349442,143.501951 M82.7241359,162.391207 C65.9848718,171.637804 65.9114828,185.319773 66.9685034,191.716346 C61.2238973,184.539117 57.8573139,173.69843 57.8573139,173.69843 C56.6932767,196.261524 75.2674849,209.955511 75.2674849,209.955511 C75.2674849,209.955511 50.5578468,203.313651 31.7609523,175.649797 C12.9646055,147.984305 18.0843098,123.487325 18.0843098,123.487325 C15.0783182,126.430109 13.5805254,131.730377 13.5805254,131.730377 C0.451561988,101.832721 18.555259,57.8766986 18.555259,57.8766986 C9.98846251,49.7155913 18.9808605,42.2843347 18.9808605,42.2843347 C19.0808667,29.3218369 9.95346581,22.5324773 9.95346581,22.5324773 C10.7081676,14.2309721 19.5236105,18.4756329 20.0795047,18.7637491 C20.6353443,19.053832 20.9109364,19.2362946 21.4424042,18.870823 C21.9796774,18.5004347 21.4818371,17.7983905 21.4818371,17.7983905 C19.513095,14.5236225 15.6523407,12.8154114 15.6523407,12.8154114 C22.3537422,7.93704789 28.320706,14.8567535 28.320706,14.8567535 C28.320706,14.8567535 28.9102826,15.6163227 29.4696273,15.3112713 C30.0289719,15.0053459 29.8266045,14.4267644 29.8266045,14.4267644 C29.4858933,11.6921734 26.9845881,8.13070962 26.9845881,8.13070962 C34.8399495,7.1404399 37.7957736,14.4043663 37.8806638,14.5857363 C37.9690593,14.7649212 38.109758,15.5254191 38.8411835,15.5254191 C39.5772642,15.5254191 39.6121513,14.6093909 39.6121513,14.6093909 C39.9179753,13.2747366 39.4586369,10.6504426 39.4586369,10.6504426 C43.0123623,13.7496312 45.145189,19.2256419 46.4240197,25.0567992 C36.7536498,26.7853326 37.8758443,35.6664026 37.8758443,35.6664026 C37.8758443,35.6664026 32.7057535,40.6223947 38.0676963,49.2052421 C41.6679196,54.9713903 46.1218651,55.518232 48.1904491,55.4171674 C47.8869254,59.8070881 46.9601428,65.6552899 44.4564825,71.4105122 C39.4852541,82.8324569 39.6154922,88.6800031 39.6154922,88.6800031 C40.403931,90.2644783 42.9273077,91.8230592 42.9273077,91.8230592 C33.4371242,98.4086505 35.7664034,108.678458 35.7664034,108.678458 C35.9803817,105.030133 42.6217028,94.0246297 54.6432591,95.6514975 C58.1853189,96.129506 61.1913104,96.1857744 63.6925609,96.0366358 C60.6400166,102.288987 64.5693404,108.36707 66.3159986,111.180491 C68.5754487,114.816415 73.1910143,116.817167 69.9778906,137.262274 C66.7637262,157.70738 82.722931,162.391863 82.722931,162.391863 M149.725992,228.493609 C149.725992,228.493609 152.123841,226.547923 154.161153,224.170063 C154.161153,224.170063 156.006612,224.346517 159.142842,223.719916 C159.142842,223.719916 158.553265,237.006913 149.726047,228.493609" id="Shape" stroke="#B2B4B3" stroke-width="0.984186847" fill="#B2B4B3" transform="translate(103.392466, 119.761513) scale(-1, 1) rotate(-180.000000) translate(-103.392466, -119.761513) "></path>
                <path d="M187.101915,178.290106 C181.173836,162.592854 166.753993,147.812831 150.372911,140.637787 L148.253009,139.708265 L176.184096,214.42509 L177.149271,214.010998 C180.683225,212.494045 183.57519,210.205122 185.739618,207.212898 C190.866661,200.115428 191.363187,189.573019 187.102517,178.289833 L187.101915,178.290106 Z M125.012137,197.709543 C124.989135,197.687691 124.985301,197.687691 125.007487,197.711837 L125.012137,197.709543 Z M99.7312698,206.374881 L124.24922,190.356953 L103.982903,136.127299 L94.9905595,136.127299 L84.3748954,110.095229 L135.965172,110.095229 C176.902541,110.095229 215.378641,137.110084 227.438535,174.334108 C233.187523,192.06795 230.962029,208.940284 221.174182,221.839958 C211.181776,235.010048 194.70978,242.262666 174.798906,242.262666 C128.764287,242.262666 99.7340082,206.373242 99.7340082,206.373242 L99.7312698,206.374881 Z" id="Shape" fill="#FFFFFF" transform="translate(157.470721, 176.178948) scale(-1, 1) rotate(-180.000000) translate(-157.470721, -176.178948) "></path>
                <path d="M174.801042,236.082699 C151.026292,236.082699 126.485339,224.660754 109.326005,207.522921 L119.317315,200.922579 C132.185583,213.820068 149.46924,222.373415 165.473519,222.373415 C190.367177,222.373415 202.732676,201.685208 193.102287,176.168295 C184.415549,153.164341 160.833034,134.096445 138.044107,130.548257 L168.70866,212.579977 C167.548128,212.675579 166.368975,212.74332 165.150279,212.74332 C155.594922,212.74332 145.580609,209.6892 136.327571,204.488796 L108.474802,129.941322 L99.3438964,129.941322 L93.7679754,116.269733 L135.971579,116.269733 C175.475125,116.269733 210.625718,143.087375 221.349275,176.176489 C232.06845,209.257955 211.234737,236.077782 174.803123,236.077782" id="Shape" fill="#004477" transform="translate(158.966054, 176.176216) scale(-1, 1) rotate(-180.000000) translate(-158.966054, -176.176216) "></path>
            </g>
        </g>
    </g>
</svg>