<svg width="500" height="500" viewBox="0 0 500 500" fill="none" xmlns="http://www.w3.org/2000/svg">
<g clip-path="url(#clip0)">
<path d="M487.262 181.825L482.222 180.565C479.853 179.973 451.516 173.547 441.991 171.443L429.265 168.696C415.922 165.936 402.326 163.442 388.844 161.275L374.733 159.259L373.069 159.032V32.2394H209.435L181.715 40.3159L137.49 32V155.894C131.19 156.625 124.815 157.419 118.59 158.276L105.587 160.141C99.1612 161.123 76.0531 165.18 75.8137 165.18H75.7003C69.2996 166.365 44.818 171.354 44.5786 171.405H44.4022C35.0532 173.471 20.2105 177.314 17.8166 177.919L12.7766 179.179L0.176758 200.17V269.558L19.3285 291.116L31.9284 287.878C40.3199 285.723 53.4363 282.662 57.2667 281.78L69.0728 279.26L105.184 272.758L119.523 270.603L124.487 269.923C128.834 269.331 133.231 268.764 137.616 268.235V363.275L108.825 467.804L275.143 429.147L323.287 378.219H373.006V271.611L382.091 272.972C394.892 275.026 407.82 277.395 420.495 280.016L432.717 282.636C442.091 284.703 458.824 288.155 468.135 290.549L480.912 293.812L499.937 272.027V202.728L487.262 181.825Z" fill="#D0CFCD"/>
<path d="M479.173 192.825C479.173 192.825 448.933 185.932 439.256 183.778L426.657 181.069C413.49 178.347 400.096 175.89 386.828 173.761L372.969 171.745L369.037 171.191C366.24 170.796 363.431 170.418 360.608 170.057V44.5999H211.086L182.245 53.004L149.712 46.8678V154.458C151.665 155.075 168.939 160.582 182.282 164.462C179.158 164.676 176.045 164.891 172.946 165.13L153.416 166.818L148.628 167.322C139.204 168.305 129.728 169.464 120.279 170.737L107.414 172.602C101.114 173.547 77.9304 177.566 77.9304 177.566C71.6305 178.713 47.0608 183.74 47.0608 183.74C37.3715 185.882 20.8027 190.179 20.8027 190.179L12.6758 203.686V264.77L23.5243 276.992L28.7154 275.669C38.1653 273.237 54.5577 269.457 54.5577 269.457L66.578 266.874L103.118 260.297L117.721 258.104L122.761 257.424C131.719 256.164 140.816 255.093 149.825 254.148V364.939L126.188 451.071L268.78 417.934L317.92 365.896H360.621V269.822C356.841 267.844 338.609 258.243 329.424 253.442C335.824 254.11 346.383 255.232 350.528 255.736L357.836 256.655C364.136 257.474 384.107 260.435 384.107 260.435C397.123 262.527 410.264 264.934 423.166 267.605L435.476 270.238C444.989 272.342 461.873 275.832 471.336 278.252L476.577 279.6L487.375 267.227V206.243L479.173 192.825ZM313.598 81.9458L288.676 112.274V163.593L262.077 162.61C260.389 162.61 240.582 162.408 240.582 162.408H235.441L225.122 162.547L222.325 162.623V155.264V112.274L197.415 81.9206L313.598 81.9458ZM197.415 330.163L222.35 299.81V249.499C227.541 249.373 232.77 249.297 237.936 249.272H246.756H250.737L259.557 249.436C264.597 249.524 282.237 250.217 288.537 250.469V299.86L313.283 330.1L197.415 330.163Z" fill="#003DA6"/>
<path d="M298.616 174.378C296.936 176.529 295.256 178.688 293.576 180.855L293.35 233.837C295.03 236.231 296.689 238.629 298.327 241.032C307.902 241.578 317.474 242.271 327.042 243.111L332.082 236.735L332.308 183.564C330.628 181.195 328.948 178.83 327.268 176.47C317.743 175.63 308.192 174.933 298.616 174.378ZM321.586 231.569C315.916 231.107 310.242 230.687 304.563 230.309L304.74 188.289L300.809 185.567C307.806 185.979 314.795 186.478 321.775 187.066L321.586 231.569Z" fill="white"/>
<path d="M477.006 221.212C477.006 217.155 477.006 213.098 477.006 209.041L472.13 201.115C462.63 198.679 453.092 196.407 443.516 194.299L438.551 199.969L438.476 222.346C440.013 224.807 441.542 227.268 443.062 229.73C450.698 233.661 458.321 237.701 465.931 241.851L465.868 255.244C460.391 253.884 454.898 252.573 449.387 251.313V246.475C445.725 244.551 442.054 242.649 438.375 240.767V253.304C440.013 255.874 441.647 258.453 443.276 261.04C452.852 263.157 462.394 265.429 471.903 267.857L476.83 262.376C476.83 254.547 476.863 246.727 476.931 238.915L473.604 233.182C465.599 228.738 457.577 224.4 449.538 220.166V209.444L445.456 205.878C452.344 207.407 459.219 209.02 466.082 210.716C466.082 212.191 466.082 213.677 466.082 215.164C469.719 217.155 473.361 219.171 477.006 221.212Z" fill="white"/>
<path d="M29.3702 199.238C27.7323 201.896 26.0817 204.542 24.4311 207.214L24.3429 229.578L28.904 234.858C36.5144 235.219 44.1415 235.689 51.7854 236.269L51.7224 249.662C46.2204 250.872 40.7143 252.132 35.204 253.442V248.604C31.5332 248.394 27.8751 248.205 24.2295 248.037V260.574L29.1182 266.004C38.6605 263.661 48.2196 261.469 57.7955 259.427L62.7724 251.641L62.8732 228.18L59.5091 224.022C51.4452 223.333 43.3981 222.753 35.3678 222.283V211.573L31.2476 209.91C38.1187 208.23 45.0025 206.626 51.8988 205.097V209.544C55.5779 209.834 59.2445 210.149 62.9362 210.477L62.9992 198.318L58.0853 192.698C48.4842 194.714 38.9125 196.894 29.3702 199.238Z" fill="white"/>
<path d="M201.686 174.051C195.084 174.378 188.477 174.798 181.866 175.311V185.302L185.533 186.121C181.753 201.241 177.973 216.361 174.193 231.481L170.413 232.892C170.413 236.252 170.413 239.578 170.413 242.871C176.579 242.342 182.74 241.884 188.897 241.498V231.519L185.117 230.675L187.234 221.943C192.223 221.615 197.221 221.33 202.228 221.086L204.269 229.528L200.489 230.788C200.489 234.148 200.489 237.474 200.489 240.767C206.688 240.456 212.887 240.204 219.086 240.011V230.032L215.306 229.062C210.796 210.674 206.255 192.337 201.686 174.051ZM190.207 210.59C191.795 203.82 193.378 197.05 194.958 190.279L199.456 210.061C196.369 210.225 193.294 210.401 190.258 210.59H190.207Z" fill="white"/>
<path d="M392.082 194.437L395.799 196.151L395.635 240.717L391.855 241.208C391.855 244.534 391.855 247.873 391.855 251.2C404.934 253.316 417.954 255.719 430.915 258.407L431.003 239.268C427.744 239.553 424.472 239.864 421.188 240.2V245.341C416.35 244.4 411.511 243.493 406.673 242.619L406.736 225.861C410.482 226.525 414.224 227.218 417.962 227.94C417.962 228.709 417.962 229.477 417.962 230.259C421.264 230.889 424.556 231.535 427.841 232.199L427.916 216.487C424.615 215.819 421.327 215.227 418.025 214.534C418.025 215.303 418.025 216.071 418.025 216.84C414.296 216.134 410.558 215.445 406.811 214.773L406.875 200.485L403.095 197.373C409.21 198.44 415.321 199.57 421.427 200.762V205.903C424.686 207.499 427.946 209.124 431.205 210.779L431.293 191.64C418.298 188.952 405.278 186.554 392.233 184.446L392.082 194.437Z" fill="white"/>
<path d="M98.8086 195.042L102.589 195.533C99.5898 201.413 96.5869 207.323 93.5797 213.261L86.3474 201.292L81.6602 199.137L88.439 197.877V186.802C82.265 187.885 76.0995 189.04 69.9424 190.267V200.246L73.6593 200.611C78.4221 208.784 83.1974 216.999 87.9854 225.257C87.9854 230.977 87.9854 236.701 87.9854 242.43L84.2054 244.194V254.173C90.3626 253.048 96.5407 251.989 102.74 250.998V241.019L98.9599 240.528V223.631C103.42 214.5 107.876 205.395 112.328 196.315L108.674 194.538C111.572 194.093 114.47 193.673 117.368 193.278V182.19C111.169 183.081 104.978 184.038 98.7961 185.063L98.8086 195.042Z" fill="white"/>
<path d="M130.068 180.464L125.029 187.86L124.802 240.855L129.766 247.155C139.006 245.945 148.3 244.883 157.65 243.967L162.69 236.659L162.753 222.636C159.435 223.904 156.125 225.202 152.824 226.529V233.396C147.221 233.976 141.618 234.61 136.016 235.299L136.192 193.202L132.412 191.275C139.283 190.435 146.15 189.645 153.013 188.906V195.861C156.314 196.491 159.615 197.138 162.916 197.801L162.979 183.501L157.939 177.327C148.649 178.225 139.359 179.271 130.068 180.464Z" fill="white"/>
<path d="M256.319 201.67L248.419 172.917C241.254 172.917 234.089 172.992 226.923 173.144V183.11L230.703 184.143L230.514 228.633L226.734 229.818V239.784C232.984 239.65 239.229 239.578 245.47 239.57V229.591L241.69 228.507L241.854 189.082C245.987 202.346 250.116 215.643 254.24 228.974H258.335C262.535 215.735 266.773 202.522 271.048 189.334L270.897 211.447V228.81L267.117 229.818V239.797C273.366 239.94 279.608 240.141 285.84 240.402V230.422L282.06 229.162L282.237 187.066L278.457 184.546C280.977 184.63 283.497 184.731 286.017 184.849V173.774C278.86 173.463 271.699 173.24 264.534 173.106C261.804 182.614 259.066 192.136 256.319 201.67Z" fill="white"/>
<path d="M380.755 238.398C378.336 232.837 375.925 227.285 373.523 221.741L379.432 216.311L379.546 189.271L374.594 181.938C363.036 180.3 351.452 178.889 339.844 177.705V187.671L343.624 189.17L343.359 233.598L339.579 234.303V244.282C345.803 244.921 352.019 245.622 358.227 246.386V236.42L354.447 234.858V221.388C357.307 221.728 360.155 222.081 363.015 222.447C365.064 227.209 367.122 231.976 369.189 236.748L365.409 237.34V247.306C371.734 248.146 378.034 249.045 384.309 250.003V240.023L380.592 238.36L380.755 238.398ZM368.319 212.064C363.758 211.46 359.189 210.88 354.611 210.326L354.686 192.686L350.906 189.876C356.727 190.556 362.544 191.287 368.357 192.068C368.366 198.755 368.353 205.42 368.319 212.064Z" fill="white"/>
</g>
<defs>
<clipPath id="clip0">
<rect width="500" height="435.804" fill="white" transform="translate(0 32)"/>
</clipPath>
</defs>
</svg>
