<?xml version="1.0" encoding="UTF-8"?>
<svg width="500px" height="500px" viewBox="0 0 500 500" version="1.1" xmlns="http://www.w3.org/2000/svg" xmlns:xlink="http://www.w3.org/1999/xlink">
    <!-- Generator: Sketch 59.1 (86144) - https://sketch.com -->
    <title>Team Logos / NCAA / Dark / EVAN</title>
    <desc>Created with Sketch.</desc>
    <g id="Team-Logos-/-NCAA-/-Dark-/-EVAN" stroke="none" stroke-width="1" fill="none" fill-rule="evenodd">
        <g id="UE" transform="translate(0.000000, 43.000000)" fill-rule="nonzero">
            <polygon id="Path" fill="#FFFFFF" points="211.52027 229.172297 226.030405 216.030405 226.030405 63.3783784 204.898649 44.6114865 204.898649 10.5574324 322.972973 10.5574324 322.972973 44.6114865 302.077703 63.3783784 302.077703 119.72973 488.902027 119.72973 488.902027 208.175676 454.695946 208.175676 434.256757 185.456081 302.077703 185.456081 302.077703 229.358108 406.081081 229.358108 406.081081 294.847973 302.077703 294.847973 302.077703 338.75 434.256757 338.75 454.695946 315.743243 488.902027 315.743243 488.902027 404.256757 204.898649 404.256757 204.898649 369.983108 226.030405 351.672297 226.030405 294.847973 93.1587838 294.847973 31.402027 239.915541 31.402027 63.3783784 10.4898649 44.6114865 10.4898649 10.5574324 128.597973 10.5574324 128.597973 44.6114865 107.702703 63.3783784 107.702703 216.030405 122.263514 229.172297"></polygon>
            <path d="M211.52027,229.172297 L226.030405,216.030405 L226.030405,63.3783784 L204.898649,44.5945946 L204.898649,10.5574324 L322.972973,10.5574324 L322.972973,44.5945946 L302.077703,63.3783784 L302.077703,119.72973 L488.902027,119.72973 L488.902027,208.175676 L454.695946,208.175676 L434.256757,185.456081 L302.077703,185.456081 L302.077703,229.375 L406.081081,229.375 L406.081081,294.864865 L302.077703,294.864865 L302.077703,338.783784 L434.256757,338.783784 L454.695946,315.777027 L488.902027,315.777027 L488.902027,404.290541 L204.898649,404.290541 L204.898649,369.932432 L226.030405,351.621622 L226.030405,294.847973 L93.1418919,294.847973 L31.402027,239.864865 L31.402027,63.3783784 L10.4898649,44.5945946 L10.4898649,10.5574324 L128.597973,10.5574324 L128.597973,44.5945946 L107.702703,63.3783784 L107.702703,216.030405 L122.263514,229.172297 L211.52027,229.172297 Z M194.256757,0 L194.256757,49.2905405 L215.692568,68.0743243 L215.692568,211.334459 L207.483108,218.547297 L126.25,218.547297 L118.040541,211.334459 L118.040541,68.0743243 L139.155405,49.4932432 L139.155405,0 L0,0 L0,49.527027 L21.0304054,68.1081081 L21.0304054,244.611486 L89.3581081,305.422297 L215.692568,305.422297 L215.692568,346.739865 L194.324324,365.320946 L194.324324,414.864865 L499.273649,414.864865 L499.273649,305.422297 L449.983108,305.422297 L429.797297,328.192568 L312.652027,328.192568 L312.652027,305.422297 L416.875,305.422297 L416.875,218.800676 L312.652027,218.800676 L312.652027,195.945946 L429.797297,195.945946 L449.983108,218.733108 L499.273649,218.733108 L499.273649,109.155405 L312.652027,109.155405 L312.652027,68.0743243 L333.783784,49.2905405 L333.783784,0 L194.256757,0 Z" id="Shape" fill="#F7921E"></path>
            <polygon id="Path" fill="#4B2884" points="21.0304054 21.0304054 118.040541 21.0304054 118.040541 40.152027 97.1452703 58.6824324 97.1452703 220.945946 118.040541 239.72973 215.692568 239.72973 236.587838 220.945946 236.587838 58.6824324 215.692568 40.152027 215.692568 21.0304054 312.652027 21.0304054 312.652027 40.152027 291.756757 58.6824324 291.756757 235.219595 236.587838 284.290541 97.1452703 284.290541 41.9763514 235.219595 41.9763514 58.6824324 21.0304054 40.152027"></polygon>
            <polygon id="Path" fill="#4B2884" points="302.077703 130.523649 478.378378 130.523649 478.378378 197.668919 459.375 197.668919 439.189189 174.898649 302.077703 174.898649"></polygon>
            <polygon id="Path" fill="#4B2884" points="395.743243 239.915541 395.743243 284.290541 291.756757 284.290541 291.756757 349.087838 439.189189 349.087838 459.375 326.317568 478.378378 326.317568 478.378378 393.682432 215.692568 393.682432 215.692568 374.898649 236.587838 356.131757 236.587838 298.378378 302.077703 239.915541"></polygon>
            <polygon id="Path" fill="#381460" points="21.0472973 40.152027 69.5439189 40.152027 69.5439189 228.040541 107.432432 262.263514 226.216216 262.263514 236.587838 284.290541 97.1452703 284.290541 41.9763514 235.219595 41.9763514 58.6824324"></polygon>
            <polygon id="Path" fill="#381460" points="264.206081 228.040541 264.206081 40.152027 215.709459 40.152027 236.638514 58.6824324 236.638514 220.962838 236.587838 220.945946 215.675676 239.746622 226.266892 262.263514"></polygon>
            <polygon id="Path" fill="#381460" points="118.040541 40.152027 69.5439189 40.152027 97.1452703 58.6824324"></polygon>
            <polygon id="Path" fill="#381460" points="312.702703 40.152027 264.206081 40.152027 291.807432 58.6824324"></polygon>
            <polygon id="Path" fill="#381460" points="277.027027 262.263514 291.756757 284.290541 395.709459 284.290541 381.300676 262.263514"></polygon>
            <polygon id="Path" fill="#381460" points="302.094595 152.736486 302.094595 174.898649 439.189189 174.898649 459.375 197.618243 478.344595 197.618243 464.628378 152.736486"></polygon>
            <polygon id="Path" fill="#381460" points="478.344595 393.733108 464.628378 371.621622 264.155405 371.621622 264.155405 273.766892 236.689189 298.429054 236.689189 356.165541 215.793919 374.949324 215.793919 393.733108"></polygon>
            <line x1="21.0304054" y1="244.611486" x2="89.3581081" y2="305.422297" id="Path" fill="#FFFFFF"></line>
        </g>
    </g>
</svg>