<?xml version="1.0" encoding="UTF-8" standalone="no"?>
<svg width="250px" height="250px" viewBox="0 0 250 250" version="1.1" xmlns="http://www.w3.org/2000/svg" xmlns:xlink="http://www.w3.org/1999/xlink">
    <!-- Generator: Sketch 47.1 (45422) - http://www.bohemiancoding.com/sketch -->
    <title>WICHST</title>
    <desc>Created with Sketch.</desc>
    <defs></defs>
    <g id="Page-1" stroke="none" stroke-width="1" fill="none" fill-rule="evenodd">
        <g id="WICHST" fill-rule="nonzero">
            <g id="Wichita_State_Shockers_logo" transform="translate(0.000000, 21.000000)">
                <path d="M40.5661765,107.54902 C29.8078431,107.356005 25.5220588,111.098284 21.7132353,114.35049 C18.9022059,116.75098 15.9948529,119.234069 10.7665441,121.06152 C4.01875,123.417525 0.230392157,130.26348 1.34252451,138.097059 C2.81776961,148.502941 13.2773284,160.562745 32.7518382,162.45 C32.8299632,162.457353 32.8958333,162.502083 32.9310662,162.570956 C34.6927083,166.042157 38.8746936,171.861642 47.0952819,171.861642 L47.2959559,171.860417 C47.416973,171.860417 47.518076,171.959926 47.5196078,172.081005 C47.5793505,175.035907 47.8872549,177.828554 48.432598,180.380637 L48.578125,180.994914 L48.8707108,181.463664 C49.0254289,181.708762 64.5876225,205.962439 95.5790441,207.108272 C96.6957721,207.1481 97.7834559,207.17114 98.8096814,207.17114 C117.209191,207.17114 122.658946,200.709743 123.988603,195.290012 C124.003922,195.224203 124.048284,195.170527 124.111152,195.141422 C128.283946,193.166912 134.844975,188.909804 142.410172,179.844853 C142.453064,179.79277 142.503676,179.766789 142.583272,179.766789 C142.687439,179.766789 142.71348,179.79902 142.756373,179.852574 C146.422059,184.555392 152.898775,190.636887 162.935294,192.899142 C162.968995,192.907721 163.74565,193.107475 164.629534,193.197855 C168.018015,199.778738 174.25723,203.790748 182.676103,204.800184 C183.575306,204.907414 184.483701,204.962561 185.373652,204.962561 C193.150858,204.962561 198.161642,200.953738 200.997426,197.591238 C204.954289,192.89614 207.222917,186.086949 206.918015,179.819179 C206.913113,179.738051 206.953309,179.662929 207.023775,179.620037 C213.276838,175.761213 213.125245,170.951164 212.478676,168.425184 C212.467647,168.385355 212.470098,168.345527 212.479902,168.305699 C212.553431,168.066728 212.630025,167.795588 212.706618,167.492279 L212.75723,167.280882 C213.325551,165.035172 214.653676,159.776225 211.317279,155.209804 C211.141115,154.96777 210.961887,154.733395 210.782659,154.500551 L210.585049,154.241667 C209.733333,153.13413 209.699632,153.089706 209.684314,152.276225 C209.546446,145.549755 205.827083,142.486029 202.144485,140.323039 L201.84424,139.935478 C200.301593,137.94712 197.089338,133.808027 190.802574,133.808027 C188.696201,133.808027 186.559314,134.273713 184.275368,135.226532 C183.040686,135.7106 176.565564,138.357659 170.340319,143.005331 C170.256127,143.065012 170.135049,143.062071 170.052328,142.986949 L169.791912,142.74951 C169.744363,142.711275 169.718382,142.654534 169.716789,142.59326 C169.711887,142.533578 169.732108,142.473775 169.771936,142.430882 C173.224755,138.656373 176.089338,134.728676 178.286029,130.756618 C178.325858,130.686152 178.416238,130.637132 178.520404,130.64326 C179.525306,130.807169 180.464277,130.886826 181.389522,130.886826 C186.882782,130.886826 191.179718,128.115748 194.90913,122.167463 C197.951409,117.319179 197.485723,113.463419 196.558885,111.082904 C195.639767,108.710355 193.813787,106.742218 191.301532,105.39663 C191.217341,105.352206 191.171324,105.26489 191.182047,105.172978 C191.4394,103.022243 191.270895,100.957292 190.678064,99.0363358 C190.656618,98.967402 190.669485,98.8969363 190.708701,98.8402574 C191.736581,97.3833946 192.908456,95.0841299 192.660294,92.3865809 C192.516299,90.7995711 191.796324,88.4742034 189.199755,86.3954044 C189.153799,86.3601716 189.124632,86.3080882 189.117034,86.2498775 C189.089461,86.0369485 189.057353,85.808701 189.018995,85.5666667 C189.003676,85.4793505 189.044975,85.3905025 189.118505,85.3430147 C189.195098,85.295527 189.294669,85.2985907 189.366667,85.3460784 C193.017157,87.8291667 196.678186,90.9083333 200.556863,94.7547794 C201.273775,95.4670956 202.114706,95.8255515 203.052206,95.8255515 C204.020343,95.8255515 204.729657,95.4318627 204.757108,95.4165441 C206.114338,94.670527 206.814461,93.0895833 206.46201,91.5715686 C206.422181,91.4061275 205.466299,87.4463235 202.347426,82.2286765 C202.301471,82.1505515 202.306127,82.0525123 202.361152,81.9805147 C202.404044,81.9238358 202.466912,81.8901348 202.597059,81.8977941 C203.611152,82.1719975 204.277451,82.3726716 204.452206,82.4262868 L204.988358,82.5932598 L205.51685,82.5932598 C206.760723,82.5932598 207.917341,81.9238358 208.530086,80.8469363 C208.554596,80.8040441 208.574449,80.761152 208.603615,80.6922181 L208.649571,80.5849877 C208.686336,80.5068627 208.775184,80.4578431 208.8625,80.4563113 C208.954412,80.4608456 209.032537,80.5191176 209.064706,80.6033701 C210.959559,85.8254289 213.959069,90.6325368 217.980147,94.8938113 C218.634252,95.5954044 219.559559,95.9982843 220.501593,95.9982843 L220.502819,95.9982843 C221.37598,96.0656863 222.331863,95.488174 222.371691,95.4636642 C222.515686,95.3732843 222.652022,95.2737132 222.776103,95.1664828 C222.85576,95.0990809 222.976777,95.0960172 223.059498,95.1587623 C224.886949,96.568076 226.857047,97.8854779 228.91587,99.0727328 C229.435172,99.3668505 230.024939,99.5231005 230.613174,99.5231005 L230.6144,99.5231005 L230.720159,99.5245711 C231.723529,99.5245711 232.619669,98.9332721 232.687071,98.8827206 C232.7606,98.8122549 232.878554,98.8030637 232.962806,98.8582108 C234.197488,99.6578431 235.563909,100.485049 237.025306,101.313848 C237.700858,101.696814 238.296752,101.753493 238.592463,101.753493 C238.662929,101.753493 238.711949,101.750429 238.713419,101.748958 C239.727512,101.747365 240.681801,101.313909 241.323713,100.563297 C241.375797,100.506618 241.421752,100.448407 241.463113,100.391728 C241.509069,100.338113 241.576471,100.30288 241.718934,100.318199 C242.495588,100.598529 243.309007,100.881924 244.177512,101.169914 C244.787194,101.301654 245.36011,101.369056 245.879473,101.369056 C247.665625,101.369056 248.276777,100.580147 248.281434,100.570956 C248.679718,100.17114 248.981495,99.6748162 249.146936,99.1356618 C249.545221,97.9055147 249.217402,96.5253676 248.338113,95.6460784 C247.83413,94.9521446 247.376103,94.3362745 246.93027,93.7465686 C246.870466,93.6684436 246.868995,93.5612132 246.924142,93.4830882 C246.974632,93.4141544 247.022181,93.3452206 247.068137,93.2716912 C247.932108,91.8776961 247.713051,90.1023284 246.535049,88.9533088 L246.46924,88.8905025 C245.297365,87.8044118 244.153064,86.8010417 243.069975,85.9110907 C242.997917,85.8528799 242.968873,85.7533088 242.99951,85.6644608 C243.44375,84.3669118 243.076103,82.9514706 242.039032,81.964951 C240.363174,80.4406863 238.58315,79.0191176 236.743444,77.7384804 C236.657659,77.6787377 236.623958,77.5653799 236.663787,77.4719363 C236.720404,77.3356005 236.769424,77.196201 236.807782,77.050674 C237.255086,75.4254289 236.464645,73.6820466 234.974203,73.0018995 C227.297978,69.2962623 220.361458,68.518076 215.893321,68.518076 C214.99565,68.518076 214.110233,68.5487132 213.259988,68.6115196 L212.870895,68.6421569 C212.824939,68.6421569 212.78511,68.6314951 212.751409,68.6130515 C208.442341,66.1238358 204.19136,63.9041054 200.11538,62.0137868 C200.018934,61.9693627 199.968321,61.8667279 199.991299,61.7640931 C200.015809,61.6599265 200.103186,61.5863971 200.210355,61.5863971 L200.524387,61.5863971 C201.621201,61.5863971 202.659804,61.0670956 203.303186,60.1939951 C204.107414,59.1186275 204.220772,57.6618873 203.591176,56.4822304 C203.551348,56.4071691 203.555882,56.3167892 203.606495,56.2478554 C203.649387,56.1881127 203.695343,56.1605392 203.825551,56.1559436 C204.099755,56.2034314 204.37549,56.2447917 204.67114,56.2892157 L205.225674,56.330576 C206.656434,56.3291054 207.95239,55.4114583 208.45337,54.0496936 C208.514645,53.878125 208.563664,53.7065564 208.597365,53.5349877 C208.617218,53.4323529 208.709252,53.3557598 208.81489,53.3557598 C211.117341,53.3327819 213.456434,53.1504902 215.76489,52.8165441 C217.131311,52.6342525 218.26489,51.6446691 218.65239,50.2966912 C218.678493,50.209375 218.756556,50.1450368 218.848468,50.1358456 C220.320527,50.0041054 221.890748,49.8095588 223.514522,49.5613971 C225.171998,49.3285539 226.429718,47.9713235 226.506189,46.3368873 C226.511091,46.2419118 226.512316,46.1591912 226.511091,46.0780025 C226.511091,45.9799632 226.572365,45.8941789 226.667341,45.8635417 C227.448591,45.603125 228.260478,45.3227941 229.063174,45.0317402 C230.385233,44.7927696 231.408517,43.9088848 231.796017,42.6741422 C231.966054,42.1747549 232.022733,41.6416667 231.959926,41.1314951 C231.776103,39.5598039 230.552083,38.3128676 229.017279,38.1060049 C228.17935,37.870098 227.424142,37.6648284 226.694975,37.4748775 C226.598529,37.4503676 226.529534,37.3630515 226.526471,37.2696078 C226.525245,37.1731005 226.517892,37.0765931 226.506495,36.9708946 C226.302757,35.3440564 224.968505,34.0726103 223.335539,33.9454044 C221.762255,33.8182598 220.241176,33.7386029 218.81201,33.7094975 C218.720098,33.708027 218.637377,33.6451593 218.60674,33.559375 C218.142586,32.2481005 216.955392,31.3397672 215.58125,31.249326 C213.337132,31.0869485 211.010172,31.070098 208.792034,31.1972426 C208.684804,31.1972426 208.592892,31.1313725 208.56685,31.0348652 C208.525551,30.892402 208.474939,30.7530025 208.415196,30.6166667 C207.868321,29.3252451 206.613725,28.4904412 205.213603,28.4904412 L204.796936,28.4996324 L204.461458,28.5731618 C193.269669,31.048652 186.391605,36.8881127 183.95288,39.2824755 C183.914645,39.3207721 183.867096,39.3422181 183.81348,39.3468137 C181.016299,39.5827206 178.330882,39.8998162 175.078799,40.2965686 C174.3144,40.1112132 173.537745,39.9365809 172.756495,39.7726716 C172.673775,39.7558211 172.609436,39.6945466 172.586458,39.611826 C172.565012,39.5321691 172.588909,39.4463848 172.652267,39.388174 C173.280331,38.8137255 173.675551,38.0264093 173.7644,37.1700368 C173.926777,35.5431985 172.967831,34.0496936 171.435968,33.5379289 C171.351777,33.5088235 162.794792,30.6151348 152.410233,30.6151348 C149.410846,30.6151348 146.515625,30.8556373 143.769056,31.3335784 C143.716973,31.3335784 143.666483,31.3151961 143.626593,31.2814951 C143.57598,31.2386029 143.545343,31.1788603 143.545343,31.1129902 C143.540441,30.7958946 143.491789,30.4803309 143.404412,30.1785539 C143.3875,30.1157475 143.397059,30.0498775 143.433578,29.9947304 C143.467279,29.9411152 143.523897,29.9043505 143.585233,29.8951593 C147.557292,29.2824142 151.475919,28.1441789 155.236581,26.5097426 C156.728615,25.8372549 157.5481,24.1643995 157.18511,22.5268995 L157.156066,22.4104779 C157.129963,22.3155025 157.169792,22.2174632 157.252512,22.163848 C158.983517,21.0685662 160.665502,19.8552696 162.252512,18.5594363 C163.269669,17.7352941 163.730699,16.4194853 163.45962,15.1280637 C163.439767,15.0422794 163.474939,14.9518995 163.545404,14.8998162 C164.580944,14.1277574 165.654718,13.2821691 166.737806,12.3844975 C168.021507,11.3106618 168.367708,9.49234069 167.56348,8.05998775 C167.509926,7.96654412 167.508333,7.81642157 167.558578,7.75667892 C167.92163,7.32775735 168.292341,6.88198529 168.640074,6.44846814 C169.496385,5.68253676 169.926838,4.61488971 169.808885,3.47199755 C168.972488,0.899938725 166.993321,0.517095588 165.887316,0.517095588 C165.260784,0.517095588 164.819608,0.63504902 164.793566,0.641176471 C163.963297,0.892401961 163.163664,1.14362745 162.32886,1.40557598 C162.264522,1.40557598 162.201716,1.37647059 162.157292,1.32591912 C161.503186,0.553860294 160.512071,0.0928308824 159.501042,0.0928308824 C158.620221,0.0989583333 157.904841,0.48192402 157.880331,0.495710784 C156.435723,1.23253676 155.089277,1.96776961 153.874449,2.68014706 C153.800919,2.72457108 153.704412,2.72303922 153.633946,2.67095588 C153.051838,2.26348039 152.341054,2.03982843 151.650123,2.03982843 L151.648897,2.03982843 C150.78799,1.98621324 150.048162,2.41819853 150.03125,2.43045343 C148.007721,3.48131127 146.057598,4.65618873 144.239338,5.92310049 C144.161275,5.97671569 144.047855,5.97518382 143.96973,5.91084559 C143.893137,5.84957108 143.816544,5.78829657 143.732292,5.72702206 C143.159375,5.33946078 142.486949,5.13265931 141.776164,5.13265931 L141.774939,5.13265931 C141.712194,5.13572304 140.218566,5.21231618 139.394424,6.08394608 C133.106189,12.0398284 130.367218,18.0738971 129.178493,22.0876225 C129.167463,22.1289828 129.141728,22.1657475 129.111091,22.1933211 C124.921385,25.8283701 121.563542,29.4712623 118.84614,33.3254289 C118.810907,33.3729167 118.758824,33.4066176 118.660784,33.4204044 C118.614828,33.4204044 118.570404,33.4050858 118.530576,33.3775123 C114.970527,30.7841299 109.155576,27.6130515 101.669056,27.2302083 C100.933762,27.2302083 100.429841,27.2746324 100.403738,27.2776961 C99.2579044,27.5212623 98.2867034,28.3530637 97.8731005,29.4498775 C97.3492034,30.8346814 97.7597426,32.4002451 98.8948529,33.3469363 C98.9117034,33.3622549 99.1721201,33.584375 99.564277,33.9719363 C99.6301471,34.0393382 99.6485294,34.1435049 99.6071691,34.2292892 C99.5688725,34.3089461 99.4953431,34.3533701 99.3773897,34.3533701 C96.4545956,33.9841912 93.0737132,33.9367034 90.1847426,34.2231618 C89.1369485,34.3334559 88.2086397,34.8987132 87.6371936,35.7780637 C87.577451,35.8715074 87.4487745,35.9067402 87.3476716,35.8546569 C85.2900735,34.8031863 83.1785539,33.8522059 80.8734069,32.9526961 C80.8329657,32.9379902 80.798652,32.9110294 80.7716912,32.8767157 C78.2692402,29.4637255 73.6319853,24.6634804 65.7631127,21.1745098 C65.0737745,20.8926471 64.5039216,20.8880515 64.3446078,20.871201 C63.2386029,20.871201 62.1801471,21.418076 61.507598,22.3371324 C61.4647059,22.3984069 61.4202819,22.4658088 61.3773897,22.5347426 C61.338174,22.6021446 61.2621936,22.6438113 61.1273897,22.6340074 C58.9987132,22.050674 56.780576,21.5960172 54.5195466,21.2822917 L53.9910539,21.245527 C52.8697304,21.2469975 51.8188725,21.7939338 51.1800245,22.7085172 C51.1386642,22.7682598 51.0957721,22.8203431 50.9548407,22.8004289 C49.545527,22.5308211 48.0197917,22.2841912 46.4036152,22.0727941 L45.9354779,22.0433824 C44.5092525,22.0433824 43.2440564,22.9272672 42.7077819,24.2968137 C42.6756127,24.3810662 42.5959559,24.4362132 42.505576,24.4377451 C41.6584559,24.4591912 40.8190564,24.4898284 40.0147672,24.5311887 L39.9090686,24.5295956 C39.4158088,24.5295956 37.7460784,24.6169118 36.9419118,25.7259804 C36.4777574,26.2728554 36.1989583,26.8856005 36.1116422,27.5458333 C35.8895221,29.123652 36.761152,30.6463235 38.2011029,31.2345588 C38.7755515,31.5761642 39.2780025,31.8748775 39.7666667,32.1598039 C39.8463235,32.2072917 39.8907475,32.2992034 39.8754289,32.3911152 C39.5874387,34.0592525 40.5249387,35.683027 42.1011642,36.2514093 C43.4185662,36.7354779 44.7068015,37.1720588 45.9293505,37.5473652 C46.0136029,37.5734069 46.0748775,37.6469363 46.0856005,37.7342525 C46.2525735,39.0318015 47.1456495,40.1408701 48.3588848,40.5590074 C50.3027574,41.2545343 52.3003064,41.838174 54.2978554,42.2946691 C54.3943627,42.3145833 54.4648284,42.3973039 54.4709559,42.4999387 L54.4816176,42.6209559 C54.6623775,44.2829657 56.014951,45.5851716 57.7031863,45.7167892 C59.6057598,45.8500613 61.6384804,45.8684436 63.5886029,45.7673407 C63.7356618,45.7673407 63.7831495,45.8776348 63.7984681,45.9281863 C63.8275735,46.0277574 63.7846814,46.1334559 63.6943015,46.1855392 C61.7472426,47.3053309 59.8922181,48.579902 58.1765319,49.9737745 C57.0398897,50.8959559 56.6064338,52.4431373 57.0950368,53.8248775 C57.583701,55.211152 58.8995711,56.1410539 60.3717525,56.1410539 C60.6275735,56.1410539 62.9621936,56.1455882 66.2541054,56.3003676 C66.3506127,56.304902 66.4348652,56.3693015 66.459375,56.4612132 C66.4854167,56.5561887 66.4487132,56.6557598 66.3689951,56.7078431 C60.6964461,60.5558824 56.7672794,65.5007353 54.6915441,71.4063725 C54.1186275,73.0148284 54.8003064,74.7901961 56.3199755,75.63125 L57.0920343,76.0341299 C57.1824142,76.0816176 57.229902,76.1842525 57.2053922,76.2853554 C56.5941789,78.826777 56.6784314,80.5699142 56.7320466,81.1137868 C56.8316176,82.2151961 57.441299,83.2108456 58.3588848,83.7716299 C58.3910539,83.7915441 59.1554534,84.2710172 60.1740809,84.2848039 C61.1207721,84.2848039 62.0566789,83.8849877 62.6802083,83.2155637 C62.9436887,82.9398284 63.2944853,82.5875 63.7157475,82.1800245 C63.7831495,82.1126225 63.8949755,82.0988358 63.9776961,82.1447917 C64.0650123,82.1907475 64.1094363,82.2887868 64.0910539,82.3852941 C63.8447304,83.6377451 63.2148284,86.5973039 63.1094363,87.8669118 C63.0405025,88.6634804 63.458701,89.0525735 63.8968137,89.717402 C63.9443015,89.7893995 63.9458333,89.8828431 63.901348,89.9563725 C63.8584559,90.0253064 63.7971814,90.0636029 63.6884191,90.0651348 L61.2190564,89.8246324 C61.1731005,89.820098 61.1286765,89.8001225 61.0934436,89.7694853 C57.994424,87.0672794 52.7601103,83.3509804 45.416973,81.0041667 L44.8609069,80.8356618 L44.379902,80.8264706 C43.0857843,80.8044118 41.8958333,81.4943627 41.2708333,82.6303922 C41.192402,82.772549 41.125,82.9196078 41.0698529,83.0703431 C41.036152,83.1545956 40.9427083,83.2250613 40.8262868,83.2112745 C38.6020221,82.8727328 36.3226103,82.6797181 34.0523897,82.6322304 C32.6967525,82.6092525 31.4359681,83.4058211 30.8416054,84.6604167 C30.8048407,84.7385417 30.7251838,84.790625 30.6256127,84.7890931 L30.6241422,84.7890931 C29.3557598,84.6987132 27.9985294,84.6389706 26.5922794,84.6159926 L26.1143382,84.6083946 C24.446201,84.5792892 22.9893382,85.7481005 22.646201,87.3871936 C22.6293505,87.4668505 22.6155637,87.5465074 22.6063725,87.6261642 C22.5910539,87.7242034 22.5175245,87.8007966 22.4393995,87.8145833 C22.2050245,87.8314338 16.7041054,88.275674 16.7423407,91.6824755 C16.760723,93.2970588 17.776348,94.6650735 19.2347426,95.0756127 C20.1216912,95.4830882 20.9151348,95.8384804 21.6795956,96.1739583 C21.7684436,96.210723 21.8220588,96.3026348 21.8113358,96.4052696 L21.7960172,96.6473039 C21.7408701,98.2863971 22.8254289,99.7218137 24.4369485,100.135294 C26.0560662,100.53511 27.6140319,100.875184 29.0693015,101.141728 C29.1612132,101.16011 29.2301471,101.230576 29.2485294,101.322488 C29.4966912,102.682782 30.5199755,103.767341 31.8573529,104.085968 C34.1688725,104.638971 36.4958333,105.038787 38.7737745,105.27163 C38.7737745,105.27163 39.5519608,105.400306 39.5412377,105.902757 C39.5289828,106.412868 40.0988358,106.820343 40.7131127,107.111397 C40.7131127,107.111397 40.9153186,107.174203 40.9153186,107.356495 C40.9153186,107.540319 40.6487745,107.560233 40.5507353,107.558701" id="Shape" fill="#FFFFFF"></path>
                <path d="M159.436275,3.45318627 C155.490196,5.46458333 152.414216,7.39534314 150.281863,9.19534314 C150.784314,7.13958333 151.715686,5.57720588 151.727941,5.56188725 C151.752451,5.51752451 151.740196,5.45894608 151.703431,5.42071078 C151.666667,5.38235294 151.617647,5.37463235 151.568627,5.39914216 C146.862745,7.8439951 143.578431,10.4746324 141.605392,12.3020833 C141.311275,10.0257353 141.875,8.65612745 141.887255,8.64240196 C141.89951,8.59031863 141.887255,8.53333333 141.838235,8.50122549 C141.789216,8.4689951 141.727941,8.47401961 141.691176,8.51078431 C135.220588,14.6366422 132.892157,20.8931373 132.120098,24.0169118 C126.323529,28.922549 122.368873,33.614951 119.47549,38.4997549 C116.405637,35.6272059 110.020833,30.8821078 101.112745,30.5561275 C101.060049,30.5401961 101.022059,30.5830882 101.004902,30.6272059 C100.98652,30.6737745 101,30.7240196 101.03799,30.7546569 C101.083333,30.7914216 105.481618,34.4605392 106.773284,39.4838235 C104.427696,38.6627451 99.8308824,37.3698529 94.1789216,37.3698529 C92.9546569,37.3698529 91.7242647,37.429902 90.5232843,37.55 C90.4779412,37.5536765 90.439951,37.5867647 90.4276961,37.6308824 C90.4166667,37.675 90.4313725,37.7215686 90.4681373,37.7509804 C90.5012255,37.7767157 93.75,40.3110294 96.1862745,43.5022059 C95.1286765,43.3735294 94.0232843,43.2754902 92.9436275,43.2264706 C88.9803922,40.3686275 84.4742647,37.8563725 78.6593137,35.6823529 C76.8296569,32.9531863 72.5490196,27.8343137 64.4007353,24.2227941 C64.3504902,24.1995098 64.2904412,24.2142157 64.2573529,24.2607843 C64.2230392,24.3061275 64.2279412,24.3710784 64.2659314,24.4115196 C64.2757353,24.4237745 65.2647059,25.5230392 65.75,27.7669118 C63.2892157,26.7044118 59.314951,25.3220588 54.0490196,24.5879902 C53.9963235,24.5806373 53.9460784,24.6088235 53.9264706,24.6578431 C53.9044118,24.7056373 53.9191176,24.7632353 53.9595588,24.7963235 C53.9730392,24.8085784 55.3713235,25.9678922 56.5355392,27.7387255 C53.932598,26.7558824 50.3835784,25.9691176 45.9840686,25.3857843 C45.9276961,25.3808824 45.8762255,25.4127451 45.8578431,25.4666667 C45.8406863,25.5193627 45.8627451,25.5781863 45.9129902,25.6051471 C45.9276961,25.614951 47.5196078,26.5095588 49.3002451,27.8147059 C46.189951,27.6982843 39.5465686,27.8747549 39.5294118,27.9017157 C39.4828431,27.9139706 39.4497549,27.9507353 39.4460784,27.9973039 C39.4362745,28.0536765 39.4705882,28.1088235 39.5220588,28.1259804 C39.5220588,28.1259804 45.692402,31.5879902 47.6188725,32.5205882 C45.2622549,32.8208333 43.3259804,32.8539216 43.3063725,32.8539216 C43.25,32.8539216 43.2009804,32.8943627 43.1911765,32.9495098 C43.1838235,33.0058824 43.2132353,33.0610294 43.2659314,33.0806373 C47.3039216,34.5610294 50.7830882,35.4936275 53.6151961,35.8526961 C51.4754902,36.8085784 49.5441176,37.1504902 49.5220588,37.1541667 C49.4705882,37.1639706 49.4301471,37.2056373 49.4240196,37.2571078 C49.4215686,37.3122549 49.4546569,37.3625 49.5036765,37.3796569 C54.3933824,39.1308824 58.6102941,39.7632353 61.3676471,39.9813725 C59.4840686,41.6370098 57.9301471,42.1112745 57.9117647,42.1161765 C57.8578431,42.1333333 57.8247549,42.1860294 57.8321078,42.2411765 C57.8370098,42.2987745 57.8835784,42.3416667 57.939951,42.3465686 C58.9693627,42.4176471 60.0147059,42.4556373 61.0428922,42.4556373 C68.1286765,42.4556373 73.6090686,40.7767157 76.8737745,39.3710784 C81.9742647,41.1063725 83.9203431,42.0083333 85.7990196,43.2203431 C78.7904412,43.6639706 68.7941176,45.6627451 60.3002451,52.5647059 C60.2634804,52.5953431 60.2536765,52.6468137 60.2696078,52.6909314 C60.2843137,52.735049 60.3333333,52.7656863 60.379902,52.7656863 C60.8223039,52.7656863 71.1017157,52.7816176 79.6066176,54.2252451 C73.0098039,56.1688725 61.8884804,61.0634804 57.8615196,72.5169118 C57.8443627,72.5683824 57.8676471,72.6259804 57.9166667,72.6529412 C57.9313725,72.6627451 57.9485294,72.6676471 57.9669118,72.6676471 C58.002451,72.6676471 58.0367647,72.6517157 58.057598,72.6247549 C58.1629902,72.4875 68.9301471,59.0634804 95.2720588,56.4004902 C95.3210784,56.3968137 95.3602941,56.3625 95.372549,56.3147059 C95.3823529,56.2669118 95.3615196,56.2191176 95.3198529,56.1921569 C91.6053922,53.9286765 84.3762255,50.992402 70.9877451,49.7852941 C70.9877451,49.7852941 98.7794118,40.867402 113.242647,56.1112745 C113.242647,56.1112745 109.229167,46.5426471 99.5281863,41.4323529 C101.099265,41.7093137 107.20098,42.9507353 112.012255,46.1737745 C112.045343,46.1946078 112.08701,46.1995098 112.122549,46.1811275 C112.159314,46.1627451 112.183824,46.1259804 112.185049,46.0867647 C112.381127,41.4936275 110.235294,37.2889706 109.542892,36.0610294 C115.876225,39.670098 119.466912,44.797549 121.368873,48.4948529 C121.386029,48.5303922 121.422794,48.5561275 121.46201,48.5573529 C121.495098,48.5561275 121.539216,48.5377451 121.560049,48.5022059 C121.560049,48.5022059 124.595588,43.177451 129.056373,40.110049 C128.223039,42.4556373 127.953431,45.0377451 128.296569,47.8269608 C128.308824,47.8723039 128.333333,47.9078431 128.382353,47.920098 C128.419118,47.9348039 128.468137,47.920098 128.504902,47.8845588 C128.590686,47.7754902 137.463235,37.0487745 154.178922,37.0487745 C155.122549,37.0487745 156.078431,37.0806373 157.034314,37.1492647 C154.509804,37.6639706 146.997549,39.679902 142.47549,46.0659314 C142.45098,46.1039216 142.438725,46.1541667 142.463235,46.1921569 C142.487745,46.232598 142.536765,46.2509804 142.585784,46.242402 C142.598039,46.2387255 143.259804,46.1210784 144.411765,45.9678922 C147.512255,45.7264706 154.154412,45.364951 161.764706,45.8698529 C139.178922,50.6308824 131.188725,58.1627451 130.171569,59.2558824 C130.134804,59.2779412 130.110294,59.2865196 130.110294,59.2901961 L130.122549,59.3110294 C130.085784,59.3588235 130.061275,59.3845588 130.061275,59.3882353 C130.073529,59.425 130.085784,59.4568627 130.122549,59.4740196 C130.147059,59.492402 130.183824,59.4948529 130.220588,59.4789216 C130.404412,59.3980392 148.247549,51.3710784 172.647059,47.2191176 C174.595588,47.5904412 176.531863,48.0377451 178.419118,48.5830882 C181.348039,49.5242647 184.117647,50.6370098 186.654412,51.9580882 C184.816176,52.0316176 177.438725,52.4936275 172.573529,55.232598 C172.536765,55.2558824 172.512255,55.3085784 172.52451,55.357598 C172.536765,55.4066176 172.585784,55.4409314 172.634804,55.4409314 L173.051471,55.4409314 C176.348039,55.4409314 193.161765,55.5745098 200.477941,58.2080882 C200.526961,58.2252451 200.57598,58.2093137 200.60049,58.170098 C200.637255,58.1296569 200.637255,58.0745098 200.60049,58.0352941 C200.551471,57.9617647 195.061275,50.7791667 181.960784,45.8808824 C183.688725,45.6762255 185.64951,45.5340686 187.267157,45.360049 C190.036765,47.6161765 196.041667,51.6002451 205.159314,52.9544118 C205.220588,52.9629902 205.269608,52.929902 205.294118,52.8772059 C205.306373,52.8257353 205.281863,52.7669118 205.232843,52.7362745 C205.220588,52.7289216 203.835784,51.8514706 202.54902,49.6051471 C206.519608,50.1529412 210.919118,50.110049 215.318627,49.4740196 C215.367647,49.4666667 215.404412,49.4262255 215.416667,49.3735294 C215.416667,49.3220588 215.392157,49.2718137 215.343137,49.2509804 C215.330882,49.242402 213.504902,48.422549 211.703431,46.8772059 C212.5,46.9470588 213.370098,46.985049 214.289216,46.985049 C216.776961,46.985049 219.730392,46.7276961 223.039216,46.2215686 C223.10049,46.2129902 223.137255,46.1651961 223.137255,46.1088235 C223.14951,46.052451 223.10049,46.0034314 223.051471,45.9911765 C223.026961,45.985049 221.102941,45.5120098 218.860294,44.6443627 C221.090686,44.0720588 224.460784,43.1210784 228.321078,41.7142157 L228.529412,41.6921569 C228.578431,41.6884804 228.590686,41.6480392 228.590686,41.6014706 C228.615196,41.5781863 228.615196,41.547549 228.615196,41.5156863 C228.602941,41.4605392 228.566176,41.420098 228.504902,41.4151961 L228.370098,41.4102941 C224.522059,40.2914216 221.139706,39.5781863 218.872549,39.1627451 C221.127451,38.1333333 223.063725,37.5169118 223.088235,37.5083333 C223.137255,37.492402 223.161765,37.4397059 223.161765,37.3845588 C223.14951,37.3281863 223.112745,37.2865196 223.051471,37.2816176 C218.504902,36.9151961 214.656863,36.9703431 211.740196,37.4397059 C213.529412,35.7681373 215.355392,34.8196078 215.367647,34.8085784 C215.416667,34.7865196 215.441176,34.732598 215.428922,34.6823529 C215.416667,34.6296569 215.379902,34.5892157 215.330882,34.5867647 C210.919118,34.2693627 206.556373,34.5426471 202.573529,35.3808824 C203.860294,33.045098 205.257353,32.0634804 205.269608,32.0536765 C205.318627,32.0218137 205.330882,31.9605392 205.306373,31.9102941 C205.281863,31.8588235 205.232843,31.8269608 205.171569,31.8404412 C193.17402,34.4960784 186.556373,41.2816176 185.428922,42.5757353 C181.776961,42.8441176 178.284314,43.2730392 174.914216,43.7031863 C168.897059,42.1946078 162.340686,41.3906863 155.416667,41.3098039 C157.855392,39.8269608 162.352941,37.9360294 170.306373,36.920098 C170.367647,36.9139706 170.404412,36.8710784 170.404412,36.8196078 C170.416667,36.7669118 170.379902,36.7215686 170.330882,36.7044118 C170.257353,36.675 162.144608,33.9617647 152.401961,33.9617647 C145.196078,33.9617647 138.933824,35.4102941 133.786765,38.2718137 C134.767157,36.2669118 136.629902,33.5230392 140.134804,31.2448529 C140.171569,31.2178922 140.183824,31.1627451 140.171569,31.1161765 C140.159314,31.0671569 140.110294,31.0316176 140.061275,31.0389706 C139.963235,31.0463235 130.980392,31.8759804 125.134804,37.1639706 C127.683824,33.3220588 130.870098,30.0830882 134.938725,26.9838235 C135.526961,27.0181373 136.20098,27.0389706 136.936275,27.0389706 C140.870098,27.0389706 146.985294,26.4164216 153.848039,23.4348039 C153.897059,23.4115196 153.921569,23.3563725 153.909314,23.3012255 C153.897059,23.2460784 153.872549,23.2117647 153.786765,23.2093137 L153.688725,23.2093137 C153.272059,23.2093137 151.813725,23.1468137 149.816176,22.3502451 C152.352941,21.2166667 156.127451,19.2080882 160.134804,15.9335784 C160.171569,15.8992647 160.183824,15.8441176 160.159314,15.795098 C160.147059,15.7473039 160.098039,15.7154412 160.036765,15.7252451 C160.02451,15.7276961 158.848039,15.9262255 157.230392,15.9262255 C156.727941,15.9262255 156.22549,15.9066176 155.747549,15.8686275 C158.284314,14.5879902 161.25,12.5463235 164.571078,9.79644608 C164.620098,9.75968137 164.632353,9.69852941 164.595588,9.64803922 C164.571078,9.59754902 164.509804,9.57463235 164.460784,9.59301471 C164.436275,9.59914216 162.598039,10.2165441 160.281863,10.7251225 C161.776961,9.20710784 166.446078,3.87487745 166.446078,3.87487745 C166.482843,3.84571078 166.470588,3.80612745 166.446078,3.76470588 C166.446078,3.73566176 166.446078,3.70637255 166.421569,3.68333333 C166.384804,3.64044118 166.323529,3.62855392 166.27451,3.65465686 C166.27451,3.65465686 159.215686,6.01973039 157.120098,6.85 C158.357843,5.0254902 159.571078,3.65073529 159.583333,3.63553922 C159.620098,3.59411765 159.620098,3.5314951 159.583333,3.48713235 C159.558824,3.44117647 159.485294,3.42598039 159.436275,3.45355392 L159.436275,3.45318627 Z M165.355392,56.5928922 C163.921569,56.5953431 162.585784,56.6529412 161.335784,56.7436275 C154.95098,57.2093137 151.654412,58.8465686 151.617647,58.8612745 C151.568627,58.8857843 151.544118,58.9433824 151.556373,58.9960784 C151.580882,59.047549 151.629902,59.0843137 151.678922,59.0720588 C151.678922,59.0720588 152.181373,59.0034314 153.10049,58.9360294 C159.693627,58.4556373 181.960784,57.6455882 211.433824,77.0095588 C212.512255,80.9176471 214.95098,86.7926471 220.428922,92.5892157 C220.465686,92.6296569 220.526961,92.6382353 220.57598,92.607598 C220.625,92.5769608 220.637255,92.5205882 220.625,92.4666667 C220.612745,92.4519608 220.073529,90.9029412 220.453431,88.3404412 C222.414216,90.3882353 225.723039,93.3477941 230.551471,96.1333333 C230.60049,96.1602941 230.661765,96.1541667 230.698529,96.117402 C230.735294,96.0806373 230.747549,96.0242647 230.723039,95.9776961 C230.710784,95.9580882 229.779412,94.1884804 229.32598,91.8637255 C231.470588,93.8919118 234.607843,96.0745098 238.639706,98.360049 C238.688725,98.3870098 238.75,98.3784314 238.786765,98.3355392 C238.823529,98.2938725 238.823529,98.2289216 238.79902,98.1848039 C238.77451,98.170098 237.561275,96.6039216 236.323529,94.5352941 C238.443627,95.4691176 241.678922,96.802451 245.57598,98.0843137 L245.747549,98.1946078 C245.772059,98.2093137 245.796569,98.2154412 245.821078,98.2142157 C245.845588,98.2117647 245.870098,98.1995098 245.894608,98.179902 C245.919118,98.1602941 245.931373,98.1345588 245.931373,98.1088235 L245.931373,98.0990196 C245.955882,98.05 241.25,91.9544118 239.730392,90.2362745 C242.144608,90.8232843 244.031863,91.5340686 244.056373,91.5401961 C244.105392,91.5622549 244.166667,91.5401961 244.203431,91.492402 C244.227941,91.4446078 244.215686,91.3821078 244.178922,91.3441176 C240.808824,88.2252451 237.794118,85.9139706 235.183824,84.4654412 C237.647059,84.2473039 239.656863,84.6419118 239.681373,84.6443627 C239.730392,84.6566176 239.779412,84.6321078 239.803922,84.5843137 C239.828431,84.5377451 239.816176,84.4801471 239.779412,84.4433824 C235.698529,80.735049 231.85049,78.4605392 229.264706,77.1811275 C230.931373,76.4789216 232.242647,76.295098 232.879902,76.2485294 C233.235294,76.2215686 233.431373,76.2338235 233.431373,76.2338235 C233.492647,76.235049 233.541667,76.2031863 233.553922,76.1480392 C233.578431,76.0928922 233.541667,76.0340686 233.492647,76.0107843 C224.852941,71.8416667 217.254902,71.677451 213.492647,71.9519608 C212.904412,71.9936275 212.414216,72.0438725 212.095588,72.110049 C190.134804,59.2375 175.367647,56.5732843 165.355392,56.5928922 L165.355392,56.5928922 Z M106.783088,60.7166667 C99.9901961,63.1296569 90.3125,68.4311275 82.5392157,80.0058824 C83.0943627,77.2828431 84.4031863,73.3759804 87.4595588,69.3281863 C87.4877451,69.2901961 87.4889706,69.2375 87.4644608,69.1995098 C87.4387255,69.1590686 87.3909314,69.1394608 87.3443627,69.1517157 C87.245098,69.1737745 77.9252451,71.4629902 73.4215686,75.5303922 C75.0526961,73.1762255 80.0171569,66.7632353 88.2181373,62.554902 C88.2659314,62.5303922 88.2904412,62.4740196 88.2732843,62.422549 C88.2585784,62.3698529 88.2083333,62.3416667 88.1519608,62.3465686 C87.9264706,62.3759804 65.502451,65.4078431 60.0772059,80.7571078 C60.0588235,80.8061275 60.0772059,80.8612745 60.1237745,80.8894608 C60.1678922,80.9188725 60.2279412,80.9102941 60.2647059,80.8723039 C60.3272059,80.804902 66.4742647,74.4004902 71.7107843,72.0573529 C68.5269608,76.6676471 65.9632353,80.4776961 66.8639706,88.4789216 C66.8676471,88.5291667 66.8884804,88.5757353 66.9375,88.5941176 C66.9852941,88.6088235 67.0404412,88.5953431 67.0698529,88.5512255 C67.1078431,88.4948529 70.5796569,82.4727941 77.9865196,79.3379902 C77.4877451,80.7166667 76.2806373,87.0328431 79.4387255,92.4691176 C79.4607843,92.5071078 79.4791667,92.5242647 79.5416667,92.5340686 C79.5857843,92.5328431 79.6262255,92.5058824 79.6421569,92.4642157 C79.6629902,92.4188725 81.5539216,87.8955882 84.9485294,84.2375 C85.1813725,86.0181373 85.0098039,91.0071078 84.5894608,95.3894608 L59.7254902,92.9286765 C56.7696078,90.1823529 51.7034314,86.4127451 44.3615196,84.0659314 C44.3063725,84.047549 44.2487745,84.0696078 44.2230392,84.1210784 C44.1948529,84.170098 44.2058824,84.2313725 44.2487745,84.2669118 C44.2634804,84.2791667 45.5563725,85.3784314 46.6237745,87.8281863 C43.8615196,86.9764706 39.4963235,85.9789216 34.002451,85.864951 L34,85.864951 C33.9497549,85.864951 33.9031863,85.9004902 33.8872549,85.9495098 C33.872549,86.0009804 33.8933824,86.0536765 33.9375,86.0830882 C33.9546569,86.0941176 35.6813725,87.2105392 37.317402,89.0389706 C34.5355392,88.3269608 30.9178922,87.9237745 26.5514706,87.8477941 L26.0612745,87.8428922 C26.0036765,87.8404412 25.9546569,87.8808824 25.9436275,87.9360294 C25.9313725,87.9911765 25.9595588,88.0463235 26.0110294,88.0671569 C26.0318627,88.0769608 27.8958333,88.864951 30.0441176,90.0990196 C27.7708333,90.3036765 20.2585784,91.4568627 20.2585784,91.4568627 C20.2144608,91.4507353 20.1936275,91.4752451 20.1801471,91.5095588 C20.1372549,91.5267157 20.1078431,91.5683824 20.1078431,91.617402 C20.1078431,91.6737745 27.5085784,94.8281863 29.5625,95.5598039 C27.2438725,96.2129902 25.2818627,96.5132353 25.2610294,96.5169118 C25.2034314,96.5254902 25.1617647,96.5696078 25.1580882,96.6272059 C25.1568627,96.6823529 25.1960784,96.732598 25.25,96.7460784 C29.5612745,97.8183824 33.2193627,98.3870098 36.129902,98.4360294 C36.25,98.4397059 36.3651961,98.4384804 36.4803922,98.4384804 C34.5477941,99.8098039 32.6580882,100.459314 32.6384804,100.465441 C32.5882353,100.482598 32.5563725,100.531618 32.5588235,100.583088 C32.5612745,100.635784 32.5968137,100.681127 32.6482843,100.693382 C36.9828431,101.733824 41.3431373,102.177451 45.3455882,101.993627 C43.8615196,104.114951 42.3958333,104.861275 42.379902,104.867402 C42.3296569,104.891912 42.3063725,104.94951 42.3198529,105.002206 C42.3357843,105.057353 42.3811275,105.09902 42.439951,105.090441 C50.6151961,104.635784 56.5306373,101.936029 59.9705882,99.7669118 L82.9865196,103.920098 C82.6568627,105.070833 82.7414216,104.638235 82.3394608,105.731373 C82.2830882,105.728922 82.2022059,105.726471 82.0980392,105.726471 C80.7941176,105.726471 76.5,106.091667 75.9779412,110.808578 C75.9730392,110.844118 75.9889706,110.882108 76.0159314,110.906618 C76.0563725,110.942157 79.9828431,114.404167 79.8676471,120.059804 C72.9803922,108.585539 64.8198529,106.165196 59.1654412,106.165196 C54.1029412,106.165196 50.4779412,108.086765 50.4411765,108.106373 C50.4031863,108.12598 50.3811275,108.168873 50.3835784,108.211765 C50.3872549,108.254657 50.4117647,108.291422 50.4534314,108.307353 C50.5110294,108.331863 56.3492647,110.776716 57.8259804,117.312255 C52.9264706,113.405392 47.3492647,111.228922 41.2401961,110.839216 C40.4289216,110.787745 39.6384804,110.763235 38.8921569,110.763235 C31.0698529,110.763235 27.7438725,113.602696 23.8897059,116.895588 C20.9852941,119.377206 17.689951,122.190931 11.8647059,124.225245 C6.59509804,126.06348 3.76862745,131.320833 4.66017157,137.619853 C6.03431373,147.301225 16.1605392,158.195833 35.1491422,159.26201 C35.4444853,160.144363 38.4775735,168.489951 47.0854167,168.489951 C48.3096814,168.489951 49.603799,168.330637 50.9408088,167.9875 C50.7116422,172.264461 50.9653186,176.186029 51.7091912,179.666422 C51.8550245,179.899265 66.5167892,202.668873 95.6932598,203.747304 C96.7716912,203.784069 97.8084559,203.796324 98.8023284,203.796324 C117.465319,203.796324 120.711642,196.958088 120.966544,192.828186 C124.999632,191.284069 133.124632,186.78652 142.781495,173.943382 C145.612377,178.735049 152.046201,186.994853 163.676103,189.617402 C163.712868,189.629657 163.761887,189.605147 163.786397,189.580637 C163.810907,189.543873 163.823162,189.507108 163.810907,189.470343 C163.786397,189.409069 161.56826,183.195833 165.232475,179.396814 C164.999632,185.597794 166.396691,199.458088 183.063358,201.455637 C183.835417,201.541422 184.61973,201.590441 185.367279,201.590441 C191.850123,201.590441 196.041299,198.232598 198.41875,195.413971 C202.401593,190.695833 204.325613,183.784069 203.320711,177.803676 C203.933456,177.497304 204.448162,177.227696 204.901593,176.958088 C209.521691,174.26201 209.779044,171.198284 209.178554,169.102696 C209.031495,168.600245 208.982475,168.318382 208.970221,168.183578 L209.006985,168.085539 C209.105025,167.803676 209.276593,167.325735 209.435907,166.68848 L209.497181,166.455637 C210.024142,164.360049 211.004534,160.475245 208.602574,157.190931 C208.431005,156.958088 208.271691,156.749755 208.112377,156.529167 L207.928554,156.296324 C206.850123,154.88701 206.359926,154.249755 206.323162,152.33799 C206.200613,146.541422 202.609926,144.482598 200.011887,142.9875 C199.840319,142.828186 199.484926,142.374755 199.178554,141.982598 C197.781495,140.181127 195.440809,137.154167 190.796201,137.154167 C189.141789,137.154167 187.401593,137.546324 185.477574,138.355147 C184.129534,138.882108 177.070711,141.774265 170.783946,146.896814 C170.514338,147.080637 170.097672,147.38701 169.64424,147.815931 C168.36973,145.622304 166.531495,144.114951 164.178554,143.342892 C167.965319,139.690931 173.136887,133.894363 176.56826,126.749755 C178.36973,127.264461 179.938358,127.521814 181.384436,127.521814 C185.661397,127.521814 188.957966,125.315931 192.058456,120.37598 C193.872181,117.47402 194.350123,114.678676 193.41875,112.292647 C192.524142,109.991176 190.330515,108.247304 187.242279,107.371078 C187.989828,105.25098 188.480025,101.583088 186.752083,98.3 C187.205515,97.864951 189.558456,95.4629902 189.301103,92.679902 C189.141789,90.9507353 188.002083,89.4360294 185.89424,88.1897059 C185.881985,87.4568627 185.698162,83.6112745 183.136887,77.8330882 C190.146691,81.2534314 196.825613,86.1676471 202.989828,92.4409314 C203.026593,92.4776961 203.075613,92.4838235 203.124632,92.4593137 C203.173652,92.4348039 203.185907,92.3845588 203.185907,92.3355392 C203.161397,92.2583333 201.286397,84.5352941 193.957966,76.6161765 C200.073162,77.5401961 205.416299,79.1982843 205.477574,79.2142157 C205.514338,79.2301471 205.575613,79.2080882 205.600123,79.1639706 C205.624632,79.117402 205.624632,79.0598039 205.587868,79.0242647 C193.627083,68.4409314 176.237377,64.4262255 176.053554,64.3857843 C176.004534,64.3735294 175.94326,64.4017157 175.931005,64.4531863 C175.906495,64.5034314 175.931005,64.5622549 175.980025,64.5916667 C176.029044,64.6223039 180.980025,67.672549 185.024142,72.7852941 C179.631985,70.2252451 172.695711,67.804902 164.386887,65.5892157 C164.337868,65.5757353 164.288848,65.5965686 164.264338,65.6370098 C164.239828,65.6762255 164.239828,65.7313725 164.264338,65.7693627 C164.288848,65.7987745 166.59277,68.7718137 168.271691,72.677451 C163.44326,69.7681373 154.950613,66.0389706 141.629534,64.3857843 C141.56826,64.3772059 141.531495,64.4053922 141.51924,64.4531863 C141.49473,64.4985294 141.506985,64.5536765 141.556005,64.5843137 C141.605025,64.6308824 147.389338,69.1431373 148.810907,75.0781863 C144.730025,71.864951 138.087868,67.8416667 129.252083,66.4544118 C129.215319,66.4482843 129.178554,66.4617647 129.154044,66.4948529 C129.129534,66.5254902 126.813358,69.5181373 126.51924,73.2754902 C125.538848,71.5965686 124.325613,68.8784314 123.725123,65.0487745 C123.712868,65.0156863 123.688358,64.9887255 123.663848,64.9703431 C123.639338,64.9544118 123.602574,64.9519608 123.565809,64.9629902 C123.529044,64.9764706 120.058456,66.3502451 117.151593,71.2044118 C117.011887,69.3698529 117.032721,67.3098039 117.212868,65.0757353 C117.21777,65.0340686 117.198162,64.9936275 117.162623,64.9727941 C117.129534,64.9495098 117.085417,64.9495098 117.048652,64.9678922 C116.938358,65.0254902 106.176103,70.8845588 100.341544,83.2178922 C100.679779,79.5843137 102.016789,73.1639706 106.995956,67.0169118 C107.03027,66.9727941 107.029044,66.9139706 106.995956,66.8723039 C106.959191,66.8318627 106.897917,66.8196078 106.851348,66.8490196 C99.2410539,71.5365196 93.8243873,81.5414216 93.1969363,82.7730392 C95.9040441,70.8906863 102.101348,64.3367647 106.885662,60.9127451 C106.929779,60.8808824 106.944485,60.8196078 106.91875,60.7693627 C106.89424,60.7215686 106.832966,60.6970588 106.782721,60.7166667 L106.783088,60.7166667 Z" id="Shape" fill="#000000"></path>
                <path d="M158.492647,8.57291667 C156.593137,9.08002451 154.840686,9.6245098 153.198529,10.1790441 C152.561275,11.013848 152.034314,11.7898284 151.617647,12.4957108 C155.637255,10.0710784 158.492647,8.57291667 158.492647,8.57291667 Z M150.085784,11.3045343 C148.651961,11.8560049 147.340686,12.3988971 146.20098,12.9123775 C144.803922,14.6685049 143.909314,16.3878676 143.345588,17.838848 C144.963235,16.7126225 146.568627,15.6488971 148.10049,14.6770833 C148.72549,13.3756127 149.460784,12.2003676 150.085784,11.3045343 Z M142.708333,14.5974265 C140.968137,15.5079657 140.02451,16.1072304 140.02451,16.1072304 C136.960784,19.2604167 135.968137,23.4295343 135.968137,23.4295343 C137.267157,22.3265931 138.651961,21.2542892 140.036765,20.2126225 C140.588235,18.1329657 141.740196,16.0814951 142.708333,14.5974265 L142.708333,14.5974265 Z M54.1151961,29.6403186 C52.3823529,29.6648284 50.5428922,29.7371324 48.5821078,29.8939951 C48.5821078,29.8939951 51.7757353,30.3535539 56.377451,31.2971814 C55.747549,30.7702206 54.9926471,30.213848 54.1151961,29.6403186 Z M57.4276961,29.6574755 C58.310049,30.2959559 59.3933824,31.1574755 60.4178922,32.1758578 C62.185049,32.5827206 64.0563725,33.0471814 65.9632353,33.5667892 C64.9436275,32.3878676 63.5269608,31.0667892 61.6237745,29.8780637 C60.372549,29.7751225 58.9583333,29.6991422 57.4276961,29.6574755 Z M65.4730392,30.2996324 C66.8909314,31.3731618 68.6580882,32.9221814 69.8651961,34.7003676 C71.5269608,35.2150735 73.1838235,35.7714461 74.7855392,36.3719363 C74.7855392,36.3719363 72.4522059,32.7689951 68.5147059,30.8229167 C68.5147059,30.8229167 67.4264706,30.5716912 65.4730392,30.2996324 L65.4730392,30.2996324 Z M109.542892,36.0631127 C110.235294,37.2898284 112.379902,41.4908088 112.185049,46.0839461 C112.181373,46.1243873 112.160539,46.1623775 112.125,46.1807598 C112.08701,46.1991422 112.042892,46.1942402 112.009804,46.1734069 C107.198529,42.9503676 101.10049,41.7101716 99.5306373,41.4319853 C109.230392,46.5422794 113.242647,56.1084559 113.242647,56.1084559 C98.7769608,40.8645833 70.9877451,49.7873775 70.9877451,49.7873775 C84.3762255,50.9932598 91.6053922,53.9295343 95.3198529,56.1942402 C95.3627451,56.221201 95.3823529,56.2665441 95.372549,56.3143382 C95.3615196,56.3609069 95.3223039,56.3964461 95.2720588,56.4001225 C83.0061275,57.6415441 74.1188725,61.2150735 68.1102941,64.6942402 C59.3284314,73.2849265 60.0772059,80.7567402 60.0772059,80.7567402 C65.502451,65.40625 87.9264706,62.3731618 88.1519608,62.34375 C88.2083333,62.3400735 88.2585784,62.3707108 88.2732843,62.4221814 C88.2904412,62.4748775 88.2659314,62.5324755 88.2181373,62.5569853 C80.0171569,66.7653186 75.0526961,73.1758578 73.4215686,75.5300245 C77.9252451,71.4613971 87.245098,69.1734069 87.3443627,69.151348 C87.3909314,69.1366422 87.4362745,69.158701 87.4620098,69.1991422 C87.4877451,69.2371324 87.4877451,69.2898284 87.4595588,69.3278186 C84.4031863,73.3756127 83.0943627,77.2824755 82.5392157,80.0055147 C90.3125,68.4295343 99.9901961,63.1268382 106.783088,60.716299 C106.833333,60.6966912 106.893382,60.7199755 106.919118,60.7689951 C106.944853,60.8192402 106.928922,60.8805147 106.883578,60.9123775 C102.10049,64.3363971 95.9031863,70.8915441 93.1948529,82.7726716 C93.8247549,81.5422794 99.2414216,71.5386029 106.851716,66.8511029 C106.898284,66.8216912 106.959559,66.8314951 106.996324,66.8719363 C107.029412,66.9123775 107.030637,66.9748775 106.996324,67.0165441 C102.017157,73.1648284 100.678922,79.5827206 100.341912,83.2175245 C106.176471,70.8841912 116.938725,65.0251225 117.04902,64.9675245 C117.085784,64.9466912 117.128676,64.9515931 117.16299,64.973652 C117.198529,64.9957108 117.218137,65.033701 117.213235,65.0753676 C117.031863,67.3082108 117.012255,69.3694853 117.151961,71.2040441 C120.058824,66.3498775 123.529412,64.9761029 123.566176,64.9626225 C123.602941,64.9515931 123.639706,64.9540441 123.664216,64.9699755 C123.688725,64.9859069 123.713235,65.0165441 123.713235,65.0508578 C124.32598,68.8792892 125.539216,71.596201 126.519608,73.2751225 C126.813725,69.5177696 129.129902,66.5251225 129.154412,66.4944853 C129.178922,66.4613971 129.215686,66.4479167 129.252451,66.4540441 C138.088235,67.8400735 144.730392,71.8645833 148.811275,75.0753676 C147.389706,69.1403186 141.605392,64.6305147 141.556373,64.5839461 C141.507353,64.5533088 141.495098,64.5006127 141.519608,64.4552696 C141.531863,64.4074755 141.568627,64.3768382 141.629902,64.3854167 C154.95098,66.0386029 163.443627,69.7677696 168.272059,72.6770833 C166.593137,68.7714461 164.289216,65.7984069 164.264706,65.7689951 C164.240196,65.7285539 164.240196,65.6770833 164.264706,65.6366422 C164.289216,65.5974265 164.338235,65.5753676 164.387255,65.588848 C172.696078,67.8045343 179.632353,70.2273284 185.02451,72.786152 C180.980392,67.6746324 176.029412,64.6219363 175.980392,64.591299 C175.931373,64.5618873 175.906863,64.5055147 175.931373,64.4552696 C175.943627,64.403799 176.004902,64.3719363 176.053922,64.3854167 C176.237745,64.4258578 193.602941,68.4381127 205.563725,79.0055147 C205.563725,79.0128676 205.57598,79.0177696 205.588235,79.0238971 C201.715686,74.6795343 195.64951,69.403799 191.470588,66.2359069 C172.132353,58.026348 158.10049,58.5729167 153.10049,58.9356618 C152.181373,59.0030637 151.678922,59.0716912 151.678922,59.0716912 C151.629902,59.0839461 151.580882,59.0471814 151.556373,58.9957108 C151.544118,58.9430147 151.568627,58.8854167 151.617647,58.8609069 C151.654412,58.846201 154.95098,57.2064951 161.335784,56.7432598 C166.409314,56.3756127 172.977941,56.5582108 181.507353,58.7628676 C190.036765,58.1145833 198.835784,58.0422794 200.294118,58.1452206 C192.879902,55.5729167 176.311275,55.4405637 173.051471,55.4405637 L172.634804,55.4405637 C172.585784,55.4405637 172.536765,55.40625 172.52451,55.3572304 C172.512255,55.3082108 172.52451,55.2567402 172.573529,55.2322304 C177.438725,52.4932598 184.816176,52.0324755 186.654412,51.9601716 C184.117647,50.6390931 181.348039,49.5238971 178.419118,48.5827206 C176.531863,48.0398284 174.595588,47.5876225 172.647059,47.216299 C148.247549,51.3694853 130.404412,59.3976716 130.220588,59.4785539 C130.183824,59.4920343 130.147059,59.4932598 130.122549,59.4761029 C130.085784,59.4577206 130.073529,59.4258578 130.061275,59.3903186 C130.061275,59.3854167 130.085784,59.3596814 130.122549,59.3131127 L130.110294,59.2898284 C130.110294,59.286152 130.134804,59.2751225 130.171569,59.2542892 C131.176471,58.161152 139.178922,50.6305147 161.764706,45.8694853 C154.154412,45.3645833 147.512255,45.7248775 144.411765,45.9650735 C143.259804,46.1182598 142.598039,46.2395833 142.585784,46.2420343 C142.536765,46.2518382 142.487745,46.2310049 142.463235,46.1917892 C142.438725,46.1525735 142.438725,46.1047794 142.47549,46.0680147 C146.997549,39.6807598 154.509804,37.6660539 157.034314,37.1488971 C156.078431,37.0814951 155.122549,37.0459559 154.178922,37.0459559 C137.463235,37.0459559 128.590686,47.7775735 128.504902,47.8841912 C128.468137,47.9209559 128.419118,47.9368873 128.382353,47.9221814 C128.333333,47.9099265 128.308824,47.8719363 128.296569,47.8265931 C127.953431,45.0386029 128.223039,42.4540441 129.056373,40.1096814 C124.595588,43.1758578 121.560049,48.5042892 121.560049,48.5042892 C121.540441,48.5386029 121.495098,48.5557598 121.46201,48.5569853 C121.422794,48.5557598 121.384804,48.5324755 121.366422,48.4969363 C119.465686,44.7971814 115.876225,39.6697304 109.542892,36.0631127 L109.542892,36.0631127 Z M198.75,38.0631127 C194.142157,39.283701 190.539216,42.658701 190.539216,42.658701 C192.340686,42.3719363 194.191176,42.1427696 196.029412,41.9601716 C197.855392,40.3045343 200.159314,39.0251225 201.960784,38.1807598 C199.914216,38.0349265 198.75,38.0631127 198.75,38.0631127 Z M205.931373,38.5949755 C203.615196,39.4540441 201.740196,40.5680147 200.306373,41.6158088 C202.389706,41.4834559 204.411765,41.40625 206.311275,41.3645833 C207.696078,40.4932598 209.080882,39.8045343 210.183824,39.3106618 C208.639706,39.0055147 207.205882,38.7702206 205.931373,38.5949755 Z M213.480392,40.0410539 C212.401961,40.463848 211.446078,40.8976716 210.637255,41.3290441 C215.551471,41.348652 218.884804,41.5729167 218.884804,41.5729167 C216.997549,40.9589461 215.183824,40.4589461 213.480392,40.0410539 Z M131.397059,72.5545343 C129.509804,77.5091912 129.816176,83.2028186 129.816176,83.2028186 C123.186275,78.3400735 122.257353,72.9969363 122.257353,72.9969363 C119.025735,76.5557598 117.204657,83.6893382 117.204657,83.6893382 C114.939951,80.6158088 114.224265,74.9430147 114.224265,74.9430147 C110.849265,78.7604167 109.769608,86.7604167 109.769608,86.7604167 C107.829657,84.3363971 107.732843,80.0104167 107.732843,80.0104167 C103.368873,85.0214461 98.7769608,98.7248775 98.7769608,98.7248775 C96.6691176,95.2616422 96.3492647,90.9871324 96.6102941,87.4136029 C95.4705882,88.6317402 92.810049,92.9761029 90.9522059,97.653799 L111.675245,115.030025 C111.738971,113.811887 111.892157,112.340074 112.060049,111.494485 C107.628676,109.405025 106.916667,105.911152 106.916667,105.911152 C106.916667,105.911152 114.039216,111.370711 129.987745,109.302083 C129.987745,109.302083 127.867647,113.503064 118.604167,112.976103 C122.867647,116.572917 136.188725,125.854779 160.159314,125.80576 C160.330882,124.077819 160.821078,121.945466 162.046569,120.379289 C162.046569,120.379289 157.867647,118.488358 153.394608,121.565564 C153.394608,121.565564 154.485294,111.094975 169.669118,119.409926 C181.617647,125.965074 185.330882,121.969975 188.051471,117.601103 C190.759804,113.231005 186.997549,108.408701 175.392157,111.423407 C163.946078,114.396446 154.877451,108.189338 160.147059,96.8278186 C158.823529,96.7849265 157.205882,97.5238971 155.502451,96.9332108 C156.335784,99.0373775 156.948529,103.164828 147.818627,101.439338 C147.818627,101.439338 147.634804,105.873162 143.627451,108.254289 C146.372549,110.030025 146.82598,111.451593 146.82598,111.451593 C144.497549,110.586397 142.254902,109.81924 140.110294,109.137868 L140.098039,109.141544 L139.938725,109.085172 C119.14951,102.553309 106.589461,104.123162 106.589461,104.123162 C106.589461,104.123162 107.058824,102.487132 112.147059,102.009191 C110.992647,100.610907 108.276961,96.7383578 109.839461,92.2873775 C109.839461,92.2873775 107.128676,91.0814951 104.719363,91.5349265 C104.719363,91.5349265 113.215686,83.7628676 137.941176,93.4552696 C161.090686,102.526348 149.166667,91.6807598 142.696078,91.6807598 C142.696078,91.6807598 145.416667,89.4834559 154.42402,92.9479167 C163.517157,96.4430147 164.387255,91.661152 163.933824,90.6758578 C163.933824,90.6758578 168.296569,93.6329657 164.39951,98.6341912 C167.47549,99.0876225 174.276961,99.596201 180.428922,96.6599265 C184.914216,94.5153186 184.632353,92.2089461 182.328431,90.6133578 C182.303922,87.7604167 181.789216,81.9430147 177.401961,75.2922794 C175.943627,74.7751225 174.681373,74.408701 173.713235,74.1636029 C175.931373,79.8743873 174.313725,86.1660539 174.313725,86.1660539 C170.061275,80.2064951 165.661765,77.2003676 162.965686,75.7886029 C164.534314,80.0557598 163.651961,83.6966912 163.651961,83.6966912 C159.546569,77.6488971 155.588235,74.973652 153.223039,73.8229167 C155.943627,79.3596814 154.375,87.5091912 154.375,87.5091912 C150.747549,82.0373775 146.789216,78.9479167 143.872549,77.2359069 C144.056373,80.7150735 142.610294,83.9454657 142.610294,83.9454657 C137.941176,74.2714461 131.397059,72.5545343 131.397059,72.5545343 L131.397059,72.5545343 Z M216.139706,75.4148284 C215.612745,75.4246324 215.306373,75.4503676 215.306373,75.4503676 C216.89951,76.34375 218.492647,77.3057598 220.04902,78.2971814 C222.512255,78.1292892 225.110294,78.5520833 227.046569,78.9981618 C225.539216,77.6243873 224.595588,76.9209559 224.595588,76.9209559 C221.311275,75.5006127 217.732843,75.3841912 216.139706,75.4148284 L216.139706,75.4148284 Z M223.627451,80.6783088 C225.343137,81.8621324 226.985294,83.0520833 228.492647,84.1942402 C230.122549,84.3633578 231.642157,84.6783088 232.806373,84.9724265 C231.789216,83.7849265 230.808824,82.7126225 229.914216,81.786152 C227.573529,81.0300245 225.404412,80.7420343 223.627451,80.6783088 L223.627451,80.6783088 Z M231.92402,86.841299 C235.759804,89.8927696 238.247549,92.1341912 238.247549,92.1341912 C237.144608,90.4797794 236.029412,88.9724265 234.95098,87.5839461 C233.835784,87.2506127 232.830882,87.0079657 231.92402,86.841299 L231.92402,86.841299 Z M46.9852941,90.6734069 C48.6911765,91.6783088 50.8737745,93.1648284 52.5477941,94.9822304 C54.3578431,95.3302696 56.1740196,95.7248775 57.9473039,96.1783088 C57.9473039,96.1783088 54.6691176,92.4859069 50.189951,90.848652 C50.189951,90.848652 49.0269608,90.7150735 46.9852941,90.6734069 Z M42.9877451,90.721201 C41.6985294,90.776348 40.252451,90.8817402 38.6960784,91.0447304 C39.75,91.6378676 41.0661765,92.4466912 42.3602941,93.4430147 C44.25,93.658701 46.2573529,93.9234069 48.3161765,94.2444853 C46.9865196,93.0716912 45.2156863,91.7886029 42.9877451,90.721201 Z M35.3455882,91.46875 C33.6017157,91.7285539 31.7610294,92.0606618 29.8235294,92.4993873 C29.8235294,92.4993873 33.1654412,92.5790441 38.0526961,93.0091912 C37.2806373,92.5055147 36.377451,91.9871324 35.3455882,91.46875 L35.3455882,91.46875 Z M65.0490196,96.3131127 L62.0306373,97.1623775 L87.0882353,101.288603 L119.957108,126.773897 L122.113971,127.827819 L122.481618,127.276348 L88.1776961,98.8265931 L65.0490196,96.3131127 L65.0490196,96.3131127 Z M88.6495098,106.617034 C88.1421569,109.495711 87.502451,112.816789 87.502451,116.516544 C87.502451,116.516544 87.6813725,115.29473 91.4117647,112.411152 C91.4117647,112.411152 91.6740196,115.436887 92.8112745,125.058211 C93.2144608,123.379289 93.4718137,121.492034 97.6776961,117.284926 C97.6776961,117.284926 97.625,120.786152 98.2953431,128.28125 C102.058824,132.668505 113.806373,143.967525 138.421569,149.457721 C138.421569,149.457721 139.218137,149.261642 144.401961,143.23223 C144.401961,143.23223 144.622549,146.504289 143.617647,150.352328 C144.022059,150.376838 144.47549,150.401348 144.953431,150.413603 C146.068627,148.95527 147.919118,146.185662 150.79902,140.903799 C150.79902,140.903799 151.436275,146.283701 150.161765,150.058211 C150.382353,150.021446 150.602941,149.984681 150.823529,149.947917 C152.183824,147.950368 154.328431,144.494485 157.379902,138.685662 C157.379902,138.685662 158.20098,141.063113 157.661765,144.224877 C157.723039,144.163603 157.808824,144.102328 157.870098,144.041054 L157.772059,144.200368 C157.772059,144.200368 163.813725,139.261642 168.82598,131.45527 L168.801471,131.43076 C172.085784,126.504289 165.419118,121.957721 165.419118,121.957721 C165.419118,121.957721 163.421569,125.20527 163.654412,129.396446 C160.848039,129.335172 156.97549,130.327819 153.544118,132.215074 C145.026961,136.896446 127.686275,146.45527 119.703431,139.678309 C115.238971,135.891544 113.604167,131.933211 112.721814,125.80576 L88.6495098,106.617034 L88.6495098,106.617034 Z M72.8284314,131.663603 C69,131.663603 61.8553922,133.060662 57.0232843,142.411152 C50.4828431,155.082721 54.4448529,163.085172 54.4840686,163.158701 C54.5085784,163.207721 57.7683824,168.489583 65.5355392,172.104779 C67.4252451,172.987132 70.6666667,173.599877 73.4166667,173.599877 C76.4264706,173.599877 78.4583333,172.889093 78.9865196,171.651348 C79.6789216,170.033701 80.6764706,168.90625 81.9497549,168.30576 C83.2977941,167.668505 85.8223039,165.75674 85.7463235,163.097426 C85.6629902,160.143995 86.4031863,158.685662 88.0943627,156.528799 C89.7818627,154.384191 89.5955882,152.852328 89.1470588,150.916054 C88.9178922,149.923407 88.4558824,149.237132 88.0061275,148.587623 C87.2916667,147.533701 86.6151961,146.553309 87.3431373,144.678309 C88.3786765,142.018995 86.3370098,139.776348 86.3161765,139.751838 C85.4215686,138.685662 83.8284314,138.158701 81.5723039,138.158701 C79.6875,138.158701 77.8296569,138.538603 76.9546569,138.759191 C78.1948529,139.739583 79.4497549,141.210172 79.5085784,141.271446 C79.5698529,141.344975 79.5870098,141.443015 79.5563725,141.528799 C79.5257353,141.614583 79.4509804,141.675858 79.3602941,141.700368 C78.4497549,141.871936 77.5502451,141.969975 76.6862745,141.969975 C71.0404412,141.969975 68.3357843,138.244485 68.2230392,138.097426 C68.1813725,138.036152 68.1629902,137.950368 68.1801471,137.889093 C68.1973039,137.815564 68.245098,137.754289 68.3088235,137.717525 C71.4828431,135.928309 74.8063725,135.560662 77.0379902,135.560662 C78.3848039,135.560662 79.3921569,135.695466 79.8578431,135.768995 C79.8688725,135.009191 79.4718137,132.803309 74.6875,131.798407 C74.685049,131.798407 73.9754902,131.663603 72.8284314,131.663603 L72.8284314,131.663603 Z M190.713235,141.197917 C189.610294,141.197917 188.323529,141.504289 186.901961,142.104779 C186.828431,142.141544 179.352941,145.009191 173.078431,150.168505 C173.029412,150.20527 171.509804,151.124387 171.178922,152.521446 C171.019608,153.170956 171.154412,153.832721 171.558824,154.48223 C172,155.193015 172.661765,155.536152 173.568627,155.536152 C175.970588,155.536152 179.401961,153.072917 181.056373,151.884191 C181.387255,151.639093 181.656863,151.443015 181.852941,151.320466 C182.784314,150.719975 184.193627,149.911152 185.713235,149.911152 C186.705882,149.911152 187.612745,150.266544 188.409314,150.977328 C188.470588,151.038603 188.507353,151.124387 188.495098,151.210172 C188.482843,151.308211 188.421569,151.38174 188.335784,151.418505 C188.25,151.443015 180.504902,154.898897 176.387255,158.28125 C176.178922,158.416054 172.171569,160.916054 174.120098,164.322917 C174.683824,165.303309 175.480392,165.78125 176.583333,165.78125 C178.495098,165.78125 180.77451,164.310662 181.877451,163.612132 C182.04902,163.501838 182.183824,163.403799 182.306373,163.33027 C182.453431,163.23223 182.67402,163.097426 182.943627,162.913603 C184.634804,161.798407 188.139706,159.457721 190.835784,159.457721 C191.852941,159.457721 192.661765,159.788603 193.237745,160.462623 C193.286765,160.523897 193.311275,160.609681 193.29902,160.683211 C193.27451,160.768995 193.22549,160.842525 193.151961,160.879289 C193.078431,160.903799 185.848039,164.335172 183.053922,166.259191 C182.992647,166.283701 181.142157,167.202819 180.627451,168.808211 C180.370098,169.604779 180.480392,170.450368 180.946078,171.320466 C181.473039,172.288603 182.294118,172.754289 183.433824,172.754289 C185.259804,172.754289 187.625,171.553309 189.52451,170.585172 C189.916667,170.376838 190.308824,170.18076 190.664216,170.009191 L190.909314,169.886642 C192.772059,168.967525 194.389706,168.183211 195.897059,168.183211 C196.914216,168.183211 197.784314,168.550858 198.580882,169.310662 C198.642157,169.371936 198.666667,169.457721 198.654412,169.55576 C198.642157,169.641544 198.580882,169.702819 198.495098,169.739583 C196.558824,170.560662 189.965686,173.403799 185.137255,176.124387 C185.504902,176.700368 186.754902,178.23223 189.671569,178.23223 C190.995098,178.23223 192.490196,177.913603 194.144608,177.276348 C201.460784,174.469975 205.921569,172.619485 205.247549,170.242034 C204.610294,167.999387 204.977941,166.700368 205.382353,165.315564 C205.455882,165.021446 205.553922,164.727328 205.627451,164.408701 C206.019608,162.852328 206.375,160.560662 204.941176,158.599877 C204.745098,158.342525 204.561275,158.085172 204.377451,157.852328 C203.20098,156.320466 202.269608,155.10723 202.208333,151.847426 C202.147059,148.795956 200.811275,148.060662 198.789216,146.957721 C198.482843,146.798407 198.176471,146.626838 197.857843,146.443015 C197.147059,146.038603 196.558824,145.278799 195.933824,144.48223 C194.745098,142.950368 193.397059,141.197917 190.713235,141.197917 L190.713235,141.197917 Z M82.1409314,145.793505 C82.1862745,145.80576 82.2303922,145.83027 82.2659314,145.854779 C83.5490196,147.00674 84.1237745,148.158701 83.9681373,149.261642 C83.7291667,150.965074 81.8272059,152.018995 81.2512255,152.300858 C81.2193627,152.313113 81.182598,152.325368 81.1458333,152.325368 C81.0919118,152.325368 81.0404412,152.300858 80.997549,152.264093 C80.9252451,152.215074 80.8933824,152.117034 80.9178922,152.03125 C81.9387255,148.109681 81.8713235,146.063113 81.8713235,146.038603 C81.8676471,145.940564 81.9191176,145.854779 82.004902,145.818015 C82.0477941,145.793505 82.0968137,145.793505 82.1409314,145.793505 L82.1409314,145.793505 Z M80.0441176,155.389093 C80.1335784,155.364583 80.2218137,155.413603 80.2720588,155.487132 C81.2254902,156.835172 81.5171569,158.048407 81.1409314,159.065564 C80.5796569,160.597426 78.7095588,161.234681 77.9313725,161.443015 L77.8713235,161.443015 C77.8026961,161.443015 77.7377451,161.418505 77.692402,161.369485 C77.6335784,161.295956 77.6188725,161.197917 77.6556373,161.112132 C78.5085784,159.188113 79.247549,157.325368 79.8529412,155.548407 C79.8823529,155.462623 79.9571078,155.401348 80.0441176,155.389093 L80.0441176,155.389093 Z M167.196078,155.952819 C164.254902,159.163603 165.517157,163.661152 168.139706,166.773897 C170.541667,169.629289 170.762255,172.643995 170.762255,173.514093 C171.178922,173.575368 171.583333,173.599877 171.963235,173.599877 C175.504902,173.599877 176.497549,171.210172 176.718137,170.413603 C173.617647,169.666054 171.534314,168.244485 170.541667,166.173407 C169.193627,163.354779 170.284314,160.229779 170.70098,159.249387 C168.617647,158.697917 167.563725,156.786152 167.196078,155.952819 L167.196078,155.952819 Z M76.1384804,164.617034 C76.2267157,164.617034 76.3051471,164.653799 76.3492647,164.727328 C77.1262255,166.050858 77.2904412,167.202819 76.8345588,168.158701 C76.0098039,169.898897 73.4534314,170.315564 73.3455882,170.327819 C73.3333333,170.340074 73.3210784,170.340074 73.3088235,170.340074 C73.2328431,170.340074 73.1568627,170.291054 73.1127451,170.229779 C73.0612745,170.15625 73.057598,170.058211 73.1029412,169.984681 C74.1115196,168.23223 75.064951,166.467525 75.935049,164.739583 C75.9730392,164.666054 76.0514706,164.617034 76.1384804,164.617034 L76.1384804,164.617034 Z" id="Shape" fill="#FFD200"></path>
                <path d="M115.477885,92.2732843 C115.116365,92.2806373 114.803865,92.2990196 114.547738,92.3308824 C113.734013,93.9080882 112.711954,97.5882353 117.036709,101.916667 C119.518326,102.01348 122.573473,102.297794 126.372493,102.873775 C126.482787,102.892157 126.593081,102.911765 126.71563,102.928922 C126.127395,101.98652 126.029356,100.314951 126.029356,99.1838235 C126.029356,97.2610294 127.009748,95.5490196 128.541611,94.4227941 C122.977885,92.7941176 118.004846,92.2218137 115.477885,92.2732843 Z M139.632297,98.6666667 C139.644552,98.8357843 139.656807,99.0085784 139.656807,99.1838235 C139.656807,101.207108 138.161709,104.031863 136.507297,105.110294 C137.818571,105.519608 138.958277,105.942402 139.963179,106.363971 C143.272003,104.617647 143.541611,101.919118 144.080826,99.9276961 C142.512199,99.6102941 140.968081,99.1397059 139.632297,98.6666667 Z M183.063669,100.256127 C181.76465,100.903186 180.404356,101.410539 179.031807,101.816176 C179.411709,102.675245 179.571022,104.073529 179.423964,105.066176 C179.313669,105.776961 179.056316,106.457108 178.688669,107.074755 C180.208277,106.879902 181.654356,106.796569 182.99014,106.845588 C184.117591,104.006127 183.541611,101.365196 183.063669,100.256127 Z M162.254846,102.840686 C162.254846,104.292892 162.843081,108.393382 169.227885,108.448529 C168.553865,107.536765 168.235238,106.171569 168.431316,104.764706 C168.504846,104.226716 168.651905,103.710784 168.860238,103.219363 C166.06612,103.246324 163.700924,103.025735 162.254846,102.840686 Z M116.093081,115.030637 L116.280581,115.435049 C116.280581,115.435049 118.084503,119.689951 121.811218,122.377451 C125.882297,125.318627 131.76465,129.105392 143.713179,132.046569 C143.713179,132.046569 147.892101,130.784314 151.71563,128.137255 C151.71563,128.137255 134.142101,129.007353 116.093081,115.030637 L116.093081,115.030637 Z M84.4729831,119.769608 L84.8271498,123.737745 C85.4411204,125.453431 86.2119537,127.132353 87.117591,128.75 C87.5661204,128.17402 88.0048459,127.598039 88.4141596,127.009804 C85.117591,122.634804 84.4729831,119.769608 84.4729831,119.769608 L84.4729831,119.769608 Z M42.8320517,123.970588 C42.0587674,123.982843 41.2487184,124.031863 40.4031302,124.129902 C40.4031302,124.129902 47.2389145,125 51.0281302,130.477941 C51.9729831,129.607843 53.0636694,128.77451 54.300189,128.039216 C51.9178361,125.882353 48.2487184,123.884804 42.8320517,123.970588 L42.8320517,123.970588 Z M118.184993,128.137255 L118.080826,128.468137 C118.080826,128.468137 120.504846,141.127451 133.970532,136.102941 C133.970532,136.102941 127.879846,135.465686 118.184993,128.137255 Z M90.8320517,129.914216 C90.30264,130.625 89.7536204,131.335784 89.1715125,132.009804 C90.1065615,133.345588 91.1445517,134.644608 92.2585223,135.894608 C92.9570517,135.061275 93.61514,134.191176 94.2266596,133.296569 C92.9362184,132.120098 91.8099929,130.992647 90.8320517,129.914216 L90.8320517,129.914216 Z M56.7266596,130.808824 C54.9533753,132.132353 53.4398949,133.480392 52.1457772,134.828431 C52.9974929,135.67402 53.8492086,136.458333 54.6849929,137.132353 C55.6715125,135.857843 56.7989635,134.558824 58.0930812,133.259804 C58.0930812,133.259804 57.6898949,132.205882 56.7266596,130.808824 Z M97.0195517,135.698529 C96.3246988,136.678922 95.5808263,137.634804 94.7891596,138.553922 C95.8982282,139.632353 97.0685714,140.67402 98.295287,141.691176 C99.1960223,140.539216 99.9447968,139.42402 100.568571,138.382353 C99.2891596,137.47549 98.1053361,136.580882 97.0195517,135.698529 L97.0195517,135.698529 Z M49.7830321,137.610294 C48.9166106,138.786765 48.1960223,139.938725 47.610238,141.090686 C48.6004341,142.193627 49.6004341,143.186275 50.5894047,144.044118 C51.1310714,142.794118 51.7916106,141.507353 52.5906302,140.196078 C51.6666106,139.436275 50.7242086,138.566176 49.7830321,137.610294 Z M103.621267,140.453431 C102.943571,141.556373 102.133522,142.732843 101.181316,143.933824 C102.193571,144.681373 103.231562,145.392157 104.297738,146.090686 C105.322248,144.852941 106.181316,143.639706 106.901905,142.47549 C105.752395,141.801471 104.659258,141.127451 103.621267,140.453431 Z M110.11514,144.289216 C109.361464,145.490196 108.468081,146.752451 107.423964,148.039216 C108.644552,148.75 109.895777,149.436275 111.167836,150.098039 C112.285483,148.79902 113.21563,147.512255 113.985238,146.29902 C112.633522,145.625 111.346758,144.963235 110.11514,144.289216 L110.11514,144.289216 Z M46.1212674,144.816176 C46.0011694,145.220588 45.8994537,145.625 45.8075419,146.017157 C45.5489635,147.218137 45.3835223,148.480392 45.3528851,149.767157 C46.3822968,150.833333 47.4141596,151.752451 48.4190615,152.561275 C48.5465125,151.078431 48.8161204,149.473039 49.2854831,147.757353 C48.24014,146.89951 47.17764,145.919118 46.1212674,144.816176 Z M117.328375,147.892157 C116.559993,149.117647 115.635973,150.428922 114.542836,151.752451 C115.861464,152.365196 117.20215,152.953431 118.553865,153.504902 C119.667836,152.181373 120.594307,150.882353 121.356562,149.656863 C120.055091,149.117647 118.716856,148.529412 117.328375,147.892157 L117.328375,147.892157 Z M96.0097478,148.186275 L95.6433263,148.995098 C95.4778851,149.362745 95.30264,149.730392 95.1188165,150.085784 L94.6690615,150.968137 L95.7058263,151.397059 C94.7965125,155.04902 93.1837674,158.468137 90.9019047,161.580882 L90.2144047,162.512255 L93.8724929,164.056373 L94.2671008,163.823529 C96.3933263,162.585784 98.3712674,161.22549 100.186218,159.779412 C99.4043557,161.360294 98.4766596,162.867647 97.4068066,164.301471 L96.7107282,165.245098 L97.7830321,165.698529 C98.5060714,166.004902 99.232787,166.311275 99.9558263,166.617647 L100.374944,166.789216 L100.770777,166.556373 C105.010973,164.093137 108.627395,161.237745 111.531807,158.063725 L112.561218,158.492647 L112.950924,157.732843 C113.150679,157.352941 113.339405,156.960784 113.520777,156.568627 L113.917836,155.710784 L110.19112,154.142157 L109.759748,154.644608 C108.234013,156.409314 105.944797,158.713235 103.604111,160.710784 C104.711954,158.284314 105.492591,155.747549 105.932542,153.112745 L106.050189,152.401961 L103.885973,151.495098 L103.450924,152.022059 C101.624944,154.264706 99.4239635,156.360294 96.8810714,158.296569 C98.11514,155.710784 99.1592576,152.806373 99.7572968,150.612745 L99.9680812,149.840686 L96.0097478,148.186275 L96.0097478,148.186275 Z M124.828375,151.041667 C124.080826,152.267157 123.198473,153.553922 122.149454,154.877451 C123.56612,155.392157 124.987689,155.857843 126.409258,156.29902 C127.463179,154.97549 128.333277,153.688725 129.019552,152.512255 C127.683767,152.083333 126.286709,151.593137 124.828375,151.041667 L124.828375,151.041667 Z M155.306316,151.348039 C155.110238,152.512255 153.370042,154.129902 149.718081,154.926471 C149.362689,155.992647 148.823473,157.426471 148.01465,159.080882 C154.21563,157.561275 155.428865,153.002451 155.306316,151.348039 Z M132.659258,153.590686 C131.997493,154.767157 131.188669,156.053922 130.196022,157.389706 C131.71563,157.781863 133.222983,158.137255 134.730336,158.455882 C135.686218,157.107843 136.458277,155.808824 137.083277,154.607843 C135.686218,154.338235 134.227885,154.019608 132.659258,153.590686 L132.659258,153.590686 Z M140.919062,155.196078 C140.330826,156.421569 139.583277,157.781863 138.676414,159.191176 C140.46563,159.460784 142.083277,159.583333 143.529356,159.583333 C144.448473,158.002451 145.097983,156.568627 145.563669,155.392157 C144.178865,155.441176 142.634748,155.379902 140.919062,155.196078 L140.919062,155.196078 Z M46.1617086,155.477941 C46.7818066,157.463235 47.7842576,159.473039 49.3063165,161.482843 C49.3063165,161.482843 48.7033753,159.877451 48.4423459,157.218137 C47.7033753,156.703431 46.9386694,156.115196 46.1617086,155.477941 L46.1617086,155.477941 Z M113.314895,162.218137 L112.970532,162.352941 C112.341856,162.598039 111.703375,162.830882 111.055091,163.07598 L110.731562,163.186275 L110.567346,163.492647 C109.915385,164.693627 109.171513,165.882353 108.355336,167.022059 L108.127395,167.340686 L108.199699,167.732843 C108.319797,168.357843 108.431316,168.970588 108.52813,169.583333 L108.604111,170.085784 L113.041611,171.948529 C112.335728,172.781863 111.584503,173.602941 110.791611,174.39951 L108.07715,173.259804 L108.86514,172.414216 L105.181316,170.870098 L104.743816,171.335784 C103.975434,172.156863 103.66416,172.438725 102.830826,173.186275 L101.763424,174.154412 L110.322248,177.757353 L110.600434,177.696078 C111.45215,177.512255 112.294062,177.328431 113.129846,177.132353 L113.374944,177.071078 L113.558767,176.89951 C114.797738,175.686275 115.963179,174.411765 117.019552,173.07598 L117.292836,172.732843 L117.197248,172.303922 C117.058767,171.691176 116.906807,171.066176 116.742591,170.453431 L116.629846,170.012255 L112.235238,168.161765 C112.708277,167.47549 113.158032,166.752451 113.575924,166.041667 L116.373718,167.218137 L115.919062,167.977941 L116.888424,168.382353 C117.518326,168.651961 118.149454,168.921569 118.784258,169.178922 L119.515875,169.497549 L119.922738,168.811275 C120.385973,168.039216 120.752395,167.426471 121.165385,166.580882 L121.591856,165.698529 L113.314895,162.218137 L113.314895,162.218137 Z M120.234013,172.389706 L119.870042,173.210784 C119.704601,173.578431 119.526905,173.946078 119.344307,174.301471 L118.90313,175.183824 L119.681316,175.514706 C118.118816,178.333333 116.031807,180.992647 113.470532,183.394608 L113.13965,183.70098 L113.184993,184.154412 C113.238914,184.681373 113.285483,185.196078 113.319797,185.710784 L113.355336,186.27451 L119.78916,188.982843 L120.062444,188.933824 C120.898228,188.77451 121.722983,188.602941 122.534258,188.431373 L122.781807,188.382353 L122.977885,188.198529 C125.735238,185.625 127.99014,182.769608 129.656807,179.705882 L130.624944,180.122549 L131.017101,179.362745 C131.200924,178.970588 131.397003,178.590686 131.580826,178.198529 L131.972983,177.340686 L127.41416,175.416667 L127.046513,176.22549 C126.874944,176.593137 126.703375,176.960784 126.519552,177.316176 C124.999944,180.269608 122.928865,183.026961 120.361464,185.539216 L117.725434,184.436275 C120.186218,181.92402 122.181316,179.191176 123.66416,176.27451 C123.860238,175.882353 124.056316,175.490196 124.227885,175.098039 L124.620042,174.240196 L120.234013,172.389706 L120.234013,172.389706 Z M56.2046008,177.254902 C56.2046008,177.254902 57.4190615,179.583333 60.3099929,182.696078 C60.6666106,182.316176 61.0060714,181.936275 61.3369537,181.568627 C57.9987184,179.068627 56.2046008,177.254902 56.2046008,177.254902 Z M63.9840125,183.443627 C63.5305812,183.946078 63.0648949,184.448529 62.5832772,184.95098 C63.5979831,185.870098 64.7450419,186.838235 66.0379341,187.806373 C66.6580321,187.169118 67.2585223,186.519608 67.8308263,185.870098 C66.4337674,185.036765 65.1421008,184.227941 63.9840125,183.443627 Z M70.7793557,187.52451 C70.1347478,188.247549 69.4509243,188.958333 68.7499439,189.669118 C69.9582772,190.441176 71.2732282,191.20098 72.6886694,191.936275 C73.4680812,191.115196 74.1788655,190.294118 74.8271498,189.497549 C73.4031302,188.860294 72.0538655,188.198529 70.7793557,187.52451 L70.7793557,187.52451 Z M78.0367086,190.857843 C77.3528851,191.691176 76.6028851,192.54902 75.7916106,193.406863 C76.8148949,193.848039 77.8822968,194.276961 79.0011694,194.681373 C79.8773949,193.811275 80.6764145,192.953431 81.4117086,192.107843 C80.2474929,191.715686 79.1273949,191.29902 78.0367086,190.857843 Z M84.8700419,193.17402 C84.1298459,194.044118 83.3271498,194.914216 82.4570517,195.796569 C82.74014,195.882353 83.0171008,195.968137 83.3075419,196.053922 C84.3504341,196.335784 85.3516596,196.580882 86.3369537,196.82598 C87.2720027,195.943627 88.1273949,195.061275 88.9104831,194.203431 C87.5220027,193.897059 86.180091,193.553922 84.8700419,193.17402 Z M115.871267,194.656863 C114.16416,194.963235 112.496267,195.183824 110.846758,195.367647 C110.200924,196.20098 109.484013,197.071078 108.704601,197.953431 C113.879846,196.752451 115.871267,194.656863 115.871267,194.656863 L115.871267,194.656863 Z M92.6923459,194.914216 C91.9092576,195.808824 91.0612184,196.715686 90.1310714,197.634804 C91.61514,197.916667 93.0183263,198.137255 94.3528851,198.308824 C95.367591,197.352941 96.2879341,196.409314 97.1249439,195.490196 C95.610238,195.343137 94.1371988,195.147059 92.6923459,194.914216 L92.6923459,194.914216 Z M106.251169,195.723039 C104.564895,195.784314 102.920287,195.784314 101.303865,195.735294 C100.482787,196.703431 99.5783753,197.683824 98.5869537,198.688725 C100.400679,198.77451 102.045287,198.762255 103.534258,198.676471 C104.536709,197.671569 105.439895,196.678922 106.251169,195.723039 Z" id="Shape" fill="#FFFFFF"></path>
            </g>
        </g>
    </g>
</svg>