<?xml version="1.0" encoding="UTF-8" standalone="no"?>
<svg width="250px" height="250px" viewBox="0 0 250 250" version="1.1" xmlns="http://www.w3.org/2000/svg" xmlns:xlink="http://www.w3.org/1999/xlink">
    <!-- Generator: Sketch 47.1 (45422) - http://www.bohemiancoding.com/sketch -->
    <title>NIOWA</title>
    <desc>Created with Sketch.</desc>
    <defs></defs>
    <g id="Page-1" stroke="none" stroke-width="1" fill="none" fill-rule="evenodd">
        <g id="NIOWA">
            <g id="Group" transform="translate(0.000000, 32.000000)">
                <path d="M225.035579,104.509958 C225.035579,104.509958 219.476399,97.5672474 217.62334,94.7606195 L222.367173,83.5341081 C214.005261,77.4589452 204.885828,72.493381 195.238378,68.7623825 C204.107014,69.144153 212.930905,70.2308655 221.625949,72.0121622 L249.051233,0 L213.472486,0 L188.048506,66.4727651 L184.045897,65.291027 L208.95102,0 L177.449004,0 C177.449004,0 168.924929,22.1575884 167.813093,25.407368 L167.516603,0 L128.676471,0 L101.69592,70.6827069 L96.3591082,72.0121622 C96.3591082,71.1258586 97.1744545,70.1656965 97.5450664,69.2055343 L123.858515,0 L88.3538899,0 L64.1899905,63.2968441 C63.1464753,65.87346 60.8538808,67.7400118 58.1119545,68.2453721 L58.1119545,68.2453721 C57.4564452,68.2930583 56.8192213,68.0169903 56.4071395,67.5067859 C56.0858606,66.7514826 56.0858606,65.8986131 56.4071395,65.1433098 C56.3743452,64.7994107 56.3743452,64.4531881 56.4071395,64.109289 L80.7934061,0 L45.2887808,0 L21.050759,63.4445613 C20.3226786,65.3460362 19.7282639,67.2956887 19.2718216,69.2793929 C17.5900548,76.6359424 19.0969469,84.3580957 23.4226755,90.5506778 C26.4912668,94.6818563 30.9752343,97.5466401 36.023482,98.6012682 C13.267908,105.543979 0,110.123214 0,110.123214 C0,110.123214 26.2393264,112.855983 56.3330171,116.25348 C50.6616804,118.397818 45.1181457,120.863804 39.7296015,123.639343 C39.7296015,123.639343 97.470944,125.855102 113.851992,141.439272 C119.393,147.442905 125.939066,152.441198 133.197936,156.210998 C137.719402,168.102237 147.207068,185.089721 164.699953,185.089721 C175.693442,185.681999 185.608369,178.541571 188.49324,167.95452 C193.538187,164.138832 195.593091,157.550926 193.607685,151.557904 C200.777227,150.887388 207.298484,147.13955 211.471181,141.291555 C220.679659,140.219739 227.518145,132.28061 227.185128,123.048474 C227.189986,119.628664 226.295524,116.267271 224.590844,113.299135 C227.778107,107.242728 225.332068,104.731534 225.332068,104.731534 M139.572462,53.9167983 C139.572462,56.8711435 139.572462,59.7516299 139.572462,62.4843992 L139.572462,63.51842 L135.495731,64.109289 L139.49834,53.9167983" id="Shape" fill="#FDBD10" fill-rule="nonzero"></path>
                <path d="M233.411409,69.7964033 L233.411409,68.8362412 L234.004388,68.8362412 C234.375,68.8362412 234.597367,68.8362412 234.597367,69.2793929 C234.624314,69.4230879 234.57841,69.5707806 234.474674,69.674147 C234.370939,69.7775134 234.222719,69.8232542 234.07851,69.7964033 L233.411409,69.7964033 M235.190346,69.2793929 C235.190346,68.5408067 235.190346,68.2453721 233.930266,68.2453721 L232.81843,68.2453721 L232.81843,71.642869 L233.411409,71.642869 L233.411409,70.3134137 L233.782021,70.3134137 L234.523245,71.642869 L235.264469,71.642869 L234.375,70.3134137 C234.878176,70.2373732 235.235249,69.7845337 235.190346,69.2793929 M233.930266,72.3814553 C232.916246,72.5045668 231.932226,71.9868113 231.462421,71.0829644 C230.992615,70.1791175 231.135968,69.0795349 231.821938,68.325296 C232.507908,67.571057 233.592026,67.3210092 234.540822,67.6981952 C235.489619,68.0753812 236.103271,69.0003634 236.079815,70.0179792 C236.122437,71.2553307 235.170226,72.3023078 233.930266,72.3814553 M233.930266,66.9897755 C232.681335,66.8677946 231.4856,67.5232907 230.920435,68.6397504 C230.355269,69.75621 230.536916,71.1040003 231.377665,72.0323258 C232.218413,72.9606512 233.54534,73.2785743 234.717722,72.8325824 C235.890105,72.3865905 236.666809,71.268415 236.672794,70.0179792 C236.713135,69.2537706 236.446633,68.5049771 235.932102,67.9368495 C235.41757,67.368722 234.697307,67.0279633 233.930266,66.9897755" id="Shape" fill="#FDBD10"></path>
                <path d="M222.886029,124.747222 C222.272197,131.677891 216.45232,136.996463 209.469877,137.007755 C207.932775,139.693188 205.772338,141.972569 203.169473,143.655031 C200.976999,145.282626 198.442732,146.393736 195.757234,146.904811 C196.630095,145.573633 197.257613,144.09796 197.610294,142.547152 C197.951175,141.4189 198.150354,140.252888 198.203273,139.075796 C194.59831,139.872096 191.500863,142.153367 189.679198,145.35378 C188.019371,147.719845 187.091685,150.518677 187.010792,153.40437 L189.530954,151.114753 C190.896718,153.886438 190.896718,157.132244 189.530954,159.903929 C188.804513,162.051317 187.260615,163.828439 185.231855,164.852457 C184.833242,166.808082 184.159489,168.697823 183.23055,170.465713 C178.356949,178.634566 168.705172,182.67928 159.437263,180.436628 C144.612785,177.11299 135.347486,152.518067 135.199241,152.444208 C128.808582,149.082575 123.002269,144.718399 118.002846,139.518948 C113.259013,134.422703 103.178368,126.150536 56.4071395,120.537281 L75.8272059,114.037721 L17.7893738,108.20289 C59.2979127,96.0162162 81.53463,89.3689397 103.326613,83.8295426 L91.392908,77.4777006 C110.844654,72.2756265 130.66907,68.5717757 150.690821,66.3989064 C184.490631,63.3707027 202.576494,76.7391143 217.400972,85.2328565 L213.101874,95.3514886 C213.768975,96.3855094 222.218928,106.947293 222.218928,107.168869 C222.307276,109.367072 221.344831,111.476916 219.624644,112.855983 C222.551606,116.076331 223.787218,120.481346 222.960152,124.747222" id="Shape" fill="#53237F"></path>
                <path d="M183.971774,157.392736 C182.750295,158.177116 181.392983,158.728127 179.969165,159.017626 C179.215618,159.836096 178.863002,160.944235 179.005574,162.04583 C179.022357,163.084362 179.585219,164.037824 180.488022,164.557023 C182.804119,164.168278 184.87756,162.896855 186.269568,161.011809 C187.940974,159.166858 188.454129,156.553399 187.603771,154.216815 C186.591319,155.481339 185.361564,156.556671 183.971774,157.392736" id="Shape" fill="#FFFFFF"></path>
                <path d="M189.160342,134.644279 C186.022199,133.056147 182.520361,132.31752 179.005574,132.502378 C177.374881,132.502378 182.044592,134.348844 183.156428,137.155472 C183.782377,138.471806 184.111286,139.908812 184.120019,141.365414 C184.120019,141.365414 190.642789,135.899875 189.160342,134.644279" id="Shape" fill="#FFFFFF"></path>
                <path d="M210.359345,119.50326 C209.662156,115.827852 207.365841,112.649446 204.089126,110.824437 C200.812411,108.999428 196.892403,108.715573 193.385318,110.049356 L193.385318,106.578 C196.743797,105.12414 200.28445,104.130322 203.910697,103.623655 C207.561361,103.011333 211.282493,102.936678 214.954934,103.402079 C213.492855,100.570442 211.476636,98.0591374 209.025142,96.0162162 C205.909329,93.0484062 201.995046,91.0469086 197.758539,90.2552432 L205.170778,89.3689397 L208.135674,84.937422 C189.012097,74.5972141 176.70778,67.6545031 151.580289,69.7964033 C135.447492,71.3137801 119.460991,74.1045496 103.771347,78.1424283 L116.001542,84.8635634 C87.0938093,91.289264 66.7101518,97.7149647 37.0611954,105.839414 L89.5398482,110.714083 L72.4916983,118.099946 C109.552894,123.343909 119.262927,134.791996 120.226518,135.973734 C125.178386,141.855294 131.415725,146.529285 138.460626,149.63758 C140.365245,155.865739 143.433336,161.679379 147.503558,166.772782 C152.331621,172.572103 159.679355,175.682402 167.220114,175.118807 C172.50889,174.62617 177.348303,171.947174 180.562144,167.732944 C175.599086,169.857583 169.856709,168.999291 165.737666,165.517185 C161.631854,162.434379 158.95708,157.823486 158.325427,152.739642 C157.287713,148.308125 158.696039,146.3878 156.175878,142.694869 C152.412653,138.640629 146.69416,137.016658 141.351399,138.484927 C148.679338,133.617399 157.063007,130.554326 165.811788,129.548033 C173.66187,128.47714 181.654253,129.235611 189.160342,131.763792 C199.389231,136.416886 212.36065,128.957164 210.211101,119.060108" id="Shape" fill="#FDBD10"></path>
                <path d="M172.927538,155.103119 C171.778152,155.921925 170.500861,156.54582 169.147296,156.949584 C168.315034,157.958114 168.315034,159.41241 169.147296,160.42094 C170.074952,161.459831 171.553612,161.813447 172.853416,161.307243 C174.993765,159.826804 176.521541,157.622037 177.152514,155.103119 C177.631802,153.563657 177.631802,151.915628 177.152514,150.376166 C176.197897,152.325873 174.706973,153.965177 172.853416,155.103119" id="Shape" fill="#FFFFFF"></path>
                <path d="M212.36065,122.605322 C212.731872,123.98426 212.731872,125.436326 212.36065,126.815264 C212.164625,128.602232 211.321298,130.256625 209.988733,131.468358 C214.0824,131.468358 217.400972,128.161594 217.400972,124.082495 C217.775465,121.807497 217.12464,119.483674 215.622035,117.730653 L212.138283,122.383746" id="Shape" fill="#FDBD10"></path>
                <path d="M146.762334,106.799576 C137.034316,107.861203 127.380438,109.513788 117.854602,111.748104 L118.669948,115.071742 L105.476162,110.34479 C116.2397,107.172601 127.285971,105.045413 138.460626,103.992948 C155.185745,101.715362 172.16436,102.039274 188.78973,104.95311 C174.75337,104.355975 160.691481,104.973781 146.762334,106.799576" id="Shape" fill="#53237F"></path>
                <path d="M150.394331,113.520711 C144.461543,114.826307 138.598458,116.428604 132.827324,118.321522 L132.308468,122.014453 L121.264231,116.992067 C130.232263,114.318671 139.369713,112.246003 148.615394,110.787942 C161.119181,108.621194 173.802976,107.656599 186.491935,107.907455 C174.312361,108.533588 162.222845,110.339325 150.394331,113.299135" id="Shape" fill="#53237F"></path>
                <path d="M157.954815,118.616956 C153.495802,120.278545 149.139637,122.202248 144.909274,124.377929 L144.390417,128.292437 L135.495731,123.27005 C141.897769,120.581641 148.487284,118.360039 155.212287,116.622773 C163.694618,114.251216 172.379434,112.668786 181.155123,111.895821 C173.228375,113.410837 165.461138,115.661007 157.954815,118.616956" id="Shape" fill="#53237F"></path>
                <path d="M164.699953,85.0851393 C166.654575,86.9709919 168.349469,89.1069068 169.740275,91.4369813 L190.716912,90.1813846 C185.534575,86.4718609 179.73931,83.6970324 173.594639,81.9830769 C167.86552,80.1028589 161.781961,79.5471837 155.805266,80.3581871 C159.065742,81.3053671 162.094168,82.9147798 164.699953,85.0851393" id="Shape" fill="#53237F"></path>
                <path d="M164.699953,85.0851393 C162.094168,82.9147798 159.065742,81.3053671 155.805266,80.3581871 C161.781961,79.5471837 167.86552,80.1028589 173.594639,81.9830769 C177.146106,82.9899941 180.595424,84.3252487 183.897652,85.9714428 C180.083256,83.4452114 175.976836,81.3869083 171.667457,79.8411767 C159.939287,76.6503413 147.584042,76.5231586 135.79222,79.4718836 C141.766745,79.0537084 147.761046,79.9357926 153.359227,82.0569356 C159.129696,84.4758339 164.601389,87.5489041 169.666153,91.2154054 C168.283651,88.9666651 166.614331,86.9060609 164.699953,85.0851393" id="Shape" fill="#FFFFFF" fill-rule="nonzero"></path>
                <path d="M199.315109,143.581173 C202.286831,142.091483 204.835526,139.882008 206.727348,137.155472 C204.683781,137.684581 202.602114,138.054984 200.501067,138.263351 C200.555409,140.098427 200.174478,141.920389 199.389231,143.581173" id="Shape" fill="#FFFFFF" fill-rule="nonzero"></path>
                <path d="M164.699953,43.1334387 L163.217505,47.1218046 L163.736361,42.8380042 C164.184157,38.6434253 164.382164,34.4260951 164.329341,30.2081788 L164.329341,3.76679002 L130.974265,3.76679002 L106.069141,69.057817 C116.965133,66.6204823 124.822106,65.0694511 132.011978,63.8877131 L137.052301,50.5931601 C138.979483,45.7184906 140.75842,41.1392557 142.389113,36.7815967 L143.723316,33.3840998 L143.723316,37.0031726 C143.204459,45.4230561 143.278582,54.1383742 143.352704,62.4105405 L148.244782,61.9673888 C151.555582,61.6719543 154.816967,61.524237 158.028937,61.524237 C165.813422,61.4661161 173.577051,62.3339368 181.155123,64.109289 L203.836575,3.76679002 L179.746798,3.76679002 L164.92232,43.1334387" id="Shape" fill="#53237F" fill-rule="nonzero"></path>
                <path d="M219.476399,68.0976549 L244.010911,3.76679002 L215.77028,3.76679002 L192.718216,65.3648857 C201.830437,65.3630165 210.919531,66.2785897 219.847011,68.0976549" id="Shape" fill="#53237F" fill-rule="nonzero"></path>
                <path d="M74.5671252,86.5623119 C83.6969738,83.7111734 90.9639746,76.7706077 94.2095588,67.8022204 L118.595825,3.76679002 L90.6516841,3.76679002 L67.3772533,64.700158 C65.9671364,68.6400829 62.4881752,71.481543 58.3343216,72.0860208 C54.1093454,72.0860208 51.5891841,68.9100998 52.6268975,64.700158 C52.7059321,64.1658848 52.8554712,63.6443605 53.0716319,63.1491268 L75.3083491,4.06222453 L47.586575,4.06222453 L24.2380218,64.9217339 C23.5619246,66.594162 23.0408938,68.3247512 22.6814516,70.0918378 C19.8648008,84.0511185 28.0923861,95.3514886 41.0638046,95.3514886 C42.9667902,95.3656763 44.8625752,95.1171185 46.6971063,94.6129023 L74.5671252,86.5623119" id="Shape" fill="#53237F"></path>
            </g>
        </g>
    </g>
</svg>