<svg width="500" height="500" viewBox="0 0 500 500" fill="none" xmlns="http://www.w3.org/2000/svg">
<g clip-path="url(#clip0_38_19200)">
<path d="M148.189 68.2008V31.999H58.4043V297.095H97.353V178.833H142.467V142.632H97.353V68.2008H148.189Z" fill="#28334A"/>
<path d="M100.353 300.094H55.4062V29H151.189V71.1995H100.353V139.633H145.467V181.832H100.353V300.094ZM61.4039 294.096H94.355V175.834H139.469V145.63H94.355V65.2018H145.191V34.9976H61.4039V294.096Z" fill="#72293C"/>
<path d="M399.839 36.1973V250.313C399.503 261.109 396.348 264.768 388.192 265.032H374.229C365.233 264.72 361.838 261.025 361.49 250.313V36.1973H322.529V249.27C322.529 266.147 326.008 279.138 333.325 288.051C340.642 296.963 351.798 301.245 365.94 301.245H395.077C409.267 301.245 420.435 296.915 427.836 288.051C435.237 279.186 438.824 266.387 438.824 249.63V36.1973H399.839Z" fill="#28334A"/>
<path d="M365.904 304.292C350.646 304.292 338.927 299.494 331.118 289.898C323.309 280.301 319.578 267.191 319.578 249.21V33.1982H364.453V250.313C364.776 260.113 367.619 261.805 374.301 262.045H388.155C393.973 261.853 396.552 260.173 396.804 250.229V33.1982H441.786V249.629C441.786 267.538 437.96 280.817 430.139 290.054C422.318 299.29 410.466 304.292 395.124 304.292H365.904ZM325.528 39.1959V249.27C325.528 265.571 328.946 277.974 335.688 286.143C342.429 294.312 352.481 298.294 365.904 298.294H395.124C408.607 298.294 418.863 294.228 425.581 286.203C432.298 278.178 435.813 265.811 435.825 249.629V39.1959H402.837V250.313C402.466 262.596 398.243 267.706 388.287 268.03H374.229C363.433 267.658 358.887 262.548 358.491 250.409V39.1959H325.528Z" fill="#72293C"/>
<path d="M279.61 45.1939C270.877 36.2693 257.887 31.999 241.225 31.999H178.178V297.095H248.434C262.685 297.095 273.756 293.868 281.337 287.055C288.918 280.242 292.553 270.01 292.541 257.067V84.3825C292.553 67.3372 288.355 54.1423 279.61 45.1939ZM253.016 251.597C252.716 258.206 250.174 260.533 241.537 260.881H217.726V68.2008H239.702C248.962 68.5007 252.668 72.6991 253.016 84.7424V251.597Z" fill="#28334A"/>
<path d="M248.435 300.094H175.18V29H241.274C258.967 29 272.593 33.7981 281.746 43.1185C290.91 52.4748 295.552 66.3653 295.54 84.3943V257.031C295.54 271.113 291.45 281.969 283.341 289.286C275.232 296.603 263.621 300.094 248.435 300.094ZM181.177 294.096H248.435C262.098 294.096 272.486 290.977 279.323 284.824C286.16 278.67 289.555 269.35 289.543 257.031V84.3823C289.543 67.9847 285.488 55.5096 277.464 47.3048C269.475 39.136 257.299 34.9976 241.274 34.9976H181.177V294.096ZM241.598 263.88H214.728V65.2018H239.702C250.918 65.5617 255.62 71.1995 256.016 84.6582V251.729C255.584 261.325 250.018 263.544 241.622 263.88H241.598ZM220.726 257.882H241.478C249.371 257.546 249.874 255.687 250.018 251.525V84.7781C249.682 73.4786 246.54 71.4633 239.606 71.2354H220.726V257.882Z" fill="#72293C"/>
<path d="M260.61 366.596V349.97C260.61 341.574 258.595 335.036 254.385 330.622C250.174 326.208 243.913 324.073 235.9 324.085H223.185C215.856 324.085 210.098 326.184 206.248 330.55C202.397 334.916 200.586 341.346 200.586 349.575V442.922C200.586 451.055 202.409 457.316 206.248 461.659C210.086 466.001 215.844 468.028 223.185 468.028H260.61V396.572H230.034V416.232H239.631V448.368H228.343C223.605 448.224 221.686 445.969 221.494 439.383V352.729C221.686 346.168 223.605 343.889 228.343 343.745H232.961C237.555 343.889 239.439 346.144 239.631 352.729V366.596H260.61Z" fill="#28334A"/>
<path d="M223.16 470.427C215.015 470.427 208.765 468.028 204.459 463.23C200.153 458.431 198.186 451.726 198.186 442.838V349.574C198.186 340.626 200.297 333.692 204.447 328.966C208.597 324.24 214.991 321.685 223.136 321.685H235.947C244.727 321.685 251.541 324.084 256.123 328.954C260.705 333.824 263.008 340.83 263.008 349.97V368.995H237.302V352.729C237.134 346.587 235.539 346.227 232.972 346.143H228.438C225.811 346.227 224.155 346.587 223.975 352.789V439.383C224.155 445.525 225.811 445.884 228.51 445.968H237.302V418.631H227.706V394.161H263.08V470.427H223.16ZM223.16 326.483C216.454 326.483 211.38 328.39 208.07 332.133C204.759 335.876 203.008 341.825 203.008 349.574V442.922C203.008 450.551 204.711 456.308 208.058 460.063C211.404 463.817 216.454 465.629 223.184 465.629H258.234V398.959H232.432V413.833H242.028V450.766H228.39C220.497 450.527 219.285 444.913 219.129 439.455V352.729C219.285 347.199 220.497 341.597 228.306 341.345H232.996C240.709 341.585 241.896 347.199 242.052 352.657V364.196H258.21V349.97C258.21 342.101 256.339 336.151 252.644 332.265C248.95 328.378 243.36 326.483 235.947 326.483H223.136H223.16Z" fill="#72293C"/>
<path d="M319.699 324.084V384.157H299.499V324.084H278.604V468.028H299.499V403.817H319.699V468.028H340.595V324.084H319.699Z" fill="#28334A"/>
<path d="M343.005 470.427H317.299V406.252H301.897V470.427H276.203V321.685H301.897V381.758H317.299V321.685H343.005V470.427ZM322.097 465.629H338.207V326.483H322.097V386.556H297.099V326.483H281.001V465.629H297.099V401.454H322.097V465.629Z" fill="#72293C"/>
<path d="M123.383 324.084V384.997L105.738 324.084H85.166V468.028H106.062V382.394L123.383 438.796V468.028H144.279V324.084H123.383Z" fill="#28334A"/>
<path d="M146.679 470.427H120.949V439.155L108.426 398.371V470.427H82.7676V321.685H107.538L120.949 368.095V321.685H146.643L146.679 470.427ZM125.783 465.629H141.88V326.483H125.747V401.898L103.927 326.483H87.5657V465.629H103.663V366.416L125.783 438.387V465.629Z" fill="#72293C"/>
<path d="M497.602 364.617V349.575C497.602 341.322 495.491 334.904 491.076 330.538C486.662 326.172 480.065 324.073 471.632 324.085H458.797C450.4 324.085 443.779 326.184 439.341 330.538C434.902 334.892 432.827 341.334 432.827 349.575V378.519C432.731 381.7 433.185 384.874 434.171 387.9C435.081 390.358 436.68 392.503 438.777 394.077C441.792 396.169 444.982 397.995 448.313 399.535L467.757 409.563C469.611 410.568 471.39 411.702 473.083 412.958C473.719 413.438 474.343 414.841 474.283 417.324V441.315C474.079 446.449 472.352 448.152 467.53 448.32H463.931C458.257 448.128 456.302 446.341 456.098 441.315V432.402H432.827V440.799C432.827 449.639 434.902 456.465 439.329 461.191C443.755 465.917 450.328 468.124 458.737 468.124H471.416C479.909 468.124 486.554 466.061 491.004 461.767C495.455 457.472 497.602 451.151 497.602 443.03V412.79C497.602 407.716 497.146 404.261 495.946 402.078C494.832 400.099 493.276 398.404 491.4 397.124C488.423 395.175 485.335 393.401 482.152 391.81L462.659 382.142C460.811 381.146 459.039 380.015 457.358 378.759C456.698 378.279 456.098 376.876 456.158 374.381V350.954C456.362 345.712 458.233 343.925 463.559 343.757H466.762C472.244 343.937 474.163 345.748 474.367 350.954V364.617H497.602Z" fill="#28334A"/>
<path d="M471.439 470.427H458.736C449.499 470.427 442.386 467.836 437.576 462.738C432.766 457.64 430.379 450.335 430.379 440.763V429.967H458.46V441.326C458.604 444.781 459.3 445.777 463.978 445.932H467.576C470.899 445.813 471.775 445.249 471.931 441.23V417.24C472.002 416.373 471.866 415.501 471.535 414.697C469.952 413.548 468.298 412.502 466.581 411.566L447.22 401.67C443.76 400.079 440.451 398.176 437.336 395.984C434.862 394.146 432.981 391.623 431.926 388.727C430.835 385.438 430.328 381.983 430.427 378.519V349.574C430.427 340.554 432.826 333.573 437.624 328.834C442.422 324.096 449.535 321.637 458.712 321.637H471.691C480.867 321.637 487.956 324.036 492.754 328.834C497.553 333.633 499.952 340.554 499.952 349.574V367.015H471.919V350.954C471.775 347.355 471.103 346.288 466.629 346.156H463.51C459.515 346.288 458.652 347.115 458.508 351.05V374.393C458.45 375.258 458.581 376.126 458.892 376.936C460.44 378.086 462.072 379.121 463.774 380.03L483.206 389.627C486.51 391.267 489.715 393.102 492.802 395.12C494.976 396.609 496.781 398.574 498.08 400.866C499.436 403.337 500 406.768 500.036 412.741V442.898C500.036 451.822 497.565 458.707 492.706 463.374C487.848 468.04 480.687 470.427 471.439 470.427ZM435.225 434.801V440.798C435.225 449.195 437.132 455.325 441.067 459.475C445.001 463.626 450.879 465.665 458.736 465.665H471.439C479.404 465.665 485.425 463.757 489.348 459.979C493.27 456.2 495.201 450.527 495.201 442.97V412.801C495.201 407.835 494.746 404.885 493.846 403.205C492.898 401.555 491.59 400.141 490.019 399.067C487.127 397.175 484.127 395.452 481.035 393.909L461.471 384.205C459.519 383.148 457.651 381.945 455.881 380.606C454.453 379.514 453.698 377.343 453.71 374.321V350.954C453.962 344.416 456.865 341.573 463.426 341.357H466.713C473.502 341.585 476.465 344.428 476.717 350.87V362.229H495.201V349.574C495.201 341.885 493.246 336.056 489.384 332.253C485.521 328.451 479.608 326.483 471.691 326.483H458.748C450.879 326.483 444.917 328.427 441.031 332.253C437.144 336.08 435.225 341.849 435.225 349.574V378.519C435.138 381.417 435.543 384.309 436.425 387.072C437.17 389.098 438.486 390.864 440.215 392.158C443.111 394.156 446.173 395.902 449.367 397.375L468.812 407.452C470.799 408.518 472.711 409.721 474.534 411.05C475.913 412.106 476.693 414.337 476.669 417.324V441.314C476.417 447.708 473.706 450.491 467.6 450.719H463.894C456.948 450.479 453.914 447.696 453.662 441.398V434.801H435.225Z" fill="#72293C"/>
<path d="M358.588 324.084V343.745H376.257V468.028H397.165V343.745H414.834V324.084H358.588Z" fill="#28334A"/>
<path d="M399.562 470.427H373.856V346.143H356.199V321.685H417.231V346.143H399.562V470.427ZM378.654 465.629H394.764V341.345H412.433V326.483H360.997V341.345H378.654V465.629Z" fill="#72293C"/>
<path d="M66.5853 466.337L41.5871 395.612L61.6192 324.084H41.863L23.6061 390.718V324.084H2.39844V468.028H23.6061V402.342L45.8094 468.028H67.1731L66.5853 466.337Z" fill="#28334A"/>
<path d="M70.5683 470.427H44.0827L26.0058 416.94V470.427H0V321.685H26.0058V372.881L40.0283 321.685H64.7746L44.1067 395.528L69.4408 467.248L70.5683 470.427ZM47.5493 465.629H63.815L39.0927 395.696L58.4771 326.483H43.6869L24.3624 397.064L47.5493 465.629ZM4.8221 465.629H21.2317V326.483H4.79812L4.8221 465.629Z" fill="#72293C"/>
<path d="M182.592 324.084H162.271V468.028H182.592V324.084Z" fill="#28334A"/>
<path d="M184.991 470.427H159.873V321.685H184.991V470.427ZM164.671 465.629H180.193V326.483H164.671V465.629Z" fill="#72293C"/>
</g>
<defs>
<clipPath id="clip0_38_19200">
<rect width="500" height="441.427" fill="white" transform="translate(0 29)"/>
</clipPath>
</defs>
</svg>
