<?xml version="1.0" encoding="UTF-8"?>
<svg width="500px" height="500px" viewBox="0 0 500 500" version="1.1" xmlns="http://www.w3.org/2000/svg" xmlns:xlink="http://www.w3.org/1999/xlink">
    <!-- Generator: Sketch 58 (84663) - https://sketch.com -->
    <title>Team Logos / NCAA / Dark / LIU</title>
    <desc>Created with Sketch.</desc>
    <g id="Team-Logos-/-NCAA-/-Dark-/-LIU" stroke="none" stroke-width="1" fill="none" fill-rule="evenodd">
        <g id="1Asset-1" transform="translate(28.000000, 0.000000)" fill-rule="nonzero">
            <path d="M178.27447,179.74773 L178.27447,0 L254.682139,0 L254.682139,182.734612 C236.987891,185.191726 219.868819,189.096872 204.051463,194.556004 C196.427357,188.098832 187.693074,183.081193 178.27447,179.74773 Z M366.866801,0 L366.866801,156.291625 L339.556004,156.291625 L339.556004,0 L263.148335,0 L263.148335,181.099899 L263.652876,181.60444 C308.910192,176.619576 357.169526,180.887992 397.088799,193.027245 C400.943454,194.191419 404.010645,197.125992 405.34395,200.92546 C406.677254,204.724929 406.116424,208.932642 403.834511,212.250252 L412.119072,212.250252 L443.27447,181.094854 L443.27447,0 L366.866801,0 Z M116.185671,183.309788 C125.903128,178.617558 146.553986,172.119072 169.667003,177.300706 L169.667003,134.147326 L102.800202,134.147326 L102.800202,156.291625 L76.4127144,156.291625 L76.4127144,0 L0,0 L0,212.255298 L131.236125,212.255298 C128.496468,192.421796 116.185671,183.309788 116.185671,183.309788 Z" id="Shape" fill="#65B2E8"></path>
            <path d="M379.843592,12.9767911 L379.843592,169.268416 L326.584258,169.268416 L326.584258,12.9767911 L276.130172,12.9767911 L276.130172,175.726539 L280.590313,180.18668 C267.548376,180.9432 254.564469,182.491631 241.710394,184.823411 L241.710394,12.9767911 L191.256307,12.9767911 L191.256307,185.671039 C180.694316,179.639204 168.86666,176.164344 156.720484,175.524723 L156.720484,147.124117 L115.776993,147.124117 L115.776993,169.268416 L63.4359233,169.268416 L63.4359233,12.9767911 L12.9818365,12.9767911 L12.9818365,199.293643 L127.679112,199.293643 C132.482341,210.580222 134.843592,228.052472 124.485368,252.573158 C120.797175,261.291625 111.468214,273.89001 110.080727,290.287588 C44.4399596,319.147326 37.1947528,337.008073 37.1947528,337.008073 C73.3501514,327.78002 113.683148,320.887992 113.683148,320.887992 C123.950555,353.128153 149.07669,367.840565 149.909183,369.883956 C162.245207,399.964682 160.787084,396.897074 161.165489,396.200807 C169.843592,380.025227 168.773966,381.533804 169.45005,381.897074 C173.360242,383.985873 175.721493,385.126135 177.15439,385.792129 C177.376387,452.608476 220.877901,499.954591 220.882947,499.848815 C223.405651,468.062563 226.251261,423.915237 242.815338,394.157417 C256.876892,369.939455 296.099899,343.773966 303.072654,339.833502 C306.013392,338.144019 309.555295,337.857188 312.729566,339.051463 C316.442987,340.282543 315.787084,340.227043 316.321897,339.727548 C339.470232,318.193744 357.719475,308.27447 357.719475,308.27447 C318.536831,305.201816 296.402624,308.627649 289.823411,309.929364 C289.493145,302.66625 288.060704,295.49554 285.575177,288.662967 C372.507568,261.760848 355.706357,244.328961 352.704339,241.881937 C372.583249,238.64783 391.458123,227.144299 403.128153,213.20888 C406.418549,209.311164 407.01719,203.807655 404.641776,199.293643 L406.770938,199.293643 L430.327952,175.73663 L430.327952,12.9767911 L379.843592,12.9767911 Z M18.1634712,194.086781 L18.1634712,18.1634712 L58.2391524,18.1634712 L58.2391524,174.460141 L120.968718,174.460141 L120.968718,152.315843 L151.523713,152.315843 L151.523713,175.388496 C136.125126,175.524723 123.269425,179.894046 116.205853,183.309788 C116.205853,183.309788 120.887992,186.781029 125.116044,194.086781 L18.1634712,194.086781 Z M196.442987,18.1634712 L236.513623,18.1634712 L236.513623,185.822402 C225.511652,188.012434 214.667113,190.930043 204.051463,194.556004 C201.618445,192.526382 199.078662,190.628282 196.442987,188.869828 L196.442987,18.1634712 Z M196.220989,343.481332 C192.865792,324.374369 208.980827,312.704339 208.980827,312.704339 C226.639758,313.713421 237.431887,320.141271 240.095863,321.892028 C225.620585,326.836529 209.783047,333.829465 196.220989,343.486377 L196.220989,343.481332 Z M425.110999,173.562059 L404.596367,194.07669 L399.550959,194.07669 C398.772781,193.640301 397.950915,193.286865 397.09889,193.0222 C364.147326,183.012109 325.514632,178.355197 287.588295,179.838547 L281.316852,173.562059 L281.316852,18.1634712 L321.392533,18.1634712 L321.392533,174.460141 L385.035318,174.460141 L385.035318,18.1634712 L425.110999,18.1634712 L425.110999,173.562059 Z" id="Shape" fill="#FFFFFF"></path>
            <path d="M110.332997,290.055499 L110.332997,290.055499 C110.348133,289.969728 110.343088,290.010091 110.332997,290.055499 Z" id="Path" fill="#FFFFFF"></path>
            <path d="M160.590313,275.711403 C165.211907,266.735621 172.477296,256.836529 178.345106,249.853683 C175.696266,255.751766 171.786075,265.655903 169.646821,274.550959 C166.760848,274.838547 163.733602,275.227043 160.590313,275.711403 Z M183.713421,273.89001 C185.020182,262.951564 189.717457,249.899092 194.248234,240.590313 C187.401615,248.76892 178.410696,261.755802 173.950555,274.172553 C177.482341,273.925328 180.756811,273.834511 183.713421,273.89001 Z M397.497477,208.486377 C390.575177,216.760848 373.279516,231.957619 348.864783,234.984864 L341.84662,242.09889 C345.590313,244.672048 347.28557,247.270434 347.15439,248.350151 C346.190716,256.306761 341.639758,263.814329 274.298688,282.542886 C286.493441,300.958628 287.073663,323.683148 278.471241,343.39556 L278.471241,343.45106 C278.471241,343.45106 288.183653,334.465187 289.672048,316.644803 C307.078708,314.0111 323.758829,313.077699 337.573158,313.758829 C328.738648,319.268416 317.149344,330.166498 314.803229,332.401615 C314.534177,332.657033 314.14667,332.744222 313.794147,332.628658 C308.87077,331.215307 303.577861,331.977471 299.25328,334.722503 C250.655903,365.25227 236.917255,391.664985 236.917255,391.664985 C218.930373,421.937437 215.459132,481.907164 215.459132,481.907164 C194.772957,453.360242 182.896065,418.15338 183.70333,381.700303 C177.803917,379.05804 172.056658,376.088398 166.488396,372.805247 L161.72553,381.680121 L154.979818,365.237134 C130.761857,347.492432 121.72553,327.865792 118.148335,312.986882 C94.2633703,317.245207 68.3551968,324.591322 50.1059536,329.737639 C65.0857719,314.414733 135.297679,282.744702 200.338042,278.385469 C199.071645,276.301715 195.322906,274.909183 189.767911,274.273461 C189.147326,274.202825 188.496468,274.142281 187.830474,274.086781 C191.034309,258.743693 201.004036,242.300706 210.151362,231.337033 C204.843592,241.574168 198.753784,258.521695 198.481332,272.068618 C200.031954,271.540531 201.560713,271.035991 203.067608,270.554995 C205.691221,252.830474 215.327952,234.989909 226.049445,222.119072 C219.112008,234.87891 213.506559,251.886983 213.753784,267.225025 C258.390515,254.0111 281.463169,255.978809 281.543895,255.968718 C303.668012,264.661958 331.997982,256.922301 337.260343,249.354188 C329.535822,248.39556 311.528759,242.885974 307.764884,239.833502 C308.733602,240.070636 310.86781,240.489405 313.506559,241.079717 L311.397578,234.106963 L305.489405,238.733602 L303.138244,232.275479 L298.526741,235.570131 C296.841568,234.625735 295.251602,233.5207 293.779011,232.270434 C290.580222,232.371342 279.50555,236.584258 279.50555,236.584258 C312.023209,212.976791 308.804238,225.580222 338.335015,226.997982 C345.903128,227.366297 354.409687,226.871847 362.71443,223.789102 C371.291625,220.61554 378.08779,216.059536 382.280525,211.130172 C383.029549,210.263255 383.281982,209.07293 382.9493,207.976616 C382.616618,206.880302 381.745252,206.030999 380.640767,205.726539 C302.759839,184.238143 237.674067,194.122099 191.892028,214.041372 C192.880308,212.154622 194.121125,210.411368 195.580222,208.859738 C175.327952,188.314834 147.275479,189.535822 141.05449,190.645812 C141.10999,190.782038 153.107972,212.174571 144.914228,237.961655 C153.367761,229.470426 162.895192,222.120888 173.254289,216.099899 C170.191726,201.422805 156.644803,194.45005 150.449041,191.987891 C161.892028,194.344097 180.216953,200.696266 184.445005,217.447023 C156.781029,230.761857 137.018163,247.643794 126.851665,262.674067 C156.115035,209.112008 129.495459,186.513623 129.495459,186.513623 C129.495459,186.513623 166.685166,170.529768 202.023209,202.558022 C259.883956,180.978809 335.221998,182.305752 394.954591,200.100908 C396.64264,200.606829 397.96494,201.924843 398.476338,203.61124 C398.987737,205.297637 398.620207,207.128091 397.497477,208.486377 Z M263.425832,332.754793 C262.447023,331.644803 261.321897,330.454087 260.211907,329.344097 C235.297679,337.315843 214.899092,348.476287 204.344097,357.401615 C202.325933,355.943491 200.206862,353.622603 198.46115,349.944501 C213.723512,338.673058 233.632694,330.166498 254.520686,324.212916 C241.53885,313.668012 224.929364,307.421796 206.453078,307.028254 C177.093845,329.465187 187.739657,369.268416 221.337033,383.45106 C221.337033,383.45106 211.185671,374.803229 215.665994,366.967709 L215.665994,366.922301 C226.276488,351.276488 244.369324,340.287588 263.425832,332.754793 Z M328.829465,205.25227 C328.41383,205.250894 328.013274,205.09642 327.704339,204.818365 C327.435114,205.415847 327.285969,206.060425 327.265388,206.715439 C327.221416,207.993357 327.700312,209.233973 328.591526,210.150895 C329.48274,211.067817 330.70924,211.581791 331.987891,211.574251 C334.436984,211.550979 336.515696,209.772265 336.917255,207.356206 C337.87465,207.902884 338.584738,208.79727 338.900101,209.853683 C347.931382,208.985873 358.526741,208.239152 367.230071,207.699294 C356.831483,205.731584 346.236125,204.228052 335.565086,203.188698 C334.099097,201.777149 331.899897,201.449091 330.085772,202.371342 C330.548731,202.871331 330.671866,203.59793 330.39949,204.222535 C330.127114,204.84714 329.510875,205.251314 328.829465,205.25227 L328.829465,205.25227 Z M126.962664,275.983855 C167.830474,222.09889 248.557013,207.008073 326.185671,209.858729 C325.540275,208.775234 325.272343,207.508326 325.423814,206.256307 C325.593819,204.803483 326.275227,203.458552 327.346115,202.462159 C242.204844,196.10999 154.308779,219.313824 126.962664,275.983855 Z M366.559031,212.875883 C356.60444,211.442987 356.029263,218.077699 351.236125,219.278507 C364.389506,221.019173 357.330979,214.0111 366.559031,212.875883 Z" id="Shape" fill="#65B2E8"></path>
            <path d="M141.05449,190.61554 C141.236125,190.580222 141.432896,190.54995 141.649849,190.519677 C141.271443,190.570131 141.05449,190.61554 141.05449,190.61554 Z" id="Path" fill="#FFC629"></path>
            <path d="M142.749748,341.695257 C135.459132,331.952573 132.366297,319.661958 131.049445,310.963673 C129.258325,311.210898 128.314834,311.321897 125.499495,311.750757 C127.739657,322.850656 133.102926,335.721493 147.119072,348.506559 C145.521761,346.243823 144.043144,343.899591 142.689203,341.48335 C142.704339,341.574168 142.724521,341.624622 142.749748,341.695257 Z" id="Path" fill="#FFFFFF"></path>
            <path d="M288.350151,324.778002 C298.20892,322.264218 308.217252,320.378493 318.314834,319.13219 C308.457009,319.388323 298.633363,320.400375 288.930373,322.159435 C288.753784,323.072654 288.562059,323.915237 288.350151,324.778002 Z" id="Path" fill="#FFFFFF"></path>
            <path d="M257.189707,339.556004 C257.189707,339.556004 225.403633,367.230071 225.085772,380.247225 C219.984864,375.640767 220.141271,370.600404 220.141271,370.600404 C223.511604,359.601413 257.189707,339.556004 257.189707,339.556004 Z M196.185671,400.191726 C195.46539,419.263042 200.378931,438.124017 210.312815,454.419778 C210.06559,444.75782 211.291625,435.605449 213.89001,428.607467 C204.788093,421.508577 198.789102,411.629667 196.185671,400.191726 Z M144.914228,237.931382 C153.367761,229.440154 162.895192,222.090615 173.254289,216.069627 C170.191726,201.387487 156.644803,194.419778 150.449041,191.957619 C147.351223,191.299761 144.212597,190.851386 141.05449,190.61554 C141.10999,190.751766 153.107972,212.144299 144.914228,237.931382 Z M126.962664,275.983855 C143.385469,263.723512 158.506559,259.0111 172.578204,257.088799 C174.556004,254.465187 176.518668,252.003027 178.345106,249.833502 C177.482341,251.760848 176.478305,254.122099 175.454087,256.730575 C178.002018,256.448032 180.499495,256.226034 183.0222,256.094854 C186.410927,250.681463 190.161477,245.503176 194.248234,240.595358 C191.852947,245.553904 189.771814,250.658155 188.017154,255.877901 C190.161453,255.797175 192.280525,255.74672 194.374369,255.701312 C198.658282,246.988473 203.953778,238.810681 210.151362,231.337033 C206.235537,239.056859 203.163624,247.176453 200.9889,255.554995 C202.986882,255.504541 204.966364,255.430542 206.927346,255.332997 C211.321897,242.961655 218.410696,231.266398 226.049445,222.083754 C220.958628,231.448032 216.584258,243.102926 214.712412,254.712412 C221.316852,253.94551 227.689203,252.492432 233.884965,249.57114 C239.939455,232.114026 255.363269,224.19778 255.363269,224.19778 C249.81332,230.146317 250.913219,239.838547 250.913219,239.838547 C271.094854,221.60444 301.437941,212.991927 326.205853,209.868819 C248.551968,207.028254 167.84561,222.119072 126.962664,275.983855 Z M137.739657,310.090817 C135.533132,310.366633 133.309788,310.657585 131.069627,310.963673 C132.386478,319.661958 135.479314,331.952573 142.769929,341.695257 L142.694248,341.453078 C137.84561,331.508577 137.083754,319.677094 137.739657,310.090817 Z" id="Shape" fill="#FFC629"></path>
            <path d="M316.654894,234.26337 L314.949546,228.612513 C316.907164,228.975782 319.106963,229.530777 321.35217,230.126135 L316.654894,234.26337 Z M324.091826,230.857719 L325.605449,236.104945 L329.969728,232.426842 C328.118063,231.962664 324.182644,230.882947 324.091826,230.857719 Z M331.584258,232.825429 L333.097881,237.749748 L336.806256,233.869828 C335.116044,233.602422 333.370333,233.254289 331.584258,232.825429 Z M338.410696,234.086781 L338.94551,237.850656 L342.517659,234.293643 C341.14585,234.349695 339.771763,234.287236 338.410696,234.106963 L338.410696,234.086781 Z M331.67003,243.597376 L330.302725,239.152371 L325.817356,243.27447 C329.853683,243.779011 333.753784,243.9556 336.614531,243.380424 L335.913219,238.506559 L331.67003,243.597376 Z M321.321897,236.301715 L315.49445,241.468214 C317.906155,241.972755 320.676085,242.522704 323.471241,242.931382 L321.321897,236.301715 Z" id="Shape" fill="#FFFFFF"></path>
        </g>
    </g>
</svg>