<?xml version="1.0" encoding="UTF-8" standalone="no"?>
<svg width="250px" height="250px" viewBox="0 0 250 250" version="1.1" xmlns="http://www.w3.org/2000/svg" xmlns:xlink="http://www.w3.org/1999/xlink">
    <!-- Generator: Sketch 47.1 (45422) - http://www.bohemiancoding.com/sketch -->
    <title>CCTST</title>
    <desc>Created with Sketch.</desc>
    <defs>
        <polygon id="path-1" points="109.842666 0.810810811 219.685231 0.810810811 219.685231 246.621622 109.842666 246.621622 0.000101627937 246.621622 0.000101627937 0.810810811 109.842666 0.810810811"></polygon>
        <path d="M1.49020598,18.7110511 C5.49548578,8.23931804 16.9141293,3.77730757 23.3046636,2.05574324 L29.2607719,2.05574324 L29.2633846,2.05743243 C21.204993,4.50719184 4.64174405,19.4513233 18.0216965,44.6451938 L10.7753592,44.6451938 C10.441717,44.4936923 10.1230036,44.3285797 9.82553846,44.1486486 C6.78654956,42.3157853 3.370867,39.3347252 1.49020598,34.6565073 L1.49020598,18.7110511 L1.49020598,18.7110511 Z" id="path-3"></path>
        <path d="M23.9912931,1.29527027 C30.2272918,4.77447967 40.7370801,10.9450657 44.3316923,14.9087838 C44.3316923,14.9087838 51.1467678,22.9996783 57.0128308,43.7444474 L57.0128308,49.7500014 L51.0196923,53.8952703 C51.0196923,53.8952703 54.410844,62.8105885 57.0128308,74.9387413 L57.0128308,88.6749239 L39.6846154,83.2635135 L38.1141538,81.0337838 C44.0372308,78.8513514 47.4184615,76.1283784 47.4184615,76.1283784 C47.4184615,76.1283784 47.2796923,65.1959459 45.1473846,52.9121622 L41.6713846,50.5641892 C38.9264615,41.0304054 29.9436923,27.9493243 22.4129231,20.7702703 C22.4129231,20.7702703 10.4990769,20.2635135 0.162461538,23.7195946 C0.162461538,23.7195946 4.3126565,8.54927797 16.4550695,1.29527012 L23.9912931,1.29527027 L23.9912931,1.29527027 Z" id="path-5"></path>
        <path d="M4.77371972,2.93209459 C10.0108019,14.2108217 5.0562833,21.7908535 1.36061538,25.2736486 L4.45804827,29.2260135 L5.85589387,29.2260135 C6.75449776,27.9067321 8.33119712,25.2282386 9.22698149,21.5874671 L9.22698149,10.5678006 C8.68870993,8.3659038 7.79351729,6.04132923 6.424,3.62837838 L4.77948896,2.93209459 L4.77371973,2.93209459 L4.77371972,2.93209459 Z" id="path-7"></path>
    </defs>
    <g id="Page-1" stroke="none" stroke-width="1" fill="none" fill-rule="evenodd">
        <g id="CCTST">
            <g id="Page-1" transform="translate(15.000000, 0.000000)">
                <g id="Group-10" transform="translate(0.000000, 2.567568)">
                    <g id="Group-3">
                        <mask id="mask-2" fill="white">
                            <use xlink:href="#path-1"></use>
                        </mask>
                        <g id="Clip-2"></g>
                        <path d="M194.186215,197.317568 C195.827754,194.422297 196.714523,189.206081 196.304985,185.841216 C199.181908,182.777027 203.588677,177.706081 206.665292,172.611486 C210.940062,173.290541 219.685908,174.662162 219.685908,174.662162 C219.685908,174.662162 216.155754,145.337838 211.430831,127.611486 C213.414215,125.844595 216.274215,123.013514 216.274215,123.013514 C214.713908,108.780405 209.261292,91.2533784 202.874523,78.4391892 C207.382831,71.972973 209.620062,64.0304054 209.620062,56.1081081 C209.620062,49.3445946 207.992062,42.5912162 204.698831,36.7736486 C200.576369,29.4662162 192.923754,19.6351351 178.227754,14.9155405 C178.183754,22.6182432 174.636677,33.5405405 172.172677,37.4898649 C170.889908,34.652027 169.326215,31.9864865 169.326215,29.5405405 C169.326215,24.9797297 178.227754,13.3277027 182.905292,9.79054054 C174.975138,3.50675676 165.450831,0.810810811 156.735446,0.810810811 C141.355754,0.827702703 126.124985,8.21283784 117.412985,18.2702703 C117.412985,18.2702703 109.256062,17.1959459 103.556369,17.1959459 C83.4111385,17.1959459 63.6043692,23.9358108 47.9336,37.0472973 C29.1523692,52.7601351 18.6465231,76.347973 18.6465231,100.719595 C18.6465231,104.368243 19.3132923,110.932432 19.3132923,110.932432 C19.3132923,110.932432 7.56190769,103.412162 2.53236923,99.7972973 C2.91483077,126.091216 8.56036923,147.537162 13.9960615,161.415541 C13.3969846,161.344595 12.7742154,161.293919 12.1514462,161.293919 C5.97113846,161.293919 0.961907692,165.158784 0.961907692,169.925676 C0.961907692,174.263514 5.12836923,177.844595 10.5437538,178.442568 C4.7256,187.307432 -0.0602461538,199.476351 0.000676923077,213.577703 C12.2462154,206.996622 38.8154462,199.408784 53.8025231,198.837838 C63.2083692,198.476351 72.5025231,200.324324 81.6917538,203.003378 C101.336062,208.702703 120.174831,218.010135 138.120062,227.925676 C146.798215,232.719595 155.192062,238.351351 164.740062,241.976351 C171.519446,244.543919 180.454831,246.621622 189.796369,246.621622 C197.191754,246.621622 205.924062,244.885135 213.326215,241.155405 C209.328985,237.429054 196.3456,222.060811 194.186215,197.317568" id="Fill-1" fill="#CFD4D8" mask="url(#mask-2)"></path>
                    </g>
                    <path d="M151.809138,39.3023649 C152.760215,41.5861486 158.250062,49.4543919 154.100523,55.5118243 C146.342985,66.8293919 134.009446,59.0422297 132.229138,57.3699324 C130.222062,55.4847973 123.212523,46.6841216 128.902062,35.7246622 C137.245138,19.6773649 154.493138,18.9476351 154.493138,18.9476351 C154.493138,18.9476351 147.490369,29.0625 151.809138,39.3023649" id="Fill-4" fill="#00539B"></path>
                    <path d="M189.076123,183.408108 C191.093354,181.435135 197.500431,174.661486 200.516123,169.492568 C200.516123,169.492568 198.921969,166.32027 198.194277,164.191892 C200.864738,164.735811 211.753046,166.44527 211.753046,166.44527 C211.753046,166.44527 208.872738,142.749324 203.6232,125.364189 C204.7672,124.418243 209.062277,120.374324 209.062277,120.374324 C208.324431,113.543243 204.428738,95.5195946 194.684431,77.6175676 C203.068123,69.0837838 205.288431,52.647973 199.331508,41.3202703 C192.873662,29.0466216 183.410277,24.7864865 183.410277,24.7864865 C183.190277,34.272973 177.3552,45.4722973 170.213662,47.9216216 C169.364123,47.2695946 168.507815,46.6310811 167.621046,46.0094595 C166.849354,41.9824324 165.173969,38.077027 163.265046,34.3304054 C159.934585,27.7493243 165.877969,17.9486486 172.125969,11.1851351 C172.125969,11.1851351 160.868738,5.16824324 145.177662,9.20540541 C135.186277,11.7695946 126.010585,17.6310811 120.280431,25.7628378 C110.492123,23.8236486 100.064123,23.2189189 89.6970462,25.0635135 C60.9718154,30.175 43.1213538,48.4959459 35.3096615,62.675 C23.5887385,83.9385135 22.7561231,110.560135 31.0112,126.066892 C21.6832,120.803378 10.1958154,113.208784 10.1958154,113.208784 C12.4702769,149.242568 26.2524308,171.208784 26.2524308,171.208784 C17.3948923,177.928378 8.81150769,192.283108 7.86043077,202.202027 C13.7225846,199.492568 22.5801231,196.323649 28.9804308,194.891216 C35.2622769,193.475676 41.6152,192.617568 47.6601231,192.124324 C74.2564308,189.925 99.1502769,201.688514 113.284431,207.739189 C126.643508,213.418243 146.470585,224.553378 152.444431,228.218919 C169.661969,238.8 186.6832,242.161486 201.098277,237.90473 C201.098277,237.90473 189.519508,224.708784 187.096123,195.448649 C189.610892,192.617568 189.945969,188.891216 189.076123,183.408108" id="Fill-6" fill="#00539B"></path>
                    <path d="M151.809138,39.3023649 C152.760215,41.5861486 158.250062,49.4543919 154.100523,55.5118243 C146.342985,66.8293919 134.009446,59.0422297 132.229138,57.3699324 C130.222062,55.4847973 123.212523,46.6841216 128.902062,35.7246622 C137.245138,19.6773649 154.493138,18.9476351 154.493138,18.9476351 C154.493138,18.9476351 147.490369,29.0625 151.809138,39.3023649" id="Fill-8" fill="#FEFEFE"></path>
                </g>
                <g id="Group-13" transform="translate(125.230769, 19.459459)">
                    <mask id="mask-4" fill="white">
                        <use xlink:href="#path-3"></use>
                    </mask>
                    <g id="Clip-12"></g>
                    <path d="M26.5783692,22.410473 C27.5294462,24.6942568 33.0192923,32.5625 28.8697538,38.6199324 C21.1122154,49.9375 8.77867692,42.1503378 6.99836923,40.4780405 C4.99129231,38.5929054 -2.01824615,29.7922297 3.67129231,18.8327703 C12.0143692,2.78547297 29.2623692,2.05574324 29.2623692,2.05574324 C29.2623692,2.05574324 22.2596,12.1706081 26.5783692,22.410473" id="Fill-11" fill="#CFD4D8" mask="url(#mask-4)"></path>
                </g>
                <g id="Group-18" transform="translate(64.307692, 70.135135)">
                    <path d="M102.765385,101.993919 C99.5093846,99.6290541 94.7675385,97.3114865 93.3933846,96.6831081 C91.8093846,97.4939189 88.7023077,99.2912162 88.7023077,99.2912162 C94.7709231,100.112162 102.765385,101.993919 102.765385,101.993919" id="Fill-14" fill="#FEFEFE"></path>
                    <path d="M134.185446,47.3493243 C131.017446,34.2108108 125.371908,23.4878378 120.047908,15.5790541 C112.060215,9.43040541 102.227908,4.56891892 94.5752923,1.29527027 C92.2568308,4.30202703 81.6528308,16.0013514 58.3666769,14.8763514 C53.8854462,17.9439189 50.1623692,20.7918919 47.1872923,23.2310811 C48.6731385,39.177027 52.8159077,53.6195946 52.8159077,53.6195946 C56.4814462,57.7918919 75.5909846,73.1837838 75.5909846,73.1837838 C59.3549846,73.0722973 36.0925231,55.4067568 36.0925231,55.4067568 C35.7202154,50.3763514 33.9703692,45.1094595 29.3876,40.1398649 C24.8556,35.2175676 2.86575385,19.7074324 2.86575385,19.7074324 C2.86575385,19.7074324 1.80636923,53.4202703 24.9503692,68.9033784 C24.9503692,68.9033784 32.3152923,68.9675676 38.2789846,66.9675676 C38.2789846,66.9675676 35.6051385,72.4067568 32.5454462,75.247973 C32.5454462,75.247973 25.7931385,80.1027027 22.5472923,82.1432432 C22.5472923,82.1432432 29.4383692,101.339189 34.9789846,109.852703 C34.9789846,109.852703 73.9934462,135.200676 113.393754,144.866216 C111.708215,137.835811 110.895908,131.697297 110.533754,128.396622 C102.292215,126.055405 100.948523,116.717568 100.948523,116.717568 C107.277754,120.268243 113.539292,118.163514 113.539292,118.163514 C111.694677,113.183784 109.135908,110.204054 109.135908,110.204054 C100.525446,106.15 87.3491385,104.258108 81.1552923,103.872973 L74.7109846,107.981081 C74.7109846,107.981081 76.3389846,94.8695946 89.2072923,89.0216216 C99.2697538,92.0621622 117.556831,103.967568 119.824523,106.109459 C122.840215,103.278378 124.485138,100.275 124.485138,100.275 C122.021138,94.8459459 115.962677,81.0317568 115.962677,81.0317568 C123.1076,83.7648649 134.858985,86.7310811 134.858985,86.7310811 C132.723292,69.0587838 126.123292,53.5182432 126.123292,53.5182432 C130.641754,50.1871622 134.185446,47.3493243 134.185446,47.3493243" id="Fill-16" fill="#CFD4D8"></path>
                </g>
                <g id="Group-21" transform="translate(142.153846, 70.135135)">
                    <mask id="mask-6" fill="white">
                        <use xlink:href="#path-5"></use>
                    </mask>
                    <g id="Clip-20"></g>
                    <path d="M56.3392923,47.3493243 C53.1712923,34.2108108 47.5257538,23.4878378 42.2017538,15.5790541 C34.2140615,9.43040541 24.3817538,4.56891892 16.7291385,1.29527027 C14.4106769,4.30202703 3.80667692,16.0013514 -19.4794769,14.8763514 C-23.9607077,17.9439189 -27.6837846,20.7918919 -30.6588615,23.2310811 C-29.1730154,39.177027 -25.0302462,53.6195946 -25.0302462,53.6195946 C-21.3647077,57.7918919 -2.25516923,73.1837838 -2.25516923,73.1837838 C-18.4911692,73.0722973 -41.7536308,55.4067568 -41.7536308,55.4067568 C-42.1259385,50.3763514 -43.8757846,45.1094595 -48.4585538,40.1398649 C-52.9905538,35.2175676 -74.9804,19.7074324 -74.9804,19.7074324 C-74.9804,19.7074324 -76.0397846,53.4202703 -52.8957846,68.9033784 C-52.8957846,68.9033784 -45.5308615,68.9675676 -39.5671692,66.9675676 C-39.5671692,66.9675676 -42.2410154,72.4067568 -45.3007077,75.247973 C-45.3007077,75.247973 -52.0530154,80.1027027 -55.2988615,82.1432432 C-55.2988615,82.1432432 -48.4077846,101.339189 -42.8671692,109.852703 C-42.8671692,109.852703 -3.85270769,135.200676 35.5476,144.866216 C33.8620615,137.835811 33.0497538,131.697297 32.6876,128.396622 C24.4460615,126.055405 23.1023692,116.717568 23.1023692,116.717568 C29.4316,120.268243 35.6931385,118.163514 35.6931385,118.163514 C33.8485231,113.183784 31.2897538,110.204054 31.2897538,110.204054 C22.6792923,106.15 9.50298462,104.258108 3.30913846,103.872973 L-3.13516923,107.981081 C-3.13516923,107.981081 -1.50716923,94.8695946 11.3611385,89.0216216 C21.4236,92.0621622 39.7106769,103.967568 41.9783692,106.109459 C44.9940615,103.278378 46.6389846,100.275 46.6389846,100.275 C44.1749846,94.8459459 38.1165231,81.0317568 38.1165231,81.0317568 C45.2614462,83.7648649 57.0128308,86.7310811 57.0128308,86.7310811 C54.8771385,69.0587838 48.2771385,53.5182432 48.2771385,53.5182432 C52.7956,50.1871622 56.3392923,47.3493243 56.3392923,47.3493243" id="Fill-19" fill="#FEFEFE" mask="url(#mask-6)"></path>
                </g>
                <g id="Group-30" transform="translate(132.000000, 39.729730)">
                    <path d="M53.3479692,66.7783784 L50.9550462,69.7783784 C44.3516615,56.4 33.3212,48.0081081 33.3212,48.0081081 C18.8790462,48.2682432 10.3193538,54.122973 10.3193538,54.122973 C10.3193538,54.122973 23.2925846,53.7310811 30.6676615,54.872973 C30.6676615,54.872973 37.0070462,60.2918919 39.5522769,67.8493243 C35.1692,65.9608108 26.9208923,62.7851351 16.6248923,60.7986486 C16.6248923,60.7986486 21.1061231,65.2918919 25.7768923,71.8391892 C26.0916615,73.2243243 28.0412,81.0655405 33.1892,86.4641892 C29.7267385,91.6331081 29.8079692,95.3527027 29.8079692,95.3527027 C29.8079692,95.3527027 39.8501231,89.0891892 55.3008923,83.3155405 C56.0116615,76.0756757 53.3479692,66.7783784 53.3479692,66.7783784" id="Fill-22" fill="#00539B"></path>
                    <path d="M41.6074154,78.1307432 C37.3394154,74.9449324 32.4317231,72.8199324 29.8864923,71.360473 C33.5080308,80.5868243 38.8117231,83.360473 40.3821846,84.0091216 L38.9877231,79.8199324 L41.6074154,78.1307432 Z" id="Fill-24" fill="#FEFEFE"></path>
                    <path d="M11.9128308,112.650338 C6.39252308,111.859797 3.26513846,108.322635 3.26513846,108.322635 C4.15529231,114.690878 8.16944615,116.380068 8.16944615,116.380068 C7.97652308,119.055743 9.09006154,120.880068 9.09006154,120.880068 C9.09006154,120.880068 13.3242154,116.819257 18.2725231,114.427365 C16.7359077,113.721284 14.6712923,113.045608 11.9128308,112.650338" id="Fill-26" fill="#00539B"></path>
                    <path d="M55.5425538,2.93209459 C55.5425538,2.93209459 54.2767077,12.4422297 46.5767077,18.2361486 C49.9444,21.6989865 52.9837846,25.3983108 55.6880923,29.2260135 C59.1404,24.8138514 63.4185538,13.1280405 55.5425538,2.93209459" id="Fill-28" fill="#FEFEFE"></path>
                </g>
                <g id="Group-33" transform="translate(182.769231, 39.729730)">
                    <mask id="mask-8" fill="white">
                        <use xlink:href="#path-7"></use>
                    </mask>
                    <g id="Clip-32"></g>
                    <path d="M4.77332308,2.93209459 C4.77332308,2.93209459 3.50747692,12.4422297 -4.19252308,18.2361486 C-0.824830769,21.6989865 2.21455385,25.3983108 4.91886154,29.2260135 C8.37116923,24.8138514 12.6493231,13.1280405 4.77332308,2.93209459" id="Fill-31" fill="#CFD4D8" mask="url(#mask-8)"></path>
                </g>
                <g id="Group-40" transform="translate(3.384615, 151.216216)">
                    <path d="M36.5372615,24.8158784 C36.5372615,24.8158784 27.5341846,30.0591216 23.8889538,36.2043919 C23.8889538,36.2043919 35.5760308,31.4577703 52.7157231,31.8868243 C37.9384923,19.5692568 29.4668,8.90033784 24.6098769,0.819256757 C27.3378769,8.73817568 31.3384923,18.0861486 36.5372615,24.8158784" id="Fill-34" fill="#CFD4D8"></path>
                    <polygon id="Fill-36" fill="#00539B" points="5.34532308 24.9510135 3.3924 24.9510135 3.3924 19.1064189 1.77793846 19.1064189 1.77793846 17.4476351 6.9564 17.4476351 6.9564 19.1064189 5.34532308 19.1064189"></polygon>
                    <polygon id="Fill-38" fill="#00539B" points="8.48861538 17.4486486 10.4144615 17.4486486 11.9375385 21.4587838 13.5553846 17.4486486 15.5049231 17.4486486 16.632 24.952027 14.6858462 24.952027 14.124 20.6378378 14.1172308 20.6378378 12.3098462 24.952027 11.5347692 24.952027 9.81876923 20.6378378 9.79169231 20.6378378 9.16892308 24.952027 7.216 24.952027"></polygon>
                </g>
            </g>
        </g>
    </g>
</svg>