<?xml version="1.0" encoding="UTF-8" standalone="no"?>
<svg width="250px" height="250px" viewBox="0 0 250 250" version="1.1" xmlns="http://www.w3.org/2000/svg" xmlns:xlink="http://www.w3.org/1999/xlink">
    <!-- Generator: Sketch 47.1 (45422) - http://www.bohemiancoding.com/sketch -->
    <title>MOST</title>
    <desc>Created with Sketch.</desc>
    <defs></defs>
    <g id="Page-1" stroke="none" stroke-width="1" fill="none" fill-rule="evenodd">
        <g id="MOST" fill-rule="nonzero">
            <g id="Group" transform="translate(0.000000, 16.000000)">
                <path d="M40.0170712,214.621489 L40.6870288,214.776508 C47.9041937,216.477748 54.7235714,218.087144 62.736311,213.224457 C65.0866293,211.813089 67.7520371,208.975784 69.9506844,206.462736 C73.0426086,209.73316 78.4848511,214.472415 84.8456102,215.490875 L84.8428187,215.525841 L85.7588927,215.630741 L90.7172769,216.219345 C100.178916,217.355759 109.95297,218.540311 119.80693,217.266012 L121.567662,217.044557 L121.756088,217.021246 L121.918924,216.916346 C121.953818,216.90469 124.303555,215.461853 125.772228,214.661467 C127.242296,215.462202 129.588311,216.899096 129.612736,216.916346 L129.768595,217.021246 L129.983772,217.044557 L131.735781,217.266012 C141.592649,218.539728 151.361119,217.359256 160.816129,216.219345 L165.788005,215.630741 C165.788005,215.630741 166.701055,215.525841 166.701055,215.514186 L166.701055,215.490875 C173.064024,214.472182 178.500916,209.73316 181.593654,206.462736 C183.798234,208.975784 186.45422,211.813089 188.796513,213.224457 C196.812742,218.087144 203.637935,216.477748 210.863242,214.776508 L211.521568,214.621489 C222.818263,211.970672 235.355078,199.024061 238.921206,195.119459 L240.765218,193.105617 L241.383999,190.452002 C246.926037,166.760975 246.410076,161.31085 245.379668,157.741928 C244.409625,154.330937 241.65803,150.331692 239.194075,147.612224 C240.750679,145.796177 242.493616,144.066263 243.919718,142.660606 C245.429449,141.188863 246.219441,140.391391 246.562445,139.846379 C246.769481,139.496713 247.081197,139.065459 247.397566,138.592594 C248.769583,136.68202 250.455295,134.280864 249.794177,132.404674 C249.163765,130.571492 246.65154,129.837077 244.438238,129.177258 C243.636847,128.945313 242.871398,128.71803 242.311471,128.480257 C242.185854,128.410324 242.026507,128.375358 241.214648,128.187704 C243.624402,112.386304 245.453642,87.2896199 245.438987,84.8256412 C245.438987,84.4841342 245.462249,84.0796874 245.497143,83.6464514 C245.614618,81.4174481 245.822817,77.6849982 242.266575,76.8731907 C240.240883,76.4174595 237.535115,77.1575856 233.856048,79.1797032 C226.172471,61.5472198 213.743362,34.8583909 211.374085,30.9339745 C208.923389,26.8814638 205.859961,24.892681 202.780366,25.3200892 C200.747347,25.5986563 196.997911,29.7868374 195.784194,31.2247799 C194.592577,30.8110086 192.150605,29.9014112 189.164873,28.7968168 C180.670718,25.6417818 166.530541,20.3746485 159.519249,18.507666 L151.634918,11.369121 L151.388336,11.1395071 L151.018464,11.1395071 L137.628616,11.1395071 L125.776415,0.146828617 L113.916071,11.1395071 L100.169146,11.1395071 L92.0242758,18.5071997 C85.0161237,20.3741823 70.8705967,25.6413156 62.38563,28.7963506 C59.3911754,29.9012947 56.9578102,30.8100762 55.7584,31.2243137 C54.5387515,29.7863711 50.8012952,25.5986563 48.7644379,25.319623 C45.6812372,24.8918651 42.6265328,26.8809976 40.1759535,30.9335082 C37.7996976,34.8581578 25.3717512,61.5467536 17.6939904,79.179237 C14.0152717,77.1567697 11.3127604,76.4166436 9.28299819,76.8727245 C5.72733772,77.6839493 5.93344273,81.4169819 6.04801014,83.6459851 C6.0735988,84.0795708 6.08755625,84.4840176 6.08755625,84.825175 C6.08755625,87.2893868 7.91691274,112.385837 10.3245729,128.187237 C9.52295002,128.377222 9.35406487,128.411023 9.22530739,128.479791 C8.66421789,128.717564 7.91702905,128.944847 7.10249551,129.176792 C4.88814601,129.836495 2.38022481,130.571026 1.74469558,132.404207 C1.08625286,134.280398 2.78382775,136.681553 4.13804937,138.592128 C4.46442108,139.065342 4.77357861,139.495431 4.98968647,139.845913 C5.31175463,140.391391 6.12198462,141.188396 7.61636231,142.66014 C9.05060664,144.065797 10.7969163,145.79571 12.3572429,147.611758 C9.87514302,150.331226 7.12971254,154.330471 6.15920449,157.747289 C5.13717019,161.310268 4.61330055,166.760975 10.1585956,190.451536 L10.7741191,193.10515 L12.6163863,195.118993 C16.196356,199.023478 28.7302627,211.970556 40.0206769,214.621023" id="Shape" fill="#000000" transform="translate(125.770308, 108.982102) scale(-1, 1) rotate(-180.000000) translate(-125.770308, -108.982102) "></path>
                <path d="M125.808866,7.1767084 L117.606887,15.8339687 L104.208897,15.8339687 L102.89492,15.8339687 L101.915572,16.7034711 L95.4826994,22.527389 C79.2501846,26.6695307 63.2154005,32.399505 53.6173271,35.0757309 C53.2538518,34.6724496 52.9216645,34.3262804 52.738473,34.1397919 C52.2175112,33.6036376 50.0072326,31.4459662 49.3202934,30.9303256 C48.875167,30.608633 47.8028859,30.5340377 47.3562475,31.0235699 C46.437382,32.0072965 27.3621999,67.5519959 20.3369499,85.0667584 C20.2648364,85.0434474 16.3746624,82.7171205 15.318316,82.6196802 C14.5023867,82.5497471 13.4975666,82.6896134 13.2928574,83.6721745 C13.0853566,84.7141787 14.6741797,114.792435 16.6839362,131.231393 C16.333139,131.38408 11.8657081,133.004432 11.4276767,133.199545 C10.9467263,133.405848 10.0735714,133.908201 10.5202098,134.74297 C10.9982525,135.612473 18.1124813,143.363632 21.6394127,147.041884 L21.3845729,147.351921 C16.8842256,148.70303 14.0385341,153.410814 12.906236,157.352597 C12.1604429,159.966116 12.0746046,165.485592 17.0015845,186.533378 L17.2076895,187.397053 L17.8087904,188.060252 C19.2174461,189.609389 31.8592904,203.196122 41.6469525,205.471281 L42.3140023,205.640286 C48.8584181,207.180914 53.5877838,208.294017 59.1641342,204.902491 C62.7627138,202.73363 67.2114185,199.428589 70.2433256,196.287424 C71.5315983,197.190727 72.9286228,199.073095 74.3141323,200.254849 C78.0503092,203.427834 81.8276605,205.949624 86.6978801,206.356984 L86.6106461,206.356984 L91.5690303,206.930436 C100.61276,208.023725 109.956808,209.14522 118.966342,207.998083 L125.808517,203.531218 L132.639177,207.998083 C141.654178,209.146152 150.99904,208.021394 160.028347,206.930436 L165.001735,206.356984 L164.908686,206.356984 C169.777975,205.950206 173.565562,203.427834 177.301738,200.254849 C178.666428,199.073095 180.083807,197.191077 181.363357,196.287424 C184.393054,199.428589 188.85339,202.73363 192.44313,204.902491 C198.021806,208.293434 202.748846,207.180331 209.293261,205.640286 L209.963219,205.471281 C219.742856,203.196355 232.394005,189.609272 233.793239,188.060252 L234.402715,187.397053 L234.601608,186.533378 C239.541266,165.484659 239.437167,159.965767 238.704284,157.352597 C237.571405,153.410814 234.720363,148.70303 230.224784,147.351921 L229.964245,147.041884 C233.495364,143.363982 240.623318,135.612589 241.083564,134.74297 C241.539508,133.908434 240.67182,133.406081 240.193777,133.199545 C239.743649,133.004898 235.28785,131.383614 234.919954,131.231393 C236.920639,114.793601 238.524233,84.7141787 238.313127,83.6721745 C238.109581,82.690779 237.106854,82.5509126 236.294763,82.6196802 C235.237486,82.7129245 231.344986,85.0379693 231.26729,85.0667584 C224.241807,67.5519959 205.174999,32.0072965 204.256134,31.0235699 C203.804843,30.5363688 202.730236,30.6109642 202.291972,30.9303256 C201.619688,31.4455 199.395684,33.6036376 198.866464,34.1397919 C198.687344,34.3262804 198.368649,34.671284 197.981329,35.0757309 C188.393724,32.3996215 172.354288,26.6696472 156.126425,22.527389 L149.685992,16.7034711 L148.718276,15.8339687 L147.400227,15.8339687 L133.994096,15.8339687 L125.809215,7.1767084" id="Shape" fill="#FFFFFF" transform="translate(125.804400, 107.828362) scale(-1, 1) rotate(-180.000000) translate(-125.804400, -107.828362) "></path>
                <path d="M110.560351,9.95373134 C102.684162,10.0713776 94.6181516,11.5220992 86.9527199,12.3759366 C84.1658823,12.6071823 81.602364,14.2203074 79.1142158,16.1998824 C76.0621867,18.6102457 70.7183442,26.1434468 70.7183442,26.1434468 C69.6706049,24.7578376 66.6167148,20.1944651 64.7389725,18.6223674 C62.48624,16.7257798 59.8454904,14.8469087 57.3601337,13.3410144 C52.8174489,10.5893772 49.0749912,11.6104015 42.40333,13.1769045 C35.7139893,14.7517995 25.8991102,23.4141883 20.2677442,29.5673748 C18.1089919,38.7882964 15.0299784,53.0546632 16.1605318,57.0305971 C16.796182,59.245334 19.012225,64.384676 23.2119288,64.8980787 C23.2119288,64.8980787 43.1403764,49.2815356 49.1095126,45.5209959 C49.1432897,45.567618 48.8187324,42.8803194 48.8187324,42.8803194 C48.8187324,42.8803194 44.9143683,44.9556561 44.5479387,44.5740075 C44.1608521,44.1954359 43.6676889,37.1853349 48.6002518,33.5926349 C45.8180667,33.1916847 45.1453176,33.1926171 40.7496512,35.3232477 C38.858882,36.2379736 35.9752727,38.9234073 34.915437,41.3328382 C33.506665,44.5600209 36.6424389,45.8673049 36.6424389,45.8673049 L32.0439242,48.85485 C31.0138644,46.35031 30.4499834,44.8593348 30.2815635,42.2438343 C30.2815635,42.2438343 39.0300003,31.223299 50.1095174,25.9447433 C52.1033857,27.0893162 53.5555189,41.2367966 53.4352987,45.850521 C36.5421313,56.9130161 19.8062179,74.5501617 16.5969348,79.3783478 C16.0958623,80.1266327 16.8695424,80.4346184 16.8695424,80.4346184 C16.8695424,80.4346184 19.862578,81.4205828 20.7587394,81.6183538 C18.4168653,99.0149293 16.9476111,121.439234 17.6146841,127.202659 C17.7205281,128.117572 18.5051974,127.840077 18.5051974,127.840077 C18.5051974,127.840077 21.5153542,126.443371 22.3398673,126.018924 C28.3746966,142.499841 44.5685027,173.701224 47.8373376,178.468802 C48.3441047,179.226411 48.9277866,178.614542 48.9277866,178.614542 C48.9277866,178.614542 51.0122853,176.232152 51.5448086,175.463913 C59.3487912,178.589553 79.397366,185.196746 97.1065789,189.687388 L87.9318816,167.485937 L62.4511603,160.902895 C55.2253882,150.782166 40.2830071,121.553831 37.8981441,116.338681 C37.3656674,116.676691 34.5541251,117.121746 34.5541251,117.121746 C34.5541251,117.121746 34.0478791,117.289399 33.9362195,116.739258 C34.7615701,104.235207 38.7906207,92.5610301 42.3144117,77.2027735 C41.8426499,77.0862182 38.1895199,76.765458 38.1895199,76.765458 C38.1895199,76.765458 37.6011854,76.54225 37.9532575,76.1098392 C45.3794585,67.0586221 68.8048057,49.2070148 82.0969509,43.0193279 C84.1496266,43.3037227 125.768882,63.8901832 125.768882,63.8901832 C125.768882,63.8901832 167.389999,43.3037227 169.440814,43.0193279 C182.735751,49.2072013 206.153561,67.0586221 213.584507,76.1098392 C213.933444,76.5434249 213.348254,76.765458 213.348254,76.765458 C213.348254,76.765458 209.707965,77.0906473 209.222804,77.2025404 C212.753853,92.5561348 216.777135,104.234974 217.600903,116.739958 C217.484591,117.291311 216.982961,117.122445 216.982961,117.122445 C216.982961,117.122445 214.176955,116.677391 213.638942,116.33938 C211.251194,121.554903 196.321468,150.782866 189.104535,160.903594 L163.607065,167.478058 L154.429297,189.678576 C172.132927,185.188307 192.193505,178.580648 200.008747,175.455102 C200.542666,176.223154 202.607624,178.605731 202.607624,178.605731 C202.607624,178.605731 203.181648,179.217693 203.698073,178.45999 C206.96086,173.692226 223.166855,142.491029 229.195543,126.010112 C230.020243,126.434373 233.030213,127.831265 233.030213,127.831265 C233.030213,127.831265 233.825323,128.108853 233.920699,127.193848 C234.584794,121.430329 233.121495,99.0061178 230.776643,81.6095423 C231.689647,81.4113983 234.647696,80.4258068 234.647696,80.4258068 C234.647696,80.4258068 235.437501,80.1178118 234.938476,79.3695362 C231.744639,74.5412569 214.988627,56.9032721 198.100112,45.8417094 C197.980264,41.2286377 199.429513,27.0809709 201.425893,25.9359318 C212.507178,31.2145807 221.253847,42.2350227 221.253847,42.2350227 C221.073517,44.8512692 220.520895,46.341312 219.491021,48.8458519 L214.893065,45.8591461 C214.893065,45.8591461 218.046425,44.551862 216.637746,41.3243996 C215.571211,38.9145958 212.683973,36.2296282 210.78576,35.3145294 C206.391489,33.1829663 205.718275,33.1828731 202.934694,33.5843827 C207.865489,37.1762436 207.380793,44.1871838 207.005617,44.5657554 C206.621787,44.9468912 202.716585,42.8720672 202.716585,42.8720672 C202.716585,42.8720672 202.381606,45.5558226 202.425805,45.5127438 C208.397361,49.2737497 228.323389,64.8898266 228.323389,64.8898266 C232.525698,64.3758178 234.747445,59.2371751 235.374786,57.022345 C236.500687,53.0548031 233.392828,38.7884363 231.234076,29.5675147 C225.623181,23.4143281 215.815745,14.7519394 209.134779,13.1770444 C202.463118,11.6105414 198.713216,10.5895171 194.163088,13.3411542 C191.680057,14.847235 189.037353,16.7262927 186.784528,18.6226005 C184.906879,20.1946982 181.844614,24.7585369 180.805342,26.1440529 C180.805342,26.1440529 175.456289,18.6102923 172.409098,16.2004885 C169.906062,14.2209135 167.347196,12.6087208 164.574316,12.3765427 C154.338853,11.2370983 143.414822,9.03746694 133.188663,10.3550079 L128.590707,14.5800903 C127.5171,29.1597577 126.137266,46.9246479 126.137266,46.9246479 L125.37398,46.9246479 C125.37398,46.9246479 124.026527,29.1597577 122.938684,14.5800903 L118.340727,10.3550079 C115.779907,10.0257998 113.169585,9.91513755 110.544189,9.95434675 L110.560351,9.95373134 Z M78.5698752,49.3270387 C73.5116952,49.9070178 52.645307,66.9073054 45.4395406,82.0725465 C41.3425637,90.7405298 40.4260245,100.5032 42.1865242,111.832374 C42.9424039,116.726577 62.195925,156.633428 62.195925,156.633428 L91.8917963,166.358801 C91.8917963,166.358801 100.255194,187.475821 104.177144,196.080398 L117.498135,196.080398 L125.76718,202.363474 L134.036225,196.080398 L147.357215,196.080398 C151.285772,187.475914 159.642563,166.358801 159.642563,166.358801 L189.338434,156.633428 C189.338434,156.633428 208.586689,116.726764 209.347835,111.832374 C211.099495,100.505998 210.183514,90.7377325 206.076581,82.0744114 C198.887005,66.9101027 178.014662,49.9088827 172.946246,49.3298361 C162.588888,49.1835639 131.946701,67.1226995 131.946701,67.1226995 C131.946701,67.1226995 134.953322,73.2033421 135.29072,74.1160166 L161.024537,64.5006719 C167.026799,65.1827534 178.671406,65.8847892 178.671406,65.8847892 C178.671406,65.8847892 193.296023,86.7341984 194.918809,89.9240834 C195.177022,90.4345955 194.682556,90.5796836 194.682556,90.5796836 L183.516596,77.0611355 C176.891459,71.0916401 173.439316,69.1782685 169.400961,68.1740282 C166.804875,67.5371701 160.254178,67.0653543 155.564475,69.7768965 C160.710866,70.2157224 164.251499,73.5831258 164.251499,73.5831258 L164.270109,74.54839 C164.270109,74.54839 160.442232,77.2706553 156.18279,77.1890666 C161.730598,80.1840711 179.175363,94.2937876 180.808385,97.4948619 C181.066598,97.9879374 180.553987,98.1322795 180.553987,98.1322795 C180.553987,98.1322795 178.731237,98.3799361 178.282273,98.4964914 C178.215277,103.591449 174.444811,117.865182 170.576643,126.7066 C167.247885,128.057802 163.223952,129.049268 159.581895,130.294265 C157.251373,136.241288 143.663888,181.385574 142.080182,184.583851 C135.435505,185.359084 130.194948,185.822228 130.194948,185.822228 L125.760573,189.901663 L121.326198,185.822228 C121.326198,185.822228 116.096714,185.358897 109.440964,184.583851 C107.84051,181.385574 94.2831728,136.236719 91.9476261,130.287738 C88.3186891,129.04759 84.2766114,128.049876 80.9389198,126.697835 C77.0736366,117.858282 73.31443,103.582591 73.2511562,98.4914562 C72.7901509,98.3795632 70.9612969,98.1272443 70.9612969,98.1272443 C70.9612969,98.1272443 70.4588007,97.9829022 70.7250345,97.4898268 C72.359638,94.288193 89.8020776,80.179036 95.3506293,77.1840314 C91.0908155,77.2615173 87.2451657,74.5433549 87.2451657,74.5433549 L87.2637757,73.5780906 C87.2637757,73.5780906 90.7991048,70.2112281 95.9507997,69.7718613 C91.2424864,67.0612516 84.7187742,67.5330674 82.1310629,68.168993 C78.0796803,69.1732333 74.6117191,71.0866049 67.9921657,77.0561003 L56.8336494,90.5690537 C56.8336494,90.5690537 56.3274034,90.4239657 56.5792144,89.9134536 C58.21968,86.723382 72.8629064,65.8741593 72.8629064,65.8741593 C72.8629064,65.8741593 84.509003,65.1730839 90.5097761,64.490042 L116.225913,74.1053867 C116.569546,73.1931039 119.569932,67.1120697 119.569932,67.1120697 C119.569932,67.1120697 88.9268152,49.1718804 78.5517771,49.3192062 L78.5698752,49.3270387 Z M111.10097,77.0821154 C102.521977,77.0422069 93.961221,81.4807254 89.8558696,84.530744 C85.1765878,88.0162133 81.7585944,91.5270449 78.769932,96.4408292 C78.3061446,104.875236 81.4050987,123.35764 81.4050987,123.35764 C81.4050987,123.35764 96.9406714,128.086708 100.378857,128.875834 C101.564123,140.029708 104.007515,157.836558 111.155869,181.889839 L125.767459,181.889839 L140.397658,181.889839 C147.540337,157.836558 149.972469,140.029708 151.156061,128.875834 C154.599085,128.086894 170.147498,123.35764 170.147498,123.35764 C170.147498,123.35764 173.229769,104.87477 172.76452,96.4408292 C169.786931,91.5268584 166.390618,88.0208755 161.700915,84.5335414 C157.011211,81.0480722 146.496599,75.745273 136.763603,77.3947633 L150.032486,101.252231 C148.267706,106.373018 146.217543,109.166242 143.271869,113.891486 C142.602005,113.665369 142.789779,113.54928 141.745297,113.144787 C143.889347,108.680999 144.924804,104.685297 145.689021,101.179687 C145.877446,100.330139 146.016183,99.8198135 146.016183,99.613464 C146.016183,98.9683072 145.759831,98.4393327 145.307424,98.0290581 C139.793487,92.7933948 132.875988,88.5041603 125.770716,88.5041603 C118.662465,88.5041603 111.737895,92.7932083 106.215397,98.0290581 C105.782716,98.4392395 105.524782,98.9677478 105.524782,99.613464 C105.524782,99.82 105.678128,100.329953 105.87009,101.179687 C106.625746,104.685297 107.658039,108.680999 109.813814,113.144787 C108.763097,113.549187 108.955989,113.665369 108.287241,113.891486 C105.328262,109.173328 103.271864,106.376002 101.50392,101.256894 L114.754193,77.3994255 C113.535242,77.1933558 112.325597,77.0954494 111.097341,77.0898547 L111.10097,77.0821154 Z" id="Shape" fill="#5A0009" transform="translate(125.765937, 106.155137) rotate(-360.000000) translate(-125.765937, -106.155137) "></path>
                <path d="M119.027871,102.218894 C118.372243,101.90923 114.472904,102.691456 113.048686,105.132776 C113.518121,108.084702 115.593036,111.30657 115.593036,111.30657 L119.464088,110.632694 C119.464088,110.632694 117.73904,107.955279 117.483154,105.023494 C117.472918,104.946101 119.004702,102.288827 119.027964,102.218894 L119.027871,102.218894 Z M132.49495,102.218894 C132.541475,102.288827 134.07605,104.946008 134.07605,105.023494 C133.821373,107.955279 132.076971,110.632694 132.076971,110.632694 L135.948023,111.30657 C135.948023,111.30657 138.022845,108.084702 138.492373,105.132776 C137.083787,102.691456 133.173561,101.90923 132.495043,102.218894 L132.49495,102.218894 Z M125.770622,127.624216 C122.189234,127.624216 117.51293,127.951597 110.922687,131.812934 C112.07641,136.652682 113.177373,140.398209 115.28439,145.23544 C115.316027,145.416147 115.753267,145.387801 115.811423,145.199075 C116.403498,142.826569 117.129379,133.469883 117.210797,132.668916 L117.501578,132.650267 L120.591106,137.294295 L120.99094,137.112189 L123.026402,132.322513 L123.408091,132.341162 L125.49808,136.693803 L126.043258,136.693803 L128.133247,132.341162 L128.533081,132.322513 L130.586687,137.112189 L130.950139,137.294295 L134.039667,132.650267 L134.348592,132.668916 C134.425824,133.469417 135.13663,142.826009 135.729822,145.199075 C135.780999,145.385563 136.228475,145.413816 136.275,145.23544 C138.376433,140.398676 139.465859,136.653055 140.618558,131.812934 C134.021244,127.95169 129.338147,127.624216 125.770622,127.624216 Z M115.720328,163.719989 L115.538602,163.775003 C116.234241,167.890617 117.592208,173.464011 117.592208,173.464011 C117.592208,173.464011 121.716728,172.09817 125.770436,172.09817 C129.807024,172.09817 133.96681,173.464011 133.96681,173.464011 C133.96681,173.464011 135.307469,167.890897 136.020416,163.775003 L135.820545,163.719989 C133.123873,165.860131 130.332103,169.966606 130.332103,169.966606 L128.55104,165.905354 L128.405603,165.868989 L125.770436,169.456654 L123.13527,165.868989 L122.989833,165.905354 L121.190625,169.966606 C121.190625,169.966606 118.417279,165.860131 115.720328,163.719989 Z" id="Shape" fill="#FFFFFF" transform="translate(125.770622, 137.809286) rotate(-360.000000) translate(-125.770622, -137.809286) "></path>
            </g>
        </g>
    </g>
</svg>