<?xml version="1.0" encoding="UTF-8" standalone="no"?>
<svg width="250px" height="250px" viewBox="0 0 250 250" version="1.1" xmlns="http://www.w3.org/2000/svg" xmlns:xlink="http://www.w3.org/1999/xlink">
    <!-- Generator: Sketch 47.1 (45422) - http://www.bohemiancoding.com/sketch -->
    <title>MNMTH</title>
    <desc>Created with Sketch.</desc>
    <defs></defs>
    <g id="Page-1" stroke="none" stroke-width="1" fill="none" fill-rule="evenodd">
        <g id="MNMTH" fill-rule="nonzero">
            <g id="Group" transform="translate(0.000000, 28.000000)">
                <path d="M219.625059,119.051024 C219.328429,116.793569 218.853821,114.536115 218.853821,114.536115 L219.743711,102.654775 C220.736157,86.9677691 213.411678,71.9152529 200.462743,63.0305072 C195.949006,54.9313466 189.974758,47.740419 182.842905,41.8223158 L185.156621,40.5747751 L191.089226,37.6044402 L187.173707,32.317244 C176.713889,18.8105365 160.750784,10.7200014 143.687708,10.2773589 C144.043664,9.02981818 144.280968,8.3169378 144.280968,8.3169378 L146.416706,1.96042105 L139.772188,1.00991388 C135.147442,0.440741932 130.489787,0.182734193 125.830565,0.237626794 C113.808074,-0.293221709 101.939267,3.10545426 92.0147129,9.92091866 L91.124822,10.5743923 L90.7095396,7.42583732 L84.0650214,10.1585455 C76.6245267,12.8870412 70.3428288,18.0869703 66.2672046,24.8914067 L61.461794,29.5845359 C57.6014263,33.3913315 54.8878082,38.2083754 53.6307546,43.4857033 C46.1592593,47.2464446 39.9665407,53.1375242 35.8329378,60.4166124 C34.883824,61.9768014 34.0509972,63.605007 33.3412435,65.2879617 C28.4461359,76.6526287 27.7314737,89.3866991 31.3241576,101.229014 C32.8254677,106.206841 35.022528,110.946941 37.8500237,115.308402 L40.3417181,118.872804 L10.6786901,118.872804 L0.118652112,162.714947 L54.6392976,162.714947 L54.9952539,167.823923 L61.8770764,165.507062 L68.877551,163.249608 C68.3457272,163.640709 67.8494173,164.078055 67.3943996,164.556555 L60.0972947,170.853665 L69.2335074,174.00222 C78.0692839,177.06237 87.3521397,178.628346 96.7014713,178.635943 C100.430421,178.630688 104.155415,178.3926 107.85477,177.923062 L102.752729,184.398392 L96.2861889,192.35889 L106.490271,193.428211 C109.701571,193.782071 112.929733,193.960555 116.160418,193.962871 C129.910705,194.105668 143.442418,190.512836 155.315615,183.566699 C159.209081,181.282525 162.865779,178.615875 166.231609,175.606201 C166.943522,178.814163 167.41813,180.774584 167.536782,181.546871 L169.37589,189.032115 L175.901756,184.992459 C184.88323,179.581495 192.368474,172.004382 197.674419,162.952574 L238.312767,162.952574 L249.288087,119.051024 L219.625059,119.051024 Z" id="Shape" fill="#FFFFFF"></path>
                <path d="M214.760323,123.98178 C214.376464,115.405095 211.978055,107.039956 207.759848,99.5656268 C213.692454,102.654775 214.641671,102.951809 214.641671,102.951809 L214.641671,102.357742 C215.579351,88.1284004 208.774483,74.5001629 196.843854,66.7137225 C191.210769,56.4045234 183.11995,47.6496627 173.29141,41.2282488 L182.783579,36.1786794 L183.258187,36.1786794 L183.258187,35.8222392 C173.107108,22.7732104 157.415202,15.2687097 140.899383,15.564555 L137.280494,15.564555 C138.467015,10.4555789 139.712862,6.83177033 139.712862,6.77236364 L139.712862,6.29711005 L139.238253,6.29711005 C134.857555,5.64934989 130.436677,5.31187416 126.008543,5.28719617 C115.043172,4.72043342 104.186321,7.69867119 95.0403417,13.7823541 C92.0991155,15.9023829 89.5664062,18.5391759 87.5652587,21.5646316 C86.7940199,17.0497225 86.5567157,15.0893014 86.5567157,15.0298947 L86.5567157,14.4952344 L86.0821073,14.4952344 C76.2598308,18.1517637 69.1346352,26.7815721 67.3943996,37.1291866 C66.6231609,34.8717321 66.1485524,33.1489378 66.0892264,33.0301244 L66.0892264,32.3766507 L65.3773137,33.0301244 C61.5847184,36.7382798 59.1411319,41.6111822 58.4361652,46.8718852 C50.7673343,50.0107581 44.3740279,55.6386573 40.282392,62.8522871 C39.4519449,64.2250204 38.7184647,65.6542734 38.087328,67.1295694 C33.6647827,77.4490242 33.0342595,89.0032831 36.3075463,99.7438469 C37.6697665,104.26167 39.667342,108.562295 42.2401519,112.516287 L48.1727575,121.189665 L55.1732321,101.229014 L78.9036545,101.229014 C79.7342193,102.476555 79.6155672,104.852823 74.7508306,109.367732 L68.818225,114.714335 C65.8530287,117.379424 63.2411787,120.414087 61.0465116,123.744153 L14.8908401,123.744153 L6.52586616,157.546565 L59.4447081,157.546565 C59.4447081,158.437665 59.4447081,159.388172 59.4447081,160.279273 L59.4447081,160.635713 L60.0379687,160.635713 L69.4114855,157.546565 L82.4632178,157.546565 C75.9966777,163.487234 70.5980066,168.358584 70.5980066,168.41799 L70.0047461,168.893244 L70.7166588,168.893244 C86.5093454,174.332603 103.609676,174.6651 119.601329,169.843751 C115.685809,176.378488 106.905553,187.368727 106.905553,187.487541 L106.430944,188.081608 L106.905553,188.081608 C109.938313,188.4338 112.988681,188.612311 116.041766,188.616268 C128.890122,188.738341 141.534216,185.393465 152.645942,178.932976 C158.882776,175.379913 164.396983,170.68445 168.901281,165.091215 C170.918367,174.00222 172.223541,179.467636 172.342193,180.061703 L172.342193,180.596364 L172.816801,180.596364 C181.953296,175.157003 189.375471,167.251216 194.233507,157.784191 L233.922639,157.784191 L242.287613,124.219407 L214.760323,123.98178 Z" id="Shape" fill="#011E41"></path>
                <path d="M82.1072615,96.179445 L106.312292,96.179445 L105.956336,96.179445 C104.373129,95.1118807 102.567088,94.4209945 100.676317,94.1596172 C98.8965354,93.7437703 96.8201234,93.4467368 94.7437114,93.1497033 C88.4551495,92.436823 80.6834362,92.2586029 73.8609397,92.1991962 L65.3773137,92.1991962 C63.538206,92.1991962 60.6312292,92.1991962 59.4447081,92.1991962 C59.4447081,92.1991962 56.8936877,92.1991962 56.181775,96.1200383 L82.1665876,96.1200383" id="Shape" fill="#54565A"></path>
                <path d="M69.8267679,87.0308134 C75.4034172,87.0308134 82.2259136,87.0308134 88.9297579,87.0308134 C94.0106594,87.1784778 99.0802183,87.5949054 104.117228,88.2783541 L108.092074,88.9318278 L111.355007,89.7041148 C111.355007,89.2882679 111.355007,88.8130144 111.355007,88.2783541 C110.977246,85.6122388 109.868254,83.1033333 108.1514,81.0307368 C104.888467,77.1693014 98.540579,73.7831196 86.2007594,74.0801531 C86.8448696,70.6048303 86.8448696,67.0404903 86.2007594,63.5651675 C86.2007594,62.7928804 85.785477,62.0205933 85.5481728,61.2483062 C85.3108685,60.4760191 85.1328904,60.2383923 84.8955861,59.7037321 C84.185969,58.1028865 83.1793913,56.6514443 81.9292833,55.4264498 C80.7628738,54.3345658 79.4185391,53.4505191 77.9544376,52.812555 C75.3244639,51.7261811 72.4917092,51.2196445 69.6487897,51.3273876 L67.750356,51.3273876 C67.0384433,51.3273876 66.0299003,51.3273876 64.7840532,51.8620478 C62.5851971,52.3841228 60.4547901,53.1616818 58.4361652,54.1789091 C53.0695899,57.0090958 48.6232822,61.3171583 45.6217371,66.5949091 C38.5430975,79.5414348 38.9968004,95.3063249 46.8082582,107.823158 C47.3576415,103.297466 48.4327881,98.8514739 50.0118652,94.5754641 C51.6136687,90.7734354 53.8087328,87.6842871 56.9530138,87.3872536 C56.9530138,87.3872536 62.2923588,87.0902201 69.8267679,86.912 M69.8267679,58.1591579 C70.2092558,59.3937571 70.7903776,60.5575807 71.5472235,61.6047464 C72.7586058,63.365162 74.3900369,64.7946046 76.293308,65.7632153 L75.9966777,66.2978756 C75.5143895,67.0829296 74.5391852,67.4084396 73.6829616,67.0701627 L73.6829616,67.0701627 C72.4975634,66.5843421 71.4265934,65.8559019 70.5386806,64.9315215 C69.8934883,64.2777521 69.3710083,63.5130896 68.9962031,62.674067 C68.9962031,62.674067 66.9791172,59.0502584 70.0640721,58.2185646" id="Shape" fill="#A2A9AD"></path>
                <path d="M82.641196,49.3669665 C84.3946611,50.3777793 85.9766294,51.661116 87.3279544,53.1689952 C91.4710669,41.3331864 103.014823,33.7404542 115.507831,34.6341053 C114.721048,37.6740501 114.185307,40.7736488 113.906028,43.9015502 C122.046498,37.8068694 132.874364,36.6883713 142.085904,40.990622 L140.543427,43.2480766 C139.416232,45.0896842 138.22971,47.2283254 137.161841,49.1887464 L137.161841,49.7234067 C140.248322,51.1556765 143.028526,53.1730555 145.348837,55.6640766 C147.963968,58.431132 149.983277,61.7068594 151.281443,65.2879617 L149.798291,65.2879617 C148.789748,65.2879617 147.721879,65.7632153 146.594684,66.1196555 L142.679165,67.3671962 L140.128144,68.2582967 C143.925153,72.2403399 146.392227,77.3057542 147.187945,82.7535311 C147.229674,83.287375 147.229674,83.8236681 147.187945,84.357512 C144.42742,84.0590084 141.642822,84.0590084 138.882297,84.357512 C138.111058,84.357512 137.33982,84.357512 136.627907,84.7139522 C134.718305,85.0809522 132.877092,85.7422849 131.16991,86.6743732 C129.468585,87.5895435 128.005524,88.8918093 126.898434,90.4764019 C125.996427,91.8247632 125.371262,93.3393155 125.059326,94.9319043 L125.059326,94.9319043 C128.922906,97.126518 132.508313,99.779337 135.738016,102.832995 C137.273836,104.203128 138.739103,105.650559 140.128144,107.169684 C141.018035,108.120191 141.8486,109.130105 142.679165,110.080612 C146.044734,114.002265 149.024827,118.23975 151.578073,122.734239 C151.578073,121.902545 152.052682,121.011445 152.23066,120.179751 C152.408638,119.348057 152.23066,119.169837 152.23066,118.694584 C153.721513,111.85082 154.161628,104.819444 153.535833,97.8428325 L153.535833,97.8428325 C153.535833,95.585378 152.942572,93.5061435 152.586616,91.9021627 L152.586616,91.9021627 C152.209109,89.8945045 151.713868,87.910848 151.103465,85.9614928 C163.887635,88.1938507 175.708815,94.2159474 185.037969,103.248842 C179.839732,87.9087305 168.822115,75.2329852 154.366398,67.9612632 C163.93668,64.8179938 173.95815,63.2725895 184.029426,63.3869474 C177.981782,53.0082151 168.618993,44.9720581 157.451353,40.5747751 L169.316564,33.7430048 C152.289986,18.0596364 125.415282,24.0003062 125.415282,24.0003062 C126.720456,16.8715024 127.669673,13.604134 127.669673,13.604134 C110.627118,12.6587112 94.4609803,21.2329236 85.6668249,35.8816459 C83.829712,33.0312821 82.5232364,29.8713514 81.8106312,26.5547943 C75.8005671,30.5978534 72.3361993,37.4909543 72.6744186,44.733244 L72.6744186,45.8025646 C76.1664176,46.3489726 79.5381147,47.4944963 82.641196,49.1887464" id="Shape" fill="#1C355E"></path>
                <path d="M184.029426,86.1991196 C191.657726,95.5891374 196.580845,106.886622 198.267679,118.872804 C200.878026,120.714411 203.191742,122.496612 205.03085,123.98178 L208.768391,123.98178 C207.215529,108.084718 197.969338,93.9634439 184.029426,86.1991196" id="Shape" fill="#1C355E"></path>
                <path d="M195.894637,86.1397129 C199.53185,87.6614242 203.043055,89.4690738 206.395349,91.5457225 C203.747318,79.3742194 193.198552,70.5471804 180.766493,70.0999043 C187.110945,74.0448188 192.323749,79.5717602 195.894637,86.1397129" id="Shape" fill="#1C355E"></path>
                <path d="M161.129568,112.10044 L160.773612,115.664842 C160.433304,118.471055 159.898072,121.250102 159.171808,123.98178 L166.231609,123.98178 C164.896378,119.88299 163.209169,115.907691 161.188894,112.10044" id="Shape" fill="#1C355E"></path>
                <path d="M135.97532,161.408 C134.917237,164.356897 133.627816,167.217343 132.119127,169.962565 C130.256913,173.428405 128.071919,176.710351 125.593261,179.76467 L125.593261,179.76467 L126.305173,179.76467 L127.017086,179.76467 C135.479123,177.438864 143.497851,173.725161 150.747508,168.774431 C155.065372,165.847929 158.839812,162.188983 161.900807,157.962411 L137.221168,157.962411 C136.865211,159.209952 136.449929,160.5169 135.97532,161.823847" id="Shape" fill="#1C355E"></path>
                <path d="M89.1077361,164.675368 C92.4779414,164.664621 95.8449448,164.466293 99.1931656,164.081301 C105.01816,163.411554 110.774438,162.238857 116.397722,160.576306 C119.1662,159.733571 121.880509,158.721761 124.525392,157.546565 L97.1167537,157.546565 C94.6250593,159.922833 91.8960607,162.2991 88.9297579,164.675368" id="Shape" fill="#1C355E"></path>
                <path d="M141.314665,121.367885 C139.397269,118.580223 137.275452,115.93924 134.966777,113.466794 L133.009018,111.506373 C130.666405,109.236033 128.168662,107.131901 125.533935,105.209263 C125.367887,111.663673 123.999716,118.030286 121.499763,123.98178 L143.035121,123.98178 C142.501187,123.090679 141.907926,122.199579 141.314665,121.367885" id="Shape" fill="#1C355E"></path>
                <path d="M161.426198,96.0606316 C168.318646,104.054698 173.092513,113.656266 175.308495,123.98178 L189.962031,123.98178 C184.504034,109.367732 169.07926,100.2191 161.307546,96.0606316" id="Shape" fill="#1C355E"></path>
                <path d="M176.613669,159.209952 C176.969625,160.992153 177.266255,162.893167 177.562886,165.150622 L177.562886,166.576383 C180.015327,163.783009 182.274945,160.825634 184.326056,157.724785 L176.317038,157.724785 C176.350339,158.278746 176.350339,158.834211 176.317038,159.388172" id="Shape" fill="#1C355E"></path>
                <path d="M114.143332,116.852976 L111.295681,117.15001 C105.284976,117.933974 99.4256484,119.616064 93.9131467,122.140172 L90.2942572,123.98178 L111.77029,123.98178 C112.126246,123.209493 112.482202,122.496612 112.719506,121.843139 C113.348129,120.227734 113.824804,118.5571 114.143332,116.852976" id="Shape" fill="#1C355E"></path>
                <path d="M77.5391552,116.793569 L77.5391552,116.793569 C75.4063275,118.059226 73.4171226,119.553158 71.6065496,121.249072 C70.7759848,122.080766 69.886094,122.912459 69.0555292,123.862967 L73.7422876,123.862967 C74.8101566,121.902545 76.1153299,119.585684 77.7764594,116.971789 L77.7764594,116.674756" id="Shape" fill="#1C355E"></path>
                <path d="M126.839108,59.9413589 C126.839108,59.0502584 127.313716,58.1591579 127.491694,57.149244 C126.543546,57.0854511 125.592192,57.0854511 124.644044,57.149244 C119.796554,57.0523515 114.966174,57.7548126 110.346464,59.2284785 C110.891783,60.2523403 111.177029,61.3948768 111.177029,62.5552536 C111.159957,63.3638688 111.019922,64.1651568 110.761747,64.9315215 C109.839366,67.4905258 107.532344,69.2924488 104.829141,69.565244 L104.057902,69.565244 C101.402599,69.5059312 99.0010566,67.9714357 97.8286664,65.5849952 C97.6349243,65.1427122 97.4762319,64.6858513 97.3540579,64.2186411 L95.7522544,64.9909282 L94.1504509,65.822622 C94.5043755,66.6134833 94.9633579,67.3528501 95.5149502,68.0206699 C95.7960434,68.425323 96.1137937,68.8031644 96.4641671,69.1493971 C100.354079,70.0145125 104.093262,71.4561548 107.55814,73.4266794 L109.634551,73.4266794 L111.117703,73.4266794 L112.897485,73.4266794 C116.861179,72.58642 120.455441,70.5059882 123.160892,67.4860096 L123.635501,66.8919426 C124.947695,65.2341886 125.970644,63.3662742 126.66113,61.3671196 L126.66113,60.7730526" id="Shape" fill="#FFFFFF"></path>
                <path d="M23.1964879,138.120574 L22.8405316,138.120574 L19.10299,153.269282 L11.9838633,153.269282 L18.2130992,128.259062 L27.0526815,128.259062 C28.5358329,128.259062 28.8324632,128.734316 28.8917893,130.219483 L29.7816801,141.031502 L29.7816801,141.031502 L35.7142857,129.74423 C36.3075463,128.615502 36.7821547,128.259062 37.9093498,128.259062 L47.5794969,128.259062 L41.6468913,153.269282 L34.3497864,153.269282 L38.087328,138.120574 L37.7313716,138.120574 L29.7816801,151.843522 C29.1884196,152.912842 28.7138111,153.269282 27.8239203,153.269282 L25.8661604,153.269282 C24.5016611,153.269282 24.2643569,152.853435 24.1457048,151.427675 L23.1964879,138.120574 Z" id="Shape" fill="#FFFFFF"></path>
                <path d="M47.5794969,128.259062 L41.6468913,153.269282 L34.3497864,153.269282 L38.087328,138.120574 L37.7313716,138.120574 L29.7816801,151.843522 C29.1884196,152.912842 28.7138111,153.269282 27.8239203,153.269282 L25.8661604,153.269282 C24.5016611,153.269282 24.2643569,152.853435 24.1457048,151.427675 L23.1964879,138.120574 L22.8405316,138.120574 L19.043664,153.269282 L11.9838633,153.269282 L18.2130992,128.259062 L27.0526815,128.259062 C28.5358329,128.259062 28.8324632,128.734316 28.8917893,130.219483 L29.7816801,141.031502 L29.7816801,141.031502 L35.7142857,129.74423 C36.3075463,128.615502 36.7821547,128.259062 37.9093498,128.259062 L47.5794969,128.259062 L47.5794969,128.259062 Z M48.766018,127.367962 L37.9093498,127.367962 C36.6043825,127.310803 35.4000301,128.067502 34.8837209,129.268976 L30.2562886,138.120574 L29.7816801,130.160077 C29.7816801,128.437282 29.1884196,127.367962 26.9933555,127.367962 L17.5011865,127.367962 L17.5011865,128.080842 L11.2719506,153.031656 L11.2719506,154.219789 L19.8149027,154.219789 L19.8149027,153.506909 L22.6032273,142.813703 L23.1964879,151.308861 C23.1964879,152.972249 23.8490745,154.041569 25.8661604,154.041569 L27.9425724,154.041569 C29.1763893,154.050265 30.2867425,153.293252 30.730897,152.140555 L35.7142857,143.348364 L33.2819174,153.031656 L33.2819174,154.219789 L42.41813,154.219789 L42.41813,153.506909 L48.3507356,128.496689 L48.766018,127.367962 Z" id="Shape" fill="#54565A"></path>
                <path d="M53.5121025,153.269282 C50.3678215,153.269282 49.0626483,152.675215 48.3507356,151.962335 C46.6896061,150.298947 46.0370195,146.912766 47.698149,140.080995 C48.238273,136.497222 49.7809527,133.139908 52.1476032,130.397703 C53.7324335,128.879155 55.8955948,128.12102 58.0802088,128.318469 L64.606075,128.318469 C67.809682,128.318469 69.1148552,128.971943 69.8267679,129.684823 C70.5386806,130.397703 72.1404841,134.734392 70.4793545,141.566163 C69.9641307,145.151284 68.3945152,148.501591 65.9705743,151.190048 C64.4077493,152.744163 62.2275301,153.508277 60.0379687,153.269282 L53.5121025,153.269282 Z M54.5799715,147.328612 C54.5799715,147.328612 55.113906,147.685053 56.4784053,147.685053 L58.8514476,147.685053 C59.9786426,147.685053 60.334599,147.685053 60.6312292,147.328612 C60.9278595,146.972172 61.5804461,146.437512 62.8856194,140.972096 C64.1907926,135.506679 63.8941623,135.031426 63.597532,134.556172 C63.3009018,134.080919 63.0635975,134.556172 61.7584243,134.556172 L59.4447081,134.556172 C58.3175131,134.556172 57.9615567,134.556172 57.6649264,134.912612 C57.3682962,135.269053 56.7157095,135.803713 55.3512103,141.269129 C53.986711,146.734545 54.4019934,147.209799 54.6392976,147.625646 L54.5799715,147.328612 Z" id="Shape" fill="#FFFFFF"></path>
                <path d="M64.7247271,128.259062 C67.9283341,128.259062 69.2335074,128.912536 69.94542,129.625416 C70.6573327,130.338297 72.2591362,134.674986 70.5980066,141.506756 C70.0827828,145.091877 68.5131673,148.442185 66.0892264,151.130641 C64.5264014,152.684756 62.3461822,153.44887 60.1566208,153.209876 L53.5121025,153.209876 C50.3678215,153.209876 49.0626483,152.615809 48.3507356,151.902928 C46.6896061,150.239541 46.0370195,146.853359 47.698149,140.021589 C48.238273,136.437816 49.7809527,133.080501 52.1476032,130.338297 C53.7324335,128.819749 55.8955948,128.061613 58.0802088,128.259062 L64.606075,128.259062 M56.4190793,147.506833 L58.7921215,147.506833 C59.8599905,147.506833 60.2752729,147.506833 60.5719032,147.150392 C60.8685335,146.793952 61.5211201,146.259292 62.8262933,140.793876 C64.1314665,135.328459 63.8348363,134.853206 63.538206,134.377952 C63.2415757,133.902699 63.0042715,134.377952 61.6990982,134.377952 L59.4447081,134.377952 C58.3175131,134.377952 57.9615567,134.377952 57.6649264,134.734392 C57.3682962,135.090833 56.7157095,135.625493 55.3512103,141.090909 C53.986711,146.556325 54.4019934,147.031579 54.6392976,147.447426 C54.8766018,147.863273 55.1732321,147.803866 56.5377314,147.803866 M64.7247271,127.664995 L58.1988609,127.664995 C55.7515912,127.421661 53.3213792,128.269045 51.5543427,129.981856 C49.0509708,132.831442 47.4053587,136.333121 46.8082582,140.080995 C45.2657807,146.556325 45.562411,150.774201 47.7574751,152.912842 C49.4341748,154.234566 51.5769011,154.813889 53.6900807,154.516823 L60.2159468,154.516823 C62.6733931,154.752933 65.1083709,153.882116 66.8604651,152.140555 C69.4145576,149.347925 71.0685512,145.849114 71.6065496,142.100823 C73.1490271,135.625493 72.8523968,131.407617 70.7166588,129.209569 C69.013484,127.94484 66.8867195,127.39113 64.7840532,127.664995 M55.4105363,146.793952 C55.4310668,144.932858 55.7515984,143.087296 56.3597532,141.328536 C56.6945208,139.249019 57.3764059,137.240749 58.3768391,135.387866 L63.0042715,135.387866 C62.9938273,137.244972 62.6935734,139.089033 62.1143806,140.853282 C61.7679461,142.929875 61.0866993,144.936266 60.0972947,146.793952 L55.4105363,146.793952" id="Shape" fill="#54565A"></path>
                <path d="M94.0911248,153.269282 L89.5823446,153.269282 C87.6245847,153.269282 86.7940199,152.734622 86.2007594,151.130641 L81.6326531,138.477014 L81.6326531,138.477014 L78.0137636,153.269282 L70.5980066,153.269282 L76.5306122,128.259062 L82.4632178,128.259062 C84.4209777,128.259062 85.2515425,128.853129 85.785477,130.397703 L89.6416706,141.566163 L89.6416706,141.566163 L92.8452776,128.259062 L100.083056,128.259062 L94.0911248,153.269282 Z" id="Shape" fill="#FFFFFF"></path>
                <path d="M100.320361,128.259062 L94.0911248,153.269282 L89.5823446,153.269282 C87.6245847,153.269282 86.7940199,152.734622 86.2007594,151.130641 L81.6326531,138.477014 L81.6326531,138.477014 L78.0137636,153.269282 L70.5980066,153.269282 L76.8272425,128.259062 L82.7598481,128.259062 C84.717608,128.259062 85.5481728,128.853129 86.0821073,130.397703 L89.9383009,141.566163 L89.9383009,141.566163 L93.1419079,128.259062 L100.379687,128.259062 L100.320361,128.259062 Z M101.566208,127.367962 L92.3113431,127.367962 L92.3113431,128.080842 L89.8196488,138.536421 L86.912672,130.10067 C86.39573,128.257913 84.5913432,127.087284 82.7005221,127.367962 L76.0560038,127.367962 L76.0560038,128.080842 L70.1233982,153.031656 L69.8267679,154.219789 L78.9629805,154.219789 L78.9629805,153.506909 L81.9292833,141.625569 L85.5481728,151.605895 C86.0660777,153.481361 87.8966553,154.677945 89.8196488,154.39801 L95.0403417,154.39801 L95.0403417,153.685129 L100.972947,128.496689 L101.566208,127.367962 Z" id="Shape" fill="#54565A"></path>
                <path d="M108.744661,138.120574 L108.388704,138.120574 L104.651163,153.269282 L97.5913621,153.269282 L103.523968,128.259062 L112.838159,128.259062 C114.32131,128.259062 114.677266,128.734316 114.736592,130.219483 L115.270527,141.031502 L115.626483,141.031502 L121.559089,129.74423 C122.152349,128.615502 122.626958,128.259062 123.694827,128.259062 L133.542952,128.259062 L127.610346,153.269282 L119.897959,153.269282 L123.635501,138.120574 L123.279544,138.120574 L115.507831,151.843522 C114.855244,152.912842 114.439962,153.269282 113.490745,153.269282 L111.473659,153.269282 C110.10916,153.269282 109.81253,152.853435 109.693878,151.427675 L108.744661,138.120574 Z" id="Shape" fill="#FFFFFF"></path>
                <path d="M133.305648,128.259062 L127.373042,153.269282 L119.897959,153.269282 L123.635501,138.120574 L123.279544,138.120574 L115.507831,151.843522 C114.855244,152.912842 114.439962,153.269282 113.490745,153.269282 L111.473659,153.269282 C110.10916,153.269282 109.81253,152.853435 109.693878,151.427675 L108.744661,138.120574 L108.388704,138.120574 L104.651163,153.269282 L97.5913621,153.269282 L103.523968,128.259062 L112.838159,128.259062 C114.261984,128.259062 114.61794,128.734316 114.677266,130.219483 L115.211201,141.031502 L115.567157,141.031502 L121.499763,129.74423 C122.093023,128.615502 122.567632,128.259062 123.635501,128.259062 L133.483626,128.259062 L133.305648,128.259062 Z M134.670147,127.367962 L123.457523,127.367962 C122.164388,127.300743 120.971883,128.064984 120.49122,129.268976 L115.863787,138.120574 L115.448505,130.160077 C115.448505,128.437282 114.855244,127.367962 112.66018,127.367962 L103.049359,127.367962 L103.049359,128.080842 L97.1167537,153.031656 L96.8201234,154.219789 L105.778358,154.219789 L105.778358,153.506909 L108.1514,142.813703 L108.803987,151.308861 C108.803987,152.972249 109.397247,154.041569 111.473659,154.041569 L113.490745,154.041569 C114.724562,154.050265 115.834915,153.293252 116.27907,152.140555 L121.381111,143.170144 L118.770764,153.031656 L118.474134,154.219789 L127.610346,154.219789 L127.610346,153.506909 L133.839582,128.496689 L134.670147,127.367962 Z" id="Shape" fill="#54565A"></path>
                <path d="M139.178927,153.269282 C135.97532,153.269282 134.729473,152.675215 134.017561,151.962335 C132.356431,150.298947 131.644518,146.912766 133.305648,140.080995 C133.826824,136.480041 135.39491,133.112338 137.814428,130.397703 C139.390744,128.865306 141.560451,128.104876 143.747034,128.318469 L150.2729,128.318469 C153.417181,128.318469 154.722354,128.971943 155.434267,129.684823 C157.095396,131.288804 157.747983,134.734392 156.146179,141.566163 C155.575249,145.134347 154.012724,148.46952 151.637399,151.190048 C150.069977,152.736793 147.893359,153.499645 145.704794,153.269282 L139.178927,153.269282 Z M140.246796,147.328612 C140.246796,147.328612 140.780731,147.685053 142.085904,147.685053 L144.458946,147.685053 C145.586141,147.685053 146.001424,147.685053 146.238728,147.328612 C146.476032,146.972172 147.187945,146.437512 148.552444,140.972096 C149.916944,135.506679 149.501661,135.031426 149.264357,134.556172 C149.027053,134.080919 148.730422,134.556172 147.425249,134.556172 L144.992881,134.556172 C143.925012,134.556172 143.509729,134.556172 143.213099,134.912612 C142.916469,135.269053 142.323208,135.803713 140.958709,141.269129 C139.59421,146.734545 140.009492,147.209799 140.246796,147.625646 L140.246796,147.328612 Z" id="Shape" fill="#FFFFFF"></path>
                <path d="M150.332226,128.259062 C153.476507,128.259062 154.78168,128.912536 155.493593,129.625416 C157.154722,131.229397 157.807309,134.674986 156.146179,141.506756 C155.614336,145.075301 154.069936,148.41574 151.696725,151.130641 C150.129303,152.677387 147.952685,153.440239 145.76412,153.209876 L139.238253,153.209876 C136.034646,153.209876 134.788799,152.615809 134.076887,151.902928 C132.415757,150.239541 131.703844,146.853359 133.364974,140.021589 C133.88615,136.420634 135.454236,133.052931 137.873754,130.338297 C139.45007,128.805899 141.619777,128.045469 143.80636,128.259062 L150.332226,128.259062 M142.085904,147.506833 L144.458946,147.506833 C145.586141,147.506833 146.001424,147.506833 146.238728,147.150392 C146.476032,146.793952 147.187945,146.259292 148.552444,140.793876 C149.916944,135.328459 149.501661,134.853206 149.264357,134.377952 C149.027053,133.902699 148.730422,134.377952 147.425249,134.377952 L144.992881,134.377952 C143.925012,134.377952 143.509729,134.377952 143.213099,134.734392 C142.916469,135.090833 142.323208,135.625493 140.958709,141.090909 C139.59421,146.556325 140.009492,147.031579 140.246796,147.447426 C140.484101,147.863273 140.780731,147.803866 142.085904,147.803866 M150.332226,127.664995 L143.80636,127.664995 C141.358113,127.413357 138.924493,128.261931 137.161841,129.981856 C134.636006,132.816627 132.987139,136.325232 132.415757,140.080995 C130.87328,146.556325 131.16991,150.774201 133.305648,152.912842 C134.985473,154.22832 137.125513,154.806916 139.238253,154.516823 L145.76412,154.516823 C148.220522,154.744581 150.652068,153.874992 152.408638,152.140555 C154.915727,149.31654 156.562688,145.832605 157.154722,142.100823 C158.6972,135.625493 158.40057,131.407617 156.205505,129.209569 C154.507894,127.93324 152.37635,127.378285 150.2729,127.664995 M140.899383,146.793952 C140.909827,144.936846 141.210081,143.092785 141.789274,141.328536 C142.124041,139.249019 142.805926,137.240749 143.80636,135.387866 L148.433792,135.387866 C148.37375,137.245113 148.054241,139.084787 147.484575,140.853282 C147.168363,142.937376 146.485418,144.948766 145.467489,146.793952 L140.840057,146.793952" id="Shape" fill="#54565A"></path>
                <path d="M166.528239,143.22955 C165.994305,145.427598 165.934979,146.259292 166.528239,146.556325 C167.1215,146.853359 167.41813,146.912766 168.901281,146.912766 L170.562411,146.912766 C171.808258,146.912766 172.460845,146.912766 172.876127,146.496919 C173.29141,146.081072 173.528714,145.546411 174.062648,143.22955 L177.80019,128.259062 L185.215947,128.259062 L181.537731,143.22955 C181.166888,146.19162 179.974889,148.990453 178.09682,151.308861 C176.228666,152.905465 173.764651,153.619702 171.33365,153.269282 L165.934979,153.269282 C163.624982,153.581535 161.281004,153.031749 159.349786,151.724708 C158.044613,150.417761 157.807309,147.803866 158.99383,142.932517 L162.61272,128.259062 L170.325107,128.259062 L166.528239,143.22955 Z" id="Shape" fill="#FFFFFF"></path>
                <path d="M185.215947,128.259062 L181.537731,143.22955 C181.166888,146.19162 179.974889,148.990453 178.09682,151.308861 C176.228666,152.905465 173.764651,153.619702 171.33365,153.269282 L165.934979,153.269282 C163.624982,153.581535 161.281004,153.031749 159.349786,151.724708 C158.044613,150.358354 157.807309,147.803866 158.99383,142.932517 L162.61272,128.259062 L170.325107,128.259062 L166.587565,143.22955 C166.053631,145.427598 165.994305,146.259292 166.587565,146.556325 C167.180826,146.853359 167.536782,146.912766 168.960607,146.912766 L170.621737,146.912766 C171.867584,146.912766 172.520171,146.912766 172.994779,146.496919 C173.469388,146.081072 173.58804,145.546411 174.121974,143.22955 L177.859516,128.259062 L185.215947,128.259062 L185.215947,128.259062 Z M186.402468,127.367962 L176.850973,127.367962 L176.850973,128.080842 L172.935453,142.813703 C172.401519,144.892938 172.223541,145.487005 171.986236,145.665225 C171.436426,145.758286 170.874917,145.758286 170.325107,145.665225 L167.002848,145.665225 C167.065264,144.822622 167.204267,143.987471 167.41813,143.170144 L171.155672,128.259062 L171.452302,127.130335 L161.841481,127.130335 L161.841481,127.843215 L158.044613,142.813703 C156.798766,147.803866 156.976744,150.774201 158.637874,152.437589 C160.70979,153.991071 163.314474,154.653817 165.875653,154.279196 L171.274324,154.279196 C173.95572,154.633266 176.65916,153.810303 178.690081,152.021742 C180.738896,149.617043 182.038377,146.663416 182.427622,143.526584 L186.105838,128.556096 L186.402468,127.367962 Z" id="Shape" fill="#54565A"></path>
                <polygon id="Shape" fill="#FFFFFF" points="201.827243 134.140325 197.081158 153.269282 189.368771 153.269282 194.114855 134.140325 186.936402 134.140325 188.360228 128.318469 210.666825 128.318469 209.183673 134.140325"></polygon>
                <path d="M210.607499,128.259062 L209.124347,134.199732 L201.827243,134.199732 L197.081158,153.388096 L189.368771,153.388096 L194.114855,134.199732 L186.877076,134.199732 L188.360228,128.259062 L210.607499,128.259062 Z M211.79402,127.367962 L187.648315,127.367962 L187.648315,128.021435 L186.165164,133.962105 L186.165164,135.150239 L192.928334,135.150239 L188.419554,152.972249 L188.419554,154.160383 L197.971049,154.160383 L197.971049,153.447502 L202.539155,134.972019 L209.954912,134.972019 L209.954912,134.259139 L211.378738,128.318469 L211.79402,127.367962 Z" id="Shape" fill="#54565A"></path>
                <polygon id="Shape" fill="#FFFFFF" points="230.89701 153.269282 223.243949 153.269282 225.616991 143.645397 217.489321 143.645397 215.116279 153.269282 207.463218 153.269282 213.633128 128.318469 221.345515 128.318469 218.972473 137.704727 227.100142 137.704727 229.473185 128.318469 237.126246 128.318469"></polygon>
                <path d="M237.422876,128.259062 L230.89701,153.269282 L223.243949,153.269282 L225.616991,143.58599 L217.489321,143.58599 L215.116279,153.269282 L207.403892,153.269282 L213.692454,128.259062 L221.345515,128.259062 L219.031799,137.704727 L227.159468,137.704727 L229.473185,128.259062 L237.422876,128.259062 Z M238.609397,127.367962 L228.701946,127.367962 L228.701946,128.080842 L226.328904,136.873033 L220.396298,136.873033 L222.47271,128.615502 L222.47271,127.486775 L212.921215,127.486775 L212.921215,128.199656 L206.691979,153.150469 L206.691979,154.338603 L216.3028,154.338603 L216.3028,153.625722 L218.497864,144.655311 L224.7271,144.655311 L222.591362,153.150469 L222.591362,154.338603 L231.490271,154.338603 L231.490271,153.625722 L237.719506,128.615502 L238.609397,127.367962 Z" id="Shape" fill="#54565A"></path>
            </g>
        </g>
    </g>
</svg>