<?xml version="1.0" encoding="UTF-8" standalone="no"?>
<svg width="250px" height="250px" viewBox="0 0 250 250" version="1.1" xmlns="http://www.w3.org/2000/svg" xmlns:xlink="http://www.w3.org/1999/xlink">
    <!-- Generator: Sketch 47.1 (45422) - http://www.bohemiancoding.com/sketch -->
    <title>MOUNT</title>
    <desc>Created with Sketch.</desc>
    <defs></defs>
    <g id="Page-1" stroke="none" stroke-width="1" fill="none" fill-rule="evenodd">
        <g id="MOUNT" fill-rule="nonzero">
            <g id="Group" transform="translate(0.000000, 58.000000)">
                <path d="M4.97731855,127.029802 L4.97731855,102.066234 L7.05645161,101.11825 L7.05645161,93.787177 L0.0630040323,87.8464798 L0.0630040323,55.6150376 L6.36340726,52.7078879 C13.7978831,49.1687491 21.421371,46.0088038 28.9188508,43.164853 L37.172379,40.0049077 L39.9445565,42.5960629 L127.142137,0 L209.425403,42.7856596 L211.819556,40.1313055 L220.514113,43.164853 C228.011593,46.0088038 235.572077,49.4847437 243.069556,52.7078879 L249.36996,55.6150376 L249.36996,87.2144908 L243.447581,94.2927683 L242.439516,93.787177 L242.439516,100.423062 L244.518649,101.307847 L244.518649,126.145017 L238.218246,133.033698 L226.373488,127.472194 C222.782258,125.829023 219.06502,124.185851 215.347782,122.669077 L209.047379,119.951524 L209.047379,114.579617 C195.111742,108.897489 180.597125,104.764877 165.763609,102.25583 C152.53397,99.922608 139.125592,98.759492 125.693044,98.7798906 C101.132309,98.7266783 76.7260026,102.675355 53.4274194,110.471688 C49.7101815,111.672468 45.9299395,113.062843 42.2127016,114.516418 L41.3936492,114.832413 L41.3936492,120.457116 L34.5262097,123.11147 C30.9349798,124.565044 27.1547379,126.208216 23.4375,127.914586 L11.5927419,133.349692 L4.97731855,127.029802 Z" id="Shape" fill="#FFFFFF"></path>
                <polygon id="Shape" fill="#A39161" points="216.229839 50.0535338 126.953125 3.72873548 35.219254 48.7263568 37.109375 53.2134792 208.606351 52.1390977 210.874496 50.1799316 212.575605 51.0015174"></polygon>
                <polygon id="Shape" fill="#002856" points="126.953125 3.72873548 218.813004 51.5071087 212.512601 52.3286945 131.86744 12.5765824 127.898185 15.2941353 159.589214 30.9042652 113.848286 18.8332741 35.2822581 60.6709501 34.5262097 48.8527546"></polygon>
                <polygon id="Shape" fill="#002856" points="60.0428427 37.097758 98.6643145 19.0860697 124.621976 32.1050444 87.7016129 27.9339166 65.7132056 39.4361176"></polygon>
                <polygon id="Shape" fill="#FFFFFF" points="37.4243952 50.7487218 126.701109 6.13029392 167.02369 26.4171429 126.890121 8.27905673 116.935484 13.3349692 144.027218 25.0267669 111.832157 15.546931 98.7903226 22.5620096 112.210181 28.6291046 93.686996 24.7107724 37.9914315 53.1502802"></polygon>
                <path d="M91.859879,40.9528913 C75.1192081,43.1982212 58.7058762,47.4415457 42.96875,53.5926726 C40.3581945,55.2183951 37.9656338,57.1723456 35.8492944,59.406972 L33.9591734,49.8007382 C26.7137097,52.5814901 19.468246,56.1206288 12.2227823,59.2805742 L8.37953629,61.1133424 L3.78024194,85.6345181 L8.06451613,89.3000547 C8.06451613,89.3000547 12.8528226,86.9616951 14.8689516,86.0769105 C14.8689516,89.4896514 14.8689516,105.036582 14.8689516,106.742953 L12.8528226,107.690936 L12.8528226,112.178059 L9.00957661,124.81784 L12.6638105,128.483377 L21.9254032,124.24905 C25.6426411,122.479481 29.4228831,120.836309 33.140121,119.319535 L37.4243952,117.613165 C37.4243952,117.613165 37.4243952,113.25244 37.4243952,111.925263 L40.8266129,110.471688 C44.6068548,109.018113 48.4501008,107.627738 52.2303427,106.363759 C88.7828852,94.3061575 127.737126,91.4840938 165.637601,98.1479016 C181.600674,100.802287 197.189573,105.363997 212.071573,111.735666 C212.071573,112.999645 212.071573,117.044375 212.071573,117.044375 L216.292843,118.813944 C220.010081,120.330718 223.790323,121.973889 227.444556,123.68026 L236.832157,128.104183 L240.297379,124.312249 L237.021169,107.122146 L235.068044,106.237362 C235.068044,104.720588 235.068044,89.4264525 235.068044,86.0137116 L241.746472,89.2368558 L244.959677,85.4449214 L242.439516,78.8722351 L242.439516,61.5557348 L238.59627,59.6597676 C231.476815,56.1838278 224.294355,53.0238824 217.111895,50.1799316 L213.835685,54.7934518 C213.835685,54.7934518 208.102319,51.949501 208.039315,54.0350649 C171.040117,39.8841194 131.066042,35.3829115 91.859879,40.9528913" id="Shape" fill="#A39161"></path>
                <path d="M172.064012,39.4993165 C144.910078,34.3251191 117.097388,33.6207139 89.7177419,37.4137526 C73.337217,39.7425361 57.2037856,43.5715338 41.5196573,48.8527546 L36.1643145,43.860041 L29.8639113,46.1984005 C22.4924395,48.9791524 14.9949597,52.1390977 7.56048387,55.6782365 L3.59122984,57.5110048 L3.59122984,85.6345181 L10.5846774,82.4113739 L10.5846774,103.140615 L8.69455645,104.151798 L8.69455645,125.070636 L18.3971774,120.709911 C22.3034274,119.003541 26.1466734,117.360369 29.9899194,115.843595 L34.3371976,114.074026 L34.3371976,108.386124 L37.6134073,107.122146 C41.4566532,105.668571 45.4259073,104.278195 49.2691532,103.014217 C87.2194697,90.8001524 127.541018,87.9173265 166.834677,94.6087628 C183.332061,97.2423288 199.465715,101.802571 214.906754,108.196528 L214.906754,113.442037 L219.254032,115.211606 C223.097278,116.72838 227.003528,118.371552 230.78377,120.077922 L240.549395,124.501846 L240.549395,103.583008 L238.470262,102.635024 L238.470262,82.4113739 L245.400706,85.6345181 L245.400706,57.5110048 L241.431452,55.6782365 C234.05998,52.2022967 226.5625,48.9791524 219.128024,46.1984005 L212.827621,44.0496377 L208.102319,49.3583459 C196.420756,45.0239437 184.382921,41.7249759 172.127016,39.4993165" id="Shape" fill="#002856"></path>
                <path d="M240.675403,56.8790157 C233.366935,53.4662748 225.869456,50.5591251 218.560988,47.5255776 L213.268649,45.6296104 L208.543347,50.9383185 C196.600099,46.4478753 184.258996,43.1044131 171.685988,40.9528913 C143.546336,35.3790026 114.64763,34.8227735 86.3155242,39.3097198 C70.8736885,41.8461247 55.661273,45.6292892 40.8266129,50.622324 L35.4712702,45.6296104 L30.4939516,47.5255776 C23.1854839,50.3063295 15.688004,53.4662748 8.37953629,56.8790157 L5.16633065,58.3957895 L5.16633065,83.675352 L12.1597782,80.4522078 L12.1597782,104.151798 L10.0806452,105.036582 L10.0806452,123.11147 L17.8301411,119.63553 C21.7363911,117.929159 25.6426411,116.222789 29.4858871,114.706015 L32.9511089,113.315639 L32.9511089,107.627738 L37.109375,106.047765 C41.015625,104.59419 44.984879,103.140615 48.891129,101.876637 L48.891129,101.876637 C103.531376,84.0810063 162.666027,86.0940455 215.977823,107.564539 L215.977823,112.810048 L219.506048,114.200424 C223.412298,115.780396 227.318548,117.423568 231.09879,119.129938 L238.91129,122.669077 L238.91129,104.467792 L236.832157,103.519809 L236.832157,80.2626111 L243.762601,83.4857553 L243.762601,58.2061928 L240.675403,56.8790157 Z" id="Shape" fill="#002856"></path>
                <path d="M32.3210685,51.5703076 C32.3210685,51.5703076 17.7041331,57.4478059 10.5216734,60.7973479 L10.5216734,60.7973479 L10.5216734,75.6490909 L15.1839718,65.2212714 L17.515121,64.2100889 L17.515121,107.438141 L15.2469758,113.758031 L28.2258065,108.63892 C28.2258065,108.63892 26.0836694,105.16298 26.0206653,104.973383 L26.0206653,60.734149 L28.2258065,59.9125632 L32.7620968,66.2324539 L32.7620968,51.3807109 L32.3210685,51.5703076 Z" id="Shape" fill="#A39161"></path>
                <path d="M61.3659274,49.3583459 L48.765121,53.0238824 L51.1592742,55.7414354 L51.1592742,70.2771839 L45.5519153,72.1099522 L45.5519153,57.7638004 C45.5519153,57.7638004 48.0720766,53.2134792 48.0720766,53.2134792 L33.8331653,58.2061928 L36.9833669,60.6077512 L36.9833669,95.177553 L34.5892137,100.423062 L35.4082661,100.423062 C39.3775202,98.9062884 43.4097782,97.5159125 47.3790323,96.1887355 L47.8830645,96.1887355 L45.5519153,92.8391934 L45.5519153,78.935434 L51.1592742,77.1026658 L51.1592742,90.8168284 C51.1592742,90.8168284 48.765121,95.8727409 48.765121,95.8727409 L49.5841734,95.8727409 C53.5534274,94.6087628 61.5549395,92.3968011 61.6179435,92.3336022 L62.1219758,92.3336022 L59.7278226,88.0360766 L59.7278226,54.1614627 C59.7278226,54.1614627 62.2479839,49.1055502 62.2479839,49.1055502 L61.3659274,49.3583459 Z" id="Shape" fill="#A39161"></path>
                <path d="M87.1975806,43.860041 C79.8891129,44.9976213 71.8245968,46.6407929 64.5791331,48.4735612 L63.9490927,48.4735612 L66.9102823,52.0126999 L66.9102823,85.1921258 L64.5791331,90.8168284 L65.3351815,90.8168284 C72.5806452,88.9840602 80.015121,87.4672864 87.3235887,86.3297061 L87.3235887,86.3297061 L87.3235887,70.2771839 L82.5352823,80.1994122 L75.2898185,81.5897881 L75.2898185,70.3403828 L77.2429435,69.9611893 L80.9601815,76.28108 L80.9601815,55.5518387 L77.1799395,63.5780998 L75.2898185,63.9572932 L75.2898185,52.7710868 L82.5982863,51.3807109 L87.3235887,59.0277785 L87.3235887,43.7968421 L87.1975806,43.860041 Z" id="Shape" fill="#A39161"></path>
                <path d="M122.731855,40.9528913 L122.416835,40.9528913 C122.416835,40.9528913 118.321573,59.5333698 117.628528,62.4405195 L113.407258,40.9528913 L113.092238,40.9528913 C109.122984,40.9528913 100.491431,41.7744771 100.491431,41.837676 L99.8613911,41.837676 L102.633569,45.8192071 L102.633569,80.3890089 L100.176411,84.1177444 L109.311996,83.4225564 L106.791835,80.1362133 L106.791835,55.6782365 C107.988911,60.9237457 113.092238,83.5489542 113.092238,83.5489542 L116.746472,83.5489542 L116.746472,83.5489542 C116.746472,83.5489542 121.597782,61.1133424 123.046875,55.6782365 L123.046875,80.2626111 L120.652722,83.7385509 L133.253528,83.7385509 L130.733367,80.1362133 L130.733367,45.3136159 L133.12752,41.2056869 L132.49748,41.2056869 L122.731855,40.9528913" id="Shape" fill="#A39161"></path>
                <path d="M147.303427,78.4930417 C145.413306,78.4930417 145.16129,77.5450581 145.16129,76.9762679 L145.16129,49.295147 C145.056093,49.0533633 145.056093,48.7785437 145.16129,48.5367601 C145.667782,48.1606667 146.320449,48.0437586 146.925403,48.2207656 C149.004536,48.2207656 149.06754,49.4847437 149.06754,49.8007382 L149.06754,77.4186603 C149.176052,77.6817068 149.176052,77.9771996 149.06754,78.2402461 C148.502207,78.4720523 147.868761,78.4720523 147.303427,78.2402461 M138.419859,43.4808476 C137.003508,44.9420167 136.290649,46.9488087 136.466734,48.9791524 L136.466734,76.0282843 C136.466734,81.0209979 139.238911,83.8017498 144.657258,84.3073411 L149.697581,84.7497334 C151.89929,85.2099158 154.192098,84.703938 155.997984,83.3593575 C157.351035,81.9650632 158.03976,80.0536945 157.888105,78.1138483 L157.888105,51.1911141 C158.065008,48.9106095 157.278689,46.6604574 155.721061,44.9898425 C154.163433,43.3192277 151.977793,42.381841 149.697581,42.4064662 L144.657258,41.9008749 C142.430778,41.5565921 140.15988,42.1260727 138.356855,43.4808476" id="Shape" fill="#A39161"></path>
                <path d="M161.668347,44.4288312 L163.810484,49.2319481 L163.810484,78.8722351 C163.672802,81.1527597 164.445956,83.394431 165.95915,85.1020391 C167.472343,86.8096472 169.601045,87.8426614 171.875,87.9728776 L176.915323,88.9840602 C179.01264,89.7160936 181.327188,89.4607057 183.215726,88.2888722 C184.617035,87.0047477 185.319876,85.1247097 185.105847,83.2329597 L185.105847,53.5926726 L188.067036,49.4215448 L187.563004,49.4215448 C184.286794,48.5367601 180.758569,47.6519754 177.797379,47.0199863 L177.104335,47.0199863 L179.435484,52.644689 L179.435484,81.1473958 C179.517275,81.8041163 179.28347,82.4607978 178.805444,82.9169651 C177.87917,83.3102889 176.833532,83.3102889 175.907258,82.9169651 C173.450101,82.348175 172.253024,81.1473958 172.253024,79.1250308 L172.253024,50.6855229 C172.253024,50.6855229 174.899194,46.3247984 174.899194,46.3247984 L174.395161,46.3247984 C170.236895,45.5032126 166.078629,44.6816268 161.794355,44.0496377 L161.164315,44.0496377 L161.668347,44.4288312 Z" id="Shape" fill="#A39161"></path>
                <path d="M189.831149,50.2431306 L191.847278,55.2990431 L191.847278,87.720082 L189.642137,91.9544087 L198.399698,94.5455639 L198.399698,93.787177 C198.399698,93.787177 196.320565,88.8576623 196.320565,88.7312645 L196.320565,71.4147642 C197.517641,74.6379084 206.275202,97.0735202 206.275202,97.0735202 L214.339718,100.043869 L214.339718,99.222283 L212.260585,94.0399727 L212.260585,61.6189337 L214.591734,57.5742037 L204.637097,54.2878606 L205.015121,55.0462474 L207.34627,60.2917567 L207.34627,75.9018865 C206.149194,72.8051401 197.769657,52.0126999 197.769657,52.0126999 L197.769657,52.0126999 L189.516129,49.6111415 L189.831149,50.2431306 Z" id="Shape" fill="#A39161"></path>
                <path d="M216.229839,51.949501 L216.229839,68.9500068 C216.229839,68.9500068 220.577117,60.1653589 220.892137,59.7229665 L223.28629,60.734149 L223.28629,103.014217 L221.144153,108.196528 L221.144153,108.196528 C225.113407,109.7765 229.082661,111.482871 232.988911,113.189241 L233.74496,113.568435 C233.74496,113.568435 231.476815,106.30056 231.41381,106.174163 L231.41381,64.3364867 L233.74496,65.3476692 L238.407258,75.7754887 L238.407258,60.9237457 L238.407258,60.9237457 C231.161794,57.5110048 223.853327,54.6038551 216.607863,51.6967054 L216.103831,51.6967054 L216.229839,51.949501 Z" id="Shape" fill="#A39161"></path>
                <path d="M32.3210685,51.5703076 C32.3210685,51.5703076 17.7041331,57.4478059 10.5216734,60.7973479 L10.5216734,60.7973479 L10.5216734,75.6490909 L15.1839718,65.2212714 L17.515121,64.2100889 L17.515121,107.438141 L15.2469758,113.758031 L28.2258065,108.63892 C28.2258065,108.63892 26.0836694,105.16298 26.0206653,104.973383 L26.0206653,60.734149 L28.2258065,59.9125632 L32.7620968,66.2324539 L32.7620968,51.3807109 L32.3210685,51.5703076 Z" id="Shape" fill="#A39161"></path>
                <path d="M61.3659274,49.3583459 L48.765121,53.0238824 L51.1592742,55.7414354 L51.1592742,70.2771839 L45.5519153,72.1099522 L45.5519153,57.7638004 C45.5519153,57.7638004 48.0720766,53.2134792 48.0720766,53.2134792 L33.8331653,58.2061928 L36.9833669,60.6077512 L36.9833669,95.177553 L34.5892137,100.423062 L35.4082661,100.423062 C39.3775202,98.9062884 43.4097782,97.5159125 47.3790323,96.1887355 L47.8830645,96.1887355 L45.5519153,92.8391934 L45.5519153,78.935434 L51.1592742,77.1026658 L51.1592742,90.8168284 C51.1592742,90.8168284 48.765121,95.8727409 48.765121,95.8727409 L49.5841734,95.8727409 C53.5534274,94.6087628 61.5549395,92.3968011 61.6179435,92.3336022 L62.1219758,92.3336022 L59.7278226,88.0360766 L59.7278226,54.1614627 C59.7278226,54.1614627 62.2479839,49.1055502 62.2479839,49.1055502 L61.3659274,49.3583459 Z" id="Shape" fill="#A39161"></path>
                <path d="M87.1975806,43.860041 C79.8891129,44.9976213 71.8245968,46.6407929 64.5791331,48.4735612 L63.9490927,48.4735612 L66.9102823,52.0126999 L66.9102823,85.1921258 L64.5791331,90.8168284 L65.3351815,90.8168284 C72.5806452,88.9840602 80.015121,87.4672864 87.3235887,86.3297061 L87.3235887,86.3297061 L87.3235887,70.2771839 L82.5352823,80.1994122 L75.2898185,81.5897881 L75.2898185,70.3403828 L77.2429435,69.9611893 L80.9601815,76.28108 L80.9601815,55.5518387 L77.1799395,63.5780998 L75.2898185,63.9572932 L75.2898185,52.7710868 L82.5982863,51.3807109 L87.3235887,59.0277785 L87.3235887,43.7968421 L87.1975806,43.860041 Z" id="Shape" fill="#A39161"></path>
                <path d="M122.731855,40.9528913 L122.416835,40.9528913 C122.416835,40.9528913 118.321573,59.5333698 117.628528,62.4405195 L113.407258,40.9528913 L113.092238,40.9528913 C109.122984,40.9528913 100.491431,41.7744771 100.491431,41.837676 L99.8613911,41.837676 L102.633569,45.8192071 L102.633569,80.3890089 L100.176411,84.1177444 L109.311996,83.4225564 L106.791835,80.1362133 L106.791835,55.6782365 C107.988911,60.9237457 113.092238,83.5489542 113.092238,83.5489542 L116.746472,83.5489542 L116.746472,83.5489542 C116.746472,83.5489542 121.597782,61.1133424 123.046875,55.6782365 L123.046875,80.2626111 L120.652722,83.7385509 L133.253528,83.7385509 L130.733367,80.1362133 L130.733367,45.3136159 L133.12752,41.2056869 L132.49748,41.2056869 L122.731855,40.9528913" id="Shape" fill="#A39161"></path>
                <path d="M147.303427,78.4930417 C145.413306,78.4930417 145.16129,77.5450581 145.16129,76.9762679 L145.16129,49.295147 C145.056093,49.0533633 145.056093,48.7785437 145.16129,48.5367601 C145.667782,48.1606667 146.320449,48.0437586 146.925403,48.2207656 C149.004536,48.2207656 149.06754,49.4847437 149.06754,49.8007382 L149.06754,77.4186603 C149.176052,77.6817068 149.176052,77.9771996 149.06754,78.2402461 C148.502207,78.4720523 147.868761,78.4720523 147.303427,78.2402461 M138.419859,43.4808476 C137.003508,44.9420167 136.290649,46.9488087 136.466734,48.9791524 L136.466734,76.0282843 C136.466734,81.0209979 139.238911,83.8017498 144.657258,84.3073411 L149.697581,84.7497334 C151.89929,85.2099158 154.192098,84.703938 155.997984,83.3593575 C157.351035,81.9650632 158.03976,80.0536945 157.888105,78.1138483 L157.888105,51.1911141 C158.065008,48.9106095 157.278689,46.6604574 155.721061,44.9898425 C154.163433,43.3192277 151.977793,42.381841 149.697581,42.4064662 L144.657258,41.9008749 C142.430778,41.5565921 140.15988,42.1260727 138.356855,43.4808476" id="Shape" fill="#A39161"></path>
                <path d="M161.668347,44.4288312 L163.810484,49.2319481 L163.810484,78.8722351 C163.672802,81.1527597 164.445956,83.394431 165.95915,85.1020391 C167.472343,86.8096472 169.601045,87.8426614 171.875,87.9728776 L176.915323,88.9840602 C179.01264,89.7160936 181.327188,89.4607057 183.215726,88.2888722 C184.617035,87.0047477 185.319876,85.1247097 185.105847,83.2329597 L185.105847,53.5926726 L188.067036,49.4215448 L187.563004,49.4215448 C184.286794,48.5367601 180.758569,47.6519754 177.797379,47.0199863 L177.104335,47.0199863 L179.435484,52.644689 L179.435484,81.1473958 C179.517275,81.8041163 179.28347,82.4607978 178.805444,82.9169651 C177.87917,83.3102889 176.833532,83.3102889 175.907258,82.9169651 C173.450101,82.348175 172.253024,81.1473958 172.253024,79.1250308 L172.253024,50.6855229 C172.253024,50.6855229 174.899194,46.3247984 174.899194,46.3247984 L174.395161,46.3247984 C170.236895,45.5032126 166.078629,44.6816268 161.794355,44.0496377 L161.164315,44.0496377 L161.668347,44.4288312 Z" id="Shape" fill="#A39161"></path>
                <path d="M189.831149,50.2431306 L191.847278,55.2990431 L191.847278,87.720082 L189.642137,91.9544087 L198.399698,94.5455639 L198.399698,93.787177 C198.399698,93.787177 196.320565,88.8576623 196.320565,88.7312645 L196.320565,71.4147642 C197.517641,74.6379084 206.275202,97.0735202 206.275202,97.0735202 L214.339718,100.043869 L214.339718,99.222283 L212.260585,94.0399727 L212.260585,61.6189337 L214.591734,57.5742037 L204.637097,54.2878606 L205.015121,55.0462474 L207.34627,60.2917567 L207.34627,75.9018865 C206.149194,72.8051401 197.769657,52.0126999 197.769657,52.0126999 L197.769657,52.0126999 L189.516129,49.6111415 L189.831149,50.2431306 Z" id="Shape" fill="#A39161"></path>
                <path d="M216.229839,51.949501 L216.229839,68.9500068 C216.229839,68.9500068 220.577117,60.1653589 220.892137,59.7229665 L223.28629,60.734149 L223.28629,103.014217 L221.144153,108.196528 L221.144153,108.196528 C225.113407,109.7765 229.082661,111.482871 232.988911,113.189241 L233.74496,113.568435 C233.74496,113.568435 231.476815,106.30056 231.41381,106.174163 L231.41381,64.3364867 L233.74496,65.3476692 L238.407258,75.7754887 L238.407258,60.9237457 L238.407258,60.9237457 C231.161794,57.5110048 223.853327,54.6038551 216.607863,51.6967054 L216.103831,51.6967054 L216.229839,51.949501 Z" id="Shape" fill="#A39161"></path>
                <path d="M32.0690524,52.4550923 L32.0690524,63.7044976 L28.5408266,58.8381818 L25.0756048,60.2285578 L25.0756048,105.16298 L26.9657258,108.322925 L16.2550403,112.810048 L18.0821573,107.690936 L18.0821573,63.451702 L14.4909274,65.0316746 L11.0887097,72.5523445 L11.0887097,61.3661381 C17.3891129,58.3957895 29.5488911,53.5294737 32.0690524,52.4550923" id="Shape" fill="#FFFFFF"></path>
                <path d="M60.7358871,50.3063295 L58.9717742,53.971866 L58.9717742,88.2888722 L60.8618952,91.0696241 C59.1607863,91.5120164 53.6164315,93.0919891 50.0882056,94.2295694 L51.7893145,90.5640328 L51.7893145,75.6490909 L44.7328629,77.9242515 L44.7328629,92.6495967 L46.6229839,95.3039508 L35.9122984,99.0958852 L37.6134073,95.3671497 L37.6134073,60.2285578 L35.3452621,58.4589884 L46.4339718,54.6038551 C45.8039315,55.6150376 44.7328629,57.5742037 44.7328629,57.5742037 L44.7328629,73.1211347 L51.7893145,70.845974 L51.7893145,55.4254409 L50.0252016,53.5926726 L60.7358871,50.4959262" id="Shape" fill="#FFFFFF"></path>
                <path d="M86.8825605,44.6816268 L86.8825605,56.3734245 L83.2913306,50.5591251 L74.8487903,52.1390977 L74.8487903,64.778879 L77.9989919,64.083691 L77.9989919,64.083691 L80.4561492,58.9013807 L80.4561492,73.4371292 L77.8729839,69.0764046 L74.7857863,69.7083937 L74.7857863,82.348175 L83.2913306,80.7682023 L83.2913306,80.7682023 L86.7565524,73.7531237 L86.7565524,85.6345181 C79.7631048,86.7088995 72.7066532,88.1624744 65.7132056,89.8688448 L67.5403226,85.5081203 L67.5403226,51.8231032 L65.2091734,49.0423513 C72.1396169,47.3359809 79.7631048,45.8192071 86.7565524,44.6816268" id="Shape" fill="#FFFFFF"></path>
                <path d="M117.754536,64.3364867 C117.754536,64.3364867 122.668851,42.2168694 122.731855,41.7112782 L131.993448,41.7112782 C131.552419,42.532864 130.103327,44.9344224 130.103327,44.9344224 L130.103327,80.0098154 L131.930444,82.5377717 L121.849798,82.5377717 L123.613911,80.0098154 L123.613911,48.4103623 L116.431452,82.6641695 L113.91129,82.6641695 L106.350806,48.8527546 L106.350806,80.4522078 L108.177923,82.8537662 L101.87752,83.3593575 L103.641633,80.7050034 L103.641633,45.8192071 L101.436492,42.7224607 C103.452621,42.7224607 109.501008,42.0904716 112.903226,41.9640738 L117.313508,66.2324539 L117.754536,64.3364867 Z" id="Shape" fill="#FFFFFF"></path>
                <path d="M177.041331,88.3520711 L172.064012,87.2776897 C169.946232,87.1798347 167.955455,86.2363385 166.535272,84.657434 C165.11509,83.0785295 164.383503,80.9954072 164.503528,78.8722351 L164.503528,49.1055502 L162.613407,44.7448257 C166.393649,45.3768148 170.173891,46.0720027 173.891129,46.8303896 L171.685988,50.4959262 L171.685988,78.8722351 C171.685988,81.2737936 173.135081,82.7905673 175.970262,83.3593575 C177.119353,83.7958777 178.407252,83.654945 179.435484,82.980164 C180.114015,82.4035431 180.467222,81.5296049 180.380544,80.6418045 L180.380544,52.2654956 L178.490423,47.8415721 C181.136593,48.4735612 184.160786,49.1687491 186.995968,49.927136 L184.53881,53.4030759 L184.53881,83.2961586 C184.738606,84.9562505 184.156341,86.6149965 182.96371,87.7832809 C181.161805,88.8146414 179.005596,89.0217255 177.041331,88.3520711" id="Shape" fill="#FFFFFF"></path>
                <path d="M192.540323,87.9728776 L192.540323,87.9728776 L192.540323,55.1094463 L190.713206,50.6855229 L197.328629,52.644689 L208.228327,79.6938209 L208.228327,59.9125632 L206.149194,55.2990431 L212.449597,57.7006015 C212.449597,58.3325906 210.496472,61.1765414 210.496472,61.1765414 L210.496472,93.9135748 C210.496472,93.9135748 211.88256,97.3895147 212.386593,98.4638961 L206.08619,96.1887355 C206.08619,96.1887355 194.808468,67.2436364 194.808468,67.2436364 L194.808468,88.6048667 L196.635585,93.0919891 L190.335181,91.1960219 L192.162298,87.720082" id="Shape" fill="#FFFFFF"></path>
                <path d="M217.237903,52.4550923 C224.231351,55.1094463 231.287802,58.1429938 238.218246,61.3661381 L238.218246,72.5523445 L234.879032,65.0316746 L231.287802,63.451702 L231.287802,106.679754 L233.114919,112.620451 C229.586694,111.040478 225.93246,109.460506 222.34123,108.006931 L224.231351,103.393411 L224.231351,60.2285578 L220.766129,58.8381818 L220.766129,58.8381818 L217.237903,66.2324539 L217.237903,52.4550923 Z" id="Shape" fill="#FFFFFF"></path>
                <path d="M149.760585,84.0545455 L144.720262,83.5489542 C139.67994,83.1065619 137.222782,80.6418045 137.222782,76.0282843 L137.222782,48.9791524 C137.05578,47.1669368 137.675716,45.3704691 138.923891,44.0496377 C140.594155,42.7780657 142.722067,42.2731315 144.783266,42.6592618 L149.823589,43.164853 C151.920821,43.100844 153.94432,43.9440853 155.378966,45.479914 C156.813612,47.0157426 157.521007,49.0959988 157.321069,51.1911141 L157.321069,78.1138483 C157.45034,79.8528545 156.857535,81.5681569 155.682964,82.8537662 C153.949279,84.0345687 151.815363,84.4672262 149.760585,84.0545455 M144.972278,47.9679699 C144.589236,48.2988967 144.379972,48.7886881 144.405242,49.295147 L144.405242,76.9762679 C144.405242,77.8610526 144.909274,79.0618319 147.240423,79.2514286 C148.053799,79.4262895 148.902866,79.2421396 149.571573,78.7458373 C149.939503,78.408388 150.126449,77.9161364 150.075605,77.4186603 L150.075605,49.8007382 C150.075605,48.8527546 149.634577,47.7151743 147.303427,47.4623787 C146.490066,47.2789212 145.637432,47.4638446 144.972278,47.9679699" id="Shape" fill="#FFFFFF"></path>
            </g>
        </g>
    </g>
</svg>