<?xml version="1.0" encoding="UTF-8" standalone="no"?>
<svg width="250px" height="250px" viewBox="0 0 250 250" version="1.1" xmlns="http://www.w3.org/2000/svg" xmlns:xlink="http://www.w3.org/1999/xlink">
    <!-- Generator: Sketch 47.1 (45422) - http://www.bohemiancoding.com/sketch -->
    <title>QUINN</title>
    <desc>Created with Sketch.</desc>
    <defs></defs>
    <g id="Page-1" stroke="none" stroke-width="1" fill="none" fill-rule="evenodd">
        <g id="QUINN">
            <g id="quinnipiac-bobcats" transform="translate(13.000000, 0.000000)">
                <path d="M136.048023,245.653955 L136.809322,243.211864 C145.382768,215.721751 156.673729,207.858757 163.772599,209.316384 C168.699153,210.327684 176.490113,218.146893 173.268362,246.723164 C186.159605,235.120056 198.405367,214.70904 202.488701,202.676554 C202.748588,202.891243 207.429379,205.039548 207.429379,205.039548 C207.429379,205.039548 216.025424,185.488701 215.594633,171.737288 C217.492938,174.371469 219.461864,177.108757 219.461864,177.108757 C219.461864,177.108757 220.70339,160.620056 220.730226,159.009887 C220.950565,146.185028 217.877119,132.111582 214.733051,122.536723 C214.981638,122.665254 219.461864,124.039548 222.898305,125.114407 C219.460452,116.305085 211.940678,97.6129944 196.861582,82.829096 C206.528249,69.9265537 209.620056,54.6864407 209.978814,46.8220339 C217.772599,37.4223164 220.44209,29.559322 220.549435,23.3347458 C220.700565,14.559322 215.79661,9.1440678 213.545198,6.84887006 C211.29661,4.55367232 209.675141,2.80649718 207.975989,1.7019774 C208.878531,11.6016949 202.783898,28.4731638 172.816384,39.9816384 C155.887006,46.4830508 146.305085,52.8841808 138.888418,62.3742938 C125.782486,61.5155367 97.8502825,61.299435 87.8954802,61.789548 C80.6426554,52.1737288 72.0225989,46.3855932 55.2062147,39.5918079 C25.4435028,27.5677966 19.6412429,10.5932203 20.7161017,0.710451977 C18.9971751,1.78531073 17.3446328,3.50423729 15.0550847,5.75988701 C12.7655367,8.01553672 7.76694915,13.3446328 7.76694915,22.1214689 C7.76694915,28.3474576 10.3022599,36.2556497 17.930791,45.7881356 C18.1539548,53.6567797 20.9844633,68.9477401 30.4265537,82.0155367 C22.8940678,89.9519774 10.5875706,105.114407 5.79378531,116.579096 L1.32909605,127.25565 C1.32909605,127.25565 11.3036723,122.268362 11.5508475,122.144068 C8.24152542,131.662429 5.24576271,144.946328 5.24576271,157.771186 C5.24576271,159.384181 5.24576271,173.670904 5.24576271,173.670904 C5.24576271,173.670904 8.45762712,169.824859 10.4025424,167.225989 C10.990113,175.967514 12.7019774,187.820621 15.4858757,198.399718 L17.1666667,204.786723 C17.1666667,204.786723 21.9223164,200.983051 22.1864407,200.771186 C25.2189266,209.816384 32.6257062,226.701977 43.3206215,236.817797 C46.069209,239.418079 48.0028249,241.564972 50.5805085,243.498588 C49.7217514,214.923729 56.3813559,209.981638 61.3234463,209.055085 C68.4477401,207.721751 79.6016949,215.776836 87.6977401,243.411017 L88.4166667,245.865819 C103.868644,248.872881 117.090395,251.029661 136.048023,245.653955 L136.048023,245.653955 Z" id="Shape" fill="#C29A02"></path>
                <path d="M132.443503,242.211864 C150.278249,185.274011 182.077684,203.105932 177.99435,234.69209 C190.028249,221.799435 197.759887,203.967514 200.338983,196.233051 C201.627119,197.522599 203.346045,198.810734 205.067797,199.240113 C211.94209,186.779661 211.94209,167.871469 211.081921,157.55791 C212.587571,159.491525 214.306497,162.069209 215.594633,163.788136 C216.882768,145.525424 212.15678,124.470339 207.001412,116.090395 C209.793785,116.734463 213.444915,117.59322 215.379944,118.238701 C210.439266,105.778249 197.548023,89.8785311 191.101695,83.4322034 C202.059322,70.7556497 205.711864,53.9971751 205.711864,45.6172316 C221.182203,27.7838983 216.669492,15.9675141 210.655367,10.3813559 C212.158192,18.9745763 199.05226,34.8742938 174.34322,44.329096 C156.384181,51.200565 147.915254,57.6497175 141.04096,67.1045198 C130.083333,65.3855932 95.0607345,65.3855932 85.8220339,66.2457627 C79.1228814,56.6666667 71.430791,50.7838983 53.6016949,43.5805085 C29.0720339,33.670904 16.2627119,17.5324859 17.9251412,8.96610169 C11.8079096,14.4392655 7.07627119,26.170904 22.2146893,44.2881356 C22.059322,52.6666667 25.4011299,69.490113 36.1228814,82.3672316 C29.559322,88.6920904 14.9364407,105.872881 9.76412429,118.240113 C12.3432203,116.951977 16.8163842,115.317797 19.6214689,114.724576 C14.3107345,123.007062 9.19491525,143.973164 10.1454802,162.25565 C11.4661017,160.560734 13.2330508,158.015537 14.7711864,156.108757 C13.720339,166.403955 15.3516949,180.977401 19.6483051,197.30791 C21.7966102,195.588983 23.0621469,194.275424 24.3757062,193.009887 C26.9548023,203.323446 33.6144068,220.512712 46.4265537,233.841808 C42.9293785,202.189266 75.0536723,184.946328 91.829096,242.204802 C106.875706,245.435028 118.262712,245.864407 132.443503,242.211864 L132.443503,242.211864 Z" id="Shape" fill="#003663"></path>
                <path d="M203.372881,156.129944 C203.460452,153.204802 203.292373,150.039548 203.025424,147.491525 C190.379944,133.838983 172.85452,137.132768 146.481638,153.288136 C146.774011,154.814972 146.881356,156.524011 146.771186,158.418079 C169.289548,142.334746 190.25,137.525424 203.372881,156.129944 L203.372881,156.129944 Z" id="Shape" fill="#C29A02"></path>
                <path d="M62.3460452,68.6313559 C61.6723164,66.4618644 58.7274011,62.5183616 55.9081921,59.0946328 C43.4646893,51.4237288 34.1567797,48.5367232 29.7471751,44.3248588 C31.0225989,55.5254237 35.8629944,71.0988701 46.2570621,77.7570621 C50.8333333,74.6271186 57.5240113,73.259887 62.4816384,72.5014124 C59.7330508,70.2966102 54.6341808,67.3983051 51.2189266,66.2542373 C55.1002825,65.6892655 58.730226,66.8375706 62.3460452,68.6313559 L62.3460452,68.6313559 Z" id="Shape" fill="#FFFFFF"></path>
                <path d="M176.275424,67.5324859 C172.837571,68.6073446 167.682203,71.3997175 164.888418,73.5480226 C169.829096,74.4067797 176.491525,75.9124294 181.004237,79.1341808 C191.531073,72.6892655 196.687853,57.2189266 198.190678,46.0466102 C193.696328,50.1666667 184.331921,52.8629944 171.735876,60.2782486 C168.847458,63.6426554 165.823446,67.5254237 165.10452,69.680791 C168.75565,67.9618644 172.40678,66.8870056 176.275424,67.5324859 L176.275424,67.5324859 Z" id="Shape" fill="#FFFFFF"></path>
                <path d="M78.7189266,157.615819 C78.7330508,155.881356 78.9449153,154.211864 79.3375706,152.65113 C53.2542373,135.919492 35.7768362,132.245763 22.8418079,145.65113 C22.5225989,148.19209 22.2881356,151.351695 22.3163842,154.279661 C35.789548,135.985876 56.5847458,141.159605 78.7189266,157.615819 L78.7189266,157.615819 Z" id="Shape" fill="#C29A02"></path>
                <path d="M146.346045,161.95904 C146.144068,163.09322 145.894068,164.265537 145.55226,165.508475 C145.066384,167.257062 144.573446,168.971751 144.070621,170.658192 C154.446328,165.216102 174.562147,155.998588 183.149718,161.855932 C180.788136,163.144068 177.34887,165.293785 176.059322,166.367232 C183.689266,166.367232 193.69209,168.162429 203.413842,175.14548 C203.783898,173.050847 204.076271,170.95904 204.29661,169.038136 C188.536723,138.34322 163.312147,150.271186 146.346045,161.95904 L146.346045,161.95904 Z" id="Shape" fill="#C29A02"></path>
                <path d="M49.4152542,165.073446 C48.1483051,163.973164 44.7556497,161.754237 42.4180791,160.416667 C51.1200565,154.740113 71.0268362,164.355932 81.2937853,170.008475 C80.6412429,167.915254 80.0635593,165.961864 79.5875706,164.217514 C79.3008475,163.165254 79.0875706,162.117232 78.9420904,161.077684 C62.2217514,149.105932 37.4223164,136.963277 21.1271186,167.163842 C21.309322,169.090395 21.559322,171.187853 21.8855932,173.289548 C31.7485876,166.508475 41.7867232,164.918079 49.4152542,165.073446 L49.4152542,165.073446 Z" id="Shape" fill="#C29A02"></path>
                <path d="M176.059322,166.367232 C177.347458,165.292373 180.788136,163.144068 183.149718,161.855932 C174.562147,156 154.446328,165.217514 144.070621,170.658192 C137.413842,193.008475 129.300847,209.653955 127.502825,213.850282 C125.569209,218.361582 123.204802,220.511299 118.264124,221.155367 C113.323446,221.799435 109.454802,221.586158 104.943503,220.725989 C100.430791,219.865819 98.4985876,217.288136 95.9194915,210.841808 C93.6694915,205.218927 85.7542373,184.327684 81.2966102,170.008475 C71.0282486,164.355932 51.1228814,154.740113 42.420904,160.416667 C44.7570621,161.754237 48.1511299,163.973164 49.4180791,165.073446 C41.789548,164.918079 31.7514124,166.508475 21.8898305,173.289548 C22.4166667,176.680791 23.1454802,180.088983 24.1257062,182.822034 C25.2471751,180.481638 28.0889831,178.175141 30.0437853,177.142655 C29.6355932,186.588983 32.1073446,202.326271 40.9322034,212.177966 C43.930791,202.139831 52.559322,190.066384 70.9053672,196.672316 C65.039548,189.245763 50.9548023,184.444915 39.0776836,197.742938 C37.6398305,194.488701 36.2146893,190.591808 35.8997175,184.998588 C43.720339,180.858757 57.3587571,175.980226 67.1087571,182.627119 C64.8022599,179.785311 61.4533898,175.418079 59.5508475,173.877119 C73.7980226,181.261299 91.8248588,203.549435 98.0748588,234.19209 C109.882768,235.766949 114.610169,236.411017 125.998588,234.477401 C132.872881,203.967514 151.350282,182.05226 165.748588,174.961864 C163.814972,176.464689 160.377119,180.761299 158.012712,183.555085 C167.894068,177.110169 181.430791,182.266949 189.166667,186.563559 C188.735876,192.149718 187.233051,196.016949 185.728814,199.240113 C174.125706,185.704802 159.946328,190.216102 153.929379,197.522599 C172.40678,191.29096 180.788136,203.538136 183.579096,213.635593 C192.603107,203.967514 195.396893,188.282486 195.182203,178.829096 C197.115819,179.903955 199.908192,182.266949 200.983051,184.628531 C202.016949,181.916667 202.817797,178.525424 203.413842,175.144068 C193.693503,168.163842 183.690678,166.367232 176.059322,166.367232 L176.059322,166.367232 Z" id="Shape" fill="#FFFFFF"></path>
                <path d="M85.3488701,153.392655 C89.8276836,157.274011 94.5225989,161.70904 99.4548023,166.741525 C94.3347458,162.916667 89.490113,159.437853 84.8940678,156.319209 C84.8064972,158.169492 85.0042373,160.377119 85.5607345,163.018362 C97.7146893,173.155367 101.995763,179.042373 111.899718,178.169492 C109.024011,165.723164 99.7853107,168.086158 94.8432203,153.477401 C93.2909605,151.922316 90.8813559,150.216102 88.8347458,148.868644 C87.2344633,149.724576 85.9858757,151.152542 85.3488701,153.392655 L85.3488701,153.392655 Z" id="Shape" fill="#FFFFFF"></path>
                <path d="M189.381356,109.858757 C193.464689,107.710452 196.686441,106.851695 200.122881,106.206215 C191.529661,92.4562147 175.200565,80.6384181 164.887006,73.5480226 C167.682203,71.3997175 172.837571,68.6059322 176.274011,67.5324859 C172.40678,66.8870056 168.754237,67.9618644 165.101695,69.680791 C165.822034,67.5268362 168.844633,63.6440678 171.733051,60.2782486 C169.877119,61.3700565 167.950565,62.5621469 165.961864,63.8799435 C151.99435,73.1186441 156.292373,86.440678 162.737288,88.3742938 C147.481638,89.2330508 144.045198,79.9943503 142.326271,73.9788136 C138.673729,73.5480226 130.939266,73.7641243 125.997175,73.7641243 C123.418079,76.9872881 124.063559,84.0776836 126.211864,92.2415254 C128.360169,100.40678 126.426554,104.919492 122.344633,106.637006 C123.632768,102.340395 121.913842,97.1836158 117.831921,94.3912429 C119.334746,104.488701 114.179379,106.207627 113.322034,108.572034 C112.509887,106.190678 107.389831,104.365819 109.100282,94.3008475 C104.961864,97.009887 103.138418,102.129944 104.338983,106.45339 C100.292373,104.65113 98.4519774,100.100282 100.765537,91.9816384 C103.081921,83.8615819 103.870056,76.7867232 101.358757,73.5127119 C96.4180791,73.4110169 88.6892655,73.0381356 85.0282486,73.3940678 C83.1864407,79.3728814 79.5607345,88.5409605 64.3262712,87.3700565 C70.809322,85.5677966 75.3785311,72.3375706 61.6045198,62.8149718 C59.6398305,61.4562147 57.7415254,60.2259887 55.9081921,59.0960452 C58.7274011,62.519774 61.6723164,66.4632768 62.3460452,68.6327684 C58.7288136,66.8389831 55.1002825,65.690678 51.220339,66.2556497 C54.6355932,67.4011299 59.7344633,70.2980226 62.4830508,72.5028249 C52.0268362,79.3813559 35.460452,90.8629944 26.5861582,104.433616 C30.009887,105.148305 33.2146893,106.073446 37.2528249,108.305085 C28.6680791,111.173729 20.509887,121.536723 17.3983051,143.276836 C32.6793785,127.372881 52.0042373,126.430791 80.509887,149.34887 C84.4745763,141.009887 94.6087571,138.05226 106.875706,150.896893 C102.786723,149.316384 93.9788136,146.111582 88.8347458,148.867232 C90.8813559,150.214689 93.2909605,151.920904 94.8432203,153.475989 C103.652542,158.847458 122.346045,158.847458 130.723164,153.905367 C132.326271,152.30226 134.841808,150.535311 136.930791,149.168079 C133.727401,147.137006 128.100282,147.279661 118.908192,150.898305 C126.870056,141.375706 140.949153,140.258475 145.419492,149.916667 C174.316384,127.686441 193.586158,129.042373 208.515537,145.231638 C205.850282,123.430791 197.905367,112.903955 189.381356,109.858757 L189.381356,109.858757 Z" id="Shape" fill="#C19A00"></path>
                <path d="M113.322034,178.183616 C123.20339,179.258475 127.603107,173.460452 139.961864,163.573446 C140.387006,161.241525 140.60452,159.029661 140.535311,157.038136 C135.944915,160.022599 131.105932,163.35452 125.997175,167.011299 C130.957627,162.153955 135.675141,157.870056 140.170904,154.121469 C139.673729,151.974576 138.65113,150.259887 136.929379,149.166667 C134.840395,150.535311 132.324859,152.30226 130.721751,153.903955 C124.710452,168.516949 116.114407,166.798023 113.322034,178.183616 L113.322034,178.183616 Z" id="Shape" fill="#FFFFFF"></path>
                <path d="M74.2175141,71.829096 C74.0028249,65.8135593 69.7062147,61.0861582 62.6158192,54.4265537 C67.7725989,56.1440678 74.8629944,61.5169492 79.3742938,67.7471751 C78.299435,69.2514124 75.7217514,70.970339 74.2175141,71.829096 L74.2175141,71.829096 Z" id="Shape" fill="#FFFFFF"></path>
                <path d="M153.069209,71.829096 C153.283898,65.8135593 157.581921,61.0861582 164.672316,54.4265537 C159.516949,56.1440678 152.426554,61.5169492 147.913842,67.7471751 C148.988701,69.2514124 151.566384,70.970339 153.069209,71.829096 L153.069209,71.829096 Z" id="Shape" fill="#FFFFFF"></path>
                <path d="M77.6553672,107.710452 C78.299435,99.9759887 86.0353107,86.009887 94.6299435,80.6384181 C87.539548,89.4477401 83.4576271,100.834746 84.5310734,112.867232 L77.6553672,107.710452 L77.6553672,107.710452 Z" id="Shape" fill="#003663"></path>
                <path d="M101.074859,129.625706 C98.0663842,128.981638 93.3389831,126.617232 90.1172316,119.742938 C86.8940678,112.867232 82.3813559,104.272599 68.200565,103.412429 C70.1341808,100.834746 73.5720339,97.3968927 77.009887,95.4632768 C66.9110169,98.9011299 57.2429379,104.487288 53.5903955,110.932203 L60.8954802,109.642655 C59.6059322,112.865819 55.9533898,126.186441 64.9788136,133.276836 C73.3573446,132.201977 87.3234463,133.707627 93.769774,140.368644 L91.190678,132.632768 L97.2062147,132.632768 L101.074859,129.625706 L101.074859,129.625706 Z" id="Shape" fill="#FFFFFF"></path>
                <path d="M53.5918079,110.933616 C58.9632768,104.918079 78.5155367,106.889831 86.8940678,121.461864 C91.8361582,130.056497 100.216102,137.79096 101.504237,119.742938 C103.008475,129.196328 102.362994,136.930791 93.9844633,135.426554 C94.1991525,136.285311 94.1991525,138.864407 93.769774,140.368644 C89.4731638,135.426554 82.8121469,128.550847 66.0522599,130.484463 C62.829096,127.04661 60.4661017,120.170904 63.0451977,111.362994 C59.8220339,110.933616 57.4590395,110.718927 53.5918079,110.933616 L53.5918079,110.933616 Z" id="Shape" fill="#003663"></path>
                <path d="M88.8276836,131.560734 C85.9392655,126.425141 83.1680791,122.737288 80.5960452,120.077684 C80.8926554,123.75565 80.180791,126.190678 79.1440678,128.066384 C83.0042373,129.016949 86.4110169,130.409605 88.8276836,131.560734 L88.8276836,131.560734 Z" id="Shape" fill="#C29A02"></path>
                <path d="M76.1723164,116.300847 C72.1666667,113.59322 68.9265537,113.29661 66.9124294,113.29661 C65.6228814,118.45339 66.2669492,123.180791 68.4166667,127.048023 C70.4519774,126.882768 72.4858757,126.960452 74.4632768,127.19774 C74.0338983,123.584746 75.0480226,119.409605 76.1723164,116.300847 L76.1723164,116.300847 Z" id="Shape" fill="#C29A02"></path>
                <path d="M77.8700565,122.105932 C77.8700565,123.768362 76.5225989,125.114407 74.8615819,125.114407 C73.200565,125.114407 71.8531073,123.768362 71.8531073,122.105932 C71.8531073,120.444915 73.200565,119.09887 74.8615819,119.09887 C76.5225989,119.09887 77.8700565,120.444915 77.8700565,122.105932 L77.8700565,122.105932 Z" id="Shape" fill="#FFFFFF"></path>
                <path d="M149.225989,108.20339 C148.591808,100.466102 140.872881,86.4915254 132.285311,81.1115819 C139.364407,89.9293785 143.433616,101.322034 142.346045,113.351695 L149.225989,108.20339 L149.225989,108.20339 Z" id="Shape" fill="#003663"></path>
                <path d="M122.461864,129.40678 C125.518362,129.056497 130.450565,127.161017 134.323446,120.629944 C138.196328,114.097458 143.518362,105.978814 157.714689,106.495763 C156.039548,103.742938 152.950565,99.9887006 149.717514,97.730226 C159.436441,102.129944 168.518362,108.624294 171.529661,115.392655 L164.384181,113.402542 C165.355932,116.734463 167.700565,130.346045 158.033898,136.531073 C149.799435,134.65113 135.752825,134.798023 128.693503,140.803672 L132.007062,133.35452 L126.021186,132.774011 L122.461864,129.40678 L122.461864,129.40678 Z" id="Shape" fill="#FFFFFF"></path>
                <path d="M171.529661,115.394068 C166.765537,108.887006 147.112994,108.95904 137.365819,122.65113 C131.614407,130.727401 122.526836,137.615819 122.990113,119.528249 C120.576271,128.792373 120.471751,136.553672 128.957627,135.865819 C128.659605,136.700565 128.411017,139.265537 128.69209,140.805085 C133.44774,136.30226 140.741525,130.103107 157.235876,133.649718 C160.775424,130.539548 163.79096,123.923729 162.077684,114.90678 C165.329096,114.79096 167.700565,114.805085 171.529661,115.394068 L171.529661,115.394068 Z" id="Shape" fill="#003663"></path>
                <path d="M134.464689,132.514124 C137.836158,127.683616 140.950565,124.281073 143.766949,121.882768 C143.115819,125.514124 143.590395,128.008475 144.440678,129.974576 C140.507062,130.54661 136.980226,131.60452 134.464689,132.514124 L134.464689,132.514124 Z" id="Shape" fill="#C29A02"></path>
                <path d="M148.533898,118.55226 C152.785311,116.245763 156.036723,116.262712 158.042373,116.45904 C158.826271,121.716102 157.727401,126.357345 155.214689,130 C153.206215,129.638418 151.173729,129.518362 149.182203,129.563559 C149.960452,126.007062 149.355932,121.754237 148.533898,118.55226 L148.533898,118.55226 Z" id="Shape" fill="#C29A02"></path>
                <path d="M144.19774,122.107345 C143.954802,122.083333 143.720339,122.097458 143.488701,122.131356 C142.675141,122.838983 141.833333,123.634181 140.970339,124.519774 C140.95339,124.615819 140.923729,124.70904 140.915254,124.809322 C140.75565,126.463277 141.963277,127.933616 143.618644,128.094633 C145.271186,128.25565 146.741525,127.045198 146.90113,125.392655 C147.060734,123.738701 145.853107,122.268362 144.19774,122.107345 L144.19774,122.107345 Z" id="Shape" fill="#FFFFFF"></path>
                <path d="M91.7429379,174.033898 C93.6144068,176.074859 98.0381356,179.648305 101.526836,181.009887 C99.9957627,183.475989 97.6129944,188.497175 97.6991525,193.344633 C93.4449153,189.347458 91.9124294,182.115819 91.7429379,174.033898 L91.7429379,174.033898 Z" id="Shape" fill="#FFFFFF"></path>
                <path d="M103.483051,202.535311 C103.908192,206.789548 103.908192,212.063559 107.567797,215.127119 C104.334746,215.211864 102.292373,215.211864 99.9110169,212.233051 C98.3460452,210.279661 100.846045,205.512712 103.483051,202.535311 L103.483051,202.535311 Z" id="Shape" fill="#FFFFFF"></path>
                <path d="M133.772599,174.45904 C131.871469,176.477401 127.402542,179.991525 123.896893,181.306497 C125.39548,183.793785 127.70904,188.844633 127.560734,193.69209 C131.865819,189.748588 133.49435,182.538136 133.772599,174.45904 L133.772599,174.45904 Z" id="Shape" fill="#FFFFFF"></path>
                <path d="M121.653955,202.80226 C121.170904,207.049435 121.09887,212.323446 117.402542,215.337571 C120.635593,215.466102 122.676554,215.492938 125.09887,212.54661 C126.685028,210.614407 124.252825,205.814972 121.653955,202.80226 L121.653955,202.80226 Z" id="Shape" fill="#FFFFFF"></path>
                <path d="M101.525424,188.326271 C102.971751,187.391243 106.29096,185.774011 109.608757,187.90113 C110.545198,190.19774 111.819209,194.025424 112.501412,195.813559 C113.607345,193.00565 114.970339,189.687853 115.564972,188.326271 C117.605932,187.049435 120.922316,186.199153 123.730226,188.497175 C122.538136,193.855932 122.285311,202.193503 112.586158,201.768362 C102.888418,201.34322 102.888418,195.898305 101.525424,188.326271 L101.525424,188.326271 Z" id="Shape" fill="#8E0B34"></path>
                <path d="M49.509887,105.347458 C46.5451977,103.138418 43.2782486,99.5466102 41.1271186,97.4237288 C38.3079096,98.6567797 36.5550847,100.338983 35.2259887,102.247175 C39.3121469,102.114407 43.2782486,102.984463 49.509887,105.347458 L49.509887,105.347458 Z" id="Shape" fill="#003663"></path>
                <path d="M57.5,126.984463 C53.5240113,121.745763 45.2471751,116.635593 33.6214689,117.686441 C31.2062147,120.216102 28.7669492,123.819209 27.4011299,127.661017 C33.2669492,124.556497 41.4985876,121.286723 57.5,126.984463 L57.5,126.984463 Z" id="Shape" fill="#003663"></path>
                <path d="M176.275424,105.132768 C179.282486,102.984463 183.149718,100.190678 185.728814,98.9011299 C188.521186,100.190678 190.241525,101.909605 191.529661,103.84322 C187.44774,103.628531 183.149718,103.199153 176.275424,105.132768 L176.275424,105.132768 Z" id="Shape" fill="#003663"></path>
                <path d="M168.75565,128.122881 C172.838983,122.966102 181.216102,118.024011 192.819209,119.313559 C195.183616,121.891243 197.548023,125.545198 198.836158,129.412429 C193.033898,126.189266 184.868644,122.751412 168.75565,128.122881 L168.75565,128.122881 Z" id="Shape" fill="#003663"></path>
            </g>
        </g>
    </g>
</svg>