<?xml version="1.0" encoding="UTF-8" standalone="no"?>
<svg width="250px" height="250px" viewBox="0 0 250 250" version="1.1" xmlns="http://www.w3.org/2000/svg" xmlns:xlink="http://www.w3.org/1999/xlink">
    <!-- Generator: Sketch 47.1 (45422) - http://www.bohemiancoding.com/sketch -->
    <title>MTSU</title>
    <desc>Created with Sketch.</desc>
    <defs></defs>
    <g id="Page-1" stroke="none" stroke-width="1" fill="none" fill-rule="evenodd">
        <g id="MTSU" fill-rule="nonzero">
            <g id="Middle_Tennessee_Athletics_logo" transform="translate(0.000000, 44.000000)">
                <path d="M137.545597,116.805031 L142.700943,94.9575472 L151.120755,94.9575472 L145.151887,116.805031 L137.545755,116.805031 L137.545597,116.805031 Z M157.867925,39.9025157 L169.055031,0.298742138 L114.559748,0.298742138 L94.3569182,24.4166667 L89.3136792,0.298742138 L34.1784591,0.298742138 L22.2130503,47.3820755 L29.2295597,47.3820755 L20.6308176,80.1415094 L11.6468553,80.1415094 L1.27342767,124.042453 L64.4998428,124.042453 L72.3083333,90.995283 L80.4039308,90.995283 L72.5933962,124.042453 L135.079245,124.042453 L125.267925,161.108491 L191.833962,161.108491 L203.563522,116.803459 L195.033648,116.803459 L201.218868,94.1619497 L234.850943,94.1619497 L248.913522,39.9009434 L157.866352,39.9009434 L157.867925,39.9025157 Z" id="Shape" fill="#000000"></path>
                <polygon id="Shape" fill="#FFFFFF" points="143.621069 45.5157233 144.676494 41.7795597 151.506368 41.7795597 161.641903 5.90849057 117.16706 5.90849057 91.2299528 36.8849057 84.7538522 5.90849057 38.5337264 5.90849057 29.4202044 41.7795597 36.4897013 41.7795597 24.9527516 85.7559748 16.0750786 85.7559748 8.35306604 118.441509 60.0606132 118.441509 67.7826258 85.7559748 60.7897013 85.7559748 64.4335692 71.8742138 69.6497642 85.4216981 87.4925314 85.4216981 99.5661164 73.075 95.9595126 85.7558176 87.4000786 85.7558176 79.673978 118.441352 131.389387 118.441352 138.252594 89.3548742 158.455425 89.3548742 149.424292 122.417767 141.30511 122.417767 132.549135 155.508962 187.516116 155.508962 196.279953 122.417767 187.691116 122.417767 196.938286 88.5639937 230.510613 88.5639937 241.664387 45.5168239 143.621934 45.5168239"></polygon>
                <path d="M42.7421384,11.2910377 L36.3638365,36.3900943 L43.4915094,36.3900943 L29.1256289,91.1353774 L20.3580189,91.1353774 L15.1773585,113.052044 L55.8188679,113.052044 L60.9965409,91.1353774 L53.8289308,91.1353774 L60.833805,64.4451258 L67.3687107,64.4451258 L73.3693396,80.0240566 L85.2569182,80.0240566 L102.439308,62.4517296 L108.206604,62.4548742 L100.050157,91.1341195 L91.681761,91.1341195 L86.5011006,113.050786 L127.148899,113.050786 L132.32044,91.1341195 L125.15283,91.1341195 L140.624214,36.3888365 L147.454088,36.3888365 L154.544969,11.2897799 L119.705346,11.2897799 L88.2477987,48.852673 L80.3987421,11.2913522 L42.7462264,11.2913522 L42.7421384,11.2910377 Z M142.677673,50.8963836 L134.315409,83.9639937 L155.035535,83.9639937 L157.446226,73.1204403 L168.49544,73.1204403 L153.558333,127.791824 L145.469497,127.791824 L139.563994,150.114151 L183.389465,150.114151 L189.297956,127.791824 L180.653302,127.791824 L195.648742,72.9050314 L207.628459,72.9050314 L205.24544,83.1680818 L226.361792,83.1680818 L234.724057,50.8960692 L142.678459,50.8960692 L142.677673,50.8963836 Z" id="Shape" fill="#0066CC"></path>
            </g>
        </g>
    </g>
</svg>