<?xml version="1.0" encoding="UTF-8" standalone="no"?>
<svg width="250px" height="250px" viewBox="0 0 250 250" version="1.1" xmlns="http://www.w3.org/2000/svg" xmlns:xlink="http://www.w3.org/1999/xlink">
    <!-- Generator: Sketch 47.1 (45422) - http://www.bohemiancoding.com/sketch -->
    <title>EKY</title>
    <desc>Created with Sketch.</desc>
    <defs></defs>
    <g id="Page-1" stroke="none" stroke-width="1" fill="none" fill-rule="evenodd">
        <g id="EKY" fill-rule="nonzero" fill="#4C151E">
            <path d="M249.997857,222.99938 L89.5649441,222.673465 C90.2533028,218.900036 89.5319689,214.713533 87.4138027,210.310167 L24.2208274,79.8697269 C22.8812073,77.1041979 21.1069731,74.6716063 18.9204656,72.4926421 L177.646908,72.4926421 L199.364418,106.132545 C197.892897,105.690556 173.41783,98.2230082 151.987205,98.7909847 L95.5871345,98.2230082 L114.200023,137.184128 L162.702518,137.184128 L176.237215,161.468322 L126.040617,162.029814 L144.660101,200.426261 L188.649106,200.991016 C206.575285,200.991016 225.045555,195.345123 234.896916,189.702535 L250,223 L249.997857,222.99938 Z M10.9230568,46.5920896 L0,27 L183.070433,44.1070377 L10.9230568,46.5919244 L10.9230568,46.5920896 Z" id="Shape" transform="translate(125.000000, 125.000000) scale(-1, 1) rotate(-180.000000) translate(-125.000000, -125.000000) "></path>
        </g>
    </g>
</svg>