<?xml version="1.0" encoding="UTF-8" standalone="no"?>
<svg width="250px" height="250px" viewBox="0 0 250 250" version="1.1" xmlns="http://www.w3.org/2000/svg" xmlns:xlink="http://www.w3.org/1999/xlink">
    <!-- Generator: Sketch 47.1 (45422) - http://www.bohemiancoding.com/sketch -->
    <title>WAGNER</title>
    <desc>Created with Sketch.</desc>
    <defs></defs>
    <g id="Page-1" stroke="none" stroke-width="1" fill="none" fill-rule="evenodd">
        <g id="WAGNER" fill-rule="nonzero">
            <g id="Asset-1" transform="translate(0.000000, 62.000000)">
                <path d="M138.943662,13.3702778 L78.415493,13.3702778 C104.507042,16.0161111 119.225352,26.9169444 121.126761,28.3986111 L98.3098592,28.3986111 C98.3098592,28.3986111 122.570423,35.8422222 129.084507,40.7105556 C87.8169014,29.5980556 63.3802817,50.9763889 63.3802817,50.9763889 C105.950704,49.3536111 140.84507,68.6152778 158.732394,92.1102778 C153.802817,79.8336111 144.366197,65.2638889 119.15493,53.8338889 C119.15493,53.8338889 147.992958,59.9369444 167.78169,76.6938889 C163.856672,68.3261106 157.57873,61.2884 149.71831,56.4444444 C149.71831,56.4444444 176.267606,61.0305556 190.140845,84.6666667 C195.729991,83.8261839 201.094043,81.8708448 205.915493,78.9163889 C199.565002,77.8274661 193.544732,75.3062399 188.309859,71.5433333 C197.21831,73.5188889 202.394366,69.2855556 202.394366,68.8622222 C187.464789,43.0388889 149.577465,31.1502778 148.485915,30.9738889 C196.161972,30.2683333 216.830986,52.5991667 224.683099,65.2638889 C224.683099,65.2638889 224.471831,66.4633333 222.323944,66.6397222 C222.980321,68.0167325 224.325601,68.9332514 225.84507,69.0386111 C227.334904,69.0977339 228.78257,68.5356101 229.843519,67.4860279 C230.904467,66.4364457 231.483811,64.993276 231.443662,63.5 C231.443662,59.6547222 214.507042,13.335 138.943662,13.335" id="Shape" fill="#FFFFFF"></path>
                <path d="M196.338028,48.9655556 C200.115612,53.134487 202.90768,58.1021804 204.507042,63.5 C208.42896,65.4590453 212.820315,66.277869 217.183099,65.8636111 C211.93662,55.9505556 196.338028,49.0008333 196.338028,49.0008333" id="Shape" fill="#FFFFFF"></path>
                <path d="M226.408451,83.4319444 C226.408451,83.4319444 229.190141,83.4319444 229.929577,85.5133333 C231.762701,82.9631409 232.020855,79.6008021 230.598592,76.7997222 C230.754855,79.6385336 229.143032,82.2784908 226.549296,83.4319444" id="Shape" fill="#FFFFFF"></path>
                <path d="M211.760563,120.261944 C214.611634,113.710128 215.913092,106.586885 215.56338,99.4480556 C189.71831,90.0288889 165.739437,115.358333 165.739437,115.358333 C123.838028,40.9222222 42.5,59.69 42.5,59.69 C56.1971831,38.0294444 72.6056338,34.29 72.6056338,34.29 C60.7394366,25.8586111 38.6971831,23.7066667 38.6971831,23.7066667 L88.028169,23.7066667 C67.1830986,10.8655556 34.8943662,6.31472222 34.8943662,6.31472222 L139.859155,6.31472222 C235.176056,6.31472222 244.964789,79.0927778 244.964789,79.0927778 C244.964789,79.0927778 239.753521,110.842778 211.760563,120.261944 M139.859155,3.52777778 L0,3.52777778 C50.0704225,8.67833333 76.584507,20.8844444 76.584507,20.8844444 L12.0070423,20.8844444 C51.3028169,25.7880556 66.3380282,33.7608333 66.3380282,33.7608333 C48.7323944,41.3455556 36.6901408,63.9233333 36.6901408,63.9233333 C36.6901408,63.9233333 121.725352,39.7933333 165.140845,119.944444 C165.140845,119.944444 187.711268,93.98 212.887324,101.423611 C212.887324,101.423611 213.697183,108.867222 207.007042,124.7775 C207.007042,124.7775 240.387324,118.356944 247.711268,78.6341667 C247.711268,78.6341667 237.5,3.45722222 139.859155,3.45722222" id="Shape" fill="#A9A8A9"></path>
                <path d="M230.457746,76.7997222 C231.88001,79.6008021 231.621856,82.9631409 229.788732,85.5133333 C229.190141,83.3613889 226.267606,83.4319444 226.267606,83.4319444 C228.861342,82.2784908 230.473164,79.6385336 230.316901,76.7997222 M224.401408,93.2038889 C224.954312,95.2495747 225.074248,97.3884744 224.753521,99.4833333 C224.753521,99.4833333 239.15493,86.36 230.774648,71.2611111 C224.964789,81.8444444 212.253521,81.5975 198.732394,87.3125 C207.600051,87.4718694 216.33915,89.4656013 224.401408,93.1686111" id="Shape" fill="#A9A8A9"></path>
                <path d="M224.894366,99.4833333 C225.215094,97.3884744 225.095157,95.2495747 224.542254,93.2038889 C216.479995,89.5008791 207.740896,87.5071472 198.873239,87.3477778 C212.394366,81.6327778 225.105634,81.7386111 230.915493,71.2963889 C239.295775,86.36 224.894366,99.5186111 224.894366,99.5186111 M217.183099,65.8636111 C212.820315,66.277869 208.42896,65.4590453 204.507042,63.5 C202.902853,58.1147201 200.111046,53.159547 196.338028,49.0008333 C196.338028,49.0008333 211.93662,56.0563889 217.183099,65.8636111 M149.71831,56.4444444 C157.583891,61.297835 163.862353,68.34839 167.78169,76.7291667 C147.887324,59.9722222 119.15493,53.8338889 119.15493,53.8338889 C144.366197,65.2638889 153.802817,79.8336111 158.626761,92.1102778 C140.56338,68.7211111 105.84507,49.3888889 63.3802817,50.9763889 C63.3802817,50.9763889 88.028169,29.5980556 129.190141,40.7105556 C122.676056,35.8422222 98.415493,28.3986111 98.415493,28.3986111 L121.126761,28.3986111 C119.225352,26.9169444 104.507042,16.0161111 78.415493,13.3702778 L138.943662,13.3702778 C214.507042,13.3702778 231.443662,59.69 231.443662,63.5 C231.464132,64.9811511 230.876125,66.4056369 229.817435,67.4396423 C228.758745,68.4736477 227.322428,69.0262875 225.84507,68.9680556 C224.325601,68.8626959 222.980321,67.946177 222.323944,66.5691667 C224.471831,66.3927778 224.683099,65.1933333 224.683099,65.1933333 C216.830986,52.5286111 196.161972,30.1977778 148.485915,30.9033333 C149.647887,31.0797222 187.464789,42.9683333 202.394366,68.7916667 C202.394366,69.215 197.359155,73.4483333 188.309859,71.4727778 C193.544732,75.2356844 199.565002,77.7569105 205.915493,78.8458333 C201.09948,81.825069 195.735117,83.804515 190.140845,84.6666667 C176.302817,61.0658333 149.753521,56.4444444 149.753521,56.4444444 M244.823944,79.1280556 C244.823944,79.1280556 235.176056,6.31472222 139.859155,6.31472222 L34.8943662,6.31472222 C34.8943662,6.31472222 67.1830986,10.8655556 88.028169,23.6713889 L38.7323944,23.6713889 C38.7323944,23.6713889 60.7746479,25.8233333 72.6408451,34.2547222 C72.6408451,34.2547222 56.2323944,37.9941667 42.5352113,59.6547222 C42.5352113,59.6547222 123.732394,40.8869444 165.774648,115.323056 C165.774648,115.323056 189.753521,89.9936111 215.598592,99.4127778 C215.948303,106.551607 214.646845,113.67485 211.795775,120.226667 C239.964789,110.631111 245,79.0575 245,79.0575" id="Shape" fill="#044437"></path>
                <polygon id="Shape" fill="#044437" points="174.401408 120.015 174.401408 116.099167 175.774648 116.099167 175.774648 115.640556 172.640845 115.640556 172.640845 116.099167 173.943662 116.099167 173.943662 120.015"></polygon>
                <polygon id="Shape" fill="#044437" points="180.140845 120.015 180.140845 115.640556 179.366197 115.640556 178.274648 119.203611 177.147887 115.640556 176.373239 115.640556 176.373239 120.015 176.866197 120.015 176.866197 116.310833 178.028169 120.015 178.485915 120.015 179.647887 116.310833 179.647887 120.015"></polygon>
            </g>
        </g>
    </g>
</svg>