<?xml version="1.0" encoding="UTF-8" standalone="no"?>
<svg width="250px" height="250px" viewBox="0 0 250 250" version="1.1" xmlns="http://www.w3.org/2000/svg" xmlns:xlink="http://www.w3.org/1999/xlink">
    <!-- Generator: Sketch 47.1 (45422) - http://www.bohemiancoding.com/sketch -->
    <title>PEAY</title>
    <desc>Created with Sketch.</desc>
    <defs></defs>
    <g id="Page-1" stroke="none" stroke-width="1" fill="none" fill-rule="evenodd">
        <g id="PEAY" fill-rule="nonzero">
            <g id="Group" transform="translate(13.000000, 0.000000)">
                <path d="M169.086859,109.738268 C185.585533,119.389447 204.595732,123.920725 223.690153,122.75353 C223.690153,122.75353 193.414617,220.32342 111.845077,249.919769 C30.3202567,220.189702 0.0447201426,122.619812 0.0447201426,122.619812 C19.14488,123.787213 38.1593398,119.239398 54.6480143,109.559977 L53.0380891,107.286764 L55.8554581,102.829482 C55.8554581,102.829482 56.123779,102.383754 56.4815401,101.626016 C42.349975,93.8703466 41.5450125,84.0643275 42.4841355,78.5818713 C44.2826331,68.0662077 53.5640429,60.4679879 64.2628449,60.7527457 C64.4864456,58.033804 64.6206061,55.2702895 64.6206061,52.5067751 C64.6898205,41.5840421 62.7653533,30.7398273 58.941148,20.5034945 C57.45803,16.7515382 58.6867081,12.4744712 61.9373975,10.073456 C75.1298396,0.312009699 110.324592,0 111.800357,0 C113.276121,0 148.470873,0 161.663316,9.98431037 C164.90958,12.3673274 166.154951,16.620497 164.704285,20.3697761 C160.884349,30.6227344 158.960109,41.4807688 159.024827,52.4176294 C159.024827,55.0028527 159.024827,57.7217943 159.427308,60.6636001 C170.176379,60.3109319 179.534885,67.9253606 181.340178,78.4927257 C182.324021,84.0197547 181.340178,93.8257738 167.387494,101.581443 C167.573007,102.008613 167.782019,102.425259 168.013576,102.829482 L170.696784,107.286764 L169.086859,109.871987" id="Shape" fill="#A2A9AD"></path>
                <path d="M157.906824,110.317715 C157.459622,109.871987 157.012421,109.426259 156.520499,109.025103 L162.602439,105.949579 C161.317088,103.479973 160.398198,100.837486 159.87451,98.1047639 C167.074453,95.0738126 177.002324,89.1902011 175.347679,79.4287548 C173.693034,69.6673085 164.972606,65.4328912 154.105611,67.394095 C153.337422,62.4379465 152.933865,57.432445 152.898168,52.4176294 C152.76643,40.7339172 154.751005,29.1223864 158.756506,18.1411354 C159.207923,17.0331685 158.838023,15.7612203 157.862103,15.0656112 C148.336713,7.93396092 121.191586,6.15104835 111.800357,6.15104835 C102.409127,6.15104835 75.3087201,7.71109685 65.7386096,15.0656112 C64.8021887,15.7885331 64.4408213,17.0311431 64.8442068,18.1411354 C68.9312111,29.1223959 70.991692,40.7499206 70.9261462,52.4622023 C70.9327634,57.4884773 70.5740635,62.5086275 69.8528627,67.4832406 C58.9858681,65.477464 50.3996007,70.2021823 48.7449554,79.4733276 C47.0903102,88.744473 57.0181818,95.1183854 64.2181248,98.1493368 C63.6902832,100.866745 62.7714917,103.493938 61.4901961,105.949579 L67.5721355,109.025103 C67.2227244,109.313904 66.8939769,109.626674 66.5882923,109.961133 C51.6517647,119.321423 35.6419537,129.08287 9.48067023,129.08287 C27.4581676,176.018043 64.9783672,226.296177 111.845077,243.322992 C158.711786,226.296177 196.231986,176.018043 214.433084,129.08287 C188.540121,129.08287 172.61975,119.58886 157.906824,110.317715" id="Shape" fill="#010101"></path>
                <path d="M123.472314,99.5756668 C123.472314,99.8431037 123.472314,100.065968 123.472314,100.333405 C123.472314,105.256782 127.476692,109.247967 132.416342,109.247967 C137.355993,109.247967 141.360371,105.256782 141.360371,100.333405 C141.382598,97.6017837 140.206476,94.9967888 138.14052,93.2017544 C135.714728,93.9790467 133.422424,95.1214226 131.343059,96.5892883 C129.019018,98.2705615 126.286087,99.3016529 123.427594,99.5756668" id="Shape" fill="#FEFEFE"></path>
                <path d="M111.800357,94.2269291 C109.385469,94.2269291 107.328342,102.517473 106.65754,105.682142 C106.659389,105.814055 106.564452,105.927605 106.433939,105.949579 C106.332376,105.983554 106.222462,105.983554 106.120898,105.949579 C104.928372,104.366692 103.992749,102.606898 103.34825,100.73456 L99.412877,99.1745115 C98.5409239,100.807294 96.79323,101.782778 94.9408627,101.670589 C90.9904102,101.17435 87.2735525,99.5312996 84.2527487,96.9458708 C84.1888408,96.8355438 84.1888408,96.6996153 84.2527487,96.5892883 C84.3462842,96.5223338 84.4722542,96.5223338 84.5657897,96.5892883 L90.1110873,97.4807445 C90.0430275,96.6501013 90.0430275,95.8153101 90.1110873,94.984667 C88.7937858,94.4280856 87.3825204,94.1255876 85.9521141,94.0932107 C84.1836011,94.0315424 82.4736166,94.7295147 81.2564991,96.0098417 C78.4950771,99.884925 77.4003749,104.698583 78.2155294,109.381686 C78.2349204,109.469784 78.2349204,109.561025 78.2155294,109.649123 C78.1154575,109.691226 78.0025603,109.691226 77.9024884,109.649123 C75.2315658,108.281974 73.3127657,105.797386 72.6702317,102.874055 C72.1783102,106.083298 71.7311087,114.017259 78.6180107,116.245899 C78.7485229,116.267874 78.8434605,116.381424 78.8416114,116.513336 C78.8416114,116.513336 78.8416114,118.47454 78.8416114,120.970618 C83.385911,120.792083 87.8581995,119.779689 92.0340535,117.984239 C95.1082405,116.471914 98.3721161,115.377545 101.738324,114.730424 C102.592834,113.181788 103.730393,111.806097 105.092335,110.674298 C105.19419,110.583496 105.348241,110.583496 105.450096,110.674298 C105.498171,110.772782 105.498171,110.887823 105.450096,110.986307 C105.450096,110.986307 105.002895,113.88354 104.958175,115.042433 L111.755636,116.959064 L118.553098,115.042433 C115.646289,96.9458708 112.96308,94.2269291 111.621476,94.2269291" id="Shape" fill="#FEFEFE"></path>
                <path d="M105.047615,140.270646 C103.624413,140.282375 102.220708,140.60173 100.933362,141.206675 C100.839826,141.27363 100.713856,141.27363 100.620321,141.206675 C100.57239,141.12393 100.57239,141.021984 100.620321,140.939238 C100.620321,140.939238 100.933362,136.481957 112.068677,136.481957 C121.996549,136.481957 122.26487,135.367637 122.622631,133.718442 L122.622631,133.718442 L120.967986,133.718442 C117.876169,133.797302 114.810046,133.140258 112.023957,131.801811 C109.499396,133.470477 106.508689,134.297625 103.48241,134.164171 C98.160713,134.164171 96.595508,135.768792 96.595508,135.768792 C96.595508,135.768792 96.595508,135.768792 96.3719073,135.768792 C95.7924666,135.084106 95.4202394,134.249354 95.2986239,133.36186 C90.3607483,134.078827 85.344692,134.078827 80.4068164,133.36186 C82.067508,137.822376 85.0455962,141.676473 88.9483636,144.415918 C88.9012289,142.592854 89.3493228,140.790983 90.2452478,139.200899 C90.3282665,139.153126 90.4305499,139.153126 90.5135686,139.200899 L90.5135686,139.200899 C90.5135686,139.200899 90.5135686,139.200899 90.5135686,139.200899 C91.8860727,144.994818 94.7357215,150.337579 98.786795,154.712238 C100.485766,156.393734 102.746154,157.393279 105.137055,157.520325 C109.117148,157.520325 111.666196,154.088219 111.666196,148.828626 C111.666196,141.429539 107.551943,140.315219 105.092335,140.315219" id="Shape" fill="#FEFEFE"></path>
                <path d="M121.102146,140.716374 C119.205585,140.361285 117.244663,140.627092 115.512128,141.474112 C114.958909,143.969812 114.958909,146.555791 115.512128,149.051491 C116.037482,146.854582 117.557983,145.026109 119.626381,144.103908 C124.098396,142.54386 124.098396,141.741549 124.098396,141.652403 C124.098396,141.563258 124.098396,141.072957 121.236307,140.716374" id="Shape" fill="#FEFEFE"></path>
                <path d="M153.300649,98.9516474 C153.196437,101.384292 152.729201,103.787891 151.914324,106.083298 C150.751601,108.267366 149.633597,111.565754 150.61744,112.902938 C150.61744,112.902938 157.951544,111.432035 153.300649,98.9516474" id="Shape" fill="#FEFEFE"></path>
                <path d="M79.646574,90.8839681 C79.646574,90.8839681 84.6999501,87.5855798 94.0017398,92.9343175 C103.303529,98.2830552 106.433939,95.0292398 106.433939,95.0292398 C106.433939,95.0292398 90.2005276,81.2562402 79.6018538,90.8839681" id="Shape" fill="#FEFEFE"></path>
                <path d="M127.899608,108.49023 L139.034923,97.3915989 C138.715425,96.6258224 138.294279,95.9062371 137.782759,95.2521038 L125.887201,106.841036 C126.48415,107.474636 127.160521,108.028931 127.899608,108.49023" id="Shape" fill="#A2A9AD"></path>
                <path d="M139.795166,100.600842 L130.851137,109.515404 C131.430619,109.58131 132.015741,109.58131 132.595223,109.515404 L133.042424,109.515404 L139.661005,102.829482 C139.705008,102.250866 139.705008,101.669759 139.661005,101.091142 C139.661005,101.091142 139.661005,100.689987 139.661005,100.467123" id="Shape" fill="#A2A9AD"></path>
                <path d="M144.22246,90.8839681 C144.22246,90.8839681 139.124364,87.5855798 129.867294,92.9343175 C120.610225,98.2830552 117.435094,95.0292398 117.435094,95.0292398 C117.435094,95.0292398 133.668506,81.2562402 144.26718,90.8839681" id="Shape" fill="#FEFEFE"></path>
                <path d="M88.3222816,16.9822422 C84.3812495,17.4844084 80.5008826,18.3803736 76.7397647,19.656611 C76.7397647,19.656611 83.090025,30.9781058 81.4800998,57.9000856 C83.7826556,57.8036462 86.0722222,57.5053424 88.3222816,57.0086293 L88.3222816,16.8930966" id="Shape" fill="#FFFFFF"></path>
                <path d="M104.287373,117.895093 C100.318497,118.104381 96.4223489,119.041212 92.7942959,120.658608 C86.7465501,123.354803 79.9895232,124.042343 73.5199144,122.619812 C70.333556,121.76664 68.0707164,118.95192 67.9298966,115.666453 C67.9078092,115.354831 67.9078092,115.042045 67.9298966,114.730424 C66.8426492,115.95722 66.2667428,117.55169 66.3199715,119.187705 C66.3381511,120.835425 66.9582022,122.420062 68.064057,123.644986 C69.9317744,125.639591 72.2453887,127.166738 74.8167986,128.102268 C78.9652123,129.691574 83.3876207,130.448935 87.8303601,130.330909 C99.725918,130.330909 110.548193,126.23021 110.548193,121.728355 C110.548193,121.728355 110.279872,117.805948 104.376813,117.805948" id="Shape" fill="#FEFEFE"></path>
                <path d="M156.475779,114.908715 C156.497866,115.220336 156.497866,115.533123 156.475779,115.844744 C156.326984,119.112574 154.090999,121.91632 150.930481,122.798103 C148.835025,123.294253 146.68926,123.548504 144.535501,123.555841 C140.110612,123.418137 135.753448,122.434574 131.70082,120.658608 C128.029267,118.958314 124.069989,117.960415 120.028863,117.716802 C114.125804,117.716802 113.857483,121.505491 113.857483,121.683783 C113.857483,123.823278 116.406531,126.141064 120.878545,127.65654 C125.922324,129.413074 131.232711,130.287683 136.575316,130.241763 C141.013083,130.345687 145.429969,129.604401 149.588877,128.057695 C152.152095,127.106057 154.462218,125.581214 156.341619,123.600414 C157.447473,122.375489 158.067525,120.790852 158.085704,119.143132 C158.117037,117.510637 157.543904,115.923846 156.475779,114.685851" id="Shape" fill="#FEFEFE"></path>
                <path d="M111.889797,87.6747254 C124.165052,87.7538168 136.254292,84.6839029 146.995109,78.7601626 C163.22852,69.5781629 168.907979,76.1303666 168.997419,76.1303666 C169.086859,76.1303666 163.944043,64.273998 142.880856,76.7098132 C133.296301,81.6058199 122.60664,83.9547103 111.845077,83.5294537 C101.106349,83.9745148 90.4334959,81.6566338 80.8540178,76.7989588 C59.7461105,64.6305805 54.871615,76.3532306 54.6927344,76.3532306 C54.5138538,76.3532306 60.4616328,69.8901726 76.6950446,78.8493082 C87.5624077,84.4997257 99.6326669,87.4653113 111.889797,87.4964342" id="Shape" fill="#A2A9AD"></path>
                <path d="M138.766602,67.6615319 L143.864699,62.7139495 C139.169084,62.3127942 127.407686,61.5104835 111.934517,61.5104835 L111.934517,61.5104835 C96.4613476,61.5104835 84.6999501,62.3127942 80.0043351,62.7139495 L85.1024314,67.4832406 L77.5000071,69.4444444 L77.5000071,69.4444444 C78.5732906,69.9793182 79.6912941,70.6033376 80.898738,71.3165026 C90.4495049,76.2614147 101.137964,78.6134302 111.889797,78.1361432 C122.614666,78.7222851 133.304838,76.4775186 142.880856,71.6285123 L146.324307,69.7118813 L138.766602,67.7952503" id="Shape" fill="#CE1041"></path>
                <path d="M101.022802,183.060548 C91.8987082,179.099022 83.4849394,173.678954 76.1136827,167.014335 C82.5469068,181.035305 93.0246219,192.828514 106.210339,200.889673 L107.820264,193.267722 C104.746015,190.474884 102.411109,186.968753 101.022802,183.060548" id="Shape" fill="#FEFEFE"></path>
                <path d="M122.667351,183.060548 C131.805718,179.100454 140.234437,173.680485 147.621191,167.014335 C141.141195,181.032688 130.636453,192.821284 117.435094,200.889673 L115.825169,193.267722 C118.915706,190.479936 121.266263,186.973373 122.667351,183.060548" id="Shape" fill="#FEFEFE"></path>
                <path d="M116.943173,165.543432 L111.845077,174.457995 L106.791701,165.543432 C95.1767448,161.282105 85.0387051,153.777127 77.5894474,143.925617 L78.0366488,152.21616 C78.0366488,152.21616 78.8863316,165.944587 106.299779,177.979247 C108.157366,177.627506 110.043709,177.448446 111.934517,177.444373 C113.779454,177.434518 115.621189,177.598684 117.435094,177.934674 C144.848542,165.900014 145.698225,152.21616 145.698225,152.21616 L146.145426,143.925617 C138.696168,153.777127 128.558129,161.282105 116.943173,165.543432" id="Shape" fill="#FEFEFE"></path>
                <path d="M64.6206061,129.573171 C53.9505902,136.58496 42.0354868,141.501713 29.5152941,144.059335 C32.7762825,151.084561 36.5737533,157.849805 40.8742103,164.295393 L58.7622674,167.10348 L54.6480143,181.946227 C65.5338033,194.195593 78.5469723,204.38762 93.0626168,212.032877 C93.0626168,212.032877 55.5871373,168.396092 64.6206061,129.573171" id="Shape" fill="#CE1041"></path>
                <path d="M182.815943,164.206247 C187.133813,157.771279 190.932062,151.004649 194.174859,143.97019 C181.672379,141.448184 169.77079,136.561005 159.114267,129.573171 C168.058296,168.485237 130.672257,212.032877 130.672257,212.032877 C145.208692,204.399529 158.238573,194.20628 169.131579,181.946227 L164.972606,167.10348 L182.860663,164.295393" id="Shape" fill="#CE1041"></path>
            </g>
        </g>
    </g>
</svg>