<?xml version="1.0" encoding="UTF-8" standalone="no"?>
<svg width="250px" height="250px" viewBox="0 0 250 250" version="1.1" xmlns="http://www.w3.org/2000/svg" xmlns:xlink="http://www.w3.org/1999/xlink">
    <!-- Generator: Sketch 47.1 (45422) - http://www.bohemiancoding.com/sketch -->
    <title>TNMART</title>
    <desc>Created with Sketch.</desc>
    <defs></defs>
    <g id="Page-1" stroke="none" stroke-width="1" fill="none" fill-rule="evenodd">
        <g id="TNMART" fill-rule="nonzero">
            <g id="UT" transform="translate(0.000000, 27.000000)">
                <path d="M194.001526,36.2862977 C196.487111,37.3907757 198.830268,38.792186 200.979998,40.4600265 C202.177257,44.667625 202.983961,48.9769907 203.389831,53.3332142 C218.049643,51.2714928 233.763756,49.1091995 249.026026,46.8463345 C225.630573,78.2247294 202.084505,109.65341 179.040485,141.182663 L179.040485,141.534664 C173.273787,139.203193 166.678861,140.461398 162.17166,144.752961 C147.718467,159.663741 135.841955,176.878497 127.028275,195.692567 C126.315916,196.043332 125.481417,196.043332 124.769058,195.692567 C123.262913,193.530274 122.359226,191.116551 121.0539,189.004544 C112.90885,173.569461 102.670355,159.337652 90.6297695,146.714111 C86.1815192,141.615495 79.2974417,139.375041 72.7066431,140.880948 C72.7066431,140.880948 72.4054141,140.880948 72.4054141,141.283235 C48.4075026,110.005411 24.6606153,78.3755871 0.612498996,47.1480498 C15.9249739,49.6120584 31.0366294,51.4726363 46.3993092,53.6349295 C46.9214302,49.3048266 47.7604354,45.0189922 48.909551,40.8120278 C51.2718952,39.1076885 53.7552617,37.5782885 56.3398667,36.2360118 C72.3015471,14.0130223 97.9640713,0.840286826 125.296209,0.840286826 C152.628346,0.840286826 178.29087,14.0130223 194.25255,36.2360118" id="Shape" fill="#0A2240"></path>
                <path d="M184.412403,31.0062794 C187.586749,34.2555371 188.707276,38.9964424 187.324283,43.3263222 C182.3038,53.6349295 169.802795,54.8417909 159.611214,54.7412191 C148.716764,53.6349295 137.671701,50.9194915 130.894048,41.8680314 C128.291906,38.4142734 127.938838,33.7580472 129.990361,29.9502757 C129.990361,29.9502757 129.990361,29.3971309 130.29159,29.1959873 L130.29159,29.1959873 C126.665252,29.9495968 122.923068,29.9495968 119.296731,29.1959873 C118.995502,29.799418 119.798779,29.8999898 119.949394,30.4531346 C121.818041,34.4421274 121.294306,39.1439244 118.593863,42.6223198 C115.670784,46.1896674 112.003736,49.0731194 107.850028,51.0703492 C95.3992289,56.0989381 78.8818379,57.05437 67.234316,49.813202 C63.6203572,47.5008196 61.3833211,43.5467353 61.2599406,39.2531652 C63.268134,28.5422708 75.1666801,23.6142536 84.5549843,21.4519604 C91.8815058,19.8426045 99.4692051,19.8426045 106.795727,21.4519604 C115.280344,24.7708291 125.923769,27.8382683 135.261868,24.0165407 C150.457164,17.6753453 167.798143,19.2560538 181.600932,28.2405554 L184.613222,30.9559935" id="Shape" fill="#FFFFFF"></path>
                <path d="M180.345811,32.9171431 C182.382638,34.8865757 183.494765,37.6257302 183.408306,40.4600265 C182.719438,43.134073 180.880034,45.3633454 178.387822,46.5446192 C178.387822,46.5446192 178.387822,46.5446192 178.387822,46.2429038 C179.811177,44.9943562 180.41285,43.0503396 179.944172,41.2143149 C176.661859,36.4975681 171.605395,33.3208302 165.937023,32.4142843 C156.869693,29.6679648 147.125031,30.2201039 138.424773,33.9731468 C136.516869,34.8668054 135.431164,36.9186117 135.763917,39.0017358 C135.763917,39.5548805 136.115351,40.1080253 135.763917,40.6108842 C133.550436,38.6378123 132.687544,35.5538857 133.554904,32.7159996 C137.019038,26.0782622 144.650173,24.8714009 151.729055,24.2679702 C161.964014,23.4817352 172.121293,26.5679302 180.195196,32.9171431" id="Shape" fill="#0A2240"></path>
                <path d="M113.723994,30.1514192 C115.215567,31.6151875 116.018224,33.6433413 115.933007,35.733153 C115.58277,37.4042018 114.881056,38.9813199 113.874608,40.3594548 L113.874608,40.3594548 C114.323424,39.1944554 114.323424,37.9038701 113.874608,36.7388707 C109.456583,31.3079947 102.126677,31.3079947 95.4996385,31.3079947 C87.2558696,31.1773249 79.1787726,33.6395405 72.4054141,38.3480192 C70.8579755,39.470753 69.7981399,41.1440385 69.4433288,43.0246069 C69.5095537,44.4836351 70.2058337,45.8417379 71.3511125,46.7457627 L71.3511125,46.7457627 C69.4775862,45.9636457 67.8846983,44.631174 66.7824725,42.9240351 C65.6306513,40.8082159 65.6306513,38.2512593 66.7824725,36.1354401 C71.2726751,30.2699929 77.8955448,26.4199965 85.2076472,25.4245456 C93.9742978,23.2495262 103.219541,24.1365155 111.414571,27.9388401 L113.874608,29.9502757" id="Shape" fill="#0A2240"></path>
                <path d="M129.588722,59.0658056 L125.020082,87.3264754 L119.999598,58.9149479 C121.714833,57.5237929 123.279735,55.956364 124.668648,54.2383602 C125.930907,56.1821204 127.528988,57.8849506 129.387903,59.2669492" id="Shape" fill="#FF8300"></path>
                <path d="M116.635874,82.2978865 L109.757812,64.345824 C111.766005,63.6418215 113.723994,62.7366755 115.782392,61.8315295 C116.133826,68.5698387 116.435055,75.4087196 116.635874,82.2978865" id="Shape" fill="#FF8300"></path>
                <path d="M140.031328,64.3961099 C137.822315,70.5309884 135.512893,76.5652951 133.30388,82.6498877 L133.856133,61.8818154 L140.031328,64.3961099" id="Shape" fill="#FF8300"></path>
                <path d="M105.540606,65.703543 C105.540606,68.9218399 105.540606,72.3915663 105.239377,75.7607208 C103.934051,72.944711 102.277291,69.7264141 101.072375,66.7092608 L105.540606,65.8544007" id="Shape" fill="#FF8300"></path>
                <path d="M148.766969,66.5081172 C147.562053,69.6258424 145.955498,72.7938534 144.650173,75.9618644 C144.306755,72.6212006 144.20608,69.2599623 144.348944,65.9046865 C145.754679,65.9046865 147.260824,66.608689 148.766969,66.7092608" id="Shape" fill="#FF8300"></path>
                <path d="M154.289501,70.1287012 C154.166889,69.0632249 154.269523,67.9838298 154.59073,66.9606902 L156.900153,66.9606902 L154.289501,70.1287012" id="Shape" fill="#FF8300"></path>
                <polyline id="Shape" fill="#FF8300" points="95.6000482 70.229273 93.0396016 67.061262 95.3992289 67.061262 95.6000482 70.229273"></polyline>
                <path d="M89.0232147,82.3481724 C88.1182121,84.3846815 88.3873002,86.75263 89.7260824,88.5333367 C91.00249,90.4629459 93.1902942,91.5871967 95.4996385,91.5002042 C96.159084,91.4099429 96.80181,91.2235903 97.4074223,90.9470594 C98.571818,92.4245638 99.5970316,94.0069518 100.469917,95.673933 C97.9569126,96.9304093 95.0003531,96.9304093 92.4873484,95.673933 C86.6093955,93.2485196 82.8212083,87.4572149 82.9484296,81.0910251 L83.2998634,80.0853073 C85.3765516,80.4376577 87.3389499,81.2825064 89.0232147,82.5493159" id="Shape" fill="#FFFFFF"></path>
                <path d="M167.292554,81.4430263 C167.119873,87.1485499 163.818054,92.2930044 158.707527,94.8190729 C156.042493,96.5441717 152.700528,96.8450581 149.771066,95.6236471 C150.54723,93.9202288 151.524859,92.316355 152.682946,90.8464876 C154.267141,91.6208912 156.119235,91.6208912 157.70343,90.8464876 C160.179327,89.5636786 161.730102,87.0007688 161.719817,84.2087503 L161.167564,82.2978865 C162.894469,81.0772063 164.894328,80.3001463 166.991325,80.0350214 L167.342758,81.4430263" id="Shape" fill="#FFFFFF"></path>
                <path d="M197.013816,80.5881662 C191.727534,85.3117117 185.120772,88.2956979 178.086593,89.1367674 C178.322233,87.4094778 178.777783,85.7195317 179.442124,84.1081785 C185.439908,83.732806 191.355125,82.5139968 197.013816,80.4875944" id="Shape" fill="#FF8300"></path>
                <path d="M71.2507029,84.5104656 C71.4805932,86.2186267 71.8671308,87.9019383 72.4054141,89.5390545 C65.2599866,88.7779005 58.5338492,85.7875888 53.176962,80.9904533 C59.0296122,82.9565759 65.0983108,84.2060446 71.2507029,84.7116091" id="Shape" fill="#FF8300"></path>
                <path d="M196.461563,89.5893404 C189.843621,95.3302012 181.46405,98.6306589 172.714676,98.9425158 C173.969797,97.0819379 175.224918,95.1710741 176.279219,93.2099244 C183.119504,93.0470801 189.893516,91.8257893 196.361154,89.5893404" id="Shape" fill="#FF8300"></path>
                <path d="M74.1123785,93.6624974 C75.0276567,95.5662402 76.1381372,97.3694712 77.4258977,99.0430876 C77.024259,99.0430876 77.024259,99.0430876 76.7732348,99.3448029 C68.3978265,98.8497385 60.3971755,95.6971481 53.9300345,90.3436288 L53.9300345,90.3436288 L53.4279862,89.8910557 C60.0928215,92.1365116 67.037812,93.4397418 74.0621737,93.7630692" id="Shape" fill="#FF8300"></path>
                <path d="M80.4381878,102.31167 C82.7698872,104.682431 85.3255516,106.821203 88.0693228,108.697978 C76.5652929,110.11371 64.9745599,106.853647 55.8880231,99.6465183 C63.8336206,102.061813 72.1604522,102.965769 80.4381878,102.31167" id="Shape" fill="#FF8300"></path>
                <path d="M194.45337,99.6465183 C185.380343,106.714902 173.881957,109.896979 162.472889,108.496835 C165.088292,106.515614 167.586044,104.383221 169.95341,102.110527 C178.201852,102.80473 186.507387,101.969426 194.45337,99.6465183" id="Shape" fill="#FF8300"></path>
                <path d="M157.954454,118.805442 C157.014656,116.791375 155.941217,114.842625 154.741345,112.972279 L157.653225,111.513988 C168.452935,113.633384 179.599708,113.168185 190.185959,110.156269 C180.740891,116.635761 169.368587,119.687465 157.954454,118.805442" id="Shape" fill="#FF8300"></path>
                <path d="M92.6379629,111.463702 L95.7506627,113.022565 C94.5713336,114.76508 93.5625655,116.617474 92.7383726,118.554013 C81.516419,119.82324 70.224353,116.865714 61.0591212,110.256841 C71.369941,112.971978 82.15056,113.383985 92.6379629,111.463702" id="Shape" fill="#FF8300"></path>
                <path d="M182.906258,121.219165 C176.313487,125.397041 168.757753,127.804232 160.966744,128.208903 C160.61531,126.348326 160.063057,124.437462 159.561009,122.727741 C167.371836,123.555896 175.266428,123.045745 182.906258,121.219165" id="Shape" fill="#FF8300"></path>
                <path d="M90.9812033,122.828313 L89.4750582,128.510619 C81.7905658,128.007188 74.3686463,125.511893 67.9371837,121.269451 C75.4609671,123.182069 83.2689846,123.710259 90.9812033,122.828313" id="Shape" fill="#FF8300"></path>
                <path d="M128.936059,106.787115 C141.476505,113.386575 149.242093,126.492716 149.017993,140.679804 L149.017993,140.679804 C154.420786,137.19443 160.852642,135.668169 167.242349,136.355217 C159.812033,138.316367 154.138887,144.40096 148.515945,149.731264 C143.54741,154.669939 138.886325,159.90953 134.559001,165.420462 C131.74753,146.96554 128.785445,127.605473 126.325408,108.999694 C126.034967,108.352632 125.375739,107.952455 124.668648,107.993976 C124.02747,108.035395 123.483121,108.479654 123.313118,109.100265 L115.782392,165.973606 C108.414234,156.731836 100.083356,148.303222 90.9309985,140.830662 C88.4178521,138.827225 85.5345095,137.340504 82.4463812,136.455789 C88.9425067,135.844227 95.4612601,137.361843 101.02217,140.780376 C100.984697,137.383285 101.424104,133.997778 102.327496,130.723198 C104.698232,120.457996 111.352773,111.705232 120.602056,106.686543 C123.140706,105.544219 126.045976,105.544219 128.584625,106.686543" id="Shape" fill="#FFFFFF"></path>
                <path d="M113.723994,124.990606 L110.862318,119.509445 C111.574957,117.640205 113.114962,116.20922 115.02932,115.637431 L113.723994,124.990606" id="Shape" fill="#0A2240"></path>
                <path d="M120.95349,106.8374 C117.490624,105.589424 114.277494,103.733357 111.464776,101.356239 C103.030364,94.8693588 99.6164351,84.4601797 90.5293598,78.9287319 C83.6512973,73.9001429 74.9156559,73.0955687 68.3890272,67.3126914 C66.893566,66.0943361 65.5754858,64.6725734 64.47305,63.0886767 C73.3091011,67.8155503 83.751707,68.1172657 92.7885774,72.2407086 C100.774824,76.5823715 107.27973,83.2203811 111.464776,91.2990606 C113.605196,96.4382319 117.070385,100.915543 121.505743,104.27282 C124.238655,105.487558 127.409387,105.16232 129.839746,103.41796 C138.173749,96.3779355 139.378665,85.667041 148.064102,78.6270165 C153.82303,73.0513529 161.247007,69.5188293 169.200337,68.5698387 C174.970893,67.1885055 180.563654,65.1468889 185.868343,62.4852461 C180.800635,68.6836124 173.944568,73.1621788 166.238252,75.3081478 C158.077772,78.8531817 151.30481,84.9834214 146.959595,92.7573514 C142.771976,98.9753665 136.803829,103.778629 129.839746,106.535685 C127.0648,107.864097 123.862521,107.973442 121.003695,106.8374" id="Shape" fill="#FFFFFF"></path>
                <path d="M136.567194,124.33689 L139.127641,118.70487 C138.323401,116.875482 136.704441,115.53349 134.75982,115.084286 L136.567194,124.33689" id="Shape" fill="#0A2240"></path>
            </g>
        </g>
    </g>
</svg>