<?xml version="1.0" encoding="UTF-8" standalone="no"?>
<svg width="250px" height="250px" viewBox="0 0 250 250" version="1.1" xmlns="http://www.w3.org/2000/svg" xmlns:xlink="http://www.w3.org/1999/xlink">
    <!-- Generator: Sketch 47.1 (45422) - http://www.bohemiancoding.com/sketch -->
    <title>OREG</title>
    <desc>Created with Sketch.</desc>
    <defs></defs>
    <g id="Page-1" stroke="none" stroke-width="1" fill="none" fill-rule="evenodd">
        <g id="OREG" fill-rule="nonzero" fill="#004F39">
            <path d="M125,22 C89.650416,22 57.1219552,28.8708843 38.3159516,41.5478485 C17.1726748,55.7992975 0,68.2739935 0,125 C0,181.726007 17.1726748,194.200702 38.3159516,208.452151 C57.1228463,221.129116 89.650416,228 125,228 C160.349584,228 192.878045,221.129116 211.684048,208.452151 C232.827325,194.200702 250,181.726007 250,125 C250,68.2739935 232.827325,55.7992975 211.684048,41.5478485 C192.877154,28.8708843 160.349584,22 125,22 Z M125,38.6234234 C151.05752,38.6234234 171.141316,52.0087721 179.438948,65.7166808 C187.736668,79.4254806 186.929449,95.8929702 186.929449,124.999109 C186.929449,154.105248 187.736605,170.573628 179.438948,184.281537 C171.141227,197.990337 151.058411,211.374795 125,211.374795 C98.9424797,211.374795 78.8586836,197.989446 70.5610525,184.281537 C62.2633322,170.572737 63.0705513,154.105248 63.0705513,124.999109 C63.0705513,95.8929702 62.2633945,79.4245895 70.5610525,65.7166808 C78.8587727,52.007881 98.9415887,38.6234234 125,38.6234234 L125,38.6234234 Z" id="Shape"></path>
        </g>
    </g>
</svg>