<?xml version="1.0" encoding="UTF-8" standalone="no"?>
<svg width="250px" height="250px" viewBox="0 0 250 250" version="1.1" xmlns="http://www.w3.org/2000/svg" xmlns:xlink="http://www.w3.org/1999/xlink">
    <!-- Generator: Sketch 47.1 (45422) - http://www.bohemiancoding.com/sketch -->
    <title>ARIZ</title>
    <desc>Created with Sketch.</desc>
    <defs></defs>
    <g id="Page-1" stroke="none" stroke-width="1" fill="none" fill-rule="evenodd">
        <g id="ARIZ" fill-rule="nonzero">
            <g id="Arizona_Wildcats_logo" transform="translate(0.000000, 9.000000)">
                <polygon id="Shape" fill="#FFFFFF" points="200.830578 1.19698606 200.830578 75.8434004 193.270319 75.8068466 223.402291 156.299875 249.23745 156.33344 249.23745 231.039616 0.233466135 231.039616 0.233466135 156.433042 25.8858566 156.462922 56.2842629 75.7408108 48.5611554 75.7607311 48.5915339 1.16909761 200.83257 1.1935"></polygon>
                <polygon id="Shape" fill="#0C234B" points="124.73994 28.8728088 172.83008 28.8728088 172.83008 48.1073705 152.851992 48.1073705 205.376892 183.490837 220.912251 183.490837 220.912251 203.408167 155.807669 203.408167 155.807669 184.030179 137.532769 184.030179 137.532769 222.027191 240.286753 222.027191 240.286753 165.368825 217.21255 165.408416 180.224004 66.7978586 191.840538 66.7978586 191.840538 10.1743526 124.733964 10.1743526 57.6273904 10.1743526 57.6273904 66.7978586 69.2469124 66.7978586 32.2553785 165.283914 9.1811753 165.369233 9.1811753 222.0276 111.94512 222.0276 111.94512 184.030588 93.664243 184.030588 93.664243 203.408576 28.5596614 203.408576 28.5596614 183.491245 44.0950199 183.491245 96.6199203 48.1077789 76.6448207 48.1077789 76.6448207 28.8732171 124.73496 28.8732171"></polygon>
                <path d="M124.690139,29.0466135 L178.021813,167.343426 C178.021813,167.343426 184.853984,184.174104 195.952092,184.174104 L157.11992,184.174104 C157.11992,184.174104 159.070219,184.45751 161.014392,181.218177 C162.126693,179.368426 161.188093,176.592331 161.188093,176.592331 L149.17863,145.719821 L124.687097,145.719821 L100.29616,145.719821 L88.27126,176.592331 C88.27126,176.592331 87.3540289,179.368426 88.463242,181.218177 C90.3983018,184.45752 92.3425249,184.174104 92.3425249,184.174104 L53.5133416,184.174104 C64.6054731,184.174104 71.4471066,167.343426 71.4471066,167.343426 L124.694119,29.0466135 L124.690139,29.0466135 Z M124.651489,131.058566 L143.438342,131.058566 L125.020015,82.5451195 L105.949796,131.058566 L124.651489,131.058566 L124.651489,131.058566 Z" id="Shape" fill="#AB0520"></path>
            </g>
        </g>
    </g>
</svg>