<?xml version="1.0" encoding="UTF-8" standalone="no"?>
<svg width="250px" height="250px" viewBox="0 0 250 250" version="1.1" xmlns="http://www.w3.org/2000/svg" xmlns:xlink="http://www.w3.org/1999/xlink">
    <!-- Generator: Sketch 47.1 (45422) - http://www.bohemiancoding.com/sketch -->
    <title>TNTECH</title>
    <desc>Created with Sketch.</desc>
    <defs></defs>
    <g id="Page-1" stroke="none" stroke-width="1" fill="none" fill-rule="evenodd">
        <g id="TNTECH" fill-rule="nonzero">
            <g id="Group" transform="translate(125.000000, 125.000000) scale(-1, 1) rotate(-180.000000) translate(-125.000000, -125.000000) translate(0.000000, 30.000000)">
                <path d="M129.233743,41.641948 C128.89587,42.0591425 128.6742,42.5776936 128.624112,43.1516512 C128.489666,44.6878319 129.630264,46.042348 131.172443,46.1771867 C132.688717,46.3093987 134.027522,45.2141582 134.200633,43.7173784 L133.089174,43.2529029 L131.345448,44.7824291 L130.518207,42.1789563 L129.233743,41.641983 L129.233743,41.641948 Z M141.527944,42.0208973 C135.81406,44.0627406 130.496661,49.5561047 131.253076,54.4883996 L152.470299,54.8290512 C149.186011,51.9304743 136.179262,52.0135139 136.179262,52.0135139 L133.544429,53.1846144 L135.710369,50.0530641 L146.873814,50.7185019 C158.149385,51.3870218 159.728647,57.727313 159.728647,57.727313 C159.728647,57.727313 164.671002,51.6266494 158.429772,46.1136724 C153.681441,41.919313 141.525729,42.0243821 141.525729,42.0243821 L141.527944,42.0208973 Z M145.811248,43.8363517 C146.068376,43.8381029 146.336801,43.8461582 146.615852,43.8616734 L146.221793,45.9945065 L140.530756,45.229078 C140.530756,45.229078 141.954517,43.8096291 145.811248,43.8363517 L145.811248,43.8363517 Z M146.705764,105.004094 C128.440738,105.074276 122.649877,108.331808 122.579578,121.852628 C122.579578,133.435098 133.303304,134.001071 147.15181,134.602416 C153.276239,134.868154 159.410861,135.141456 165.549701,135.141456 L168.564183,135.111371 L168.638323,125.755666 C164.731118,127.022625 161.788411,127.478099 157.47277,127.478099 C154.326021,127.478099 147.228833,127.434706 144.636917,126.021071 C142.640854,124.931854 142.519729,123.07833 142.519729,121.442859 C142.519729,115.020333 144.960151,112.545605 154.518675,112.545605 C161.073684,112.545605 164.269817,112.627419 169.167533,115.893318 L169.246482,105.352783 C162.33787,105.174166 155.426446,105.006657 148.512562,105.006657 C147.897202,105.002525 147.294847,105.001649 146.705673,105.003855 L146.705764,105.004094 Z M28.1117399,105.69839 L28.1076204,123.000473 C31.7469877,118.056971 33.4784464,115.677155 41.7034025,115.677155 L41.7034025,141.859681 C48.6506784,140.031058 57.6004148,138.811766 64.7357399,137.381985 C63.3249139,136.359732 60.4833673,135.085909 60.4833673,132.339367 C60.143297,125.421966 60.550478,122.60016 60.4256977,115.677506 C62.6488963,115.546607 64.5701617,115.630305 66.8035536,115.630305 C70.0100562,115.630305 72.4383515,116.593159 73.9536415,117.965641 L73.9536415,105.698821 L28.1118137,105.698821 L28.1117399,105.69839 Z M119.84109,105.69839 C119.84109,105.69839 90.5015466,105.723222 75.7707909,105.783213 C76.4495958,106.348835 77.3118805,107.119167 77.7424605,107.803867 C77.9423726,108.122139 78.2834446,110.367659 78.2834446,110.367659 C78.2834446,110.367659 78.2727944,133.662534 78.2916696,136.521465 C91.9573989,134.797911 106.075852,134.000156 119.950721,133.712092 L119.950721,123.825087 C118.636555,124.40689 116.952337,125.347784 115.526116,125.791701 C112.674165,126.680831 100.588682,126.719882 96.5742707,126.93748 L96.5028752,123.216282 C103.037146,122.925591 107.885301,122.645441 114.43117,122.543874 L114.43117,116.59346 C107.854369,116.660004 103.162981,116.916547 96.5914517,117.107878 L96.5742988,112.93033 C100.963754,112.840145 105.424562,112.919403 109.816478,112.919403 C114.364105,112.919403 116.150749,113.535668 119.950749,115.219856 L119.842281,105.698492 L119.84109,105.69839 Z M200.899086,105.69839 C202.536591,107.330464 203.513989,108.457646 203.513989,110.5004 C203.513989,113.002376 203.448879,115.507644 203.429547,118.01039 C199.882974,117.714008 196.332183,117.448166 192.776822,117.208678 L192.704742,105.828291 L171.691385,105.737994 C172.308257,106.25546 173.008081,106.777864 173.452299,107.382431 C173.869698,107.951135 174.002879,108.552901 174.002879,109.18899 C174.002879,117.962962 173.935353,126.738335 173.901961,135.512308 C180.309343,136.185171 186.607409,137.024953 192.910046,138.080898 L192.833156,126.033672 C196.402225,126.442111 200.169185,126.890406 203.713649,127.395613 L203.713649,140.120184 C210.061276,141.621797 216.03632,142.770588 222.087286,144.788756 L222.110626,105.699539 L200.898675,105.699539 L200.899086,105.69839 Z M167.969736,106.586295 L167.91619,113.649742 C163.675768,111.334719 160.256436,111.280888 154.521111,111.280888 C144.555909,111.280888 141.252218,114.060177 141.252218,121.443174 C141.252218,122.443082 141.28575,123.791819 141.920197,125.025681 C139.224239,123.555133 139.135698,120.973865 139.135698,119.333736 C139.135698,111.951229 142.439494,109.17145 152.403888,109.17145 C158.140267,109.17145 161.558896,109.22527 165.79967,111.540304 L165.837431,108.489482 L167.969733,106.58647 L167.969736,106.586295 Z M72.6832689,106.963878 L72.6832689,115.606864 C71.0826362,114.822768 69.0966257,114.365332 66.8031283,114.365332 C64.5434446,114.365332 62.6003163,114.282125 60.3507557,114.413899 L59.1335677,114.485038 L59.155536,115.699917 C59.2811951,122.630276 58.8748928,125.459087 59.2132021,132.372286 C59.2259262,134.276663 60.3507065,135.614298 61.4368225,136.519714 C61.5523761,136.616027 61.6691916,136.708621 61.786942,136.798806 C55.7391388,137.882349 48.7282425,138.866356 42.9725308,140.237508 L45.3684534,137.38229 C50.6721441,136.250625 52.4271529,136.015971 57.7512302,135.062013 C57.6339192,134.97227 57.451993,134.041477 57.327645,133.375163 C57.1044464,132.178706 57.1101582,132.168269 57.0969772,130.263436 C56.7591037,123.350238 57.1645308,120.521077 57.0393111,113.591067 L57.0173427,112.376188 L58.2345308,112.305046 C60.4840914,112.173272 62.4275009,112.255796 64.6869033,112.255796 C66.9799789,112.255796 68.9663409,112.133871 70.5670439,112.917942 L70.5670439,108.593997 L72.6835641,106.96392 L72.6832689,106.963878 Z M220.837926,106.963878 L220.815958,143.05162 C215.60717,141.438809 210.422988,140.38465 204.980808,139.117832 L206.546046,137.803767 C211.224077,138.868048 214.169596,139.540595 218.7,140.942848 L218.716485,109.015843 L220.837821,106.963703 L220.837926,106.963878 Z M118.581336,106.969342 L118.65342,113.285747 C115.822137,112.124733 113.794018,111.653603 109.811241,111.653603 C105.410538,111.653603 100.940591,111.575047 96.543051,111.665231 L95.2942988,111.691218 L95.3128225,117.179329 L93.2052302,118.506387 L93.1770756,109.582516 L94.4265308,109.557194 C98.8240703,109.466572 103.294018,109.544866 107.694721,109.544866 C111.677497,109.544866 113.705617,109.331691 116.536197,110.492274 L116.483336,108.489377 L118.581332,106.969447 L118.581336,106.969342 Z M191.438981,107.088364 L191.498021,117.346262 L189.39317,118.927763 L189.399357,108.699284 L191.43897,107.088364 L191.438981,107.088364 Z M38.7219332,112.288585 C38.9954622,112.290336 39.281406,112.295239 39.5814411,112.302945 L44.8352197,112.302945 L43.1415817,114.421418 C34.780949,113.866723 31.9391213,116.221427 29.3735677,119.265805 L31.2889279,114.604589 C33.3739895,112.920611 34.6188049,112.262388 38.7216169,112.28841 L38.7219332,112.288585 Z M113.154271,117.873709 L113.154271,121.300084 C107.210861,121.416535 102.564464,121.680364 96.4389807,121.952668 L95.2025659,122.007392 L95.210123,127.364166 L93.1355009,129.367729 L93.0860703,119.898549 L94.3224851,119.843143 C100.447265,119.571276 105.094366,119.30701 111.037775,119.190558 C111.037775,119.190558 112.429339,117.884724 113.154295,117.873762 L113.154271,117.873709 Z M189.431951,122.504106 L190.85645,122.66759 C194.436766,123.077359 198.215677,123.527335 201.770685,124.034329 L206.754165,124.833275 L204.849104,126.432567 C201.599121,125.983852 196.210088,125.147291 192.972478,124.776502 L191.548647,124.613015 L191.625536,136.587042 C186.168594,135.702711 180.707786,134.975737 175.170703,134.375547 L177.016749,132.636724 C181.827996,133.188757 184.750668,133.707028 189.507786,134.478865 L189.432267,122.504137 L189.431951,122.504106 Z M118.672724,125.832661 L118.672724,132.47408 C105.637575,132.773527 92.4055888,133.532021 79.5514587,135.090546 L82.0874165,132.636867 C94.2772232,131.245577 104.235747,130.647979 116.557715,130.365168 L116.482197,128.207678 C117.056889,127.989222 118.674218,125.832696 118.674218,125.832696 L118.672724,125.832661 Z M167.351107,127.470268 L167.300306,133.859171 L165.533241,133.876963 C159.417248,133.876613 153.30477,133.603044 147.202837,133.338624 C136.292116,132.864482 128.517424,132.33791 125.381395,127.714274 C129.279111,130.41497 136.125156,130.839695 145.086492,131.228836 C151.188425,131.494135 157.300903,131.767 163.416193,131.767875 L165.183961,131.750084 L165.213487,129.472886 C166.009199,128.734775 166.538443,128.418272 167.351272,127.469988 L167.351107,127.470268 Z" id="Shape" fill="#FFFFFF" transform="translate(125.109123, 93.215352) scale(-1, 1) rotate(-180.000000) translate(-125.109123, -93.215352) "></path>
                <path d="M11.5574692,0.201746728 C-0.366959578,10.7681983 -0.8456942,21.9027237 0.74340949,39.2594426 C2.8602812,62.3711476 10.0977153,83.4515163 20.9068541,101.635479 L19.6272056,101.635479 L19.6272056,157.756401 L35.6050615,172.595314 L37.0542707,172.171885 C51.5407381,167.934797 68.9772935,164.226208 91.5393322,162.325857 C105.305237,168.528088 113.03283,174.489009 117.395923,178.792291 C122.325272,183.652088 125.397329,189.964641 125.397329,189.964641 C125.397329,189.964641 128.105026,183.446502 132.879578,178.768825 C137.212091,174.523332 144.818418,168.479756 158.677821,162.240401 C180.725624,164.004687 199.739332,167.773341 214.090826,171.736899 L230.885554,156.198226 L230.868401,101.63583 L229.116415,101.63653 C239.925202,83.4543182 247.162812,62.3721983 249.279156,39.2604933 C250.869244,21.9048251 248.984615,11.1860232 243.255606,5.20408774 L238.466503,0.203848111 L238.494657,3.65964166 C238.494657,3.72618544 238.524077,8.11492276 238.235845,9.73473843 C237.92697,11.4692546 237.289132,13.9133375 235.97103,16.6626463 C233.364281,22.1020748 228.021996,28.9010979 216.893701,33.7535403 L184.860309,46.9215034 L187.760837,40.124932 L166.128148,46.8490057 C162.664598,42.0921762 153.926039,39.8594573 153.060309,39.6048398 C153.746601,38.5895919 154.341258,31.4210057 141.811803,28.2906463 C118.006882,22.3451347 99.0420316,37.7661301 95.0596063,43.6338905 C96.782348,44.491955 98.1935255,45.002661 98.1935255,45.002661 C98.1935255,45.002661 96.0914517,47.1066352 93.9555641,50.0859053 L62.2620668,40.125002 L65.162594,46.9215735 L33.1829807,33.7721725 C22.0219965,28.9183292 10.0448436,17.1428822 11.5601336,0.20153659 L11.5574692,0.201746728 Z M8.75500879,7.09112922 C8.75500879,7.09112922 8.49674517,26.0242352 32.0818981,36.2807329 L70.313884,51.9966223 L67.1140598,44.4967882 L92.8096661,52.4869449 C91.2353954,54.7674002 89.6078032,57.3043642 88.3397188,59.6967882 L80.1400703,57.2527053 L85.7688928,67.2307698 L28.8620387,43.8371292 C21.1112478,40.4661615 15.4026362,36.1954518 11.2521968,31.7419218 C11.3260105,33.7404066 11.4680351,35.9093135 11.6833392,38.2635624 C11.8814938,40.4244841 12.1275923,42.5664933 12.4206678,44.6874887 L74.1570475,68.9059218 L14.0269947,53.9826039 C14.4852724,56.1873043 14.9946573,58.3671384 15.5531107,60.5214057 L76.8958172,78.0224195 L18.5478383,70.4994702 C19.3729701,72.9099311 20.2608084,75.2839679 21.2080844,77.6196546 L52.4938489,82.2990831 C63.4281195,83.6150739 78.0224956,84.9916896 95.0316344,85.6645873 C95.8084359,79.8616195 95.7305097,74.9531403 95.7305097,74.9531403 L90.7878032,77.4745191 C92.7205975,67.708344 96.3828822,61.4350168 96.3828822,61.4350168 L91.7090685,60.371332 C95.4602109,51.8740417 103.872513,43.4671108 103.872513,43.4671108 L100.426924,42.3226979 C100.426924,42.3226979 115.044148,28.4294076 134.763656,30.9503661 C154.482109,33.4716048 149.894411,41.4551771 149.894411,41.4551771 C154.979121,43.1424122 169.111283,45.5654813 165.851529,59.0528546 C163.640211,68.2022739 156.372091,71.1904398 156.372091,71.1904398 C157.958207,64.0303292 150.248366,62.9211495 147.718664,64.5010389 C146.332021,65.3669836 140.88703,68.0278592 147.600583,79.8768546 C148.546981,81.5474536 149.427613,83.3232269 150.245715,85.1660343 L153.122903,85.0128085 C152.158475,82.7621578 151.103923,80.5876472 149.951902,78.5542094 C146.741005,72.8874813 146.828527,70.0758315 147.202411,68.860532 C147.387385,68.2612177 147.692534,67.8669283 148.009757,67.573155 C148.175838,67.4194914 148.35458,67.2859381 148.540443,67.1620546 C148.782534,67.0009486 148.996401,66.8786691 149.152815,66.7810389 C150.733202,65.7938094 154.545083,66.9508446 153.734538,70.6104582 L152.620337,75.64432 L157.40206,73.6777062 C157.670074,73.5678214 165.958826,70.103955 168.477631,59.682849 C169.511902,55.4016324 169.033343,51.9641209 167.668246,49.2291716 L182.908668,44.4923053 L179.707473,51.9921394 L217.939459,36.27625 C241.524696,26.0197523 241.266348,7.08664627 241.266348,7.08664627 C246.081462,12.1142039 248.128914,21.6814481 246.542974,39.006296 C244.306594,63.4240103 236.237174,85.4993836 224.25264,104.212195 L228.274784,104.211494 L228.274784,155.11048 L228.024207,155.022923 L213.36375,168.907107 C198.637916,164.839181 180.574998,161.335476 157.919111,159.582222 C128.5989,172.761393 125.241782,185.181964 125.241782,185.181964 C125.241782,185.181964 121.825508,172.852803 92.3117293,159.663826 C69.1004815,161.551988 51.1939789,165.337909 36.3222742,169.68637 L22.3331705,156.539771 L22.2178383,156.576027 L22.2178383,156.431693 L22.2178383,104.212338 L25.7211072,104.212338 C13.7597715,85.4960249 5.71231986,63.4104949 3.47787346,39.0099419 C1.89147627,21.6861447 3.9386819,12.1185502 8.75379613,7.09099263 L8.75500879,7.09112922 Z M131.957118,35.1960693 C120.631986,34.9915347 111.925483,42.6874979 111.925483,42.6874979 L115.754306,43.7463845 C106.238664,50.0841541 103.272056,56.7718039 103.272056,56.7718039 L106.982777,56.3011642 C102.563796,63.1078924 101.264675,69.2089062 101.264675,69.2089062 L104.857996,67.6800804 C104.029807,75.2748269 103.209912,81.2304951 102.07283,85.9015182 C108.880562,86.0823246 116.021863,86.1425187 123.426081,86.0383252 C128.095325,85.9730947 132.608506,85.8660013 136.962109,85.7250335 C132.497434,79.1357985 133.804851,72.1644621 133.804851,72.1644621 C130.770123,72.6762188 128.817856,79.9900105 128.817856,79.9900105 C127.235712,74.7978446 128.515104,69.9468031 128.515104,69.9468031 C125.414506,70.9703515 123.290148,74.7974944 123.290148,74.7974944 C121.924594,68.5073561 126.997353,63.9007755 126.997353,63.9007755 C124.872573,63.7300382 121.555525,64.2421135 121.555525,64.24211 C123.294084,59.1325985 128.576615,58.225852 128.576615,58.225852 C128.576615,58.225852 127.57071,55.3943091 129.565859,52.6782022 C129.565859,52.6782022 125.865684,52.4005325 125.852678,48.1553266 C125.84477,45.4112713 127.438513,44.1052621 127.438513,44.1052621 L122.480692,38.8388474 C122.480692,38.8388474 132.238513,42.3922852 137.295455,43.6285985 C140.607406,44.4380511 140.534401,40.4012953 140.534401,40.4012953 C143.064735,44.2167054 145.8989,41.4601819 145.8989,41.4601819 C145.8989,41.4601819 146.016569,36.0648824 133.061993,35.2414907 C132.691518,35.2179202 132.324032,35.2029373 131.958759,35.1963425 L131.957118,35.1960693 Z M238.048506,44.688014 L176.312127,68.9078481 L236.442179,53.9866315 C237.077047,50.9334979 237.614517,47.8323827 238.048612,44.6876638 L238.048506,44.688014 Z M234.915255,60.5257836 L173.572548,78.0250463 L231.917012,70.5038481 C233.032583,67.2432029 234.033533,63.9163642 234.912267,60.5257836 L234.915255,60.5257836 Z M229.259719,77.6240324 L216.408752,79.546202 L216.465733,87.3468841 L224.770478,87.5349963 C226.386471,84.3150479 227.88612,81.0098535 229.259406,77.6238258 L229.259719,77.6240324 Z M37.3581371,85.240143 L37.3409842,91.105802 C38.133181,90.6273172 38.939297,90.1385707 39.8975395,90.1385707 C40.8421793,90.1385707 41.7829174,90.2870088 42.7218629,90.3745665 L42.6937083,104.570456 L51.2413357,104.861858 C49.5818629,103.018771 50.0396134,93.999812 49.9438313,91.125471 C52.5448858,91.3658166 53.1806327,91.2122616 55.4078032,92.78087 L55.2918102,87.6394876 C49.2918102,86.9915613 43.3128998,86.2070452 37.3550791,85.2369069 L37.3581371,85.240143 Z M209.980281,85.6327864 C204.188366,86.431732 198.385554,87.1195145 192.56833,87.7122794 C192.859631,87.9937771 193.087487,88.3284748 193.300141,88.6699495 C193.685448,89.2876859 193.488053,102.878447 193.488931,104.867406 L209.989107,104.868106 L210.009705,98.6385578 C208.180601,100.106023 206.194239,100.438952 203.906014,100.438952 C202.874801,100.438952 201.842675,100.413526 200.811919,100.44375 L200.814731,96.9824933 L208.645663,96.5440048 L208.655961,93.0059771 L200.817297,93.6312085 L200.820109,90.8539864 C202.822288,90.668802 204.864046,90.283496 206.875293,90.283496 C208.052376,90.283496 209.013431,90.8335679 209.961163,91.4709873 L209.98039,85.6326463 L209.980281,85.6327864 Z M31.3089279,87.4085596 L25.7015466,87.5351084 C26.8382074,89.7997683 28.0325835,92.02156 29.2818629,94.2003434 L31.4862566,94.2003434 L31.3091353,87.408325 L31.3089279,87.4085596 Z M190.999613,87.8648048 C185.223866,88.3980306 179.440387,88.8460804 173.651986,89.2212472 C173.94065,89.4808555 174.168717,89.7934536 174.383128,90.1139145 C174.771072,90.6948767 174.574278,103.010799 174.576035,104.86667 L191.081835,104.867371 L191.076351,99.3606979 C189.211255,100.674062 187.086896,100.903218 184.865455,100.903218 C183.875578,100.903218 182.88549,100.872958 181.895613,100.89089 L181.892098,97.7812288 L189.705807,97.4918754 L189.705104,94.3568929 L181.888583,94.7686938 L181.885069,92.2740026 C183.784893,92.1588643 185.690341,91.9025482 187.595438,91.9025482 C189.023381,91.9025482 189.814489,92.2965924 191.001202,93.0250717 L190.999093,87.8647768 L190.999613,87.8648048 Z M56.732478,88.1625006 C57.0114763,88.4974085 57.2891388,88.8375347 57.4842179,89.2289172 C57.8985589,90.06159 57.9873462,102.772678 58.0347979,104.863553 L74.5377856,104.863553 L74.4087206,99.8920324 C73.0088963,100.742217 72.5576837,101.045341 70.8607417,101.045341 C68.9916731,101.045341 67.1215501,100.9823 65.2526573,100.946839 L65.1716485,97.8836887 L72.9951986,98.1176321 L72.9203691,95.250786 L65.0926011,94.915605 L65.0280668,92.4571626 C68.3470475,92.652416 71.2386116,92.2530973 74.1915114,94.16317 L74.0713708,89.4988013 C68.2840246,89.1490087 62.5040598,88.7122888 56.7321793,88.1628824 L56.732478,88.1625006 Z M171.47413,89.3540896 C168.561125,89.520449 157.853392,89.4514992 156.073076,91.1763735 C155.197434,92.0243513 155.136661,93.2927108 155.136661,94.4344619 C155.136661,100.016434 158.841757,99.0119735 163.019262,99.0119735 C163.910721,99.0119735 164.758207,99.1205169 164.758207,100.209726 C164.758207,101.249491 163.933357,101.415009 163.073497,101.415009 L160.39406,101.41571 C158.538594,101.41571 157.058664,100.772582 155.447135,99.9210665 L155.616018,104.86667 L167.49194,104.86597 C171.477178,104.86597 172.567863,103.656589 172.567863,99.7494536 C172.567863,94.3891771 168.826562,95.6149836 164.968214,95.6149836 C164.29071,95.6149836 162.685578,95.6361725 162.685578,94.6559476 C162.685578,93.1105559 164.562063,93.028602 165.70484,93.028602 C167.980341,93.028602 169.512924,92.9428796 171.477072,94.2619384 L171.47426,89.3538094 L171.47413,89.3540896 Z M75.8607733,89.5989777 C76.1481195,89.8822265 76.3831283,90.208939 76.6063269,90.5429537 C77.013181,91.1518994 77.1107206,103.025866 77.155536,104.863525 L82.7608084,104.863525 C81.7665026,103.853531 81.6898418,102.242471 81.6898418,100.912576 C81.6898418,100.029575 81.7574763,99.1458035 81.7385835,98.261892 C83.836123,100.398718 85.9322566,102.536454 88.0503585,104.652196 L88.2624921,104.86425 L94.1450931,104.864951 L93.9549279,90.3051718 L89.1679332,90.1663089 L89.2681652,96.0813504 C88.74929,95.518355 83.6864429,89.9873412 83.6393427,89.9659771 C83.5795888,89.9388343 76.593297,89.6356643 75.8604323,89.5993209 L75.8607733,89.5989777 Z M152.247417,90.2091491 C149.405167,90.2936422 138.592583,89.9954 136.844956,91.607339 C135.970158,92.4137445 135.900316,93.6353482 135.900316,94.7477851 C135.900316,100.156744 139.65638,99.2570017 143.70594,99.2570017 C144.570193,99.2570017 145.510088,99.324421 145.510088,100.41714 C145.510088,101.417468 144.678383,101.559486 143.857645,101.559486 L141.748682,101.558786 C139.51406,101.558786 138.167663,101.093295 136.195431,100.072373 L136.355385,104.866327 L147.989128,104.867027 C151.85767,104.867027 153.319884,104.10328 153.319884,100.039802 C153.319884,95.0188984 149.520938,96.032115 145.897388,96.032115 C145.22955,96.032115 143.446527,96.0680136 143.446527,95.0799086 C143.446527,93.6951676 145.02375,93.5832339 146.068988,93.5832339 C148.390183,93.5832339 150.232081,93.5335467 152.240868,94.8473556 L152.247722,90.2096044 L152.247417,90.2091491 Z M96.103304,90.3569008 C96.3880141,90.6160748 96.6207381,90.9217524 96.8413005,91.2352087 C97.2534271,91.8205137 97.1589631,103.10802 97.1818102,104.864775 L102.785677,104.864775 C102.128383,104.215518 101.835554,103.364984 101.835554,102.453509 L101.868489,98.5228732 L108.007329,104.590265 L108.286738,104.864565 L114.173557,104.864565 L114.193452,90.6035331 L109.426844,90.5672807 L109.433698,96.320866 C108.913909,95.773631 103.97781,90.5319075 103.906457,90.5017876 C103.832204,90.4702669 96.845297,90.3707805 96.102942,90.3567677 L96.103304,90.3569008 Z M133.618243,90.5819519 C127.832302,90.629233 122.044956,90.6335583 116.258313,90.6134026 C116.54522,90.8616284 116.774938,91.1618284 116.992865,91.4691556 C117.369385,92.0001749 117.138981,103.237248 117.136344,104.864768 L133.63652,104.866169 L133.653673,100.241377 C132.27891,101.027644 131.719051,101.37073 130.076169,101.37073 L124.472302,101.375528 L124.482601,98.6448164 L132.293849,98.6297565 L132.295958,98.4088101 L132.303515,95.9790866 L124.492267,96.000976 L124.501863,93.81067 L129.374622,93.7792194 C131.234903,93.7792194 131.995009,94.0042424 133.603445,94.9174682 L133.617856,90.5819659 L133.618243,90.5819519 Z M216.507522,94.201233 L216.562439,101.691611 C218.174917,99.2570892 219.716745,96.7593159 221.183178,94.201233 L216.507255,94.201233 L216.507522,94.201233 Z M167.959192,110.322689 L165.826889,112.225701 L165.789128,115.276523 C161.548355,112.9615 158.129726,112.90767 152.393346,112.90767 C142.428847,112.90767 139.125156,115.687414 139.125156,123.069956 C139.125156,124.709909 139.213687,127.291283 141.909656,128.7619 C141.275209,127.528214 141.241677,126.179476 141.241677,125.179393 C141.241677,117.796536 144.545297,115.017108 154.510569,115.017108 C160.246246,115.017108 163.665578,115.070931 167.905649,117.385961 L167.959195,110.322514 L167.959192,110.322689 Z M72.6727241,110.700273 L70.5562039,112.33035 L70.5562039,116.654295 C68.9555712,115.870199 66.9692091,115.992149 64.6760633,115.992149 C62.4163796,115.992149 60.4732513,115.909624 58.2236907,116.041399 L57.0065026,116.112541 L57.028471,117.32742 C57.1536907,124.257079 56.7482636,127.086591 57.0861371,133.999789 C57.0993181,135.904622 57.0936239,135.915024 57.3168049,137.111516 C57.4411459,137.777829 57.6230721,138.708637 57.7403902,138.798366 C52.4166643,139.752323 50.661304,139.986978 45.3576134,141.118642 L42.9616907,143.973861 C48.7174025,142.602709 55.7282988,141.618701 61.7761019,140.535158 C61.6583515,140.444974 61.541536,140.35238 61.4259824,140.256067 C60.3398664,139.350721 59.2151213,138.013086 59.202362,136.108638 C58.8640492,129.19544 59.270355,126.366629 59.144696,119.436269 L59.1227276,118.22139 L60.3399156,118.150251 C62.5894763,118.018477 64.5328858,118.101685 66.7922882,118.101685 C69.0857856,118.101685 71.0717258,118.559156 72.6724288,119.343217 L72.6724288,110.700231 L72.6727241,110.700273 Z M220.827381,110.700273 L218.706046,112.752413 L218.689561,144.679417 C214.159156,143.277165 211.213638,142.604617 206.535606,141.540337 L204.970369,142.854402 C210.412197,144.12136 215.596731,145.175519 220.805518,146.78819 L220.827487,110.700448 L220.827381,110.700273 Z M118.570791,110.705736 L116.472794,112.225666 L116.525656,114.228564 C113.694794,113.06797 111.666956,113.281156 107.684179,113.281156 C103.283476,113.281156 98.813529,113.202848 94.4159895,113.293484 L93.1665343,113.318805 L93.1946889,122.242676 L95.3022812,120.915618 L95.2837575,115.427508 L96.5325097,115.401521 C100.930049,115.311336 105.399996,115.389893 109.800699,115.389893 C113.783476,115.389893 115.811596,115.861023 118.642879,117.022037 L118.570794,110.705631 L118.570791,110.705736 Z M191.428436,110.824759 L189.388822,112.435678 L189.382636,122.664158 L191.487487,121.082657 L191.428446,110.824759 L191.428436,110.824759 Z M38.7113884,116.02498 C34.6084007,115.998958 33.363761,116.657181 31.2786995,118.341159 L29.3633392,123.002375 C31.9288225,119.957997 34.7707206,117.603223 43.1313533,118.157988 L44.8249912,116.039514 L39.5712127,116.039514 C39.271181,116.031809 38.9852373,116.026871 38.7117047,116.025155 L38.7113884,116.02498 Z M113.143726,121.610104 C112.41877,121.621031 111.027206,122.9269 111.027206,122.9269 C105.083796,123.043352 100.436696,123.307601 94.3119156,123.579485 L93.0755009,123.634891 L93.1249315,133.104071 L95.1995536,131.100508 L95.1919965,125.743734 L96.4284112,125.68901 C102.553543,125.416706 107.200292,125.152877 113.143701,125.036426 L113.143701,121.610052 L113.143726,121.610104 Z M189.421406,126.2405 L189.496924,138.215229 C184.739807,137.443391 181.816784,136.925155 177.005888,136.373087 L175.159842,138.111911 C180.697276,138.712135 186.157733,139.439074 191.614675,140.323406 L191.537786,128.349378 L192.961617,128.512865 C196.199297,128.883689 201.58833,129.720215 204.838243,130.16893 L206.743304,128.569638 L201.759824,127.770692 C198.204815,127.263734 194.425905,126.813723 190.845589,126.403953 L189.42109,126.240469 L189.421406,126.2405 Z M118.662179,129.569055 C118.662179,129.569055 117.044851,131.725599 116.470158,131.944038 L116.545677,134.101527 C104.223708,134.384338 94.2651845,134.981936 82.0753779,136.373227 L79.53942,138.826906 C92.3953076,137.268381 105.627293,136.509887 118.660685,136.21044 L118.660685,129.56902 L118.662179,129.569055 Z M167.340562,131.206663 C166.527733,132.154912 165.998453,132.471415 165.202777,133.20956 L165.173251,135.486759 L163.405483,135.50455 C157.289842,135.50385 151.177715,135.230824 145.075782,134.965511 C136.114446,134.576335 129.268401,134.15161 125.370685,131.450948 C128.506889,136.07434 136.281406,136.601087 147.192127,137.075299 C153.29406,137.339723 159.406538,137.613218 165.522531,137.613638 L167.289596,137.595846 L167.340397,131.206943 L167.340562,131.206663 Z M126.236872,142.806294 C87.2034798,142.806294 53.4319508,147.504635 27.822109,155.099382 L37.8087522,164.238994 C59.246362,158.183511 86.7015466,154.100174 126.237575,154.100174 C164.079402,154.100174 190.771845,158.366331 211.970439,164.044266 L221.790826,154.273538 C196.486784,147.163861 163.024569,142.806994 126.237223,142.806994 L126.236872,142.806294 Z M121.312443,145.526744 L121.455237,152.36114 L120.159807,152.380298 L114.085641,148.242676 C113.845308,148.074565 113.620861,147.904948 113.395026,147.696106 C113.469279,148.224954 113.491989,148.582924 113.495944,148.78168 L113.573518,152.476961 L111.867543,152.502283 L111.725434,145.667887 L113.020197,145.648729 L118.837772,149.590923 C119.174327,149.810692 119.49517,150.045382 119.785153,150.319437 C119.725838,149.750312 119.685884,149.352731 119.68149,149.140841 L119.606661,145.55168 L121.312636,145.527059 L121.312443,145.526744 Z M134.390475,145.708699 L142.726151,145.959058 L142.676035,147.123994 L136.234559,146.930408 L136.170025,148.453105 L139.927142,148.56597 L139.877712,149.730906 L136.120594,149.618037 L136.047824,151.312417 L142.568387,151.508739 L142.513466,152.792684 L134.099054,152.540272 L134.390822,145.708678 L134.390475,145.708699 Z M106.647768,145.847558 L106.736327,147.010428 L100.303638,147.353132 L100.418974,148.873763 L104.171522,148.674023 L104.259395,149.837593 L100.506847,150.037337 L100.635223,151.72965 L107.146647,151.382155 L107.243445,152.664734 L98.8406327,153.112083 L98.3236907,146.289945 L106.647768,145.847359 L106.647768,145.847558 Z M150.774306,146.339387 L152.602496,146.439259 L156.737469,153.516365 L154.609279,153.399391 L153.749069,151.852073 L148.59406,151.570246 L147.531353,153.012215 L145.639332,152.908239 L150.774306,146.339317 L150.774306,146.339387 Z M89.8041828,147.004264 C92.1761336,147.059888 93.5560281,148.136839 93.7950439,149.980522 C93.960246,151.257988 93.4366257,152.371405 92.3808436,153.053934 C91.6484007,153.53333 90.5645694,153.752329 89.1199297,153.883665 L84.3919859,154.313923 L83.5132513,147.518052 L88.7273111,147.044015 C89.1062214,147.009553 89.4655888,146.996395 89.8044288,147.004341 L89.8041828,147.004264 Z M162.363058,147.09524 C162.523659,147.097342 162.698408,147.107043 162.888928,147.123294 L168.484007,147.600062 C169.96116,147.725707 170.457258,148.087793 170.308752,149.3136 C170.302144,149.366134 170.296134,149.418641 170.289525,149.471613 L168.416731,149.592005 L168.509409,148.827242 L162.616264,148.324451 L162.093838,152.634737 L167.987687,153.136827 L168.17167,151.620995 L165.091283,151.359005 L165.231332,150.198867 L170.15084,150.618197 L169.866626,152.964461 C169.711968,154.242382 169.184341,154.530306 167.660193,154.400266 L162.064411,153.923497 C160.540264,153.793474 160.092812,153.422212 160.247891,152.144291 L160.682443,148.559333 C160.817768,147.440417 161.238822,147.080905 162.363005,147.095475 L162.363058,147.09524 Z M151.522988,147.708143 L149.495044,150.384814 L153.057434,150.579084 L151.523093,147.70814 L151.522988,147.708143 Z M89.5300176,148.232123 C89.33271,148.22694 89.123058,148.233874 88.9011599,148.254013 L85.5564851,148.558412 L86.1132513,152.865195 L88.5476274,152.643566 C90.9346924,152.426423 92.0636204,151.817232 91.8456239,150.131748 C91.6887698,148.922018 90.9111775,148.268453 89.5300176,148.232169 L89.5300176,148.232123 Z M175.96587,148.35525 L177.842109,148.583719 L176.890615,154.077434 L182.940879,154.814143 L182.72051,156.085795 L174.794675,155.120595 L175.965852,148.355544 L175.96587,148.35525 Z M73.2312478,148.749259 L74.2253076,154.236669 L80.2699473,153.466443 L80.5006151,154.736728 L72.5818102,155.745707 L71.357065,148.988011 L73.2312302,148.74928 L73.2312478,148.749259 Z M188.159192,149.940848 L196.339508,151.305521 L196.069023,152.448568 L189.747054,151.394445 L189.392819,152.888387 L193.079989,153.504022 L192.808819,154.647069 L189.121649,154.031434 L188.726921,155.695029 L195.125866,156.762146 L194.827234,158.022835 L186.568534,156.645169 L188.159185,149.940708 L188.159192,149.940848 Z M64.9113884,149.991471 C65.7162039,150.014166 66.0850264,150.388947 66.3084359,151.334254 L67.1425308,154.868779 C67.4404218,156.129609 67.0368647,156.534545 65.5333568,156.784119 L59.6444288,157.761613 C58.1409139,158.011152 57.5837258,157.76543 57.2862566,156.505021 L56.4521617,152.969795 C56.15471,151.708966 56.5582707,151.304695 58.0613357,151.055155 L63.9502636,150.078328 C64.3261511,150.015836 64.6430931,149.983888 64.9113884,149.991457 L64.9113884,149.991471 Z M64.356696,151.25286 L58.2199649,152.271401 L59.2229525,156.521447 L65.3596837,155.502206 L64.356696,151.25286 L64.356696,151.25286 Z M202.514868,152.638057 C202.782935,152.649264 203.095431,152.702849 203.46362,152.791283 L207.913533,153.860431 C209.310721,154.196214 209.75304,154.633004 209.365518,155.766875 L209.317462,155.906421 L207.599114,155.838018 L207.85587,155.086948 L202.723357,153.853612 L202.240053,155.266862 L207.130035,156.44206 C208.602794,156.795793 208.980228,157.231409 208.557979,158.466847 L208.249047,159.370476 C207.827255,160.605914 207.232281,160.808172 205.759065,160.454019 L200.914425,159.289783 C199.441244,158.93563 199.064232,158.501135 199.486482,157.265697 L199.547582,157.08716 L201.252889,157.193872 L200.987209,157.970262 L206.530619,159.302084 L207.043448,157.79991 L202.154169,156.624712 C200.680988,156.270559 200.31909,155.83904 200.741339,154.604058 L200.989167,153.87761 C201.305511,152.951355 201.710397,152.604522 202.51458,152.638109 L202.514868,152.638057 Z M49.7486116,152.675679 C50.5452724,152.657607 50.9589455,152.992774 51.2307909,153.888491 C51.2461863,153.939713 51.261652,153.990496 51.2774763,154.041717 L49.5680562,154.694302 L49.3415079,153.949361 L43.6009104,155.174467 L44.8743726,159.372329 L50.6156731,158.147223 L50.1673779,156.670372 L47.1673076,157.311328 L46.8240492,156.181275 L51.6166678,155.158637 L52.3093568,157.444031 C52.6872127,158.68952 52.3107627,159.111057 50.8258067,159.428436 L45.3748401,160.591306 C43.8897786,160.908265 43.317652,160.688551 42.9397961,159.443496 L41.8804991,155.952119 C41.5026432,154.70663 41.8797961,154.283551 43.3647522,153.967013 L48.8157188,152.803443 C49.1754376,152.726721 49.4831353,152.681555 49.7486889,152.675528 L49.7486116,152.675679 Z M125.54123,158.39354 C119.61188,158.39354 113.960562,158.502248 108.565132,158.708884 C116.151072,163.097271 121.440703,167.316497 125.125764,171.012829 C125.125764,171.012829 125.377715,171.330772 125.773146,171.705094 C128.140457,167.207435 130.092302,162.765113 131.693708,158.433813 C129.673497,158.407126 127.623058,158.393456 125.54116,158.393456 L125.54123,158.39354 Z" id="Shape" fill="#FFDD00" transform="translate(124.953106, 95.083089) scale(-1, 1) rotate(-180.000000) translate(-124.953106, -95.083089) "></path>
                <path d="M8.75500879,4.98343558 C3.93989455,10.0109932 1.89279438,19.5785876 3.47908612,36.9023849 C5.71353251,61.3029379 13.7609842,83.3884678 25.7230228,102.108284 L22.219754,102.108284 L22.219754,154.327638 L22.219754,154.471972 L22.3350861,154.435716 L36.3241898,167.582315 C51.1937856,163.233854 69.1006397,159.447863 92.313645,157.559771 C121.827178,170.749098 125.243698,183.077909 125.243698,183.077909 C125.243698,183.077909 128.600675,170.657338 157.921026,157.478168 C180.57832,159.231491 198.641589,162.735126 213.365666,166.803052 L228.026123,152.918868 L228.276699,153.006426 L228.276699,102.107439 L224.254555,102.10814 C236.23909,83.39708 244.308685,61.3203058 246.544889,36.9022413 C248.131005,19.5777436 246.083378,10.0101491 241.268264,4.98259152 C241.268264,4.98259152 241.526531,23.9156975 217.941374,34.1721952 L179.709388,49.8880846 L182.910583,42.3882505 L167.670162,47.1251169 C169.035293,49.8599961 169.513817,53.2975777 168.479547,57.5787943 C165.960671,67.9999003 157.672165,71.4636791 157.403975,71.5736514 L152.622253,73.5402653 L153.736453,68.5064035 C154.547069,64.8468459 150.735083,63.6900348 149.154731,64.6769841 C148.998316,64.7746109 148.784467,64.8968903 148.542359,65.0579998 C148.356506,65.1818938 148.177754,65.3154472 148.011673,65.4691003 C147.69445,65.762856 147.389318,66.1571279 147.204327,66.7564772 C146.830408,67.9717768 146.742921,70.7834265 149.953817,76.4501547 C151.105838,78.4836625 152.16039,80.6581731 153.124819,82.9087537 L150.247631,83.0619795 C149.429529,81.2193473 148.548896,79.4433989 147.602499,77.7727998 C140.888967,65.9234542 146.333923,63.2627537 147.72058,62.3969841 C150.250457,60.8170247 157.960299,61.9262394 156.374007,69.0863851 C156.374007,69.0863851 163.642197,66.0980441 165.853445,56.9487998 C169.113128,43.4614265 154.981037,41.0381823 149.896327,39.3511224 C149.896327,39.3511224 154.484025,31.3676201 134.765571,28.8463113 C115.046415,26.3250726 100.42884,40.2186431 100.42884,40.2186431 L103.874429,41.363056 C103.874429,41.363056 95.4621265,49.7696367 91.7109842,58.2672772 L96.3847979,59.330962 C96.3847979,59.330962 92.7225835,65.6042892 90.7897188,75.3704643 L95.7324253,72.8490855 C95.7324253,72.8490855 95.8103585,77.7575648 95.0335501,83.5605325 C78.0251142,82.8876699 63.4307381,81.5110192 52.4957645,80.1950284 L21.21,75.5089454 C20.2627241,73.1733288 19.3748858,70.7990468 18.549754,68.3887611 L76.8977329,75.9117104 L15.5550264,58.4106966 C14.9957996,56.2567795 14.4864851,54.0783464 14.0281371,51.8718947 L74.1581898,66.7931113 L12.4218102,42.5732772 C12.1287522,40.4522118 11.8826538,38.3102726 11.6844815,36.149351 C11.4691916,33.794927 11.3271529,31.6261252 11.2533392,29.6277104 C15.4037786,34.0812404 21.1120387,38.35195 28.863181,41.7229178 L85.7700351,65.1165583 L80.1412127,55.1384938 L88.3408612,57.5825768 C89.6088752,55.1900828 91.2364675,52.6530837 92.8108084,50.3727335 L67.1152021,42.3825768 L70.3150264,49.8824109 L32.0795255,34.1710745 C8.49534271,23.9135261 8.75369069,4.98042009 8.75369069,4.98042009 L8.75500879,4.98343558 Z M131.957118,33.0883757 C132.322355,33.094925 132.689877,33.1099499 133.060351,33.1335239 C146.015009,33.9569856 145.897258,39.3522151 145.897258,39.3522151 C145.897258,39.3522151 143.063163,42.1086335 140.532759,38.2933285 C140.532759,38.2933285 140.605747,42.3300842 137.293814,41.5206317 C132.23652,40.2843183 122.479051,36.7308806 122.479051,36.7308806 L127.436872,41.9972953 C127.436872,41.9972953 125.843128,43.3034446 125.851037,46.0473598 C125.864218,50.2925027 129.564218,50.5702354 129.564218,50.5702354 C127.569069,53.2862723 128.574938,56.1178852 128.574974,56.1178852 C128.574974,56.1178852 123.292724,57.0246317 121.553884,62.1341432 C121.553884,62.1341432 124.871072,61.6220713 126.995712,61.7928087 C126.995712,61.7928087 121.922953,66.3993893 123.288506,72.6895276 C123.288506,72.6895276 125.412935,68.8625598 128.513462,67.8388363 C128.513462,67.8388363 127.23406,72.6898778 128.816214,77.8820437 C128.816214,77.8820437 130.768306,70.5685322 133.803209,70.0564953 C133.803209,70.0564953 132.495617,77.0278317 136.960467,83.6170667 C132.606865,83.7580345 128.093684,83.8651279 123.424439,83.9303583 C116.020221,84.0345519 108.878921,83.9743578 102.071188,83.7935513 C103.208271,79.1221781 104.028165,73.1668601 104.856355,65.5721135 L101.263033,67.1009394 C101.263033,67.1009394 102.561838,60.9999255 106.981135,54.1931974 L103.270415,54.6638371 C103.270415,54.6638371 106.236742,47.9761873 115.752664,41.6384177 L111.923842,40.5795311 C111.923842,40.5795311 120.633508,32.8842684 131.956179,33.0884527 L131.957118,33.0883757 Z M238.048506,42.5803204 C237.614411,45.7249692 237.076942,48.8259794 236.442074,51.8792881 L176.312021,66.8005047 L238.048401,42.5806706 L238.048506,42.5803204 Z M129.23304,43.2712199 L130.517504,43.8081932 L131.344745,46.411666 L133.088471,44.8821397 L134.19993,45.3466153 C134.026815,46.84343 132.687979,47.9386356 131.17174,47.8064236 C129.629561,47.6715849 128.488963,46.3171038 128.623409,44.7808881 C128.673497,44.2069305 128.89516,43.6884144 129.23304,43.2711849 L129.23304,43.2712199 Z M141.527241,43.6501692 C141.527241,43.6501692 153.682953,43.5449355 158.431283,47.7394595 C164.672408,53.2524365 159.730158,59.3531001 159.730158,59.3531001 C159.730158,59.3531001 158.150721,53.0128789 146.875325,52.344289 L135.709772,51.6821434 L133.543831,54.8136936 L136.178664,53.6425932 C136.178664,53.6425932 149.185343,53.559522 152.469701,56.4581305 L131.252478,56.1174789 C130.496344,51.1855342 135.813462,45.6918199 141.527346,43.6499766 L141.527241,43.6501692 Z M145.810545,45.4656236 C141.953603,45.438866 140.530053,46.8583499 140.530053,46.8583499 L146.22109,47.6237784 L146.615149,45.4909453 C146.336095,45.4754651 146.067698,45.4674098 145.810545,45.4656236 L145.810545,45.4656236 Z M234.914236,58.4178448 C234.035501,61.8084955 233.034552,65.1352641 231.918981,68.3959093 L173.571002,75.9223609 L234.910193,58.4213471 L234.914236,58.4178448 Z M229.258699,75.5160936 C227.885237,78.9019462 226.385589,82.2072457 224.769772,85.4272641 L216.465026,85.2391519 L216.408046,77.4384699 L229.259012,75.5163003 L229.258699,75.5160936 Z M37.3536028,83.1371075 C43.3110721,84.1063701 49.2889279,84.8928476 55.2892794,85.539478 L55.4032408,90.6780586 C53.1761054,89.1094466 52.5403585,89.2630227 49.9392689,89.0226595 C50.035051,91.8967204 49.5773005,100.915784 51.2367733,102.759047 L42.6891459,102.467644 L42.7173005,88.271755 C41.7783902,88.1841974 40.8376169,88.0357593 39.8929772,88.0357593 C38.9347346,88.0357593 38.1285835,88.5245058 37.3364218,89.0029906 L37.3535747,83.1373316 L37.3536028,83.1371075 Z M209.975747,83.5297508 L209.95652,89.3680918 C209.008822,88.7306724 208.047733,88.1806006 206.87065,88.1806006 C204.859684,88.1806006 202.817926,88.5659241 200.815466,88.7510909 L200.812654,91.528313 L208.651318,90.9030817 L208.641019,94.4411093 L200.810088,94.8795978 L200.807276,98.3408549 C201.838032,98.31063 202.870193,98.3360568 203.901371,98.3360568 C206.189596,98.3360568 208.175888,98.0031172 210.005062,96.5356623 L209.984464,102.765211 L193.484288,102.76451 C193.483585,100.775622 193.680822,87.1848605 193.295497,86.567054 C193.082844,86.2255794 192.85497,85.8908992 192.563687,85.609384 C198.38091,85.016619 204.184074,84.3288715 209.975638,83.5298909 L209.975747,83.5297508 Z M31.3043937,85.3055241 L31.4815149,92.0975425 L29.2771213,92.0975425 C28.0279824,89.918689 26.8336063,87.6968973 25.6968049,85.4323075 L31.3041863,85.3057587 L31.3043937,85.3055241 Z M190.995079,85.7617692 L190.997188,90.9220641 C189.810475,90.1935849 189.019332,89.7995406 187.591424,89.7995406 C185.686327,89.7995406 183.780879,90.0558393 181.881054,90.170995 L181.884569,92.6656863 L189.70109,92.2538853 L189.702496,95.3888678 L181.888787,95.6782212 L181.892302,98.787882 C182.882179,98.7699152 183.872267,98.8002101 184.862144,98.8002101 C187.083585,98.8002101 189.208014,98.5710544 191.07304,97.2576903 L191.078524,102.764363 L174.572724,102.763663 C174.570967,100.907862 174.767775,88.5919392 174.379814,88.0109069 C174.165399,87.6904461 173.937353,87.3778304 173.648671,87.1182396 C179.436721,86.7430728 185.219849,86.294988 190.995596,85.7617972 L190.995079,85.7617692 Z M56.7314587,86.0594651 C62.5033392,86.6089065 68.283304,87.0456088 74.0706503,87.395384 L74.1907909,92.0597526 C71.2378207,90.149666 68.3461511,90.5489987 65.0273462,90.3537453 L65.0918805,92.8121876 L72.9196485,93.1473687 L72.994478,96.0142147 L65.1709279,95.7802713 L65.2519367,98.8434216 C67.1210053,98.8788824 68.9911283,98.9419239 70.8600211,98.9419239 C72.5568576,98.9419239 73.0080703,98.63881 74.408,97.7886151 L74.537065,102.760136 L58.0340773,102.760136 C57.9866257,100.66926 57.8978172,87.9583478 57.4834974,87.1254999 C57.2884183,86.7341174 57.0107733,86.3939736 56.7317575,86.0590833 L56.7314587,86.0594651 Z M171.473111,87.251054 L171.475923,92.159183 C169.511951,90.8401453 167.979227,90.9258466 165.703691,90.9258466 C164.560914,90.9258466 162.684429,91.0077971 162.684429,92.5531923 C162.684429,93.5334171 164.289561,93.5122282 164.967065,93.5122282 C168.825764,93.5122282 172.566714,92.2863167 172.566714,97.6466982 C172.566714,101.553869 171.475712,102.763214 167.490791,102.763214 L155.614868,102.763915 L155.445986,97.8183112 C157.057585,98.6697913 158.53755,99.3129545 160.39291,99.3129545 L163.072348,99.312254 C163.932172,99.312254 164.757058,99.1467176 164.757058,98.1069711 C164.757058,97.0177545 163.909606,96.9092181 163.018112,96.9092181 C158.840608,96.9092181 155.135511,97.9133987 155.135511,92.3317065 C155.135511,91.1899554 155.196253,89.9215959 156.071926,89.0736181 C157.852243,87.3487333 168.560151,87.4176936 171.472981,87.2513342 L171.473111,87.251054 Z M75.859754,87.4959421 C76.5926186,87.5322785 83.5789104,87.8354485 83.6386643,87.8625983 C83.6856766,87.8840675 88.7483304,93.4148011 89.2674868,93.9779716 L89.1672548,88.0629301 L93.9542496,88.201793 L94.1444148,102.761572 L88.2618137,102.760871 L88.0496801,102.548817 C85.9315079,100.433005 83.8352689,98.2952689 81.7379051,96.1585132 C81.7567803,97.0424247 81.6891634,97.9261611 81.6891634,98.8091971 C81.6891634,100.139197 81.7658348,101.750257 82.7601301,102.760146 L77.1548576,102.760146 C77.1100422,100.922768 77.0125026,89.0486256 76.6056485,88.4395749 C76.3824499,88.1055392 76.1474411,87.7788302 75.8600949,87.4955989 L75.859754,87.4959421 Z M152.246397,88.1061135 L152.239543,92.7438647 C150.230756,91.4300804 148.388928,91.479743 146.067663,91.479743 C145.02239,91.479743 143.445202,91.5917082 143.445202,92.9764177 C143.445202,93.9644877 145.228225,93.9286241 145.896063,93.9286241 C149.519613,93.9286241 153.318559,92.9154426 153.318559,97.9363108 C153.318559,101.999684 151.856415,102.763537 147.987803,102.763537 L136.35406,102.762836 L136.194105,97.9688822 C138.166408,98.9898039 139.512664,99.4552951 141.747357,99.4552951 L143.85632,99.4559956 C144.677058,99.4559956 145.508763,99.3139876 145.508763,98.313649 C145.508763,97.2209301 144.568833,97.1535108 143.704615,97.1535108 C139.655054,97.1535108 135.898991,98.0531827 135.898991,92.6442942 C135.898991,91.5318924 135.968851,90.3102536 136.843631,89.5038481 C138.591434,87.8919126 149.403912,88.1901688 152.246091,88.1056582 L152.246397,88.1061135 Z M96.1022847,88.2538653 C96.8448155,88.2678745 103.831634,88.3673644 103.9058,88.3988852 C103.976977,88.42911 108.913181,93.6709036 109.43304,94.2179635 L109.426186,88.4643782 L114.192794,88.5006306 L114.1729,102.761663 L108.286081,102.761663 L108.006671,102.487362 L101.867831,96.4199707 L101.834896,100.350607 C101.834896,101.262081 102.127733,102.112616 102.785019,102.761873 L97.1811529,102.761873 C97.1583058,101.005047 97.2527698,89.7175412 96.8406432,89.1323062 C96.6200808,88.81885 96.3873568,88.5131688 96.1026467,88.2539983 L96.1022847,88.2538653 Z M133.617223,88.4789163 L133.602812,92.8144186 C131.994306,91.9011928 131.234165,91.6761698 129.373989,91.6761698 L124.50123,91.7076205 L124.491634,93.8979265 L132.302882,93.8760371 L132.295325,96.3057606 L132.293216,96.5267069 L124.481968,96.5417668 L124.47167,99.2724783 L130.075536,99.2676802 C131.718348,99.2676802 132.278172,98.924591 133.65304,98.1383272 L133.635888,102.76312 L117.135712,102.761719 C117.138524,101.134023 117.36877,89.8970553 116.992232,89.366106 C116.774306,89.0587788 116.544569,88.7585963 116.25768,88.510353 C122.043972,88.5304912 127.831318,88.5261834 133.61761,88.4789023 L133.617223,88.4789163 Z M216.506503,92.0981974 L221.182425,92.0981974 C219.715817,94.6562103 218.173989,97.1537735 216.561687,99.5885753 L216.50677,92.0981974 L216.506503,92.0981974 Z M146.696309,106.637663 C147.285483,106.635561 147.887838,106.636612 148.503199,106.640465 C155.417083,106.640465 162.328506,106.807973 169.237118,106.98659 L169.158169,117.527125 C164.260453,114.261226 161.06432,114.179413 154.509311,114.179413 C144.950787,114.179413 142.510366,116.654421 142.510366,123.076666 C142.510366,124.712242 142.631522,126.565766 144.627554,127.654878 C147.219399,129.068513 154.316482,129.111907 157.463406,129.111907 C161.779047,129.111907 164.721402,128.656432 168.62896,127.389473 L168.554819,136.745178 L165.540337,136.775263 C159.401497,136.775263 153.266875,136.501975 147.142446,136.236224 C133.29394,135.634703 122.570214,135.068906 122.570214,123.486436 C122.640439,109.96544 128.431374,106.707947 146.696401,106.637901 L146.696309,106.637663 Z M28.1022847,107.33196 L73.9441125,107.33196 L73.9441125,119.59878 C72.4287522,118.226297 70.000703,117.263444 66.7940246,117.263444 C64.560703,117.263444 62.6393673,117.179745 60.4161687,117.310644 C60.540949,124.233298 60.133768,127.055105 60.4738383,133.972506 C60.4738383,136.719188 63.3152794,137.993151 64.7262109,139.015123 C57.5908858,140.444939 48.6411494,141.664231 41.6938735,143.492819 L41.6938735,117.310294 C33.4689174,117.310294 31.7374587,119.69018 28.0980914,124.633612 L28.1022109,107.331529 L28.1022847,107.33196 Z M119.831634,107.33196 L119.940102,116.853324 C116.140102,115.169136 114.353107,114.55287 109.805831,114.55287 C105.413916,114.55287 100.953107,114.473631 96.563652,114.563797 L96.5808049,118.741346 C103.152334,118.550032 107.843722,118.293471 114.420524,118.226927 L114.420524,124.177342 C107.875005,124.278909 103.026499,124.559058 96.4922285,124.849749 L96.5636239,128.570948 C100.578035,128.353367 112.663448,128.314323 115.515469,127.425169 C116.941656,126.981252 118.625873,126.040358 119.940074,125.458555 L119.940074,135.34556 C106.06626,135.633624 91.9474552,136.431344 78.2810228,138.154933 C78.2621125,135.296177 78.2727979,112.001126 78.2727979,112.001126 C78.2727979,112.001126 77.9317399,109.755589 77.7318137,109.437335 C77.3012337,108.752634 76.4389842,107.982302 75.7601441,107.41668 C90.4912513,107.356703 119.830443,107.331858 119.830443,107.331858 L119.831634,107.33196 Z M200.889631,107.33196 L222.101582,107.33196 L222.078243,146.421176 C216.027276,144.402973 210.05188,143.254183 203.704605,141.752605 L203.704605,129.028033 C200.160141,128.522826 196.393181,128.074566 192.824112,127.666092 L192.901002,139.713318 C186.598366,138.657373 180.300299,137.817626 173.892917,137.144728 C173.926309,128.370756 173.993835,119.595383 173.993835,110.82141 C173.993835,110.185322 173.860654,109.583521 173.443255,109.014852 C172.999037,108.410249 172.299213,107.88788 171.682341,107.370415 L192.695698,107.460711 L192.767779,118.841098 C196.323139,119.080568 199.87393,119.346411 203.420503,119.642811 C203.439835,117.139994 203.504946,114.634516 203.504946,112.13282 C203.504946,110.090101 202.527547,108.96292 200.890042,107.330811 L200.889631,107.33196 Z M126.232337,140.702264 C163.019684,140.702264 196.481898,145.060181 221.78594,152.168808 L211.965554,161.939536 C190.768717,156.26195 164.074517,151.995444 126.232689,151.995444 C86.6966608,151.995444 59.2414763,156.07878 37.8038664,162.134264 L27.8207381,153.000255 C53.431283,145.403757 87.202109,140.707167 126.235501,140.707167 L126.232337,140.702264 Z M121.307909,143.422714 L119.601933,143.447335 L119.676763,147.036496 C119.681156,147.248385 119.721111,147.645967 119.780425,148.215091 C119.490443,147.941036 119.169599,147.706347 118.833044,147.486577 L113.015469,143.544384 L111.720707,143.563541 L111.862815,150.397938 L113.568791,150.372616 L113.491216,146.677335 C113.487244,146.478579 113.464538,146.120608 113.390299,145.591761 C113.616134,145.800585 113.840598,145.97022 114.080914,146.13833 L120.155079,150.275952 L121.45051,150.256795 L121.307715,143.422398 L121.307909,143.422714 Z M134.38594,143.604669 L134.094172,150.436263 L142.508583,150.688674 L142.563504,149.40473 L136.042942,149.208408 L136.115712,147.514028 L139.87283,147.626897 L139.92226,146.461961 L136.165142,146.349095 L136.229677,144.826399 L142.671153,145.019985 L142.721269,143.855048 L134.385592,143.60469 L134.38594,143.604669 Z M106.643234,143.743528 L98.3191564,144.186114 L98.8360984,151.008253 L107.23891,150.560903 L107.142112,149.278324 L100.630689,149.62582 L100.502313,147.933506 L104.254861,147.733763 L104.166988,146.570192 L100.414439,146.769932 L100.299104,145.249302 L106.731793,144.906598 L106.643234,143.743728 L106.643234,143.743528 Z M150.769772,144.235357 L145.634798,150.804278 L147.526819,150.908255 L148.589525,149.466286 L153.744534,149.748113 L154.604745,151.295431 L156.732935,151.412404 L152.597961,144.335298 L150.769772,144.235427 L150.769772,144.235357 Z M89.7996485,144.900234 C89.4607979,144.892284 89.101406,144.905418 88.7225308,144.939908 L83.508471,145.413945 L84.3872056,152.209816 L89.1151494,151.779558 C90.5597891,151.648222 91.6436555,151.429187 92.3760633,150.949827 C93.4318805,150.267298 93.9554657,149.153881 93.7902636,147.876415 C93.551522,146.032732 92.171529,144.955774 89.7994025,144.900157 L89.7996485,144.900234 Z M162.358524,144.99121 C161.234341,144.97664 160.813286,145.336134 160.677961,146.455068 L160.243409,150.040027 C160.088313,151.317947 160.53575,151.689192 162.05993,151.819232 L167.655712,152.296001 C169.179859,152.426024 169.707487,152.138096 169.862144,150.860196 L170.146359,148.513933 L165.226851,148.094602 L165.086801,149.25474 L168.167188,149.51673 L167.983206,151.032562 L162.089357,150.530472 L162.611782,146.220186 L168.504928,146.722977 L168.41225,147.48774 L170.285044,147.367348 C170.291652,147.314376 170.297663,147.261869 170.304271,147.209335 C170.452777,145.983528 169.956678,145.62146 168.479525,145.495797 L162.884446,145.019029 C162.693926,145.002778 162.519174,144.993077 162.358576,144.990975 L162.358524,144.99121 Z M151.518453,145.604113 L153.052794,148.475057 L149.490404,148.280788 L151.518348,145.604117 L151.518453,145.604113 Z M89.5254833,146.128093 C90.9066432,146.16438 91.6842179,146.817977 91.8410896,148.027673 C92.0590158,149.713156 90.9301582,150.322347 88.5430931,150.53949 L86.108717,150.761119 L85.5519508,146.454336 L88.8966257,146.149937 C89.1185062,146.129728 89.3281547,146.122864 89.5254833,146.128047 L89.5254833,146.128093 Z M175.961336,146.25122 L174.790158,153.016271 L182.715993,153.981471 L182.936362,152.709819 L176.886098,151.973109 L177.837592,146.479395 L175.961353,146.250926 L175.961336,146.25122 Z M73.2267135,146.645229 L71.3525483,146.88396 L72.5772935,153.641656 L80.4960984,152.632677 L80.2654306,151.362392 L74.2207909,152.132618 L73.2267311,146.645208 L73.2267135,146.645229 Z M188.154657,147.836818 L186.564007,154.541279 L194.822707,155.918945 L195.121339,154.658256 L188.722394,153.591139 L189.117121,151.927544 L192.804292,152.543179 L193.075462,151.400132 L189.388292,150.784497 L189.742527,149.290554 L196.064496,150.344678 L196.334981,149.201631 L188.154664,147.836958 L188.154657,147.836818 Z M64.9068541,147.88744 C64.63858,147.879875 64.3216169,147.911816 63.9457293,147.974312 L58.0568014,148.951139 C56.5537434,149.200678 56.1501582,149.604949 56.4476274,150.865779 L57.2817223,154.401005 C57.579174,155.661414 58.1363796,155.907135 59.6398946,155.657596 L65.5288225,154.680103 C67.0323374,154.430564 67.4358875,154.025593 67.1379965,152.764763 L66.3039016,149.230238 C66.0804815,148.284931 65.7116696,147.910149 64.9068541,147.887454 L64.9068541,147.88744 Z M64.3521617,149.14883 L65.3551494,153.398176 L59.2184183,154.417416 L58.2154306,150.16737 L64.3521617,149.14883 L64.3521617,149.14883 Z M202.510334,150.534027 C201.706116,150.500439 201.301265,150.847262 200.984921,151.773527 L200.737093,152.499975 C200.314879,153.734957 200.676735,154.166476 202.149923,154.520629 L207.039202,155.695827 L206.526373,157.198001 L200.982963,155.86618 L201.248643,155.089789 L199.543336,154.983077 L199.482236,155.161614 C199.060021,156.397052 199.436981,156.831513 200.910179,157.185701 L205.754819,158.349937 C207.228,158.70409 207.823009,158.501849 208.244801,157.266394 L208.553733,156.362764 C208.975947,155.127326 208.598548,154.691745 207.125789,154.337977 L202.235807,153.162779 L202.719111,151.749529 L207.851624,152.982866 L207.594868,153.733935 L209.313216,153.802338 L209.361272,153.662792 C209.748794,152.528921 209.306489,152.092149 207.909286,151.756348 L203.459374,150.6872 C203.091185,150.598767 202.778671,150.545171 202.510622,150.533974 L202.510334,150.534027 Z M49.7440773,150.571648 C49.4785202,150.577672 49.170826,150.622841 48.8111072,150.699563 L43.3601406,151.863133 C41.8750791,152.179654 41.4980316,152.602715 41.8758875,153.848239 L42.9351845,157.339616 C43.3130404,158.584686 43.885167,158.804385 45.3702285,158.487427 L50.8211951,157.324556 C52.3062566,157.00716 52.6826011,156.58564 52.3047452,155.340151 L51.6120562,153.054757 L46.8194376,154.077395 L47.162696,155.207449 L50.1627663,154.566492 L50.6110615,156.043344 L44.869761,157.26845 L43.5962988,153.070588 L49.3368963,151.845482 L49.5634446,152.590422 L51.2728647,151.937838 C51.2570475,151.886616 51.2415466,151.835833 51.2261793,151.784612 C50.9543234,150.888898 50.5406608,150.553727 49.744,150.571799 L49.7440773,150.571648 Z M125.536696,156.28951 C127.618418,156.28951 129.668858,156.303169 131.689244,156.329867 C130.087768,160.660816 128.135993,165.103139 125.768682,169.601148 C125.373251,169.226822 125.121301,168.908883 125.121301,168.908883 C121.436239,165.212551 116.146608,160.993325 108.560668,156.604938 C113.956098,156.398302 119.607417,156.289594 125.536766,156.289594 L125.536696,156.28951 Z" id="Shape" fill="#4F2984" transform="translate(125.011907, 94.029165) scale(-1, 1) rotate(-180.000000) translate(-125.011907, -94.029165) "></path>
            </g>
        </g>
    </g>
</svg>