<?xml version="1.0" encoding="UTF-8" standalone="no"?>
<svg width="250px" height="250px" viewBox="0 0 250 250" version="1.1" xmlns="http://www.w3.org/2000/svg" xmlns:xlink="http://www.w3.org/1999/xlink">
    <!-- Generator: Sketch 47.1 (45422) - http://www.bohemiancoding.com/sketch -->
    <title>SEMO </title>
    <desc>Created with Sketch.</desc>
    <defs></defs>
    <g id="Page-1" stroke="none" stroke-width="1" fill="none" fill-rule="evenodd">
        <g id="SEMO-" fill-rule="nonzero">
            <g id="Group" transform="translate(0.000000, 26.000000)">
                <path d="M164.352101,73.0972418 C164.352101,73.0972418 184.298222,77.0195788 194.84173,77.7903261 C197.405711,76.3342459 205.998114,72.5874457 219.570986,77.900625 L220.304418,73.0972418 C183.002874,73.0972418 164.352101,73.0972418 164.352101,73.0972418 Z M248.966864,31.8562092 C248.966864,35.3319701 248.076509,38.4068886 246.325431,41.0513723 C246.35035,45.3348709 246.412311,55.8058696 246.412311,55.8125951 C246.412311,56.733322 246.050647,57.3594701 245.571794,57.7549321 C244.154768,59.0711209 240.683594,61.7216576 235.138739,62.3827785 L237.362608,73.3447418 L227.655577,73.3447418 C231.155711,76.4916236 235.585937,82.9649592 235.585937,95.5793886 C235.585937,97.2170584 235.51118,98.9583016 235.350216,100.809171 C235.324623,101.04322 234.825566,105.169341 231.5625,109.683526 C228.762796,113.554749 223.312231,118.496678 213.101428,120.615224 C212.346444,123.255673 210.184537,128.529171 204.141298,134.414022 C199.335937,139.092982 193.002425,143.27358 185.317888,146.839463 C175.833782,151.239986 164.223464,154.725836 150.810884,157.19949 C150.193292,157.297011 95.1629849,165.915795 60.6667565,176.092887 C46.8541218,179.781848 38.8853718,187.266033 31.8547953,196.02269 C32.5303071,188.126902 35.6586746,181.303166 39.0059267,174.801583 C41.9140625,169.154817 46.5369073,161.431202 52.9067888,154.406372 C46.7692619,154.108431 36.5941541,153.13928 27.8636853,150.046202 L21.210264,147.689572 L27.9418103,145.56161 C28.1707974,145.489647 48.0374461,139.146787 62.6414332,129.790211 C60.1912716,129.711522 57.2662985,129.492942 53.9944774,129.01341 C45.0686961,127.709327 31.7483836,124.135374 18.9742726,114.520537 L13.714305,110.561209 L12.2339709,109.321692 C10.856681,109.522113 9.4450431,109.751454 7.99636315,110.013077 L0.0121228448,111.438893 L5.98195043,105.923947 C10.9839709,101.308207 18.9271282,94.5147351 28.360722,88.3662432 C37.9485453,82.1175408 46.9207974,77.9483764 55.1158405,75.9226427 C54.139278,75.1713995 53.0286907,74.2990965 51.8184267,73.3205299 L12.068292,73.3205299 C12.068292,73.3205299 13.711611,65.2196128 14.3554687,62.0465014 C10.6835937,62.0404484 0.0895743534,62.0068207 0.0895743534,62.0068207 L3.13510237,47.4076834 L4.40800108,47.4076834 L4.40800108,30.5501087 L3.13510237,30.5501087 L0.0882273707,15.9429008 L30.8701509,15.9429008 L30.8701509,2.13737772 C30.8701509,2.13737772 45.1171875,14.9690421 46.3240841,16.0545448 L50.0330011,16.0545448 L50.0330011,14.7840897 L64.6605603,11.7407812 L64.6605603,15.8850611 C67.6037177,15.8669022 73.4038254,15.8312568 73.4038254,15.8312568 C76.0162985,15.8312568 78.5856681,16.2758152 81.0189925,17.1191984 C80.8997845,16.5495448 80.7731681,15.9429008 80.7731681,15.9429008 L115.819639,15.9429008 C116.753098,15.4600068 129.067214,9.08620924 129.067214,9.08620924 C129.067214,9.08620924 131.558459,17.6316848 132.237338,19.9593954 L134.727236,19.9593954 C135.311153,17.6269769 137.485857,8.94430027 137.485857,8.94430027 C137.485857,8.94430027 150.034348,15.4203261 153.133755,17.0210054 C154.366245,14.6838791 158.517645,6.80826766 158.517645,6.80826766 L166.328125,21.6797894 C168.572872,17.4043614 174.137931,6.80826766 174.137931,6.80826766 C174.137931,6.80826766 176.435884,11.1684375 178.952721,15.9429008 L225.803475,15.9583696 C227.507408,15.4990149 229.409348,15.2730367 231.608971,15.2730367 C233.244208,15.2730367 234.890894,15.5017052 236.483702,15.9429008 C238.5081,16.4706228 240.314875,17.2434045 241.904027,18.2612462 C244.287755,19.7880086 244.609128,20.412462 245.571794,21.6797894 C246.213572,22.5246743 246.800183,23.5023442 247.331627,24.6127989 C248.360048,26.7333628 248.966864,29.1518682 248.966864,31.8562092 Z" id="Shape" fill="#FFFFFF" transform="translate(124.489494, 99.080034) scale(-1, 1) rotate(-180.000000) translate(-124.489494, -99.080034) "></path>
                <path d="M217.625269,40.3102174 C217.625269,40.3102174 217.640086,38.1788927 217.65827,35.6003193 L209.492187,43.7523505 L217.667026,51.8552853 L218.142511,51.7362432 C217.932381,50.7502785 217.820582,49.7266508 217.820582,48.6761209 C217.820582,45.4377717 218.642915,42.7145992 220.349542,40.3909239 C219.152748,40.3451902 217.625269,40.2920584 217.625269,40.3102174 L217.625269,40.3102174 Z M119.740032,42.9042595 L119.740032,52.0503261 L121.455415,52.0503261 L122.876482,58.8639742 L128.25229,58.8639742 L119.740032,42.9042595 Z M103.036773,52.1243071 L104.289467,52.1243071 L104.289467,49.1025204 L103.036773,49.1025204 L103.036773,52.1243071 Z M103.036773,34.8201562 L104.289467,34.8201562 L104.289467,30.4620041 L103.036773,30.4620041 L103.036773,34.8201562 Z M75.1077586,36.1854416 L75.1077586,46.3268886 C76.4715787,45.6765285 78.2900054,44.0018682 78.2900054,41.2571739 C78.2900054,38.6167255 76.5840517,36.8902785 75.1077586,36.1854416 Z M241.561153,45.1136005 C242.539062,45.3382337 243.945312,45.6650951 243.945312,45.6872894 C243.945312,45.6872894 244.044989,58.2378261 244.044316,58.2035258 C242.378098,59.783356 238.589036,62.4291848 232.546471,62.4291848 C232.453529,62.4291848 232.363281,62.4264946 232.27236,62.4251495 L234.465921,73.2378057 L146.622441,73.2378057 C146.680361,73.3111141 146.739628,73.3830774 146.796875,73.4563859 C146.796875,73.4563859 172.448141,80.8955095 195.407462,82.4518003 C195.407462,82.4518003 204.657866,75.7302921 221.426455,83.5110734 L222.703394,75.1458424 C222.703394,75.1458424 235.020205,79.5241712 232.989628,102.86248 C232.989628,102.86248 231.343615,117.389654 211.134159,120.841202 C211.134159,120.841202 208.324353,146.444674 150.380523,157.132235 C150.380523,157.132235 95.0457974,165.741603 59.9979795,176.082799 C59.9979795,176.082799 42.7141703,180.674327 35.6741649,190.677228 C35.6741649,190.677228 42.6077586,169.333716 58.399111,154.425876 C58.399111,154.425876 41.6695851,154.685482 28.6577317,150.075795 C28.6577317,150.075795 55.4519127,141.614389 70.3104795,129.450571 C70.3104795,129.450571 44.3568157,132.920951 20.4020744,114.889769 C20.4020744,114.889769 34.6443966,114.260258 47.8650323,110.887398 C40.7165948,108.675367 27.4003233,106.36447 7.57677802,109.943804 C16.7463631,101.482398 39.4962284,82.3811821 60.8391703,79.5053397 C60.8391703,79.5053397 57.4582435,77.1608152 52.6495151,73.2378057 L14.9521821,73.2378057 L17.2373384,61.9731929 C11.5308459,61.9651223 2.97817888,61.9348573 2.97817888,61.9348573 L5.0390625,52.0577242 L6.75377155,52.0577242 L6.75377155,30.4694022 L5.0390625,30.4694022 L2.97817888,20.5936141 L33.2159213,20.6837364 L33.2159213,9.74127717 L45.390625,20.7052582 L52.3780981,20.7052582 L52.3780981,18.9922622 L62.2689925,16.9342459 L62.2689925,20.5498981 L73.39507,20.4819701 C77.3841595,20.4819701 81.1132813,21.6091712 84.2827317,23.5595788 L83.6637931,20.5936141 L116.374596,20.5936141 L127.575431,14.7955231 L130.435749,24.6101087 L136.740302,24.6101087 L136.574623,24.526712 L139.034887,14.7027106 L154.111665,22.4855095 L158.490706,14.1781182 L166.305226,29.0577106 L174.1184,14.1781182 C174.1184,14.1781182 182.115436,29.3475815 187.987608,40.4870992 L187.987608,30.4694022 L186.272225,30.4694022 L184.211342,20.5936141 L208.133755,20.5936141 L207.58688,23.2138859 L210.10035,20.7052582 L226.099138,20.6070652 C227.735722,20.1282065 229.524515,19.9230774 231.586072,19.9230774 C238.960129,19.9230774 246.586746,25.2342391 246.586746,34.1220448 C246.586746,38.634212 244.933324,42.2572622 241.550377,45.1209986 L241.561153,45.1136005 Z" id="Shape" fill="#000000" transform="translate(124.782462, 100.209253) scale(-1, 1) rotate(-180.000000) translate(-124.782462, -100.209253) "></path>
                <path d="M227.828664,101.306861 C224.414736,107.852833 205.856008,112.330027 205.856008,112.330027 L203.510911,115.690781 C197.942484,114.609314 193.553341,106.564891 193.553341,106.564891 C184.715787,101.737969 175.444504,103.224314 169.3191,99.9906726 C163.191002,96.7597215 157.588227,85.8138995 157.588227,85.8138995 C171.390086,90.2715897 182.204337,86.7796875 191.425781,85.9968342 C200.647899,85.2133084 202.846175,83.9536141 209.771686,85.832731 C216.697198,87.7091576 219.313712,90.702697 219.313712,90.702697 C211.082301,87.3291644 207.046067,94.8019158 207.046067,94.8019158 C196.980738,97.6394226 167.64076,93.5402038 167.64076,93.5402038 C173.066406,96.7254212 195.387931,100.350489 202.452856,100.125183 C209.519127,99.8998777 212.613147,95.8847283 212.613147,95.8847283 C214.020744,100.85894 216.458109,103.312418 218.124327,104.75034 C218.766837,104.275516 224.240302,100.120476 224.962284,96.6662364 C225.617592,93.5381861 226.538254,85.9726223 226.20555,81.5034986 C226.20555,81.5034986 231.241245,94.7629076 227.828664,101.306861" id="Shape" fill="#B4B3B3" transform="translate(193.301553, 98.597140) scale(-1, 1) rotate(-180.000000) translate(-193.301553, -98.597140) "></path>
                <path d="M177.338362,80.0393478 C175.938847,80.1335054 174.883028,81.3428658 174.977963,82.7411332 C175.072926,84.137356 176.281897,85.1913293 177.681412,85.0971717 C179.07958,85.0023416 180.137123,83.7919859 180.042834,82.3964625 C179.945851,80.999594 178.73653,79.9445446 177.338362,80.0393478 Z M24.6659483,130.19038 C24.1958513,130.19038 23.6193427,130.201626 23.1842672,130.647508 C22.8084591,131.034899 22.7975593,131.469315 22.7854364,131.915891 L22.7854364,133.288333 C22.7975593,133.757103 22.8211746,134.226734 23.2326778,134.637638 C23.6556304,135.071436 24.1717942,135.071479 24.6533136,135.084257 L26.3107489,135.084257 L26.3107489,136.748856 L25.0416218,136.748856 L25.0416218,135.939692 L22.9032597,135.939692 L22.9032597,138.474361 L26.6158675,138.474361 C27.0273707,138.474361 27.4156519,138.473942 27.8028825,138.262087 C28.5551455,137.863935 28.5554149,137.112503 28.5668912,136.550248 L28.5668912,135.225101 C28.5668912,134.744224 28.5664698,134.109737 27.9670528,133.722345 C27.5441002,133.440545 27.0148976,133.440588 26.5569235,133.429155 L25.0415679,133.429155 L25.0415679,131.915907 L26.310695,131.915907 L26.310695,132.630483 L28.3195851,132.630483 L28.3195851,130.190348 L24.6659213,130.190348 L24.6659483,130.19038 Z M36.9321121,130.19038 C36.309806,130.19038 35.4876616,130.190128 35.1347522,131.058406 C34.9582974,131.468664 34.9579634,131.95102 34.9579634,132.43187 L34.9579634,136.479786 C34.9579634,137.019174 34.9584682,137.652774 35.4757112,138.086545 C35.9336853,138.46183 36.6148276,138.474313 37.132069,138.474313 L38.6358405,138.474313 C39.3524353,138.474313 40.3163901,138.461777 40.6100323,137.370893 C40.7157705,136.971396 40.715264,136.467895 40.715264,135.998452 L40.715264,132.571599 C40.715264,131.89162 40.71618,131.340126 40.4690194,130.907001 C40.0817619,130.22503 39.3411099,130.190327 38.5537716,130.190327 L36.9321121,130.190327 L36.9321121,130.19038 Z M46.8367457,130.19038 L46.8367457,131.915886 L47.3776401,131.915886 L47.3776401,136.479786 C47.3776401,137.20679 47.4008351,137.712067 47.8480334,138.098113 C48.2588631,138.450532 48.7527209,138.462218 49.1992188,138.474324 L51.1376347,138.474324 C51.6663254,138.474324 52.347764,138.462218 52.7592942,137.852238 C53.0765086,137.394228 53.0655226,136.749733 53.0655226,136.233911 L53.0655226,131.915897 L53.6053933,131.915897 L53.6053933,130.190391 L50.8093265,130.190391 L50.8093265,136.748603 L49.6454256,136.748603 L49.6454256,130.190391 L46.8367511,130.190391 L46.8367457,130.19038 Z M59.3970905,130.19038 L59.3970905,133.252601 L60.9955819,133.252601 L60.9955819,131.915886 L61.8290409,131.915886 L61.8290409,136.748808 L61.2891703,136.748808 L61.2891703,138.474313 L64.6261315,138.474313 L64.6261315,136.748808 L64.0852371,136.748808 L64.0852371,131.915886 L64.9197198,131.915886 L64.9197198,133.252601 L66.5182112,133.252601 L66.5182112,130.19038 L59.3969828,130.19038 L59.3970905,130.19038 Z M72.3335129,130.19038 L72.3335129,131.915886 L72.8744073,131.915886 L72.8744073,136.748808 L72.3335129,136.748808 L72.3335129,138.474313 L75.1179957,138.474313 L75.1179957,135.141995 L76.2934267,135.141995 L76.2934267,138.474313 L79.1010237,138.474313 L79.1010237,136.748808 L78.561153,136.748808 L78.561153,131.915886 L79.1010237,131.915886 L79.1010237,130.19038 L76.2934267,130.19038 L76.2934267,133.404975 L75.1179957,133.404975 L75.1179957,130.19038 L72.3335129,130.19038 Z M85.2106681,130.19038 L85.2106681,131.915886 L85.7515625,131.915886 L85.7515625,136.748808 L85.2106681,136.748808 L85.2106681,138.474313 L91.1923491,138.474313 L91.1923491,135.68219 L89.1707974,135.68219 L89.1707974,136.748808 L87.9721983,136.748808 L87.9721983,135.012757 L89.6643319,135.012757 L89.6643319,133.487941 L87.9721983,133.487941 L87.9721983,131.915832 L89.1707974,131.915832 L89.1707974,132.900505 L91.0628772,132.900505 L91.0628772,130.190327 L85.2110453,130.190327 L85.2106681,130.19038 Z M98.6993534,130.19038 L97.5596983,136.748592 L96.9482759,136.748592 L96.9482759,138.474098 L99.5096444,138.474098 L99.7916703,136.455359 L101.190216,136.455359 L101.484871,138.474098 L104.033631,138.474098 L104.033631,136.748592 L103.469569,136.748592 L102.305668,130.19038 L98.6993103,130.19038 L98.6993534,130.19038 Z M111.612608,130.19038 C111.141837,130.19038 110.567026,130.201626 110.132004,130.647508 C109.756196,131.034899 109.744246,131.469315 109.732123,131.915891 L109.732123,133.288333 C109.744246,133.757103 109.767198,134.226734 110.179359,134.637638 C110.601638,135.071436 111.118852,135.071479 111.601072,135.084257 L113.25743,135.084257 L113.25743,136.748856 L111.988303,136.748856 L111.988303,135.939692 L109.848917,135.939692 L109.848917,138.474361 L113.562602,138.474361 C113.974106,138.474361 114.361309,138.473942 114.748594,138.262087 C115.500857,137.863935 115.501503,137.112503 115.513626,136.550248 L115.513626,135.225101 C115.513626,134.744224 115.513206,134.109737 114.913788,133.722345 C114.490835,133.440545 113.96271,133.440588 113.504736,133.429155 L111.988357,133.429155 L111.988357,131.915907 L113.257484,131.915907 L113.257484,132.630483 L115.266374,132.630483 L115.266374,130.190348 L111.61271,130.190348 L111.612608,130.19038 Z M121.097522,130.19038 L121.097522,133.252601 L122.694935,133.252601 L122.694935,131.915886 L123.529418,131.915886 L123.529418,136.748808 L122.988524,136.748808 L122.988524,138.474313 L126.325485,138.474313 L126.325485,136.748808 L125.785614,136.748808 L125.785614,131.915886 L126.619073,131.915886 L126.619073,133.252601 L128.217565,133.252601 L128.217565,130.19038 L121.097414,130.19038 L121.097522,130.19038 Z M138.280172,130.19038 L138.280172,131.915886 L138.832651,131.915886 L138.832651,136.748808 L138.280172,136.748808 L138.280172,138.474313 L140.924677,138.474313 L140.924677,134.544067 C140.924677,134.261594 140.912608,134.216076 140.900485,133.969221 L142.897791,137.558993 L144.837231,134.003925 C144.813685,134.261513 144.813039,134.332928 144.813039,134.637579 L144.813039,138.474313 L147.493319,138.474313 L147.493319,136.748808 L146.952425,136.748808 L146.952425,131.915886 L147.493319,131.915886 L147.493319,130.19038 L144.896175,130.19038 L143.274515,133.216875 C143.110183,133.534321 143.062619,133.628478 142.910409,133.956685 C142.76965,133.604939 142.733238,133.534321 142.581029,133.216875 L140.924671,130.19038 L138.280167,130.19038 L138.280172,130.19038 Z M153.025323,130.19038 L153.025323,131.915886 L153.567295,131.915886 L153.567295,136.748808 L153.025323,136.748808 L153.025323,138.474313 L156.386476,138.474313 L156.386476,136.748808 L155.833998,136.748808 L155.833998,131.915886 L156.386476,131.915886 L156.386476,130.19038 L153.025323,130.19038 Z M163.77694,130.19038 C163.306843,130.19038 162.730711,130.201626 162.296336,130.647508 C161.919855,131.034899 161.908572,131.469315 161.896449,131.915891 L161.896449,133.288333 C161.908572,133.757103 161.932171,134.226734 162.343691,134.637638 C162.76597,135.071436 163.283831,135.071479 163.765404,135.084257 L165.421762,135.084257 L165.421762,136.748856 L164.152635,136.748856 L164.152635,135.939692 L162.01535,135.939692 L162.01535,138.474361 L165.726934,138.474361 C166.138438,138.474361 166.526342,138.473942 166.912926,138.262087 C167.665889,137.863935 167.666536,137.112503 167.677958,136.550248 L167.677958,135.225101 C167.677958,134.744224 167.677915,134.109737 167.079197,133.722345 C166.656245,133.440545 166.126395,133.440588 165.669068,133.429155 L164.152635,133.429155 L164.152635,131.915907 L165.421762,131.915907 L165.421762,132.630483 L167.43173,132.630483 L167.43173,130.190348 L163.776988,130.190348 L163.77694,130.19038 Z M175.327586,130.19038 C174.857489,130.19038 174.282004,130.201626 173.846983,130.647508 C173.471848,131.034899 173.458928,131.469315 173.448152,131.915891 L173.448152,133.288333 C173.458928,133.757103 173.481773,134.226734 173.893287,134.637638 C174.316913,135.071436 174.833427,135.071479 175.315,135.084257 L176.972435,135.084257 L176.972435,136.748856 L175.703308,136.748856 L175.703308,135.939692 L173.563922,135.939692 L173.563922,138.474361 L177.277608,138.474361 C177.688438,138.474361 178.076692,138.473942 178.464623,138.262087 C179.215593,137.863935 179.215808,137.112503 179.228631,136.550248 L179.228631,135.225101 C179.228631,134.744224 179.228211,134.109737 178.628793,133.722345 C178.205167,133.440545 177.676638,133.440588 177.218664,133.429155 L175.703308,133.429155 L175.703308,131.915907 L176.972435,131.915907 L176.972435,132.630483 L178.981325,132.630483 L178.981325,130.190348 L175.327662,130.190348 L175.327586,130.19038 Z M187.006466,130.19038 C186.384159,130.19038 185.561315,130.190128 185.209106,131.058406 C185.032651,131.468664 185.032311,131.95102 185.032317,132.43187 L185.032317,136.479786 C185.032317,137.019174 185.032441,137.652774 185.549009,138.086545 C186.006983,138.46183 186.688825,138.474313 187.205366,138.474313 L188.710216,138.474313 C189.426164,138.474313 190.390765,138.461777 190.684407,137.370893 C190.790819,136.971396 190.790695,136.467895 190.790695,135.998452 L190.790695,132.571599 C190.790695,131.89162 190.790189,131.340126 190.542344,130.907001 C190.155086,130.22503 189.415458,130.190327 188.628173,130.190327 L187.006514,130.190327 L187.006466,130.19038 Z M196.323815,130.19038 L196.323815,131.915886 L196.864709,131.915886 L196.864709,136.479786 C196.864709,137.20679 196.886853,137.712067 197.334052,138.098113 C197.746228,138.450532 198.239386,138.462218 198.685237,138.474324 L200.623653,138.474324 C201.152344,138.474324 201.833782,138.462218 202.245313,137.852238 C202.562527,137.394228 202.551541,136.749733 202.551541,136.233911 L202.551541,131.915897 L203.091412,131.915897 L203.091412,130.190391 L200.295399,130.190391 L200.295399,136.748603 L199.132575,136.748603 L199.132575,130.190391 L196.323901,130.190391 L196.323815,130.19038 Z M208.614224,130.19038 L208.614224,131.915886 L209.143551,131.915886 L209.143551,136.748808 L208.614224,136.748808 L208.614224,138.474313 L211.421821,138.474313 L211.421821,135.107345 L212.690948,135.107345 L212.690948,137.617855 C212.704418,138.392638 213.031525,138.462207 213.889547,138.474313 L215.452263,138.474313 L215.452263,136.748808 L214.899784,136.748808 L214.899784,135.8577 C214.888308,135.482415 214.86417,135.094862 214.581977,134.743789 C214.336158,134.44921 214.042861,134.380017 213.748518,134.308727 C214.923087,133.921335 214.935533,133.194546 214.935533,132.102964 C214.935533,131.563575 214.934995,131.023379 214.488292,130.611776 C214.042441,130.201518 213.442279,130.201814 212.937161,130.19038 L208.614208,130.19038 L208.614224,130.19038 Z M220.880388,130.19038 L220.880388,131.915886 L221.421282,131.915886 L221.421282,136.748808 L220.880388,136.748808 L220.880388,138.474313 L224.241541,138.474313 L224.241541,136.748808 L223.689063,136.748808 L223.689063,131.915886 L224.241541,131.915886 L224.241541,130.19038 L220.880388,130.19038 Z M100.497845,131.552276 L101.014542,135.024324 L99.9695528,135.024324 L100.497823,131.552276 L100.497845,131.552276 Z M37.2273707,131.915875 L38.460722,131.915875 L38.460722,136.748797 L37.2273707,136.748797 L37.2273707,131.915875 Z M187.302802,131.915875 L188.537177,131.915875 L188.537177,136.748797 L187.302802,136.748797 L187.302802,131.915875 Z M211.424569,131.915875 L212.693696,131.915875 L212.693696,133.557338 L211.424569,133.557338 L211.424569,131.915875 Z M133.407328,138.307294 C133.407328,138.307294 119.335129,164.69187 116.726832,169.584299 L116.726832,146.776098 C116.726832,145.169392 116.83438,145.442396 117.60555,145.354264 L119.006196,145.354264 L119.809106,141.503917 L104.152317,141.503917 L104.152317,145.354264 L105.45722,145.354264 C106.533459,145.476669 106.390625,145.993245 106.390625,146.776098 L106.390625,154.28019 L100.804957,154.28019 L100.804957,146.776098 C100.804957,145.220507 100.912672,145.449121 101.738362,145.354264 L103.084267,145.354264 L103.084267,141.503917 L87.3865302,141.503917 L88.1905172,145.354264 L89.5353987,145.354264 C90.373222,145.45044 90.4688039,145.235265 90.4688039,146.776098 L90.4688039,154.05206 C88.1621228,146.295625 80.7565194,141.393511 73.4073815,141.393511 C71.4091056,141.393511 61.7511315,141.477457 59.2640625,141.499651 L59.2640625,138.537237 L55.4083513,139.340106 L55.4083513,140.68204 C55.3113685,141.524078 54.9554688,141.616245 53.9277478,141.616245 L36.2456358,141.616245 L36.2456358,152.216239 L33.0865302,151.577313 C32.8440733,149.000085 31.7198276,146.605522 29.8569504,144.744699 C27.7287177,142.619427 24.8938039,141.448106 21.8790409,141.448106 C19.3817349,141.448106 6.70231681,141.503799 6.70231681,141.503799 L7.50522629,145.354146 L8.85010776,145.354146 C9.73372845,145.455029 9.78351293,145.510894 9.78351293,146.77598 L9.78351293,171.545887 C9.78351293,173.006675 9.76318427,172.866515 8.84590517,172.968743 L7.50522629,172.968743 L6.70231681,176.820166 L23.201778,176.820166 L22.3988685,172.968743 L21.0581897,172.968743 C20.125431,172.86517 20.1195043,172.990534 20.1195043,171.545887 L20.1195043,169.289656 L25.2685345,176.707661 L36.2453664,176.811697 L36.2453664,183.909029 L44.2432112,176.707317 L53.9280172,176.707317 C55.040625,176.707317 55.4086207,176.714742 55.4086207,177.641522 L55.4086207,178.983456 L59.2643319,179.786324 L59.2643319,176.824987 C61.7488147,176.846509 71.3844828,176.930072 73.4076509,176.930072 C81.4653017,176.930072 88.2864224,171.554534 90.4690733,164.20642 L90.4690733,171.545871 C90.4690733,173.085321 90.3733136,172.874569 89.5314655,172.968727 L88.1907866,172.968727 L87.3867996,176.82015 L103.084537,176.82015 L103.084537,172.968727 L101.742834,172.968727 C100.85986,172.869862 100.805226,172.912485 100.805226,171.545871 L100.805226,162.760697 L106.390894,162.760697 L106.390894,171.545871 C106.390894,173.085321 106.298206,172.873924 105.45431,172.968727 L104.152586,172.968727 L104.152586,176.82015 L117.146659,176.82015 L125.703233,181.320991 L126.809213,177.531551 C126.809213,177.531551 125.682651,176.969941 125.509591,176.899995 C124.865086,176.447366 124.873922,176.358616 125.4875,175.168141 L126.651401,172.803709 L140.224138,172.803709 C140.669316,173.708967 141.387446,175.171208 141.39014,175.176588 C142.00167,176.398593 142.015787,176.431252 141.262807,176.933623 L140.101061,177.512666 L141.061837,181.348324 L155.376492,173.84746 L158.496643,179.769166 L166.316686,164.878275 L174.135652,179.769166 L191.017117,147.751275 L191.017117,171.546248 C191.017117,172.881241 190.773481,172.891787 190.078432,172.969104 L188.737753,172.969104 L187.933766,176.820526 L204.434305,176.820526 L203.631395,172.969104 L202.290717,172.969104 C201.287214,172.85746 201.353109,172.926329 201.353109,171.546248 L201.353109,166.71225 L211.362807,176.708022 L224.33048,176.820462 L224.021094,175.580433 C225.817322,176.643069 228.293723,177.48882 231.597602,177.48882 C237.487689,177.48882 243.580361,173.305747 243.580361,166.30451 C243.580361,160.499559 240.269962,157.762531 237.387473,156.024113 C237.387473,156.024113 232.860964,153.291336 232.841406,153.27923 C230.786557,152.090154 230.786234,151.639112 230.786234,151.015681 C230.786234,150.056619 232.107516,149.483495 233.384456,149.483495 C235.245986,149.483495 236.737635,150.461981 237.279122,152.037103 L237.645334,153.103721 C237.645334,153.103721 240.946519,152.355464 240.946519,152.346048 C240.946519,152.346048 241.015975,143.693771 241.015975,143.702917 L240.514014,143.322504 C238.482117,141.783054 235.801137,141.003214 232.54688,141.003214 C228.933626,141.003214 225.918109,142.109754 223.822204,144.202044 C221.900059,146.121514 220.843055,148.797958 220.843055,151.743262 C220.843055,156.220429 222.755016,159.356577 227.03702,161.910131 L230.609704,164.062305 C232.69548,165.184126 233.078454,165.865235 233.078454,166.806112 C233.078454,167.436268 232.330232,168.283633 230.646503,168.283633 C227.6791,168.283633 225.393109,166.613169 224.530124,163.815343 L224.245997,162.890554 C224.245997,162.890554 220.665986,163.032753 220.665986,163.02401 L220.729127,172.150842 L205.224278,156.655728 C207.665657,154.232487 215.358438,146.597005 215.708653,146.269874 C216.900032,145.157469 217.042597,145.206539 218.328966,145.621478 L219.359192,141.504154 L207.283761,141.6166 L203.655313,145.238924 L204.43403,141.504149 L179.205582,141.581912 L179.205582,145.354512 L179.979019,145.354512 C180.579127,145.431183 180.788287,145.576917 180.393637,146.316049 L174.142559,158.517799 L171.923217,154.153567 L175.66007,147.103045 C176.493152,145.486225 176.516913,145.442536 177.331191,145.354404 L178.138303,145.354404 L178.138303,141.581805 L167.110824,141.616508 L166.31632,143.171777 L165.523917,141.616508 L154.506137,141.572389 L154.506137,145.354458 L155.301719,145.354458 C156.116643,145.442563 156.138734,145.486279 156.973863,147.103099 L160.709639,154.153621 L158.49132,158.517853 L152.231083,146.299424 L152.2216,146.282637 C151.862629,145.630958 152.055544,145.432743 152.489946,145.354727 L153.428631,145.354727 L153.437037,141.569483 L137.330894,141.504332 L138.294849,145.354679 L139.594472,145.354679 C140.418179,145.438748 140.434774,145.471407 141.180356,146.919417 L153.572597,170.425998 C153.096439,170.666773 152.083588,171.181895 151.975183,171.257221 C151.261282,171.479837 151.100938,171.409934 150.551369,170.341902 L133.406972,138.307331 L133.407328,138.307294 Z M59.2640086,145.354587 L60.8235453,145.354587 C61.8526401,145.471612 61.758028,145.783047 61.758028,146.776421 L61.758028,171.546328 C61.758028,172.830907 61.7693427,172.864266 60.8204203,172.969184 L59.2640086,172.969184 L59.2640086,166.301212 L55.4377155,166.309605 C55.2518373,166.975434 55.0826616,167.000022 53.9276401,167.000022 L46.5811961,167.000022 L46.5811961,163.76439 L53.9276401,163.76439 C55.3109914,163.76439 55.3434267,163.887974 55.4209052,164.365492 L55.4629849,165.224048 L59.2640086,165.224048 L59.2640086,153.064266 L55.4756466,153.045327 L55.5030172,153.610703 C55.2767241,154.528713 55.2153933,154.558574 53.927694,154.558574 L46.58125,154.558574 L46.58125,151.322942 L53.927694,151.322942 C55.3110453,151.322942 55.3434806,151.446902 55.4209591,151.925066 L55.4241918,151.986016 L59.2641703,152.003879 L59.2641703,145.3542 L59.2640086,145.354587 Z M202.286638,145.354587 L203.539978,145.354587 L201.353233,147.539366 L201.353233,146.776421 C201.353233,145.587345 201.510119,145.354587 202.286638,145.354587 Z M20.1206897,149.37205 L20.5395151,149.37205 C21.8609052,149.37205 23.5828341,150.390028 23.5828341,152.466876 C23.5828341,154.210783 22.2111207,155.563801 20.5395151,155.563801 L20.1206897,155.563801 L20.1206897,149.371996 L20.1206897,149.37205 Z M72.0953664,150.543747 L72.7383621,150.543747 C77.4218211,150.543747 81.3137931,154.347769 81.3137931,159.162128 C81.3137931,164.175348 77.2197737,167.782122 72.7383621,167.782122 L72.0953664,167.782122 L72.0953664,150.543747 Z M32.3362069,156.797427 L32.3362069,166.843775 L36.2466595,165.997809 L36.2466595,172.784151 L35.653125,172.973306 C35.263847,172.927572 35.1757058,172.868516 33.7189655,170.8327 L27.7561422,162.218624 C29.8122845,160.958956 31.4325431,159.055574 32.3390625,156.795145 L32.3362069,156.797427 Z M133.419181,159.044189 L135.573276,163.373771 L131.294504,163.373771 L133.419181,159.044189 Z" id="Shape" fill="#FFFFFF" transform="translate(125.141339, 131.971228) rotate(-360.000000) translate(-125.141339, -131.971228) "></path>
                <path d="M53.9008621,32.2465598 C53.9008621,32.2465598 75.0587284,54.5414674 100.608297,59.2821685 C94.721444,58.2592402 67.5889009,53.6370163 53.6772629,52.8864457 C53.6772629,52.8864457 84.0231681,67.6600435 90.8044181,80.6451848 C90.8044181,80.6451848 59.6880388,74.2403152 42.7887931,81.7748609 C42.7887931,81.7748609 74.2661638,88.0678174 81.0387931,97.0407685 C81.0387931,97.0407685 53.2198276,106.705643 33.4515086,100.590618 C33.4515086,100.590618 63.8238147,121.55602 91.1293103,115.61064 C85.471444,117.280619 74.7769397,120.932643 64.330819,127.180727 L136.087284,127.180727 C139.37597,124.823451 141.453125,123.032949 141.453125,123.032949 C141.453125,123.032949 127.725216,128.22819 120.163254,124.876179 C120.163254,124.876179 139.616379,119.17238 150.184267,106.245347 C150.184267,106.245347 138.54472,104.255286 127.720366,107.768064 C127.720366,107.768064 134.247306,94.7027543 137.10722,90.2299989 C137.10722,90.2299989 126.016703,89.2303141 118.891164,81.6057 C118.891164,81.6057 129.996767,85.2525049 138.962284,76.0202707 C138.962284,76.0202707 123.724677,71.8604413 112.79903,74.975713 C112.79903,74.975713 118.650862,70.5903897 132.127155,66.411137 C132.127155,66.411137 124.859375,63.2630446 121.780711,55.9978435 C121.780711,55.9978435 132.623922,64.889012 148.537177,61.2868647 C148.537177,61.2868647 142.793103,58.4241505 140.599677,56.5463788 C140.599677,56.5463788 192.625539,67.2728136 200.535022,71.6944549 C200.535022,71.6944549 180.883082,47.5045582 117.113685,46.4768951 C88.8033405,46.0209033 53.8970905,32.2461832 53.8970905,32.2461832 L53.9008621,32.2465598 Z M175.59806,67.9791033 C168.815733,68.1058017 163.952047,70.0997478 163.952047,70.0997478 C185.904634,71.4280696 192.13847,80.1606228 192.13847,80.1606228 C197.801724,80.4821038 200.323276,76.0842978 200.323276,76.0842978 C200.323276,76.0842978 197.277748,72.7696272 185.759159,69.3259337 C182.159968,68.2492011 178.681034,67.921156 175.59806,67.9787266 L175.59806,67.9791033 Z M173.342942,76.7927935 C171.537338,78.5596207 170.483351,80.9452516 170.658459,83.5129565 C170.995205,88.4696821 175.72236,92.1872935 181.213416,91.8149674 C186.245744,91.4753274 190.132058,87.8071891 190.494127,83.3816739 C188.272953,82.5268304 186.588955,81.3854788 184.63583,80.1607842 C182.598545,78.882931 177.334644,77.6199815 173.343265,76.7927397 L173.342942,76.7927935 Z M177.676455,80.0378413 C178.441756,80.0859424 179.123006,80.4805919 179.559052,81.070831 C179.920043,80.8798255 180.323707,80.7543915 180.76083,80.7261442 C182.416272,80.6138276 183.847414,81.8599094 183.959914,83.513048 C184.071713,85.1661866 182.821767,86.594961 181.167026,86.7066589 C179.896121,86.7940909 178.761207,86.074673 178.252047,84.9884708 C178.07021,85.0422752 177.882936,85.0832579 177.686961,85.096709 C176.288793,85.1901941 175.078502,84.1368933 174.983513,82.7406704 C174.888551,81.342403 175.944397,80.1330427 177.343912,80.0388851 C177.456218,80.0311373 177.567117,80.0309759 177.676449,80.037809 L177.676455,80.0378413 Z M58.0428341,140.083493 L56.7011315,140.364072 L56.7011315,140.754999 C56.5341056,142.315325 56.1461746,142.87489 53.9640625,142.87489 L37.5394935,142.87489 L37.5394935,155.760493 C35.5284483,155.704671 35.1373922,155.20378 34.9697198,153.696612 L34.9697198,153.252097 L33.6290409,152.972567 L33.6290409,165.301295 L34.9697198,165.021766 L34.9697198,164.630845 C35.1374192,163.069174 35.5284483,162.567717 37.5394935,162.511223 L37.5394935,181.089326 L43.7964978,175.454396 L53.9640625,175.454396 C56.1428341,175.454396 56.5334591,176.01337 56.7011853,177.575041 L56.7011853,177.965962 L58.0428879,178.245492 L57.9892241,167.285008 L56.4601832,167.285008 C56.1497037,168.020083 55.5070043,168.257037 53.9640625,168.257037 L45.3600754,168.257037 L45.3600754,162.510733 L53.9640625,162.510733 C56.0626616,162.510733 56.6022629,163.131151 56.6864224,164.217353 L58.0428879,164.217353 L58.0428879,154.038646 L56.6685345,154.038646 C56.5769397,154.753599 56.2114871,155.759955 53.9640625,155.759955 L45.3600754,155.759955 L45.3600754,150.069607 L53.9640625,150.069607 C55.4558728,150.069607 56.1056573,150.292266 56.4275862,150.970185 L57.9903017,150.970185 L58.0429418,140.083413 L58.0428341,140.083493 Z M133.409213,140.976753 L117.431843,170.93609 C116.762392,172.235465 116.241164,172.669559 115.538685,172.666868 C115.491541,172.362201 115.471336,171.993991 115.471336,171.54876 L115.471336,146.778853 C115.471336,144.603113 115.973588,144.268396 117.538093,144.102302 L117.985334,144.102302 L118.264203,142.763488 L105.135431,142.763488 L105.135431,144.102302 L105.526902,144.102302 C107.090749,144.268423 107.649423,144.603145 107.649423,146.778853 L107.649423,155.538739 L99.5486692,155.538739 L99.5486692,146.778853 C99.5486692,144.603113 100.107398,144.268396 101.671245,144.102302 L102.063761,144.102302 L102.063761,142.763488 L88.9339116,142.763488 L89.2127802,144.102302 L89.6052963,144.102302 C91.1691433,144.268423 91.7278718,144.603145 91.7278718,146.778853 L91.7278718,171.54876 C91.7278718,173.724501 91.1691433,174.060616 89.6052963,174.22741 L89.2127802,174.22741 L88.9339116,175.567246 L102.063761,175.567246 L102.063761,174.22741 L101.671245,174.22741 C100.107398,174.060616 99.5486692,173.724468 99.5486692,171.54876 L99.5486692,161.507793 L107.649423,161.507793 L107.649423,171.54876 C107.649423,173.724501 107.090695,174.060616 105.526902,174.22741 L105.135431,174.22741 L105.135431,175.567246 L117.478103,175.567246 L124.919375,179.525847 L125.30979,178.189132 C125.30979,178.189132 125.087074,178.077192 124.919375,178.022042 C123.634353,177.127545 123.409246,176.45838 124.359515,174.618271 L125.869591,171.54868 L141.008599,171.54868 L142.516573,174.618271 C143.466196,176.514875 143.243297,177.127545 141.90305,178.022042 C141.79125,178.077192 141.567355,178.189132 141.567355,178.189132 L141.90305,179.525847 L153.801756,173.223743 L152.90833,172.163421 C152.90833,172.163421 152.68549,172.275609 152.573691,172.387253 C151.064423,172.888978 150.449553,172.888435 149.444057,170.935988 L133.409574,140.976651 L133.409213,140.976753 Z M232.547144,142.259879 C225.451778,142.259879 222.099407,146.778853 222.099407,151.745048 C222.099407,155.705048 223.664116,158.439385 227.686153,160.837983 L231.205119,162.957551 C233.384537,164.129141 234.334752,165.134583 234.334752,166.807898 C234.334752,168.369569 232.770528,169.540136 230.646336,169.540136 C227.462769,169.540136 224.445905,167.811995 223.328448,164.184936 L221.932004,164.240634 C221.932004,165.8581 221.987775,170.59977 221.987775,172.218743 C224.277645,175.007853 227.630016,176.23513 231.597689,176.23513 C236.624628,176.23513 242.322904,172.720684 242.322904,166.306613 C242.322904,161.619609 239.976945,159.053249 236.736158,157.100152 L232.212182,154.366837 C230.088637,153.140098 229.529801,152.35746 229.529801,151.017731 C229.529801,149.345062 231.261643,148.229805 233.384488,148.229805 C235.953885,148.229805 237.798551,149.680478 238.469348,151.633576 L239.698443,151.352992 C239.698443,148.565281 239.753163,146.445659 239.753163,144.323992 C238.133443,143.097253 235.842872,142.260111 232.546805,142.260111 L232.547144,142.259879 Z M73.4092134,142.6508 C71.0068427,142.6508 60.2244073,142.763246 60.2244073,142.763246 L60.5032759,144.10206 L60.8947414,144.10206 C62.4579418,144.26818 63.0173168,144.602903 63.0173168,146.778611 L63.0173168,171.548518 C63.0173168,173.724258 62.4579418,174.060374 60.8947414,174.227168 L60.5032759,174.227168 L60.2244073,175.567004 C60.2244073,175.567004 70.9512392,175.678395 73.4092134,175.678395 C82.5158944,175.678395 89.9442349,168.257699 89.9442349,159.164226 C89.9442349,150.070753 82.5158944,142.651134 73.4092134,142.651134 L73.4092134,142.6508 Z M21.8806573,142.707548 C18.4162177,142.707548 8.2497306,142.763246 8.2497306,142.763246 L8.52859914,144.10206 L8.92006466,144.10206 C10.4846121,144.26818 11.0426401,144.602903 11.0426401,146.778611 L11.0426401,171.548518 C11.0426401,173.724258 10.4846121,174.060374 8.92006466,174.227168 L8.52859914,174.227168 L8.2497306,175.567004 L21.657597,175.567004 L21.3787284,174.227168 L20.9872629,174.227168 C19.422069,174.060374 18.8636638,173.724226 18.8636638,171.548518 L18.8636638,165.277083 L25.9288578,175.454714 L35.8647414,175.56716 L35.8647414,174.227324 C35.8647414,174.227324 35.6918642,174.283818 35.5416756,174.227324 C34.5705011,174.11568 34.3595636,173.891848 32.6846175,171.548674 L25.9168373,161.777805 C29.4324623,160.232275 31.8823545,156.726222 31.8823545,152.638598 C31.8823545,147.171538 27.4127963,142.709006 21.8818157,142.709006 L21.8806573,142.707548 Z M138.944235,142.763246 L139.278874,144.10206 L139.669289,144.10206 C141.291056,144.26818 141.45889,144.715052 142.408513,146.555861 L158.497414,177.074225 L166.318534,162.177953 L174.140733,177.074225 L190.230711,146.555861 C190.774246,145.43673 191.07042,144.833422 191.582974,144.4951 C192.076643,144.838103 192.275431,145.480581 192.275431,146.778611 L192.275431,171.548518 C192.275431,173.724258 191.717403,174.060374 190.152909,174.227168 L189.760388,174.227168 L189.481525,175.567004 L202.891546,175.567004 L202.610571,174.227168 L202.220156,174.227168 C200.656309,174.060374 200.096557,173.724226 200.096557,171.548518 L200.096557,163.682861 L211.885889,175.454714 L222.723712,175.56716 L222.388017,174.227324 C222.388017,174.227324 222.164628,174.283818 221.997602,174.227324 C220.992753,174.11568 220.711503,173.891848 218.309186,171.548674 L203.449273,156.653479 L213.393777,146.778229 C215.741568,144.434404 216.07535,144.212622 217.024327,144.101678 C217.192026,144.045183 217.415792,144.101678 217.415792,144.101678 L217.751482,142.762864 L207.806977,142.874255 L200.096309,150.573119 L200.096309,146.77846 C200.096309,144.60272 200.656061,144.268003 202.219908,144.101909 L202.610323,144.101909 L202.891298,142.763095 L180.190329,142.763095 L180.190329,144.119772 C181.665975,144.324901 182.383324,145.264298 181.515221,146.889835 L174.140221,161.283574 L170.508648,154.143737 L174.531708,146.555172 C175.449003,144.777584 175.691514,144.300555 177.117268,144.12031 L177.117268,142.772027 L167.882893,142.873959 L166.318077,145.940377 L164.754337,142.873959 L155.48979,142.773076 L155.48979,144.117109 C156.941837,144.29399 157.18187,144.764106 158.1059,146.555091 L162.12896,154.143656 L158.497387,161.283493 L151.121848,146.889754 C150.260426,145.330074 150.96118,144.342172 152.417268,144.12491 L152.417268,142.763015 L138.944208,142.763015 L138.944235,142.763246 Z M18.8634159,148.118446 L20.5397629,148.118446 C22.9427802,148.118446 24.8417026,150.070038 24.8417026,152.469012 C24.8417026,154.868686 22.9427802,156.820654 20.5397629,156.820654 L18.8634159,156.820654 L18.8634159,148.118339 L18.8634159,148.118446 Z M70.8391703,149.290144 L72.7386315,149.290144 C78.1567349,149.290144 82.5716056,153.696881 82.5716056,159.164318 C82.5716056,164.631377 78.1568427,169.040106 72.7386315,169.040106 L70.8391703,169.040106 L70.8391703,149.290144 Z M133.409213,156.206693 L137.600647,164.630301 L129.276832,164.630301 L133.409321,156.206693 L133.409213,156.206693 Z" id="Shape" fill="#C8102E" transform="translate(125.286317, 106.667754) rotate(-360.000000) translate(-125.286317, -106.667754) "></path>
                <path d="M57.3653017,140.865163 C57.3262392,140.872588 57.3223599,140.873503 57.2853233,140.880928 C57.0570097,142.865663 56.2332759,143.507064 53.9252478,143.507064 L38.1337608,143.507064 L38.1337608,156.412575 L37.4823599,156.393636 C36.5556358,156.367379 35.8857543,156.238109 35.4008405,155.952273 C35.8561207,156.71834 36.685,157.018837 38.1484698,157.05989 L38.8008944,157.077753 L38.8008944,144.173318 L54.5913039,144.173318 C55.9935129,144.173318 56.8478772,143.566244 57.3536961,142.935388 C57.3590841,141.79339 57.3639332,141.240443 57.3652802,140.865158 L57.3653017,140.865163 Z M133.405172,142.322723 C132.366649,144.269095 118.071121,171.075766 117.988685,171.231799 L117.987608,171.232875 C117.436153,172.303097 116.757759,173.290138 115.556735,173.298854 C115.562123,173.341898 115.566433,173.38641 115.572522,173.428109 L115.655657,173.962999 C116.969235,173.962999 117.810237,172.990647 118.469612,171.715215 L118.475,171.706821 C118.48319,171.691487 131.928125,146.535533 133.789655,143.045245 C133.595016,142.682738 133.550356,142.593961 133.405555,142.322222 L133.405172,142.322723 Z M232.543103,142.894394 C225.29903,142.894394 222.730065,147.661728 222.730065,151.744671 C222.730065,154.603027 223.579526,156.707746 225.562931,158.519715 C224.052963,156.85716 223.396175,154.48568 223.396175,151.969573 C223.396175,147.886469 225.671767,143.55834 232.914494,143.55834 C236.598491,143.55834 239.112231,144.717339 239.112769,144.655464 C237.444558,143.4906 235.239709,142.894233 232.543265,142.894233 L232.543103,142.894394 Z M73.4051724,143.284266 C71.408944,143.284266 63.5107759,143.362745 60.9994612,143.388302 C61.0081897,143.43269 61.008944,143.436672 61.0183728,143.479726 C61.7652478,143.56245 62.3483836,143.711042 62.7747306,144.041928 C65.9758082,144.010345 72.3124461,143.950503 74.070528,143.950503 C78.2859375,143.950503 82.1238685,145.596863 84.9724677,148.279009 C82.0704203,145.206135 77.9579203,143.284244 73.4051185,143.284244 L73.4051724,143.284266 Z M21.8766164,143.341013 C19.0102371,143.341013 11.4644397,143.378676 9.02424569,143.391428 C9.03300108,143.433826 9.03443427,143.439368 9.04318966,143.479699 C9.7975,143.563769 10.3841379,143.713748 10.8110776,144.05137 C13.9246552,144.035229 20.0303664,144.005153 22.5422198,144.005153 C24.9620474,144.005153 27.1699138,144.921979 28.8342457,146.421075 C27.1188362,144.531897 24.6348384,143.340992 21.8762716,143.340992 L21.8766164,143.341013 Z M89.7106681,143.395657 C89.7193966,143.43671 89.7193966,143.440745 89.7274784,143.479726 C90.4898707,143.565141 91.0814116,143.716212 91.5090517,144.061889 L99.7590517,144.061889 C100.186719,143.716196 100.777586,143.565124 101.540625,143.479726 L101.543858,143.395657 L89.7103448,143.395657 L89.7106681,143.395657 Z M105.62931,143.395657 L105.62931,143.476573 C106.401131,143.561988 106.999192,143.713522 107.430927,144.061911 L115.647522,144.061911 C116.054984,143.731687 116.641487,143.559809 117.463847,143.472376 C117.471228,143.436704 117.472198,143.434014 117.479634,143.395662 L105.629418,143.395662 L105.62931,143.395657 Z M139.752155,143.395657 C139.762284,143.435364 139.763793,143.440261 139.773222,143.476573 C140.582058,143.564005 141.106304,143.746477 141.513793,144.061911 L150.885022,144.061911 C151.158459,143.850056 151.501562,143.694319 151.894181,143.590073 L151.894181,143.395662 L139.752478,143.395662 L139.752155,143.395657 Z M180.683728,143.395657 L180.683728,143.567998 C181.155846,143.682332 181.504418,143.860812 181.762392,144.061905 L191.097522,144.061905 C191.139978,144.028977 191.183265,143.997593 191.229062,143.967328 L191.587904,143.728781 L191.941487,143.975738 C191.98055,144.003285 192.017338,144.032313 192.053033,144.061905 L200.307344,144.061905 C200.734337,143.716212 201.325501,143.565141 202.087893,143.479742 C202.096676,143.440734 202.097053,143.436699 202.105781,143.395673 L180.683367,143.395673 L180.683728,143.395657 Z M216.932112,143.405126 C215.587177,143.420622 208.517241,143.500253 208.067349,143.50496 C207.779095,143.792814 202.094828,149.46971 200.123384,151.436797 L200.123384,152.373101 C200.123384,152.373101 207.997306,144.514438 208.346444,144.166861 C208.668373,144.164171 212.768427,144.124302 215.346444,144.095404 C215.905442,143.685818 216.321067,143.549774 216.91444,143.476439 C216.921821,143.444802 216.922899,143.439959 216.932328,143.404981 L216.932112,143.405126 Z M155.978448,143.411422 L155.978448,143.554337 C156.512527,143.658583 156.903825,143.825629 157.224407,144.081872 C159.364062,144.105385 163.441002,144.150769 164.695851,144.164892 C164.540275,143.858207 164.417026,143.618509 164.359106,143.50283 C163.771175,143.49675 158.060614,143.434272 155.978179,143.411405 L155.978448,143.411422 Z M176.59375,143.411422 C174.46417,143.434988 168.851832,143.496793 168.269935,143.502846 C168.047683,143.939334 166.907866,146.176276 166.478879,147.016915 C166.767134,147.582507 166.980841,148.003687 166.980841,148.003687 C166.980841,148.003687 168.661013,144.708763 168.937144,144.168029 C169.387037,144.164263 172.856972,144.125201 175.388114,144.097621 C175.701288,143.841377 176.078847,143.671388 176.594095,143.563779 L176.594095,143.411405 L176.59375,143.411422 Z M217.232759,143.436656 C217.204203,143.434504 217.164397,143.434504 217.199084,143.442951 C217.278556,143.442951 217.261298,143.438647 217.232759,143.436656 Z M192.474677,144.547447 C192.842403,145.155436 192.905075,145.965299 192.905075,146.778444 L192.905075,171.548351 C192.905075,174.088562 192.057069,174.649096 190.276358,174.850163 C190.267629,174.889171 190.266552,174.891108 190.25847,174.932128 L192.281045,174.932128 C192.852812,174.472101 193.572263,173.667619 193.572263,172.213556 L193.572263,147.444725 C193.572263,146.336355 193.455582,145.230191 192.608308,144.641034 L192.474666,144.547511 L192.474677,144.547447 Z M107.85722,144.563211 C108.140086,145.049468 108.279203,145.752126 108.279203,146.778444 L108.279203,156.171069 L99.5755388,156.171069 L99.5755388,156.83835 L108.94569,156.83835 L108.94569,147.444649 C108.94569,145.802272 108.590339,144.988212 107.857597,144.563157 L107.85722,144.563211 Z M11.2516164,144.564287 C11.5344828,145.051217 11.6735991,145.752126 11.6735991,146.778444 L11.6735991,171.548351 C11.6735991,174.087917 10.8238685,174.649096 9.04380388,174.850163 C9.03572198,174.889171 9.03399784,174.891108 9.02591595,174.932128 L11.0474677,174.932128 C11.6711207,174.597196 12.3397091,173.375084 12.3397091,171.920376 L12.3397091,147.444778 C12.3397091,145.802401 11.9836853,144.988718 11.2516164,144.564363 L11.2516164,144.564287 Z M63.2273707,144.564287 C63.5102371,145.051217 63.6483028,145.752126 63.6483028,146.778444 L63.6483028,171.548351 C63.6483028,174.087917 62.7985722,174.649096 61.0185075,174.850163 C61.0090787,174.891861 61.0083244,174.895843 60.9995959,174.941587 C61.5713631,174.946968 62.0076239,174.954984 63.0063847,174.965745 C63.6596713,174.634849 64.3144127,173.454919 64.3144127,171.966583 L64.3144127,147.444714 C64.3144127,145.802336 63.9594397,144.988653 63.2273437,144.564298 L63.2273707,144.564287 Z M91.9369612,144.564287 C92.2198276,145.051222 92.358944,145.752126 92.358944,146.778444 L92.358944,171.548351 C92.358944,174.088562 91.5088362,174.649096 89.728125,174.850163 C89.7200431,174.889171 89.7200431,174.891108 89.7113147,174.932128 L91.8212284,174.932128 C92.3936961,174.472101 93.0251078,173.667619 93.0251078,172.213556 L93.0251078,147.444725 C93.0251078,145.802347 92.6690841,144.988664 91.9370151,144.564309 L91.9369612,144.564287 Z M182.249461,144.598991 C182.267619,144.629229 182.284483,144.659392 182.299946,144.688312 C182.421848,144.917653 182.521988,145.227055 182.521988,145.622517 C182.521988,146.044208 182.406697,146.5642 182.072645,147.188331 C182.072645,147.188331 175.627064,159.771015 174.495059,161.980222 L174.867581,162.713737 C174.867581,162.713737 182.478033,147.854052 182.478033,147.853514 C183.48493,145.968317 183.387893,145.31793 182.249677,144.598996 L182.249461,144.598991 Z M142.056573,144.635793 C142.321255,145.00368 142.559881,145.46933 142.861584,146.054453 C142.861584,146.054453 155.650916,170.317523 158.495205,175.710871 C158.535614,175.63151 158.811412,175.107617 158.874046,174.987848 C155.27965,168.170299 144.043766,146.871848 144.043766,146.871848 C143.518443,145.852256 142.801848,144.890503 142.056967,144.635632 L142.056573,144.635793 Z M157.743534,144.640098 C158.036503,145.041613 158.307058,145.563972 158.655927,146.240562 L158.668534,146.265796 C158.665841,146.25907 162.84208,154.136834 162.84208,154.136834 L158.852694,161.980432 L159.227328,162.711848 L163.592414,154.131669 L159.580937,146.562473 C158.993006,145.423166 158.369892,145.062139 157.743545,144.64042 L157.743534,144.640098 Z M24.3275862,149.27545 C25.0448276,150.141054 25.4778017,151.255073 25.4778017,152.469061 C25.4778017,155.217817 23.2635776,157.455432 20.5413254,157.455432 L18.8965517,157.455432 L18.8965517,158.120616 L20.5413254,158.120616 C23.8239224,158.120616 26.1313039,155.267371 26.1313039,152.842086 C26.1313039,151.287141 25.4355065,150.190124 24.3275862,149.27545 L24.3275862,149.27545 Z M238.039871,149.630558 C238.359106,150.008534 238.633136,150.430091 238.845959,150.896844 C238.951024,150.871932 238.957209,150.870587 239.05958,150.846429 C239.060119,150.821518 239.061735,150.793001 239.061735,150.763409 C238.772807,150.33701 238.430539,149.95742 238.039914,149.630558 L238.039871,149.630558 Z M80.4213362,152.04858 C82.1421336,153.921617 83.1963362,156.421313 83.1963362,159.164205 C83.1963362,164.958933 78.4992996,169.672732 72.7286638,169.672732 L70.8607759,169.672732 L70.8607759,170.338991 L72.7960129,170.338991 C78.5670259,170.338991 83.8612069,165.340944 83.8612069,159.545301 C83.8612069,156.465002 82.5325431,153.97117 80.4211207,152.048203 L80.4213362,152.04858 Z M34.21875,153.752025 L34.21875,164.52258 C34.259833,164.51381 34.2628233,164.511711 34.3018858,164.503641 C34.3914601,163.722832 34.5663147,163.155088 34.8848599,162.752901 L34.8848599,155.513526 C34.5602371,155.107976 34.3807112,154.543111 34.2945043,153.766983 C34.2588093,153.759558 34.2557812,153.759666 34.2187392,153.752294 L34.21875,153.752025 Z M230.247845,153.815073 C230.715921,154.396806 231.608028,155.553922 232.699784,156.184778 C232.699784,156.184778 236.002748,158.180059 236.004095,158.181404 C236.911961,158.727518 238.751509,159.422401 239.41153,160.025655 C238.629634,159.168821 237.634267,158.384784 236.399784,157.642284 L231.873707,154.908969 C231.204256,154.521578 230.670151,154.166093 230.247845,153.815019 L230.247845,153.815073 Z M57.1713362,154.53702 C56.9497575,155.362917 56.2627155,156.393916 53.9196121,156.393916 L45.3484914,156.393916 L45.3484914,157.060175 L54.1615302,157.060175 C55.6627155,157.060175 56.9462284,156.376429 57.3637931,155.745519 L57.3637931,154.53702 L57.1712177,154.53702 L57.1713362,154.53702 Z M134.121767,154.737737 L133.751347,155.490137 L138.615194,165.264235 L129.242349,165.264235 L128.916126,165.929418 L139.696298,165.929418 L134.121945,154.737576 L134.121767,154.737737 Z M167.032328,160.802025 C167.032328,160.802025 166.768195,161.301227 166.667171,161.495617 C168.271428,164.550359 173.325038,174.17515 174.131611,175.710726 C174.16798,175.641453 174.428077,175.147986 174.496773,175.01821 C172.629208,171.461097 167.032333,160.802025 167.032333,160.802025 L167.032328,160.802025 Z M108.27694,161.53866 L108.27694,171.548421 C108.27694,174.098102 107.420959,174.653955 105.626131,174.852331 L105.626131,174.932198 L107.741325,174.932198 C108.313093,174.472171 108.943103,173.666989 108.943103,172.213626 L108.943103,161.538843 L108.276994,161.538843 L108.27694,161.53866 Z M38.799569,162.524356 L38.1471444,162.542219 C38.1424569,162.542757 38.1378017,162.543295 38.1324138,162.543295 L38.1324138,179.664915 C38.3189709,179.496776 38.5463578,179.291814 38.7996013,179.063813 L38.7996013,162.524356 L38.799569,162.524356 Z M56.9439655,163.019318 C57.0604795,163.217722 57.1455927,163.445379 57.2028394,163.700266 L57.368055,163.700266 L57.368055,163.355585 C57.2475,163.227127 57.10493,163.116828 56.9439655,163.019308 L56.9439655,163.019318 Z M18.8895474,163.020395 L18.8895474,164.211031 C20.7632004,166.909965 25.9676724,174.406955 26.2580819,174.825015 C26.2964709,174.826091 26.9545797,174.825553 27.0515625,174.827167 C25.3280711,172.344096 18.8899246,163.020879 18.8899246,163.020879 L18.8895474,163.020395 Z M234.099677,164.320308 C234.655981,164.996198 234.964709,165.786745 234.964709,166.807683 C234.964709,168.726453 233.107759,170.174651 230.64278,170.174651 C228.488955,170.174651 226.578987,169.452274 225.129849,168.17173 C226.634429,169.865922 228.366595,170.838812 230.869073,170.838812 C233.368427,170.838812 235.631897,169.115351 235.631897,166.886506 C235.631897,165.512451 235.072899,165.138134 234.099677,164.320308 L234.099677,164.320308 Z M222.882004,164.83733 C222.741245,164.84271 222.721584,164.843894 222.567355,164.84992 C222.572742,165.723595 222.614122,171.557708 222.616816,171.980072 C222.890927,172.300208 223.183895,172.597638 223.492355,172.87543 C223.422985,172.798759 223.350964,172.723976 223.282942,172.645288 C223.280248,172.241082 223.24264,166.895217 223.234504,165.661483 C223.104526,165.396497 222.985695,165.122095 222.881977,164.837631 L222.882004,164.83733 Z M56.8690733,167.78188 C56.3504849,168.687138 55.3701509,168.891595 53.9214978,168.891595 L45.3503772,168.891595 L45.3503772,169.555756 L54.1817349,169.555756 C55.4499461,169.555756 56.6004849,169.209476 57.3197737,168.414512 C57.3186961,168.081597 57.3170797,167.913039 57.3154634,167.78188 L56.8692726,167.78188 L56.8690733,167.78188 Z M141.723599,171.579714 L143.080065,174.339285 C143.505711,175.19004 143.728287,175.858397 143.728287,176.427378 C143.728287,177.245204 143.264925,177.857982 142.297144,178.514395 C142.30458,178.548722 142.305603,178.552973 142.315032,178.587956 C142.616083,178.427888 143.313685,178.026992 144.290248,177.509771 C144.408109,176.93202 144.469267,175.695865 144.042947,174.843712 L142.488637,171.579725 L141.723605,171.579725 L141.723599,171.579714 Z M150.196121,172.966844 C150.543642,173.425526 150.88917,173.704501 151.266325,173.846437 C152.003825,173.455683 152.559591,173.160109 152.802748,173.030979 C152.785884,173.009457 152.784483,173.008757 152.766972,172.987881 C151.672575,173.351733 150.897252,173.451105 150.196121,172.966844 L150.196121,172.966844 Z M34.1778017,174.390776 C34.3576239,174.605321 34.5211153,174.777748 34.6787123,174.918311 C34.9204957,174.921002 35.1069289,174.924338 35.2227856,174.925683 L35.2227856,174.82375 C34.8106088,174.75515 34.4963847,174.634257 34.1777963,174.390792 L34.1778017,174.390776 Z M19.3092672,174.429676 C19.4271282,174.63346 19.5702478,174.796805 19.7386207,174.931988 L20.8698707,174.931988 C20.8604418,174.89099 20.8600647,174.889053 20.8519828,174.850023 C20.2222414,174.778732 19.7100108,174.663053 19.3092565,174.429676 L19.3092672,174.429676 Z M99.9935345,174.429676 C100.111395,174.632788 100.25451,174.796805 100.422883,174.931988 L101.535221,174.931988 L101.536298,174.850023 C100.905911,174.778732 100.394327,174.66238 99.9935722,174.429676 L99.9935345,174.429676 Z M200.543103,174.429676 C200.661638,174.632788 200.804079,174.796805 200.972452,174.931988 L202.102678,174.931988 C202.093895,174.89099 202.093518,174.889053 202.08479,174.850023 C201.455048,174.778732 200.943195,174.66238 200.543141,174.429676 L200.543103,174.429676 Z M56.8415948,175.913493 C57.0732759,176.298866 57.2098707,176.801426 57.2846282,177.447778 C57.3216972,177.455848 57.3255226,177.457193 57.3646067,177.464565 C57.3640679,177.252037 57.3619127,176.865668 57.3592187,176.363243 C57.2164386,176.182326 57.0462123,176.033858 56.8414709,175.913471 L56.8415948,175.913493 Z" id="Shape" fill="#F2807B" transform="translate(124.217888, 160.265036) rotate(-360.000000) translate(-124.217888, -160.265036) "></path>
            </g>
        </g>
    </g>
</svg>