<?xml version="1.0" encoding="UTF-8" standalone="no"?>
<svg width="250px" height="250px" viewBox="0 0 250 250" version="1.1" xmlns="http://www.w3.org/2000/svg" xmlns:xlink="http://www.w3.org/1999/xlink">
    <!-- Generator: Sketch 47.1 (45422) - http://www.bohemiancoding.com/sketch -->
    <title>STNFRD</title>
    <desc>Created with Sketch.</desc>
    <defs></defs>
    <g id="Page-1" stroke="none" stroke-width="1" fill="none" fill-rule="evenodd">
        <g id="STNFRD" fill-rule="nonzero">
            <g id="Stanford_Cardinal_logo" transform="translate(44.000000, 0.000000)">
                <path d="M35.3051925,0.125101215 L0.317900621,34.3680162 L0.317900621,126.37915 L30.7320807,157.416599 L44.6792112,157.416599 C44.3396346,158.350415 43.8944219,159.790283 44.862652,161.199494 C45.9156725,162.761538 47.7328694,162.761538 48.4292135,162.761538 C49.2444362,162.761538 50.3822775,162.659727 52.1317433,162.421953 L52.1522651,162.421953 C52.1522651,162.421953 52.8825456,163.070526 50.6577272,163.800597 C48.8235216,164.4458 47.2236918,165.512034 46.6971309,167.345638 C46.6623441,167.481255 46.6495167,167.620901 46.6156006,167.739545 L0.331699938,167.739545 L0.318100068,214.768897 L35.305392,249.134281 L127.321423,249.134281 L162.308715,214.81748 L162.308715,126.682864 L131.88846,95.6929858 L106.093963,95.6929858 C106.07655,95.6929858 106.053163,95.6794231 106.053163,95.6794231 C104.915301,95.0002834 103.746763,94.2837753 102.676835,93.5876215 L102.282831,93.3363259 L102.214898,93.2955769 C101.637452,92.9391599 101.029452,92.5009615 100.367125,91.9237146 C99.7896803,91.4652733 99.310764,91.0068725 98.9540876,90.5993219 L98.8521771,90.4974393 C98.1728519,89.7842915 97.5784486,89.1017915 97.1198212,88.5075607 C101.144808,89.6621154 105.530115,89.9541194 107.635852,90.0220344 L107.887217,90.0220344 C108.022871,90.0220344 108.162555,90.0425506 108.281231,90.0425506 L108.464641,90.0561134 C108.974123,90.0908907 109.364756,90.1746559 109.619512,90.2598482 C109.891266,90.3615587 110.132405,90.4841296 110.353204,90.5858401 L111.440141,90.9933401 C111.694917,91.0611437 111.9666,91.0748482 112.255363,91.0748482 C113.834844,91.0748482 115.312373,90.1240283 115.991607,88.6299089 C116.212477,88.1205263 116.552084,87.1052126 116.297308,85.763917 L162.303805,85.797996 L162.303805,34.4214777 L127.3236,0.123906883 L35.3075687,0.123906883 L35.3051925,0.125101215 Z" id="Shape" fill="#8C1515"></path>
                <path d="M158.130248,36.2388664 L125.631491,4.3694332 L36.993913,4.3694332 L4.4870559,36.187247 L4.4870559,124.630567 L32.4582609,153.154858 L50.4945652,153.172267 C48.4734665,154.988968 47.8451571,156.873583 47.5223969,157.790486 C46.8261034,159.810931 46.0957925,160.388158 52.4305193,159.505364 C54.4346093,159.216751 58.086113,157.926316 59.8012578,156.771761 C61.4825876,155.617206 64.8111286,156.550951 64.522487,159.046964 C62.9600155,162.867105 58.9521391,165.261235 55.1304472,165.736741 C46.3332056,166.840385 50.1374839,170.117206 50.1374839,170.117206 C51.105552,170.779413 51.8019062,171.424595 52.2944497,172.001923 L48.0146366,172.001923 L48.0146366,171.984514 L4.50274845,171.984514 L4.48535706,212.95415 L36.975003,244.87419 L125.629792,244.87419 L158.118425,213.004757 L158.118425,128.451113 L130.14722,99.9612348 L107.542866,99.9612348 C105.742678,98.755668 103.313978,97.4143725 101.106087,95.9712551 C101.106087,95.9538664 101.106087,95.9538664 101.088674,95.9538664 C100.239515,95.4614879 99.407344,94.8503239 98.6091502,94.15417 C97.9468134,93.6278441 97.3524303,93.0675304 96.8428782,92.5072065 C94.8898142,90.4697571 93.4292937,88.3473887 93.0385999,87.3625709 C92.3083093,85.5628745 92.4781735,83.2876721 94.1255366,84.2214777 C98.3034999,86.6325101 105.16499,87.0909109 107.712245,87.17583 C108.000937,87.17583 110.055901,87.413583 110.548445,87.5661538 C111.057916,87.7700101 111.839182,88.1434211 111.839182,88.1434211 C112.875194,88.5848583 114.743315,87.158664 112.586471,84.5269231 C112.026004,83.6270547 111.176875,82.5912955 110.17478,81.538664 L158.117028,81.538664 L158.117028,36.2390688" id="Shape" fill="#FFFFFF"></path>
                <path d="M38.6646497,8.61469523 L8.65607582,38.005346 L8.65607582,122.856609 L34.1994063,148.905518 L58.1795371,148.905518 C62.2722044,147.107924 63.1388488,147.261772 64.2760158,144.970246 C64.4461049,144.605869 64.614574,143.553224 64.6323929,142.524871 C64.6834196,142.233369 65.1936869,139.140213 63.6985228,139.893259 C61.1342274,141.180725 55.9538,137.779873 52.0814385,139.804189 C48.2090771,141.804214 51.045515,137.156383 51.5889901,136.354754 C51.5889901,136.354754 53.6608371,133.625974 56.7856166,131.820284 C56.9046789,131.755506 57.0067324,131.690728 57.090967,131.617852 C57.3971273,131.44781 57.7032877,131.302059 58.0264569,131.148211 C60.4036543,130.038885 67.1788695,125.528707 68.401891,124.119783 C69.1324641,123.301959 70.4235212,121.43149 70.4745479,120.39504 C70.6948538,119.496243 70.8657528,118.071124 69.9999184,117.512413 C68.7088613,116.6622 67.6721278,118.322139 65.6513075,119.229033 C63.6296773,120.12783 62.1013054,120.500304 60.3007909,120.565082 C58.5691221,120.621763 56.9046789,119.957787 55.8687554,120.111635 C54.832022,120.281678 54.2205112,119.496243 56.1230791,117.577191 C56.9889135,116.710783 57.3639194,116.322114 57.7713233,116.030613 C62.2892133,113.131791 66.3478628,113.099402 68.6238167,107.94954 C68.6238167,107.94954 70.3903133,103.334098 66.9763825,105.301734 C65.1086423,106.386768 64.0897277,107.94954 58.7392112,107.94954 C53.4065135,107.94954 51.3168476,110.483985 50.4169953,111.585213 C50.4169953,111.585213 46.7835686,116.6622 47.6834208,109.544702 C48.6010919,102.451496 49.9755737,98.8320173 53.3214689,96.0627519 C56.2081236,93.6902526 63.3745436,90.4999293 65.9566579,86.9857153 C67.2809229,85.6739581 70.6106192,81.8682425 68.6740335,78.6463398 C67.8584158,77.2876184 65.8724233,80.8075005 63.8175852,81.2609474 C61.4735957,81.8763397 58.5018964,82.6374829 56.2259425,82.1759386 C53.4065135,81.6172272 51.605999,82.6860665 50.5530666,83.1638052 C49.5001342,83.641544 47.5125218,82.127355 49.9407459,79.3597091 C53.2015966,75.641444 61.0832007,70.7863226 66.3818806,67.8826426 C67.1124537,67.5765659 68.8943393,66.7959893 70.5247647,65.7603488 C70.5587825,65.7425348 70.5928003,65.7255306 70.6106192,65.7255306 C71.018023,65.5384837 71.6125249,65.1813942 71.9518931,64.7230889 C73.106879,63.7546557 73.9054877,62.6696219 73.6333452,61.5659644 C73.3960304,60.5643324 72.9019621,60.2242472 71.3395724,60.0542046 C70.1003519,59.9351748 68.0463238,61.3789175 66.313845,61.2436932 C63.664505,61.0226378 59.7743247,61.6331717 61.0653819,59.7489376 C62.2705845,57.9999279 64.2233692,56.8784564 64.7838532,56.5731894 C65.8708034,56.0808756 67.3319496,55.4363331 69.4888412,54.4679 C72.8687542,52.9399456 72.3925048,49.1034604 71.0852487,48.9682361 C69.0466096,48.7471807 63.5446327,50.5115752 67.4161842,46.0977549 C67.4161842,46.0977549 69.2515264,44.2475293 71.1022576,43.0418462 C72.5625939,42.1932526 73.7686065,41.8701716 75.2119338,41.3430396 C76.112596,41.0207683 78.4744044,38.9324831 72.8695642,38.7114277 C72.8695642,38.7114277 69.7439748,38.796449 70.3384767,37.353516 C70.830925,36.4028968 73.5831284,34.6708914 73.5831284,34.6708914 C73.5831284,34.6708914 75.7894268,33.1591316 76.690089,32.2595252 C77.5559234,31.4271261 78.1674341,30.7655794 78.1164074,30.0182016 C78.0823896,29.169608 75.8744713,28.1169633 74.9397913,26.9282845 C74.2780638,26.0788811 74.8385478,25.7744239 75.2119338,25.6723983 C75.4160407,25.6391995 75.6541655,25.6043813 75.9433169,25.6043813 C78.2184609,25.6213855 78.8639894,23.3460535 80.1923042,17.4374776 C80.5810792,15.6714636 80.6134771,15.2989893 81.1885402,15.2819851 C81.2452366,15.2819851 81.2776345,15.2989893 81.3100324,15.2989893 C81.3100324,15.2989893 81.8688966,18.2868809 82.6869441,21.631862 C83.3834993,23.4820876 84.1448505,24.2634738 85.4893642,24.2456598 C85.756647,24.2456598 85.9996314,24.2788586 86.2021184,24.3136769 C86.5746945,24.4157025 87.1497576,24.7225889 86.4694013,25.5711825 C85.959134,26.2335389 84.4364318,27.3031879 84.3149396,27.9485401 C83.8775676,29.7817614 85.6270553,30.4441179 87.408941,30.580152 C89.9359788,30.7493849 88.8830463,32.328352 86.1535215,34.3486201 C83.5211905,36.3008713 90.259958,40.4782514 90.259958,40.4782514 C94.0991115,43.4499485 91.3614873,44.2127111 90.5839372,44.6378176 C89.7982876,45.0451101 87.6438259,46.369823 89.7982876,47.2184166 C91.9770478,48.0508157 94.9657559,51.0557116 94.9657559,51.0557116 C98.8211085,55.4695319 93.3296609,53.7221417 91.2966914,53.9261928 C89.9845756,54.0614172 89.5148058,57.9149066 92.892289,59.4266664 C98.0354589,61.7522015 99.1774856,62.1432996 100.991769,63.502021 C104.385451,66.014603 102.587367,68.153901 98.3432391,67.4065232 C98.3432391,67.4065232 95.6299133,66.7279722 93.7265355,67.1012563 C92.5359119,67.3223117 91.7178644,67.5935701 91.1590003,67.8826426 C90.867419,68.3239436 90.1951621,70.0721436 96.0996831,71.8883606 C98.9183022,72.7709628 102.417278,74.894876 105.527478,77.3224367 L153.970469,77.2722336 L153.962369,38.0353059 L123.953795,8.61145633 L38.6662696,8.61145633 L38.6646497,8.61469523 Z M111.812675,104.202935 C113.205785,106.510656 114.015733,109.530936 114.615095,113.968239 C114.631294,116.63224 111.116119,115.336677 109.974093,114.640312 C109.180344,114.097795 108.127411,113.595765 106.766698,113.271874 C104.199163,112.656482 98.0921552,109.976286 96.4236623,109.377088 C94.7227715,108.753599 93.4835511,110.008675 93.2810641,110.486414 L93.297263,110.486414 C92.8598911,111.296141 93.7589334,112.931789 93.7589334,112.931789 C96.1563795,118.365055 100.570596,118.073553 105.422185,121.555378 C112.096156,126.308474 108.532385,127.312535 107.155474,126.599976 C105.80286,125.871222 103.559304,126.324669 103.559304,126.324669 C98.17315,127.806469 96.5613535,125.563525 93.4025563,124.729507 C90.259958,123.879294 92.8436921,127.790274 93.9776193,129.093934 C95.1844419,130.502858 101.979906,135.021134 104.336854,136.122362 C109.488124,138.519153 112.169052,142.405841 113.764649,147.345174 C115.279252,152.017297 113.626958,150.997042 112.403937,150.422136 C111.180915,149.839133 110.824538,148.584056 107.787233,148.656932 C104.733729,148.72171 103.016639,148.503083 100.837879,146.786463 C100.262816,146.341113 99.8011456,145.830985 99.4123705,145.409927 C99.3799726,145.393733 99.3637736,145.377538 99.3475747,145.361344 C97.2579088,143.766182 97.6628828,149.061795 98.0921552,149.928203 C99.5986586,152.964678 100.619193,151.725796 109.318035,156.36553 C113.44067,158.567987 114.412608,161.523489 114.84998,162.762371 C115.546535,164.770493 116.259289,165.345399 109.941695,164.462797 C107.924924,164.18749 104.288258,162.900025 102.554969,161.725921 C100.894575,160.576109 97.5494901,161.507295 97.8491708,164.001253 C99.4123705,167.823163 103.421613,170.219954 107.244568,170.689596 C110.589653,171.118751 112.104256,171.847505 112.711717,172.592453 C114.542199,174.681548 111.148517,177.742315 111.148517,177.742315 C109.447626,179.709951 111.286208,182.017672 112.541628,182.697843 C114.582697,183.734293 118.535243,186.106792 119.847359,189.507645 C126.707619,207.159687 120.066045,202.098895 116.818153,200.082676 C113.562162,198.058359 107.357961,192.868011 101.704523,193.321457 C96.0510863,193.766807 94.1639074,194.074503 90.8026231,191.402405 C87.4575378,188.738404 87.781517,193.054248 87.781517,193.054248 L87.781517,214.341963 C87.9840041,219.111254 88.8668474,223.661918 92.6574041,227.516217 C95.759505,230.698443 98.1245532,230.099245 102.506372,235.451539 C104.523142,237.913108 111.116119,240.560914 115.514137,240.609498 L123.953795,240.625692 L153.962369,211.200223 L153.962369,130.195162 L128.440907,104.202935 L111.812675,104.202935 L111.812675,104.202935 Z M8.67389468,176.244321 L8.65688577,211.135445 L38.6654596,240.577109 L48.3119405,240.577109 C57.3817383,240.131759 60.7778503,233.103331 63.5292437,228.779391 C65.6010907,225.499997 69.2701552,222.714537 71.5971359,220.333941 C74.0593778,217.839983 74.5016094,212.131409 74.5688351,205.953194 L74.5688351,193.054248 L74.586654,193.183804 L74.586654,190.098745 L74.6036629,190.098745 L74.6036629,188.042039 L74.6052828,188.042039 L74.6052828,187.5643 L74.6052828,182.001478 C74.6052828,180.705915 73.1109287,180.608748 69.850078,184.139156 C66.5722184,187.65337 61.0872505,187.361869 57.9114443,187.65337 C54.7356381,187.936775 45.5986146,192.697968 42.9824825,196.106917 C41.3690661,198.228401 39.0761033,196.479392 40.0099733,192.301202 L39.9759555,192.301202 C40.4173772,190.422636 41.2321849,187.888191 42.5402509,184.54402 C44.3399554,179.879994 51.0997815,177.143118 51.0997815,177.143118 C51.0997815,177.143118 51.7963368,176.835421 52.4078476,176.244321 L8.67389468,176.244321 L8.67389468,176.244321 Z" id="Shape" fill="#8C1515"></path>
            </g>
        </g>
    </g>
</svg>