<svg width="500" height="500" viewBox="0 0 500 500" fill="none" xmlns="http://www.w3.org/2000/svg">
<g clip-path="url(#clip0)">
<path d="M254.888 482.65C182.388 482.65 116.325 457.125 69.0129 410.788C25.1504 367.825 0.000419859 309.337 0.000419859 250.325C-0.0859306 219.963 5.98654 189.9 17.8506 161.952C29.7147 134.004 47.1239 108.753 69.0254 87.725C115.463 42.7625 180.613 18 252.5 18C340.15 18 427.688 53.6125 486.663 113.25L500 126.75L419.35 205.563L406.125 192.363C367.225 153.463 309.763 130.225 252.5 130.225C213.275 130.225 177.888 142.975 152.85 166.125C141.168 176.811 131.848 189.822 125.492 204.322C119.135 218.823 115.88 234.492 115.938 250.325C115.938 279.962 129.475 309.788 153.088 332.163C179.138 356.825 215.3 370.412 254.938 370.412C309.938 370.412 367.85 346.663 406.188 308.275L419.413 295.05L500 373.863L486.613 387.4C428.525 446.15 339.725 482.65 254.888 482.65ZM252.5 25.8875C182.713 25.8875 119.525 49.8625 74.5504 93.3875C53.4039 113.679 36.5931 138.049 25.135 165.024C13.6769 191.999 7.80957 221.018 7.88792 250.325C7.88792 307.237 32.1754 363.663 74.5379 405.15C120.363 450.038 184.413 474.763 254.888 474.763C337.7 474.763 424.338 439.162 481.013 381.862L488.813 373.962L419.425 306.137L411.7 313.85C371.95 353.612 311.863 378.3 254.888 378.3C213.225 378.3 175.125 363.95 147.613 337.888C122.5 314.038 108 282.113 108 250.325C107.935 233.402 111.411 216.652 118.205 201.152C124.999 185.652 134.961 171.745 147.45 160.325C173.938 135.825 211.2 122.338 252.45 122.338C311.813 122.338 371.35 146.425 411.7 186.775L419.425 194.5L488.813 126.75L481.013 118.85C423.488 60.6125 338.038 25.8875 252.5 25.8875Z" fill="#8A2333"/>
<path d="M419.513 321.663L473.163 374.1C418.9 428.975 335.975 463.725 254.888 463.725C109.163 463.725 18.9253 357.638 18.9253 250.325C18.9253 137.525 109.775 36.925 252.5 36.925C336.038 36.925 418.963 71.675 473.225 126.55L419.575 178.988C379.325 138.738 317.075 111.313 252.5 111.313C159.825 111.313 97.0253 174.113 97.0253 250.325C97.0253 319.825 159.225 389.338 254.95 389.338C317.075 389.338 379.263 361.9 419.513 321.663Z" fill="#8A2333"/>
<path d="M411.925 186.375L419.638 194.087L489.038 126.263L481.25 118.375C423.75 60.2 338.263 25.5 252.663 25.5C182.888 25.5 119.7 49.4375 74.7254 93C53.5902 113.29 36.789 137.656 25.3376 164.624C13.8862 191.592 8.02225 220.602 8.10038 249.9C8.10038 306.813 32.4004 363.25 74.7504 404.738C120.588 449.625 184.638 474.35 255.1 474.35C337.913 474.35 424.563 438.75 481.238 381.438L489.038 373.55L419.638 305.725L411.925 313.438C372.175 353.188 312.088 377.888 255.1 377.888C213.45 377.888 175.35 363.525 147.838 337.463C122.663 313.613 108.225 281.7 108.225 249.963C108.159 233.04 111.633 216.291 118.425 200.791C125.217 185.292 135.176 171.384 147.663 159.962C174.163 135.462 211.413 121.962 252.663 121.962C312.038 121.925 371.575 146.025 411.925 186.375ZM97.1879 249.9C97.1879 319.413 159.375 388.925 255.1 388.925C317.3 388.925 379.488 361.487 419.725 321.237L473.388 373.737C419.125 428.55 336.25 463.312 255.1 463.312C109.388 463.312 19.1379 357.213 19.1379 249.9C19.1379 137.113 110 36.5 252.663 36.5C336.25 36.5 419.125 71.2625 473.388 126.138L419.725 178.562C379.488 138.325 317.3 110.887 252.663 110.887C160 110.887 97.1879 173.688 97.1879 249.9Z" fill="white"/>
</g>
<defs>
<clipPath id="clip0">
<rect width="500" height="464.65" fill="white" transform="translate(0 18)"/>
</clipPath>
</defs>
</svg>
