<?xml version="1.0" encoding="UTF-8" standalone="no"?>
<svg width="250px" height="250px" viewBox="0 0 250 250" version="1.1" xmlns="http://www.w3.org/2000/svg" xmlns:xlink="http://www.w3.org/1999/xlink">
    <!-- Generator: Sketch 47.1 (45422) - http://www.bohemiancoding.com/sketch -->
    <title>ARMY</title>
    <desc>Created with Sketch.</desc>
    <defs></defs>
    <g id="Page-1" stroke="none" stroke-width="1" fill="none" fill-rule="evenodd">
        <g id="ARMY" fill-rule="nonzero">
            <g id="Army_West_Point_logo" transform="translate(17.000000, 0.000000)">
                <path d="M8.74486301,0.337671233 C6.44349315,0.337671233 4.28030822,1.23606164 2.65034247,2.86386986 C0.216267123,5.29554795 -0.454965753,8.83356164 0.638184932,11.8815068 L0.123972603,12.3922603 L0.123972603,21.0992808 L6.14965753,27.1213699 L6.1634589,27.1040411 L6.1634589,104.215342 C6.1634589,122.504726 9.23657534,140.21363 14.9084932,156.66226 L5.92527397,165.648733 L9.04496575,168.133493 C11.1278425,169.794418 13.2853767,171.360377 15.5225342,172.826815 C15.5290411,172.83024 15.5400685,172.840514 15.5466952,172.84411 C16.4080822,173.407329 17.2812842,173.955771 18.1626199,174.490274 C18.1869178,174.503973 18.2073459,174.521952 18.2316438,174.535137 C19.0996575,175.058596 19.9756507,175.567979 20.8614384,176.060514 C20.8945719,176.078151 20.9283904,176.095788 20.961524,176.115651 C21.8383733,176.601575 22.7255651,177.07214 23.6223116,177.527123 L23.7327397,177.589281 C23.792363,177.620274 23.8513185,177.648185 23.90875,177.679007 C41.4498459,211.535171 70.8299829,237.643048 106.804298,248.454692 L109.806695,249.35887 L110.034469,249.303733 L110.403733,249.400479 L113.527021,248.458322 C140.759897,240.268425 164.223938,223.312774 181.622911,200.864144 L200.655445,200.864144 L200.655445,181.668938 L196.500308,177.517226 C207.804418,155.635377 214.168116,130.5275 214.162979,104.217568 L214.162979,6.37339041 L26.9027055,6.37339041 L20.859726,0.332465753 L12.1734247,0.332465753 L11.6626712,0.839777397 C10.719863,0.520770548 9.73476027,0.349195205 8.71883562,0.349195205 L8.74486301,0.337671233 Z" id="Shape" fill="#000000"></path>
                <path d="M8.74554795,4.0046387 C7.47825342,4.00429623 6.20821918,4.48991267 5.24058219,5.45617979 C3.30582192,7.39094007 3.30582192,10.5279264 5.24058219,12.4626866 L3.79246575,13.9108031 L3.79246575,19.5803236 L6.15034247,21.9347757 L9.2640411,18.816625 L31.6886986,41.2412825 C27.6116438,45.8679949 23.9815068,50.8286113 20.8256849,56.056351 L24.8393836,60.066625 C29.7606164,51.6436798 35.9746575,43.936488 43.3410959,37.2207346 C48.935274,32.1248442 55.0363014,27.7412825 61.5174658,24.1179949 L57.4832192,20.0871729 C51.6732877,23.4536113 46.159589,27.4005291 41.0294521,31.9073784 L18.6047945,9.47244692 L21.7160959,6.36594007 L19.3513699,4.0046387 L13.7023973,4.0046387 L12.2508562,5.45617979 L12.2474315,5.45275514 C11.2796233,4.48546062 10.0131849,4.00480993 8.74589041,4.0046387 L8.74554795,4.0046387 Z M24.3510274,10.0412825 L30.109589,15.801214 L204.75,15.801214 L204.75,104.215598 C204.75,127.921077 199.270548,150.578611 189.493151,170.51183 L193.791096,174.792652 C204.493151,153.671077 210.503425,129.513543 210.503425,104.215598 L210.503425,10.0409401 L24.3561644,10.0412825 L24.3510274,10.0412825 Z M9.83578767,24.576899 L9.83578767,104.215598 C9.83578767,121.463885 12.6284247,138.183063 17.7996575,153.773817 L22.3732877,149.198474 C17.9623288,134.979296 15.5941781,119.823474 15.5941781,104.215598 L15.5941781,30.332036 L9.83578767,24.576899 Z M111.602911,27.8474469 C94.4950342,27.5495017 78.4916096,32.5101182 65.1388699,41.2310086 L86.7296233,62.816625 C92.8306507,59.8046387 99.5018836,57.9792962 106.414555,57.4947072 C107.974486,57.3851182 109.544692,57.3474469 111.090925,57.3748442 C123.510445,57.5905976 135.505308,62.1899127 144.856336,70.3200497 C146.034418,71.3457346 147.19024,72.4382003 148.280993,73.571762 C158.126884,83.7669675 163.416267,97.1642277 163.166267,111.302926 C163.027568,119.205324 161.149144,126.873132 157.724486,133.8132 L179.31524,155.402241 C187.517295,142.838885 192.414555,127.895392 192.688527,111.814913 C193.476199,66.3149127 157.111473,28.6453921 111.60976,27.8474469 L111.602911,27.8474469 L111.602911,27.8474469 Z M65.5738014,28.1779264 C58.947089,31.7361455 52.722774,36.1231318 47.0498288,41.2909401 C39.7330479,47.957036 33.6268836,55.6693647 28.8717466,64.1042962 L31.5738014,66.7995017 C35.5703767,59.5066935 40.6114726,52.7686798 46.5943493,46.7960771 L46.5943493,46.8029264 L76.602911,76.8080634 L83.6063356,69.8097757 L58.8049658,45.0032688 L53.9916096,40.191625 C58.477911,36.6128579 63.2672945,33.5084058 68.2895548,30.8902551 L65.5738014,28.1779264 L65.5738014,28.1779264 Z M46.5909247,57.076899 L46.5909247,60.8097757 L69.5994863,83.8149127 L71.4625,81.9484743 L46.5909247,57.076899 Z M110.164555,64.5186798 C102.780993,64.5186798 95.8032534,66.2669675 89.6234589,69.3714195 C89.352911,69.5049812 89.0840753,69.6436798 88.8135274,69.7858031 L82.7005137,75.8988168 L33.9351027,124.664228 L44.3135274,124.664228 L62.2690068,106.703611 L68.2398973,106.703611 L87.2946918,106.703611 L87.3015411,106.703611 L92.4830479,106.703611 L92.4830479,106.707036 L92.4830479,106.710461 L92.4556507,106.794365 C92.082363,108.035803 91.5601027,109.212173 90.9179795,110.32005 C87.6679795,115.890255 81.2364726,119.542652 74.1011986,119.542652 L57.2159247,119.542652 L27.5481164,149.219022 L19.1234589,157.638543 C29.5755137,165.660803 42.3494863,170.905666 56.4162671,172.138543 C58.5104452,172.309776 60.6320205,172.412515 62.7244863,172.412515 C80.4967466,172.412515 97.5738014,165.787515 110.827226,153.756693 C117.207363,162.436488 127.489897,168.076899 139.063527,168.076899 C142.015582,168.076899 144.880308,167.712173 147.618322,167.023817 L131.544692,150.946762 C146.101199,143.26183 156.025856,127.981009 156.025856,110.376557 C156.025856,85.0495017 135.495034,64.5186798 110.167979,64.5186798 L110.164555,64.5186798 L110.164555,64.5186798 Z M153.996747,140.198474 C152.373459,142.575187 150.548116,144.835461 148.530993,146.950187 C148.239897,147.254981 147.945377,147.558063 147.645719,147.857721 L194.349486,194.552926 L184.075514,194.552926 L145.019007,155.501557 L145.019007,159.237858 L182.979623,197.189913 L196.986473,197.189913 L196.986473,183.183063 L154.169692,140.373132 L153.996747,140.198474 L153.996747,140.198474 Z M14.0361301,162.729296 L11.4273973,165.34231 C23.6571918,175.066625 38.7732877,181.436488 55.4753425,182.909091 C75.5010274,184.655666 94.5061644,179.056351 109.822945,168.36457 C117.763014,174.946762 127.949658,178.902241 139.066096,178.902241 C145.122603,178.902241 150.9,177.720735 156.189384,175.597447 L153.343493,172.737858 C148.881164,174.347447 144.074658,175.237858 139.066096,175.237858 C127.845205,175.237858 117.638014,170.837173 110.072945,163.662515 C96.4325342,173.953611 79.8777397,179.552926 62.7304795,179.552926 C60.4325342,179.552926 58.1020548,179.450187 55.8006849,179.26183 C39.9907534,177.874844 25.6636986,171.881693 14.035274,162.729296 L14.0361301,162.729296 Z M110.174829,175.631693 L104.346062,193.576899 L104.342637,193.576899 L85.4864726,193.576899 L100.736473,204.655666 L100.746747,204.655666 L94.9145548,222.583748 L110.171404,211.504981 L110.174829,211.504981 L125.435103,222.583748 L119.606336,204.655666 L119.599486,204.655666 L134.852911,193.576899 L116.003596,193.576899 L116.003596,193.559776 L110.174829,175.631693 L110.174829,175.631693 Z M29.447089,180.220735 C46.7398973,211.162515 74.3700342,234.878269 107.85976,244.946762 L109.93339,245.5632 L110.084075,245.528954 L110.325514,245.597447 L112.476199,244.946762 C139.078938,236.950187 161.983048,220.340598 178.955651,198.354296 L174.846062,194.244707 C158.55839,215.597447 136.486473,231.710461 110.820377,239.433063 L110.195377,239.62142 L110.147432,239.604296 L110.126884,239.604296 L109.519007,239.41594 C79.6183219,230.426214 54.5892123,210.049502 37.9128425,183.26868 C37.5241438,183.148817 37.1337329,183.028954 36.7450342,182.891967 C36.6868151,182.874844 36.6268836,182.874844 36.5703767,182.857721 C36.1251712,182.703611 35.6816781,182.566625 35.2398973,182.412515 C35.217637,182.412515 35.1936644,182.395392 35.1696918,182.395392 C34.6919521,182.224159 34.2142123,182.052926 33.7416096,181.898817 C33.7125,181.881693 33.6833904,181.86457 33.6542808,181.86457 C33.2005137,181.693337 32.7535959,181.539228 32.2998288,181.367995 C32.2758562,181.350872 32.2467466,181.350872 32.2193493,181.333748 C31.7433219,181.145392 31.2655822,180.974159 30.7946918,180.785803 C30.7878425,180.785803 30.7861301,180.76868 30.7792808,180.76868 C30.332363,180.597447 29.8905822,180.409091 29.4505137,180.220735 L29.447089,180.220735 L29.447089,180.220735 Z" id="Shape" fill="#D4BF91"></path>
                <path d="M110.140411,40.2481318 C108.599315,40.2481318 107.044521,40.2995017 105.508562,40.4022414 L106.809932,53.7960771 C107.914384,53.7327209 109.035959,53.6950497 110.14726,53.6950497 C110.482877,53.6950497 110.820205,53.7001866 111.15411,53.7087483 C111.986301,53.7224469 112.820205,53.7549812 113.645548,53.806351 L114.960616,40.4159401 C113.775685,40.3337483 112.585616,40.2806661 111.395548,40.2584058 C110.97774,40.2515565 110.559932,40.2481318 110.140411,40.2481318 L110.140411,40.2481318 Z M101.280822,40.8097757 C98.1386986,41.2087483 95.0376712,41.816625 92.0068493,42.6282688 L95.869863,55.5186798 C98.0719178,54.946762 100.311644,54.5084058 102.582192,54.2036113 L101.280822,40.8097757 Z M119.184932,40.8303236 L117.866438,54.2310086 C120.130137,54.5426524 122.371575,54.9827209 124.568493,55.561488 L128.445205,42.6796387 C125.412671,41.8577209 122.320205,41.2378579 119.184932,40.8303236 L119.184932,40.8303236 Z M87.9400685,43.8423099 C84.3219178,45.0529264 80.8099315,46.5546387 77.4400685,48.3354606 L87.5085616,58.4073784 C88.9178082,57.7909401 90.3493151,57.2361455 91.8065068,56.7395702 L87.9400685,43.8423099 Z M132.511986,43.9108031 L128.631849,56.8029264 C130.785959,57.5443647 132.890411,58.4125154 134.940068,59.4108031 L141.236301,47.5186798 C138.414384,46.1231318 135.494863,44.9142277 132.511986,43.9108031 L132.511986,43.9108031 Z M144.982877,49.5118305 L138.684932,61.4073784 C140.64726,62.551214 142.539384,63.811488 144.357877,65.1899127 L152.835616,54.7429949 C150.332192,52.821762 147.705479,51.071762 144.982877,49.5118305 L144.982877,49.5118305 Z M156.123288,57.4279264 L147.638699,67.8851182 C148.767123,68.8851182 149.869863,69.9330634 150.919521,71.0203921 C151.446918,71.566625 151.958904,72.1248442 152.464041,72.6882003 L162.808219,64.0734743 C162.090753,63.2601182 161.349315,62.4621729 160.590753,61.6779264 C159.166096,60.2036113 157.664384,58.7703921 156.123288,57.4279264 Z M165.513699,67.3405976 L155.172945,75.9587483 C156.565068,77.7703921 157.837329,79.6505291 158.986301,81.5905976 L170.804795,75.1334058 C169.22774,72.4347757 167.462329,69.832036 165.513699,67.3405976 Z M172.825342,78.8662825 L161.015411,85.3200497 C162.025685,87.3560086 162.902397,89.446762 163.650685,91.5837483 L176.489726,87.5340908 C175.479452,84.5683373 174.246575,81.6710771 172.825342,78.8662825 Z M177.756849,91.5871729 L164.909247,95.6402551 C165.493151,97.821762 165.943493,100.037515 166.267123,102.289228 L179.640411,100.797789 C179.229452,97.6779264 178.59589,94.6008716 177.756849,91.5871729 L177.756849,91.5871729 Z M180.085616,105.022104 L166.707192,106.510118 C166.816781,108.117995 166.863014,109.737858 166.832192,111.366283 C166.82363,112.006693 166.797945,112.64368 166.765411,113.282378 L180.171233,114.409091 C180.222603,113.475872 180.256849,112.539228 180.273973,111.600872 C180.325342,109.391967 180.256849,107.196762 180.085616,105.022104 L180.085616,105.022104 Z M166.386986,117.513543 C166.10274,119.760118 165.691781,121.979296 165.145548,124.159091 L178.082192,127.857721 C178.869863,124.838885 179.434932,121.758406 179.794521,118.63683 L166.386986,117.513543 L166.386986,117.513543 Z M163.965753,128.23957 C163.428082,129.862858 162.813356,131.460461 162.130137,133.027241 L172.191781,143.097447 C174.092466,139.520392 175.667808,135.784091 176.900685,131.934776 L163.965753,128.23957 Z" id="Shape" fill="#000000"></path>
            </g>
        </g>
    </g>
</svg>