<?xml version="1.0" encoding="UTF-8" standalone="no"?>
<svg width="250px" height="250px" viewBox="0 0 250 250" version="1.1" xmlns="http://www.w3.org/2000/svg" xmlns:xlink="http://www.w3.org/1999/xlink">
    <!-- Generator: Sketch 47.1 (45422) - http://www.bohemiancoding.com/sketch -->
    <title>LAFAY</title>
    <desc>Created with Sketch.</desc>
    <defs></defs>
    <g id="Page-1" stroke="none" stroke-width="1" fill="none" fill-rule="evenodd">
        <g id="LAFAY" fill-rule="nonzero">
            <g id="Asset-2" transform="translate(0.000000, 32.000000)">
                <path d="M244.829193,104.6095 C244.829193,104.6095 230.046584,87.0015 198.245342,81.809 C198.260891,81.5560712 198.260891,81.3024288 198.245342,81.0495 C215.593054,79.0644892 233.165864,81.0305851 249.642857,86.8 C249.642857,86.8 232.282609,72.2145 197.717391,74.555 C196.486941,69.3923047 194.109483,64.5717845 190.76087,60.45 C192.313665,55.2575 196.692547,36.9365 182.484472,29.233 C180.05442,29.0330082 177.60828,29.1738777 175.217391,29.6515 C171.458705,27.1095879 167.238975,25.3246959 162.795031,24.397 C149.549689,4.8205 132.189441,-2.17 127.018634,0.5735 C122.453416,3.3325 127.779503,7.254 127.701863,15.717 C113.602484,15.717 94.9378882,21.452 83.757764,29.264 C76.0869565,26.7065 66.552795,27.714 58.757764,18.724 C58.1093196,17.9300289 57.1604607,17.4395245 56.1366636,17.3690449 C55.1128665,17.2985653 54.105534,17.6544027 53.3540373,18.352 C50.1397516,20.925 48.136646,27.7605 49.2701863,35.7895 L39.9534161,35.7895 C39.6583851,36.921 27.3136646,82.9095 26.8012422,84.816 L34.8447205,84.816 L21.2111801,135.625 L13.1521739,135.625 C12.8571429,136.7565 0.51242236,182.745 0,184.6515 L115.07764,184.6515 C117.996894,173.9255 122.127329,158.6735 125.062112,147.808 C126.801242,147.932 129.130435,147.808 129.130435,147.808 C135.53354,148.241196 141.965566,147.718783 148.214286,146.258 C147.795031,146.9245 144.534161,151.8225 144.534161,151.8225 C156.956522,149.0945 185.543478,137.5315 171.428571,111.4295 C171.428571,110.9335 171.350932,110.4065 171.28882,109.8795 C174.30196,109.194685 177.120798,107.838144 179.534161,105.9115 C182.785484,104.576305 185.780175,102.688325 188.385093,100.3315 C204.782609,115.1185 216.335404,139.8255 216.335404,139.8255 C216.335404,139.8255 217.158385,120.156 192.732919,95.5885 L193.229814,94.9065 C216.164596,104.2065 234.720497,122.171 234.720497,122.171 C234.720497,122.171 226.708075,103.137 196.36646,89.311 C196.537267,88.9235 196.677019,88.536 196.81677,88.133 C215.450311,89.3885 244.829193,104.6095 244.829193,104.6095" id="Shape" fill="#FFFFFF"></path>
                <path d="M232.686335,97.1075 C221.673222,89.8273552 209.138636,85.1565529 196.040373,83.452 C196.260171,82.0683117 196.353722,80.6675676 196.319876,79.267 C202.795031,78.6315 220.652174,77.3915 235.031056,81.189 C222.572996,76.7488726 209.262706,75.2113483 196.118012,76.694 C195.134084,70.7844491 192.527063,65.2632196 188.586957,60.7445 C188.586957,60.7445 196.475155,39.432 181.89441,31.0465 C179.498958,30.9472535 177.100317,31.1398404 174.751553,31.62 C170.833828,28.8301793 166.348766,26.9356613 161.614907,26.071 C145.962733,2.4335 124.518634,-1.953 127.329193,4.743 C128.354037,7.2075 130.217391,13.485 129.503106,17.6855 C116.055901,17.174 95.8540373,22.7695 84.0838509,31.403 C73.4627329,27.5435 65.9627329,30.008 57.2981366,19.9795 C54.4565217,16.678 49.0372671,25.6835 51.5372671,37.7735 L41.4906832,37.7735 L29.3944099,82.832 L37.4378882,82.832 L22.7329193,137.609 L14.689441,137.609 L2.5931677,182.652 L113.586957,182.652 L125.170807,139.748 C125.940211,138.835796 126.759251,137.966485 127.624224,137.144 C131.708057,140.024535 136.599221,141.543492 141.599379,141.484 C139.916633,143.199585 138.034798,144.708588 135.993789,145.979 C141.463072,145.725825 146.888451,144.878661 152.173913,143.4525 C150.869565,145.917 149.068323,148.5365 149.068323,148.5365 C173.493789,141.329 177.484472,125.178 169.487578,112.0805 C169.217282,108.568792 168.502484,105.105398 167.360248,101.773 C168.690006,103.072329 170.276563,104.080618 172.018634,104.7335 C171.631523,105.934835 171.11067,107.089047 170.465839,108.1745 C173.44248,107.575649 176.226012,106.255586 178.571429,104.3305 C182.284084,102.846742 185.647167,100.608722 188.447205,97.7585 C192.080745,101.246 205.916149,114.9015 212.732919,129.27 C207.941541,116.515492 200.200404,105.070735 190.139752,95.8675 C191.015079,94.8328236 191.819196,93.7401565 192.546584,92.597 C197.375776,94.55 215.093168,102.3 226.599379,113.15 C217.602371,103.077991 206.372174,95.2437417 193.804348,90.272 C194.500523,88.8765654 195.062061,87.4181558 195.481366,85.9165 C201.847826,86.831 219.580745,89.8845 232.748447,97.0455" id="Shape" fill="#000000"></path>
                <path d="M139.409938,18.6 C138.966997,16.6484211 138.149677,14.8009181 137.003106,13.1595 C139.37994,14.7980839 141.477141,16.8077726 143.214286,19.1115 C146.226708,19.53 148.447205,19.9175 149.006211,20.026 C149.565217,20.1345 150.388199,20.4755 151.071429,20.7235 C145.962733,13.95 137.841615,7.3005 132.236025,6.2 C133.76949,9.94049986 134.519874,13.9546836 134.440994,17.9955 C136.149068,18.1505 137.826087,18.3365 139.409938,18.5225" id="Shape" fill="#C8BFAB"></path>
                <path d="M141.770186,117.3815 C141.770186,117.3815 142.080745,120.59 146.428571,119.8305 C146.428571,119.8305 150.015528,116.8235 147.732919,110.856 C146.535427,113.632596 144.441974,115.929613 141.785714,117.3815" id="Shape" fill="#FFFFFF"></path>
                <path d="M166.040373,110.05 C166.040373,110.05 165.015528,114.111 162.934783,115.382 C163.668596,116.14605 164.262478,117.032647 164.689441,118.0015 C167.085892,116.070014 167.659253,112.656008 166.024845,110.05" id="Shape" fill="#FFFFFF"></path>
                <path d="M140.621118,94.643 C137.313665,94.643 136.754658,94.0385 136.754658,94.0385 C133.649068,104.594 141.89441,113.77 141.89441,113.77 C146.801242,112.065 147.795031,106.02 147.795031,106.02 C149.549689,107.4615 150.76087,113.057 150.76087,113.057 C155.169267,113.236866 159.555293,112.343153 163.540373,110.453 C164.658385,101.7885 156.909938,97.0145 156.909938,97.0145 C153.416149,99.851 153.167702,106.0975 153.167702,106.0975 C149.249654,103.544666 146.853538,99.2196815 146.770186,94.55 L143.229814,94.674 C141.149068,99.2 144.673913,109.7865 144.673913,109.7865 C138.726708,105.1365 140.621118,94.674 140.621118,94.674" id="Shape" fill="#900028"></path>
                <path d="M155,94.55 C153.174598,94.981452 151.267284,94.9226242 149.47205,94.3795 C149.605133,97.0949333 150.706651,99.6733438 152.57764,101.649 C151.847826,98.425 155.062112,94.55 155.062112,94.55" id="Shape" fill="#FFFFFF"></path>
                <path d="M161.055901,115.289 C160.543478,114.3745 159.875776,114.607 159.798137,115.506 C159.690156,116.138746 159.496891,116.753995 159.223602,117.335 C159.037267,116.6685 158.819876,115.971 158.680124,115.63 C158.322981,114.6535 157.624224,114.7775 157.42236,115.63 C157.313665,116.064 157.127329,116.7305 157.003106,117.18 C156.770186,116.591 156.490683,115.971 156.381988,115.63 C155.978261,114.669 155.248447,114.7155 155.046584,115.537 C154.953416,115.94 154.767081,116.6375 154.611801,117.18 C154.460186,116.7011 154.283969,116.23031 154.083851,115.7695 C153.881988,115.351 152.996894,114.39 152.65528,115.7695 C152.546584,116.25 152.42236,117.056 152.34472,117.5365 C152.072791,117.049911 151.869028,116.528381 151.73913,115.9865 C151.583851,115.103 151.055901,114.7 150.590062,115.754 C150.243035,116.380022 150.031439,117.071754 149.968944,117.7845 C151.57705,118.028547 153.20284,118.13743 154.829193,118.11 C157.065962,118.131169 159.285751,117.720642 161.36646,116.901 C161.370203,116.303198 161.264971,115.709703 161.055901,115.1495" id="Shape" fill="#FFFFFF"></path>
                <path d="M174.192547,97.929 C174.192547,97.929 172.484472,102.7495 174.347826,104.253 C176.07131,102.563362 177.263867,100.408773 177.779503,98.053 C177.779503,97.8205 174.39441,96.348 174.192547,98.053" id="Shape" fill="#FFFFFF"></path>
                <path d="M178.71118,91.977 C176.656092,90.7287144 174.263029,90.1491296 171.863354,90.3185 C167.774385,92.1971898 163.423707,93.4462155 158.959627,94.023 C159.937888,95.4025 166.28882,95.573 170.295031,94.55 C173.134183,93.7213407 176.179503,93.9640864 178.850932,95.232 C179.095875,94.1539649 179.047626,93.0301633 178.71118,91.977" id="Shape" fill="#FFFFFF"></path>
                <path d="M170.496894,68.758 C169.154046,68.716025 167.898471,69.4202685 167.236025,70.587 C167.236025,70.587 166.459627,68.8665 169.332298,67.8125 C172.204969,66.7585 178.198758,70.3235 178.198758,70.3235 C175.684083,69.4915516 173.076578,68.9709894 170.434783,68.7735 M185.962733,69.998 C188.012422,70.8505 187.515528,71.548 186.723602,72.5245 C186.723602,72.013 187.220497,69.7345 180.248447,70.649 C180.248447,70.649 183.897516,69.099 185.962733,69.998 M171.055901,77.2055 C171.760692,79.487843 173.34779,81.3956261 175.465839,82.5065 C176.562675,79.893772 177.394975,77.1780899 177.950311,74.4 C177.950311,74.4 180.07764,75.1905 177.732919,83.0025 C179.963675,82.2311449 181.875083,80.74293 183.167702,78.771 C183.167702,78.771 180.357143,77.221 181.506211,75.3455 C182.65528,73.47 186.568323,76.6165 188.571429,72.2455 C190.574534,67.8745 182.546584,68.0915 179.503106,69.6105 C179.503106,69.6105 171.335404,64.759 168.121118,67.022 C164.906832,69.285 165.015528,71.5945 168.291925,72.8965 C171.568323,74.1985 175.046584,71.7495 174.798137,75.082 C174.596273,77.841 171.102484,77.2985 171.102484,77.2985" id="Shape" fill="#333333"></path>
                <path d="M169.332298,67.8125 C166.459627,68.8665 167.236025,70.587 167.236025,70.587 C167.898471,69.4202685 169.154046,68.716025 170.496894,68.758 C173.13869,68.9554894 175.746195,69.4760516 178.26087,70.308 C178.26087,70.308 172.267081,66.743 169.39441,67.797" id="Shape" fill="#878787"></path>
                <path d="M186.770186,72.509 C187.608696,71.5945 188.059006,70.835 186.009317,69.9825 C183.959627,69.13 180.295031,70.6335 180.295031,70.6335 C187.267081,69.719 186.754658,71.9975 186.770186,72.509" id="Shape" fill="#878787"></path>
                <path d="M139.968944,56.4045 C138.352785,56.6380169 136.782598,55.7523947 136.149068,54.25 L133.742236,52.917 C133.632056,54.5489074 133.886642,56.1848584 134.487578,57.7065 C133.374101,56.7447782 132.465814,55.5692943 131.81677,54.25 C131.377003,53.3695423 131.153453,52.397259 131.164596,51.4135 L128.990683,50.189 C127.65528,54.064 130.186335,60.0315 134.47205,60.047 C136.780479,58.8798871 139.212904,57.9752189 141.723602,57.35 L139.968944,56.389" id="Shape" fill="#D9D9D9"></path>
                <path d="M131.164596,51.4755 C131.181764,50.7991995 131.34044,50.1339585 131.630435,49.5225 C131.802075,49.146653 132.010103,48.7884503 132.251553,48.453 L130.916149,47.7245 C130.004401,48.3227688 129.324998,49.2142473 128.990683,50.251 L131.164596,51.4755" id="Shape" fill="#A8A8A8"></path>
                <path d="M133.944099,51.863 C133.847305,52.2133159 133.779786,52.5710422 133.742236,52.9325 L136.149068,54.2655 C135.653075,53.1212524 135.800753,51.8004384 136.537267,50.7935 L134.984472,49.9255 C134.508446,50.4887547 134.163704,51.150526 133.975155,51.863" id="Shape" fill="#A8A8A8"></path>
                <path d="M139.968944,56.4045 L141.723602,57.3655 L141.723602,57.3655 C143.330573,56.9587919 144.958147,56.6380021 146.599379,56.4045 L142.732919,54.25 C142.262024,55.4112157 141.210455,56.2368035 139.968944,56.42" id="Shape" fill="#A8A8A8"></path>
                <path d="M140.357143,52.917 C140.323773,53.2696016 140.117695,53.5828456 139.806805,53.7535274 C139.495915,53.9242093 139.120537,53.9301904 138.804348,53.7695 C139.099336,53.7479785 139.371204,53.6021413 139.551971,53.3684548 C139.732738,53.1347683 139.805314,52.835325 139.751553,52.545 L138.649068,51.9405 C138.075066,52.2879359 137.848662,53.0067143 138.120202,53.6195248 C138.391741,54.2323354 139.076816,54.5486853 139.720497,54.3585 C140.291125,54.1922675 140.691336,53.6804201 140.714286,53.0875 L140.419255,52.917" id="Shape" fill="#900028"></path>
                <path d="M131.630435,49.6 C131.34044,50.2114585 131.181764,50.8766995 131.164596,51.553 C131.175098,52.489634 131.398072,53.4117187 131.81677,54.25 C132.471059,55.5526132 133.379037,56.7118901 134.487578,57.66 C133.886642,56.1383584 133.632056,54.5024074 133.742236,52.8705 C133.779786,52.5090422 133.847305,52.1513159 133.944099,51.801 C134.132648,51.088526 134.47739,50.4267547 134.953416,49.8635 L134.953416,49.8635 L132.251553,48.391 C132.010103,48.7264503 131.802075,49.084653 131.630435,49.4605" id="Shape" fill="#FFFFFF"></path>
                <path d="M185.574534,50.9795 L185.046584,51.1345 C185.214212,51.4921099 185.26839,51.8923044 185.201863,52.2815 L186.071429,52.0025 C186.023219,51.6161705 185.848543,51.2565481 185.574534,50.9795" id="Shape" fill="#A8A8A8"></path>
                <path d="M183.229814,52.9325 L184.177019,52.6225 C184.232284,52.2284894 184.161646,51.8271164 183.975155,51.4755 L183.338509,51.6615 C183.551159,52.0705798 183.508849,52.5653177 183.229814,52.9325" id="Shape" fill="#A8A8A8"></path>
                <path d="M181.785714,53.413 C181.348081,53.2745269 181.024537,52.9037189 180.947205,52.452 L179.984472,52.7775 C180.532476,52.9565554 181.054541,53.2066954 181.537267,53.5215 L181.863354,53.413" id="Shape" fill="#A8A8A8"></path>
                <path d="M182.018634,52.7 C182.130521,52.7631259 182.264098,52.7755215 182.385725,52.734065 C182.507352,52.6926086 182.605438,52.601251 182.65528,52.483 C182.748824,52.2965266 182.711187,52.0711097 182.562112,51.925 L182.562112,51.925 L182.142857,52.0645 C182.097517,52.1582275 182.095476,52.267053 182.13727,52.3624089 C182.179063,52.4577647 182.260517,52.530127 182.360248,52.5605 L182.236025,52.5605 C182.125419,52.5620462 182.019842,52.5144658 181.947853,52.4306309 C181.875865,52.3467959 181.844907,52.235371 181.863354,52.1265 L181.754658,52.1265 C181.719354,52.3365565 181.826796,52.5447457 182.018634,52.638" id="Shape" fill="#900028"></path>
                <path d="M184.192547,52.7 C184.112642,53.2537456 183.911152,53.7830278 183.602484,54.25 C184.361339,53.8256009 184.919979,53.1174042 185.15528,52.2815 C185.221806,51.8923044 185.167628,51.4921099 185,51.1345 L183.944099,51.4755 L183.944099,51.4755 C184.13059,51.8271164 184.201229,52.2284894 184.145963,52.6225" id="Shape" fill="#FFFFFF"></path>
                <path d="M185.201863,52.2815 L186.071429,52.0025 C186.21118,53.971 184.518634,55.3815 183.431677,55.1025 C183.431677,55.1025 182.003106,53.94 181.459627,53.5525 L181.785714,53.444 C182.325155,53.6280616 182.921421,53.4317749 183.245342,52.9635 L184.192547,52.6535 C184.103888,53.2049481 183.903079,53.7324427 183.602484,54.2035 C184.374502,53.7946537 184.938213,53.0800294 185.15528,52.235" id="Shape" fill="#D9D9D9"></path>
                <path d="M130.015528,30.3955 C128.835404,30.225 127.826087,29.76 127.826087,28.8455 C124.934774,29.4618401 122.191907,30.6359905 119.751553,32.302 C123.069195,31.2000225 126.522848,30.5585178 130.015528,30.3955" id="Shape" fill="#B2A488"></path>
                <path d="M133.307453,30.163 C132.779023,30.3518502 132.222734,30.4513829 131.661491,30.4575 C132.635814,30.5315635 133.590943,30.7672967 134.487578,31.155 C139.347826,33.387 150.496894,38.75 150.496894,38.75 C148.136256,36.5757872 145.578723,34.6247679 142.857143,32.922 C142.464191,32.9477541 142.06997,32.9477541 141.677019,32.922 C138.680124,32.922 137.018634,31.2945 137.624224,30.3335 L137.763975,30.132 L136.335404,29.4965 C135.606389,29.1958322 134.853182,28.9573137 134.083851,28.7835 C134.040284,29.3187905 133.768919,29.8097558 133.338509,30.132" id="Shape" fill="#B2A488"></path>
                <path d="M151.630435,52.948 L149.534161,51.615 C149.260149,51.6560687 148.980086,51.6184358 148.726708,51.5065 C148.195135,51.1672164 147.723011,50.7430688 147.329193,50.251 C146.024845,49.4605 144.611801,48.6235 143.121118,47.771 C142.686335,48.0035 142.748447,47.6005 141.413043,46.872 L141.086957,46.655 C139.39441,45.7405 137.65528,44.857 135.900621,44.0355 C135.590062,44.237 135.108696,44.2215 134.23913,43.617 C133.964338,43.4318801 133.718417,43.2072941 133.509317,42.9505 C131.801242,42.2375 130.124224,41.602 128.509317,41.106 L128.400621,41.106 C126.428571,41.5555 123.369565,41.8035 123.742236,40.4395 C123.777753,40.3044237 123.829911,40.1742642 123.897516,40.052 C123.034813,39.9757728 122.16705,39.9757728 121.304348,40.052 C121.37646,40.9005518 121.095689,41.7413481 120.52795,42.377 C124.18554,41.9057458 127.899748,42.571476 131.164596,44.2835 C135.822981,46.531 152.236025,56.048 152.236025,56.048 C152.236025,56.048 152.779503,55.614 153.664596,55.0405 C152.531056,54.56 151.677019,53.9245 151.614907,52.979" id="Shape" fill="#B2A488"></path>
                <path d="M104.47205,118.513 L104.611801,118.513 C103.742236,118.048 102.857143,117.5985 101.987578,117.18 C101.568323,117.645 100.357143,118.1565 100.201863,118.4665 L100.108696,118.699 C101.164596,119.195 102.220497,119.722 103.214286,120.249 C103.431677,119.4585 103.757764,118.699 104.39441,118.513" id="Shape" fill="#B2A488"></path>
                <path d="M85.2484472,110.763 C84.0993789,110.422 83.3229814,110.2205 83.0434783,110.143 C83.0502102,110.178855 83.0502102,110.215645 83.0434783,110.2515 C82.8072481,111.015837 82.2359913,111.631683 81.4906832,111.9255 L81.4906832,111.9255 C81.4906832,111.9255 82.4378882,112.1425 84.052795,112.592 C84.314488,111.899158 84.6983977,111.25871 85.1863354,110.701 L85.1863354,110.701" id="Shape" fill="#B2A488"></path>
                <path d="M91.0869565,112.6385 C89.0217391,111.91 87.2049689,111.3365 85.8074534,110.918 C86.2363398,111.34369 86.5375206,111.880545 86.6770186,112.468 C86.7077693,112.798267 86.6315724,113.12967 86.4596273,113.4135 C87.5,113.739 88.6490683,114.111 89.9068323,114.545 L89.9068323,114.545 C90.0776398,112.995 89.5341615,112.7005 91.0869565,112.747" id="Shape" fill="#B2A488"></path>
                <path d="M100.403727,116.3895 C97.7639752,115.165 95.1397516,114.111 92.7639752,113.2895 C93.329392,113.977381 93.5208768,114.898329 93.2763975,115.754 C94.7360248,116.3275 96.2732919,116.9475 97.9347826,117.6605 C98.2386405,117.552069 98.5301248,117.411785 98.8043478,117.242 C99.3065193,116.868664 99.8758311,116.595044 100.481366,116.436" id="Shape" fill="#B2A488"></path>
                <path d="M98.5869565,108.6705 C100.525698,109.538073 102.41287,110.516187 104.23913,111.6 C104.276195,111.170835 104.414545,110.756531 104.642857,110.391 C102.742603,109.463052 100.691932,108.88045 98.5869565,108.6705" id="Shape" fill="#B2A488"></path>
                <path d="M118.369565,119.4275 C117.562112,118.761 116.506211,117.8775 115.263975,117.0095 C114.803411,117.373012 114.216623,117.538154 113.633662,117.468325 C113.0507,117.398495 112.519714,117.099462 112.158385,116.6375 C111.885127,116.39413 111.722559,116.050449 111.707922,115.685186 C111.693285,115.319923 111.827834,114.964379 112.080745,114.7 C110.854037,113.8475 109.534161,113.0105 108.198758,112.2355 C108.307453,112.9795 108.416149,113.7855 108.447205,114.297 C111.299768,116.25808 114.018025,118.407023 116.583851,120.7295 C114.353929,121.627587 111.913035,121.869623 109.549689,121.427 C108.478261,120.6985 107.360248,120.0165 106.21118,119.3655 C106.215024,119.765086 106.118956,120.159319 105.931677,120.5125 C105.773199,120.829705 105.569185,121.122121 105.326087,121.3805 C106.475155,122.0315 107.608696,122.7135 108.71118,123.4575 C108.71118,123.4575 109.114907,123.5505 109.767081,123.659 C110.018362,122.68695 110.888852,122.00196 111.89441,121.985 C113.159912,121.753538 114.426203,122.385543 115,123.535 C116.100984,123.320921 117.166995,122.955791 118.167702,122.45 C117.633654,122.129054 117.324512,121.536717 117.367064,120.915925 C117.409616,120.295132 117.796701,119.750346 118.369565,119.505" id="Shape" fill="#B2A488"></path>
                <path d="M90.4037267,34.41 C93.3385093,32.55 114.906832,19.313 150.621118,24.2885 C149.002538,23.6432261 147.335991,23.124987 145.636646,22.7385 C143.78882,23.436 141.257764,23.5135 140.978261,22.7385 C140.879149,22.4789411 140.879149,22.1920589 140.978261,21.9325 C139.068323,21.6845 136.97205,21.5295 134.673913,21.4365 C133.684781,21.7520665 132.759501,22.2401128 131.940994,22.878 C131.335404,23.4825 129.704969,22.506 129.083851,21.328 L125.496894,21.421 C125.698758,21.7155 125.667702,22.072 125.263975,22.413 C123.928571,23.6065 120.170807,24.242 119.332298,23.3585 C118.850932,22.8625 119.130435,22.32 119.704969,21.8085 C118.416149,21.9635 117.158385,22.1495 115.916149,22.351 C115.588715,23.0683575 115.11852,23.7117342 114.534161,24.242 C113.198758,25.6215 110.201863,26.2725 109.875776,25.141 C109.693404,24.6944502 109.639623,24.2059259 109.720497,23.7305 C108.850932,23.963 108.012422,24.211 107.173913,24.459 C106.828183,26.2714663 105.357297,27.6584827 103.524845,27.9 C101.583851,28.1015 101.226708,27.249 101.28882,26.4585 C100.139752,26.908 99.0217391,27.373 97.9192547,27.8535 C97.9868398,28.8902588 97.5106943,29.8877778 96.6614907,30.4885 C95.310559,31.5735 93.8819876,32.147 93.1521739,31.403 C92.8406729,31.0958151 92.7374965,30.6353863 92.8881988,30.225 C91.0714286,31.1395 89.3478261,32.0695 87.7329193,32.953 C88.6024845,33.387 89.5031056,33.8675 90.4037267,34.41" id="Shape" fill="#E4DFD5"></path>
                <path d="M170.232919,85.7615 C167.034161,84.568 165.093168,77.1435 165.093168,77.1435 C162.011174,75.6961338 159.947049,72.7061721 159.689441,69.316 C156.392417,67.110824 152.620262,65.7140806 148.680124,65.2395 C148.229576,65.8605945 147.708509,66.4275352 147.127329,66.929 C150.531429,69.8207996 154.202035,72.3845609 158.090062,74.586 C153.915631,76.2923264 149.236543,76.2923264 145.062112,74.586 L144.534161,74.8805 C149.037267,79.236 159.782609,80.9875 159.782609,80.9875 C155.210776,83.1727352 150.008866,83.6617687 145.108696,82.367 C145.122343,82.5217007 145.122343,82.6772993 145.108696,82.832 C151.055901,85.374 161.599379,85.1415 161.599379,85.1415 C153.736223,88.7202269 144.971868,89.8387914 136.459627,88.35 C147.329193,94.147 173.447205,86.924 170.232919,85.746" id="Shape" fill="#EDEAE3"></path>
                <path d="M166.242236,33.6815 C167.716706,34.2930094 169.117806,35.0676861 170.419255,35.991 C170.87383,35.4150372 171.395048,34.8947575 171.97205,34.441 C171.655541,34.1233642 171.312707,33.8329976 170.947205,33.573 C170.776398,33.852 170.434783,33.883 169.285714,33.8365 C168.816491,33.8830179 168.358647,33.673121 168.088241,33.2875222 C167.817835,32.9019234 167.776973,32.4006654 167.981366,31.9765 C166.872647,31.5267131 165.730466,31.163946 164.565217,30.8915 C165.347009,31.6645361 165.946419,32.6017449 166.319876,33.635" id="Shape" fill="#E4DFD5"></path>
                <path d="M184.968944,41.4315 C185.150086,41.2931274 185.385623,41.2472518 185.60559,41.3075 C185.020804,38.6028945 183.222945,36.316751 180.729814,35.1075 C180.062112,35.1075 179.425466,35.2005 178.819876,35.278 L178.819876,35.3865 C178.835406,35.6135691 178.835406,35.8414309 178.819876,36.0685 C179.368523,36.4070716 179.887922,36.790735 180.372671,37.2155 C180.46196,37.0395299 180.595784,36.8899171 180.76087,36.7815 C181.956522,35.929 184.937888,37.913 183.959627,39.68 C183.787392,40.0589663 183.499273,40.3736991 183.136646,40.579 C184.292263,42.567512 185.135405,44.7212335 185.636646,46.965 C185.738434,47.019368 185.832443,47.087141 185.916149,47.1665 C186.068287,45.9532403 186.099496,44.7279092 186.009317,43.5085 C185.186335,42.749 184.456522,41.881 184.968944,41.385" id="Shape" fill="#E4DFD5"></path>
                <path d="M144.409938,128.65 C142.845732,128.424085 141.329541,127.942291 139.92236,127.224 C139.858458,127.880446 139.58648,128.499439 139.145963,128.991 C140.900605,129.334169 142.714448,129.216669 144.409938,128.65" id="Shape" fill="#EDEAE3"></path>
                <path d="M143.571429,44.082 C146.180124,45.508 147.934783,46.5465 147.934783,46.5465 C145.64215,44.377506 143.220571,42.3484901 140.68323,40.4705 C139.642857,40.176 138.664596,39.6025 138.478261,38.9205 C128.431677,32.4415 125.186335,36.3165 125.186335,36.3165 C129.145963,36.797 135.729814,39.897 140.714286,42.5165 C141.829644,42.5811876 142.853852,43.152341 143.493789,44.0665" id="Shape" fill="#E4DFD5"></path>
                <path d="M173.680124,54.4825 C171.529886,52.7244927 169.222001,51.1679177 166.785714,49.8325 C166.463347,50.1042033 166.036213,50.2179006 165.621118,50.1425 C165.018494,49.9900321 164.651338,49.3815124 164.798137,48.7785 C164.145963,48.453 163.773292,48.298 163.773292,48.298 C163.70056,48.4042199 163.617327,48.5028815 163.524845,48.5925 C163.754487,49.1798089 163.865315,49.8067053 163.850932,50.437 C164.800064,50.5837289 165.72806,50.8439327 166.614907,51.212 C167.938085,50.9958969 169.232554,51.7324157 169.720497,52.979 C170.789433,53.7068167 171.796933,54.5206974 172.732919,55.4125 C172.956382,55.0595039 173.252862,54.7582726 173.602484,54.529" id="Shape" fill="#E4DFD5"></path>
                <path d="M104.704969,66.34 C104.704969,66.34 104.31677,66.6035 103.63354,67.115 L103.742236,67.2545 C104.047615,66.9337782 104.36893,66.6285608 104.704969,66.34" id="Shape" fill="#B2A488"></path>
                <path d="M120.838509,50.716 C120.403727,53.3665 120.326087,56.916 122.391304,59.3185 C124.129327,61.2332774 126.709021,62.1575052 129.270186,61.783 C125.050407,59.0633104 122.288133,54.5855421 121.754658,49.6 C121.638116,49.8044823 121.508445,50.0012263 121.36646,50.189 C121.210482,50.3835615 121.033422,50.560303 120.838509,50.716" id="Shape" fill="#B2A488"></path>
                <path d="M150.885093,50.1115 C152.928784,49.588363 154.867018,48.7179897 156.614907,47.5385 C156.359822,47.4613921 156.122405,47.3349972 155.916149,47.1665 C154.472169,48.4997203 152.7557,49.5044797 150.885093,50.1115" id="Shape" fill="#E4DFD5"></path>
                <path d="M158.602484,40.3 C158.602484,40.5015 158.602484,40.7185 158.602484,40.9355 C158.674769,41.7633688 158.601193,42.5974778 158.385093,43.4 C158.792089,43.8272227 159.13234,44.3131671 159.39441,44.8415 C160.179942,43.7358252 160.676334,42.4517905 160.838509,41.106 C160.186335,40.8735 159.534161,40.61 158.959627,40.3775 L158.63354,40.2225" id="Shape" fill="#E4DFD5"></path>
                <path d="M159.937888,37.448 C158.819456,35.8827771 157.366114,34.5855949 155.68323,33.6505 C155.496894,34.2395 153.602484,34.41 151.692547,33.9605 C149.782609,33.511 148.26087,31.4185 149.39441,30.721 L149.39441,30.721 C146.861559,29.7523497 144.26805,28.9498094 141.630435,28.3185 C143.893479,29.4789238 145.89591,31.0874786 147.515528,33.046 C150.372671,33.79 154.782609,35.247 157.096273,37.696 C157.196115,37.602335 157.305392,37.5192264 157.42236,37.448 C158.220745,37.0818079 159.139504,37.0818079 159.937888,37.448" id="Shape" fill="#E4DFD5"></path>
                <path d="M173.913043,56.4355 C174.636997,56.3846634 175.364497,56.4421316 176.071429,56.606 C175.310559,55.8465 174.518634,55.149 173.742236,54.4825 C173.392614,54.7117726 173.096133,55.0130039 172.872671,55.366 C173.540373,56.0015 173.913043,56.4355 173.913043,56.4355" id="Shape" fill="#A49473"></path>
                <path d="M131.071429,113.15 C130.962733,112.747 130.854037,112.3285 130.729814,111.9255 C130.616888,112.192524 130.476377,112.447067 130.310559,112.685 C129.984472,113.119 130.403727,113.2585 131.071429,113.15" id="Shape" fill="#A49473"></path>
                <path d="M126.97205,100.3315 C126.677019,99.541 126.381988,98.7815 126.086957,98.115 C125.79209,98.9706606 126.16836,99.9129373 126.97205,100.3315" id="Shape" fill="#A49473"></path>
                <path d="M128.229814,105.865 C128.489631,106.128775 128.794647,106.344002 129.130435,106.5005 C128.819876,105.5395 128.509317,104.6095 128.214286,103.726 C127.892143,103.987975 127.705184,104.380731 127.705184,104.7955 C127.705184,105.210269 127.892143,105.603025 128.214286,105.865" id="Shape" fill="#A49473"></path>
                <path d="M139.906832,127.286 C139.25823,126.94097 138.640077,126.541709 138.059006,126.0925 C137.525518,126.760785 137.215903,127.579517 137.173913,128.433 C137.803583,128.704704 138.459064,128.912418 139.130435,129.053 C139.570952,128.561439 139.84293,127.942446 139.906832,127.286" id="Shape" fill="#A49473"></path>
                <path d="M135.093168,123.008 C134.195351,121.691195 133.450403,120.276782 132.872671,118.792 C132.71351,119.164134 132.634168,119.565409 132.639752,119.97 C132.639752,121.2875 133.959627,122.388 135.093168,123.07" id="Shape" fill="#A49473"></path>
                <path d="M165.621118,50.096 C166.036213,50.1714006 166.463347,50.0577033 166.785714,49.786 C165.993789,49.3365 165.232919,48.98 164.798137,48.732 C164.651338,49.3350124 165.018494,49.9435321 165.621118,50.096" id="Shape" fill="#A49473"></path>
                <path d="M140.68323,40.4705 C139.906832,39.9125 139.130435,39.4165 138.478261,38.9205 C138.664596,39.5715 139.642857,40.145 140.68323,40.4705" id="Shape" fill="#A49473"></path>
                <path d="M140.791925,42.5785 L143.571429,44.1285 C142.931492,43.214341 141.907283,42.6431876 140.791925,42.5785" id="Shape" fill="#A49473"></path>
                <path d="M166.614907,51.15 C167.705235,51.6367303 168.745364,52.2285363 169.720497,52.917 C169.232554,51.6704157 167.938085,50.9338969 166.614907,51.15" id="Shape" fill="#A49473"></path>
                <path d="M163.524845,48.546 C162.767621,49.2236218 161.945916,49.8258127 161.071429,50.344 C161.992022,50.1963044 162.930338,50.1963044 163.850932,50.344 C163.865315,49.7137053 163.754487,49.0868089 163.524845,48.4995" id="Shape" fill="#A49473"></path>
                <path d="M155.916149,47.1665 C156.122405,47.3349972 156.359822,47.4613921 156.614907,47.5385 C157.67212,46.8382924 158.601654,45.9628532 159.363354,44.95 C159.120476,44.3854468 158.790376,43.8624219 158.385093,43.4 C157.906512,44.8286601 157.066833,46.1099366 155.947205,47.12" id="Shape" fill="#A49473"></path>
                <path d="M159.937888,37.448 C159.139504,37.0818079 158.220745,37.0818079 157.42236,37.448 C157.305392,37.5192264 157.196115,37.602335 157.096273,37.696 C157.810104,38.4136313 158.310076,39.3151802 158.540373,40.3 L158.86646,40.455 C159.440994,40.6875 160.093168,40.951 160.745342,41.1835 C160.761299,40.8943859 160.761299,40.6046141 160.745342,40.3155 C160.741609,39.3051581 160.439108,38.3184068 159.875776,37.479" id="Shape" fill="#A49473"></path>
                <path d="M151.754658,33.9605 C153.664596,34.41 155.559006,34.2395 155.745342,33.6505 C153.773459,32.4697065 151.693737,31.4784268 149.534161,30.69 L149.534161,30.69 C148.400621,31.3875 149.84472,33.48 151.832298,33.9295" id="Shape" fill="#A49473"></path>
                <path d="M143.291925,81.7625 C143.883037,82.1599647 144.512458,82.4974747 145.170807,82.77 C145.184455,82.6152993 145.184455,82.4597007 145.170807,82.305 C144.037267,82.0105 143.369565,81.7625 143.369565,81.7625" id="Shape" fill="#A49473"></path>
                <path d="M148.680124,65.2395 C147.696473,65.1181399 146.705011,65.0715058 145.714286,65.1 C146.045042,65.8149914 146.520925,66.4536383 147.111801,66.9755 C147.692981,66.4740352 148.214048,65.9070945 148.664596,65.286" id="Shape" fill="#A49473"></path>
                <path d="M143.742236,73.966 C143.980209,74.2683933 144.239679,74.5532961 144.518634,74.8185 L145.046584,74.524 C144.602371,74.3607808 144.166996,74.1745274 143.742236,73.966" id="Shape" fill="#A49473"></path>
                <path d="M131.537267,117.149 C131.413043,115.3045 130.108696,115.1805 128.881988,115.599 C129.301242,116.777 129.767081,117.986 130.263975,119.195 C131.138487,118.8863 131.671966,118.003099 131.537267,117.087" id="Shape" fill="#A49473"></path>
                <path d="M185.636646,47.0115 C185.636646,47.275 185.776398,47.554 185.838509,47.833 C185.838509,47.616 185.838509,47.4145 185.838509,47.213 C185.754803,47.133641 185.660794,47.065868 185.559006,47.0115" id="Shape" fill="#A49473"></path>
                <path d="M184.968944,41.4315 C184.425466,41.9275 185.186335,42.7955 186.009317,43.555 C185.939921,42.7956137 185.804842,42.0436436 185.60559,41.3075 C185.385623,41.2472518 185.150086,41.2931274 184.968944,41.4315" id="Shape" fill="#A49473"></path>
                <path d="M183.959627,39.7265 C184.937888,37.9595 181.956522,35.9755 180.76087,36.828 C180.595784,36.9364171 180.46196,37.0860299 180.372671,37.262 C181.460377,38.2359681 182.392475,39.3702452 183.136646,40.6255 C183.499273,40.4201991 183.787392,40.1054663 183.959627,39.7265" id="Shape" fill="#A49473"></path>
                <path d="M169.254658,33.883 C170.403727,33.883 170.807453,33.883 170.916149,33.6195 C169.990789,32.9902886 168.995548,32.4701577 167.950311,32.0695 C167.745917,32.4936654 167.78678,32.9949234 168.057185,33.3805222 C168.327591,33.766121 168.785435,33.9760179 169.254658,33.9295" id="Shape" fill="#A49473"></path>
                <path d="M93.1677019,31.403 C93.8975155,32.147 95.326087,31.5735 96.6770186,30.4885 C97.5262222,29.8877778 98.0023678,28.8902588 97.9347826,27.8535 C96.1749482,28.6285 94.4979296,29.419 92.9037267,30.225 C92.7530245,30.6353863 92.8562009,31.0958151 93.1677019,31.403" id="Shape" fill="#A49473"></path>
                <path d="M103.524845,27.9 C105.303272,27.6040328 106.705953,26.2286579 107.034161,24.459 C105.046584,25.079 103.136646,25.7455 101.28882,26.4585 C101.28882,27.249 101.583851,28.1015 103.524845,27.9" id="Shape" fill="#A49473"></path>
                <path d="M109.736025,25.141 C110.124224,26.2725 113.121118,25.6215 114.39441,24.242 C114.978769,23.7117342 115.448964,23.0683575 115.776398,22.351 C113.618012,22.7385 111.521739,23.2035 109.565217,23.7305 C109.484344,24.2059259 109.538124,24.6944502 109.720497,25.141" id="Shape" fill="#A49473"></path>
                <path d="M140.854037,22.661 C141.180124,23.467 143.71118,23.3895 145.512422,22.661 C143.975171,22.3017811 142.420287,22.0224057 140.854037,21.824 C140.754926,22.0835589 140.754926,22.3704411 140.854037,22.63" id="Shape" fill="#A49473"></path>
                <path d="M119.254658,23.3275 C120.093168,24.211 123.913043,23.5755 125.186335,22.382 C125.590062,22.041 125.621118,21.6845 125.419255,21.39 L124.968944,21.39 C123.152174,21.39 121.36646,21.5915 119.627329,21.793 C119.052795,22.2735 118.773292,22.816 119.254658,23.343" id="Shape" fill="#A49473"></path>
                <path d="M131.863354,22.8005 C132.681861,22.1626128 133.607141,21.6745665 134.596273,21.359 C132.857143,21.359 131.009317,21.359 129.006211,21.359 C129.627329,22.4905 131.257764,23.467 131.863354,22.909" id="Shape" fill="#A49473"></path>
                <path d="M169.021739,41.1215 C169.114907,40.672 172.686335,42.16 172.251553,43.8495 C171.81677,45.539 168.338509,44.578 169.021739,41.1215 M177.329193,40.6565 C179.068323,40.92 179.363354,41.5865 179.363354,41.5865 C178.913043,43.1365 179.363354,43.214 177.360248,43.1365 C175.357143,43.059 175.590062,40.393 177.360248,40.641 M151.630435,27.528 C151.58597,27.5820043 151.533626,27.6290297 151.475155,27.6675 C160.372671,30.473 166.413043,37.107 164.565217,42.842 C164.05992,44.4594639 163.126442,45.9107121 161.863354,47.0425 C162.116233,47.1082096 162.361009,47.2017846 162.593168,47.3215 C163.041103,47.6045885 163.37186,48.0393016 163.524845,48.546 C163.617327,48.4563815 163.70056,48.3577199 163.773292,48.2515 C163.773292,48.2515 164.145963,48.4065 164.798137,48.732 C164.875092,48.2319204 165.128393,47.7757002 165.512422,47.4455 C165.321394,45.3950411 165.872241,43.3440801 167.065217,41.664 C167.00753,43.070608 167.196715,44.4764501 167.624224,45.818 C171.024845,46.19 175.201863,50.0495 175.201863,50.0495 C175.508302,49.2264682 175.898545,48.4369995 176.36646,47.6935 C175.231815,47.4381613 174.276528,46.6787335 173.773292,45.632 C173.074534,43.9115 173.944099,43.7255 175.07764,44.33 C176.054144,44.7395846 176.924852,45.3649414 177.624224,46.159 C179.427204,44.5282441 181.991049,44.0379243 184.270186,44.888 C182.227563,45.4382915 180.418712,46.6347702 179.114907,48.298 C179.605417,48.0616059 180.177192,48.0616059 180.667702,48.298 C181.086227,48.5471436 181.308305,49.027446 181.226708,49.507 L183.012422,48.8715 C183.012422,48.267 183.664596,46.996 184.409938,46.8875 C184.791286,46.835062 185.179684,46.8942937 185.52795,47.058 C185.026709,44.8142335 184.183567,42.660512 183.02795,40.672 C182.353332,40.9247224 181.594901,40.6482288 181.242236,40.021 C180.652174,39.246 179.798137,38.1455 180.263975,37.3085 C179.779226,36.883735 179.259827,36.5000716 178.71118,36.1615 C178.71118,38.5485 177.748447,39.2615 177.65528,38.9825 C177.562112,38.7035 176.428571,36.9365 175.838509,35.991 C174.860472,36.2847805 173.913858,36.6741666 173.012422,37.1535 L173.012422,37.1535 C173.972014,37.6972396 174.725193,38.5416786 175.15528,39.556 C175.15528,39.556 175.574534,40.176 173.602484,40.0675 C172.454031,40.1292412 171.372415,39.5260743 170.822981,38.5175 C170.0232,39.1183388 169.316804,39.8339088 168.726708,40.641 C168.609226,38.9471812 169.167394,37.2756927 170.279503,35.991 L170.279503,35.991 C168.978054,35.0676861 167.576955,34.2930094 166.102484,33.6815 L166.102484,33.6815 C166.240775,34.0740271 166.293709,34.4914574 166.257764,34.906 C167.437888,35.2005 167.65528,35.712 167.65528,35.712 C167.204969,37.1845 167.65528,37.3395 165.652174,37.262 C165.181629,37.3658501 164.692669,37.1956313 164.388872,36.8222143 C164.085075,36.4487973 164.018505,35.9361757 164.216877,35.4977799 C164.415249,35.0593842 164.844568,34.7703434 165.326087,34.751 C163.881988,33.48 162.639752,32.4105 161.537267,31.4805 C161.159871,31.5065548 160.781123,31.5065548 160.403727,31.4805 C159.917216,31.5325712 159.442431,31.308469 159.174045,30.9000809 C158.90566,30.4916928 158.888821,29.9677183 159.130435,29.543 L157.965839,28.6595 C157.674224,28.7604226 157.372088,28.8280209 157.065217,28.861 C154.47205,29.1245 154.704969,27.5125 154.984472,26.7065 C154.31677,26.319 153.649068,25.9315 152.919255,25.5595 C152.919255,26.35 151.801242,27.1095 151.490683,27.5125" id="Shape" fill="#C8BFAB"></path>
                <path d="M166.785714,49.786 C169.222001,51.1214177 171.529886,52.6779927 173.680124,54.436 C173.841158,54.3317149 174.020167,54.258138 174.208075,54.219 C175.326087,54.219 175.900621,55.242 176.040373,56.358 C176.118282,56.8145451 176.118282,57.2809549 176.040373,57.7375 C179.201286,57.9765111 182.151079,59.4127091 184.285714,61.752 C181.242849,58.1659171 177.757609,54.9786005 173.913043,52.266 L173.18323,52.266 C172.793839,52.2987995 172.409595,52.1597023 172.131786,51.8853753 C171.853977,51.6110483 171.710483,51.2290215 171.73913,50.84 C170.436185,50.0259992 169.088289,49.2859911 167.701863,48.6235 C167.453452,49.0700183 167.121334,49.4646849 166.723602,49.786" id="Shape" fill="#C8BFAB"></path>
                <path d="M172.639752,55.6295 C172.687609,55.5361241 172.744838,55.4478383 172.810559,55.366 C171.874573,54.4741974 170.867072,53.6603167 169.798137,52.9325 C169.922578,53.2126826 170.001215,53.5109674 170.031056,53.816 C170.083745,54.2323428 170.046685,54.655118 169.92236,55.056 C170.853668,55.7210794 171.740635,56.445944 172.57764,57.226 C172.35774,56.7326473 172.35774,56.1693527 172.57764,55.676" id="Shape" fill="#C8BFAB"></path>
                <path d="M127.531056,100.5485 C127.337025,100.49773 127.149464,100.424921 126.97205,100.3315 C127.375776,101.3855 127.795031,102.517 128.214286,103.726 C128.766293,103.200152 129.474959,102.868223 130.232919,102.7805 C129.92236,101.866 129.611801,100.9515 129.270186,100.0215 C128.80827,100.464689 128.161839,100.660574 127.531056,100.5485" id="Shape" fill="#D6CFC0"></path>
                <path d="M153.618012,131.75 C153.619748,132.645567 153.499602,133.537219 153.26087,134.4005 C155.26326,133.985337 157.197279,133.291386 159.006211,132.339 C156.195652,135.1135 150.76087,136.4 150.76087,136.4 C151.521373,135.660854 151.93794,134.638169 151.909938,133.579 C149.036413,134.455425 146.011481,134.724645 143.02795,134.3695 C146.675284,134.065382 150.250437,133.181052 153.618012,131.75 M136.770186,123.473 C136.216966,123.481319 135.674666,123.318922 135.217391,123.008 C136.021246,124.183113 137.000485,125.228542 138.121118,126.108 C138.23779,125.924149 138.373076,125.752749 138.524845,125.5965 C138.773292,125.3175 139.627329,126.0925 139.953416,127.2395 C139.953416,127.2395 139.953416,127.2395 139.953416,127.2395 C141.35189,127.949198 142.857292,128.425661 144.409938,128.65 C142.714448,129.216669 140.900605,129.334169 139.145963,128.991 C138.63354,129.611 137.965839,129.9675 137.484472,129.27 C137.299123,129.006103 137.196441,128.693216 137.189441,128.371 C135.059903,127.446437 133.327083,125.799103 132.298137,123.721 C131.583851,122.3105 130.900621,120.807 130.279503,119.2725 C129.613032,119.4926 128.916261,119.607648 128.214286,119.6135 L127.795031,119.6135 C128.385093,120.776 128.975155,122.016 129.580745,123.3335 C129.116773,124.622022 128.428109,125.818456 127.546584,126.8675 C130.751789,130.348823 135.233861,132.384495 139.968944,132.5095 C138.823238,134.21319 137.086444,135.433383 135.093168,135.935 C139.191996,137.666763 143.730051,138.07857 148.074534,137.113 C147.537108,138.674008 146.479201,140.003586 145.07764,140.8795 C145.07764,140.8795 153.944099,140.089 159.642857,135.8265 C159.573876,137.345181 159.176592,138.830993 158.478261,140.182 C164.368321,137.366847 168.450704,131.789871 169.347826,125.333 C166.335404,126.0305 165.232919,125.0695 165.232919,125.0695 C166.002345,126.788594 165.569036,128.80706 164.161491,130.0605 C164.209458,128.354681 163.222529,126.788227 161.661491,126.0925 C162.826087,127.7355 161.661491,130.7425 161.661491,130.7425 C160.033384,130.012892 158.87116,128.527924 158.555901,126.7745 C158.017009,128.992091 156.672327,130.930913 154.782609,132.215 C155.580984,130.67853 155.731903,128.887505 155.201863,127.2395 C154.021739,130.169 149.534161,131.285 149.534161,131.285 C150.37276,130.16267 150.868823,128.822481 150.962733,127.4255 C149.535151,128.743511 147.82507,129.718941 145.962733,130.2775 C146.819073,129.255023 147.222588,127.929177 147.080745,126.604 C143.081308,127.003601 139.187413,125.167465 136.956522,121.83 L136.956522,121.706 C137.049689,122.6205 137.080745,123.349 136.847826,123.473" id="Shape" fill="#D6CFC0"></path>
                <path d="M129.130435,106.5005 C129.565217,107.8335 129.984472,109.244 130.403727,110.7475 L130.729814,111.9255 C131.04348,111.023685 131.577125,110.214004 132.282609,109.5695 C131.956522,108.4845 131.630435,107.353 131.273292,106.2215 C130.644828,106.68121 129.823902,106.786568 129.099379,106.5005" id="Shape" fill="#D6CFC0"></path>
                <path d="M132.934783,118.792 C133.277175,118.053421 133.913383,117.491419 134.689441,117.242 C134.145963,115.785 133.63354,114.142 133.136646,112.375 C132.53107,112.804582 131.835418,113.090822 131.102484,113.212 C131.615747,115.126467 132.237873,117.010187 132.965839,118.854" id="Shape" fill="#D6CFC0"></path>
                <path d="M145.295031,71.3 C143.746852,70.2962101 142.42484,68.9818564 141.413043,67.4405 C140.810073,69.3688198 141.029104,71.4598885 142.018634,73.222 L142.111801,73.0205 C142.638198,71.8120356 143.911554,71.1065953 145.217391,71.3" id="Shape" fill="#D6CFC0"></path>
                <path d="M145.046584,74.524 C149.221015,76.2303264 153.900103,76.2303264 158.074534,74.524 C154.186507,72.3225609 150.515901,69.7587996 147.111801,66.867 C146.840746,67.0941915 146.549712,67.2965114 146.242236,67.4715 C148.818657,70.6402527 152.372864,72.869214 156.350932,73.811 C153.16278,74.1225578 149.948753,73.587851 147.034161,72.261 C147.329193,72.8035 146.164596,73.811 144.984472,74.4155" id="Shape" fill="#D6CFC0"></path>
                <path d="M168.167702,75.2215 C162.251553,73.0515 162.717391,68.758 165.248447,66.2005 C167.779503,63.643 173.121118,62.713 179.704969,66.867 C179.704969,66.867 184.363354,65.317 187.779503,66.402 C186.792831,64.7143054 185.603957,63.1528145 184.23913,61.752 C182.104495,59.4127091 179.154702,57.9765111 175.993789,57.7375 C175.930402,58.0945988 175.743581,58.4182059 175.465839,58.652 C181.102484,60.8375 181.273292,65.1 181.273292,65.1 C178.717642,63.1993225 175.409241,62.6239834 172.360248,63.55 C173.284734,62.5942949 174.408633,61.8534333 175.652174,61.38 C174.275092,60.636433 172.730086,60.2575472 171.164596,60.2795 C159.953416,47.8795 152.531056,58.559 152.531056,58.559 L153.63354,61.101 C153.63354,61.101 156.428571,56.296 160.822981,56.699 C163.134071,56.7326072 165.3296,57.7134923 166.89441,59.4115 C166.89441,59.4115 162.42236,63.054 162.236025,67.1615 C162.236025,67.1615 150.993789,59.0395 144.052795,63.643 C144.052795,63.643 144.192547,63.9995 144.487578,64.5885 C144.635677,64.4339566 144.802612,64.2985665 144.984472,64.1855 C146.81677,63.0695 148.090062,63.0075 149.270186,63.6895 C149.534161,63.8445 149.270186,64.449 148.78882,65.1465 C152.728957,65.6210806 156.501112,67.017824 159.798137,69.223 C160.055745,72.6131721 162.11987,75.6031338 165.201863,77.0505 C165.201863,77.0505 167.142857,84.475 170.341615,85.6685 C173.540373,86.862 147.360248,94.1625 136.459627,88.35 C144.999778,89.8274685 153.788068,88.6815881 161.661491,85.064 C161.661491,85.064 151.118012,85.25 145.170807,82.77 C145.1914,82.9893459 145.148273,83.209971 145.046584,83.4055 C144.909936,83.6496617 144.680405,83.8284853 144.409938,83.9015 C148.455826,85.4790782 152.788248,86.1919283 157.127329,85.994 C157.127329,85.994 143.416149,88.5515 135.916149,85.25 C135.116781,87.3731029 135.340105,89.7452284 136.521739,91.6825 C136.521739,91.6825 166.273292,95.387 174.673913,84.8315 C170.905169,83.0842564 168.404932,79.4091511 168.167702,75.268" id="Shape" fill="#D6CFC0"></path>
                <path d="M142.996894,79.6855 C144.054622,80.1997019 144.82444,81.1616663 145.093168,82.305 C149.993338,83.5997687 155.195248,83.1107352 159.767081,80.9255 C159.767081,80.9255 149.068323,79.174 144.518634,74.8185 C144.183603,74.9984885 143.835894,75.153899 143.478261,75.2835 C145.403727,77.3605 148.835404,79.4375 154.782609,80.8635 C148.775974,81.8866575 142.661914,79.77631 138.571429,75.268 C138.331409,77.1296699 138.833254,79.010984 139.968944,80.507 C139.982014,80.0280553 140.189366,79.5749401 140.543478,79.2515 C141.379941,79.2571351 142.209431,79.4038688 142.996894,79.6855" id="Shape" fill="#D6CFC0"></path>
                <path d="M190.993789,72.478 C190.529401,74.2767678 189.256371,75.7592964 187.546584,76.4925 C185.729814,78.9415 187.065217,80.383 178.695652,85.405 C178.84893,86.6330053 178.586582,87.8769165 177.950311,88.939 C184.798137,90.954 180.170807,99.3085 180.170807,99.3085 C185.590062,97.03 195.807453,85.7305 191.040373,72.478" id="Shape" fill="#D6CFC0"></path>
                <path d="M120.885093,65.4255 C122.065217,65.689 123.291925,65.9835 124.534161,66.309 L124.953416,65.5805 C123.612576,65.4363802 122.316735,65.0140101 121.149068,64.3405 C121.168728,64.7201027 121.076986,65.0971819 120.885093,65.4255" id="Shape" fill="#C8BFAB"></path>
                <path d="M124.953416,65.5805 L124.534161,66.309 C125.232919,66.495 125.931677,66.681 126.645963,66.898 C127.253167,65.8796215 127.960601,64.9242273 128.757764,64.046 C126.428571,63.8445 122.546584,63.147 120.295031,60.729 C120.434783,61.783 121.102484,63.209 121.149068,64.3405 C122.316735,65.0140101 123.612576,65.4363802 124.953416,65.5805" id="Shape" fill="#B2A488"></path>
                <path d="M152.484472,58.5745 C147.137625,58.391046 141.821386,59.4523799 136.956522,61.6745 C136.99948,62.6075599 136.731955,63.5285892 136.195652,64.294 C135.434783,65.193 133.090062,64.8365 132.42236,64.294 C131.404574,65.0547881 130.486431,65.9400345 129.689441,66.929 C130.559231,66.7510536 131.462489,66.8374375 132.282609,67.177 C132.965839,67.4405 132.888199,68.107 132.437888,68.82 L134.099379,69.44 C135.903607,66.7602649 138.347678,64.5709522 141.21118,63.0695 C141.21118,63.0695 145.745342,57.598 153.63354,61.163 L152.484472,58.5745 Z" id="Shape" fill="#B2A488"></path>
                <path d="M194.673913,78.647 C194.673913,78.1975 194.673913,78.058 194.673913,77.6705 C204.955976,76.4941043 215.358466,76.9123828 225.512422,78.9105 C212.484472,76.508 197.639752,78.306 194.627329,78.647" id="Shape" fill="#A8A8A8"></path>
                <path d="M194.099379,84.9865 C194.23913,84.5525 194.270186,84.413 194.378882,84.041 C204.637643,85.3684968 214.630487,88.26476 224.006211,92.628 C211.97205,87.1875 197.204969,85.3895 194.099379,84.9865" id="Shape" fill="#A8A8A8"></path>
                <path d="M192.437888,91.7135 L192.950311,90.861 C202.512219,94.7501288 211.416046,100.088037 219.347826,106.6865 C209.083851,98.363 195.217391,92.845 192.406832,91.7135" id="Shape" fill="#A8A8A8"></path>
                <path d="M188.602484,96.8905 L189.39441,96.3015 C196.890042,103.383557 203.24822,111.575759 208.245342,120.59 C201.723602,109.12 190.807453,98.9675 188.602484,96.8905" id="Shape" fill="#A8A8A8"></path>
                <path d="M135.574534,77.2985 C135.574534,76.849 135.574534,76.694 135.574534,76.322 C125.374818,74.6217961 114.973923,74.4963318 104.736025,75.95 C117.872671,74.276 132.593168,76.88 135.574534,77.376" id="Shape" fill="#A8A8A8"></path>
                <path d="M134.068323,84.01 C134.068323,83.576 133.975155,83.421 133.928571,83.049 C123.572329,82.9683221 113.265339,84.4791751 103.369565,87.5285 C116.086957,83.7775 131.024845,83.9945 134.068323,84.01" id="Shape" fill="#A8A8A8"></path>
                <path d="M135.295031,91.45 L134.891304,90.5665 C124.90052,93.2781841 115.38894,97.5130473 106.692547,103.1215 C117.919255,96.0845 132.360248,92.2715 135.295031,91.45" id="Shape" fill="#A8A8A8"></path>
                <path d="M137.080745,72.54 L137.313665,71.579 C127.798565,67.5335982 117.717104,64.9720274 107.42236,63.984 C120.590062,65.3945 134.285714,71.3465 137.080745,72.54" id="Shape" fill="#A8A8A8"></path>
                <path d="M131.614907,74.896 C131.896858,73.780997 132.286897,72.6960453 132.779503,71.6565 C131.956522,71.331 131.040373,70.99 130.046584,70.6335 C129.89021,70.6892636 129.729096,70.7307667 129.565217,70.7575 C128.012422,71.021 128.012422,71.4705 127.57764,70.959 C127.270274,72.0831156 127.082896,73.2365331 127.018634,74.4 C128.571429,74.524 130.124224,74.679 131.677019,74.8805" id="Shape" fill="#B2A488"></path>
                <path d="M121.118012,82.9715 L123.090062,82.739 L123.090062,82.15 C122.453416,81.871 121.81677,81.0805 121.537267,79.174 C121.315103,78.1940161 121.614386,77.1689153 122.329193,76.4615 L121.614907,76.4615 C121.397516,78.0115 121.257764,79.329 121.149068,80.507 C121.78676,81.2051926 121.78676,82.2733074 121.149068,82.9715" id="Shape" fill="#B2A488"></path>
                <path d="M115.419255,85.9165 C111.645553,87.1311465 108.117762,89.0046997 105,91.45 C104.987353,91.7893842 104.835807,92.1087372 104.580745,92.3335 C103.999744,92.847288 103.370549,93.3040608 102.701863,93.6975 C98.0434783,99.138 99.8447205,104.2375 99.8447205,104.2375 C99.8447205,104.2375 96.5062112,91.3415 123.136646,85.963 C123.136646,85.963 123.136646,85.684 123.136646,85.1725 C120.776398,85.3275 118.167702,85.56 115.372671,85.901" id="Shape" fill="#B2A488"></path>
                <path d="M131.226708,82.243 C131.041732,80.6466548 131.041732,79.0343452 131.226708,77.438 L129.875776,77.2675 C129.984472,78.523 129.673913,79.98 128.835404,80.3675 C128.534282,80.4850181 128.206487,80.5172022 127.888199,80.4605 C128.10559,81.1115 128.354037,81.747 128.602484,82.3515 L131.28882,82.3515" id="Shape" fill="#B2A488"></path>
                <path d="M129.84472,84.8625 C130.741236,86.420218 131.825955,87.8621715 133.074534,89.156 C132.507582,87.7452246 132.045666,86.2946213 131.692547,84.816 L129.84472,84.816" id="Shape" fill="#B2A488"></path>
                <path d="M119.565217,115.3045 C118.621108,111.937061 117.297977,108.687185 115.621118,105.617 C115.170807,106.4695 114.627329,107.043 113.975155,106.7795 C112.857143,106.3145 112.313665,103.3385 113.354037,101.928 C113.090062,101.525 112.795031,101.1375 112.5,100.7345 C107.830654,102.914578 103.366601,105.508302 99.1614907,108.4845 C101.226708,107.8645 108.400621,106.7175 119.565217,115.3355" id="Shape" fill="#C8BFAB"></path>
                <path d="M109.208075,99.479 C109.078985,99.3979882 108.997787,99.2590418 108.990683,99.107 C109.099379,98.425 112.096273,96.007 113.757764,96.1465 C114.145963,96.1465 114.177019,97.185 113.897516,98.1615 C115.015528,97.5415 116.21118,96.9215 117.468944,96.3015 C117.280083,96.2822707 117.107189,96.1871638 116.99003,96.0380555 C116.872871,95.8889471 116.821534,95.6986733 116.847826,95.511 C117.367126,94.335154 118.350747,93.4262418 119.565217,93 C119.076026,92.4856499 118.433252,92.1430915 117.732919,92.0235 C119.283707,91.4604274 120.878054,91.0249743 122.5,90.7215 C122.5,90.7215 122.748447,91.1245 123.167702,91.915 C123.509317,91.0005 124.363354,90.272 124.84472,90.365 C124.440994,89.6675 124.006211,88.97 123.555901,88.288 C123.555901,88.288 101.723602,92.256 99.8291925,103.974 L99.8291925,104.222 C99.8291925,104.222 103.354037,98.766 109.145963,99.448" id="Shape" fill="#D6CFC0"></path>
                <path d="M123.897516,106.3145 C122.763975,107.353 121.28882,108.5155 119.673913,106.8725 C118.059006,105.2295 121.118012,103.385 122.515528,103.85 C123.913043,104.315 125.015528,105.2605 123.897516,106.3145 M122.189441,96.6425 C119.23913,97.7585 115.978261,99.0915 112.779503,100.626 C113.19372,100.865093 113.593005,101.129079 113.975155,101.4165 C114.09989,101.342227 114.236435,101.289804 114.378882,101.2615 C116.614907,100.7035 116.878882,102.486 116.878882,102.486 C116.770186,102.7805 116.645963,103.1525 116.521739,103.5245 C119.07591,106.00184 121.337057,108.763379 123.26087,111.755 C123.493789,110.732 123.804348,109.554 124.627329,109.275 C125.885093,108.8565 126.909938,109.523 126.086957,111.2745 C125.666477,112.070703 125.017725,112.723684 124.223602,113.15 C125.046584,114.452 125.885093,115.8935 126.73913,117.459 C127.217857,116.625512 127.97712,115.98844 128.881988,115.661 C126.801242,109.8485 125.496894,104.625 125.496894,104.625 C124.616159,101.877918 123.509924,99.2080328 122.189441,96.6425" id="Shape" fill="#D6CFC0"></path>
                <path d="M120.15528,93 C121.102484,93.1705 121.708075,93.7595 121.319876,94.55 L123.369565,93.682 C123.040496,93.1726804 122.988059,92.5329393 123.229814,91.977 C122.810559,91.1865 122.562112,90.7835 122.562112,90.7835 C120.940166,91.0869743 119.345819,91.5224274 117.795031,92.0855 C118.465589,92.2004092 119.084007,92.5198913 119.565217,93 C119.739911,92.9699177 119.918474,92.9699177 120.093168,93" id="Shape" fill="#EDEAE3"></path>
                <path d="M135.093168,123.008 C133.959627,122.388 132.670807,121.2875 132.639752,119.908 C132.634168,119.503409 132.71351,119.102134 132.872671,118.73 C132.167959,116.905169 131.566596,115.042229 131.071429,113.15 C130.403727,113.2585 129.984472,113.15 130.310559,112.685 C130.476377,112.447067 130.616888,112.192524 130.729814,111.9255 L130.434783,110.7475 C130.015528,109.1975 129.596273,107.8335 129.161491,106.5005 C128.825703,106.344002 128.520687,106.128775 128.26087,105.865 C127.938727,105.603025 127.751768,105.210269 127.751768,104.7955 C127.751768,104.380731 127.938727,103.987975 128.26087,103.726 C127.841615,102.517 127.42236,101.3855 127.018634,100.3315 C126.214944,99.9129373 125.838674,98.9706606 126.13354,98.115 C125.76087,97.185 125.388199,96.348 125.062112,95.604 L122.236025,96.6425 C123.556508,99.2080328 124.662743,101.877918 125.543478,104.625 C125.543478,104.625 126.847826,109.8485 128.928571,115.661 C130.15528,115.1805 131.459627,115.3045 131.583851,117.211 C131.71855,118.127099 131.185071,119.0103 130.310559,119.319 C130.931677,120.869 131.614907,122.419 132.329193,123.7675 C133.358139,125.845603 135.090959,127.492937 137.220497,128.4175 C137.262487,127.564017 137.572102,126.745285 138.10559,126.077 C136.984957,125.197542 136.005718,124.152113 135.201863,122.977" id="Shape" fill="#EDEAE3"></path>
                <path d="M125.015528,95.604 C125.341615,96.348 125.714286,97.154 126.086957,98.115 C126.304348,97.2315 126.909938,96.565 127.34472,96.565 C127.587412,96.6244511 127.822028,96.7129242 128.043478,96.8285 C127.763975,96.1465 127.468944,95.48 127.173913,94.829 C126.475155,95.0615 125.76087,95.3095 125.015528,95.5885" id="Shape" fill="#D6CFC0"></path>
                <path d="M121.319876,94.55 C121.661491,93.7905 121.102484,93.2015 120.15528,93 C119.9604,92.9623538 119.760097,92.9623538 119.565217,93 C120.07764,93.4978802 120.535691,94.0486301 120.931677,94.643 L121.257764,94.488" id="Shape" fill="#A49473"></path>
                <path d="M123.975155,93.3875 C123.695652,92.814 123.431677,92.318 123.229814,91.9305 C122.988059,92.4864393 123.040496,93.1261804 123.369565,93.6355 L123.975155,93.3875" id="Shape" fill="#A49473"></path>
                <path d="M130.434783,91.078 C128.074534,89.435 126.055901,87.668 126.055901,87.668 C126.055901,87.668 126.89441,89.218 128.090062,91.853 L130.434783,91.078" id="Shape" fill="#900028"></path>
                <path d="M165.046584,119.0865 C163.55154,119.81046 161.837548,119.943346 160.248447,119.4585 C156.66159,120.388737 152.927934,120.615091 149.254658,120.125 C148.681242,121.052536 147.827602,121.774382 146.81677,122.1865 C145.559006,122.1865 143.074534,122.512 141.102484,120.9 C139.895275,119.56645 139.206669,117.845285 139.161491,116.0485 C139.549689,115.878 139.953416,115.661 140.295031,115.4905 C132.096273,105.152 133.540373,96.596 134.503106,93.3875 C134.115261,93.2399988 133.736721,93.0691861 133.369565,92.876 C132.220497,93.217 130.776398,93.651 129.130435,94.1935 C131.373445,99.1060144 133.232002,104.184528 134.689441,109.3835 C137.236025,119.288 140.636646,126.976 148.928571,123.628 C157.220497,120.28 162.142857,122.295 165.481366,121.272 C168.819876,120.249 167.65528,117.862 165.046584,119.0865" id="Shape" fill="#900028"></path>
                <path d="M153.618012,131.75 C153.619748,132.645567 153.499602,133.537219 153.26087,134.4005 C155.26326,133.985337 157.197279,133.291386 159.006211,132.339 C156.195652,135.1135 150.76087,136.4 150.76087,136.4 C151.521373,135.660854 151.93794,134.638169 151.909938,133.579 C149.036413,134.455425 146.011481,134.724645 143.02795,134.3695 C146.675284,134.065382 150.250437,133.181052 153.618012,131.75" id="Shape" fill="#E4DFD5"></path>
                <path d="M109.130435,37.7735 L109.006211,38.2385 C110.559006,36.456 112.111801,34.999 112.810559,34.286 L112.065217,34.503 C110.394016,35.4609669 108.804782,36.5548387 107.313665,37.7735 L109.130435,37.7735 Z" id="Shape" fill="#B2A488"></path>
                <path d="M105.962733,77.8565 C105.807453,77.438 106.102484,76.8335 106.708075,76.3065 C103.990683,76.446 101.257764,76.6785 98.6024845,77.0815 L97.6863354,80.476 L98.447205,80.3365 C99.3478655,79.3667103 100.552891,78.7324769 101.863354,78.5385 C102.484472,78.5385 102.375776,80.9565 101.444099,82.0725 C100.91459,82.5428417 100.205272,82.7580862 99.5031056,82.6615 C97.3561202,84.987794 95.6747658,87.7025816 94.5496894,90.6595 C98.8565494,88.5665111 103.354305,86.8900257 107.981366,85.653 C108.273315,84.0494495 109.759343,82.9454015 111.381988,83.1265 C112.039358,83.2709688 112.509558,83.8496238 112.515528,84.5215 C114.068323,84.1805 115.621118,83.855 117.34472,83.576 C117.2095,83.4756826 117.102526,83.3422059 117.034161,83.1885 C116.164596,81.6385 118.897516,79.4065 120.698758,80.2745 C120.851752,80.3523922 120.992908,80.4515458 121.118012,80.569 C121.226708,79.391 121.36646,77.996 121.583851,76.5235 C118.338509,76.291 114.751553,76.1515 111.040373,76.1825 C110.735058,77.0476064 110.121555,77.7703472 109.31677,78.213 C107.903727,78.74 106.21118,78.9105 105.962733,77.9185" id="Shape" fill="#C8BFAB"></path>
                <path d="M97.3136646,81.809 L97.0341615,82.832 L89.4875776,82.832 C89.0997417,83.7033239 88.8031357,84.6123171 88.6024845,85.5445 C89.8016491,84.850528 91.092816,84.3287293 92.4378882,83.9945 C92.6830672,83.598199 93.0470865,83.2890684 93.4782609,83.111 C94.7360248,82.6925 96.0093168,83.111 94.9378882,85.1105 C94.5666323,85.8131502 94.0346422,86.4185272 93.3850932,86.8775 C91.4265743,91.571234 91.2444544,96.8156597 92.8726708,101.6335 C93.0052697,101.838929 93.1048195,102.063821 93.1677019,102.3 C92.3133435,95.1397361 94.6393677,87.9646925 99.5341615,82.6615 C98.4937888,82.6615 97.4378882,82.2585 97.3447205,81.871" id="Shape" fill="#B2A488"></path>
                <path d="M101.009317,70.308 C100.837095,70.0852828 100.696048,69.8401992 100.590062,69.5795 L100.07764,71.517 L101.009317,70.308" id="Shape" fill="#B2A488"></path>
                <path d="M98.447205,80.2745 L97.6863354,80.414 L97.4068323,81.468 C97.6922376,81.0207386 98.0428874,80.6184784 98.447205,80.2745" id="Shape" fill="#B2A488"></path>
                <path d="M104.409938,57.0555 C104.222823,57.5966121 103.932841,58.0965891 103.555901,58.528 L103.431677,59.0085 C104.904741,59.6691244 106.480352,60.0728035 108.090062,60.202 C108.136704,59.3557881 108.669245,58.6127809 109.456522,58.2955 C110.445518,57.8552758 111.602608,58.0508327 112.391304,58.7915 C112.65528,58.962 112.639752,59.365 112.391304,59.799 C113.840048,59.450679 115.216799,58.8527128 116.459627,58.032 C116.4507,58.1196073 116.4507,58.2078927 116.459627,58.2955 C116.764798,57.0434038 117.251285,55.8424306 117.903727,54.7305 C116.350932,55.8 110.139752,59.3805 104.270186,57.0555" id="Shape" fill="#B2A488"></path>
                <path d="M117.453416,47.089 C112.267081,52.7155 108.245342,52.3125 106.692547,51.8475 C106.593892,52.0684469 106.468755,52.2766338 106.319876,52.4675 C105.977504,52.799657 105.523716,52.9929984 105.046584,53.01 L104.937888,53.413 C106.42449,54.1305425 108.112897,54.3165896 109.720497,53.94 C109.270186,53.32 109.145963,52.6225 109.720497,52.2505 C110.652174,51.646 112.406832,52.4365 113.245342,52.8395 C114.337726,52.3383425 115.377954,51.7309048 116.350932,51.026 C115.403727,49.135 119.456522,46.593 120.68323,46.283 C120.869565,45.9575 121.040373,45.632 121.195652,45.291 C121.195652,45.291 116.397516,44.299 113.86646,45.601 C114.693631,44.7528839 115.666622,44.0598916 116.73913,43.555 C116.278416,43.4638271 115.877883,43.1822694 115.636646,42.78 C115.512422,42.5165 115.838509,42.0515 116.381988,41.5555 C115.08343,42.2008612 113.885633,43.0310223 112.826087,44.02 C112.928352,44.0532929 113.023245,44.1059161 113.10559,44.175 C113.804348,44.702 113.478261,45.725 112.763975,46.8255 C116.428571,46.128 117.42236,47.089 117.42236,47.089" id="Shape" fill="#B2A488"></path>
                <path d="M147.360248,43.5085 C146.28882,42.532 147.360248,39.308 148.618012,38.781 C149.875776,38.254 153.695652,43.2295 151.847826,43.431 C150.636646,43.586 148.431677,44.4385 147.360248,43.431 M134.114907,35.0765 C133.307453,35.7585 130.450311,35.681 130.60559,34.038 C130.931677,30.566 137.127329,32.271 137.298137,33.046 C137.468944,33.821 134.92236,34.379 134.192547,35.0765 M126.428571,35.278 C124.968944,36.0065 122.189441,34.7355 122.965839,33.4025 C124.075596,32.2294482 125.678555,31.6538824 127.282609,31.8525 C127.905217,33.0653811 127.541508,34.5505996 126.428571,35.34 M119.378882,36.518 C118.649068,37.014 117.142857,38.843 116.273292,37.696 C115.403727,36.549 115.574534,34.844 118.229814,33.7745 C120.885093,32.705 120.108696,36.0065 119.39441,36.518 M105.590062,32.922 C104.611801,33.9915 101.630435,35.4795 101.149068,33.79 C100.667702,32.1005 103.850932,29.7445 105.652174,30.132 C107.453416,30.5195 106.568323,31.8525 105.652174,32.922 M165.900621,51.4135 C166.197757,51.2992719 166.5043,51.2111052 166.81677,51.15 C165.929923,50.7819327 165.001928,50.5217289 164.052795,50.375 C164.052795,50.995 163.913043,51.5065 163.649068,51.646 C162.096273,52.4365 159.906832,50.096 159.549689,48.67 C156.887218,49.8262043 153.982114,50.3157245 151.086957,50.096 C152.957563,49.4889797 154.674032,48.4842203 156.118012,47.151 L156.118012,47.151 C155.357143,46.4535 155.015528,43.4775 156.847826,42.8265 C157.425352,42.7372365 158.007781,42.9545201 158.385093,43.4 C158.64704,42.5793549 158.757528,41.7180507 158.71118,40.858 C158.71118,40.641 158.71118,40.424 158.71118,40.2225 C157.158385,39.525 156.304348,38.502 157.267081,37.6185 C154.953416,35.2005 150.543478,33.7435 147.686335,32.9685 L147.686335,32.9685 C149.038183,34.6656132 149.997888,36.6397868 150.496894,38.75 C150.496894,38.75 139.347826,33.449 134.487578,31.217 C133.590943,30.8292967 132.635814,30.5935635 131.661491,30.5195 C131.114164,30.5733825 130.562854,30.5733825 130.015528,30.5195 C126.522848,30.6825178 123.069195,31.3240225 119.751553,32.426 C120.498693,31.3177278 121.345914,30.2800636 122.282609,29.326 C120.419255,30.07 117.763975,30.163 117.437888,29.326 C117.018634,28.2255 118.990683,26.226 120.993789,25.3425 C121.730659,24.8149208 122.727247,24.833372 123.444011,25.3878643 C124.160775,25.9423566 124.427335,26.9010827 124.099379,27.745 C128.527888,24.3873051 134.512928,23.9207548 139.409938,26.5515 C142.130655,26.2506917 144.880269,26.3341796 147.57764,26.7995 C148.284524,25.6041399 149.462217,24.7604267 150.822981,24.4745 L150.621118,24.2885 C114.906832,19.313 93.3385093,32.55 90.4037267,34.41 L90.4037267,34.41 C91.2888199,34.937 92.189441,35.5105 93.121118,36.1615 C93.285029,35.390664 93.7485216,34.7161862 94.4099379,34.286 C95.7298137,33.6505 98.2763975,32.736 99.1459627,33.821 C99.6428571,34.41 99.3322981,35.1695 98.757764,35.8515 C99.7204969,35.8515 100.574534,35.9445 101.180124,35.991 C99.5063909,36.4748751 97.8670933,37.0703811 96.2732919,37.7735 L102.701863,37.7735 C104.995477,36.2209095 107.552492,35.0970077 110.248447,34.4565 C110.062949,34.3832704 109.901614,34.2598031 109.782609,34.1 C108.571429,32.3795 112.888199,29.6515 114.580745,30.783 C116.273292,31.9145 114.223602,33.139 113.78882,33.7125 C113.504323,33.9830412 113.157796,34.1799399 112.779503,34.286 C112.018634,34.999 110.52795,36.456 108.975155,38.2385 L108.602484,39.618 C109.701161,38.6879728 111.12717,38.2358206 112.562112,38.3625 C113.726708,38.967 112.562112,40.5015 111.304348,41.323 C110.046584,42.1445 108.990683,42.6405 108.059006,41.6795 L106.040373,49.1815 C106.246755,49.1203199 106.461955,49.0941233 106.677019,49.104 C107.173913,49.104 107.189441,50.654 106.677019,51.8475 C108.229814,52.3125 112.251553,52.7155 117.437888,47.089 C117.437888,47.089 116.381988,46.128 112.779503,46.8255 C111.599379,48.546 109.347826,50.2045 108.78882,49.321 C107.639752,47.523 110.931677,43.2295 112.841615,44.02 C113.901161,43.0310223 115.098958,42.2008612 116.397516,41.5555 C117.717391,40.3775 120.279503,38.967 120.978261,39.432 C121.182606,39.5673815 121.322801,39.7800945 121.36646,40.021 C122.229162,39.9447728 123.096925,39.9447728 123.959627,40.021 C124.953416,38.3315 128.773292,38.2385 129.223602,38.781 C129.673913,39.3235 130.372671,40.5635 128.555901,41.044 C130.108696,41.54 131.847826,42.1755 133.555901,42.8885 C132.298137,41.447 132.5,39.4165 133.229814,39.2305 C133.959627,39.0445 137.111801,42.098 136.677019,42.687 C136.428571,43.0125 136.335404,43.6945 135.947205,43.9735 C137.701863,44.795 139.440994,45.6785 141.13354,46.593 C139.580745,45.446 138.586957,42.5475 140.139752,42.501 C140.372399,42.4851293 140.605861,42.4851293 140.838509,42.501 C135.776398,39.8505 129.192547,36.7505 125.310559,36.301 C125.310559,36.301 128.555901,32.426 138.602484,38.905 C138.53842,38.6656072 138.583911,38.4101836 138.726708,38.2075 C139.953416,36.3785 140.481366,35.6965 141.630435,36.301 C142.981118,37.0656317 143.721549,38.5807821 143.493789,40.114 C143.307453,40.765 141.940994,40.7805 140.807453,40.424 C143.30224,42.3059541 145.68225,44.3348964 147.934783,46.5 C147.934783,46.5 146.180124,45.4615 143.571429,44.0355 C144.47205,45.2755 144.378882,46.8875 143.680124,47.368 C143.502308,47.4996461 143.31552,47.6187678 143.121118,47.7245 C144.673913,48.577 146.024845,49.414 147.329193,50.2045 C146.319876,49.0575 145.326087,47.5385 146.102484,47.213 C146.982496,46.750447 148.036751,46.7616023 148.906742,47.2426724 C149.776734,47.7237425 150.345359,48.6099747 150.419255,49.6 C150.543478,50.902 150.07764,51.4445 149.534161,51.553 L151.630435,52.886 C151.621623,52.5293288 151.690497,52.1750005 151.832298,51.8475 C153.090062,48.918 156.024845,52.235 156.086957,53.6145 C158.11792,52.5884617 160.363501,52.0572912 162.639752,52.0645 C163.701703,52.1142621 164.749432,52.3286599 165.745342,52.7 C165.388199,52.0645 165.279503,51.5375 165.745342,51.3515" id="Shape" fill="#C8BFAB"></path>
                <path d="M59.7981366,37.7735 C58.7478643,35.8974229 58.0183959,33.8596356 57.6397516,31.744 C59.2339408,34.2449868 61.4204318,36.3157527 64.0062112,37.7735 L69.2701863,37.7735 C67.8161917,37.2334787 66.4504181,36.4813047 65.2173913,35.5415 C66.4142069,35.5647446 67.6077078,35.4079876 68.757764,35.0765 C62.810559,32.922 56.6925466,25.11 55.5900621,23.653 C54.4875776,25.885 54.0372671,31.93 56.6770186,37.7735 L59.7981366,37.7735 Z" id="Shape" fill="#C8BFAB"></path>
                <path d="M122.670807,68.2 C119.829193,67.332 116.723602,66.4795 113.509317,65.7355 C113.959627,67.456 113.602484,69.812 112.562112,69.9205 C111.009317,70.091 108.913043,67.5645 108.913043,67.5645 C109.181906,66.6546312 109.590487,65.7918811 110.124224,65.007 C107.484472,64.4955 104.798137,64.077 102.142857,63.8135 L101.304348,66.9135 C101.567414,66.6534751 101.893906,66.4664805 102.251553,66.371 C102.805396,66.3809623 103.31784,66.6657866 103.618012,67.1305 C104.301242,66.619 104.689441,66.3555 104.689441,66.3555 C104.353402,66.6440608 104.032087,66.9492782 103.726708,67.27 C103.96133,67.6856005 104.109228,68.1443149 104.161491,68.6185 C104.301242,69.7965 104.161491,71.331 102.608696,71.3155 C101.934155,71.249378 101.324634,70.8854611 100.947205,70.3235 L100.015528,71.5325 L98.6490683,76.6165 C102.166275,75.7638055 105.734688,75.137351 109.332298,74.741 C109.63802,74.6453266 109.949117,74.5676924 110.263975,74.5085 C110.470633,74.4399415 110.693963,74.4399415 110.900621,74.5085 L114.006211,74.2605 C113.680969,73.8872156 113.680969,73.3317844 114.006211,72.9585 C114.937888,71.7495 118.416149,72.602 119.456522,74.09 L121.940994,74.09 L121.940994,74.09 C121.214866,73.3419995 120.808404,72.3415707 120.807453,71.3 C120.543478,69.2695 121.521739,68.293 122.686335,68.0915" id="Shape" fill="#C8BFAB"></path>
                <path d="M79.1925466,36.7195 C80.1161262,36.9800868 81.0109457,37.3332158 81.863354,37.7735 L87.173913,37.7735 C83.9130435,35.216 79.4099379,32.674 76.3043478,33.2475 C78.9332673,33.7796364 81.369124,35.0114395 83.3540373,36.8125 C81.9730471,36.6487006 80.579497,36.6175579 79.1925466,36.7195" id="Shape" fill="#C8BFAB"></path>
                <path d="M116.599379,58.2955 C116.590452,58.2078927 116.590452,58.1196073 116.599379,58.032 C115.356551,58.8527128 113.979799,59.450679 112.531056,59.799 C112.020386,61.0257703 110.743145,61.7524871 109.425466,61.566 C108.750006,61.4392852 108.238351,60.8844133 108.167702,60.202 C106.557992,60.0728035 104.982381,59.6691244 103.509317,59.0085 L102.360248,63.2865 C107.08101,63.3270773 111.790839,63.7469333 116.444099,64.542 C115.827714,63.9117239 115.560718,63.0194778 115.729814,62.155 C115.962733,61.132 116.273292,59.6905 116.677019,58.2955" id="Shape" fill="#C8BFAB"></path>
                <path d="M98.2298137,110.1275 C97.4068323,111.879 94.5652174,113.026 95.1242236,111.91 C95.6832298,110.794 95.5900621,108.5465 96.8322981,108.128 C98.0745342,107.7095 99.1149068,108.376 98.2919255,110.1275 M94.8757764,96.348 C96.4285714,94.798 97.0341615,94.2555 97.8571429,96.348 C98.6801242,98.4405 98.7111801,98.828 96.4751553,99.572 C94.2391304,100.316 94.0372671,97.278 94.9223602,96.472 M86.6459627,93.899 C86.6459627,93.062 87.1118012,90.5355 88.3540373,90.117 C89.5962733,89.6985 90.636646,90.365 89.8136646,92.1165 C88.9906832,93.868 86.5993789,95.108 86.7080745,93.899 M115.481366,85.9165 C114.021739,86.1025 112.515528,86.304 110.993789,86.552 C110.341299,86.9733417 109.543787,87.1078899 108.78882,86.924 C103.956305,87.7463452 99.2067135,88.9964449 94.5962733,90.6595 C93.194625,94.3698607 92.7047383,98.3616293 93.1677019,102.3 C93.5062435,103.117777 93.4430744,104.04641 92.9968944,104.811 C92.5,105.5395 89.7360248,104.6095 89.8913043,102.889 C90.0465839,101.1685 89.4409938,101.0135 91.4440994,101.091 C91.9847527,101.100233 92.4947241,101.343448 92.8416149,101.7575 C91.2133985,96.9396597 91.3955184,91.695234 93.3540373,87.0015 C92.5310559,87.575 91.7080745,87.7145 91.5217391,87.0015 C91.4814805,85.9513148 91.8111382,84.9202465 92.4534161,84.0875 C91.108344,84.4217293 89.8171771,84.943528 88.6180124,85.6375 C88.8186637,84.7053171 89.1152696,83.7963239 89.5031056,82.925 L89.0062112,82.925 L84.9689441,97.805 C85.2944193,102.322468 87.2599831,106.566176 90.4968944,109.74 C87.4340224,108.941038 84.8211549,106.947216 83.2453416,104.2065 L82.2981366,107.787 C82.8512034,108.442491 83.1244185,109.28849 83.0590062,110.143 C83.3385093,110.143 84.1149068,110.422 85.2639752,110.763 C85.3726708,110.639 85.5900621,110.763 85.8229814,110.918 C87.2204969,111.3365 89.0372671,111.91 91.1024845,112.6385 L91.4596273,112.6385 C91.9630957,112.640324 92.4423993,112.854215 92.7795031,113.2275 C95.1552795,114.0955 97.7795031,115.1495 100.419255,116.3275 C100.939132,116.159185 101.506826,116.227186 101.97205,116.5135 C102.220497,116.6685 102.189441,116.87 101.97205,117.0715 C102.841615,117.49 103.726708,117.9395 104.596273,118.4045 C105.450311,118.172 106.149068,118.4045 106.149068,119.3035 C107.298137,119.9545 108.416149,120.6365 109.487578,121.365 C111.850923,121.807623 114.291817,121.565587 116.521739,120.6675 C113.955913,118.345023 111.237656,116.19608 108.385093,114.235 C108.385093,114.8395 108.385093,115.289 108.229814,115.382 C107.701863,115.6765 104.192547,114.049 104.161491,111.879 C104.15375,111.765465 104.15375,111.651535 104.161491,111.538 C102.39571,110.488359 100.570731,109.541285 98.6956522,108.7015 L98.6956522,108.7015 L98.6956522,108.7015 L98.5093168,108.6085 C98.6551948,108.541115 98.8056756,108.484138 98.9596273,108.438 C99.5341615,107.9265 100.869565,106.733 102.934783,105.152 C102.282609,105.152 101.89441,104.997 102.251553,104.6095 C102.934783,103.8655 103.804348,101.5095 105.093168,101.5095 C105.916149,101.5095 106.521739,101.8815 106.537267,102.5015 C107.748447,101.6645 109.099379,100.7965 110.574534,99.913 C110.061286,99.8229034 109.570685,99.6333352 109.130435,99.355 C103.276398,98.673 99.8136646,104.129 99.8136646,104.129 L99.8136646,104.129 C99.8136646,104.129 98.0279503,99.0295 102.670807,93.589 C102.245838,93.7878135 101.746193,93.740314 101.36646,93.465 C99.9378882,92.4575 101.36646,89.2335 103.400621,89.249 C104.736025,89.249 105.07764,90.458 104.953416,91.3415 C108.070019,88.8907053 111.597878,87.0118674 115.372671,85.7925" id="Shape" fill="#C8BFAB"></path>
                <path d="M108.509317,176.018 L11.257764,176.018 L19.7826087,144.243 L27.8416149,144.243 L46.1024845,76.198 L38.0590062,76.198 L46.5838509,44.4075 L100.465839,44.4075 L91.9409938,76.198 L83.8509317,76.198 L65.621118,144.243 L83.9285714,144.243 L86.9565217,133.207 L120.062112,133.207 L108.509317,176.018 Z M84.8136646,130.448 L81.8012422,141.484 L69.2236025,141.484 L86.0093168,78.957 L94.068323,78.957 L104.037267,41.6485 L44.4565217,41.6485 L34.4409938,78.957 L42.5,78.957 L25.7142857,141.484 L17.6708075,141.484 L7.6552795,178.7925 L110.621118,178.7925 L123.664596,130.448 L84.8136646,130.448 Z" id="Shape" fill="#A49473"></path>
                <path d="M106.381988,173.259 L14.8602484,173.259 L21.9099379,147.002 L29.9689441,147.002 L49.689441,73.4235 L41.6614907,73.4235 L48.7111801,47.182 L96.8478261,47.182 L89.8136646,73.4235 L81.7701863,73.4235 L62.0186335,147.002 L86.0403727,147.002 L89.052795,135.9815 L116.459627,135.9815 L106.381988,173.259 Z M86.9565217,133.207 L83.9440994,144.243 L65.621118,144.243 L83.8509317,76.198 L91.9099379,76.198 L100.465839,44.4075 L46.5838509,44.4075 L38.0590062,76.198 L46.1024845,76.198 L27.8416149,144.243 L19.7826087,144.243 L11.257764,176.018 L108.509317,176.018 L120.062112,133.207 L86.9565217,133.207 Z" id="Shape" fill="#FFFFFF"></path>
                <path d="M104.161491,169.88 L18.8819876,169.88 L24.2546584,150.04 L32.1118012,150.04 L53.4937888,70.3855 L45.636646,70.3855 L51.0559006,50.2355 L92.8416149,50.2355 L87.4689441,70.3855 L79.5341615,70.3855 L57.5931677,152.1325 L87.9503106,152.1325 L91.4596273,139.066 L112.406832,139.066 L104.161491,169.88 Z M89.052795,135.9815 L86.0403727,147.002 L62.0186335,147.002 L81.7701863,73.4235 L89.8136646,73.4235 L96.863354,47.182 L48.7267081,47.182 L41.6614907,73.4235 L49.689441,73.4235 L29.9689441,147.002 L21.9099379,147.002 L14.8602484,173.259 L106.381988,173.259 L116.444099,136.059 L89.052795,135.9815 Z" id="Shape" fill="#900028"></path>
                <polygon id="Shape" fill="#900028" points="93.8043478 142.0575 90.2950311 155.124 53.742236 155.124 77.3136646 67.3475 85.1397516 67.3475 88.9906832 53.1805 53.3850932 53.1805 49.5962733 67.3475 57.3291925 67.3475 34.3012422 153.0935 26.3975155 153.0625 22.7173913 166.8265 22.7173913 166.842 101.925466 166.842 108.571429 142.0575"></polygon>
                <polygon id="Shape" fill="#BC667E" points="53.3850932 53.1805 88.9906832 53.1805 92.8416149 50.189 51.0559006 50.189 45.636646 70.3855 49.5962733 67.3475"></polygon>
                <polygon id="Shape" fill="#BC667E" points="79.5341615 70.3855 87.484472 70.3855 85.1397516 67.3475 77.3136646 67.3475"></polygon>
                <polygon id="Shape" fill="#BC667E" points="91.4596273 139.066 87.9658385 152.1325 57.5931677 152.1325 53.742236 155.124 90.2950311 155.124 93.8043478 142.0575 108.571429 142.0575 112.406832 139.066"></polygon>
                <polygon id="Shape" fill="#BC667E" points="53.4937888 70.3855 32.1118012 150.04 24.2546584 150.04 18.8819876 169.88 22.7173913 166.842 22.7173913 166.8265 26.3975155 153.0625 34.3012422 153.0935 57.3291925 67.3475"></polygon>
                <path d="M130.838509,142.4915 L130.838509,144.0415 L131.73913,142.4915 L132.841615,142.4915 L132.127329,145.1575 L131.413043,145.1575 L131.987578,143.282 L130.916149,145.1575 L130.310559,145.1575 L130.310559,143.2665 L129.798137,145.1575 L129.083851,145.1575 L129.798137,142.4915 L130.838509,142.4915 Z M126.956522,143.1425 L127.127329,142.4915 L129.487578,142.4915 L129.301242,143.1425 L128.524845,143.1425 L127.981366,145.1575 L127.189441,145.1575 L127.732919,143.1425 L126.956522,143.1425 Z" id="Shape" fill="#000000"></path>
            </g>
        </g>
    </g>
</svg>