<?xml version="1.0" encoding="UTF-8" standalone="no"?>
<svg width="250px" height="250px" viewBox="0 0 250 250" version="1.1" xmlns="http://www.w3.org/2000/svg" xmlns:xlink="http://www.w3.org/1999/xlink">
    <!-- Generator: Sketch 47.1 (45422) - http://www.bohemiancoding.com/sketch -->
    <title>UCLA</title>
    <desc>Created with Sketch.</desc>
    <defs></defs>
    <g id="Page-1" stroke="none" stroke-width="1" fill="none" fill-rule="evenodd">
        <g id="UCLA" fill-rule="nonzero">
            <g id="Group" transform="translate(0.000000, 64.000000)">
                <path d="M182.398715,2.50878962 C173.399735,2.78361859 166.744176,8.83790148 162.668346,14.8686491 C156.269642,24.6773739 142.612527,59.5992254 135.696185,94.8856106 C131.798037,98.419663 126.369036,100.803269 122.924161,102.592852 C104.634595,112.097198 100.440309,91.473671 112.636979,72.0917246 C117.2377,64.7793942 126.806897,65.1457326 126.176243,72.4618226 C122.44067,67.4203089 115.404966,69.7558212 114.55523,77.1848204 C114.124621,86.3132026 133.962265,88.2191847 134.509818,70.7405135 C135.318155,44.7575588 86.1516337,52.8458768 85.341786,94.5025794 C85.341786,94.5025794 82.0915164,103.20086 74.2459653,104.712231 C68.5876074,105.806284 68.5589001,95.5264019 72.0681396,80.9501653 C74.9841959,67.6034781 74.9192872,69.800606 77.7636659,57.8224241 C79.8713853,48.9346583 89.7022722,13.8618201 90.1933179,10.9323163 C90.6730318,8.0072939 88.9239118,5.17587128 85.3242594,4.34123338 C82.4082032,3.66449994 78.6810904,3.37732435 74.63578,5.33988139 C70.239032,7.47532127 68.8221006,12.037437 68.2969083,14.7329415 C62.8047505,36.6816626 60.5326441,42.4763054 56.6344964,59.4033637 C54.5985452,68.0655517 47.1205984,105.258821 34.9919197,103.902347 C28.6575807,103.199296 28.1771113,96.5274561 31.1082766,83.5004879 C35.8337987,65.2061273 40.8055991,50.5631196 44.2166294,35.6599455 C49.3612779,16.181151 37.8943777,-2.7935522 14.116583,7.24526198 C-0.108634427,13.2495418 -1.3376086,35.8746956 7.56527735,35.7655159 C12.6041621,35.7053618 11.7396194,29.4842265 12.1097924,25.5029285 C13.1183248,19.8033292 16.2693276,17.2591122 20.1070389,17.4961193 C25.8146524,18.9774136 26.187545,22.9364546 24.4273349,33.8093051 C20.6842065,46.4831689 15.4972526,63.283302 10.6284962,85.0004299 C2.51128348,121.61622 26.204165,123.014803 37.0222805,118.407 C43.2889307,115.737663 46.0031294,113.207582 50.2487864,104.831126 C55.0649631,127.065579 75.6423483,122.239717 87.9036849,106.370228 C90.0151816,113.716546 96.9123346,118.572183 102.770737,119.387873 C117.993155,122.327903 131.637579,110.881183 136.128607,106.64032 C139.418765,128.961094 169.012052,119.61345 178.001967,106.751936 C187.381091,128.121674 205.051184,119.616187 209.972822,106.58158 C209.851949,119.984511 220.054217,123.229824 230.55897,117.590378 C236.693265,114.526129 237.911058,113.511029 245.662026,106.164712 C251.022131,100.769492 248.477033,89.8509243 235.486954,101.118686 C231.256406,104.791695 222.267398,108.556438 227.67283,94.8037108 C228.817344,91.4013958 238.354359,68.0796578 238.939686,65.9778741 C244.847344,49.9732787 223.093564,53.3749921 220.135807,65.3081787 C206.023907,39.3592111 174.612089,69.087359 174.968664,94.8859414 C174.968664,94.8859414 164.147829,106.638846 157.008779,104.525934 C149.869729,102.416781 156.843516,81.6860302 156.843516,81.6860302 C174.426882,63.3727211 185.685276,42.8866465 190.237648,33.009346 C197.693989,17.0609947 199.472934,2.87515806 184.235407,2.53227979 C183.614755,2.49844312 182.999815,2.48960648 182.399893,2.50878962 L182.398715,2.50878962 Z M186.06388,15.7087009 C186.267188,15.6823534 186.458167,15.6856919 186.636364,15.7145659 C188.469249,16.0115767 188.912882,19.2041043 186.730796,24.7554238 C179.648254,42.7454047 170.379124,52.2274929 163.836883,61.7983083 C163.950202,61.0802189 169.72641,38.3869406 180.427279,20.5356149 C182.629521,17.4427927 184.640301,15.8911181 186.063578,15.7067459 L186.06388,15.7087009 Z M210.562983,66.6862787 C214.150488,66.8197305 215.947564,71.5560525 214.647275,77.3308445 C214.227998,79.1918614 206.585059,97.5976574 206.585059,97.5976574 C203.321494,103.598027 199.981778,105.083232 196.84664,104.458832 C192.291247,103.05273 193.045191,96.4709714 194.450428,90.019446 C197.570457,75.379446 204.971196,69.0166479 206.425598,68.2196063 C207.97144,67.1105153 209.367038,66.6418549 210.562772,66.6863689 L210.562983,66.6862787 Z" id="Shape" fill="#2D68C4" transform="translate(125.108479, 61.390911) rotate(-360.000000) translate(-125.108479, -61.390911) "></path>
                <path d="M127.402334,71.5598357 L124.657779,72.3318715 C124.877887,69.7783398 123.581466,68.3808708 121.319677,68.3088199 C119.901531,68.2636439 118.369395,68.7574203 116.965507,69.7103487 C120.14396,67.3816306 124.514428,67.6623306 127.402334,71.5598357 Z M161.404209,14.0204063 C166.630734,6.28704957 173.847632,1.25050084 182.352048,0.990909437 L185.028973,0.909198177 C192.488114,1.42449675 196.640584,5.23265917 197.260346,11.7796112 C197.78775,17.3509149 195.751992,24.8078519 191.622637,33.6431089 C184.587863,48.906487 172.78183,67.2168238 158.185471,82.484578 C158.063166,82.8673364 157.949704,83.2335921 157.827289,83.6426378 C157.476683,84.8141819 157.125798,86.0901883 156.798506,87.4252506 C156.290946,89.495644 155.888472,91.5126401 155.630317,93.3976093 C154.861741,99.0095014 155.51923,102.501925 157.442731,103.070202 C158.760647,103.46026 160.414842,103.250444 162.345719,102.466925 C164.291298,101.67744 166.411486,100.351251 168.594263,98.6396637 C169.9306,97.5917986 171.20703,96.4656568 172.376771,95.3397096 C172.774451,94.9569176 173.131302,94.6013477 173.442143,94.2819689 C173.510669,81.5810373 180.947591,67.4258492 191.191291,59.4927047 C201.75544,51.3113914 212.733517,51.6522124 219.83849,61.9145991 C222.350752,57.2735556 227.582747,53.9999359 232.75948,53.6512243 C239.741881,53.1808804 243.395634,58.2404946 240.389729,66.448583 C240.073968,67.5238811 238.675326,71.082215 234.685432,81.0826184 C230.883735,90.6113142 229.56386,93.9605314 229.091936,95.3574909 C226.960029,100.781577 227.16065,102.837452 228.195893,102.994573 C229.528946,103.196892 232.338994,101.837585 234.486268,99.9732975 C240.874292,94.4322434 246.050652,93.187217 248.649429,96.4488412 C250.81884,99.1715851 249.86172,104.096069 246.712416,107.265029 C238.627873,114.927507 237.36816,115.887739 231.281854,118.927278 C220.774268,124.568244 211.325684,121.645396 208.99563,111.81935 C205.820274,116.639862 201.02018,120.173171 195.922252,121.064145 C188.806547,122.307771 182.245632,118.44598 177.681091,109.617828 C172.490244,115.544936 163.499421,120.313198 155.123901,121.395578 C145.15218,122.684236 137.631808,118.721703 135.173368,109.554761 C131.961327,112.335815 128.281696,114.941416 124.173442,117.056126 C116.997464,120.749936 109.687148,122.270553 102.559822,120.891852 C96.3705998,120.030102 90.2392476,115.501366 87.4055329,109.37718 C81.231185,116.475824 73.4455592,121.006485 66.370493,121.405817 C58.713152,121.838014 52.7520773,117.514729 49.7948116,108.899639 C46.3857399,114.836188 43.4233055,117.331958 37.6213263,119.803365 C30.7075999,122.748156 21.9047106,122.613601 15.8528363,118.408162 C8.03639683,112.97653 5.34979511,101.771472 9.1411011,84.6693574 C9.99489016,80.8610242 10.8825571,77.0956223 11.8069553,73.3488363 C13.6413165,65.913774 15.569699,58.7426847 17.754997,51.1030359 C18.603246,48.1376168 19.4605134,45.2024529 20.4985084,41.6949218 C20.8646119,40.4578067 22.4726356,35.0472031 22.9380313,33.4727885 C24.6585419,22.8086939 24.0794101,20.1525539 19.8688847,19.0045141 C16.7423433,18.8810942 14.4549594,21.0899547 13.6216592,25.7052806 C13.5753354,26.2214159 13.551427,26.7233571 13.5147283,27.7790561 C13.4909859,28.4620434 13.4813845,28.716227 13.4640532,29.0782325 C13.2082281,34.4217524 11.8475625,37.2330953 7.58403326,37.2839931 C2.09924256,37.3512553 -0.488487847,31.1270179 0.661047988,23.5702428 C1.84195178,15.8072623 6.51106796,8.80608003 13.521995,5.84700687 C25.2270565,0.905213978 35.0575594,2.42684828 41.1600635,9.38415327 C46.7084564,15.7097306 48.3873191,25.83567 45.7025325,35.9976046 C45.477439,36.9810635 45.242559,37.9766696 44.9972172,38.9881547 C43.0936912,46.8359304 34.7753417,75.6812007 34.5197771,76.6140693 C33.8391456,79.0985288 33.1984957,81.5009366 32.5954135,83.8327104 C29.6755742,96.8093424 30.4921151,101.874927 35.161916,102.393231 C40.1015166,102.945677 45.1874267,94.6816836 49.6894935,80.3257137 C50.9121907,76.4268366 52.031592,72.2938167 53.1235678,67.7982877 C53.7555494,65.1964978 55.2907747,58.4606645 55.1490475,59.0637262 C56.351833,53.8408303 57.4491374,49.450375 58.7196685,44.7024184 C58.9518081,43.8349158 59.1925722,42.9445861 59.4520433,41.9932476 C59.795425,40.7342546 61.9621082,32.8943914 62.6692684,30.2889319 C64.0566254,25.1773565 65.3598859,20.1932282 66.8007878,14.4435232 C67.7099335,9.77741088 69.8133427,5.99271162 73.9686207,3.97452217 C77.822843,2.10469898 81.6020234,1.91817203 85.6696786,2.86215876 C89.8946341,3.84178334 92.3314715,7.31119524 91.6965502,11.1824862 C91.4634365,12.573207 90.582838,15.8621896 85.261382,35.4655463 C81.7708476,48.3251184 80.0470033,54.7976885 79.2467701,58.1720868 C78.1527829,62.7790605 77.8099121,64.1008425 76.5117112,68.9070705 C75.5304884,72.549689 74.8310047,75.4435615 73.550149,81.304407 C71.7877306,88.6249184 70.9818697,94.6259169 71.2400896,98.6096812 C71.4762132,102.25255 72.3877551,103.5246 73.9566714,103.221248 C76.720695,102.688785 79.0691417,101.099082 81.0240352,98.7494703 C81.9004784,97.6960617 82.6366437,96.56118 83.233636,95.4271788 C83.4416944,95.0319668 83.6167667,94.6668056 83.7593709,94.3420742 C84.30116,74.9238736 95.2006857,60.6258514 110.061474,55.8124689 C124.186533,51.237388 136.451374,57.3440071 136.033131,70.7878928 C135.764346,79.3678948 130.952463,84.6947872 124.339026,85.4490531 C118.250028,86.1435065 112.77674,82.5428671 113.032856,77.11352 C113.419493,73.7036082 114.95373,71.1842919 116.965507,69.7103487 C115.825187,70.4843722 114.76948,71.5613273 113.928199,72.898449 C108.273679,81.8841483 106.054172,91.5458679 107.814985,97.7621514 C109.49157,103.681087 114.443859,105.287013 122.219587,101.246283 C122.866483,100.910225 125.425257,99.6302633 125.545785,99.5692456 C126.994787,98.8356874 128.147242,98.222322 129.257736,97.5806979 C131.242724,96.4338055 132.910085,95.2934149 134.299616,94.0908507 C140.474422,62.904344 153.479859,26.1674632 161.404209,14.0204063 Z M163.946174,15.6962731 C156.236745,27.5142401 143.257074,64.2332796 137.19198,95.1766972 L137.09522,95.6703507 L136.721849,96.0088483 C135.081054,97.4963898 133.124234,98.8575589 130.786754,100.208115 C129.619933,100.882285 128.421412,101.520167 126.926462,102.276987 C126.787259,102.347458 124.251129,103.616094 123.628913,103.93933 C114.248903,108.81374 107.123766,106.503204 104.881479,98.5871443 C102.857962,91.4434206 105.271264,80.9380891 111.345697,71.2850986 C113.779589,67.4167011 117.723356,65.1555205 121.417076,65.2731864 C125.399099,65.4000364 128.066749,68.2756153 127.694708,72.5917737 L127.349088,76.6014027 L124.950152,73.3638095 C122.014529,69.4019047 116.78409,71.3659389 116.075598,77.304443 C115.95885,80.5585702 119.593914,82.9332205 123.9924,82.4315708 C129.087964,81.8504191 132.764483,77.7804072 132.986495,70.6934616 C133.329246,59.6761693 123.343209,54.7041586 111.003769,58.7008811 C97.2952032,63.1410606 87.2175337,76.427019 86.865555,94.5319911 L86.7700535,95.0324584 C86.6269005,95.4155604 86.3508771,96.0441075 85.9329138,96.8380389 C85.2427183,98.1490817 84.3928535,99.4592441 83.3706227,100.687877 C80.9990784,103.538267 78.0673758,105.522785 74.5362882,106.203016 C70.6424332,106.955899 68.5360892,104.016509 68.1983173,98.8054321 C67.9165144,94.457834 68.7586585,88.1866455 70.5789654,80.6271307 C71.8626155,74.751909 72.5734084,71.8112486 73.4965076,68.3840336 C74.8591254,63.3389621 75.1952894,62.043035 76.2804574,57.4732006 C77.0918205,54.0518699 78.8157952,47.5788102 82.2567761,34.9017904 C87.4648021,15.7162817 88.484889,11.9063183 88.6892144,10.6874007 C89.0599537,8.42686705 87.666943,6.44358831 84.9785502,5.82024073 C81.5404104,5.02234661 78.4582815,5.17446956 75.3035581,6.70494029 C72.196802,8.2138701 70.5380837,11.1984296 69.7756916,15.1003248 C68.3124239,20.9480911 67.0041187,25.9515119 65.6116747,31.0818297 C64.9022196,33.6957447 62.734863,41.5380446 62.3934662,42.7897599 C62.1352136,43.7366309 61.8957015,44.6223311 61.664881,45.484904 C60.4032692,50.1995295 59.3145341,54.5556976 58.1183999,59.749643 C58.2630347,59.1342775 56.7242318,65.8858081 56.0861395,68.5127548 C54.9797074,73.0677982 53.843715,77.2620759 52.5988712,81.2315728 C47.6086344,97.1441952 42.0249278,106.217048 34.8231992,105.411605 C27.428875,104.590906 26.3319971,97.7861909 29.6323244,83.1219703 C30.2504204,80.7290766 30.8948528,78.3124848 31.579255,75.8142613 C31.8501965,74.8252637 40.1489592,46.0479137 42.0344117,38.2746506 C42.2767165,37.2756866 42.5085965,36.2927969 42.7427587,35.2734591 C45.1987698,25.9744496 43.6919037,16.8858954 38.8649813,11.3828477 C33.6926384,5.48599511 25.27585,4.18318547 14.7110194,8.64358106 C8.76298248,11.1540446 4.70772621,17.2347646 3.67473483,24.0254041 C2.76620698,29.99785 4.54809721,34.2838095 7.54701909,34.2470326 C9.56254995,34.2229713 10.2324327,32.8388913 10.4194058,28.9335107 C10.435875,28.5895127 10.4451837,28.343076 10.4684454,27.6739173 C10.508687,26.5163038 10.5348284,25.9802733 10.5922362,25.3628389 C11.6962673,19.0940534 15.3055878,15.6780879 20.2013182,15.9804355 C26.9723615,17.7086148 27.917039,21.7891491 25.9319399,34.0511432 C25.4625088,35.6834173 23.795029,41.2939656 23.4221616,42.5539368 C22.386572,46.0533397 21.5317541,48.9801168 20.6863633,51.9355441 C18.5106851,59.5415629 16.5917555,66.6774993 14.7669353,74.0738899 C13.847627,77.8000455 12.9648995,81.5444948 12.1166771,85.3279782 C8.5659748,101.344778 10.9530162,111.300454 17.5964442,115.916963 C22.6916568,119.457619 30.4015703,119.575467 36.4232047,117.010648 C42.5203749,114.413502 44.9064326,112.002709 48.8883835,104.146531 L50.8299171,100.315989 L51.7385373,104.510742 C53.8427129,114.224919 59.0894324,118.774723 66.1981084,118.373494 C72.9614708,117.991754 80.7931496,113.083801 86.6960536,105.443846 L88.5376635,103.060304 L89.3688375,105.952124 C91.1579022,112.176636 97.1125196,117.066709 103.060751,117.897028 C109.517403,119.144055 116.160555,117.762215 122.774444,114.357737 C127.476397,111.937423 131.61614,108.809227 135.080257,105.538073 L137.210083,103.526886 L137.636485,106.419644 C139.00629,115.712545 145.365426,119.594056 154.731856,118.38362 C163.203999,117.288754 172.485602,111.987002 176.751334,105.884047 L178.307386,103.657812 L179.398331,106.143461 C183.448675,115.371912 189.209026,119.153878 195.395651,118.07263 C200.91119,117.108668 206.211541,112.230494 208.546382,106.046835 L211.574076,98.0282035 L211.496815,106.595225 C211.393881,118.009042 219.540452,121.780659 229.875949,116.232828 C235.687914,113.329592 236.726278,112.538086 244.578917,105.096352 C246.711874,102.949422 247.344314,99.6954536 246.262189,98.3373206 C245.114697,96.8971484 241.738843,97.7091142 236.488163,102.263621 C233.726149,104.661632 230.194314,106.37009 227.736907,105.997126 C223.909335,105.416211 223.502701,101.2492 226.22779,94.3210882 C226.702496,92.9099233 227.991118,89.6400104 231.848038,79.9729032 C235.742003,70.21294 237.243286,66.3899343 237.471123,65.5718202 C239.800172,59.2474351 237.724717,56.3608762 232.965074,56.6814921 C227.977514,57.0174608 222.814542,60.834325 221.615405,65.6722875 L220.671476,69.4806054 L218.795839,66.0316825 C212.806198,55.0179276 203.104132,54.1135744 193.061824,61.8907528 C183.380487,69.3883797 176.328475,82.992257 176.492574,94.8650294 L176.500909,95.4680983 L176.09172,95.9125341 C176.011606,95.9995488 175.86546,96.154309 175.658652,96.3672166 C175.318621,96.7172767 174.928817,97.1060991 174.494546,97.5241111 C173.255139,98.7171172 171.903141,99.9099288 170.479286,101.02642 C168.091248,102.898959 165.743254,104.367641 163.495364,105.279799 C160.978169,106.301237 158.65164,106.596331 156.575537,105.981876 C152.541195,104.789975 151.64539,100.031671 152.610198,92.9869494 C152.884,90.987736 153.306502,88.8703667 153.837458,86.70454 C154.177586,85.3171166 154.541795,83.9926587 154.906283,82.7747285 C155.034152,82.3474581 155.153095,81.9635084 155.260141,81.6283778 C155.32512,81.4249437 155.372224,81.2814456 155.398478,81.2034007 L155.742268,80.6362427 C170.194939,65.5835939 181.911749,47.4353056 188.856061,32.3682546 C192.779734,23.9730307 194.690443,16.9741447 194.225706,12.0648276 C193.736219,6.89405566 190.657475,4.20061134 184.142045,4.05434086 C183.576773,4.02168078 183.005619,4.01425051 182.442905,4.03150567 C174.816076,4.42644761 168.569241,8.85616787 163.946174,15.6962731 Z M175.138324,43.6372848 C179.19911,37.5276008 182.494893,31.3559026 185.311554,24.2014555 C186.284013,21.7274793 186.726611,19.6987944 186.66645,18.3309625 C186.628404,17.4659719 186.480709,17.2277592 186.391584,17.2133176 C185.566911,17.1419962 183.725943,18.5404505 181.704515,21.3659943 C177.079994,29.0915717 173.024096,38.3027079 169.600778,48.0914813 C168.881696,50.1476547 168.218394,52.1523306 167.616543,54.0684416 C170.436741,50.2500723 173.687581,45.8200098 175.138324,43.6372848 Z M188.149438,25.3098465 C185.250193,32.6740627 181.85411,39.0335828 177.679655,45.3142877 C174.982136,49.3728588 166.385854,60.7814862 165.296358,62.3617171 C165.196049,62.5074102 165.196049,62.5074102 165.096362,62.6530311 L161.277416,68.2398676 L162.331176,61.5622733 C162.537299,60.256086 164.529871,53.3615299 166.722419,47.0920683 C170.21586,37.1027828 174.360944,27.6937049 179.118703,19.7567495 C181.875014,15.8776771 184.593841,13.8431925 186.880665,14.2137048 L188.055857,14.4041099 L188.075491,14.6386176 C190.323744,15.9939007 190.201993,20.0880625 188.149438,25.3098465 Z M207.316149,69.4516672 L207.16006,69.5499249 C206.856135,69.7164817 206.194885,70.246884 205.453679,70.9804604 C204.432846,71.9907858 203.363442,73.2696469 202.31966,74.7867698 C199.529124,78.8427797 197.286928,84.020265 195.939808,90.3412329 C194.256564,98.0691052 194.550451,102.090099 197.225348,102.984715 C199.955799,103.486785 202.540901,101.81683 205.207516,96.9427377 C205.274842,96.7804813 205.381746,96.5225375 205.523286,96.1805218 C205.799166,95.5138891 206.1066,94.7694603 206.437693,93.9657988 C207.383608,91.6697829 208.329491,89.3593984 209.2121,87.1833511 C209.285791,87.0016331 209.285791,87.0016331 209.35945,86.8198555 C211.557696,81.3938533 213.014274,77.6457599 213.160188,76.9980978 C214.281163,72.0196685 212.873031,68.3135279 210.527192,68.2043953 C209.63708,68.1712588 208.555139,68.5627327 207.316149,69.4516672 Z M210.619892,65.1684447 C215.422233,65.3472484 217.615784,71.0837551 216.134321,77.6631701 C215.930301,78.5687374 214.540994,82.1437289 212.185948,87.956766 C212.112056,88.1391194 212.112056,88.1391194 212.038138,88.3213951 C211.153221,90.5031352 210.205327,92.8184312 209.257463,95.1191773 C208.925734,95.9243826 208.61769,96.6702866 208.341218,97.3383515 C208.175273,97.7393401 208.056681,98.0253878 207.993329,98.1779509 L207.924993,98.3209234 C204.642125,104.356782 200.817056,106.797916 196.547924,105.947668 L196.395665,105.909117 C193.578781,105.039637 192.161207,102.671047 191.893839,99.2487298 C191.697697,96.7380994 192.079129,93.7459944 192.959615,89.7037017 C194.388735,82.997896 196.790611,77.4516894 199.805586,73.0694621 C201.877104,70.0585364 204.181969,67.7580422 205.604523,66.9374179 C207.199054,65.808148 208.767617,65.2055093 210.252362,65.16658 L210.619892,65.1684447 Z" id="Shape" fill="#F2A900"></path>
            </g>
        </g>
    </g>
</svg>