<?xml version="1.0" encoding="UTF-8" standalone="no"?>
<svg width="250px" height="250px" viewBox="0 0 250 250" version="1.1" xmlns="http://www.w3.org/2000/svg" xmlns:xlink="http://www.w3.org/1999/xlink">
    <!-- Generator: Sketch 47.1 (45422) - http://www.bohemiancoding.com/sketch -->
    <title>WASH</title>
    <desc>Created with Sketch.</desc>
    <defs></defs>
    <g id="Page-1" stroke="none" stroke-width="1" fill="none" fill-rule="evenodd">
        <g id="WASH">
            <g id="Page-1" transform="translate(0.000000, 39.000000)">
                <polygon id="Fill-1" fill="#D7C592" points="174.242045 -5.40880503e-05 174.240963 42.0079711 192.278842 42.0079711 178.571591 93.5711912 154.761526 -5.40880503e-05 115.800487 -5.40880503e-05 90.9092532 93.5711912 78.283171 42.0074302 96.6808983 42.0074302 96.679816 -5.40880503e-05 0.000703463203 -5.40880503e-05 0.000162337662 42.0079711 20.9233225 42.0079711 53.3913961 171.958839 108.225271 171.958298 124.459037 109.43738 140.331872 171.958839 195.165747 171.958839 229.797781 42.0079711 249.99908 42.0079711 249.999621 -5.40880503e-05"></polygon>
                <polygon id="Fill-2" fill="#3C2D6E" points="25.2518939 35.4975006 57.7199675 165.308821 103.173431 165.308281 124.818452 84.1772868 145.020292 165.30774 190.474838 165.307199 224.745942 35.4975006 243.143128 35.4969597 243.142587 6.65126164 180.374188 6.65072075 180.373106 35.4975006 200.575487 35.4969597 178.209686 118.071564 150.431548 6.65072075 120.85092 6.65017987 90.9082792 118.071023 70.7069805 35.4975006 90.9082792 35.4969597 90.9077381 6.65017987 6.85362554 6.65072075 6.85362554 35.4980415"></polygon>
            </g>
        </g>
    </g>
</svg>