<?xml version="1.0" encoding="UTF-8" standalone="no"?>
<svg width="250px" height="250px" viewBox="0 0 250 250" version="1.1" xmlns="http://www.w3.org/2000/svg" xmlns:xlink="http://www.w3.org/1999/xlink">
    <!-- Generator: Sketch 47.1 (45422) - http://www.bohemiancoding.com/sketch -->
    <title>FLA</title>
    <desc>Created with Sketch.</desc>
    <defs></defs>
    <g id="Page-1" stroke="none" stroke-width="1" fill="none" fill-rule="evenodd">
        <g id="FLA" fill-rule="nonzero">
            <g id="Florida_Gators_logo" transform="translate(0.000000, 46.000000)">
                <g id="Group" transform="translate(124.966555, 79.629711) scale(-1, 1) rotate(90.000000) translate(-124.966555, -79.629711) translate(46.057692, -44.850553)">
                    <g id="Shape">
                        <path d="M33.1103679,247.182237 C29.4753344,245.487632 26.8060201,241.993816 25.7859532,237.589934 C25.3720736,235.811645 23.8064381,234.72375 21.2813545,233.102368 C19.5234114,231.972632 17.7079849,230.811513 16.2531355,229.075066 C14.2380853,226.679605 13.1762124,223.656513 13.1762124,220.340526 C13.1762124,217.965987 13.7249164,215.424079 14.763796,212.976316 C15.326087,211.66875 16.0096154,210.371645 16.8551421,209.020145 C16.673286,208.496072 16.5123328,207.940618 16.3869147,207.360059 C16.1245819,206.139316 15.9887124,204.818151 15.9887124,203.428993 C15.9887124,202.031467 16.1193562,200.520967 16.3931856,198.816947 C16.8906773,195.675651 18.7573161,191.001888 19.7930602,188.561447 L19.7690217,188.508099 C12.9379181,171.861217 8.7416388,152.619079 7.61601171,132.79952 C5.27069398,129.658224 3.47303512,126.629901 2.402801,123.995941 C0.901964883,120.312789 0.141095318,116.376493 0.141095318,112.301072 C0.141095318,106.077059 1.95652174,99.9932171 5.28532609,94.9711184 C3.00167224,89.8956711 1.75585284,84.0545132 1.75585284,78.3158684 C1.75585284,73.8450395 2.51463211,69.4704474 3.95380435,65.6690921 C7.24498328,56.9784868 14.3530518,49.9688882 23.1187291,46.6853289 C29.6498746,33.1431316 38.0121237,21.8530855 47.3568144,13.9658487 C57.9567308,5.02628289 69.9770067,0.305447368 82.1227007,0.305447368 C96.1778846,0.305447368 109.832776,6.53155263 121.615803,18.3132434 C132.28888,29.0039013 141.190426,44.0503224 147.356814,61.8321711 C153.625627,79.917375 156.939799,100.555993 156.939799,121.526211 C156.939799,166.479276 141.767349,207.465711 117.330686,228.558316 C117.119565,228.777987 113.097826,231.801079 113.097826,231.801079 C109.23704,234.719566 105.422241,236.968579 101.439172,238.684105 C89.2025502,243.94575 75.7295151,244.029434 63.4709448,238.924697 C62.6536371,239.541868 61.7872074,240.127658 60.8873328,240.692526 C58.8691472,241.937329 56.7495819,242.941539 54.5913462,243.694697 C52.2794732,244.500158 49.9048913,245.023184 47.4958194,245.242855 C47.2021321,245.462526 46.9063545,245.682197 46.6147575,245.870487 C45.7734114,246.424895 44.8735368,246.906079 43.9402174,247.282658 C40.3511706,248.757592 36.4057274,248.71575 33.1103679,247.178053 L33.1103679,247.182237 Z" fill="#FFFFFF"></path>
                        <path d="M28.8357023,236.826316 C27.6703595,231.784342 21.6513378,230.570921 18.6496656,226.993421 C15.5591555,223.321776 15.8528428,218.353026 17.6442308,214.147895 C18.222199,212.798487 19.1335702,211.082961 20.4211957,209.259691 C18.5022993,205.478211 19.1513378,201.675809 19.485786,199.245829 C20.0156773,195.380664 22.0390886,190.491414 23.0946906,188.562493 C25.1369147,184.827039 27.2909699,183.791447 28.5305184,181.684697 C28.9966555,180.885513 30.4128344,178.414737 31.194607,173.536993 C32.271112,166.814013 31.7276338,162.061796 31.5959448,158.792882 C30.9437709,149.18175 29.0144231,139.032947 28.5430602,135.588296 C28.0967809,133.847664 24.3760452,128.703178 20.9834866,124.685289 C15.9019649,118.670487 15.6772575,117.039691 15.3532609,114.325184 C14.1565635,104.215086 21.110995,99.8551382 21.1381689,99.8373553 C21.1381689,99.8373553 20.9343645,95.0987368 21.1381689,92.3748158 C17.1279264,86.5828224 15.9813963,79.3797039 17.2617057,73.5155329 C17.9640468,70.5447434 19.34051,67.8009474 21.4966555,65.6439868 C21.5363712,65.6021447 23.8231605,63.2255132 27.4926839,61.9263158 C27.6285535,61.8761053 31.8582776,60.2505395 36.7694398,60.996375 C38.7019231,52.7503421 41.389005,48.8914539 41.9565217,48.0734408 C43.3716555,46.0315461 45.7420569,45.0649934 47.3233696,44.7647763 C50.1431856,44.3160197 53.2033863,45.2145789 55.8026756,46.6079211 C56.187291,43.5785526 56.9565217,40.5188487 57.7696488,38.5752829 C58.3727007,37.2729474 60.485995,32.8565132 66.4360368,33.4538092 C66.4872492,33.4590395 69.0938545,33.6253618 74.6728679,35.7666316 C76.2468645,32.6441645 79.5965719,28.8720987 80.7336957,27.6952895 C83.8576505,24.4713553 87.5783863,24.7119474 87.84699,24.7307763 C87.8553512,24.7339145 87.8647575,24.7339145 87.8720736,24.7370526 C93.8179348,25.5184539 100.34908,33.4287039 102.244983,36.37125 C115.897784,39.8368224 124.257943,53.0756645 127.724707,62.1574934 C127.806229,62.3750724 132.882525,74.4873158 131.748537,86.4436974 C136.442308,93.7964013 135.876881,108.038408 135.883152,109.234046 C135.918687,116.527125 134.211957,124.897638 134.197324,124.97923 C132.784281,132.862283 131.246865,133.065217 129.599707,133.384263 C130.768186,145.764296 128.109323,155.739454 128.025711,156.083605 C126.884406,160.937289 125.749373,161.622454 124.514005,162.412224 C125.319816,172.728395 123.807483,180.382362 123.189799,182.785145 C121.612667,188.913967 119.289298,191.564664 117.392349,193.216382 C117.345318,198.735355 117.427885,201.218684 117.900293,202.954086 C119.289298,208.028487 118.05393,213.949145 117.617057,215.706513 C116.159072,221.114605 112.980769,226.731908 107.718436,231.658816 C105.332358,233.217434 102.84908,234.598224 100.196488,235.738421 C88.7353679,240.675789 75.9124164,240.728092 64.4199415,235.863947 C63.9370819,235.665197 63.4625836,235.455987 62.9880853,235.225855 C56.1956522,240.979145 49.2391304,241.889211 47.0056438,242.0775 C46.4778428,242.119342 46.2980769,242.129803 45.8894231,242.454079 C44.8411371,243.27 43.4949833,244.023158 42.749791,244.326513 C40.1045151,245.403947 37.0495401,245.498092 34.4324833,244.284671 C31.4318562,242.882961 29.5673077,239.985395 28.8357023,236.826316 L28.8357023,236.826316 Z" fill="#003087"></path>
                        <path d="M68.6098041,48.7332275 C67.9409077,48.7541485 67.2803726,48.8080412 66.6198375,48.8770806 C66.4191686,48.8990896 66.2268609,48.9277933 66.026192,48.9539027 C65.5579646,49.0135696 65.0980984,49.0826927 64.6298709,49.166377 C64.4124796,49.2072148 64.1950883,49.2521533 63.9693358,49.2971754 C63.5178308,49.3923243 63.0663258,49.5003606 62.6148208,49.6175185 C62.4225131,49.6698212 62.2302054,49.7124164 62.0378977,49.7678991 C60.7753559,50.1277412 59.5546201,50.5824812 58.3756903,51.1211564 C58.1917439,51.2056775 58.0077974,51.2994038 57.8322121,51.3889459 C57.4308743,51.5839301 57.0378977,51.7856091 56.6532823,52.0023512 C56.4442522,52.1161617 56.2435833,52.2316459 56.0429144,52.3488038 C55.6750214,52.5697301 55.3154897,52.7998617 54.9643191,53.0400354 C54.7803726,53.1605406 54.5964261,53.2785354 54.4208408,53.4032248 C53.9609746,53.7304301 53.5178308,54.0752091 53.0914094,54.4325406 C53.0412422,54.4735459 52.991075,54.5095301 52.9409077,54.5538827 L52.9325465,54.5538827 C52.6566268,54.5480248 52.3723459,54.5480248 52.0964261,54.5538827 C44.0863927,50.0147675 33.164988,48.9460364 24.7569612,52.1312248 C24.7502723,52.1362459 24.7427472,52.1395933 24.7377305,52.1429406 C24.164988,52.3605196 23.6031151,52.6015301 23.0496034,52.8601143 C23.0136502,52.877688 22.977697,52.8977722 22.9400716,52.9128354 C22.3974295,53.1705827 21.866493,53.4459038 21.3439178,53.736288 C19.9116435,54.5321248 18.5579646,55.4601827 17.2996034,56.5003775 C17.2979311,56.5003775 17.2987673,56.5020512 17.2945867,56.5020512 C16.0345532,57.5422459 14.8690014,58.697088 13.8129813,59.9473301 L13.8129813,59.9490038 C13.5169947,60.2962933 13.2352221,60.6511143 12.956794,61.0109564 C12.9308743,61.0469406 12.9041184,61.0837617 12.8773626,61.1172354 C12.623182,61.4536459 12.3790348,61.7950775 12.1424128,62.142367 C12.0905733,62.2126617 12.0412422,62.2871406 11.9935833,62.3582722 C11.7795365,62.6762722 11.5721786,63.0001301 11.3715097,63.3273354 C11.3004395,63.4436564 11.2293693,63.5608143 11.1624796,63.6754617 C10.9852221,63.9717038 10.8154897,64.2679459 10.650774,64.5675354 C10.560473,64.7374143 10.4718442,64.9106406 10.3832154,65.0813564 C10.2477639,65.3391038 10.1148208,65.6001985 9.98940272,65.8621301 C9.8740181,66.1089985 9.76365021,66.3583775 9.65495456,66.6077564 C9.5663258,66.8085985 9.47518867,67.0086038 9.39074051,67.2111196 C9.23605824,67.5927196 9.09140941,67.9718091 8.95261342,68.3634512 C8.92167697,68.443788 8.88906827,68.5274722 8.85645958,68.6128301 C8.68839938,69.1023827 8.53120874,69.6003038 8.38572379,70.1057564 C-19.1443765,82.7571354 -36.9002294,102.675651 -36.9002294,125.078751 C-36.8999786,125.843625 -36.874226,126.601804 -36.8314167,127.36333 C-36.8209652,127.564172 -36.8063331,127.773383 -36.7937913,127.974225 C-36.7498949,128.618593 -36.6922026,129.262962 -36.6191257,129.898962 C-36.6034066,130.024488 -36.5960488,130.150014 -36.5782394,130.275541 C-36.4873531,131.011962 -36.3714668,131.756751 -36.2418682,132.493172 C-36.2073364,132.677277 -36.1685404,132.869751 -36.1340923,133.053856 C-36.0191257,133.648014 -35.8931224,134.242172 -35.7551625,134.83633 C-35.7123531,135.012067 -35.6749786,135.179435 -35.6310822,135.355172 C-35.4513163,136.083225 -35.2546608,136.802909 -35.0381893,137.522593 C-34.9922026,137.673225 -34.9386909,137.823856 -34.8927043,137.974488 C-34.7062495,138.568646 -34.5072528,139.154435 -34.2965505,139.740225 C-34.2271525,139.932699 -34.1594267,140.125172 -34.0858481,140.317646 C-33.8216341,141.020593 -33.5448782,141.731909 -33.2422026,142.426488 C-33.2062495,142.510172 -33.1661157,142.593856 -33.1309986,142.677541 C-32.8550789,143.305172 -32.5632729,143.924435 -32.2605973,144.543699 C-32.1652796,144.744541 -32.0682896,144.945383 -31.9679551,145.137856 C-31.6594267,145.75712 -31.3383565,146.368014 -30.9997277,146.970541 C-30.952905,147.054225 -30.9102628,147.137909 -30.862604,147.221593 C-30.4821692,147.899435 -30.0799953,148.568909 -29.6669518,149.238383 C-29.5490588,149.422488 -29.4286575,149.614962 -29.3116006,149.799067 C-28.9662829,150.334646 -28.612604,150.870225 -28.2480555,151.405804 C-28.1460488,151.556435 -28.0457143,151.707067 -27.9411993,151.84933 C-27.4871859,152.502067 -27.0147779,153.146435 -26.5315003,153.782435 C-26.4052461,153.949804 -26.2739752,154.108804 -26.1443765,154.276172 C-25.7514,154.786646 -25.3467177,155.288751 -24.9328381,155.790856 C-24.7873531,155.958225 -24.6435404,156.14233 -24.4988916,156.309699 C-23.9721357,156.93733 -23.4311658,157.556593 -22.876818,158.167488 C-22.7664501,158.284646 -22.6519016,158.401804 -22.5390254,158.52733 C-22.0682896,159.037804 -21.5858481,159.539909 -21.0933732,160.050383 C-20.9177879,160.22612 -20.7405304,160.401856 -20.5632729,160.585962 C-19.9846775,161.163383 -19.3968849,161.740804 -18.7898615,162.309856 C-18.7363498,162.360067 -18.6811658,162.410277 -18.6276541,162.460488 C-18.022303,163.029541 -17.3968849,163.581856 -16.7647779,164.134172 C-16.5657812,164.309909 -16.3634401,164.485646 -16.1636073,164.661383 C-15.6151123,165.130014 -15.0565839,165.598646 -14.488022,166.058909 C-14.3483899,166.176067 -14.2112662,166.293225 -14.0666173,166.402014 C-13.3793264,166.95433 -12.6778214,167.498277 -11.9646107,168.042225 C-11.7555806,168.192856 -11.5448782,168.351856 -11.335012,168.510856 C-10.7664501,168.929277 -10.1870187,169.356067 -9.60507889,169.76612 C-9.40022939,169.908383 -9.20123273,170.059014 -8.99471099,170.201277 C-8.24721935,170.72012 -7.48969427,171.230593 -6.71795514,171.741067 C-6.52481133,171.866593 -6.32748691,171.99212 -6.1301625,172.117646 C-5.50892504,172.51933 -4.87932638,172.912646 -4.23885815,173.305962 C-3.99638323,173.464962 -3.75056384,173.615593 -3.5072528,173.766225 C-2.70039661,174.251593 -1.88517922,174.736962 -1.05491166,175.205593 C-0.921132397,175.280909 -0.783172531,175.356225 -0.649393267,175.431541 C0.0771953621,175.841593 0.812981315,176.251646 1.55462011,176.644962 C1.824687,176.795593 2.09642613,176.937856 2.36816526,177.08012 C3.1156569,177.481804 3.87569035,177.866751 4.64157663,178.251699 C4.78288098,178.318646 4.92167697,178.393962 5.0663258,178.460909 C5.94843282,178.904435 6.84809837,179.331225 7.75445289,179.749646 C8.03120874,179.883541 8.31214519,180.009067 8.59308165,180.134593 C9.3163258,180.46933 10.0479311,180.795699 10.7853893,181.113699 C11.0236837,181.222488 11.2636502,181.322909 11.5019445,181.431699 C12.4300382,181.825014 13.3698375,182.21833 14.3188342,182.594909 C14.5872288,182.703699 14.8623124,182.812488 15.1323793,182.921277 C15.8823793,183.214172 16.6348877,183.507067 17.3957572,183.791593 C17.685891,183.900383 17.9802054,184.009172 18.2728475,184.117962 C19.2494362,184.477804 20.2352221,184.829277 21.2302054,185.172383 C21.4534495,185.247699 21.6817104,185.323014 21.9091352,185.39833 C22.7268609,185.674488 23.5504395,185.950646 24.3765265,186.210067 C24.7051218,186.318856 25.0320449,186.419277 25.3614763,186.519699 C26.3271954,186.820962 27.297095,187.122225 28.2795365,187.406751 C28.421677,187.448593 28.5613091,187.482067 28.7026134,187.532277 C29.7285332,187.825172 30.7644863,188.109699 31.8071285,188.377488 C32.1566268,188.469541 32.5036168,188.569962 32.852279,188.653646 C33.8932489,188.929804 34.9434161,189.189225 35.9994362,189.440277 C36.1139847,189.465383 36.227697,189.498856 36.3439178,189.523962 C37.8171619,189.867067 39.3054562,190.193435 40.8088007,190.511435 C40.9927472,190.544909 41.1766937,190.586751 41.3606402,190.620225 C42.8238509,190.921488 44.2954228,191.197646 45.7837171,191.465435 C46.0429144,191.507277 46.2937505,191.557488 46.5445867,191.59933 C47.9994362,191.850383 49.4710081,192.084699 50.9509412,192.302277 C51.2352221,192.34412 51.5278643,192.385962 51.8121452,192.419435 C53.2837171,192.628646 54.7720114,192.829488 56.2603057,193.005225 C56.5529479,193.038699 56.84559,193.072172 57.1298709,193.105646 C58.6432489,193.273014 60.164988,193.423646 61.6950883,193.565909 C61.9710081,193.582646 62.2385666,193.607751 62.5061251,193.624488 C64.0780315,193.758383 65.6499378,193.875541 67.2385666,193.967593 C67.4559579,193.975962 67.6817104,193.98433 67.9074629,194.001067 C69.5462589,194.09312 71.1934161,194.168435 72.8572957,194.210277 C72.9994362,194.218646 73.1415766,194.218646 73.2753559,194.218646 C75.0312087,194.268856 76.7870616,194.293962 78.5596368,194.293962 C83.6934161,194.293962 88.7603057,194.09312 93.7184997,193.699804 C93.7770281,193.699804 93.8271954,193.699804 93.8857238,193.691435 C96.0596368,193.515699 98.2001051,193.306488 100.332212,193.063804 C100.675021,193.021962 101.017831,192.988488 101.36064,192.946646 C102.464319,192.812751 103.551276,192.670488 104.638232,192.519856 C104.76365,192.50312 104.880707,192.486383 105.006125,192.469646 C106.017831,192.327383 107.029536,192.176751 108.032881,192.017751 C108.23355,191.984277 108.44258,191.950804 108.643249,191.925699 C109.111476,191.850383 109.588065,191.75833 110.056292,191.683014 C110.18171,191.657909 110.307128,191.632804 110.440908,191.616067 C111.042914,191.515646 111.63656,191.415225 112.238567,191.306435 C113.099771,191.147435 113.944252,190.980067 114.797095,190.812699 C115.131543,190.745751 115.465991,190.687172 115.792078,190.620225 C116.70345,190.43612 117.598098,190.235277 118.492747,190.034435 C118.735222,189.984225 118.969336,189.934014 119.20345,189.883804 C120.047931,189.69133 120.87569,189.490488 121.70345,189.298014 C122.029536,189.21433 122.355623,189.139014 122.673349,189.063699 C123.333884,188.89633 123.977697,188.728962 124.62151,188.553225 C125.089737,188.436067 125.557965,188.318909 126.026192,188.193383 C126.70345,188.009277 127.372346,187.816804 128.041242,187.62433 C128.492747,187.498804 128.944252,187.373277 129.387396,187.239383 C130.10646,187.030172 130.817162,186.812593 131.527864,186.586646 L132.68171,186.235172 C133.342246,186.017593 134.002781,185.800014 134.663316,185.582435 C135.064654,185.440172 135.474353,185.314646 135.87569,185.172383 C136.444252,184.979909 137.012814,184.770699 137.573015,184.569856 C138.032881,184.410856 138.492747,184.251856 138.952613,184.07612 C139.537898,183.866909 140.114821,183.640962 140.691744,183.415014 C141.159971,183.239277 141.628199,183.063541 142.088065,182.879435 C142.664988,182.653488 143.241911,182.410804 143.810473,182.176488 C144.245256,182.000751 144.680038,181.825014 145.098098,181.649277 C145.156627,181.624172 145.206794,181.599067 145.265322,181.573962 L146.594754,180.996541 C147.062981,180.78733 147.53957,180.586488 147.999436,180.377277 C148.576359,180.117856 149.128199,179.850067 149.696761,179.590646 C150.081376,179.406541 150.482714,179.222435 150.867329,179.03833 C151.352279,178.804014 151.828868,178.56133 152.305456,178.327014 C152.765322,178.092699 153.225189,177.866751 153.676694,177.632435 C154.220172,177.364646 154.738567,177.08012 155.265322,176.795593 C155.633215,176.60312 156.00947,176.402277 156.377363,176.201435 C156.611476,176.075909 156.837229,175.950383 157.062981,175.816488 C157.255289,175.707699 157.439235,175.607277 157.631543,175.498488 C158.099771,175.239067 158.576359,174.971277 159.036225,174.69512 C159.170005,174.619804 159.295423,174.544488 159.420841,174.469172 C159.772011,174.259962 160.114821,174.05912 160.45763,173.858277 L161.561309,173.180435 C162.046259,172.879172 162.522848,172.577909 162.999436,172.268277 C163.350607,172.04233 163.701777,171.816383 164.044587,171.598804 C164.261978,171.456541 164.471008,171.305909 164.680038,171.163646 C164.872346,171.03812 165.056292,170.912593 165.240239,170.787067 C165.641577,170.510909 166.051276,170.234751 166.444252,169.958593 C166.887396,169.648962 167.322179,169.322593 167.765322,169.004593 C168.091409,168.770277 168.409135,168.535962 168.726861,168.310014 C169.153282,167.983646 169.571343,167.657277 169.989403,167.330909 C170.31549,167.088225 170.624854,166.837172 170.94258,166.594488 C171.369001,166.251383 171.7787,165.908277 172.196761,165.565172 C172.489403,165.31412 172.790406,165.071435 173.074687,164.828751 C173.492747,164.477277 173.885724,164.125804 174.287062,163.77433 C174.546259,163.531646 174.83054,163.29733 175.098098,163.054646 L176.327195,161.899804 C176.670005,161.565067 177.021175,161.238699 177.355623,160.91233 C172.706794,162.828699 166.56967,164.217856 159.312145,162.226172 C159.287062,162.217804 159.261978,162.217804 159.236894,162.217804 L159.236894,162.209435 C140.265322,175.833225 111.118165,184.55312 78.4342188,184.55312 C21.2586335,184.55312 -25.0942093,157.882962 -25.0942093,124.974146 C-25.091701,107.426404 -11.9136073,91.6569512 9.04876727,80.7520617 C9.10562346,80.7219354 9.15997128,80.6959933 9.21766359,80.6625196 C10.2795365,80.1160617 11.3589679,79.5804827 12.4576301,79.0557827 C12.671677,78.9545248 12.8865599,78.853267 13.1006067,78.7520091 C14.1758576,78.2465564 15.2644863,77.7519827 16.3798709,77.2724722 C16.3965934,77.2641038 16.4141519,77.2532248 16.4333827,77.2482038 C16.4292021,77.1268617 16.4241853,77.0055196 16.4241853,76.881667 C16.4241853,69.0488248 20.7059579,62.1867196 27.4860582,59.6125933 C34.3414094,57.0058301 43.8021118,58.3113038 49.7803726,62.6068143 C51.6783659,62.4771038 54.7636502,62.5658091 56.1766937,62.6143459 C60.164988,57.2861722 68.894085,55.1220985 75.7920783,57.9372354 C77.5144863,58.6359985 79.8974295,60.5983933 82.6566268,62.8695827 C83.7268609,63.7516143 84.838901,64.659588 85.9509412,65.5407827 C101.435891,66.1826406 115.976025,68.7827091 128.818834,72.9133617 C132.547931,72.4363617 135.900774,71.4982617 138.542914,69.8764617 C139.83054,68.666388 140.892413,67.7768248 141.745256,67.1391512 C126.001108,60.954888 107.581376,57.0133617 87.7653225,56.073588 L87.7569612,56.073588 L87.7569612,56.0719143 C87.6148208,55.9597775 87.4726803,55.8493143 87.3305398,55.7421985 C87.255289,55.6836196 87.1800382,55.6258775 87.1047873,55.5689722 C86.7536168,55.289467 86.394085,55.0208406 86.0429144,54.7597459 C86.026192,54.7497038 86.0094696,54.7421722 86.0011084,54.7321301 C85.658299,54.478567 85.3154897,54.2333722 84.9726803,53.9948722 C84.9475967,53.9739512 84.9141519,53.9563775 84.8890683,53.9354564 C84.5629813,53.7120196 84.2368944,53.4869091 83.9108074,53.2768617 C83.8690014,53.2467354 83.8271954,53.2199564 83.7853893,53.1923406 C83.4760248,52.9914985 83.1666602,52.7948406 82.8656569,52.6082248 C82.8071285,52.5697301 82.7486,52.5312354 82.6817104,52.496088 C82.3974295,52.3228617 82.1215097,52.1563301 81.8372288,51.9973301 C81.7536168,51.9487933 81.6700047,51.9019301 81.5780315,51.8533933 C81.3271954,51.711967 81.0763592,51.5722143 80.8338843,51.4450143 C80.7084663,51.3772301 80.5830482,51.3186512 80.4492689,51.2533775 C80.2486,51.1512827 80.0479311,51.0475143 79.8472623,50.9562985 C79.5211753,50.8023196 79.2034495,50.662567 78.894085,50.5327727 C76.7034495,49.643628 74.4124796,49.0928185 72.0964261,48.8574985 C70.9342188,48.7382485 69.7720114,48.6976617 68.6098041,48.7332275 L68.6098041,48.7332275 Z M190.415824,107.879554 C188.417496,109.832743 185.156627,112.758343 182.079704,112.459591 C181.728533,112.42528 181.159971,114.611112 180.992747,115.028696 C180.758633,115.657164 180.741911,115.862191 180.909135,116.516601 C181.034553,117.018706 181.15161,117.522485 181.243583,118.029612 C181.661644,120.058117 181.895757,122.120933 181.937563,124.192954 C181.98773,126.393012 181.820506,128.593906 181.469336,130.761327 C181.385724,131.271801 181.285389,131.773906 181.176694,132.276012 C181.059637,132.828327 181.385724,132.878538 181.728533,133.271854 C182.188399,133.799064 182.531209,134.418327 182.807128,135.071064 C183.501108,136.820064 183.668332,138.853591 183.476025,140.728117 C184.838901,140.175801 186.619838,139.715538 188.057965,140.259485 C189.813817,140.928959 189.55462,143.037801 189.370674,144.552485 C192.338901,138.493749 194.019503,131.840854 194.019503,125.07917 C194.019503,119.167717 192.731878,113.309822 190.415824,107.879554 L190.415824,107.879554 Z M95.8004395,115.529127 C95.6917439,115.524106 95.5997706,115.534149 95.5579646,115.565112 C95.1399044,117.665585 94.1867271,119.69158 93.0663258,121.505854 C91.6867271,123.740222 89.7302054,126.309327 87.255289,127.372117 C85.4743526,128.133643 83.1415766,127.656643 82.7235164,125.512654 C82.4977639,124.355301 83.0077974,123.151085 82.9325465,121.966954 C82.8572957,120.869017 82.5646536,119.623796 81.761978,118.817917 C81.3188342,118.734233 80.3071285,119.324206 79.8723459,119.473164 C79.387396,119.642206 79.0195031,121.666527 78.7770281,122.213822 C77.7987673,124.392122 76.3355566,126.326064 74.5713425,127.932801 C73.2084663,129.179696 71.6532823,130.275959 69.9475967,131.004012 C68.4509412,131.640012 65.7753559,131.874327 65.0228475,129.974696 C64.5378977,128.744538 65.4659913,127.522749 65.8338843,126.40138 C66.2268609,125.178754 66.4275298,123.893364 66.4442522,122.612996 C66.4442522,122.291649 66.5863927,121.065675 66.3271954,120.805417 C65.7168275,120.171927 64.3205064,122.155243 63.9442522,122.50337 C61.9375633,124.368691 59.6633158,125.957854 57.213483,127.171275 C55.3322121,128.10017 52.7653225,129.338696 50.6248542,128.769643 C49.7218442,128.518591 48.9609746,127.890959 48.7435833,126.962064 C48.484386,125.867475 49.0362255,124.951133 49.4960917,124.008849 C50.3405733,122.270727 51.0512756,120.326743 51.1683325,118.374391 C51.2268609,117.456375 46.9292021,116.586059 46.1432489,116.405301 C46.0178308,116.379359 44.7469278,116.009475 44.6800382,116.115754 C44.4041184,116.52497 44.1616435,116.95678 43.935891,117.390264 C42.8322121,119.448896 41.9292021,121.796238 41.9459245,124.161991 C41.9542857,125.235659 42.0211753,126.19217 41.0930816,126.928591 C40.2904061,127.572959 39.1950883,127.706854 38.2042857,127.589696 C33.8238509,127.062485 30.3506067,122.223864 29.1666602,118.274806 C21.7728475,121.860675 21.6532823,132.242538 23.032881,139.154854 C23.7586335,139.012591 25.3781987,138.677854 25.3781987,138.677854 C25.3957572,137.631801 25.7243526,136.502064 25.8631485,136.092012 C26.685891,133.623327 28.081376,131.062591 29.9517773,129.221538 C31.7051218,127.506012 35.3113091,126.468327 36.227697,129.58138 C37.0086335,132.23417 37.005289,135.054327 39.2118107,137.05438 C39.4099713,135.94138 39.7569612,134.845117 40.1900716,133.799064 C41.0094696,131.824117 42.3807071,129.430749 44.5211753,128.669222 C46.4024462,127.999749 48.4760248,129.045801 48.5011084,131.179749 C48.5178308,132.619117 48.4091352,133.891117 48.8021118,135.322117 C49.1783659,136.669433 49.755289,137.949801 50.4241853,139.171591 C50.8088007,139.874538 51.2184997,140.560749 51.6616435,141.221854 C52.0295365,141.790906 52.1633158,142.418538 52.8740181,142.117275 C53.8439178,141.715591 54.6382322,140.962433 55.2151552,140.100485 C55.8171619,139.188327 56.2268609,138.125538 56.3690014,137.037643 C56.5027806,135.991591 56.310473,134.945538 56.6449211,133.924591 C57.2720114,132.050064 59.1365599,132.108643 60.658299,132.845064 C65.2820449,135.09617 65.94258,140.66117 66.6950883,145.180117 C70.2318776,143.883012 72.2218442,140.368275 73.2586335,136.937222 C73.7268609,135.355591 74.0362255,133.723749 74.1950883,132.083538 C74.3288676,130.69438 74.2536168,128.694327 75.8506067,128.10017 C77.4810415,127.489275 79.4375633,128.685959 80.7251887,129.573012 C82.2385666,130.602327 83.6014429,131.849222 84.8723459,133.163064 C85.1817104,133.481064 85.491075,133.807433 85.7920783,134.14217 C85.8422455,134.200749 87.4977639,133.372275 87.6984328,133.288591 C88.9693358,132.778117 90.4994362,132.55217 91.5696703,131.665117 C93.3004395,130.234117 94.34559,128.083433 94.7887338,125.90597 C95.1148208,124.263249 94.4292021,121.996243 95.8840515,120.809601 C97.7235164,119.296591 100.282045,120.919227 101.828868,122.099175 C103.919169,123.691685 105.700105,125.718517 107.205122,127.865854 C108.049603,129.05417 108.810473,130.301064 109.471008,131.59817 C109.76365,132.175591 110.031209,132.76138 110.282045,133.363906 C110.465991,133.790696 110.633215,134.886959 111.109804,134.753064 C113.517831,134.075222 115.583048,132.225801 117.012814,130.21738 C117.664988,129.280117 118.250272,128.242433 118.526192,127.121064 C118.768667,126.150327 119.211811,125.11097 120.089737,124.546101 C121.653282,123.535196 123.593082,124.68167 124.696761,125.859106 C126.226861,127.489275 126.904118,130.175538 127.47268,132.267643 C128.241911,135.112906 128.760306,138.125538 128.634888,141.087959 C131.937563,140.401749 135.064654,138.761538 137.790406,136.803327 C140.332212,134.979012 142.171677,132.886906 143.835557,130.275959 C137.848934,128.075064 132.322179,124.944438 126.435891,122.508391 C121.193416,120.333438 115.591409,117.928354 109.930874,117.103227 C109.245256,117.002806 109.094754,117.063059 108.501108,117.496543 C107.940908,117.901575 107.355623,118.284012 106.745256,118.614564 C105.909135,119.076501 104.97268,119.46898 104.011142,119.550154 C102.690072,119.658943 101.56967,119.015412 100.984386,117.837138 C100.73355,117.316622 100.574687,116.744222 100.507797,116.170985 C100.474353,115.903196 99.6298709,115.964285 99.387396,115.93918 C98.5429144,115.858843 97.6900716,115.773485 96.8372288,115.690638 C96.6867271,115.676412 96.1348877,115.542517 95.8004395,115.529127 L95.8004395,115.529127 Z M150.616493,132.55217 C151.201777,135.405801 151.235222,138.426801 151.001108,141.322275 C154.002781,139.857801 156.603115,137.297064 158.685055,134.727959 C155.967664,134.100327 153.283717,133.363906 150.616493,132.55217 L150.616493,132.55217 Z" fill="#FA4616" transform="translate(78.559637, 121.507382) scale(-1, 1) rotate(90.000000) translate(-78.559637, -121.507382) "></path>
                        <path d="M54.4711843,77.4103748 C51.3942612,77.3551432 48.518007,78.670659 46.1768699,80.6046011 C48.9444284,81.1611011 51.6701809,81.9259748 54.253793,83.0691011 C55.6417528,83.6799959 56.9795455,84.3862906 58.2755321,85.1545116 C58.8691776,85.507659 59.1283749,85.523559 59.7972712,85.5126801 C60.2822211,85.507659 60.7671709,85.5160274 61.2521207,85.5327643 C64.5798799,85.6423906 67.8992779,86.0298485 71.1935923,86.5051748 C69.8641609,86.2842485 68.5263682,85.2189485 67.4477729,84.485038 C65.7420873,83.3226643 64.1032913,82.0615432 62.531385,80.7251064 C60.2738599,78.8062274 57.4728565,77.4639327 54.4711843,77.4103748 L54.4711843,77.4103748 Z M162.439412,78.7459748 C159.538074,78.6966011 156.3859,80.1468485 154.178542,81.691659 C155.650114,82.7402222 156.737071,84.4473801 157.874194,85.8231485 C159.111653,87.3068695 160.407639,88.8516801 162.130047,89.768859 C164.111653,90.8199327 165.934395,89.3127801 167.949445,89.6935432 C169.128375,89.9186537 168.651786,90.6492169 168.451117,91.4668116 C168.317338,91.9915116 169.203626,92.3429853 169.37085,92.8576432 C169.956134,94.6526695 164.822355,93.0635064 164.145097,92.8367222 C161.845766,92.0651537 159.696937,90.9094748 157.70697,89.5286853 C155.909311,88.2776064 154.387572,86.7963959 152.84075,85.2591169 C151.80396,84.2415169 150.700281,83.2707801 149.37085,82.672438 C145.298943,80.8481222 139.972857,81.914259 136.018007,83.5109537 C132.07988,85.1026274 127.874194,87.4139853 124.897606,90.5044432 C123.334061,92.1237327 121.895933,93.7823537 120.106636,95.1740222 C119.011318,96.0309485 117.832388,96.8016801 116.578208,97.411738 C115.633392,97.8711643 114.103291,98.6770432 113.016335,98.5096748 C111.837405,98.3213853 113.091586,97.4970959 113.484562,97.2711485 C114.170181,96.8820169 114.805632,96.4050169 115.441084,95.9322011 C116.921017,94.8192011 118.693592,93.5388327 119.663492,91.9228906 C116.586569,93.1162274 112.966168,93.235059 109.713659,93.4007537 C105.457806,93.6200064 101.160147,93.5840222 96.9126559,93.1672748 C92.9243615,92.773959 88.9778732,91.9086643 85.0230237,91.2827064 C79.2621542,90.3713853 73.4678398,89.6291064 67.6400806,89.223238 C64.5547963,89.0064959 61.4444284,89.0993853 58.3591441,88.8876643 C56.1099803,88.7328485 54.1283749,87.081759 52.0380739,86.3001485 C47.7404151,84.7001064 42.8407495,83.6113748 38.2337261,83.7343906 C39.6384084,86.461659 42.4561341,88.5387011 44.8725221,90.3069485 C45.9427562,91.0893959 47.0380739,91.8375327 48.1668365,92.5396432 C48.7019535,92.8727064 50.7002813,93.7421853 50.2654987,94.5463906 C49.6969368,95.5974643 47.1885756,94.199938 46.5614853,93.8961643 C44.9561341,93.1162274 43.4511174,92.1346116 42.0129903,91.0751695 C39.0698465,88.9127695 36.4109836,86.4039169 33.6183415,84.0482064 C29.9644953,80.9569116 25.9093114,79.1141853 21.0464351,79.1091643 C16.5957662,79.0991222 11.2228565,80.6397485 8.65931137,84.5762537 C6.26048194,88.2591959 6.20362575,93.3990801 7.44275619,97.4929116 C7.74459565,98.4921011 8.14760569,99.4670222 8.68272274,100.366627 C8.96700368,100.842791 9.79727124,101.910601 9.48288997,102.527354 C8.97703713,103.513991 5.95278963,100.524791 5.52385987,100.103859 C3.70864248,103.181764 2.01466254,106.695664 2.31984649,110.369401 C2.46700368,112.152712 3.11248863,113.848154 4.09158562,115.333548 C4.38339164,115.774564 6.24375953,117.80307 5.61416087,118.451622 C5.02135151,119.060006 3.21449532,117.499296 2.82151873,117.172091 C2.39258897,116.816433 0.967003681,115.009691 0.492923414,115.284175 C-1.76627391,116.571238 -3.86995284,118.129438 -5.77463511,119.90187 C-12.9443676,126.563133 -17.0279796,135.928233 -18.3607555,145.522627 C-19.0572438,150.526943 -19.2896853,155.748838 -17.8072438,160.627627 C-16.4903542,164.970838 -14.0037321,168.878891 -10.8833308,172.159312 C-4.0279796,179.356154 5.58155218,183.72447 15.2061341,185.699417 C19.9511174,186.678522 24.6133248,186.870996 29.4126559,186.234996 C34.5631575,185.565522 39.6300472,184.226575 44.5129903,182.460838 C48.9527896,180.854101 53.3424217,178.879154 57.2638264,176.243101 C58.0915856,175.682417 58.8775388,174.904154 59.7805488,174.494101 C60.9093114,173.983627 62.247104,173.958522 63.4678398,173.983627 C65.4410839,174.033838 67.4059669,174.150996 69.379211,174.176101 C79.1116525,174.293259 88.8942612,173.908312 98.5932579,173.063101 C100.633392,172.887364 102.681887,172.678154 104.713659,172.418733 C107.330716,172.075627 109.772188,172.150943 112.372522,172.502417 C117.07988,173.12168 121.879211,173.146785 126.620014,173.146785 C130.566502,173.146785 134.546435,172.929206 138.492923,173.088206 C141.10998,173.196996 143.718676,173.456417 146.335733,173.632154 C148.568174,173.782785 150.875867,173.966891 153.108308,173.623785 C157.824027,172.878996 162.506301,170.493996 166.10998,167.406048 C167.765499,166.000154 169.312321,164.309733 170.173525,162.292943 C170.541418,161.447733 171.620014,158.276101 169.797271,158.33468 C168.777204,158.368154 167.815666,159.029259 166.904295,159.44768 C166.059813,159.832627 165.190248,160.175733 164.312321,160.485364 C162.297271,161.205048 160.215331,161.765733 158.12503,162.225996 C153.367505,163.26368 148.518007,163.815996 143.668509,164.100522 C134.51299,164.652838 125.056469,164.468733 116.026368,162.744838 C111.586569,161.891259 107.330716,160.008364 103.208642,158.225891 C99.1869033,156.485259 95.2487763,154.510312 91.1768699,152.903575 C86.1935923,150.936996 80.2404151,150.920259 75.1066358,152.309417 C71.2939268,153.347101 67.8156659,155.539627 64.4210171,157.48947 C60.4996124,159.723838 56.6116525,162.058627 52.6233582,164.16747 C51.1099803,164.96247 49.5798799,165.774206 47.9661676,166.334891 C45.1066358,167.330733 42.0213515,167.330733 39.1283749,166.452048 C34.8976057,165.154943 32.0213515,162.041891 28.3424217,159.807522 C23.8415856,157.071048 18.5715187,156.669364 13.4461007,157.455996 C11.1509502,157.815838 8.86750535,158.460206 6.83071606,159.589943 C4.78891004,160.71968 3.40262241,162.460312 1.66683646,163.974996 C-0.00958494758,165.447838 -3.10239431,167.439522 -4.55055485,164.560785 C-5.02881572,163.615154 -4.81142441,162.460312 -5.0731301,161.439364 C-5.31393277,160.493733 -5.81978562,159.640154 -6.24704314,158.76147 C-8.48366522,154.217417 -9.6182806,149.087575 -7.56142441,144.242259 C-6.57062174,141.90747 -5.20774548,139.720801 -3.73199297,137.663006 C-2.99620702,136.640385 -2.22112341,135.64287 -1.36911672,134.714812 C-0.937678593,134.250364 -0.00540434557,133.125648 0.760481942,133.49888 C1.66767258,133.933201 -1.08818027,137.921591 -1.43098963,138.549222 C-2.44520368,140.418727 -3.44687592,142.300785 -4.32814682,144.242259 C-6.68182575,149.413943 -3.24286254,155.26347 -1.02965184,159.87447 C-0.0597521717,159.037627 0.9226893,158.200785 1.91349198,157.38068 C2.60412743,156.811627 3.29894348,156.242575 4.01382642,155.706996 C4.47034816,155.363891 4.20278963,155.029154 4.08573278,154.501943 C3.96533144,153.966364 3.85579967,153.430785 3.7588097,152.895206 C3.05730468,148.962048 3.0414184,144.861522 4.12419432,140.997822 C5.98707057,134.352459 11.1359,129.251906 17.7997796,127.469433 C22.0756993,126.324633 26.2855656,126.733012 30.5497796,127.673622 C33.0915856,128.230122 35.608308,128.923864 38.0832244,129.750664 C40.524696,130.565748 42.8491107,131.555733 45.3909167,132.032733 C48.392589,132.597601 51.4862345,132.720617 54.5380739,132.518101 C57.0213515,132.352406 59.6467696,132.09968 62.0129903,131.27288 C65.5414184,130.040212 68.8357328,127.988275 72.0129903,126.051822 C75.5915856,123.874359 79.0865689,121.568859 82.5815522,119.262522 C85.976201,117.023133 89.211987,114.883327 93.3340605,114.220548 C98.5932579,113.375338 103.434395,115.034796 108.40095,116.51517 C113.860816,118.137806 119.638408,119.857517 125.390917,119.04327 C128.894261,118.547022 131.946101,117.16958 135.073191,115.583764 C138.844094,113.672417 142.556469,111.647259 146.302288,109.699091 C149.312321,108.136706 152.380883,106.398585 155.616669,105.356717 C157.907639,104.626154 160.390917,104.560043 162.765499,104.586822 C165.650114,104.618622 168.526368,104.888085 171.377539,105.283075 C175.591586,105.871375 180.031385,102.095543 181.653459,98.4577906 C183.668509,93.8886327 179.320683,90.9387643 175.717004,89.2098485 C173.300616,88.0499853 171.201954,86.8825906 169.563158,84.6691432 C168.651786,83.4264327 168.200281,81.9033801 167.138408,80.7577432 C165.834061,79.3451537 164.178542,78.7761011 162.439412,78.7459748 L162.439412,78.7459748 Z M1.04309064,99.2536274 C-2.16844782,100.141517 -5.76543779,101.462054 -8.42513679,103.539096 C-12.5296518,106.72328 -8.84988595,112.737664 -6.67012006,115.84988 C-5.51376555,114.929354 -4.44353144,113.881627 -3.33065518,112.904196 C-3.15339766,112.751054 -2.29804649,112.210454 -2.28801304,111.972791 C-2.26209331,111.366917 -2.23784582,110.75937 -2.21025384,110.15517 C-2.14001973,108.571027 -2.02129063,107.234591 -1.56309665,105.694801 C-0.91092274,103.492233 -0.0982137101,101.255354 1.04309064,99.2536274 L1.04309064,99.2536274 Z M-8.85657491,117.708506 C-11.9209562,117.81897 -15.1341669,118.367938 -18.0112572,119.454159 C-20.5054043,120.39728 -21.8030632,122.431643 -21.3298191,125.118743 C-20.8691167,127.670275 -20.0079127,130.230175 -19.0045682,132.616012 C-16.7328291,126.988248 -13.3256385,121.824096 -8.85657491,117.708506 Z M-20.2303207,136.025306 C-22.065605,136.903154 -23.7545682,138.15507 -25.3532304,139.399454 C-26.878314,140.58777 -28.5271435,141.857259 -29.454401,143.589522 C-30.7144344,145.957785 -29.6993843,147.974575 -28.2311569,149.916048 C-26.683498,151.949575 -24.8699528,153.849206 -22.8306552,155.397364 C-22.8507221,154.987312 -22.8565749,154.568891 -22.8565749,154.158838 C-22.8565749,148.033154 -22.0906886,141.873996 -20.2303207,136.025306 L-20.2303207,136.025306 Z M108.331552,175.255627 C107.863325,175.272364 107.378375,175.414627 106.92687,175.481575 C105.589077,175.682417 104.242923,175.858154 102.89677,176.008785 C101.977037,176.109206 100.580716,176.008785 99.9201809,176.820522 C99.3516191,177.52347 100.05396,178.301733 100.697773,178.602996 C105.722857,180.987996 111.818174,181.121891 117.252957,180.54447 C121.692756,180.075838 127.244596,179.146943 130.731218,176.067364 C124.209479,176.209627 117.587405,176.477417 111.099111,175.657312 C110.32988,175.556891 109.560649,175.439733 108.791418,175.289101 C108.640917,175.255627 108.490415,175.247259 108.331552,175.255627 L108.331552,175.255627 Z M94.1091441,176.820522 C93.7579736,176.828891 93.4151642,176.870733 93.0472712,176.895838 C91.7596458,176.987891 90.4720204,177.071575 89.1760338,177.146891 C86.2914184,177.330996 83.406803,177.473259 80.5138264,177.582048 C75.0288766,177.791259 69.5272044,177.950259 64.0422545,177.715943 C63.3482746,177.690838 62.5372378,177.389575 62.1693448,178.075785 C61.9853983,178.410522 61.9101475,178.787101 61.9519535,179.172048 C62.052288,180.234838 62.9302144,181.07168 63.7496124,181.665838 C65.781385,183.13868 68.5740271,184.059206 71.0154987,184.636627 C76.1994452,185.858417 81.7094786,185.824943 86.9937595,185.389785 C90.8984418,185.071785 94.9034585,184.536206 98.6409167,183.322785 C99.5857328,183.021522 102.219512,182.326943 101.048943,181.029838 C99.8783749,179.74947 98.6576391,178.569522 97.1108164,177.741048 C96.4837261,177.406312 95.8315522,177.138522 95.1542947,176.946048 C94.7947629,176.845627 94.4519535,176.820522 94.1091441,176.820522 L94.1091441,176.820522 Z M55.53891,183.080101 C54.3599803,183.046627 53.2730237,183.188891 52.1191776,183.707733 C50.0706826,184.619891 47.9720204,185.431627 45.8566358,186.15968 C41.6175054,187.615785 37.2529569,188.753891 32.8466023,189.590733 C38.7997796,191.958996 45.9235254,191.975733 52.2278732,191.699575 C55.6810505,191.548943 59.1258666,191.205838 62.5288766,190.636785 C64.2763682,190.343891 66.0154987,189.992417 67.7295455,189.582364 C68.8917528,189.28947 70.8482746,189.113733 71.7763682,188.318733 C72.7379067,187.523733 70.2713515,186.90447 69.719512,186.703627 C68.5489435,186.276838 67.3783749,185.850048 66.1910839,185.448364 C63.1392445,184.427417 59.9787094,183.481785 56.7512846,183.163785 C56.3332244,183.113575 55.9318866,183.08847 55.53891,183.080101 L55.53891,183.080101 Z" fill="#046A38" transform="translate(76.069999, 134.614155) scale(-1, 1) rotate(90.000000) translate(-76.069999, -134.614155) "></path>
                        <path d="M75.4084425,39.9351954 C69.363292,39.967916 63.3515863,41.9047033 58.5522552,45.5819549 C49.8566031,41.0758112 38.716971,40.2726939 30.0840278,43.5489307 C21.8407168,46.6757076 15.2913857,53.591036 12.5271716,62.0682465 C-1.11580496,68.4843149 -12.4678117,76.7841149 -20.2905541,86.0772465 C-28.7403869,96.1101465 -33.2044337,107.446847 -33.2044337,118.851331 C-33.204601,132.073436 -27.3005876,144.969173 -16.1275106,156.149383 C-5.77968456,166.509489 8.84824186,175.162436 26.1668037,181.179331 C43.9101148,187.338489 64.1793455,190.593804 84.7813522,190.593804 C130.257941,190.593804 169.798075,174.861173 189.48871,151.881489 C189.781352,151.521647 190.032188,151.18691 190.207774,150.944225 C190.241218,150.902383 190.266302,150.860541 190.291386,150.827068 C189.915131,151.136699 189.547239,151.429594 189.204429,151.672278 C187.19774,153.120015 185.650917,153.638857 183.602422,154.668173 C183.326503,154.935962 183.134195,155.111699 183.10075,155.145173 C182.900081,155.337647 182.691051,155.53012 182.482021,155.730962 C182.105767,156.082436 181.737874,156.442278 181.353259,156.785383 C181.344897,156.80212 181.336536,156.810489 181.319814,156.827225 C181.052255,157.06991 180.767974,157.304225 180.508777,157.54691 C180.483693,157.555278 180.475332,157.572015 180.45861,157.588752 C180.082356,157.923489 179.714463,158.249857 179.313125,158.584594 C179.313125,158.592962 179.304764,158.592962 179.296402,158.601331 C179.012121,158.844015 178.711118,159.086699 178.418476,159.337752 C178.393392,159.354489 178.368309,159.379594 178.343225,159.396331 C177.95861,159.714331 177.582356,160.023962 177.19774,160.333594 L177.164295,160.367068 C176.84657,160.61812 176.537205,160.860804 176.211118,161.103489 C176.194396,161.120225 176.160951,161.145331 176.135867,161.162068 C175.751252,161.463331 175.374998,161.756225 174.982021,162.04912 C174.965299,162.057489 174.956938,162.065857 174.948576,162.082594 C174.630851,162.31691 174.313125,162.542857 173.987038,162.777173 C173.936871,162.810647 173.895065,162.852489 173.836536,162.885962 C173.451921,163.16212 173.075667,163.446647 172.68269,163.722804 C172.68269,163.731173 172.665968,163.731173 172.665968,163.731173 C172.089045,164.141225 171.495399,164.534541 170.901754,164.936225 C170.701085,165.078489 170.500416,165.212383 170.291386,165.354647 C170.283024,165.354647 170.274663,165.363015 170.266302,165.371383 C169.923493,165.597331 169.572322,165.81491 169.221152,166.040857 C169.145901,166.082699 169.079011,166.13291 169.012121,166.18312 C168.610784,166.434173 168.217807,166.685225 167.816469,166.936278 C167.808108,166.944647 167.791386,166.953015 167.783024,166.953015 C167.423493,167.178962 167.047239,167.40491 166.679346,167.630857 C166.604095,167.672699 166.537205,167.714541 166.470315,167.756383 C166.194396,167.915383 165.918476,168.074383 165.642556,168.241752 C164.873325,168.693647 164.087372,169.145541 163.284697,169.589068 C163.067305,169.714594 162.849914,169.84012 162.624162,169.965647 C162.6158,169.965647 162.607439,169.974015 162.599078,169.974015 C162.231185,170.174857 161.854931,170.375699 161.487038,170.568173 L161.160951,170.74391 C160.742891,170.961489 160.333192,171.187436 159.90677,171.405015 L159.898409,171.405015 C159.446904,171.639331 158.987038,171.865278 158.527172,172.099594 C158.485366,172.116331 158.435198,172.141436 158.393392,172.166541 C157.966971,172.375752 157.548911,172.584962 157.122489,172.794173 C157.114128,172.802541 157.097406,172.802541 157.089045,172.81091 C156.704429,172.995015 156.303091,173.17912 155.918476,173.363225 C155.801419,173.413436 155.676001,173.472015 155.558944,173.530594 C155.124162,173.731436 154.69774,173.932278 154.254596,174.13312 C154.246235,174.141489 154.237874,174.141489 154.221152,174.149857 C153.761285,174.359068 153.284697,174.55991 152.816469,174.76912 C152.766302,174.794225 152.707774,174.810962 152.665968,174.836068 C152.272991,175.003436 151.880014,175.179173 151.487038,175.346541 C151.002088,175.555752 150.517138,175.748225 150.032188,175.949068 C149.915131,175.999278 149.806436,176.04112 149.689379,176.091331 C149.237874,176.275436 148.778008,176.46791 148.318142,176.652015 L148.30978,176.652015 C147.849914,176.83612 147.381687,177.011857 146.913459,177.187594 L146.662623,177.288015 C146.194396,177.463752 145.717807,177.647857 145.241218,177.823594 C145.224496,177.831962 145.199412,177.840331 145.174329,177.848699 C144.722824,178.024436 144.254596,178.183436 143.79473,178.342436 C143.719479,178.37591 143.644228,178.401015 143.568978,178.42612 C143.084028,178.601857 142.599078,178.777594 142.105767,178.944962 L142.097406,178.944962 C141.696068,179.087225 141.286369,179.212752 140.885031,179.355015 L140.408443,179.505647 C139.90677,179.673015 139.413459,179.840383 138.903426,180.007752 L137.74958,180.359225 C137.557272,180.417804 137.373325,180.476383 137.181018,180.534962 C136.670984,180.685594 136.160951,180.852962 135.650917,181.003594 C135.634195,181.011962 135.625834,181.011962 135.609111,181.011962 C135.165968,181.145857 134.714463,181.271383 134.262958,181.39691 C134.145901,181.430383 134.028844,181.463857 133.911787,181.497331 C133.385031,181.647962 132.858275,181.798594 132.331519,181.940857 C132.306436,181.949225 132.272991,181.957594 132.247907,181.965962 C131.788041,182.091489 131.311453,182.208647 130.843225,182.325804 C130.759613,182.35091 130.66764,182.376015 130.575667,182.40112 C130.032188,182.543383 129.497071,182.685647 128.953593,182.819541 C128.936871,182.819541 128.920148,182.82791 128.895065,182.836278 C128.577339,182.911594 128.251252,182.98691 127.925165,183.070594 C127.674329,183.129173 127.431854,183.179383 127.181018,183.246331 C126.629178,183.371857 126.077339,183.51412 125.517138,183.631278 C125.492055,183.639647 125.45861,183.648015 125.425165,183.656383 C125.191051,183.706594 124.956938,183.756804 124.714463,183.807015 C124.388376,183.882331 124.062289,183.949278 123.736202,184.024594 C123.16764,184.141752 122.607439,184.267278 122.038877,184.384436 C122.030516,184.384436 122.022155,184.384436 122.013794,184.392804 C121.687707,184.459752 121.353259,184.518331 121.01881,184.585278 L120.216135,184.73591 C119.647573,184.844699 119.079011,184.961857 118.510449,185.070647 C118.493727,185.070647 118.477004,185.070647 118.460282,185.079015 C117.732857,185.21291 117.005432,185.330068 116.278008,185.455594 C115.826503,185.53091 115.383359,185.614594 114.923493,185.68991 C114.90677,185.68991 114.881687,185.68991 114.864964,185.698278 C114.664295,185.723383 114.455265,185.756857 114.254596,185.790331 C113.853259,185.84891 113.451921,185.907489 113.050583,185.974436 C112.465299,186.05812 111.888376,186.150173 111.29473,186.233857 C111.278008,186.233857 111.252924,186.242225 111.227841,186.242225 C111.102422,186.258962 110.985366,186.275699 110.859948,186.292436 C110.374998,186.359383 109.890048,186.417962 109.405098,186.48491 C108.811453,186.560225 108.226168,186.64391 107.624162,186.710857 C107.6158,186.719225 107.599078,186.719225 107.582356,186.719225 C107.239546,186.761068 106.896737,186.794541 106.553927,186.836383 C106.252924,186.861489 105.960282,186.894962 105.659279,186.928436 C105.082356,186.995383 104.497071,187.062331 103.911787,187.12091 C103.226168,187.196225 102.54055,187.246436 101.854931,187.305015 C101.286369,187.363594 100.726168,187.413804 100.165968,187.464015 L100.107439,187.464015 C100.048911,187.472383 99.9987435,187.472383 99.9402151,187.472383 C99.2964024,187.522594 98.6525897,187.564436 98.008777,187.614647 C97.4569375,187.64812 96.9218205,187.689962 96.369981,187.723436 C95.6007502,187.773647 94.8231582,187.80712 94.0455663,187.840594 C93.543894,187.865699 93.0422218,187.899173 92.5405496,187.91591 C91.6459007,187.957752 90.7512519,187.974489 89.8482419,187.999594 C89.4636265,188.007962 89.0706499,188.024699 88.6776733,188.033068 C87.3816867,188.058173 86.0857001,188.066541 84.7813522,188.066541 C83.008777,188.066541 81.2529241,188.041436 79.4970713,187.991225 C79.363292,187.991225 79.2211516,187.991225 79.0790111,187.982857 C77.4151315,187.941015 75.7679743,187.865699 74.1291783,187.773647 C73.9034258,187.75691 73.6776733,187.748541 73.460282,187.740173 C71.8716532,187.64812 70.2997469,187.530962 68.7278405,187.397068 C68.460282,187.380331 68.1927235,187.355225 67.9168037,187.338489 C66.3867034,187.196225 64.8649643,187.045594 63.3515863,186.878225 C63.0673054,186.844752 62.7746633,186.811278 62.4820211,186.777804 C60.9937268,186.602068 59.5054325,186.409594 58.0338606,186.192015 C57.7495797,186.158541 57.4569375,186.116699 57.1726566,186.074857 C55.6927235,185.857278 54.2211516,185.622962 52.7663021,185.37191 C52.5154659,185.330068 52.2646298,185.279857 52.0054325,185.238015 C50.5171382,184.970225 49.0455663,184.694068 47.5823556,184.392804 C47.3984091,184.359331 47.2144626,184.317489 47.0305161,184.284015 C45.5271716,183.966015 44.0388773,183.639647 42.5656332,183.296541 C42.5246633,183.288173 42.4820211,183.279804 42.4410512,183.271436 C42.3691449,183.246331 42.2955663,183.229594 42.2211516,183.212857 C41.1651315,182.961804 40.1149643,182.702383 39.0739944,182.426225 C38.7253322,182.342541 38.3783422,182.24212 38.0288439,182.150068 C36.9862017,181.87391 35.9502485,181.597752 34.9243288,181.304857 C34.8582753,181.279752 34.7897134,181.263015 34.7253322,181.23791 C34.6492452,181.221173 34.5765027,181.196068 34.5012519,181.179331 C33.5188104,180.894804 32.5489108,180.593541 31.5831917,180.292278 C31.2537603,180.191857 30.9268372,180.091436 30.5982419,179.982647 C29.7721549,179.723225 28.9485763,179.447068 28.1308506,179.17091 C27.9034258,179.095594 27.6751649,179.020278 27.4519208,178.944962 C26.4569375,178.601857 25.4711516,178.250383 24.4945629,177.890541 C24.2019208,177.781752 23.9076064,177.672962 23.6174726,177.564173 C22.8566031,177.279647 22.1040947,176.986752 21.3540947,176.693857 C21.0840278,176.585068 20.8089442,176.476278 20.5405496,176.367489 C19.5915529,175.99091 18.6517536,175.597594 17.7236599,175.204278 C17.4853656,175.095489 17.245399,174.995068 17.0071047,174.886278 C16.2696465,174.568278 15.5380412,174.24191 14.814797,173.907173 C14.5338606,173.781647 14.2529241,173.65612 13.9761683,173.522225 C13.0698138,173.103804 12.1701482,172.677015 11.2880412,172.233489 C11.1433924,172.166541 11.0045964,172.091225 10.863292,172.024278 C10.0974057,171.639331 9.33737229,171.254383 8.58988065,170.852699 C8.31814152,170.710436 8.04640239,170.568173 7.7763355,170.417541 C7.03469671,170.024225 6.29891075,169.614173 5.57232213,169.20412 C5.43854286,169.128804 5.300583,169.053489 5.16680373,168.978173 C4.33653617,168.509541 3.52131878,168.024173 2.71446259,167.538804 C2.47115156,167.388173 2.22533216,167.237541 1.98285724,167.078541 C1.34238902,166.685225 0.712790354,166.29191 0.0915528953,165.890225 C-0.105771519,165.764699 -0.303095934,165.639173 -0.496239747,165.513647 C-1.26797888,165.003173 -2.02550396,164.492699 -2.7729956,163.973857 C-2.97951734,163.831594 -3.17851399,163.680962 -3.38336349,163.538699 C-3.96530329,163.128647 -4.54473473,162.701857 -5.1132966,162.283436 C-5.32316282,162.124436 -5.53386516,161.965436 -5.74289527,161.814804 C-6.45610597,161.270857 -7.15761098,160.72691 -7.84490195,160.174594 C-7.98955078,160.065804 -8.12667453,159.948647 -8.26630664,159.831489 C-8.83486851,159.371225 -9.39339694,158.902594 -9.94189192,158.433962 C-10.1417247,158.258225 -10.3440658,158.082489 -10.5430625,157.906752 C-11.1751695,157.354436 -11.8005876,156.80212 -12.4059387,156.233068 C-12.4594504,156.182857 -12.5146344,156.132647 -12.5681461,156.082436 C-13.1751695,155.513383 -13.7629622,154.935962 -14.3415575,154.358541 C-14.518815,154.174436 -14.6960725,153.998699 -14.8716578,153.822962 C-15.3641327,153.312489 -15.8465742,152.810383 -16.31731,152.29991 C-16.4301862,152.174383 -16.5447347,152.057225 -16.6551026,151.940068 C-17.2094504,151.329173 -17.7504203,150.70991 -18.2771762,150.082278 C-18.421825,149.91491 -18.5656377,149.730804 -18.7111227,149.563436 C-19.1250023,149.061331 -19.5296846,148.559225 -19.9226612,148.048752 C-20.0522598,147.881383 -20.1835307,147.722383 -20.3097849,147.555015 C-20.7930625,146.919015 -21.2654705,146.274647 -21.7194839,145.62191 C-21.8239989,145.479647 -21.9243334,145.329015 -22.0263401,145.178383 C-22.3908886,144.642804 -22.7445675,144.107225 -23.0898852,143.571647 C-23.2069421,143.387541 -23.3273434,143.195068 -23.4452364,143.010962 C-23.8582799,142.341489 -24.2604538,141.672015 -24.6408886,140.994173 C-24.6885474,140.910489 -24.7311896,140.826804 -24.7780123,140.74312 C-25.1166411,140.140594 -25.4377113,139.529699 -25.7462397,138.910436 C-25.8465742,138.717962 -25.9435642,138.51712 -26.0388819,138.316278 C-26.3415575,137.697015 -26.6333635,137.077752 -26.9092832,136.45012 C-26.9444003,136.366436 -26.9845341,136.282752 -27.0204872,136.199068 C-27.3231628,135.504489 -27.5999187,134.793173 -27.8641327,134.090225 C-27.9377113,133.897752 -28.0054371,133.705278 -28.0748351,133.512804 C-28.2855374,132.927015 -28.4845341,132.341225 -28.6709889,131.747068 C-28.7169755,131.596436 -28.7704872,131.445804 -28.8164739,131.295173 C-29.0329454,130.575489 -29.229601,129.855804 -29.4093668,129.127752 C-29.4532632,128.952015 -29.4906377,128.784647 -29.5334471,128.60891 C-29.671407,128.014752 -29.7974103,127.420594 -29.9123769,126.826436 C-29.946825,126.642331 -29.985621,126.449857 -30.0201528,126.265752 C-30.1497515,125.529331 -30.2656377,124.784541 -30.356524,124.04812 C-30.3743334,123.922594 -30.3816913,123.797068 -30.3974103,123.671541 C-30.4704872,123.035541 -30.5281795,122.391173 -30.5720759,121.746804 C-30.5846177,121.545962 -30.5992498,121.336752 -30.6097013,121.13591 C-30.6525106,120.374383 -30.6782632,119.616204 -30.6782632,118.851331 L-30.6782632,118.847983 C-30.6782632,96.4482307 -12.9232464,76.5297149 14.6060178,63.878336 C14.7473221,63.3728833 14.9078572,62.8749623 15.0784258,62.3854097 C15.1110345,62.3000518 15.1436432,62.2163676 15.1745797,62.1360307 C15.3133756,61.7443886 15.4580245,61.3652991 15.6127067,60.9836991 C15.6929743,60.7811833 15.788292,60.5811781 15.8769208,60.380336 C15.9856164,60.130957 16.0959843,59.8815781 16.2113689,59.6347097 C16.336787,59.3727781 16.4714024,59.1116833 16.6051817,58.853936 C16.6938104,58.6832202 16.7824392,58.5099939 16.8727402,58.3401149 C17.0374559,58.0405254 17.2071883,57.7442833 17.3844459,57.4480412 C17.4513355,57.3333939 17.5224057,57.216236 17.593476,57.0999149 C17.7941449,56.7727097 18.0015027,56.4521991 18.2155496,56.1308518 C18.2632084,56.0597202 18.3125395,55.9852412 18.364379,55.9149465 C18.6010011,55.567657 18.8451482,55.2262254 19.0993288,54.8898149 C19.1260847,54.8563412 19.1528405,54.8195202 19.1787603,54.783536 C19.4571883,54.4236939 19.7389609,54.0688728 20.0316031,53.7215833 L20.0349475,53.7199097 C21.0909676,52.4663202 22.2565195,51.3148254 23.5165529,50.2746307 C23.5207335,50.2746307 23.5198974,50.272957 23.5215696,50.272957 C25.2414693,48.8536728 27.1327736,47.6394149 29.1620378,46.6854149 C29.1996633,46.6703518 29.2356164,46.6502676 29.2715696,46.6326939 C29.8259174,46.377457 30.3869542,46.1330991 30.9596967,45.9155202 C30.9647134,45.9121728 30.9705663,45.9088254 30.9764191,45.9038044 C39.3861181,42.718616 50.3083589,43.7862591 58.3183924,48.3264623 C58.5943121,48.3206044 58.878593,48.3206044 59.1545128,48.3264623 C59.20468,48.2821097 59.2632084,48.2477991 59.3133756,48.2051202 C59.739797,47.8477886 60.1829409,47.5030097 60.6428071,47.1758044 C60.8183924,47.0511149 61.0023388,46.9331202 61.1862853,46.8126149 C61.5374559,46.5724412 61.8969877,46.3423097 62.2648807,46.1213833 C62.4655496,46.0042254 62.6662184,45.8887412 62.8752485,45.7749307 C63.2598639,45.5581886 63.6528405,45.3565097 64.0541783,45.1615254 C64.2297636,45.0719833 64.4137101,44.978257 64.5976566,44.893736 C65.7765863,44.3539728 66.9973221,43.9013249 68.2598639,43.5404786 C68.4521716,43.484996 68.6444793,43.4424007 68.836787,43.3900981 C69.288292,43.2729402 69.739797,43.1649039 70.1913021,43.0697549 C70.4170546,43.0247328 70.6344459,42.9797944 70.8518372,42.9389565 C71.3200646,42.8552723 71.7799308,42.7871533 72.2481582,42.7264823 C72.4488271,42.7003728 72.6411348,42.6716691 72.8418037,42.6496602 C76.9555161,42.2155902 81.2113689,42.7153523 85.1160512,44.3053523 C85.4254158,44.4351465 85.7431415,44.5748991 86.0692285,44.7288781 C86.2698974,44.8200939 86.4705663,44.9238623 86.6712352,45.025957 C86.8050144,45.0912307 86.9304325,45.1498097 87.0558506,45.2175939 C87.2983255,45.3447939 87.5491616,45.4845465 87.7999977,45.6259728 C87.891971,45.6745097 87.975583,45.7213728 88.059195,45.7699097 C88.343476,45.9289097 88.6193957,46.0954412 88.9036766,46.2686676 C88.9705663,46.3038149 89.0290947,46.3423097 89.0876231,46.3808044 C89.3886265,46.5674202 89.697991,46.7640781 90.0073556,46.9649202 C90.0491616,46.992536 90.0909676,47.0193149 90.1327736,47.0494412 C90.4588606,47.2594886 90.7849475,47.4845991 91.1110345,47.708036 C91.1361181,47.728957 91.1695629,47.7465307 91.1946465,47.7674518 C91.5374559,48.0059518 91.8802653,48.2511465 92.2230746,48.5047097 C92.2314358,48.5147518 92.2481582,48.5222833 92.2648807,48.5323254 C92.6160512,48.7934202 92.975583,49.0620465 93.3267536,49.3415518 L93.3351148,49.3415518 C93.4020044,49.398457 93.4772552,49.4561991 93.5525061,49.5147781 C93.6946465,49.6244044 93.836787,49.732357 93.9789275,49.8444939 C113.803342,50.7851044 132.223075,54.7274676 147.975583,60.9117307 C149.279931,59.9301149 150.099329,59.5200623 150.509028,59.3476728 C134.012372,52.562557 114.957188,48.3975939 94.9153823,47.363257 C91.7297636,44.8970833 88.6695629,43.0288333 86.0692285,41.968136 C82.6662184,40.5810702 79.0290947,39.9151949 75.4086934,39.9348607 L75.4084425,39.9351954 Z M92.1726566,59.3139481 C94.6224894,61.2403586 97.1224894,63.008606 99.3047636,63.9190902 C100.87667,64.094827 102.900081,64.4111533 105.241218,64.7760165 C113.359948,66.0480165 125.400081,67.921706 135.04055,66.686527 C122.19774,62.5558744 107.657606,59.955806 92.1726566,59.3139481 L92.1726566,59.3139481 Z M22.655098,71.0213691 C21.5171382,71.5084112 20.4067703,72.0188849 19.3064358,72.5343797 C19.1015863,72.6306165 18.8933924,72.7260165 18.6902151,72.823927 C17.5857001,73.3511376 16.4945629,73.889227 15.4293455,74.4440533 C15.384195,74.4691586 15.3398807,74.4900797 15.2955663,74.5143481 C14.5907168,74.8808849 13.9109509,75.2624849 13.224496,75.6399007 C12.8566031,75.8432533 12.4778405,76.0390744 12.1141281,76.2449376 C12.0948974,76.2558165 12.0748305,76.2666954 12.0555997,76.2775744 C11.9786766,76.3210902 11.9009174,76.3629323 11.8248305,76.4064481 C11.8181415,76.4106323 11.8106164,76.4139797 11.8039275,76.4181639 C10.8323556,76.9721533 9.8825228,77.5370218 8.94941243,78.1127691 L8.94774019,78.1144428 C-8.30393205,88.7590744 -18.8699856,103.038948 -18.8699856,118.747311 C-18.8699856,151.656127 27.4803489,178.326285 84.6584425,178.326285 C117.342389,178.326285 146.489546,169.60639 165.461118,155.982601 C163.889212,155.580917 160.385867,155.56418 157.016302,155.606022 C150.076503,163.296601 133.964463,163.271495 126.372489,162.786127 C125.829011,163.556022 125.101586,164.183653 124.273827,164.602074 C119.591553,166.936864 107.760449,168.777917 97.668476,167.915969 C97.216971,169.012232 96.2387101,170.326074 94.0146298,171.003917 C79.0898807,175.556338 57.300583,175.029127 49.3323556,170.008074 C31.9753322,171.51439 4.08151945,160.70239 -1.54891533,139.948706 C-6.25961767,137.111811 -10.7972431,131.212074 -12.2387147,128.567653 C-12.7144672,127.705706 -13.3917247,126.098969 -13.3917247,124.057074 C-13.3917247,122.140706 -12.789718,119.847759 -10.8490826,117.410038 C-9.39841366,115.598274 -5.74289527,112.663469 -2.6952364,110.802332 C-3.518815,108.51859 -4.25710931,105.946138 -4.5681461,104.200485 C-4.69690864,103.490006 -4.75460095,102.796264 -4.75460095,102.121769 C-4.75460095,98.4405007 -2.91680831,95.3466954 0.405934166,93.6144323 C2.05978032,92.7491376 4.82064989,91.9415849 7.76630206,91.4244165 C7.33151945,90.4327586 6.99205457,89.5013533 6.78302447,88.6486112 C6.55141912,87.7364533 6.44188734,86.810906 6.44188734,85.8995849 C6.44188734,82.6886218 7.80392748,79.624106 10.1943957,77.7596218 C11.9410512,76.4031007 16.7813522,73.8616112 22.7253322,72.3954639 C22.689379,71.933527 22.6651315,71.4791218 22.6576064,71.0213691 L22.655098,71.0213691 Z" fill="#003087" transform="translate(78.543476, 115.264121) scale(-1, 1) rotate(90.000000) translate(-78.543476, -115.264121) "></path>
                        <path d="M-21.3162279,131.54213 C-23.6665624,131.522046 -25.9943216,132.976477 -28.1055256,135.208335 C-29.1883015,136.352298 -29.0076995,137.318851 -27.3831176,136.594146 C-25.8605423,135.91714 -23.9575323,134.968998 -22.8730841,135.328004 C-25.5796058,144.177609 -23.5963283,152.666535 -14.2150574,152.843946 C-16.1966627,155.01053 -20.1657262,155.369535 -22.6933182,155.369535 C-25.219238,155.369535 -25.0837865,156.501782 -22.8730841,156.818946 C-14.0311109,158.085088 -6.09632826,154.469093 -0.444154344,147.246309 L3.16788579,146.523277 C5.57591255,145.806104 4.81504298,144.003546 2.92541087,144.358367 C-0.920742972,145.080561 -4.53278311,145.079725 -10.0679002,140.744046 C-13.4792714,138.073682 -15.8371309,133.526282 -18.9642212,132.080219 C-19.747666,131.71954 -20.5336192,131.548825 -21.3162279,131.54213 L-21.3162279,131.54213 Z M98.2155447,134.62673 C97.6637052,134.640956 97.0951433,134.697025 96.5516651,134.786567 C94.8376182,135.07193 90.8660463,137.689572 89.703839,139.119735 C88.0734042,141.103051 89.1603607,142.913977 91.509859,142.548277 C93.8509962,142.190109 97.0951433,139.482088 97.9981533,138.578298 C98.9011634,137.676182 99.4362804,137.318851 101.242301,138.761567 C103.048321,140.205956 106.300829,141.82943 110.088454,141.82943 C112.429591,141.82943 112.429591,140.764967 110.26404,140.385877 C107.203839,139.843604 104.310862,138.939814 102.153672,135.871951 C101.476414,134.918788 99.8877855,134.583214 98.2155447,134.62673 Z" fill="#003087" transform="translate(41.539487, 144.304998) scale(-1, 1) rotate(90.000000) translate(-41.539487, -144.304998) "></path>
                        <path d="M-1.62150161,119.657388 C-4.50946147,126.464262 -2.10728756,131.333846 2.7639499,132.118804 C6.89438468,132.781583 10.2806723,132.297051 12.6301706,128.686078 C12.6301706,128.686078 8.78401679,127.183946 7.87264555,126.28183 C6.96963552,127.724546 4.87097331,128.989014 3.36595659,129.227514 C1.36762883,129.548025 1.03318067,128.755535 2.3458897,127.545462 C3.1820101,126.75883 4.26896662,124.956272 4.08502013,123.75373 C3.43284622,122.84743 -0.179193914,119.956978 -1.62150161,119.657388 L-1.62150161,119.657388 Z M154.248064,133.200841 C153.077495,133.302935 152.090873,134.399199 151.187863,135.060304 C150.151074,135.823504 148.646057,135.997567 147.400238,135.815972 C147.090873,139.16083 145.33502,142.473051 143.729669,145.360993 C142.977161,146.72672 142.090873,147.996209 141.288197,149.327625 C140.259769,151.039804 141.973816,151.055704 143.161107,150.445646 C146.30492,148.810456 148.687863,145.495725 150.527328,142.567614 C152.20793,139.901435 154.248064,136.467035 154.248064,133.200841 Z M139.390204,134.605899 C138.286525,134.605899 137.20793,134.687072 136.204585,134.828499 C136.806592,138.087162 135.978833,141.583488 135.017294,144.687335 C134.022311,147.896625 132.69288,151.026414 131.079167,153.967914 C130.452077,155.096814 130.577495,156.28513 132.090873,155.589714 C133.236358,155.065014 134.197896,154.129425 135.050739,153.222288 C137.241375,150.890846 139.030672,148.147678 140.585856,145.354299 C142.333348,142.212793 143.838365,138.865425 144.691207,135.367425 C143.094217,134.832683 141.221308,134.606735 139.390204,134.605899 L139.390204,134.605899 Z M132.634351,135.001725 C132.542378,135.002562 132.425321,135.014278 132.291542,135.025993 C131.187863,135.125578 130.117629,135.446925 129.08084,135.814299 C127.023983,136.547372 125.293214,137.626899 123.46211,138.798478 C122.233013,139.588456 120.970472,140.339104 119.64104,140.947488 C119.01395,141.235362 118.378498,141.491435 117.717963,141.689767 C117.83502,142.242083 117.935355,142.806114 118.010605,143.366799 C118.361776,145.964356 118.361776,148.612125 118.219636,151.225583 C118.094217,153.512672 117.860104,155.814825 117.400238,158.064256 C117.224652,158.914488 116.706258,160.108662 117.291542,160.897804 C117.801575,161.596567 118.871809,161.298651 119.523983,161.009104 C121.906926,159.946314 123.963783,157.550435 125.619301,155.615656 C127.216291,153.755356 128.470472,151.70342 129.549067,149.504199 C131.413615,145.684014 133.278164,141.154188 133.219636,136.826041 C133.211274,136.384188 133.177829,135.938988 133.085856,135.502156 C133.002244,135.086246 132.910271,134.998378 132.634351,135.001725 L132.634351,135.001725 Z M68.7798362,144.08732 C68.1778295,144.104056 67.5758228,144.194435 66.9905385,144.323309 C63.855087,145.011193 60.3851874,146.71333 58.1025787,149.002093 C59.7246522,150.411335 61.0457225,152.245693 61.4554215,154.388009 C61.6059231,155.14033 61.639368,155.91692 61.5473947,156.679283 C61.4805051,157.234109 61.3300034,158.065093 61.8567593,158.469288 C63.0524114,159.386467 65.3935486,157.34792 66.1795017,156.566309 C67.5925452,155.164599 68.6711405,153.419783 69.4654549,151.602999 C70.3350201,149.62052 70.9119432,147.44473 70.8701372,145.270614 C70.861776,144.755956 70.9621104,144.420383 70.4353546,144.268914 C70.0925452,144.16933 69.7330134,144.116609 69.3818429,144.097362 C69.181174,144.084809 68.9805051,144.082299 68.7798362,144.08732 L68.7798362,144.08732 Z M111.58084,144.848009 C109.908599,146.526714 107.35007,147.433014 105.142712,148.166925 C102.943716,148.902509 100.577495,149.573656 98.2363579,149.633072 C99.5574282,152.19632 99.6159566,155.581346 99.3902041,158.393972 C99.306592,159.411572 98.7463914,160.656793 99.0724783,161.645104 C99.5407058,163.132172 101.338365,162.336335 102.20793,161.727951 C107.517294,158.011535 110.769803,151.146083 111.58084,144.848009 Z M78.8467258,145.570204 C79.7246522,148.075709 79.674485,150.984572 79.4905385,153.598867 C79.4236489,154.650778 79.3233144,155.730304 79.0557559,156.752925 C78.8216422,157.65253 78.5122777,158.752141 79.6828462,159.121188 C81.8483981,159.806562 84.9336823,157.34792 86.4721439,156.096004 C88.6795017,154.314367 90.7781639,151.940246 91.3801706,149.094146 C87.090873,148.376135 82.9687994,146.902456 78.8467258,145.570204 Z M51.4219767,152.433146 C50.1343512,153.658283 48.5039165,154.568767 46.9654549,155.437409 C45.2848529,156.386388 43.5540837,157.281809 41.7731472,158.030783 C42.9687994,159.871835 43.7213078,162.351399 43.5708061,164.562335 C43.5206389,165.311309 42.8601037,166.489583 43.7045854,167.005914 C44.674485,167.608441 45.8116088,166.521383 46.4554215,165.907978 C49.8835151,162.64513 52.4169599,157.22072 51.4219767,152.433146 L51.4219767,152.433146 Z M-2.98772234,155.341172 C-5.39825746,155.355399 -8.21096649,155.834909 -10.0972541,157.215699 C-9.72350829,160.537125 -8.26782268,164.081151 -5.53956181,166.154009 C-4.75611699,166.749841 -2.7728394,167.968283 -2.00611699,166.734778 C-1.59307351,166.066978 -1.84223739,165.067788 -1.78872569,164.327183 C-1.72267217,163.397451 -1.54792301,162.475251 -1.30377585,161.574809 C-0.835548429,159.831667 -0.124846088,158.152125 0.74471913,156.574678 C0.99555525,156.127804 1.02063886,156.098514 0.552411438,155.880099 C0.318297725,155.772146 0.0758228088,155.685951 -0.175013312,155.620678 C-0.760297593,155.461678 -1.37902669,155.390546 -1.98270562,155.362093 C-2.30712034,155.346193 -2.64324074,155.338662 -2.98772234,155.341172 L-2.98772234,155.341172 Z M12.3584315,158.663435 C12.5256556,160.876883 11.4219767,163.283641 10.4186322,165.191641 C10.0507392,165.88873 9.17281278,166.801725 9.14772916,167.600072 C9.10592314,168.612651 10.4604382,168.487125 11.1042509,168.336493 C14.9671272,167.44693 19.716291,164.698741 21.4721439,161.009104 C18.487194,160.758888 15.0758228,159.952172 12.3584315,158.663435 L12.3584315,158.663435 Z M35.6360235,160.106988 C33.0524114,161.045925 29.8166255,161.599078 27.0657894,161.368946 C27.3584315,163.471093 27.0825118,165.744793 26.5808395,167.792546 C26.3718094,168.637756 25.9286656,169.323967 25.6694683,170.127335 C25.3768262,171.05623 26.3216422,171.265441 27.0239833,171.072967 C29.2898696,170.453704 31.4805051,168.202599 32.8935486,166.415941 C34.3149532,164.620078 35.4771606,162.434246 35.6360235,160.106988 Z M56.3718094,164.281156 C55.8701372,164.291199 55.535689,164.637651 55.7530803,165.613409 C56.3885318,168.545704 54.6075954,172.64623 52.3249867,174.462178 C54.4738161,173.884756 56.8985653,173.993546 59.0892007,174.202756 C61.6560904,174.445441 64.4988997,174.947546 66.6644516,176.445493 C66.3383646,175.14002 65.535689,173.91823 64.8166255,172.796862 C63.8634482,171.332388 62.8182977,169.934862 61.681174,168.595914 C60.6025787,167.309688 59.4487325,165.974088 58.0858563,164.972388 C57.5758228,164.599156 56.8818429,164.271114 56.3718094,164.281156 L56.3718094,164.281156 Z M80.2932141,168.629388 C79.8082643,168.637756 79.4152877,169.248651 79.2062576,170.043651 C78.9219767,171.072967 78.4119432,172.052072 77.8433813,172.96423 C76.4554215,175.198599 74.3734817,177.458072 71.7146188,178.068967 C73.7213078,178.813756 75.7029131,179.59202 77.6594348,180.445599 C79.7664583,181.357756 81.9988997,182.320125 83.8049198,183.759493 C84.3651205,181.274072 83.8383646,178.47902 83.3450536,176.027072 C82.910271,173.851283 82.4671272,171.240335 81.229669,169.340704 C80.903582,168.83023 80.577495,168.62102 80.2932141,168.629388 L80.2932141,168.629388 Z M-8.58638455,171.524862 C-9.95176916,171.650388 -11.2209999,173.700651 -11.783709,174.637914 C-12.8639765,176.453862 -13.6808662,178.562704 -13.7920702,180.688283 C-10.8347123,179.843072 -6.93588288,179.265651 -3.95929425,180.328441 C-5.29290629,179.131756 -6.09390963,177.265599 -6.63320729,175.591914 C-6.86648488,174.87223 -7.07467886,174.119072 -7.11481264,173.365914 C-7.14909358,172.688072 -7.24859191,171.85123 -7.99691967,171.591809 C-8.19424408,171.524862 -8.39073238,171.499756 -8.58638455,171.524862 L-8.58638455,171.524862 Z M35.5733144,171.742441 C35.0298362,171.717335 34.6703044,172.093914 34.8291673,173.290599 C35.0298362,174.838756 34.653582,176.529178 34.3024114,178.027125 C33.9010736,179.717546 33.3743178,181.508388 32.4211405,182.972862 C35.4060904,180.612967 39.0682977,179.349335 42.4963914,177.801178 C41.5599365,175.842967 39.56997,174.303178 37.9144516,172.980967 C37.2873613,172.478862 36.2756556,171.775914 35.5733144,171.742441 L35.5733144,171.742441 Z M3.87599003,172.16923 C3.70876595,172.177599 3.51645826,172.236178 3.28234455,172.344967 C2.07833117,172.930756 1.35090642,174.587704 0.840872976,175.734178 C0.0883646148,177.407862 -0.496919666,179.290756 -0.438391238,181.140178 C0.623481672,181.466546 1.64354856,182.010493 2.62180943,182.520967 C4.00140809,183.240651 5.35592314,184.018914 6.65190977,184.88923 C7.50475257,185.449914 8.50809706,186.077546 9.11846495,186.922756 C9.11846495,185.399704 8.15692649,183.709283 7.31244488,182.495862 C5.90776261,180.462335 4.60341478,177.491546 4.61177599,174.997756 C4.62013719,174.227862 5.01311378,172.085546 3.87599003,172.16923 L3.87599003,172.16923 Z M105.096726,173.44123 C104.344217,173.541651 103.725488,174.729967 103.466291,175.273914 C102.295722,177.784441 99.979669,179.734283 97.7472275,181.282441 C95.3475619,182.939388 92.6636155,184.336914 89.8542509,185.115178 C92.3876957,186.035704 95.1970603,186.278388 97.8642843,186.470862 C99.3693011,186.571283 100.865957,186.629862 102.370973,186.654967 C102.998064,186.663335 103.616793,186.671704 104.243883,186.663335 C104.753916,186.663335 105.581676,186.864178 105.715455,186.328599 C106.467963,183.131862 106.392712,179.767756 106.292378,176.504072 C106.267294,175.725809 106.451241,173.775967 105.431174,173.466335 C105.322478,173.432862 105.205421,173.424493 105.096726,173.44123 L105.096726,173.44123 Z M122.655254,173.700651 C121.785689,173.683914 121.066625,175.14002 120.799067,175.725809 C119.770639,177.909967 117.839201,179.809599 116.125154,181.441441 C114.009769,183.45823 111.618465,185.449914 108.884351,186.562914 C111.593381,186.931125 114.369301,187.006441 117.095054,186.922756 C118.45793,186.880914 119.812445,186.788862 121.158599,186.596388 C121.735522,186.521072 122.304084,186.412283 122.864284,186.278388 C123.591709,186.102651 123.549903,185.885072 123.658599,185.173756 C124.08502,182.420546 124.302411,179.541809 124.08502,176.763493 C124.009769,175.859704 123.94288,174.303178 123.03987,173.809441 C122.90609,173.734125 122.780672,173.700651 122.655254,173.700651 L122.655254,173.700651 Z M137.872646,176.001967 C137.245555,176.102388 137.00308,177.123335 136.743883,177.591967 C136.108432,178.721704 135.222144,179.742651 134.319134,180.688283 C134.218799,182.002125 133.784017,183.315967 133.424485,184.57123 C135.105087,184.654914 137.312445,184.454072 138.700405,183.40802 C139.996391,182.45402 139.762278,179.458125 139.469636,178.085704 C139.327495,177.374388 138.984686,176.219546 138.165288,176.018704 C138.056592,175.993599 137.964619,175.98523 137.872646,176.001967 L137.872646,176.001967 Z M129.921141,176.152599 C129.820806,176.160967 129.720472,176.186072 129.603415,176.227914 C128.407763,176.679809 127.571642,178.612914 126.835856,179.608756 C126.927829,181.583704 126.626826,183.608862 126.384351,185.567072 C127.839201,185.650756 129.352579,185.382967 130.790706,185.115178 C131.16696,185.04823 131.526492,183.198809 131.601743,182.872441 C131.810773,181.935178 131.927829,180.972809 131.919468,180.018809 C131.902746,178.997862 131.44288,175.968493 129.921141,176.152599 L129.921141,176.152599 Z M17.889368,176.395283 C17.0616088,176.420388 16.785689,177.299072 16.9612743,177.985283 C17.3793345,179.533441 16.4930469,181.541862 15.7488997,182.855704 C14.8793345,184.41223 13.3994014,185.039862 12.2121104,186.278388 C11.9027459,186.596388 11.6435486,186.95623 11.4679633,187.366283 C11.2004047,187.985546 11.4428797,188.119441 11.9445519,188.512756 C12.605087,189.02323 13.3659566,189.408178 14.1686322,189.642493 C15.7154549,190.102756 17.3793345,190.052546 18.9512409,189.742914 C19.6786656,189.592283 22.7137827,188.989756 22.7555887,188.102704 C22.8475619,186.362072 22.5800034,184.596335 22.1284984,182.914283 C21.660271,181.131809 20.966291,179.340967 19.8626121,177.851388 C19.4111071,177.223756 18.750572,176.378546 17.889368,176.395283 L17.889368,176.395283 Z" fill="#FFFFFF" transform="translate(70.227997, 154.819555) scale(-1, 1) rotate(90.000000) translate(-70.227997, -154.819555) "></path>
                    </g>
                </g>
            </g>
        </g>
    </g>
</svg>