<?xml version="1.0" encoding="UTF-8" standalone="no"?>
<svg width="250px" height="250px" viewBox="0 0 250 250" version="1.1" xmlns="http://www.w3.org/2000/svg" xmlns:xlink="http://www.w3.org/1999/xlink">
    <!-- Generator: Sketch 47.1 (45422) - http://www.bohemiancoding.com/sketch -->
    <title>LEHIGH</title>
    <desc>Created with Sketch.</desc>
    <defs></defs>
    <g id="Page-1" stroke="none" stroke-width="1" fill="none" fill-rule="evenodd">
        <g id="LEHIGH" fill-rule="nonzero">
            <g id="Group-2" transform="translate(1.000000, 3.000000)">
                <path d="M248.07785,97.7665778 C244.96807,76.4676194 214.208355,88.4186611 221.837079,68.5537306 C221.837079,68.5537306 199.03057,49.2152583 147.376263,44.886925 L147.705602,43.5972722 C148.737338,39.6063 150.053238,38.7570639 152.103595,38.6088 L170.493653,38.6088 L180.398122,0.252202778 L64.9641839,0.252202778 L55.059715,38.6063694 L76.5639249,38.6063694 L73.6343588,49.9434528 C59.7190415,50.8417861 50.6796956,52.3919944 50.6796956,52.3919944 L60.4131801,58.5437306 C40.7446244,61.4409528 20.7457578,68.1492861 0.0440090674,76.9187306 C0.0440090674,76.9187306 31.0155117,79.3818556 60.1411593,102.204286 L36.3301166,194.404981 C36.3301166,194.404981 33.5856218,204.957481 23.3518135,204.957481 L12.1042422,204.957481 L2.19977332,243.306786 L172.377882,243.306786 L195.580764,169.996369 L160.404113,169.996369 C157.650874,180.651925 151.377882,204.95505 125.016159,204.95505 L106.035427,204.95505 L111.348575,184.382342 C122.839508,170.938453 161.740415,134.609425 222.075583,171.962689 C222.075583,171.962689 228.637111,138.694703 172.592098,118.665467 C172.592098,118.665467 183.875615,112.902619 195.853756,112.902619 C223.396341,112.902619 219.520531,140.67755 219.520531,140.67755 C227.96046,134.255536 252.09647,117.889633 248.077364,97.7588 L248.07785,97.7665778 Z" id="Shape" fill="#663700"></path>
                <path d="M161.997863,90.6790778 C162.074126,91.2740778 162.124158,91.8788 162.124158,92.4961611 C162.124158,92.8432444 162.096956,93.1820639 162.074126,93.5247722 C160.294333,93.0187306 158.487824,92.5681056 156.797409,92.1801889 C152.372215,91.1661611 148.78057,90.588175 148.78057,90.588175 C148.78057,90.588175 151.453174,91.2468556 156.509359,94.7735917 C157.829145,95.6976889 159.316516,96.8206056 160.961755,98.1734528 C158.757902,103.300953 153.670628,106.900119 147.735233,106.900119 C139.790771,106.900119 133.346308,100.451369 133.346308,92.4961611 C133.346308,87.0803972 136.338536,82.371925 140.75013,79.9097722 C138.537532,79.2058833 136.34728,78.6157444 134.211917,78.145675 C130.395369,81.7443556 128.002073,86.8363694 128.002073,92.4961611 C128.002073,103.404494 136.83886,112.243939 147.735233,112.243939 C149.542228,112.243939 151.286561,111.978522 152.949288,111.527897 C153.782837,111.297481 154.602785,111.035467 155.391645,110.701508 C161.736528,108.027897 166.369139,102.124564 167.283323,95.0487306 C165.589508,93.4888 163.82283,92.0270639 161.997863,90.6790778 L161.997863,90.6790778 Z" id="Shape" fill="#FFFFFF"></path>
                <g id="Group" transform="translate(16.073316, 11.433244)">
                    <path d="M57.2312176,0.0748611111 L53.1440576,15.9123611 L60.588682,15.9123611 C60.588682,15.9123611 74.6390382,15.9263271 70.447976,32.1620833 L68.9394754,37.9963889 C79.8849093,37.7076389 92.5979922,37.9790833 105.791969,39.5079028 L95.1734456,32.9974167 C104.114184,32.5185972 112.441904,32.4873403 120.224611,32.7809465 L120.382097,32.1628562 C124.577531,15.9272312 138.632744,15.9141062 138.632744,15.9141062 L146.076397,15.9141062 L150.168269,0.07660625 L57.2294738,0.07660625 L57.2312176,0.0748611111 Z M190.39022,67.8533333 C179.578368,67.8297083 171.16807,77.14 163.76522,84.7607639 C156.875324,92.1797917 148.281898,96.1717361 139.318329,99.2692361 C138.529469,99.6031944 137.709861,99.8648194 136.876312,100.095236 C123.663391,104.423569 109.901085,107.341694 99.7391677,116.802389 C118.999207,125.009403 137.088099,129.998361 157.261836,132.960722 C175.034505,135.572597 188.607853,142.70725 196.95306,147.355931 C179.058954,125.498431 135.864977,127.300931 109.678125,116.181139 C141.438488,100.203153 172.782076,91.0035 198.69205,97.0098889 C205.140398,99.4589167 207.933954,106.718986 209.690916,112.450722 C217.573688,106.141972 223.291953,93.6134306 221.120159,85.6995417 C217.862225,73.8296806 193.253093,81.5913194 180.855748,86.8170139 C176.723462,86.4709028 171.437516,87.1331757 171.437516,87.1331757 C177.038714,79.8769951 186.818345,71.9767174 196.650923,68.8962312 C194.475146,68.1816479 192.390495,67.8571688 190.388131,67.8527938 L190.39022,67.8533333 Z M53.248057,98.7651389 L30.0655764,188.535278 C30.0655764,188.535278 25.8703854,204.784028 4.37127591,204.784028 L0.279404145,220.621528 L148.603562,220.621528 L164.677073,169.822917 L152.000907,169.822917 C151.999449,169.822917 141.364896,204.782083 106.035719,204.782083 L75.8074158,204.782083 L87.6903497,158.755139 C80.2821567,131.688472 67.4306347,112.44625 53.2496114,98.7641667 L53.248057,98.7651389 Z" id="Shape" fill="#C1A875"></path>
                    <path d="M120.267163,41.9173611 L127.463083,49.5794444 C111.091807,45.5525 82.3596179,47.6985833 60.6917098,51.2656667 C39.4085168,54.7744167 15.7815738,65.4892778 15.7815738,65.4892778 C84.1802137,78.9331667 97.033193,157.6365 97.033193,157.6365 C97.033193,157.6365 107.540965,141.925389 131.816386,136.856222 C120.582416,130.524625 99.4527202,124.369 87.4386334,123.246083 C90.6023316,110.556639 103.10217,103.917819 112.064767,98.9755278 C112.064767,98.9755278 104.575453,93.2651806 104.575453,80.4274722 C104.575453,76.6703194 104.584926,69.6897639 110.191224,65.4635139 C103.589378,64.8553889 98.0294689,65.5140743 94.6360104,67.2455972 C94.6360104,67.2455972 119.790155,40.7282361 161.407383,73.5441389 C161.407383,73.5441389 169.221179,60.5887917 183.276392,56.8010139 C183.276392,56.8015 169.468912,42.7990694 120.269592,41.9196944 L120.267163,41.9173611 Z M140.814929,113.040278 C139.387014,113.091874 138.007092,113.599597 137.408986,114.66 C143.920483,117.559653 153.127413,120.874444 162.144414,121.862222 L143.88988,113.700417 C143.065949,113.233385 141.926571,112.997597 140.815997,113.037701 L140.814929,113.040278 Z" id="Shape" fill="#994708"></path>
                    <path d="M145.924547,79.2458333 C142.900745,76.9995139 139.723931,75.0555556 136.492714,73.3784722 C138.961788,74.9388889 140.616256,77.6363194 140.724093,80.7469444 C142.414022,81.1348611 144.221017,81.5854861 146.00081,82.0915278 C146.02364,81.7483333 146.050842,81.41 146.050842,81.0629167 C146.050842,80.4455556 146.00081,79.8408333 145.924547,79.2458333 L145.924547,79.2458333 Z M131.661917,90.1634028 C126.637306,90.1634028 122.568167,86.09125 122.568167,81.0624306 C122.568167,76.0394444 126.637306,71.9624306 131.661917,71.9624306 C132.815576,71.9624306 133.91046,72.19625 134.92908,72.5885417 C131.522506,70.9245833 128.070758,69.5586111 124.677299,68.4760417 C120.265706,70.9381944 117.273478,75.6466667 117.273478,81.0624306 C117.273478,89.0176389 123.717455,95.4663889 131.662403,95.4663889 C137.597312,95.4663889 142.685071,91.8677083 144.888925,86.7397222 C143.244171,85.3873611 141.756801,84.2639583 140.436528,83.3398611 C139.42228,87.259375 135.897668,90.1634028 131.661917,90.1634028 L131.661917,90.1634028 Z" id="Shape" fill="#027346"></path>
                </g>
            </g>
        </g>
    </g>
</svg>