<?xml version="1.0" encoding="UTF-8" standalone="no"?>
<svg width="250px" height="250px" viewBox="0 0 250 250" version="1.1" xmlns="http://www.w3.org/2000/svg" xmlns:xlink="http://www.w3.org/1999/xlink">
    <!-- Generator: Sketch 47.1 (45422) - http://www.bohemiancoding.com/sketch -->
    <title>NAVY</title>
    <desc>Created with Sketch.</desc>
    <defs></defs>
    <g id="Page-1" stroke="none" stroke-width="1" fill="none" fill-rule="evenodd">
        <g id="NAVY" fill-rule="nonzero">
            <g id="Group" transform="translate(3.000000, 0.000000)">
                <polygon id="Shape" fill="#00205C" points="0 74.9633431 72.0464678 74.9633431 127.304965 167.659457 127.304965 110.062317 111.706333 110.062317 111.706333 74.9633431 184.118751 74.9633431 184.118751 110.062317 169.892433 110.062317 169.892433 249.908358 119.116827 249.908358 58.2318435 146.856672 58.2318435 213.38893 72.869856 213.38893 72.869856 249.908358 0 249.908358 0 213.38893 15.1411942 213.38893 15.1411942 110.062317 0 110.062317"></polygon>
                <polygon id="Shape" fill="#B5A67C" points="121.312529 246.105205 166.095698 246.105205 166.095698 106.259164 180.322016 106.259164 180.322016 78.7664956 115.457324 78.7664956 115.457324 106.259164 131.101699 106.259164 131.101699 181.405792 69.9422535 78.7664956 3.79673449 78.7664956 3.79673449 106.259164 18.9379287 106.259164 18.9379287 217.192082 3.79673449 217.192082 3.79673449 246.105205 69.1188653 246.105205 69.1188653 217.192082 54.435109 217.192082 54.435109 133.018695"></polygon>
                <polygon id="Shape" fill="#00205C" points="244.912247 22.818915 225.88283 37.8940616 233.522043 61.8585044 213.303288 47.5164956 193.176021 62.0417889 200.586515 37.9398827 180.184785 22.818915 205.160894 22.818915 212.983082 0 220.80527 22.818915"></polygon>
                <polygon id="Shape" fill="#B5A67C" points="204.977919 36.473607 200.129077 52.3277126 213.257545 42.8427419 226.4775 52.2360704 221.491427 36.5194282 234.025225 26.6220674 218.060642 26.6220674 212.937338 11.6843842 207.859777 26.6220674 191.666476 26.6220674"></polygon>
            </g>
        </g>
    </g>
</svg>