<?xml version="1.0" encoding="UTF-8" standalone="no"?>
<svg width="250px" height="250px" viewBox="0 0 250 250" version="1.1" xmlns="http://www.w3.org/2000/svg" xmlns:xlink="http://www.w3.org/1999/xlink">
    <!-- Generator: Sketch 47.1 (45422) - http://www.bohemiancoding.com/sketch -->
    <title>AUBURN</title>
    <desc>Created with Sketch.</desc>
    <defs></defs>
    <g id="Page-1" stroke="none" stroke-width="1" fill="none" fill-rule="evenodd">
        <g id="AUBURN" fill-rule="nonzero">
            <g id="Auburn_Tigers_logo" transform="translate(0.000000, 17.000000)">
                <g id="Group" transform="translate(124.892344, 108.624402) scale(-1, 1) rotate(-180.000000) translate(-124.892344, -108.624402) translate(0.789474, 0.968900)">
                    <g transform="translate(0.442285, 1.175837)" id="Shape">
                        <path d="M124.353143,38.7646112 C93.5745745,38.7646112 83.5170894,43.0273864 72.6669946,49.0618774 C71.7611549,49.5614214 70.955224,50.0609653 70.2025778,50.5671699 L102.413172,50.5671699 L102.413172,84.4162685 L82.8177279,84.4162685 L91.5097928,99.8754889 L159.587644,99.8754889 L168.399599,83.9633487 L146.36638,83.9633487 L146.36638,50.5671699 L178.503708,50.5671699 C177.744401,50.0609653 176.945131,49.5614214 176.039291,49.0618774 C165.189196,43.0273864 155.131711,38.7646112 124.353143,38.7646112 L124.353143,38.7646112 Z M125.445479,160.067206 L140.158714,134.177507 L110.512445,134.177507 L125.445479,160.067206 Z M243.970609,149.956436 L243.970609,183.812195 L169.851607,183.812195 L169.851607,169.578523 L146.199865,211.533555 L102.579687,211.533555 L78.8546791,169.451972 L78.8546791,183.812195 L4.73567673,183.812195 L4.73567673,149.956436 L19.6687108,149.956436 C19.6687108,149.956436 19.6553897,108.647481 19.6420685,83.9633487 L5.45502004,83.9633487 L5.45502004,50.5671699 L20.3281089,50.5671699 C21.7934378,41.2889734 25.9563041,31.1915248 37.3392458,22.7991863 C55.3627919,9.51797757 77.0563209,0.672719199 124.353143,0.672719199 C171.649965,0.679379785 193.343494,9.51797757 211.36704,22.7991863 C220.891678,29.8194441 225.287665,41.2356887 227.319144,50.5671699 L243.324532,50.5671699 L243.324532,83.9633487 L229.064217,83.9633487 L229.064217,149.956436 L243.970609,149.956436 L243.970609,149.956436 Z" fill="#F26522"></path>
                        <path d="M106.580035,7.4325747 L34.6563617,135.001449 L12.2602741,135.001449 L12.2602741,154.900083 L95.7254109,154.900083 L95.7254109,134.543733 L71.3412716,134.543733 L87.6181455,105.590965 L163.623426,105.590965 L179.910424,135.001449 L153.174298,135.001449 L153.174298,154.900083 L236.639435,154.900083 L236.639435,135.001449 L214.243348,135.001449 L142.319674,7.4325747 L106.581633,7.4325747 L106.580035,7.4325747 Z M11.5414636,35.1576641 L11.5414636,55.5140138 L26.4755634,55.5140138 L26.4755634,128.247614 L30.7112699,128.247614 L55.4284386,84.412432 L55.4284386,54.6060427 L72.163028,54.6060427 L72.163028,35.1549998 L11.5410374,35.1549998 L11.5414636,35.1576641 Z M176.660058,35.1576641 L176.660058,54.6087069 L193.394647,54.6087069 L193.394647,84.2898773 L218.184283,128.249746 L222.34715,128.249746 L222.34715,55.5161452 L237.281249,55.5161452 L237.281249,35.1597955 L176.659259,35.1597955 L176.660058,35.1576641 Z M125.55045,38.5711878 L151.818203,84.7892614 L98.8873244,84.7892614 L125.55045,38.5711878 Z M27.2455272,161.648162 C28.6708926,169.334479 32.3142332,177.298408 41.3990063,183.992564 C58.5902455,196.654072 78.7254638,204.796505 124.416552,204.796505 C170.108173,204.796505 190.2338,196.654605 207.42344,183.992564 C216.50848,177.298941 220.162211,169.334479 221.587576,161.648162 L188.680018,161.648162 C186.588594,164.225809 183.618825,166.70019 179.375978,169.057931 C167.160464,175.845335 155.626993,180.204023 124.41815,180.204023 C93.2066437,180.204023 81.6630487,175.845069 69.4496651,169.057931 C65.2068717,166.700084 62.2370496,164.225649 60.1456256,161.648162 L27.2487243,161.648162 L27.2455272,161.648162 Z" fill="#0C2340" transform="translate(124.411143, 106.114540) scale(-1, 1) rotate(-180.000000) translate(-124.411143, -106.114540) "></path>
                    </g>
                </g>
            </g>
        </g>
    </g>
</svg>