<?xml version="1.0" encoding="UTF-8" standalone="no"?>
<svg width="250px" height="250px" viewBox="0 0 250 250" version="1.1" xmlns="http://www.w3.org/2000/svg" xmlns:xlink="http://www.w3.org/1999/xlink">
    <!-- Generator: Sketch 47.1 (45422) - http://www.bohemiancoding.com/sketch -->
    <title>UK</title>
    <desc>Created with Sketch.</desc>
    <defs></defs>
    <g id="Page-1" stroke="none" stroke-width="1" fill="none" fill-rule="evenodd">
        <g id="UK" fill-rule="nonzero">
            <g id="Kentucky_Wildcats_logo" transform="translate(0.000000, 23.000000)">
                <polygon id="Shape" fill="#0033A0" points="0.0628826531 1.2207177 0.0628826531 37.4445997 13.6725765 37.4445997 13.6725765 105.359444 13.680102 105.359444 13.6725765 105.364538 36.3524235 127.997302 68.103699 127.997302 68.103699 168.75283 54.4914541 168.75283 54.4914541 204.976711 136.136862 204.976711 136.136862 168.75283 122.527168 168.75283 122.527168 159.690556 147.472321 159.690556 163.351148 175.544314 163.351148 204.976457 249.527168 204.976457 249.529719 168.752575 249.527168 168.752575 229.116454 168.752575 196.237628 135.925836 226.849872 105.364283 249.529719 105.364283 249.527168 69.1378543 176.95574 69.1428202 176.95574 37.4442177 190.565434 37.4442177 190.565434 1.22033571 108.922577 1.22033571 108.920026 1.22033571 108.920026 37.4442177 108.922577 37.4442177 122.527168 37.4442177 122.527168 69.1428202 68.0985969 69.1428202 68.0985969 37.4442177 81.7031888 37.4442177 81.7108418 37.4442177 81.7108418 1.22033571 81.7031888 1.22033571 0.0628826531 1.22033571"></polygon>
                <polygon id="Shape" fill="#FFFFFF" points="189.438776 135.923913 224.590561 100.831988 245.001276 100.831988 245.001276 73.6624845 172.427296 73.6624845 172.427296 32.9145963 186.03699 32.9145963 186.03699 5.74891304 113.461735 5.74891304 113.461735 32.9145963 127.072704 32.9145963 127.072704 73.6624845 63.5701531 73.6624845 63.5701531 32.9145963 77.1785714 32.9145963 77.1785714 5.74891304 4.60459184 5.74891304 4.60459184 32.913323 18.2091837 32.913323 18.2140306 32.913323 18.2140306 103.092081 38.6247449 123.467298 72.6413265 123.467298 72.6413265 173.277205 59.0303571 173.277205 59.0303571 200.447981 131.606888 200.447981 131.606888 173.277205 117.997194 173.277205 117.997194 155.164627 149.749745 155.164627 167.893878 173.277205 167.896429 173.277205 167.896429 200.447981 244.999745 200.447981 244.999745 173.277205 226.859439 173.277205 189.437245 135.923913"></polygon>
                <path d="M9.13395944,10.2783944 L9.13395944,28.3884255 L22.7436533,28.3884255 L22.7436533,100.831096 L40.887786,118.943674 L72.6352349,118.943674 L72.6352349,100.831096 L59.0280921,100.831096 L59.0280921,28.3884255 L72.6352349,28.3884255 L72.6352349,10.2783944 L9.13395944,10.2787764 L9.13395944,10.2783944 Z M117.991102,10.2783944 L117.991102,28.3884255 L131.593143,28.3884255 L131.593143,100.831096 L117.991102,100.831096 L117.991102,118.943674 L149.743653,118.943674 L167.881408,100.831096 L167.881408,28.3884255 L181.491102,28.3884255 L181.491102,10.2783944 L117.991102,10.2787764 L117.991102,10.2783944 Z M63.5599798,78.1932391 L63.5599798,96.3032702 L77.1696737,96.3032702 L77.1696737,177.802866 L63.5599798,177.802866 L63.5599798,195.921811 L127.065082,195.921811 L127.065082,177.802866 L113.456664,177.802866 L113.456664,150.630817 L152.014061,150.630817 L179.220694,177.802866 L172.422225,177.802866 L172.422225,195.921811 L240.457939,195.921811 L240.457939,177.802866 L224.577837,177.802866 L182.626306,135.924295 L222.307429,96.3032702 L240.457939,96.3032702 L240.457939,78.1932391 L172.422225,78.1932391 L172.422225,96.3032702 L179.220694,96.3032702 L152.014061,123.470227 L113.456664,123.470227 L113.456664,96.3032702 L127.065082,96.3032702 L127.065082,78.1932391 L63.5599798,78.1932391 L63.5599798,78.1932391 Z" id="Shape" fill="#0033A0"></path>
            </g>
        </g>
    </g>
</svg>