<?xml version="1.0" encoding="UTF-8" standalone="no"?>
<svg width="250px" height="250px" viewBox="0 0 250 250" version="1.1" xmlns="http://www.w3.org/2000/svg" xmlns:xlink="http://www.w3.org/1999/xlink">
    <!-- Generator: Sketch 50 (54983) - http://www.bohemiancoding.com/sketch -->
    <title>LSU</title>
    <desc>Created with Sketch.</desc>
    <defs></defs>
    <g id="LSU" stroke="none" stroke-width="1" fill="none" fill-rule="evenodd">
        <g id="Louisiana_State_University_(logo)" transform="translate(0.000000, 86.000000)" fill="#461D7C" fill-rule="nonzero">
            <polygon id="Shape" points="26.7175573 62.1128834 69.7519084 62.1128834 69.7519084 77.8564417 0 77.8564417 0 0 26.7175573 0"></polygon>
            <path d="M99.379771,0 L159.446565,0 L159.446565,15.8871166 L112.070611,15.8871166 C107.108779,15.8871166 103.053435,18.9018405 103.053435,22.5865031 L103.053435,30.9607362 L159.446565,30.9607362 L159.446565,60.5337423 C159.446565,70.0564417 148.998092,77.8564417 136.116412,77.8564417 L76.1450382,77.8564417 L76.1450382,61.9693252 L123.425573,61.9693252 C128.482824,61.9693252 132.538168,58.9546012 132.538168,55.2699387 L132.538168,46.8 L76.1450382,46.8 L76.1450382,17.3226994 C76.1450382,7.8 86.5935115,0 99.379771,0" id="Shape"></path>
            <path d="M222.757634,0 L249.570611,0 L249.570611,60.5337423 C249.570611,70.0564417 239.122137,77.8564417 226.335878,77.8564417 L166.507634,77.8564417 L166.507634,0.191411043 L193.129771,0.191411043 L193.129771,62.1128834 L213.645038,62.1128834 C218.70229,62.1128834 222.757634,59.0981595 222.757634,55.3177914 L222.757634,0 Z" id="Shape"></path>
        </g>
    </g>
</svg>