<?xml version="1.0" encoding="UTF-8" standalone="no"?>
<svg width="250px" height="250px" viewBox="0 0 250 250" version="1.1" xmlns="http://www.w3.org/2000/svg" xmlns:xlink="http://www.w3.org/1999/xlink">
    <!-- Generator: Sketch 47.1 (45422) - http://www.bohemiancoding.com/sketch -->
    <title>TENN</title>
    <desc>Created with Sketch.</desc>
    <defs></defs>
    <g id="Page-1" stroke="none" stroke-width="1" fill="none" fill-rule="evenodd">
        <g id="TENN" fill="#FF8200">
            <g id="UT_Volunteers_logo" transform="translate(0.000000, 10.000000)">
                <path d="M0,0 L250,0 L250,81.6666667 L218.333333,81.6666667 C211.728325,42.5987583 165.059283,41.0375617 150.833333,69.8858 C150.849,86.2912667 150.831667,88.8111583 150.833333,111.666675 L150.833333,161.250008 C150.833333,182.878342 167.5,196.666675 189.166667,196.666675 L189.166667,229.166675 L60.8333333,229.1667 L60.8333333,196.6667 C82.5,196.6667 99.1666667,182.956583 99.1666667,161.250033 C99.1666667,142.9167 99.1666667,132.521267 99.1666667,111.6667 L99.1666667,69.8333667 C81.821075,38.1301242 36.9179633,45.6934167 31.6666667,81.6667 L0,81.6667 L0,0 Z" id="Shape"></path>
            </g>
        </g>
    </g>
</svg>