<?xml version="1.0" encoding="UTF-8" standalone="no"?>
<svg width="250px" height="250px" viewBox="0 0 250 250" version="1.1" xmlns="http://www.w3.org/2000/svg" xmlns:xlink="http://www.w3.org/1999/xlink">
    <!-- Generator: Sketch 47.1 (45422) - http://www.bohemiancoding.com/sketch -->
    <title>ETNST</title>
    <desc>Created with Sketch.</desc>
    <defs></defs>
    <g id="Page-1" stroke="none" stroke-width="1" fill="none" fill-rule="evenodd">
        <g id="ETNST" fill-rule="nonzero">
            <g id="East_Tennessee_State_Buccaneers_logo">
                <g id="Group" transform="translate(124.478571, 125.178571) scale(-1, 1) rotate(-180.000000) translate(-124.478571, -125.178571) translate(0.371429, 1.071429)">
                    <g transform="translate(1.370696, 1.370696)" id="Shape">
                        <path d="M211.267857,244.875 L203.464107,239.389464 C197.873571,235.461607 190.857679,235.133214 183.564107,235.133214 L20.2551786,235.101071 L15.2980357,235.101071 L13.5678393,230.404286 L6.152125,210.275714 L3.34498214,202.664107 L11.1487321,200.742143 C29.6862321,196.181607 33.6344464,190.011429 33.6844464,185.643036 L33.6880179,147.844821 L33.6880179,146.183161 L33.5967679,146.183161 L33.5967679,141.006018 L23.2630179,141.006018 L18.5831964,141.006018 L16.7144464,136.665661 L5.438375,110.444232 L1.09891071,100.350125 L11.9869464,100.350125 L33.6048036,100.346554 L33.608375,98.660875 L33.6835536,59.6305179 C33.5606964,53.2801607 22.4826607,45.232125 12.5085536,44.3992679 L3.08926786,43.6104464 L6.41123214,34.6654464 L13.6606964,15.1547321 L15.4027857,10.4740179 L20.3479643,10.4740179 L180.933679,10.4615179 C196.766893,10.4615179 208.565821,4.52758929 208.689036,4.46348214 L216.037607,0.711696429 L218.690286,8.58758929 L241.8635,78.0804464 L245.042786,87.6059821 L235.101,87.6059821 L213.340286,87.6059821 L208.897964,87.6059821 L206.938143,83.5820536 C197.293321,63.8141964 182.897071,53.4641964 164.154214,52.8159821 L105.754214,52.8124107 L105.754214,98.6749107 L105.754214,100.348589 L139.847071,100.348589 L143.624214,100.348589 L145.750286,103.507696 C150.335286,110.322518 157.743143,116.889125 166.619929,121.993411 C169.652786,123.739161 172.7885,125.268768 175.920286,126.530018 L179.028321,127.779304 L180.065679,131.002518 L181.910679,136.736268 L184.955321,146.189839 L175.124429,146.189839 L105.753,146.189839 L105.753,147.847482 L105.753,192.988554 L165.538714,192.981411 C183.8155,192.981411 192.311929,182.154625 202.454786,160.842125 L204.398893,156.754089 L208.884786,156.754089 L230.700857,156.754089 L240.638714,156.754089 L237.467286,166.275518 L214.297643,235.773732 L211.264786,244.878732 L211.267857,244.875 Z" stroke="#FFC72C" stroke-width="3.82232143" fill="#FFC72C"></path>
                        <path d="M209.528571,10.8748571 C202.077714,16.0525714 193.217143,16.4301429 185.254286,16.4301429 L19.8828571,16.458 L12.3782857,36.6165714 C19.4631429,38.3415714 40.5411429,43.7338571 40.7154286,58.678 L40.721,96.6051429 L99.2452857,96.608 L99.2452857,44.1722857 L167.008143,44.1862857 C191.105286,44.1862857 201.281,60.492 210.895286,80.462 L232.993857,80.462 L209.522429,10.8748571 L209.528571,10.8748571 Z M40.6285714,105.494857 L40.6285714,110.681857 L22.9328571,110.681857 L11.5154286,136.937571 L140.994,136.943143 C146.034143,129.517286 154.213,122.076 164.526857,116.211714 C167.959,114.258143 171.419857,112.600286 174.842143,111.236857 L176.717143,105.494714 L40.6285714,105.494714 L40.6285714,105.494857 Z M40.6453143,145.840571 L40.7178571,184.919143 C40.5035714,196.228 25.255,206.352 12.6435714,207.390571 L19.9817143,226.924857 L182.596,226.939143 C200.756,226.939143 213.986,233.733286 213.986,233.733286 L237.448857,164.151857 L215.414571,164.151857 C208.536857,178.089286 194.213143,198.073286 165.724571,198.987571 L99.2545714,198.996143 L99.2545714,145.840429 L40.6531429,145.840429 L40.6453143,145.840571 Z" fill="#041E42" transform="translate(124.482143, 122.304071) scale(-1, 1) rotate(-180.000000) translate(-124.482143, -122.304071) "></path>
                    </g>
                </g>
            </g>
        </g>
    </g>
</svg>