<?xml version="1.0" encoding="UTF-8" standalone="no"?>
<svg width="250px" height="250px" viewBox="0 0 250 250" version="1.1" xmlns="http://www.w3.org/2000/svg" xmlns:xlink="http://www.w3.org/1999/xlink">
    <!-- Generator: Sketch 47.1 (45422) - http://www.bohemiancoding.com/sketch -->
    <title>CHATT</title>
    <desc>Created with Sketch.</desc>
    <defs></defs>
    <g id="Page-1" stroke="none" stroke-width="1" fill="none" fill-rule="evenodd">
        <g id="CHATT" fill-rule="nonzero">
            <g id="Chattanooga_Mocs_logo" transform="translate(0.000000, 15.000000)">
                <path d="M224.296053,1.67786184 L123.700658,1.67786184 L123.490954,1.67786184 L123.28125,1.67786184 C98.5444079,2.22884868 67.7582237,2.90730263 46.7351974,21.6324671 C31.6983553,34.9383882 27.3190789,52.520625 19.3667763,84.4350987 L19.3544408,84.4844408 L19.3421053,84.5378947 L7.33947368,133.939211 L7.26546053,134.27227 L7.19555921,134.605329 C5.25888158,144.033618 3.87319079,153.634934 3.05082237,160.032961 C1.29506579,173.671776 1.54177632,175.534605 1.77615132,177.343816 C3.17417763,187.899079 9.55180921,206.710592 36.6149671,214.485263 C50.2004934,218.387237 64.9126645,218.387237 74.6412829,218.387237 L185.272862,218.387237 L200.593586,218.387237 L203.780263,203.395461 L211.716118,166.043487 L216.580592,143.140526 L193.175987,143.181645 L130.912829,143.296776 L113.367434,143.296776 C117.606908,121.010592 122.660197,100.418487 129.662829,76.7573026 L131.603618,76.7573026 L126.895724,97.2875658 L150.645724,97.2875658 L210.777303,97.2875658 L225.785526,97.2875658 L229.202632,82.6783553 L242.709868,24.9151974 L248.15,1.67506579 L224.293092,1.67506579 L224.296053,1.67786184 Z" id="Shape" fill="#00386B"></path>
                <path d="M39.9342105,203.569079 C51.9861842,207.03125 65.7361842,207.03125 74.8355263,207.03125 L185.457237,207.03125 L191.579605,207.03125 L192.854276,201.040461 L200.802303,163.685197 L202.751316,154.524013 L193.388816,154.536184 L131.125658,154.659539 L99.9703947,154.659539 C105.2375,123.902961 111.528947,97.7779605 121.413816,65.4029605 L146.04375,65.4029605 L143.457401,76.6776316 L141.331579,85.9335526 L150.834211,85.9335526 L210.965789,85.9335526 L216.965132,85.9335526 L218.334375,80.0947368 L231.845888,22.3315789 L234.021053,13.0348684 L224.477632,13.0348684 L123.885526,13.0348684 L123.803289,13.0348684 L123.716941,13.0348684 C100.822204,13.540625 72.3222039,14.1697368 54.4208882,30.1605263 C42.0399671,41.1144737 38.2077303,56.5131579 30.5722039,87.1736842 L30.5680921,87.1983553 L30.5680921,87.2148026 L18.5575658,136.619408 L18.5246711,136.746875 L18.4958882,136.886678 C15.5559211,151.208388 12.8011513,172.672862 13.2162829,175.866941 C14.4745066,185.377467 20.128125,197.877467 39.9350329,203.568257" id="Shape" fill="#FFFFFF"></path>
                <path d="M37.9407895,89.0263158 L25.9289474,138.421053 C22.6600329,154.371053 20.7355263,172.700658 20.7355263,174.75 C20.7355263,174.815789 20.7396382,174.869243 20.7396382,174.898026 C23.9592105,199.215461 56.2955592,199.474342 74.8547697,199.474342 L185.28898,199.474342 L185.474013,199.474342 L193.418092,162.122368 L131.161513,162.2375 L130.968257,162.2375 L110.03898,162.2375 L109.788158,162.2375 L98.7273026,162.2375 L98.6286184,162.2375 L91.0588816,162.2375 C96.9674342,125.507237 103.879605,96.3526316 115.849013,57.8460526 L155.372039,57.8460526 L155.565296,57.8460526 L153.871217,65.2269737 L153.825987,65.4161184 L150.853125,78.3805921 L210.793914,78.3805921 L210.983059,78.3805921 L224.494572,20.6174342 L224.305428,20.6174342 L123.904112,20.6174342 C100.594243,21.1355263 75.0883224,21.8838816 59.4797697,35.81875 C49.1797697,44.9345395 45.696875,57.8457237 37.9376645,89.0259868" id="Shape" fill="#E0AA0F"></path>
            </g>
        </g>
    </g>
</svg>