<?xml version="1.0" encoding="UTF-8" standalone="no"?>
<svg width="250px" height="250px" viewBox="0 0 250 250" version="1.1" xmlns="http://www.w3.org/2000/svg" xmlns:xlink="http://www.w3.org/1999/xlink">
    <!-- Generator: Sketch 47.1 (45422) - http://www.bohemiancoding.com/sketch -->
    <title>DAVID</title>
    <desc>Created with Sketch.</desc>
    <defs></defs>
    <g id="Page-1" stroke="none" stroke-width="1" fill="none" fill-rule="evenodd">
        <g id="DAVID" fill-rule="nonzero">
            <g id="Davidson_Wildcats_logo">
                <g id="Group" transform="translate(125.211268, 125.000000) scale(-1, 1) rotate(-180.000000) translate(-125.211268, -125.000000) translate(0.871479, 0.660211)">
                    <g id="Shape">
                        <polygon fill="#BF0C26" points="124.636884 248.481514 0.913292254 124.768926 124.636884 1.04533451 248.360475 124.768926 124.647887 248.481514 124.645687 248.481514"></polygon>
                        <path d="M218.727993,184.209947 L220.544674,189.346391 L215.102333,189.607174 C206.169674,190.034111 196.786972,191.784771 186.420555,194.959287 C183.755502,195.775748 181.183979,196.778169 178.463908,197.838908 C175.278389,199.079005 171.986136,200.363116 168.435299,201.368838 C166.728653,201.850792 165.073724,202.295335 163.462808,202.707967 C158.286752,204.211048 152.350352,205.56118 145.413732,206.451364 C137.946743,207.612236 133.480414,207.784991 133.15581,207.795995 C130.946303,207.852113 128.821523,207.879621 126.806778,207.879621 C117.74978,207.879621 109.778829,207.322843 102.43618,206.177377 C94.4190141,204.926276 86.2984155,202.751981 77.6100352,199.529049 C76.368838,199.069102 75.1320423,198.59375 73.8963468,198.117298 C69.5345511,196.439261 65.4148327,194.852553 61.1091549,193.943662 C56.1674736,192.901629 50.956206,192.12588 45.565581,191.605414 C31.8948063,190.554577 25.3884243,192.918134 25.3884243,192.918134 L28.7103873,185.777949 C28.7389965,185.710827 28.8105194,185.545775 28.9183539,185.309199 C31.0365317,180.172755 34.3298856,174.926276 38.9920775,169.288072 C39.8107394,168.297755 40.6459067,167.354754 41.4898768,166.434859 C45.3939261,162.119278 50.1903609,157.902729 55.8901849,154.776629 C55.137544,153.274648 54.4707306,151.753961 53.8391285,150.277289 C52.578125,147.331646 51.3633363,144.139525 50.1430458,140.611796 C46.40625,130.12654 43.0754842,117.845511 42.8158011,108.46831 C42.5814261,100.024208 42.7849912,92.9269366 42.7849912,92.9269366 L49.1373239,100.769146 C49.0151849,93.9205546 49.9108715,85.6261004 53.8534331,76.4172535 C55.056118,73.5299296 57.7816901,68.828125 58.7995158,67.4042694 C63.1701144,61.1982835 69.5829665,55.5754842 78.9887764,52.5759243 L85.2200704,50.5886884 L84.2220511,57.0543574 C83.7830106,59.9581866 83.2691461,69.1670335 86.5691021,73.1569102 C87.3789613,74.1351232 88.3758803,74.7172095 89.6555898,74.9504842 C90.0891285,73.0721831 90.7449384,70.900088 91.8518926,68.6014525 C91.9058099,68.4848151 91.9674296,68.3681778 92.0246479,68.2537412 C92.1192782,68.0633803 92.2128081,67.8730194 92.3129401,67.6804577 C93.7422975,64.9548856 95.8208627,62.0895687 98.9205546,59.3584947 L98.9964789,59.2913732 L99.0757042,59.2275528 C100.514965,58.0754842 105.65581,54.1802377 112.054357,51.9058099 L117.974252,50.0033011 L117.316241,53.7929137 C118.928257,52.928037 120.761444,52.0972711 122.84331,51.3402289 L129.485035,48.924956 L128.682879,53.3098592 C130.284991,52.8147007 131.773768,52.4614877 132.846611,52.2711268 L138.565141,51.4161532 L137.275528,57.9544454 C137.293134,57.9720511 137.310739,57.9863556 137.328345,58.0017606 C137.726673,58.240537 138.31316,58.5222271 138.746699,58.7301937 C139.408011,59.0470951 140.091329,59.3727993 140.770246,59.7854313 C145.412632,62.5946303 149.28257,66.7440581 151.966329,71.7891725 C152.637544,73.0534771 153.225132,74.3661972 153.712588,75.6943222 C153.982174,76.4348592 154.179137,77.1544894 154.352993,77.7915933 C154.512544,78.3769806 154.663292,78.9326585 154.838248,79.375 C155.018706,79.8294454 155.384023,80.368618 155.826364,80.3961268 C155.862676,80.3983275 155.900088,80.3983275 155.9375,80.3983275 C156.058539,80.3983275 156.179577,80.3873239 156.303917,80.3620158 C156.464569,80.3213028 156.614217,80.2684859 156.766065,80.2200704 C158.523327,79.512544 160.46765,76.7946743 161.395246,74.2286532 C164.220951,66.6571303 161.74846,57.1544894 157.75088,51.3369278 L157.783891,51.306118 C154.348592,46.4194542 150.370819,43.7103873 150.370819,43.7103873 C150.370819,43.7103873 154.226452,42.8939261 163.513424,46.9762324 C170.828565,50.1914613 183.527729,58.6300616 189.071303,64.5026408 C192.671655,68.3197623 195.643706,72.1126761 197.544014,76.1355634 C199.799736,80.9077905 201.303917,86.4348592 202.277729,93.5310299 C202.616637,95.9980194 202.809199,98.5255282 202.857614,101.09485 C203.380282,100.823063 203.798415,100.607394 204.025088,100.489657 L210.601893,97.0917694 L209.919674,104.463028 C208.496919,119.823944 203.900748,133.162412 200.278389,141.680238 C198.800616,145.755942 197.100572,149.757923 195.205766,153.630062 C209.996699,159.981294 218.340669,183.117298 218.727993,184.209947" fill="#FFFFFF"></path>
                        <path d="M125.618398,49.2908368 C118.100792,49.3366115 110.574384,49.7846748 103.162412,50.941365 C94.9229754,52.2265762 86.928257,54.4889002 79.1210387,57.3841467 C73.4810739,59.475696 67.9546655,61.8885481 62.0470951,63.135027 C54.599912,64.7063298 46.9326585,65.6447101 39.3349472,66.066365 C37.8340669,66.1499917 33.787412,66.5267523 32.5849472,65.8172453 C32.5849472,65.8172453 32.5955106,65.8392523 32.599912,65.8515762 C32.5972711,65.8489354 32.5893486,65.8489354 32.5849472,65.8462946 C34.809419,71.4149565 38.4168134,76.650872 42.2161092,81.2459424 C47.5039613,87.6403086 53.9951585,93.2609072 61.6360035,96.6323861 C60.0136444,99.0531608 58.8067782,101.764428 57.6659331,104.431682 C56.0823063,108.128865 54.6949824,111.914076 53.4194542,115.725696 C50.7997359,123.569006 48.4775528,131.667597 47.3860035,139.880626 C46.9960387,142.820766 46.9115317,145.76971 46.9397007,148.727457 L46.9397007,148.753865 L46.9775528,148.701048 L54.115757,144.880626 C51.8983275,151.949288 52.2786092,187.741541 80.3208627,196.6764 C80.3208627,196.6764 76.9053697,174.528513 90.6536092,174.009147 C91.4458627,174.026752 92.246919,174.070766 93.1272007,174.220414 C93.8138204,178.225696 94.9581866,184.783795 101.701144,190.716893 C101.991637,190.945766 107.12368,195.118302 113.514525,197.389428 C113.470511,197.36302 112.502201,190.100696 112.502201,190.100696 C113.452905,191.887668 117.035651,195.320766 124.333187,197.970414 L123.356074,192.653513 C124.033891,193.762668 128.989877,196.033795 133.65537,196.852457 C133.65537,196.852457 132.669454,195.091893 133.558539,193.357738 C134.456426,191.61478 137.026849,190.928161 138.778609,189.86302 C142.880722,187.380626 146.243398,183.648231 148.496919,179.422879 C149.077905,178.33133 149.588468,177.195766 150.011004,176.024992 C150.459947,174.792597 150.68882,173.472175 151.172975,172.248583 C151.930018,170.329569 153.549736,168.806682 155.671215,168.67464 C160.327905,168.384147 163.928257,173.692245 165.310299,177.512668 C168.496919,186.060203 165.926496,196.482738 160.891285,203.806682 C169.711708,198.419358 178.928257,193.076048 186.322623,185.734499 C189.403609,182.671119 192.114877,179.194006 193.981074,175.250344 C196.366637,170.197527 197.607835,164.546119 198.364877,159.035555 C198.99868,154.440485 199.077905,149.836611 198.690581,145.223935 C199.430018,145.637668 205.988116,149.026752 205.988116,149.026752 C204.790933,136.095414 201.067342,123.375344 196.613116,112.917597 C194.526849,107.160555 192.088468,101.808442 189.430018,96.9316819 C205.292694,95.0390762 215.011004,67.554041 215.011004,67.554041 C204.852553,67.0681255 195.037412,65.0003439 185.336708,62.0293931 C179.289173,60.1772805 173.716989,57.4237593 167.431778,55.6455903 C146.921215,49.8401326 133.118398,49.3683016 133.118398,49.3683016 C130.627201,49.3049213 128.118398,49.275872 125.618398,49.2908368 L125.618398,49.2908368 Z M125.671215,53.9114354 C128.664173,53.9369636 130.389525,54.0654847 130.389525,54.0654847 C140.794454,54.5751678 151.128961,56.7318579 161.181778,59.3955903 C165.257482,60.4783368 169.315581,61.6702382 173.329665,62.9906608 C177.34375,64.3128439 181.269806,65.9026326 185.283891,67.2151326 C192.466989,69.5584424 200.06382,71.1552734 207.572623,71.8947101 C206.076144,74.8075622 201.349032,90.2785129 181.797975,92.9175974 L183.796215,96.685203 C199.060299,125.444006 199.412412,142.477457 199.412412,142.477457 C197.255722,141.667597 195.046215,140.910555 192.810299,140.20633 C193.690581,148.929921 193.567342,157.715133 190.996919,166.17464 C186.604313,180.664076 173.584947,189.396471 172.863116,189.880626 C173.03037,182.433442 172.370158,175.100696 167.933539,168.877104 C165.803257,165.875344 163.285651,163.709851 159.711708,162.662316 C158.056778,162.178161 156.269806,161.878865 154.535651,161.949288 C154.297975,162.010907 147.299736,161.473935 145.160651,168.683442 C145.12544,168.762668 145.099032,168.83309 145.072623,168.912316 C144.192342,173.516189 142.317342,177.811964 139.289173,181.403513 C139.262764,181.421119 139.245158,181.447527 139.21875,181.465133 C136.357835,184.695766 133.628961,185.804921 133.628961,185.804921 C125.099032,190.523231 122.40537,183.586611 122.40537,183.586611 L119.121919,189.1764 C116.349032,189.343654 111.15537,184.510907 111.15537,184.510907 L108.972271,189.8014 C105.12544,188.472175 102.150088,185.36478 100.442342,181.729217 C99.5620599,180.153513 99.025088,178.375344 98.5057218,176.658795 C97.96875,174.880626 97.5990317,173.384147 97.6958627,171.509147 L97.7046655,171.517949 C98.59375,163.947527 97.871919,152.125344 96.6835387,149.45809 C96.3490317,148.507386 95.4863556,146.253865 94.1483275,144.607738 C92.9247359,142.908795 90.0286092,140.532034 89.8525528,140.382386 C92.4933979,141.245062 95.2838908,142.723935 96.9916373,144.977457 C98.2328345,146.61478 98.9546655,148.771471 99.5972711,150.70809 C100.195863,152.486259 100.600792,154.326048 100.856074,156.192245 C101.137764,158.296119 101.243398,160.417597 101.269806,162.539076 C101.305018,165.171119 101.03213,167.679921 101.243398,170.470414 C101.533891,174.282034 103.206426,179.449288 107.607835,180.162316 C114.289173,177.908795 126.225792,179.995062 126.225792,179.995062 C132.370158,176.896471 140.371919,173.225696 143.963468,145.593654 C143.752201,143.287316 141.930018,141.491541 139.78213,140.848935 C144.271567,140.382386 148.224032,137.838372 151.463468,134.819006 L151.586708,134.730978 C151.982835,134.396471 152.352553,134.035555 152.695863,133.657034 C154.570863,131.588372 156.03213,129.282034 156.903609,127.732738 C157.202905,127.195766 157.924736,125.664076 158.003961,125.435203 C158.074384,125.197527 158.136004,124.977457 158.206426,124.748583 C158.761004,122.820766 158.989877,121.130626 159.069102,120.135907 C159.077905,120.100696 159.077905,120.065485 159.077905,120.030273 C159.095511,119.748583 159.113116,119.51971 159.121919,119.378865 C159.165933,118.155273 159.086708,117.292597 159.060299,116.931682 C159.042694,116.694006 159.007482,116.473935 158.981074,116.245062 C158.93706,115.866541 158.884243,115.496823 158.822623,115.153513 C158.805018,115.039076 158.778609,114.933442 158.752201,114.827809 C158.408891,113.172879 157.854313,111.826048 157.158891,110.391189 C149.324384,111.579569 141.577905,113.5514 133.99868,115.83133 C138.93706,117.847175 145.310299,122.063724 145.310299,128.04964 C145.477553,132.970414 140.591989,134.642949 136.560299,135.223935 L119.870158,130.118302 C128.488116,123.912316 131.014525,115.884147 131.014525,115.884147 L101.481074,116.579569 C101.868398,122.847175 106.128961,127.671119 109.694102,130.646471 L95.0814261,136.33309 C92.8191021,136.429921 90.0550176,135.461611 88.2416373,134.097175 C86.7988556,133.014428 85.8138204,131.45633 85.5136444,129.669358 C84.6263204,126.280273 86.7918134,122.186964 89.3067782,120.003865 C91.3578345,118.20809 94.1483275,117.319006 96.8419894,117.213372 L75.003081,111.896471 C74.9872359,111.940485 74.9731514,111.984499 74.9573063,112.028513 C74.4916373,113.225696 74.1245599,114.466893 73.849912,115.734499 C73.5673415,117.046119 73.3886444,118.384147 73.3235035,119.722175 C73.2557218,121.157034 73.3076585,122.58309 73.5057218,123.991541 C73.6641725,125.109499 73.9194542,126.209851 74.2574824,127.274992 C74.2618838,127.283795 74.2645246,127.3014 74.2671655,127.310203 C74.7055458,128.683442 75.2900528,130.003865 76.0435739,131.236259 C76.1034331,131.33309 76.1712148,131.429921 76.2328345,131.526752 C76.2337148,131.526752 76.2354754,131.535555 76.2381162,131.535555 C76.9599472,132.662316 77.809419,133.718654 78.821743,134.660555 L79.7231514,135.188724 C85.7205106,138.929921 89.4564261,143.445766 90.5391725,145.197527 C95.9441021,154.951048 91.1201585,165.954569 91.6571303,168.419358 C87.0435739,167.23978 78.3683979,167.86478 72.6254401,186.473935 C54.7803697,171.482738 58.4326585,143.172879 59.1632923,139.132386 C55.9449824,140.4264 53.4581866,141.500344 52.4669894,141.931682 C57.3587148,112.345414 67.1307218,95.9017523 67.1307218,95.9017523 C68.0022007,94.1675974 69.5946303,92.8471748 71.6236796,93.3577382 C73.6404049,93.8594988 75.2055458,95.628865 76.2275528,97.3454143 C77.4141725,99.3436537 78.7081866,101.121823 80.4643486,102.679921 C83.5303697,105.399992 87.2345951,106.79964 91.3402289,106.526752 C93.4529049,106.385907 100.433539,106.403513 98.9370599,111.377104 C98.9370599,111.377104 117.880722,96.4299213 96.525088,89.1931255 L80.7011444,84.2855551 C77.5497359,83.1191819 74.40625,81.7468227 71.6060739,79.8674213 C69.8595951,78.6957664 68.0735035,77.2353791 67.1703345,75.2855551 C64.4889965,69.4985833 72.8490317,65.1878439 76.8411092,63.2653086 C82.3270246,61.0646044 87.9317782,58.9061537 93.6729754,57.4668931 C102.96875,55.135027 112.713468,54.1394284 122.273327,53.9554495 L122.273327,53.9281608 C123.540933,53.9043931 124.676496,53.9026326 125.671215,53.9114354 L125.671215,53.9114354 Z M112.440581,65.2961185 L107.431778,82.032034 L87.3534331,81.1050974 C108.444102,85.6015762 110.935299,93.7186537 110.935299,93.7186537 L112.440581,65.2961185 L112.440581,65.2961185 Z M117.106074,66.1094988 L118.840229,94.5197101 C118.840229,94.5197101 119.729313,86.1394284 145.477553,80.1359072 L122.466989,81.9598509 L117.106074,66.1094988 Z M164.90537,79.5478791 L133.796215,89.1931255 C113.303257,96.6675974 131.384243,111.377104 131.384243,111.377104 C131.067342,108.806682 130.178257,106.024992 139.341989,106.553161 C155.979313,107.521471 154.773327,90.3982312 154.773327,90.3982312 L164.90537,79.5478791 L164.90537,79.5478791 Z M85.3639965,93.322527 C86.2433979,93.3137241 87.5118838,93.3401326 89.0691021,93.4545692 C88.8138204,94.1059777 88.6641725,94.810203 88.6641725,95.5496396 C88.6641725,98.7890762 91.2962148,101.421119 94.5444542,101.421119 C97.775088,101.421119 100.398327,98.8154847 100.415933,95.6024565 C101.164173,95.822527 101.903609,96.0690058 102.669454,96.3418931 C102.669454,96.3418931 98.8050176,103.516189 91.621919,102.741541 C84.4361796,101.966893 83.5550176,95.4616115 83.9933979,93.366541 C83.9933979,93.366541 84.4837148,93.3313298 85.3639965,93.322527 L85.3639965,93.322527 Z M145.952905,93.5690058 C147.643046,93.5337946 148.646567,93.6042171 148.646567,93.6042171 C149.086708,95.6992875 148.197623,102.204569 141.023327,102.970414 C133.840229,103.753865 129.966989,96.5795692 129.966989,96.5795692 C131.665933,95.963372 133.31206,95.4880199 134.887764,95.0918931 C134.826144,95.4175974 134.790933,95.7433016 134.790933,96.0778086 C134.790933,99.3260481 137.422975,101.940485 140.662412,101.940485 C143.910651,101.940485 146.542694,99.3260481 146.542694,96.0778086 C146.542694,95.1711185 146.322623,94.3348509 145.952905,93.5690058 L145.952905,93.5690058 Z M114.826144,136.764428 C120.697623,138.375344 126.525088,140.127104 132.334947,141.922879 C130.644806,145.259147 130.134243,149.440485 129.755722,153.128865 C126.806778,150.435203 126.190581,145.725696 126.111356,143.023231 L106.745158,143.164076 C105.636004,147.257386 105.424736,152.98802 105.424736,152.98802 C100.785651,147.556682 101.982835,142.186964 101.982835,142.186964 L114.826144,136.764428 Z M126.665933,163.454569 C126.665933,163.454569 125.917694,170.382386 128.87544,175.118302 C122.00044,171.834851 113.180018,171.817245 106.305018,175.118302 C106.261004,175.100696 104.56206,169.546119 106.736356,163.947527 L110.662412,170.047879 C110.662412,170.047879 118.93706,170.382386 122.704665,169.730978 C122.704665,169.730978 123.391285,166.421119 126.665933,163.454569 L126.665933,163.454569 Z" fill="#000000" transform="translate(123.797975, 126.546827) scale(-1, 1) rotate(-180.000000) translate(-123.797975, -126.546827) "></path>
                        <path d="M207.572623,119.43662 C196.357835,123.623239 185.266285,126.387324 173.171215,126.018486 C176.604313,130.31162 178.972271,135.726232 181.797975,140.459507 C201.349032,137.820423 206.076144,122.349472 207.572623,119.43662 Z M142.00044,141.383803 L138.849032,141.867958 L140.46875,147.008803 L142.00044,141.383803 Z M92.8631162,141.603873 L94.4916373,147.237676 L96.0145246,142.079225 L92.8631162,141.603873 Z M189.43882,157.598592 L157.158891,157.933099 C157.854313,159.367958 158.408891,160.714789 158.752201,162.369718 C158.778609,162.475352 158.805018,162.580986 158.822623,162.68662 C158.884243,163.038732 158.93706,163.408451 158.981074,163.786972 C158.99868,163.910211 159.025088,164.024648 159.033891,164.147887 C159.051496,164.253521 159.051496,164.359155 159.060299,164.473592 C159.060299,164.473592 159.060299,164.482394 159.069102,164.491197 L189.43882,157.598592 L189.43882,157.598592 Z M61.4722711,158.672535 L73.8516725,163.276408 C74.1263204,162.008803 74.4933979,160.767606 74.9590669,159.570423 C74.974912,159.526408 74.9889965,159.482394 75.0048415,159.43838 L61.4722711,158.672535 Z M159.121919,166.920775 C159.113116,167.06162 159.095511,167.290493 159.077905,167.572183 C159.077905,167.607394 159.077905,167.642606 159.069102,167.677817 C158.989877,168.672535 158.761004,170.362676 158.206426,172.290493 C158.136004,172.536972 158.074384,172.765845 158.003961,172.977113 L193.540933,168.505282 L159.121919,166.920775 L159.121919,166.920775 Z M123.796215,167.132042 C123.796215,167.132042 110.988116,167.580986 106.621919,167.598592 C106.621919,167.598592 107.28213,170.239437 108.488116,171.190141 C108.488116,171.190141 108.461708,170.556338 109.324384,169.992958 C110.195863,169.447183 111.753961,170.433099 111.771567,172.193662 C111.78037,172.801056 111.454665,174.288732 111.454665,174.288732 L114.738116,177.070423 L117.889525,173.65493 C117.889525,173.65493 116.525088,172.660211 116.445863,171.973592 C116.366637,171.286972 116.912412,170.213028 117.801496,169.755282 C119.201144,169.024648 120.759243,170.371479 120.759243,170.371479 L123.796215,167.132042 L123.796215,167.132042 Z M73.3235035,167.264085 L58.690581,167.651408 L73.4925176,171.551056 C73.4977993,171.542254 73.5004401,171.542254 73.5057218,171.533451 C73.3076585,170.125 73.2557218,168.698944 73.3235035,167.264085 Z M74.2574824,174.816901 L55.4828345,178.663732 L76.2328345,179.068662 C76.1712148,178.971831 76.1034331,178.875 76.0435739,178.778169 C75.2900528,177.545775 74.7055458,176.225352 74.2671655,174.852113 C74.2645246,174.84331 74.2618838,174.825704 74.2574824,174.816901 Z M156.903609,175.274648 C156.03213,176.823944 154.570863,179.130282 152.695863,181.198944 L196.366637,178.81338 L156.903609,175.274648 L156.903609,175.274648 Z" fill="#BF0C26" transform="translate(131.527729, 150.317782) scale(-1, 1) rotate(-180.000000) translate(-131.527729, -150.317782) "></path>
                    </g>
                </g>
            </g>
        </g>
    </g>
</svg>