<?xml version="1.0" encoding="UTF-8" standalone="no"?>
<svg width="250px" height="250px" viewBox="0 0 250 250" version="1.1" xmlns="http://www.w3.org/2000/svg" xmlns:xlink="http://www.w3.org/1999/xlink">
    <!-- Generator: Sketch 47.1 (45422) - http://www.bohemiancoding.com/sketch -->
    <title>CIT</title>
    <desc>Created with Sketch.</desc>
    <defs></defs>
    <g id="Page-1" stroke="none" stroke-width="1" fill="none" fill-rule="evenodd">
        <g id="CIT" fill-rule="nonzero">
            <g id="The_Citadel_Bulldogs_logo" transform="translate(0.000000, 26.000000)">
                <path d="M50.1829096,1.11260053 C49.7612641,1.13375663 48.7784605,2.0592266 48.3111582,2.87540887 C48.0434675,3.34295301 47.4966808,3.62822163 46.9359816,3.59209113 C45.7600636,3.51636881 42.8296963,4.15423085 41.2897952,4.82151596 C38.9474576,5.83634539 36.0104873,6.65820833 35.6097105,6.41065798 C35.3844527,6.27154851 35.2000353,6.40674855 35.2000353,6.71111975 C35.2000353,7.33123057 31.5527895,9.7371194 30.6131709,9.7371194 C30.2365113,9.7371194 30.0931497,9.5150227 30.233863,9.14858748 C30.3582345,8.82468323 30.3652578,8.55938518 30.2490466,8.55938518 C30.1328249,8.55938518 26.734887,9.53921319 22.697846,10.7370591 C18.6608051,11.934905 15.0922669,12.9931687 14.7681144,13.0883994 C14.0553319,13.2977128 13.0984463,15.3382637 13.0984463,16.6492291 C13.0984463,17.3216304 12.8259287,17.6674811 12.1653249,17.8331733 C11.6520833,17.9618882 11.2322034,18.2250339 11.2322034,18.4175417 C11.2322034,18.6100672 10.9979908,18.767623 10.7115113,18.767623 C10.4250282,18.767623 9.77489407,19.2090925 9.26737288,19.7489329 C8.75981638,20.2887733 8.05063559,20.7302428 7.69081921,20.7302428 C7.33096751,20.7302428 6.83488701,21.172418 6.58873588,21.7122584 C6.34258121,22.2520988 5.96048729,22.6935684 5.73975989,22.6935684 C5.51902542,22.6935684 5.33838277,23.0466169 5.33838277,23.4784893 C5.33838277,23.9103616 5.12906073,24.2641159 4.87284605,24.2641159 C4.07161017,24.2641159 2.58799435,25.9307056 2.58799435,26.8311453 C2.58799435,27.304229 2.23467514,28.1406994 1.80247175,28.6897488 C1.00981638,29.6966747 0.784392655,31.1953141 1.31694915,31.9203939 C1.47571681,32.13657 2.85056497,33.4024499 4.37146893,34.7334565 C6.25286017,36.3799345 7.60261299,37.2405742 8.59498588,37.4265898 C9.39717514,37.5769689 10.053637,37.8215201 10.053637,37.9703114 C10.053637,38.1190992 11.0257768,39.2442996 12.2143362,40.4704783 C13.4028955,41.696657 14.3757415,42.8566788 14.3757415,43.0478458 C14.3757415,43.2390023 15.0446681,43.8583121 15.8626412,44.4247212 C17.2053319,45.3545169 17.669315,45.4483363 20.631709,45.3853902 C24.5699153,45.3017043 24.924435,45.5901837 26.2164548,49.9288707 C26.6749647,51.4684038 27.445339,53.1696068 27.928178,53.7095178 C28.4110523,54.2493582 29.0007415,55.2737848 29.238524,55.9857391 C29.4763242,56.6976581 30.0310381,57.7375742 30.4709393,58.2963973 C30.9320975,58.8822123 31.2709393,59.8989118 31.2709393,60.6973464 C31.2709393,62.9182428 32.5013771,66.3127453 33.4350989,66.6673464 C34.3048023,66.9977534 36.3785664,69.7199852 36.3785664,70.531263 C36.3785664,70.7986075 36.703697,71.3665691 37.1013418,71.7930783 C37.4989866,72.2195875 38.0026836,72.9627325 38.2206568,73.4449194 C40.1661723,77.7484708 40.7474576,78.8366198 41.0992938,78.8366198 C41.3231992,78.8366198 42.6384181,79.8893086 44.0221045,81.1755402 C45.4057556,82.4617717 47.2052613,83.7925313 48.0213983,84.1333012 C49.7004944,84.8343175 53.6661723,87.7145955 53.6661723,88.2329129 C53.6661723,88.4202622 54.2749647,89.1816912 55.0186088,89.9247304 C55.7622175,90.6677696 56.4771893,91.789191 56.6075918,92.4173113 C56.7379873,93.0454668 57.2557556,94.354421 57.7579449,95.3261338 C58.2601342,96.2978465 58.7815325,97.5606497 58.9165607,98.1322808 C59.162959,99.175196 61.3868644,100.822662 62.5482698,100.822662 C63.0794845,100.822662 66.2933263,102.774414 67.8491172,104.041593 C68.1940395,104.322578 68.7222811,105.23337 69.0229167,106.064901 C69.4134534,107.145075 69.9877825,107.789532 71.0346751,108.323198 C72.7786723,109.212241 73.5787076,110.43288 72.9298729,111.214131 C72.6050847,111.605181 72.6233298,111.794019 73.0009075,111.95149 C73.3772846,112.108478 73.3304131,112.275825 72.8188347,112.599263 C72.3331356,112.906351 72.1999788,113.319721 72.3698588,113.996144 C72.5139901,114.569963 72.4412253,114.956778 72.1884781,114.956778 C71.9557486,114.956778 71.8668468,115.222083 71.9912323,115.54598 C72.115625,115.869888 72.4640078,116.134512 72.7650318,116.134512 C73.0660629,116.134512 73.3119244,116.327158 73.3119244,116.562468 C73.3119244,117.169559 74.9533792,118.462001 75.744375,118.477561 C76.5545798,118.493474 77.0118891,119.128404 76.4588524,119.469915 C76.2061088,119.626003 76.2874894,119.949244 76.6774753,120.338917 C77.0535699,120.714723 77.2108792,121.306007 77.0768044,121.839849 C76.9054873,122.521918 77.1657556,122.958201 78.2292408,123.768738 C78.9849258,124.344674 79.7985558,124.695041 80.0375388,124.547449 C80.6623976,124.161551 81.1528637,125.154646 80.917553,126.330228 C80.6361935,127.735965 81.8197069,129.092094 84.6382451,130.593203 C87.4182239,132.073777 88.0655756,132.123104 89.3935417,130.955672 C90.3644103,130.102125 90.3741914,130.101137 89.6783722,130.92741 C88.742779,132.038458 89.1248411,132.723209 91.8418609,134.797678 C94.55369,136.868089 95.2579979,138.08146 94.6618821,139.659417 C94.2895657,140.644997 94.3458686,141.076975 95.0101624,142.324994 C95.4461088,143.144034 95.965565,143.875006 96.1646469,143.949984 C96.3712535,144.027792 96.3467444,144.303421 96.1074047,144.591583 C95.8000777,144.961603 95.8481144,145.157745 96.2874047,145.326189 C96.6170692,145.452597 96.8867338,145.872557 96.8867338,146.259266 C96.8867338,146.645976 97.2407592,147.182464 97.6729626,147.452173 C98.2472564,147.810549 98.4584852,148.36782 98.4584852,149.522337 C98.4584852,150.391198 98.6943044,151.670831 98.9826377,152.365708 C99.4023764,153.377256 99.4112394,153.860431 99.0274647,154.790756 C98.6315607,155.750437 98.6523941,156.111495 99.1460876,156.864379 C99.5758545,157.519773 99.6791384,158.324453 99.5130014,159.726344 C99.2932239,161.580608 99.3514336,161.743725 100.70887,163.061076 C101.493969,163.822992 102.590826,164.541262 103.146123,164.657099 C103.701419,164.772953 104.509117,164.940155 104.941321,165.02853 C105.373524,165.116912 106.028397,165.724007 106.396511,166.377849 C106.764626,167.031691 107.339555,167.566592 107.673771,167.566592 C108.007977,167.566592 108.281363,167.794344 108.281363,168.072419 C108.281363,168.350496 108.788849,169.185337 109.408976,169.927564 C110.367662,171.075025 110.479951,171.438341 110.160035,172.3554 C109.863718,173.204748 109.943803,173.665836 110.535918,174.524782 C110.949407,175.124675 111.516568,176.189466 111.796617,176.891259 C112.076667,177.593051 112.54125,178.16754 112.829032,178.16754 C113.311589,178.16754 114.168051,180.389072 114.173171,181.654557 C114.17423,181.952972 113.80714,182.792067 113.357281,183.51937 L112.539343,184.841803 L113.455233,186.313803 C113.958976,187.123564 114.388919,188.316399 114.410424,188.964208 C114.516554,192.162039 114.600282,192.693694 114.997323,192.693694 C115.233365,192.693694 115.876172,193.047448 116.425607,193.47932 C117.563178,194.373444 118.566956,194.472803 119.647712,193.798391 C120.264838,193.413269 120.553715,193.475619 121.311871,194.159484 C121.816568,194.614714 122.848665,195.526303 123.605021,196.184838 C124.960742,197.365219 125.042521,197.382225 129.400219,197.393587 L133.821123,197.404595 L133.821123,196.046314 C133.821123,195.299041 134.042034,194.507875 134.312154,194.28834 C134.582281,194.068798 135.653927,193.178491 136.693545,192.309842 C137.733164,191.441193 138.776737,190.730333 139.012895,190.730333 C139.249029,190.730333 140.401172,190.277043 141.57363,189.722807 C143.165614,188.970241 143.843263,188.385838 144.249513,187.414195 C145.178503,185.192523 147.11565,183.921639 150.826137,183.099353 C151.992839,182.840854 153.462295,180.873235 153.464802,179.566045 C153.465508,179.148074 154.163531,177.980643 155.015155,176.971459 C156.23447,175.526521 156.463602,175.029233 156.095169,174.631162 C155.730763,174.237467 155.737578,174.187364 156.125501,174.406504 C156.804739,174.790179 159.69471,172.450588 159.988849,171.278534 C160.331963,169.912562 160.96678,169.542859 163.740614,169.096732 C166.358199,168.675727 168.004032,167.612841 168.004032,166.342946 C168.004032,165.370034 168.36512,165.231016 171.346123,165.05495 C173.695134,164.916219 174.131151,164.755674 175.411095,163.558852 C176.199548,162.821528 177.551561,161.707834 178.415968,161.083489 C181.680304,158.725763 184.211165,156.329718 184.838637,155.002698 C185.281186,154.067151 186.041709,153.363171 187.221405,152.797468 C188.174442,152.340474 189.676914,151.245797 190.560742,150.364834 C193.858482,147.077806 194.566391,146.465986 195.811095,145.822765 C196.599089,145.415591 197.384682,144.530606 197.866285,143.507273 C198.981469,141.137656 201.393475,139.89881 204.235989,140.235946 C207.273065,140.596086 208.021653,140.061845 209.347924,136.589729 C209.966038,134.971302 210.35774,133.323765 210.234153,132.862361 L210.012772,132.035382 L210.520364,132.863031 C210.972023,133.599578 211.169269,133.641883 212.313478,133.25034 C213.099424,132.981387 214.171988,132.049036 215.072129,130.852143 C215.882016,129.775179 217.159523,128.586154 217.911465,128.209995 C220.518987,126.905592 220.880533,125.471875 219.217009,123.025762 C218.243386,121.594056 218.204933,121.380907 218.655639,119.891583 C218.921564,119.012772 219.295929,117.194357 219.487383,115.850542 C219.908641,112.893769 221.333782,109.762695 223.311536,107.44879 C224.119093,106.503858 225.612278,104.494064 226.629509,102.982581 C232.176472,94.7403116 238.700131,89.3800138 245.844905,87.1945421 C247.549389,86.6731551 248.943563,86.1102744 248.943563,85.9437707 C248.943563,85.7772387 243.860583,80.7200207 237.647659,74.7052104 C231.434735,68.690753 219.014184,56.5962104 210.045964,47.828214 C201.077744,39.0602175 192.400131,30.6133026 190.763125,29.0569391 L187.786536,26.2266581 L176.029121,26.2266581 C169.562313,26.2263829 156.702143,26.1085318 147.450731,25.9654777 L130.629756,25.7056733 L130.838722,24.2977836 C130.953471,23.5233772 131.146988,21.917793 131.269089,20.7302499 L131.491162,18.5712057 L127.695964,13.3876791 L123.900766,8.20344686 L121.60006,9.76503232 C118.563619,11.8254586 118.24946,11.9202658 117.720117,10.9317227 C117.374379,10.2862077 117.407542,9.83634066 117.870463,8.90912062 C118.213994,8.22101814 118.371981,7.24616512 118.243556,6.60467239 C117.968831,5.23210165 119.810505,5.40682647 89.2251942,3.85363853 C76.6912959,3.21715608 64.8004061,2.58578977 62.8014654,2.45054739 C59.4530544,2.22401906 59.1634004,2.26136332 59.1213806,2.92811211 C59.0840466,3.52087807 59.0452719,3.53643817 58.9055155,3.01218608 C58.6890007,2.19999087 56.0520198,1.74479601 54.6495127,2.2775797 C54.0805508,2.49372757 52.9913206,2.670393 52.2287853,2.670393 C51.1728178,2.670393 50.7935452,2.48353764 50.637048,1.88547207 C50.5240219,1.45359973 50.319428,1.10605541 50.1825636,1.11293573 L50.1829096,1.11260053 Z" id="Shape" stroke="#000000" stroke-width="1.76553672" fill="#003263"></path>
                <path d="M108.978814,143.07352 L87.3142655,120.386461 L87.3142655,52.1795642 L109.007768,29.9166156 L150.603814,29.9166156 L171.63065,50.9598071 L171.63065,71.5210234 C171.63065,71.7824402 171.423019,71.9954832 171.166984,71.9954832 L142.473129,71.9954832 C142.249679,71.9954832 142.068114,71.8094146 142.068114,71.5814644 L142.068114,64.3733598 L138.071999,60.1460211 L121.575883,60.1460211 L117.264089,64.5547179 L117.264089,108.267679 L121.422987,112.448443 L138.437818,112.448443 L142.068114,108.887966 L142.068114,98.2301754 C142.068114,98.0152589 142.239428,97.8394438 142.450777,97.8394438 L171.332839,97.8394438 C171.496702,97.8394438 171.630773,97.9762104 171.630773,98.1445948 L171.630773,121.602955 L150.635717,143.073079 L108.979643,143.073079 L108.978814,143.07352 Z" id="Shape" fill="#FFFFFF"></path>
                <polygon id="Shape" fill="#4D90CD" points="111.026836 138.102048 92.1758475 118.360472 92.1758475 54.2323691 111.026836 34.8852645 148.622175 34.8852645 166.770127 53.0489543 166.770127 67.0244702 146.927613 67.0244702 146.927613 62.3624365 140.134534 55.1747965 119.562147 55.1747965 112.405367 62.4936918 112.405367 110.348958 119.433969 117.418398 140.39089 117.418398 146.927613 111.006646 146.927613 102.807775 166.770127 102.807775 166.770127 119.545298 148.622175 138.102754 111.026836 138.102754"></polygon>
            </g>
        </g>
    </g>
</svg>