<svg width="500" height="500" viewBox="0 0 500 500" fill="none" xmlns="http://www.w3.org/2000/svg">
<g clip-path="url(#clip0_38_29052)">
<path d="M430.977 140.722L306.108 406.044H193.945L69.0755 140.722C58.6697 118.394 50.6693 104.904 41.3093 92.9291H164.871C154.988 106.42 154.727 125.401 168.479 154.475L250 327.922L331.521 154.475C345.273 125.401 345.011 106.42 335.181 92.9291H458.743C449.383 104.851 441.33 118.394 430.977 140.722V140.722ZM297.793 74V77.9218C327.128 94.2886 328.435 116.094 314.16 146.474L250.052 282.795L185.944 146.474C171.669 116.094 172.976 94.2886 202.311 77.9218V74H0V77.9218C19.9749 91.4127 30.6421 103.858 49.8327 144.644L181.709 425.025H318.291L450.167 144.644C469.358 103.91 480.025 91.4127 500 77.9218V74H297.793Z" fill="#1C1C1C"/>
<path d="M430.976 140.723L306.107 406.044H193.944L69.0748 140.723C58.669 118.395 50.6686 104.904 41.3086 92.9815H164.871C154.988 106.472 154.726 125.454 168.531 154.527L250.052 327.974L331.52 154.475C345.272 125.401 345.011 106.42 335.18 92.9292H458.742C449.382 104.851 441.329 118.342 430.976 140.67" fill="url(#paint0_linear_38_29052)"/>
<path d="M370.53 419.744L365.562 406.933H360.438V425.025H363.732V410.854H363.836L369.222 425.025H371.68L377.118 410.854H377.17V425.025H380.465V406.933H375.445L370.53 419.744Z" fill="#CFAF72"/>
<path d="M342.188 409.756H347.73V425.025H351.234V409.756H356.776V406.933H342.188V409.756Z" fill="#CFAF72"/>
</g>
<defs>
<linearGradient id="paint0_linear_38_29052" x1="46.3084" y1="95.1006" x2="95.894" y2="455.842" gradientUnits="userSpaceOnUse">
<stop stop-color="#FEEEB6"/>
<stop offset="1" stop-color="#B49248"/>
</linearGradient>
<clipPath id="clip0_38_29052">
<rect width="500" height="351.025" fill="white" transform="translate(0 74)"/>
</clipPath>
</defs>
</svg>
