<?xml version="1.0" encoding="UTF-8" standalone="no"?>
<svg width="250px" height="250px" viewBox="0 0 250 250" version="1.1" xmlns="http://www.w3.org/2000/svg" xmlns:xlink="http://www.w3.org/1999/xlink">
    <!-- Generator: Sketch 47.1 (45422) - http://www.bohemiancoding.com/sketch -->
    <title>MISSST</title>
    <desc>Created with Sketch.</desc>
    <defs></defs>
    <g id="Page-1" stroke="none" stroke-width="1" fill="none" fill-rule="evenodd">
        <g id="MISSST" fill-rule="nonzero">
            <g id="Group" transform="translate(0.000000, 49.000000)">
                <path d="M36.3629211,0.276276667 L36.3629211,23.497099 L44.6137672,36.738489 C44.6137672,36.738489 21.0289141,46.306566 5.29903654,57.9556559 L14.8470895,78.8228886 L0.948445463,123.248594 C0.948445463,123.248594 13.0022396,114.873414 27.8347662,106.071274 L27.8347662,125.622104 C27.8347662,125.622104 35.7136535,120.601179 43.3437932,116.816312 L36.3772016,127.476688 L36.3772016,151.274869 L102.233859,151.274869 L102.233859,102.12804 L124.988447,137.987994 L147.749344,102.12804 L147.749344,151.274869 L213.606002,151.274869 L213.606002,127.476688 L206.63941,116.816312 C214.265232,120.597195 222.142127,125.622104 222.142127,125.622104 L222.142127,106.071274 C236.978971,114.873414 249.028448,123.248594 249.028448,123.248594 L235.128143,78.8228886 L244.676196,57.9556559 C228.950968,46.306234 205.37475,36.738489 205.37475,36.738489 L213.614304,23.498427 L213.614304,0.27760469 L153.556221,0.27760469 L131.248648,34.9423372 C124.660326,34.7721842 118.729905,34.9423372 118.729905,34.9423372 L96.4190117,0.27760469 L36.3609284,0.27760469 L36.3629211,0.276276667 Z M230.522163,126.899994 C227.226009,126.899994 224.593403,129.460324 224.593403,132.651664 C224.593403,135.913621 227.225876,138.468407 230.522163,138.468407 C233.855844,138.468407 236.418376,135.913787 236.418376,132.651664 C236.418376,129.460257 233.855712,126.899994 230.522163,126.899994 Z M230.522163,128.054246 C233.083532,128.054246 234.939507,130.123572 234.939507,132.684068 C234.939507,135.207312 233.085159,137.242508 230.561019,137.242508 C227.962288,137.242508 226.065962,135.212093 226.065962,132.651531 C226.065962,130.128286 227.960794,128.053914 230.522163,128.053914 L230.522163,128.054246 Z M230.489616,129.740205 C229.543113,129.740205 228.804941,129.81152 228.277722,129.915271 L228.277722,135.666941 L229.607442,135.666941 L229.607442,133.351964 L230.236618,133.351964 C230.975554,133.351964 231.328682,133.635464 231.436617,134.266275 C231.610973,134.930286 231.712165,135.455254 231.890672,135.666941 L233.324176,135.666941 C233.183031,135.455287 233.083399,135.107212 232.909043,134.227397 C232.730536,133.459633 232.412179,133.03191 231.85175,132.820256 L231.85175,132.755416 C232.553424,132.547912 233.045373,132.050434 233.045373,131.419623 C233.045373,130.859363 232.796559,130.406474 232.481058,130.16162 C232.061774,129.916765 231.577364,129.740138 230.489716,129.740138 L230.489616,129.740205 Z M230.379357,130.686953 C231.222076,130.686953 231.605294,131.039443 231.605294,131.562353 C231.605294,132.159963 231.010359,132.405349 230.275574,132.405349 L229.646398,132.405349 L229.646398,130.758301 C229.787544,130.72095 230.030645,130.686986 230.379357,130.686986 L230.379357,130.686953 Z" id="Shape" fill="#AAAAAA" transform="translate(124.988447, 75.775573) rotate(-360.000000) translate(-124.988447, -75.775573) "></path>
                <path d="M240.520219,40.9594456 L230.407586,73.2802167 L238.909504,91.8642451 L238.685333,92.6361587 C226.837444,100.421696 214.366857,106.767158 200.331219,112.112453 L200.331219,116.266676 L208.579907,129.50541 L208.579907,146.255106 L156.310544,146.255106 L136.039612,114.76435 C132.344931,114.988454 128.658552,115.112956 124.988779,115.112956 C121.319005,115.112956 117.632627,114.988454 113.937945,114.76435 L93.6711651,146.255106 L41.4018022,146.255106 L41.4018022,129.50541 L49.6504897,116.266676 L49.6504897,112.112453 C35.6107005,106.771308 23.1401131,100.421696 11.2922248,92.6361587 L11.0722045,91.8642451 L19.5741229,73.2802167 L9.45733814,40.9594456 L10.3913868,40.2539331 C17.40713,44.8688146 24.7715848,49.0852891 32.3436059,52.8909064 L32.3436059,34.1989761 C37.8109041,37.4484835 43.6061571,40.3950356 49.6504897,43.0510825 L49.6504897,35.1908436 L41.4142562,22.591221 L41.4142562,5.33106599 L97.1914907,5.33106599 L97.1914907,56.4184687 C99.2090358,56.7048238 101.239035,56.9579783 103.285639,57.1862323 L124.988779,22.9813279 L146.69607,57.1820822 C148.742674,56.9579783 150.772673,56.7048238 152.786067,56.4184687 L152.786067,5.33106599 L208.567453,5.33106599 L208.567453,22.591221 L200.331219,35.1908436 L200.331219,43.0510825 C206.375552,40.3950356 212.166653,37.4484835 217.633952,34.1989761 L217.633952,52.8909064 C225.205973,49.0894392 232.570427,44.8688146 239.590322,40.2539331 L240.520219,40.9594456 L240.520219,40.9594456 Z" id="Shape" fill="#660000" transform="translate(124.988779, 75.793086) scale(-1, 1) rotate(-180.000000) translate(-124.988779, -75.793086) "></path>
                <path d="M124.995421,42.6468654 C95.5585246,42.6468654 64.9340165,50.2229072 38.5448587,63.9679501 L38.5448587,107.620081 C65.1259739,94.3026621 95.6339127,86.992889 124.995421,86.992889 C154.353608,86.992889 184.860883,94.3023301 211.439341,107.620081 L211.439341,63.9679501 C185.045201,50.2229072 154.42335,42.6468654 124.995421,42.6468654 Z M49.6471686,45.4287093 C38.1895051,49.9234047 27.8002272,55.1232806 17.9283707,61.3025738 L25.5306135,77.9095073 L18.7327319,99.6455994 C23.1746522,97.0974543 27.7251712,94.7100001 32.3414472,92.4606604 L32.3414472,60.5894252 L32.6722549,60.0447364 L34.1511569,59.2601069 C39.1742631,56.5833096 44.3544554,54.1442285 49.6472317,51.9197892 L49.6472317,45.4287425 L49.6471686,45.4287093 Z M200.33371,45.4287093 L200.33371,51.919756 C205.626818,54.1400453 210.806679,56.5834424 215.829785,59.2600737 L217.308687,60.0447032 L217.633022,60.589392 L217.633022,92.4606272 C222.249298,94.7099669 226.802141,97.0974211 231.248047,99.6455662 L224.450165,77.9094741 L232.045766,61.3025406 C222.17391,55.1272315 211.791274,49.9273556 200.33361,45.4286761 L200.33371,45.4287093 Z" id="Shape" fill="#FFFFFF" transform="translate(124.987068, 75.133473) rotate(-360.000000) translate(-124.987068, -75.133473) "></path>
                <path d="M126.446725,48.513409 C123.89781,48.4845245 121.349559,48.5034489 118.838172,48.5782498 L109.341928,75.3073781 C109.341928,75.3073781 109.190388,75.7182354 109.18627,75.7223854 L108.73869,75.7612965 L106.598166,75.9688002 L106.598166,81.4611732 C110.309453,81.108417 114.061588,80.8594126 117.793798,80.7349104 L117.793798,75.2295891 L116.198127,75.2879558 C116.198127,75.2879558 115.151461,75.3268668 115.14731,75.3268668 L116.98947,70.2949859 L117.456478,70.2753976 C120.628092,70.1591955 123.855832,70.1236709 127.056339,70.1651716 L127.555794,70.1781199 C127.555794,70.1781199 129.302473,75.1711561 129.29417,75.1711561 L128.295261,75.1582079 L126.699591,75.1256713 L126.699591,80.6309926 C130.622429,80.6807934 134.581799,80.8597778 138.504969,81.1627332 L138.504969,75.664052 C137.666401,75.6018009 136.876885,75.5452603 136.150403,75.4954594 L135.689871,75.4565483 L135.534213,75.0220855 L126.446791,48.513409 L126.446725,48.513409 Z M136.760283,48.9284164 L136.760283,58.1688036 C138.561959,58.2850057 140.372602,58.4419449 142.16996,58.616248 L142.16996,54.9070784 L142.941842,54.9783933 C144.461227,55.131946 145.961152,55.3057179 147.38509,55.484171 L147.994804,55.5619932 L147.994804,75.8585078 C147.994804,75.8585078 147.996621,76.6449633 147.988162,76.6366632 L147.209771,76.5458928 L145.263828,76.3124595 L145.263828,81.8048325 C149.394565,82.2779409 153.542239,82.8952726 157.627145,83.6464358 L157.627145,78.167011 L155.486621,77.7779333 C155.486621,77.7779333 154.913473,77.6783316 154.909321,77.6741815 L154.909321,56.5801888 L155.726601,56.7228517 C157.304106,56.9967565 158.770056,57.2665113 160.202397,57.5528664 L160.766711,57.6566182 L160.766711,61.3720959 C162.539328,61.7331522 164.314934,62.1154902 166.079082,62.5263474 L166.079082,53.3118566 C156.448002,51.070817 146.599061,49.596379 136.760415,48.9283832 L136.760283,48.9284164 Z M108.531257,49.1748311 C98.7009133,50.0214461 88.8665849,51.6640783 79.2643986,54.0835379 L79.2643986,63.2980287 C81.0287127,62.8581209 82.799669,62.4348134 84.5638171,62.0530067 L84.5638171,58.337529 L85.1151798,58.2207958 C86.5266311,57.9095403 87.9645512,57.6247456 89.5129299,57.3259404 L90.3431954,57.1638219 L90.3431954,77.6870965 C90.3431954,77.6870965 90.345012,78.2642223 90.3365533,78.2642223 L89.7787145,78.3744483 L87.6381905,78.7959297 L87.6381905,84.2753546 C91.714794,83.45364 95.8508444,82.759283 99.9689612,82.2197734 L99.9689612,76.7274004 L98.0489889,76.9867966 C98.0489889,76.9867966 97.2488122,77.0970225 97.2446609,77.0970225 L97.2446609,56.015978 L97.8478986,55.9316817 C99.3963437,55.7075778 100.906663,55.5052534 102.342956,55.3351004 L103.121346,55.24433 L103.121346,58.9598076 C104.91472,58.756454 106.721045,58.5728216 108.531024,58.4151188 L108.531024,49.1747315 L108.531257,49.1748311 Z M170.957257,54.5181335 L170.957257,60.0105066 L173.175627,60.6005806 C173.175627,60.6005806 173.698694,60.7367694 173.694543,60.7367694 L173.694543,80.9489546 C173.694543,80.9489546 173.692208,81.8567914 173.6879,81.8567914 L172.80576,81.6233581 L170.957124,81.1305286 L170.957124,86.584057 C179.645686,88.8458469 188.257532,91.7600284 196.585095,95.2666744 L196.585095,87.4270199 C194.423083,86.5140037 192.227861,85.6375082 190.042603,84.8041735 L190.042603,86.2372436 L190.042603,87.242325 L189.095569,86.8856843 C186.40966,85.8772165 183.651352,84.9164579 180.903173,84.0324923 L180.42318,83.8768811 L180.42318,75.4731486 L181.337767,75.7649486 C184.061038,76.6447641 186.783645,77.6091416 189.465402,78.6051592 L189.465402,73.6898123 C186.638348,72.6232435 183.759486,71.6194569 180.903372,70.6939906 L180.423379,70.5383794 L180.423379,62.7375696 L181.337967,63.0293695 C184.065389,63.905035 186.844619,64.8727657 189.588813,65.9019839 C189.588813,65.9019839 190.042868,66.0747265 190.042868,66.0705765 L190.042868,68.0353872 C192.230618,68.8612518 194.420692,69.7420966 196.587685,70.6551127 L196.587685,63.2693102 C188.27241,59.7417478 179.656911,56.8001759 170.959715,54.5216196 L170.957257,54.5181335 Z M122.400011,55.270326 L123.048648,57.1443331 L125.526459,64.3292721 L125.850794,65.2565645 L124.858361,65.2565645 C123.189527,65.2482643 121.484494,65.2691807 119.799055,65.3149311 L118.780685,65.3408276 L119.124481,64.3811314 L121.725537,57.1314513 L122.400111,55.2703924 L122.400011,55.270326 Z M69.76118,56.7487814 C65.5351287,58.0602045 61.3253507,59.5210303 57.2487472,61.1063584 L51.9622809,68.4858528 L51.9622809,77.0130914 L55.484267,79.3864022 C59.1998711,77.9131261 63.1562521,76.4953615 67.2700515,75.1715877 L68.1781626,74.8733136 L68.1781626,84.1654938 L67.6916935,84.321105 C64.8978502,85.2175208 62.1272543,86.1829275 59.4537995,87.1872452 L58.5067655,87.5438859 L58.5067655,83.757027 C56.3065619,84.5953418 54.1163216,85.4767178 51.9619488,86.3897339 L51.9619488,90.2609223 C53.5768151,91.2361896 55.2152942,92.2493387 56.8591866,93.2827069 C60.972986,91.6807786 65.1880778,90.2087974 69.3975237,88.9055416 L74.9111507,81.9410545 L74.9111507,71.5788194 L71.0258404,69.0369161 C67.4264735,70.1242353 63.6384703,71.4149081 59.4539323,72.9794858 L58.5068983,73.3361265 L58.5068983,66.1123428 L58.9609539,65.9437502 C61.7589485,64.8937817 64.5552826,63.9231957 67.2702507,63.0516803 L68.1783619,62.7534063 L68.1783619,65.1202429 C70.399322,64.4147304 72.6528286,63.7455394 74.9111507,63.1230284 L74.9111507,60.1531363 C73.1841985,58.9952659 71.4589068,57.8444007 69.7608479,56.7487482 L69.76118,56.7487814 Z" id="Shape" fill="#660000" transform="translate(124.274817, 71.883605) rotate(-360.000000) translate(-124.274817, -71.883605) "></path>
            </g>
        </g>
    </g>
</svg>