<?xml version="1.0" encoding="UTF-8" standalone="no"?>
<svg width="250px" height="250px" viewBox="0 0 250 250" version="1.1" xmlns="http://www.w3.org/2000/svg" xmlns:xlink="http://www.w3.org/1999/xlink">
    <!-- Generator: Sketch 47.1 (45422) - http://www.bohemiancoding.com/sketch -->
    <title>NDAK</title>
    <desc>Created with Sketch.</desc>
    <defs></defs>
    <g id="Page-1" stroke="none" stroke-width="1" fill="none" fill-rule="evenodd">
        <g id="NDAK" fill-rule="nonzero">
            <g transform="translate(0.000000, 64.000000)" id="Shape">
                <path d="M246.666667,14.8739726 L246.166667,14.1052055 C245.833333,13.6038356 245.45,13.1024658 245.066667,12.6345205 C242.348687,9.43725044 238.924719,6.91946144 235.066667,5.28109589 C229.267834,2.82742873 223.026888,1.59857636 216.733333,1.67123288 L0,1.67123288 L40.3,28.5112329 L21.6333333,94.3410959 L60.5,94.3410959 L69.7333333,61.8523288 L120.166667,120.880274 L127.683333,94.3410959 L198.033333,94.3410959 C203.370824,94.2138276 208.656146,93.2553526 213.7,91.5 C214.433333,91.2437443 215.15,90.976347 215.85,90.6978082 C216.8,90.2967123 217.75,89.8789041 218.666667,89.4443836 L220.033333,88.7424658 C228.983333,84.029589 235.033333,77.4950685 236.983333,70.3589041 L248.65,29.229863 C250.055549,24.3850243 249.334102,19.1690748 246.666667,14.8906849" fill="#FFFFFF"></path>
                <path d="M208.466667,59.930411 L208.466667,59.930411 C196.325459,62.149297 184.50309,65.8595222 173.266667,70.9772603 L170.5,72.2473973 C169.15,72.8824658 167.816667,73.5175342 166.533333,74.1526027 C165.683333,74.5871233 164.866667,75.0049315 164.016667,75.4394521 C162.35,76.2917808 160.783333,77.1106849 159.283333,77.9630137 L157.083333,79.1830137 L155,80.3863014 C153.65,81.1717808 152.366667,81.9405479 151.183333,82.6591781 L149.516667,83.7287671 C147.316667,85.1158904 145.483333,86.3358904 144.05,87.3219178 C141.733333,88.9931507 140.466667,89.8956164 140.466667,89.8956164 L161.716667,89.8956164 C170.268481,80.919187 180.096998,73.2600988 190.883333,67.1668493 C192.033333,66.5150685 193.15,65.930137 194.216667,65.3953425 C195.883333,64.5931507 197.3,63.8912329 198.683333,63.3063014 L200.016667,62.7380822 L201.983333,61.9526027 L204.483333,61.0668493 C205.316667,60.7827397 206.033333,60.5654795 206.633333,60.3983562 L206.966667,60.3147945 L207.733333,60.1142466 L207.933333,60.1142466 L208.533333,59.9638356 L208.466667,59.930411 Z" fill="#231F20"></path>
                <path d="M242.883333,17.1969863 C242.766667,16.9964384 242.633333,16.8126027 242.5,16.6120548 C242.235347,16.2099447 241.945894,15.8248106 241.633333,15.4589041 C239.361946,12.8041715 236.510155,10.7109417 233.3,9.34219178 C228.081407,7.13686397 222.462395,6.04413045 216.8,6.13342466 L158.3,6.13342466 L155.083333,17.5646575 C163.8,19.469863 172.683333,21.5923288 181.533333,23.9153425 C190.916667,26.3887671 200.05,29.6309589 205.866667,33.7254795 C209.816667,36.5164384 211.566667,37.4857534 217.833333,41.7808219 C223.816667,45.8753425 227.016667,51.4071233 227.016667,56.6882192 C227.109565,59.6750699 225.724661,62.5150194 223.316667,64.2756164 C223.798998,63.6295846 223.953509,62.7950491 223.734569,62.0184671 C223.515629,61.2418851 222.948253,60.6119865 222.2,60.3147945 C220.083333,59.0780822 215.233333,58.8942466 208.516667,59.930411 L207.916667,60.0641096 L207.716667,60.0641096 L206.95,60.2646575 L206.616667,60.3482192 C206.016667,60.5153425 205.3,60.7326027 204.466667,61.0167123 L201.966667,61.9024658 L200,62.6879452 C198.333333,63.4065753 196.333333,64.3591781 194.2,65.3452055 C193.116667,65.88 192,66.4816438 190.866667,67.1167123 C180.080331,73.2099618 170.251815,80.86905 161.7,89.8454795 L197.983333,89.8454795 C202.860846,89.733684 207.691124,88.8597093 212.3,87.2550685 C212.95,87.0210959 213.6,86.7871233 214.25,86.519726 C214.9,86.2523288 215.916667,85.8010959 216.8,85.3832877 C217.216667,85.1827397 217.633333,84.9821918 218.033333,84.7482192 C225.533333,80.8041096 231.066667,75.2389041 232.783333,69.0887671 L244.35,28.0265753 C245.412126,24.3673285 244.866421,20.4274858 242.85,17.1969863" fill="#00A160"></path>
                <path d="M90.9,6.13342466 C105.9,8.25589041 125,11.3309589 145.466667,15.5424658 L148.1,6.13342466 L90.9,6.13342466 Z" fill="#00A160"></path>
                <path d="M127.683333,65.1112329 C126.333333,64.5764384 125.016667,63.9915068 123.716667,63.44 C121.783333,62.5542466 119.916667,61.6183562 118.116667,60.6490411 C116.933333,60.0139726 115.783333,59.3789041 114.666667,58.7271233 L113,57.7578082 C111.933333,57.1060274 110.9,56.4542466 109.916667,55.8191781 C108.933333,55.1841096 108,54.5657534 107.116667,53.9473973 C103.631081,51.5964053 100.291562,49.0346743 97.1166667,46.2764384 L124.983333,48.850137 C98.5166667,41.9980822 78.3166667,24.4835616 78.3166667,24.4835616 L107.616667,28.4945205 C89.443944,23.7783737 72.7330522,14.587191 59,1.75479452 C59.2455004,3.30346612 59.7468198,4.80024815 60.4833333,6.18356164 L14.7,6.18356164 L45.45,26.6728767 L27.5,89.8621918 L57.15,89.8621918 L67.6833333,52.6605479 L118.116667,111.688493 L124.35,89.8621918 L129.816667,70.5594521 L132.1,70.5594521 L133.566667,70.5594521 L134.983333,70.4758904 L136.316667,70.3756164 L137.583333,70.2586301 C138.6,70.1583562 139.5,70.0413699 140.266667,69.9410959 C141.033333,69.8408219 141.933333,69.6736986 142.416667,69.6068493 L142.816667,69.6068493 C142.033333,69.4731507 141.266667,69.3227397 140.5,69.1556164 C136.13164,68.2124931 131.854151,66.8871448 127.716667,65.1947945" fill="#00A160"></path>
                <path d="M217.8,41.7808219 C211.533333,37.4857534 209.783333,36.5164384 205.833333,33.7254795 C200.016667,29.6309589 190.833333,26.3887671 181.5,23.9153425 C172.65,21.5923288 163.766667,19.469863 155.05,17.5646575 C151.833333,16.8627397 148.633333,16.1775342 145.466667,15.5424658 C125,11.3309589 105.883333,8.25589041 90.9,6.13342466 C71.9,3.4260274 59.0333333,1.68794521 59.0333333,1.68794521 C72.7663856,14.5203417 89.4772774,23.7115244 107.65,28.4276712 L78.35,24.4167123 C78.35,24.4167123 98.5833333,41.9312329 125.016667,48.7832877 L97.1833333,46.2430137 C100.353114,49.0075405 103.693031,51.5695766 107.183333,53.9139726 C108.066667,54.5323288 109,55.1506849 109.983333,55.7857534 C110.966667,56.4208219 112,57.0726027 113.066667,57.7243836 L114.733333,58.6936986 C115.85,59.3454795 117,59.9805479 118.183333,60.6156164 C119.983333,61.5849315 121.85,62.5208219 123.783333,63.4065753 C125.083333,64.0082192 126.4,64.5764384 127.75,65.0778082 C131.887485,66.7701585 136.164973,68.0955068 140.533333,69.0386301 C141.3,69.2057534 142.066667,69.3561644 142.85,69.489863 L142.45,69.489863 C142.033333,69.489863 141.283333,69.690411 140.3,69.8241096 C139.316667,69.9578082 138.633333,70.0413699 137.616667,70.1416438 L136.35,70.2586301 L135.016667,70.3589041 L133.6,70.4424658 L132.133333,70.4424658 L129.85,70.4424658 L124.35,89.8621918 L140.4,89.8621918 C140.4,89.8621918 141.666667,88.8928767 143.983333,87.2884932 C145.416667,86.3024658 147.316667,85.0824658 149.45,83.6953425 L151.116667,82.6257534 C152.316667,81.9071233 153.583333,81.1383562 154.933333,80.3528767 L157.016667,79.149589 L159.216667,77.929589 C160.716667,77.0939726 162.3,76.2583562 163.95,75.4060274 C164.766667,74.9715068 165.616667,74.5536986 166.466667,74.1191781 C167.75,73.4841096 169.083333,72.8490411 170.433333,72.2139726 L173.2,70.9605479 C184.432862,65.8297208 196.256178,62.1135848 208.4,59.8969863 L208.4,59.8969863 C215.066667,58.8775342 219.966667,59.0613699 222.1,60.2980822 C222.8407,60.6040777 223.399371,61.2353754 223.614284,62.0092226 C223.829197,62.7830699 223.676354,63.6130537 223.2,64.2589041 C225.607994,62.4983071 226.992898,59.6583576 226.9,56.6715068 C226.9,51.390411 223.7,45.8586301 217.716667,41.7641096 L217.8,41.7808219 Z M203.6,43.5690411 C202.525688,43.1956045 201.402704,42.981653 200.266667,42.9339726 L199.666667,42.9339726 C198.860968,43.0268139 198.067534,43.2061057 197.3,43.4687671 L196.266667,43.769589 C195.866667,43.8531507 195.433333,43.9534247 194.95,44.020274 C194.287138,44.1103664 193.618922,44.1550361 192.95,44.1539726 C190.79476,44.3459831 188.65868,43.6178474 187.066667,42.1484932 C185.066667,39.7753425 188.1,37.9536986 188.1,37.9536986 C186.115781,37.6863081 184.118235,37.5300838 182.116667,37.4857534 L174.95,32.7060274 C177.633333,33.090411 180.1,33.5583562 182.35,34.059726 C184.016667,34.4441096 185.683333,34.8619178 187.083333,35.279726 C190.234652,36.1829907 193.306201,37.3456632 196.266667,38.7558904 C196.816667,39.0065753 197.316667,39.2739726 197.8,39.5246575 L198.45,39.8923288 C200.359977,40.8689052 202.122004,42.1124562 203.683333,43.5857534 L203.6,43.5690411 Z" fill="#FFFFFF"></path>
                <path d="M188.166667,38.0539726 C188.166667,38.0539726 185.133333,39.8756164 187.133333,42.2487671 C188.727936,43.7151344 190.860265,44.4480484 193.016667,44.2709589 C193.685621,44.2585176 194.353345,44.208301 195.016667,44.1205479 C195.5,44.1205479 195.933333,43.9534247 196.333333,43.869863 L197.366667,43.5690411 C198.134201,43.3063796 198.927634,43.1270879 199.733333,43.0342466 L200.333333,43.0342466 C201.46937,43.0819269 202.592354,43.2958785 203.666667,43.6693151 C202.122595,42.218873 200.383466,40.9925225 198.5,40.0260274 L197.85,39.6583562 C197.366667,39.4076712 196.866667,39.140274 196.316667,38.889589 C193.356201,37.4793618 190.284652,36.3166893 187.133333,35.4134247 C185.666667,34.9956164 184.1,34.5778082 182.4,34.1934247 C180.15,33.6920548 177.683333,33.2241096 175,32.839726 L182.166667,37.6194521 C184.168235,37.6637824 186.165781,37.8200067 188.15,38.0873973" fill="#010101"></path>
            </g>
        </g>
    </g>
</svg>