<?xml version="1.0" encoding="UTF-8" standalone="no"?>
<svg width="250px" height="250px" viewBox="0 0 250 250" version="1.1" xmlns="http://www.w3.org/2000/svg" xmlns:xlink="http://www.w3.org/1999/xlink">
    <!-- Generator: Sketch 47.1 (45422) - http://www.bohemiancoding.com/sketch -->
    <title>FURMAN</title>
    <desc>Created with Sketch.</desc>
    <defs></defs>
    <g id="Page-1" stroke="none" stroke-width="1" fill="none" fill-rule="evenodd">
        <g id="FURMAN" fill-rule="nonzero">
            <g id="Furman_Paladins_logo" transform="translate(0.000000, 2.000000)">
                <g id="Group" transform="translate(125.405629, 123.831544) scale(-1, 1) rotate(-180.000000) translate(-125.405629, -123.831544) translate(1.233444, 1.574832)">
                    <g id="Shape">
                        <path d="M123.402318,1.03607383 C123.402318,1.03607383 130.360099,52.5558809 169.10596,85.0658054 C169.10596,85.0658054 197.419288,110.816384 246.680464,122.053641 L246.773593,122.086795 C197.489652,133.253599 169.141142,158.960663 169.141142,158.960663 C130.339404,191.420856 123.462334,242.903364 123.462334,242.903364 L123.408526,242.886787 C123.408526,242.886787 116.529387,191.406351 77.7338576,158.944086 C77.7338576,158.944086 49.3832781,133.239094 0.101407285,122.068146 L0.198675497,122.037064 C49.4515728,110.801879 77.7690397,85.0595889 77.7690397,85.0595889 C116.523179,52.543448 123.371275,1.03607383 123.371275,1.03607383 L123.402318,1.03607383" fill="#512888"></path>
                        <path d="M212.727649,122.1013 C143.561672,146.098842 123.385762,209.338716 123.385762,209.338716 L123.377483,209.315923 C123.377483,209.315923 103.162252,146.063616 33.9983444,122.068146 L34.0190397,122.047424 C103.182947,98.0498826 123.39197,34.7229782 123.39197,34.7229782 L123.408526,34.7043289 C123.408526,34.7043289 143.605132,98.0581711 212.76904,122.059857 L212.727649,122.1013" fill="#FFFFFF"></path>
                        <path d="M193.460265,122.068146 C142.665563,99.0818121 123.412666,52.2927181 123.412666,52.2927181 L123.410596,52.2927181 C123.410596,52.2927181 104.161838,99.0362248 53.3609272,122.020487 L53.321606,122.057785 C104.118377,145.044119 123.371275,191.789698 123.371275,191.789698 L123.385762,191.789698 C123.385762,191.789698 142.630381,145.081418 193.425083,122.093012 L193.460265,122.068146" fill="#512888"></path>
                        <path d="M100.022765,93.383406 L100.111755,100.329245 C102.357202,100.741602 104.77856,102.942223 104.803394,105.302399 L104.803394,134.569413 C104.693709,136.604262 103.358858,138.527215 100.111755,138.479555 L100.111755,147.953414 L148.069123,147.953414 L148.069123,129.067861 L141.181705,129.080294 C141.098924,135.014924 136.009934,138.603884 133.093957,138.479555 L118.300911,138.479555 L118.300911,123.187106 L123.644454,123.226477 C125.734685,123.313507 127.826987,125.321418 127.99048,128.995336 L134.648179,129.034706 L134.648179,108.402332 L128.071192,108.433414 C128.071192,113.44594 125.819536,114.784547 123.737583,114.780403 L118.300911,114.780403 L118.220199,105.50547 C118.141556,101.914438 121.647351,100.318884 123.733444,100.318884 L123.814156,93.5491779 L100.022765,93.383406" fill="#FFFFFF"></path>
                    </g>
                </g>
            </g>
        </g>
    </g>
</svg>