<?xml version="1.0" encoding="UTF-8" standalone="no"?>
<svg width="250px" height="250px" viewBox="0 0 250 250" version="1.1" xmlns="http://www.w3.org/2000/svg" xmlns:xlink="http://www.w3.org/1999/xlink">
    <!-- Generator: Sketch 47.1 (45422) - http://www.bohemiancoding.com/sketch -->
    <title>LAMAR</title>
    <desc>Created with Sketch.</desc>
    <defs></defs>
    <g id="Page-1" stroke="none" stroke-width="1" fill="none" fill-rule="evenodd">
        <g id="LAMAR" fill-rule="nonzero">
            <g id="Lamar_Cardinals_logo" transform="translate(0.000000, 52.000000)">
                <g id="Group" transform="translate(125.016447, 73.010977) scale(-1, 1) rotate(-180.000000) translate(-125.016447, -73.010977) translate(0.975877, 0.285414)">
                    <g transform="translate(0.836075, 0.782143)" id="Shape">
                        <path d="M120.387884,0.512501556 C104.516173,0.493481488 92.5479715,4.12177524 87.5644189,5.85116171 L93.6038925,7.54278577 C83.2047697,9.50094216 74.8478618,13.1731166 74.8478618,13.1731166 L80.0722588,15.5315655 C66.1210526,20.7672572 55.7137061,36.7531595 55.7137061,36.7531595 C60.9264254,34.8612519 67.2093202,33.2568437 73.2104167,32.4661933 C69.5614035,36.7355955 66.7794956,41.6943813 64.4406798,46.7829752 C62.6535088,47.572473 58.0300439,49.8284474 52.8891447,54.6109903 L47.6615132,54.6109903 L47.6615132,60.2775467 C43.5463268,65.4610407 39.5885965,72.4273813 36.9158991,81.70387 C39.8279057,78.826188 43.7804825,76.2708038 47.6615132,74.2095692 L47.6615132,78.2167752 L48.2001206,80.4723106 C47.6386075,82.596391 47.0766009,84.720691 46.5157456,86.8452655 L34.2070833,86.8452655 L34.2070833,66.372882 L30.828739,54.6072579 L0.21689693,54.6072579 L0.21689693,77.1873106 L2.95044956,84.1799422 L2.95044956,100.355754 L0.209221491,100.982896 L0.209221491,123.81049 L19.5113048,142.422745 L22.3435417,141.829908 C53.7941996,135.230818 86.3950768,131.757006 119.816129,131.757006 C155.820515,131.757006 190.868761,135.787704 224.558454,143.412856 L227.157248,144.003552 L246.304178,125.561447 L246.304178,102.625725 L241.875395,101.555863 L238.873969,94.754788 L242.0692,85.3361414 L242.0692,67.5159083 L230.205713,54.6152166 L192.354287,54.6152166 L189.801546,66.4587805 L189.801546,73.8844722 L184.728136,54.6152166 L165.012675,54.6152166 C172.688114,48.6242767 183.77693,40.1573745 186.729232,38.2050361 C184.972379,35.0891437 181.621612,30.1130136 179.244583,27.4432993 C176.67068,24.5534873 173.646996,21.6505023 169.97375,20.2470361 C169.710866,19.6647376 169.309386,19.0144888 168.68773,18.37637 C167.442664,17.1888301 165.794035,16.5688241 164.16898,16.097288 C162.595515,10.6815662 156.192007,7.67100231 151.318103,5.88058126 C143.752314,3.10219028 135.435428,1.32181359 127.414594,0.76575118 C124.996831,0.598004864 122.65034,0.520816969 120.386086,0.518100052 L120.387884,0.512501556 Z M121.848465,3.04033238 C124.668586,3.08611656 127.517325,3.27851547 130.271162,3.67713389 C145.973465,5.9465008 153.976206,9.08407374 157.952083,12.1105549 C159.931689,13.6183068 160.964364,14.963373 161.430044,15.9151173 C161.867067,16.8157617 162.035033,18.1803128 162.035033,18.1803128 C162.035033,18.1803128 165.688322,18.9285903 166.901809,20.1678339 C167.90773,21.1924685 167.944792,22.2700692 167.944792,22.2700692 C173.900932,23.6284181 180.912993,33.0158888 183.367489,37.3832647 C181.818202,38.4097655 165.953015,50.4974677 157.968366,56.9423249 L182.93602,56.9423249 L192.834594,94.5219564 C193.342681,94.5559865 194.775932,94.7695966 194.775932,94.7695966 L194.775932,85.9124462 L192.140735,85.9124462 L192.140735,66.7030176 L194.241612,56.9424237 L229.190077,56.9424237 L239.743805,68.4215364 L239.743805,84.9486267 L236.379386,94.8607094 L240.213925,103.548258 L243.980976,104.458398 L243.980976,124.540533 L226.450822,141.445248 L225.07807,141.133291 C191.223904,133.467742 155.999123,129.420358 119.820395,129.420358 C86.2381579,129.420358 52.2052632,133.06734 20.2425439,139.88296 L2.54517544,122.818524 L2.54517544,102.839576 L5.2875,102.214576 L5.2875,83.7384404 C4.22637061,81.0261336 2.55164474,76.7501998 2.55164474,76.7501998 L2.55164474,56.944696 L29.0785088,56.944696 L31.8807566,66.70529 L31.8807566,85.921305 L29.2208882,85.921305 L29.2208882,89.1813313 L46.646875,89.1813313 L47.4735197,92.3652291 C48.5182018,88.4124712 49.5624452,84.4587253 50.6077303,80.5035524 L49.9973684,77.9478937 L49.9973684,69.8185479 C46.4278509,71.4388185 43.6996711,73.0966321 42.7446272,73.8611013 C44.7873355,68.8787689 47.3363487,64.8118456 49.9973684,61.503793 L49.9973684,56.9455742 L54.1777412,56.9455742 C60.5713816,50.8470554 66.4430921,48.7382885 66.4430921,48.7382885 C66.4430921,48.7382885 69.4820724,41.7033937 73.3734649,36.4347697 C75.6626645,33.3370449 79.6256579,29.3795667 79.6256579,29.3795667 C79.6256579,29.3795667 71.3257675,29.5465555 62.8455044,32.0413772 C67.5610197,26.1541742 72.358114,22.3499411 76.2336623,20.1654298 C80.1369518,17.9551216 85.6382675,16.321184 85.6382675,16.321184 C85.6382675,16.321184 83.7225329,14.3646742 81.4279057,13.3302697 C89.8681469,9.95607795 102.390625,9.03150276 102.390625,9.03150276 C102.390625,9.03150276 99.1912829,6.47024562 96.6811952,5.76829298 C97.932511,5.38655238 109.628564,2.83945614 121.848958,3.03787344 L121.848465,3.04033238 Z M134.908772,18.8709038 C134.252083,18.8694219 133.58898,18.9204066 132.881743,19.0209874 C129.729276,19.4725007 127.503728,23.0918077 126.71398,25.0234536 C127.416941,24.5809967 129.522588,23.4992355 132.191064,24.4241949 C133.887829,25.0142874 135.20614,26.005825 136.265406,27.2511062 C138.587993,29.9664867 140.095066,30.6096002 141.587226,30.8927634 C142.253783,30.4387802 143.276919,29.5913325 143.276919,29.5913325 C143.276919,29.5913325 142.63591,29.714214 142.364583,29.6856727 C141.713816,29.6394961 141.073904,29.5049895 140.469298,29.2783052 C139.420943,28.8728973 138.47807,28.2042722 137.762336,27.3497331 C136.897862,26.4217 136.24841,25.2732947 135.969846,23.9653872 C135.600674,22.2551564 136.061667,20.3968947 136.898246,19.0373383 C136.215899,18.9264003 135.565406,18.8726876 134.908717,18.8711782 L134.908772,18.8709038 Z M145.020066,21.614167 C144.971491,22.4491113 144.791639,24.0652655 144.118476,24.5193474 C144.118476,24.5193474 146.150548,23.9410557 146.352138,22.2241835 C145.895038,22.0162982 145.448684,21.8141321 145.020066,21.6142219 L145.020066,21.614167 Z M6.33585526,60.7322873 L6.33585526,72.9562196 L9.07171053,72.9562196 L9.07171053,105.240881 C8.15625,105.445133 7.24183114,105.651525 6.32938596,105.860503 L6.32938596,118.034488 C7.28492325,117.810274 8.24287281,117.592854 9.20016447,117.37414 L9.20016447,105.22705 C10.0123904,105.084755 10.9195175,104.938831 11.9242873,104.760722 L11.9242873,72.9563239 L9.21732456,72.9563239 L9.21732456,60.7323916 L6.33580044,60.7323916 L6.33585526,60.7322873 Z M94.5156798,60.7322873 L94.5156798,72.9584151 L97.2419408,72.9584151 L97.2419408,73.4579766 L97.2419408,93.2969616 L97.2419408,93.6614456 C96.3319079,93.6996471 95.4238487,93.7418664 94.5156798,93.7868739 L94.5156798,105.552498 C95.4680921,105.503209 96.4257675,105.472368 97.3800439,105.429216 L97.3800439,93.6553586 C98.1236842,93.6249511 99.4389803,93.5927762 100.107346,93.5642349 L100.107346,72.9590243 L97.3800439,72.9590243 L97.3800439,60.7328965 L94.5156798,60.7328965 L94.5156798,60.7322873 Z M53.7826754,60.733385 L53.7826754,72.9298737 L56.5260417,72.9298737 C56.5260417,72.9298737 51.1241228,93.3632873 49.9202303,97.9150843 C49.0059759,98.0409132 48.0919408,98.1681692 47.1790022,98.2988667 L47.1790022,110.251656 C48.1168311,110.114987 49.0720943,109.980151 50.0337171,109.846435 L50.0337171,97.9084649 C51.176261,97.7777619 52.2064693,97.6786411 52.7717105,97.6190171 C53.9748355,93.0645307 59.3808114,72.9296487 59.3808114,72.9296487 L56.6395833,72.9296487 L56.6395833,60.73316 L53.7827303,60.73316 L53.7826754,60.733385 Z M127.795833,60.733385 L119.867654,74.6182046 L123.147478,74.6149113 L131.083333,60.733385 L127.795998,60.733385 L127.795833,60.733385 Z M155.956469,60.733385 L155.956469,72.9940918 L158.675219,72.9940918 L153.097368,94.2425805 C152.191064,94.1829565 151.283882,94.1272625 150.377577,94.0731985 L150.377577,105.879439 C151.291721,105.937828 152.253947,106.00327 153.244079,106.07133 L153.244079,94.2365484 C153.937281,94.288801 154.883059,94.3663237 156.002412,94.4295099 L161.630702,72.9944046 L158.814529,72.9944046 L158.814529,60.7336979 L155.956579,60.7336979 L155.956469,60.733385 Z M198.027741,60.733385 L198.027741,72.950182 L200.744353,72.950182 L200.744353,99.5370016 C199.831414,99.3912101 198.917928,99.2459731 198.003125,99.1049788 L198.003125,111.098934 C198.959265,111.250834 199.909923,111.419206 200.864309,111.57598 L200.864309,99.5490932 L203.600164,99.9661043 L203.600164,72.9500667 L200.883553,72.9500667 L200.883553,60.7332698 L198.027741,60.7332698 L198.027741,60.733385 Z M151.65932,62.7712925 C150.724452,63.9017497 149.8142,65.1881414 148.949123,66.6230579 L148.949123,76.7470053 L148.19205,85.9203061 L146.216447,85.9203061 L146.216447,90.0475504 L150.224452,90.2662431 L151.316667,86.1078776 L151.316667,66.7030506 L151.65932,62.7708754 L151.65932,62.7712925 Z M68.9509868,72.9298188 L71.4009868,82.1382474 L70.5957237,83.2145309 L65.7654057,85.2674226 L68.7079496,85.2674226 L73.5383224,83.2145309 L74.3435855,82.1382474 L71.8925439,72.9298188 L68.9510965,72.9298188 L68.9509868,72.9298188 Z M171.105592,72.9298188 L173.55773,82.1382474 L172.750329,83.2145309 L167.920011,85.2674226 L170.85932,85.2674226 L175.688596,83.2145309 L176.495998,82.1382474 L174.04386,72.9298188 L171.105592,72.9298188 Z M219.113268,72.9834437 L222.071875,74.4542564 L223.5517,77.3937414 L223.5517,78.9106595 L222.079386,81.8372459 L220.496765,82.8792249 L213.658498,85.0072023 L216.52182,85.0072023 L223.358991,82.8792249 L224.94057,81.8372459 L226.41398,78.9106595 L226.41398,78.860273 L226.41398,77.3937414 L224.933059,74.4542564 L221.975548,72.9834437 L219.113322,72.9834437 L219.113268,72.9834437 Z M85.3742325,74.3663271 L89.5578399,90.2556279 C89.5578399,90.2556279 92.4891447,90.0766187 93.4544408,90.0444383 L93.4544408,85.9203774 L91.7004934,85.9203774 L90.8042215,77.4666481 C88.8955592,76.4881188 87.0982456,75.4347782 85.3742325,74.3663985 L85.3742325,74.3663271 Z M130.680702,78.0047459 L130.680702,105.075122 C131.636842,105.095211 132.589254,105.130454 133.542928,105.156591 L133.542928,78.0044331 L130.680702,78.0044331 L130.680702,78.0047459 Z M109.002522,78.0733549 L119.801316,96.8003249 L119.841996,96.8003249 L121.462116,93.9905933 L112.277906,78.0733001 L109.002357,78.0733001 L109.002522,78.0733549 Z M75.8188596,91.6398286 L72.8763158,91.6409264 L73.7490132,92.2123023 L77.1455592,106.786505 C78.1010965,106.704449 79.0689693,106.623627 80.0377741,106.546374 L76.6925987,92.2125767 L75.8188048,91.6401031 L75.8188596,91.6398286 Z M175.029386,91.6409264 L175.902083,92.2123023 L179.52352,108.525332 C180.526371,108.646293 181.494134,108.768049 182.443586,108.886606 L178.745066,92.2124176 L177.871327,91.6410416 L175.029441,91.6410416 L175.029386,91.6409264 Z M31.2574561,92.9691422 L31.2574561,100.818563 L34.127193,100.294346 L34.127193,92.9690982 L31.2574561,92.9690982 L31.2574561,92.9691422 Z M216.876974,93.3368426 L218.460691,94.1247486 L228.374068,116.913922 C229.543914,117.177721 230.721217,117.444165 231.895888,117.715769 L221.58284,94.1252426 L220.000219,93.3373366 L216.8767,93.3373366 L216.876974,93.3368426 Z M119.821053,108.8337 C80.9570175,108.8337 43.1379386,113.314143 6.85504386,121.78379 L21.1072368,135.830527 C52.9685307,129.145264 85.9866228,125.626993 119.829825,125.626993 C156.180702,125.626993 191.584211,129.685299 225.613816,137.36682 L239.73114,123.45291 C201.335307,113.903632 161.173026,108.831504 119.829825,108.831504 L119.821053,108.8337 Z M217.441667,111.689537 L217.441667,112.331662 L218.069134,112.462447 L218.069134,114.74367 L218.828344,114.901257 L218.828344,112.621077 L219.456908,112.749722 L219.456908,112.106498 L217.441667,111.689487 L217.441667,111.689537 Z M220.054386,112.22983 L219.558607,115.05246 L220.313542,115.208976 L220.557681,113.576301 L220.566234,113.577399 L221.236573,115.399819 L221.538536,115.463071 L222.239907,113.923649 L222.248459,113.925845 L222.460477,115.653914 L223.220729,115.810431 L222.778492,112.793774 L222.022516,112.637258 L221.395049,114.071625 L220.802889,112.384283 L220.054424,112.229912 L220.054386,112.22983 Z" fill="#FFFFFF" transform="translate(123.256700, 72.257989) scale(-1, 1) rotate(-180.000000) translate(-123.256700, -72.257989) "></path>
                        <path d="M146.408991,117.081297 C147.801604,117.974106 148.777138,119.532972 148.669751,121.339173 C148.147067,121.550695 147.62315,121.771959 147.111431,122.001662 C147.317229,120.455557 146.05688,118.899093 144.300713,118.632273 C142.541461,118.360032 140.957648,119.488033 140.73972,121.042027 C140.566132,122.2903 141.350466,123.494251 142.5858,124.051631 C141.809348,124.336633 140.210389,124.86108 140.06531,124.898815 C138.65392,123.888135 137.821615,122.08557 138.192571,120.307293 C138.560992,118.562429 139.968819,117.21927 141.599918,116.663811 C143.27659,116.101011 145.048588,116.210992 146.408991,117.081297" fill="#C8DF8E"></path>
                        <path d="M161.330866,87.4640663 C161.330866,87.4640663 155.972423,89.6525844 149.546875,95.0697881 L148.295121,96.1257084 L149.933443,96.0592455 C149.945559,96.0592455 167.048575,95.4872109 178.766776,101.373206 C178.766776,101.373206 176.789474,98.4281229 174.408662,96.1825222 C172.106086,94.0116778 168.086842,91.5330259 164.951425,90.4352816 C164.922314,90.370855 164.980044,87.5760417 161.331086,87.4636327 L161.330866,87.4640663 Z M153.583607,99.1276002 L151.570504,99.2637479 L153.368366,100.184591 C157.479934,102.282435 155.277961,108.114696 152.194792,113.055095 C150.463487,115.825801 150.278564,118.146158 150.560746,119.799087 C150.700959,120.618992 150.95489,121.263588 151.176425,121.707296 C151.408953,122.174661 151.977357,122.88331 151.977357,122.88331 L177.454879,103.712302 C177.454879,103.712302 167.37648,99.0476569 153.583717,99.1272983 L153.583607,99.1276002 Z" fill="#FCB034" transform="translate(163.530948, 105.173471) scale(-1, 1) rotate(-180.000000) translate(-163.530948, -105.173471) "></path>
                        <path d="M120.672971,24.8159733 C117.508827,24.779369 114.435581,24.9155003 111.557292,25.222265 C115.680428,26.7337492 118.431743,31.7895206 118.431743,31.7895206 C105.709704,29.125789 93.9202303,32.0800387 93.9202303,32.0800387 C97.0750548,33.2760311 98.3372259,36.4066883 98.3372259,36.4066883 C84.5345943,35.8384958 72.2111294,44.6644702 72.2111294,44.6644702 C81.8405154,41.149383 90.7166118,44.1327503 90.7166118,44.1327503 C83.3361294,47.7883488 78.0006031,54.2446225 74.819682,59.022006 C78.1396382,55.1968608 83.8224232,50.1752842 92.9030154,46.2618255 C99.2418311,43.5263014 105.09216,42.3680165 109.841612,41.9662421 C112.419243,38.6479804 117.691393,33.7671894 126.758827,33.0651819 C139.460033,32.0860488 148.647533,37.474327 150.356963,38.0650781 C152.063925,38.6539631 155.922204,39.9112646 157.508827,37.812081 C158.556086,36.4167381 158.974671,33.819475 148.784046,29.8364193 C140.474287,26.5873705 130.165077,24.9259893 120.672752,24.8161599 L120.672971,24.8159733 Z M126.908169,36.7144245 C122.749836,37.5305974 119.596217,40.6035132 118.671875,42.0123034 C120.638103,42.2207376 121.746107,42.4839932 121.746107,42.4839932 C122.502467,41.1700481 124.317434,38.3620729 126.908388,36.7142488 L126.908169,36.7144245 Z M110.726151,45.9069357 C105.497862,45.827256 98.8917215,46.4566312 92.2475329,49.0318846 C80.7870066,53.472041 74.520011,61.5072004 72.3533443,64.7603658 C77.815625,62.5038425 88.4975329,62.8307508 88.4975329,62.8307508 C74.7908443,65.3437621 65.7820724,70.3815854 60.1088268,74.9553372 L80.7837171,74.9553372 L83.7690789,86.2917433 C86.3636513,88.0067493 88.6140899,89.4694936 90.7257675,90.6977598 L90.7257675,74.9550079 L114.139693,74.9550079 L119.868311,84.9889402 L125.59693,74.9550079 L146.324452,74.9550079 C145.860016,72.7774673 146.081031,69.4245718 149.091393,64.9551057 C152.23898,60.283929 152.256743,56.4344139 151.204057,55.4996846 C149.098246,53.647241 145.948629,52.5156861 136.990241,57.4657448 C130.797259,60.8928478 126.774781,61.2486816 123.616886,59.5658395 C119.756031,57.5098192 121.764419,51.3788621 121.764419,51.3788621 C99.6383224,53.2367395 94.3779057,66.399847 94.3779057,66.399847 C96.7175439,52.0078696 115.618037,47.5965839 119.792928,46.7968771 C118.024397,46.45892 114.791886,45.9680252 110.725493,45.9060575 L110.726151,45.9069357 Z M9.21847588,78.7448605 L9.21847588,90.9687929 L11.9254386,90.9687929 L11.9254386,122.773191 C10.9207785,122.951235 10.0146382,123.096746 9.20241228,123.239519 L9.20241228,135.386609 C20.2873904,132.854771 31.5083333,130.688098 42.8575658,128.915955 L42.8575658,110.981007 L34.1273026,110.981007 L34.1273026,118.305158 L31.2575658,118.830445 L23.7762061,120.194063 L22.5469298,119.238916 L22.5469298,90.9687051 L25.2892544,90.9687051 L25.2892544,78.7447727 L9.21907895,78.7447727 L9.21847588,78.7448605 Z M97.3763706,78.7448605 L97.3763706,90.9698906 L100.103673,90.9698906 L100.103673,111.575101 C99.4352522,111.603697 98.120011,111.635208 97.3763706,111.666219 L97.3763706,123.440077 C101.240296,123.268076 105.113213,123.12987 108.997533,123.04665 L108.997533,96.0855001 L112.274178,96.0855001 L121.457292,112.002793 L130.675493,96.0168911 L133.537719,96.0168911 L133.537719,123.169049 C137.422862,123.272308 141.299781,123.409526 145.162171,123.606434 L145.162171,111.804585 C144.250329,111.758424 143.338651,111.715843 142.426316,111.67701 L142.426316,90.9708072 L145.158991,90.9708072 L145.158991,78.7457772 L131.08114,78.7457772 L123.144189,92.6273035 L119.865406,92.629499 L111.938322,78.7446794 L97.3758224,78.7446794 L97.3763706,78.7448605 Z M56.6356908,78.7459583 L56.6356908,90.942447 L59.3780154,90.942447 C59.3780154,90.942447 53.9718202,111.077823 52.767818,115.631815 C52.2032346,115.691302 51.172807,115.79056 50.0308662,115.921263 L50.0308662,127.859233 C53.2883224,127.408335 56.6454496,126.972914 59.8641996,126.580306 L62.40625,114.365705 L63.1579496,113.33119 L72.8712171,109.653088 L75.8126645,109.650893 L76.6885965,110.225507 L80.0315789,124.558206 C83.1694627,124.304764 86.3517544,124.076307 89.4460526,123.886057 L89.4460526,112.070486 C88.5252193,112.122793 87.605318,112.184602 86.6855263,112.244154 L77.8620614,78.7459363 L56.635636,78.7459363 L56.6356908,78.7459583 Z M158.812226,78.7459583 L158.812226,91.0066651 L161.628399,91.0066651 L156.00011,112.44177 C154.881414,112.378584 153.935471,112.301089 153.242818,112.248809 L153.242818,124.083591 C156.259265,124.295659 159.53284,124.549144 162.505976,124.796466 L164.557621,114.366797 L165.311458,113.33124 L175.024726,109.653137 L177.866612,109.653137 L178.740351,110.224513 L182.438871,126.898701 C186.032675,127.353233 189.290844,127.798413 192.524397,128.273022 L192.524397,116.321331 C191.620395,116.191868 190.716721,116.064217 189.81102,115.939694 L180.014419,78.7459199 L158.811568,78.7459199 L158.812226,78.7459583 Z M200.882401,78.7459583 L200.882401,90.9627553 L203.597917,90.9627553 L203.597917,117.978793 L200.860965,117.561782 L200.860965,129.588669 C204.852412,130.248743 208.83136,130.943999 212.790789,131.695186 L212.790789,113.448479 L213.598136,112.644491 L216.873684,111.349482 L219.997204,111.349482 L221.579825,112.137388 L231.892873,135.727914 C234.724232,136.38184 237.538706,137.056185 240.189474,137.718673 L240.189474,125.456869 C239.294079,125.239927 238.400658,125.018589 237.502851,124.808322 L229.860855,107.48866 L235.953509,101.391239 L235.953509,87.9136825 L227.525329,78.7458705 L200.882785,78.7458705 L200.882401,78.7459583 Z M67.9383224,90.942447 L68.9502193,90.942447 L71.8916667,90.942447 L74.3427083,100.150876 L73.5374452,101.227159 L68.7070724,103.280051 L65.7645285,103.280051 L64.8361294,102.66471 L67.9382127,90.942447 L67.9383224,90.942447 Z M170.092928,90.942447 L171.104825,90.942447 L174.043092,90.942447 L176.494134,100.150876 L175.687829,101.227159 L170.858553,103.280051 L167.919243,103.280051 L166.992982,102.66471 L170.092928,90.942447 L170.092928,90.942447 Z M213.630208,90.9960718 L219.112664,90.9960718 L221.97489,90.9960718 L224.932401,92.4657869 L226.412226,95.4063147 L226.412226,96.8728463 L226.412226,96.9232327 L224.939912,99.8498192 L223.358333,100.891798 L216.521162,103.019776 L213.65784,103.019776 L212.792654,102.158924 L212.792654,91.8280523 L213.629989,90.9961816 L213.630208,90.9960718 Z" stroke="#E31937" stroke-width="0.685307018" fill="#E31937" transform="translate(124.695943, 81.264413) scale(-1, 1) rotate(-180.000000) translate(-124.695943, -81.264413) "></path>
                        <path d="M121.846217,3.08254006 C109.625822,2.88413923 97.9295504,5.43127389 96.6784539,5.81295961 C99.1886513,6.51496713 102.387884,9.07512653 102.387884,9.07512653 C102.387884,9.07512653 89.8654057,10.0018423 81.4251645,13.376034 C83.7197917,14.4104386 85.6355263,16.3659055 85.6355263,16.3659055 C85.6355263,16.3659055 80.1338816,17.9992393 76.2309211,20.2101513 C72.3554276,22.3938393 67.5582237,26.1988957 62.8427632,32.0860987 C71.3230263,29.5912002 79.6218202,29.4242882 79.6218202,29.4242882 C79.6218202,29.4242882 75.6603618,33.3815468 73.3707237,36.4794912 C69.4795504,41.7480604 66.4403509,48.78301 66.4403509,48.78301 C66.4403509,48.78301 60.5664474,50.8923807 54.1744518,56.984807 L49.9940789,56.984807 L49.9940789,61.5430258 C47.3333882,64.8516273 44.7843202,68.9182213 42.7413377,73.900334 C43.6962719,73.1363589 46.4243421,71.4790393 49.9940789,69.8588235 L49.9940789,77.9870716 L50.6044408,80.5427303 C49.5591557,84.4979032 48.5149671,88.4519784 47.4702303,92.404407 L46.6435855,89.2205092 L29.2175987,89.2205092 L29.2175987,85.9615807 L31.8785088,85.9615807 L31.8785088,66.7444679 L29.0751645,56.9838739 L2.54830044,56.9838739 L2.54830044,76.7893777 C2.54830044,76.7893777 4.22302632,81.0649822 5.2841557,83.7765205 L5.2841557,102.253754 L2.54183114,102.878754 L2.54183114,122.857702 L20.2430373,139.925431 C52.2024671,133.109536 86.2353618,129.462281 119.820888,129.46283 C155.999068,129.46283 191.224397,133.509554 225.078564,141.175762 L226.451316,141.486643 L243.981469,124.583027 L243.981469,104.500891 L240.214419,103.590751 L236.380976,94.9032025 L239.744353,84.9911198 L239.744353,68.4651273 L229.190625,56.9849168 L194.243257,56.9849168 L192.140241,66.7455107 L192.140241,85.9549393 L194.776535,85.9549393 L194.776535,94.8120897 C194.776535,94.8120897 193.343257,94.5990998 192.835197,94.5644495 L182.936623,56.984818 L157.968969,56.984818 C165.953618,50.5410586 181.81875,38.4521488 183.368092,37.4246601 C180.913816,33.0580525 173.902083,23.671021 167.945395,22.3125623 C167.945395,22.3125623 167.908388,21.2349616 166.902412,20.210327 C165.689035,18.9710834 162.035636,18.2228059 162.035636,18.2228059 C162.035636,18.2228059 161.867725,16.8582548 161.430647,15.9576104 C160.965049,15.0058661 159.932346,13.6614586 157.952686,12.153048 C153.97659,9.1271157 145.97352,5.98866457 130.271765,3.71962698 C127.517599,3.32103051 124.669243,3.1286563 121.849068,3.08282547 L121.846217,3.08254006 Z M120.672643,6.84533329 C130.165515,6.9553163 140.474178,8.61709269 148.783936,11.8655927 C158.974726,15.848813 158.555866,18.4465701 157.508717,19.8412543 C155.921272,21.9410198 152.064529,20.6837183 150.356853,20.0942515 C148.648026,19.504159 139.459923,14.1153868 126.758717,15.0943552 C117.691283,15.7963628 112.418805,20.6774831 109.841502,23.9954154 C105.091941,24.3977387 99.2417215,25.5555297 92.9029057,28.2909989 C83.8217654,32.204238 78.1402961,37.2260891 74.8206689,41.0511793 C78.0016447,36.2736861 83.3360197,29.8168635 90.7165022,26.1619237 C90.7165022,26.1619237 81.8409539,23.1783643 72.2110197,26.6936436 C72.2110197,26.6936436 84.5344846,17.8677789 98.3371162,18.4358616 C98.3371162,18.4358616 97.075,15.3046556 93.9201206,14.109212 C93.9201206,14.109212 105.709594,11.1549075 118.431634,13.818694 C118.431634,13.818694 115.679112,8.76303232 111.556086,7.25143833 C114.434704,6.94468465 117.508388,6.80848202 120.672862,6.84514668 L120.672643,6.84533329 Z M126.90784,18.7437844 C124.316941,20.3913889 122.502357,23.1987604 121.746601,24.5135288 C121.746601,24.5135288 120.637555,24.2502787 118.671272,24.041839 C119.596491,22.6329939 122.749507,19.5607368 126.907566,18.7439601 L126.90784,18.7437844 Z M134.905647,18.9131609 C135.5625,18.9147526 136.213925,18.9687232 136.896272,19.079321 C136.059704,20.4388774 135.599397,22.297139 135.967873,24.0073698 C136.246519,25.3152774 136.895504,26.4636277 137.75932,27.3917157 C138.475658,28.245651 139.419572,28.914836 140.467325,29.3202879 C141.071985,29.5469721 141.7125,29.6819343 142.36261,29.7287256 C142.634539,29.7566468 143.273849,29.6333152 143.273849,29.6333152 C143.273849,29.6333152 142.2517,30.4818167 141.585197,30.9357889 C140.092379,30.6525708 138.587007,30.0084693 136.264419,27.2930889 C135.204441,26.0478077 133.885691,25.0562701 132.18898,24.4661776 C129.519682,23.5412182 127.414803,24.6223592 126.711897,25.0654362 C127.502248,23.1334062 129.726809,19.5152407 132.878564,19.0629701 C133.585746,18.9623563 134.248739,18.9113002 134.905592,18.9128865 L134.905647,18.9131609 Z M140.063651,19.6603406 C140.209348,19.6973895 141.808388,20.222221 142.585362,20.5072504 C141.349945,21.0639714 140.565735,22.2674286 140.739309,23.5163872 C140.956617,25.0698052 142.539803,26.1979571 144.299671,25.9262654 C146.055208,25.6594477 147.316283,24.102418 147.110526,22.5569037 C147.622242,22.785992 148.146491,23.0075004 148.668531,23.2183496 C148.776535,25.0252368 147.8,26.5846376 146.408114,27.477488 C145.047149,28.3477248 143.275329,28.4572797 141.599178,27.8945046 C139.967379,27.338991 138.559978,25.9966692 138.190844,24.2518046 C137.82057,22.4735136 138.652198,20.6710174 140.063651,19.660379 L140.063651,19.6603406 Z M145.018202,21.656424 C145.447341,21.8563507 145.894243,22.0585827 146.351316,22.2663857 C146.149698,23.9833128 144.116557,24.5615496 144.116557,24.5615496 C144.789803,24.1081812 144.969572,22.4913684 145.018147,21.6563692 L145.018202,21.656424 Z M161.329605,21.6757224 C164.978618,21.7875551 164.920833,24.5829886 164.949945,24.6473713 C168.085362,25.7450058 172.10455,28.2229991 174.407182,30.3946119 C176.787445,32.6396089 178.765296,35.5852961 178.765296,35.5852961 C167.047094,29.6986419 149.944024,30.2713352 149.931963,30.2713352 L148.29364,30.3377981 L149.545395,29.2807801 C155.970833,23.8639605 161.329386,21.676156 161.329386,21.676156 L161.329605,21.6757224 Z M110.725987,27.9361585 C114.792434,27.9982195 118.024781,28.4901352 119.793421,28.8280758 C115.618092,29.6272337 96.7177632,34.0389036 94.3783991,48.4310457 C94.3783991,48.4310457 99.6390899,35.2668953 121.764912,33.408963 C121.764912,33.408963 119.756524,39.5404141 123.617379,41.5970382 C126.775274,43.2798803 130.797204,42.9230036 136.990735,39.4959006 C145.949068,34.5458419 149.098739,35.6767382 151.20455,37.5298404 C152.257237,38.463966 152.239474,42.3133164 149.091886,46.9852615 C146.081524,51.4546728 145.860526,54.8072389 146.324945,56.9851637 L125.597423,56.9851637 L119.868805,67.0190961 L114.140186,56.9851637 L90.726261,56.9851637 L90.726261,72.7279156 C88.614364,71.4989908 86.3638706,70.03696 83.7695724,68.3218991 L80.7842105,56.9854931 L60.1093202,56.9854931 C65.7825658,52.4121803 74.7913377,47.3741923 88.4980263,44.8609066 C88.4980263,44.8609066 77.8160088,44.5339874 72.3538377,46.7905216 C74.5204496,43.5373013 80.7875,35.5024164 92.2480263,31.0631382 C98.8922149,28.4876104 105.498575,27.8573404 110.726645,27.9371465 L110.725987,27.9361585 Z M153.582346,33.3391465 C167.37511,33.2594941 177.453509,37.9241502 177.453509,37.9241502 L151.975987,57.0951577 C151.975987,57.0951577 151.408169,56.386454 151.175055,55.9191442 C150.954112,55.4754524 150.700247,54.8308953 150.559375,54.0109352 C150.277714,52.3578419 150.462495,50.0375946 152.194463,47.2669427 C155.277577,42.3265991 157.47807,36.4942284 153.365899,34.3964389 L151.569079,33.4755961 L153.582182,33.3394483 L153.582346,33.3391465 Z M6.33453947,60.7739735 L9.2160636,60.7739735 L25.286239,60.7739735 L25.286239,72.9979058 L22.5428728,72.9979058 L22.5428728,101.268116 L23.7742873,102.223264 L31.2550987,100.859646 L31.2550987,93.0102246 L34.1248355,93.0102246 L42.8540022,93.0102246 L42.8540022,110.945172 C31.505318,112.717371 20.284375,114.884043 9.19884868,117.415826 C8.24155702,117.634069 7.28355263,117.851905 6.32807018,118.076174 L6.32807018,105.902189 C7.24046053,105.693069 8.15493421,105.486742 9.07039474,105.282568 L9.07039474,72.9979058 L6.33453947,72.9979058 L6.33453947,60.7739735 Z M53.7791667,60.7750713 L56.6360197,60.7750713 L77.8624452,60.7750713 L86.6859101,94.2732893 C87.604989,94.2137367 88.5254934,94.1518349 89.4464364,94.0996207 L89.4464364,105.915192 C86.3522478,106.105448 83.1706689,106.334525 80.0330592,106.587341 C79.0635417,106.664529 78.0963268,106.744417 77.1408443,106.826402 L73.7442982,92.2543947 L72.8716009,91.681921 L63.1583333,95.3600233 L62.4066338,96.3945376 L59.8645833,108.609139 C56.645943,109.00172 53.2889254,109.437168 50.03125,109.888066 C49.0696272,110.022403 48.1132675,110.156026 47.1754386,110.292212 L47.1754386,98.3394222 C48.0883772,98.2087907 49.001864,98.0814688 49.9166667,97.9556398 C51.1203947,93.4035684 56.5224781,72.9709782 56.5224781,72.9709782 L53.7791118,72.9709782 L53.7791118,60.7744895 L53.7791667,60.7750713 Z M94.5121711,60.7750713 L97.3765351,60.7750713 L111.939035,60.7750713 L119.866118,74.6587931 L127.792105,60.7750713 L131.081579,60.7750713 L145.15943,60.7750713 L145.15943,72.9990036 L142.426754,72.9990036 L142.426754,93.7052066 C143.339145,93.7447254 144.251919,93.7876746 145.163706,93.8338513 L145.163706,105.635701 C141.300493,105.438793 137.424123,105.301641 133.538158,105.198316 C132.584485,105.172793 131.632621,105.13688 130.675932,105.116847 L130.675932,78.0475683 L121.45773,94.0323728 L119.83761,96.8421044 L119.79693,96.8421044 L108.997039,78.1151345 L108.997039,105.076285 C105.11261,105.159505 101.241009,105.298781 97.3769737,105.470787 C96.4227522,105.513324 95.4656798,105.545422 94.5126096,105.594069 L94.5126096,93.8273471 C95.4207785,93.7823396 96.3288925,93.741273 97.2388706,93.7029892 L97.2388706,93.3374348 L97.2388706,73.4984498 L97.2388706,72.9988883 L94.5126096,72.9988883 L94.5126096,60.774956 L94.5121711,60.7750713 Z M155.954057,60.7750713 L158.812007,60.7750713 L180.014857,60.7750713 L189.811458,97.9688457 C190.71716,98.0934397 191.620888,98.2210195 192.524836,98.350482 L192.524836,110.302174 C189.291009,109.827537 186.033059,109.382484 182.439309,108.927853 C181.489857,108.809362 180.522697,108.688155 179.519243,108.56658 L175.897807,92.2546472 L175.02511,91.6821735 L165.312939,95.3602758 L164.558004,96.3958329 L162.50636,106.825502 C159.533114,106.578784 156.259101,106.325298 153.242105,106.112627 C152.251974,106.045181 151.289748,105.980124 150.375603,105.921806 L150.375603,94.1133699 C151.281908,94.1680376 152.18909,94.2248843 153.095395,94.2838222 L158.673246,73.0353334 L155.954496,73.0353334 L155.954496,60.7746267 L155.954057,60.7750713 Z M198.026425,60.7750713 L200.882237,60.7750713 L227.524781,60.7750713 L235.952961,69.9428833 L235.952961,83.4204397 L229.860307,89.5178607 L237.502303,106.837522 C238.400768,107.047192 239.293421,107.269084 240.188925,107.48607 L240.188925,119.747874 C237.539145,119.08544 234.723794,118.411041 231.892325,117.757115 C230.717654,117.484808 229.540241,117.21798 228.370504,116.95417 L218.457127,94.1660946 L216.874507,93.3781886 L213.59682,94.6731976 L212.790515,95.4761427 L212.790515,113.723947 C208.831908,112.972816 204.852467,112.277395 200.861787,111.617431 C199.906853,111.46059 198.956634,111.29235 198.000603,111.140384 L198.000603,99.146429 C198.915406,99.288038 199.828783,99.432589 200.741831,99.5784518 L200.741831,72.9916322 L198.026316,72.9916322 L198.026316,60.7748352 L198.026425,60.7750713 Z M151.658004,62.8129788 L151.313207,66.745154 L151.313207,86.149981 L150.222089,90.3083465 L146.214084,90.0896538 L146.214084,85.9624095 L148.189687,85.9624095 L148.94676,76.7891087 L148.94676,66.6651613 C149.812495,65.2302997 150.72313,63.9438531 151.657999,62.8133959 L151.658004,62.8129788 Z M67.9354167,72.9715051 L64.8354715,84.6937683 L65.7627741,85.3091089 L70.5930921,83.2562171 L71.3983553,82.1799337 L68.9483553,72.9715051 L67.9354167,72.9715051 L67.9354167,72.9715051 Z M170.090022,72.9715051 L166.991173,84.6937683 L167.916338,85.3091089 L172.746656,83.2562171 L173.554057,82.1799337 L171.101919,72.9715051 L170.090022,72.9715051 L170.090022,72.9715051 Z M213.627303,73.0251299 L212.789967,73.8570006 L212.789967,84.186775 L213.655154,85.048669 L220.493421,82.9206916 L222.076042,81.8787126 L223.549452,78.9521262 L223.549452,77.4352081 L222.068531,74.4957231 L219.109923,73.0249104 L213.627467,73.0249104 L213.627303,73.0251299 Z M85.3707237,74.4069705 C87.0941338,75.4754051 88.8915022,76.5305021 90.8007127,77.5083179 L91.6969846,85.9620472 L93.450932,85.9620472 L93.450932,90.0850104 C92.4857456,90.1171743 89.5543311,90.2972702 89.5543311,90.2972702 L85.3707237,74.4068717 L85.3707237,74.4069705 Z M119.819189,108.875595 C161.166228,108.875595 201.326864,113.947283 239.720504,123.497001 L225.602083,137.41091 C191.577961,129.7267 156.172259,125.665046 119.823575,125.665046 C85.9825658,125.665046 52.9650219,129.183536 21.1064693,135.866384 L6.85263158,121.820745 C43.139364,113.346158 80.9589912,108.867361 119.824123,108.867361 L119.819189,108.875595 Z M217.439803,111.731431 L219.456086,112.148443 L219.456086,112.792709 L218.827522,112.662994 L218.827522,114.943173 L218.068311,114.786657 L218.068311,112.504337 L217.439748,112.374622 L217.439748,111.731398 L217.439803,111.731431 Z M121.398136,112.11843 L110.739693,112.202045 L110.739693,122.627324 L121.49682,122.541562 L121.49682,120.579783 L113.162939,120.646252 L113.162939,118.061613 L117.970779,118.023027 L117.970779,116.248853 L113.162939,116.286395 L113.162939,113.959068 L121.398136,113.893675 L121.398136,112.118403 L121.398136,112.11843 Z M220.049452,112.271725 L220.797917,112.426095 L221.390077,114.113438 L222.01864,112.67907 L222.773575,112.835587 L223.215811,115.852243 L222.455559,115.695727 L222.242473,113.96656 L222.234962,113.965462 L221.533591,115.504884 L221.231628,115.441632 L220.561288,113.619211 L220.553777,113.618114 L220.309638,115.250789 L219.553662,115.093202 L220.049441,112.27167 L220.049452,112.271725 Z M132.028618,112.276116 L132.028618,122.700296 L134.411129,122.786057 L134.411129,118.850699 L136.70477,118.933244 L140.897971,123.019762 L144.372697,123.14626 L139.569134,119.037238 L140.926919,119.085484 C141.753783,119.116496 142.352741,118.975979 142.723739,118.668473 C143.094008,118.358498 143.280537,117.851861 143.280537,117.150512 L143.280537,114.704189 C143.280537,113.993125 143.093997,113.472355 142.723739,113.141221 C142.35278,112.808121 141.753838,112.627482 140.926919,112.597705 L132.028893,112.276105 L132.028618,112.276116 Z M101.865241,112.419761 L99.4548794,112.538757 L95.4404605,120.271268 L91.229057,112.94602 L88.4663925,113.083238 L94.4768092,123.209381 L96.1493969,123.12576 L101.865406,112.419459 L101.865241,112.419761 Z M156.193092,113.528208 C155.559978,113.541875 155.110362,113.667507 154.844956,113.907704 C154.491612,114.228657 154.314918,114.861589 154.314918,115.807296 L154.314918,116.960806 C154.314918,117.907061 154.491612,118.568672 154.844956,118.947229 C155.198849,119.32403 155.879221,119.554336 156.886952,119.6376 L163.357895,120.165034 L163.357895,122.541705 L156.024013,121.942446 L156.024013,120.709625 L153.893147,120.979774 L153.893147,121.266 C153.893147,122.212859 154.072187,122.873976 154.428547,123.25138 C154.784836,123.630031 155.470104,123.860683 156.484468,123.943892 L162.896201,124.467033 C163.910016,124.550259 164.595652,124.430698 164.953218,124.112198 C165.309578,123.793167 165.487544,123.158862 165.487544,122.212607 L165.487544,120.783618 C165.487544,119.836155 165.309578,119.174599 164.953218,118.79714 C164.595696,118.418555 163.910071,118.188386 162.896201,118.105671 L156.426354,117.577167 L156.426354,115.337714 L163.219666,115.894105 L163.219666,117.075498 L165.350532,116.748529 L165.350532,116.530912 C165.350532,115.676373 165.165587,115.066796 164.795872,114.700973 C164.426151,114.335632 163.753054,114.111539 162.777451,114.033105 L156.8871,113.551766 C156.635164,113.531403 156.404271,113.523609 156.19324,113.528164 L156.193092,113.528208 Z M79.6141447,113.76727 L77.1984649,113.96881 L77.1984649,124.394088 L79.6141447,124.190407 L79.6141447,113.767325 L79.6141447,113.76727 Z M134.409649,114.167134 L139.853564,114.363312 C140.272971,114.377857 140.560197,114.450813 140.714474,114.576642 C140.868048,114.704875 140.945762,114.918288 140.945762,115.220908 L140.945762,116.472995 C140.945762,116.782971 140.868048,116.995214 140.714474,117.111938 C140.560208,117.22686 140.272966,117.277181 139.853564,117.262021 L134.409649,117.065843 L134.409649,114.16714 L134.409649,114.167134 Z M65.8953947,115.040829 L63.7345395,115.304545 L63.7345395,120.779326 C63.7345395,120.911192 63.7410636,121.097392 63.7538377,121.339999 C63.7677632,121.580608 63.7936952,121.9914 63.8330757,122.571723 C63.6758662,122.401024 63.5029331,122.236055 63.3148136,122.078594 C63.1253947,121.92059 62.9077083,121.754513 62.6594956,121.580108 L55.3842763,116.329378 L53.7416776,116.530918 L53.7416776,126.955098 L55.9025329,126.689236 L55.9025329,121.060003 C55.9025329,120.848484 55.8948026,120.600866 55.8789583,120.317104 C55.8625658,120.032031 55.8372917,119.7325 55.8050768,119.413386 C55.922193,119.53798 56.0490789,119.657206 56.1862774,119.771437 C56.3227906,119.886294 56.4832895,120.015301 56.6659923,120.156296 L64.2526151,125.667521 L65.8952138,125.46491 L65.8952138,115.04073 L65.8953947,115.040829 Z M176.503947,115.44498 L176.503947,125.86916 L178.910033,126.155386 L178.910033,115.732303 L176.503947,115.445002 L176.503947,115.44498 Z M187.846601,116.867547 L187.846601,118.731791 L192.569846,119.454326 L192.569846,128.014537 L194.964145,128.381167 L194.964145,119.822054 L199.706689,120.54673 L199.706689,118.683584 L187.846491,116.867585 L187.846601,116.867547 Z M42.5012061,118.189341 L40.1219298,118.597778 L40.1219298,127.059192 L33.3171053,128.227686 L33.3171053,119.76737 L30.9281798,120.176884 L30.9281798,128.134433 C30.9281798,129.087384 31.1038048,129.707226 31.4571491,129.992255 C31.8104276,130.276022 32.4817105,130.333928 33.4723904,130.163778 L39.9570395,129.048909 C40.9538596,128.878072 41.6273794,128.590661 41.9775987,128.185917 C42.3266941,127.779889 42.5012171,127.100906 42.5012171,126.148009 L42.5012171,118.189363 L42.5012061,118.189341 Z M206.136075,119.786669 L211.446162,126.575669 L211.446162,131.239984 L213.844737,131.705236 L213.844737,126.980873 L219.133388,122.306898 L216.340735,121.764453 L212.818914,125.086611 L209.308882,120.401877 L206.136129,119.786537 L206.136075,119.786669 Z" fill="#000000" transform="translate(123.261650, 72.279093) scale(-1, 1) rotate(-180.000000) translate(-123.261650, -72.279093) "></path>
                    </g>
                </g>
            </g>
        </g>
    </g>
</svg>