<?xml version="1.0" encoding="UTF-8" standalone="no"?>
<svg width="250px" height="250px" viewBox="0 0 250 250" version="1.1" xmlns="http://www.w3.org/2000/svg" xmlns:xlink="http://www.w3.org/1999/xlink">
    <!-- Generator: Sketch 47.1 (45422) - http://www.bohemiancoding.com/sketch -->
    <title>MCNSE</title>
    <desc>Created with Sketch.</desc>
    <defs></defs>
    <g id="Page-1" stroke="none" stroke-width="1" fill="none" fill-rule="evenodd">
        <g id="MCNSE" fill-rule="nonzero">
            <g id="Group" transform="translate(9.000000, 0.000000)">
                <path d="M180.060186,146.966061 C183.880498,146.787513 186.185009,145.857831 188.070518,145.051285 C195.027184,142.102161 192.020229,140.199698 193.394309,134.516939 C192.476201,134.910976 181.169309,145.894772 180.060186,146.966061 L180.060186,146.966061 Z M179.604213,115.683178 C180.688689,113.158875 180.824248,110.591474 179.573404,108.935285 C177.373643,106.023102 169.25856,102.735352 167.662655,100.962183 C163.300105,100.512734 161.32833,96.5785157 161.32833,96.5785157 C161.007917,96.6154567 160.527297,96.6523978 159.892632,96.6277704 L159.892632,102.378255 C161.926024,104.293031 163.238487,106.891216 163.238487,106.891216 C167.853671,108.331916 165.820279,111.14559 173.910715,118.749282 C176.338462,118.115128 178.852474,117.444033 179.604213,115.683178 L179.604213,115.683178 Z M154.032766,111.213315 L154.038928,126.051289 L155.357552,127.301127 C160.841549,125.903525 165.881896,123.385379 166.978696,122.252522 C166.387164,119.272613 163.25081,117.197759 162.345026,116.188038 C162.345026,116.188038 161.309845,114.06393 159.307262,113.842284 C157.772975,113.676049 157.372458,111.675077 154.032766,111.213315 L154.032766,111.213315 Z M155.955246,94.7868765 L140.489141,94.7868765 C139.725079,94.7868765 138.843942,94.9284837 137.309656,96.1967919 C135.775369,94.9284837 134.894232,94.7868765 134.136331,94.7868765 L118.670227,94.7868765 L118.670227,104.397697 C119.77935,104.748637 124.523932,105.388948 124.523932,109.883438 L124.523932,133.895098 L105.668841,107.309881 L86.8137499,133.895098 L86.8137499,109.883438 C86.8137499,105.388948 91.5583316,104.748637 92.6674547,104.397697 L92.6674547,94.7868765 L77.2013506,94.7868765 C76.4434498,94.7868765 75.5623132,94.9284837 74.0280264,96.1967919 C72.4937396,94.9284837 71.612603,94.7868765 70.8485405,94.7868765 L55.3824364,94.7868765 L55.3824364,104.465423 C57.132386,105.007224 61.2361411,105.419732 61.2361411,109.883438 L61.2299793,126.051289 C61.2299793,128.230809 59.8435755,129.24053 59.8435755,129.24053 L56.8735906,131.63554 L59.8867081,134.239881 C59.8867081,134.239881 61.2299793,135.212661 61.2299793,137.392181 L61.2361411,153.461523 C61.2361411,158.399305 55.3762746,158.879539 55.3824364,158.879539 L55.3824364,168.558085 L68.8582808,168.539614 C69.8380062,168.441105 70.7561135,167.985499 71.5756322,167.357502 C73.4180087,168.588869 74.6195587,168.558085 74.6195587,168.558085 L82.5682735,168.558085 C85.0083441,168.533457 85.9819077,167.462168 86.6165725,166.655622 L105.668841,139.78719 L124.721109,166.655622 C125.060008,167.086601 125.491334,167.585305 126.193778,167.973185 C126.803796,168.305654 127.629476,168.545771 128.769408,168.558085 L136.718123,168.558085 C136.718123,168.558085 137.919673,168.588869 139.76205,167.357502 C140.747937,168.108636 141.296337,168.385693 142.793653,168.539614 L155.955246,168.558085 L155.955246,158.879539 C155.961407,158.879539 150.101541,158.399305 150.101541,153.461523 L150.101541,137.392181 C150.101541,135.206504 151.444812,134.239881 151.444812,134.239881 L154.464091,131.63554 L151.494106,129.24053 C151.494106,129.24053 150.101541,128.230809 150.101541,126.051289 L150.101541,109.883438 C150.101541,105.419732 154.199134,105.007224 155.955246,104.465423 L155.955246,94.7868765 L155.955246,94.7868765 Z M102.655723,190.501048 C105.354589,190.070069 105.896827,188.623213 110.333319,187.970588 C110.924852,187.878236 111.676591,186.622241 112.835008,186.363654 C113.796248,186.622241 115.971361,185.403188 116.488952,184.319585 C111.380824,184.52276 106.24805,181.85685 104.319408,180.687051 C96.1611921,186.345184 101.195378,185.871107 98.6690425,191.424573 C98.6690425,191.424573 101.004363,190.765792 102.655723,190.501048 L102.655723,190.501048 Z M223.414571,122.91746 C223.75347,124.481296 222.68748,126.020505 221.664622,126.457641 C220.912883,130.496525 220.395292,132.60832 220.081041,134.104431 C221.28259,139.374682 219.286169,142.933334 221.24562,143.64137 C225.380184,145.125167 227.567621,149.705853 227.567621,149.705853 C227.567621,149.705853 222.6197,147.735666 219.538803,150.173773 C216.685892,152.433331 215.053016,152.094705 215.053016,152.094705 C215.225547,157.420368 211.097144,158.380835 212.853256,164.863983 C209.932565,163.380186 209.273253,157.894445 209.273253,157.894445 C208.971325,174.21006 202.889634,177.787182 202.889634,177.787182 C203.105297,171.956658 199.044674,171.008505 199.044674,171.008505 C197.86161,173.144927 199.30347,181.056462 208.977487,181.518224 C208.977487,181.518224 198.902953,188.690938 192.796615,182.220104 C193.677751,187.157886 193.246426,189.417445 191.416373,191.06132 C191.872346,188.37694 187.571413,187.311807 187.571413,187.311807 C187.201705,190.784262 188.181431,196.565531 197.812315,198.554189 C195.704982,200.087242 186.283598,200.949199 181.612958,196.830275 C180.892028,199.902536 183.264319,202.137468 183.264319,202.137468 C177.872748,200.376613 178.01447,197.328979 176.055019,199.015952 C174.10173,200.702925 172.783106,200.364299 172.783106,200.364299 C173.497874,198.849717 174.261937,194.650755 168.88269,193.265467 C165.857249,192.483549 168.044686,196.87953 169.511193,197.704546 C163.552738,196.87953 158.389154,190.80889 156.423542,185.815696 C153.97731,185.187699 149.922849,185.514011 148.62271,185.975774 C146.034756,186.886985 141.709177,187.964432 138.14766,187.650433 C133.99461,187.281023 133.815918,188.783291 134.111684,189.632934 C134.40745,190.482577 133.951478,191.738572 132.121425,191.707788 C130.963007,191.689317 130.494711,192.791391 128.1902,192.914528 C122.934189,193.203899 120.383206,191.424573 119.43429,191.424573 C118.152637,191.424573 116.365716,192.26806 115.330535,193.283938 C114.128985,194.46605 107.511218,197.704546 105.656517,199.496185 C104.01748,201.072335 102.581782,199.108305 100.591522,201.096963 C97.4674925,204.218478 91.9958191,207.081407 89.5002923,208.201951 C88.2186391,208.780694 85.3965372,210.83092 85.2116834,211.982249 C84.3736793,217.098579 81.7610785,215.8118 81.4406651,218.151398 C81.323591,219.019512 82.5128174,219.111865 83.8314414,219.222688 C84.5770185,219.290413 86.4317187,219.610568 86.1174671,221.802402 C86.000393,222.602791 86.6781904,223.963451 86.6781904,223.963451 C87.6579158,224.209725 87.620945,224.339018 87.8427696,225.933639 C88.1262121,227.909983 91.0099319,226.604734 92.8214995,226.032148 C97.3134477,224.616076 97.3997128,225.207132 97.6708318,226.290735 C99.5625027,233.826702 87.5962978,237.206805 87.5161945,237.212962 C87.5161945,237.212962 87.9536819,240.654634 87.861255,242.095333 C87.799637,243.129682 87.140325,244.090148 84.5646949,244.293324 C81.6131954,244.527283 79.2039338,247.587231 72.721726,244.28101 C71.5201761,243.671483 71.3538076,238.444329 70.441862,237.360726 C61.8954531,236.677317 59.1534546,231.530203 59.9113553,230.157228 C60.5398583,229.012057 65.4199995,229.289114 66.8926684,229.295271 C68.9876785,229.307585 68.2112924,227.866885 68.8397955,226.838694 C69.4682985,225.810502 69.0677819,224.714585 68.6179709,224.068117 C64.1445081,224.228195 63.8117712,227.072653 60.4659168,226.216853 C58.9131446,225.822816 57.070768,226.192226 55.0312141,226.992615 C53.1210578,227.737592 45.2955788,227.602141 44.6177814,222.258008 C49.8553067,224.751526 51.6052564,221.482246 51.6052564,221.482246 C51.6052564,221.482246 49.4301429,220.878876 49.0850824,219.154962 C51.4820205,220.478682 53.5400598,219.764489 54.4396818,219.629039 C59.1534546,218.921003 59.9606496,221.759304 61.7845408,221.691579 C64.7791729,221.586913 66.455181,221.057425 66.455181,221.057425 C64.3909799,219.105708 61.4764511,219.998449 60.3796517,218.884062 C59.9976204,218.490024 59.8558991,217.535715 59.1534546,216.267406 C58.6481874,215.362351 56.6764132,215.55937 55.8014384,212.616403 C55.0681848,210.147511 49.0604352,208.128069 45.2462845,202.617701 C41.4259719,197.107333 41.0809114,201.12159 35.3319572,189.472856 C33.7606996,186.289772 30.5504047,187.527296 29.761695,184.608956 C28.0856869,178.402865 23.5752533,181.204226 22.5523955,172.529244 C22.4846157,171.975129 22.1272316,170.429763 22.3059237,169.580119 C22.4846157,168.736633 22.4538067,166.19386 23.6923274,166.612525 C26.5698854,167.579148 26.3542226,171.839678 28.3999384,171.993599 C29.4844142,172.073638 29.3488547,169.777138 30.7845529,169.961843 C32.8241068,170.232744 31.0679954,172.024383 33.7915086,175.367545 C35.2456921,177.153028 33.4710952,180.071368 35.0300292,180.828659 C40.4092758,183.433 39.8670379,186.591457 40.5756443,186.850044 C43.8352335,188.026 45.0984014,189.128074 49.1775093,193.283938 C52.0673909,196.226905 58.5742459,198.307916 59.0671894,198.289445 C59.8374138,198.258661 60.2071214,197.993917 60.6014763,197.519841 C60.9958311,197.051921 65.7712218,190.69191 66.1902238,188.432351 C66.5414461,186.572987 67.9278499,185.575579 68.7227214,183.605392 C69.7394175,181.074932 70.891673,180.428464 72.062414,180.329955 C74.0649972,180.157564 76.3571847,181.715243 78.8711968,179.203254 C79.585965,178.489061 79.6968773,177.350046 81.9644177,176.697422 C84.2257962,176.044797 84.6386365,174.899626 84.9590498,174.19159 C85.2486541,173.545122 86.0743346,172.910968 86.2776738,171.77811 C85.2917867,172.184461 84.1025603,172.486146 82.6175679,172.486146 L51.4450497,172.486146 L51.4450497,156.780058 L56.7072222,154.471244 C57.2617837,154.243441 57.3049162,153.923286 57.3049162,153.461523 L57.2987544,137.392181 L51.3957553,131.63554 L57.2987544,126.051289 L57.3049162,109.883438 C57.3049162,109.126147 56.9475322,108.935285 56.7996491,108.892188 L52.9731747,106.768079 C45.6714483,109.612537 36.687552,123.360752 21.726715,118.730811 C13.3713217,116.14494 8.595931,107.980976 8.49734229,103.375663 C11.3995475,106.90353 15.5464352,107.045137 15.5464352,107.045137 C15.5464352,107.045137 2.10139963,96.9787101 4.81875099,84.9297821 C6.13121321,88.8824708 9.68656862,90.6310122 9.68656862,90.6310122 C9.68656862,90.6310122 1.0292474,71.9942698 18.5287437,64.3105386 C13.5376902,71.7972511 16.1379674,76.5749558 16.1379674,76.5749558 C16.1379674,76.5749558 16.9081917,71.7295259 21.5973173,70.1349054 C18.7197593,81.106387 21.455596,90.1323085 36.3486533,92.1825349 C34.7773957,90.9696382 34.2351578,88.6731384 34.2351578,88.6731384 C34.2351578,88.6731384 39.9286558,93.1553149 49.7135855,90.6556396 C54.0822977,89.5412523 58.7159672,90.7541489 58.7159672,90.7541489 C59.1596164,87.263223 61.2915972,81.1310144 71.2798661,71.6925849 C76.0860658,67.1426831 69.3697098,60.5671823 64.2923912,56.7991987 C57.163195,51.498163 61.1745232,48.5921364 62.9676053,45.6984235 C64.7606875,42.7985538 70.7930843,32.282678 71.0950122,30.4540978 C72.7402114,20.3199458 77.2876157,22.8073075 76.0675804,19.5134003 C75.5438278,18.1034849 74.5764261,17.8572114 74.2436892,16.8659608 C73.9109523,15.8685534 73.2516403,12.5561757 72.5861665,11.3986905 C74.0773208,9.07756339 80.214468,3.94276221 83.6958819,2.77912022 C84.712578,5.09409053 86.8445589,12.7224103 84.5277242,16.5334917 C82.2047277,20.3445732 84.0902368,22.5302499 83.1967766,25.3131398 C82.4019051,27.8066583 79.5489942,32.7752249 76.8624519,37.4051655 C74.0773208,42.1951839 75.3466504,49.9466403 77.2259977,51.1656939 C79.7400099,52.7910985 88.3418749,60.9427493 92.9817062,65.5788468 C93.3144431,58.6216222 90.498503,52.4894136 89.5002923,49.0108013 C87.7503427,42.8847495 94.6269053,44.1222735 98.2500404,45.0211716 C102.698856,46.1294021 122.767821,53.2343907 128.640011,49.6757396 C131.96738,47.6501405 134.204111,49.620328 132.731442,43.5373741 C133.230548,42.379889 134.801805,38.5010823 134.801805,38.5010823 C139.558711,37.7068505 148.025016,37.423636 149.208081,40.4343288 C146.687907,44.8672507 143.853481,48.5059407 139.780535,50.6238923 C138.159983,53.2282339 134.388965,60.0253808 128.091611,59.0895417 C118.491535,57.6734694 108.281442,54.1456024 106.919685,58.2214278 C106.094005,60.6964759 109.575419,63.694855 111.442442,67.1303694 C113.260172,70.4673745 118.811949,76.9197386 118.583962,90.8588151 L151.623504,90.8588151 C150.101541,88.1067095 149.010903,84.8928411 149.688701,81.4388562 C155.006329,81.7959526 159.307262,85.1083304 160.98327,86.2965997 C161.907539,89.8183099 164.852877,88.7839614 167.286786,91.4991261 C171.723278,90.1199948 178.353368,99.2074847 182.112063,103.104762 C187.269485,108.455052 189.58632,106.829648 190.609178,115.886353 C191.26849,121.698406 184.108484,125.946623 181.810135,129.129707 C183.57857,134.092117 182.303079,135.637483 178.969548,136.75187 C175.642179,137.866258 174.083245,137.970924 174.181834,139.405467 C174.385173,142.274552 174.335878,145.155951 176.899185,145.648498 C181.384971,141.73275 191.736786,131.081424 194.213827,129.129707 C197.695241,120.60249 202.655486,124.345846 206.531255,116.003333 C205.465264,113.220443 204.873732,109.809556 208.755662,109.292382 C211.004717,108.990697 210.647333,108.190308 211.417558,107.697761 C214.325925,105.838397 214.92978,108.929129 215.126958,109.686419 C215.176252,109.877281 216.180625,109.877281 216.316184,109.803399 C216.993982,108.627444 218.756255,107.420704 220.333674,107.279097 C221.917255,107.131333 223.950647,110.271319 224.277223,111.127119 C224.979667,112.931072 226.778911,113.078836 226.50163,116.194195 C226.187379,119.832885 223.260527,120.491667 223.414571,122.91746 L223.414571,122.91746 Z" id="Shape" fill="#00529B" transform="translate(116.011861, 124.293173) scale(-1, 1) rotate(-180.000000) translate(-116.011861, -124.293173) "></path>
                <path d="M146.897408,138.678281 L146.897408,122.602782 L146.90357,122.602782 C146.90357,118.951778 149.99679,116.84614 149.99679,116.84614 C149.99679,116.84614 146.90357,114.919051 146.90357,111.268047 L146.897408,111.268047 L146.897408,95.0940391 C146.897408,88.7094002 152.757274,87.2009754 152.757274,87.2009754 L152.757274,83.2051889 L140.489141,83.2051889 C139.76205,83.2051889 137.309656,85.8895693 137.309656,85.8895693 C137.309656,85.8895693 134.869585,83.2051889 134.136331,83.2051889 L121.87436,83.2051889 L121.87436,87.2009754 C121.87436,87.2009754 127.734227,88.7094002 127.734227,95.0940391 L127.734227,129.165969 L105.675003,98.061634 L83.6096168,129.165969 L83.6096168,95.0940391 C83.6096168,88.7094002 89.4694833,87.2009754 89.4694833,87.2009754 L89.4694833,83.2051889 L77.2075123,83.2051889 C76.4804206,83.2051889 74.0280264,85.8895693 74.0280264,85.8895693 C74.0280264,85.8895693 71.581794,83.2051889 70.8547023,83.2051889 L58.5865695,83.2051889 L58.5865695,87.2009754 C58.5865695,87.2009754 64.446436,88.7094002 64.446436,95.0940391 L64.446436,111.268047 L64.4402742,111.26189 C64.4402742,114.919051 61.3470534,116.84614 61.3470534,116.84614 C61.3470534,116.84614 64.4402742,118.951778 64.4402742,122.602782 L64.446436,122.602782 L64.446436,138.678281 C64.446436,145.06292 58.5865695,146.571344 58.5865695,146.571344 L58.5865695,150.567131 L68.5378675,150.567131 C69.78255,150.443994 71.5756322,147.888907 71.5756322,147.888907 C71.5756322,147.888907 73.3748762,150.443994 74.6257205,150.567131 L82.5682735,150.567131 C83.2337473,150.560974 83.5972932,150.493249 84.0039716,150.013016 L105.675003,119.462796 L127.339872,150.013016 C127.530888,150.240819 127.715742,150.376269 127.925243,150.456308 C128.159391,150.542504 128.424348,150.567131 128.77557,150.567131 L136.718123,150.567131 C137.968968,150.443994 139.76205,147.888907 139.76205,147.888907 C139.76205,147.888907 141.561294,150.443994 142.812138,150.567131 L152.757274,150.567131 L152.757274,146.571344 C152.757274,146.571344 146.897408,145.06292 146.897408,138.678281" id="Shape" fill="#FFD204" transform="translate(105.671922, 116.886160) scale(-1, 1) rotate(-180.000000) translate(-105.671922, -116.886160) "></path>
                <path d="M66.1470913,20.3562076 C66.1470913,21.7414957 65.0995862,22.8497262 63.7932858,22.8497262 L63.7809622,22.8497262 C62.4869854,22.8497262 61.4271567,21.7414957 61.4271567,20.3685213 C61.4271567,18.9709195 62.4869854,17.8750027 63.7932858,17.8750027 C65.0995862,17.8626891 66.1470913,18.9709195 66.1470913,20.3562076 L66.1470913,20.3562076 Z M66.6831674,20.3685213 C66.6831674,18.7123324 65.4015142,17.4193969 63.7809622,17.4193969 C62.1727339,17.4193969 60.8664334,18.7123324 60.8664334,20.3685213 C60.8664334,22.0000828 62.1727339,23.3114889 63.7809622,23.3114889 L63.7932858,23.3114889 C65.4015142,23.3114889 66.6831674,22.0000828 66.6831674,20.3685213 L66.6831674,20.3685213 Z M64.4094652,21.0334596 C64.4094652,21.3228309 64.1999642,21.6122021 63.6145938,21.6122021 C63.4420635,21.6122021 63.3249894,21.5937316 63.2325625,21.581418 L63.2325625,20.4731875 L63.6145938,20.4731875 C64.0397576,20.4731875 64.4094652,20.6332652 64.4094652,21.0334596 L64.4094652,21.0334596 Z M64.865438,19.4696232 C64.9455414,18.9586059 65.0194829,18.7615871 65.074939,18.6569209 L64.5265393,18.6569209 C64.446436,18.7615871 64.3663327,19.0632721 64.3047147,19.4942506 C64.2246114,19.9129154 64.0151104,20.0729932 63.5961084,20.0729932 L63.2325625,20.0729932 L63.2325625,18.6569209 L62.70881,18.6569209 L62.70881,21.9385145 C62.9799289,21.9754555 63.2448861,22.0185533 63.6392409,22.0185533 C64.1321845,22.0185533 64.4587596,21.9077303 64.655937,21.766123 C64.8531144,21.6245158 64.957865,21.4028697 64.957865,21.0888711 C64.957865,20.6578926 64.6682606,20.3931486 64.3170383,20.2884824 L64.3170383,20.2638551 C64.6066427,20.2146004 64.7976583,19.9498564 64.865438,19.4696232 L64.865438,19.4696232 Z M128.77557,169.197716 C127.629476,169.185403 126.809958,168.945286 126.193778,168.612817 L127.925243,165.885339 C128.159391,165.971534 128.43051,165.990005 128.77557,165.996162 L136.724285,165.996162 C137.968968,165.866868 139.76205,163.317938 139.76205,163.317938 L139.76205,167.997133 C137.925835,169.228501 136.724285,169.197716 136.724285,169.197716 L128.77557,169.197716 L128.77557,169.197716 Z M162.351188,116.82767 C163.256972,117.837391 166.393325,119.912245 166.978696,122.892153 C165.881896,124.025011 160.841549,126.543157 155.363713,127.940759 L154.038928,126.690921 L154.038928,111.852946 C157.372458,112.314709 157.779137,114.315681 159.307262,114.481915 C161.316007,114.703562 162.351188,116.82767 162.351188,116.82767 L162.351188,116.82767 Z M150.107703,110.52307 L150.107703,126.690921 C150.107703,128.870441 151.500268,129.880162 151.500268,129.880162 L154.470253,132.275171 L151.450974,134.879513 C151.450974,134.879513 150.107703,135.846136 150.107703,138.031813 L150.107703,154.107312 C150.107703,159.038937 155.967569,159.51917 155.961407,159.51917 L155.961407,169.197716 L142.799814,169.185403 L142.812138,165.996162 L152.757274,165.996162 L152.757274,162.000375 C152.757274,162.000375 146.897408,160.49195 146.897408,154.107312 L146.897408,138.031813 L146.90357,138.031813 C146.90357,134.374652 149.99679,132.275171 149.99679,132.275171 C149.99679,132.275171 146.90357,130.348082 146.90357,126.690921 L146.897408,126.690921 L146.897408,110.52307 C146.897408,104.132274 152.757274,102.630006 152.757274,102.630006 L152.757274,98.6280629 L155.961407,95.4265082 L155.961407,105.105054 C154.205296,105.646856 150.107703,106.059364 150.107703,110.52307 L150.107703,110.52307 Z M134.136331,98.6280629 L134.136331,95.4265082 C134.900394,95.4265082 135.781531,95.5681154 137.315817,96.8364236 L137.315817,101.3186 C137.315817,101.3186 134.869585,98.6280629 134.136331,98.6280629 L134.136331,98.6280629 Z M226.507792,116.833827 C226.187379,120.472517 223.266688,121.137455 223.420733,123.557092 C223.759632,125.120928 222.693641,126.660137 221.670784,127.097272 C220.919045,131.136157 220.401454,133.247951 220.081041,134.750219 C221.28259,140.014314 219.292331,143.572965 221.251782,144.281001 C225.386346,145.764799 227.573783,150.345485 227.573783,150.345485 C227.573783,150.345485 222.6197,148.375297 219.538803,150.813404 C216.685892,153.072963 215.059178,152.734337 215.059178,152.734337 C215.231708,158.06 211.097144,159.026623 212.859417,165.503615 C209.938727,164.019817 209.279415,158.534077 209.279415,158.534077 C208.977487,174.849692 202.895796,178.426813 202.895796,178.426813 C203.111459,172.602447 199.050836,171.654294 199.050836,171.654294 C197.867772,173.784559 199.309631,181.696093 208.983649,182.164013 C208.983649,182.164013 198.909115,189.33057 192.802776,182.859735 C193.683913,187.797518 193.252587,190.057077 191.422535,191.700952 C191.872346,189.016571 187.571413,187.951439 187.571413,187.951439 C187.207867,191.430051 188.187592,197.205163 197.818477,199.193821 C195.711143,200.726873 186.28976,201.58883 181.61912,197.469907 C180.89819,200.542168 183.27048,202.7771 183.27048,202.7771 C177.87891,201.016245 178.020632,197.968611 176.061181,199.655584 C174.10173,201.342557 172.789268,201.003931 172.789268,201.003931 C173.504036,199.495506 174.268099,195.290387 168.888852,193.905099 C165.857249,193.123181 168.044686,197.525319 169.511193,198.344178 C163.5589,197.525319 158.389154,191.448521 156.423542,186.461484 C153.983471,185.82733 149.929011,186.153643 148.628872,186.615405 C146.040918,187.526617 141.715339,188.604063 138.153821,188.290065 C134.000772,187.920654 133.82208,189.422922 134.117846,190.272566 C134.413612,191.122209 133.957639,192.378204 132.121425,192.34742 C130.969169,192.328949 130.500873,193.431023 128.196362,193.554159 C122.940351,193.849687 120.389368,192.064205 119.440452,192.064205 C118.158798,192.064205 116.371878,192.907692 115.336696,193.92357 C114.135147,195.105682 107.517379,198.344178 105.656517,200.135817 C104.023642,201.711967 102.581782,199.754093 100.597684,201.736594 C97.4736543,204.85811 92.0019809,207.727196 89.5064541,208.84774 C88.2248008,209.420326 85.402699,211.470552 85.2116834,212.62188 C84.3798411,217.738211 81.7672402,216.457589 81.4468269,218.79103 C81.3297528,219.659144 82.5189792,219.751496 83.8376032,219.868476 C84.5831803,219.930045 86.4317187,220.2502 86.1236289,222.442034 C86.0065548,223.242422 86.6843522,224.603083 86.6843522,224.603083 C87.6640775,224.849356 87.6271068,224.97865 87.8489314,226.573271 C88.1262121,228.549615 91.0160937,227.244366 92.8276613,226.67178 C97.3196095,225.255708 97.3997128,225.846764 97.6769936,226.936524 C99.5686645,234.466334 87.6024596,237.846437 87.5223563,237.858751 C87.5223563,237.858751 87.9598437,241.294265 87.8674168,242.734965 C87.799637,243.769313 87.1464868,244.72978 84.5646949,244.932955 C81.6193572,245.166915 79.2100955,248.226862 72.7278878,244.920642 C71.5263378,244.311115 71.3599694,239.083961 70.4480238,238.000358 C61.9016149,237.316949 59.1596164,232.175991 59.9175171,230.79686 C60.5460201,229.651688 65.4199995,229.928746 66.8988302,229.934903 C68.9938403,229.947217 68.2112924,228.506517 68.8459573,227.478325 C69.4744603,226.450134 69.0739437,225.354217 68.6241327,224.707749 C64.1506699,224.867827 63.8117712,227.712285 60.4659168,226.862642 C58.9131446,226.462447 57.0769298,226.831858 55.0312141,227.632246 C53.1272196,228.377223 45.2955788,228.241773 44.6177814,222.897639 C49.8614685,225.391158 51.6114181,222.121878 51.6114181,222.121878 C51.6114181,222.121878 49.4363047,221.518508 49.0912442,219.794594 C51.4881823,221.118314 53.5462216,220.404121 54.4458436,220.268671 C59.1596164,219.560634 59.9668114,222.398936 61.7907026,222.331211 C64.7853347,222.226544 66.4613428,221.697056 66.4613428,221.697056 C64.3971417,219.745339 61.4826129,220.638081 60.3858135,219.523693 C60.0037822,219.129656 59.8620609,218.175346 59.1596164,216.907038 C58.6543492,216.001983 56.682575,216.199002 55.8076002,213.256034 C55.0743466,210.787143 49.066597,208.767701 45.2524463,203.257333 C41.4321337,197.746965 41.0870732,201.761222 35.338119,190.112488 C33.7668614,186.929404 30.5565665,188.166928 29.7678568,185.248588 C28.0918487,179.042497 23.5814151,181.843857 22.5585573,173.168876 C22.4907775,172.61476 22.1333934,171.069395 22.3120855,170.219751 C22.4846157,169.376265 22.4599685,166.839648 23.6923274,167.252156 C26.5760472,168.224936 26.3603844,172.485467 28.4061002,172.633231 C29.490576,172.71327 29.3550165,170.41677 30.7907147,170.607632 C32.8241068,170.872376 31.0741572,172.670172 33.7976704,176.013334 C35.2518538,177.792659 33.4710952,180.711 35.036191,181.46829 C40.4154376,184.072632 39.8731997,187.231089 40.5818061,187.489676 C43.8413953,188.665632 45.1045632,189.767705 49.1836711,193.929726 C52.0673909,196.866537 58.5804077,198.947548 59.0733512,198.929077 C59.8374138,198.898293 60.2132832,198.633549 60.6076381,198.165629 C60.9958311,197.691553 65.7773836,191.331542 66.1963856,189.07814 C66.5476079,187.212618 67.9340117,186.215211 68.7288832,184.25118 C69.7455793,181.714564 70.8978348,181.068096 72.0685758,180.969587 C74.071159,180.797195 76.3571847,182.354875 78.8773586,179.842886 C79.5921268,179.128693 79.7030391,177.989678 81.9644177,177.337054 C84.231958,176.684429 84.6447983,175.539257 84.9590498,174.831221 C85.2486541,174.184754 86.0804964,173.550599 86.2776738,172.417742 C85.2979485,172.824093 84.1087221,173.125778 82.6237297,173.125778 L51.4512115,173.125778 L51.4512115,157.419689 L56.713384,155.110876 C57.2679455,154.883073 57.311078,154.562917 57.311078,154.107312 L57.3049162,138.031813 L51.4019171,132.275171 L57.3049162,126.690921 L57.311078,110.52307 C57.311078,109.765779 56.9536939,109.574917 56.8058109,109.531819 L52.9793365,107.407711 C45.6776101,110.252169 36.6937138,124.000384 21.7328768,119.370443 C13.3774835,116.784572 8.595931,108.626764 8.50350408,104.015294 C11.4057093,107.549318 15.5525969,107.684769 15.5525969,107.684769 C15.5525969,107.684769 2.10756143,97.6183418 4.82491279,85.5694139 C6.13737501,89.5282594 9.69273041,91.2768008 9.69273041,91.2768008 C9.69273041,91.2768008 1.0292474,72.6339016 18.5349055,64.9563271 C13.543852,72.4368828 16.1441292,77.2145875 16.1441292,77.2145875 C16.1441292,77.2145875 16.9143535,72.3691576 21.6034791,70.7745371 C18.7197593,81.7460187 21.4617578,90.7719402 36.3548151,92.8221666 C34.7835575,91.6154268 34.2413196,89.3127701 34.2413196,89.3127701 C34.2413196,89.3127701 39.9348176,93.7949467 49.7197472,91.2952713 C54.0884595,90.180884 58.722129,91.3937807 58.722129,91.3937807 C59.1657782,87.9028547 61.297759,81.7768029 71.2798661,72.3322166 C76.0922275,67.7823148 69.3697098,61.2068141 64.2985529,57.4388305 C57.1693568,52.1377947 61.1806849,49.2317682 62.9737671,46.3380553 C64.7668493,43.4443424 70.7992461,32.9223098 71.0950122,31.0937295 C72.7402114,20.9657344 77.2937775,23.4469393 76.0737422,20.1591889 C75.5499896,18.7431166 74.5825879,18.4968432 74.249851,17.5055926 C73.9171141,16.5081852 73.2516403,13.1958074 72.5923283,12.0383223 C74.0834826,9.71719512 80.2206298,4.58239395 83.7020437,3.41875195 C84.7187398,5.73372227 86.8507207,13.362042 84.5277242,17.1731234 C82.2108894,20.9842049 84.0963986,23.1698816 83.2029384,25.9589283 C82.4080669,28.44629 79.555156,33.4148566 76.8624519,38.0447973 C74.0834826,42.8348156 75.3466504,50.5862721 77.2321595,51.8053256 C79.7400099,53.4307303 88.3418749,61.5823811 92.987868,66.2246354 C93.3206049,59.2612539 90.498503,53.1290453 89.5064541,49.650433 C87.7503427,43.5243812 94.6330671,44.7619053 98.2562022,45.6608033 C102.705018,46.7690338 122.767821,53.8740225 128.640011,50.3153713 C131.973542,48.2959291 134.210273,50.2599598 132.731442,44.1831627 C133.236709,43.0195207 134.807967,39.1407141 134.807967,39.1407141 C139.564872,38.3464822 148.031178,38.0632678 149.208081,41.0801174 C146.694069,45.5068824 143.853481,49.1455725 139.786697,51.263524 C138.166145,53.8740225 134.395127,60.6650125 128.097773,59.7353303 C118.497697,58.3131012 108.287604,54.7852342 106.925847,58.8672164 C106.100167,61.3422645 109.575419,64.3406436 111.448604,67.7700012 C113.266334,71.1070062 118.811949,77.5593703 118.590124,91.4984469 L151.629666,91.4984469 C150.107703,88.752498 149.017065,85.5324729 149.694862,82.0784879 C155.006329,82.4355844 159.307262,85.7479621 160.989432,86.9362314 C161.913701,90.4640984 164.859039,89.4235932 167.292947,92.1387578 C171.729439,90.7596266 178.353368,99.8471164 182.118225,103.75055 C187.275647,109.100841 189.58632,107.469279 190.615339,116.525985 C191.274651,122.338038 184.114646,126.586255 181.810135,129.775496 C183.584732,134.731749 182.309241,136.277115 178.97571,137.391502 C175.642179,138.505889 174.089407,138.610555 174.187995,140.045098 C174.391335,142.920341 174.34204,145.795583 176.905347,146.28813 C181.391133,142.372382 191.736786,131.721056 194.219989,129.775496 C197.701403,121.248278 202.655486,124.985478 206.537416,116.642965 C205.471426,113.866232 204.873732,110.449188 208.761824,109.932014 C211.010879,109.630329 210.653495,108.82994 211.417558,108.337393 C214.332086,106.478029 214.935942,109.56876 215.13312,110.326051 C215.182414,110.516913 216.186786,110.516913 216.316184,110.443031 C216.993982,109.267075 218.762417,108.060336 220.333674,107.918728 C221.923417,107.777121 223.956809,110.910951 224.283384,111.766751 C224.985829,113.570704 226.785073,113.718468 226.507792,116.833827 L226.507792,116.833827 Z M229.151202,117.067787 C229.422321,113.90933 228.07905,112.400905 227.271855,111.502007 C226.98225,111.175695 226.828205,110.990989 226.754264,110.812441 C226.735779,110.763187 224.240252,105.265132 220.444586,105.265132 L220.099526,105.277446 C218.817873,105.394426 217.480763,105.923913 216.340831,106.705832 C215.256355,105.357485 213.925408,105.105054 213.056595,105.105054 C212.064546,105.105054 211.035526,105.44368 209.988021,106.108619 C209.390327,106.490342 209.032943,106.945948 208.823442,107.23532 C207.566436,107.376927 205.181822,107.851003 203.887845,110.024366 C202.908119,111.668241 202.834178,113.780036 203.66602,116.45826 C202.273455,119.013347 200.837756,119.795265 199.06316,120.755731 C196.851075,121.962471 194.127562,123.440112 192.032552,128.150091 C190.596854,129.387615 188.070518,131.862663 185.15599,134.719435 C185.377814,133.488068 185.254578,132.071996 184.78012,130.366552 C185.266902,129.861692 185.858434,129.30142 186.474614,128.722677 C189.592482,125.761239 193.868767,121.703884 193.246426,116.230457 C192.433069,109.045429 190.646148,107.352299 187.552928,104.981918 C186.536232,104.206156 185.390138,103.325729 184.022219,101.909656 C183.313613,101.176993 182.500256,100.247311 181.61912,99.2437465 C177.521526,94.5891785 172.943313,89.3066133 168.192569,89.3497111 C167.101932,88.4692836 166.011294,88.0075209 165.160967,87.6442676 C163.848504,87.0839955 163.743754,86.991643 163.552738,86.2651363 L163.306266,85.3354541 L162.197143,84.5473791 C160.231531,83.1313068 155.616347,79.8250859 149.867393,79.4372053 L147.538234,79.2832844 L147.094585,81.5736273 C146.632451,83.9440092 146.792657,86.3451752 147.587529,88.8510074 L121.215048,88.8510074 C120.814532,77.8548984 116.889469,71.5502984 114.702032,68.0470588 C114.338486,67.4621594 114.018072,66.951142 113.777762,66.501693 C113.075318,65.2210711 112.200343,64.0204881 111.430119,62.9676691 C110.739998,62.0195164 109.618551,60.4803074 109.464506,59.7968986 C109.680169,59.7168598 110.148466,59.6060367 111.078897,59.6060367 C113.364922,59.6060367 116.735424,60.2832887 120.309265,60.9974816 C122.718526,61.4838717 125.207891,61.9825754 127.70958,62.3519855 C128.22717,62.4258676 128.750923,62.4689654 129.262352,62.4689654 C135.910928,62.4689654 139.909933,56.1212676 141.672206,53.252182 C149.189595,49.2994934 152.134933,41.2894498 152.134933,41.2894498 C152.134933,41.2894498 150.816309,35.9637867 141.259366,35.9637867 C139.04112,35.9637867 136.533269,36.1669623 134.37048,36.5302156 L132.910134,36.7764891 L132.349411,38.1494635 C132.349411,38.1494635 130.796639,41.9851723 130.303695,43.1303437 L129.952473,43.9430461 L130.161974,44.8050031 C130.383799,45.7408422 130.482387,46.3380553 130.52552,46.7074654 C130.494711,46.7136223 130.463902,46.7259359 130.439255,46.7320928 C129.63206,46.9660525 128.522937,47.2923648 127.265931,48.0496557 C126.896223,48.2774586 125.941145,48.6530256 123.735222,48.6530256 C117.604237,48.6530256 107.782336,45.7162148 102.501679,44.133908 C100.936583,43.6659885 99.6795768,43.2904215 98.8970289,43.0934027 C96.6541357,42.5392875 94.8055973,42.2622299 93.2528251,42.2622299 C90.6648715,42.2622299 88.7732006,43.0318344 87.6271068,44.5525729 C86.4994984,46.0425271 86.2776738,48.000401 86.9554712,50.3769396 C87.1772958,51.1465441 87.4792237,52.0454422 87.8242842,53.0428496 C88.4343019,54.828332 89.1613936,56.9585973 89.6789843,59.3043518 C85.6368472,55.4378588 80.904589,51.0911326 78.8157407,49.6812172 C78.0147074,48.5422025 77.0534675,42.9887365 79.1546394,39.3746738 C82.2478602,34.0551676 84.8727847,29.4313838 85.7292741,26.7654738 C86.2345412,25.1646965 86.1236289,23.7363105 86.031202,22.5911391 C85.9141279,21.1565963 85.8340246,20.1222479 86.7952645,18.5460979 C89.9008089,13.4482377 87.0602217,4.47772773 86.1297907,2.35977617 L85.1562272,0.143315234 L82.8640397,0.906762891 C78.6124015,2.32283516 72.062414,7.95634004 70.3617587,10.6037795 L69.4929457,11.9582834 L70.2878172,13.3497283 C70.5650979,13.8422752 71.0457179,15.7324238 71.2737043,16.6436355 C71.4523963,17.3639854 71.612603,17.9858258 71.7358389,18.3429223 C72.0808994,19.3772707 72.6970788,20.0175816 73.109919,20.4362465 C73.2146695,20.5470695 73.2886111,20.6271084 73.350229,20.6948336 C71.9206927,21.8646324 69.5484018,24.0872502 68.4824114,30.6689078 C68.0695712,32.20196 62.8936638,41.4372139 60.7185504,44.9404535 C60.490564,45.3098637 60.219445,45.6792738 59.9421643,46.0548408 C58.1860528,48.4621637 54.5259469,53.4738281 62.7149718,59.5629389 C67.2500525,62.9307281 70.1522577,66.3970268 70.2816554,68.5950172 C70.3063025,69.0814072 70.232361,69.6786203 69.4621367,70.4112838 C62.4315292,77.0545098 58.2168618,82.9527586 56.6579278,88.3523037 C55.8199238,88.2537943 54.8340366,88.1799123 53.7680462,88.1799123 C52.0858763,88.1799123 50.5022951,88.3646174 49.066597,88.7340275 C47.3104856,89.1773197 45.5790214,89.4051227 43.9214987,89.4051227 C38.813371,89.4051227 34.1180837,86.9177609 29.9896814,82.7926809 C29.9896814,86.5298803 31.4377031,88.9864578 31.4377031,88.9864578 C28.4800417,87.9521094 26.3234137,86.4375277 24.9924661,84.4488697 C22.9713975,81.4258633 22.6941167,77.0483529 24.1667856,71.4456322 L25.4176299,66.6740844 C25.4176299,66.6740844 21.2953894,67.400591 19.3482623,68.8536043 C21.3816545,63.7557441 25.7688522,58.8856869 25.7688522,58.8856869 C25.7688522,58.8856869 3.20436084,64.2421342 4.78794202,79.6834787 C4.78794202,79.6834787 -3.48734794,88.678616 5.79231452,100.961504 L5.85393246,104.070706 C5.96484476,109.618015 11.2763116,118.90868 20.9503289,121.894746 C23.2301928,122.602782 25.5162186,122.959879 27.7591118,122.959879 C36.1946084,122.959879 42.5227713,118.046723 47.6124135,114.094035 C49.4979226,112.628708 51.3033284,111.231106 52.874586,110.375306 L54.6615064,111.372713 L54.6553446,125.551906 L47.5754428,132.244387 L54.6553446,139.1462 L54.6615064,153.116061 L48.8016399,155.689618 L48.8016399,175.773217 L79.0375653,175.773217 C78.1379433,176.376587 77.6018672,177.084623 77.1643798,177.731091 C77.1027618,177.823444 77.0534675,177.915796 76.9856877,177.989678 C76.3818319,178.593048 75.9689917,178.642303 75.568475,178.642303 C75.1987673,178.642303 74.7674417,178.574578 74.3053072,178.500696 C73.5782154,178.389872 72.6970788,178.254422 71.8405894,178.334461 C69.3389008,178.54995 67.5150097,180.163041 66.2703272,183.25993 C66.0300172,183.850986 65.6911185,184.34969 65.2967636,184.928432 C64.6682606,185.845801 63.8918745,186.990972 63.5961084,188.59175 C63.3126658,189.841587 60.1208563,194.459214 58.8268795,196.146187 C57.0830916,195.604386 52.9177186,193.948197 51.075342,192.076519 C47.3659418,188.290065 45.6960955,186.701601 42.473477,185.384038 C41.9497244,184.004907 40.7604981,181.560643 37.0079653,179.50426 C37.0079653,179.424221 37.0141271,179.344182 37.0202889,179.2703 C37.106554,177.983521 37.2297899,176.031804 35.8557097,174.338674 C34.9006316,173.175032 34.7712339,172.399271 34.6356744,171.654294 C34.4816295,170.755396 34.0626275,168.366544 31.1357751,167.978663 C29.9835196,167.837056 29.1455155,168.157211 28.5170125,168.618974 C27.8268915,167.209058 26.7485775,165.485144 24.5426551,164.746324 C24.1791092,164.623187 23.8032397,164.561619 23.4396939,164.561619 C20.3095023,164.561619 19.9028238,168.089486 19.7734262,169.253128 C19.748779,169.419362 19.7364554,169.573283 19.71797,169.690263 C19.4961454,170.743082 19.6625139,171.900567 19.8658531,173.10115 C19.8905002,173.255071 19.9151474,173.384365 19.927471,173.482874 C20.5806212,178.993242 22.5339101,180.889548 24.8322594,182.638089 C25.9968386,183.53083 26.7054449,184.066475 27.2107121,185.938153 C27.9439656,188.659475 30.0204903,189.521432 31.2651728,190.032449 C32.2695453,190.451114 32.639253,190.629662 32.9596663,191.282287 C36.5643161,198.584294 38.2218388,200.209699 40.3414961,201.853574 C41.1671765,202.493885 41.8757829,203.048 43.071171,204.765758 C45.4064911,208.133547 48.4504176,210.331537 50.6686636,211.932315 C51.6791979,212.658821 53.0594398,213.656229 53.2997498,214.093364 C53.7988552,215.792651 54.6306974,216.833156 55.4317307,217.516565 C54.9819197,217.535035 54.5197851,217.58429 54.0514888,217.652015 C53.8851203,217.676643 53.6941047,217.713584 53.4722801,217.756681 C53.0656016,217.842877 52.6096288,217.93523 52.1166853,217.93523 C51.4943441,217.93523 50.9397825,217.787466 50.3728975,217.479624 L45.3695204,214.715204 L46.4971287,220.317925 C46.5340995,220.508787 46.5833939,220.693492 46.63885,220.87204 C46.3554075,220.773531 46.0658031,220.650394 45.7577134,220.508787 L41.3828393,218.427777 L41.992857,223.230109 C42.682978,228.672752 48.1300043,230.605998 52.5911435,230.605998 C53.3798532,230.605998 54.8710074,230.538273 56.0047776,230.094981 C56.5655009,229.873335 57.0892534,229.700943 57.5637116,229.577806 C56.8982378,230.839958 57.0214737,232.440735 57.9149339,234.103081 C58.5988931,235.371389 61.2915972,239.348705 68.5317057,240.444622 C68.6179709,240.844816 68.7103978,241.300422 68.7781775,241.657519 C69.2834447,244.181821 69.7086085,246.355184 71.5201761,247.27871 C73.9171141,248.497763 76.0983893,249.094976 78.1872377,249.094976 C80.2391152,249.094976 81.7918874,248.528547 83.0427317,248.072942 C83.7266909,247.826668 84.3182232,247.611179 84.7741959,247.574238 C89.7097933,247.1802 90.4307233,244.175664 90.5108266,242.907356 C90.5662827,242.051556 90.4861794,240.770934 90.3814289,239.656547 C92.92625,238.659139 96.6972682,236.725893 98.8230873,233.709043 C100.406668,231.455641 100.899612,228.894398 100.246462,226.290056 C99.5994734,223.722655 97.843362,223.193168 96.4877672,223.193168 C95.4772329,223.193168 94.1832561,223.470225 92.0327898,224.147477 C91.7678327,224.227516 91.4905519,224.326025 91.1947858,224.424535 C90.9236668,224.516887 90.5662827,224.640024 90.2212223,224.750847 C90.017883,223.968929 89.6420136,223.193168 88.7670388,222.632896 C88.9642162,220.908981 88.3726839,219.745339 87.8366078,219.068087 C87.4607383,218.600168 86.8692061,218.058366 85.9634223,217.676643 C86.7274848,216.74696 87.3929586,215.435554 87.7749898,213.373014 C88.2432862,212.788115 89.7837348,211.624473 90.5970917,211.26122 C91.3796396,210.904123 98.3855999,207.690255 102.47087,203.608272 C102.618753,203.466665 102.692694,203.423567 102.698856,203.423567 C102.705018,203.423567 103.013108,203.423567 103.241094,203.435881 C103.475242,203.448195 103.703229,203.460508 103.937377,203.460508 C105.342266,203.460508 106.506845,202.992589 107.498894,202.038279 C108.287604,201.280988 110.807778,199.821818 112.650154,198.756686 C115.053254,197.365241 116.451981,196.546382 117.197558,195.807561 C117.776767,195.241132 118.756492,194.810154 119.280245,194.730115 C119.415804,194.773213 119.576011,194.834781 119.760865,194.89635 C121.208887,195.419681 124.030988,196.435559 128.338083,196.201599 C130.242077,196.096933 131.388171,195.475092 132.07213,195.111839 C132.146072,195.068741 132.213852,195.025643 132.281631,194.994859 C134.512201,194.933291 135.615162,193.82506 136.08962,193.153965 C136.57024,192.48287 136.829036,191.688638 136.847521,190.882093 C137.155611,190.869779 137.519157,190.888249 137.919673,190.92519 C138.431102,190.968288 138.948693,190.992916 139.478607,190.992916 C143.847319,190.992916 148.265326,189.552216 149.510009,189.108924 C149.848907,188.991944 151.272282,188.757984 153.022231,188.757984 C153.582955,188.757984 154.106707,188.782612 154.568842,188.825709 C157.255384,194.422273 162.83797,200.092719 169.147648,200.96699 L169.831607,201.065499 L169.024412,202.7771 C169.024412,202.7771 173.879906,205.018188 177.028583,202.259925 C181.267897,206.495829 191.675168,207.062257 191.675168,207.062257 L187.059984,202.715531 C198.163538,205.245991 203.678344,198.221041 203.678344,198.221041 C203.678344,198.221041 195.008699,196.201599 192.593275,194.206784 L193.19097,193.671139 C194.984052,192.058048 195.735791,190.087861 195.865188,187.748263 C196.925017,188.056105 198.052625,188.210026 199.229528,188.210026 C204.978482,188.210026 210.296111,184.478983 210.517936,184.318905 L216.753672,179.885984 L209.106885,179.516573 C208.022409,179.467319 207.036522,179.301084 206.149223,179.024027 C207.738966,177.232387 209.889433,173.772246 211.072497,167.523057 C213.358523,169.807243 216.975496,170.564534 216.975496,170.564534 C216.975496,170.564534 214.134909,164.71554 216.100521,159.106662 C216.5072,157.94302 217.2651,156.693183 217.554705,154.987739 C218.577563,154.624486 219.797598,153.984175 221.190164,152.888258 C221.72624,152.457279 222.508788,152.24179 223.51316,152.24179 C227.961976,152.24179 232.829793,155.221699 232.829793,155.221699 C232.829793,155.221699 230.118604,144.798176 222.989408,142.132266 C223.001731,141.799796 223.568616,137.791696 222.79223,134.756376 C222.79223,134.756376 223.593263,131.136157 224.073883,128.654952 C225.423316,127.448212 226.384556,125.465711 226.076467,123.360073 C226.150408,123.169211 226.489307,122.756703 226.717293,122.479645 C227.592268,121.408356 228.910892,119.795265 229.151202,117.067787 L229.151202,117.067787 Z M188.07668,145.697074 C186.185009,146.497462 183.88666,147.427145 180.066347,147.605693 C181.17547,146.54056 192.482363,135.550608 193.400471,135.156571 C192.02639,140.83933 195.033346,142.741792 188.07668,145.697074 L188.07668,145.697074 Z M163.238487,107.530848 C163.238487,107.530848 161.926024,104.932663 159.892632,103.017887 L159.892632,97.2674021 C160.533459,97.2981863 161.014079,97.2550885 161.334492,97.2243043 C161.334492,97.2243043 163.306266,101.152366 167.668817,101.601815 C169.25856,103.374983 177.379805,106.662734 179.579566,109.581074 C180.83041,111.231106 180.688689,113.798507 179.610375,116.322809 C178.858636,118.083664 176.344623,118.75476 173.916876,119.388914 C165.82644,111.785221 167.859832,108.971547 163.238487,107.530848 L163.238487,107.530848 Z M71.581794,167.997133 C70.7622753,168.625131 69.844168,169.080737 68.8644426,169.185403 L55.3824364,169.197716 L58.5927313,165.996162 L68.5378675,165.996162 C69.78255,165.866868 71.581794,163.317938 71.581794,163.317938 L71.581794,167.997133 L71.581794,167.997133 Z M104.32557,181.326683 C106.254211,182.496482 111.386986,185.168549 116.488952,184.959216 C115.977523,186.048976 113.80241,187.261873 112.84117,187.009443 C111.682752,187.261873 110.924852,188.524024 110.339481,188.61022 C105.902989,189.262845 105.360751,190.709701 102.661885,191.14068 C101.010524,191.405424 98.6752043,192.064205 98.6752043,192.064205 C101.195378,186.510739 96.1673539,186.984815 104.32557,181.326683 L104.32557,181.326683 Z M70.8547023,98.6280629 L70.8547023,95.4265082 C71.6187648,95.4265082 72.4999014,95.5681154 74.0341882,96.8364236 L74.0341882,101.3186 C74.0341882,101.3186 71.5879558,98.6280629 70.8547023,98.6280629 L70.8547023,98.6280629 Z M105.675003,107.949512 L124.530094,134.53473 L127.734227,144.588843 L105.675003,113.490665 L105.675003,107.949512 L105.675003,107.949512 Z M86.8199117,110.52307 L86.8199117,134.53473 L83.6096168,144.588843 L83.6096168,110.52307 C83.6096168,104.132274 89.4694833,102.630006 89.4694833,102.630006 L89.4694833,98.6280629 L92.6736164,95.4265082 L92.6736164,105.037329 C91.5644934,105.394426 86.8199117,106.02858 86.8199117,110.52307 L86.8199117,110.52307 Z M105.675003,134.891827 L84.0039716,165.442046 C83.5972932,165.92228 83.2337473,165.990005 82.5682735,165.996162 L74.6257205,165.996162 L74.6257205,169.197716 L82.5682735,169.197716 C85.0145059,169.179246 85.9880695,168.1018 86.6227343,167.295254 L105.675003,140.426822 L105.675003,134.891827 Z" id="Shape" fill="#FFFFFF" transform="translate(117.110144, 124.619146) scale(-1, 1) rotate(-180.000000) translate(-117.110144, -124.619146) "></path>
            </g>
        </g>
    </g>
</svg>