<?xml version="1.0" encoding="UTF-8" standalone="no"?>
<svg width="250px" height="250px" viewBox="0 0 250 250" version="1.1" xmlns="http://www.w3.org/2000/svg" xmlns:xlink="http://www.w3.org/1999/xlink">
    <!-- Generator: Sketch 47.1 (45422) - http://www.bohemiancoding.com/sketch -->
    <title>WOFF</title>
    <desc>Created with Sketch.</desc>
    <defs></defs>
    <g id="Page-1" stroke="none" stroke-width="1" fill="none" fill-rule="evenodd">
        <g id="WOFF">
            <g transform="translate(12.000000, 0.000000)" id="Shape">
                <path d="M155.259277,0.679347826 C155.858313,4.83695652 151.66506,7.58152174 149.377831,10.8695652 C143.224096,19.8097826 141.753735,34.1847826 143.115181,48.9130435 C154.006747,54.5923913 165.74241,58.8586957 176.443373,66.1141304 C181.889157,69.7282609 185.129398,74.4836957 193.298072,71.9836957 C198.498795,74.1304348 197.545783,79.2391304 198.008675,84.5108696 C198.526024,90.5706522 201.575663,97.3641304 201.14,103.695652 C216.034217,105.923913 227.715422,117.934783 224.665783,135.76087 C223.413338,141.921179 220.262037,147.536457 215.653012,151.820652 C212.93012,154.211957 208.954699,155.625 208.600723,160.815217 C213.093494,166.902174 216.606024,181.141304 208.192289,184.673913 C205.469398,185.815217 202.555904,184.483696 199.587952,185.081522 C196.62,185.679348 192.699036,189.320652 189.785542,191.331522 C180.173735,197.907609 169.445542,203.478261 159.588675,208.940217 C159.915422,211.494565 163.128434,212.01087 163.509639,214.809783 C163.809157,217.173913 161.739759,218.88587 161.140723,221.467391 C160.405542,224.755435 162.066506,231.304348 160.378313,234.375 C158.69012,237.445652 150.820964,239.375 147.036145,240.652174 C131.084272,246.362705 114.161986,248.883455 97.2344578,248.070652 C89.9098795,247.581522 84.4368675,244.429348 77.6296386,241.413043 C47.6778313,228.152174 22.7906024,211.875 5.88144578,183.913043 C2.28722892,177.934783 -2.12385542,170.543478 1.17084337,165.108696 C1.99788482,164.186045 2.66091502,163.129178 3.1313253,161.983696 C4.24771084,157.690217 2.58674699,154.701087 5.50024096,152.581522 C7.05318538,151.720752 8.81833845,151.315681 10.5920482,151.413043 C13.3149398,149.347826 13.3149398,145.625 17.2631325,143.994565 C22.3277108,141.847826 29.9790361,143.532609 36.0783133,143.994565 C42.286506,139.184783 52.0072289,134.728261 53.3142169,125.217391 C54.4033735,117.445652 51.9255422,108.913043 52.1433735,100.543478 C52.8560788,85.0903535 55.0905366,69.7446966 58.8144578,54.7282609 C60.6115663,46.576087 62.6537349,37.5271739 66.2751807,31.6304348 C71.7209639,22.6358696 81.3055422,15.326087 89.3925301,8.94021739 C91.9792771,6.90217391 95.1106024,4.10326087 98.8137349,4.23913043 C99.0587952,13.2336957 90.6450602,21.6847826 89.7737349,31.6304348 C88.7118072,43.3423913 93.0956627,54.076087 95.6824096,64.1032609 C99.9301205,63.1521739 104.041687,62.0380435 108.207711,60.9782609 C110.930602,54.6467391 113.326747,47.8532609 116.049639,41.4130435 C118.374542,35.1009768 121.397477,29.0673185 125.06241,23.423913 C128.275422,19.1847826 134.020723,15.4076087 138.404578,11.6847826 C142.649586,7.71031733 147.20183,4.07587881 152.019036,0.815217391 C152.91759,0.298913043 153.734458,-0.407608696 155.150361,0.815217391 M140.256145,59.5108696 C126.92332,58.8073921 113.585739,60.8039879 101.046506,65.3804348 C112.646024,65.625 125.389157,63.6684783 135.545542,67.3369565 C144.558313,70.5978261 149.568434,81.6032609 154.769157,90.8152174 C158.009398,96.576087 162.937831,104.048913 162.937831,109.619565 C163.155663,117.771739 154.088434,125.652174 149.323373,130.353261 C144.243655,134.933402 139.399773,139.7675 134.810361,144.836957 C126.31494,154.86413 116.51253,167.98913 115.232771,183.559783 C114.170843,196.413043 120.460723,208.016304 134.047952,206.25 C143.768675,204.945652 146.573253,193.505435 156.402892,190.217391 C163.890843,187.690217 166.722651,192.934783 172.740241,192.934783 C181.861928,193.070652 183.196145,181.358696 193.543133,180.788043 C198.689398,180.516304 204.65253,183.88587 208.818554,180.407609 C212.385542,177.445652 211.105783,166.630435 207.647711,163.967391 C205.496627,173.396739 188.179036,176.820652 176.661205,176.494565 C172.331807,176.358696 167.049398,174.673913 162.175422,175.326087 C147.526265,177.255435 146.600482,197.826087 133.149398,198.804348 C130.634137,199.079715 128.109095,198.379191 126.097108,196.847826 C119.28988,189.619565 133.367229,180.679348 137.451566,177.663043 C146.61797,170.562381 156.969926,165.134673 168.029639,161.630435 C174.700723,159.701087 181.644096,159.918478 188.042892,158.097826 C197.164578,155.543478 201.085542,146.358696 195.884819,136.983696 C193.161928,134.456522 188.042892,134.266304 183.332289,133.831522 C185.129398,132.5 187.226024,131.467391 187.253253,128.396739 C186.208715,127.130511 184.603111,126.463434 182.966784,126.615849 C181.330456,126.768265 179.87628,127.720344 179.084578,129.157609 C177.968193,131.630435 180.010361,133.369565 179.084578,135.054348 C174.78241,133.26087 171.351566,130.842391 170.453012,126.440217 C167.73012,112.853261 190.547952,104.538043 202.610361,110.788043 C205.056418,114.028799 205.786366,118.247872 204.570843,122.119565 C203.100482,126.929348 197.028434,131.73913 196.728916,135.434783 C197.129911,137.420118 197.648164,139.380059 198.280964,141.304348 C199.479036,146.086957 200.595422,152.391304 204.952048,153.423913 C214.563855,155.733696 221.97012,140.923913 222.596386,132.309783 C223.075488,124.782003 220.369077,117.398763 215.135663,111.956522 C210.724578,108.016304 205.632771,107.255435 199.479036,106.086957 C199.206747,97.7445652 198.63494,89.7826087 194.36,85.3532609 C192.971325,86.576087 194.60506,89.5380435 194.768434,91.6032609 C194.11494,94.0217391 190.248434,95.1086957 190.84747,97.4728261 C192.583085,97.1775071 194.351568,97.7692113 195.558072,99.048913 C194.60506,111.875 184.666506,100.081522 185.728434,93.9673913 C186.57253,88.8858696 197.273494,84.048913 197.11012,79.076087 C196.673704,76.4046753 194.376324,74.4329195 191.664337,74.4021739 C190.684096,74.5380435 188.696386,77.1195652 188.124578,77.9076087 C184.149157,83.3423913 183.332289,86.0597826 179.493012,91.2228261 C171.106506,76.7663043 162.039277,61.3315217 140.283373,59.5108696 M108.915663,90.4347826 C103.889813,92.054439 99.3246687,94.8494835 95.6007229,98.5869565 C101.373253,100.380435 107.98988,101.304348 113.24506,103.695652 C111.202892,115.76087 114.034699,130.869565 123.020241,133.423913 C134.674217,136.766304 139.929398,122.418478 144.612771,115.027174 C146.13759,115.706522 147.853012,116.222826 149.296145,116.983696 C137.909774,105.320896 124.136323,96.2467419 108.915663,90.3804348 M19.9315663,148.994565 C20.0072191,152.067312 21.2764782,154.990455 23.4713253,157.146739 C26.5839926,154.89965 29.1291272,151.959584 30.9048193,148.559783 C27.3540492,147.324975 23.4688288,147.460683 20.013253,148.940217 M134.510843,217.418478 C127.159036,219.755435 118.173494,223.206522 109.814217,222.119565 C100.746988,220.923913 89.6920482,214.157609 81.1966265,209.592391 C53.3414458,194.646739 30.4419277,176.059783 15.3298795,150.108696 C12.606988,153.61413 2.80457831,164.646739 2.7773494,168.88587 C2.7773494,172.391304 6.50771084,179.184783 9.04,183.369565 C25.1322892,210.163043 50.4551807,226.847826 80.406988,238.940217 C85.8527711,241.11413 91.0262651,243.858696 96.0908434,244.375 C119.807229,246.902174 142.87012,240.951087 157.655422,232.228261 C143.469157,236.875 145.919759,216.657609 158.44506,221.358696 C158.44506,216.793478 158.281687,212.63587 156.076145,210.48913 C148.806024,211.440217 142.107711,215.108696 134.510843,217.527174 M199.206747,157.255435 C195.530843,155.108696 192.753494,158.641304 190.193976,159.972826 C187.222123,159.287315 184.09852,159.857672 181.56241,161.548913 C177.723133,159.646739 174.26506,162.146739 170.970361,163.88587 C167.811807,162.146739 164.21759,165.76087 160.786747,167.01087 C157.355904,168.26087 153.43494,168.043478 154.115663,171.331522 C155.014217,175.597826 160.078795,171.331522 161.167952,169.375 C161.821446,170.434783 161.440241,172.5 162.366024,173.288043 C166.804337,173.559783 168.574217,169.048913 170.534699,168.206522 C170.356056,170.170934 170.484662,172.151124 170.915904,174.076087 C177.069639,174.320652 177.859277,169.23913 180.718313,166.25 C181.698554,167.228261 180.55494,170.326087 181.507952,171.331522 C185.673976,171.059783 186.953735,167.961957 188.968675,165.461957 C189.377108,168.179348 187.961205,168.913043 188.179036,171.331522 C193.216386,173.641304 196.647229,168.61413 198.771084,165.461957 C198.226506,166.630435 198.11759,168.668478 199.152289,169.375 C206.449639,169.375 206.966988,162.554348 207.783855,156.059783 C205.060964,153.695652 201.085542,155.570652 199.152289,157.228261 M148.996627,228.831522 C149.867952,225.13587 153.462169,224.130435 156.838554,222.961957 C152.863133,221.847826 147.635181,224.646739 148.996627,228.831522" fill="#000000" fill-rule="nonzero"></path>
                <path d="M179.574699,91.0869565 C183.413976,85.923913 184.230843,83.2065217 188.206265,77.7717391 C188.778072,76.9836957 190.765783,74.4021739 191.746024,74.2391304 C194.458389,74.294008 196.746764,76.2694532 197.191807,78.9402174 C197.355181,83.9130435 186.654217,88.75 185.81012,93.8315217 C184.82988,99.9456522 194.686747,111.73913 195.639759,98.9130435 C194.433255,97.6333417 192.664772,97.0416375 190.929157,97.3369565 C190.33012,94.9728261 194.196627,93.8858696 194.85012,91.4673913 C194.686747,89.4021739 193.053012,86.4402174 194.441687,85.2173913 C198.716627,89.5652174 199.288434,97.6086957 199.560723,105.951087 C205.714458,107.119565 210.806265,107.880435 215.217349,111.820652 C220.450763,117.262894 223.157175,124.646134 222.678072,132.173913 C222.051807,140.788043 214.509398,155.597826 205.033735,153.288043 C200.677108,152.255435 199.587952,145.951087 198.362651,141.168478 C197.729851,139.24419 197.211597,137.284249 196.810602,135.298913 C197.11012,131.603261 203.182169,126.793478 204.65253,121.983696 C205.868053,118.112003 205.138105,113.892929 202.692048,110.652174 C190.629639,104.402174 167.757349,112.608696 170.534699,126.304348 C171.406024,130.706522 174.836867,133.125 179.166265,134.918478 C180.092048,133.233696 178.04988,131.494565 179.166265,129.021739 C179.957966,127.584474 181.412143,126.632395 183.04847,126.47998 C184.684798,126.327564 186.290402,126.994641 187.33494,128.26087 C187.33494,131.358696 185.211084,132.391304 183.413976,133.695652 C188.124578,134.211957 193.243614,134.320652 195.966506,136.820652 C201.167229,146.222826 197.246265,155.380435 188.124578,157.961957 C181.698554,159.782609 174.78241,159.565217 168.111325,161.494565 C157.048059,164.990306 146.694662,170.41877 137.533253,177.527174 C133.448916,180.543478 119.371566,189.483696 126.178795,196.711957 C128.190782,198.243321 130.715824,198.943845 133.231084,198.668478 C146.682169,197.663043 147.607952,177.119565 162.257108,175.190217 C167.131084,174.538043 172.413494,176.222826 176.742892,176.358696 C188.260723,176.684783 205.578313,173.26087 207.729398,163.831522 C211.18747,166.548913 212.467229,177.418478 208.900241,180.271739 C204.734217,183.75 198.771084,180.271739 193.624819,180.652174 C183.277831,181.195652 181.943614,192.934783 172.821928,192.798913 C166.695422,192.798913 163.863614,187.527174 156.484578,190.081522 C146.65494,193.369565 143.850361,204.809783 134.129639,206.11413 C120.515181,207.934783 114.25253,196.277174 115.314458,183.423913 C116.594217,167.853261 126.396627,154.728261 134.892048,144.673913 C139.481547,139.613154 144.325448,134.788107 149.40506,130.217391 C154.279036,125.516304 163.346265,117.581522 163.019518,109.483696 C162.883373,103.913043 158.036627,96.4402174 154.850843,90.6793478 C149.65012,81.4673913 144.64,70.4619565 135.627229,67.201087 C125.470843,63.5326087 112.727711,65.4891304 101.128193,65.2445652 C113.667426,60.6681183 127.005007,58.6715225 140.337831,59.375 C162.120964,61.0869565 171.160964,76.6304348 179.54747,91.0869565 M170.534699,112.98913 C172.218104,111.311298 174.216778,109.981541 176.416145,109.076087 C178.757831,108.043478 181.616867,108.070652 183.468434,106.358696 C177.695904,103.641304 168.928193,108.423913 170.534699,113.016304" fill="#FFFFFF"></path>
                <path d="M149.377831,116.902174 C147.934699,116.141304 146.219277,115.625 144.694458,114.945652 C140.011084,122.336957 134.755904,136.684783 123.101928,133.342391 C114.116386,130.625 111.284578,115.679348 113.326747,103.451087 C108.071566,101.11413 101.45494,100.163043 95.6824096,98.3695652 C99.4063555,94.6320922 103.9715,91.8370476 108.997349,90.2173913 C124.21801,96.0836984 137.991461,105.157852 149.377831,116.820652 M124.3,106.657609 C121.577108,107.119565 119.371566,111.630435 119.180964,115.652174 C118.77253,125.434783 130.372048,129.51087 134.864819,121.086957 C133.83012,118.722826 130.562651,118.586957 129.419036,116.38587 C131.787952,115.163043 134.619759,115.815217 136.85253,115.190217 C137.560482,114.456522 137.152048,112.472826 137.260964,111.277174 C132.632048,110.625 128.193735,105.842391 124.327229,106.603261" fill="#FFFFFF"></path>
                <path d="M183.495663,106.358696 C181.644096,108.097826 178.78506,108.070652 176.443373,109.076087 C174.244006,109.981541 172.245333,111.311298 170.561928,112.98913 C168.955422,108.396739 177.723133,103.586957 183.495663,106.331522" fill="#000000" fill-rule="nonzero"></path>
                <path d="M30.9592771,148.586957 C29.1938352,152.001179 26.6472093,154.952277 23.5257831,157.201087 C21.3309361,155.044803 20.0616769,152.12166 19.9860241,149.048913 C23.4410947,147.573451 27.3214956,147.428229 30.8775904,148.641304" fill="#8A6E4B"></path>
                <path d="M156.076145,210.434783 C158.281687,212.663043 158.553976,216.820652 158.44506,221.304348 C145.919759,216.684783 143.469157,236.902174 157.655422,232.173913 C142.87012,240.896739 119.807229,246.847826 96.0908434,244.320652 C91.0262651,243.75 85.7710843,241.005435 80.406988,238.88587 C50.4551807,226.820652 25.1322892,210.108696 9.04,183.315217 C6.50771084,179.130435 2.72289157,172.445652 2.7773494,168.831522 C2.7773494,164.592391 12.606988,153.559783 15.3298795,150.054348 C30.4419277,176.005435 53.4503614,194.592391 81.1966265,209.538043 C89.6920482,214.103261 100.746988,220.869565 109.814217,222.065217 C118.173494,223.152174 127.159036,219.701087 134.510843,217.36413 C141.862651,215.027174 148.806024,211.277174 156.076145,210.326087 M7.48795181,172.282609 C7.6513253,180.190217 20.3672289,184.375 21.9737349,176.195652 C22.6529747,173.272249 21.7434317,170.207664 19.5784333,168.124999 C17.4134349,166.042335 14.3113088,165.247813 11.4089157,166.032609 C8.78322666,166.925724 7.14609541,169.535305 7.48795181,172.282609 M29.0260241,191.467391 C26.0853012,199.809783 41.5513253,208.369565 43.9474699,198.88587 C44.6489299,195.864732 43.7162951,192.697485 41.488572,190.5354 C39.2608488,188.373316 36.062424,187.531223 33.0559036,188.315217 C31.3534205,188.750173 29.9232674,189.899914 29.1349398,191.467391 M53.8587952,214.157609 C52.4428916,221.657609 63.4433735,227.744565 68.753012,220.815217 C71.8571084,209.945652 55.4108434,205.869565 53.8587952,214.157609 M84.8180723,232.146739 C85.1720482,241.195652 99.9573494,242.228261 100.501928,234.103261 C100.910361,228.206522 95.0561446,225.054348 89.6103614,226.277174 C88.1785548,226.366598 86.8509809,227.054661 85.9541565,228.172134 C85.0573321,229.289606 84.6744787,230.732792 84.899759,232.146739 M118.636386,235.271739 C120.188434,242.418478 135.300482,241.141304 134.320241,232.146739 C133.993494,229.184783 131.597349,227.173913 127.649157,227.065217 C122.04,226.929348 117.247711,229.021739 118.636386,235.217391" fill="#8A6E4B"></path>
                <path d="M207.811084,156.032609 C206.994217,162.527174 206.476867,169.293478 199.179518,169.347826 C198.144819,168.641304 198.253735,166.630435 198.798313,165.434783 C196.674458,168.559783 193.35253,173.586957 188.206265,171.304348 C187.988434,168.858696 189.404337,168.070652 188.995904,165.434783 C187.035422,167.934783 185.701205,171.032609 181.535181,171.304348 C180.582169,170.298913 181.725783,167.201087 180.745542,166.222826 C177.886506,169.211957 177.096867,174.375 170.943133,174.048913 C170.512558,172.114651 170.383974,170.125617 170.561928,168.152174 C168.546988,169.021739 166.777108,173.586957 162.393253,173.26087 C161.46747,172.472826 161.848675,170.407609 161.195181,169.347826 C160.106024,171.440217 155.041446,175.570652 154.142892,171.304348 C153.462169,168.016304 157.464819,168.206522 160.813976,166.983696 C164.163133,165.76087 167.839036,162.119565 170.99759,163.858696 C174.292289,162.119565 177.750361,159.619565 181.589639,161.521739 C184.118112,159.81178 187.249852,159.239937 190.221205,159.945652 C192.780723,158.586957 195.666988,155.054348 199.233976,157.228261 C201.167229,155.570652 205.224337,153.695652 207.865542,156.059783" fill="#FFFFFF"></path>
                <path d="M11.3816867,166.141304 C14.2840799,165.356509 17.3862059,166.15103 19.5512044,168.233695 C21.7162028,170.316359 22.6257458,173.380944 21.946506,176.304348 C20.34,184.456522 7.62409639,180.298913 7.46072289,172.391304 C7.11886649,169.644 8.75599774,167.03442 11.3816867,166.141304 M18.8151807,177.472826 C22.7906024,174.021739 17.9438554,167.581522 13.3693976,167.690217 C15.7110843,170.407609 19.386988,171.847826 18.8151807,177.472826" fill="#000000" fill-rule="nonzero"></path>
                <path d="M13.3421687,167.771739 C17.9438554,167.771739 22.7906024,174.103261 18.7879518,177.554348 C19.3325301,171.929348 15.6566265,170.516304 13.3421687,167.771739" fill="#FFFFFF"></path>
                <path d="M32.919759,188.505435 C35.9262795,187.721441 39.1247042,188.563533 41.3524274,190.725618 C43.5801505,192.887702 44.5127853,196.05495 43.8113253,199.076087 C41.4151807,208.559783 25.9491566,200 28.8898795,191.657609 C29.6782072,190.090131 31.1083602,188.940391 32.8108434,188.505435 M34.3901205,190.869565 C37.8754217,192.336957 41.1973494,193.994565 41.0612048,199.021739 C44.8187952,195.217391 37.7392771,188.777174 34.3901205,190.869565" fill="#000000" fill-rule="nonzero"></path>
                <path d="M41.1701205,199.076087 C41.3062651,193.994565 37.9843373,192.336957 34.4990361,190.923913 C37.8481928,188.88587 44.9277108,195.326087 41.1701205,199.076087" fill="#FFFFFF"></path>
                <path d="M68.6168675,220.978261 C63.3072289,227.98913 52.2795181,221.820652 53.7226506,214.347826 C55.2746988,206.059783 71.7209639,210.108696 68.6168675,220.978261 M58.0248193,212.826087 C63.2527711,212.826087 65.2677108,215.76087 67.0375904,219.076087 C68.5079518,214.483696 61.973012,210.733696 58.0248193,212.826087" fill="#000000" fill-rule="nonzero"></path>
                <path d="M67.0375904,219.048913 C65.2677108,215.706522 63.2527711,212.63587 58.0248193,212.771739 C61.973012,210.679348 68.5079518,214.429348 67.0375904,219.048913" fill="#FFFFFF"></path>
                <path d="M156.838554,222.961957 C153.462169,224.130435 149.867952,225.13587 148.996627,228.804348 C147.635181,224.646739 152.863133,221.847826 156.838554,222.961957" fill="#FFFFFF"></path>
                <path d="M89.3925301,226.467391 C94.8383133,225.244565 100.774217,228.396739 100.284096,234.293478 C99.7395181,242.445652 84.9542169,241.38587 84.600241,232.336957 C84.3749606,230.923009 84.757814,229.479824 85.6546384,228.362351 C86.5514628,227.244878 87.8790367,226.556815 89.3108434,226.467391 M88.9296386,228.043478 C91.380241,228.478261 96.6626506,229.429348 97.9424096,232.336957 C97.3433735,228.722826 92.986747,226.902174 88.9296386,228.043478" fill="#000000" fill-rule="nonzero"></path>
                <path d="M127.431325,227.255435 C131.379518,227.255435 133.775663,229.375 134.10241,232.336957 C135.082651,241.331522 119.970602,242.608696 118.418554,235.461957 C117.02988,229.211957 121.822169,227.119565 127.431325,227.309783 M119.262651,233.179348 C121.740482,230.217391 128.901687,228.641304 132.223614,232.01087 C130.508193,226.956522 120.079518,227.907609 119.262651,233.179348" fill="#000000" fill-rule="nonzero"></path>
                <path d="M98.0240964,232.336957 C96.7443373,229.429348 91.4619277,228.478261 89.0113253,228.043478 C93.0684337,226.875 97.4250602,228.722826 98.0240964,232.336957" fill="#FFFFFF"></path>
                <path d="M132.141928,231.956522 C128.82,228.586957 121.658795,230.163043 119.180964,233.125 C119.997831,227.853261 130.426506,226.902174 132.141928,231.956522" fill="#FFFFFF"></path>
                <path d="M137.233735,111.413043 C137.233735,112.744565 137.533253,114.592391 136.825301,115.326087 C134.59253,115.951087 131.760723,115.326087 129.391807,116.521739 C130.562651,118.722826 133.83012,118.858696 134.83759,121.222826 C130.344819,129.592391 118.745301,125.516304 119.153735,115.788043 C119.344337,111.766304 121.577108,107.255435 124.272771,106.793478 C128.139277,106.11413 132.57759,110.815217 137.206506,111.467391" fill="#000000" fill-rule="nonzero"></path>
            </g>
        </g>
    </g>
</svg>