<?xml version="1.0" encoding="UTF-8" standalone="no"?>
<svg width="250px" height="250px" viewBox="0 0 250 250" version="1.1" xmlns="http://www.w3.org/2000/svg" xmlns:xlink="http://www.w3.org/1999/xlink">
    <!-- Generator: Sketch 47.1 (45422) - http://www.bohemiancoding.com/sketch -->
    <title>VMI</title>
    <desc>Created with Sketch.</desc>
    <defs></defs>
    <g id="Page-1" stroke="none" stroke-width="1" fill="none" fill-rule="evenodd">
        <g id="VMI" fill-rule="nonzero">
            <g id="Group" transform="translate(7.000000, 0.000000)">
                <polygon id="Shape" fill="#FFD520" points="47.3747462 55.5555556 62.8230635 55.5555556 62.8230635 26.9308943 1.11467515 26.9308943 1.11467515 55.5555556 16.5629925 55.5555556 103.056593 194.783198 103.056593 145.071138"></polygon>
                <path d="M103.650759,197.408537 L15.9688264,56.3177507 L0.180985645,56.3177507 L0.180985645,26.1686992 L63.4172295,26.1686992 L63.4172295,56.3177507 L48.6479592,56.3177507 L103.650759,144.901762 L103.650759,197.408537 Z M1.79372207,54.5392954 L16.9025159,54.5392954 L101.78338,191.819106 L101.78338,145.071138 L46.1015332,54.5392954 L62.0591357,54.5392954 L62.0591357,27.4390244 L1.79372207,27.4390244 L1.79372207,54.5392954 Z" id="Shape" fill="#000000"></path>
                <polygon id="Shape" fill="#FFD520" points="174.101877 26.9308943 174.101877 55.5555556 189.550194 55.5555556 133.953228 145.071138 133.953228 194.783198 220.446828 55.5555556 235.895146 55.5555556 235.895146 26.9308943"></polygon>
                <path d="M133.1893,197.408537 L133.1893,144.647696 L188.531624,56.3177507 L173.677472,56.3177507 L173.677472,26.1686992 L236.998597,26.1686992 L236.998597,56.3177507 L221.210756,56.3177507 L133.1893,197.408537 Z M134.717156,145.325203 L134.717156,192.073171 L219.59802,54.7933604 L234.706814,54.7933604 L234.706814,27.6930894 L174.4414,27.6930894 L174.4414,54.5392954 L190.483883,54.5392954 L134.717156,145.325203 Z" id="Shape" fill="#000000"></path>
                <polygon id="Shape" fill="#FFFFFF" points="133.953228 29.4715447 149.316664 29.4715447 149.316664 0.762195122 87.6082759 0.762195122 87.6082759 29.4715447 103.056593 29.4715447 103.056593 219.596883 87.6082759 219.596883 87.6082759 248.306233 149.316664 248.306233 149.316664 219.596883 133.953228 219.596883"></polygon>
                <path d="M150.165473,249.322493 L86.6745864,249.322493 L86.6745864,218.834688 L102.122904,218.834688 L102.122904,30.1490515 L86.6745864,30.1490515 L86.6745864,0 L149.995711,0 L149.995711,30.1490515 L134.547394,30.1490515 L134.547394,218.834688 L149.995711,218.834688 L150.165473,249.322493 Z M88.3722036,247.798103 L148.637617,247.798103 L148.637617,220.613144 L133.1893,220.613144 L133.1893,29.1327913 L148.637617,29.1327913 L148.637617,1.94783198 L88.3722036,1.94783198 L88.3722036,29.1327913 L103.650759,29.1327913 L103.650759,220.78252 L88.3722036,220.78252 L88.3722036,247.798103 Z" id="Shape" fill="#000000"></path>
                <polygon id="Shape" fill="#CD032E" points="15.0351369 193.428184 1.11467515 193.428184 1.11467515 222.137534 62.8230635 222.137534 62.8230635 193.428184 48.9874826 193.428184 70.1228178 141.683604 49.5816487 108.739837"></polygon>
                <path d="M63.6718721,222.899729 L0.350747373,222.899729 L0.350747373,192.665989 L14.5258517,192.665989 L49.4967678,107.04607 L70.9716265,141.598916 L70.9716265,142.022358 L50.2606956,192.835366 L63.8416339,192.835366 L63.6718721,222.899729 Z M1.79372207,221.375339 L62.0591357,221.375339 L62.0591357,194.190379 L47.7991505,194.190379 L69.6984135,141.768293 L50.1758147,110.433604 L16.223469,194.190379 L1.79372207,194.190379 L1.79372207,221.375339 Z" id="Shape" fill="#000000"></path>
                <polygon id="Shape" fill="#CD032E" points="188.022338 193.428184 174.101877 193.428184 174.101877 222.137534 235.895146 222.137534 235.895146 193.428184 221.974684 193.428184 187.428172 108.739837 166.887003 141.683604"></polygon>
                <path d="M236.659074,222.899729 L173.337949,222.899729 L173.337949,192.665989 L186.918887,192.665989 L166.038194,141.852981 L166.038194,141.852981 L187.258411,107.977642 L187.852577,109.332656 L222.229327,194.021003 L236.404431,194.021003 L236.659074,222.899729 Z M174.865804,221.375339 L235.131218,221.375339 L235.131218,194.190379 L221.465399,194.190379 L221.465399,193.766938 L187.513053,110.433604 L167.990454,141.768293 L189.380432,194.190379 L175.120447,194.190379 L174.865804,221.375339 Z" id="Shape" fill="#000000"></path>
                <polygon id="Shape" fill="#CD032E" points="86.5897055 101.371951 118.50491 152.777778 150.420115 101.371951 154.664159 111.70393 175.120447 78.7601626 166.717241 58.096206 143.375004 58.096206 118.50491 98.0691057 93.6348172 58.096206 70.2076987 58.096206 61.8044931 78.7601626 82.3456623 111.70393"></polygon>
                <path d="M118.50491,154.21748 L86.6745864,103.404472 L82.515424,113.73645 L61.2103271,78.8448509 L69.6984135,57.3340108 L93.9743407,57.3340108 L118.42003,96.6294038 L142.865719,57.3340108 L167.141646,57.3340108 L167.141646,57.8421409 L175.629732,78.8448509 L175.629732,78.8448509 L154.579278,113.821138 L150.420115,103.48916 L118.50491,154.21748 Z M86.6745864,99.6781843 L118.759553,151.338076 L150.84452,99.6781843 L155.088563,110.094851 L174.526281,78.6754743 L166.462599,58.8584011 L144.054051,58.8584011 L118.589791,99.5088076 L93.125532,58.8584011 L70.7169839,58.8584011 L62.2288974,78.6754743 L81.7514962,110.094851 L86.6745864,99.6781843 Z" id="Shape" fill="#000000"></path>
            </g>
        </g>
    </g>
</svg>