<?xml version="1.0" encoding="UTF-8"?>
<svg width="250px" height="250px" viewBox="0 0 250 250" version="1.1" xmlns="http://www.w3.org/2000/svg" xmlns:xlink="http://www.w3.org/1999/xlink">
    <!-- Generator: Sketch 53 (72520) - https://sketchapp.com -->
    <title>NCGRN</title>
    <desc>Created with Sketch.</desc>
    <defs>
        <polygon id="path-1" points="0 0.150479439 249.650893 0.150479439 249.650893 189.214953 0 189.214953"></polygon>
    </defs>
    <g id="NCGRN" stroke="none" stroke-width="1" fill="none" fill-rule="evenodd">
        <g id="Group-32" transform="translate(0.000000, 30.000000)">
            <g id="Group-3" transform="translate(0.000000, 0.742579)">
                <mask id="mask-2" fill="white">
                    <use xlink:href="#path-1"></use>
                </mask>
                <g id="Clip-2"></g>
                <path d="M193.437589,122.186092 C194.586696,121.616662 195.774196,120.875867 196.875982,119.898554 C196.892054,119.883381 196.888482,119.857498 196.862589,119.848573 C191.482232,118.141176 188.447411,116.853264 188.416161,116.839877 C187.834911,116.608713 174.000089,110.857293 175.379554,90.9442037 C175.525089,88.8664093 175.815268,86.5146103 176.434911,84.0209 C177.244732,80.7614047 177.534018,78.8683626 177.837589,75.8203953 C178.059018,73.5890869 178.050982,72.6082037 177.995625,70.3492271 C177.934018,67.7983953 177.717946,64.6852738 177.334911,61.8220589 C176.614375,56.423185 175.259018,50.9172084 173.681339,46.1270355 C173.601875,45.8467832 173.523304,45.5674234 173.440268,45.2880636 C169.415268,31.8529093 160.167946,20.4312879 148.663482,12.433386 C148.449196,12.2736243 148.243839,12.1210028 148.053661,11.9862318 C143.080446,8.45719439 137.467054,5.65913364 131.496518,3.66523645 C124.931339,1.38305421 118.154554,0.150479439 111.515268,0.150479439 C110.679554,0.150479439 109.842054,0.15851215 109.031339,0.189750467 C103.221518,0.292390654 97.9036607,1.0581757 94.033125,1.76148411 C88.7116964,2.72897944 81.7375893,5.04329252 77.0741964,7.34511028 C72.8465179,9.43093738 68.6250893,12.1192178 65.3750893,14.5442037 C61.7295536,17.2664 59.0045536,19.7815308 57.8750893,20.9043252 C56.3813393,22.3903766 54.5420536,24.2887738 53.5715179,25.2964327 C53.1545536,25.7293065 53.4750893,26.0961336 53.7197321,26.1371897 C54.8983036,26.3335449 56.4616964,26.5495355 57.7259821,26.7762364 C59.3000893,27.0573813 61.7000893,27.2939 67.5340179,29.4770121 C74.3795536,32.0394467 80.7938393,36.4476196 82.7661607,38.3933206 C84.5866964,40.1908626 88.076875,44.9480121 89.7491964,47.255185 L90.7250893,48.6002178 L90.4983036,48.8867178 C89.683125,49.9166897 88.9072321,51.0323439 88.289375,52.0043019 C88.289375,52.0043019 86.9366964,52.6808346 85.7215179,53.4082411 C84.8483036,53.9321523 84.1099107,54.5230028 83.4634821,55.0799374 C83.0241964,55.4574748 82.783125,56.1581056 82.9420536,56.7543112 C83.283125,58.0404374 84.1572321,60.1289421 84.7134821,61.1062551 L84.8438393,61.3383112 L84.8215179,61.4998579 C84.576875,63.2429561 83.8161607,67.0459981 82.4134821,72.4886056 C81.3402679,76.6513346 80.1500893,80.5239935 78.8741964,83.9985869 C78.3358036,85.4650028 77.6813393,87.3294841 77.2509821,88.4960121 C76.8358036,89.617914 77.2000893,90.1864514 77.858125,90.3078346 C78.9429464,90.5086523 81.0161607,90.7594514 81.0161607,90.7594514 C80.5170536,96.7473907 79.4947321,104.581068 79.1366964,106.846293 C78.9170536,108.236844 78.6929464,109.03833 78.3554464,109.98619 C78.0608036,110.813559 77.2608036,112.635199 77.0902679,112.988638 C76.3340179,114.554124 76.2911607,116.052671 76.4920536,116.562302 C76.7974107,117.33612 77.8670536,118.101905 79.4340179,118.589222 C81.0786607,119.121166 83.9161607,119.571891 85.8991964,119.616517 C87.7536607,119.658465 90.358125,119.44783 94.108125,118.796288 C96.0474107,118.459807 98.3590179,117.958208 100.889375,117.275428 L101.140268,117.208489 L101.206339,117.760961 C101.702768,121.935293 100.352768,126.257783 97.0224107,131.326423 L95.0420536,134.326194 L83.9697321,122.186092 L15.4634821,122.186092 L0.803660714,169.996783 C-1.27848214,176.797811 1.15366071,181.425545 2.78758929,183.578311 C5.46705357,187.107349 9.70633929,189.214596 14.1295536,189.215489 L85.1840179,189.215489 L87.9036607,180.315246 L96.045625,189.215489 L119.592054,189.215489 L119.782232,188.584475 C121.197411,189.002176 122.628661,189.215489 124.162589,189.215489 L161.750982,189.215489 C164.318839,189.215489 167.675089,188.953979 171.000089,186.950264 C173.362589,188.432746 176.195625,189.214596 179.213482,189.215489 L229.142946,189.215489 L249.650982,122.186092 L193.437589,122.186092 Z" id="Fill-1" fill="#FEFEFE" mask="url(#mask-2)"></path>
            </g>
            <path d="M171.479732,126.474399 C167.671696,122.199212 161.223482,115.660586 153.411875,110.703511 C149.648482,108.316011 145.516339,106.061497 144.410982,103.31431 C144.369018,103.208992 144.377054,103.152763 144.570804,103.143838 C145.336875,103.110814 146.947589,103.466039 148.602054,104.097053 C149.110089,104.29073 149.581518,104.490656 149.927054,104.66202 C150.107411,104.751272 150.182411,104.732529 150.296696,104.637029 C150.411875,104.540637 150.576161,104.387123 150.576161,104.387123 C150.576161,104.387123 153.010089,102.216506 153.541339,101.623871 C154.572589,100.473408 155.603839,98.9828939 154.621696,97.1166276 C154.363661,96.5382724 153.987768,96.0937958 153.758304,95.8215762 C153.436875,95.4404687 153.083304,94.9165575 152.565446,94.3524827 C151.763661,93.4778098 150.747589,92.1372397 149.941339,91.0938799 C149.353839,90.3343425 147.118125,87.0775248 146.941339,86.1439453 C146.790446,85.346922 147.327054,84.7391136 148.301161,84.964922 C149.715446,85.2933706 151.297589,86.4009921 152.660089,87.8665154 C154.554732,89.9050388 155.867232,93.6036556 156.385089,96.4900762 C158.624375,108.982726 169.835089,117.319786 177.312768,119.584118 C181.330625,120.800628 184.363661,121.046071 185.932411,121.072847 C186.234196,121.078202 186.510089,121.07731 186.700268,121.065707 C186.822589,121.058567 186.902946,120.955927 186.742232,120.88631 C184.235089,119.790291 170.458304,112.693838 171.821696,91.5240762 C171.988661,88.9321883 172.527054,85.9788285 173.271696,82.9344313 C171.792232,80.5317584 170.334196,78.0791042 169.217232,76.3761696 C169.129732,76.2422911 169.006518,76.0593238 168.948482,75.9736416 C168.908304,75.9156276 168.917232,75.5488005 168.917232,75.5488005 C170.838661,76.9554173 172.635089,78.4486089 173.910982,79.6758285 C174.161875,78.1103425 174.433304,76.2753145 174.522589,74.6187911 C172.215446,72.5615248 168.935982,69.9660668 164.787768,67.8588192 C164.722589,67.8257958 164.682411,67.8043752 164.602946,67.7633192 C164.541339,67.7320808 164.546696,67.1448005 164.549375,66.9957491 C166.954732,67.7526089 170.321696,69.0530154 174.234196,71.1682958 C174.328839,71.2343425 174.568125,71.3423379 174.572589,71.3441229 C174.176161,57.1869173 168.794911,40.4788799 162.870804,32.1605621 C161.681518,30.4906509 160.060089,28.2414921 158.811875,26.9946369 C158.589554,27.2731042 157.869911,28.1299266 157.644911,28.3994687 C154.485982,32.1837678 151.151161,35.1210621 148.765446,37.0158893 C148.731518,36.9650154 148.469911,36.4839453 148.583304,36.3607771 C151.989554,32.6666229 153.833304,29.2045248 155.287768,26.3752257 C155.504732,25.9512771 156.014554,24.7954593 156.180625,24.1662304 C155.622589,23.5941229 155.213661,23.1692818 154.628839,22.6150248 C153.674375,23.7101509 151.766339,25.4978752 149.775268,27.0276603 C149.729732,27.0633612 149.476161,26.8045294 149.517232,26.7456229 C150.252946,25.6942304 151.765446,23.1844547 152.666339,20.7442958 C145.073482,13.9575481 133.456518,6.65135187 116.960089,4.70743598 C113.688661,4.32186589 109.282411,4.37898738 107.803839,4.50929579 C108.078839,5.1858285 108.530625,6.60940327 108.775268,7.28147336 C110.761875,12.7392537 111.761875,17.9382023 112.268125,21.6091509 C112.273482,21.6555621 112.285982,21.745707 112.285982,21.745707 C112.285982,21.745707 111.801161,21.7537397 111.788661,21.7162537 C111.777054,21.6796603 111.763661,21.6341416 111.752946,21.6002257 C109.060982,12.9570294 104.835982,7.32609953 102.779732,4.85648738 C101.526161,4.93235187 100.094018,5.13495467 98.6341964,5.33755748 C99.6922321,6.76202477 101.562768,9.54312757 103.099375,12.998978 C103.099375,12.998978 102.729732,13.0471743 102.650268,12.9382864 C101.497589,11.3710154 98.811875,7.86072103 96.0422321,5.74187056 C95.3252679,5.84361822 93.430625,6.22383318 90.4270536,6.95659486 C87.0708036,7.77503879 83.9297321,8.81750607 78.4708036,11.5120341 C70.6502679,15.3713051 64.7100893,20.0856136 60.624375,24.1260668 C60.5529464,24.1965762 60.5922321,24.2777958 60.6449107,24.2858285 C70.0904464,25.7718799 81.561875,32.8915388 84.6029464,35.7958098 C86.6440179,37.7441883 87.149375,38.4823051 87.7100893,39.2079266 C89.6538393,41.72395 94.1359821,47.5726556 95.386875,49.6254593 C95.0466964,49.9307023 92.3466964,52.917978 90.7797321,55.7713752 C89.3788393,56.0935762 86.911875,57.425221 86.9270536,57.7974033 C86.9645536,58.702422 88.6208036,60.9471182 88.6199107,61.4799547 C88.6172321,62.1011509 88.0136607,66.7128192 86.0725893,74.2457164 C84.3975893,80.7450715 82.5100893,85.4540248 81.7172321,87.775478 C81.7038393,87.8147491 81.7091964,87.8968612 81.7663393,87.9057864 C82.2359821,87.9709407 84.4502679,88.2627958 84.8083036,88.3252724 C84.6752679,94.7942818 83.3288393,104.74324 82.7886607,108.164282 C82.4404464,110.363459 82.0127679,111.371118 81.5038393,112.659029 C80.9949107,113.943371 80.6538393,114.852852 80.4190179,115.337492 C80.2815179,115.622207 80.3484821,115.74359 80.5770536,115.81767 C81.8725893,116.236263 85.030625,116.70573 86.599375,116.670922 C88.1404464,116.637006 90.0065179,116.392455 93.4145536,115.9096 C97.2208036,115.369623 100.015446,114.541361 103.519018,113.347165 C105.335089,117.426889 106.735982,123.83967 99.9359821,134.187586 C98.7690179,135.963707 97.130625,138.466343 95.5475893,140.884188 L82.4020536,126.459226 L80.5234821,126.458333 L52.4565179,126.455656 L42.4984821,158.998843 L36.1609821,158.99795 L46.1234821,126.455656 L18.086875,126.452978 L4.19580357,171.777992 C2.57616071,177.069763 4.38866071,180.564885 5.61366071,182.177674 C7.61544643,184.815081 10.799375,186.390385 14.1297321,186.391277 L54.524375,186.394847 L54.524375,186.394847 L82.5600893,186.397525 L86.3270536,174.086057 L97.6074107,186.39931 L116.966339,186.401095 L117.589554,184.364357 C119.438661,185.692431 121.690446,186.401987 124.162768,186.401987 L161.751161,186.404665 C164.057411,186.404665 166.769018,186.181534 169.386875,184.523226 C170.011875,184.127838 170.559196,183.686931 171.046696,183.224604 C172.660089,184.853459 175.240446,186.405557 179.213661,186.40645 L226.519018,186.410913 L244.856518,126.474399 L171.479732,126.474399 Z" id="Fill-4" fill="#11284B"></path>
            <path d="M114.535268,76.3366308 C114.974554,75.9956869 115.189732,75.6038692 115.189732,75.6038692 C115.189732,75.6038692 114.720982,74.8764626 113.442411,74.2383084 C112.454911,73.7456355 111.628125,73.533215 110.825446,73.3520327 C110.024554,73.1708505 108.949554,73.0441121 108.144196,73.0155514 C107.342411,72.9646776 105.828125,73.1262243 105.774554,73.1878084 C106.554911,73.3038364 107.318304,73.4448551 108.050446,73.6858364 C108.793304,73.9294953 109.752232,74.3141729 110.169196,74.5587243 C110.587054,74.8032757 110.870089,75.1361869 110.885268,75.312014 L108.254018,75.1683178 C103.978125,81.6355421 103.374554,76.3491262 101.467411,77.0336916 C100.633482,77.3326869 99.7075893,79.4015561 99.4254464,80.221785 C104.507589,79.5827383 111.139732,77.8628458 112.919196,77.2059486 C113.466518,76.9846028 114.135268,76.647229 114.535268,76.3366308" id="Fill-6" fill="#888A8D"></path>
            <path d="M146.75,114.382581 C146.532143,114.296899 146.341071,114.221035 146.154464,114.179979 C144.229464,114.237993 134.824107,118.083876 129.117857,121.01046 C129.034821,121.053301 128.995536,121.074721 128.870536,121.137198 C128.74375,121.20146 128.546429,121.228236 128.072321,121.167544 C128.260714,121.046161 132.239286,118.048175 134.473214,116.595147 C137.258036,114.782432 138.357143,114.42453 138.357143,114.42453 C138.357143,114.42453 136.305357,113.107165 134.644643,112.381544 C133.323214,111.803189 131.869643,112.44045 130.615179,113.349932 C127.675,115.48217 122.208929,120.091161 118.326786,123.446156 C117.154464,124.45917 116.100893,125.39632 115.291964,126.128189 C115.275,126.113016 115.164286,126.034474 115.244643,125.947899 C115.325,125.862217 117.021429,123.640726 117.733929,122.606292 C124.258036,113.131264 124.328571,112.274441 124.425,111.881731 C124.528571,111.458675 124.041071,108.219707 122.808036,104.696025 C118.007143,107.608329 113.036607,109.888726 108.453571,111.627362 C108.549107,111.834427 108.719643,112.214642 108.896429,112.681432 C109.266071,113.650712 109.785714,115.347399 109.832143,118.089231 C109.916964,123.10432 108.428571,127.550871 106.624107,131.159343 C104.81875,134.767815 99.5714286,142.160586 99.5714286,142.160586 L101.148214,142.153446 C105.486607,138.480712 118.158036,128.74239 135.954464,123.597885 C145.125893,120.947091 152.463393,120.990824 157.660714,121.775352 C153.211607,117.653679 149.232143,115.350969 146.75,114.382581" id="Fill-8" fill="#888A8D"></path>
            <path d="M230.528571,145.735053 L233.954464,134.536562 L192.432143,134.532992 C189.75625,134.5321 188.003571,135.961029 187.042857,139.100034 L176.270536,174.310973 C175.877679,175.598885 176.067857,176.657417 176.536607,177.275936 C177.030357,177.925693 177.700893,178.343394 179.214286,178.343394 L220.550893,178.346964 L228.586607,152.082679 L203.225893,152.080001 L200.536607,160.650011 L214.747321,160.651796 L212.813393,167.00924 L189.6125,167.007455 L196.121429,145.731483 L230.528571,145.735053 Z" id="Fill-10" fill="#FBB524"></path>
            <path d="M114.696964,30.2836748 C105.981786,30.2836748 97.9353571,33.273628 91.4344643,38.3217402 L99.8764286,50.2547776 C104.533571,46.6123897 110.410357,44.4506981 116.783571,44.4988944 C121.17375,44.5319178 125.713929,45.6243664 129.521071,47.5022355 C129.78625,47.6325439 129.868393,47.6744925 129.905893,47.6950206 C129.931786,47.7093009 129.93625,47.7833804 129.871071,47.8208664 C129.863929,47.825329 128.871964,48.1966187 128.743393,48.1466374 C128.706786,48.1332495 128.305,47.9779505 127.899643,47.827114 C124.726429,46.6507682 121.641607,46.0750907 118.4675,46.0750907 C111.28625,46.0750907 104.457679,49.0980673 99.7005357,54.3693103 L99.0460714,54.3693103 L97.6433929,52.4726981 C97.6442857,52.4726981 97.6433929,52.4700206 97.6442857,52.469128 L97.6416071,52.4700206 C97.6416071,52.4700206 96.3880357,53.4107402 95.5389286,54.8718009 C98.22375,54.682586 101.870179,54.7530953 106.314821,55.7402262 C108.027321,56.1213336 109.851429,56.631857 111.7925,57.3244551 C121.401429,60.758885 127.977321,67.517072 132.019286,71.6485626 C132.066607,71.6958664 132.122857,71.7529879 132.168393,71.8002916 C134.244286,73.9209271 135.627321,75.3195112 136.883571,76.2352402 C140.3675,78.4353103 144.4175,75.7282869 144.306786,69.5395299 C144.305893,69.4949037 144.305893,69.4520626 144.305,69.4074364 C144.293393,69.0084785 144.268393,68.5961327 144.221071,68.1695065 C143.763929,63.9559037 142.532679,61.2631607 142.191607,60.4224037 C142.146964,60.3117308 142.095179,60.1930252 142.070179,60.1350112 C142.027321,60.0368336 141.943393,59.8476187 141.93625,59.8333383 C141.93625,59.8333383 143.813929,58.8203243 144.818393,58.2500019 C145.621964,57.8082028 147.593393,56.6961187 147.593393,56.6961187 C146.049643,53.019815 143.933571,49.6514318 141.303214,46.6820065 C140.3425,47.9003009 139.377321,49.1052075 138.43625,50.2637028 C138.376429,50.3368897 138.290714,50.4439925 138.270179,50.4689832 C139.625536,52.0192963 140.828214,53.7079505 141.846071,55.4894271 L143.028214,54.703114 C142.233571,53.2982822 141.334464,51.950572 140.356786,50.6974692 L140.319286,50.6501654 L141.555,49.2337308 L141.609464,49.3024551 C143.120179,51.2079925 144.440714,53.2964972 145.532679,55.5099551 L145.563036,55.5715393 L141.305,58.2482168 C141.305,58.2482168 140.552321,56.785371 140.146071,56.0945579 C138.920179,54.0131935 137.388929,52.0005533 135.951429,50.5635907 C135.834464,50.4466701 135.71125,50.3342121 135.71125,50.3342121 C135.71125,50.3342121 138.757679,46.4196047 139.78,45.0727869 C136.838929,42.1399551 133.463929,39.7828009 129.745179,38.0638009 C129.26125,39.7587028 128.774643,41.4107636 128.297857,42.975357 C128.805,43.2083056 129.319286,43.4662449 129.869286,43.7616701 C130.87375,44.3007542 131.856786,44.9032075 132.789821,45.552072 C133.416607,45.9894084 133.800536,46.2857262 133.865714,46.3330299 C134.0425,46.0643804 134.596071,45.2084505 134.69875,45.0504738 C133.364821,44.0196093 131.9175,43.0815673 130.397857,42.2613383 L130.3425,42.231885 L131.005893,40.4254178 L131.080893,40.4655813 C133.330893,41.6767355 135.452321,43.1547542 137.387143,44.8594738 L137.435357,44.9014224 L134.49875,49.2274832 L134.43625,49.1739318 C131.855,46.9622589 128.927321,45.2753897 125.738929,44.1597355 L125.674643,44.1365299 C125.674643,44.1365299 125.816607,43.6447495 125.902321,43.336829 C126.415714,41.4910907 126.971964,39.5302168 127.601429,37.1543196 C123.726429,35.6754084 119.657679,34.9221187 115.507679,34.9247963 C115.180893,34.9247963 114.731786,34.9453243 114.659464,34.9471093 C114.879107,36.8098056 115.079107,38.6376935 115.254107,40.3816841 C115.637143,40.3665112 115.98625,40.3540159 116.346071,40.3540159 C116.537143,40.3540159 117.07375,40.3682963 117.07375,40.3682963 C118.803214,40.4120299 120.53,40.6128477 122.206786,40.9636093 C122.318393,40.4093523 122.426429,39.8649131 122.533571,39.3204738 C122.344286,39.2829879 121.951429,39.194628 121.620179,39.1375065 C120.244286,38.8974178 118.531786,38.6841047 116.990714,38.6323383 L116.921964,38.6305533 L116.830893,36.5786421 L116.910357,36.5813196 C119.6925,36.6946701 122.449643,37.1632449 125.105,37.9727636 L125.169286,37.9923991 L125.155893,38.0575533 C124.821071,39.6408897 123.938929,43.6010159 123.938929,43.6010159 L123.864821,43.5804879 C121.501429,42.9423336 119.055,42.6174551 116.596964,42.6174551 C115.538929,42.6174551 114.43,42.688857 113.299643,42.8289832 L113.226429,42.8379084 C113.226429,42.8379084 112.613036,37.7549879 112.243393,35.088128 C107.833571,35.5120766 103.596964,36.7830299 99.64875,38.8661794 C100.671964,40.6860346 101.591607,42.3541607 102.455893,43.9607028 C104.529107,42.8111327 106.7425,41.9212869 109.037143,41.312586 L108.588929,39.5239692 C106.731786,39.9889738 104.916607,40.6280206 103.194286,41.4259364 L103.128214,41.4562822 L103.046071,41.2804551 C102.768393,40.6931748 102.489821,40.1067869 102.209464,39.5221841 L102.179107,39.4543523 L102.233571,39.3972308 C104.164821,38.5332682 106.196964,37.8540579 108.274643,37.378343 C109.090714,37.1918056 109.778214,37.0552495 110.437143,36.9508243 L110.509464,36.940114 L111.521071,43.1092355 L111.451429,43.1226234 C107.947857,43.8089738 104.645179,45.1772121 101.635357,47.1907449 L101.569286,47.2344785 C101.569286,47.2344785 98.7692857,42.2979318 97.4773214,40.1067869 C96.6219643,40.6298056 95.6666071,41.3197262 95.6666071,41.3197262 L94.49875,39.4820206 L94.555,39.4409645 C100.708571,35.047072 107.907679,32.7247262 115.374643,32.7247262 C126.396964,32.7247262 136.757679,37.8076467 143.800536,46.6695112 C144.174643,47.1407636 144.543393,47.6271888 144.895179,48.1153991 C146.316607,50.0887682 147.558571,52.2102963 148.58625,54.4228617 C149.63,56.671128 150.463929,59.0354224 151.062143,61.4479131 C151.365714,62.668885 151.613929,63.9246654 151.799643,65.1813383 C152.081786,67.0958009 152.224643,69.0539972 152.224643,71.0023757 C152.224643,74.6295907 151.725536,78.2416327 150.738929,81.7385393 L150.730893,81.765315 L152.178214,82.838128 C153.219286,79.1520065 153.78625,75.2534645 153.78625,71.2139037 C153.78625,48.6089645 136.285357,30.2836748 114.696964,30.2836748" id="Fill-12" fill="#FBB524"></path>
            <path d="M145.322679,77.7137051 L145.315536,77.7467285 L146.458393,78.5946257 C147.009286,76.1892752 147.303036,73.7339435 147.303036,71.2902145 C147.303036,70.6404575 147.294107,70.2174014 147.294107,70.2174014 L149.137857,70.0040883 C149.137857,70.0040883 149.167321,70.4949762 149.165536,71.1152799 C149.1575,74.0445416 148.805714,76.9586304 148.096786,79.7763266 L148.089643,79.8048874 L149.178929,80.6135136 C150.028036,77.4655836 150.458393,74.2239388 150.458393,70.9778313 C150.458393,66.7419154 149.748571,62.5916818 148.349464,58.6413734 L147.867321,58.9019902 C147.185179,59.2714949 146.479821,59.6543874 145.783393,60.022107 C145.267321,60.3041444 144.737857,60.5826117 144.225357,60.8521537 C144.878929,62.7451958 145.356607,64.7141023 145.642321,66.7062145 C145.661071,66.8177799 145.677143,66.9302379 145.694107,67.0435883 C146.060179,66.9757565 147.028036,66.7874341 147.028036,66.7874341 C146.818214,65.1291257 146.484286,63.4868827 146.035179,61.9044388 L146.018214,61.8455322 C146.018214,61.8455322 146.552143,61.5840229 146.661964,61.5277939 C146.836964,61.4430042 147.696786,61.0137005 147.696786,61.0137005 L147.721786,61.0975977 C148.410179,63.4315463 148.856607,65.8699201 149.048571,68.3457799 L149.053929,68.4118266 C149.053929,68.4118266 148.56375,68.501079 148.474464,68.5171444 C147.71375,68.6590556 146.899464,68.8018593 145.917321,68.9660836 C145.981607,69.7604294 146.009286,70.5199668 145.996786,71.2250603 C145.991429,71.5151304 145.981607,71.8480416 145.927143,72.8726584 C145.839643,74.4845556 145.60125,76.2214061 145.322679,77.7137051" id="Fill-14" fill="#FBB524"></path>
            <path d="M147.357768,93.1777435 C144.049732,88.9025565 142.071161,86.1339491 142.538125,82.9306827 C142.556875,82.9271126 142.585446,82.920865 142.597946,82.9190799 C142.610446,82.9172949 144.194375,80.6788463 143.804196,80.3379023 C143.514018,80.0871033 143.219375,79.9442995 143.133661,79.9023509 C143.105089,79.8889631 143.112232,79.9014584 143.112232,79.9014584 C143.593482,81.1813369 139.049732,81.2393509 137.077411,80.2602528 C135.259554,79.3588042 133.755982,77.8379444 131.534554,75.1791173 C130.043482,73.393178 128.350625,71.3725051 126.264911,69.264365 C117.272054,60.174907 105.258661,58.1935051 98.3184821,58.3006079 C93.9979464,58.2541967 91.7479464,58.7513322 91.5666964,59.0110565 C91.3961607,59.2556079 92.4783036,60.805921 92.7934821,61.24415 L92.7952679,61.2548603 C92.7925893,61.2682481 92.2497321,63.7628509 91.1979464,67.0928556 C89.5720536,72.2409304 88.8077679,72.9406687 89.200625,73.5011734 C89.3470536,73.7118089 89.4711607,73.9144117 89.581875,74.1063042 C87.7202679,80.2897061 85.8997321,84.851393 85.8997321,84.851393 L87.2184821,84.9808089 L87.2175893,84.9825939 L89.3863393,85.194122 C89.3863393,85.194122 91.5836607,80.4878463 95.5550893,74.8462061 C95.5845536,74.8042575 95.6649107,74.6971547 95.6649107,74.6971547 L95.6649107,74.6971547 C95.6649107,74.6971547 95.6666964,74.6971547 95.6666964,74.6971547 C95.1497321,74.2892715 94.6220536,73.6805706 95.2050893,73.1700472 C96.4274107,72.1008042 99.7390179,70.2711313 104.632768,70.5674491 C110.700625,70.9351687 115.777411,74.5025846 117.555982,75.9350846 L117.555982,75.9350846 C117.552411,75.9457949 117.222054,76.9373883 116.150625,77.823664 C115.400625,78.4448603 114.723839,78.853636 113.930982,79.1428136 C111.960446,79.8621874 104.030982,81.2911173 98.7577679,81.7918229 C98.1559821,81.8489444 96.1024107,81.9872855 95.6800893,82.0176313 C95.4158036,83.6589818 94.9175893,86.6123416 94.0184821,91.5595986 C91.9390179,103.011566 90.2059821,109.087865 89.4238393,111.528916 C89.4113393,111.531594 89.394375,111.533379 89.3809821,111.536057 C88.6059821,111.659225 87.6925893,113.728094 87.6925893,113.728094 C87.7086607,113.729879 87.7416964,113.731664 87.7952679,113.733449 C88.169375,113.745052 89.5336607,113.726309 92.8702679,113.089047 C99.6774107,111.789533 104.241696,110.484664 113.289018,106.189842 C117.605982,104.139715 125.893482,98.3249257 129.402411,94.667365 C130.639911,93.3767762 131.585446,92.3137808 132.183661,91.423935 C132.381875,91.1285098 132.950625,90.3975332 133.265804,89.5576687 C133.276518,89.5264304 133.302411,89.454136 133.304196,89.4496734 C133.952411,89.5219678 134.056875,90.0360612 134.155089,90.7268743 C134.325625,91.9326734 134.480089,93.6838042 137.482768,94.6289864 C141.255982,95.8160425 142.731875,96.2828322 145.616696,97.4056266 C148.127411,98.3829397 150.127411,99.3325846 150.134554,100.294725 C150.151518,100.312575 150.397054,100.442884 150.397054,100.442884 C150.397054,100.442884 152.172946,98.8292014 151.829196,98.4436313 C151.948839,98.1624864 149.163125,95.5107995 147.357768,93.1777435" id="Fill-16" fill="#FBB524"></path>
            <path d="M96.1819643,62.5217079 C96.4721429,61.7934089 97.0703571,61.3471472 97.8542857,61.0258388 C97.9060714,61.0044182 97.9292857,60.9348014 97.8667857,60.9365864 C96.9632143,60.9553294 94.9292857,61.0793902 94.3855357,61.109736 C93.8176786,61.1427593 92.79625,61.2534322 92.79625,61.2534322 C92.79625,61.2534322 92.2533929,63.7533902 91.1980357,67.0932126 C89.5721429,72.2403949 88.8078571,72.9410257 89.2007143,73.5015304 C89.3471429,73.7121659 89.47125,73.9147687 89.5810714,74.1057687 C87.7203571,80.2891706 85.8998214,84.85175 85.8998214,84.85175 L87.2176786,84.9811659 L91.7346429,74.4886612 C94.6551786,66.4532734 95.1828571,65.0368388 96.1819643,62.5217079" id="Fill-18" fill="#CC8A2A"></path>
            <path d="M147.357768,93.1777435 C144.049732,88.9025565 142.071161,86.1339491 142.538125,82.9306827 C142.305982,82.9842341 141.445268,83.0315379 141.253304,83.0342154 C139.703304,83.1457808 137.655089,82.7021967 136.590804,82.1934584 C134.250625,81.0760192 132.833661,79.8068509 130.365804,76.943636 C129.734554,76.2108743 128.888125,75.3183509 127.996161,74.4454631 C127.719375,74.1750285 127.428304,73.8885285 127.026518,73.5752528 C126.562232,73.2128883 126.601518,73.4413743 126.628304,73.4958182 C127.542589,75.2424864 128.192589,77.1399911 128.517589,79.655122 C129.735446,89.0846313 122.030089,98.7265612 112.591696,99.9832341 C107.513125,100.658874 103.418482,99.8377528 99.6515179,97.1816033 C99.625625,97.1628603 99.5684821,97.1360846 99.550625,97.1833883 C99.5327679,97.2315846 97.2309821,103.717552 97.2309821,103.717552 C95.6738393,98.0562762 95.2425893,90.8902061 98.7577679,81.7918229 C98.1559821,81.8489444 96.1024107,81.9872855 95.6800893,82.0176313 C95.4158036,83.6589818 94.9175893,86.6123416 94.0184821,91.5595986 C91.9390179,103.011566 90.2059821,109.087865 89.4238393,111.528916 C90.1345536,111.418243 91.1300893,111.295075 92.4783036,111.037136 C99.2354464,109.74744 103.496161,108.526468 112.393482,104.302155 C116.570268,102.31986 124.580089,96.676435 127.893482,93.2223696 C130.764911,90.2297388 131.254196,89.0284023 131.941696,87.5735893 C132.842589,85.6698369 133.097946,83.9660098 133.149732,83.5581266 C133.259554,83.5545565 134.955089,83.4510238 135.606875,86.798879 C136.480982,91.2980893 135.998839,92.0852949 138.835446,92.852865 C143.943482,94.2344911 149.984554,96.3738696 151.829196,98.4436313 C151.948839,98.1624864 149.163125,95.5107995 147.357768,93.1777435" id="Fill-20" fill="#CC8A2A"></path>
            <path d="M106.314643,55.7405832 C105.775357,55.1782935 105.767321,54.4803402 106.129821,53.7190178 C106.143214,53.6913495 106.158393,53.6627888 106.172679,53.634228 C106.441429,53.1058542 106.8825,52.5498121 107.449464,51.988415 C109.715536,49.7455037 117.333393,46.5350972 126.818214,50.4006159 C140.431607,55.9485411 138.287857,73.0573215 132.02,71.6489196 C132.066429,71.6962234 132.122679,71.7533449 132.169107,71.8006486 C134.244107,73.9203916 135.628036,75.3198682 136.883393,76.2347047 C140.615536,78.5918589 145.000357,75.3216533 144.221786,68.168971 C143.76375,63.9562607 142.536071,61.2626252 142.191429,60.4218682 C142.162857,60.3513589 142.136964,60.2906673 142.111964,60.2317607 C142.069107,60.1335832 142.027143,60.0345131 141.985179,59.9390131 C141.969107,59.9042047 141.958393,59.8801065 141.958393,59.8801065 L141.958393,59.8801065 C141.429821,58.6885879 140.052143,56.4233636 137.819107,53.8939523 C135.38875,51.1405178 133.209286,49.5669991 130.943214,48.2353542 C130.668214,48.072915 130.165536,47.8185458 129.904821,47.6935925 C129.931607,47.7078729 129.936964,47.7837374 129.870893,47.8212234 C129.86375,47.8247935 128.871786,48.1969757 128.744107,48.1469944 C128.7075,48.1336065 128.473571,48.0443542 128.261071,47.9640271 C128.085179,47.8970879 127.925357,47.8372888 127.899464,47.827471 C124.727143,46.6475551 121.642321,46.0745551 118.467321,46.0745551 C111.286071,46.0745551 104.4575,49.0975318 99.7003571,54.3687748 L99.0458929,54.3687748 L97.6441071,52.4730551 C97.6441071,52.4721626 97.6441071,52.469485 97.6441071,52.4685925 L97.6414286,52.469485 C97.6414286,52.469485 96.3878571,53.4102047 95.5396429,54.8721579 C98.2235714,54.6820505 101.87,54.7525598 106.314643,55.7405832" id="Fill-22" fill="#CC8A2A"></path>
            <path d="M104.633125,70.5678953 C110.700982,70.935615 115.777768,74.5030308 117.555446,75.9355308 L120.074196,76.0212131 C120.074196,76.0212131 118.935804,74.8627178 117.904554,74.0862224 C116.367054,72.9295121 112.410804,69.5727318 104.941161,69.1505682 C99.4313393,68.8881664 96.0366964,70.4706103 94.4447321,72.1315963 C93.8866964,72.714414 93.7027679,73.3579234 93.8563393,73.8907598 C93.9554464,74.2352738 94.245625,74.4717925 94.4911607,74.5199888 C94.7366964,74.5664 95.6563393,74.7047411 95.6670536,74.6976009 C95.1500893,74.2897178 94.6215179,73.6801243 95.2054464,73.1704935 C96.4277679,72.1003579 99.7384821,70.270685 104.633125,70.5678953" id="Fill-24" fill="#CC8A2A"></path>
            <path d="M177.98,135.335103 C177.570179,134.795126 176.726429,134.531832 175.39875,134.531832 L137.721071,134.528262 C134.929107,134.527369 133.150536,135.97772 132.239821,138.953393 L121.470179,174.191107 C121.021071,175.661986 121.265714,176.656257 121.704107,177.234612 C122.1175,177.779051 122.771964,178.338664 124.163929,178.338664 L161.751429,178.342234 C164.720179,178.342234 165.935357,177.819215 166.835357,174.876565 L170.61125,162.535645 L159.413036,162.534752 L158.02375,167.074126 L134.815714,167.071449 L141.346964,145.726752 L164.554107,145.72943 L163.294286,149.849318 L174.490714,149.85021 L177.954107,138.510701 C178.42375,136.971098 178.433571,135.932201 177.98,135.335103" id="Fill-26" fill="#FEFEFE"></path>
            <path d="M58.4242857,134.52014 L48.4653571,167.063327 L25.2573214,167.060649 L35.2198214,134.517462 L24.0519643,134.51657 L11.9082143,174.140144 C11.4091071,175.770785 11.6198214,176.750775 12.0385714,177.303247 C12.5260714,177.944079 13.3073214,178.327864 14.1305357,178.327864 L52.3117857,178.331434 C55.26,178.331434 56.5001786,177.407672 57.385,174.515004 L69.6216071,134.521032 L58.4242857,134.52014 Z" id="Fill-28" fill="#FEFEFE"></path>
            <path d="M110.486429,142.944221 L104.568571,162.755563 L78.8283929,134.511661 L65.4248214,178.33188 L76.5926786,178.333665 L82.7426786,158.819535 L101.157857,178.33545 L110.998929,178.336343 L124.264107,135.368483 C117.836429,138.328091 113.328393,141.033329 110.486429,142.944221" id="Fill-30" fill="#FEFEFE"></path>
        </g>
    </g>
</svg>