<?xml version="1.0" encoding="UTF-8" standalone="no"?>
<svg width="250px" height="250px" viewBox="0 0 250 250" version="1.1" xmlns="http://www.w3.org/2000/svg" xmlns:xlink="http://www.w3.org/1999/xlink">
    <!-- Generator: Sketch 47.1 (45422) - http://www.bohemiancoding.com/sketch -->
    <title>NICHST</title>
    <desc>Created with Sketch.</desc>
    <defs></defs>
    <g id="Page-1" stroke="none" stroke-width="1" fill="none" fill-rule="evenodd">
        <g id="NICHST" fill-rule="nonzero">
            <g id="Nicholls_State_Colonels_logo" transform="translate(0.000000, 64.000000)">
                <path d="M132.420319,0.0605 L132.420319,36.4095 L103.86255,0.0715 L53.7798805,0.0715 L53.7798805,39.2295 L62.5161355,39.2295 L62.5161355,51.1325 L51.5221116,51.1363 C45.3826693,37.5293 35.7571713,38.7493 35.7571713,38.7493 L35.7571713,51.1313 L13.3498008,51.1313 C12.2103586,50.3193 10.8199203,49.7773 9.23247012,49.7773 C3.52440239,49.7773 0.944820717,55.8564 0.944820717,60.2983 C0.944820717,64.74 3.68984064,70.8163 9.4000996,70.8163 C12.8574701,77.3463 18.8494024,82.1333 26.1869522,82.1333 C29.7283865,82.1333 32.9674303,81.0094 35.7547809,79.1155 L35.7547809,81.8805 C35.7547809,81.8805 45.3934263,83.102 51.5237052,69.4655 L62.5067729,69.4582 L62.5067729,82.9612 L53.7376494,82.9612 L53.7376494,121.7492 L112.907968,121.7492 L112.907968,83.9132 L142.53745,121.7492 L192.477689,121.7492 L192.477689,82.9612 L183.208865,82.9612 L183.234363,69.3412 C241.915637,68.67554 247.268227,51.0992 249.951494,47.1552 C239.233367,49.4874 219.327988,50.5876 212.165637,50.8101 C201.973406,51.12887 191.508267,51.13106 183.256275,51.12872 C183.261255,46.40122 183.260259,42.17232 183.260259,39.19372 C187.336355,39.11168 192.478088,39.00328 192.478088,39.00328 L192.459363,0.05728 L132.401594,0.05728 L132.420319,0.0605 Z" id="Shape" fill="#B2B2B2"></path>
                <path d="M135.986056,3.6497 L135.986056,35.6497 L145.233068,35.6497 L145.25498,54.7157 L142.249203,54.7157 L102.124701,3.6567 L57.3448207,3.6567 L57.3448207,35.6407 L66.0810757,35.6407 L66.0810757,54.7177 L49.039243,54.7177 C47.039243,48.0497 41.9256972,43.2617 39.3460159,43.2617 L39.3460159,54.7177 L12.0472112,54.7177 C11.2651394,53.86922 10.2989044,53.37 9.25308765,53.37 C6.64770916,53.37 4.53306773,56.4729 4.53306773,60.3028 C4.53306773,64.1303 6.64780876,67.2356 9.25308765,67.2356 C10.0164841,67.2356 10.7350598,66.96928 11.37251,66.49582 C14.1085657,73.64712 19.7247012,78.55182 26.2081673,78.55182 C31.5542829,78.55182 36.3077689,75.21692 39.3476096,70.03702 L39.3476096,77.33962 C41.9271912,77.33962 47.0432271,72.55232 49.0577689,65.88362 L66.0996016,65.87632 L66.0996016,86.54932 L57.3304781,86.54932 L57.3304781,118.16132 L109.353386,118.16132 L109.353386,86.54932 L101.171514,86.54932 L101.248108,65.85432 L103.32739,65.85432 L144.291534,118.16232 L188.92002,118.16232 L188.92002,86.55032 L179.64761,86.55032 C179.654582,83.88992 179.67241,75.27132 179.684064,65.80832 L180.851295,65.80832 C202.66504,65.41455 227.639143,63.24582 241.717829,51.78932 C227.231773,54.84332 198.03257,54.71912 180.851295,54.71912 L179.698606,54.71912 C179.70757,46.01642 179.711653,38.29712 179.70259,35.67912 C183.265139,35.61349 188.920418,35.496 188.920319,35.496 L188.920319,3.653 L136.002988,3.653 L135.986056,3.6497 Z" id="Shape" fill="#000000"></path>
                <path d="M140.418327,8.092 L140.418327,31.208 L149.665339,31.208 L149.701793,71.369 L145.339243,65.817 L141.957869,65.8207 L152.365239,79.0677 L152.317829,28.5427 L143.074602,28.5427 L143.074602,10.7627 L181.82759,10.7627 L181.82759,28.5287 C181.82759,28.5287 172.853287,28.7184 172.540438,28.55433 C172.720189,29.67233 172.536454,93.66333 172.536454,93.66333 L181.827191,93.66333 L181.827191,111.05233 L147.720618,111.05233 L112.323207,65.85333 L108.945418,65.85333 L146.428486,113.71933 L184.481275,113.71933 L184.481275,90.99833 L175.197809,90.99833 C175.211853,85.78333 175.287948,36.99933 175.234263,31.29133 L184.481275,31.14117 L184.481275,8.09417 L140.416534,8.09417 L140.418327,8.092 Z M61.7778884,8.102988 L61.7778884,31.196988 L70.5178287,31.196988 L70.5178287,90.995988 L61.7450199,90.995988 L61.7450199,113.719988 L104.915339,113.719988 L104.915339,90.995988 L96.8940239,90.995988 L96.8648307,50.423988 L100.228078,54.719888 L103.605867,54.719888 L94.2386355,42.754888 L94.3553586,93.659888 L102.25994,93.659888 L102.25994,111.051888 L64.4033665,111.051888 L64.4033665,93.659888 L73.17249,93.659888 L73.17249,28.526888 L64.4325498,28.526888 L64.4325498,10.767888 L98.696494,10.767888 L133.232351,54.717888 L136.61741,54.717888 L99.9839442,8.100888 L61.7777689,8.100888 L61.7778884,8.102988 Z M42.0258964,48.006988 L42.0258964,53.233088 C44.0662351,53.769838 45.802988,55.221788 46.8955179,57.188388 C46.1041135,53.077188 43.8841633,49.891388 42.0258964,48.006988 Z M227.553785,56.433888 C222.779781,56.804218 217.608068,57.053548 212.364542,57.217628 C201.076693,57.569208 189.452191,57.539918 180.840637,57.539918 L179.680677,57.539918 L179.676693,60.359918 L188.923705,60.359918 C209.023307,60.359918 223.612948,57.905818 227.554183,56.433818 L227.553785,56.433888 Z M9.41633466,57.067888 C8.42415339,57.067888 7.61802789,57.908308 7.61802789,58.946688 C7.61802789,59.984988 8.42417331,60.829088 9.41633466,60.829088 C9.87157371,60.829088 10.287998,60.653298 10.6054781,60.360308 L10.6054781,59.239608 L12.4001992,60.166168 L14.1949203,59.239608 L15.9932271,60.166168 L17.7879482,59.239608 L19.5826693,60.166168 L21.3809761,59.239608 L23.1756972,60.166168 L24.9704183,59.239608 L26.7651394,60.166168 L28.5598606,59.239608 L30.3545817,60.166168 L32.1528884,59.239608 L33.9476096,60.166168 L35.7459163,59.239608 L37.5406375,60.166168 L39.3353586,59.239608 L39.3353586,57.540308 L10.6052789,57.540308 C10.2865538,57.247308 9.87021912,57.068308 9.41494024,57.068308 L9.41633466,57.067888 Z M49.6802789,57.540318 C49.8156773,58.440368 49.8882072,59.361818 49.8882072,60.301818 L49.8882072,60.360418 L66.0874104,60.360418 L66.0874104,57.540418 L49.6800398,57.540418 L49.6802789,57.540318 Z M101.244024,57.540318 L101.244024,60.360318 L145.24004,60.360318 L145.24004,57.540318 L101.244024,57.540318 Z" id="Shape" fill="#FFFFFF"></path>
                <path d="M14.0906375,65.886 C17.1184263,70.1402 21.4183267,72.7931 26.190239,72.7931 C30.959761,72.7931 35.2618526,70.1402 38.2898406,65.886 L14.0906375,65.886 Z" id="Shape" fill="#B2B2B2"></path>
                <path d="M143.067729,10.762 L143.067729,28.542 L152.310956,28.542 L152.358367,79.067 L141.948008,65.82 L112.318526,65.84931 L147.715936,111.05231 L181.82251,111.05231 L181.82251,93.66031 L172.531773,93.66031 C172.531773,93.66031 172.715169,29.67431 172.535757,28.55531 C172.848586,28.71704 181.822908,28.526 181.822908,28.526 L181.822908,10.76 L143.06992,10.76 L143.067729,10.762 Z M64.4272908,10.7693 L64.4272908,28.5283 L73.1672311,28.5283 L73.1672311,93.6613 L64.3944223,93.6613 L64.3944223,111.0533 L102.252988,111.0533 L102.252988,93.6613 L94.3447211,93.6613 L94.2316335,42.7563 L103.598964,54.7173 L118.401753,54.7173 L133.226454,54.7173 L98.6905976,10.7683 L64.4266534,10.7683 L64.4272908,10.7693 Z" id="Shape" fill="#C41230"></path>
            </g>
        </g>
    </g>
</svg>