<?xml version="1.0" encoding="UTF-8" standalone="no"?>
<svg width="250px" height="250px" viewBox="0 0 250 250" version="1.1" xmlns="http://www.w3.org/2000/svg" xmlns:xlink="http://www.w3.org/1999/xlink">
    <!-- Generator: Sketch 50 (54983) - http://www.bohemiancoding.com/sketch -->
    <title>GASOU</title>
    <desc>Created with Sketch.</desc>
    <defs>
        <polygon id="path-1" points="0.0483870968 0.642142077 249.793504 0.642142077 249.793504 148 0.0483870968 148"></polygon>
    </defs>
    <g id="GASOU" stroke="none" stroke-width="1" fill="none" fill-rule="evenodd">
        <g id="Group" transform="translate(0.000000, 51.000000)">
            <g id="Group-4">
                <mask id="mask-2" fill="white">
                    <use xlink:href="#path-1"></use>
                </mask>
                <g id="Clip-2"></g>
                <path d="M247.283065,42.9911694 C241.066935,32.3877377 230.999194,28.1903607 213.445161,27.3541202 C213.465323,27.0395191 213.496774,26.7216831 213.496774,26.4086995 C213.496774,23.6654426 212.731452,21.0459235 211.209677,18.6455738 C204.503226,8.07934426 182.935484,2.2143388 145.270161,0.718163934 L145.187903,0.714928962 L1.47419355,0.642142077 C1.47419355,0.642142077 38.5693548,13.4178579 59.7532258,27.9194317 C29.9,40.9830601 17.4556452,84.0793661 17.4556452,84.0793661 C17.4556452,84.0793661 27.9516129,79.5463607 28.6104839,79.2633005 C3.34435484,109.432656 0,148 0,148 C0,148 14.3943548,126.620874 41.7516129,112.363541 C37.4540323,121.184503 33.4709677,129.362514 33.1177419,130.087148 L33.0379032,130.25941 C32.4080645,131.626995 32.075,133.16118 32.075,134.697792 C32.075,136.555475 32.5717742,138.358164 33.5072581,139.910951 C34.8758065,142.16977 37.7,144.854798 43.4177419,144.854798 L201.877419,144.821639 C209.705645,144.821639 215.643548,143.893202 220.751613,131.867191 C220.758065,131.85506 234.516935,99.1688962 234.516935,99.1688962 C234.875806,98.2922186 235.301613,97.2376175 235.662903,96.0794973 C243.644355,78.7238689 254.850806,55.9011366 247.283065,42.9911694" id="Fill-1" fill="#9EA6A9" mask="url(#mask-2)"></path>
                <path d="M219.567742,75.1702514 C229.595968,75.5544044 232.948387,78.3025137 233.954839,86.3875191 C241.750806,72.3703825 264.433871,31.0290492 208.191935,31.4431257 C212.86371,20.2865137 204.556452,7.29971585 145.103226,4.93575956 L24.7798387,4.87591257 C24.7798387,4.87591257 50.5620968,14.532306 68.2870968,29.0743169 C39.6782258,37.5507541 24.9451613,76.2458798 24.9451613,76.2458798 C43.6379032,68.168153 47.0451613,67.4540328 47.0451613,67.4540328 C18.6306452,85.0441967 7.76532258,132.037836 7.76532258,132.037836 C7.76532258,132.037836 22.8677419,112.832612 51.8209677,101.840984 C45.9693548,113.84435 37.0508065,132.159956 37.0508065,132.159956 L37.0137097,132.240022 C36.7032258,132.914514 36.4822581,133.775825 36.4822581,134.697792 C36.4822581,135.601158 36.6951613,136.566798 37.2403226,137.471781 C38.3629032,139.327847 40.4403226,140.267607 43.4177419,140.267607 L201.875806,140.234448 C208.907258,140.234448 212.633871,139.627891 216.719355,130.014361 L230.479839,97.3281967 C231.815323,94.0600656 232.608065,91.4551038 231.517742,89.332153 C230.233871,86.8185792 227.269355,85.3199781 222.545968,85.3385792 L159.297581,85.367694 C167.402419,77.8455738 178.864516,75.6935082 184.297581,75.505071 C190.670968,75.2859016 211.575,74.8613115 219.567742,75.1702514" id="Fill-3" fill="#000F2A" mask="url(#mask-2)"></path>
            </g>
            <path d="M185.045968,46.1234317 C182.875806,48.1501421 179.923387,49.2257705 176.847581,48.8036066 C172.035484,48.1485246 168.485484,44.0522404 168.104032,39.1779454 C147.773387,32.175847 122.498387,26.4580328 122.202419,26.3909071 C122.178226,26.3900984 122.155645,26.3900984 122.141935,26.3892896 C112.279839,24.2267104 77.1548387,17.231082 69.8862903,15.7745355 C69.033871,15.6038907 68.5532258,15.4558907 68.5532258,15.4558907 C82.7475806,19.7260546 105.429032,31.8717596 109.552419,34.1087432 C120.504032,34.7177268 133.151613,36.8746448 147.678226,41.1480437 C147.678226,41.1480437 137.801613,40.5439126 124.200806,40.8350601 C100.022581,41.3850055 63.9959677,44.875541 50.2596774,60.0160219 C62.2209677,55.3746448 79.4685484,53.8622951 92.5201613,56.2173552 C122.277419,52.0652678 148.142742,64.4560219 148.142742,64.4560219 C135.918548,64.6946011 127.022581,70.8863388 127.022581,70.8863388 C127.022581,70.8863388 63.1427419,61.1903169 27.6967742,106.820415 C27.6967742,106.820415 50.4612903,83.8351257 83.7072581,83.8351257 C105.787097,83.8351257 145.462097,83.8351257 145.462097,83.8351257 C145.462097,83.8351257 152.255645,71.2996066 170.858871,68.4318033 C165.484677,61.0220984 148.691129,54.6217049 148.691129,54.6217049 C173.582258,54.6217049 174.241129,55.7207869 180.712903,52.8125464 C188.055645,49.5080219 188.662097,48.219694 188.662097,48.219694 C187.607258,47.5225574 186.392742,46.8229945 185.045968,46.1234317" id="Fill-5" fill="#9EA6A9"></path>
            <path d="M230.701613,57.5218579 C229.815323,47.8751694 216.825,47.1990601 216.825,47.1990601 C215.116129,51.7296393 207.018548,50.6362186 207.018548,50.6362186 C216.669355,48.4534208 212.470161,44.5520437 212.470161,44.5520437 C234.657258,44.5706448 230.701613,57.5218579 230.701613,57.5218579 Z M206.109677,47.1497268 C205.221774,48.2560874 203.703226,48.9305792 202.71371,48.6491366 C201.723387,48.370929 201.631452,47.2508197 202.523387,46.1452678 C203.410484,45.0397158 204.928226,44.368459 205.922581,44.6450492 C206.916129,44.9240656 206.996774,46.0425574 206.109677,47.1497268 Z M219.567742,40.4492896 L203.521774,39.4019672 C203.521774,39.4019672 187.655645,51.5873005 200.756452,54.2836503 C200.756452,54.2836503 182.562097,56.6387104 176.51371,61.356918 C176.51371,61.356918 179.539516,66.4083279 181.557258,68.4318033 C181.557258,68.4318033 213.187097,67.7573115 220.572581,68.4318033 C220.572581,68.4318033 206.557258,63.1685027 187.268548,65.8478689 L185.254032,62.9299235 C193.296774,59.5574645 215.204032,61.0220984 215.204032,61.0220984 C215.204032,61.0220984 228.482258,62.0661858 233.223387,70.1584699 C233.223387,70.1584699 248.122581,41.4828634 219.567742,40.4492896 Z" id="Fill-6" fill="#8F7C48"></path>
            <path d="M72.6403226,94.0317596 L67.0580645,104.901268 C66.7024194,105.594361 66.3483871,106.482361 66.7733871,107.177071 C67.1008065,107.715694 67.7814516,107.972874 68.8540323,107.967213 L71.408871,107.967213 L73.5322581,103.834536 C73.5322581,103.834536 71.9266129,103.834536 71.3,103.834536 C71.7741935,102.912568 72.4766129,101.544175 72.6846774,101.138186 C73.2830645,101.138186 80.5870968,101.138186 82.1080645,101.138186 C81.3967742,102.526798 77.5153226,110.086929 77.233871,110.632022 C76.5580645,110.632022 61.7483871,110.632022 61.7483871,110.632022 C59.7685484,110.632022 58.4822581,110.233311 58.0282258,109.481989 C57.8806452,109.23694 57.8233871,108.95388 57.8233871,108.663541 C57.8233871,107.799803 58.3225806,106.839016 58.5209677,106.456481 C58.5209677,106.456481 63.4483871,96.4135082 65.0830645,94.159541 C66.7193548,91.9039563 70.6854839,91.3354098 71.9806452,91.3354098 C73.275,91.3354098 85.7959677,91.3354098 87.2733871,91.3354098 C86.7080645,92.4417705 85.4096774,94.9860765 85.1733871,95.4486776 C84.6048387,95.4486776 79.7790323,95.4486776 78.3758065,95.4486776 C78.5153226,95.1737049 79.0983871,94.0317596 79.0983871,94.0317596 L72.6403226,94.0317596 Z M85.8822581,96.6116503 L89.1637097,90.1748634 C89.1637097,90.1748634 74.8774194,90.1748634 72.6766129,90.1748634 C70.4798387,90.1748634 65.6185484,90.4789508 63.2830645,94.660153 C62.1395161,96.7078907 57.4959677,105.919475 57.4959677,105.919475 C57.2314516,106.426557 56.6612903,107.524831 56.6612903,108.658689 C56.6612903,109.143934 56.7653226,109.629989 57.0395161,110.085311 C57.733871,111.233727 59.2741935,111.790951 61.7483871,111.790951 L77.9403226,111.790951 L84.0048387,99.9776393 L71.9790323,99.9776393 L69.4008065,104.995891 C69.4008065,104.995891 71.0072581,104.995891 71.633871,104.995891 C71.2532258,105.735082 70.8798387,106.462951 70.7048387,106.809093 C70.2056452,106.809093 68.8508065,106.809093 68.8508065,106.809093 C67.933871,106.812328 67.7766129,106.597202 67.7604839,106.573749 C67.7483871,106.555148 67.733871,106.517137 67.733871,106.442732 C67.733871,106.292306 67.7983871,105.998732 68.0887097,105.436656 C68.0887097,105.433421 72.475,96.8906667 73.3459677,95.1931148 C73.8379032,95.1931148 76.0491935,95.1931148 77.2064516,95.1931148 C77.0669355,95.4672787 76.4822581,96.6116503 76.4822581,96.6116503 L85.8822581,96.6116503 Z" id="Fill-7" fill="#8F7C48"></path>
            <path d="M99.0451613,96.1765464 L97.516129,99.0516284 C97.516129,99.0516284 104.037097,99.0516284 105.527419,99.0516284 C105.033871,99.9816831 104.306452,101.354929 104.095161,101.749596 C103.460484,101.749596 96.0846774,101.749596 96.0846774,101.749596 L92.7879032,107.967213 L99.933871,107.967213 C100.568548,107.974492 101.070968,108.156459 101.341935,108.478339 C101.495968,108.658689 101.571774,108.884328 101.571774,109.151213 C101.571774,109.207016 101.56371,109.266863 101.556452,109.323475 C101.479032,109.472284 101.052419,110.277792 100.845968,110.663563 C100.21129,110.663563 84.9701613,110.663563 83.2693548,110.663563 C84.0758065,109.145552 90.9387097,96.2097049 90.9387097,96.2097049 L90.9475806,96.1927213 L90.9540323,96.1725027 C91.0443548,95.9727432 93.2,91.3354098 99.5822581,91.3354098 C99.5822581,91.3354098 109.237903,91.3354098 110.872581,91.3354098 C110.381452,92.2654645 109.654032,93.6354754 109.442742,94.0317596 C108.819355,94.0317596 103.217742,94.0317596 103.217742,94.0317596 C100.705645,94.0317596 99.5620968,95.1963497 99.0451613,96.1765464 Z M103.217742,95.1931148 L110.137097,95.1931148 L112.800806,90.1748634 L99.5822581,90.1748634 C92.5467742,90.1748634 90.0895161,95.2828852 89.9096774,95.6743169 C89.8991935,95.6937268 81.3395161,111.825727 81.3395161,111.825727 L101.540323,111.825727 L102.675806,109.682557 L102.693548,109.585508 C102.718548,109.439126 102.729839,109.290317 102.729839,109.148787 C102.729839,108.606929 102.559677,108.123301 102.225806,107.727016 C101.737097,107.14553 100.924194,106.81718 99.9370968,106.809093 C99.9370968,106.809093 96.0870968,106.809093 94.7137097,106.809093 C95.2935484,105.714055 96.5443548,103.35576 96.7806452,102.910951 C97.4169355,102.910951 104.792742,102.910951 104.792742,102.910951 L107.454839,97.891082 C107.454839,97.891082 100.933871,97.891082 99.4435484,97.891082 C99.7459677,97.3217268 100.066129,96.7184044 100.066129,96.7184044 C100.603226,95.7074754 101.66129,95.1931148 103.217742,95.1931148 Z" id="Fill-8" fill="#8F7C48"></path>
            <path d="M150.466129,96.3884372 C150.466129,96.3884372 149.927419,97.3945137 149.695968,97.8255738 C149.43629,97.916153 147.927419,98.4466885 146.641935,98.898776 C147.294355,97.6808087 148.03871,96.2905792 148.23629,95.9226011 C148.700806,95.9226011 149.791935,95.9226011 149.791935,95.9226011 C150.358871,95.9226011 150.546774,95.995388 150.601613,96.0285464 C150.6,96.0681749 150.58629,96.1725027 150.466129,96.3884372 Z M149.791935,94.7612459 L147.545968,94.7612459 L144.206452,100.983716 L150.504032,98.7701858 L151.487097,96.94 C151.809677,96.3415301 151.849194,95.8328306 151.61129,95.4325027 C151.257258,94.8388852 150.452419,94.7612459 149.791935,94.7612459 Z" id="Fill-9" fill="#8F7C48"></path>
            <path d="M160.666935,93.8643497 C160.66371,93.866776 157.881452,98.986929 157.681452,99.3516721 C157.291129,99.4891585 151.069355,101.671956 151.069355,101.671956 C151.069355,101.671956 154.455645,103.612131 155.177419,104.022973 C154.737903,104.853552 151.929839,110.138689 151.652419,110.663563 C151.080645,110.663563 145.619355,110.663563 144.16129,110.663563 C144.808871,109.440743 146.919355,105.448787 146.919355,105.448787 L143.140323,102.965945 C143.140323,102.965945 139.354032,110.100678 139.053226,110.663563 C138.481452,110.663563 132.771774,110.663563 131.292742,110.663563 C132.120968,109.117246 141.352419,91.9055738 141.658065,91.3354098 C142.320161,91.3354098 156.884677,91.3354098 156.884677,91.3354098 C158.122581,91.3394536 160.28871,91.671847 160.81129,92.5525683 C160.850806,92.616459 160.929839,92.7539454 160.929839,92.9884809 C160.929839,93.1947104 160.870161,93.4777705 160.666935,93.8643497 Z M161.808871,91.9581421 C160.778226,90.2322842 157.276613,90.1748634 156.88629,90.1748634 L140.966935,90.1748634 L129.354839,111.825727 L139.749194,111.825727 C139.749194,111.825727 143.058871,105.592743 143.566935,104.634383 C144.129839,105.003978 144.91371,105.518339 145.402419,105.83941 C144.987903,106.625508 142.23629,111.825727 142.23629,111.825727 L152.346774,111.825727 L156.729032,103.57412 C156.729032,103.57412 154.881452,102.51871 153.849194,101.928328 C155.333065,101.406689 158.48629,100.302754 158.48629,100.302754 L161.685484,94.4110601 C161.981452,93.8643497 162.085484,93.3871913 162.085484,92.9909071 C162.085484,92.5525683 161.954839,92.2096612 161.808871,91.9581421 Z" id="Fill-10" fill="#8F7C48"></path>
            <path d="M173.101613,94.0317596 L167.523387,104.901268 C167.166935,105.594361 166.808065,106.482361 167.234677,107.177071 C167.562097,107.715694 168.242742,107.972874 169.316935,107.967213 L171.873387,107.967213 L173.993548,103.834536 C173.993548,103.834536 172.38871,103.834536 171.762903,103.834536 C172.237097,102.912568 172.939516,101.544175 173.147581,101.138186 C173.747581,101.138186 181.05,101.138186 182.571774,101.138186 C181.858065,102.526798 177.976613,110.086929 177.695161,110.632022 C177.020968,110.632022 162.212097,110.632022 162.212097,110.632022 C160.232258,110.632022 158.946774,110.233311 158.489516,109.481989 C158.345161,109.238557 158.284677,108.95388 158.284677,108.663541 C158.284677,107.799803 158.78629,106.839016 158.983065,106.456481 L163.660484,97.4705355 C165.352419,94.1740984 166.801613,91.350776 172.445161,91.3354098 C172.445161,91.3354098 186.260484,91.3354098 187.734677,91.3354098 C187.172581,92.4417705 185.874194,94.9860765 185.63629,95.4486776 C185.069355,95.4486776 180.240323,95.4486776 178.83871,95.4486776 C178.980645,95.1737049 179.56129,94.0317596 179.56129,94.0317596 L173.101613,94.0317596 Z M186.345161,96.6116503 L189.628226,90.1748634 L172.443548,90.1748634 C166.095968,90.1910383 164.337903,93.6079781 162.645161,96.9100765 C162.633871,96.9351475 157.957258,105.919475 157.957258,105.919475 C157.580645,106.644918 156.583871,108.564066 157.502419,110.085311 C158.195161,111.233727 159.737097,111.790951 162.212097,111.790951 L178.400806,111.790951 L184.467742,99.9776393 L172.441935,99.9776393 L169.865323,104.995891 C169.865323,104.995891 171.468548,104.995891 172.095161,104.995891 C171.717742,105.735082 171.341129,106.462951 171.164516,106.809093 C170.666935,106.809093 169.31371,106.809093 169.31371,106.809093 C168.394355,106.812328 168.23629,106.597202 168.224194,106.573749 C168.21129,106.555148 168.198387,106.517137 168.198387,106.442732 C168.198387,106.293923 168.262903,105.998732 168.55,105.436656 C168.55,105.433421 172.93629,96.8906667 173.807258,95.1931148 C174.300806,95.1931148 176.510484,95.1931148 177.668548,95.1931148 C177.526613,95.4672787 176.943548,96.6116503 176.943548,96.6116503 L186.345161,96.6116503 Z" id="Fill-11" fill="#8F7C48"></path>
            <path d="M190,110.663563 C189.429839,110.663563 183.957258,110.663563 182.497581,110.663563 C183.316935,109.122907 192.449194,91.9096175 192.754839,91.3354098 C193.323387,91.3354098 198.796774,91.3354098 200.256452,91.3354098 C199.437903,92.8784918 190.302419,110.094208 190,110.663563 Z M201.219355,90.1748634 L192.058065,90.1748634 L180.570968,111.825727 L190.695968,111.825727 L202.184677,90.1748634 L201.219355,90.1748634 Z" id="Fill-12" fill="#8F7C48"></path>
            <path d="M214.355645,97.1624044 C214.350806,97.1704918 212.237097,101.756066 211.644355,103.037115 C211.224194,103.037115 210.181452,103.037115 209.216129,103.037115 C210.077419,101.661443 213.533065,96.1417705 213.821774,95.6807869 C214.602419,95.7058579 214.729032,95.8765027 214.732258,95.8862077 C214.742742,95.900765 214.757258,95.932306 214.757258,95.9937705 C214.757258,96.1417705 214.687903,96.467694 214.355645,97.1624044 Z M213.493548,94.518623 L213.182258,94.5250929 L207.124194,104.196852 L212.387903,104.196852 L215.403226,97.6565464 C215.780645,96.8655956 216.152419,95.9525246 215.708065,95.2578142 C215.270161,94.5744262 214.294355,94.5040656 213.493548,94.518623 Z" id="Fill-13" fill="#8F7C48"></path>
            <path d="M222.958871,96.5129836 L222.949194,96.5388634 C222.949194,96.5388634 216.998387,110.007672 216.705645,110.663563 C216.094355,110.663563 210.705645,110.663563 209.332258,110.663563 C209.78629,109.66153 211.042742,106.893202 211.042742,106.893202 L204.698387,106.893202 C204.698387,106.893202 202.567742,110.206623 202.270968,110.663563 C201.76129,110.663563 196.303226,110.663563 194.617742,110.663563 C195.848387,108.998361 208.560484,91.7745574 208.882258,91.3354098 C209.429839,91.3354098 218.337097,91.3354098 218.337097,91.3354098 C221.065323,91.3354098 222.833871,91.8635191 223.451613,92.859082 C223.637097,93.1591257 223.725806,93.5165902 223.725806,93.9314754 C223.725806,94.6229508 223.475,95.4753661 222.958871,96.5129836 Z M224.433065,92.2484809 C223.570161,90.8517814 221.580645,90.1732459 218.337097,90.1748634 L208.300806,90.1748634 L192.321774,111.825727 L202.901613,111.825727 C202.901613,111.825727 205.033871,108.511497 205.329839,108.052131 C205.782258,108.052131 208.110484,108.052131 209.242742,108.052131 C208.787097,109.058208 207.533871,111.825727 207.533871,111.825727 L217.46129,111.825727 L224.003226,97.0095519 L223.993548,97.0297705 C225.012903,94.9796066 225.157258,93.4154973 224.433065,92.2484809 Z" id="Fill-14" fill="#8F7C48"></path>
            <path d="M59.8975806,117.304153 L58.641129,119.606645 C58.1306452,120.543169 57.8532258,121.290448 58.1620968,121.909945 C58.4895161,122.56988 59.2790323,122.73082 60.4475806,122.899038 L60.4653226,122.901464 L63.6798387,123.162689 C64.7887097,123.262164 65.6104839,123.664918 65.9290323,124.265005 C66.2927419,124.951628 65.9540323,125.838011 65.6104839,126.462361 C65.6064516,126.472874 62.8451613,131.679563 62.8451613,131.679563 C61.4443548,134.241661 56.7653226,134.342754 56.716129,134.344372 L48.2403226,134.342754 C46.7693548,134.342754 45.8008065,134.04918 45.4467742,133.487913 C45.3233871,133.297049 45.283871,133.083541 45.283871,132.886208 C45.283871,132.531169 45.4120968,132.236787 45.4209677,132.208481 C45.4467742,132.167235 46.9395161,129.433683 47.2153226,128.931454 C47.808871,128.931454 51.8653226,128.931454 51.8653226,128.931454 C52.7766129,128.951672 53.3612903,129.172459 53.1451613,129.664175 C52.9314516,130.155082 52.5516129,130.943607 52.8790323,131.477377 C53.1927419,131.982842 53.8556452,132.055628 54.4620968,132.055628 L56.3096774,132.055628 L58.1024194,128.77294 C58.3056452,128.403344 58.5072581,127.962579 58.5072581,127.526667 C58.5072581,127.324481 58.4629032,127.12553 58.3556452,126.936284 C57.9887097,126.272306 57.0645161,126.134011 56.1177419,126.081443 C56.1112903,126.081443 53.2306452,125.942339 53.2306452,125.942339 C50.283871,125.735301 50.1435484,124.002973 50.1435484,123.802404 C50.1435484,123.593749 50.1887097,123.27753 50.3419355,122.808459 L50.5862903,122.050667 C50.5862903,122.050667 51.9612903,119.431148 53.2967742,117.278273 C54.633871,115.125399 58.2427419,115.014601 59.6725806,115.014601 C61.1048387,115.014601 71.6120968,115.014601 71.6120968,115.014601 L69.4354839,119.127869 C69.4354839,119.127869 64.9193548,119.127869 63.5612903,119.127869 C63.8153226,118.645049 64.5209677,117.304153 64.5209677,117.304153 L59.8975806,117.304153 Z M70.1346774,120.287607 L73.5008065,113.854055 L72.5556452,113.854055 C72.5556452,113.854055 62.1475806,113.854055 59.2016129,113.854055 C56.2548387,113.854055 53.3564516,114.778448 52.2209677,116.856918 C51.2145161,118.695191 49.65,121.258907 49.0467742,123.199891 C48.4435484,125.140066 50.3209677,126.888568 52.908871,127.041421 C52.9185484,127.043847 56.0564516,127.239563 56.0564516,127.239563 C57.1508065,127.29941 57.3177419,127.791934 57.0895161,128.215716 C57.0895161,128.215716 55.8927419,130.406601 55.625,130.892656 C55.2169355,130.892656 54.4620968,130.892656 54.4620968,130.892656 C54.1475806,130.892656 53.9879032,130.867585 53.9048387,130.845749 C53.9266129,130.746273 53.991129,130.557836 54.1790323,130.18824 C54.3379032,129.874448 54.3959677,129.597858 54.3959677,129.364131 C54.3959677,129.079454 54.3112903,128.857049 54.2153226,128.694492 C53.7741935,127.959344 52.7,127.785464 51.8774194,127.771716 L46.5282258,127.771716 L44.3959677,131.673093 C44.3564516,131.753967 43.7717742,133.001858 44.4620968,134.10094 C45.0459677,135.030995 46.3177419,135.504918 48.2403226,135.504918 L56.7258065,135.504918 C56.9508065,135.502492 62.1330645,135.396546 63.8620968,132.230317 C63.8653226,132.226273 66.6282258,127.017967 66.6282258,127.017967 C67.0854839,126.190623 67.2443548,125.499956 67.2443548,124.939497 C67.2443548,124.427563 67.1120968,124.023191 66.9540323,123.72153 C66.4483871,122.768831 65.291129,122.142055 63.7790323,122.007803 C63.7741935,122.007803 60.7862903,121.762754 60.5943548,121.747388 C60.2572581,121.699672 59.3008065,121.557333 59.1951613,121.388306 C59.1935484,121.386689 59.1895161,121.37294 59.1895161,121.338164 C59.1895161,121.227366 59.2427419,120.920852 59.658871,120.16306 C59.658871,120.16306 60.2806452,119.02435 60.5830645,118.463082 C60.9564516,118.463082 61.7709677,118.463082 62.6024194,118.463082 C62.3475806,118.948328 61.6427419,120.287607 61.6427419,120.287607 L70.1346774,120.287607 Z" id="Fill-15" fill="#8F7C48"></path>
            <path d="M83.616129,119.434383 C83.616129,119.434383 78.3693548,129.039825 77.3612903,130.885377 C76.9330645,130.885377 76.1024194,130.885377 76.1024194,130.885377 C75.991129,130.885377 75.8459677,130.839279 75.8225806,130.801268 C75.816129,130.788328 75.8096774,130.763257 75.8096774,130.725246 C75.8096774,130.608787 75.8564516,130.377486 76.0612903,130.00223 C76.0612903,130.000612 81.3491935,120.327235 82.3620968,118.474404 C82.7766129,118.474404 83.5322581,118.474404 83.5669355,118.474404 C83.6508065,118.479257 83.816129,118.524546 83.8548387,118.592481 C83.8645161,118.613508 83.8725806,118.649902 83.8725806,118.696809 C83.8725806,118.829443 83.8177419,119.068022 83.616129,119.434383 Z M83.6080645,117.294448 L81.6645161,117.294448 L75.0330645,129.435301 C74.5870968,130.248087 74.516129,130.912066 74.8169355,131.409443 C75.2112903,132.062907 76.0241935,132.062907 76.1153226,132.062907 L78.0556452,132.062907 L84.6475806,120.000503 C85.0903226,119.189333 85.1653226,118.519694 84.8725806,118.008568 C84.4927419,117.341355 83.6991935,117.297683 83.6080645,117.294448 Z" id="Fill-16" fill="#8F7C48"></path>
            <path d="M92.3419355,117.123803 L84.616129,131.260634 C82.9620968,134.289377 78.5330645,134.334667 78.4903226,134.334667 L70.1709677,134.334667 C68.0540323,134.334667 67.4443548,133.832437 67.266129,133.532393 C67.1903226,133.404612 67.1604839,133.259038 67.1604839,133.106995 C67.1604839,132.63388 67.4556452,132.096066 67.5846774,131.859913 C67.5846774,131.859913 75.0201613,118.254426 75.3185484,117.714186 C75.4491935,117.516852 77.2225806,115.021071 81.3653226,115.021071 L89.3709677,115.021071 C90.2032258,115.024306 92.0629032,115.267738 92.4943548,116.000459 C92.5548387,116.101552 92.7322581,116.404831 92.3419355,117.123803 Z M93.5072581,115.401989 C92.6177419,113.893683 89.7008065,113.845967 89.3725806,113.845967 L81.3653226,113.845967 C76.4822581,113.845967 74.4096774,116.953158 74.3209677,117.082557 L74.3104839,117.104393 L66.5556452,131.290557 C66.2959677,131.764481 65.6048387,133.025311 66.2532258,134.130863 C66.8016129,135.060918 68.083871,135.50977 70.1709677,135.50977 L78.4903226,135.50977 C78.7,135.513005 83.6532258,135.473377 85.6459677,131.825945 L93.3701613,117.689115 C93.9629032,116.610251 93.7701613,115.850842 93.5072581,115.401989 Z" id="Fill-17" fill="#8F7C48"></path>
            <path d="M143.737097,134.570011 C143.191129,134.570011 139.08629,134.570011 137.701613,134.570011 C138.437097,133.179781 142.184677,126.073355 142.184677,126.073355 L137.785484,126.073355 C137.785484,126.073355 133.61129,133.990142 133.305645,134.570011 C132.755645,134.570011 128.66371,134.570011 127.279032,134.570011 C128.108065,133.008328 137.383065,115.59447 137.68871,115.017836 C138.23871,115.017836 142.324194,115.017836 143.715323,115.017836 C142.979839,116.392699 139.456452,122.960503 139.456452,122.960503 L143.862097,122.960503 C143.862097,122.960503 147.815323,115.589617 148.122581,115.017836 C148.667742,115.017836 152.767742,115.017836 154.154839,115.017836 C153.320161,116.580328 144.045968,133.993377 143.737097,134.570011 Z M133.554032,117.867847 C132.879839,117.867847 128.110484,117.871082 128.110484,117.871082 C128.110484,117.871082 119.642742,133.978011 119.328226,134.574863 C118.779839,134.574863 114.585484,134.574863 113.210484,134.574863 C114.015323,133.042295 121.994355,117.86623 121.994355,117.86623 C121.994355,117.86623 117.619355,117.883213 116.165323,117.888066 C117.270968,116.361158 118.858871,115.014601 121.725,115.014601 L131.558871,115.014601 C132.740323,115.014601 133.512097,115.241049 133.791935,115.664022 C133.895968,115.822536 133.948387,116.027148 133.948387,116.281902 C133.948387,116.683038 133.809677,117.211956 133.554032,117.867847 Z M106.385484,131.260634 C104.733065,134.289377 100.307258,134.334667 100.259677,134.334667 L91.9419355,134.334667 C89.8266129,134.334667 89.2153226,133.832437 89.0370968,133.532393 C88.9620968,133.402995 88.9314516,133.259038 88.9314516,133.106995 C88.9314516,132.63388 89.2282258,132.098492 89.3572581,131.859913 C89.3572581,131.859913 97.3193548,117.291213 98.5572581,115.021071 C99.1024194,115.021071 103.268548,115.021071 104.679839,115.021071 C103.833871,116.570623 96.858871,129.334208 96.858871,129.334208 C96.5580645,129.888197 96.2919355,130.42682 96.2919355,130.912066 C96.2919355,131.107781 96.3346774,131.29541 96.4387097,131.47576 C96.7854839,132.062907 97.5693548,132.062907 97.8282258,132.062907 L99.825,132.062907 C99.825,132.062907 108.817742,115.612262 109.13871,115.021071 C109.683871,115.021071 113.848387,115.021071 115.259677,115.021071 C114.402419,116.594885 106.385484,131.260634 106.385484,131.260634 Z M155.126613,113.847585 L147.421774,113.847585 C147.421774,113.847585 143.466129,121.217661 143.16371,121.787825 C142.808065,121.787825 142.171774,121.787825 141.414516,121.787825 C142.15,120.417005 145.675,113.847585 145.675,113.847585 L136.991129,113.847585 L134.675806,118.191344 C134.912097,117.576699 135.105645,116.91353 135.105645,116.283519 C135.105645,115.836284 135.006452,115.405224 134.759677,115.027541 C134.242742,114.238208 133.195161,113.854055 131.557258,113.854055 L121.726613,113.854055 C118.842742,113.854055 117.045968,115.050995 115.810484,116.471148 L117.244355,113.845967 L108.444355,113.845967 C108.444355,113.845967 99.4532258,130.294186 99.1306452,130.885377 C98.6975806,130.885377 97.8282258,130.885377 97.8282258,130.885377 C97.6354839,130.885377 97.5306452,130.86435 97.4717742,130.848984 C97.4879032,130.734951 97.5709677,130.483432 97.8895161,129.901137 L106.662903,113.845967 L97.8612903,113.845967 L88.3282258,131.292175 C88.0685484,131.766098 87.3758065,133.026929 88.0258065,134.130863 C88.5725806,135.060918 89.8548387,135.50977 91.9419355,135.50977 L100.259677,135.50977 C100.472581,135.513005 105.426613,135.473377 107.418548,131.825945 L114.395161,119.058317 C115.497581,119.052656 118.940323,119.041333 120.071774,119.034863 C119.262097,120.573902 111.290323,135.734601 111.290323,135.734601 L120.027419,135.734601 C120.027419,135.734601 128.496774,119.62929 128.808871,119.031628 C129.370968,119.030011 133.55,119.028393 134.229839,119.026776 L125.327419,135.74188 L134.009677,135.74188 C134.009677,135.74188 138.183871,127.823475 138.489516,127.246842 C138.841935,127.246842 139.484677,127.246842 140.243548,127.246842 C139.509677,128.635454 135.764516,135.74188 135.764516,135.74188 L144.43871,135.74188 L156.1,113.847585 L155.126613,113.847585 Z" id="Fill-18" fill="#8F7C48"></path>
            <polyline id="Fill-19" fill="#8F7C48" points="163.66371 134.069399 163.65 134.099322 163.66371 134.069399"></polyline>
            <path d="M162.766129,119.870295 L161.214516,122.768831 C161.214516,122.768831 165.862903,122.768831 167.234677,122.768831 C166.733871,123.704546 166.001613,125.075366 165.787097,125.47165 C165.168548,125.47165 159.76371,125.47165 159.76371,125.47165 L156.412097,131.722426 L161.384677,131.722426 C162.169355,131.722426 162.693548,131.881749 162.86371,132.173705 C162.917742,132.267519 162.945968,132.380743 162.945968,132.51823 C162.945968,132.79482 162.833871,133.14824 162.622581,133.537246 L162.615323,133.550995 C162.615323,133.550995 162.312903,134.192328 162.13629,134.570011 C161.479032,134.570011 150.510484,134.570011 148.856452,134.570011 C149.674194,133.031781 156.646774,119.911541 156.646774,119.911541 C156.754032,119.687519 159.004839,115.017836 163.983871,115.017836 C163.983871,115.017836 170.81371,115.017836 172.383871,115.017836 C171.879839,115.954361 171.145968,117.325989 170.933065,117.720656 C170.329839,117.720656 166.393548,117.720656 166.393548,117.720656 C164.774194,117.720656 163.519355,118.463082 162.766129,119.870295 Z M166.393548,118.892525 L171.630645,118.892525 L174.340323,113.847585 L163.983871,113.847585 C158.254839,113.847585 155.708065,119.162645 155.599194,119.385858 L146.908065,135.74188 L162.873387,135.74188 L163.65,134.099322 C164.179032,133.126404 164.258065,132.230317 163.871774,131.576852 C163.465323,130.895891 162.630645,130.54894 161.384677,130.54894 C161.384677,130.54894 159.480645,130.54894 158.36371,130.54894 C158.957258,129.447432 160.220968,127.089137 160.460484,126.645137 C161.082258,126.645137 166.48629,126.645137 166.48629,126.645137 L169.192742,121.595344 C169.192742,121.595344 164.541129,121.595344 163.167742,121.595344 C163.475,121.026798 163.795968,120.425093 163.795968,120.425093 C164.337903,119.409311 165.21371,118.892525 166.393548,118.892525 Z" id="Fill-20" fill="#8F7C48"></path>
            <path d="M191.8,117.550011 C191.8,117.550011 189.408871,122.009421 189.223387,122.35071 C188.868548,122.49871 183.66129,124.642689 183.66129,124.642689 C183.66129,124.642689 186.172581,126.535956 186.75,126.972678 C186.35,127.735322 183.033065,134.023301 182.745968,134.570011 C182.2,134.570011 178.216129,134.570011 176.845968,134.570011 C177.525,133.276022 180.020161,128.518995 180.020161,128.518995 L176.999194,125.874404 C176.999194,125.874404 172.717742,133.990142 172.41371,134.570011 C171.862097,134.570011 167.68871,134.570011 166.295968,134.570011 C167.127419,133.008328 176.404839,115.59447 176.710484,115.017836 C177.370161,115.017836 189.129032,115.017836 189.129032,115.017836 C189.719355,115.021071 191.524194,115.211126 192.004839,116.021486 C192.216129,116.382995 192.15,116.898164 191.8,117.550011 Z M193.004839,115.418973 C192.100806,113.895301 189.429839,113.847585 189.129839,113.847585 L176.009677,113.847585 L164.345968,135.74188 L173.116129,135.74188 C173.116129,135.74188 176.754839,128.844109 177.340323,127.733705 C177.809677,128.141311 178.220968,128.504437 178.554839,128.795585 C178.176613,129.512131 174.91371,135.74188 174.91371,135.74188 L183.450806,135.74188 L188.251613,126.63624 C188.251613,126.63624 186.792742,125.53635 186.004839,124.94435 C187.230645,124.440503 190.054839,123.275913 190.054839,123.275913 L192.828226,118.104809 C193.141935,117.523322 193.296774,116.984699 193.296774,116.490557 C193.296774,116.104787 193.201613,115.746514 193.004839,115.418973 Z" id="Fill-21" fill="#8F7C48"></path>
            <path d="M183.61129,119.359169 C183.61129,119.359169 183.056452,120.393552 182.831452,120.811672 C182.620161,120.902251 181.61371,121.317137 180.534677,121.761137 C181.196774,120.527803 181.883065,119.253224 182.073387,118.892525 C182.492742,118.892525 183.282258,118.892525 183.282258,118.892525 C183.576613,118.892525 183.710484,118.924066 183.775,118.94671 C183.765323,119.013027 183.729032,119.139191 183.61129,119.359169 Z M183.282258,117.720656 L181.375806,117.720656 L177.958065,124.094361 L183.66129,121.737683 L184.637903,119.913158 C184.768548,119.672962 185.162903,118.94024 184.798387,118.330448 C184.434677,117.720656 183.598387,117.720656 183.282258,117.720656 Z" id="Fill-22" fill="#8F7C48"></path>
            <path d="M208.922581,128.858667 C207.020161,133.587388 204.430645,134.456787 203.050806,134.553027 C203.008065,134.553027 201.667742,134.553027 201.031452,134.553027 C200.920161,133.65694 199.601613,122.982339 199.601613,122.982339 C199.601613,122.982339 194.422581,133.94647 194.13871,134.553027 C193.584677,134.553027 189.645161,134.553027 188.350806,134.553027 C189.073387,133.077071 197.470161,115.922011 197.758871,115.334055 C198.322581,115.334055 201.945161,115.335672 202.707258,115.335672 C202.837097,116.20588 204.345968,126.370164 204.345968,126.370164 C204.345968,126.370164 208.885484,115.970536 209.162097,115.340525 C209.730645,115.340525 213.458871,115.342142 214.678226,115.342142 C214.081452,116.74612 208.922581,128.858667 208.922581,128.858667 Z M208.421774,114.21071 C208.421774,114.21071 205.917742,119.952787 204.88629,122.322404 C204.517742,119.854929 203.678226,114.21071 203.678226,114.21071 L197.056452,114.205049 L196.901613,114.522077 L186.546774,135.680415 L194.852419,135.680415 C194.852419,135.680415 197.828226,129.381115 198.962097,126.981574 C199.274194,129.508896 200.037903,135.680415 200.037903,135.680415 L203.112097,135.680415 C204.752419,135.569617 207.828226,134.592656 209.96371,129.289727 C209.96129,129.298623 216.045161,114.999235 216.045161,114.999235 L216.382258,114.21071 L208.421774,114.21071 Z" id="Fill-23" fill="#8F7C48"></path>
            <path d="M125.140323,95.7285027 C125.140323,95.7285027 120.044355,105.327475 119.065323,107.175454 C118.603226,107.175454 117.527419,107.175454 117.527419,107.175454 C117.346774,107.175454 117.064516,107.112372 117.001613,107.008044 C116.98871,106.98459 116.983065,106.953049 116.983065,106.898863 C116.983065,106.780787 117.026613,106.578601 117.187903,106.27694 C117.187903,106.27694 122.320968,96.6019454 123.304839,94.7507322 C123.757258,94.7507322 124.765323,94.7507322 124.790323,94.7507322 C124.937097,94.7555847 125.242742,94.8251366 125.320968,94.9634317 C125.33871,94.9941639 125.348387,95.0346011 125.348387,95.0936393 C125.348387,95.2278907 125.292742,95.4389727 125.140323,95.7285027 Z M124.823387,93.589377 L122.607258,93.589377 L116.165323,105.728612 C115.765323,106.487213 115.712903,107.118842 116.01371,107.612984 C116.454839,108.335191 117.428226,108.340044 117.53871,108.336809 L119.76129,108.336809 L126.160484,96.2735956 C126.559677,95.519847 126.612903,94.8833661 126.321774,94.3762842 C125.891129,93.6354754 124.929032,93.5909945 124.823387,93.589377 Z" id="Fill-24" fill="#8F7C48"></path>
            <path d="M135.132258,93.4187322 L127.630645,107.556372 C126.024194,110.585923 120.767742,110.627169 120.714516,110.627169 L110.940323,110.627169 C109.079032,110.627169 107.881452,110.271322 107.479839,109.600066 C107.362097,109.402732 107.316129,109.180328 107.316129,108.952262 C107.316129,108.330339 107.667742,107.672831 107.806452,107.410798 C107.806452,107.410798 114.604032,94.6229508 114.937903,93.9921311 C115.083065,93.7834754 116.902419,91.2990164 121.812097,91.2990164 L131.215323,91.2990164 C132.603226,91.3022514 134.768548,91.6605246 135.23629,92.4417705 C135.265323,92.4911038 135.328226,92.594623 135.328226,92.7741639 C135.328226,92.9286339 135.282258,93.1372896 135.132258,93.4187322 Z M136.230645,91.844918 C135.241129,90.1910383 131.626613,90.1376612 131.215323,90.1376612 L121.812097,90.1376612 C116.129032,90.1376612 114.043548,93.2416175 113.958871,93.3726339 L113.945968,93.3960874 L106.785484,106.86247 C106.070161,108.208219 105.969355,109.329945 106.487903,110.196918 C107.129032,111.268503 108.584677,111.787716 110.940323,111.787716 L120.714516,111.787716 C120.959677,111.787716 126.716935,111.749705 128.652419,108.099847 L136.156452,93.9630164 C136.675,92.9803934 136.482258,92.2686995 136.230645,91.844918 Z" id="Fill-25" fill="#8F7C48"></path>
            <path d="M230.701613,57.5218579 C230.701613,57.5218579 234.657258,44.5706448 212.470161,44.5520437 C212.470161,44.5520437 216.669355,48.4534208 207.018548,50.6362186 C207.018548,50.6362186 215.116129,51.7296393 216.825,47.1990601 C216.825,47.1990601 229.815323,47.8751694 230.701613,57.5218579" id="Fill-26" fill="#FFFFFE"></path>
            <path d="M172.306452,17.489071 C203.304839,22.4523279 198.145968,29.8466667 194.110484,34.2850492 C177.381452,29.6930055 161.176613,27.1681093 123.112097,26.407082 C122.980645,26.4046557 122.274194,26.3925246 122.141935,26.3892896 C112.279839,24.2267104 77.1548387,17.231082 69.8862903,15.7745355 C69.033871,15.6038907 68.5532258,15.4558907 68.5532258,15.4558907 C79.6733871,15.1162186 141.307258,12.523388 172.306452,17.489071" id="Fill-27" fill="#FFFFFE"></path>
            <path d="M50.2596774,60.0160219 C55.8233871,44.6224044 83.4693548,22.2590383 147.678226,41.1480437 C147.678226,41.1480437 71.7314516,36.3489617 50.2596774,60.0160219" id="Fill-28" fill="#FFFFFE"></path>
            <path d="M182.203226,39.5143825 C181.774194,41.7222514 179.779032,43.2418798 177.632258,42.945071 C175.872581,42.7016393 174.535484,41.3154536 174.206452,39.5871694 C174.467742,40.0052896 174.870968,40.2802623 175.335484,40.2802623 C176.121774,40.2802623 176.758065,39.4957814 176.758065,38.5252896 C176.758065,38.4258142 176.745161,38.3376612 176.735484,38.2462732 C175.872581,38.0513661 174.987097,37.8556503 174.099194,37.6647869 C174.099194,37.6680219 174.099194,37.6680219 174.099194,37.6680219 C173.370161,37.507082 172.635484,37.3501858 171.904839,37.1989508 C171.9,37.2288743 171.88629,37.2604153 171.884677,37.2854863 C171.382258,40.996 173.845161,44.4161749 177.375,44.897377 C180.577419,45.3365246 183.565323,43.2200437 184.479032,40.0627104 C183.778226,39.8904481 183.009677,39.7052459 182.203226,39.5143825" id="Fill-29" fill="#FFFFFE"></path>
            <path d="M148.142742,64.4560219 C148.142742,64.4560219 68.191129,26.1240219 27.6967742,106.820415 C63.1427419,61.1903169 127.022581,70.8863388 127.022581,70.8863388 C127.022581,70.8863388 135.918548,64.6946011 148.142742,64.4560219" id="Fill-30" fill="#FFFFFE"></path>
            <path d="M83.5887097,117.294448 L81.6645161,117.294448 L75.0330645,129.435301 C74.5870968,130.248087 74.516129,130.912066 74.8169355,131.409443 C75.2112903,132.062907 76.0241935,132.062907 76.1153226,132.062907 L78.0556452,132.062907 L84.6475806,120.000503 C85.0903226,119.189333 85.1653226,118.519694 84.8725806,118.008568 C84.4927419,117.341355 83.6991935,117.297683 83.6080645,117.294448 L83.5887097,117.294448 Z M81.3653226,115.021071 L89.3709677,115.021071 C90.2032258,115.024306 92.0629032,115.267738 92.4943548,116.000459 C92.5548387,116.101552 92.7322581,116.404831 92.3419355,117.123803 L84.616129,131.260634 C82.9620968,134.289377 78.5330645,134.334667 78.4903226,134.334667 L70.1709677,134.334667 C68.0540323,134.334667 67.4443548,133.832437 67.266129,133.532393 C67.1903226,133.404612 67.1604839,133.259038 67.1604839,133.106995 C67.1604839,132.63388 67.4556452,132.096066 67.5846774,131.859913 C67.5846774,131.859913 75.0201613,118.254426 75.3185484,117.714186 C75.4491935,117.516852 77.2225806,115.021071 81.3653226,115.021071 Z" id="Fill-31" fill="#FFFFFE"></path>
            <path d="M115.259677,115.021071 C114.402419,116.594885 106.385484,131.260634 106.385484,131.260634 C104.733065,134.289377 100.307258,134.334667 100.259677,134.334667 L91.9419355,134.334667 C89.8266129,134.334667 89.2153226,133.832437 89.0370968,133.532393 C88.9620968,133.402995 88.9314516,133.259038 88.9314516,133.106995 C88.9314516,132.63388 89.2282258,132.098492 89.3572581,131.859913 C89.3572581,131.859913 97.3193548,117.291213 98.5572581,115.021071 C99.1024194,115.021071 103.268548,115.021071 104.679839,115.021071 C103.833871,116.570623 96.858871,129.334208 96.858871,129.334208 C96.5580645,129.888197 96.2919355,130.42682 96.2919355,130.912066 C96.2919355,131.107781 96.3346774,131.29541 96.4387097,131.47576 C96.7854839,132.062907 97.5693548,132.062907 97.8282258,132.062907 L99.825,132.062907 C99.825,132.062907 108.817742,115.612262 109.13871,115.021071 C109.683871,115.021071 113.848387,115.021071 115.259677,115.021071" id="Fill-32" fill="#FFFFFE"></path>
            <path d="M121.725,115.014601 L131.558871,115.014601 C132.740323,115.014601 133.512097,115.241049 133.791935,115.664022 C133.895968,115.822536 133.948387,116.027148 133.948387,116.281902 C133.948387,116.683038 133.809677,117.211956 133.554032,117.867847 C132.879839,117.867847 128.110484,117.871082 128.110484,117.871082 C128.110484,117.871082 119.642742,133.978011 119.328226,134.574863 C118.779839,134.574863 114.585484,134.574863 113.210484,134.574863 C114.015323,133.042295 121.994355,117.86623 121.994355,117.86623 C121.994355,117.86623 117.619355,117.883213 116.165323,117.888066 C117.270968,116.361158 118.858871,115.014601 121.725,115.014601" id="Fill-33" fill="#FFFFFE"></path>
            <path d="M154.154839,115.017836 C153.320161,116.580328 144.045968,133.993377 143.737097,134.570011 C143.191129,134.570011 139.08629,134.570011 137.701613,134.570011 C138.437097,133.179781 142.184677,126.073355 142.184677,126.073355 L137.785484,126.073355 C137.785484,126.073355 133.61129,133.990142 133.305645,134.570011 C132.755645,134.570011 128.66371,134.570011 127.279032,134.570011 C128.108065,133.008328 137.383065,115.59447 137.68871,115.017836 C138.23871,115.017836 142.324194,115.017836 143.715323,115.017836 C142.979839,116.392699 139.456452,122.960503 139.456452,122.960503 L143.862097,122.960503 C143.862097,122.960503 147.815323,115.589617 148.122581,115.017836 C148.667742,115.017836 152.767742,115.017836 154.154839,115.017836" id="Fill-34" fill="#FFFFFE"></path>
            <path d="M156.646774,119.911541 C156.754032,119.687519 159.004839,115.017836 163.983871,115.017836 C163.983871,115.017836 170.81371,115.017836 172.383871,115.017836 C171.879839,115.954361 171.145968,117.325989 170.933065,117.720656 C170.329839,117.720656 166.393548,117.720656 166.393548,117.720656 C164.774194,117.720656 163.519355,118.463082 162.766129,119.870295 L161.214516,122.768831 C161.214516,122.768831 165.862903,122.768831 167.234677,122.768831 C166.733871,123.704546 166.001613,125.075366 165.787097,125.47165 C165.168548,125.47165 159.76371,125.47165 159.76371,125.47165 L156.412097,131.722426 L161.384677,131.722426 C162.169355,131.722426 162.693548,131.881749 162.86371,132.173705 C162.917742,132.267519 162.945968,132.380743 162.945968,132.51823 C162.945968,132.79482 162.833871,133.14824 162.622581,133.537246 L162.615323,133.550995 C162.615323,133.550995 162.312903,134.192328 162.13629,134.570011 C161.479032,134.570011 150.510484,134.570011 148.856452,134.570011 C149.674194,133.031781 156.646774,119.911541 156.646774,119.911541" id="Fill-35" fill="#FFFFFE"></path>
            <path d="M181.724194,117.720656 L181.375806,117.720656 L177.958065,124.094361 L183.66129,121.737683 L184.637903,119.913158 C184.768548,119.672962 185.162903,118.94024 184.798387,118.330448 C184.434677,117.720656 183.598387,117.720656 183.282258,117.720656 L181.724194,117.720656 Z M189.129032,115.017836 C189.719355,115.021071 191.524194,115.211126 192.004839,116.021486 C192.216129,116.382995 192.15,116.898164 191.8,117.550011 C191.8,117.550011 189.408871,122.009421 189.223387,122.35071 C188.868548,122.49871 183.66129,124.642689 183.66129,124.642689 C183.66129,124.642689 186.172581,126.535956 186.75,126.972678 C186.35,127.735322 183.033065,134.023301 182.745968,134.570011 C182.2,134.570011 178.216129,134.570011 176.845968,134.570011 C177.525,133.276022 180.020161,128.518995 180.020161,128.518995 L176.999194,125.874404 C176.999194,125.874404 172.717742,133.990142 172.41371,134.570011 C171.862097,134.570011 167.68871,134.570011 166.295968,134.570011 C167.127419,133.008328 176.404839,115.59447 176.710484,115.017836 C177.370161,115.017836 189.129032,115.017836 189.129032,115.017836 Z" id="Fill-36" fill="#FFFFFE"></path>
            <path d="M90.9387097,96.2097049 L90.9475806,96.1927213 L90.9540323,96.1725027 C91.0443548,95.9727432 93.2,91.3354098 99.5822581,91.3354098 C99.5822581,91.3354098 109.237903,91.3354098 110.872581,91.3354098 C110.381452,92.2654645 109.654032,93.6354754 109.442742,94.0317596 C108.819355,94.0317596 103.217742,94.0317596 103.217742,94.0317596 C100.705645,94.0317596 99.5620968,95.1963497 99.0451613,96.1765464 L97.516129,99.0516284 C97.516129,99.0516284 104.037097,99.0516284 105.527419,99.0516284 C105.033871,99.9816831 104.306452,101.354929 104.095161,101.749596 C103.460484,101.749596 96.0846774,101.749596 96.0846774,101.749596 L92.7879032,107.967213 L99.933871,107.967213 C100.568548,107.974492 101.070968,108.156459 101.341935,108.478339 C101.495968,108.658689 101.571774,108.884328 101.571774,109.151213 C101.571774,109.207016 101.56371,109.266863 101.556452,109.323475 C101.479032,109.472284 101.052419,110.277792 100.845968,110.663563 C100.21129,110.663563 84.9701613,110.663563 83.2693548,110.663563 C84.0758065,109.145552 90.9387097,96.2097049 90.9387097,96.2097049" id="Fill-37" fill="#FFFFFE"></path>
            <path d="M147.892742,94.7612459 L147.545968,94.7612459 L144.206452,100.983716 L150.504032,98.7701858 L151.487097,96.94 C151.809677,96.3415301 151.849194,95.8328306 151.61129,95.4325027 C151.257258,94.8388852 150.452419,94.7612459 149.791935,94.7612459 L147.892742,94.7612459 Z M156.884677,91.3354098 C158.122581,91.3394536 160.28871,91.671847 160.81129,92.5525683 C160.850806,92.616459 160.929839,92.7539454 160.929839,92.9884809 C160.929839,93.1947104 160.870161,93.4777705 160.666935,93.8643497 C160.66371,93.866776 157.881452,98.986929 157.681452,99.3516721 C157.291129,99.4891585 151.069355,101.671956 151.069355,101.671956 C151.069355,101.671956 154.455645,103.612131 155.177419,104.022973 C154.737903,104.853552 151.929839,110.138689 151.652419,110.663563 C151.080645,110.663563 145.619355,110.663563 144.16129,110.663563 C144.808871,109.440743 146.919355,105.448787 146.919355,105.448787 L143.140323,102.965945 C143.140323,102.965945 139.354032,110.100678 139.053226,110.663563 C138.481452,110.663563 132.771774,110.663563 131.292742,110.663563 C132.120968,109.117246 141.352419,91.9055738 141.658065,91.3354098 C142.320161,91.3354098 156.884677,91.3354098 156.884677,91.3354098 Z" id="Fill-38" fill="#FFFFFE"></path>
            <path d="M200.256452,91.3354098 C199.437903,92.8784918 190.302419,110.094208 190,110.663563 C189.429839,110.663563 183.957258,110.663563 182.497581,110.663563 C183.316935,109.122907 192.449194,91.9096175 192.754839,91.3354098 C193.323387,91.3354098 198.796774,91.3354098 200.256452,91.3354098" id="Fill-39" fill="#FFFFFE"></path>
            <path d="M124.808065,93.589377 L122.607258,93.589377 L116.165323,105.728612 C115.765323,106.487213 115.712903,107.118842 116.01371,107.612984 C116.454839,108.335191 117.428226,108.340044 117.53871,108.336809 L119.76129,108.336809 L126.160484,96.2735956 C126.559677,95.519847 126.612903,94.8833661 126.321774,94.3762842 C125.891129,93.6354754 124.929032,93.5909945 124.823387,93.589377 L124.808065,93.589377 Z M121.812097,91.2990164 L131.215323,91.2990164 C132.603226,91.3022514 134.768548,91.6605246 135.23629,92.4417705 C135.265323,92.4911038 135.328226,92.594623 135.328226,92.7741639 C135.328226,92.9286339 135.282258,93.1372896 135.132258,93.4187322 L127.630645,107.556372 C126.024194,110.585923 120.767742,110.627169 120.714516,110.627169 L110.940323,110.627169 C109.079032,110.627169 107.881452,110.271322 107.479839,109.600066 C107.362097,109.402732 107.316129,109.180328 107.316129,108.952262 C107.316129,108.330339 107.667742,107.672831 107.806452,107.410798 C107.806452,107.410798 114.604032,94.6229508 114.937903,93.9921311 C115.083065,93.7834754 116.902419,91.2990164 121.812097,91.2990164 Z" id="Fill-40" fill="#FFFFFE"></path>
            <path d="M158.489516,109.481989 C158.345161,109.238557 158.284677,108.95388 158.284677,108.663541 C158.284677,107.799803 158.78629,106.839016 158.983065,106.456481 L163.660484,97.4705355 C165.352419,94.1740984 166.801613,91.350776 172.445161,91.3354098 C172.445161,91.3354098 186.260484,91.3354098 187.734677,91.3354098 C187.172581,92.4417705 185.874194,94.9860765 185.63629,95.4486776 C185.069355,95.4486776 180.240323,95.4486776 178.83871,95.4486776 C178.980645,95.1737049 179.56129,94.0317596 179.56129,94.0317596 L173.101613,94.0317596 L167.523387,104.901268 C167.166935,105.594361 166.808065,106.482361 167.234677,107.177071 C167.562097,107.715694 168.242742,107.972874 169.316935,107.967213 L171.873387,107.967213 L173.993548,103.834536 C173.993548,103.834536 172.38871,103.834536 171.762903,103.834536 C172.237097,102.912568 172.939516,101.544175 173.147581,101.138186 C173.747581,101.138186 181.05,101.138186 182.571774,101.138186 C181.858065,102.526798 177.976613,110.086929 177.695161,110.632022 C177.020968,110.632022 162.212097,110.632022 162.212097,110.632022 C160.232258,110.632022 158.946774,110.233311 158.489516,109.481989" id="Fill-41" fill="#FFFFFE"></path>
            <path d="M213.493548,94.518623 L213.182258,94.5250929 L207.124194,104.196852 L212.387903,104.196852 L215.403226,97.6565464 C215.780645,96.8655956 216.152419,95.9525246 215.708065,95.2578142 C215.270161,94.5744262 214.294355,94.5040656 213.493548,94.518623 Z M218.337097,91.3354098 C221.065323,91.3354098 222.833871,91.8635191 223.451613,92.859082 C223.637097,93.1591257 223.725806,93.5165902 223.725806,93.9314754 C223.725806,94.6229508 223.475,95.4753661 222.958871,96.5129836 L222.949194,96.5388634 C222.949194,96.5388634 216.998387,110.007672 216.705645,110.663563 C216.094355,110.663563 210.705645,110.663563 209.332258,110.663563 C209.78629,109.66153 211.042742,106.893202 211.042742,106.893202 L204.698387,106.893202 C204.698387,106.893202 202.567742,110.206623 202.270968,110.663563 C201.76129,110.663563 196.303226,110.663563 194.617742,110.663563 C195.848387,108.998361 208.560484,91.7745574 208.882258,91.3354098 C209.429839,91.3354098 218.337097,91.3354098 218.337097,91.3354098 Z" id="Fill-42" fill="#FFFFFE"></path>
            <path d="M71.9806452,91.3354098 C73.275,91.3354098 85.7959677,91.3354098 87.2733871,91.3354098 C86.7080645,92.4417705 85.4096774,94.9860765 85.1733871,95.4486776 C84.6048387,95.4486776 79.7790323,95.4486776 78.3758065,95.4486776 C78.5153226,95.1737049 79.0983871,94.0317596 79.0983871,94.0317596 L72.6403226,94.0317596 L67.0580645,104.901268 C66.7024194,105.594361 66.3483871,106.482361 66.7733871,107.177071 C67.1008065,107.715694 67.7814516,107.972874 68.8540323,107.967213 L71.408871,107.967213 L73.5322581,103.834536 C73.5322581,103.834536 71.9266129,103.834536 71.3,103.834536 C71.7741935,102.912568 72.4766129,101.544175 72.6846774,101.138186 C73.2830645,101.138186 80.5870968,101.138186 82.1080645,101.138186 C81.3967742,102.526798 77.5153226,110.086929 77.233871,110.632022 C76.5580645,110.632022 61.7483871,110.632022 61.7483871,110.632022 C59.7685484,110.632022 58.4822581,110.233311 58.0282258,109.481989 C57.8806452,109.23694 57.8233871,108.95388 57.8233871,108.663541 C57.8233871,107.799803 58.3225806,106.839016 58.5209677,106.456481 C58.5209677,106.456481 63.4483871,96.4135082 65.0830645,94.159541 C66.7193548,91.9039563 70.6854839,91.3354098 71.9806452,91.3354098" id="Fill-43" fill="#FFFFFE"></path>
            <path d="M59.6725806,115.014601 C61.1048387,115.014601 71.6120968,115.014601 71.6120968,115.014601 L69.4354839,119.127869 C69.4354839,119.127869 64.9193548,119.127869 63.5612903,119.127869 C63.8153226,118.645049 64.5209677,117.304153 64.5209677,117.304153 L59.8975806,117.304153 L58.641129,119.606645 C58.1306452,120.543169 57.8532258,121.290448 58.1620968,121.909945 C58.4895161,122.56988 59.2790323,122.73082 60.4475806,122.899038 L60.4653226,122.901464 L63.6798387,123.162689 C64.7887097,123.262164 65.6104839,123.664918 65.9290323,124.265005 C66.2927419,124.951628 65.9540323,125.838011 65.6104839,126.462361 C65.6064516,126.472874 62.8451613,131.679563 62.8451613,131.679563 C61.4443548,134.241661 56.7653226,134.342754 56.716129,134.344372 L48.2403226,134.342754 C46.7693548,134.342754 45.8008065,134.04918 45.4467742,133.487913 C45.3233871,133.297049 45.283871,133.083541 45.283871,132.886208 C45.283871,132.531169 45.4120968,132.236787 45.4209677,132.208481 C45.4467742,132.167235 46.9395161,129.433683 47.2153226,128.931454 C47.808871,128.931454 51.8653226,128.931454 51.8653226,128.931454 C52.7766129,128.951672 53.3612903,129.172459 53.1451613,129.664175 C52.9314516,130.155082 52.5516129,130.943607 52.8790323,131.477377 C53.1927419,131.982842 53.8556452,132.055628 54.4620968,132.055628 L56.3096774,132.055628 L58.1024194,128.77294 C58.3056452,128.403344 58.5072581,127.962579 58.5072581,127.526667 C58.5072581,127.324481 58.4629032,127.12553 58.3556452,126.936284 C57.9887097,126.272306 57.0645161,126.134011 56.1177419,126.081443 C56.1112903,126.081443 53.2306452,125.942339 53.2306452,125.942339 C50.283871,125.735301 50.1435484,124.002973 50.1435484,123.802404 C50.1435484,123.593749 50.1887097,123.27753 50.3419355,122.808459 L50.5862903,122.050667 C50.5862903,122.050667 51.9612903,119.431148 53.2967742,117.278273 C54.633871,115.125399 58.2427419,115.014601 59.6725806,115.014601" id="Fill-44" fill="#FFFFFE"></path>
            <path d="M197.758871,115.334055 C198.322581,115.334055 201.945161,115.335672 202.707258,115.335672 C202.837097,116.20588 204.345968,126.370164 204.345968,126.370164 C204.345968,126.370164 208.885484,115.970536 209.162097,115.340525 C209.730645,115.340525 213.458871,115.342142 214.678226,115.342142 C214.081452,116.74612 208.922581,128.858667 208.922581,128.858667 C207.020161,133.587388 204.430645,134.456787 203.050806,134.553027 C203.008065,134.553027 201.667742,134.553027 201.031452,134.553027 C200.920161,133.65694 199.601613,122.982339 199.601613,122.982339 C199.601613,122.982339 194.422581,133.94647 194.13871,134.553027 C193.584677,134.553027 189.645161,134.553027 188.350806,134.553027 C189.073387,133.077071 197.470161,115.922011 197.758871,115.334055" id="Fill-45" fill="#FFFFFE"></path>
            <path d="M219.335484,143.915038 C219.219355,143.869749 219.055645,143.847104 218.844355,143.847104 L218.63871,143.847104 L218.63871,144.794951 L218.967742,144.794951 C219.165323,144.794951 219.319355,144.755322 219.430645,144.674448 C219.541129,144.595191 219.596774,144.464984 219.596774,144.28706 C219.596774,144.108328 219.508871,143.98459 219.335484,143.915038 Z M217.807258,146.51353 L217.807258,143.290689 C218.006452,143.290689 218.304839,143.291497 218.702419,143.293115 C219.1,143.293923 219.320968,143.29635 219.366129,143.298776 C219.620161,143.317377 219.831452,143.372372 219.999194,143.464568 C220.284677,143.623082 220.428226,143.879454 220.428226,144.233683 C220.428226,144.505421 220.351613,144.701945 220.200806,144.823257 C220.048387,144.944568 219.862097,145.017355 219.639516,145.040809 C219.848387,145.082863 220.005645,145.145137 220.11129,145.22682 C220.305645,145.378863 220.403226,145.618251 220.403226,145.945792 L220.403226,146.233705 C220.403226,146.265246 220.404839,146.296787 220.407258,146.328328 C220.409677,146.359869 220.414516,146.39141 220.421774,146.422951 L220.441129,146.51353 L219.63629,146.51353 C219.608871,146.41082 219.591935,146.26282 219.583871,146.068721 C219.575,145.874623 219.558065,145.743607 219.531452,145.675672 C219.489516,145.562448 219.409677,145.483191 219.293548,145.439519 C219.230645,145.412831 219.133871,145.395847 219.003226,145.38776 L218.817742,145.375628 L218.63871,145.375628 L218.63871,146.51353 L217.807258,146.51353 Z M217.390323,143.232459 C216.928226,143.705574 216.698387,144.266033 216.698387,144.914645 C216.698387,145.587519 216.933065,146.158492 217.401613,146.62918 C217.866935,147.09906 218.429839,147.334404 219.090323,147.334404 C219.746774,147.334404 220.308871,147.098251 220.775,146.625137 C221.241129,146.150404 221.474194,145.579432 221.474194,144.914645 C221.474194,144.268459 221.242742,143.708 220.779032,143.232459 C220.310484,142.748831 219.746774,142.507825 219.090323,142.507825 C218.425806,142.507825 217.858871,142.748831 217.390323,143.232459 Z M221.120161,146.992306 C220.554839,147.540634 219.876613,147.814798 219.08629,147.814798 C218.268548,147.814798 217.580645,147.534164 217.020968,146.972896 C216.46129,146.412437 216.181452,145.72177 216.181452,144.901705 C216.181452,144.051716 216.483065,143.344066 217.087903,142.779563 C217.656452,142.253071 218.321774,141.989421 219.08629,141.989421 C219.887097,141.989421 220.572581,142.27329 221.139516,142.843454 C221.707258,143.412 221.991129,144.098623 221.991129,144.901705 C221.991129,145.729858 221.7,146.426186 221.120161,146.992306 Z" id="Fill-46" fill="#10182A"></path>
        </g>
    </g>
</svg>