<?xml version="1.0" encoding="UTF-8" standalone="no"?>
<svg width="250px" height="250px" viewBox="0 0 250 250" version="1.1" xmlns="http://www.w3.org/2000/svg" xmlns:xlink="http://www.w3.org/1999/xlink">
    <!-- Generator: Sketch 47.1 (45422) - http://www.bohemiancoding.com/sketch -->
    <title>WCAR</title>
    <desc>Created with Sketch.</desc>
    <defs></defs>
    <g id="Page-1" stroke="none" stroke-width="1" fill="none" fill-rule="evenodd">
        <g id="WCAR">
            <g id="wcar-logo" transform="translate(0.000000, 23.000000)">
                <path d="M143.603297,52.0419705 C143.096154,55.8710188 146.012088,62.1023592 151.297253,64.2106166 C156.947802,66.4639678 163.251099,63.5692359 165.564835,59.9622252 C163.97967,59.1081501 159.645604,58.211756 158.70989,57.6962332 C158.005495,59.5225469 152.900549,61.955067 152.900549,61.955067 C152.900549,61.955067 151.032418,56.2326542 151.22033,54.484933 C149.943407,54.1150536 144.969231,52.2870912 143.603297,52.0419705" id="Fill-1" fill="#FFFFFE"></path>
                <path d="M215.92033,100.268083 C211.632418,102.853391 206.651648,103.843767 201.945055,104.027882 L201.898352,111.117694 C201.898352,111.117694 207.703846,106.362024 208.518681,105.372748 L209.791758,110.925335 L215.198901,105.307346 L215.611538,110.874223 C215.611538,110.874223 220.066484,107.330416 222.695055,104.909987 C218.794505,102.928137 215.92033,100.268083 215.92033,100.268083" id="Fill-2" fill="#FFFFFE"></path>
                <path d="M198.328571,104.020188 C194.673077,103.869598 191.366484,103.32055 188.930769,102.795134 C187.03956,105.558512 184.175824,111.302909 187.38956,117.578217 C187.38956,117.578217 190.43956,109.004491 198.328571,104.020188" id="Fill-3" fill="#FFFFFE"></path>
                <path d="M225.231868,106.022922 C224.117033,108.617574 221.631319,113.325979 217.011538,117.361676 C217.011538,117.361676 226.806044,117.166019 232.557143,106.785764 C230.126923,107.328217 227.580769,106.885241 225.231868,106.022922" id="Fill-4" fill="#FFFFFE"></path>
                <path d="M183.890659,142.449718 C184.487912,142.293083 185.097802,142.122708 185.719231,141.935845 C190.738462,140.426649 194.701099,139.516515 197.87033,139.223029 L199.004396,134.872413 L193.932418,138.26508 L191.674725,133.954584 L183.890659,142.449718" id="Fill-5" fill="#FFFFFE"></path>
                <path d="M200.387363,138.891622 C202.665934,138.99 204.567033,139.392306 206.18022,140.104035 C210.034066,134.614102 210.705495,128.93126 210.705495,128.93126 C210.705495,128.93126 204.199451,136.510214 200.387363,138.891622" id="Fill-6" fill="#FFFFFE"></path>
                <path d="M175.912088,126.596568 C170.064835,134.820201 170.401648,140.83555 171.104945,143.907802 C174.017582,144.709665 176.637363,144.097413 182.151099,142.68055 C175.887363,137.457721 175.912088,126.596568 175.912088,126.596568" id="Fill-7" fill="#FFFFFE"></path>
                <path d="M240.695604,79.54 C240.926374,78.7656166 241.091758,78.1907373 241.091758,78.1907373 C241.091758,78.1907373 238.743956,75.6428016 236.817582,74.5364611 C235.337912,73.6867828 233.183516,72.6749732 230.145604,71.7065818 L218.707143,61.9797989 L227.814835,51.2780295 L213.614835,51.8737936 C208.827473,35.5056702 190.929121,26.296059 176.464286,28.0124531 C174.407692,26.3620107 171.979121,24.9336059 169.287363,23.7091019 C164.102198,14.5104826 151.934066,1.22505362 125.505495,0.445723861 L118.417582,0.236876676 C118.417582,0.236876676 123.802747,9.47891421 125.568681,12.0988472 C125.425824,14.0477212 125.308791,15.8894236 125.196703,17.6580295 C122.892308,17.7827882 120.551648,17.9614075 118.182967,18.1960858 C112.887912,15.8707373 106.196154,13.263445 98.9087912,11.2035523 C81.8489011,6.3802815 65.2489011,3.61525469 43.8543956,12.1384182 L32.7065934,16.5791689 C32.7065934,16.5791689 47.3038462,20.3862332 50.5010989,21.4601475 C51.6835165,25.5018901 53.4752747,31.4699732 55.556044,37.7007641 C23.8615385,55.8781635 -1.17197802,87.540496 0.218681319,136.799303 L0.685164835,153.330107 L10.2252747,139.82374 C13.4631868,135.239544 16.6153846,131.366528 19.6153846,128.095871 C9.8978022,148.546957 13.0071429,166.071984 13.0950549,166.553981 L15.5461538,180.023525 L23.1076923,168.610576 C27.0478022,162.663928 33.1615385,157.502654 39.1736264,153.418592 C28.9032967,176.79134 37.0994505,194.456515 37.4587912,195.204517 L42.0291209,204.733445 L47.2230769,195.529879 C65.0082418,164.018137 114.554396,158.13744 139.263736,163.989008 C138.863736,164.585322 138.629121,165.292105 138.629121,166.052748 C138.629121,167.231086 139.186813,168.284115 140.063187,168.9887 C140.056593,168.992547 140.049451,168.996944 140.048352,168.997493 L126.618132,176.45059 L141.721429,179.236501 C146.303846,180.081233 151.077473,180.034517 155.337363,179.628914 L150.923077,184.862735 L162.909341,184.763807 C206.336264,184.402721 227.751648,157.021756 216.259341,140.892708 C218.157692,137.652828 219.231868,134.118914 219.863736,131.333552 C220.158791,130.032654 220.375824,128.807601 220.534066,127.733137 C236.869231,123.261059 241.24011,114.60929 242.067033,108.946783 C253.662088,100.717105 251.075824,86.2549866 240.695604,79.54 Z M238.292857,106.699477 C238.314835,110.241635 236.47033,120.136595 216.946154,124.570751 C216.834615,125.845818 216.581319,128.006287 216.024725,130.46244 C215.257143,133.845214 213.868681,138.001273 211.312088,141.157614 C221.746154,151.333418 210.048901,180.434625 162.876374,180.825389 L159.455495,180.853418 L161.662088,178.238432 C161.678022,178.218646 163.47033,176.09445 165.153297,173.988391 C163.868132,174.294517 162.358242,174.620979 160.692857,174.918311 C155.507143,175.843284 148.682967,176.516542 142.435165,175.363485 L138.125275,174.568767 L141.957692,172.441823 C142.002747,172.416542 148.632418,168.729839 152.60989,165.327828 C135.250549,152.469437 66.2923077,153.733512 43.7950549,193.593646 L42.3120879,196.220174 L41.0082418,193.500764 C40.8851648,193.244102 30.1043956,170.523727 49.843956,142.637681 C41.778022,146.682721 27.3510989,155.077828 19.8258242,166.435268 L17.6675824,169.692735 L16.9681319,165.848298 C16.9346154,165.663083 11.4868132,135.494008 38.1412088,108.790697 C36.8450549,109.394155 35.3868132,110.152601 33.7906593,111.102306 C26.8637363,115.226488 17.2923077,122.995054 7.01043956,137.551153 L4.28736264,141.406032 L4.1543956,136.687735 C2.77142857,87.683941 28.3351648,56.8635925 60.3406593,39.5435657 C57.4543956,31.1962735 54.9901099,22.8220509 53.7148352,18.4159249 C49.756044,16.9567426 45.310989,15.7965416 45.310989,15.7965416 C65.5483516,7.73504021 81.1532967,10.2758311 97.8373626,14.9924799 C105.373077,17.1232708 112.249451,19.8553217 117.542857,22.2202413 C121.412637,21.8113405 125.207143,21.5574263 128.895604,21.4447587 C129.114286,18.2296113 129.300549,14.8265013 129.599451,11.0034987 C127.715934,8.38136729 125.39011,4.3819437 125.39011,4.3819437 C151.370879,5.14808311 162.242857,18.6170777 166.472527,26.7797051 C170.095604,28.2976944 173.075275,30.1080697 175.25989,32.1817024 C189.178022,29.5035121 207.659341,39.211059 210.504396,55.9457641 L218.974725,55.5901743 L213.156044,62.4277212 L228.212088,75.2300536 C234.617582,77.1574933 236.698352,79.2272788 236.698352,79.2272788 C236.698352,79.2272788 236.440659,80.1165282 235.956593,81.4641421 C247.192308,86.3313807 249.728022,100.013619 238.292857,106.699477 Z M140.598352,165.360255 L140.598352,164.799665 L143.160989,164.799665 L143.160989,165.360255 L142.214286,165.360255 L142.214286,167.964249 L141.548901,167.964249 L141.548901,165.360255 L140.598352,165.360255 Z M145.386264,167.964249 L144.743407,167.964249 L144.148352,165.308592 C144.148352,165.369048 144.148901,165.454236 144.15,165.565255 C144.151648,165.675724 144.152198,165.762011 144.152198,165.824115 L144.152198,167.964249 L143.536264,167.964249 L143.536264,164.799665 L144.498352,164.799665 L145.074176,167.288244 L145.645604,164.799665 L146.597253,164.799665 L146.597253,167.964249 L145.980769,167.964249 L145.980769,165.824115 C145.980769,165.762011 145.981868,165.675724 145.983516,165.565255 C145.984615,165.454236 145.985165,165.369048 145.985165,165.308592 L145.386264,167.964249 L145.386264,167.964249 Z" id="Fill-8" fill="#C4A374"></path>
                <path d="M135.282967,49.0329223 C135.282967,49.0329223 129.914835,46.1904021 124.752747,44.2310858 C124.752747,44.2310858 148.202198,35.7046247 174.357143,51.7484853 C181.824725,56.3293834 189.552198,52.0458177 189.552198,52.0458177 C189.552198,52.0458177 191.032967,59.5780563 184.792308,61.8039276 C184.792308,61.8039276 188.097253,63.5241689 193.816484,60.733311 C193.816484,60.733311 192.153297,69.5527078 175.995055,66.276555 C152.666484,61.545067 151.464835,81.946689 151.464835,81.946689 C153.674176,78.1632574 163.288462,71.3762735 179.871429,71.0800402 C160.898901,75.6142225 142.256044,93.213445 147.402747,122.611434 C152.741758,95.4057909 178.036264,93.8564745 184.409341,96.0477212 C212.765385,105.797038 216.948352,92.5896515 213.53956,86.5067024 C210.346154,86.725992 209.631319,90.7847721 209.631319,90.7847721 L206.372527,90.1516354 C206.372527,90.1516354 203.226374,80.6958043 203.956593,73.1437802 C203.956593,73.1437802 207.871978,71.8725603 216.767033,72.929437 L204.983516,63.1048257 L197.266484,62.5348928 C197.266484,62.5348928 206.541758,56.6096783 197.845604,48.2981099 C189.149451,39.9870912 177.415385,40.2008847 177.415385,40.2008847 C177.415385,40.2008847 180.986813,43.2901743 183.557143,47.8150134 C183.557143,47.8150134 147.382418,26.5697587 122.434066,38.593311 C105.449451,46.779571 102.965385,65.0894236 102.965385,65.0894236 C102.965385,65.0894236 115.564286,50.0507775 135.282967,49.0329223 Z M210.956044,70.8448123 C206.206593,70.4798794 202.85989,71.1454424 202.85989,71.1454424 L201.058242,64.7453753 L210.956044,70.8448123 L210.956044,70.8448123 Z" id="Fill-9" fill="#C4A374"></path>
                <path d="M205.204945,127.806233 C205.347802,126.615804 201.32967,119.662842 192.917033,121.677668 C181.604396,124.384987 181.774725,134.420643 181.774725,134.420643 C181.774725,134.420643 186.209341,129.902399 193.817582,131.357185 C205.564286,133.602292 205.046154,129.124169 205.204945,127.806233" id="Fill-10" fill="#C4A374"></path>
                <path d="M233.678022,86.805134 C232.190659,89.7405362 230.203297,92.7072654 227.823626,94.0153083 L224.908791,93.0359249 C225.186813,91.5503619 224.482418,90.0131367 223.933516,89.0898123 C219.510989,89.0639812 217.075824,97.622319 225.328571,101.750349 C229.934615,104.053164 237.364835,103.179303 239.054945,97.8828284 C241.276923,90.921622 236.266484,87.8790483 233.678022,86.805134" id="Fill-11" fill="#C4A374"></path>
                <path d="M192.70989,144.310107 C187.333516,145.983633 168.658791,150.762386 155.981319,146.435402 C154.524176,146.135871 149.691209,143.087802 148.784615,141.825375 C144.025824,136.043606 141.262637,126.057413 141.237912,115.512279 C136.506044,121.306139 134.525275,135.597332 139.295055,144.604142 C147.332967,159.784584 168.375275,158.501823 168.375275,158.501823 C166.659341,162.536971 162.032967,167.321769 162.032967,167.321769 C173.026374,165.467426 182.642857,160.486971 182.642857,160.486971 C182.834615,164.611153 177.899451,170.216501 177.899451,170.216501 C177.899451,170.216501 205.918132,164.394062 205.718132,150.763485 C205.654396,146.380442 201.566484,141.554424 192.70989,144.310107" id="Fill-12" fill="#C4A374"></path>
                <path d="M143.984615,93.9207775 C130.009341,95.3684182 68.5769231,106.745643 43.067033,133.069732 C43.067033,133.069732 108.005495,101.454115 141.953297,100.703914 C142.429121,98.4873861 143.088462,96.2098525 143.984615,93.9207775" id="Fill-13" fill="#C4A374"></path>
                <path d="M145.586813,90.3319035 C146.589011,88.3462064 147.787912,86.3698525 149.217582,84.4341689 C130.56978,84.3247989 72.7686813,95.8542627 52.6082418,115.857426 C52.6082418,115.857426 109.698901,89.3497721 145.586813,90.3319035" id="Fill-14" fill="#C4A374"></path>
                <path d="M140.887912,111.360067 C140.875275,109.387011 140.971978,107.257319 141.237363,105.026501 C127.463187,106.786863 75.782967,118.519678 60.6725275,135.403874 C60.6725275,135.403874 108.722527,113.101193 140.893407,111.843713 L140.887912,111.360067" id="Fill-15" fill="#C4A374"></path>
                <path d="M61.5714286,20.2906032 C63.0543956,24.7027748 65.0082418,30.6983378 65.0082418,30.6983378 L70.9263736,30.5428016 L67.0340659,35.1770107 L72.8664835,35.2446113 L68.678022,39.5265282 L69.3434066,42.1651475 C69.3434066,42.1651475 58.5263736,47.503941 53.9906593,52.0601072 C53.9906593,52.0601072 75.4225275,43.3627212 93.6269231,38.0981233 C81.8873626,25.9278284 61.5714286,20.2906032 61.5714286,20.2906032" id="Fill-16" fill="#C4A374"></path>
                <path d="M235.956593,81.4641421 C236.440659,80.1165282 236.698352,79.2272788 236.698352,79.2272788 C236.698352,79.2272788 234.617582,77.1574933 228.212088,75.2300536 L213.156044,62.4277212 L218.974725,55.5901743 L210.504396,55.9457641 C207.659341,39.211059 189.178022,29.5035121 175.25989,32.1817024 C173.075275,30.1080697 170.095604,28.2976944 166.472527,26.7797051 C162.242857,18.6170777 151.370879,5.14808311 125.39011,4.3819437 C125.39011,4.3819437 127.715934,8.38136729 129.599451,11.0034987 C129.300549,14.8265013 129.114286,18.2296113 128.895604,21.4447587 C125.207143,21.5574263 121.412637,21.8113405 117.542857,22.2202413 C112.249451,19.8553217 105.373077,17.1232708 97.8373626,14.9924799 C81.1532967,10.2758311 65.5483516,7.73504021 45.310989,15.7965416 C45.310989,15.7965416 49.756044,16.9567426 53.7148352,18.4159249 C54.9901099,22.8220509 57.4543956,31.1962735 60.3406593,39.5435657 C28.3351648,56.8635925 2.77142857,87.683941 4.1543956,136.687735 L4.28736264,141.406032 L7.01043956,137.551153 C17.2923077,122.995054 26.8637363,115.226488 33.7906593,111.102306 C35.3868132,110.152601 36.8450549,109.394155 38.1412088,108.790697 C11.4868132,135.494008 16.9346154,165.663083 16.9681319,165.848298 L17.6675824,169.692735 L19.8258242,166.435268 C27.3510989,155.077828 41.778022,146.682721 49.843956,142.637681 C30.1043956,170.523727 40.8851648,193.244102 41.0082418,193.500764 L42.3120879,196.220174 L43.7950549,193.593646 C66.2923077,153.733512 135.250549,152.469437 152.60989,165.327828 C148.632418,168.729839 142.002747,172.416542 141.957692,172.441823 L138.125275,174.568767 L142.435165,175.363485 C148.682967,176.516542 155.507143,175.843284 160.692857,174.918311 C162.358242,174.620979 163.868132,174.294517 165.153297,173.988391 C163.47033,176.09445 161.678022,178.218646 161.662088,178.238432 L159.455495,180.853418 L162.876374,180.825389 C210.048901,180.434625 221.746154,151.333418 211.312088,141.157614 C213.868681,138.001273 215.257143,133.845214 216.024725,130.46244 C216.581319,128.006287 216.834615,125.845818 216.946154,124.570751 C236.47033,120.136595 238.314835,110.241635 238.292857,106.699477 C249.728022,100.013619 247.192308,86.3313807 235.956593,81.4641421 Z M122.434066,38.593311 C147.382418,26.5697587 183.557143,47.8150134 183.557143,47.8150134 C180.986813,43.2901743 177.415385,40.2008847 177.415385,40.2008847 C177.415385,40.2008847 189.149451,39.9870912 197.845604,48.2981099 C206.541758,56.6096783 197.266484,62.5348928 197.266484,62.5348928 L204.983516,63.1048257 L216.767033,72.929437 C207.871978,71.8725603 203.956593,73.1437802 203.956593,73.1437802 C203.226374,80.6958043 206.372527,90.1516354 206.372527,90.1516354 L209.631319,90.7847721 C209.631319,90.7847721 210.346154,86.725992 213.53956,86.5067024 C216.948352,92.5896515 212.765385,105.797038 184.409341,96.0477212 C178.036264,93.8564745 152.741758,95.4057909 147.402747,122.611434 C142.256044,93.213445 160.898901,75.6142225 179.871429,71.0800402 C163.288462,71.3762735 153.674176,78.1632574 151.464835,81.946689 C151.464835,81.946689 152.666484,61.545067 175.995055,66.276555 C192.153297,69.5527078 193.816484,60.733311 193.816484,60.733311 C188.097253,63.5241689 184.792308,61.8039276 184.792308,61.8039276 C191.032967,59.5780563 189.552198,52.0458177 189.552198,52.0458177 C189.552198,52.0458177 181.824725,56.3293834 174.357143,51.7484853 C148.202198,35.7046247 124.752747,44.2310858 124.752747,44.2310858 C129.914835,46.1904021 135.282967,49.0329223 135.282967,49.0329223 C115.564286,50.0507775 102.965385,65.0894236 102.965385,65.0894236 C102.965385,65.0894236 105.449451,46.779571 122.434066,38.593311 Z M193.817582,131.357185 C186.209341,129.902399 181.774725,134.420643 181.774725,134.420643 C181.774725,134.420643 181.604396,124.384987 192.917033,121.677668 C201.32967,119.662842 205.347802,126.615804 205.204945,127.806233 C205.046154,129.124169 205.564286,133.602292 193.817582,131.357185 Z M199.004396,134.872413 L197.87033,139.223029 C194.701099,139.516515 190.738462,140.426649 185.719231,141.935845 C185.097802,142.122708 184.487912,142.293083 183.890659,142.449718 L191.674725,133.954584 L193.932418,138.26508 L199.004396,134.872413 Z M182.151099,142.68055 C176.637363,144.097413 174.017582,144.709665 171.104945,143.907802 C170.401648,140.83555 170.064835,134.820201 175.912088,126.596568 C175.912088,126.596568 175.887363,137.457721 182.151099,142.68055 Z M188.930769,102.795134 C191.366484,103.32055 194.673077,103.869598 198.328571,104.020188 C190.43956,109.004491 187.38956,117.578217 187.38956,117.578217 C184.175824,111.302909 187.03956,105.558512 188.930769,102.795134 Z M152.900549,61.955067 C152.900549,61.955067 158.005495,59.5225469 158.70989,57.6962332 C159.645604,58.211756 163.97967,59.1081501 165.564835,59.9622252 C163.251099,63.5692359 156.947802,66.4639678 151.297253,64.2106166 C146.012088,62.1023592 143.096154,55.8710188 143.603297,52.0419705 C144.969231,52.2870912 149.943407,54.1150536 151.22033,54.484933 C151.032418,56.2326542 152.900549,61.955067 152.900549,61.955067 Z M69.3434066,42.1651475 L68.678022,39.5265282 L72.8664835,35.2446113 L67.0340659,35.1770107 L70.9263736,30.5428016 L65.0082418,30.6983378 C65.0082418,30.6983378 63.0543956,24.7027748 61.5714286,20.2906032 C61.5714286,20.2906032 81.8873626,25.9278284 93.6269231,38.0981233 C75.4225275,43.3627212 53.9906593,52.0601072 53.9906593,52.0601072 C58.5263736,47.503941 69.3434066,42.1651475 69.3434066,42.1651475 Z M149.217582,84.4341689 C147.787912,86.3698525 146.589011,88.3462064 145.586813,90.3319035 C109.698901,89.3497721 52.6082418,115.857426 52.6082418,115.857426 C72.7686813,95.8542627 130.56978,84.3247989 149.217582,84.4341689 Z M43.067033,133.069732 C68.5769231,106.745643 130.009341,95.3684182 143.984615,93.9207775 C143.088462,96.2098525 142.429121,98.4873861 141.953297,100.703914 C108.005495,101.454115 43.067033,133.069732 43.067033,133.069732 Z M60.6725275,135.403874 C75.782967,118.519678 127.463187,106.786863 141.237363,105.026501 C140.971978,107.257319 140.875275,109.387011 140.887912,111.360067 L140.893407,111.843713 C108.722527,113.101193 60.6725275,135.403874 60.6725275,135.403874 Z M177.899451,170.216501 C177.899451,170.216501 182.834615,164.611153 182.642857,160.486971 C182.642857,160.486971 173.026374,165.467426 162.032967,167.321769 C162.032967,167.321769 166.659341,162.536971 168.375275,158.501823 C168.375275,158.501823 147.332967,159.784584 139.295055,144.604142 C134.525275,135.597332 136.506044,121.306139 141.237912,115.512279 C141.262637,126.057413 144.025824,136.043606 148.784615,141.825375 C149.691209,143.087802 154.524176,146.135871 155.981319,146.435402 C168.658791,150.762386 187.333516,145.983633 192.70989,144.310107 C201.566484,141.554424 205.654396,146.380442 205.718132,150.763485 C205.918132,164.394062 177.899451,170.216501 177.899451,170.216501 Z M206.18022,140.104035 C204.567033,139.392306 202.665934,138.99 200.387363,138.891622 C204.199451,136.510214 210.705495,128.93126 210.705495,128.93126 C210.705495,128.93126 210.034066,134.614102 206.18022,140.104035 Z M215.611538,110.874223 L215.198901,105.307346 L209.791758,110.925335 L208.518681,105.372748 C207.703846,106.362024 201.898352,111.117694 201.898352,111.117694 L201.945055,104.027882 C206.651648,103.843767 211.632418,102.853391 215.92033,100.268083 C215.92033,100.268083 218.794505,102.928137 222.695055,104.909987 C220.066484,107.330416 215.611538,110.874223 215.611538,110.874223 Z M217.011538,117.361676 C221.631319,113.325979 224.117033,108.617574 225.231868,106.022922 C227.580769,106.885241 230.126923,107.328217 232.557143,106.785764 C226.806044,117.166019 217.011538,117.361676 217.011538,117.361676 Z M239.054945,97.8828284 C237.364835,103.179303 229.934615,104.053164 225.328571,101.750349 C217.075824,97.622319 219.510989,89.0639812 223.933516,89.0898123 C224.482418,90.0131367 225.186813,91.5503619 224.908791,93.0359249 L227.823626,94.0153083 C230.203297,92.7072654 232.190659,89.7405362 233.678022,86.805134 C236.266484,87.8790483 241.276923,90.921622 239.054945,97.8828284 L239.054945,97.8828284 Z" id="Fill-17" fill="#3D2C78"></path>
                <path d="M210.956044,70.8448123 L201.058242,64.7453753 L202.85989,71.1454424 C202.85989,71.1454424 206.206593,70.4798794 210.956044,70.8448123" id="Fill-18" fill="#3D2C78"></path>
                <polyline id="Fill-19" fill="#3D2C78" points="142.214286 167.964249 142.214286 165.360255 143.160989 165.360255 143.160989 164.799665 140.598352 164.799665 140.598352 165.360255 141.548901 165.360255 141.548901 167.964249 142.214286 167.964249"></polyline>
                <path d="M145.980769,165.824115 L145.980769,167.964249 L146.597253,167.964249 L146.597253,164.799665 L145.645604,164.799665 L145.074176,167.288244 L144.498352,164.799665 L143.536264,164.799665 L143.536264,167.964249 L144.152198,167.964249 L144.152198,165.824115 C144.152198,165.762011 144.151648,165.675724 144.15,165.565255 C144.148901,165.454236 144.148352,165.369048 144.148352,165.308592 L144.743407,167.964249 L145.386264,167.964249 L145.985165,165.308592 C145.985165,165.369048 145.984615,165.454236 145.983516,165.565255 C145.981868,165.675724 145.980769,165.762011 145.980769,165.824115" id="Fill-20" fill="#3D2C78"></path>
            </g>
        </g>
    </g>
</svg>