<?xml version="1.0" encoding="UTF-8" standalone="no"?>
<svg width="250px" height="250px" viewBox="0 0 250 250" version="1.1" xmlns="http://www.w3.org/2000/svg" xmlns:xlink="http://www.w3.org/1999/xlink">
    <!-- Generator: Sketch 50.2 (55047) - http://www.bohemiancoding.com/sketch -->
    <title>TXSA</title>
    <desc>Created with Sketch.</desc>
    <defs></defs>
    <g id="TXSA" stroke="none" stroke-width="1" fill="none" fill-rule="evenodd">
        <g id="utsa_primary" transform="translate(0.000000, 31.000000)">
            <g id="Group-4">
                <path d="M158.928,106.587 C163.958,106.587 169.188,107.292 173.544,108.7 L171.703,116.94 C168.357,115.039 164.271,113.629 159.779,113.629 C156.278,113.629 151.699,114.827 150.96,118.136 C150.205,121.518 155.115,122.856 158.188,123.982 C162.168,125.461 165.911,126.8 168.951,129.263 C172.602,132.22 174.229,135.392 173.224,139.899 C172.2,144.476 168.864,148.558 163.491,151.306 C157.517,154.333 151.626,154.969 145.249,154.969 C139.323,154.969 133.583,154.121 128.394,152.431 L127.695,142.29 C132.001,145.53 138.861,147.784 145.328,147.784 C149.368,147.784 155.083,146.728 155.965,142.784 C157.088,137.752 148.021,136.271 141.024,132.737 L122.284,130.737 L135.368,128.558 C133.643,126.455 132.817,123.774 133.62,120.179 C134.516,116.165 137.896,112.292 142.548,109.968 C147.691,107.433 153.449,106.587 158.928,106.587 Z" id="Path" fill="#FFFFFF"></path>
                <polygon id="Path" fill="#FFFFFF" points="216.551 107.714 227.334 151.759 230.574 153.84 230.526 154.052 200.331 154.052 200.378 153.84 209.028 149.933 206.908 140.036 189.125 140.036 181.196 151.814 184.347 153.84 184.299 154.052 163.962 154.052 164.009 153.84 172.258 150.031 196.995 112.583 184.647 107.714"></polygon>
                <path d="M25.282,107.925 L25.327,107.714 L50.39,107.714 L43.885,136.873 C43.278,139.605 42.503,142.269 44.144,144.581 C45.177,145.982 47.748,146.751 49.995,146.751 C52.243,146.751 55.154,145.982 56.817,144.581 C59.489,142.269 59.906,139.605 60.516,136.873 L66.094,111.882 L58.255,107.925 L58.3,107.714 L83.39,107.714 L76.602,138.065 C74.043,149.522 64.217,155.252 47.956,155.252 C31.335,155.252 24.72,149.369 27.378,137.464 L33.085,111.882 L25.282,107.925 Z" id="Path" fill="#FFFFFF"></path>
                <polygon id="Path" fill="#FFFFFF" points="86.091 107.71 133.72 107.71 131.282 118.627 131.012 118.627 128.968 115.67 116.524 115.67 108.476 151.719 111.775 153.84 111.728 154.052 79.3 154.052 92.087 149.869 99.731 115.67 87.288 115.67 83.924 118.627 83.653 118.627"></polygon>
                <polyline id="Fill-1" fill="#002344" points="202.217 119.615 193.192 133.487 205.405 133.487 202.309 119.615 202.217 119.615"></polyline>
                <path d="M17.286,161.267 L237.006,161.267 L230.516,171.261 L237.006,181.245 L17.286,181.245 L23.777,171.261 L17.286,161.267 Z M25.282,107.925 L25.327,107.714 L50.39,107.714 L43.885,136.873 C43.278,139.605 42.503,142.269 44.144,144.581 C45.177,145.982 47.748,146.751 49.995,146.751 C52.243,146.751 55.154,145.982 56.817,144.581 C59.489,142.269 59.906,139.605 60.516,136.873 L66.094,111.882 L58.255,107.925 L58.3,107.714 L83.39,107.714 L76.602,138.065 C74.043,149.522 64.217,155.252 47.956,155.252 C31.335,155.252 24.72,149.369 27.378,137.464 L33.085,111.882 L25.282,107.925 Z M86.091,107.71 L133.72,107.71 L131.282,118.627 L131.012,118.627 L128.968,115.67 L116.524,115.67 L108.476,151.719 L111.775,153.84 L111.728,154.052 L79.3,154.052 L92.087,149.869 L99.731,115.67 L87.288,115.67 L83.924,118.627 L83.653,118.627 L86.091,107.71 Z M54.39,75.358 C68.54,56.008 99.367,43.431 122.485,48.778 C119.496,51.13 117.14,53.922 116.493,56.345 C113.535,67.425 121.909,73.043 133.213,74.286 C127.342,77.285 114.029,78.832 105.46,72.228 C101.19,68.932 100.785,62.5 101.546,61.061 C94.56,61.149 76.569,62.509 54.39,75.358 Z M147.192,43.824 L151.102,35.926 L156.271,60.412 C156.271,60.412 144.271,42.322 102.655,34.396 C102.655,34.396 130.008,31.159 147.192,43.824 Z M176.279,61.168 C201.401,64.537 223.188,70.207 234.712,82.394 C234.712,82.394 176.619,75.814 137.747,80.691 C142.265,77.004 154.136,68.625 176.279,61.168 Z M139.005,65.777 C142.318,66.651 146.208,65.22 148.216,62.523 L150.505,63.91 C145.924,67.866 137.597,72.188 129.422,66.502 C122.791,61.895 125.785,53.999 130.143,51.566 L137.181,55.834 C136.457,56.464 135.849,57.208 135.411,58.042 C133.687,61.341 135.29,64.811 139.005,65.777 Z M153.409,94 C145.229,91.834 139.979,88.03 137.472,85.835 L189.265,85.816 C176.795,87.67 165.895,90.477 153.409,94 Z M106.165,100.929 L105.718,100.929 L118.796,85.28 L125.687,89.234 L106.165,100.929 Z M129.475,91.894 L141.087,98.87 L135.17,100.929 L120.526,100.929 L129.475,91.894 Z M158.928,106.587 C163.958,106.587 169.188,107.292 173.544,108.7 L171.703,116.94 C168.357,115.039 164.271,113.629 159.779,113.629 C156.278,113.629 151.699,114.827 150.96,118.136 C150.205,121.518 155.115,122.856 158.188,123.982 C162.168,125.461 165.911,126.8 168.951,129.263 C172.602,132.22 174.229,135.392 173.224,139.899 C172.2,144.476 168.864,148.558 163.491,151.306 C157.517,154.333 151.626,154.969 145.249,154.969 C139.323,154.969 133.583,154.121 128.394,152.431 L127.695,142.29 C132.001,145.53 138.861,147.784 145.328,147.784 C149.368,147.784 155.083,146.728 155.965,142.784 C157.088,137.752 148.021,136.271 141.024,132.737 L122.284,130.737 L135.368,128.558 C133.643,126.455 132.817,123.774 133.62,120.179 C134.516,116.165 137.896,112.292 142.548,109.968 C147.691,107.433 153.449,106.587 158.928,106.587 Z M216.551,107.714 L227.334,151.759 L230.574,153.84 L230.526,154.052 L200.331,154.052 L200.378,153.84 L209.028,149.933 L206.908,140.036 L189.125,140.036 L181.196,151.814 L184.347,153.84 L184.299,154.052 L163.962,154.052 L164.009,153.84 L172.258,150.031 L196.995,112.583 L184.647,107.714 L216.551,107.714 Z M249.453,188 L238.57,171.26 L249.445,154.512 L241.642,154.513 L233.661,149.387 L221.843,100.929 L158.921,100.929 C189.761,91.16 221.041,86.343 248.947,90.543 C234.817,62.763 199.833,56.883 171.199,53.146 L172.435,44.916 L166.055,47.839 C158.946,33.001 133.927,-2.824 58.919,0.347 C58.919,0.347 85.437,10.651 94.379,23.058 C94.379,23.058 72.25,5.97 29.068,16.196 C29.068,16.196 61.883,23.469 70.783,36.728 C70.783,36.728 48.318,22.597 13.282,32.456 C13.282,32.456 38.213,34.662 50.035,47.315 C50.035,47.315 25.224,41.749 0,49.547 C0,49.547 30.984,52.466 42.223,68.513 L15.112,77.349 C44.519,81.034 69.576,91.261 87.761,100.929 L2.232,100.929 L1.827,102.545 L25.378,115.404 L20.786,135.992 C18.942,144.248 20.546,150.321 24.504,154.513 L4.847,154.512 L15.722,171.26 L4.839,188 L249.453,188 Z" id="Fill-3" fill="#002344"></path>
            </g>
            <path d="M193.442,68.423 C188.824,66.25 181.679,64.662 175.523,64.911 C172.88,65.609 164.581,69.676 163.074,70.538 C163.074,70.538 179.35,67.679 193.442,68.423" id="Fill-5" fill="#002344"></path>
            <path d="M39.925,167.703 L40.254,167.703 C41.361,167.703 42.551,167.903 42.172,169.271 C41.793,170.638 40.492,170.837 39.385,170.837 L39.056,170.837 L39.925,167.703 Z M38.474,172.939 L38.508,172.939 L40.368,177.773 L44.589,177.773 L41.918,172.621 C43.856,172.304 45.276,170.804 45.757,169.07 C46.501,166.386 44.874,165.202 42.297,165.202 L37.228,165.202 L33.742,177.773 L37.133,177.773 L38.474,172.939 Z" id="Fill-6" fill="#002344"></path>
            <path d="M54.594,171.271 C55.075,169.537 57.175,167.953 59.199,167.953 C61.223,167.953 62.444,169.537 61.964,171.271 C61.363,173.439 59.263,175.022 57.239,175.022 C55.214,175.022 53.993,173.439 54.594,171.271 Z M56.36,178.19 C60.547,178.19 64.37,175.322 65.498,171.254 C66.552,167.453 63.831,164.786 60.077,164.786 C56.323,164.786 52.123,167.453 51.069,171.254 C49.941,175.322 52.174,178.19 56.36,178.19 Z" id="Fill-7" fill="#002344"></path>
            <path d="M77.745,169.087 L77.78,169.087 L78.054,173.088 L75.234,173.088 L77.745,169.087 Z M73.606,175.589 L78.277,175.589 L78.52,177.773 L82.135,177.773 L80.708,165.202 L77.006,165.202 L68.503,177.773 L72.101,177.773 L73.606,175.589 Z" id="Fill-8" fill="#002344"></path>
            <path d="M93.712,167.97 L94.508,167.97 C96.688,167.97 97.876,169.237 97.252,171.487 C96.572,173.939 94.546,175.005 92.522,175.005 L91.761,175.005 L93.712,167.97 Z M100.781,171.487 C101.761,167.953 99.531,165.202 95.898,165.202 L91.089,165.202 L87.603,177.773 L92.412,177.773 C96.028,177.773 99.801,175.022 100.781,171.487 Z" id="Fill-9" fill="#002344"></path>
            <path d="M111.214,167.703 L111.542,167.703 C112.649,167.703 113.84,167.903 113.46,169.271 C113.082,170.638 111.78,170.837 110.673,170.837 L110.345,170.837 L111.214,167.703 Z M109.762,172.939 L109.797,172.939 L111.656,177.773 L115.877,177.773 L113.206,172.621 C115.145,172.304 116.564,170.804 117.045,169.07 C117.79,166.386 116.163,165.202 113.585,165.202 L108.517,165.202 L105.031,177.773 L108.421,177.773 L109.762,172.939 Z" id="Fill-10" fill="#002344"></path>
            <path d="M126.737,178.106 C128.261,178.106 130.074,177.739 131.451,176.706 C133.086,175.488 133.6,173.889 134.048,172.271 L136.008,165.202 L132.616,165.202 L130.781,171.821 C130.328,173.455 129.712,175.238 127.532,175.238 C125.354,175.238 125.727,173.455 126.18,171.821 L128.016,165.202 L124.624,165.202 L122.664,172.271 C122.216,173.889 121.841,175.488 122.802,176.706 C123.604,177.739 125.216,178.106 126.737,178.106" id="Fill-11" fill="#002344"></path>
            <polyline id="Fill-12" fill="#002344" points="144.607 170.07 144.642 170.07 148.717 177.773 152.107 177.773 155.593 165.202 152.203 165.202 150.071 172.888 150.037 172.888 145.957 165.202 142.566 165.202 139.081 177.773 142.471 177.773 144.607 170.07"></polyline>
            <polyline id="Fill-13" fill="#002344" points="164.266 170.07 164.301 170.07 168.375 177.773 171.766 177.773 175.252 165.202 171.861 165.202 169.729 172.888 169.695 172.888 165.616 165.202 162.225 165.202 158.739 177.773 162.13 177.773 164.266 170.07"></polyline>
            <polyline id="Fill-14" fill="#002344" points="186.587 175.005 182.556 175.005 183.157 172.838 186.98 172.838 187.748 170.07 183.925 170.07 184.508 167.97 188.538 167.97 189.306 165.202 181.884 165.202 178.397 177.773 185.82 177.773 186.587 175.005"></polyline>
            <path d="M198.511,167.703 L198.839,167.703 C199.946,167.703 201.137,167.903 200.758,169.271 C200.378,170.638 199.077,170.837 197.97,170.837 L197.641,170.837 L198.511,167.703 Z M197.059,172.939 L197.093,172.939 L198.953,177.773 L203.174,177.773 L200.503,172.621 C202.441,172.304 203.861,170.804 204.342,169.07 C205.086,166.386 203.459,165.202 200.882,165.202 L195.813,165.202 L192.327,177.773 L195.718,177.773 L197.059,172.939 Z" id="Fill-15" fill="#002344"></path>
            <path d="M216.438,176.922 C217.712,176.072 218.38,174.788 218.727,173.538 C219.291,171.505 218.134,170.62 216.461,170.105 L215.665,169.855 C215.128,169.671 214.29,169.388 214.493,168.653 C214.688,167.953 215.614,167.603 216.237,167.603 C217.067,167.603 217.771,167.937 218.255,168.437 L220.308,165.902 C219.324,165.27 217.826,164.869 216.512,164.869 C213.899,164.869 211.552,166.536 210.844,169.087 C210.169,171.521 211.422,172.054 213.388,172.638 C214.059,172.838 215.304,173.155 215.049,174.071 C214.804,174.955 213.85,175.339 213.054,175.339 C211.896,175.339 211.054,174.755 210.404,174.038 L208.221,176.672 C209.304,177.572 210.765,178.106 212.408,178.106 C213.723,178.106 215.187,177.756 216.438,176.922" id="Fill-16" fill="#002344"></path>
            <polyline id="Fill-17" fill="#002344" points="9.548 152.557 10.921 152.557 10.921 148.439 12.055 148.439 12.055 147.276 8.414 147.276 8.414 148.439 9.548 148.439 9.548 152.557"></polyline>
            <polyline id="Fill-18" fill="#002344" points="14.181 149.518 14.195 149.518 15.407 152.557 15.953 152.557 17.221 149.518 17.235 149.518 17.62 152.557 18.993 152.557 18.194 147.276 16.829 147.276 15.694 150.099 14.623 147.276 13.271 147.276 12.374 152.557 13.74 152.557 14.181 149.518"></polyline>
            <path d="M138.208,118.493 C138.567,116.882 139.503,115.386 140.688,114.044 C138.34,115.776 136.684,117.982 136.194,120.179 C134.745,126.66 140.345,129.401 148.413,132.567 C154.279,134.867 159.819,137.042 158.537,142.784 C158.299,143.854 157.854,144.822 157.249,145.694 C158.994,144.425 160.114,143.06 160.552,141.096 C161.835,135.355 156.294,133.181 150.429,130.88 C142.359,127.715 136.761,124.973 138.208,118.493" id="Fill-19" fill="#002344"></path>
            <path d="M170.07,112.73 L170.458,110.991 C159.604,107.042 153.458,111.36 152.383,112.783 C154.482,111.485 157.252,110.752 160.423,110.752 C163.64,110.752 166.919,111.436 170.07,112.73" id="Fill-20" fill="#002344"></path>
            <path d="M130.72,147.461 L130.934,150.002 C135.563,151.367 140.575,152.091 145.892,152.091 C151.291,152.091 157.087,151.686 162.882,148.749 C164.57,147.886 166.512,146.62 168.062,144.859 C156.316,150.96 145.541,152.157 130.72,147.461" id="Fill-21" fill="#002344"></path>
            <polyline id="Fill-22" fill="#002344" points="130.526 110.483 117.175 110.483 116.659 112.793 130.011 112.793 130.526 110.483"></polyline>
            <polyline id="Fill-23" fill="#002344" points="94.376 151.176 106.024 151.176 106.541 148.865 96.958 148.865 105.53 110.483 88.046 110.483 87.529 112.793 102.947 112.793 94.376 151.176"></polyline>
            <polyline id="Fill-24" fill="#002344" points="176.788 151.176 203.661 110.591 201.374 110.591 174.357 151.176 176.788 151.176"></polyline>
            <path d="M65.423,135.698 L71.008,110.591 L68.938,110.591 L62.839,138.008 C62.35,140.198 61.668,142.744 59.62,145.156 C59.988,144.919 60.344,144.661 60.68,144.38 C63.953,141.548 64.828,138.36 65.423,135.698" id="Fill-25" fill="#002344"></path>
            <path d="M48.598,152.376 C61.083,152.376 67.315,148.98 70.52,145.373 C66.86,147.997 60.907,150.145 51.164,150.145 C32.655,150.145 30.205,145.59 32.431,135.616 L38.03,110.591 L35.963,110.591 L29.952,137.464 C28.522,143.865 28.901,152.376 48.598,152.376" id="Fill-26" fill="#002344"></path>
            <polyline id="Fill-27" fill="#002344" points="204.542 116.738 212.165 151.176 224.287 151.176 223.721 148.865 213.966 148.865 206.344 114.428 203.818 114.428 202.315 116.738 204.542 116.738"></polyline>
            <path d="M156.271,60.412 L151.102,35.926 L147.192,43.824 C130.008,31.159 102.655,34.396 102.655,34.396 C144.271,42.322 156.271,60.412 156.271,60.412" id="Fill-28" fill="#E46B2A"></path>
            <path d="M105.46,72.228 C114.029,78.832 127.342,77.285 133.213,74.286 C121.909,73.043 113.535,67.425 116.493,56.345 C117.14,53.922 119.496,51.13 122.485,48.778 C99.367,43.431 68.54,56.008 54.39,75.358 C76.569,62.509 94.56,61.149 101.546,61.061 C100.785,62.5 101.19,68.932 105.46,72.228" id="Fill-29" fill="#E46B2A"></path>
            <polyline id="Fill-30" fill="#E46B2A" points="105.718 100.929 106.165 100.929 125.687 89.234 118.796 85.28 105.718 100.929"></polyline>
            <polyline id="Fill-31" fill="#E46B2A" points="141.087 98.87 129.475 91.894 120.526 100.929 135.17 100.929 141.087 98.87"></polyline>
            <polyline id="Fill-32" fill="#E46B2A" points="77.78 169.087 77.745 169.087 75.234 173.088 78.054 173.088 77.78 169.087"></polyline>
            <path d="M42.172,169.271 C42.551,167.903 41.361,167.703 40.254,167.703 L39.925,167.703 L39.056,170.837 L39.385,170.837 C40.492,170.837 41.793,170.638 42.172,169.271" id="Fill-33" fill="#E46B2A"></path>
            <path d="M37.228,165.202 L42.297,165.202 C44.874,165.202 46.501,166.386 45.757,169.07 C45.276,170.804 43.856,172.304 41.918,172.621 L44.589,177.773 L40.368,177.773 L38.508,172.939 L38.474,172.939 L37.133,177.773 L33.742,177.773 L37.228,165.202 Z M51.069,171.254 C52.123,167.453 56.323,164.786 60.077,164.786 C63.831,164.786 66.552,167.453 65.498,171.254 C64.37,175.322 60.547,178.19 56.36,178.19 C52.174,178.19 49.941,175.322 51.069,171.254 Z M77.006,165.202 L80.708,165.202 L82.135,177.773 L78.52,177.773 L78.277,175.589 L73.606,175.589 L72.101,177.773 L68.503,177.773 L77.006,165.202 Z M91.089,165.202 L95.898,165.202 C99.531,165.202 101.761,167.953 100.781,171.487 C99.801,175.022 96.028,177.773 92.412,177.773 L87.603,177.773 L91.089,165.202 Z M108.517,165.202 L113.585,165.202 C116.163,165.202 117.79,166.386 117.045,169.07 C116.564,170.804 115.145,172.304 113.206,172.621 L115.877,177.773 L111.656,177.773 L109.797,172.939 L109.762,172.939 L108.421,177.773 L105.031,177.773 L108.517,165.202 Z M122.664,172.271 L124.624,165.202 L128.016,165.202 L126.18,171.821 C125.727,173.455 125.354,175.238 127.532,175.238 C129.712,175.238 130.328,173.455 130.781,171.821 L132.616,165.202 L136.008,165.202 L134.048,172.271 C133.6,173.889 133.086,175.488 131.451,176.706 C130.074,177.739 128.261,178.106 126.737,178.106 C125.216,178.106 123.604,177.739 122.802,176.706 C121.841,175.488 122.216,173.889 122.664,172.271 Z M142.566,165.202 L145.957,165.202 L150.037,172.888 L150.071,172.888 L152.203,165.202 L155.593,165.202 L152.107,177.773 L148.717,177.773 L144.642,170.07 L144.607,170.07 L142.471,177.773 L139.081,177.773 L142.566,165.202 Z M162.225,165.202 L165.616,165.202 L169.695,172.888 L169.729,172.888 L171.861,165.202 L175.252,165.202 L171.766,177.773 L168.375,177.773 L164.301,170.07 L164.266,170.07 L162.13,177.773 L158.739,177.773 L162.225,165.202 Z M181.884,165.202 L189.306,165.202 L188.538,167.97 L184.508,167.97 L183.925,170.07 L187.748,170.07 L186.98,172.838 L183.157,172.838 L182.556,175.005 L186.587,175.005 L185.82,177.773 L178.397,177.773 L181.884,165.202 Z M195.813,165.202 L200.882,165.202 C203.459,165.202 205.086,166.386 204.342,169.07 C203.861,170.804 202.441,172.304 200.503,172.621 L203.174,177.773 L198.953,177.773 L197.093,172.939 L197.059,172.939 L195.718,177.773 L192.327,177.773 L195.813,165.202 Z M210.404,174.038 C211.054,174.755 211.896,175.339 213.054,175.339 C213.85,175.339 214.804,174.955 215.049,174.071 C215.304,173.155 214.059,172.838 213.388,172.638 C211.422,172.054 210.169,171.521 210.844,169.087 C211.552,166.536 213.899,164.869 216.512,164.869 C217.826,164.869 219.324,165.27 220.308,165.902 L218.255,168.437 C217.771,167.937 217.067,167.603 216.237,167.603 C215.614,167.603 214.688,167.953 214.493,168.653 C214.29,169.388 215.128,169.671 215.665,169.855 L216.461,170.105 C218.134,170.62 219.291,171.505 218.727,173.538 C218.38,174.788 217.712,176.072 216.438,176.922 C215.187,177.756 213.723,178.106 212.408,178.106 C210.765,178.106 209.304,177.572 208.221,176.672 L210.404,174.038 Z M237.006,181.245 L230.516,171.261 L237.006,161.267 L17.286,161.267 L23.777,171.261 L17.286,181.245 L237.006,181.245 Z" id="Fill-34" fill="#E46B2A"></path>
            <path d="M57.239,175.022 C59.263,175.022 61.363,173.439 61.964,171.271 C62.444,169.537 61.223,167.953 59.199,167.953 C57.175,167.953 55.075,169.537 54.594,171.271 C53.993,173.439 55.214,175.022 57.239,175.022" id="Fill-35" fill="#E46B2A"></path>
            <path d="M200.758,169.271 C201.137,167.903 199.946,167.703 198.839,167.703 L198.511,167.703 L197.641,170.837 L197.97,170.837 C199.077,170.837 200.378,170.638 200.758,169.271" id="Fill-36" fill="#E46B2A"></path>
            <path d="M113.46,169.271 C113.84,167.903 112.649,167.703 111.542,167.703 L111.214,167.703 L110.345,170.837 L110.673,170.837 C111.78,170.837 113.082,170.638 113.46,169.271" id="Fill-37" fill="#E46B2A"></path>
            <path d="M97.252,171.487 C97.876,169.237 96.688,167.97 94.508,167.97 L93.712,167.97 L91.761,175.005 L92.522,175.005 C94.546,175.005 96.572,173.939 97.252,171.487" id="Fill-38" fill="#E46B2A"></path>
            <path d="M137.181,55.834 L130.143,51.566 C125.785,53.999 122.791,61.895 129.422,66.502 C137.597,72.188 145.924,67.866 150.505,63.91 L148.216,62.523 C146.208,65.22 142.318,66.651 139.005,65.777 C135.29,64.811 133.687,61.341 135.411,58.042 C135.849,57.208 136.457,56.464 137.181,55.834" id="Fill-39" fill="#FFFFFE"></path>
            <path d="M193.442,68.423 C179.35,67.679 163.074,70.538 163.074,70.538 C164.581,69.676 172.88,65.609 175.523,64.911 C181.679,64.662 188.824,66.25 193.442,68.423 Z M234.712,82.394 C223.188,70.207 201.401,64.537 176.279,61.168 C154.136,68.625 142.265,77.004 137.747,80.691 C176.619,75.814 234.712,82.394 234.712,82.394 Z" id="Fill-40" fill="#FFFFFE"></path>
            <path d="M153.409,94 C165.895,90.477 176.795,87.67 189.265,85.816 L137.472,85.835 C139.979,88.03 145.229,91.834 153.409,94" id="Fill-41" fill="#FFFFFE"></path>
        </g>
    </g>
</svg>