<?xml version="1.0" encoding="UTF-8" standalone="no"?>
<svg width="250px" height="250px" viewBox="0 0 250 250" version="1.1" xmlns="http://www.w3.org/2000/svg" xmlns:xlink="http://www.w3.org/1999/xlink">
    <!-- Generator: Sketch 47.1 (45422) - http://www.bohemiancoding.com/sketch -->
    <title>ALAM</title>
    <desc>Created with Sketch.</desc>
    <defs></defs>
    <g id="Page-1" stroke="none" stroke-width="1" fill="none" fill-rule="evenodd">
        <g id="ALAM" fill-rule="nonzero">
            <g transform="translate(20.000000, 0.000000)" id="Shape">
                <path d="M97.2745763,68.6428571 C96.6666102,71.2142857 99.3845763,71.0357143 99.2057627,72.2142857 L76.6752542,130 C75.770923,132.280814 73.5877939,133.799902 71.1320339,133.857143 C70.3452542,133.857143 70.130678,136.142857 71.1320339,137 L90.0147458,137 C91.3022034,137 91.230678,135.607143 91.230678,134.357143 C91.5167797,131.857143 87.6544068,134.071429 88.0835593,132.428571 L92.1247458,122.785714 L117.158644,122.785714 L120.734915,132.464286 C121.342881,134.107143 117.158644,131.892857 117.587797,134.392857 C117.587797,135.642857 117.587797,136.964286 118.803729,137.035714 L137.686441,137.035714 C138.687797,136.178571 138.47322,133.892857 137.686441,133.892857 C135.223663,133.831042 133.032293,132.315993 132.107458,130.035714 L109.576949,72.25 C109.398136,71.0357143 112.116102,71.2142857 111.508136,68.6785714 C111.150508,67.1071429 107.931864,66.9642857 107.931864,66.9642857 L100.779322,66.9642857 C100.779322,66.9642857 97.5249153,66.9642857 97.2030508,68.6785714 L97.2745763,68.6428571 Z M104.355593,91.0357143 L104.355593,91.0357143 L113.582373,113.321429 L95.3076271,113.321429 L104.391356,91 L104.355593,91.0357143 Z" fill="#991A32"></path>
                <path d="M92.3266118,123.089286 L88.3772749,132.505297 C88.3261939,132.700842 88.3391864,132.72756 88.4413445,132.75998 C88.5921749,132.807845 88.791834,132.809916 89.3258841,132.781154 C89.4703125,132.773375 89.5482393,132.769557 89.6370388,132.766338 C90.2370129,132.744588 90.6349004,132.790864 90.96423,132.976433 C91.4144508,133.230121 91.6106979,133.706438 91.5342494,134.357143 C91.534837,134.626173 91.534837,134.626173 91.5349546,134.708229 C91.536284,136.517186 91.2465537,137.303571 90.0147458,137.303571 L71.1320339,137.303571 L70.9346266,137.230621 C69.8159497,136.273053 69.9234432,133.553571 71.1249599,133.553654 C73.4589092,133.499252 75.5336676,132.055572 76.3924207,129.889724 L98.9056261,72.1687488 C98.9351769,71.9739775 98.8320542,71.8312489 98.4860306,71.592038 C98.4190654,71.545744 98.1111147,71.3436832 98.0278705,71.2863882 C97.0600037,70.6202281 96.6716976,69.8733961 96.9791497,68.5730091 C97.1576709,67.7885311 97.8720161,67.277923 98.924119,66.9657692 C99.3290356,66.8456324 99.7597112,66.7630998 100.189912,66.7107896 C100.44808,66.6793977 100.650158,66.6649358 100.779322,66.6607143 L107.945325,66.6610129 C108.066142,66.6663752 108.271848,66.6830242 108.534722,66.7171115 C108.972759,66.7739125 109.411252,66.860691 109.823383,66.984432 C110.897754,67.307008 111.624733,67.8228912 111.803341,68.6077927 C112.111309,69.8922728 111.725615,70.6252394 110.755198,71.2951982 C110.678265,71.3483118 110.389178,71.5397996 110.324738,71.5844694 C109.956723,71.8395776 109.845838,71.9922435 109.859783,72.1397239 L132.388772,129.921619 C133.268177,132.089885 135.352027,133.530596 137.686441,133.589286 C138.895031,133.589286 139.002525,136.308768 137.883848,137.266335 L137.686441,137.339286 L118.785927,137.338763 C117.579343,137.267884 117.289658,136.445962 117.284418,134.596837 C117.170264,133.754849 117.355221,133.269168 117.818514,133.01223 C118.152245,132.827146 118.563617,132.780603 119.18647,132.801834 C119.280899,132.805053 119.364261,132.808947 119.517127,132.816832 C120.075391,132.845625 120.282335,132.843546 120.432602,132.795753 C120.518957,132.768287 120.521426,132.762076 120.450161,132.569503 L116.947183,123.089286 L92.3266118,123.089286 Z M137.678823,134.196333 C135.0953,134.131487 132.796409,132.542102 131.824624,130.14599 L109.276617,72.2942264 C109.20191,71.7869078 109.440133,71.4589261 109.978845,71.0854901 C110.050157,71.0360563 110.339888,70.8441418 110.410257,70.7955603 C111.19282,70.2552924 111.454683,69.7576534 111.212133,68.745936 C111.094547,68.2292591 110.534563,67.8318801 109.648791,67.56593 C109.271575,67.4526722 108.864339,67.3720796 108.456646,67.3192134 C108.212082,67.2875004 108.023114,67.2722061 107.931864,67.2678571 L100.789651,67.2676814 C100.687379,67.2711632 100.50252,67.2843929 100.263198,67.3134933 C99.8642475,67.3620036 99.4657723,67.4383654 99.0968147,67.5478333 C98.2336476,67.8039308 97.6880853,68.1938943 97.570579,68.7102217 C97.3272897,69.7392749 97.5927618,70.2498595 98.3720981,70.7862584 C98.4477838,70.8383511 98.7564318,71.0408694 98.8312868,71.0926177 C99.3488488,71.4504155 99.580135,71.7705308 99.4885962,72.3245618 L76.957453,130.11189 C76.0081784,132.506056 73.7166787,134.100552 71.1320339,134.160714 C70.6598826,134.160714 70.5714538,135.981664 71.2526372,136.696429 L90.0147458,136.696429 C90.7459706,136.696429 90.9289078,136.199901 90.9278119,134.708676 C90.9271967,134.451792 90.9271967,134.451792 90.9290751,134.322627 C90.9816269,133.863422 90.8848857,133.628618 90.6661797,133.505383 C90.4637192,133.391302 90.1530745,133.355172 89.6590346,133.373082 C89.5748299,133.376135 89.4995645,133.379822 89.3585361,133.387418 C88.73284,133.421116 88.5101809,133.418807 88.2576953,133.338681 C87.8337565,133.204145 87.660353,132.847555 87.8035806,132.311236 L91.9228161,122.482143 L117.370106,122.482143 L117.443398,122.680497 L121.019617,132.358927 C121.204399,132.858248 121.054602,133.235035 120.616623,133.374336 C120.364443,133.454543 120.138231,133.456816 119.485854,133.423168 C119.336359,133.415458 119.255659,133.411688 119.165786,133.408625 C118.647881,133.39097 118.320691,133.42799 118.112977,133.543186 C117.895103,133.664017 117.80935,133.889197 117.891368,134.392857 C117.895925,136.136026 118.091086,136.689756 118.803729,136.732143 L137.565837,136.732143 C138.247012,136.017378 138.158327,134.196425 137.678823,134.196333 Z M95.7589118,113.017857 L113.129748,113.017857 L104.410269,91.758894 L95.7589118,113.017857 Z M104.672536,91.1144265 L104.391356,91 L104.391356,91.3035714 L104.427119,91.3035714 L104.427119,91 L104.146254,91.1151982 L104.410269,91.758894 L104.672536,91.1144265 Z M114.034998,113.625 L94.8563424,113.625 L104.187149,90.6964286 L104.630721,90.6964286 L114.034998,113.625 Z" fill="#FFFFFF"></path>
                <path d="M54.5381356,194.571429 C54.0887323,194.90023 53.8034088,195.406826 53.7554427,195.961111 C53.7074765,196.515397 53.9015412,197.063365 54.2877966,197.464286 C57.8640678,201.392857 61.0827119,207.178571 66.6259322,209.321429 C70.4525424,207.428571 66.4113559,204.714286 66.6259322,202.178571 L77.9984746,174.142857 L78.7494915,174.142857 L104.391356,222.714286 L130.03322,174.142857 L130.784237,174.142857 L142.192542,202.321429 C142.407119,204.714286 138.365932,207.428571 142.192542,209.464286 C147.735763,207.321429 150.882881,201.535714 154.530678,197.607143 C155.317458,196.892857 155.317458,195.75 154.280339,194.714286 C152.134576,192.321429 152.063051,196.892857 150.704068,193 C150.704068,193 138.86661,165.535714 140.154068,164.035714 C141.012373,163.571429 141.799153,163.5 142.550169,163.035714 C143.050847,162 143.408475,159.821429 141.584576,159.464286 L125.705932,159.464286 L104.248305,198.75 L82.790678,159.464286 L67.0908475,159.464286 C65.2669492,159.857143 65.6245763,162.035714 66.1252542,163.035714 C66.8762712,163.5 67.6630508,163.571429 68.5213559,164.035714 C69.8088136,165.535714 57.9713559,193 57.9713559,193 C56.719661,196.892857 56.6481356,192.321429 54.3950847,194.714286" fill="#991A32"></path>
                <path d="M56.679575,193.96015 C56.9870954,194.219841 56.9911365,194.222946 57.0484061,194.239585 C57.3118664,193.916697 57.4823637,193.523861 57.6925768,192.879843 C57.7132657,192.831842 57.7132657,192.831842 57.8119335,192.601988 C57.9093347,192.374838 58.0223324,192.110569 58.1496266,191.811963 C58.5133685,190.958699 58.9186992,190.001471 59.3552176,188.962542 C60.6023888,185.994231 61.8495462,182.966172 63.0134442,180.056579 C63.2415305,179.486393 63.464527,178.925417 63.6820388,178.374497 C66.8066692,170.46034 68.636148,164.946263 68.3134735,164.268865 C68.0142748,164.111528 67.7793227,164.023073 67.1862231,163.823422 C66.6056825,163.627999 66.3082602,163.505748 65.9656245,163.293927 C65.0350931,161.536415 65.2449814,159.551341 67.0908475,159.160714 L82.9707711,159.160714 L104.248305,198.116705 L125.525839,159.160714 L141.642912,159.166372 C143.43107,159.516516 143.638806,161.481236 142.823481,163.167837 C142.367164,163.505748 142.069741,163.627999 141.489201,163.823422 C140.896101,164.023073 140.661149,164.111528 140.36195,164.268865 C140.039276,164.946263 141.868755,170.46034 144.993385,178.374497 C145.210897,178.925417 145.433893,179.486393 145.66198,180.056579 C146.825877,182.966172 148.073035,185.994231 149.320206,188.962542 C149.756724,190.001471 150.162055,190.958699 150.525797,191.811963 C150.653091,192.110569 150.766089,192.374838 150.86349,192.601988 C150.962158,192.831842 150.962158,192.831842 150.990677,192.899946 C151.408584,194.097057 151.641406,194.383488 151.780399,194.330923 C151.850147,194.304545 151.85566,194.300546 152.146096,194.072976 C152.916443,193.469376 153.587046,193.486451 154.494851,194.499483 C155.609363,195.612486 155.693067,196.96187 154.753138,197.813703 C154.186958,198.423463 153.608458,199.102971 152.90524,199.973042 C152.528534,200.439129 151.230652,202.076755 151.132406,202.199717 C147.780975,206.394267 145.486095,208.516553 142.302001,209.747437 C139.786889,208.528361 139.788322,207.33592 141.099553,204.778409 C141.156269,204.667774 141.156269,204.667774 141.212373,204.557697 C141.742724,203.514237 141.942139,202.927922 141.911157,202.435349 L130.579634,174.446429 L130.216236,174.446429 L104.391356,223.36453 L78.5664757,174.446429 L78.2028293,174.446429 L66.9284225,202.204169 C66.8969887,202.575632 66.9676591,202.978745 67.1348907,203.446104 C67.2627205,203.803348 67.4095815,204.11952 67.7198614,204.735033 C68.3824118,206.049357 68.582678,206.561502 68.5835269,207.253153 C68.5846973,208.20669 68.0110323,208.974961 66.760529,209.59353 C63.3236458,208.37032 60.9692545,206.205076 57.6542993,202.056879 C57.616297,202.009325 55.9450464,199.895581 55.4703481,199.313603 C54.9550751,198.681881 54.5014784,198.149974 54.069178,197.674907 C53.6221156,197.210871 53.3974766,196.576572 53.4530015,195.934939 C53.507593,195.304093 53.8277719,194.726652 54.332866,194.345756 C55.2521439,193.331831 55.933414,193.330042 56.679575,193.96015 Z M67.3799209,163.248006 C68.0472785,163.472654 68.2932262,163.567172 68.6657904,163.768704 C69.4316564,164.630192 67.7560715,169.708971 64.2467608,178.597458 C64.0289082,179.149241 63.8055762,179.711061 63.5771581,180.282077 C62.41183,183.195245 61.1633881,186.226423 59.91496,189.197724 C59.4780186,190.23766 59.0722795,191.195853 58.7081383,192.050054 C58.5806734,192.34906 58.4675075,192.613723 58.36994,192.84126 C58.2710395,193.071657 58.2710395,193.071657 58.2601264,193.093633 C57.8123207,194.47469 57.4459532,194.987329 56.8790196,194.82262 C56.6932791,194.768658 56.723171,194.791632 56.2878522,194.42402 C55.7755164,193.99137 55.4633613,193.994365 54.7641448,194.774099 C54.338688,195.093499 54.098293,195.520323 54.0578838,195.987283 C54.0174764,196.454221 54.1809668,196.915859 54.5122835,197.25993 C54.9586779,197.750299 55.419126,198.290239 55.9408308,198.929847 C56.4189886,199.516066 58.0931503,201.633492 58.1285991,201.677851 C61.3363639,205.691915 63.6079248,207.795553 66.6099224,208.989087 C67.5819025,208.481792 67.9772102,207.926635 67.9763845,207.253898 C67.9757005,206.696599 67.7921851,206.227291 67.1777083,205.008332 C66.8564096,204.370961 66.7021559,204.038873 66.563242,203.650653 C66.3690028,203.107816 66.2837787,202.621687 66.3446241,202.06446 L77.79402,173.839286 L78.9325073,173.839286 L104.391356,222.064041 L129.850205,173.839286 L130.988841,173.839286 L131.065623,174.028936 L142.494901,202.294315 C142.560476,203.025581 142.334579,203.689756 141.753617,204.832791 C141.696731,204.944404 141.696731,204.944404 141.639826,205.055406 C140.486449,207.305028 140.459915,208.160299 142.213134,209.130129 C145.201881,207.940944 147.416473,205.877819 150.658075,201.820728 C150.754716,201.699775 152.054156,200.060184 152.433043,199.591398 C153.144258,198.711433 153.731134,198.022085 154.326625,197.382381 C155.008961,196.762915 154.949978,195.812042 154.05433,194.916956 C153.360226,194.142924 153.051265,194.135057 152.520561,194.550887 C152.144054,194.845896 152.153821,194.838811 151.995166,194.898812 C151.372311,195.134366 150.943437,194.606738 150.425289,193.120157 C150.404384,193.071657 150.404384,193.071657 150.305484,192.84126 C150.207916,192.613723 150.09475,192.34906 149.967285,192.050054 C149.603144,191.195853 149.197405,190.23766 148.760464,189.197724 C147.512036,186.226423 146.263594,183.195245 145.098266,180.282077 C144.869848,179.711061 144.646515,179.149241 144.428663,178.597458 C140.919352,169.708971 139.243767,164.630192 139.923712,163.837998 C140.382197,163.567172 140.628145,163.472654 141.295503,163.248006 C141.787601,163.082355 142.05047,162.977491 142.314785,162.823065 C142.938754,161.462631 142.762202,160.004105 141.584576,159.767857 L125.886025,159.767857 L104.248305,199.383295 L82.610542,159.767779 L67.154769,159.761051 C65.9151043,160.028068 65.7352993,161.506481 66.3587814,162.821979 C66.6237243,162.977 66.8866704,163.081967 67.3799209,163.248006 Z" fill="#FFFFFF"></path>
                <path d="M205.671356,212.214286 C203.597119,212.214286 202.095085,215.285714 199.627458,214.142857 L196.480339,211 L118.303051,11 C117.981186,9.14285714 123.70322,11 124.346949,8.82142857 C124.990678,6.64285714 124.990678,2.25 121.628983,1.67857143 C110.204949,-0.0833409621 98.577763,-0.0833409621 87.1537288,1.67857143 C83.7920339,2.39285714 83.5774576,6.21428571 84.4357627,8.82142857 C85.2940678,11.4285714 90.8015254,9.14285714 90.479661,11 L12.3023729,211 L9.15525424,214.035714 C6.65186441,215.178571 5.18559322,212.035714 3.11135593,212.107143 C0.92326432,213.379066 -0.167716732,215.935768 0.429152542,218.392857 C4.11865498,223.719223 8.33610834,228.660842 13.0176271,233.142857 C17.0448551,237.916091 22.0754418,241.74489 27.7518644,244.357143 C36.2991525,239.392857 23.7464407,234.75 27.2869492,228.178571 L58.0428814,155.464286 L150.739831,155.464286 L181.531525,228.321429 C185.107797,234.892857 172.519322,239.535714 181.06661,244.5 C186.759397,241.881865 191.802857,238.040367 195.83661,233.25 C200.516867,228.776779 204.7233,223.834031 208.389322,218.5 C209.017879,216.049217 207.936252,213.480183 205.742881,212.214286 L205.671356,212.214286 Z M63.049661,138.25 L104.391356,34.6785714 L145.768814,138.25 L63.049661,138.25 Z" fill="#991A32"></path>
                <path d="M203.064797,213.056627 C204.316381,212.19632 204.930306,211.910714 205.671356,211.910714 C208.15988,213.260642 209.332775,215.973142 208.683861,218.573502 C204.96167,224.023161 200.741687,228.98183 196.068821,233.445534 C192.006278,238.270092 186.926836,242.138996 181.193453,244.775802 C179.694621,244.054205 178.848713,243.32492 178.335961,242.553633 C177.08932,240.678422 177.539881,239.389275 179.854169,235.797041 C181.981164,232.495524 182.491156,230.719827 181.251901,228.439606 L150.53856,155.767857 L58.2440859,155.767857 L27.5542003,228.322559 C26.3419394,230.572599 26.8527597,232.34683 28.9724736,235.643671 C31.2861563,239.242196 31.7356578,240.533217 30.4842001,242.411062 C29.9703166,243.182157 29.1238225,243.911366 27.9043293,244.61965 C21.9080531,242.002033 16.8415773,238.145918 12.8076929,233.362136 C8.11144423,228.866018 3.88071844,223.908849 0.179602743,218.565717 C-0.494449674,215.876764 0.654528347,213.184146 2.95879474,211.844692 C3.84491387,211.778131 4.467749,212.059321 5.41773839,212.716774 C7.21950253,213.984143 7.94401155,214.237833 8.98263858,213.780435 L12.0438176,210.827618 L90.1805486,10.9481603 C89.5276341,10.4878523 89.1813734,10.4770509 88.2605874,10.4908747 C87.8481914,10.497066 87.6467155,10.4985086 87.4040725,10.494845 C85.5894472,10.4674465 84.5303601,10.0795702 84.1474151,8.91635632 C83.0175356,5.48429299 83.9355431,2.05201618 87.1074565,1.37854728 C98.5621576,-0.388094819 110.220554,-0.388094819 121.679855,1.37929288 C124.741094,1.89964925 125.614021,5.6045656 124.638077,8.90745174 C124.333237,9.93912381 123.331729,10.2500803 121.35893,10.3226096 C119.800409,10.3656741 119.394997,10.3951909 119.038832,10.4912292 C118.792528,10.5576438 144.692884,77.3372957 196.7399,210.830185 L199.803128,213.889265 C200.837821,214.350995 201.563875,214.098625 203.064797,213.056627 Z M203.686112,213.365015 C201.722555,214.727576 200.821794,215.030551 199.49988,214.41832 L196.265827,211.214803 L118.003938,11.0518397 C117.900757,10.4564876 118.240347,10.0777089 118.880764,9.9050235 C119.302891,9.79119899 119.728353,9.76022247 120.772615,9.73264532 C123.043073,9.65313961 123.859554,9.39963188 124.055821,8.73540541 C124.94318,5.73231751 124.162065,2.4170764 121.582711,1.97859557 C110.189344,0.221412895 98.5933684,0.221412895 87.2168225,1.97551385 C84.5046959,2.55178067 83.6918375,5.59092257 84.7241103,8.72650082 C84.9975728,9.55715621 85.8352545,9.8639458 87.4132386,9.88777135 C87.6478591,9.89131383 87.8450497,9.88990193 88.2514733,9.88380027 C89.2343266,9.86904466 89.5982489,9.88039703 89.9791074,9.97190526 C90.5683989,10.1134933 90.8785044,10.476397 90.7623998,11.1105188 L12.5851117,211.110519 L9.36600967,214.254204 C7.95643028,214.916716 7.05505825,214.610883 5.39797428,213.444292 C4.25975468,212.653736 3.74319356,212.41203 3.19652279,212.409418 C1.18558078,213.6172 0.18101422,215.982624 0.711267552,218.26698 C4.38140205,223.55866 8.57460555,228.468916 13.2496487,232.947098 C17.2140886,237.645913 22.1578502,241.422946 27.7349541,244.01486 C28.8062765,243.375909 29.5406261,242.732111 29.9789723,242.074361 C31.0331452,240.492547 30.6373195,239.35569 28.4617804,235.972022 C26.2315248,232.503253 25.6675242,230.544312 27.007359,228.060313 L57.8416731,155.160714 L150.941101,155.160714 L181.798168,228.176318 C183.16617,230.690032 182.602753,232.651744 180.364562,236.12586 C178.188675,239.503267 177.791886,240.63856 178.841569,242.217504 C179.278779,242.875159 180.012415,243.518868 181.083562,244.15774 C186.676897,241.559914 191.633623,237.770067 195.626862,233.030544 C200.278645,228.584536 204.460838,223.673202 208.107637,218.373864 C208.655218,216.081656 207.632198,213.702254 205.593509,212.519343 C205.042419,212.540521 204.524786,212.789633 203.686112,213.365015 Z M145.320634,137.946429 L104.391478,35.4971381 L63.4976969,137.946429 L145.320634,137.946429 Z M104.391234,33.8600047 L146.216993,138.553571 L62.6016251,138.553571 L104.391234,33.8600047 Z" fill="#FFFFFF"></path>
                <path d="M19.2045763,56.8928571 L19.2045763,183.214286 L36.0845763,140.035714 L36.0845763,47.6785714 L37.98,41.0714286 C39.8754237,38.0714286 43.5589831,38.3571429 44.2742373,34.7857143 C44.2742373,32.0714286 45.0610169,27.8928571 40.8767797,29.4642857 C30.1479661,34.25 22.4232203,41.5714286 13.2679661,50.25 C10.4051503,52.8096408 9.19410569,56.7402061 10.1208475,60.4642857 C11.6228814,64.0357143 17.8098305,55.1071429 19.2045763,56.8928571" fill="#991A32"></path>
                <path d="M18.9010048,57.0154191 C18.7090021,56.8731374 18.3441346,56.9588831 17.7451138,57.3293216 C17.1812435,57.6780227 16.8738547,57.9232301 15.3262607,59.2128259 C15.1344117,59.372692 14.9796033,59.5008029 14.8303268,59.6229178 C13.6214091,60.6118675 12.7971377,61.1769466 12.0556752,61.4518079 C11.0414693,61.8277754 10.2560729,61.5688641 9.82626046,60.537594 C8.8723259,56.7042411 10.1189007,52.6583588 13.0591209,50.0296837 C26.0976735,37.670004 31.6661469,33.2403942 40.7700493,29.1800952 C42.4421694,28.5521152 43.5489687,28.7494603 44.1344819,29.7105903 C44.5658572,30.4187003 44.6714873,31.3826667 44.6267892,33.0205892 C44.6221651,33.1900365 44.6171854,33.3378619 44.606993,33.6203546 C44.584539,34.2426894 44.5778087,34.4831379 44.571898,34.8453272 C44.2237343,36.5837887 43.4042675,37.419006 41.4215803,38.5836937 C41.2609367,38.6778523 41.2609367,38.6778523 41.1001296,38.7720161 C40.9736931,38.8461804 40.8747842,38.9046632 40.7792038,38.9619538 C39.5442996,39.7021511 38.818984,40.3118647 38.2718016,41.1551391 L36.3881477,47.6785714 L36.3881477,140.035714 L18.9010048,184.82457 L18.9010048,57.0154191 Z M35.7927747,47.5948609 L37.7233603,40.9092816 C38.3667395,39.890967 39.157904,39.2258996 40.4670624,38.4411945 C40.5645517,38.3827598 40.6649902,38.3233725 40.7929428,38.2483189 C40.9544792,38.1537277 40.9544792,38.1537277 41.1140603,38.0601921 C42.9613237,36.9750563 43.6710442,36.2516946 43.9706659,34.7857143 C43.9706659,34.4731084 43.977511,34.2285573 44.0002449,33.598463 C44.0103756,33.3176803 44.0153111,33.1711663 44.0198723,33.0040267 C44.0613343,31.4846905 43.964176,30.5980369 43.6159758,30.0264604 C43.2064655,29.3542421 42.410929,29.212396 41.000446,29.7415261 C31.9969452,33.7576442 26.4661922,38.1572481 13.4703058,50.4763057 C10.6913998,52.9609228 9.51588548,56.776171 10.400678,60.3465975 C10.6793914,61.0093023 11.1151381,61.1529492 11.84464,60.8825218 C12.5026108,60.6386111 13.2880793,60.1001333 14.4458994,59.1529837 C14.5935431,59.0322045 14.747032,58.9051856 14.9375891,58.7463961 C16.516943,57.430335 16.8257067,57.1840308 17.4257806,56.8129411 C18.3345003,56.2509828 19.0161401,56.147454 19.4456,56.708295 L19.5081477,181.604002 L35.7810121,139.978466 L35.7927747,47.5948609 Z" fill="#FFFFFF"></path>
                <path d="M170.802712,41.0714286 L172.698136,47.6785714 L172.698136,140.035714 L189.578136,183.214286 L189.578136,56.8928571 C190.972881,55 197.159831,64.0357143 198.661864,60.4642857 C199.574345,56.7514122 198.364506,52.8384864 195.514746,50.2857143 C186.359492,41.6071429 178.491695,34.2857143 167.905932,29.5 C163.721695,27.9285714 164.329661,32.1071429 164.329661,34.8214286 C165.044915,38.3928571 168.728475,38.1071429 170.623898,41.1071429" fill="#991A32"></path>
                <path d="M167.882525,38.8982912 C167.746112,38.8184862 167.605736,38.7376621 167.328104,38.5781841 C165.307488,37.4139697 164.466499,36.6008735 164.02609,34.8214286 C164.02609,34.5713751 164.022591,34.3767108 164.010759,33.8663343 C164.001739,33.4772271 163.997976,33.2808429 163.996115,33.0504745 C163.983196,31.451158 164.124502,30.4499305 164.590993,29.7378806 C165.215231,28.7850462 166.342672,28.5886294 168.030988,29.2233834 C177.058172,33.3044804 183.049766,38.0514556 195.717297,50.0595981 C198.650584,52.6871927 199.895919,56.7149179 198.941695,60.5819739 C198.526301,61.5696672 197.739953,61.824396 196.725326,61.4413122 C195.985329,61.161918 195.165606,60.5947107 193.951714,59.5958884 C193.808938,59.4784079 193.660902,59.3553011 193.477155,59.2015236 C191.943936,57.9183749 191.614469,57.6549832 191.046841,57.305715 C190.440233,56.9324626 190.074991,56.8527338 189.881707,57.0103124 L189.881707,184.82457 L172.415401,140.146245 L172.406334,47.762282 L170.523027,41.1973752 C169.924609,40.2644645 169.183051,39.6591286 167.882525,38.8982912 Z M189.274564,56.8928571 C189.762051,56.1315081 190.451088,56.2262701 191.365015,56.7886198 C191.96991,57.160818 192.301454,57.4258704 193.866817,58.735921 C194.049378,58.8887063 194.196204,59.010807 194.337483,59.1270549 C195.500691,60.0841734 196.282486,60.6251367 196.939783,60.8733063 C197.669493,61.1488166 198.103817,61.0081222 198.367065,60.3918354 C199.252772,56.7879066 198.078427,52.9897801 195.305901,50.5060306 C182.679732,38.5372636 176.726968,33.8210523 167.799202,29.7841905 C166.368933,29.24704 165.544275,29.3907075 165.098853,30.0705986 C164.720547,30.6480427 164.59127,31.5640339 164.603238,33.04557 C164.605067,33.2719408 164.608788,33.4661239 164.617739,33.8522632 C164.629686,34.3676204 164.633232,34.564934 164.623969,34.7470076 C165.004273,36.250974 165.740412,36.9626973 167.631209,38.0521138 C167.908051,38.2111341 168.050577,38.2931964 168.189108,38.3742398 C169.582938,39.1896626 170.393767,39.8558211 171.059352,40.9092816 L173.001707,47.6785714 L173.001707,139.978485 L189.274564,181.604002 L189.274564,56.8928571 Z" fill="#FFFFFF"></path>
                <path d="M104.391356,226.857143 C63.3,226.857143 45.9550847,190.464286 45.9550847,190.464286 L36.2633898,215.464286 C36.2633898,215.464286 60.8681356,248.75 104.391356,248.75 C147.914576,248.75 172.519322,215.464286 172.519322,215.464286 L162.827627,190.464286 C162.827627,190.464286 145.482712,226.857143 104.391356,226.857143" fill="#991A32"></path>
                <path d="M104.391356,226.553571 C122.284493,226.553571 137.020872,219.763426 148.808463,208.441773 C152.935781,204.477599 156.399128,200.229834 159.222626,195.982608 C160.210426,194.496716 161.0475,193.117418 161.736903,191.88027 C161.977843,191.447899 162.183026,191.064383 162.352836,190.734167 C162.454222,190.537009 162.521011,190.402031 162.553588,190.333678 L162.85633,189.69847 L172.862769,215.510362 C172.71374,215.71197 172.616285,215.840152 172.471417,216.025219 C172.231012,216.332335 171.943884,216.688207 171.610375,217.088771 C170.658753,218.23173 169.525747,219.504668 168.214087,220.875083 C164.468281,224.788682 160.040885,228.701649 154.953581,232.353749 C140.415652,242.79031 123.501433,249.053571 104.391356,249.053571 C85.2812789,249.053571 68.3670595,242.79031 53.8291307,232.353749 C48.7418267,228.701649 44.3144312,224.788682 40.5686244,220.875083 C39.256965,219.504668 38.123959,218.23173 37.1723367,217.088771 C36.8388282,216.688207 36.5517001,216.332335 36.3112948,216.025219 C36.1664267,215.840152 36.0689717,215.71197 36.0192729,215.644737 L45.9263821,189.69847 L46.2291236,190.333678 C46.2617006,190.402031 46.3284895,190.537009 46.4298758,190.734167 C46.599686,191.064383 46.8048688,191.447899 47.0458085,191.88027 C47.7352123,193.117418 48.5722854,194.496716 49.5600861,195.982608 C52.3835839,200.229834 55.8469304,204.477599 59.9742485,208.441773 C71.7618401,219.763426 86.4982186,226.553571 104.391356,226.553571 Z M162.267259,192.175812 C161.570334,193.426458 160.725058,194.819272 159.728238,196.318732 C156.88139,200.601081 153.390286,204.882892 149.229037,208.879655 C137.335008,220.303538 122.453155,227.160714 104.391356,227.160714 C86.3295568,227.160714 71.4477044,220.303538 59.5536752,208.879655 C55.3924261,204.882892 51.9013221,200.601081 49.0544743,196.318732 C48.057654,194.819272 47.2123779,193.426458 46.5154527,192.175812 C46.3174837,191.820553 46.1430963,191.497399 45.9920793,191.208712 L36.6075617,215.416339 C36.6553988,215.47886 36.716022,215.557263 36.7893821,215.65098 C37.0260676,215.953344 37.3093661,216.304469 37.6389259,216.700291 C38.5817843,217.832723 39.7054963,219.09522 41.0072389,220.455274 C44.7282952,224.343014 49.1278634,228.231387 54.1831998,231.860537 C68.6242435,242.227547 85.4186152,248.446429 104.391356,248.446429 C123.364097,248.446429 140.158468,242.227547 154.599512,231.860537 C159.654848,228.231387 164.054417,224.343014 167.775473,220.455274 C169.077216,219.09522 170.200928,217.832723 171.143786,216.700291 C171.473346,216.304469 171.756644,215.953344 171.99333,215.65098 C172.06669,215.557263 172.127313,215.47886 172.17515,215.416339 L162.790633,191.208712 C162.639616,191.497399 162.465228,191.820553 162.267259,192.175812 Z" fill="#FFFFFF"></path>
            </g>
        </g>
    </g>
</svg>