<?xml version="1.0" encoding="UTF-8" standalone="no"?>
<svg width="250px" height="250px" viewBox="0 0 250 250" version="1.1" xmlns="http://www.w3.org/2000/svg" xmlns:xlink="http://www.w3.org/1999/xlink">
    <!-- Generator: Sketch 47.1 (45422) - http://www.bohemiancoding.com/sketch -->
    <title>TEXST</title>
    <desc>Created with Sketch.</desc>
    <defs></defs>
    <g id="Page-1" stroke="none" stroke-width="1" fill="none" fill-rule="evenodd">
        <g id="TEXST" fill-rule="nonzero">
            <g id="Texas_State_Bobcats_logo" transform="translate(18.000000, 0.000000)">
                <path d="M43.6033819,4.27681225 C41.28175,31.5272215 48.8505147,45.1848637 49.1157275,45.6540863 C49.1157275,45.6540863 42.8811871,41.9736265 37.8474485,34.7362961 C40.7239871,53.0412823 54.4632332,60.652073 54.4632332,60.652073 C60.9813473,80.9510513 70.2180965,90.4407726 70.2180965,90.4407726 C11.1327691,110.607144 4.67381782,182.220716 4.67381782,182.220716 C4.67381782,182.220716 23.4994371,156.660732 55.4355441,151.55559 C6.00804212,168.24849 1.34029718,221.237188 1.34029718,221.237188 C1.34029718,221.237188 24.6831021,191.847531 75.5876352,196.891471 C75.2561193,196.590556 87.1243912,179.157712 101.216166,173.996263 C101.216166,173.996263 87.9938811,186.309481 81.2615567,198.254256 C81.2615567,198.254256 93.0977991,200.347887 97.8614286,201.760696 C102.635259,203.178564 115.018247,207.032718 114.365416,214.152661 C113.330066,225.383402 90.8642994,229.276726 90.792896,228.991112 C106.03243,239.446616 121.977839,234.788255 122.151247,234.553644 C119.789833,239.873404 103.933985,243.5109 103.933985,243.5109 C103.933985,243.5109 150.529831,261.255675 154.018399,220.519808 C166.427093,211.507469 164.968015,197.999162 164.968015,197.999162 C164.968015,197.999162 159.097428,206.208926 147.683078,204.653555 C144.010901,204.148631 127.30984,192.616567 132.50189,182.140662 C134.220673,178.657194 147.026166,170.559432 164.601613,172.992045 C172.542492,174.404813 176.060845,186.457918 175.989442,186.922245 C174.821485,194.200499 166.928549,206.502292 166.928549,206.502292 C166.928549,206.502292 176.163666,207.596274 187.353605,198.53326 C191.627611,200.241842 192.448955,201.457292 195.330798,199.529399 C200.772964,195.892924 202.150438,187.325531 202.614765,186.356484 C205.277093,184.918215 210.023994,180.410414 209.085549,168.139223 C208.330712,158.239849 202.984023,146.914448 195.211248,138.494146 C189.621379,112.187078 180.890166,99.9346557 136.374813,80.1187728 C82.0673955,56.6168402 65.6201229,50.8719233 43.6033819,4.2883184 L43.6033819,4.27681225 Z" id="Shape" fill="#8C734A"></path>
                <path d="M53.8732368,32.1285609 C53.8732368,32.1285609 54.4954668,66.8869399 76.8243428,93.7844121 C76.309218,93.906818 75.8135557,94.0263678 75.3341326,94.1589742 C75.216827,94.07227 39.4659401,99.447317 20.0433881,161.849436 C20.0433881,161.849436 37.0484236,139.894306 98.9870325,145.815488 C76.7397604,143.693785 30.1826767,158.53346 15.828545,203.709398 C15.828545,203.709398 31.2153745,187.586093 71.1519311,190.799247 C76.10937,183.424292 91.4060271,168.746601 117.906904,163.982971 C117.906904,163.982971 102.870564,172.733361 92.4456612,194.098494 C92.0172406,194.057692 97.1954181,195.016865 104.024851,197.485384 C104.024851,197.485384 137.000592,208.885861 108.678724,230.485606 C108.678724,230.485606 126.035064,232.608288 130.171567,223.305276 C135.42482,231.205353 125.026847,238.981392 122.497125,240.598374 C156.026141,242.903685 150.078439,218.284594 150.078439,218.284594 C156.846669,215.234647 160.605754,204.968057 160.605754,204.968057 C152.71547,210.950441 146.066381,208.715472 143.296744,207.741325 C140.863927,206.287755 119.145652,188.134349 125.286348,177.163924 C130.830111,169.238142 149.510475,163.696419 161.450355,165.68021 C173.211521,167.511199 179.339977,184.454011 179.436677,184.734321 C181.027954,189.263339 173.613013,202.009057 172.822271,202.912005 C172.822271,202.912005 181.200546,202.331515 186.617007,194.074299 C192.936416,199.398955 196.917464,195.080965 199.248072,184.43157 C202.481628,168.473105 195.167876,167.497122 195.167876,167.497122 C195.167876,167.497122 194.759529,171.513872 193.056047,172.605528 C191.357666,173.702081 194.460206,165.476609 191.374558,160.396764 C191.374558,160.396764 202.897441,161.436561 203.136948,175.298866 C203.162246,176.533125 202.677273,178.802735 202.100946,180.909136 C205.686418,178.680329 205.432059,170.541357 205.432059,170.541357 C203.779579,150.48719 191.239095,140.784483 191.239095,140.784483 C186.516267,117.940278 181.321361,105.537704 135.001745,84.514491 C100.534284,68.8771374 65.3038261,57.1216829 53.8751953,32.1247663 L53.8732368,32.1285609 Z" id="Shape" fill="#501214"></path>
                <path d="M73.434978,67.8861801 C73.434978,67.9983855 72.2267909,76.4305198 83.5795708,92.3273739 C97.069925,90.1342682 114.420145,90.7968921 132.709218,98.8140705 C112.879871,81.7282471 94.6197669,81.7686411 73.436202,67.885772 L73.434978,67.8861801 Z M160.388048,123.69511 C160.388048,131.513582 162.262368,138.303438 167.209729,141.832808 C170.453445,144.143178 175.592493,143.56583 177.489784,139.450054 C178.576137,137.098882 176.852254,133.918124 176.852254,133.76022 C174.954962,139.135879 169.361421,141.107838 169.361421,141.107838 C169.361421,141.107838 172.665115,135.091588 172.899726,129.807734 C167.335154,125.110611 160.388212,123.695599 160.388212,123.695599 L160.388048,123.69511 Z" id="Shape" fill="#8C734A"></path>
            </g>
        </g>
    </g>
</svg>