<?xml version="1.0" encoding="UTF-8" standalone="no"?>
<svg width="250px" height="250px" viewBox="0 0 250 250" version="1.1" xmlns="http://www.w3.org/2000/svg" xmlns:xlink="http://www.w3.org/1999/xlink">
    <!-- Generator: Sketch 47.1 (45422) - http://www.bohemiancoding.com/sketch -->
    <title>TXARL</title>
    <desc>Created with Sketch.</desc>
    <defs></defs>
    <g id="Page-1" stroke="none" stroke-width="1" fill="none" fill-rule="evenodd">
        <g id="TXARL" fill-rule="nonzero">
            <g id="UT_Arlington_Mavericks_logo" transform="translate(0.000000, 29.000000)">
                <g id="Group">
                    <path d="M146.792829,0.918172629 L146.861853,1.79710856 C146.98505,3.43193794 147.013068,5.06010186 147.013068,6.6861766 C147.013068,9.63062041 146.889313,12.5524812 146.889313,15.4614091 C146.889313,17.2104467 146.945588,18.9622699 147.095578,20.6937982 C141.868586,17.3977761 134.608526,16.6836761 126.636414,16.6836761 C120.124661,16.6836761 113.118486,17.1643456 106.34259,17.1643456 C105.691414,17.1643456 105.06002,17.1593713 104.417689,17.1506366 C90.9206773,16.9496778 78.7284462,15.3628995 67.9744622,11.3019407 L66.8057371,10.8624777 L67.3557171,11.9748143 C70.3476494,18.259153 76.5686653,24.1815669 82.6316135,27.6446236 C62.1814143,32.0919803 46.9324104,44.374938 29.4214542,50.0435669 L27.936494,50.5242364 L29.4351992,50.9911671 C33.2014343,52.1513557 37.295757,52.7490588 41.7130876,52.7490588 C43.957012,52.7490588 46.2779283,52.5985387 48.6978486,52.2821281 C39.5546215,62.8732519 31.2277291,73.7687982 15.6440637,80.54469 L14.1316135,81.2038944 L15.7540239,81.4922504 C22.1425697,82.617321 29.2759363,82.3492499 36.1305179,82.4810172 C29.6187649,85.3200074 22.4890837,86.4362239 15.8366932,86.4362239 C10.4337052,86.4362239 5.32673307,85.6984864 1.13848606,84.5822301 L0.0652788845,84.2937249 L0.573944223,85.2965291 C6.12653386,96.3005136 16.7243426,98.3130858 25.2960558,103.316163 C19.0649801,102.191988 12.1347012,102.460596 5.79904382,101.774153 L4.52035857,101.636824 L5.3727988,102.598163 C12.6856474,110.868611 21.0949104,117.340777 28.1696116,125.628833 C35.2621414,133.925943 41.5779781,143.393787 50.3339542,149.950813 C66.4116434,161.956607 94.634751,163.625957 112.674592,166.402571 C112.72738,166.410529 112.781813,166.407545 112.825807,166.416598 L112.839851,166.416598 C129.64762,169.000609 146.78507,170.34763 160.495229,178.996417 C161.806384,179.831401 163.550906,180.900949 165.39005,182.553388 C166.261215,183.335634 167.158775,184.246415 168.02999,185.327514 C168.337978,185.705456 168.643227,186.100419 168.951215,186.522323 C170.526315,188.728492 171.496534,190.681274 172.086076,192.6062 C172.059382,191.947006 172.019243,190.974654 171.948596,189.832074 L172.003476,189.901017 L171.893446,188.3217 C171.779044,186.60778 171.560179,184.983397 171.260996,183.418903 C171.241972,183.337027 171.22504,183.251063 171.206116,183.171684 C171.198147,183.144923 171.201135,183.110501 171.192072,183.075582 L171.178028,183.075582 C166.681414,161.058659 144.614283,152.862128 134.178028,137.260963 C131.494163,133.288148 129.508108,125.92669 129.516972,120.986288 C129.516972,120.775351 129.521952,120.556744 129.531016,120.354581 C129.733406,113.55163 135.169462,99.2519213 144.655518,99.3842358 C145.817072,99.3842358 147.056713,99.5951828 148.367869,100.04343 C151.227729,101.001476 155.370259,106.156457 159.312092,108.283635 C166.554622,112.124534 175.034203,112.457409 182.012291,115.946531 C188.876036,119.365615 194.655717,124.930681 199.900737,130.915969 C200.622311,131.707 202.972351,136.18079 203.324343,137.947436 C203.808327,140.24145 204.177908,141.861954 204.864283,143.523147 C206.113884,146.608162 209.238287,147.995275 213.347849,147.986421 C214.263018,147.986421 215.223347,147.917478 216.235299,147.794177 C219.887191,147.310762 222.907112,144.670064 226.066275,144.072461 C226.409462,144.002125 226.79503,143.976359 227.235,143.976359 C228.414183,143.976359 229.891972,144.173597 231.511096,144.182381 C233.007012,144.182381 234.635498,143.998932 236.254721,143.330943 C239.871355,141.731331 240.061693,137.159718 242.111992,132.535876 C242.683964,131.191143 244.419163,128.648816 246.003127,126.108677 C247.578227,123.53342 249.042869,121.031185 249.069263,119.255784 L249.069263,119.145884 C248.787679,113.828336 244.898247,108.345843 242.469462,104.478879 C235.527231,93.4848426 226.035199,82.9305281 218.246355,72.541358 C214.491375,67.5661364 213.196554,60.6191312 210.766275,52.6832498 C209.132809,47.6284405 201.861892,45.7810127 198.106912,42.5199096 C194.083008,39.1006261 192.031215,35.331157 187.877829,31.4641931 L187.781614,31.3680612 L187.630398,31.3405637 C182.251912,30.3208472 176.664263,29.7090173 170.927211,29.3488832 C168.706096,20.4271101 151.5049,3.36650696 147.590558,1.29225438 L146.806823,0.907716804 L146.792829,0.918172629 Z" id="Shape" fill="#F58025"></path>
                    <path d="M151.374502,10.7105052 C153.908765,16.1774789 153.857171,21.4916443 156.241833,26.5454588 C158.151394,30.571001 163.5251,32.1348979 165.523008,34.3321134 C164.924631,29.9198747 159.687649,29.1337479 158.015837,25.5568809 C156.722311,22.7882263 156.687052,22.1872402 155.595916,18.6627021 C154.812739,16.1314175 153.87998,14.3311454 153.616036,11.5622918 C158.332669,18.3301253 167.503486,26.4352299 167.503486,33.0270753 C172.906474,33.2292278 178.854084,33.7351465 184.071215,34.5789345 C188.101494,37.0487376 190.505378,42.6791644 196.542331,47.2413263 C199.402191,49.4035232 204.195219,50.241183 205.823506,53.7920845 C207.161056,56.7189196 208.494721,61.7811902 209.357072,65.4377443 C210.835458,71.6429928 214.372311,74.324101 217.813247,79.1845175 C220.14512,82.4716856 235.853088,100.62244 239.496514,108.21709 C243.66753,116.883387 247.305677,115.838501 243.002689,122.746806 C242.237122,123.968476 240.098805,126.639338 238.822809,128.87187 C236.394124,133.134683 236.821414,138.353841 234.876693,139.048143 C221.105777,144.005358 235.42009,122.380504 214.142629,128.761442 C219.492829,130.308327 218.974203,136.429312 222.186255,140.709535 C215.700896,144.655987 212.091633,143.840711 208.079681,141.203914 C207.938884,100.263042 167.718127,111.825135 158.197211,102.297501 C147.646414,91.7322434 150.825896,75.9957795 160.135857,71.2046042 C115.969522,72.6460357 113.375896,116.978434 122.764343,133.141687 C136.659761,157.066723 157.795219,159.771707 164.438645,177.25313 C157.900498,169.729512 142.44761,165.733816 125.376892,162.957202 C114.782271,152.946073 103.678685,135.753156 106.705578,109.31514 C106.696614,109.31514 106.274392,109.008081 106.265588,108.999287 C101.4874,134.840395 106.438277,151.161828 114.982918,161.419679 C95.4301295,158.747723 75.6950697,157.005749 66.1034363,152.918626 C62.9003486,151.556284 54.6572211,149.076533 51.3225598,138.388909 C44.6054283,116.83061 44.1303287,32.786074 152.308616,32.786074 C155.098058,35.2031503 158.265986,36.5907606 162.868376,35.8348771 C157.218974,34.0506219 148.413197,32.6020276 151.387301,10.7160265 L151.374502,10.7105052 Z" id="Shape" fill="#FFFFFF"></path>
                    <path d="M148.842038,38.2179794 C42.7663406,46.6025361 63.2533924,129.717887 68.0691295,142.696639 C68.100006,142.646897 68.661759,143.353237 68.6388506,143.363186 C67.3719183,127.674474 53.2942291,53.1476237 148.553193,38.9840103 C148.553193,38.9710773 148.832078,38.226933 148.842038,38.214 L148.842038,38.2179794 Z M68.0691295,142.696639 C68.0631534,142.706588 68.0691295,142.726485 68.101998,142.796124 C68.0920378,142.766278 68.0790896,142.726485 68.0691295,142.696639 Z M184.99144,44.6128454 C185.260365,52.3646804 195.509369,54.0171186 196.963552,61.2854588 C193.955584,60.4856031 193.74642,57.1130773 191.893831,56.6027216 C188.457576,61.4287165 195.101002,63.9158299 198.08905,64.2938711 C199.403791,67.8534278 203.377894,72.6734536 206.316141,71.6537371 C202.192635,67.4176856 203.477496,61.8425722 200.57909,57.3866598 C197.063153,51.9627629 188.138851,49.8178763 184.99144,44.6148351 L184.99144,44.6128454 L184.99144,44.6128454 Z M168.268333,71.4478041 C168.268333,71.4478041 168.218532,72.1660825 168.218532,72.1750361 C188.268333,74.4422887 204.184667,96.0950979 206.23646,102.80334 C206.23646,102.793392 206.814149,102.475041 206.774309,102.564577 C205.280285,94.5680103 194.622914,72.8286495 168.268333,71.4478041 L168.268333,71.4478041 Z M237.102994,111.806691 C234.752396,111.806691 232.840046,114.701691 232.840046,118.293082 C232.840046,121.864577 234.752396,124.789423 237.102994,124.769526 C239.672715,124.759577 240.828094,121.397 240.828094,121.397 C240.828094,121.397 237.292237,120.979165 236.495424,116.751072 C235.61893,112.075299 239.055185,112.532928 238.74642,112.314062 C238.258373,111.975814 237.690643,111.806691 237.102994,111.806691 Z" id="Shape" fill="#F58025"></path>
                </g>
                <path d="M46.7031873,140.422423 C35.6424303,127.469536 27.5557769,112.934845 14.7868526,106.557887 C22.8737052,107.832383 27.7659363,107.832383 38.625498,107.410449 C29.1573705,97.0053615 20.5328685,96.5745935 9.68326693,89.7718409 C19.688247,94.2277533 38.7131474,90.1051141 44.3625498,78.5121811 C37.9830677,78.9339956 33.5478088,78.635542 27.5557769,78.2923203 C43.5179283,71.2786605 46.2808765,56.8295265 62.2350598,46.8442636 C54.3241036,49.4019115 49.8894422,49.4811012 43.7290837,48.971243 C58.75,43.8294842 70.2599602,32.4647688 87.3406375,30.6889698 C91.1596614,30.2934491 96.9322709,31.3745376 100.750996,29.4144734 C91.6256972,28.6673843 80.8994024,23.3937688 76.2788845,17.0923188 C96.7031873,28.4653909 134.709163,10.8430981 149.615538,29.5378342 C35.1832669,29.5378342 40.7211155,120.436855 46.7071713,140.41335" id="Shape" stroke="#0064B1" stroke-width="1.40796813" fill="#0064B1" stroke-linejoin="round"></path>
            </g>
        </g>
    </g>
</svg>