<?xml version="1.0" encoding="UTF-8" standalone="no"?>
<svg width="250px" height="250px" viewBox="0 0 250 250" version="1.1" xmlns="http://www.w3.org/2000/svg" xmlns:xlink="http://www.w3.org/1999/xlink">
    <!-- Generator: Sketch 47.1 (45422) - http://www.bohemiancoding.com/sketch -->
    <title>ALCORN</title>
    <desc>Created with Sketch.</desc>
    <defs>
        <polygon id="path-1" points="123.960265 66.5563312 123.960265 0.254383117 0.0929701987 0.254383117 0.0929701987 66.5563312 123.960265 66.5563312"></polygon>
        <polygon id="path-3" points="8.34380182e-16 66.5576299 8.34380182e-16 0.289908381 84.0818907 0.289908381 84.0818907 66.5576299"></polygon>
    </defs>
    <g id="Page-1" stroke="none" stroke-width="1" fill="none" fill-rule="evenodd">
        <g id="ALCORN">
            <g id="Group" transform="translate(3.000000, 0.000000)">
                <path d="M98.5985464,82.788474 C98.8305662,83.2917208 98.9538775,83.5400974 99.0609636,83.7949675 C104.472056,96.775487 109.902619,109.746266 115.261791,122.746266 C115.8605,124.200812 116.56305,124.739773 118.214772,124.733279 C136.247421,124.658604 154.281692,124.686201 172.315964,124.686201 L174.134805,124.686201 C173.927123,124.092045 173.811924,123.697565 173.652917,123.324188 C171.232123,117.658604 168.808083,111.996266 166.382421,106.333929 C159.004838,89.1277597 151.632123,71.9215909 144.249672,54.7170455 C137.610334,39.2446429 130.953149,23.7787338 124.341394,8.29334416 C123.93901,7.35503247 123.432785,7.03847403 122.44305,7.07581169 C120.562553,7.14886364 118.669076,7.20405844 116.796692,7.06282468 C115.391593,6.95568182 114.740964,7.4362013 114.221758,8.74301948 C111.685765,15.1228896 109.042685,21.4605519 106.433679,27.8112013 C93.5817252,59.0871753 80.7297715,90.3631494 67.8794404,121.640747 C67.4835464,122.606656 67.1184801,123.585552 66.6885132,124.686201 C71.7718576,124.686201 76.6199371,124.710552 81.4647715,124.64237 C81.8914934,124.635877 82.5275199,124.108279 82.6962616,123.678084 C85.775798,115.843669 88.7920563,107.984903 91.8358974,100.139123 C94.0425199,94.4459416 96.2686126,88.7608766 98.5985464,82.788474 M98.8435464,101.592045 C96.9825199,106.364773 95.2415596,110.817695 93.511957,115.27224 C91.5211291,120.400487 89.5562616,125.540097 87.5216258,130.650487 C87.3447715,131.093669 86.7379503,131.665097 86.3290762,131.668344 C76.3489768,131.725162 66.3656325,131.712175 56.174606,131.712175 C56.4747715,130.954058 56.718149,130.316071 56.9777517,129.684578 C74.5382483,86.9280844 92.1019901,44.1715909 109.643017,1.40698052 C110.045401,0.426461039 110.493215,-0.0183441558 111.666295,0.00113636364 C116.798315,0.0887987013 121.933579,0.0774350649 127.065599,0.00762987013 C128.15593,-0.00698051948 128.61997,0.3875 129.022354,1.32905844 C140.954341,29.2154221 152.910666,57.0887987 164.862123,84.9670455 C171.329474,100.051461 177.796825,115.1375 184.26093,130.223539 C184.44103,130.643994 184.595169,131.074188 184.845036,131.712175 L183.194937,131.712175 C159.788513,131.712175 136.382089,131.702435 112.975666,131.741396 C111.804209,131.744643 111.273646,131.381006 110.833944,130.309578 C107.145964,121.353409 103.396328,112.419968 99.6629172,103.481656 C99.4471225,102.963799 99.2167252,102.452435 98.8435464,101.592045" id="Fill-1" fill="#E9A713"></path>
                <g id="Group-5" transform="translate(120.066225, 182.475649)">
                    <mask id="mask-2" fill="white">
                        <use xlink:href="#path-1"></use>
                    </mask>
                    <g id="Clip-4"></g>
                    <path d="M116.92552,50.1034091 C116.724328,50.0271104 116.641579,49.9719156 116.553964,49.9654221 C116.273268,49.9459416 115.99095,49.9297078 115.708632,49.9345779 C109.57552,50.0790584 104.557076,47.6780844 100.487805,43.1894481 C97.2346589,39.6034091 94.7051556,35.5011364 92.680255,31.1456169 C89.2324073,23.7267857 85.9889967,16.2137987 82.735851,8.70568182 C82.2555861,7.60016234 81.6666126,7.28847403 80.5243609,7.2900974 C61.8800232,7.32256494 43.2356854,7.31282468 24.5913477,7.31769481 C24.1419106,7.31769481 23.6924735,7.36314935 23.0142616,7.40048701 C23.989394,9.78522727 24.9239636,11.973539 25.7806523,14.1926948 C27.7909503,19.4086039 29.9050894,24.5920455 31.7012152,29.8826299 C32.7655861,33.0206169 32.9521755,36.3728896 32.0500563,39.6310065 C30.6741623,44.6050325 26.9439967,47.1212662 22.2889967,48.5092532 C18.1515795,49.7430195 13.887606,50.0222403 9.59118212,49.9362013 C8.76532119,49.9199675 7.94108278,49.9345779 7.11522185,49.9345779 L7.11522185,59.6650974 L116.92552,59.6650974 L116.92552,50.1034091 Z M123.960752,42.9069805 L123.960752,66.5563312 L0.0929701987,66.5563312 L0.0929701987,42.9069805 C0.638135762,42.9069805 1.13787086,42.9167208 1.63598344,42.9053571 C6.48081788,42.8030844 11.3370099,42.8631494 16.1639967,42.5189935 C18.3592616,42.3631494 20.5610166,41.5693182 22.6459503,40.7689935 C24.5670099,40.0336039 25.409096,38.3696429 25.4658841,36.2738636 C25.5599901,32.8420455 24.5345596,29.6780844 23.2689967,26.5741883 C19.9185,18.3436688 16.5274404,10.1293831 13.152606,1.9086039 C12.9757517,1.47678571 12.8037649,1.04334416 12.5376722,0.3875 C13.105553,0.346915584 13.5387649,0.286850649 13.9703543,0.286850649 C37.800255,0.281980519 61.6285331,0.290097403 85.4584338,0.254383117 C86.5000894,0.254383117 86.9138311,0.639123377 87.2983675,1.5336039 C90.7510828,9.57094156 94.1583675,17.6293831 97.7733344,25.5936688 C100.030255,30.5676948 102.632772,35.3858766 106.546281,39.3241883 C108.913533,41.7056818 111.7935,42.9102273 115.166712,42.9069805 C118.074262,42.9037338 120.980189,42.9069805 123.960752,42.9069805 L123.960752,42.9069805 Z" id="Fill-3" fill="#E9A713" mask="url(#mask-2)"></path>
                </g>
                <g id="Group-8" transform="translate(0.000000, 182.475649)">
                    <mask id="mask-4" fill="white">
                        <use xlink:href="#path-3"></use>
                    </mask>
                    <g id="Clip-7"></g>
                    <path d="M56.9842417,7.5349026 C56.7635795,7.4163961 56.6840762,7.33685065 56.6061954,7.33685065 C51.2859636,7.32548701 45.9657318,7.29951299 40.648745,7.35470779 C40.2577185,7.35957792 39.6914603,7.87905844 39.5162285,8.2913961 C37.8596391,12.1858766 36.2679503,16.1063312 34.6616589,20.0202922 C31.7103013,27.2102273 28.6891755,34.3644481 23.9708974,40.6306818 C20.3348377,45.4602273 15.806394,48.9326299 9.63109603,49.7962662 C8.72248675,49.9228896 7.80089735,49.9650974 6.7965596,50.0543831 C6.7965596,52.8011364 6.87281788,55.4358766 6.76573179,58.0625 C6.70894371,59.4521104 7.17136093,59.7881494 8.51480464,59.786526 C30.8276523,59.7459416 53.1421225,59.7573052 75.4549702,59.7573052 L76.9947384,59.7573052 L76.9947384,49.9943182 C76.5323212,49.9715909 76.1623874,49.9407468 75.7940762,49.9342532 C69.5230497,49.8352273 63.4905331,48.523539 57.6721887,46.2378247 C54.9788113,45.1793831 52.4914934,43.7410714 50.7229503,41.3433442 C48.0279503,37.6907468 47.8786788,33.5137987 49.0874536,29.4699675 C50.8073212,23.7199675 53.0561291,18.1274351 55.0956325,12.4732143 C55.6975861,10.8108766 56.3579503,9.16801948 56.9842417,7.5349026 M84.0818907,42.9082792 L84.0818907,66.5576299 L-0.000162251656,66.5576299 L-0.000162251656,42.9082792 C1.9647053,42.9082792 3.88900993,42.8011364 5.80033444,42.9277597 C10.9437119,43.2686688 14.7631159,40.9732143 17.8264272,37.088474 C22.0417252,31.7459416 24.7464603,25.5852273 27.3311291,19.3660714 C29.8216921,13.3741883 32.2457318,7.35633117 34.7606325,1.37581169 C34.9585795,0.906655844 35.6432815,0.331980519 36.1040762,0.328733766 C46.3210629,0.273538961 56.5396722,0.291396104 66.7582815,0.29788961 C66.8507649,0.29788961 66.9416258,0.338474026 67.2336788,0.408279221 C67.0730497,0.880681818 66.9318907,1.34334416 66.7582815,1.7913961 C63.3850695,10.5689935 59.9583146,19.3271104 56.6727185,28.1371753 C56.026957,29.8676948 55.8371225,31.7881494 55.5840099,33.6436688 C55.251394,36.088474 56.2946722,37.9748377 58.5661954,38.838474 C61.7138775,40.036526 64.9297053,41.0819805 68.1747384,41.9878247 C72.6301689,43.2313312 77.2316258,42.8969156 81.7908974,42.9066558 C82.5323874,42.9099026 83.2738775,42.9082792 84.0818907,42.9082792" id="Fill-6" fill="#E9A713" mask="url(#mask-4)"></path>
                </g>
                <path d="M177.182864,155.929221 C178.745348,155.805844 180.150447,155.786364 181.523096,155.565584 C184.218096,155.13539 185.762732,153.440584 186.173228,150.791234 C186.387401,149.408117 186.487997,147.982792 186.424719,146.586688 C186.246242,142.641883 183.906573,140.499026 179.957368,140.52013 C177.927599,140.52987 177.246142,141.042857 177.207202,143.055844 C177.126076,147.237662 177.182864,151.422727 177.182864,155.929221 M163.638096,139.755519 L163.638096,138.468182 C163.727334,138.403247 163.800348,138.300974 163.874983,138.300974 C171.166573,138.374026 178.459785,138.40974 185.748129,138.576948 C187.127268,138.607792 188.537235,139.036364 189.859586,139.489286 C193.763361,140.823701 195.763924,143.617532 195.937533,147.752273 C196.093295,151.440584 194.232268,154.351299 190.516705,156.054221 C189.708692,156.425974 188.855248,156.698701 187.904454,157.062338 C190.085116,160.424351 192.244685,163.775 194.42697,167.109416 C195.199288,168.28961 195.995944,169.456818 196.83154,170.591558 C197.83101,171.947078 199.034917,173.026623 200.848891,173.101299 L200.848891,174.685714 C197.362103,174.685714 193.933725,174.714935 190.508593,174.646753 C190.120811,174.64026 189.640546,174.172727 189.376076,173.796104 C185.884421,168.831818 182.436573,163.836688 178.936805,158.878896 C178.612301,158.421104 177.99899,158.166234 177.216937,157.598052 C177.216937,161.917857 177.098493,165.685714 177.255877,169.440584 C177.371076,172.184091 178.381904,172.841558 181.983891,173.102922 L181.983891,174.614286 L163.685149,174.614286 C163.654321,174.130519 163.625116,173.684091 163.589421,173.138636 C164.300083,173.065584 164.945844,173.046104 165.575381,172.929221 C167.395844,172.588312 168.163295,171.749026 168.395315,169.916234 C168.413162,169.776623 168.434255,169.63539 168.434255,169.494156 C168.432632,160.781494 168.478063,152.068831 168.39856,143.356169 C168.377467,140.997403 167.300116,140.098052 164.979917,139.911364 C164.564553,139.877273 164.150811,139.815584 163.638096,139.755519" id="Fill-9" fill="#46166A"></path>
                <path d="M148.901265,155.731006 C148.826629,154.760227 148.776331,153.062175 148.549179,151.386851 C148.111099,148.138474 147.294974,145.005357 145.052656,142.461526 C141.999079,138.993994 136.664245,138.787825 133.552258,142.185552 C132.380801,143.464773 131.449477,145.09789 130.832921,146.729383 C129.236364,150.943669 129.164974,155.37711 129.51057,159.818669 C129.739344,162.74724 130.282887,165.606006 131.679874,168.22776 C133.278053,171.22289 135.622589,173.110877 139.184013,173.075162 C142.734079,173.041071 145.065636,171.146591 146.615139,168.115747 C148.489146,164.450162 148.823384,160.479383 148.901265,155.731006 M120.176232,156.404708 C120.223285,145.320292 128.269344,137.493994 139.516629,137.528084 C149.475636,137.558929 158.126894,145.073539 158.049013,156.489123 C157.972755,167.651461 150.011066,175.411201 138.866,175.346266 C128.081132,175.281331 120.132424,167.224513 120.176232,156.404708" id="Fill-11" fill="#46166A"></path>
                <path d="M243.783599,138.328084 L243.783599,139.631656 C243.673268,139.709578 243.600255,139.80211 243.519129,139.808604 C240.476911,140.078084 239.039361,141.125162 239.024758,145.370292 C238.99393,154.837825 239.016646,164.306981 239.016646,173.776136 L239.016646,175.28263 C237.957142,175.701461 237.376281,175.269643 236.779195,174.534253 C229.544394,165.613799 222.283632,156.714448 215.024493,147.813474 C214.747043,147.470942 214.432275,147.156006 213.91307,146.586201 L213.91307,150.673864 L213.91307,166.92711 C213.91307,167.209578 213.908202,167.492045 213.91307,167.774513 C213.976348,171.474188 215.027738,172.656006 218.741679,173.123539 L218.741679,174.579708 L206.913533,174.579708 L206.913533,173.113799 C207.289957,173.068344 207.653401,173.04237 208.011977,172.977435 C210.242937,172.565097 211.266745,171.493669 211.550685,169.209578 C211.643169,168.464448 211.641546,167.706331 211.641546,166.953084 C211.648036,159.980682 211.646414,153.009903 211.646414,146.039123 C211.646414,143.543994 209.980089,140.899513 207.625818,140.091071 C206.60201,139.740422 206.38297,139.308604 206.700983,138.258279 C210.319195,138.258279 213.981215,138.225812 217.63999,138.300487 C218.071579,138.310227 218.571315,138.852435 218.90393,139.258279 C224.542175,146.141396 230.157705,153.040747 235.779725,159.936851 C236.013368,160.224188 236.268103,160.496916 236.646149,160.92711 C236.691579,160.472565 236.748368,160.17711 236.748368,159.881656 C236.753235,154.982305 236.753235,150.084578 236.74999,145.185227 C236.74999,144.808604 236.746745,144.428734 236.706182,144.055357 C236.402772,141.242045 235.588268,140.482305 231.984659,139.714448 C231.953831,139.30211 231.921381,138.854058 231.884063,138.328084 L243.783599,138.328084 Z" id="Fill-13" fill="#46166A"></path>
                <path d="M9.98512914,161.542857 C11.5281424,157.560714 13.0224801,153.711688 14.6498642,149.513636 C16.3940695,153.693831 17.9890033,157.516883 19.6699305,161.542857 L9.98512914,161.542857 Z M33.1806258,170.880519 C32.7457914,170.102922 32.3434073,169.300974 31.9913212,168.482792 C27.7224801,158.555844 23.4649967,148.624026 19.2010232,138.693831 C18.9381755,138.083442 18.8456921,137.122403 17.8721821,137.453571 C17.3838046,137.620779 16.8938046,138.201948 16.6828775,138.710065 C12.5081424,148.778247 8.3739702,158.862662 4.2284404,168.942208 C3.42853974,170.882143 2.51993046,172.731169 0.144566225,173.179221 C0.194864238,173.727922 0.237049669,174.172727 0.275990066,174.588312 L11.1809238,174.588312 L11.1809238,173.14026 C10.4264536,172.997403 9.73039404,172.903247 9.05542715,172.729545 C6.9234404,172.179221 6.34420199,171.143506 7.06622185,169.093182 C7.53350662,167.76526 8.1484404,166.484416 8.57678477,165.146753 C8.85261258,164.28474 9.27284437,163.982792 10.1830762,164.013636 C12.2517848,164.085065 14.3253609,164.021753 16.3956921,164.041234 C17.8007914,164.054221 19.5320166,163.625649 20.5201291,164.286364 C21.5033742,164.943831 21.7678444,166.705195 22.3000298,168.002273 C23.8852285,171.864286 23.4195662,172.64513 19.2496987,173.15 L19.2496987,174.687338 C24.7500298,174.687338 30.1578775,174.688961 35.5641026,174.685714 C35.8366854,174.685714 36.1108907,174.656494 36.4775795,174.633766 C36.5067848,174.122403 36.5311225,173.671104 36.5619503,173.078571 C34.8550629,173.036364 33.881553,172.13539 33.1806258,170.880519 L33.1806258,170.880519 Z" id="Fill-15" fill="#46166A"></path>
                <path d="M113.190811,166.481169 C113.471507,166.719805 114.00207,167.171104 114.610513,167.687338 C111.500149,171.786364 107.625579,174.346429 102.56495,175.167857 C94.1603146,176.52987 86.063957,172.544481 82.6258444,164.90487 C78.2645199,155.214935 81.6620695,142.297727 93.272798,138.476299 C98.2312086,136.843182 103.199354,137.187338 107.993891,139.307468 C110.502301,140.416234 111.206474,140.172727 112.308162,137.617532 L113.718129,137.617532 L113.718129,150.494156 C112.669983,150.924351 112.167003,150.580195 111.845745,149.550974 C111.034487,146.948701 109.639123,144.695455 107.662897,142.78961 C103.507632,138.781494 94.8287914,137.672727 91.6437914,146.310714 C89.3398179,152.559091 89.3284603,158.990909 91.3939238,165.28474 C93.7887583,172.585065 99.7174338,174.072078 106.507666,171.042857 C108.852202,169.997403 110.828427,168.127273 113.190811,166.481169" id="Fill-17" fill="#46166A"></path>
                <path d="M42.2191788,174.498214 L42.2191788,173.162175 C43.0125894,173.046916 43.7930199,172.97224 44.5572252,172.814773 C45.910404,172.537175 46.6875894,171.670292 46.8611987,170.306656 C46.9747748,169.423539 47.0737483,168.529058 47.0753709,167.637825 C47.091596,160.145942 47.0867285,152.652435 47.0818609,145.160552 C47.0818609,144.691396 47.0510331,144.220617 47.0023576,143.754708 C46.6908344,140.762825 46.1067285,140.194643 43.067755,139.895942 C42.8373576,139.873214 42.6118278,139.808279 42.2564967,139.736851 C42.2289139,139.296916 42.2029536,138.856981 42.1705033,138.33263 L60.4578874,138.33263 C60.6736821,139.173539 60.7499404,139.798539 59.5930861,139.923539 C56.5313974,140.254708 55.7850397,141.090747 55.7769272,144.152435 C55.760702,150.985227 55.7720596,157.818019 55.7720596,164.650812 C55.7720596,166.394318 55.7396093,168.139448 55.7834172,169.881331 C55.8337152,171.818019 56.4113311,172.488474 58.3486159,172.426786 C60.5016954,172.356981 62.671,172.158929 64.7883841,171.767695 C67.8095099,171.209253 69.8928212,169.254708 71.3644437,166.645942 C72.2389801,165.095617 72.9983179,163.478734 73.8533841,161.808279 C74.2119603,161.886201 74.6159669,161.973864 75.1854702,162.09724 C75.0378212,162.96737 74.917755,163.834253 74.7425232,164.688149 C74.1275894,167.683279 73.5223907,170.680032 72.8344437,173.658929 C72.7419603,174.056656 72.1984172,174.644318 71.8625563,174.645942 C62.0658013,174.684903 52.2706689,174.660552 42.4771589,174.642695 C42.436596,174.642695 42.3976556,174.600487 42.2191788,174.498214" id="Fill-19" fill="#46166A"></path>
                <path d="M98.5985464,82.788474 C96.2686126,88.7608766 94.0425199,94.4459416 91.8358974,100.139123 C88.7920563,107.984903 85.775798,115.843669 82.6962616,123.678084 C82.5275199,124.108279 81.8914934,124.635877 81.4647715,124.64237 C76.6199371,124.710552 71.7718576,124.686201 66.6885132,124.686201 C67.1184801,123.585552 67.4835464,122.606656 67.8794404,121.640747 C80.7297715,90.3631494 93.5817252,59.0871753 106.433679,27.8112013 C109.042685,21.4605519 111.685765,15.1228896 114.221758,8.74301948 C114.740964,7.4362013 115.391593,6.95568182 116.796692,7.06282468 C118.669076,7.20405844 120.562553,7.14886364 122.44305,7.07581169 C123.432785,7.03847403 123.93901,7.35503247 124.341394,8.29334416 C130.953149,23.7787338 137.610334,39.2446429 144.249672,54.7170455 C151.632123,71.9215909 159.004838,89.1277597 166.382421,106.333929 C168.808083,111.996266 171.232123,117.658604 173.652917,123.324188 C173.811924,123.697565 173.927123,124.092045 174.134805,124.686201 L172.315964,124.686201 C154.281692,124.686201 136.247421,124.658604 118.214772,124.733279 C116.56305,124.739773 115.8605,124.200812 115.261791,122.746266 C109.902619,109.746266 104.472056,96.775487 99.0609636,83.7949675 C98.9538775,83.5400974 98.8305662,83.2917208 98.5985464,82.788474" id="Fill-21" fill="#46166A"></path>
                <path d="M236.991745,232.579058 L236.991745,242.140747 L127.181447,242.140747 L127.181447,232.410227 C128.007308,232.410227 128.831546,232.395617 129.657407,232.411851 C133.953831,232.49789 138.217805,232.218669 142.355222,230.984903 C147.010222,229.596916 150.740387,227.080682 152.116281,222.106656 C153.018401,218.848539 152.831811,215.496266 151.76744,212.358279 C149.971315,207.067695 147.857175,201.884253 145.846877,196.668344 C144.990189,194.449188 144.055619,192.260877 143.080487,189.876136 C143.758699,189.838799 144.208136,189.793344 144.657573,189.793344 C163.301911,189.788474 181.946248,189.798214 200.590586,189.765747 C201.732838,189.764123 202.321811,190.075812 202.802076,191.181331 C206.055222,198.689448 209.298632,206.202435 212.74648,213.621266 C214.771381,217.976786 217.300884,222.079058 220.55403,225.665097 C224.623301,230.153734 229.641745,232.554708 235.774858,232.410227 C236.057175,232.405357 236.339493,232.421591 236.620189,232.441071 C236.707805,232.447565 236.790553,232.50276 236.991745,232.579058" id="Fill-23" fill="#46166A"></path>
                <path d="M56.9842417,190.010552 C56.3579503,191.643669 55.6975861,193.286526 55.0956325,194.948864 C53.0561291,200.603084 50.8073212,206.195617 49.0874536,211.945617 C47.8786788,215.989448 48.0279503,220.166396 50.7229503,223.818994 C52.4914934,226.216721 54.9788113,227.655032 57.6721887,228.713474 C63.4905331,230.999188 69.5230497,232.310877 75.7940762,232.409903 C76.1623874,232.416396 76.5323212,232.44724 76.9947384,232.469968 L76.9947384,242.232955 L75.4549702,242.232955 C53.1421225,242.232955 30.8276523,242.221591 8.51480464,242.262175 C7.17136093,242.263799 6.70894371,241.92776 6.76573179,240.538149 C6.87281788,237.911526 6.7965596,235.276786 6.7965596,232.530032 C7.80089735,232.440747 8.72248675,232.398539 9.63109603,232.271916 C15.806394,231.408279 20.3348377,227.935877 23.9708974,223.106331 C28.6891755,216.840097 31.7103013,209.685877 34.6616589,202.495942 C36.2679503,198.581981 37.8596391,194.661526 39.5162285,190.767045 C39.6914603,190.354708 40.2577185,189.835227 40.648745,189.830357 C45.9657318,189.775162 51.2859636,189.801136 56.6061954,189.8125 C56.6840762,189.8125 56.7635795,189.892045 56.9842417,190.010552" id="Fill-25" fill="#46166A"></path>
            </g>
        </g>
    </g>
</svg>