<?xml version="1.0" encoding="UTF-8" standalone="no"?>
<svg width="250px" height="250px" viewBox="0 0 250 250" version="1.1" xmlns="http://www.w3.org/2000/svg" xmlns:xlink="http://www.w3.org/1999/xlink">
    <!-- Generator: Sketch 47.1 (45422) - http://www.bohemiancoding.com/sketch -->
    <title>STHRN</title>
    <desc>Created with Sketch.</desc>
    <defs></defs>
    <g id="Page-1" stroke="none" stroke-width="1" fill="none" fill-rule="evenodd">
        <g id="STHRN">
            <g id="Group-2" transform="translate(0.000000, 15.000000)">
                <g id="Group" transform="translate(124.707709, 110.296260) scale(-1, 1) rotate(-180.000000) translate(-124.707709, -110.296260) translate(0.095304, 0.282806)">
                    <path d="M193.857027,34.7242466 L195.336426,39.0787791 L199.822472,52.2883946 L206.346181,71.5027444 C206.407989,71.7587757 212.195986,94.4495506 240.74718,100.520293 C240.751168,100.520293 240.824938,100.538295 240.824938,100.538295 L240.900702,100.554297 L240.96251,100.602303 L241.022324,100.650309 C241.12002,100.726318 250.443022,108.947324 248.905803,115.398113 C248.114265,118.714518 244.601192,121.062805 238.480231,122.390968 C238.19113,123.211068 237.148374,125.097299 233.573493,125.139304 L233.573493,125.133303 L233.567512,125.133303 L233.567512,124.807263 C233.565518,124.807263 233.441902,124.813264 233.244516,124.821265 L233.563524,125.133303 C233.499722,125.143304 233.433927,125.145305 233.370126,125.149305 L232.78993,125.175308 L230.923735,125.261319 L226.976014,125.439341 C226.954082,125.495347 226.928163,125.553354 226.886293,125.615362 C226.138618,126.685493 223.610482,127.137548 219.15833,126.993531 C219.136398,126.993531 205.036255,126.111423 203.849945,126.035413 C203.756237,126.079419 203.636609,126.131425 203.445204,126.211435 C202.416404,126.641488 199.788578,127.753624 198.139706,129.413827 C200.386717,130.683982 206.142813,134.830489 209.165412,145.123748 C210.457393,145.71582 217.55731,149.302259 218.729663,156.989199 C220.494175,157.637278 230.323601,161.813789 229.364584,174.327319 L229.364584,174.329319 C229.362591,174.355323 229.362591,174.359323 229.362591,174.359323 L229.360597,174.381326 L229.354615,174.403329 L229.348634,174.431332 C229.284832,174.693364 227.759577,180.810112 223.040256,184.330543 C223.439015,185.752716 224.415977,190.659317 220.115353,193.943718 C220.167192,195.157867 220.049558,198.714302 217.345967,202.698789 C214.448978,206.965311 207.87343,212.421978 193.001688,214.184193 L192.822246,214.206196 L192.64081,214.228199 L192.52517,214.086182 L192.409529,213.944164 C192.329777,213.844152 190.529377,211.607878 189.9113,209.90767 C187.955384,210.301719 180.853473,211.531869 174.915941,210.131698 C173.645892,211.563873 167.349476,216.658496 143.425888,214.210197 C142.688183,214.706257 138.95978,217.106551 133.466865,218.566729 C126.041959,220.538971 118.744657,220.026908 111.776331,217.046544 C110.87314,217.176559 105.366269,217.866644 98.0928919,216.600489 C90.7517258,215.326333 79.9792326,211.747896 70.3073161,201.964699 C68.3175052,201.248612 35.6072472,189.229142 16.8735166,166.176322 C6.71112571,153.666793 1.00686824,140.061129 0.380815511,126.82751 C-0.311032564,112.175718 5.07421715,98.8080837 16.3770608,87.0886504 L0.400753496,39.0267727 L0.326982952,38.8087461 L0.506424816,38.6627282 L0.986930252,38.2706803 L1.16238452,38.1286629 L1.35977057,38.2406766 C1.70868531,38.4387008 10.0407692,43.0892696 20.3088314,40.3889393 C30.5031231,37.712612 45.7616629,35.3783266 50.5029157,34.8482617 C49.8649002,32.6679951 48.7244475,26.7352696 52.6263111,20.3744917 C55.6190027,15.4978953 60.9145314,11.4093953 68.3653564,8.22700612 C77.6624388,4.26052104 90.3709103,1.69220695 106.139863,0.604073875 C121.64364,-0.470057485 135.701913,0.300036693 147.923898,2.89435396 C157.980617,5.02861497 166.849033,8.40702813 174.285901,12.9295812 C186.491935,20.3544892 192.056627,29.35559 193.29677,33.076045 L193.264869,33.0820457 L193.857027,34.7242466 Z" id="Shape" fill="#79BDE8" fill-rule="nonzero"></path>
                    <path d="M110.660203,9.67764752 C108.90566,9.67764752 107.238366,9.69990624 105.61334,9.7339104 C104.716131,11.4061149 103.451744,13.2020145 101.641375,15.1283301 C101.641375,15.1283301 102.238015,12.8563723 102.102437,9.83392263 C99.3151063,9.93793535 96.690151,10.0969628 94.1739773,10.3089887 C93.5598873,12.3991643 92.3983801,14.7829759 90.3328048,17.4973878 C90.3328048,17.4973878 90.7073838,14.3214794 90.1271884,10.7090377 C83.2126952,11.4811321 76.8872499,12.6710376 69.7378075,14.2531511 C44.8169214,19.763905 37.0012314,28.6952373 34.8303836,35.2125143 L32.0390657,43.6417051 C30.9644083,46.8821014 31.1570571,49.8923896 32.6185114,52.5928798 C35.2723369,57.4894786 42.0211056,61.3736336 52.6777192,64.1379717 C52.6777192,64.1379717 52.9045178,64.1964749 52.9144868,64.2004753 C64.1315971,67.1067508 70.3067898,68.7104669 87.2142009,68.7104669 C109.083778,68.7104669 119.272886,71.8031651 123.404036,73.6454704 L124.020869,73.9205121 L123.809032,74.5612144 L120.235826,85.2687639 L120.123679,85.6031728 L119.796569,85.7313164 C117.501627,86.6114241 114.225258,87.7323612 109.238847,88.6785569 L102.086056,110.021967 C107.317783,109.237871 112.398779,108.208945 118.30441,106.902866 C143.231676,101.392112 151.050556,92.4596593 153.224594,85.940302 L156.779138,75.2701971 C157.857783,72.0358816 157.662263,69.0268736 156.202803,66.3284636 C153.548977,61.4299445 146.797976,57.5433892 136.137215,54.7769709 C124.447495,51.7465203 110.227405,50.2076121 93.875067,50.2076121 C73.7520576,50.2076121 69.1870566,47.5589682 65.4658311,45.4007843 C65.4498807,45.3887828 65.4082661,45.3655319 65.3225328,45.3195263 L64.7866955,45.0194896 L64.9798387,44.4319138 L68.2072402,34.6963232 L68.3162771,34.3619143 L68.6464979,34.236891 C74.859174,31.8285965 83.8551928,29.3644551 103.488525,29.3644551 C148.554751,29.3644551 160.268716,43.0006827 163.077579,48.1075473 C165.272672,41.3787244 172.774618,18.3919132 172.778605,18.3887128 L173.249014,16.9666669 C172.212239,17.1366877 170.89059,17.3508419 170.912601,17.3448412 C170.86475,17.3568426 165.318322,18.1983215 159.033869,16.2040777 C148.833596,12.9676819 134.435181,11.2969175 123.995652,10.4627355 C123.257946,12.1688642 122.274924,14.047814 120.905264,16.1539915 C120.905264,16.1539915 121.531062,13.4720636 121.746392,10.2876741 C119.481437,10.1216538 117.470731,9.99951088 115.789879,9.90949987 C115.153857,11.3516762 114.312347,12.9095468 113.169868,14.603834 C113.169868,14.603834 113.491747,12.4939759 113.366138,9.78756496 C111.824932,9.7175564 110.860332,9.68617656 110.658879,9.67817559 L110.660203,9.67764752 Z M162.999805,56.2833471 C166.179994,58.5857087 171.184268,63.756421 168.333296,72.3141076 L153.058886,117.610847 L152.946738,117.945256 L152.616518,118.070231 C151.918688,118.332263 151.248405,118.629292 150.538661,118.94533 C146.539101,120.729549 141.557954,122.94902 123.282638,122.94902 C102.867736,122.94902 97.5785876,120.213165 93.7185937,118.211001 L93.3821362,118.035987 L92.8182581,117.742191 L93.0207483,117.135877 L107.089469,75.383571 C101.339354,74.6054758 94.5685739,74.2084193 86.9297736,74.2084193 C82.8384991,74.2084193 79.2675263,74.1129036 76.0136472,73.9208801 C74.3050416,78.9954207 60.895072,118.763164 60.895072,118.759964 C59.8184208,121.994279 60.009953,125.001367 61.4714073,127.701697 C64.1210858,132.600216 70.8720875,136.486772 81.5306152,139.25319 C93.7565875,142.423498 99.8368754,143.825589 115.827139,143.825589 C177.634892,143.825589 184.375526,118.606505 184.456873,118.284866 C184.456873,118.284866 200.126853,71.8311845 200.126853,71.8359851 C202.91211,63.4709621 209.071671,58.5183565 212.528918,56.2840032 L162.998178,56.2840032 L162.999805,56.2833471 Z M24.8694461,71.9540636 L14.2437762,104.201207 C15.2805514,104.029186 16.6022005,103.812776 16.580189,103.816776 C16.6300339,103.807175 22.1465554,102.953295 28.4589214,104.95754 C35.3853773,107.153808 45.0377546,108.889381 57.1329337,110.117531 L64.0053179,89.5966212 C35.6758339,86.2122073 27.2029878,76.160578 24.8710411,71.9608644 L24.8694461,71.9540636 Z" id="Shape" fill="#FFFFFF" fill-rule="nonzero" transform="translate(113.386347, 76.751618) scale(-1, 1) rotate(-180.000000) translate(-113.386347, -76.751618) "></path>
                    <path d="M215.549555,173.821257 C215.549555,173.821257 213.779062,180.742104 207.179589,186.334788 C207.179589,186.334788 207.000147,194.083735 201.056633,199.668418 C200.516314,199.412387 199.862348,199.346379 199.216357,199.580408 C197.58543,200.17648 197.090968,198.936329 197.090968,198.936329 C197.090968,198.936329 196.724109,198.064222 194.770187,198.682298 C192.812277,199.300373 192.539126,201.616657 192.630841,201.944697 C192.696636,202.204728 193.173154,203.174847 193.149229,204.104961 C188.748915,205.423122 182.980856,205.767164 175.386478,204.350991 L174.760425,200.460515 C174.760425,200.460515 171.221433,210.255713 148.721417,207.681398 C148.721417,207.681398 147.911935,198.544281 157.880927,192.419532 L156.650753,191.467415 C156.650753,191.467415 143.065011,195.539913 143.806704,208.719525 C143.806704,208.719525 127.93208,215.538359 116.326179,210.681765 C116.326179,210.681765 119.936948,208.961555 123.340362,203.796923 C123.340362,203.796923 123.753078,203.11484 123.21874,202.608778 C122.686396,202.104716 122.068319,202.46076 121.948691,202.520767 C121.948691,202.520767 116.750858,205.413121 109.210312,207.093326 C109.000963,206.249223 108.426749,205.539136 107.45577,205.57314 C105.260597,205.65515 104.524886,204.060955 104.524886,204.060955 C104.524886,204.060955 104.55878,202.118718 101.883103,201.194605 C97.3830996,199.646416 95.4909848,201.144599 93.1721972,202.37675 C91.0228824,203.514889 91.4415801,206.47325 93.658684,207.911426 C84.7384296,206.697278 75.2240232,202.130719 67.5558742,190.643315 C67.5558742,190.643315 57.9637097,175.519465 48.3715451,170.020793 C48.3715451,170.020793 44.5075637,168.164566 44.9342366,163.652014 C45.3589156,159.137462 49.1870087,159.809544 49.6136816,159.625521 C50.0403545,159.441499 55.3578151,158.965441 59.0403609,148.524164 C60.4380136,144.559679 62.0809036,144.315649 62.0809036,144.315649 C62.0809036,144.315649 78.6035116,148.438153 85.3525195,148.928213 C85.3525195,148.928213 86.871794,146.487915 87.2346653,144.169631 L89.8026778,144.375656 C89.8026778,144.375656 89.2105196,147.360021 87.4081258,149.650301 C87.4081258,149.650301 88.0999738,153.246741 91.3777786,154.042839 C91.3777786,154.042839 93.8102127,152.184611 94.2348918,149.740312 C94.232898,149.740312 97.5266531,149.96234 98.1646686,149.96234 C98.1646686,149.96234 99.4367121,147.306015 99.5403896,145.287768 C99.5403896,145.287768 101.436492,145.38378 101.859177,145.277767 C101.859177,145.277767 101.592008,148.378146 100.294045,150.598417 C100.294045,150.598417 101.544157,154.554901 105.142963,156.771172 C105.142963,156.771172 107.366049,154.62891 107.366049,150.37839 L109.399723,150.272377 C109.399723,150.272377 110.669773,147.828079 110.777438,145.38578 C110.777438,145.38578 112.663571,145.38378 113.086257,145.277767 C113.086257,145.277767 113.285636,147.996099 111.38754,151.312505 C111.38754,151.310504 112.153159,155.124971 115.058123,156.843181 C115.058123,156.843181 117.538409,154.840936 117.432737,149.954339 L118.712756,149.838324 C118.712756,149.836324 119.456443,147.073986 119.352765,144.843714 L121.667565,144.639689 C121.667565,144.639689 122.088257,148.016102 120.870046,150.844447 C120.870046,150.844447 121.625695,153.97683 124.293398,155.471013 C124.293398,155.471013 126.219407,153.034715 125.693044,149.31426 L128.129466,149.208247 C128.129466,149.208247 133.744003,157.711287 122.833937,159.411495 C122.833937,159.411495 121.137215,156.75517 120.184179,156.221105 L119.761494,156.647157 C119.761494,156.647157 121.563888,161.325729 115.949351,161.643768 C115.949351,161.643768 112.346557,161.961807 111.818201,161.855794 C111.818201,161.855794 111.60287,159.411495 110.7575,158.135339 L110.119484,158.135339 C110.119484,158.135339 109.698793,162.597885 103.023556,161.855794 L96.350312,161.111703 C96.350312,161.111703 98.6810624,158.985443 96.7749911,156.861183 C96.7749911,156.861183 97.0939988,161.959807 70.7200324,155.69104 L70.7200324,156.543144 C70.7200324,156.541144 79.5086962,161.641768 92.5381693,164.086067 C92.5361755,164.086067 86.8139738,167.38047 85.1232327,169.930782 C83.428504,172.481093 76.4382465,176.413574 71.0370464,178.007769 L71.0370464,178.75186 C71.0370464,178.75186 84.9118901,178.74986 92.5381693,170.780886 C92.5361755,170.780886 96.2466345,173.331197 101.647835,173.331197 C107.049035,173.331197 111.60287,178.007769 111.60287,178.007769 L112.133221,177.581717 C112.133221,177.581717 109.593122,171.312951 103.131221,169.294704 C96.6693197,167.274457 97.7260329,168.336587 96.7749911,167.698509 C96.7749911,167.698509 100.164448,165.680262 100.798476,165.362223 C100.798476,165.362223 110.119484,167.484482 112.025556,165.25421 L118.381785,165.362223 C118.381785,165.362223 123.362294,165.574249 123.784979,162.705898 C123.784979,162.703898 138.828189,161.00569 132.366288,148.784195 C132.366288,148.784195 145.393767,147.934091 160.646326,143.789585 C160.646326,143.789585 164.566133,142.621442 165.943848,142.621442 C165.943848,142.621442 161.176676,146.659936 156.196167,147.934091 C151.219646,149.208247 132.20479,156.847182 137.159379,179.807989 L139.250874,177.263678 C139.250874,177.263678 141.597575,184.446557 147.098465,188.39904 C147.098465,188.39904 138.405504,176.055531 146.13546,164.936171 C152.49169,155.797053 158.317569,154.946949 158.317569,154.946949 C158.317569,154.946949 167.211904,153.140728 169.65032,147.826078 C172.088735,142.513429 178.3373,135.396558 187.656314,134.75648 C196.977322,134.120402 199.371874,139.405048 200.24117,141.70333 C200.24117,141.70333 187.317368,137.976874 182.823346,145.433786 C179.394013,151.120481 175.898884,152.598662 175.898884,152.598662 C175.898884,152.598662 179.820686,152.608663 180.773721,152.076598 C180.773721,152.076598 169.546642,160.475625 178.444965,172.163055 C178.444965,172.163055 182.723656,153.886819 206.850612,164.3541 C206.850612,164.3541 200.765539,167.172444 197.284367,174.079289 C197.284367,174.079289 209.013883,169.634745 215.549555,173.821257 L215.549555,173.821257 Z" id="Shape" stroke="#79BDE8" stroke-width="0.797519396"></path>
                    <g transform="translate(7.975194, 8.000978)" id="Shape" fill-rule="nonzero">
                        <path d="M117.55077,1.68147355 C114.430396,1.72516689 111.262011,2.20816196 108.360635,3.42232645 C108.360635,3.42232645 111.969729,5.14285686 115.373223,10.3074885 C115.373223,10.3074885 115.786051,10.9890758 115.251729,11.4951377 C114.719385,11.9991993 114.103429,11.6426597 113.983801,11.5826524 C113.983801,11.5826524 108.785888,8.69045871 101.245342,7.01025323 C101.035994,7.85435646 100.462402,8.56631553 99.4914378,8.53231137 C97.2963454,8.45030134 96.559916,10.041872 96.559916,10.041872 C96.559916,10.041872 96.5938106,11.9837095 93.9182128,12.9078225 C89.4182894,14.4560118 87.5265733,12.9585807 85.2078655,11.72643 C83.0585507,10.5882908 83.4767699,7.62960897 85.6938578,6.19135308 C76.7736034,7.40550157 67.2583995,11.97174 59.591048,23.4590648 C59.591048,23.4590648 49.9991227,38.5847546 40.4075165,44.0839871 C40.4075165,44.0839871 36.5414614,45.9410142 36.9682938,50.4535661 C37.3929729,54.9680382 41.2208267,54.2949959 41.6474996,54.4790184 C42.0741725,54.6630409 47.3918723,55.1390991 51.0744979,65.580376 C52.4721506,69.5448609 54.1149608,69.7903309 54.1149608,69.7903309 C54.1149608,69.7903309 70.6379677,65.6672666 77.3865768,65.1772867 C77.3865768,65.1772867 78.9084671,67.6158249 79.2712746,69.9341885 L81.8383301,69.7279072 C81.8383301,69.7279072 81.2450554,66.7456225 79.4425818,64.4554224 C79.4425818,64.4554224 80.1368065,60.8572224 83.4145474,60.061125 C83.4145474,60.061125 85.8466625,61.9205524 86.2712619,64.3648514 C86.2693478,64.3648514 89.5616674,64.1429522 90.1996829,64.1429522 C90.1996829,64.1429522 91.4729705,66.7971968 91.576648,68.8153636 C91.576648,68.8153636 93.4717136,68.7218802 93.8943989,68.8278452 C93.8943989,68.8278452 93.628474,65.7255458 92.3305112,63.5052742 C92.3305112,63.5052742 93.5791235,59.5489504 97.1779936,57.3326794 C97.1779936,57.3326794 99.4022752,59.4766216 99.4022752,63.7272214 L101.436588,63.8334904 C101.436588,63.8334904 102.705888,66.2761891 102.813553,68.7184078 C102.813553,68.7184078 104.699367,68.7217682 105.122052,68.8277972 C105.122052,68.8277972 105.322309,66.1090647 103.424134,62.7926591 C103.424134,62.7945793 104.189003,58.9789127 107.093999,57.2607826 C107.093999,57.2607826 109.573487,59.2624674 109.467895,64.149145 L110.748281,64.2647911 C110.748281,64.2667114 111.490596,67.0320095 111.386918,69.2622023 L113.701638,69.4653471 C113.701638,69.4653471 114.12233,66.0897343 112.904119,63.2613884 C112.904119,63.2613884 113.660136,60.1269251 116.32787,58.6326624 C116.32787,58.6326624 118.256112,61.0692803 117.729765,64.7897353 L120.165868,64.8960043 C120.165868,64.8960043 125.779926,56.3917643 114.869861,54.6915564 C114.869861,54.6915564 113.171782,57.3485213 112.218747,57.8825066 L111.798183,57.4574626 C111.798183,57.4574626 113.59962,52.7780104 107.985083,52.4600515 C107.985083,52.4600515 104.382529,52.1415165 103.854252,52.2475295 C103.854252,52.2475295 103.637295,54.6937486 102.791924,55.9699047 L102.156397,55.9699047 C102.156397,55.9699047 101.734956,51.5055187 95.0597502,52.2475295 L88.3867459,52.9913645 C88.3867459,52.9913645 90.7164595,55.1175445 88.8104201,57.2418043 C88.8104201,57.2418043 89.1310548,52.145021 62.7570565,58.4138196 L62.7570565,57.5605952 C62.7570565,57.5625155 71.5441252,52.4633319 84.573997,50.019033 C84.572083,50.019033 78.8503598,46.7248701 77.1596187,44.1746382 C75.46489,41.6242463 68.4733565,37.6896851 63.0722361,36.0955702 L63.0722361,35.3517352 C63.0722361,35.3517352 76.9477976,35.3555757 84.573359,43.3245503 C84.571445,43.3245503 88.2813457,40.7741584 93.6824661,40.7741584 C99.0837459,40.7741584 103.639017,36.0955062 103.639017,36.0955062 L104.168618,36.5236866 C104.168618,36.5236866 101.627243,42.790853 95.1654215,44.8090198 C88.7036003,46.8292669 89.7612705,45.7680171 88.8101489,46.4060951 C88.8101489,46.4060951 92.2010419,48.4226617 92.8350698,48.7407806 C92.8350698,48.7407806 102.153446,46.6198813 104.059517,48.85017 L110.41782,48.7407806 C110.41782,48.7407806 115.397053,48.5290107 115.819738,51.3974255 C115.819738,51.3993458 130.864304,53.0995537 124.402483,65.3210483 C124.402483,65.3210483 137.427569,66.1708962 152.680925,70.3154191 C152.680925,70.3154191 156.602328,71.484314 157.980123,71.484314 C157.980123,71.484314 153.212871,67.4452601 148.232362,66.1711843 C143.255841,64.8970284 124.239789,57.256174 129.193979,34.295286 L131.287467,36.8392771 C131.287467,36.8392771 133.634089,29.6591991 139.134899,25.7067157 C139.134899,25.7067157 130.442256,38.0496652 138.172261,49.168785 C144.528491,58.3078226 150.353094,59.1575265 150.353094,59.1575265 C150.353094,59.1575265 159.248147,60.9625473 161.686642,66.2771172 C164.125137,71.5897669 170.37418,78.7074374 179.693035,79.3475157 C189.014122,79.9835934 191.406521,74.6981471 192.275817,72.399786 C192.275817,72.399786 179.352175,76.1280819 174.857994,68.67117 C171.42866,62.9843945 167.932654,61.5046936 167.932654,61.5046936 C167.932654,61.5046936 171.855014,61.4946124 172.80805,62.0266294 C172.80805,62.0266294 161.582645,53.6272022 170.480888,41.9393729 C170.480888,41.9393729 174.759261,60.2168081 198.886934,49.749768 C198.886934,49.749768 192.801064,46.9303832 189.319891,40.0236186 C189.319891,40.0236186 201.049328,44.4696023 207.584681,40.2830263 C207.584681,40.2830263 205.813231,33.3616999 199.213917,27.7690159 C199.213917,27.7690159 199.035847,20.0208684 193.092318,14.4361854 C192.551998,14.6922167 191.897155,14.7577127 191.251164,14.5237001 C189.620237,13.9276272 189.126573,15.1675228 189.126573,15.1675228 C189.126573,15.1675228 188.759586,16.0387494 186.805632,15.4206738 C184.847722,14.8025982 184.573694,12.4857549 184.665409,12.1577147 C184.731284,11.8976829 185.209588,10.9281884 185.185663,9.99809063 C180.785269,8.67992942 175.016493,8.33820763 167.421715,9.75431681 L166.795535,13.6423123 C166.795535,13.6423123 163.257739,3.84831454 140.758122,6.42270938 C140.758122,6.42270938 139.948145,15.5591867 149.917154,21.6839357 L148.686613,22.6371723 C148.686613,22.6371723 135.100551,18.5646743 135.842244,5.38546253 C135.842244,5.38546253 126.913217,1.55075356 117.551934,1.68180959 L117.55077,1.68147355 Z M89.9486238,5.8570242 C89.7811447,5.91703154 89.5759111,5.95453532 89.3286801,5.9445341 C88.3277932,5.9085297 88.1861059,7.60377701 89.0514145,7.86972954 C89.9147292,8.13576207 90.275862,9.29315162 90.4034651,9.50112905 C90.5290744,9.70915449 91.9076664,10.7008918 93.3412075,9.966818 C94.7727548,9.23472847 94.5187927,8.6135325 94.5187927,8.6135325 C94.5187927,8.6135325 94.1444531,7.74368212 95.3786144,7.16961192 C95.8631074,6.94358428 96.1958165,6.57241889 96.369277,6.16636923 C94.3196522,5.92033914 92.1677853,5.79894829 89.9486079,5.85695539 L89.9486238,5.8570242 Z M196.195753,7.74797545 C205.229733,14.1367568 205.642848,20.1203685 205.529282,21.9465118 C208.147059,23.0306444 209.907344,25.267878 210.956082,27.0720987 C210.509471,23.5055825 208.063001,22.0614059 207.937312,21.9933976 L207.588397,21.808991 L207.588397,21.4120625 C207.588397,14.7512479 201.447338,10.3222263 196.195673,7.74783143 L196.195753,7.74797545 Z M51.5241393,23.2810751 C51.5241393,23.2810751 47.6416554,25.3118834 42.0411552,29.0224172 C42.7409785,30.296573 42.1875798,32.47964 40.492851,32.4196327 C38.2956851,32.3396229 37.5613292,33.9323136 37.5613292,33.9323136 C37.5613292,33.9323136 37.5921135,35.8762314 34.9164359,36.7982641 C33.4749196,37.2943248 31.8073863,37.5631097 30.3618026,37.6171163 C27.2235638,40.1793496 24.0114747,43.0411396 20.9131119,46.1775232 C20.931056,46.1955254 20.9685714,46.225161 20.9785403,46.2431632 C21.2516907,46.699219 22.0468495,49.2251279 23.9349447,49.8091993 C25.8269798,50.3912705 25.5175263,54.1010842 23.3243479,54.0191541 C21.127182,53.9411446 20.3928262,55.5349555 20.3928262,55.5349555 C20.3928262,55.5349555 20.4236104,57.4737526 17.7479328,58.3978656 C14.4720422,59.5240034 12.5812832,59.0335594 10.9004313,58.2134591 C1.64314516,71.8250437 -2.77511229,88.5307667 7.66058851,106.697788 C7.66058851,106.697788 0.838607595,87.7546718 15.6325924,67.0961454 C15.6325924,67.0961454 16.0105368,66.454931 16.6824469,66.7429822 C17.3523632,67.0310174 16.9192145,67.8493735 16.9192145,67.8493735 C16.9192145,67.8493735 12.563642,80.7267883 17.0157941,91.8747117 C17.0157941,91.8747117 23.6685414,79.2826117 45.8142195,71.7090455 C45.8142195,71.7090455 47.32252,61.9464116 36.4184839,59.4200226 C25.5144798,56.8957139 31.2164244,45.6216952 34.0694703,42.9268056 C36.9245898,40.2344764 48.3404419,33.0899226 51.5239798,23.2812031 L51.5241393,23.2810751 Z M211.953141,41.2112678 C208.270515,47.4000247 200.918663,49.3778665 200.918663,49.3778665 C200.918663,49.3778665 204.107305,52.382554 208.086926,49.6122632 C213.424245,45.8918082 211.952981,41.2112358 211.952981,41.2112358 L211.953141,41.2112678 Z M18.0283247,49.2216874 C16.5768394,50.8218831 15.1738433,52.4841664 13.8319371,54.2003763 C14.0452736,54.5484189 14.1668953,54.8870843 14.2306968,54.991097 C14.3543123,55.1971222 15.736892,56.1888755 17.1684393,55.456786 C18.6019804,54.7246964 18.3491508,54.1035005 18.3491508,54.1035005 C18.3491508,54.1035005 17.9708236,53.2325139 19.2089724,52.6564435 C20.4491151,52.0823733 20.7443249,50.5369843 19.6856179,49.9748356 C19.1472923,49.6868003 18.6543296,49.3716418 18.028213,49.2216234 L18.0283247,49.2216874 Z M165.272736,77.5659538 C164.23596,77.7339743 162.914311,77.9481285 162.936323,77.944128 C162.89852,77.952129 159.589134,78.450942 155.194802,77.7628579 L149.152795,96.3027252 C139.363245,92.482258 123.05477,91.8676228 121.276302,91.8116159 C128.170857,92.923752 133.707716,94.4522589 138.151813,96.1684688 C142.191248,97.6886547 145.292801,99.3218144 147.653459,100.894007 L147.612961,101.015894 C151.971404,103.994178 154.109554,106.894372 155.108367,108.710595 C157.305533,101.981772 164.807479,78.99016 164.809393,78.9885598 L165.279802,77.5665139 L165.272736,77.5659538 Z M171.849081,85.8232836 L163.789828,110.114254 L194.326846,110.114254 L194.563613,110.114254 L194.706848,110.304902 C194.958066,110.642943 195.030848,111.606053 195.030848,112.630146 L196.301887,112.148839 C197.20109,107.306167 193.364623,102.969797 193.32682,102.925791 L193.174175,102.757019 L193.208468,102.535119 C193.643116,99.8087059 197.397997,97.1787843 197.557501,97.0688509 L197.847224,96.8688264 L198.12449,97.0907256 C200.287681,98.8330186 201.473593,100.877269 201.650961,103.169549 C201.882241,106.161915 200.341163,108.753432 199.43593,110.001584 L205.579382,110.001584 L206.049791,110.001584 L206.049791,110.476651 C206.049791,110.710679 205.977695,111.320626 205.900336,111.898696 C206.197412,111.634664 207.34434,111.338628 207.65743,111.048593 C209.092965,104.957768 206.424768,101.350126 206.398849,101.316202 L206.239983,101.113057 L206.324042,100.869284 C207.410662,97.6788135 211.283177,95.9187582 211.448742,95.8467494 L211.775836,95.7029878 L212.006383,95.9748931 C216.568194,101.401477 213.00676,107.062809 211.395771,109.11714 L217.268065,109.11714 L217.61387,109.11714 L217.72297,109.439052 C217.920357,110.043126 217.986535,111.149341 218.006473,112.03937 L219.218319,111.56744 C220.131479,106.946875 217.445593,102.510332 217.41768,102.466327 L217.302359,102.27568 L217.367755,102.066278 C218.340729,99.1339194 221.16315,96.7406667 221.286766,96.6406545 L221.598293,96.37499 L221.903583,96.6468953 C226.441468,100.683389 223.620164,106.892468 222.451878,109.004727 L225.654397,109.004727 L226.006422,109.004727 L226.109142,109.345392 C226.274627,109.89946 227.091335,110.750812 227.037503,111.526939 C228.78407,108.164608 226.83825,103.750948 226.816319,103.701022 L226.738481,103.529129 L226.800847,103.3541 C227.494689,101.267764 230.410419,98.6311219 230.536108,98.5191082 L230.906843,98.1846993 L231.221481,98.5753711 C234.200216,102.267823 232.202063,107.077211 231.258805,108.895353 L231.691826,108.895353 C236.526707,104.53674 235.132643,99.4309958 235.068842,99.2128891 L235.052891,99.1566262 L235.046511,99.0972429 C234.972821,97.3450287 231.336132,96.2922599 229.591638,95.9562188 C228.708385,97.544413 226.610511,98.2808231 226.516882,98.312827 L225.479485,98.6566131 L225.937436,97.6627475 C226.390028,96.6726264 226.401624,95.876129 225.97476,95.2280498 C224.814369,93.4758355 220.665673,93.1300332 218.731689,93.1340337 C218.446576,95.4703194 217.217407,96.4310769 217.161581,96.4750823 L216.454404,96.9907613 L216.404639,96.1156463 C216.358702,95.2735433 216.002131,94.5854592 215.314286,94.0153895 C212.638609,91.787117 206.056681,92.1770846 203.815652,92.3870303 C204.174536,93.0251084 204.315968,93.6580658 204.236216,94.2840623 C204.080699,95.4502049 203.186856,96.1126059 203.148973,96.1406094 L202.588222,96.546915 L202.410646,95.8780813 C201.684903,93.103662 186.573984,93.6120441 177.217008,94.584179 L176.693628,94.6373055 L176.693628,94.1122493 L176.693628,93.7653269 L176.693628,93.4840445 L176.939743,93.34966 C179.075181,92.1875179 184.784781,91.1290685 187.217216,90.7149378 C185.159616,89.0907392 184.186004,87.2101892 183.837169,86.3800077 C179.606328,87.7101704 173.538163,86.2757389 171.849495,85.8236837 L171.849081,85.8232836 Z M82.7454286,88.279904 C71.3737591,88.2218969 58.0685835,89.612563 48.1059712,95.0181681 L45.2045956,104.10888 C48.1056522,116.942449 86.9754715,110.912912 86.9754715,110.912912 C80.9880149,111.002923 76.1083127,110.712519 72.1465554,110.22846 C66.047446,109.610385 62.6603812,108.573378 60.289675,107.481244 C57.7675997,106.477121 56.7973376,105.64358 56.7973376,105.64358 L60.3518815,94.9641935 C60.3537956,94.9641935 60.3573046,94.9609931 60.3612922,94.9609931 L60.6821662,94.8359698 C66.8948423,92.4257551 75.8908611,89.9635339 95.5241935,89.9635339 C99.1707712,89.9635339 102.576498,90.0591776 105.798476,90.2291984 C103.568453,89.8441593 94.1293321,88.336967 82.7581411,88.2788799 L82.7454286,88.279904 Z M114.008189,112.719693 C114.008189,112.719693 141.37746,118.360063 136.952822,132.56532 L132.279837,146.260755 C132.279837,146.260755 131.215643,150.539518 124.765769,155.21817 C119.629744,157.9145 112.324306,160.487135 101.859416,162.803418 C99.991307,163.213468 98.1625951,163.599387 96.3421773,163.975433 L94.111675,170.626167 C99.3453163,169.83807 104.426312,168.806904 110.330029,167.500824 C135.257296,161.99007 143.074581,153.057618 145.247024,146.538261 L148.804758,135.871356 C149.883403,132.63496 149.684772,129.624832 148.225312,126.926582 C145.57356,122.028063 138.825589,118.141508 128.162914,115.37509 C124.578064,114.446976 120.731309,113.674082 116.679911,113.027923 C115.02107,112.809896 114.010135,112.718509 114.010135,112.718509 L114.008189,112.719693 Z M191.672223,116.885802 C188.57386,119.580212 185.055523,123.646469 183.167476,129.309242 L167.494306,175.754922 C167.494306,175.754922 161.446238,201.804507 98.1627546,201.804507 C84.7444907,201.804507 78.1721334,200.795264 69.563709,198.701088 C70.8297711,199.103137 72.1559661,199.489184 73.5575267,199.851229 C85.783499,203.023617 91.8605968,204.423628 107.850861,204.423628 C169.658614,204.423628 176.400843,179.204544 176.480595,178.882904 C176.480595,178.882904 192.153765,132.430823 192.153765,132.434024 C194.939022,124.071081 201.092362,119.117515 204.549609,116.885242 L191.670947,116.885242 L191.672223,116.885802 Z M86.2481338,134.958413 L72.2484783,179.0118 C72.2484783,179.0118 92.7798177,190.732753 126.98702,183.149746 C123.834904,183.397776 120.019252,183.543554 115.313888,183.543554 C94.9005812,183.543554 89.6114326,180.8077 85.7498437,178.805535 L85.4133862,178.630521 L84.8495081,178.336725 L85.0519983,177.730411 L99.1207189,135.978105 C95.2798655,135.467643 90.9477401,135.134802 86.2471608,134.960381 L86.2481338,134.958413 Z M12.5653168,159.489413 C10.7480891,159.451168 9.18463212,159.589425 7.89855234,159.870707 L6.27863095,164.786988 C7.31540616,164.616936 8.6370553,164.399677 8.61504377,164.405678 C8.66488873,164.396077 14.1814101,163.542196 20.4937762,165.546441 C27.4202321,167.74271 37.0726094,169.478282 49.1677885,170.706432 L51.5665673,163.533715 C45.0447727,163.637728 32.3319946,163.692295 23.6406282,161.296001 C19.3265268,160.10712 15.5942955,159.553228 12.5656358,159.489541 L12.5653168,159.489413 Z" fill="#FFC52F" transform="translate(118.464112, 103.051077) scale(-1, 1) rotate(-180.000000) translate(-118.464112, -103.051077) "></path>
                        <path d="M174.29587,117.132059 C174.120878,117.116857 173.934498,117.119417 173.735118,117.147741 C172.134018,117.369768 172.102756,118.013479 172.102756,118.013479 C172.102756,118.013479 172.073407,118.916469 170.719554,119.060487 C169.363771,119.200504 168.441839,120.514408 169.155682,121.354527 C169.865474,122.19263 170.346841,123.083539 172.492184,123.073457 C173.764228,123.071377 174.130927,122.260862 174.130927,122.260862 C174.130927,122.260862 174.739897,121.700041 175.62315,122.042083 C176.508396,122.386125 177.353607,120.892567 176.691698,120.38252 C176.031767,119.874458 176.19537,118.710316 176.171444,118.482288 C176.148795,118.282759 175.521019,117.238424 174.295998,117.132123 L174.29587,117.132059 Z M123.438058,118.488481 C122.311594,118.436778 120.988398,118.621249 119.356992,119.182309 C116.737141,120.08842 116.317646,121.876239 116.247942,122.498395 C116.088439,122.756427 115.469611,123.573535 114.036102,123.523512 C112.75409,123.475507 111.729038,124.40074 111.487709,125.826994 C111.268391,127.137154 111.77992,128.693265 113.185627,129.127398 C114.443714,129.515445 115.168101,131.126682 115.51901,131.902777 C115.612718,132.114803 115.677764,132.26695 115.749541,132.380964 C116.238021,133.175061 119.669029,135.433977 123.120374,133.671745 C126.739198,131.821599 126.116655,129.998976 126.027014,129.78695 L126.033234,129.799432 C125.981395,129.665416 125.587867,128.475526 127.559734,127.555477 C129.260365,126.765381 130.386143,125.169586 130.43208,123.48938 C130.465975,122.153217 129.812886,121.029879 128.634471,120.407723 C128.636385,120.407723 127.952209,120.035806 127.952209,120.035806 C126.642683,119.310917 125.30923,118.573227 123.43187,118.486816 L123.438058,118.488481 Z M145.594742,119.282178 C145.594742,119.282178 148.028293,124.506017 153.423512,128.136381 C155.038488,127.198266 157.281591,126.119974 159.831739,125.557985 C159.831739,125.557985 159.540884,120.716113 149.270828,119.575974 L145.594264,119.281538 L145.594742,119.282178 Z M181.261405,120.426062 C181.018751,120.459378 180.783005,120.57296 180.579143,120.785482 C179.757698,121.635586 178.884095,122.269535 178.949811,124.407845 C178.991601,125.684001 179.806522,125.908028 179.806522,125.908028 C179.806522,125.908028 180.381852,126.419211 180.058857,127.361326 C179.745831,128.301441 181.258868,128.893017 181.747365,128.148926 C182.235846,127.402835 183.401739,127.370207 183.629032,127.308199 C183.860313,127.244191 185.161019,126.207809 184.89385,124.651554 C184.628675,123.097364 183.984184,123.170125 183.984184,123.170125 C183.984184,123.170125 183.082604,123.289884 182.903162,121.963722 C182.771571,120.966096 181.989348,120.326081 181.261389,120.42603 L181.261405,120.426062 Z M71.4366036,122.632731 C70.6215388,122.656734 69.7570277,122.848758 68.8909217,123.292012 C65.2682696,125.138318 65.8935248,126.960781 65.9812519,127.176807 C66.0398696,127.33265 66.4059948,128.49548 64.4485153,129.40524 C62.7537866,130.193336 61.6262537,131.788091 61.5823901,133.468297 C61.544508,134.80446 62.1973573,135.930038 63.3736187,136.556194 L64.049644,136.924991 C66.1391448,138.081133 68.3023364,139.276479 72.6448295,137.778216 C75.2667543,136.876105 75.6872065,135.082206 75.7570692,134.46213 C75.9165731,134.202098 76.5354003,133.389007 77.9689095,133.437013 C79.2509219,133.485019 80.2718265,132.555529 80.5110823,131.12729 C80.7284064,129.81913 80.2177387,128.268381 78.810133,127.836328 C77.5600213,127.450281 76.839303,125.839284 76.4923821,125.067189 C76.3926922,124.851163 76.324281,124.69652 76.2525042,124.576505 C75.8936205,123.985425 73.88116,122.559458 71.4362846,122.632587 L71.4366036,122.632731 Z M120.661096,124.645458 C121.323723,124.610861 121.870837,124.961496 122.00691,125.083015 C122.016799,125.105018 122.024104,125.119516 122.038061,125.145519 C122.241428,125.597574 122.717069,126.655831 123.73598,126.973902 C123.759905,126.989904 123.811361,127.092909 123.801408,127.248944 C123.791519,127.398962 123.734991,127.490093 123.711065,127.502095 C123.711065,127.502095 123.703249,127.505295 123.689261,127.505295 C122.524883,127.46329 121.87618,128.179634 121.6768,128.611687 L121.608262,128.761705 L121.611452,128.924221 C121.60555,128.936222 121.561479,129.30902 120.885581,129.543049 C119.330419,130.077114 118.685225,129.721438 117.792004,129.227394 L117.468211,129.049772 C117.2788,128.94976 117.18809,128.794989 117.194056,128.580963 C117.202031,128.272925 117.426963,127.864251 117.907469,127.640224 C119.161568,127.058153 119.350596,126.063775 119.169176,125.433714 C119.207058,125.367706 119.359704,125.142558 119.969806,124.83052 C120.205569,124.710506 120.440534,124.657651 120.661399,124.646114 L120.661096,124.645458 Z M93.7511963,125.282335 C93.4683321,125.262829 93.1676354,125.288736 92.8570973,125.366714 C91.4674197,125.716757 90.0740736,127.061001 90.2495279,128.617031 C90.4050442,129.973197 89.2323238,131.486182 88.6700726,132.214271 C88.5185439,132.404294 88.4116285,132.543191 88.3398517,132.661206 C87.8274455,133.493308 87.1859369,137.697662 90.1467117,139.884009 C93.2543257,142.169409 94.6150533,140.717599 94.7791828,140.518455 L94.7854035,140.512214 C94.953058,140.312542 95.8245234,139.440003 97.3400176,140.662232 C98.6339928,141.70236 100.357991,141.945637 101.835475,141.293558 C103.179295,140.701485 104.039978,139.480536 104.137754,138.024358 L104.203182,137.22114 C104.408544,134.756838 104.617637,132.207246 101.555099,129.088945 C99.8901975,127.400739 98.1425135,127.606636 97.2870942,128.010685 C96.9860307,128.002684 96.1015338,127.86854 95.6110275,126.632389 C95.2904247,125.82429 94.6013679,125.342631 93.7528073,125.283424 L93.7511963,125.282335 Z M172.139378,125.863655 C171.192323,129.882066 173.092653,132.573915 173.092653,132.573915 C173.092653,132.573915 170.095575,136.501596 174.952468,138.527763 C179.805373,140.550091 184.678536,137.502646 184.678536,137.502646 L192.575892,143.09709 L187.955862,135.564969 C175.410882,134.092789 172.139457,125.863783 172.139457,125.863783 L172.139378,125.863655 Z M165.086276,126.098051 C164.602787,126.082369 164.067955,126.247574 163.90247,126.585615 C163.567512,127.263698 162.306155,127.602731 162.076948,127.710744 C161.843673,127.818758 160.701339,128.932142 161.407143,129.992303 C162.118929,131.054433 162.805928,130.826774 162.805928,130.826774 C162.805928,130.826774 163.761197,130.48998 164.307498,131.408093 C164.861774,132.328205 166.508492,132.469854 167.170433,131.623751 C167.83038,130.779648 168.61482,130.080314 167.964842,128.542094 C167.580039,127.625982 166.625265,127.685733 166.625265,127.685733 C166.625265,127.685733 165.85778,127.468203 165.955476,126.698109 C166.001413,126.311053 165.569796,126.113781 165.086292,126.098035 L165.086276,126.098051 Z M192.224266,126.460592 C191.511539,126.407433 191.333277,126.735633 191.333277,126.735633 C191.333277,126.735633 190.901006,127.560614 189.672842,127.082556 C188.440674,126.600497 187.05634,127.400226 187.289694,128.498361 C187.524962,129.594495 187.540291,130.636382 189.392593,131.592499 C190.493154,132.162569 191.16835,131.576817 191.16835,131.576817 C191.16835,131.576817 191.946553,131.33466 192.554662,132.048747 C193.158783,132.766835 194.563135,131.760456 194.218287,130.992362 C193.881335,130.222268 194.547759,129.223505 194.629504,129.001558 C194.71133,128.777531 194.607333,127.178935 193.127919,126.666873 C192.759066,126.538361 192.462054,126.478322 192.224489,126.460592 L192.224266,126.460592 Z M71.6217876,128.57029 C72.4993779,128.469125 73.0299038,128.762313 73.7028347,129.132854 C73.8065122,129.190861 73.9214029,129.250997 74.0330556,129.311004 C74.216485,129.409016 74.3038453,129.559531 74.2978639,129.773557 C74.2898887,130.083595 74.0660888,130.493389 73.5875772,130.717416 C72.333478,131.301488 72.1402071,132.293865 72.319649,132.923926 C72.289742,132.985934 72.1362195,133.216218 71.5221296,133.530256 C70.5830505,134.010315 69.6723631,133.435989 69.4910072,133.273969 C69.483032,133.253966 69.4780874,133.245965 69.4660767,133.223963 C69.2627093,132.767907 68.7899238,131.700272 67.7651273,131.386298 C67.749177,131.374296 67.6906071,131.28691 67.6965885,131.12689 C67.6985026,130.966871 67.7618894,130.868987 67.7838212,130.854985 L67.811862,130.854985 C68.9782341,130.89699 69.6207955,130.177526 69.8181018,129.745473 L69.8835303,129.601712 L69.8835303,129.442316 C69.8875179,129.428234 69.9335028,129.05014 70.6094005,128.814111 C70.9971864,128.681103 71.3293532,128.604054 71.6218833,128.570338 L71.6217876,128.57029 Z M149.965308,131.361191 C149.145952,131.440513 148.269463,132.536087 148.653755,133.355195 C149.156193,134.443328 148.375246,135.955833 148.295494,136.289954 C148.207767,136.619994 148.476674,138.932837 150.432527,139.552913 C152.388363,140.170988 152.756498,139.296625 152.756498,139.296625 C152.756498,139.296625 153.244245,138.06073 154.88109,138.652803 C156.514091,139.246875 158.23737,137.960846 157.840684,136.380685 C157.441925,134.808492 157.330272,133.293587 154.849987,132.061437 C153.378563,131.327347 152.550898,132.239586 152.550898,132.239586 C152.550898,132.239586 151.565339,132.657765 150.715965,131.667644 C150.504622,131.420606 150.238283,131.334916 149.96518,131.361351 L149.965308,131.361191 Z M97.5507382,132.111283 C97.7237042,132.127781 97.9088722,132.193165 98.0803389,132.333182 C98.6924351,132.823242 99.2403628,132.877504 99.5912713,132.8395 C100.11564,132.777492 100.458701,132.499458 100.616211,132.339439 C100.678019,132.335438 100.908805,132.35128 101.401273,132.711356 C102.18683,133.293427 102.001774,134.447568 101.933985,134.661675 C101.918034,134.683677 101.906071,134.707552 101.88414,134.733555 C101.539212,135.175609 100.819451,136.091977 100.937085,137.14009 C100.941073,137.170093 100.909045,137.250103 100.809355,137.340114 C100.67577,137.462129 100.527112,137.505766 100.45733,137.505766 C100.00075,136.431635 99.0503299,136.222105 98.6037349,136.268111 L98.4479635,136.283793 L98.3108858,136.365051 C98.2490781,136.393054 97.9521297,136.494699 97.5414072,136.080648 C96.474725,134.994515 96.5366604,134.232422 96.6223937,133.180293 L96.6535448,132.795862 C96.6794642,132.415816 96.9432677,132.248179 97.0928025,132.180171 C97.2184119,132.126164 97.3777881,132.094913 97.5507541,132.111411 L97.5507382,132.111283 Z M163.299832,137.436894 C162.480094,137.515944 161.606858,138.608669 161.985169,139.427697 C162.493588,140.517831 161.715767,142.029296 161.630018,142.359256 C161.540377,142.689296 161.810337,145.00726 163.770241,145.625255 C165.724164,146.247331 166.087992,145.372104 166.087992,145.372104 C166.087992,145.372104 166.577717,144.133073 168.212584,144.725145 C169.849412,145.319218 171.575085,144.034309 171.178399,142.456068 C170.779639,140.881875 170.674223,139.36465 168.193922,138.130579 C166.718511,137.396489 165.888612,138.308729 165.888612,138.308729 C165.888612,138.308729 164.90106,138.731148 164.053679,137.743027 C163.841332,137.496501 163.573014,137.410395 163.299768,137.436734 L163.299832,137.436894 Z M143.593128,140.415338 C143.147697,140.424459 142.670749,140.526104 142.191232,140.771638 C140.269211,141.753758 140.611777,142.584339 140.611777,142.584339 C140.611777,142.584339 141.121073,143.745729 139.462233,144.515776 C137.805306,145.28787 137.403995,147.357883 138.823595,148.109975 C140.241186,148.862067 141.398147,149.780099 144.147675,148.831935 C145.784504,148.267866 145.767596,147.081641 145.767596,147.081641 C145.767596,147.081641 146.217078,146.107394 147.558825,146.1534 C148.904639,146.203406 149.089073,143.935209 147.93267,143.581245 C146.780255,143.221201 146.292173,141.676692 146.12262,141.396658 C145.991827,141.190233 144.924746,140.390135 143.588104,140.417338 L143.593128,140.415338 Z M157.459438,146.381668 C156.537554,146.313307 156.306767,146.734831 156.306767,146.734831 C156.306767,146.734831 155.745138,147.796705 154.154103,147.178629 C152.567055,146.558553 150.778203,147.591928 151.079347,149.010053 C151.384398,150.428227 151.405341,151.775511 153.795857,153.013743 C155.217436,153.749833 156.094946,152.991868 156.094946,152.991868 C156.094946,152.991868 157.098449,152.676326 157.879954,153.604439 C158.667505,154.528552 160.477475,153.229641 160.038839,152.23552 C159.59821,151.239398 160.458526,149.95028 160.562203,149.660165 C160.669868,149.37213 160.533652,147.309317 158.627581,146.647316 C158.150074,146.481792 157.766643,146.404439 157.459342,146.381652 L157.459438,146.381668 Z M49.4641467,149.216414 C48.9095358,149.235505 48.3233271,149.368561 47.7351247,149.66959 C45.2628145,150.927744 45.6430718,152.226703 45.7507369,152.488655 L45.7413262,152.472973 C45.7772146,152.574985 45.9147866,153.111547 44.8939618,153.585605 C43.7196145,154.131672 42.9382848,155.243088 42.906384,156.417151 C42.8784708,157.361267 43.3604756,158.189048 44.1898957,158.633102 C44.3374368,158.711112 44.4856,158.792626 44.6291535,158.870635 C45.9530357,159.600724 47.4526911,160.431322 50.3457725,159.4332 C52.0684144,158.841128 52.4247461,157.664024 52.4984369,157.157882 C52.5921454,157.017865 52.9050442,156.632937 53.6666752,156.660941 C54.6217046,156.694945 55.3821394,156.013118 55.5575937,154.966974 C55.7170975,154.018858 55.3355324,152.89072 54.2927758,152.56668 C53.5969401,152.352654 53.1636637,151.387912 52.9563087,150.92584 C52.8925071,150.781822 52.8481491,150.676305 52.7943166,150.588294 C52.5057102,150.118733 51.1279795,149.158967 49.4640351,149.216254 L49.4641467,149.216414 Z M65.881881,149.904003 C65.0230802,149.904284 64.1230317,150.248541 63.7821719,150.941633 C63.5528851,151.413691 62.4774781,151.806235 62.0687813,151.954253 C61.923234,152.00826 61.8149468,152.045512 61.7292135,152.085517 C61.3723235,152.255538 60.5376716,153.033761 60.2525584,154.063839 C60.0551724,154.785928 60.1689465,155.491758 60.579669,156.107769 C61.7646712,157.878066 63.0433659,157.529959 63.2151516,157.473568 L63.2245623,157.470368 C63.4018349,157.415353 63.9710564,157.300331 64.3491923,157.92668 C64.8157411,158.706775 65.7212925,159.211957 66.7760438,159.279965 C67.7849058,159.341973 68.7132184,158.972184 69.24963,158.2861 C69.2456424,158.28802 69.5019651,157.970429 69.5019651,157.970429 C70.3114473,156.978308 71.3177572,155.741837 70.3867172,153.535487 C69.8842799,152.345341 68.8329261,152.024934 68.1530248,152.000931 C68.0014961,151.946924 67.7693383,151.810412 67.8072204,151.488372 C67.8730158,150.956307 67.6175544,150.291474 66.7043947,150.019441 C66.4496829,149.942935 66.1682224,149.903715 65.8819607,149.903795 L65.881881,149.904003 Z M176.711556,150.032146 C175.798397,149.962138 175.034214,150.24654 175.004386,150.666592 C174.976473,151.088643 175.694496,151.487316 176.605646,151.557325 C177.518806,151.631334 178.280915,151.342931 178.312816,150.922879 C178.342643,150.500828 177.626694,150.104155 176.711556,150.032146 Z M181.593332,150.141536 C180.448892,150.089529 179.491071,150.472952 179.453109,151.001017 C179.413233,151.529081 180.316057,151.996883 181.462539,152.044888 C182.604985,152.096895 183.559696,151.713472 183.599572,151.185407 C183.63546,150.659343 182.735763,150.189541 181.593332,150.141536 Z M187.506141,150.350937 C186.052662,150.338936 184.834132,150.852119 184.78022,151.504198 C184.726307,152.152278 185.858354,152.6946 187.309792,152.710602 C188.755296,152.724524 189.981641,152.209421 190.029492,151.557341 C190.087233,150.907261 188.953591,150.366939 187.506141,150.350937 Z M190.337973,153.81072 C188.928357,153.928735 187.752574,154.572317 187.708711,155.2484 C187.66086,155.922483 188.768167,156.374794 190.169856,156.254779 C191.577477,156.136765 192.755254,155.493182 192.799118,154.817099 C192.845055,154.141017 191.745642,153.690706 190.337973,153.81072 Z M184.602692,154.135752 C183.488158,154.191759 182.566944,154.675322 182.531055,155.223389 C182.503142,155.767456 183.376059,156.166128 184.490561,156.114122 C185.601106,156.060115 186.525033,155.573688 186.552946,155.029621 C186.584846,154.481554 185.711323,154.083762 184.602851,154.135768 L184.602692,154.135752 Z M179.867341,154.476418 C178.9801,154.488419 178.238966,154.849839 178.213126,155.285893 C178.1892,155.725947 178.887779,156.06786 179.777014,156.057859 C180.660266,156.045858 181.404272,155.682181 181.428198,155.242127 C181.452123,154.808074 180.75667,154.466417 179.867436,154.476402 L179.867341,154.476418 Z M152.033914,155.988603 C151.213059,156.067924 150.333283,157.160378 150.716141,157.979406 C151.224559,159.067539 150.443612,160.584045 150.357879,160.914165 C150.272225,161.244205 150.541053,163.562169 152.494912,164.180164 C154.452822,164.80024 154.822073,163.923877 154.822073,163.923877 C154.822073,163.923877 155.309804,162.687982 156.946665,163.280054 C158.583526,163.872127 160.306136,162.587218 159.90929,161.010977 C159.508537,159.434784 159.398878,157.917639 156.918592,156.685488 C155.445175,155.949398 154.616313,156.863638 154.616313,156.863638 C154.616313,156.863638 153.631871,157.286937 152.784571,156.294816 C152.572734,156.047778 152.307399,155.962087 152.033786,155.988523 L152.033914,155.988603 Z M55.0411999,161.723704 C54.529974,161.777151 53.8148862,162.008123 53.2435911,162.458162 C52.6195322,162.950222 52.2633919,163.624304 52.2155408,164.40848 C52.0859439,166.632752 53.3299465,167.088968 53.483469,167.136974 L53.4710277,167.133774 C53.6225564,167.18778 54.1259825,167.414928 54.0442528,168.187022 C53.9405752,169.15114 54.3870585,170.167265 55.2124911,170.837267 C55.9501965,171.43734 56.8710124,171.643109 57.6704458,171.381077 C57.7960552,171.341072 57.9240251,171.297195 58.053638,171.25919 C59.2459295,170.895146 60.7369717,170.43997 61.3091121,168.055598 C61.6161571,166.773442 61.0013175,165.884453 60.4928989,165.458481 C60.4151407,165.336466 60.2917804,165.049311 60.5489805,164.755275 C61.0274921,164.205208 60.9893547,163.451243 60.4430539,162.783194 C59.7970632,161.997097 58.5623437,161.46028 57.6890599,161.964341 C57.2404553,162.224373 56.1990704,161.926337 55.8043621,161.814323 C55.6647962,161.772318 55.5607518,161.74281 55.4710309,161.726808 C55.3593782,161.706806 55.2115181,161.705862 55.0411201,161.723608 L55.0411999,161.723704 Z M28.0403832,167.338791 C27.2253503,167.362362 26.3614454,167.553569 25.4951798,167.995127 C21.8725277,169.847354 22.4977829,171.669016 22.58551,171.883122 L22.5792894,171.870641 C22.6331219,172.002657 23.0326313,173.191426 21.0527894,174.111555 C19.3580607,174.899651 18.2305278,176.497447 18.1866642,178.177652 C18.148782,179.513816 18.8047417,180.636353 19.9810828,181.26235 C20.2123635,181.384364 20.4442662,181.513388 20.6695654,181.637403 C22.7550786,182.789544 24.9149206,183.97849 29.2553402,182.484387 C31.877265,181.582277 32.2954841,179.790458 32.3613592,179.168301 C32.5228569,178.91027 33.1396903,178.092298 34.5731995,178.146304 C35.8552119,178.19431 36.8761165,177.265941 37.1153723,175.839782 C37.3346902,174.529622 36.8220288,172.977672 35.414423,172.54562 C34.1643113,172.155572 33.440403,170.543295 33.093482,169.7672 C32.9977797,169.555174 32.9296237,169.400787 32.8598408,169.282772 C32.4979584,168.690204 30.485466,167.268126 28.040431,167.338855 L28.0403832,167.338791 Z M28.2273058,173.276957 C29.1073206,173.175409 29.6369213,173.472229 30.3083529,173.845779 L30.6292269,174.017672 C30.8186377,174.117684 30.9073697,174.269334 30.9033821,174.48336 C30.8933334,174.789398 30.6704746,175.202072 30.1899691,175.4241 C28.9358699,176.010171 28.7477031,177.004549 28.9251512,177.630609 C28.8932504,177.694617 28.7437155,177.921765 28.1276318,178.233803 C27.1905465,178.715862 26.2799389,178.145792 26.0965094,177.983773 C26.0885342,177.96377 26.0835896,177.951513 26.071579,177.92751 C25.8682115,177.471454 25.3903219,176.40782 24.3674395,176.089845 C24.3475015,176.075923 24.2929193,175.977335 24.2989007,175.827317 C24.3028883,175.673298 24.3673119,175.57879 24.3892437,175.564789 C24.3892437,175.564789 24.3951453,175.561588 24.4110479,175.561588 C25.5794138,175.603593 26.2230119,174.88725 26.4204777,174.455197 L26.4890166,174.305179 L26.4858265,174.145783 C26.4898141,174.131861 26.5377928,173.757864 27.2116967,173.523835 C27.6009819,173.389819 27.9339463,173.310785 28.2272898,173.276925 L28.2273058,173.276957 Z M225.581455,196.257367 L225.575075,196.263608 L225.581455,196.263608 L225.581455,196.257367 Z" fill="#79BDE8" transform="translate(121.883282, 156.693230) scale(-1, 1) rotate(-180.000000) translate(-121.883282, -156.693230) "></path>
                        <path d="M180.372968,134.487789 L179.036501,137.156915 L177.675119,134.622205 C177.080967,135.018254 176.64793,135.604198 176.594098,136.29425 C176.494408,137.484396 177.489441,138.457074 178.815349,138.457074 C180.143219,138.457074 181.301057,137.48446 181.394845,136.29425 C181.462635,135.516155 181.031001,134.86782 180.373016,134.487789 L180.372968,134.487789 Z M205.507589,134.928467 L204.18669,137.372446 L202.828418,134.984634 C202.333956,135.340677 201.977944,135.855236 201.928099,136.447309 C201.840372,137.52144 202.736959,138.391226 203.931308,138.391226 C205.1236,138.391226 206.166436,137.521376 206.252249,136.447309 C206.306002,135.819232 205.994188,135.284414 205.507701,134.928371 L205.507589,134.928467 Z M199.703722,158.721777 C189.696767,162.536323 178.003219,160.475111 178.003219,160.475111 C181.061706,162.093229 184.44255,162.765311 187.632627,162.925331 C187.905778,164.829564 188.683232,166.282381 189.398973,167.266502 L189.402164,167.266502 C189.563661,167.490529 189.719927,167.680056 189.869462,167.854078 C190.202426,168.150114 190.626978,168.224491 190.83832,166.98834 L190.841511,166.99154 C190.998941,165.673379 191.342704,164.155513 191.607879,163.097304 C191.968756,163.465349 192.487272,163.969795 192.882044,164.281833 C193.131269,164.34184 193.388963,164.283753 193.642175,164.031802 C193.929282,163.457732 194.336895,162.622254 194.336895,162.622254 L196.053475,163.625496 C196.195115,163.639418 196.336977,163.640058 196.486512,163.616055 L198.156358,162.137746 L199.262295,163.312898 C199.533451,163.460916 199.831532,163.514795 200.134589,163.384779 L201.016215,162.347148 C201.309304,163.623304 201.233443,165.005073 201.087832,166.063283 L201.091022,166.063283 C201.091022,166.063283 201.086237,166.082293 201.081452,166.088294 C201.045564,166.360327 201.00808,166.599604 200.966131,166.819631 C200.967726,167.247683 201.205259,167.506963 202.283904,166.450834 C205.190862,163.330452 205.539378,159.159382 205.539378,159.159382 C203.705084,159.597436 199.704407,158.721825 199.704407,158.721825 L199.703722,158.721777 Z M184.161345,170.266869 C184.101371,170.282391 184.047618,170.314874 184.008699,170.366881 C183.918899,170.480895 182.022557,173.012644 181.930842,174.926798 C178.672976,174.058692 176.696404,172.578831 176.67838,172.560909 C176.576776,172.4829 176.434259,172.48394 176.332575,172.56411 C176.230971,172.642119 176.192371,172.78164 176.242296,172.901655 C176.274197,172.981665 177.087539,174.892458 179.703371,176.314552 C182.083966,177.60871 186.476224,178.720606 193.909105,176.658338 C193.978968,176.640336 194.034316,176.597579 194.074224,176.539572 C194.136111,176.44156 195.611442,174.170962 195.868642,171.054581 C195.878212,170.918564 195.796865,170.795669 195.669262,170.757665 C195.539745,170.71766 195.401711,170.772066 195.335915,170.892049 C195.315977,170.928053 193.258218,174.597942 190.594503,175.15193 C188.995476,175.483971 187.420216,175.595616 185.781314,175.517607 C184.03666,173.573369 184.510514,170.621968 184.516496,170.592044 C184.53436,170.462028 184.469921,170.333517 184.348267,170.27951 C184.288453,170.253507 184.221462,170.251491 184.161345,170.267029 L184.161345,170.266869 Z" fill="#FFFFFF" transform="translate(191.239412, 156.144367) scale(-1, 1) rotate(-180.000000) translate(-191.239412, -156.144367) "></path>
                    </g>
                </g>
            </g>
        </g>
    </g>
</svg>