<?xml version="1.0" encoding="UTF-8" standalone="no"?>
<svg width="250px" height="250px" viewBox="0 0 250 250" version="1.1" xmlns="http://www.w3.org/2000/svg" xmlns:xlink="http://www.w3.org/1999/xlink">
    <!-- Generator: Sketch 47.1 (45422) - http://www.bohemiancoding.com/sketch -->
    <title>TEXSO</title>
    <desc>Created with Sketch.</desc>
    <defs></defs>
    <g id="Page-1" stroke="none" stroke-width="1" fill="none" fill-rule="evenodd">
        <g id="TEXSO">
            <g id="Texas_Southern_Tigers_logo" transform="translate(0.000000, 7.000000)">
                <g id="Group" transform="translate(125.144231, 117.855510) scale(-1, 1) rotate(-180.000000) translate(-125.144231, -117.855510) translate(0.444712, 0.457551)">
                    <g transform="translate(2.204477, 2.650154)" id="Shape">
                        <path d="M245.102163,117.488265 C245.069111,117.572551 244.675481,117.945816 244.645433,118.099337 C244.432091,119.143878 245.561899,120.2125 244.798678,121.452704 C244.61238,121.567092 243.882212,121.365408 243.578726,121.756735 C242.232572,123.496633 241.25,128.03602 240.838341,128.62301 C240.426683,129.21301 239.179688,129.197959 238.704928,129.842143 C238.233173,130.489337 239.405048,131.961327 239.011418,133.19852 C238.140024,135.928776 234.795673,136.461582 233.984375,139.453724 C233.482572,141.31102 233.638822,144.023214 233.527644,146.012959 L233.527644,148.761276 C233.134014,150.59148 233.506611,152.698622 233.070913,154.709439 C232.680288,156.521582 233.046875,158.655816 232.617188,160.660612 C231.911058,163.911633 232.079327,168.405867 231.700721,171.641837 L231.547476,171.795357 C230.090144,172.13852 227.704327,172.048214 226.523438,171.184286 C225.228365,171.322755 224.387019,172.42148 223.173077,172.860969 C221.977163,173.297449 220.790264,173.285408 219.672476,173.779082 C219.161659,174.001837 218.740986,174.609898 218.302284,174.844694 C217.710337,175.163776 217.052284,175.004235 216.472356,175.302245 C215.144231,175.991582 214.074519,177.273929 212.81851,178.047551 C212.232572,178.411786 211.409255,178.420816 210.841346,178.812143 C209.834736,178.76398 209.666466,178.068622 209.317909,177.43949 C208.284255,177.201684 207.145433,176.744133 205.814303,177.132449 C204.972957,177.382296 203.713942,178.198061 202.463942,177.897041 C201.310096,177.617092 200.673077,176.668878 199.573317,176.370867 C197.65625,175.850102 195.46875,176.84648 194.242788,175.759796 C193.746995,175.543061 193.422476,174.519592 193.176082,174.083112 C191.727764,174.143316 191.508413,173.89648 191.045673,173.01449 C189.813702,173.113827 189.813702,173.779082 189.065505,174.236633 C188.557692,174.284796 188.04988,174.335969 187.542067,174.387143 C187.439904,174.450357 187.370793,174.910918 187.238582,174.998214 C186.781851,175.293214 186.01863,175.404592 185.564904,175.609286 C185.453726,175.919337 185.405649,176.319694 185.408654,176.828418 C185.147236,176.924745 185.261418,176.85852 185.105168,176.981939 C184.375,176.825408 184.399038,176.367857 184.191707,175.759796 C183.530649,175.485867 182.533053,175.389541 181.908053,175.913316 C180.324519,175.886224 180.540865,176.756173 180.08113,177.74352 C179.549279,177.704388 179.441106,177.689337 179.167668,177.43949 C178.792067,177.201684 178.566707,175.856122 178.404447,175.455765 L177.340745,175.455765 C177.238582,174.694184 177.136418,173.929592 177.03726,173.16801 C176.983173,173.116837 176.932091,173.065663 176.884014,173.01449 C175.886418,173.032551 175.766226,173.261327 175.207332,173.625561 C175.099159,174.158367 175.057091,175.573163 174.750601,176.063827 C174.699519,176.217347 174.651442,176.370867 174.600361,176.521378 C173.179087,176.521378 172.683293,175.850102 172.163462,174.998214 C170.625,175.091531 169.477163,177.021071 168.509615,176.521378 C167.560096,176.638776 167.490986,177.511735 166.986178,178.047551 C164.663462,177.689337 164.741587,175.455765 161.962139,175.455765 C161.604567,175.708622 161.25,175.96449 160.895433,176.217347 C160.93149,176.801327 161.072716,177.123418 160.895433,177.43949 C160.579928,178.240204 159.011418,178.857296 158.305288,179.269694 C158.209135,179.742296 158.146034,180.287143 158.152043,180.946378 C157.03125,180.750714 154.816707,181.479184 154.194712,181.099898 C153.602764,180.859082 153.073918,179.883776 152.671274,179.420204 C151.054688,179.402143 150.429688,180.196837 149.930889,181.253418 C148.569712,181.509286 147.755409,180.588163 146.274038,180.946378 C145.036058,181.247398 144.044471,182.126378 142.926683,182.472551 C141.757813,182.523724 140.591947,182.574898 139.423077,182.626071 C139.164663,182.716378 138.91226,183.083622 138.662861,183.237143 C138.59375,183.616429 138.753005,184.645918 138.662861,184.913827 C138.542668,185.26602 137.824519,185.780765 137.596154,186.132959 C135.555889,186.132959 134.173678,186.126939 132.26863,186.132959 L132.26863,186.744031 L132.115385,186.744031 C131.962139,186.488163 131.808894,186.235306 131.658654,185.979439 L129.831731,185.979439 C129.375,186.337653 128.918269,186.692857 128.461538,187.048061 C127.644231,188.128724 127.022236,189.69102 125.567909,190.100408 C125.3125,190.275 124.819712,190.265969 124.347957,190.253929 C124.329928,203.619235 124.074519,217.99898 123.891226,231.13551 C116.787861,231.237857 109.678486,231.337194 102.572115,231.439541 C101.123798,231.439541 94.765625,231.147551 94.047476,231.593061 L78.3623798,231.593061 C76.2079327,231.593061 73.0438702,232.047602 71.2049279,231.439541 C71.1959135,228.832704 71.4092548,225.873673 70.9014423,223.507653 C70.6340144,222.270459 70.9735577,220.587755 70.7481971,219.540204 C70.1622596,216.81898 71.015625,213.191684 70.4447115,210.539694 C70.2403846,202.303776 70.0390625,194.064847 69.8347356,185.828929 C69.2247596,168.998878 68.6177885,152.165816 68.0078125,135.335765 C64.6304087,135.338776 60.9375,135.380918 57.8064904,135.489286 C55.5949519,135.561531 52.8966346,135.221378 50.952524,135.639796 L48.0588942,135.639796 C45.453726,135.639796 41.8990385,135.435102 39.53125,135.946837 L35.4206731,135.946837 C33.5576923,135.958878 30.6640625,135.865561 28.8731971,136.250867 C27.202524,136.612092 25.0240385,136.085306 23.5426683,136.404388 C20.3966346,136.455561 17.250601,136.506735 14.1015625,136.554898 C13.0588942,136.554898 11.0246394,136.259898 10.2944712,136.708418 L1.00661058,136.708418 C0.889423077,136.214745 0.582932692,135.40801 0.703125,135.182245 C1.11778846,132.292449 5.02704327,132.409847 6.33713942,130.299694 C7.34074519,128.683214 7.37980769,126.317194 8.92427885,125.266633 C10.5348558,124.176939 12.5060096,124.210051 13.6448317,122.674847 C14.6334135,121.344337 15.3635817,119.366633 16.6917067,118.403367 C17.7133413,117.659847 19.140625,117.422041 19.8888221,116.419643 C21.1748798,114.697806 22.1003606,112.629796 23.8491587,111.383571 C24.3209135,111.049439 25.15625,110.661122 25.6760817,110.47148 C26.0817308,110.420306 26.4873798,110.369133 26.8930288,110.317959 C27.1123798,110.17949 27.593149,109.059694 27.9597356,108.791786 C28.7319712,108.231888 29.6394231,107.982041 30.3966346,107.419133 C32.1033654,106.148827 31.9200721,103.740663 32.8335337,101.62148 C33.5606971,99.9327551 35.3996394,99.0537755 36.030649,97.3530102 C36.7548077,95.3933673 36.3100962,93.4818878 36.7998798,91.4078571 C37.172476,89.8214796 37.3737981,89.09 38.0108173,87.894949 C38.5456731,86.8865306 38.7469952,86.0195918 39.3810096,85.1466327 C40.718149,83.3013776 43.1520433,82.6391327 44.7085337,81.0286735 C45.4477163,80.2640816 45.3455529,78.749949 46.2319712,78.1298469 C47.8094952,77.0311224 50.4236779,77.2267857 52.1694712,76.2996429 C53.7289663,75.4748469 55.5829327,78.9335714 57.1965144,77.9251531 C59.0925481,76.7361224 61.2980769,76.2123469 62.983774,74.8728061 C65.453726,74.9962245 66.1237981,77.1996939 67.2445913,78.6867347 C67.8725962,79.517551 69.203726,74.2617347 70.1382212,74.7734694 C70.405649,79.2797449 72.5570913,82.5578571 74.0985577,85.7577041 C75.5258413,86.1490306 77.6772837,87.202602 79.5793269,86.5222959 C79.9338942,87.2658163 80.1802885,87.8829082 80.7992788,88.1989796 C81.4182692,88.515051 85.1171875,87.5156633 87.1935096,86.9798469 C88.4465144,86.6547449 93.0438702,86.0105612 94.5042067,86.3687755 C95.1862981,86.5343367 95.6670673,86.9678061 96.6346154,86.8263265 C97.6051683,86.6818367 97.5480769,86.1159184 98.0048077,85.7577041 C98.6478365,84.9118367 100.138221,83.485 101.051683,82.7083673 C101.965144,81.9317347 102.521034,80.8269898 103.335337,80.5711224 C104.786659,79.6259184 105.46875,77.6391837 106.835938,76.6036735 C108.509615,75.342398 110.594952,74.1322959 111.709736,72.3352041 C112.484976,71.0889796 111.944111,69.7313776 112.472957,68.2142347 C112.695313,67.5730612 113.566707,65.8241327 113.993389,65.164898 C115.099159,63.4520918 116.078726,61.6068367 117.190505,59.8247959 C117.352764,59.5689286 117.872596,59.2167347 117.953726,58.9096939 L117.800481,57.3835204 C118.037861,56.507551 118.846154,55.7068367 119.170673,54.9422449 L119.170673,54.0271429 C119.332933,53.7020408 119.951923,53.4973469 120.23738,53.2655612 C121.613582,52.1427551 124.233774,49.9091837 125.261418,48.5365306 C125.655048,48.0157653 126.253005,47.2993367 126.48137,46.7063265 C126.893029,45.6136224 126.658654,44.3764286 127.241587,43.5034694 C127.782452,42.6907143 130.270433,40.3487755 131.198918,39.9935714 C132.232572,39.5962245 133.179087,39.514949 133.789063,39.0784694 C134.399038,38.6419898 134.507212,37.4740306 134.245793,36.3331633 C134.077524,35.6016837 133.434495,34.204949 133.789063,33.1303061 C134.188702,31.9171939 137.157452,30.8214796 135.615986,28.4012755 C135.643029,25.5837245 135.925481,27.0647449 136.835938,25.8064796 C137.472957,24.9244898 137.683293,23.8709184 138.20613,22.9076531 C138.861178,21.7035714 139.92488,20.5295918 140.489784,19.2472449 C141.075721,17.9167347 141.721755,16.6072959 142.163462,15.2797959 C142.391827,14.6025 142.277644,13.9613265 142.623197,13.452602 C143.707933,12.5916837 145.582933,12.715102 147.03726,12.2304592 C148.671875,11.6856122 150.15625,9.7319898 151.147837,9.33163265 C152.142428,8.93127551 155.207332,8.5519898 156.935096,7.50142857 C157.572115,7.11311224 158.245192,7.12816327 158.915264,6.73683673 C159.711538,6.27326531 160.063101,5.51469388 161.198918,5.21367347 C164.0625,4.45510204 168.121995,6.18897959 171.096755,4.90663265 C173.575721,3.84403061 176.655649,0.273928571 177.1875,0.638163265 C177.719351,0.999387755 178.413462,2.30882653 178.641827,2.59780612 C179.053486,3.84403061 180.486779,4.09688776 179.777644,4.60260204 C179.651442,4.74709184 179.738582,5.87591837 179.471154,6.27928571 C178.948317,7.07096939 177.950721,7.50443878 177.644231,8.57005102 C177.304688,9.75607143 177.878606,11.1196939 177.340745,12.0769388 L175.360577,14.0606633 L175.360577,16.9594898 C174.792668,19.1298469 174.302885,21.1466837 173.686899,23.0611735 C173.428486,23.8528571 173.485577,24.5903571 173.076923,25.1984184 C173.290264,26.0382653 174.149639,26.0864286 174.447115,26.875102 C175.021034,28.3922449 174.266827,30.6679592 175.207332,31.7576531 L175.207332,32.0616837 C173.990385,31.7365816 172.157452,33.0068878 171.739784,33.2838265 C171.727764,33.2838265 171.71875,33.2808163 171.706731,33.2808163 C171.622596,33.3590816 171.64363,33.350051 171.739784,33.2838265 C172.833534,33.3018878 173.299279,33.8798469 173.533654,33.8918878 C174.0625,33.9189796 174.350962,33.070102 175.057091,33.4343367 C175.408654,33.4704592 175.486779,33.4644388 175.664063,33.5878571 C176.015625,34.0243367 175.910457,34.4758673 176.120793,35.1110204 C176.655649,36.7275 177.454928,39.9484184 178.404447,41.2157143 C178.230168,42.0254592 177.454928,44.8219388 179.471154,44.4185714 C180.540865,45.4089286 181.652644,46.4444388 182.211538,47.9254592 L182.211538,48.690051 C182.385817,49.0994388 182.935697,50.0476531 182.671274,50.5202551 L182.671274,50.8242857 C181.941106,50.5894898 180.814303,50.0807653 180.234375,49.6051531 C179.702524,49.5870918 179.014423,49.5539796 178.710938,49.7586735 C178.659856,49.7586735 179.45613,50.8032143 180.08113,50.9778061 C180.132212,51.2306633 181.349159,52.3685204 182.518029,52.5039796 C182.548077,51.8688265 182.623197,51.802602 182.821514,51.4353571 C185.366587,51.3932143 188.073918,53.0307653 187.238582,56.1613776 C187.130409,56.5677551 187.385817,57.5761735 187.845553,57.6905612 C188.260216,56.8567347 188.707933,56.5737755 189.36899,56.0108673 C191.986178,56.1071939 192.680288,57.82 194.546274,58.4521429 L194.546274,58.7591837 C192.986779,59.7946939 203.58774,60.2552551 203.819111,60.1709694 C203.819111,59.9211224 205.570913,61.065 205.47476,61.3329082 C206.397236,62.1968367 205.516827,63.6116327 207.016226,63.9608163 C207.830529,63.9608163 207.896635,65.622449 208.707933,65.622449 C209.38101,65.8542347 210.240385,66.7482653 210.841346,67.1456122 C214.0625,69.2888776 217.409856,71.5736224 217.998798,76.2996429 L219.215745,76.2996429 C220.138221,77.3170918 220.724159,79.1232143 222.563101,79.1984694 C222.680288,79.665051 222.863582,79.9570408 222.716346,80.2640816 C222.635216,81.1972449 222.11238,81.715 221.499399,82.0972959 C221.511418,82.7836224 221.595553,82.9311224 221.802885,83.3164286 C219.567308,84.3669898 220.435697,87.1243367 219.0625,88.6565306 L219.0625,88.810051 C220.402644,88.3976531 220.471755,87.1935714 222.259615,87.1303571 C222.409856,88.1056633 222.899639,88.4638776 223.326322,89.1140816 C223.590745,89.2134184 223.473558,89.1441837 223.632813,89.2645918 C225.15625,89.2495408 223.317308,87.9822449 223.990385,87.1935714 C224.002404,85.9052041 223.530649,84.5265306 222.815505,83.9636224 L222.815505,83.5060714 C224.170673,84.0087755 221.409255,82.7475 222.80649,82.6632143 C222.977764,82.482602 222.608173,80.7938776 222.830529,80.6644388 C222.614183,80.3423469 223.98738,80.6373469 223.768029,80.4266327 C224.29988,80.7637755 225.369591,81.4079592 224.84976,80.8751531 C224.84976,80.8269898 223.410457,79.9871429 223.410457,79.9389796 C224.6875,80.1978571 226.953125,81.9558163 227.89363,82.5548469 C229.876803,83.8131122 232.046274,85.2098469 234.13762,86.2152551 C235.733173,86.9828571 237.515024,87.4283673 239.314904,87.894949 C240.207332,88.1237245 241.328125,87.9160204 242.058293,88.3525 C242.454928,88.8762755 240.47476,90.27 240.228365,90.9442857 C238.98738,92.9611224 242.220553,95.0592347 242.96875,95.8268367 C244.546274,97.4403061 244.266827,101.17898 242.512019,103.147653 C242.557091,104.490204 243.067909,108.129541 242.96875,108.638265 C242.914663,108.930255 243.915264,110.522653 244.188702,110.77551 C244.239784,110.77551 244.356971,111.6575 244.645433,111.844133 C244.741587,112.069898 245.390625,114.595459 245.405649,115.35102 C245.420673,116.106582 245.546875,116.323316 245.102163,117.488265 L245.102163,117.488265 Z M223.698918,80.372449 C223.731971,80.3935204 223.753005,80.4115816 223.768029,80.4266327 C223.488582,80.2490306 223.35637,80.1557143 223.698918,80.372449 Z" stroke="#820431" stroke-width="6.95012019"></path>
                        <path d="M245.102163,117.488265 C245.069111,117.572551 244.675481,117.945816 244.645433,118.099337 C244.432091,119.143878 245.561899,120.2125 244.798678,121.452704 C244.61238,121.567092 243.882212,121.365408 243.578726,121.756735 C242.232572,123.496633 241.25,128.03602 240.838341,128.62301 C240.426683,129.21301 239.179688,129.197959 238.704928,129.842143 C238.233173,130.489337 239.405048,131.961327 239.011418,133.19852 C238.140024,135.928776 234.795673,136.461582 233.984375,139.453724 C233.482572,141.31102 233.638822,144.023214 233.527644,146.012959 L233.527644,148.758265 C233.134014,150.59148 233.506611,152.698622 233.070913,154.709439 C232.680288,156.521582 233.046875,158.655816 232.617188,160.660612 C231.911058,163.911633 232.079327,168.405867 231.700721,171.641837 L231.547476,171.795357 C230.090144,172.13852 227.704327,172.048214 226.523438,171.184286 C225.228365,171.322755 224.387019,172.42148 223.173077,172.860969 C221.977163,173.297449 220.790264,173.285408 219.672476,173.779082 C219.161659,174.001837 218.740986,174.609898 218.302284,174.844694 C217.710337,175.163776 217.052284,175.004235 216.472356,175.302245 C215.144231,175.991582 214.074519,177.273929 212.81851,178.047551 C212.232572,178.411786 211.409255,178.420816 210.841346,178.812143 C209.834736,178.76398 209.666466,178.068622 209.317909,177.43949 C208.284255,177.201684 207.145433,176.744133 205.814303,177.132449 C204.972957,177.382296 203.713942,178.198061 202.463942,177.897041 C201.310096,177.617092 200.673077,176.668878 199.573317,176.370867 C197.65625,175.850102 195.46875,176.84648 194.242788,175.759796 C193.746995,175.543061 193.422476,174.519592 193.176082,174.083112 C191.727764,174.143316 191.508413,173.89648 191.045673,173.01449 C189.813702,173.113827 189.813702,173.779082 189.065505,174.236633 C188.557692,174.284796 188.04988,174.335969 187.542067,174.387143 C187.439904,174.450357 187.370793,174.910918 187.238582,174.998214 C186.781851,175.293214 186.01863,175.404592 185.564904,175.609286 C185.453726,175.919337 185.405649,176.319694 185.408654,176.828418 C185.147236,176.924745 185.261418,176.85852 185.105168,176.981939 C184.375,176.825408 184.399038,176.367857 184.191707,175.759796 C183.530649,175.485867 182.533053,175.389541 181.908053,175.913316 C180.324519,175.886224 180.540865,176.756173 180.08113,177.74352 C179.549279,177.704388 179.441106,177.689337 179.167668,177.43949 C178.792067,177.201684 178.566707,175.856122 178.404447,175.455765 L177.340745,175.455765 C177.238582,174.694184 177.136418,173.929592 177.03726,173.16801 C176.983173,173.116837 176.932091,173.065663 176.884014,173.01449 C175.886418,173.032551 175.766226,173.261327 175.207332,173.625561 C175.099159,174.158367 175.057091,175.573163 174.750601,176.063827 C174.699519,176.217347 174.651442,176.370867 174.600361,176.521378 C173.179087,176.521378 172.683293,175.850102 172.163462,174.998214 C170.625,175.091531 169.477163,177.021071 168.509615,176.521378 C167.560096,176.638776 167.490986,177.511735 166.986178,178.047551 C164.663462,177.689337 164.741587,175.455765 161.962139,175.455765 C161.604567,175.708622 161.25,175.96449 160.895433,176.217347 C160.93149,176.801327 161.072716,177.123418 160.895433,177.43949 C160.579928,178.240204 159.011418,178.857296 158.305288,179.269694 C158.209135,179.742296 158.146034,180.287143 158.152043,180.946378 C157.03125,180.750714 154.816707,181.479184 154.194712,181.099898 C153.602764,180.859082 153.073918,179.883776 152.671274,179.420204 C151.054688,179.402143 150.429688,180.196837 149.930889,181.253418 C148.569712,181.509286 147.755409,180.585153 146.274038,180.946378 C145.036058,181.247398 144.044471,182.126378 142.926683,182.472551 C141.757813,182.523724 140.591947,182.574898 139.423077,182.626071 C139.164663,182.716378 138.91226,183.083622 138.662861,183.237143 C138.59375,183.616429 138.753005,184.645918 138.662861,184.913827 C138.542668,185.26602 137.824519,185.780765 137.596154,186.132959 C135.555889,186.132959 134.173678,186.126939 132.26863,186.132959 L132.26863,186.744031 L132.115385,186.744031 C131.962139,186.488163 131.808894,186.235306 131.658654,185.979439 L129.831731,185.979439 C129.375,186.337653 128.918269,186.692857 128.461538,187.048061 C127.644231,188.128724 127.022236,189.69102 125.567909,190.100408 C125.3125,190.275 124.819712,190.265969 124.347957,190.253929 C124.329928,203.619235 124.074519,217.99898 123.891226,231.13551 C116.787861,231.237857 109.678486,231.337194 102.572115,231.439541 C101.123798,231.439541 94.765625,231.147551 94.047476,231.593061 L78.3623798,231.593061 C76.2079327,231.593061 73.0438702,232.047602 71.2049279,231.439541 C71.1959135,228.832704 71.4122596,225.873673 70.9014423,223.507653 C70.6340144,222.270459 70.9735577,220.587755 70.7481971,219.540204 C70.1622596,216.81898 71.015625,213.191684 70.4447115,210.539694 C70.2403846,202.303776 70.0390625,194.064847 69.8347356,185.828929 C69.2247596,168.998878 68.6177885,152.165816 68.0078125,135.335765 C64.6304087,135.338776 60.9375,135.380918 57.8064904,135.489286 C55.5949519,135.561531 52.8966346,135.221378 50.952524,135.639796 L48.0588942,135.639796 C45.453726,135.639796 41.8990385,135.435102 39.53125,135.946837 L35.4206731,135.946837 C33.5576923,135.958878 30.6640625,135.865561 28.8731971,136.250867 C27.202524,136.612092 25.0240385,136.085306 23.5426683,136.404388 C20.3966346,136.455561 17.250601,136.506735 14.1015625,136.554898 C13.0588942,136.554898 11.0246394,136.259898 10.297476,136.708418 L1.00661058,136.708418 C0.889423077,136.214745 0.582932692,135.40801 0.703125,135.182245 C1.11778846,132.292449 5.02704327,132.409847 6.33713942,130.299694 C7.34375,128.683214 7.37980769,126.317194 8.92427885,125.266633 C10.5348558,124.176939 12.5060096,124.210051 13.6448317,122.674847 C14.6334135,121.344337 15.3635817,119.366633 16.6917067,118.403367 C17.7133413,117.659847 19.140625,117.422041 19.8888221,116.419643 C21.1748798,114.697806 22.1003606,112.629796 23.8491587,111.383571 C24.3209135,111.049439 25.15625,110.661122 25.6760817,110.47148 C26.0817308,110.420306 26.4873798,110.369133 26.8930288,110.317959 C27.1123798,110.17949 27.593149,109.059694 27.9597356,108.791786 C28.7319712,108.231888 29.6394231,107.982041 30.3966346,107.419133 C32.1033654,106.148827 31.9200721,103.740663 32.8335337,101.62148 C33.5606971,99.9327551 35.3996394,99.0537755 36.030649,97.3530102 C36.7548077,95.3933673 36.3100962,93.4818878 36.7998798,91.4078571 C37.172476,89.8214796 37.3737981,89.09 38.0108173,87.894949 C38.5456731,86.8865306 38.7469952,86.0195918 39.3810096,85.1466327 C40.718149,83.3013776 43.1520433,82.6391327 44.7085337,81.0286735 C45.4477163,80.2640816 45.3455529,78.749949 46.2319712,78.1298469 C47.8094952,77.0311224 50.4236779,77.2267857 52.1694712,76.2996429 C53.7289663,75.4748469 55.5829327,78.9335714 57.1965144,77.9251531 C59.0925481,76.7361224 61.2980769,76.2123469 62.983774,74.8728061 C65.453726,74.9962245 66.1237981,77.1996939 67.2445913,78.6867347 C67.8725962,79.517551 69.203726,74.2617347 70.1382212,74.7734694 C70.405649,79.2797449 72.5570913,82.5578571 74.0985577,85.7577041 C75.5258413,86.1490306 77.6772837,87.202602 79.5793269,86.5192857 C79.9338942,87.2658163 80.1802885,87.8829082 80.7992788,88.1989796 C81.4182692,88.515051 85.1171875,87.5156633 87.1935096,86.9798469 C88.4465144,86.6547449 93.0438702,86.0105612 94.5042067,86.3687755 C95.1862981,86.5343367 95.6670673,86.9678061 96.6346154,86.8263265 C97.6051683,86.6818367 97.5480769,86.1159184 98.0048077,85.7577041 C98.6478365,84.9118367 100.138221,83.485 101.051683,82.7083673 C101.965144,81.9317347 102.524038,80.8269898 103.335337,80.5711224 C104.786659,79.6259184 105.46875,77.6391837 106.835938,76.6036735 C108.51262,75.342398 110.594952,74.1322959 111.709736,72.3352041 C112.484976,71.0889796 111.944111,69.7313776 112.472957,68.2142347 C112.695313,67.5730612 113.566707,65.8241327 113.993389,65.1618878 C115.099159,63.4520918 116.078726,61.6068367 117.190505,59.8247959 C117.352764,59.5689286 117.872596,59.2167347 117.953726,58.9096939 L117.800481,57.3835204 C118.037861,56.507551 118.846154,55.7068367 119.170673,54.9422449 L119.170673,54.0271429 C119.332933,53.7020408 119.951923,53.4973469 120.23738,53.2655612 C121.613582,52.1427551 124.233774,49.9091837 125.261418,48.5365306 C125.655048,48.0157653 126.253005,47.2993367 126.48137,46.7063265 C126.893029,45.6136224 126.658654,44.3764286 127.241587,43.5004592 C127.782452,42.6907143 130.270433,40.3487755 131.198918,39.9935714 C132.232572,39.5962245 133.179087,39.514949 133.789063,39.0784694 C134.399038,38.6419898 134.507212,37.4740306 134.245793,36.3331633 C134.077524,35.6016837 133.434495,34.204949 133.789063,33.1303061 C134.188702,31.9171939 137.157452,30.8214796 135.615986,28.3982653 C135.643029,25.5837245 135.925481,27.0647449 136.835938,25.8064796 C137.472957,24.9244898 137.683293,23.8709184 138.20613,22.9076531 C138.861178,21.7035714 139.92488,20.5295918 140.489784,19.2472449 C141.075721,17.9167347 141.721755,16.6072959 142.163462,15.2797959 C142.391827,14.6025 142.277644,13.9613265 142.623197,13.452602 C143.707933,12.5916837 145.582933,12.715102 147.03726,12.2304592 C148.671875,11.6856122 150.15625,9.7319898 151.150841,9.33163265 C152.142428,8.93127551 155.207332,8.5519898 156.935096,7.50142857 C157.572115,7.11311224 158.245192,7.12816327 158.915264,6.73683673 C159.711538,6.27326531 160.063101,5.51469388 161.198918,5.21367347 C164.0625,4.45510204 168.121995,6.18897959 171.096755,4.90663265 C173.575721,3.84403061 176.655649,0.273928571 177.1875,0.638163265 C177.719351,0.999387755 178.413462,2.30882653 178.641827,2.59780612 C179.053486,3.84403061 180.486779,4.09688776 179.777644,4.60260204 C179.651442,4.74709184 179.738582,5.87591837 179.471154,6.27928571 C178.948317,7.07096939 177.950721,7.50443878 177.644231,8.57005102 C177.304688,9.75607143 177.878606,11.1196939 177.340745,12.0769388 L175.360577,14.0606633 L175.360577,16.9594898 C174.792668,19.1298469 174.302885,21.1466837 173.686899,23.0611735 C173.428486,23.8528571 173.485577,24.5903571 173.076923,25.1984184 C173.290264,26.0382653 174.149639,26.0864286 174.447115,26.875102 C175.021034,28.3922449 174.266827,30.6679592 175.207332,31.7576531 L175.207332,32.0616837 C173.990385,31.7365816 172.157452,33.0068878 171.739784,33.2838265 C171.727764,33.2838265 171.71875,33.2808163 171.706731,33.2808163 C171.622596,33.3590816 171.64363,33.350051 171.739784,33.2838265 C172.833534,33.3018878 173.299279,33.8798469 173.533654,33.8918878 C174.0625,33.9189796 174.350962,33.070102 175.057091,33.4343367 C175.408654,33.4704592 175.486779,33.4644388 175.664063,33.5878571 C176.015625,34.0243367 175.910457,34.4758673 176.120793,35.1110204 C176.655649,36.7275 177.454928,39.9484184 178.404447,41.2157143 C178.230168,42.0254592 177.454928,44.8219388 179.471154,44.4185714 C180.540865,45.4089286 181.652644,46.4444388 182.211538,47.9254592 L182.211538,48.690051 C182.385817,49.0994388 182.935697,50.0476531 182.671274,50.5202551 L182.671274,50.8242857 C181.941106,50.5894898 180.814303,50.0807653 180.234375,49.6051531 C179.702524,49.5870918 179.014423,49.5539796 178.710938,49.7556633 C178.659856,49.7556633 179.45613,50.8032143 180.08113,50.9778061 C180.132212,51.2306633 181.349159,52.3685204 182.518029,52.5039796 C182.548077,51.8688265 182.623197,51.802602 182.821514,51.4353571 C185.366587,51.3932143 188.073918,53.0307653 187.238582,56.1613776 C187.130409,56.5677551 187.385817,57.5761735 187.845553,57.6905612 C188.260216,56.8567347 188.707933,56.5737755 189.36899,56.0108673 C191.986178,56.1071939 192.680288,57.82 194.546274,58.4521429 L194.546274,58.7591837 C192.986779,59.7946939 203.58774,60.2552551 203.819111,60.1709694 C203.819111,59.9211224 205.570913,61.065 205.47476,61.3329082 C206.397236,62.1968367 205.516827,63.6116327 207.016226,63.9608163 C207.830529,63.9608163 207.896635,65.622449 208.707933,65.622449 C209.38101,65.8542347 210.240385,66.7482653 210.841346,67.1456122 C214.0625,69.2888776 217.409856,71.5736224 217.998798,76.2996429 L219.215745,76.2996429 C220.138221,77.3170918 220.727163,79.1232143 222.563101,79.1984694 C222.680288,79.665051 222.863582,79.9570408 222.716346,80.2640816 C222.635216,81.1972449 222.11238,81.715 221.499399,82.0972959 C221.511418,82.7836224 221.595553,82.9311224 221.802885,83.3164286 C219.567308,84.3669898 220.435697,87.1243367 219.0625,88.6565306 L219.0625,88.810051 C220.402644,88.3976531 220.471755,87.1935714 222.259615,87.1303571 C222.409856,88.1056633 222.899639,88.4638776 223.326322,89.1140816 C223.590745,89.2134184 223.473558,89.1441837 223.632813,89.2645918 C225.15625,89.2495408 223.317308,87.9822449 223.990385,87.1935714 C224.002404,85.9052041 223.530649,84.5265306 222.815505,83.9636224 L222.815505,83.5060714 C224.170673,84.0087755 221.409255,82.7475 222.80649,82.6632143 C222.977764,82.482602 222.608173,80.7938776 222.830529,80.6644388 C222.614183,80.3423469 223.98738,80.6373469 223.768029,80.4266327 C224.29988,80.7607653 225.369591,81.4079592 224.84976,80.8751531 C224.84976,80.8269898 223.410457,79.9871429 223.410457,79.9389796 C224.6875,80.1978571 226.953125,81.9558163 227.89363,82.5548469 C229.876803,83.8131122 232.046274,85.2098469 234.13762,86.2152551 C235.733173,86.9828571 237.515024,87.4283673 239.314904,87.894949 C240.207332,88.1237245 241.328125,87.9160204 242.058293,88.3525 C242.454928,88.8762755 240.47476,90.2669898 240.228365,90.9442857 C238.98738,92.9611224 242.220553,95.0592347 242.96875,95.8268367 C244.546274,97.4403061 244.266827,101.17898 242.512019,103.147653 C242.557091,104.490204 243.067909,108.129541 242.96875,108.638265 C242.914663,108.930255 243.915264,110.522653 244.188702,110.77551 C244.239784,110.77551 244.356971,111.6575 244.645433,111.844133 C244.741587,112.069898 245.390625,114.595459 245.405649,115.35102 C245.420673,116.106582 245.546875,116.323316 245.102163,117.488265 M223.698918,80.372449 C223.731971,80.3935204 223.753005,80.4115816 223.768029,80.4266327 C223.488582,80.2490306 223.35637,80.1557143 223.698918,80.372449" fill="#B3B5B7" fill-rule="nonzero"></path>
                        <g>
                            <path d="M245.102163,117.488265 C245.069111,117.572551 244.675481,117.945816 244.645433,118.099337 C244.432091,119.143878 245.561899,120.2125 244.798678,121.452704 C244.61238,121.567092 243.882212,121.365408 243.578726,121.756735 C242.232572,123.496633 241.25,128.03602 240.838341,128.62301 C240.426683,129.21301 239.179688,129.197959 238.704928,129.842143 C238.233173,130.489337 239.405048,131.961327 239.011418,133.19852 C238.140024,135.928776 234.795673,136.461582 233.984375,139.453724 C233.482572,141.31102 233.638822,144.023214 233.527644,146.012959 L233.527644,148.761276 C233.134014,150.59148 233.506611,152.698622 233.070913,154.709439 C232.680288,156.521582 233.046875,158.655816 232.617188,160.660612 C231.911058,163.911633 232.079327,168.405867 231.700721,171.641837 L231.547476,171.795357 C230.090144,172.13852 227.704327,172.048214 226.523438,171.184286 C225.228365,171.322755 224.387019,172.42148 223.173077,172.860969 C221.977163,173.297449 220.790264,173.285408 219.672476,173.779082 C219.161659,174.001837 218.740986,174.609898 218.302284,174.844694 C217.710337,175.163776 217.052284,175.004235 216.472356,175.302245 C215.144231,175.991582 214.074519,177.273929 212.81851,178.047551 C212.232572,178.411786 211.409255,178.420816 210.841346,178.812143 C209.834736,178.76398 209.666466,178.068622 209.317909,177.43949 C208.284255,177.201684 207.145433,176.744133 205.814303,177.132449 C204.972957,177.382296 203.713942,178.198061 202.463942,177.897041 C201.310096,177.617092 200.673077,176.668878 199.573317,176.370867 C197.65625,175.850102 195.46875,176.84648 194.242788,175.759796 C193.746995,175.543061 193.422476,174.519592 193.176082,174.083112 C191.727764,174.143316 191.508413,173.89648 191.045673,173.01449 C189.813702,173.113827 189.813702,173.779082 189.065505,174.236633 C188.557692,174.284796 188.04988,174.335969 187.542067,174.387143 C187.439904,174.450357 187.370793,174.910918 187.238582,174.998214 C186.781851,175.293214 186.01863,175.404592 185.564904,175.609286 C185.453726,175.919337 185.405649,176.319694 185.408654,176.828418 C185.147236,176.924745 185.261418,176.85852 185.105168,176.981939 C184.375,176.825408 184.399038,176.367857 184.191707,175.759796 C183.530649,175.485867 182.533053,175.389541 181.908053,175.913316 C180.324519,175.886224 180.540865,176.756173 180.08113,177.74352 C179.549279,177.704388 179.441106,177.689337 179.167668,177.43949 C178.792067,177.201684 178.566707,175.856122 178.404447,175.455765 L177.340745,175.455765 C177.238582,174.694184 177.136418,173.929592 177.03726,173.16801 C176.983173,173.116837 176.932091,173.065663 176.884014,173.01449 C175.886418,173.032551 175.766226,173.261327 175.207332,173.625561 C175.099159,174.158367 175.057091,175.573163 174.750601,176.063827 C174.699519,176.217347 174.651442,176.370867 174.600361,176.521378 C173.179087,176.521378 172.683293,175.850102 172.163462,174.998214 C170.625,175.091531 169.477163,177.021071 168.509615,176.521378 C167.560096,176.638776 167.490986,177.511735 166.986178,178.047551 C164.663462,177.689337 164.741587,175.455765 161.962139,175.455765 C161.604567,175.708622 161.25,175.96449 160.895433,176.217347 C160.93149,176.801327 161.072716,177.123418 160.895433,177.43949 C160.579928,178.240204 159.011418,178.857296 158.305288,179.269694 C158.209135,179.742296 158.146034,180.287143 158.152043,180.946378 C157.03125,180.750714 154.816707,181.479184 154.194712,181.099898 C153.602764,180.859082 153.073918,179.883776 152.671274,179.420204 C151.054688,179.402143 150.429688,180.196837 149.930889,181.253418 C148.569712,181.509286 147.755409,180.588163 146.274038,180.946378 C145.036058,181.247398 144.044471,182.126378 142.926683,182.472551 C141.757813,182.523724 140.591947,182.574898 139.423077,182.626071 C139.164663,182.716378 138.91226,183.083622 138.662861,183.237143 C138.59375,183.616429 138.753005,184.645918 138.662861,184.913827 C138.542668,185.26602 137.824519,185.780765 137.596154,186.132959 C135.555889,186.132959 134.173678,186.126939 132.26863,186.132959 L132.26863,186.744031 L132.115385,186.744031 C131.962139,186.488163 131.808894,186.235306 131.658654,185.979439 L129.831731,185.979439 C129.375,186.337653 128.918269,186.692857 128.461538,187.048061 C127.644231,188.128724 127.022236,189.69102 125.567909,190.100408 C125.3125,190.275 124.819712,190.265969 124.347957,190.253929 C124.329928,203.619235 124.074519,217.99898 123.891226,231.13551 C116.787861,231.237857 109.678486,231.337194 102.572115,231.439541 C101.123798,231.439541 94.765625,231.147551 94.047476,231.593061 L78.3623798,231.593061 C76.2079327,231.593061 73.0438702,232.047602 71.2049279,231.439541 C71.1959135,228.832704 71.4092548,225.873673 70.9014423,223.507653 C70.6340144,222.270459 70.9735577,220.587755 70.7481971,219.540204 C70.1622596,216.81898 71.015625,213.191684 70.4447115,210.539694 C70.2403846,202.303776 70.0390625,194.064847 69.8347356,185.828929 C69.2247596,168.998878 68.6177885,152.165816 68.0078125,135.335765 C64.6304087,135.338776 60.9375,135.380918 57.8064904,135.489286 C55.5949519,135.561531 52.8966346,135.221378 50.952524,135.639796 L48.0588942,135.639796 C45.453726,135.639796 41.8990385,135.435102 39.53125,135.946837 L35.4206731,135.946837 C33.5576923,135.958878 30.6640625,135.865561 28.8731971,136.250867 C27.202524,136.612092 25.0240385,136.085306 23.5426683,136.404388 C20.3966346,136.455561 17.250601,136.506735 14.1015625,136.554898 C13.0588942,136.554898 11.0246394,136.259898 10.2944712,136.708418 L1.00661058,136.708418 C0.889423077,136.214745 0.582932692,135.40801 0.703125,135.182245 C1.11778846,132.292449 5.02704327,132.409847 6.33713942,130.299694 C7.34074519,128.683214 7.37980769,126.317194 8.92427885,125.266633 C10.5348558,124.176939 12.5060096,124.210051 13.6448317,122.674847 C14.6334135,121.344337 15.3635817,119.366633 16.6917067,118.403367 C17.7133413,117.659847 19.140625,117.422041 19.8888221,116.419643 C21.1748798,114.697806 22.1003606,112.629796 23.8491587,111.383571 C24.3209135,111.049439 25.15625,110.661122 25.6760817,110.47148 C26.0817308,110.420306 26.4873798,110.369133 26.8930288,110.317959 C27.1123798,110.17949 27.593149,109.059694 27.9597356,108.791786 C28.7319712,108.231888 29.6394231,107.982041 30.3966346,107.419133 C32.1033654,106.148827 31.9200721,103.740663 32.8335337,101.62148 C33.5606971,99.9327551 35.3996394,99.0537755 36.030649,97.3530102 C36.7548077,95.3933673 36.3100962,93.4818878 36.7998798,91.4078571 C37.172476,89.8214796 37.3737981,89.09 38.0108173,87.894949 C38.5456731,86.8865306 38.7469952,86.0195918 39.3810096,85.1466327 C40.718149,83.3013776 43.1520433,82.6391327 44.7085337,81.0286735 C45.4477163,80.2640816 45.3455529,78.749949 46.2319712,78.1298469 C47.8094952,77.0311224 50.4236779,77.2267857 52.1694712,76.2996429 C53.7289663,75.4748469 55.5829327,78.9335714 57.1965144,77.9251531 C59.0925481,76.7361224 61.2980769,76.2123469 62.983774,74.8728061 C65.453726,74.9962245 66.1237981,77.1996939 67.2445913,78.6867347 C67.8725962,79.517551 69.203726,74.2617347 70.1382212,74.7734694 C70.405649,79.2797449 72.5570913,82.5578571 74.0985577,85.7577041 C75.5258413,86.1490306 77.6772837,87.202602 79.5793269,86.5222959 C79.9338942,87.2658163 80.1802885,87.8829082 80.7992788,88.1989796 C81.4182692,88.515051 85.1171875,87.5156633 87.1935096,86.9798469 C88.4465144,86.6547449 93.0438702,86.0105612 94.5042067,86.3687755 C95.1862981,86.5343367 95.6670673,86.9678061 96.6346154,86.8263265 C97.6051683,86.6818367 97.5480769,86.1159184 98.0048077,85.7577041 C98.6478365,84.9118367 100.138221,83.485 101.051683,82.7083673 C101.965144,81.9317347 102.521034,80.8269898 103.335337,80.5711224 C104.786659,79.6259184 105.46875,77.6391837 106.835938,76.6036735 C108.509615,75.342398 110.594952,74.1322959 111.709736,72.3352041 C112.484976,71.0889796 111.944111,69.7313776 112.472957,68.2142347 C112.695313,67.5730612 113.566707,65.8241327 113.993389,65.164898 C115.099159,63.4520918 116.078726,61.6068367 117.190505,59.8247959 C117.352764,59.5689286 117.872596,59.2167347 117.953726,58.9096939 L117.800481,57.3835204 C118.037861,56.507551 118.846154,55.7068367 119.170673,54.9422449 L119.170673,54.0271429 C119.332933,53.7020408 119.951923,53.4973469 120.23738,53.2655612 C121.613582,52.1427551 124.233774,49.9091837 125.261418,48.5365306 C125.655048,48.0157653 126.253005,47.2993367 126.48137,46.7063265 C126.893029,45.6136224 126.658654,44.3764286 127.241587,43.5034694 C127.782452,42.6907143 130.270433,40.3487755 131.198918,39.9935714 C132.232572,39.5962245 133.179087,39.514949 133.789063,39.0784694 C134.399038,38.6419898 134.507212,37.4740306 134.245793,36.3331633 C134.077524,35.6016837 133.434495,34.204949 133.789063,33.1303061 C134.188702,31.9171939 137.157452,30.8214796 135.615986,28.4012755 C135.643029,25.5837245 135.925481,27.0647449 136.835938,25.8064796 C137.472957,24.9244898 137.683293,23.8709184 138.20613,22.9076531 C138.861178,21.7035714 139.92488,20.5295918 140.489784,19.2472449 C141.075721,17.9167347 141.721755,16.6072959 142.163462,15.2797959 C142.391827,14.6025 142.277644,13.9613265 142.623197,13.452602 C143.707933,12.5916837 145.582933,12.715102 147.03726,12.2304592 C148.671875,11.6856122 150.15625,9.7319898 151.147837,9.33163265 C152.142428,8.93127551 155.207332,8.5519898 156.935096,7.50142857 C157.572115,7.11311224 158.245192,7.12816327 158.915264,6.73683673 C159.711538,6.27326531 160.063101,5.51469388 161.198918,5.21367347 C164.0625,4.45510204 168.121995,6.18897959 171.096755,4.90663265 C173.575721,3.84403061 176.655649,0.273928571 177.1875,0.638163265 C177.719351,0.999387755 178.413462,2.30882653 178.641827,2.59780612 C179.053486,3.84403061 180.486779,4.09688776 179.777644,4.60260204 C179.651442,4.74709184 179.738582,5.87591837 179.471154,6.27928571 C178.948317,7.07096939 177.950721,7.50443878 177.644231,8.57005102 C177.304688,9.75607143 177.878606,11.1196939 177.340745,12.0769388 L175.360577,14.0606633 L175.360577,16.9594898 C174.792668,19.1298469 174.302885,21.1466837 173.686899,23.0611735 C173.428486,23.8528571 173.485577,24.5903571 173.076923,25.1984184 C173.290264,26.0382653 174.149639,26.0864286 174.447115,26.875102 C175.021034,28.3922449 174.266827,30.6679592 175.207332,31.7576531 L175.207332,32.0616837 C173.990385,31.7365816 172.157452,33.0068878 171.739784,33.2838265 C171.727764,33.2838265 171.71875,33.2808163 171.706731,33.2808163 C171.622596,33.3590816 171.64363,33.350051 171.739784,33.2838265 C172.833534,33.3018878 173.299279,33.8798469 173.533654,33.8918878 C174.0625,33.9189796 174.350962,33.070102 175.057091,33.4343367 C175.408654,33.4704592 175.486779,33.4644388 175.664063,33.5878571 C176.015625,34.0243367 175.910457,34.4758673 176.120793,35.1110204 C176.655649,36.7275 177.454928,39.9484184 178.404447,41.2157143 C178.230168,42.0254592 177.454928,44.8219388 179.471154,44.4185714 C180.540865,45.4089286 181.652644,46.4444388 182.211538,47.9254592 L182.211538,48.690051 C182.385817,49.0994388 182.935697,50.0476531 182.671274,50.5202551 L182.671274,50.8242857 C181.941106,50.5894898 180.814303,50.0807653 180.234375,49.6051531 C179.702524,49.5870918 179.014423,49.5539796 178.710938,49.7586735 C178.659856,49.7586735 179.45613,50.8032143 180.08113,50.9778061 C180.132212,51.2306633 181.349159,52.3685204 182.518029,52.5039796 C182.548077,51.8688265 182.623197,51.802602 182.821514,51.4353571 C185.366587,51.3932143 188.073918,53.0307653 187.238582,56.1613776 C187.130409,56.5677551 187.385817,57.5761735 187.845553,57.6905612 C188.260216,56.8567347 188.707933,56.5737755 189.36899,56.0108673 C191.986178,56.1071939 192.680288,57.82 194.546274,58.4521429 L194.546274,58.7591837 C192.986779,59.7946939 203.58774,60.2552551 203.819111,60.1709694 C203.819111,59.9211224 205.570913,61.065 205.47476,61.3329082 C206.397236,62.1968367 205.516827,63.6116327 207.016226,63.9608163 C207.830529,63.9608163 207.896635,65.622449 208.707933,65.622449 C209.38101,65.8542347 210.240385,66.7482653 210.841346,67.1456122 C214.0625,69.2888776 217.409856,71.5736224 217.998798,76.2996429 L219.215745,76.2996429 C220.138221,77.3170918 220.724159,79.1232143 222.563101,79.1984694 C222.680288,79.665051 222.863582,79.9570408 222.716346,80.2640816 C222.635216,81.1972449 222.11238,81.715 221.499399,82.0972959 C221.511418,82.7836224 221.595553,82.9311224 221.802885,83.3164286 C219.567308,84.3669898 220.435697,87.1243367 219.0625,88.6565306 L219.0625,88.810051 C220.402644,88.3976531 220.471755,87.1935714 222.259615,87.1303571 C222.409856,88.1056633 222.899639,88.4638776 223.326322,89.1140816 C223.590745,89.2134184 223.473558,89.1441837 223.632813,89.2645918 C225.15625,89.2495408 223.317308,87.9822449 223.990385,87.1935714 C224.002404,85.9052041 223.530649,84.5265306 222.815505,83.9636224 L222.815505,83.5060714 C224.170673,84.0087755 221.409255,82.7475 222.80649,82.6632143 C222.977764,82.482602 222.608173,80.7938776 222.830529,80.6644388 C222.614183,80.3423469 223.98738,80.6373469 223.768029,80.4266327 C224.29988,80.7637755 225.369591,81.4079592 224.84976,80.8751531 C224.84976,80.8269898 223.410457,79.9871429 223.410457,79.9389796 C224.6875,80.1978571 226.953125,81.9558163 227.89363,82.5548469 C229.876803,83.8131122 232.046274,85.2098469 234.13762,86.2152551 C235.733173,86.9828571 237.515024,87.4283673 239.314904,87.894949 C240.207332,88.1237245 241.328125,87.9160204 242.058293,88.3525 C242.454928,88.8762755 240.47476,90.27 240.228365,90.9442857 C238.98738,92.9611224 242.220553,95.0592347 242.96875,95.8268367 C244.546274,97.4403061 244.266827,101.17898 242.512019,103.147653 C242.557091,104.490204 243.067909,108.129541 242.96875,108.638265 C242.914663,108.930255 243.915264,110.522653 244.188702,110.77551 C244.239784,110.77551 244.356971,111.6575 244.645433,111.844133 C244.741587,112.069898 245.390625,114.595459 245.405649,115.35102 C245.420673,116.106582 245.546875,116.323316 245.102163,117.488265 L245.102163,117.488265 Z M223.698918,80.372449 C223.731971,80.3935204 223.753005,80.4115816 223.768029,80.4266327 C223.488582,80.2490306 223.35637,80.1557143 223.698918,80.372449 Z" stroke="#FFFFFF" stroke-width="1.73677885"></path>
                            <path d="M61.0889423,47.5695808 L61.0889423,77.5174992 L88.2307692,77.5174992 L88.2307692,67.5132665 L115.372596,67.5132665 L115.372596,167.80845 L101.804087,167.80845 L101.804087,187.746356 L156.280048,187.746356 L156.280048,167.80845 L142.51899,167.80845 L142.51899,67.5132665 L170.848317,47.5707849 L61.0887019,47.5707849 L61.0889423,47.5695808 Z M47.4170673,123.224438 L37.5105769,130.571262 L37.5105769,152.738646 L47.4170673,160.080654 L74.8305288,160.080654 L74.8305288,178.565234 L49.8954327,178.565234 L49.8954327,173.960585 L37.5100962,173.960585 L37.5100962,180.399532 L47.4165865,187.746356 L77.3108173,187.746356 L87.2125,180.399532 L87.2125,158.246356 L77.3108173,150.899532 L49.8973558,150.899532 L49.8973558,132.400985 L74.8324519,132.400985 L74.8324519,137.01045 L87.2132212,137.01045 L87.2132212,130.571503 L77.3115385,123.224679 L47.4173077,123.224679 L47.4170673,123.224438 Z M164.885817,123.802951 L164.885817,132.904122 L171.097356,132.904122 L171.097356,180.470163 L180.999038,187.746429 L210.893269,187.746429 L220.79976,180.470163 L220.79976,132.904122 L227.011298,132.904122 L227.011298,123.802951 L202.203606,123.802951 L202.203606,132.904122 L208.415144,132.904122 L208.415144,178.649592 L183.480048,178.649592 L183.480048,132.904122 L189.691587,132.904122 L189.691587,123.802951 L164.888702,123.802951 L164.885817,123.802951 Z" stroke="#820431" stroke-width="9.846875" transform="translate(132.260697, 117.658005) scale(-1, 1) rotate(-180.000000) translate(-132.260697, -117.658005) "></path>
                            <path d="M61.0889423,47.5695808 L61.0889423,77.5174992 L88.2307692,77.5174992 L88.2307692,67.5132665 L115.372596,67.5132665 L115.372596,167.80845 L101.804087,167.80845 L101.804087,187.746356 L156.280048,187.746356 L156.280048,167.80845 L142.51899,167.80845 L142.51899,67.5132665 L197.18726,47.5707849 L61.0887019,47.5707849 L61.0889423,47.5695808 Z M47.4170673,123.224438 L37.5105769,130.571262 L37.5105769,152.738646 L47.4170673,160.080654 L74.8305288,160.080654 L74.8305288,178.565234 L49.8954327,178.565234 L49.8954327,173.960585 L37.5100962,173.960585 L37.5100962,180.399532 L47.4165865,187.746356 L77.3108173,187.746356 L87.2125,180.399532 L87.2125,158.246356 L77.3108173,150.899532 L49.8973558,150.899532 L49.8973558,132.400985 L74.8324519,132.400985 L74.8324519,137.01045 L87.2132212,137.01045 L87.2132212,130.571503 L77.3115385,123.224679 L47.4173077,123.224679 L47.4170673,123.224438 Z M164.885817,123.802951 L164.885817,132.904122 L171.097356,132.904122 L171.097356,180.470163 L180.999038,187.746429 L210.893269,187.746429 L220.79976,180.470163 L220.79976,132.904122 L227.011298,132.904122 L227.011298,123.802951 L202.203606,123.802951 L202.203606,132.904122 L208.415144,132.904122 L208.415144,178.649592 L183.480048,178.649592 L183.480048,132.904122 L189.691587,132.904122 L189.691587,123.802951 L164.888702,123.802951 L164.885817,123.802951 Z" stroke="#B3B5B7" stroke-width="2.89663462" transform="translate(132.260697, 117.658005) scale(-1, 1) rotate(-180.000000) translate(-132.260697, -117.658005) "></path>
                        </g>
                        <g transform="translate(36.057692, 45.153061)" fill-rule="nonzero">
                            <path d="M147.96875,2.41777184 L143.724519,3.09976367 C143.724519,3.09976367 140.795673,2.96880776 139.762019,2.61061755 C138.728365,2.24939306 132.065865,3.88525837 130.686538,3.88525837 L123.930529,7.40816041 L113.310337,6.42984408 L112.98637,11.2885543 L25.0296394,11.2885543 L25.0296394,41.2364727 L52.1714663,41.2364727 L52.1714663,31.23224 L79.3132933,31.23224 L79.3132933,131.527424 L65.7447837,131.527424 L65.7447837,151.46533 L120.220745,151.46533 L120.220745,131.527424 L106.459687,131.527424 L106.459687,86.5910971 L118.873389,73.7507706 L130.244784,65.4775257 L133.550072,63.6996269 L151.31137,64.8378694 L156.151995,67.2742082 L155.560433,70.7922939 L160.133269,74.4187469 L169.20875,72.3633314 L169.983438,66.681511 L173.913245,63.2761273 L175.486082,57.2981029 L172.420216,59.8237845 L172.847476,56.8183967 L170.415505,58.89262 L167.279207,59.9038559 L165.565529,56.2068437 L159.189808,50.3321294 C159.189808,50.3321294 163.141971,43.1639906 165.035,39.9281416 C166.931034,36.689162 170.204231,35.4316192 170.204231,35.4316192 L178.387644,44.3447131 L177.030793,49.0480967 L173.67863,54.5512314 L180.599063,52.4770082 L182.725913,50.81198 L183.777596,47.4677637 L182.627308,46.3060176 L185.716731,45.6193057 L187.773149,40.1067792 L190.834207,38.4652788 L191.615457,35.4309931 L193.464014,32.9096461 L195.528918,30.031891 L192.581803,26.9085033 L182.956803,18.8748706 L175.721226,15.9971155 L169.889495,7.70340122 L156.776514,6.46319714 L151.435168,3.4048298 L147.97363,2.41748286 L147.96875,2.41777184 Z" fill="#FFFFFF" transform="translate(110.279279, 76.941406) scale(-1, 1) rotate(-180.000000) translate(-110.279279, -76.941406) "></path>
                            <path d="M149.026442,62.6374343 C147.373269,62.6477894 145.160577,63.1335641 143.481731,62.9055351 C141.243149,62.6015045 139.138942,62.8031882 137.904087,62.83028 C134.163221,62.9055351 127.266346,64.4398 123.011538,67.8864596 C123.011538,67.8864596 120.371635,67.1988086 116.396154,66.9880943 C114.491106,66.8887576 112.701442,66.6910233 112.518029,67.1997478 C112.217548,68.0395947 111.888149,69.6685967 112.020361,72.3688702 C112.020361,72.3688702 110.914038,72.7737306 107.236226,74.3631184 C103.558341,75.9555163 100.03887,77.0771184 100.03887,77.0771184 C100.03887,77.0771184 100.962476,77.2456898 102.395769,77.3028837 C104.742524,77.3992102 106.062356,77.2930102 106.095529,77.2841 C109.334712,76.3991 112.005144,74.9669894 112.386875,74.8195857 C112.876659,76.3307082 113.744111,78.4958878 115.105385,80.6001408 C114.444327,82.2166204 112.580385,86.3970714 105.729423,88.7840429 C105.729423,88.7840429 111.320288,90.5707796 109.757788,93.2287898 C107.402019,97.2203204 105.343846,99.3452837 104.574615,101.915998 C103.540962,105.362561 104.045024,108.947594 104.10512,108.947594 C104.285409,108.947594 104.439784,104.780749 108.189736,99.9733327 C110.344183,97.2130959 113.275072,95.555798 115.020986,91.0556633 C115.724111,89.2405102 116.785192,83.851402 117.13375,82.1897694 C117.223894,82.3402796 120.790481,85.7943082 124.528462,85.7220633 C124.438317,85.8635429 119.586154,91.2890143 118.94601,95.6087776 C118.62149,97.8122469 118.829014,100.391149 119.43899,102.62159 C120.048966,104.855161 121.024591,109.386361 119.077476,112.348402 C116.159687,116.782312 110.529639,116.943418 108.020745,122.395018 C106.401154,125.916957 106.201707,127.790027 106.264808,129.412647 C106.297861,130.300657 106.355697,131.062431 106.358702,132.088839 C106.590072,128.434451 109.978173,122.832582 113.650048,121.595508 C118.409663,119.991069 124.05149,115.865284 125.298365,112.71059 C126.542356,109.558786 127.056562,104.168835 124.857043,101.869039 C123.246466,100.189345 121.631803,97.1119531 122.199591,94.2823612 C122.764495,91.4527694 123.990457,89.5546551 124.528317,88.8591776 C126.577596,86.210198 126.345288,85.9621571 128.148269,83.5207612 C128.148269,83.5207612 126.628774,83.7476584 125.505,83.62424 C124.236971,83.4827604 122.528317,83.9098241 119.52351,81.9592118 C117.363053,80.5534465 115.616058,78.6742363 114.236971,73.9963792 C113.035048,69.908522 113.856683,68.385118 113.856683,68.385118 C113.856683,68.385118 118.592019,68.4833229 121.251394,68.88368 C129.908125,70.1870984 133.802356,70.5193527 134.021827,73.2015167 C134.021827,73.2015167 134.216587,70.841902 132.618029,69.9750596 C131.022476,69.111131 129.247115,68.9638237 129.247115,68.9638237 C131.227284,66.8928033 132.936538,67.2995661 134.571154,67.2423722 C138.125962,67.1249743 139.959856,65.7395339 141.134856,64.4390294 C143.409495,65.7394376 147.988462,63.8561816 149.163221,64.3167429 C143.55024,69.6086816 141.505288,67.9070735 139.017308,69.8244531 C137.776322,70.8148102 136.543029,73.0509102 136.543029,73.0509102 C139.770192,69.9082571 143.297356,71.4201261 145.055048,69.8338449 C147.552163,67.5852224 148.862981,66.1312939 151.876923,65.5444245 C153.583654,66.4185878 153.396154,66.4932408 153.396154,66.4932408 L155.433798,67.8149131 C155.433798,67.8149131 152.76,69.0588739 152.213125,70.7687661 C151.912644,71.7139702 149.645577,71.2378041 147.442933,72.8241816 C146.974183,73.1613245 144.42899,76.5161367 144.212644,77.8285857 C144.212644,77.8285857 146.555457,75.2347531 148.959279,74.0516224 C150.797356,73.1442506 152.490048,73.1359424 153.54149,72.6453033 C158.608077,74.1575576 159.285962,70.7536188 161.133317,70.5428563 C163.062404,70.3201012 165.315529,72.9700441 167.617212,73.1626971 C168.909471,73.2708237 169.668149,75.3510673 169.931851,76.9630196 C169.853942,77.6660829 169.622596,78.2001653 168.992861,78.2047167 C167.707476,77.5617612 166.444303,76.7536539 165.903438,76.4550416 C165.903438,76.4550416 164.139231,74.634422 162.588774,74.5501363 C160.620625,74.441769 158.513774,76.7901135 156.945264,76.59144 C155.376755,76.3867461 155.043774,75.6084278 155.043774,75.6084278 C155.043774,75.6084278 155.14125,77.8028665 158.119014,77.9413359 C158.119014,77.9413359 159.748365,80.292498 162.644976,80.0908143 C165.544495,79.8891306 164.968822,79.6056176 165.903389,79.2865359 C166.194327,79.1871992 166.831274,79.1296682 167.53726,79.0889943 C169.762957,79.3664388 167.172067,81.0279992 164.922115,82.9786596 C164.219543,83.2650624 163.540385,83.490009 162.96899,83.4207743 C161.397476,83.2311314 159.053365,81.6334596 159.053365,81.6334596 C159.053365,81.6334596 160.064567,84.84908 163.654567,85.1751453 C163.159063,87.6454392 163.803774,91.3210188 161.086298,94.2808922 C159.400601,96.1201269 155.853846,95.7082829 153.996875,95.7624906 C152.142909,95.8196845 163.436779,98.5728171 163.584135,97.4227988 C163.584135,97.4227988 162.92101,100.258893 160.865625,102.173382 C159.542043,103.410022 158.163702,105.255831 157.212981,107.154427 C152.957933,113.346056 154.902788,119.873623 159.861058,122.929823 C157.366827,120.186684 156.682692,117.540113 156.785817,113.442864 C157.236587,114.014442 163.101923,121.569211 162.832933,128.19768 C162.832933,128.19768 163.329111,128.59652 164.419856,128.536316 C165.510601,128.479122 167.647019,129.355092 169.227548,128.385806 C169.227548,128.385806 167.599495,130.956039 168.678221,132.89172 C168.179423,133.024169 167.888149,134.083207 165.039519,133.442034 C163.00226,132.984483 160.213077,134.716675 160.213077,134.716675 C159.708269,133.870807 159.057163,133.461612 158.471226,133.253908 C157.31738,132.850541 156.231707,131.363115 156.231707,131.363115 C156.231707,131.363115 156.997548,131.066236 156.673029,127.628535 C156.673029,127.628535 155.116755,127.250189 154.715216,126.763089 C155.379399,124.375034 155.263149,122.837542 154.992212,121.405889 C153.730192,114.795481 147.806154,111.488591 154.203462,106.199542 C152.82726,106.006889 150.520529,105.248125 149.531827,103.297465 C148.056466,100.380698 148.22774,94.3648649 152.987356,90.5089139 C156.043125,88.0345261 153.438822,85.3857873 157.513317,82.4237465 C152.113798,83.2846649 153.453221,88.3962322 150.325337,89.1637139 C136.085433,92.6584404 138.649135,103.361522 139.592644,106.778224 C139.781947,106.621693 139.946827,93.1961833 149.273654,91.7272037 C144.733269,97.4526118 146.668365,100.750591 147.57875,102.309877 C141.370817,105.581849 140.743894,111.779016 143.550385,115.267963 C143.643534,115.186687 141.470505,104.959338 150.184519,106.684065 C149.436322,108.649728 148.419375,111.198408 148.686803,113.170212 C149.023341,115.623649 151.556514,117.194012 152.860601,119.731493 C154.08125,122.10876 154.727764,124.740714 154.696346,126.749122 C154.687212,126.737322 154.661707,126.728171 154.654087,126.716202 C154.326563,126.201458 152.547332,124.72494 151.038942,124.571444 C150.474591,124.513889 148.36226,124.33595 146.423798,124.171641 C145.036611,122.087303 142.866346,121.709535 141.428365,118.579163 C139.412139,114.187155 139.825481,112.467245 140.080889,109.219355 C135.669832,117.130171 141.869688,123.563339 141.869688,123.677727 C134.904543,123.749971 133.684832,114.217739 134.174495,110.385869 C134.57113,107.276449 131.481466,105.512229 132.277716,101.613894 C134.333005,91.5747429 140.797428,90.6081061 145.151514,85.2318816 C147.158726,82.7574939 146.852043,81.5553388 146.912139,79.3338082 C146.305168,81.6817673 144.826058,83.7585673 142.235938,85.0861878 C137.518389,87.503502 131.153726,91.5412694 129.489063,96.2191265 C127.797356,100.972359 128.169014,106.289584 130.855313,112.544788 C132.824135,117.127041 132.788678,119.397698 131.418726,122.897 C130.759928,123.772078 130.000457,124.6893 129.127572,125.582584 C125.756178,129.032278 121.58262,129.914388 121.58262,129.914388 C121.58262,129.914388 125.890072,124.501559 123.347957,118.1652 C123.933894,125.419792 116.574159,133.848122 104.20637,142.129314 C104.20637,145.744449 104.272091,152.194714 104.272091,152.194714 C104.272091,152.194714 113.667764,140.627584 120.563678,134.462686 C125.389399,130.152073 132.297813,126.390282 134.92113,125.944771 C136.40851,125.691914 139.251418,125.78918 141.541082,125.930563 C141.054303,126.442298 140.959087,127.093634 141.151394,127.463889 C142.227115,126.392256 143.264159,126.034042 143.940337,126.034042 C144.721587,126.079195 146.306803,126.00695 145.747909,126.034042 C145.420385,126.049213 144.332837,127.409705 145.114087,127.614399 C145.751106,126.491593 148.02274,126.263949 148.344375,126.288031 C149.582356,126.372317 150.525865,126.266117 150.973702,126.645499 C152.80363,128.183713 155.175625,128.903152 155.175625,128.903152 C155.175625,128.903152 154.921899,131.151389 154.20375,131.828589 C155.727188,132.803895 155.979207,134.204964 157.048942,134.532956 C158.734639,135.056731 159.551106,136.986393 161.269856,137.091629 C160.849183,136.200609 161.036611,135.807789 161.67363,135.473633 C163.290216,134.627765 165.110649,135.18841 165.720745,135.19142 C166.730361,135.19431 168.03125,134.809678 168.458005,134.490596 C168.458005,134.490596 169.409976,133.833625 169.833654,133.041942 C168.935216,130.730105 170.472163,130.535044 170.472163,130.535044 C170.472163,130.535044 169.698413,128.955072 170.509736,127.760117 C170.509736,127.760117 176.989784,124.062623 175.772957,116.711705 L173.04988,119.604391 C173.04988,119.604391 173.383606,118.518646 173.017019,117.182019 C173.017019,117.182019 169.398269,120.860007 167.322067,120.182831 C167.322067,120.182831 168.168846,117.883613 160.058846,111.354505 C160.058846,111.354505 163.930481,101.85695 170.462933,97.6486845 C170.462933,97.6486845 171.391611,98.5814624 172.533438,99.8216665 C171.124183,100.631411 170.215216,101.419892 170.24226,101.434943 C170.221106,101.413992 171.205288,100.689352 172.683606,99.9909845 C173.449832,100.824811 174.288173,101.777914 175.012332,102.671993 C173.170385,104.140972 171.918341,105.639572 171.918341,105.630421 C171.912332,105.639572 173.29887,104.229352 175.218822,102.926054 C175.909928,103.802023 176.379808,104.643749 176.674279,105.155483 C178.396034,108.132455 174.947067,113.194414 172.519231,115.394993 C172.519231,115.394993 174.090938,116.842516 178.120433,114.482516 C178.120433,114.482516 181.25649,113.796575 182.416346,112.460044 C183.576202,111.120504 184.392572,109.605167 184.083077,107.991698 C184.083077,107.991698 185.619663,108.172502 186.965769,105.324898 C187.719976,103.7325 188.28976,102.027881 188.28976,102.027881 C188.28976,102.027881 190.593894,100.327501 190.942404,100.005409 C191.170769,99.7946951 191.402692,98.9072388 191.595,97.9499939 C191.853413,97.3268816 191.998774,96.8023596 191.998774,96.8023596 C191.998774,96.8023596 194.074351,95.274669 194.684351,94.507091 C195.294327,93.7424992 196.001947,92.4110498 196.149207,91.5110951 C196.266394,90.7705849 194.204351,87.8369604 192.975409,87.3673686 C192.104014,87.0332359 191.324832,86.5354204 190.285264,85.8340429 C189.248606,85.1326653 185.890313,80.9914673 184.303774,79.9077939 C182.717236,78.8241204 177.534063,76.8455735 176.190793,75.6323408 C174.847644,74.4222388 172.747764,69.7318592 170.791514,68.5065857 C168.976611,67.3687286 166.937428,66.892731 163.457861,66.7663024 C159.978293,66.6368637 156.589111,66.1971812 156.589111,66.1971812 C156.589111,66.1971812 152.208822,63.4964261 150.448005,62.8341812 C150.061875,62.6881984 149.571779,62.6379159 149.020721,62.6413355 L149.026442,62.6374343 Z M137.589423,64.1801518 C138.896803,64.1454502 140.10601,64.2836306 140.10601,64.2836306 C140.10601,64.2836306 138.982404,65.1125686 135.190385,65.7417012 C133.276322,66.0607829 132.552163,65.4630767 132.035337,65.2854747 C132.035337,65.2854747 134.236731,64.5906714 136.288942,64.2836306 C136.705096,64.2219094 137.153678,64.1917351 137.589471,64.1801518 L137.589423,64.1801518 Z M131.66899,65.51124 C128.826442,66.9501176 128.230529,68.5688849 128.077404,68.7283053 C126.974639,68.3460094 125.429327,68.2673588 125.429327,68.2673588 C127.346394,66.7622567 130.1125,65.6585955 131.66899,65.5112159 L131.66899,65.51124 Z M161.406971,68.0935135 C162.729087,68.1144645 163.827885,68.1241694 165.026923,68.295751 C166.009423,68.4360024 166.798293,68.5769763 168.111538,68.9730469 C168.094231,69.8540976 167.842981,71.3397176 166.195962,71.2777314 C163.873245,71.1904355 163.365913,69.4655886 160.871923,69.5468641 C158.822644,69.6130886 158.223365,70.1953824 156.82024,71.4988008 C155.936394,72.3195029 154.665192,72.4742514 153.810625,72.491229 C154.059231,72.3335184 154.273101,72.1478249 154.411587,71.8750763 C156.247524,68.2719824 158.35125,68.0422437 161.40726,68.0935376 L161.406971,68.0935135 Z M168.477644,69.0812457 C168.659639,69.1393788 168.733822,69.1423649 168.942452,69.2129482 C170.988726,69.9083053 173.862404,75.882838 175.280673,77.0206951 C176.698942,78.1615624 181.430673,80.1457686 182.957115,80.9433522 C184.486563,81.7410563 188.982837,86.5762869 190.947981,87.6599604 C192.543534,88.5419502 195.192212,90.8141727 194.140529,91.939989 C193.085841,93.0688155 191.451827,91.2773588 190.961923,90.5759812 C190.475144,89.8746037 189.449567,89.7427086 188.872644,89.8751576 C188.298726,90.0106167 188.06774,90.4632792 187.68012,90.8816976 C186.925913,91.6914424 188.53762,92.6626065 188.759976,93.33682 C188.985337,94.0080955 187.844832,94.6409849 188.379688,94.5597094 C189.052764,94.4603727 190.628606,94.2432527 190.928966,95.9801404 C190.986058,96.3142731 190.83601,97.3723478 190.820986,97.7486473 C190.466418,98.5704331 189.918606,99.3521469 189.407788,99.6441367 C188.809832,99.9842898 187.39363,100.500167 187.39363,100.500167 C187.39363,100.500167 185.772716,104.758522 185.445192,105.212942 C185.279928,105.444728 184.951082,105.725062 184.473317,105.899654 C183.683053,106.083276 183.092236,106.060519 182.698606,105.970213 C181.22625,105.62705 181.554327,104.774608 180.571755,104.488639 C179.589183,104.202669 178.553269,104.258731 177.735938,103.632609 C177.501563,103.451997 177.022115,102.902261 176.454207,102.155731 C176.541346,102.104557 176.634688,102.056394 176.721827,102.00522 C179.402115,100.587414 182.445144,100.163529 182.712692,100.17557 C182.862933,100.157509 183.323606,100.217906 183.449808,100.217906 C183.711226,100.217906 183.924014,99.994958 183.924014,99.7240396 C183.924014,99.4531212 183.711226,99.2301735 183.449808,99.2301735 C183.383702,99.2301735 182.847716,99.2065735 182.595313,99.2395653 C182.291827,99.2275245 179.136418,99.9223278 176.501082,101.596001 C176.395913,101.662226 176.293365,101.730714 176.191202,101.802959 C175.641322,101.059438 175.028726,100.170874 174.472837,99.2678853 C174.860457,99.1384465 175.263101,99.0272616 175.67476,98.9339453 C178.598317,98.0218535 181.660577,98.589289 181.951923,98.5953094 C182.531851,98.6464829 183.018822,98.4826073 183.045865,98.2237298 C183.069904,97.9648522 182.615986,97.7087922 182.027043,97.6546086 C181.777644,97.6485882 178.473197,97.3114453 175.552524,98.4824147 C175.113822,98.6178739 174.688822,98.7764755 174.280168,98.9480571 C173.525962,97.6867816 172.897019,96.4308041 172.716731,95.5426735 C172.629591,95.1212449 172.600481,94.6437543 172.627524,94.1410502 C172.903966,94.153091 173.183798,94.1704057 173.463245,94.1974976 C176.999784,94.3359669 180.31613,95.76526 180.571418,95.9518927 C181.175385,96.2258212 181.713245,96.3208233 181.848462,96.1070988 C181.992692,95.8873539 181.581971,95.3831567 180.932933,95.0911429 C180.641466,94.8774184 177.063702,93.6200922 173.481971,93.7224392 C173.205529,93.7164188 172.935481,93.7193086 172.665048,93.7224392 C172.803269,89.6434922 176.228029,88.7110514 176.252067,88.7320024 C172.733317,89.0089412 171.470817,91.7581004 171.317692,93.8681331 C168.757596,94.0969086 166.540529,94.6225624 166.561683,94.6677155 C166.546779,94.6225624 168.692091,94.2827947 171.219135,94.2256008 C171.204231,94.8306518 171.268149,95.5523543 171.355288,95.9376604 C171.355288,95.9376604 169.606875,95.313031 167.533654,95.5990245 C165.460337,95.8819837 165.290938,96.0575147 164.801202,95.8859331 C164.308413,95.7143514 163.581995,95.1132498 164.068774,93.9151886 C164.561563,92.7201376 165.317837,91.8464318 165.660385,90.0582743 C165.930817,87.0841927 165.078197,86.9445192 166.05476,84.6447233 C167.034327,82.3449273 169.062452,81.5528824 170.26149,81.3241069 C171.463413,81.0953314 175.333125,82.3780637 176.970625,83.2901555 C178.608245,84.1992371 180.678558,85.7977759 181.552837,85.9663473 C181.552837,85.9663473 178.053317,81.5254535 177.975192,79.8096371 C176.14226,80.1226984 172.99226,79.5861355 172.28024,79.4145539 C171.578029,79.2945792 171.042115,77.949909 170.64637,76.6817702 C170.019688,72.7393661 169.016923,70.2187416 168.477284,69.0811253 L168.477644,69.0812457 Z M115.730048,70.2100722 C115.730048,70.2100722 125.071875,71.8920298 127.481731,75.0827498 L120.965144,75.3508506 C120.965144,75.3508506 121.665457,76.5227592 122.810288,77.5943918 C123.958125,78.6660245 125.54274,79.25942 125.54274,79.25942 L122.232644,79.2736282 C122.232644,79.2736282 123.797764,83.245171 127.105962,81.4089947 C127.105962,81.4089947 124.666058,81.5580118 124.026154,80.0920184 C125.687813,80.5495694 127.784808,80.79696 129.500433,79.9932355 C125.94875,78.7048682 124.687933,77.2322763 124.687933,77.2322763 L131.936971,78.3564069 L131.054303,76.7337143 L133.279736,77.4015943 C133.279736,77.4015943 130.180938,73.1126555 127.25137,71.9596269 C123.167716,70.3491678 115.729736,70.2099518 115.729736,70.2099518 L115.730048,70.2100722 Z M144.828606,73.4271376 C144.828606,73.4271376 142.681298,73.6651363 141.250962,74.3725343 C139.820673,75.0799322 137.290144,77.3702159 136.316587,78.5020527 C134.615865,80.4827669 134.705072,82.8008649 131.598077,85.6935506 C131.598077,85.6935506 136.200962,83.6646731 137.030288,81.4041302 C138.938341,76.1933465 144.828606,73.4270894 144.828606,73.4270894 L144.828606,73.4271376 Z M162.585096,75.5672 C161.50637,76.9789857 162.91375,79.1700531 162.91375,79.1700531 C161.225048,79.094798 159.519279,77.1475812 159.519279,77.1475812 C159.519279,77.1475812 159.965865,76.5867441 160.99351,76.1081216 C162.024159,75.626489 162.58512,75.5672241 162.58512,75.5672241 L162.585096,75.5672 Z M164.383293,76.8747604 C164.59363,76.9771073 164.722644,77.1101102 164.866875,77.4532735 C164.878894,78.0854163 164.449014,78.4221739 164.449014,78.4221739 L164.12976,78.5021249 C163.381563,77.5509004 164.383293,76.8747363 164.383293,76.8747363 L164.383293,76.8747604 Z M180.975361,83.9817318 C180.999399,83.969691 181.898774,86.3903767 182.313438,89.0003441 C182.788197,91.59514 183.015817,94.2910788 183.045865,94.5410461 C183.108966,95.0437502 183.317428,95.4322592 183.52476,95.4111878 C183.729087,95.3902367 183.850769,94.954022 183.787692,94.4422873 C183.757644,94.18642 183.343726,91.484822 182.679663,88.9109771 C182.075697,86.3130506 180.996394,83.9636465 180.975385,83.9817078 L180.975361,83.9817318 Z M174.190986,85.3692433 C174.205889,85.3480514 176.140168,87.0577751 177.735697,89.1649902 C179.376322,91.2299902 180.843389,93.4960718 180.984736,93.7038963 C181.276202,94.1193045 181.641466,94.3668878 181.815745,94.2494898 C181.987019,94.135102 181.894255,93.6879061 181.599784,93.2664776 C181.452548,93.0557633 179.816058,90.8677302 178.022139,88.9110735 C176.264327,86.9062776 174.202909,85.3453061 174.190889,85.3693878 L174.190986,85.3692433 Z M184.482332,85.811358 C184.479447,85.8053376 185.243293,88.158378 185.402548,90.6418927 C185.546779,93.1343416 184.987692,95.6125824 184.909567,95.8204069 C184.804399,96.2809682 184.863173,96.7069 185.064495,96.7610837 C185.262813,96.8152673 185.526106,96.4837596 185.637284,95.9991167 C185.727428,95.7643208 186.117668,93.1341249 185.778125,90.5995331 C185.420553,88.0738514 184.476298,85.8084922 184.482308,85.811382 L184.482332,85.811358 Z M179.989303,106.05486 C180.193438,106.099965 180.402284,106.189934 180.604351,106.308849 C182.064688,107.166757 181.655649,108.504805 180.820313,110.184547 C179.759615,112.318782 177.004207,114.473967 174.134736,114.925739 C174.134736,114.925739 176.015361,113.51771 176.679447,112.160204 C177.34351,110.802602 177.989543,108.989135 178.482332,107.273318 C178.795577,106.187381 179.377019,105.91981 179.989423,106.055125 L179.989303,106.05486 Z M182.580889,107.992685 C182.580889,107.992685 183.260721,108.060788 183.350865,108.491247 C183.459038,109.021043 182.950481,109.991822 182.505769,110.786516 C181.484135,112.61672 179.224038,113.44874 179.224038,113.44874 C181.038942,112.226597 182.529808,109.079369 182.58101,107.992805 L182.580889,107.992685 Z M172.622716,118.222562 C172.622716,118.222562 172.291611,120.082869 171.81988,120.630726 C171.35113,121.178583 168.341514,122.220306 168.091995,122.102908 C167.842596,121.98852 167.319375,121.130612 167.857236,121.049337 C169.933558,120.730255 171.625024,119.836032 172.62262,118.222635 L172.622716,118.222562 Z M175.038582,118.761991 C175.038582,118.761991 174.487188,121.668644 173.047909,123.775787 C171.611611,125.88293 169.125313,127.354077 167.493822,127.293873 C166.529279,127.236679 166.226178,125.85461 166.226178,125.85461 C165.949736,124.701702 166.447596,123.516235 167.442188,123.197202 C168.436779,122.88113 169.927524,122.534018 171.132572,121.931977 C172.646995,121.179426 174.377764,119.424116 175.038822,118.761871 L175.038582,118.761991 Z" fill="#820431" transform="translate(148.096432, 107.416074) scale(-1, 1) rotate(-180.000000) translate(-148.096432, -107.416074) "></path>
                            <path d="M163.055288,2.41902408 C162.17488,4.17096286 163.426202,5.66908122 163.426202,5.66908122 C162.59988,3.6612751 163.567043,2.78578735 163.567043,2.78578735 L163.055288,2.41892776 L163.055288,2.41902408 Z M158.158413,38.7437588 C158.147115,38.8330776 158.535144,39.5949 161.829808,44.275069 C164.275721,47.7488445 164.275962,52.5531302 164.275962,52.5531302 C165.153365,48.2605792 165.839591,45.2997424 164.078774,42.9486527 C163.658101,42.3887547 162.248101,41.7808861 161.731274,41.1096106 C160.087043,38.9711616 158.209639,38.7592433 158.209639,38.7592433 C158.209639,38.7592433 158.161755,38.7153665 158.158005,38.7450351 L158.158413,38.7437588 Z M11.3603365,74.6446567 L1.45384615,81.9914812 L1.45384615,104.158865 L11.3603365,111.500873 L38.7737981,111.500873 L38.7737981,129.985453 L13.8387019,129.985453 L13.8387019,125.380804 L1.45336538,125.380804 L1.45336538,131.824567 L11.3598558,139.166575 L41.2540865,139.166575 L51.1557692,131.824567 L51.1557692,109.666575 L41.2540865,102.319751 L13.840625,102.319751 L13.840625,83.8212037 L38.7757212,83.8212037 L38.7757212,88.430669 L51.1564904,88.430669 L51.1564904,81.991722 L41.2548077,74.6448976 L11.3605769,74.6448976 L11.3603365,74.6446567 Z M128.829087,75.2231698 L128.829087,84.3243412 L135.040625,84.3243412 L135.040625,131.890382 L144.942308,139.166647 L174.836538,139.166647 L184.743029,131.890382 L184.743029,84.3243412 L190.954567,84.3243412 L190.954567,75.2231698 L166.146875,75.2231698 L166.146875,84.3243412 L172.358413,84.3243412 L172.358413,130.069811 L147.423317,130.069811 L147.423317,84.3243412 L153.634856,84.3243412 L153.634856,75.2231698 L128.831971,75.2231698 L128.829087,75.2231698 Z" fill="#FFFFFF" transform="translate(96.203966, 70.792788) scale(-1, 1) rotate(-180.000000) translate(-96.203966, -70.792788) "></path>
                        </g>
                    </g>
                </g>
            </g>
        </g>
    </g>
</svg>