<?xml version="1.0" encoding="UTF-8" standalone="no"?>
<svg width="250px" height="250px" viewBox="0 0 250 250" version="1.1" xmlns="http://www.w3.org/2000/svg" xmlns:xlink="http://www.w3.org/1999/xlink">
    <!-- Generator: Sketch 47.1 (45422) - http://www.bohemiancoding.com/sketch -->
    <title>MVSU</title>
    <desc>Created with Sketch.</desc>
    <defs></defs>
    <g id="Page-1" stroke="none" stroke-width="1" fill="none" fill-rule="evenodd">
        <g id="MVSU" fill-rule="nonzero">
            <g id="Group" transform="translate(0.000000, 38.000000)">
                <path d="M36.7141876,104.219957 L42.2248941,102.0285 C68.1501482,91.7952712 95.7763122,86.6017084 123.633059,86.7242248 C152.437643,86.5086248 181.025389,91.7369535 207.903928,102.136276 L213.128364,104.43551 L213.128364,153.330154 L200.604031,148.552059 C177.340205,139.569292 152.60093,135.060075 127.676629,135.259613 C100.967821,135.319061 74.4524748,139.810412 49.2027367,148.552059 L36.7141876,153.509782 L36.7141876,104.219957 Z" id="Shape" fill="#FFFFFF"></path>
                <polygon id="Shape" fill="#FFFFFF" points="0.429405703 165.041876 8.05135692 152.39609 16.7110386 138.025879 0 111.692467 117.621379 111.692467 117.621379 165.041876"></polygon>
                <polygon id="Shape" fill="#192F1C" points="115.009161 114.135403 111.43078 114.135403 108.568075 114.135403 15.888011 114.135403 10.8782778 114.135403 4.58032749 114.135403 7.80087026 119.200902 10.3773045 123.260487 19.6810947 137.989953 10.3057369 153.581633 7.87243788 157.605292 4.86659796 162.59894 10.9856292 162.59894 15.888011 162.59894 108.568075 162.59894 111.43078 162.59894 115.009161 162.59894 115.009161 159.257866 115.009161 156.563451 115.009161 120.170892 115.009161 117.512402"></polygon>
                <polygon id="Shape" fill="#046938" points="73.3210237 117.512402 70.458319 117.512402 15.888011 117.512402 10.8782778 117.512402 13.4189282 121.571987 23.8320165 137.954028 13.4189282 155.234207 10.9856292 159.257866 15.888011 159.257866 70.458319 159.257866 73.3210237 159.257866 73.3210237 156.563451 73.3210237 120.170892"></polygon>
                <polygon id="Shape" fill="#174924" points="15.888011 120.170892 70.458319 120.170892 70.458319 156.563451 15.888011 156.563451 27.1241269 137.918102"></polygon>
                <polygon id="Shape" fill="#FFFFFF" points="132.29274 165.221504 132.29274 111.872095 249.484713 111.872095 241.862762 124.553806 233.20308 138.888092 249.914119 165.221504"></polygon>
                <polygon id="Shape" fill="#192F1C" points="134.869174 162.778568 138.447555 162.778568 141.31026 162.778568 233.990324 162.778568 239.035841 162.778568 245.333791 162.778568 242.113249 157.713068 239.536814 153.653484 230.19724 138.924017 239.608382 123.332338 242.005897 119.344604 245.011737 114.31503 238.892706 114.31503 233.990324 114.31503 141.31026 114.31503 138.447555 114.31503 134.869174 114.31503 134.869174 117.656105 134.869174 120.350519 134.869174 156.743079 134.869174 159.437494"></polygon>
                <polygon id="Shape" fill="#046938" points="176.593095 159.437494 179.4558 159.437494 233.990324 159.437494 239.035841 159.437494 236.459407 155.341984 226.082102 138.995868 236.495191 121.679764 238.892706 117.656105 233.990324 117.656105 179.4558 117.656105 176.593095 117.656105 176.593095 120.350519 176.593095 156.743079"></polygon>
                <polygon id="Shape" fill="#174924" points="233.990324 156.743079 179.4558 156.743079 179.4558 120.350519 233.990324 120.350519 222.754208 138.995868"></polygon>
                <polygon id="Shape" fill="#192F1C" points="210.37301 149.557974 183.2131 157.281962 157.949731 164.035961 172.227471 128.757093"></polygon>
                <polygon id="Shape" fill="#192F1C" points="39.5411084 149.66575 66.7010191 157.389739 87.8850338 162.742642 77.6508645 128.864869"></polygon>
                <path d="M101.089259,145.354687 L94.3976869,145.354687 L93.825146,144.959506 L88.0639528,141.366953 L87.4914119,141.007698 L87.2051414,140.468815 C86.34633,138.780315 82.0880568,130.158188 83.6267606,125.667497 L84.0203825,124.589731 L85.2012481,124.230476 L168.505954,101.202213 L172.585309,100.088521 L171.476011,103.932553 C171.153956,104.938468 164.319249,128.757093 161.206057,136.73256 C160.168327,139.4629 156.232108,142.480644 135.048093,144.133219 C122.595328,145.139134 108.389156,145.282836 101.017692,145.282836" id="Shape" fill="#FFFFFF"></path>
                <polygon id="Shape" fill="#FFFFFF" points="97.8687164 173.879556 83.7698958 131.235954 88.1355204 129.58338 91.4276308 135.726645 90.3541166 136.229603 101.339746 169.460716 147.715562 169.532567 158.379137 130.014486 162.959464 131.128178 151.401294 173.987333"></polygon>
                <path d="M84.1635177,134.181847 L83.6267606,132.601124 C81.121894,125.056763 78.7363067,117.680055 76.4699989,110.470999 C74.2514027,103.285893 71.9970228,96.1007877 69.7426428,88.9156821 L62.7648002,67.3603652 C60.5939158,60.4866142 58.3395359,53.3015085 56.0016604,45.8050483 L42.4753807,45.8050483 L42.4753807,0 L114.973377,0 L114.973377,45.6254207 L110.715104,45.6254207 C111.788618,49.0383459 112.718997,51.9842392 113.542025,54.4990261 C114.543971,57.7323237 115.617485,61.0374723 116.726783,64.4144719 C117.836082,67.7914715 119.052731,71.5995775 120.305164,75.6950877 C121.092408,78.2098747 122.058571,81.155768 123.132085,84.4968421 L135.513283,45.6254207 L131.612848,45.6254207 L131.612848,0 L205.864251,0 L205.864251,45.6254207 L190.477213,45.6254207 C188.091626,53.1697816 185.837246,60.1992099 183.714073,66.7137057 C181.495477,73.7311588 179.324593,80.6767609 177.20142,87.550512 L170.581415,108.710648 L166.036872,107.453255 C168.327035,100.268149 170.509848,93.0830433 172.656876,86.2931185 C174.803905,79.5031937 176.950933,72.4258647 179.169529,65.4563122 C181.388126,58.4867598 183.821424,50.9064733 186.326291,42.7513784 L186.827264,41.2065807 L201.140788,41.2065807 L201.140788,4.45476549 L136.372094,4.45476549 L136.372094,41.2065807 L142.025936,41.2065807 L123.167869,99.9088937 L120.913489,92.723788 C118.873812,86.257193 117.156189,80.9761404 115.832188,76.8447046 L112.253807,65.5640888 C111.132581,62.1870892 110.059067,58.8819406 109.033265,55.648643 L105.275965,43.9009953 L104.38137,41.0628786 L110.249914,41.0628786 L110.249914,4.45476549 L47.2346273,4.45476549 L47.2346273,41.2065807 L59.6516088,41.2065807 L60.1525822,42.787304 C62.6574488,50.7627712 65.0549639,58.4508342 67.3093439,65.779642 C69.5637238,73.1084497 72.1043742,80.2935553 74.3587542,87.4786609 C76.6131341,94.6637666 78.9032978,101.848872 81.121894,109.033978 C83.3404901,116.219083 85.6664377,123.583817 88.2786557,131.092252 L86.167411,131.738912 L86.167411,134.181847 L84.1635177,134.181847 Z" id="Shape" fill="#FFFFFF"></path>
                <path d="M134.010363,2.22738274 L134.010363,43.4339635 L138.841177,43.4339635 L123.167869,92.2208306 C121.128192,85.7542356 119.589488,80.473183 118.122352,76.3417472 C116.655216,72.2103115 115.581702,68.438131 114.543971,65.0611314 C113.506241,61.6841318 112.361159,58.3789832 111.323428,55.1456856 C110.285698,51.9123881 109.069048,47.96058 107.745048,43.4339635 L112.611645,43.4339635 L112.611645,2.22738274 L44.8371121,2.22738274 L44.8371121,43.4339635 L57.8624184,43.4339635 C60.367285,51.4094307 62.7528722,59.0735434 65.0191801,66.4263015 C67.285488,73.7790596 69.5995076,81.0360162 71.961239,88.1971715 C74.2514027,95.3822771 76.4699989,102.567383 78.688595,109.752488 C80.9071911,116.937594 83.2331387,124.302327 85.8453567,131.846688 L85.8453567,131.846688 L86.0600595,131.846688 L86.3821138,132.924454 L85.8453567,131.918539 L99.7294744,172.909567 L149.826806,172.909567 L160.561949,131.810763 L160.561949,131.810763 C162.852113,124.913061 166.036872,114.350956 167.718711,108.243616 L168.1839,108.243616 C170.474064,101.058511 172.69266,93.8734049 174.803905,87.0475546 C176.915149,80.2217043 179.133746,73.2162263 181.316558,66.2466738 C183.49937,59.2771214 185.968453,51.8764626 188.47332,43.5776656 L203.502519,43.5776656 L203.502519,2.22738274 L134.010363,2.22738274 Z" id="Shape" fill="#FFFFFF"></path>
                <path d="M107.637696,43.5417401 L111.216077,55.2893878 L114.43662,65.168908 L118.015001,76.4495238 C119.339001,80.5809595 121.056624,85.8979377 123.096301,92.3286072 L139.091664,43.5417401 L134.117714,43.5417401 L134.117714,2.33515933 L203.502519,2.33515933 L203.502519,43.5417401 L188.866941,43.5417401 C186.183156,51.6609094 183.785641,59.2411958 181.71018,66.2107483 C179.634719,73.1803008 177.344555,80.1498532 175.197527,87.0475546 C173.050498,93.945256 170.867686,100.98666 168.577522,108.207691 C166.287358,115.428722 163.746708,123.332338 160.955571,131.918539 L149.826806,173.12512 L99.7294744,173.12512 L86.1316272,132.026316 L86.1316272,132.026316 C83.6267606,124.529856 81.2411733,117.165122 78.9748655,109.932116 C76.7562693,102.74701 74.5018894,95.5619048 72.2475094,88.3767991 L65.0907477,66.8214823 L57.933986,43.7932188 L44.9802473,43.7932188 L44.9802473,2.33515933 L112.718997,2.33515933 L112.718997,43.5417401 L107.637696,43.5417401 Z M145.604317,38.6917938 C141.644242,51.4333811 137.851158,63.2528798 134.225066,74.15029 C130.598973,85.0477002 127.020592,96.4001671 123.489923,108.207691 C121.271327,101.022585 119.255506,94.5799403 117.44246,88.8797565 C115.581702,83.2035231 113.864079,77.7428428 112.253807,72.5336412 C110.643536,67.3244397 108.925913,62.043387 107.172507,56.6545578 C105.4191,51.2657286 103.594126,45.3020909 101.447097,38.6917938 L108.067102,38.6917938 L108.067102,7.40065879 L49.8468453,7.40065879 L49.8468453,38.6917938 L61.297664,38.6917938 L77.0783236,87.9456928 C82.1596244,103.752925 87.4198443,120.027189 92.8589832,136.768485 L92.8589832,136.768485 L103.307855,168.05962 L145.210695,168.05962 L154.192431,136.768485 L154.192431,136.768485 C156.983568,128.002657 159.703138,119.596083 162.279572,111.620616 C164.856006,103.645149 167.360873,95.4900537 169.865739,87.4786609 C172.370606,79.4672682 174.911256,71.4918009 177.48769,63.5163337 L185.610615,38.6917938 L198.850624,38.6917938 L198.850624,7.40065879 L139.091664,7.40065879 L139.091664,38.6917938 L145.604317,38.6917938 Z" id="Shape" fill="#BE202E"></path>
                <polygon id="Shape" fill="#174924" points="145.139127 32.5126029 145.139127 13.400222 193.447269 13.400222 193.447269 32.5126029 181.745964 32.5126029 146.892534 142.732123 146.176858 145.139134 140.880854 162.060057 107.995534 162.060057 100.981908 142.732123 65.9137753 32.5126029 55.9658766 32.5126029 55.9658766 13.400222 102.556395 13.400222 102.556395 32.5126029 93.7177946 32.5126029 123.74041 127.104518 153.941944 32.5126029"></polygon>
                <path d="M150.936104,173.699928 L97.6540135,173.699928 L96.9741211,173.053269 L77.2214588,154.192367 L76.5773503,153.581633 L76.5773503,128.038582 L94.4692546,128.038582 L77.2572426,111.764318 L76.6131341,111.117658 L76.6131341,76.7010025 L77.2572426,76.0902685 L97.009905,57.2293663 L97.6897973,56.5827068 L150.936104,56.5827068 L151.615997,57.2293663 L171.297091,76.1621196 L171.9412,76.7728536 L171.9412,102.675159 L154.049296,102.675159 L171.297091,119.129051 L171.9412,119.739785 L171.9412,153.509782 L171.297091,154.120516 L151.615997,172.981418 L150.936104,173.699928 Z M117.156189,142.229166 L131.469713,142.229166 L132.221173,141.618432 L132.936849,141.007698 L132.936849,132.529273 L131.433929,131.092252 L115.760621,131.092252 L115.760621,140.82807 L116.22581,141.259177 L117.156189,142.157315 L117.156189,142.229166 Z M117.156189,99.6214894 L132.829497,99.6214894 L132.829497,89.5623416 L131.326577,88.0893949 L117.013054,88.0893949 L115.617485,89.526416 L115.617485,98.2563194 L115.975323,98.5796491 L117.013054,99.4777873 L117.156189,99.6214894 Z" id="Shape" fill="#FFFFFF"></path>
                <path d="M98.6559602,128.972646 L78.9032978,110.291371 L78.9032978,77.5991407 L98.6559602,58.7382385 L149.826806,58.7382385 L169.615252,77.5632152 L169.615252,100.519628 L135.191229,100.519628 L135.191229,88.6642034 L132.328524,85.9338632 L116.082675,85.9338632 L113.398889,88.6642034 L113.398889,99.1544576 C113.756658,99.5731188 114.151937,99.9579378 114.579755,100.304074 C115.109064,100.752294 115.61095,101.232173 116.082675,101.741096 L149.826806,101.741096 L169.615252,120.566072 L169.615252,152.611643 L149.826806,171.508471 L98.6559602,171.508471 L78.9032978,152.647569 L78.9032978,130.194114 L113.398889,130.194114 L113.398889,141.726208 C113.756727,142.013613 114.114565,142.372868 114.579755,142.803974 C115.044944,143.235081 115.510134,143.702112 116.082675,144.312846 L132.328524,144.312846 L133.652525,143.16323 C134.202443,142.725795 134.716956,142.245283 135.191229,141.726208 L135.191229,131.702986 L132.328524,128.972646 L98.6559602,128.972646 Z M134.010363,125.775274 L138.698042,130.194114 L138.698042,143.235081 L136.193175,145.462463 C135.415659,146.089367 134.686013,146.773868 134.010363,147.510218 L114.579755,147.510218 C113.824274,146.708737 113.01097,145.964259 112.146456,145.282836 C111.33521,144.669675 110.580694,143.984314 109.892076,143.235081 L109.892076,133.535188 L82.4458949,133.535188 L82.4458949,151.282399 L100.337799,168.167397 L148.395454,168.167397 L166.287358,151.282399 L166.287358,121.967168 L148.395454,105.118095 L114.579755,105.118095 C113.577808,104.11218 112.754781,103.321819 112.146456,102.818861 C111.354773,102.15672 110.602047,101.448994 109.892076,100.699255 L109.892076,87.1912567 L114.579755,82.7724168 L134.010363,82.7724168 L138.698042,87.1912567 L138.698042,97.2144791 L166.144223,97.2144791 L166.144223,79.0002363 L148.252319,62.1152381 L100.194664,62.1152381 L82.3027596,79.0002363 L82.3027596,108.746574 L100.194664,125.775274 L134.010363,125.775274 Z M101.804935,121.679764 L86.5610329,107.309552 L86.5610329,80.6528106 L101.840719,65.9233441 L146.713615,65.9233441 L162.136437,80.5091085 L162.136437,93.1189689 L142.884748,93.1189689 L142.884748,85.6823845 L135.727986,78.4972789 L112.897916,78.4972789 L105.741154,85.6823845 L105.741154,102.208127 L112.897916,109.069903 L146.713615,109.069903 L162.136437,123.655668 L162.136437,149.629825 L146.713615,164.215589 L101.840719,164.215589 L86.5968167,149.629825 L86.5968167,137.486996 L105.70537,137.486996 L105.70537,144.672102 L112.862132,151.35425 L135.656418,151.35425 L142.81318,144.672102 L142.81318,128.649316 L135.656418,121.679764 L101.804935,121.679764 Z" id="Shape" fill="#BE202E"></path>
                <polygon id="Shape" fill="#174924" points="101.804935 121.679764 86.5968167 107.237701 86.5968167 80.6528106 101.804935 66.0670462 146.677831 66.0670462 162.100653 80.6528106 162.100653 93.262671 142.848964 93.262671 142.848964 85.646459 135.656418 78.6769066 112.862132 78.6769066 105.669587 85.646459 105.669587 102.208127 112.862132 109.069903 146.677831 109.069903 162.100653 123.655668 162.100653 149.629825 146.677831 164.215589 101.804935 164.215589 86.5968167 149.629825 86.5968167 137.486996 105.669587 137.486996 105.669587 144.779878 112.862132 151.462026 135.656418 151.462026 142.848964 144.779878 142.848964 128.649316 135.656418 121.679764"></polygon>
                <polygon id="Shape" fill="#FFFFFF" points="131.791767 87.4786609 117.156189 87.4786609 115.080728 89.1312352 115.080728 98.2563194 116.798351 100.34 133.974579 100.34 134.475553 89.6701182"></polygon>
                <polygon id="Shape" fill="#FFFFFF" points="117.514027 142.768049 132.149605 142.768049 134.225066 141.1514 134.225066 132.026316 132.507443 129.942635 115.331215 129.942635 114.866025 140.576591"></polygon>
                <path d="M39.2906218,149.66575 L39.2906218,105.836606 L41.4734341,104.974393 L43.2268407,104.255883 C68.8371331,94.1659888 96.1216642,89.0458785 123.633059,89.1671608 C152.058891,88.9361497 180.272917,94.0918291 206.79463,104.363659 L208.440685,105.08217 L210.516146,105.980308 L210.516146,149.66575 L205.57798,147.689846 L201.605977,146.145048 C178.024952,137.030521 152.944004,132.460044 127.676629,132.672975 C100.632673,132.673857 73.7803104,137.227693 48.2365739,146.145048 L44.2645712,147.689846 L39.2906218,149.66575 Z" id="Shape" fill="#192F1C"></path>
                <path d="M42.8690026,144.600251 L42.8690026,108.063989 L44.6224093,107.381404 C69.7818681,97.4394246 96.5951293,92.3920271 123.633059,92.5082349 C151.540378,92.2857028 179.240751,97.3310019 205.29171,107.381404 L206.937765,108.13584 L206.937765,144.600251 L203.001546,143.019527 C179.026209,133.774158 153.538026,129.119374 127.855548,129.295976 C100.334137,129.283411 73.0070129,133.922767 47.0199244,143.019527 L42.8690026,144.600251 Z" id="Shape" fill="#0C713D"></path>
                <path d="M45.7317073,109.824339 L45.7317073,140.540666 C45.7317073,140.540666 124.456086,109.17768 204.110844,140.540666 L204.110844,109.824339 C204.110844,109.824339 128.607008,76.9165557 45.7317073,109.824339" id="Shape" fill="#174924"></path>
                <path d="M60.367285,107.345478 L63.9456659,106.267712 C64.4466392,109.213605 64.9833963,112.123573 65.5201534,115.069467 C65.5201534,115.608349 65.6990725,116.111307 65.8064239,116.65019 L66.343181,120.242743 C66.343181,120.817551 66.343181,121.356434 66.5936677,121.859391 C66.8441544,122.362349 66.5936677,122.793455 66.8083705,123.188636 C67.0230734,123.583817 66.8083705,123.978997 66.8083705,124.374178 L66.8083705,123.655668 L66.8083705,123.15271 C66.8083705,122.146796 67.094641,121.140881 67.2735601,120.134966 C67.4524791,119.129051 67.667182,117.476477 67.846101,116.147232 C67.846101,115.787977 67.846101,115.464647 68.02502,115.141318 L68.02502,114.350956 L69.7426428,104.615138 L73.070537,103.788851 C71.3052025,112.55468 69.5756517,121.356434 67.8818848,130.194114 L65.0549639,130.984475 C63.3731249,123.116785 61.6555021,115.28502 59.9736631,107.453255" id="Shape" fill="#FFFFFF"></path>
                <path d="M76.6489179,102.890712 L79.440055,102.279979 L85.1296805,126.170455 L81.5512997,126.888965 L80.549353,122.218647 L75.324917,123.404189 C75.0028627,125.128614 74.6450246,126.817114 74.3229703,128.54154 L70.7445895,129.403752 C72.6769151,120.566072 74.573457,111.728392 76.5057827,102.926638 M80.0841635,119.739785 C79.797893,118.446466 79.5474064,117.189073 79.2969197,115.931679 C78.7601626,113.309116 78.3307569,110.506924 77.9729188,107.48918 C77.9729188,109.033978 77.6150807,110.614701 77.3645941,112.195424 C77.1141074,113.776148 76.8278369,115.500573 76.4699989,117.332775 L75.8258903,120.673849 L80.0841635,119.811636" id="Shape" fill="#FFFFFF"></path>
                <path d="M85.415951,101.094436 L88.9943318,100.447777 L88.9943318,122.649753 L94.8628764,121.751615 L94.8628764,124.589731 C91.7139013,125.056763 88.5649261,125.559721 85.415951,126.134529 L85.415951,101.094436 Z" id="Shape" fill="#FFFFFF"></path>
                <path d="M95.2207145,99.5137129 L98.7990954,99.046681 L98.7990954,121.248657 C100.767205,120.997179 102.735314,120.817551 104.703424,120.637923 L104.703424,123.404189 C101.518665,123.691593 98.3696897,124.050849 95.2207145,124.481955 L95.2207145,99.5137129 Z" id="Shape" fill="#FFFFFF"></path>
                <path d="M105.061262,98.2563194 C108.281805,97.9689151 111.466564,97.753362 114.687106,97.6455854 L114.687106,100.483702 L108.675427,100.807032 L108.675427,109.033978 L114.042998,108.602871 L114.042998,111.440988 L108.71121,111.764318 L108.71121,120.314594 L114.72289,119.991264 L114.72289,122.829381 C111.502347,122.829381 108.317588,123.15271 105.097046,123.440115 L105.061262,98.2563194 Z" id="Shape" fill="#FFFFFF"></path>
                <path d="M114.042998,97.825213 L117.871865,97.825213 C118.444406,99.6214894 119.052731,101.417766 119.625272,103.249968 L119.804191,103.752925 L120.018894,104.399585 C120.527158,105.973705 120.921801,107.582543 121.19976,109.213605 C121.330976,108.270965 121.510129,107.33568 121.736517,106.411414 L122.273274,104.148106 L122.487977,103.285893 L123.990897,97.6096599 L127.569277,97.6096599 C126.030574,102.315904 124.456086,107.058074 122.917382,111.979871 L122.917382,122.75753 L119.339001,122.75753 L119.339001,111.979871 L114.042998,97.825213" id="Shape" fill="#FFFFFF"></path>
                <path d="M142.383774,99.0826065 L142.383774,102.35183 C141.541333,101.625411 140.511914,101.152244 139.413718,100.98666 C138.55896,100.880641 137.702685,101.171605 137.087771,101.777021 C136.48057,102.382888 136.155796,103.217602 136.193175,104.076255 C136.171134,104.890452 136.395734,105.692193 136.837284,106.375489 C137.148768,106.865428 137.508406,107.322773 137.910798,107.740659 C138.411771,108.315467 139.091664,109.033978 139.878908,109.824339 C141.056661,110.970164 142.068469,112.276212 142.884748,113.704296 C143.421155,114.824303 143.690673,116.054239 143.671991,117.296849 C143.76188,119.020337 143.125516,120.702296 141.918585,121.931242 C140.709304,123.047485 139.078485,123.584512 137.445609,123.404189 C136.010788,123.322172 134.630717,122.82288 133.473606,121.967168 L133.473606,118.73387 C134.505195,119.558138 135.743529,120.080298 137.051987,120.242743 C137.894752,120.357428 138.745162,120.094727 139.377934,119.524232 C139.943977,118.840249 140.237229,117.969808 140.200962,117.081296 C140.207973,116.212413 139.985742,115.357154 139.556853,114.602435 C139.2946,114.147356 138.995386,113.714781 138.662258,113.309116 C138.280564,112.854059 137.779591,112.315176 137.159338,111.692467 C136.539085,111.069758 135.787625,110.279396 134.904958,109.321382 C134.394777,108.781231 133.939281,108.191555 133.545173,107.561031 C132.98056,106.449749 132.697858,105.215744 132.722146,103.968478 C132.615287,102.284038 133.211677,100.630961 134.368201,99.4059363 C135.53534,98.2698507 137.160117,97.7393753 138.76961,97.9689151 C140.035114,98.0932673 141.257324,98.498194 142.34799,99.1544576" id="Shape" fill="#FFFFFF"></path>
                <path d="M143.135234,98.6155747 C147.023741,98.9987803 150.924176,99.5017377 154.83654,100.124447 L154.83654,103.07034 L150.828753,102.495532 L150.828753,124.589731 L147.250372,124.1227 L147.250372,102.0285 L143.09945,101.561468 L143.135234,98.6155747 Z" id="Shape" fill="#FFFFFF"></path>
                <path d="M158.271785,100.699255 L161.062922,101.202213 L166.752548,127.427848 L163.174167,126.673412 C162.852113,124.984912 162.494275,123.296412 162.17222,121.607913 L156.983568,120.637923 C156.62573,122.218647 156.303676,123.763444 155.945838,125.344168 L152.367457,124.805285 L158.164434,100.699255 M161.742815,118.877573 C161.456544,117.512402 161.206057,116.111307 160.955571,114.746137 C160.418814,111.90802 159.989408,108.962127 159.63157,105.80068 C159.63157,107.273627 159.273732,108.746574 159.023245,110.255446 C158.772759,111.764318 158.486488,113.345041 158.12865,114.997615 L157.484541,118.123136 L161.742815,118.877573" id="Shape" fill="#FFFFFF"></path>
                <path d="M164.319249,101.848872 C168.1839,102.639234 172.048551,103.573298 175.913203,104.579212 L175.913203,107.525106 L171.9412,106.519191 L171.9412,128.613391 L168.362819,127.787103 L168.362819,105.692904 L164.247681,104.794765 L164.319249,101.848872 Z" id="Shape" fill="#FFFFFF"></path>
                <path d="M176.020554,104.615138 C179.205313,105.441425 182.318505,106.375489 185.46748,107.345478 L185.46748,110.21952 C183.49937,109.572861 181.567045,108.998052 179.598935,108.459169 L179.598935,116.219083 L184.823371,117.799807 L184.823371,120.637923 L179.598935,119.093126 L179.598935,127.643401 C181.567045,128.182284 183.49937,128.793018 185.46748,129.403752 L185.46748,132.241869 C182.318505,131.27188 179.205313,130.373741 176.020554,129.511529 L176.020554,104.615138 Z" id="Shape" fill="#FFFFFF"></path>
                <polygon id="Shape" fill="#BE202E" points="169.651036 97.2144791 135.155445 97.2144791 135.155445 89.4186395 138.662258 89.4186395 138.662258 93.9093305 166.144223 93.9093305 166.144223 92.8674902 169.651036 92.8674902"></polygon>
                <rect id="Rectangle-path" fill="#FFFFFF" x="138.662258" y="88.9875331" width="4.15092179" height="4.95772288"></rect>
                <rect id="Rectangle-path" fill="#FFFFFF" x="141.990152" y="89.9575224" width="24.1540708" height="3.95180809"></rect>
                <rect id="Rectangle-path" fill="#FFFFFF" x="169.651036" y="93.1548944" width="2.36173136" height="6.35881847"></rect>
                <rect id="Rectangle-path" fill="#FFFFFF" x="134.439769" y="97.2144791" width="35.4259705" height="2.2992338"></rect>
                <rect id="Rectangle-path" fill="#FFFFFF" x="132.793714" y="88.9156821" width="2.36173136" height="10.5261797"></rect>
                <rect id="Rectangle-path" fill="#BE202E" x="78.9032978" y="130.194114" width="34.4955914" height="3.30514859"></rect>
                <rect id="Rectangle-path" fill="#BE202E" x="78.9032978" y="133.391486" width="3.50681324" height="5.10142499"></rect>
                <rect id="Rectangle-path" fill="#FFFFFF" x="76.5415665" y="128.002657" width="2.36173136" height="10.7776584"></rect>
                <rect id="Rectangle-path" fill="#FFFFFF" x="76.9709722" y="128.002657" width="36.6068361" height="2.22738274"></rect>
                <rect id="Rectangle-path" fill="#FFFFFF" x="113.363105" y="128.002657" width="2.36173136" height="12.8254135"></rect>
                <polygon id="Shape" fill="#FFFFFF" points="82.4101111 137.019964 82.4101111 133.463337 109.856292 133.499262 88.6364938 135.978124 85.0938967 137.415145 82.6248139 137.415145"></polygon>
            </g>
        </g>
    </g>
</svg>