<?xml version="1.0" encoding="UTF-8" standalone="no"?>
<svg width="250px" height="250px" viewBox="0 0 250 250" version="1.1" xmlns="http://www.w3.org/2000/svg" xmlns:xlink="http://www.w3.org/1999/xlink">
    <!-- Generator: Sketch 47.1 (45422) - http://www.bohemiancoding.com/sketch -->
    <title>JACKST</title>
    <desc>Created with Sketch.</desc>
    <defs></defs>
    <g id="Page-1" stroke="none" stroke-width="1" fill="none" fill-rule="evenodd">
        <g id="JACKST" fill-rule="nonzero">
            <g id="Group" transform="translate(0.000000, 46.000000)">
                <path d="M136.266186,152.074667 C136.514652,104.162667 136.514652,55.1553333 136.266186,7.208 C93.2459677,6.81933333 49.5868355,7.208 6.31815084,7.03133333 L5.85671286,7.34933333 C5.60824625,55.1906667 5.60824625,104.162667 5.85671286,152.004 C48.9479214,152.251333 93.1394821,152.251333 136.266186,152.004 L136.266186,152.074667 Z M243.000341,151.686 C243.390788,129.002 243.000341,105.752667 243.000341,82.68 C209.102397,82.3266667 174.494548,82.68 140.348137,82.68 L140.02868,83.1393333 L140.02868,151.686 C173.997615,152.039333 208.605463,151.686 242.964846,151.686 L243.000341,151.686 Z M242.964846,77.9453333 C243.355293,54.7313333 242.964846,30.846 242.964846,7.27866667 C209.066901,6.89 174.459053,7.27866667 140.312642,7.102 L139.993185,7.59666667 C139.993185,30.2453333 139.780214,55.6146667 139.993185,77.8393333 L242.964846,77.9453333 Z M249.77993,0.212 L249.77993,158.540667 L0,158.540667 L0,0.459333333 L0,0 L249.77993,0.212 Z" id="Shape" fill="#FFFFFF"></path>
                <path d="M214.604157,66.3206667 C217.172275,62.2900706 218.193158,57.4724031 217.479271,52.7526667 C216.939787,48.8306657 214.890741,45.2706908 211.764539,42.824 C207.104732,39.8050746 201.853889,37.8058478 196.359609,36.9586667 C189.260563,35.404 179.854328,34.344 178.611995,27.8073333 C178.156352,24.957682 178.928857,22.0488704 180.739687,19.7956569 C182.550517,17.5424434 185.231811,16.1536983 188.124716,15.9706667 C200.761018,14.1686667 207.718083,24.8746667 210.486711,33.6373333 C211.748763,33.92 213.058143,33.92 214.320195,33.6373333 C214.320195,26.5706667 214.320195,18.4793333 214.320195,12.6493333 C213.378139,12.5196505 212.422634,12.5196505 211.480577,12.6493333 C209.918787,14.098 208.960416,16.1826667 207.505111,17.702 C201.254363,12.8777394 193.265548,10.8672347 185.462574,12.1546667 C177.612974,13.368598 171.454614,19.4988696 170.23512,27.3126667 C168.424864,42.6826667 178.966947,46.322 189.899478,48.972 C195.365743,50.2793333 202.287313,51.0213333 205.765845,53.848 C208.872475,56.9182726 209.69739,61.604508 207.824568,65.5433333 C205.673851,68.9415451 202.01843,71.1090312 197.99239,71.3733333 C191.538182,72.3716626 184.983597,70.3359597 180.244775,65.8613333 C176.879378,61.8852631 174.388493,57.2512029 172.932758,52.258 C171.746685,52.182255 170.555802,52.2415275 169.383235,52.4346667 C169.134768,59.5013333 169.134768,67.734 169.383235,74.836 C173.926624,75.6486667 173.962119,70.4193333 176.766243,69.006 C180.266157,71.8930202 184.38149,73.9473438 188.799125,75.0126667 C198.32101,77.0703655 208.206171,73.7269147 214.497672,66.3206667 M242.893855,7.27866667 C242.893855,30.74 243.106826,54.6253333 242.893855,77.9453333 L140.383632,77.9453333 C139.993185,55.7206667 140.383632,30.3513333 140.383632,7.70266667 L140.70309,7.208 C174.8495,7.208 209.457349,6.996 243.355293,7.38466667" id="Shape" fill="#09233C"></path>
                <path d="M225.856145,90.948 C226.140474,89.6440709 226.140474,88.2945958 225.856145,86.9906667 C218.508632,86.7433333 210.060768,86.7433333 202.713255,86.9906667 C202.464482,88.2506138 202.464482,89.5467195 202.713255,90.8066667 C213.645786,90.8066667 211.587063,102.572667 211.587063,113.844 C211.587063,119.391333 211.871025,125.221333 211.587063,129.638 C211.264906,133.460209 209.502374,137.019683 206.653226,139.602 C200.477056,144.619333 188.479668,143.453333 184.468707,137.552667 C180.919184,132.570667 181.77107,124.903333 181.77107,115.292667 L181.77107,102.961333 C181.77107,99.428 181.061165,93.1033333 182.871422,91.584 C184.681679,90.0646667 188.231202,91.4073333 190.822353,90.8066667 C191.071127,89.5467195 191.071127,88.2506138 190.822353,86.9906667 C181.02567,86.7433333 170.128635,86.7433333 160.367447,86.9906667 C159.764028,87.662 160.012494,89.888 160.18997,90.8066667 C162.852113,91.3366667 166.29515,90.3473333 167.821445,91.7606667 C169.34774,93.174 168.779816,98.0853333 168.779816,100.912 L168.779816,111.158667 C168.779816,118.013333 168.282883,125.292 168.779816,131.687333 C169.596206,142.605333 177.618128,147.658 187.627783,149.071333 C202.500284,151.120667 216.236938,144.548667 216.982338,130.91 C217.266299,125.61 216.982338,118.72 216.982338,112.112667 C216.982338,102.007333 215.243071,89.994 225.856145,90.9126667 M243.177817,82.5386667 C243.177817,105.505333 243.390788,128.860667 243.177817,151.544667 C208.960416,151.544667 174.352567,151.756667 140.241652,151.544667 L140.241652,82.892 L140.561109,82.4326667 C174.707519,82.4326667 209.315368,82.2206667 243.213312,82.4326667" id="Shape" fill="#09233C"></path>
                <path d="M225.856145,86.9906667 C226.140474,88.2945958 226.140474,89.6440709 225.856145,90.948 C215.207576,89.994 216.982338,102.007333 216.982338,112.148 C216.982338,118.755333 217.266299,125.645333 216.982338,130.945333 C216.236938,144.584 202.500284,151.156 187.627783,149.106667 C177.618128,147.693333 169.596206,142.640667 168.779816,131.722667 C168.282883,125.398 168.779816,118.048667 168.779816,111.194 L168.779816,100.947333 C168.779816,98.1206667 169.276749,93.1386667 167.821445,91.796 C166.36614,90.4533333 162.852113,91.372 160.18997,90.842 C160.18997,89.9233333 159.764028,87.6973333 160.367447,87.026 C170.128635,86.7786667 181.02567,86.7786667 190.822353,87.026 C191.071127,88.2859471 191.071127,89.5820529 190.822353,90.842 C188.231202,91.4426667 184.504203,90.2766667 182.871422,91.6193333 C181.238642,92.962 181.77107,99.428 181.77107,102.996667 L181.77107,115.469333 C181.77107,125.08 180.990175,132.747333 184.468707,137.729333 C188.479668,143.488667 200.477056,144.796 206.511245,139.637333 C209.360393,137.055017 211.122925,133.495542 211.445082,129.673333 C211.871025,125.256667 211.445082,119.426667 211.445082,113.879333 C211.445082,102.608 213.503805,90.736 202.571274,90.842 C202.322501,89.5820529 202.322501,88.2859471 202.571274,87.026 C209.918787,86.7786667 218.366652,86.7786667 225.714164,87.026" id="Shape" fill="#FFFFFF"></path>
                <path d="M217.479271,52.7526667 C218.237519,57.5299543 217.214959,62.4183706 214.604157,66.4973333 C208.312657,73.9035814 198.427496,77.2470322 188.905611,75.1893333 C184.43455,74.0869512 180.279965,71.9707632 176.766243,69.006 C173.855634,70.49 173.820139,75.6486667 168.815311,74.518 C168.566845,67.4513333 168.566845,59.2186667 168.815311,52.1166667 C169.987878,51.9235275 171.178761,51.864255 172.364834,51.94 C173.82057,56.9332029 176.311454,61.5672631 179.676851,65.5433333 C184.415673,70.0179597 190.970258,72.0536626 197.424466,71.0553333 C201.450506,70.7910312 205.105928,68.6235451 207.256645,65.2253333 C209.129467,61.286508 208.304551,56.6002726 205.197921,53.53 C201.648398,50.7033333 194.797819,49.9966667 189.331554,48.654 C178.399023,46.004 168.034416,42.3646667 169.667197,26.9946667 C170.88669,19.1808696 177.045051,13.050598 184.89465,11.8366667 C192.771806,10.4973762 200.851271,12.5240635 207.150159,17.4193333 C208.605463,15.8646667 209.563835,13.886 211.125625,12.3666667 C212.067681,12.2369839 213.023186,12.2369839 213.965243,12.3666667 C214.320195,18.1966667 213.965243,26.2173333 213.965243,33.39 C212.711458,33.6375353 211.421039,33.6375353 210.167254,33.39 C207.36313,24.592 200.406065,13.886 187.769764,15.7233333 C184.881122,15.91698 182.206726,17.3085343 180.398119,19.558982 C178.589511,21.8094298 177.812739,24.7121593 178.257042,27.56 C179.676851,34.0966667 188.905611,35.1566667 196.004657,36.7113333 C201.498937,37.5585145 206.74978,39.5577412 211.409587,42.5766667 C214.725216,45.0181243 216.913095,48.686167 217.479271,52.7526667" id="Shape" fill="#FFFFFF"></path>
                <path d="M115.962915,25.7226667 C116.211414,23.1610691 116.211414,20.5815976 115.962915,18.02 C96.227567,17.6313333 75.8178101,18.02 55.8339959,17.8433333 L55.5145388,18.3026667 C55.3699605,20.8799924 55.3699605,23.4633409 55.5145388,26.0406667 C61.0872899,26.712 70.3160495,24.4506667 73.2621536,27.9486667 C74.6181811,30.8613557 75.1695454,34.0812729 74.8594389,37.2766667 C75.0724103,56.4626667 74.8594389,74.7653333 74.8594389,93.3153333 C74.8594389,100.629333 75.178896,108.084667 74.5399818,115.434 C73.5816106,126.034 67.7248978,133.772 58.1766811,135.786 C53.5372051,136.72783 48.7319461,136.46006 44.2270559,135.008667 C38.9737619,133.418667 33.5784871,130.415333 32.4781349,125.044667 C37.6224964,126.098086 42.9659279,124.699709 46.9246933,121.264 C49.5431269,119.364854 51.7519644,116.961835 53.4203203,114.197333 C55.343868,109.096496 55.0612071,103.430693 52.6394253,98.5446667 C49.9989526,94.2161609 45.4862602,91.3563585 40.4290663,90.8066667 C27.0473648,89.7113333 19.4158905,99.2513333 18.5285098,110.381333 C17.8009155,119.223349 21.4104357,127.870377 28.2187074,133.595333 C33.5291134,138.370158 39.9624369,141.736198 46.9246933,143.382667 C55.4053933,145.206794 64.190712,145.098082 72.6232394,143.064667 C87.6377215,139.531333 98.392776,129.814667 100.699966,114.020667 C101.417868,104.674119 101.524579,95.2909974 101.019423,85.9306667 L101.019423,43.1066667 C101.019423,38.7606667 100.132042,32.7186667 101.658337,29.362 C103.64607,24.9453333 110.177192,26.5 115.856429,25.8286667 M136.1597,7.38466667 C136.408167,55.2613333 136.408167,104.268667 136.1597,152.251333 C93.0329964,152.498667 48.8414357,152.498667 5.75022717,152.251333 C5.50176056,104.41 5.50176056,55.438 5.75022717,7.59666667 L6.21166515,7.27866667 C49.4803498,7.27866667 93.1394821,7.06666667 136.1597,7.45533333" id="Shape" fill="#09233C"></path>
                <path d="M116.424353,17.7373333 C116.672722,20.3107421 116.672722,22.9019246 116.424353,25.4753333 C110.851602,26.2526667 104.284984,24.698 102.226261,29.0086667 C100.699966,32.542 101.587347,38.372 101.587347,42.7533333 L101.587347,85.4713333 C101.587347,90.2413333 101.906804,104.198 101.835813,106.353333 C101.764823,108.508667 101.587347,111.441333 101.26789,113.42 C100.843648,116.477424 100.032654,119.469162 98.854214,122.324 C94.1468547,132.829313 84.5518114,140.359367 73.1911631,142.464 C64.7565082,144.480502 55.9750214,144.589166 47.492617,142.782 C40.5415306,141.105962 34.1151694,137.743566 28.7866311,132.994667 C21.9832575,127.266144 18.3748335,118.621743 19.0964334,109.780667 C19.9838142,98.6153333 27.6152885,89.0753333 40.99699,90.206 C46.0597715,90.7398182 50.5789597,93.6037371 53.2073489,97.944 C55.6559258,102.808536 55.9518813,108.470089 54.0237392,113.561333 C52.3539486,116.395274 50.1336925,118.869658 47.492617,120.84 C43.5267043,124.235639 38.213573,125.629511 33.0815538,124.620667 C34.1464107,129.956 39.5771808,132.959333 44.7949796,134.549333 C49.3119616,135.996737 54.1246146,136.276397 58.7801,135.362 C68.2928214,133.312667 74.1495343,125.539333 75.1079055,114.974667 C75.7823149,107.660667 75.4273626,100.17 75.4273626,92.8913333 C75.4273626,74.306 75.6403339,56.0033333 75.4273626,36.8173333 C75.7244609,33.679673 75.1729709,30.5200193 73.8300772,27.666 C70.8839732,24.1326667 61.6197183,26.4293333 56.0824625,25.7933333 C55.7275102,23.4966667 56.0824625,20.5993333 55.9049864,18.0553333 L56.2244434,17.5606667 C76.2082576,17.5606667 96.6180145,17.384 116.353362,17.7373333" id="Shape" fill="#FFFFFF"></path>
            </g>
        </g>
    </g>
</svg>