<?xml version="1.0" encoding="UTF-8" standalone="no"?>
<svg width="250px" height="250px" viewBox="0 0 250 250" version="1.1" xmlns="http://www.w3.org/2000/svg" xmlns:xlink="http://www.w3.org/1999/xlink">
    <!-- Generator: Sketch 47.1 (45422) - http://www.bohemiancoding.com/sketch -->
    <title>ARKLR</title>
    <desc>Created with Sketch.</desc>
    <defs></defs>
    <g id="Page-1" stroke="none" stroke-width="1" fill="none" fill-rule="evenodd">
        <g id="ARKLR" fill-rule="nonzero">
            <g id="Little_Rock_Trojans_logo" transform="translate(0.000000, 58.000000)">
                <path d="M74.485,0.0775 C67.61,-0.029375 60.55625,0.975875 54.34625,3.02175 C44.05375,6.414 36.96875,11.941875 35.735,12.950625 C34.44625,13.966875 27.74125,19.453125 22.33625,27.814375 C20.71875,30.316875 19.26125,33.041875 18.005,35.919375 C16.82375,38.628125 15.82375,41.458125 15.03375,44.330625 C13.83875,48.679375 13.1325,53.071875 12.9325,57.389375 C12.8175,59.869375 12.87875,62.419375 13.1075,64.963125 C13.72375,71.788125 15.5925,78.776875 18.4425,85.033125 L1.17625,95.094375 L13.04875,103.580625 L6.521,134.246875 L224.096,134.246875 L249.271,34.105625 L126.896,34.105625 C126.4085,32.823125 125.7585,31.384375 125.4335,30.704375 L125.1835,30.240625 C123.311,27.025625 120.11975,22.236875 115.58475,17.691875 C107.91725,10.009375 97.02225,3.950625 86.441,1.485625 C82.666,0.606625 78.606,0.1415 74.481,0.0775 L74.485,0.0775 Z" id="Shape" fill="#A7A9AC"></path>
                <path d="M74.41625,3.007125 C67.87625,2.908125 61.15875,3.863625 55.26375,5.805 C45.46375,9.03475 38.75375,14.268875 37.54875,15.25325 C36.32375,16.2173125 29.950375,21.433375 24.7975,29.40325 C23.26625,31.7735 21.885625,34.36 20.6935,37.09125 C19.5669375,39.6725 18.613,42.368875 17.8615,45.106375 C16.7224375,49.247 16.051,53.423375 15.862,57.523375 C15.7541875,59.871875 15.8092625,62.286125 16.0280125,64.698625 C16.6936375,72.083 18.8977625,79.668625 22.2633875,86.199875 L6.5696375,95.345375 L16.3157625,102.313125 L10.1413875,131.309375 L221.816388,131.309375 L245.517638,37.034375 L124.748887,37.034375 C124.667638,36.7203125 124.586187,36.4153375 124.509625,36.14815 C124.13775,34.84965 123.01025,32.4224 122.788375,31.9489 L122.6663,31.7169625 C120.8763,28.6507125 117.8338,24.0869625 113.5188,19.7619625 C106.2213,12.4494625 95.8538,6.6857125 85.7838,4.3407125 C82.2038,3.5058375 78.34505,3.0665875 74.4213,3.0072125 L74.41625,3.007125 Z" id="Shape" fill="#FFFFFF"></path>
                <path d="M73.47125,5.912375 C67.47625,5.912375 61.49875,6.839125 56.18125,8.590625 C46.85875,11.664375 40.5175,16.614375 39.3625,17.558125 C38.2375,18.441875 32.1725,23.394375 27.25875,30.995625 C25.81125,33.233125 24.50875,35.679375 23.37875,38.265625 C22.30875,40.715625 21.40375,43.279375 20.68875,45.885625 C19.60875,49.813125 18.96875,53.775625 18.78875,57.660625 C18.6875,59.871875 18.73875,62.151875 18.945,64.438125 C19.61375,71.848125 21.915,79.473125 25.425,85.908125 C25.6775,86.371875 25.93875,86.833125 26.20875,87.294375 L11.96,95.596875 L19.5825,101.044375 L13.765,128.384375 L219.5275,128.384375 L241.765,39.965625 L203.2025,39.965625 L198.94,39.965625 L194.7275,39.965625 L180.5775,39.965625 L173.9025,39.965625 L158.69,39.965625 L152.065,39.965625 L137.865,39.965625 L122.44875,39.965625 C122.44875,39.965625 122.015,38.091875 121.69,36.954375 C121.36625,35.819375 120.13375,33.198125 120.13375,33.198125 C118.39625,30.224375 115.51125,25.911875 111.44,21.833125 C104.50875,14.891875 94.67,9.420125 85.11125,7.193125 C81.46,6.3435 77.54125,5.91175 73.4675,5.91175 L73.47125,5.912375 Z" id="Shape" fill="#6E2639"></path>
                <path d="M73.845,14.3608692 C68.55375,14.3208692 63.2725,15.1471192 58.82625,16.6121192 C50.3225,19.4133692 44.64625,24.1483692 44.64625,24.1483692 C44.64625,24.1483692 38.845,28.6346192 34.3525,35.5846192 C33.15125,37.4433692 32.0625,39.4808692 31.11875,41.6433692 C30.21625,43.7108692 29.445,45.8871193 28.83,48.1233692 C27.94,51.3633692 27.38,54.7246192 27.22625,58.0471192 C27.14,59.9246192 27.19125,61.8083692 27.35875,63.6746193 C27.95875,70.3233692 30.05875,76.7608692 32.84125,81.8608693 C34.5475,84.9908693 36.5225,87.6446192 38.16625,89.6008693 C40.12625,91.9296193 41.61125,93.2746193 41.61125,93.2746193 C41.61125,93.2746193 39.735,93.3658693 38.48375,93.1058692 C36.67875,92.7308692 35.13875,91.8658692 35.13875,91.8658692 L27.4975,96.3221193 C27.4975,96.3221193 29.3425,97.6396192 32.91,98.8246192 C34.72,99.4258692 36.98625,99.7233692 39.20125,99.7958692 C42.71625,99.9108692 46.42875,99.6833692 50.44875,100.933369 C53.215,101.794619 55.4425,102.484619 57.96625,103.665869 C60.15375,104.688369 62.23,105.740869 64.01125,106.758369 C67.3875,108.688369 69.705,110.335869 69.705,110.335869 C69.705,110.335869 68.7625,106.728369 66.40625,103.782119 C64.8475,101.832119 63.05,99.8358693 61.44,98.4071192 C59.69375,96.8546192 58.19625,95.9533692 58.19625,95.9533692 C58.19625,95.9533692 58.16125,95.4258693 58.36875,94.6371193 C58.5875,93.7983693 59.065,92.6583693 59.7075,91.6096193 C60.17625,90.8446193 60.8825,90.1721193 61.63875,89.6008693 C62.005,89.3221193 62.38375,89.0671193 62.75375,88.8383693 C64.1975,87.9496193 66.65875,87.3533693 68.16125,87.6371193 C69.27375,87.8471193 69.685,88.8758693 69.685,88.8758693 C69.685,88.8758693 69.765,89.1408693 69.9025,89.6008693 C70.445,91.4283693 71.89375,96.2971193 72.9225,99.5558693 C73.5125,101.428369 74.04,102.679619 74.04,102.679619 C74.04,102.679619 74.4125,103.483369 75.27875,104.127119 C75.61375,104.377119 75.99625,104.635869 76.375,104.810869 C76.9025,105.054619 77.385,105.167119 77.385,105.167119 C77.385,105.167119 78.0925,105.192119 78.86,105.318369 C79.89125,105.487119 81.125,105.784619 81.785,105.979619 C83.3975,106.455869 85.415,106.969619 86.97,107.537119 C88.83625,108.218369 90.04125,108.822119 90.04125,108.822119 C90.04125,108.822119 90.2975,108.959619 90.5125,108.807119 C90.8675,108.553369 91.38625,108.062119 92.13625,107.572119 C92.875,107.090869 93.84,106.612119 94.7975,106.222119 C96.44375,105.550869 98.25,105.265869 99.245,105.090869 C99.7225,105.007119 100.015,104.873369 100.015,104.873369 C100.015,104.873369 95.71875,102.487119 91.49375,100.964619 C88.0175,99.7133692 84.46,99.2733693 84.46,99.2733693 C84.46,99.2733693 84.96625,98.4546192 85.32,97.6983692 C85.7875,96.6996192 86.1325,95.6996192 86.1325,95.6996192 C86.1325,95.6996192 88.0675,96.1796192 89.91,96.4433692 C91.98125,96.7408692 93.98625,96.8221192 93.98625,96.8221192 C93.98625,96.8221192 95.6325,97.0033692 96.50375,96.3308692 C97.47375,95.5871192 97.75875,93.9846192 97.75875,93.9846192 C97.75875,93.9846192 98.0575,92.1258692 98.31,89.6008692 L98.3175,89.6008692 C98.44625,88.3471192 98.56,86.9408692 98.61875,85.5496192 C98.775,81.7871192 98.42,78.1208692 98.42,78.1208692 L102.73625,77.6933692 C102.73625,77.6933692 102.06875,70.6183692 100.305,63.6771192 L100.3025,63.6771192 C99.7625,61.5446192 99.14,59.4971192 98.40875,57.6521192 C96.7975,53.5896192 94.7525,50.3908692 92.8925,48.1233692 C92.8475,48.0671192 92.8025,48.0133692 92.75875,47.9596192 C91.685,46.6696192 90.49375,45.6683692 89.95375,45.0571192 C89.5775,44.6333692 89.74875,43.9433692 89.74875,43.9433692 L92.01625,41.6433692 L92.51,41.1458692 C92.51,41.1458692 93.08625,40.9746192 93.51375,41.3846192 C93.59,41.4583692 93.77875,41.5308692 93.81875,41.6433692 L93.78875,41.6433692 C94.56125,42.3583692 95.75625,43.3946192 96.71125,44.4496192 C98.15625,46.0458692 99.23625,47.6283692 99.23625,47.6283692 L111.7825,41.6433692 L111.775,41.6433692 L114.4,40.3933692 C114.4,40.3933692 111.3625,33.7146192 105.45875,27.7983692 C99.86,22.1871192 91.62125,17.3833692 83.19875,15.4208692 C80.19625,14.7221192 77.02,14.3858692 73.845,14.3608692 Z M122.92,47.9546193 L115.24875,74.2396193 L131.1625,74.2396193 L132.8,68.6408692 L124.01375,68.6408692 L130.05,47.9546193 L122.92,47.9546193 Z M143.275,47.9546193 L135.6125,74.2396193 L142.7375,74.2396193 L150.4125,47.9546193 L143.275,47.9546193 L143.275,47.9546193 Z M154.7,47.9546193 L153,53.7733693 L158.3,53.7733693 L152.325,74.2396193 L159.45,74.2396193 L165.425,53.7733692 L170.725,53.7733692 L170.8,53.7733692 L176.0125,53.7733692 L170.0375,74.2396193 L177.175,74.2396193 L183.1375,53.7733692 L188.5125,53.7733692 L190.2125,47.9546192 L172.4875,47.9546192 L172.4125,47.9546192 L154.7,47.9546192 L154.7,47.9546193 Z M194.7,47.9546193 L187.025,74.2396193 L202.9375,74.2396193 L204.5625,68.6408692 L195.7875,68.6408692 L201.825,47.9546193 L194.7,47.9546193 L194.7,47.9546193 Z M215.325,47.9546193 L207.65,74.2396193 L224.2125,74.2396193 L225.85,68.6408692 L216.4125,68.6408692 L217.9375,63.4133693 L226.45,63.4133693 L228.025,58.0433692 L219.5125,58.0433692 L220.8125,53.5533693 L229.9125,53.5533693 L231.5375,47.9546193 L215.325,47.9546193 Z M154.6375,81.1633692 C152.375,81.1633692 150.4,81.3858692 148.7125,81.8346192 C147.025,82.2808692 145.5625,82.9908692 144.325,83.9608692 C143.075,84.9346192 142.025,86.1908692 141.1625,87.7333692 C140.3,89.2708692 139.55,91.1333692 138.9125,93.3158692 C138.275,95.5008692 137.9375,97.3608692 137.9,98.9021192 C137.8625,100.440869 138.1875,101.700869 138.8625,102.674619 C139.525,103.644619 140.5875,104.338369 142.025,104.754619 C143.4625,105.168369 145.3125,105.377119 147.575,105.377119 C149.8375,105.377119 151.8125,105.168369 153.4875,104.754619 C155.175,104.338369 156.6375,103.644619 157.875,102.674619 C159.1125,101.700869 160.1625,100.440869 161.025,98.9021192 C161.9,97.3608692 162.65,95.5008692 163.275,93.3158692 C163.925,91.1333692 164.25,89.2708692 164.2875,87.7333692 C164.325,86.1908692 164.0125,84.9346192 163.3375,83.9608692 C162.6625,82.9908692 161.6125,82.2808692 160.175,81.8346192 C158.75,81.3858692 156.9,81.1633692 154.6375,81.1633692 Z M183.6,81.1633692 C181.3125,81.1633692 179.3125,81.3733692 177.6375,81.7996192 C175.95,82.2246192 174.4875,82.9196192 173.25,83.8796192 C172.0125,84.8408692 170.975,86.0971192 170.125,87.6471192 C169.2625,89.1983692 168.5125,91.0883692 167.8625,93.3158692 C167.225,95.5008692 166.85,97.3608692 166.7375,98.9021192 C166.625,100.440869 166.875,101.700869 167.475,102.674619 C168.0875,103.644619 169.125,104.338369 170.6,104.754619 C172.075,105.168369 174.05,105.377119 176.5375,105.377119 C177.9625,105.377119 179.3875,105.272119 180.8125,105.064619 C182.225,104.855869 183.5375,104.450869 184.7625,103.850869 C186,103.249619 187.075,102.425869 188.025,101.378369 C188.9625,100.329619 189.675,98.9846192 190.15,97.3471192 L190.6625,95.6083692 L182.0625,95.6083692 C181.7375,96.7221192 181.425,97.6458692 181.1375,98.3771192 C180.8375,99.1096192 180.5375,99.6921192 180.2125,100.129619 C179.9,100.567119 179.5375,100.879619 179.125,101.065869 C178.725,101.250869 178.25,101.343369 177.7125,101.343369 C177.0375,101.343369 176.5375,101.223369 176.2125,100.982119 C175.8875,100.742119 175.7125,100.317119 175.675,99.7083692 C175.65,99.0958692 175.75,98.2671192 176,97.2296192 C176.2375,96.1921192 176.5875,94.8896192 177.0375,93.3158692 C177.5,91.7433692 177.9125,90.4396192 178.275,89.3996192 C178.65,88.3621192 179.025,87.5396192 179.4125,86.9271192 C179.8,86.3158692 180.225,85.8896192 180.6875,85.6483692 C181.1625,85.4096192 181.725,85.2858692 182.4,85.2858692 C183.25,85.2858692 183.8,85.5321192 184.05,86.0121192 C184.2875,86.4933692 184.225,87.3971192 183.825,88.7283692 L183.45,90.0396192 L192.05,90.0396192 L192.475,88.5658692 C192.8125,87.4308692 192.9125,86.4096192 192.775,85.5008692 C192.6375,84.5946192 192.225,83.8196192 191.5375,83.1746192 C190.85,82.5308692 189.8625,82.0358692 188.5625,81.6883692 C187.2625,81.3358692 185.6125,81.1633692 183.6,81.1633692 L183.6,81.1633692 Z M113.51125,81.6196192 L106.685,105.015869 L115.56875,105.015869 L118.30625,95.6458692 L120.6475,95.6458692 C121.19125,95.6458692 121.6275,95.6933692 121.965,95.7921192 C122.3025,95.8908693 122.55625,96.0658692 122.7225,96.3146193 C122.8875,96.5671193 122.955,96.9096193 122.9225,97.3471193 C122.89,97.7833693 122.77625,98.3308693 122.585,98.9846193 L122.12625,100.554619 C122.05625,100.795869 121.97625,101.108369 121.8825,101.489619 C121.785,101.873369 121.7,102.272119 121.62625,102.685869 C121.55375,103.102119 121.50875,103.517119 121.49875,103.930869 C121.49,104.345869 121.55375,104.710869 121.6875,105.015869 L131.15,105.015869 L131.25,104.683369 C130.9875,104.575869 130.8125,104.464619 130.725,104.344619 C130.6375,104.223369 130.5375,104.094619 130.45,103.963369 C130.4,103.832119 130.3625,103.649619 130.375,103.409619 C130.375,103.168369 130.4125,102.898369 130.4625,102.603369 C130.525,102.308369 130.6,101.997119 130.6875,101.670869 C130.7875,101.342119 130.875,101.025869 130.975,100.720869 L131.55,98.7233692 C132.0125,97.1508692 131.975,95.9183692 131.4375,95.0208692 C130.9,94.1246192 129.5875,93.6108692 127.4875,93.4796192 L127.5125,93.4133692 C129.6125,93.1971192 131.2625,92.6058692 132.475,91.6433692 C133.675,90.6846192 134.5,89.4171192 134.9625,87.8446192 C135.225,86.9483692 135.3,86.1183692 135.1875,85.3546192 C135.075,84.5896192 134.725,83.9296192 134.1375,83.3721192 C133.5625,82.8146192 132.7125,82.3821192 131.6125,82.0758692 C130.5,81.7708692 129.1,81.6196192 127.4125,81.6196192 L113.51125,81.6196192 L113.51125,81.6196192 Z M200,81.6196192 L193.175,105.015869 L202.0625,105.015869 L203.8625,98.8221192 L206.3,96.8533692 L209.1375,105.015869 L219.2625,105.015869 L213.45,91.8446192 L225.0375,81.6196192 L215.575,81.6196192 L206.3625,90.5971193 L206.2625,90.5971193 L208.8875,81.6196192 L200,81.6196192 L200,81.6196192 Z M153.4375,85.2883693 C154.1125,85.2883693 154.6,85.4083693 154.9375,85.6483693 C155.2625,85.8896192 155.4375,86.3133692 155.475,86.9246192 C155.5,87.5371192 155.3875,88.3633692 155.15,89.3983693 C154.9125,90.4383692 154.5625,91.7433693 154.1125,93.3158692 C153.65,94.8896192 153.2375,96.1933693 152.8625,97.2321192 C152.5,98.2696192 152.125,99.0958692 151.7375,99.7083692 C151.35,100.318369 150.925,100.742119 150.4625,100.982119 C149.9875,101.223369 149.425,101.343369 148.75,101.343369 C148.0875,101.343369 147.5875,101.223369 147.25,100.982119 C146.925,100.742119 146.75,100.318369 146.725,99.7083692 C146.7,99.0958692 146.8,98.2696192 147.0375,97.2321192 C147.275,96.1933692 147.625,94.8896192 148.0875,93.3158692 C148.55,91.7433693 148.9625,90.4383692 149.325,89.3983693 C149.6875,88.3633692 150.0625,87.5371192 150.45,86.9246192 C150.8375,86.3133692 151.2625,85.8896192 151.7375,85.6483693 C152.2,85.4083693 152.775,85.2883693 153.4375,85.2883693 Z M121.11875,86.0121192 L122.8375,86.0121192 C124.175,86.0121192 125.075,86.2183692 125.55,86.6346192 C126.0125,87.0496192 126.1,87.7446192 125.8125,88.7283692 C125.575,89.5583692 125.075,90.2346192 124.32125,90.7458692 C123.56625,91.2583692 122.55,91.5146192 121.27625,91.5146192 L119.50875,91.5146192 L121.11875,86.0121192 L121.11875,86.0121192 Z" id="Shape" fill="#FFFFFF"></path>
                <path d="M74.42875,33.6208693 C74.42875,33.6208693 74.1675,33.5471193 73.72125,33.8971193 C73.2725,34.2471193 73.32,34.5146193 73.32,34.5146193 L73.4175,37.9933693 C73.4175,37.9933693 73.49875,38.3171193 73.70375,38.5458693 C73.8275,38.6821193 74.11875,38.7733693 74.11875,38.7733693 C74.11875,38.7733693 75.4775,38.7833693 76.73125,38.9408693 C77.86375,39.0833693 78.92125,39.3171193 78.92125,39.3171193 C78.92125,39.3171193 79.33875,39.3596193 79.66125,39.2046193 C79.82625,39.1246193 79.99,38.8508693 79.99,38.8508693 L81.2325,35.8158693 C81.2325,35.8158693 81.34625,35.2996193 81.09625,34.9446193 C80.86,34.6083693 80.26125,34.4396193 80.26125,34.4396193 C80.26125,34.4396193 78.82,34.0683693 77.265,33.8508693 C75.92,33.6621193 74.42875,33.6208693 74.42875,33.6208693 L74.42875,33.6208693 Z M70.36625,33.7196193 C70.36625,33.7196193 68.74125,33.8471193 67.11625,34.1808693 C65.565,34.4996193 64.00875,35.0233693 64.00875,35.0233693 C64.00875,35.0233693 63.6325,35.1871193 63.46375,35.5258693 C63.2225,35.9121193 63.48375,36.4246193 63.48375,36.4246193 L65.13625,40.1746193 C65.13625,40.1746193 65.3025,40.3433693 65.55375,40.3908693 C65.7525,40.4308693 66.05,40.3471193 66.05,40.3471193 C66.05,40.3471193 67.03875,39.9271193 68.1075,39.5758693 C69.36625,39.1633693 70.735,38.8146193 70.735,38.8146193 C70.735,38.8146193 70.99375,38.6646193 71.145,38.3846193 C71.31375,38.0721193 71.3775,37.6283693 71.3775,37.6283693 L71.3375,34.6546193 C71.3375,34.6546193 71.245,34.2008693 70.97625,33.9433693 C70.7675,33.7421193 70.36625,33.7196193 70.36625,33.7196193 L70.36625,33.7196193 Z M84.30375,35.5871193 C84.30375,35.5871193 84.00125,35.5646192 83.735,35.6846193 C83.59625,35.7483693 83.41125,35.9946193 83.41125,35.9946193 L82.185,39.1021193 C82.185,39.1021193 81.91125,39.9958693 82.515,40.3646193 C83.12875,40.7408693 84.20125,41.1896192 85.08,41.6433693 C85.17375,41.6921193 85.265,41.7446193 85.35375,41.7933692 C86.1925,42.2521192 86.7175,42.7221193 87.2825,42.9283693 C87.665,43.0671192 88.2125,42.7958693 88.2125,42.7958693 L89.3675,41.6433693 L90.58375,40.4283693 C90.58375,40.4283693 90.77875,39.9146193 90.75625,39.5708693 C90.73,39.1621193 90.48875,38.9096192 90.48875,38.9096192 C90.48875,38.9096192 89.185,37.9508692 87.56375,37.0783693 C86.1025,36.2921192 84.30375,35.5871193 84.30375,35.5871193 L84.30375,35.5871193 Z M60.66625,36.5096193 C60.53375,36.5271192 60.4325,36.5558693 60.4325,36.5558693 C60.4325,36.5558693 59.42375,37.1046192 58.37625,37.8546193 C57.03125,38.8171193 55.57125,40.0346193 55.57125,40.0346193 C55.57125,40.0346193 55.2075,40.3296193 55.17375,40.7158693 C55.13875,41.0971193 55.435,41.5733693 55.435,41.5733693 C55.435,41.5733693 55.45625,41.5983693 55.495,41.6433693 C55.645,41.8208693 56.0625,42.2958693 56.5625,42.7821193 C57.2775,43.4771193 58.1375,44.1971193 58.1375,44.1971193 C58.1375,44.1971193 58.4125,44.4046192 58.68125,44.3996193 C58.975,44.3958693 59.265,44.1808693 59.265,44.1808693 C59.265,44.1808693 60.23625,43.4333693 61.2525,42.7646193 C61.92,42.3258693 62.78625,41.8633693 62.78625,41.8633693 C62.78625,41.8633693 62.90125,41.7796193 63.015,41.6433693 C63.09625,41.5483693 63.175,41.4221193 63.21,41.2846193 C63.28125,40.9983693 63.09625,40.6208693 63.09625,40.6208693 L61.59875,36.9833693 C61.59875,36.9833693 61.41,36.6521193 61.08375,36.5321193 C60.9625,36.4871193 60.79875,36.4921193 60.66625,36.5096193 L60.66625,36.5096193 Z M74.42875,40.8533693 C72.655,40.8133693 70.91875,40.9933693 69.34875,41.3846193 C69.03,41.4646192 68.7175,41.5508692 68.41125,41.6408692 L68.40625,41.6408692 L68.41125,41.6433692 C64.315,42.8671193 61.4425,45.0321192 61.4425,45.0321192 C61.4425,45.0321192 59.86625,46.0733692 58.1075,48.1233692 L58.1075,48.1258693 C57.7225,48.5746192 57.32875,49.0708693 56.94125,49.6171192 C54.79875,52.6296192 52.84625,57.1208692 52.315,61.3408692 C52.21625,62.1233692 52.15375,62.9033692 52.12875,63.6746192 C52.04125,66.4996192 52.445,69.2271193 53.30375,71.6708692 C54.76125,75.8271192 57.165,79.0146192 57.165,79.0146192 L50.0875,87.4158693 C50.0875,87.4158693 52.15875,87.2696193 53.81875,87.1833692 C56.55875,87.0408693 59.8575,86.5933693 63.2275,83.7658693 C63.88375,83.2158693 64.9075,82.2446192 65.76875,80.8333693 C66.655,79.3858692 67.36625,77.4858693 67.17,76.0746192 C67.07375,75.3808693 66.40875,74.2971193 65.91125,73.7708692 C65.22375,73.0433692 64.9575,73.3546192 64.37,72.7008692 C63.59625,71.8396192 63.18625,71.3308692 63.46,69.6983692 C63.73125,68.0658692 65.72625,66.7908692 67.12125,67.2683692 C67.73375,67.4783692 68.68125,67.7871192 69.0875,68.4608692 C70.03125,69.9758692 69.64625,71.0096192 69.64625,71.0096192 C69.64625,71.0096192 69.9725,75.5158692 71.6625,79.9346192 C72.9075,83.1896192 74.8075,86.1008692 77.3725,88.3183692 C77.95875,88.8233692 78.54875,89.2483692 79.1425,89.6008692 C81.14875,90.7858692 83.17125,91.1396192 85.04125,91.0183692 C87.65375,90.8521192 89.55375,89.6296192 89.55375,89.6296192 C89.55375,89.6296192 89.49375,89.6283692 89.42125,89.6008692 L89.38,89.6008692 C88.855,89.4896192 87.2325,89.0521192 85.65875,87.6696192 C84.3375,86.5071192 83.03,84.2896192 82.5225,82.6183692 C81.855,80.4246192 81.8075,77.7371192 82.23125,75.6696192 C82.78,72.9983692 83.955,71.2021192 83.955,71.2021192 C83.955,71.2021192 85.1,68.6871192 85.0175,65.5233692 C85.00125,64.9258692 84.945,64.3046192 84.84875,63.6746192 L84.85125,63.6746192 C84.395,60.7996192 83.18375,57.7971192 81.465,55.6821192 C79.5525,53.3271192 76.605,51.3196192 73.7275,50.7596192 C70.60625,50.1533692 67.625,51.0971192 67.625,51.0971192 C67.625,51.0971192 66.8425,51.1746192 66.155,50.8058692 C65.6925,50.5583692 65.27125,49.9583692 65.16375,49.5546192 C65.06625,49.1921192 65.05625,48.5571192 65.2075,48.1258692 C65.22375,48.0846192 65.23875,48.0471192 65.25625,48.0108692 C65.64375,47.1896192 66.4575,46.7433692 66.4575,46.7433692 C66.4575,46.7433692 68.86875,45.7183692 72.2925,45.6233692 C74.76125,45.5546192 77.81,46.1021192 80.59625,47.2471192 C81.20625,47.4971192 81.82,47.7946192 82.42625,48.1258692 C84.485,49.2508692 86.465,50.7758692 88.025,52.2783692 C90.7025,54.8646193 92.275,57.3621192 92.275,57.3621192 C92.275,57.3621192 92.93625,58.4233692 94.065,57.7621192 C95.1925,57.1008692 94.6875,55.8796192 94.6875,55.8796192 C94.6875,55.8796192 93.13,52.2421192 90.48125,48.9733692 C90.25,48.6871192 90.00875,48.4033692 89.76125,48.1258693 C87.32375,45.3896192 84.11,43.0571192 80.415,41.8508693 C80.19125,41.7783693 79.965,41.7096193 79.73625,41.6433693 C78.015,41.1521193 76.2025,40.8921193 74.42875,40.8533693 Z M53.06625,42.8358692 C52.7325,42.8983692 52.36375,43.3046192 52.36375,43.3046192 C52.36375,43.3046192 51.575,44.1671192 50.915,45.1283692 C50.175,46.2096193 49.405,47.4746193 49.01875,48.1233692 C48.86125,48.3908692 48.7675,48.5533693 48.7675,48.5533693 C48.7675,48.5533693 48.65125,48.7446192 48.79125,49.0346192 C48.84125,49.1408692 48.86,49.2483692 48.97,49.3608693 C49.0625,49.4546193 49.21375,49.5808693 49.21375,49.5808693 C49.21375,49.5808693 50.4325,50.0983693 51.42375,50.4846193 C52.02,50.7183692 52.63625,50.8846193 52.63625,50.8846193 C52.63625,50.8846193 52.98375,50.9996193 53.25875,50.9208693 C53.43875,50.8696193 53.58875,50.6133693 53.58875,50.6133693 C53.58875,50.6133693 54.19375,49.5583692 54.93625,48.5358693 C55.03625,48.3971193 55.14125,48.2596193 55.24375,48.1258693 L55.24375,48.1233692 C55.83625,47.3596193 56.42625,46.7046193 56.42625,46.7046193 C56.42625,46.7046193 56.58625,46.4233693 56.5725,46.1071192 C56.55875,45.8021193 56.37,45.4596193 56.37,45.4596193 L53.82125,43.0333692 C53.82125,43.0333692 53.455,42.7621192 53.06625,42.8358692 Z M48.38875,51.3458692 C48.25375,51.3383692 48.0725,51.3571192 47.88875,51.4658692 C47.63875,51.6146192 47.32625,52.1496192 47.32625,52.1496192 C47.32625,52.1496192 46.81,53.6808692 46.49875,55.1808692 C46.26625,56.3108692 46.22125,57.5158692 46.22125,57.5158692 C46.22125,57.5158692 46.3075,58.7883692 47.065,58.9833692 C47.82375,59.1783692 49.15125,59.2921192 49.91,59.1096192 C50.26625,59.0221192 50.55375,58.5846192 50.55375,58.5846192 C50.55375,58.5846192 50.76375,57.5671192 51.1275,56.4608692 C51.58125,55.0796192 52.2075,53.5483692 52.2075,53.5483692 C52.2075,53.5483692 52.14875,53.1571192 52.03375,52.9646192 C51.86,52.6808692 51.60375,52.5546192 51.60375,52.5546192 L48.61375,51.3896192 C48.61375,51.3896192 48.52375,51.3533692 48.38875,51.3458692 L48.38875,51.3458692 Z M49.2925,61.2846192 L46.9975,61.3046192 C46.9975,61.3046192 46.7675,61.4283692 46.64,61.6196192 C46.525,61.7971192 46.50875,62.0471192 46.50875,62.0471192 C46.50875,62.0471192 46.63375,62.7446192 46.855,63.6771192 C46.97125,64.1633693 47.11125,64.7108693 47.275,65.2546192 C47.84,67.1246192 48.6275,68.9846192 48.6275,68.9846192 C48.6275,68.9846192 48.97875,69.3796192 49.61875,69.1458693 C50.26125,68.9133692 50.2025,68.3821193 50.2025,68.3821193 C50.2025,68.3821193 49.9725,66.7908692 49.91,65.3496192 C49.885,64.7558692 49.8775,64.1796193 49.8825,63.6771192 C49.89,62.7583693 49.93125,62.1033693 49.93125,62.1033693 C49.93125,62.1033693 49.92625,61.8133692 49.8025,61.6558692 C49.6175,61.4221193 49.2925,61.2846193 49.2925,61.2846193 L49.2925,61.2846192 Z M93.05125,64.4733692 L86.59625,65.0958692 L95.115,69.9596192 L93.05125,64.4733692 L93.05125,64.4733692 Z" id="Shape" fill="#6E2639"></path>
                <polygon id="Shape" fill="#A7A9AC" points="25.15625 114.5 24.475 117.42875 217.6375 117.42875 218.325 114.5 25.15 114.5"></polygon>
            </g>
        </g>
    </g>
</svg>