<?xml version="1.0" encoding="UTF-8" standalone="no"?>
<svg width="250px" height="250px" viewBox="0 0 250 250" version="1.1" xmlns="http://www.w3.org/2000/svg" xmlns:xlink="http://www.w3.org/1999/xlink">
    <!-- Generator: Sketch 47.1 (45422) - http://www.bohemiancoding.com/sketch -->
    <title>ARKST</title>
    <desc>Created with Sketch.</desc>
    <defs></defs>
    <g id="Page-1" stroke="none" stroke-width="1" fill="none" fill-rule="evenodd">
        <g id="ARKST" fill-rule="nonzero">
            <g id="Arkansas_State_Red_Wolves_logo" transform="translate(10.000000, 1.000000)">
                <g id="Group" transform="translate(116.294218, 124.244898) scale(-1, 1) rotate(-180.000000) translate(-116.294218, -124.244898) translate(0.794218, 0.744898)">
                    <g transform="translate(0.000000, 0.000000)" id="Shape">
                        <path d="M115.211735,0.700680272 C113.238946,0.913265306 107.159014,13.3941327 107.159014,13.3941327 C103.42602,11.8465136 101.718963,6.08758503 101.718963,6.08758503 C101.718963,6.08758503 93.7193878,9.12755102 94.0403912,18.9936224 C92.6011905,18.6194728 91.0535714,16.0068027 90.6262755,13.232568 C86.414966,14.5123299 85.3477891,23.2602041 87.2142857,26.1917517 C83.4812925,34.1381803 80.9217687,42.5119048 76.442602,50.1904762 C69.6164966,55.8452381 60.122449,51.6318027 53.7767857,48.005102 C51.8571429,46.5637755 49.297619,44.9651361 48.4982993,42.5119048 C47.6437075,42.9392007 46.897534,43.5259354 46.5765306,45.817602 C46.684949,59.0446429 37.1909014,58.8852041 28.9787415,71.897534 C28.232568,73.1241497 27.9647109,74.1892007 26.9528061,76.002551 C25.2457483,74.9375 23.2198129,69.8163265 23.2198129,69.8163265 C13.5131803,76.4298469 12.2334184,87.4693878 15.3796769,93.1751701 C12.6607143,91.8954082 11.2746599,88.5365646 9.03401361,86.4553571 C6.10034014,89.5484694 5.99404762,91.3086735 5.61989796,94.1360544 C6.04719388,109.227466 25.5136054,121.867772 36.8720238,126.880527 C54.7908163,134.880102 60.5497449,133.972364 63.0029762,133.332483 C69.3486395,131.574405 72.2823129,124.37415 78.0412415,121.38733 C82.3078231,118.241071 88.9744898,118.453656 93.4005102,121.227891 C94.0935374,121.653061 94.9460034,121.974065 95.5858844,122.613946 C81.9868197,122.292942 71.7487245,130.507228 61.8295068,138.666241 C32.0718537,138.613095 4.12755102,112.482143 4.12755102,112.482143 C3.48767007,118.241071 4.18069728,131.519133 11.8061224,140.158588 C10.207483,141.01318 3.96811224,137.439626 0.0204081633,132.960459 C3.80867347,145.492347 7.06122449,156.850765 24.0722789,168.317602 C27.0059524,171.784864 26.0982143,177.703231 24.8715986,179.625 C19.8588435,190.44983 17.9923469,203.355867 21.3533163,215.247874 C23.432398,225.968537 33.0858844,246.553146 33.672619,246.821003 C34.952381,246.12585 44.2848639,234.233844 56.3363095,230.235119 C64.4421769,227.567177 72.7096088,223.940476 78.0412415,215.943027 C83.8533163,216.795493 86.2534014,222.394983 89.8269558,225.809099 C95.1607143,222.822279 99.2657313,218.66199 105.826105,221.221514 C111.266156,223.515306 112.065476,227.728741 115.211735,230.981293 C118.304847,227.728741 119.157313,223.621599 124.597364,221.27466 C131.157738,218.715136 135.262755,222.875425 140.596514,225.862245 C144.170068,222.448129 146.570153,216.901786 152.382228,216.04932 C157.713861,223.993622 165.981293,227.620323 174.08716,230.341412 C186.138605,234.340136 195.471088,246.181122 196.75085,246.87415 C197.337585,246.606293 206.991071,226.07483 209.070153,215.30102 C212.431122,203.46216 210.564626,190.556122 205.551871,179.678146 C204.325255,177.756378 203.417517,171.83801 206.35119,168.370748 C223.362245,156.959184 226.614796,145.598639 230.403061,133.066752 C226.455357,137.492772 220.215986,141.066327 218.617347,140.211735 C226.242772,131.627551 226.935799,118.347364 226.295918,112.588435 C226.295918,112.588435 198.457908,138.82568 168.593963,138.719388 C158.674745,130.560374 148.43665,122.401361 134.837585,122.667092 C135.477466,122.027211 136.329932,121.76148 137.022959,121.334184 C141.44898,118.559949 148.115646,118.347364 152.382228,121.440476 C158.141156,124.427296 161.07483,131.627551 167.420493,133.385629 C169.873724,134.02551 175.685799,134.880102 193.657738,126.880527 C204.965136,121.867772 224.376276,109.280612 224.803571,94.2423469 C224.429422,91.3618197 224.323129,89.6547619 221.389456,86.5616497 C219.14881,88.5897109 217.762755,91.9485544 215.043793,93.2283163 C218.190051,87.522534 216.910289,76.4829932 207.203656,69.922619 C207.203656,69.922619 205.177721,75.0437925 203.470663,76.1088435 C202.458759,74.2423469 202.190901,73.1772959 201.444728,72.0038265 C193.232568,58.9383503 183.73852,59.0977891 183.846939,45.8707483 C183.525935,43.5790816 182.779762,43.0454932 181.92517,42.6181973 C181.12585,45.0182823 178.566327,46.6721939 176.646684,48.0582483 C170.30102,51.684949 160.806973,55.8983844 153.980867,50.2988946 C149.501701,42.6181973 146.942177,34.1913265 143.209184,26.244898 C145.07568,23.3133503 144.008503,14.6207483 139.797194,13.2857143 C139.369898,16.059949 137.822279,18.7257653 136.383078,19.0467687 C136.704082,9.23384354 128.704507,6.14073129 128.704507,6.14073129 C128.704507,6.14073129 126.997449,11.9528061 123.264456,13.4472789 C123.264456,13.4472789 117.23767,0.913265306 115.211735,0.700680272" fill="#000000"></path>
                        <path d="M34.3103741,15.8792517 C29.8852041,25.1590136 27.3784014,35.2908163 27.3256803,46.3826531 C27.5382653,56.9438776 34.3103741,65.4234694 32.2848639,76.2517007 C35.5382653,74.8656463 38.4192177,74.3843537 41.672619,74.5442177 C46.1505102,64.6241497 37.5110544,54.2772109 32.0195578,47.0238095 C31.7508503,46.5459184 36.6028912,49.9591837 38.7882653,49.1598639 C29.7780612,40.5204082 32.1794218,30.8129252 34.6335034,26.2261905 C34.8460884,28.1989796 35.3239796,29.3180272 36.6028912,30.5459184 C42.9481293,37.2653061 51.6964286,40.7329932 54.630102,49.2653061 C55.1096939,35.1326531 40.125,27.079932 34.3103741,15.8809524 L34.3103741,15.8792517 Z M195.041667,17.3732993 C189.22534,28.6267007 174.242347,36.6232993 174.718537,50.8103741 C177.660714,42.2763605 186.402211,38.7559524 192.745748,32.0382653 C194.038265,30.8647959 194.514456,29.6930272 194.718537,27.7746599 C197.184524,32.3069728 199.582483,42.0110544 190.568878,50.6505102 C192.745748,51.502551 197.609694,48.039966 197.337585,48.5705782 C191.844388,55.8239796 183.204932,66.1709184 187.677721,76.0382653 C190.943027,75.8784014 193.817177,76.3528912 197.065476,77.7423469 C195.041667,66.9141156 201.810374,58.4889456 202.031463,47.8767007 C201.980442,36.7831633 199.463435,26.7066327 195.041667,17.3732993 L195.041667,17.3732993 Z M174.140306,26.7576531 C167.312075,31.2916667 150.356293,35.6130952 157.07568,64.7831633 C157.395408,65.9566327 152.007653,63.2355442 149.179422,65.2627551 C155.313776,69.7406463 160.647109,75.9294218 164.220238,82.2219388 C168.477041,79.3443878 173.868197,76.9957483 178.562075,76.0348639 C167.473639,63.8205782 163.686224,46.8630952 169.548469,34.5433673 C170.82398,31.8784014 172.388605,29.2117347 174.140306,26.7576531 Z M54.7916667,26.9702381 C56.5501701,29.422619 58.0960884,32.0909864 59.3767007,34.7593537 C65.2423469,47.0790816 61.5076531,64.0365646 50.3613946,76.2508503 C55.0552721,77.2117347 60.4430272,79.5569728 64.7083333,82.4345238 C68.2814626,76.1420068 73.6147959,69.9566327 79.747449,65.4787415 C76.9209184,63.4498299 71.5892857,66.1692177 71.8562925,64.9957483 C78.5756803,35.8256803 61.6181973,31.5042517 54.7916667,26.9702381 L54.7916667,26.9702381 Z M115.157313,37.8511905 C115.157313,37.8511905 107.960034,51.2389456 91.5331633,41.6913265 C89.295068,44.5195578 86.3613946,47.5042517 82.6284014,48.5705782 C83.4277211,52.8903061 83.4277211,52.997449 82.9991497,58.3290816 C85.5620748,56.9430272 87.1062925,54.8103741 89.2372449,52.5705782 C91.8001701,53.1028912 92.0144558,57.7967687 95.2134354,57.3171769 C98.7865646,54.5960884 102.038265,51.130102 106.303571,50.1147959 C107.796769,52.2491497 103.529762,53.3171769 104.597789,55.9855442 C106.944728,57.7423469 109.451531,59.077381 111.638605,61.210034 C112.223639,61.7440476 112.009354,62.704932 111.317177,63.130102 C85.3460884,58.5977891 69.4005102,88.0365646 67.2151361,92.1947279 C58.3630952,86.9685374 48.9209184,81.5807823 37.4039116,84.4617347 C28.6573129,86.8086735 21.1386054,92.9430272 15.0059524,100.461735 C17.1386054,99.7678571 20.2848639,100.619898 23.7508503,103.395408 C18.204932,108.672619 15.8052721,113.686224 14.0459184,119.766156 C20.125,116.193027 32.0731293,105.580782 60.7636054,105.580782 C59.3248299,102.592687 57.829932,100.142007 57.8826531,97.582483 C58.6819728,96.8358844 58.3095238,97.1522109 59.9081633,96.1930272 C64.0697279,103.232143 70.7908163,109.951531 78.0408163,113.631803 C83.3758503,115.49915 88.2806122,118.329082 94.3605442,118.381803 C101.559524,117.687925 106.517007,123.604592 111.105442,128.619898 C110.943878,129.846088 112.280612,131.126701 110.573129,131.551871 C107.960884,130.69983 105.130952,130.432823 102.411565,129.847789 C96.7040816,135.019558 90.0935374,139.016156 82.0935374,137.52466 C73.9880952,135.604592 66.3078231,131.92602 60.6020408,124.885204 C59.537415,125.953231 58.6292517,127.07398 57.670068,128.140306 C53.8282313,133.10119 49.5102041,138.164116 48.6581633,144.138605 C53.085034,143.335884 62.2568027,143.392007 66.9506803,148.778061 C65.2431973,149.312075 58.2568027,154.429422 56.7091837,161.417517 C59.8027211,159.922619 63.1071429,158.109694 73.2414966,154.75085 C73.6666667,154.963435 74.3078231,155.49915 74.0952381,155.92602 C72.2823129,160.298469 68.1751701,164.723639 71.0034014,169.946429 C73.9897959,175.541667 86.255102,177.412415 87.7465986,178.857993 C90.3061224,184.776361 92.0136054,189.895408 94.3605442,195.660714 C94.7857143,197.038265 96.6513605,198.313776 97.7721088,198.960034 C103.530612,200.405612 109.345238,200.983844 115.05102,200.983844 C120.809524,200.983844 126.836735,200.354592 132.542517,198.909014 C133.663265,198.262755 135.530612,196.987245 135.957483,195.660714 C138.302721,189.895408 140.008503,184.72534 142.568027,178.806973 C144.062925,177.361395 156.384354,175.490646 159.369048,169.895408 C162.142857,164.669218 158.090136,160.245748 156.222789,155.873299 C156.010204,155.446429 156.64966,154.910714 157.076531,154.698129 C167.209184,158.056973 170.518707,159.869898 173.664966,161.363095 C172.066327,154.429422 165.127551,149.259354 163.420068,148.72534 C168.059524,143.392007 177.287415,143.283163 181.658163,144.084184 C180.807823,138.111395 176.488095,133.046769 172.644558,128.087585 C171.743197,127.021259 170.790816,125.89881 169.719388,124.832483 C164.062925,131.873299 156.382653,135.551871 148.277211,137.471939 C140.22449,138.963435 133.612245,134.965136 127.906463,129.791667 C125.238095,130.378401 122.357143,130.647109 119.744898,131.49915 C118.037415,131.07398 119.372449,129.793367 119.267007,128.565476 C123.79932,123.553571 128.756803,117.635204 135.957483,118.329082 C142.090136,118.276361 146.996599,115.444728 152.329932,113.579082 C159.583333,109.89881 166.246599,103.179422 170.467687,96.1403061 C172.015306,97.0994898 171.692177,96.7831633 172.440476,97.5280612 C172.542517,100.087585 170.994898,102.592687 169.617347,105.580782 C198.460884,105.580782 210.195578,116.140306 216.318027,119.713435 C214.515306,113.633503 212.168367,108.619898 206.556122,103.340986 C210.02551,100.567177 213.171769,99.7151361 215.314626,100.409014 C209.17517,92.8886054 201.658163,86.7542517 192.916667,84.4073129 C181.386054,81.5280612 171.964286,86.9158163 163.154762,92.1403061 C160.969388,87.9821429 144.969388,58.5433673 119.05102,63.0756803 C118.304422,62.6488095 118.091837,61.6896259 118.678571,61.1573129 C120.863946,59.0246599 123.370748,57.6896259 125.717687,55.9311224 C126.784014,53.2644558 122.517007,52.1947279 124.010204,50.0620748 C128.27551,51.0756803 131.532313,54.5416667 135.103741,57.2627551 C138.302721,57.7423469 138.517007,53.0501701 141.076531,52.5161565 C143.209184,54.7576531 144.758503,56.8903061 147.318027,58.2763605 C146.996599,52.7304422 146.887755,52.625 147.688776,48.5178571 C144.010204,47.4532313 141.02551,44.4668367 138.836735,41.6386054 C122.413265,51.1862245 115.158163,37.8511905 115.158163,37.8511905 L115.157313,37.8511905 Z M80.0671769,185.303571 C83.6930272,195.541667 88.3886054,205.422619 92.1743197,215.660714 C93.9345238,220.133503 96.7576531,220.609694 99.7967687,224.079082 C100.970238,225.52466 102.198129,227.17432 102.252551,228.82398 C103.905612,227.276361 112.543367,227.378401 115.210034,232.667517 C117.875,227.378401 126.463435,227.276361 128.118197,228.82398 C128.170918,227.17432 129.448129,225.52466 130.568878,224.079082 C133.662415,220.609694 136.434524,220.133503 138.194728,215.660714 C141.982143,205.422619 146.67602,195.541667 150.303571,185.303571 C148.755952,185.303571 147.046769,185.677721 146.407313,187.395408 C144.539966,192.140306 134.837585,214.861395 131.529762,219.657313 C131.529762,219.657313 128.703231,225.728741 115.210034,225.728741 C101.716837,225.728741 98.8937075,219.657313 98.8937075,219.657313 C95.5331633,214.861395 85.8256803,192.140306 84.0127551,187.395408 C83.3732993,185.677721 81.667517,185.303571 80.0671769,185.303571 L80.0671769,185.303571 Z" fill="#CC092F" transform="translate(115.181973, 124.273384) scale(-1, 1) rotate(-180.000000) translate(-115.181973, -124.273384) "></path>
                        <path d="M96.3852041,25.3180272 C97.9311224,28.3622449 99.4804422,31.457483 101.079082,34.2806122 L104.388605,28.2091837 C105.028061,28.957483 107.051871,30.5561224 108.759354,31.8826531 C109.184524,31.2534014 110.786565,29.7057823 111.745748,28.6343537 C112.971939,29.7057823 114.623299,30.6581633 115.210034,31.2534014 C115.796769,30.6581633 117.451531,29.7057823 118.677721,28.6343537 C119.636905,29.7057823 121.238946,31.2534014 121.664116,31.8826531 C123.317177,30.5561224 125.395408,28.957483 125.982143,28.2091837 L129.342687,34.2806122 C130.888605,31.457483 132.490646,28.3622449 133.983844,25.3180272 C126.732143,27.2397959 122.888605,27.1887755 115.210034,27.1377551 C107.531463,27.1887755 103.636905,27.2397959 96.3852041,25.3180272 L96.3852041,25.3180272 Z M117.611395,37.4268707 C117.077381,38.0731293 116.330782,38.3962585 115.210034,39.994898 C114.036565,38.3962585 113.344388,38.1751701 112.812075,37.4778912 C111.266156,39.1955782 111.371599,39.2465986 110.090986,40.4710884 C108.543367,39.2465986 108.17432,39.0255102 106.679422,37.8520408 L104.441327,40.1479592 C108.279762,43.2942177 112.381803,42.5969388 115.210034,43.1921769 C118.036565,42.5969388 122.142007,43.1921769 125.929422,40.0969388 L123.689626,37.75 C122.194728,38.9234694 121.82568,39.1445578 120.332483,40.420068 C118.99915,39.1445578 119.102891,38.9234694 117.611395,37.4268707 Z" stroke="#FFFFFF" stroke-width="0.625" fill="#FEFEFE" transform="translate(115.184524, 34.255102) scale(-1, 1) rotate(-180.000000) translate(-115.184524, -34.255102) "></path>
                        <path d="M100.332483,52.7850405 C102.145408,56.3581697 101.932823,60.1421833 101.932823,60.1421833 C93.9328231,52.0367411 68.7593537,56.7323194 68.7593537,56.7323194 C75.3205782,59.5571493 93.0263605,56.9432037 103.960034,77.2102105 C109.932823,73.2646323 109.611395,57.0520473 100.332483,52.7850405 L100.332483,52.7850405 Z M129.771259,52.9449044 C120.492347,57.1557888 120.170918,73.4227956 126.145408,77.3156527 C137.077381,57.0503466 154.779762,59.6625915 161.340986,56.8377615 C161.340986,56.8377615 136.170918,52.143884 128.170918,60.2493262 C128.170918,60.2493262 127.958333,56.4636119 129.771259,52.9449044 L129.771259,52.9449044 Z M107.795068,97.643884 C100.686224,97.7017071 96.0195578,104.567353 92.3341837,110.165993 C91.9056122,110.85987 92.172619,111.873476 93.1879252,111.715313 C97.6130952,108.727217 101.664116,104.674496 106.99915,103.875177 C110.25085,103.235721 113.077381,104.247625 115.210034,106.380279 C117.342687,104.247625 120.118197,103.235721 123.42432,103.875177 C128.757653,104.674496 132.810374,108.727217 137.182823,111.715313 C138.196429,111.873476 138.461735,110.85987 138.036565,110.165993 C133.875,103.768034 128.330782,95.7153126 119.371599,98.05885 C118.092687,98.2748364 116.810374,99.181299 115.210034,100.247625 C113.555272,99.181299 112.278061,98.2748364 110.997449,98.05885 C109.878401,97.766333 108.812075,97.6353806 107.795068,97.643884 Z M108.546769,113.305449 C102.15051,113.33266 97.9379252,119.473816 94.625,124.512932 C94.2508503,125.152387 94.5212585,126.060551 95.3732993,125.955108 C99.3715986,123.23402 102.99915,119.606469 107.798469,118.912591 C110.732143,118.325857 113.289966,119.235721 115.210034,121.154088 C117.130102,119.235721 119.636905,118.325857 122.570578,118.912591 C127.369898,119.606469 130.995748,123.23402 134.997449,125.955108 C135.902211,126.060551 136.118197,125.152387 135.744048,124.512932 C131.958333,118.754428 126.995748,111.553748 118.943027,113.688102 C117.769558,113.847966 116.64881,114.647285 115.210034,115.660891 C113.716837,114.647285 112.59949,113.847966 111.42602,113.688102 C110.419218,113.421095 109.460034,113.302047 108.546769,113.305449 L108.546769,113.305449 Z M115.210034,130.643884 C113.876701,130.643884 112.330782,131.069054 110.997449,131.868374 C107.85119,133.739122 104.971939,131.936401 101.611395,132.565653 C99.5314626,133.48402 97.2933673,135.1847 96.119898,137.310551 C93.9345238,143.654088 98.2542517,148.143884 100.919218,152.837762 C103.478741,155.660891 107.533163,155.065653 110.944728,154.164292 C112.278061,152.786741 113.664116,152.293544 115.210034,152.242523 C116.701531,152.293544 118.145408,152.786741 119.478741,154.164292 C122.890306,155.065653 126.943027,155.660891 129.502551,152.837762 C132.114796,148.143884 136.487245,143.654088 134.24915,137.310551 C133.128401,135.1847 130.837585,133.48402 128.812075,132.565653 C125.451531,131.936401 122.570578,133.739122 119.42432,131.868374 C118.092687,131.069054 116.488946,130.643884 115.210034,130.643884 L115.210034,130.643884 Z" stroke="#000000" stroke-width="0.625" fill="#000000" transform="translate(115.050170, 103.848303) scale(-1, 1) rotate(-180.000000) translate(-115.050170, -103.848303) "></path>
                    </g>
                </g>
            </g>
        </g>
    </g>
</svg>