<?xml version="1.0" encoding="UTF-8" standalone="no"?>
<svg width="250px" height="250px" viewBox="0 0 250 250" version="1.1" xmlns="http://www.w3.org/2000/svg" xmlns:xlink="http://www.w3.org/1999/xlink">
    <!-- Generator: Sketch 47.1 (45422) - http://www.bohemiancoding.com/sketch -->
    <title>GRAM</title>
    <desc>Created with Sketch.</desc>
    <defs></defs>
    <g id="Page-1" stroke="none" stroke-width="1" fill="none" fill-rule="evenodd">
        <g id="GRAM">
            <g id="Group" transform="translate(0.000000, 46.000000)">
                <path d="M122.049627,147.935658 C189.523507,147.935658 243.060821,114.519469 236.725,72.1487753 L102.926493,72.1487753 L102.926493,93.1947635 L176.881716,93.1947635 C169.598134,108.529846 154.038433,120.825222 121.721269,120.825222 C89.4041045,120.825222 67.6485075,99.0048106 67.6485075,76.5240812 C67.6485075,54.0414812 96.6597015,34.8698224 125.680224,34.8698224 C154.693284,34.8698224 175.111194,56.4358341 175.111194,56.4358341 L229.911567,56.4358341 C217.409701,32.8084341 175.797761,11.0665871 126.997388,11.0665871 C59.5253731,11.0665871 12.7772388,44.9597753 12.7772388,78.0093282 C12.7772388,111.058881 54.5794776,147.935658 122.049627,147.935658 Z M124.999254,6.09082235 C190.609328,6.09082235 243.797761,38.9589282 243.797761,79.4983165 C243.797761,120.041446 190.609328,152.907681 124.999254,152.907681 C59.3891791,152.907681 6.20261194,120.041446 6.20261194,79.4983165 C6.20261194,38.9589282 59.3891791,6.09082235 124.999254,6.09082235 Z" id="Fill-272" fill="#EBA920"></path>
                <path d="M125,152.907494 C59.3899254,152.907494 6.20149254,120.041259 6.20149254,79.4981294 C6.20149254,38.9587412 59.3899254,6.09063529 125,6.09063529 C190.608209,6.09063529 243.796642,38.9587412 243.796642,79.4981294 C243.796642,120.041259 190.608209,152.907494 125,152.907494 M125,1.19343529 C56.6902985,1.19343529 1.31343284,36.252 1.31343284,79.4981294 C1.31343284,122.749871 56.6902985,157.806565 125,157.806565 C193.30597,157.806565 248.686567,122.749871 248.686567,79.4981294 C248.686567,36.252 193.30597,1.19343529 125,1.19343529" id="Fill-274" fill="#231F20"></path>
                <path d="M236.725,72.1482141 L102.926493,72.1482141 L102.926493,93.1942024 L176.881716,93.1942024 C169.596269,108.529285 154.036567,120.824661 121.721269,120.824661 C89.4041045,120.824661 67.6485075,99.0042494 67.6485075,76.52352 C67.6485075,54.04092 96.6578358,34.8692612 125.680224,34.8692612 C154.693284,34.8692612 175.111194,56.4352729 175.111194,56.4352729 L229.911567,56.4352729 C217.409701,32.8097435 175.797761,11.0660259 126.997388,11.0660259 C59.5253731,11.0660259 12.7772388,44.9592141 12.7772388,78.0087671 C12.7772388,111.05832 54.5794776,147.935096 122.049627,147.935096 C189.523507,147.935096 243.060821,114.518908 236.725,72.1482141" id="Fill-276" fill="#231F20"></path>
                <path d="M217.247948,147.798169 C215.445709,147.798169 213.984888,146.33724 213.984888,144.530252 C213.984888,142.725134 215.445709,141.258593 217.247948,141.258593 C219.04459,141.258593 220.50541,142.725134 220.50541,144.530252 C220.50541,146.33724 219.04459,147.798169 217.247948,147.798169 M217.247948,140.366322 C214.956903,140.366322 213.094963,142.229428 213.094963,144.530252 C213.094963,146.831075 214.956903,148.692311 217.247948,148.692311 C219.540858,148.692311 221.399067,146.831075 221.399067,144.530252 C221.399067,142.229428 219.540858,140.366322 217.247948,140.366322" id="Fill-278" fill="#231F20"></path>
                <path d="M217.543284,144.084304 L216.431343,144.084304 L216.431343,143.044256 L217.543284,143.044256 C217.828731,143.044256 218.060075,143.27808 218.060075,143.566151 C218.060075,143.85048 217.828731,144.084304 217.543284,144.084304 M218.951866,143.566151 C218.951866,142.786115 218.319403,142.150115 217.543284,142.150115 L215.541418,142.150115 L215.541418,146.907021 L216.431343,146.907021 L216.431343,144.972833 L217.071269,144.972833 L217.970522,146.907021 L218.951866,146.907021 L218.015299,144.894268 C218.56194,144.699727 218.951866,144.175962 218.951866,143.566151" id="Fill-280" fill="#231F20"></path>
            </g>
        </g>
    </g>
</svg>