<?xml version="1.0" encoding="UTF-8" standalone="no"?>
<svg width="250px" height="250px" viewBox="0 0 250 250" version="1.1" xmlns="http://www.w3.org/2000/svg" xmlns:xlink="http://www.w3.org/1999/xlink">
    <!-- Generator: Sketch 47.1 (45422) - http://www.bohemiancoding.com/sketch -->
    <title>JAXST</title>
    <desc>Created with Sketch.</desc>
    <defs></defs>
    <g id="Page-1" stroke="none" stroke-width="1" fill="none" fill-rule="evenodd">
        <g id="JAXST" fill-rule="nonzero">
            <g id="Jacksonville_State_Gamecocks_wordmark" transform="translate(0.000000, 68.000000)">
                <path d="M171.026549,1.83004808 C171.026549,1.83004808 168.90542,12.2450673 167.970796,16.8353365 C167.320354,13.3508365 165.791593,10.3747692 163.384513,7.96994231 C156.999558,1.58810577 147.154425,1.26477885 131.616814,1.26477885 C111.717699,1.26477885 100.05708,2.72992308 93.5327434,14.0185 L96.0079646,1.73473077 L50.9969027,1.73473077 L39.8199115,55.6874231 L7.72920354,55.6874231 C7.72920354,55.6874231 2.22455752,82.6438654 2.22168142,82.6593462 C1.18462389,87.7790577 0.967522124,91.5344712 0.967522124,93.7833846 C0.967522124,100.058625 3.59606195,104.002019 5.80159292,106.206702 C12.035,112.437712 22.3170796,112.920048 36.1622124,112.920048 C59.0825664,112.920048 70.6555752,111.125938 76.5250442,95.2264135 C76.8679646,99.6563462 78.4954425,103.360673 81.3880973,106.250933 C87.7002655,112.560673 97.6062389,113.015587 113.171283,113.015587 C128.71885,113.015587 138.697832,112.585708 146.056239,106.650558 C150.004027,103.504644 152.078142,99.7036731 153.384779,95.8277308 C153.857677,101.00826 156.157124,104.372673 158.124823,106.339394 C164.355354,112.567529 174.269735,113.015587 189.859336,113.015587 C204.019956,113.015587 214.259779,113.014204 222.089425,107.254529 C229.578363,101.857048 231.11177,94.1719519 232.592743,86.7369808 L249.705575,1.83159615 L171.024159,1.83159615 L171.026549,1.83004808 Z" id="Shape" fill="#000000"></path>
                <path d="M131.606195,10.6943612 C106.309735,10.6950247 101.426991,12.6155247 98.0752212,29.5435247 L95.9402655,40.2650632 C95.6371681,41.7335247 95.3318584,43.3125632 95.3318584,45.0043901 C95.3318584,50.1970824 98.2300885,54.1491016 103.869469,56.7432362 L120.026549,63.9705439 C123.836283,65.6623709 124.143805,66.677467 124.143805,68.3715055 C124.143805,68.9354478 123.99115,69.609967 123.838496,70.4016978 L121.084071,84.0601593 C120.475664,86.9948709 119.557522,88.5739093 116.50885,88.5739093 C113.918142,88.5739093 112.853982,87.7843901 112.853982,85.8647747 C112.853982,85.0752555 116.663717,66.1157362 116.663717,66.1157362 L90.7477876,66.1157362 L86.9402655,84.6263132 C86.0243363,89.0272747 85.8672566,91.9597747 85.8672566,93.4282362 C85.8672566,102.796313 94.4048673,103.588044 113.154867,103.588044 C126.873894,103.588044 135.263274,103.245255 140.141593,99.2932362 C144.409292,95.9095824 145.017699,91.0596785 146.389381,84.6263132 L149.893805,67.4691978 C150.196903,66.1135247 150.506637,64.7600632 150.506637,63.2916016 C150.506637,58.3266978 147.30531,54.3768901 140.902655,51.6677555 L126.115044,45.2321785 C122.761062,43.763717 121.845133,42.6358324 121.845133,41.0545824 C121.845133,40.0372747 122,39.2477555 122.152655,38.7966016 L123.829646,30.1052555 C124.438053,27.2833324 125.506637,25.5915055 128.55531,25.5915055 C131.14823,25.5915055 132.212389,26.3810247 132.212389,28.3006401 C132.212389,28.3006401 132.214602,28.8623709 131.909292,30.1052555 L129.316372,43.2019862 L154.776549,43.2019862 L157.519912,29.5435247 C158.128319,26.3854478 158.889381,23.4463132 158.889381,20.8493035 C158.889381,11.2585247 150.053097,10.6945824 131.615044,10.6943612 L131.606195,10.6943612 L131.606195,10.6943612 Z M58.7190265,11.1609959 L44.0840708,83.964842 C43.4734513,86.7867651 42.8672566,88.478592 39.3606195,88.478592 C36.7699115,88.478592 35.7013274,87.8018612 35.7013274,85.8822459 C35.7013274,84.9799382 35.8561947,84.3032074 36.0066372,83.964842 L39.8141593,65.1136882 L15.4269912,65.1136882 L11.4637168,84.5309959 C10.5497788,89.0447459 10.3964602,92.2028228 10.3964602,93.7818612 C10.3964602,102.473207 18.6283186,103.488304 36.1597345,103.488304 C62.5314159,103.488304 66.3367257,101.234746 69.690708,84.5309959 L84.4827434,11.1609959 L58.719469,11.1607747 L58.7190265,11.1609959 Z M178.727876,11.2602939 L163.785398,84.6258709 C162.871681,89.1396209 162.719027,92.2976978 162.719027,93.8767362 C162.719027,102.906448 171.40708,103.587602 189.849558,103.587602 C203.115044,103.587602 211.345133,103.472602 216.528761,99.6355824 C221.10177,96.3625055 222.013274,91.5103901 223.384956,84.6258709 L238.163717,11.2602939 L212.411504,11.2598516 L197.787611,84.0592747 C197.179204,86.8789862 196.568584,88.5730247 193.061947,88.5730247 C190.469027,88.5730247 189.557522,87.8940824 189.557522,85.9766785 C189.557522,85.4127362 189.55531,84.7360055 189.707965,84.0592747 L204.34292,11.2598516 L178.732301,11.2594093 L178.727876,11.2594093 L178.727876,11.2602939 Z" id="Shape" fill="#CB2027"></path>
                <path d="M131.615044,15.3962885 C106.637168,15.3962885 105.336283,17.1024904 102.692478,30.4601827 C102.692478,30.4601827 100.558296,41.1832692 100.551438,41.2219712 C100.281792,42.5184856 100.039403,43.7838173 100.039403,45.0059135 C100.039403,46.5581923 100.382588,48.6551731 102.759535,50.6081827 C102.594978,49.9474856 102.547788,49.3209567 102.547788,48.7680721 C102.547788,47.5461971 102.791593,46.2807548 103.059823,44.9841298 C103.06823,44.9454279 105.200863,34.2223413 105.200863,34.2223413 C107.847323,20.864649 109.145996,19.1584471 134.123429,19.1584471 C141.385597,19.1584471 150.136704,19.1654135 154.193119,20.7328413 C154.168783,18.757274 153.600199,18.1785144 153.383385,17.9613413 C150.817013,15.3959567 140.169889,15.3955144 131.613473,15.3955144 L131.615044,15.3962885 Z M62.5707965,15.8651346 C59.5719027,30.7885962 48.6946903,84.9005192 48.6836283,84.9580192 C48.1512832,87.4196827 46.9071903,93.1822885 39.3588496,93.1822885 C37.7825221,93.1822885 35.5845133,93.0102087 33.7566372,91.6791058 C34.1272124,93.1304279 34.8419027,94.1367885 35.4807522,94.7739327 C37.4276549,96.7200865 40.0586283,96.9444471 41.8672566,96.9444471 C49.4141593,96.9444471 50.6610619,91.1807356 51.1920354,88.7201779 C51.2044248,88.662125 62.0829646,34.5507548 65.0825221,19.6295048 L77.9763274,19.6295048 L78.7346903,15.8672356 L62.5720796,15.8672356 L62.5707965,15.8651346 Z M182.570796,15.9601644 C179.520354,30.9389144 168.396018,85.5617029 168.39823,85.5572798 C167.551991,89.7384144 167.425973,92.5640971 167.425973,93.8786356 C167.425973,95.6533952 167.926527,96.1556356 168.117345,96.3449433 C168.518341,96.7457846 169.153274,97.0774269 169.938695,97.3621625 C169.95396,95.9550712 170.115088,93.2420663 170.908783,89.3194606 C170.907677,89.3236625 182.029358,34.7010952 185.080243,19.7223452 L197.835774,19.7223452 L198.591969,15.960076 L182.572058,15.960076 L182.570796,15.9601644 Z M216.269912,15.9601644 C213.270796,30.8825202 202.394912,84.9933375 202.381637,85.0508375 C201.850664,87.511174 200.603761,93.2751067 193.056858,93.2751067 C191.522013,93.2751067 189.38385,93.1063 187.601549,91.8194721 C187.89885,93.027525 188.470177,94.0641837 189.319137,94.914299 C191.224558,96.817549 193.797456,97.0372654 195.567367,97.0372654 C203.11427,97.0372654 204.35896,91.2748808 204.889934,88.8129962 C204.902323,88.7549433 215.779314,34.6435731 218.78042,19.7223231 L231.674226,19.7223231 L232.432566,15.9600538 L216.269956,15.9600538 L216.269912,15.9601644 Z M136.663717,26.2144048 C136.82135,26.8294779 136.925133,27.5183279 136.925133,28.3006596 C136.925133,28.7111654 136.870155,29.6116596 136.518938,31.0823327 L135.051903,38.4967365 L138.305664,38.4967365 L139.029447,34.8446019 C139.37927,33.3739288 139.435642,32.4720635 139.435642,32.0629288 C139.435642,29.4214673 138.341549,27.77365 137.422035,26.8558615 C137.180044,26.6139635 136.923628,26.4065654 136.663673,26.2144269 L136.663717,26.2144048 Z M119.982301,47.038251 C121.105088,50.8213087 124.944469,52.5135779 126.74469,53.3013279 C126.75354,53.3055298 141.540044,59.7395587 141.540044,59.7395587 C143.397124,60.526026 144.732965,61.3466837 145.712168,62.1496933 C145.416261,60.614001 144.184513,58.1569817 139.029646,55.9772894 C139.029646,55.9772894 124.242035,49.5434817 124.234292,49.5390587 C123.194469,49.0843221 121.468805,48.324924 119.982301,47.038251 Z M128.507743,65.8108952 C128.724845,66.573876 128.844779,67.4192365 128.844779,68.3700875 C128.844779,69.3113625 128.678164,70.1556837 128.516372,70.972626 C128.516372,70.972626 125.702434,84.9849337 125.696903,85.0147894 C125.272389,87.0576981 123.979425,93.2779817 116.516814,93.2779817 C115.604204,93.2779817 113.036283,93.2664817 110.927434,91.7143135 C111.304912,93.1726019 112.029558,94.1894673 112.675332,94.8352365 C114.879425,97.0399192 118.001438,97.040251 119.027323,97.040251 C126.489934,97.040251 127.783075,90.8200779 128.207412,88.7770587 C128.212942,88.74665 131.026881,74.7348952 131.026881,74.7348952 C131.187279,73.9179971 131.355288,73.0736981 131.355288,72.1323567 C131.355288,69.2420971 130.295597,67.3050106 128.507721,65.8108952 L128.507743,65.8108952 Z M19.2665929,69.8170971 C18.114823,75.4607221 16.0696903,85.4648375 16.0710177,85.4593087 C15.2234071,89.6404433 15.0987611,92.4696644 15.0987611,93.7826548 C15.0987611,95.5187125 15.5827212,96.0050298 15.7901327,96.212251 C16.1952655,96.6158567 16.8343584,96.9513913 17.6114823,97.2402625 C17.6308407,95.8248779 17.7920133,93.1190606 18.5815708,89.221224 C18.5801327,89.2267529 20.6230531,79.221974 21.7749336,73.5790125 L33.3014823,73.5790125 L34.0641372,69.8167433 L19.2665708,69.8167433 L19.2665929,69.8170971 Z M94.5896018,70.8148769 C93.4751106,76.2260692 91.5533186,85.5757904 91.5519912,85.5813192 C90.7085177,89.6381654 90.5819027,92.2376077 90.5819027,93.4274154 C90.5819027,95.4620308 91.1598894,96.0396846 91.3769912,96.2566365 C91.7696903,96.6478135 92.3673009,96.9732192 93.0945796,97.2565837 C93.0945796,97.2330971 93.0923673,97.2145202 93.0923673,97.1896404 C93.0923673,96.0009385 93.2168142,93.4001692 94.0602876,89.3435442 C94.0602876,89.3380154 95.9856195,79.9896212 97.1001106,74.5793135 L110.14104,74.5793135 L110.910199,70.8148327 L94.5894027,70.8148327 L94.5896018,70.8148769 Z" id="Shape" stroke="#FFFFFF" stroke-width="0.5" fill="#FFFFFF"></path>
            </g>
        </g>
    </g>
</svg>