<?xml version="1.0" encoding="UTF-8" standalone="no"?>
<svg width="250px" height="250px" viewBox="0 0 250 250" version="1.1" xmlns="http://www.w3.org/2000/svg" xmlns:xlink="http://www.w3.org/1999/xlink">
    <!-- Generator: Sketch 47.1 (45422) - http://www.bohemiancoding.com/sketch -->
    <title>GAST</title>
    <desc>Created with Sketch.</desc>
    <defs></defs>
    <g id="Page-1" stroke="none" stroke-width="1" fill="none" fill-rule="evenodd">
        <g id="GAST" fill-rule="nonzero">
            <g id="Group" transform="translate(125.000000, 125.000000) scale(-1, 1) rotate(-180.000000) translate(-125.000000, -125.000000) translate(0.000000, 21.000000)">
                <g transform="translate(0.640123, 1.463087)" id="Shape">
                    <path d="M241.019395,181.125599 C241.019395,181.125599 235.125762,181.119255 230.639612,181.119255 C228.053403,181.119255 226.461646,181.122427 225.896111,181.125599 C203.938755,181.185868 194.72499,185.623604 183.058456,191.244525 L182.569173,191.48243 C170.04163,197.604539 154.444949,205.220696 124.32229,205.220696 L123.979157,205.220696 L123.613783,205.220696 C93.4911247,205.220696 77.897621,197.604539 65.3669,191.48243 L64.8776173,191.244525 C53.211084,185.623604 43.9973185,181.185868 22.0113679,181.125599 C21.4712506,181.122427 19.8858475,181.119255 17.2932846,181.119255 C12.8103111,181.119255 6.91985556,181.125599 6.91985556,181.125599 L0.51152284,181.131943 L1.86499321,174.882951 C2.08421728,173.877403 7.30111481,150.765649 27.2854543,140.967104 C28.9661722,137.826747 31.6286327,133.871167 35.7208154,130.04247 C35.7811815,126.89577 35.9050907,121.211408 36.089366,117.620617 C36.4166136,105.5921 38.7963068,94.9085449 43.155371,85.8649533 C48.0958556,74.3249371 55.5812457,64.729404 65.4018488,57.3448087 L65.4749235,57.2908834 C67.4098142,55.8317279 70.3328019,53.6303065 70.9459938,52.7326087 C71.9182049,51.1973234 72.928542,47.3591102 73.8213241,43.9618157 C75.759392,36.6089411 78.4154981,26.5375965 85.4560858,18.3155728 C93.8024864,8.55826385 107.098903,3.30530427 123.912436,3.12449588 L123.969625,3.1213238 L124.023637,3.12449588 C140.83717,3.30530427 154.133587,8.55826385 162.47681,18.3124007 C169.520575,26.5375965 172.176681,36.6089411 174.114749,43.9713319 C175.007531,47.3591102 176.017869,51.1973234 176.996434,52.7389528 C177.603272,53.6303065 180.526259,55.8317279 182.46115,57.2908834 L182.534225,57.3416366 C192.354828,64.729404 199.840218,74.3249371 204.777525,85.8649533 C209.142944,94.9085449 211.51946,105.5921 211.846707,117.620617 C212.030983,121.211408 212.154892,126.89577 212.215258,130.04247 C216.307441,133.871167 218.969901,137.826747 220.650619,140.967104 C240.634959,150.765649 245.851856,173.877403 246.067903,174.882951 L247.424551,181.131943 L241.019395,181.125599" fill="#FFFFFF"></path>
                    <path d="M89.2464383,21.3797992 C82.946129,28.7358459 80.5600815,37.79847 78.6410765,45.0752147 C77.5544877,49.2084311 76.5282648,53.1069138 75.1239599,55.3210235 C74.097737,56.9546432 71.2827728,59.0672465 68.3057735,61.309905 C61.8561377,66.1568387 53.3762963,74.3725182 47.60975,87.8760502 L47.5811556,87.9426638 C47.5684469,87.9490079 47.5652698,87.9680404 47.5652698,87.9712125 C43.8988265,95.5524766 41.2903778,105.224139 40.9535988,117.858522 C40.6898944,122.886264 40.5500994,132.475453 40.5500994,132.475453 C35.4285167,136.767274 32.445163,141.439743 30.7612679,145.014674 C11.4504864,153.360409 6.50364753,176.196191 6.50364753,176.196191 C6.50364753,176.196191 19.81595,176.180331 21.696829,176.196191 C45.2364111,176.259633 55.4382735,181.338128 67.4193457,187.108136 C80.4742981,193.487183 95.0447562,200.427688 123.944208,200.37059 C152.846837,200.427688 167.417295,193.487183 180.472248,187.108136 C192.45332,181.338128 202.655182,176.259633 226.194764,176.196191 C228.075643,176.180331 241.384769,176.196191 241.384769,176.196191 C241.384769,176.196191 236.441107,153.360409 217.130325,145.014674 C215.44643,141.439743 212.463077,136.767274 207.341494,132.475453 C207.341494,132.475453 207.201699,122.886264 206.934817,117.858522 C206.601215,105.224139 203.992767,95.5524766 200.326323,87.9712125 C200.326323,87.9680404 200.323146,87.9490079 200.310438,87.9426638 L200.281843,87.8760502 C194.51212,74.3725182 186.035456,66.1568387 179.58582,61.309905 C176.60882,59.0672465 173.793856,56.9546432 172.767633,55.3210235 C171.360151,53.1069138 170.333928,49.2084311 169.24734,45.0752147 C167.331512,37.79847 164.942287,28.7358459 158.645155,21.3797992 C151.172473,12.6438991 139.232704,8.11734514 123.944208,7.95239713 C108.658889,8.11734514 96.7191198,12.6438991 89.2464383,21.3797992" fill-opacity="0.94118" fill="#0039A6"></path>
                    <path d="M174.839142,86.7880277 C174.851851,86.8038881 176.783564,89.1670855 178.162452,92.5992729 C178.200578,92.6976073 178.235527,92.7991137 178.273652,92.8974481 C164.008202,94.8482755 151.480658,93.7634251 148.179588,93.4144967 C155.830191,92.3074418 165.828715,89.928384 174.419757,86.2868396 L174.839142,86.7880277 L174.839142,86.7880277 Z M161.205946,118.375571 C162.283004,118.375571 163.385478,118.299441 164.497485,118.137665 C161.898567,120.066288 159.105843,121.969534 156.249576,123.733209 C153.323411,122.172547 151.595036,119.755424 150.470321,117.357334 L149.682385,115.711026 L151.404406,116.408883 C154.17489,117.528626 157.568098,118.375571 161.205946,118.375571 Z M179.067943,95.4097331 C179.67478,97.9029857 179.690666,100.256667 179.1156,102.442228 C166.18138,102.229699 155.487057,99.8696734 153.361537,99.3684853 C156.027175,99.2542905 167.175831,98.6103589 179.067943,95.4097331 L179.067943,95.4097331 Z M177.847913,105.452529 C176.955131,106.886308 175.496814,108.592885 173.619112,110.445378 C165.577719,109.192408 159.220221,106.854587 156.653075,105.810974 C160.198786,106.0806 168.980458,106.550068 177.847913,105.452529 L177.847913,105.452529 Z M112.563619,23.5272954 C101.446735,23.5272954 97.516587,30.6137155 97.516587,30.6137155 C94.0248877,36.1204412 92.3600556,42.7786309 90.8667901,48.6945546 C89.5736858,53.817459 88.3600105,58.6072953 86.1963642,62.1663658 C84.2265247,65.4494655 80.8777975,68.0949778 76.9190556,71.2036133 C68.7505759,77.5953485 57.9101043,86.8070602 54.3929877,106.226516 L57.8719784,106.226516 C62.0372358,127.55239 73.1350574,142.483356 74.9619247,144.830693 C73.4495963,147.866371 73.0874,151.466679 73.0778685,151.507916 C74.097737,151.20974 75.6513685,150.841779 77.106508,150.524572 C81.7610481,153.08761 85.8850025,154.854457 89.2432611,156.06619 C89.8882247,159.980533 90.7333494,163.168471 91.5053994,165.293762 C92.6491772,168.443635 94.3616667,170.03919 95.1845512,170.71167 C98.485621,173.407935 101.265636,174.756068 101.265636,174.756068 C99.8263827,169.721982 99.0416241,163.358795 98.6222389,158.473797 C100.426866,155.488872 104.744627,151.349312 107.219635,149.090793 C108.916239,150.543604 110.647791,152.11061 111.921833,153.281107 C112.303092,160.745004 112.55091,170.860758 112.668465,176.291353 C109.713706,182.270719 106.450762,187.514162 104.39514,190.638658 C69.7863302,185.547474 67.3685111,166.515012 22.4434617,166.515012 C23.0471222,165.503119 24.1781914,163.799714 25.8906809,161.944049 C28.6230389,158.978157 33.2394531,155.539625 39.056834,154.06461 C39.0663654,154.06461 39.4508019,151.86636 40.7979179,149.265257 C42.0846679,146.775177 44.2927944,143.584067 48.045021,140.605487 C48.045021,140.605487 48.045021,140.608659 48.0513753,140.611831 C49.0807753,142.343785 50.2118444,144.082083 51.3492679,145.760112 C48.3849772,148.405624 46.5454012,151.127266 45.4143321,153.312827 C44.0703932,155.913931 43.670071,158.109008 43.670071,158.109008 C42.0592506,158.43256 37.4205963,159.526926 33.3347679,162.188299 C40.0989426,161.363559 50.4755488,162.324698 65.6115414,168.719606 L65.6115414,168.716433 L65.6115414,168.719606 C65.6115414,168.719606 64.5249525,164.713272 62.0721846,160.656186 C67.247779,161.569744 74.5838426,163.149438 80.5410185,166.822703 C74.6728031,158.172449 68.9634457,155.787047 66.891937,153.312827 C64.4264605,150.435753 52.4167938,135.40328 50.2976278,126.787919 C45.3031315,80.7674255 76.7061858,71.4066262 83.4036401,60.5581227 C90.0852086,49.2528402 87.8198932,22.8230943 111.654951,16.6660928 C111.654951,16.6660928 122.911631,13.4559508 126.466873,28.9991283 C126.466873,28.9991283 120.862362,23.5272954 112.563619,23.5272954 L112.563619,23.5272954 Z M142.99764,120.808554 C142.152515,123.641219 140.802222,126.445335 139.849073,126.902114 C138.324036,127.780779 133.571004,128.646756 129.821955,128.110675 C131.045162,130.115428 134.212791,131.733187 136.681444,132.48497 C134.981664,133.557132 132.980052,133.810898 131.455015,133.804554 C130.635308,133.750628 129.828309,133.674498 129.075322,133.58568 C130.371604,136.846575 134.822806,139.222461 137.291459,139.653864 C134.651239,141.379474 128.884693,143.009921 123.941031,135.279569 C119.010078,142.990889 113.25624,141.385818 110.609665,139.666552 C113.157748,139.298591 118.002918,137.214536 118.809917,133.588852 L118.809917,133.58568 C118.558921,133.630089 118.311102,133.668154 118.066461,133.703047 C116.674865,133.877511 113.589842,134.020255 111.149783,132.453249 C113.529476,131.647541 116.538247,129.93462 117.770985,127.923523 C112.24908,128.852941 106.857439,126.347 105.122709,124.691176 L104.004349,123.641219 C100.700102,129.709402 93.8088407,125.113062 91.6483716,123.723693 C94.5681821,122.166203 96.2902031,119.752252 97.4117407,117.357334 L98.1996765,115.711026 L97.615079,115.948932 C95.0860593,116.887867 84.766642,119.879135 74.5743111,110.711833 C78.6474309,109.687252 83.8992772,108.053632 87.6610352,106.00447 C79.025513,106.867275 69.1922012,103.752296 69.1922012,103.752296 C69.1922012,103.752296 82.9620148,102.803845 91.0542426,99.1369236 C78.1899198,98.9021899 69.1445438,94.2614412 69.1445438,94.2614412 C69.1445438,94.2614412 75.7562148,94.7753177 80.0231414,94.7753177 C84.5950753,94.7753177 90.5554284,94.2836458 96.2139512,92.8149741 C84.8206537,91.5049063 74.4154531,85.23371 74.4154531,85.23371 C74.4154531,85.23371 92.982779,86.8895342 106.692227,87.3875503 C106.82249,87.3938944 104.004349,90.3122053 102.40306,95.2891942 C107.82965,92.3296463 113.707397,90.4168839 118.8957,90.2329034 C117.043415,91.657166 115.076753,93.6079934 113.129154,95.7681778 C112.957587,95.9838791 112.779666,96.1837199 112.760603,96.5897458 C112.789198,97.3447001 113.561248,97.503304 113.828129,97.503304 C114.082302,97.503304 114.314235,97.4557228 114.562053,97.382765 C114.806694,97.3129793 115.025919,97.2812586 115.222902,97.2812586 C115.48343,97.2812586 115.686768,97.338356 115.855157,97.4430345 C116.179228,97.6523916 116.427046,98.1282031 116.427046,98.9370828 C116.439755,100.06317 115.89646,101.687274 114.851175,103.213043 C113.440515,105.297097 111.45479,106.537379 110.399973,106.496142 C110.120383,106.486626 109.929753,106.435873 109.758186,106.315334 C109.437293,106.118665 109.199006,105.658714 109.189475,104.875211 C109.16088,104.205903 109.046502,103.295517 107.944028,103.155945 C107.305419,103.190838 106.96864,103.565143 106.654101,104.009234 C103.73429,108.259817 101.669136,111.844264 101.599238,113.74751 C101.599238,114.013965 101.627833,114.328001 101.853411,114.603971 C102.482489,115.428711 103.505535,115.574627 104.65249,115.596831 C110.148977,115.561939 121.9839,110.911674 123.944208,110.140859 C125.907693,110.911674 137.736262,115.552422 143.226395,115.590487 C143.648957,115.584143 144.036571,115.561939 144.401944,115.498497 C144.103291,116.849802 143.614009,118.845038 142.99764,120.808554 L142.99764,120.808554 Z M143.490099,190.64183 C141.434477,187.514162 138.171533,182.270719 135.216773,176.291353 C135.331151,170.860758 135.582147,160.745004 135.963406,153.281107 C137.237448,152.11061 138.965823,150.543604 140.662427,149.090793 C143.172383,151.37786 147.572751,155.599895 149.332898,158.591164 C149.332898,158.591164 160.198786,157.246203 175.245819,147.91078 C173.959069,151.434958 171.881206,156.015437 171.360151,157.151041 C169.479272,158.156589 166.613473,159.790209 163.808041,161.817166 C158.943808,165.325483 160.459314,172.189858 160.459314,172.189858 C167.925641,167.358784 178.928148,163.111373 185.552527,161.087588 C183.280857,164.992415 182.27052,168.719606 182.27052,168.719606 C197.406513,162.324698 217.41627,159.50155 225.441777,166.51184 C180.516728,166.51184 178.095731,185.547474 143.490099,190.64183 L143.490099,190.64183 Z M138.54326,103.717403 C138.813319,104.922792 138.663993,105.899792 138.044446,106.315334 C136.919731,107.063944 134.673479,105.684091 133.02771,103.232075 C131.378764,100.773715 130.953024,98.1757843 132.077739,97.424002 C132.452644,97.17658 132.951458,97.1607196 133.507461,97.3447001 C133.679028,97.4017975 134.03487,97.5667455 134.397066,97.998148 C135.671107,99.5270891 136.916554,101.125816 138.069864,102.721371 C138.400288,103.174978 138.505135,103.542939 138.54326,103.717403 Z M114.994147,73.9601482 L119.273782,68.6596075 C119.273782,68.6596075 121.65983,71.6254995 123.947385,74.6326285 C126.219055,71.6254995 128.620988,68.6596075 128.620988,68.6596075 L132.900623,73.9601482 C134.536861,71.2004412 136.065075,68.6596075 136.065075,68.6596075 C138.54326,71.688941 139.598078,75.4954335 140.049235,77.8998679 C134.965778,78.1028808 129.539188,78.236108 123.947385,78.236108 C118.349228,78.236108 112.925815,78.1028808 107.842359,77.8998679 C108.293515,75.4954335 109.35151,71.688941 111.826518,68.6596075 C111.826518,68.6596075 113.357909,71.2004412 114.994147,73.9601482 L114.994147,73.9601482 Z M146.171623,57.6366398 C152.881786,63.454229 154.988243,72.6405641 155.626852,76.9926538 C151.871449,77.2686245 147.683951,77.5445952 143.191446,77.7602965 C145.952399,70.6389835 145.018314,59.20999 145.034199,58.1695487 C145.05644,57.0085685 145.504419,57.0529776 146.171623,57.6366398 L146.171623,57.6366398 Z M92.2552093,76.9926538 C92.9065272,72.6405641 95.0129846,63.454229 101.716793,57.6366398 C102.393528,57.0529776 102.835154,57.0085685 102.854217,58.1695487 C102.870102,59.20999 101.936017,70.6389835 104.69697,77.7602965 C100.204465,77.5445952 96.0233216,77.2686245 92.2552093,76.9926538 L92.2552093,76.9926538 Z M109.097337,38.8738041 C109.399167,39.1117099 109.710529,39.3464436 110.040954,39.5621448 C111.47703,40.51694 113.097382,40.9895795 114.847998,40.9895795 C116.652625,40.9895795 118.295217,40.5042517 119.731293,40.0696771 C121.151484,39.6414467 122.4986,39.2449371 123.941031,39.2449371 C125.377107,39.2449371 126.724223,39.6414467 128.144414,40.0696771 C129.590022,40.5042517 131.223083,40.9895795 133.030887,40.9895795 C134.78468,40.9895795 136.401854,40.51694 137.834754,39.5621448 C138.171533,39.3464436 138.482894,39.1117099 138.784725,38.8738041 C144.929353,47.187818 140.093715,60.1108599 139.801416,57.0910425 C139.280362,51.6414142 137.142133,48.2917008 135.156407,46.325013 C133.656788,48.0030418 131.944298,49.4717135 131.944298,49.4717135 C131.944298,49.4717135 129.548719,46.8642661 127.94743,44.7421466 C126.349319,46.8642661 123.941031,49.4717135 123.941031,49.4717135 C123.941031,49.4717135 121.551806,47.4130355 119.94734,45.3733899 C118.349228,47.4193796 115.940941,49.4717135 115.940941,49.4717135 C115.940941,49.4717135 114.234806,47.9998697 112.732009,46.3123247 C110.743106,48.2790125 108.598523,51.6255538 108.077469,57.0910425 C107.788347,60.1108599 102.959063,47.187818 109.097337,38.8738041 Z M95.1496025,136.840231 C95.1686654,136.824371 95.1623111,136.732381 95.1623111,136.722864 C95.1623111,136.589637 95.1305395,136.421517 94.9939216,136.291462 C94.863658,136.158235 94.6889142,136.123342 94.5872451,136.126514 C94.3044778,136.139202 94.2028086,136.237537 94.171037,136.247053 C91.4513877,138.137611 89.9231735,141.696681 89.2083123,144.269236 C86.8381506,144.132836 84.1439185,143.764875 81.2717654,143.089223 C83.5910926,141.693509 87.6991611,138.800575 90.6920463,134.321602 C93.221066,134.718112 95.9756642,134.832307 98.2568654,134.832307 C99.0289154,134.832307 99.7342451,134.816446 100.3665,134.794242 C100.401449,134.803758 100.449106,134.803758 100.484055,134.794242 C101.88836,134.816446 102.641347,135.603121 102.66041,136.567433 C102.66041,136.86878 102.577804,137.198676 102.396706,137.547604 C101.103601,139.99962 99.5436154,142.232762 97.6659136,143.342989 C97.3672605,143.520626 96.8716235,143.707778 96.2234827,143.866382 C95.3116377,142.226418 95.041579,140.199461 95.041579,138.607078 C95.041579,137.909221 95.0860593,137.303355 95.1496025,136.840231 L95.1496025,136.840231 Z M152.84366,138.607078 C152.84366,140.199461 152.570424,142.226418 151.658579,143.866382 C151.013615,143.707778 150.514801,143.520626 150.216148,143.342989 C148.338446,142.232762 146.77846,139.99962 145.485356,137.547604 C145.304258,137.198676 145.221652,136.86878 145.221652,136.567433 C145.240715,135.603121 145.993702,134.816446 147.398007,134.794242 C147.436133,134.803758 147.480613,134.803758 147.515562,134.794242 C148.147817,134.816446 148.853146,134.832307 149.628373,134.832307 C151.906398,134.832307 154.660996,134.718112 157.190015,134.321602 C160.182901,138.800575 164.290969,141.693509 166.610296,143.089223 C163.738143,143.764875 161.043911,144.132836 158.676927,144.269236 C157.958888,141.696681 156.430674,138.137611 153.711025,136.247053 C153.68243,136.237537 153.577584,136.139202 153.294817,136.126514 C153.193148,136.123342 153.021581,136.158235 152.88814,136.291462 C152.751522,136.421517 152.719751,136.589637 152.719751,136.722864 C152.719751,136.732381 152.713396,136.824371 152.735636,136.840231 C152.796002,137.303355 152.84366,137.909221 152.84366,138.607078 L152.84366,138.607078 Z M175.604838,140.944899 L181.717694,138.848156 C180.42459,138.35014 170.686593,134.31843 164.043151,125.642799 C161.57132,127.038513 158.791304,128.063094 156.719796,128.719714 C158.168581,128.767295 159.833413,128.767295 161.450588,128.646756 L161.943048,128.611863 L162.19722,129.024233 C166.229037,135.638014 173.62229,139.891769 175.604838,140.944899 L175.604838,140.944899 Z" fill="#FFFFFF"></path>
                </g>
            </g>
        </g>
    </g>
</svg>