<?xml version="1.0" encoding="UTF-8" standalone="no"?>
<svg width="250px" height="250px" viewBox="0 0 250 250" version="1.1" xmlns="http://www.w3.org/2000/svg" xmlns:xlink="http://www.w3.org/1999/xlink">
    <!-- Generator: Sketch 47.1 (45422) - http://www.bohemiancoding.com/sketch -->
    <title>UCF</title>
    <desc>Created with Sketch.</desc>
    <defs></defs>
    <g id="Page-1" stroke="none" stroke-width="1" fill="none" fill-rule="evenodd">
        <g id="UCF" fill-rule="nonzero">
            <g id="Group-2" transform="translate(125.000000, 125.000000) scale(-1, 1) rotate(-90.000000) translate(-125.000000, -125.000000) translate(30.000000, 0.000000)">
                <polyline id="Shape" fill="#FFFFFF" points="41.3639344 117.483074 41.3639344 146.642274 62.6068689 175.316731 76.5734262 171.872822 76.5734262 202.471936 97.323918 231.735053 163.070148 215.625933 189.561754 249.196971 189.55241 107.707027 155.268311 116.110053 155.268311 85.2166094 134.338098 55.2388242 113.91123 60.2807024 113.91123 0.291529769 69.7190984 11.1148447 69.7190984 22.9113774 37.132541 30.8906437 37.132541 50.766938 31.736541 52.2248979 31.736541 63.2924507 0.0127704918 71.0669927 0.0127704918 127.608834 41.3673607 117.482141"></polyline>
                <polyline id="Shape" fill="#000000" points="46.8459016 110.451513 46.8459016 144.809712 64.8317377 169.081355 82.0553934 164.833172 82.0553934 200.703467 99.6313279 225.481631 165.175098 209.426025 184.034311 233.320577 184.024967 114.698763 149.058738 123.267 149.73819 121.963455 149.73819 86.9207674 131.961043 61.464027 108.377993 67.2849773 108.377993 7.28024816 75.196518 15.4138354 75.196518 27.2066346 42.6099607 35.1859008 42.6099607 66.2663344 5.49143607 75.3622499 5.49143607 120.585144 46.8460262 110.451296"></polyline>
                <polyline id="Shape" fill="#B5985A" points="108.704918 76.1959877 108.704918 103.304523 125.191623 99.2358622 125.191623 129.32161 117.814639 119.934787 71.4328361 131.386587 71.4328361 112.501556 92.2082459 107.377228 92.2082459 90.3916517 99.6858361 99.7570067 99.6858361 18.396244 83.928918 22.2567578 83.928918 76.3219957 76.5304426 66.9385952 67.1042623 69.2512321 67.1042623 38.1707985 51.3436066 42.0313122 51.3436066 73.1080122 14.225082 82.2042388 14.225082 109.499764 62.0988525 97.767946 55.5774918 109.762047 55.5774918 141.954774 68.3971967 159.252726 98.2356066 151.891054 90.326623 166.197792 90.326623 198.088722 103.135738 216.151745 168.389836 200.164588 175.795475 209.547989 175.789246 171.05797 106.087279 188.133463 106.087279 169.60001 168.385475 154.3381 175.787689 163.717767 175.790803 125.227748 132.76982 135.763889 141.04541 119.84487 141.04541 89.6729391 128.261525 71.3622561 108.708344 76.1922541"></polyline>
                <path d="M13.5009639,40.5385056 L16.413882,42.8331591 L0.446406557,107.881944 L3.77047213,110.236584 L20.0070623,44.3539675 L35.7901443,44.3584478 L36.7245705,40.5372611 L13.5009639,40.5372611 L13.5009639,40.5385056 Z M82.6036525,40.5434837 L59.3800459,40.5482129 C59.5868656,40.7134857 62.2954557,42.8428664 62.2954557,42.8428664 L45.762341,110.169131 L23.5354557,110.169131 L22.5960459,113.984842 L48.7300787,113.984842 L65.8313246,44.3661639 L81.6692262,44.3656661 L82.6036525,40.5444793 L82.6036525,40.5434837 Z M93.5775541,75.2482826 L71.1911934,86.8621814 L57.3990623,142.641751 L60.708177,145.088486 L74.5252262,89.4682149 L94.5319148,79.0689715 L127.216898,79.0689715 L121.737423,75.2482826 L93.5775541,75.2482826 Z M117.075259,87.5466697 L113.945554,100.196013 L117.857685,100.196013 L120.992374,87.5466697 L117.075259,87.5466697 Z M123.411915,116.561504 L126.332308,118.858896 L107.73598,194.570764 L111.643128,194.570764 L129.88562,120.382193 L188.622407,120.382193 L189.561816,116.561504 L123.411915,116.561504 Z M108.052439,124.033627 L102.916833,144.779844 L80.3460787,144.779844 L79.4016852,148.598044 L105.892046,148.598044 L111.020177,127.849338 L118.846931,127.849338 L119.791325,124.033627 L108.052439,124.033627 Z M142.553948,149.108298 C142.028177,151.236435 141.619521,152.924009 141.619521,152.924009 L168.827521,152.924009 C169.111587,151.77158 169.413095,150.522078 169.761948,149.108298 L142.553948,149.108298 Z" id="Shape" fill="#FFFFFF" transform="translate(95.004111, 117.554012) scale(-1, 1) rotate(-90.000000) translate(-95.004111, -117.554012) "></path>
            </g>
        </g>
    </g>
</svg>