<?xml version="1.0" encoding="UTF-8"?>
<svg width="250px" height="250px" viewBox="0 0 250 250" version="1.1" xmlns="http://www.w3.org/2000/svg" xmlns:xlink="http://www.w3.org/1999/xlink">
    <!-- Generator: Sketch 53 (72520) - https://sketchapp.com -->
    <title>JVILLE</title>
    <desc>Created with Sketch.</desc>
    <g id="JVILLE" stroke="none" stroke-width="1" fill="none" fill-rule="evenodd">
        <g id="1Asset-1" transform="translate(0.000000, 50.000000)" fill-rule="nonzero">
            <path d="M46.442953,112.760067 L46.442953,147.15604 C49.1392065,148.756512 52.1088741,149.843115 55.2013423,150.360738 C58.1176925,150.870186 61.1077459,150.773087 63.9848993,150.075503 L63.9848993,138.129195 C63.9626297,137.391447 63.4212156,136.772688 62.692953,136.652685 C60.8305369,136.375839 58.9765101,136.090604 57.114094,135.813758 L57.114094,143.582215 C57.1250471,143.82468 57.0225357,144.058432 56.8367547,144.214619 C56.6509736,144.370807 56.403086,144.431638 56.1661074,144.379195 L54.2365772,144.060403 C53.6990623,143.955035 53.3057477,143.492107 53.2885906,142.944631 L53.2885906,119.454698 C53.2803235,119.213676 53.3839816,118.982378 53.569383,118.82815 C53.7547843,118.673923 54.0010876,118.614103 54.2365772,118.666107 L56.1661074,118.984899 C56.7023148,119.086695 57.0961855,119.546791 57.114094,120.092282 L57.114094,125.511745 C58.9765101,125.805369 60.8305369,126.098993 62.692953,126.350671 C63.0171002,126.41491 63.3528341,126.327531 63.6045372,126.11342 C63.8562403,125.899308 63.9963266,125.581931 63.9848993,125.251678 L63.9848993,115.671141 C61.2444439,114.185084 58.2762077,113.164487 55.2013423,112.651007 C52.300541,112.141879 49.3301774,112.178866 46.442953,112.760067 Z" id="Path" fill="#004D43"></path>
            <path d="M151.602349,133.674497 L146.459732,118.07047 C143.63255,118.221477 140.79698,118.330537 137.961409,118.422819 C139.116651,119.851466 139.770954,121.619852 139.823826,123.456376 L139.823826,155.813758 C142.139262,155.729866 144.446309,155.629195 146.761745,155.511745 L146.761745,137.357383 C148.668904,143.308166 150.573266,149.244966 152.474832,155.167785 C154.496644,155.041946 156.518456,154.89094 158.531879,154.731544 L158.531879,117.290268 C156.224832,117.474832 153.917785,117.634228 151.602349,117.785235 L151.602349,133.674497 Z" id="Path" fill="#004D43"></path>
            <path d="M173.07047,146.652685 C172.348993,138.168345 171.621924,129.686801 170.889262,121.208054 C170.773937,119.396875 171.175422,117.590193 172.04698,115.998322 C169.077181,116.322707 166.10179,116.621924 163.120805,116.895973 C164.463087,129.261745 165.805369,141.616331 167.147651,153.959732 C170.503356,153.624161 173.833893,153.252237 177.139262,152.84396 C177.927162,152.726286 178.540704,152.099033 178.64094,151.308725 C179.932886,139.110738 181.222036,126.907159 182.508389,114.697987 C180.251678,115.008389 177.994966,115.293624 175.738255,115.536913 L173.07047,146.652685 Z" id="Path" fill="#004D43"></path>
            <path d="M224.32047,137.189597 L224.32047,111.912752 C224.425158,109.939603 225.056679,108.030555 226.149329,106.384228 C223.190716,107.105705 220.223714,107.799217 217.248322,108.464765 L217.248322,145.90604 C221.470917,144.966443 225.665548,143.962528 229.832215,142.894295 C230.622438,142.667988 231.179711,141.962108 231.216443,141.14094 L231.216443,136.409396 C229.219799,136.92953 227.223154,137.430089 225.22651,137.911074 C225.005565,137.973478 224.768088,137.925685 224.588485,137.782668 C224.408882,137.63965 224.309125,137.418906 224.32047,137.189597 Z" id="Path" fill="#004D43"></path>
            <path d="M242.877517,133.229866 C242.660034,133.31729 242.412849,133.286458 242.223505,133.148288 C242.034162,133.010119 241.929395,132.784121 241.946309,132.550336 L241.946309,123.531879 C243.380872,123.120805 244.807047,122.692953 246.241611,122.27349 C246.970453,122.032085 247.472327,121.36292 247.5,120.595638 L247.5,116.073826 C245.654362,116.63311 243.803132,117.175615 241.946309,117.701342 L241.946309,109.253356 C241.976838,108.694891 242.346381,108.212154 242.877517,108.036913 C245.114653,107.388143 247.35179,106.719799 249.588926,106.031879 L249.588926,99.9077181 C244.119128,101.58557 238.621365,103.151566 233.095638,104.605705 C234.267419,105.852723 234.918621,107.500234 234.916107,109.211409 L234.916107,109.211409 L234.916107,141.568792 C239.39038,140.366331 243.864653,139.091163 248.338926,137.743289 C249.12272,137.471261 249.66347,136.751366 249.706376,135.922819 L249.706376,131.199664 C247.435682,131.89877 245.159396,132.575503 242.877517,133.229866 Z" id="Path" fill="#004D43"></path>
            <path d="M23.0956376,107.692953 L23.0956376,143.716443 C25.3831096,144.275727 27.6761745,144.818233 29.9748322,145.34396 L29.9748322,131.031879 L34.295302,131.996644 L34.295302,146.308725 C36.5939597,146.812081 38.8954139,147.295861 41.1996644,147.760067 L41.1996644,111.736577 C38.3782187,110.086616 35.3194076,108.881201 32.1308725,108.162752 C29.1714263,107.467301 26.1112512,107.308184 23.0956376,107.692953 L23.0956376,107.692953 Z M34.295302,115.771812 L34.295302,125.419463 L29.9748322,124.454698 L29.9748322,114.790268 C29.9608073,114.55288 30.064661,114.323826 30.2524614,114.177945 C30.4402619,114.032064 30.6878865,113.988095 30.9144295,114.060403 L33.3557047,114.597315 C33.8957558,114.735505 34.2790304,115.214599 34.295302,115.771812 Z" id="Shape" fill="#004D43"></path>
            <path d="M91.988255,118.775168 L91.988255,136.543624 C92.0026085,137.280981 92.5706704,137.888843 93.3053691,137.95302 C96.6610738,138.199105 100.016779,138.408837 103.372483,138.582215 L103.372483,148.959732 C103.373184,149.209901 103.269454,149.449014 103.086301,149.619426 C102.903147,149.789838 102.657189,149.876088 102.407718,149.857383 L99.8154362,149.714765 C99.2847713,149.675958 98.8706209,149.24001 98.8590604,148.708054 L98.8590604,143.087248 C96.5436242,142.941834 94.2281879,142.779642 91.9127517,142.600671 L91.9127517,153.364094 C95.0042137,154.707865 98.3115845,155.486404 101.677852,155.662752 C104.633924,155.840133 107.594413,155.397203 110.369128,154.362416 L110.369128,134.110738 C110.360669,133.381256 109.781052,132.786872 109.052013,132.760067 C105.696309,132.625839 102.323826,132.452461 98.9345638,132.239933 L98.9345638,124.404362 C98.9312769,124.155596 99.0333386,123.917041 99.2155348,123.74763 C99.3977309,123.57822 99.6430694,123.493754 99.8909396,123.515101 L102.483221,123.657718 C103.017674,123.68419 103.439797,124.120995 103.447987,124.65604 L103.447987,128.011745 C105.763423,128.129195 108.081655,128.227069 110.402685,128.305369 L110.402685,119.807047 C107.465379,118.60121 104.345355,117.900622 101.174497,117.734899 C98.0753484,117.549693 94.9675092,117.901631 91.988255,118.775168 Z" id="Path" fill="#004D43"></path>
            <path d="M115.830537,119.966443 C115.830537,131.493289 115.830537,143.022931 115.830537,154.555369 C118.958112,155.726332 122.272868,156.317644 125.612416,156.300336 C128.573788,156.300396 131.504541,155.701118 134.228188,154.538591 C134.228188,143.011745 134.228188,131.479306 134.228188,119.941275 C128.25071,117.868159 121.74929,117.868159 115.771812,119.941275 L115.830537,119.966443 Z M127.248322,125.511745 C127.248322,133.403244 127.248322,141.294743 127.248322,149.186242 C127.255436,149.450149 127.153141,149.705259 126.96567,149.891142 C126.778198,150.077025 126.522227,150.177144 126.258389,150.167785 L123.741611,150.167785 C123.216678,150.167805 122.78984,149.744711 122.785235,149.219799 L122.785235,125.545302 C122.794424,125.020392 123.225031,124.601019 123.75,124.605705 L126.266779,124.605705 C126.51604,124.594328 126.759591,124.682566 126.943722,124.850959 C127.127853,125.019353 127.237442,125.254072 127.248322,125.503356 L127.248322,125.511745 Z" id="Shape" fill="#004D43"></path>
            <path d="M88.9261745,117.105705 C86.5100671,116.904362 84.102349,116.677852 81.6862416,116.426174 L77.4328859,129.488255 L77.4328859,129.488255 C77.1057047,130.486577 76.3842282,130.385906 76.3842282,130.385906 L76.3842282,115.855705 C73.4591723,115.520134 70.5369128,115.153803 67.6174497,114.756711 C68.7396521,116.317884 69.3837987,118.171628 69.4714765,120.092282 L69.4714765,152.449664 C71.7701342,152.751678 74.0743848,153.03132 76.3842282,153.288591 L76.3842282,136.963087 C76.8583738,137.090937 77.2091421,137.491342 77.2734899,137.978188 L80.9731544,153.800336 C83.3724832,154.052013 85.7802013,154.278523 88.1795302,154.488255 C86.4569351,147.994966 84.73434,141.487696 83.011745,134.966443 C82.8483767,134.366925 82.8717901,133.731835 83.0788591,133.145973 C85.0419463,127.810403 86.9910515,122.463647 88.9261745,117.105705 Z" id="Path" fill="#004D43"></path>
            <path d="M186.552013,114.09396 L186.552013,114.09396 L186.552013,151.535235 C188.934564,151.182886 191.317114,150.813758 193.699664,150.427852 L193.699664,118.104027 C193.792453,116.167587 194.432416,114.297149 195.545302,112.709732 C192.553132,113.213087 189.555369,113.674497 186.552013,114.09396 Z" id="Path" fill="#004D43"></path>
            <path d="M206.233221,141.13255 L206.233221,115.847315 C206.33318,113.896698 206.97206,112.012 208.078859,110.402685 C205.092282,111.001119 202.105705,111.560403 199.119128,112.080537 L199.119128,149.521812 C203.364094,148.766779 207.600671,147.950224 211.828859,147.072148 C212.612174,146.880998 213.177887,146.199416 213.221477,145.394295 L213.221477,140.662752 C211.208054,141.087808 209.194631,141.501678 207.181208,141.904362 C206.947817,141.962725 206.70057,141.907659 206.514006,141.755767 C206.327443,141.603874 206.223391,141.372927 206.233221,141.13255 L206.233221,141.13255 Z" id="Path" fill="#004D43"></path>
            <path d="M10.9060403,108.154362 L10.9060403,133.624161 C10.9213668,133.857872 10.8167319,134.083323 10.6283483,134.22249 C10.4399647,134.361656 10.1937185,134.395414 9.97483221,134.312081 L7.75167785,133.674497 C7.21764409,133.50335 6.8462894,133.018247 6.8204698,132.458054 L6.8204698,127.15604 C6.80829653,125.457073 7.45825148,123.82015 8.63255034,122.592282 L6.8204698,122.072148 C4.58333333,121.417785 2.31823266,120.741051 0.0251677852,120.041946 L0.0251677852,135.90604 C2.74383421,137.82459 5.76344844,139.276273 8.95973154,140.201342 C11.8687317,141.063772 14.9220697,141.329155 17.9362416,140.981544 L17.9362416,104.958054 C14.9832215,104.186242 12.0357942,103.386465 9.09395973,102.558725 C10.1724047,104.235524 10.7968187,106.163692 10.9060403,108.154362 L10.9060403,108.154362 Z" id="Path" fill="#004D43"></path>
            <path d="M112.718121,76.3422819 C113.909396,75.6124161 115.067114,74.9580537 116.191275,74.3372483 L116.191275,0.838926174 L86.409396,0.838926174 C86.409396,0.838926174 91.442953,5.77181208 91.442953,18.5989933 L91.442953,65.2265101 C91.4429617,66.4510556 90.4527247,67.4450435 89.2281879,67.4496644 L81.7197987,67.4496644 C80.4952619,67.4450435 79.5050248,66.4510556 79.5050336,65.2265101 L79.5050336,63.2885906 C79.5050336,49.9748322 84.9832215,45.0419463 84.9832215,45.0419463 L56.4597315,45.0419463 L56.4597315,85.0838926 C74.4295302,93.8674497 94.8489933,87.2483221 112.718121,76.3422819 Z" id="Path" fill="#004D43"></path>
            <path d="M162.751678,0.838926174 L162.751678,65.2265101 C162.751687,66.4510556 161.76145,67.4450435 160.536913,67.4496644 L153.062081,67.4496644 C151.837544,67.4450435 150.847307,66.4510556 150.847315,65.2265101 L150.847315,0.838926174 L126.065436,0.838926174 L126.065436,70.5704698 C139.488255,65.4362416 145.964765,68.8926174 146.015101,68.8926174 L146.015101,68.8926174 L146.015101,68.8926174 C140.738255,71.3422819 136.979866,74.9580537 136.979866,78.5486577 C136.979866,85.2600671 148.724832,90.2936242 163.17953,89.6979866 C174.295302,89.2449664 183.783557,85.6208054 187.583893,80.9060403 L187.583893,17.147651 C187.583893,5.72986577 192.61745,0.796979866 192.61745,0.796979866 L162.751678,0.838926174 Z" id="Path" fill="#004D43"></path>
            <path d="M112.718121,76.3422819 C113.909396,75.6124161 115.067114,74.9580537 116.199664,74.3372483 L116.057047,74.3372483 C113.572911,74.9054418 111.122266,75.6112277 108.716443,76.4513423 C88.4060403,83.4563758 69.5302013,82.1979866 56.4513423,74.840604 L56.4513423,85.033557 C74.4295302,93.8674497 94.8489933,87.2483221 112.718121,76.3422819 Z" id="Path" fill="#C6B784"></path>
            <path d="M162.751678,82.852349 C149.328859,84.1107383 139.052013,80.6208054 139.857383,75.0587248 C140.199711,73.4594471 141.068089,72.0210117 142.323826,70.9731544 C139.052013,73.4312081 136.937919,75.897651 136.937919,78.5822148 C136.937919,85.2936242 148.682886,90.3271812 163.137584,89.7315436 C174.253356,89.2785235 183.741611,85.6543624 187.541946,80.9395973 L187.541946,72.8775168 C184.362416,77.5587248 174.270134,81.7785235 162.751678,82.852349 Z" id="Path" fill="#C6B784"></path>
            <path d="M122.298658,108.884228 C153.078859,108.884228 181.770134,105.67953 205.931208,100.142617 L38.6661074,100.142617 C62.8271812,105.704698 91.5184564,108.884228 122.298658,108.884228 Z" id="Path" fill="#C6B784"></path>
            <path d="M195.847315,77.3573826 L194.899329,77.3573826 L194.899329,79.9496644 L194.010067,79.9496644 L194.010067,77.3573826 L193.062081,77.3573826 L193.062081,76.635906 L195.847315,76.635906 L195.847315,77.3573826 Z M200.587248,79.9496644 L199.66443,79.9496644 L199.66443,77.3573826 L199.563758,77.3573826 L198.724832,79.1778523 L198.104027,79.1778523 L197.265101,77.3238255 L197.139262,77.3238255 L197.139262,79.9496644 L196.300336,79.9496644 L196.300336,76.5939597 L197.743289,76.5939597 L198.41443,78.2130872 L199.110738,76.5939597 L200.511745,76.5939597 L200.587248,79.9496644 Z" id="Shape" fill="#C6B784"></path>
        </g>
    </g>
</svg>