<?xml version="1.0" encoding="UTF-8" standalone="no"?>
<svg width="250px" height="250px" viewBox="0 0 250 250" version="1.1" xmlns="http://www.w3.org/2000/svg" xmlns:xlink="http://www.w3.org/1999/xlink">
    <!-- Generator: Sketch 47.1 (45422) - http://www.bohemiancoding.com/sketch -->
    <title>PEPPER</title>
    <desc>Created with Sketch.</desc>
    <defs></defs>
    <g id="Page-1" stroke="none" stroke-width="1" fill="none" fill-rule="evenodd">
        <g id="PEPPER" fill-rule="nonzero">
            <g id="Group" transform="translate(8.000000, 0.000000)">
                <path d="M228.204257,95.0886663 C228.204257,44.6312435 147.280184,5.4197017 77.6686623,5.4197017 C59.9217843,5.43988314 42.2358692,7.49475188 24.9581451,11.5439646 C28.9188942,11.3542751 32.9339001,11.245881 36.7047503,11.245881 C88.7099287,11.245881 185.042943,45.6609868 185.042943,100.670959 C185.042943,138.44628 136.049019,154.461498 122.213526,158.228191 L122.213526,52.760796 C107.374281,41.3794225 87.3806361,37.9921089 77.8314328,36.9894641 L77.8314328,208.306235 C77.8314328,229.443071 72.4057491,238.764958 66.3289834,244.320153 L133.715975,244.320153 C127.530696,238.900451 122.213526,229.443071 122.213526,208.306235 L122.213526,161.209027 C147.334441,160.152185 228.204257,145.681582 228.204257,95.0886663" id="Shape" fill="#001641"></path>
                <path d="M77.6686623,0 C31.2790666,0 0,13.3866632 0,13.3866632 L1.166522,18.6708724 C1.166522,18.6708724 21.2144233,16.7468783 36.7047503,16.7468783 C96.3872711,16.7468783 179.590131,54.6847901 179.590131,100.562565 C179.590131,129.666363 145.272681,144.841528 127.666338,150.721904 L127.666338,50.1322407 C105.773704,31.6781564 72.3786207,31.1632848 72.3786207,31.1632848 L72.3786207,208.306235 C72.3786207,236.705472 62.0969501,240.824445 56.9154221,244.401448 L56.9154221,249.82115 L143.129536,249.82115 L143.129536,244.401448 C137.948008,240.824445 127.666338,236.705472 127.666338,208.306235 L127.666338,166.330645 C163.47585,163.620794 233.657069,145.085414 233.657069,95.0886663 C233.657069,41.5420135 151.213805,0 77.6686623,0 M122.213526,161.209027 L122.213526,208.306235 C122.213526,229.443071 127.639209,238.764958 133.715975,244.320153 L66.3289834,244.320153 C72.5142628,238.900451 77.8314328,229.443071 77.8314328,208.306235 L77.8314328,36.9894641 C87.3806361,37.9921089 107.374281,41.3794225 122.213526,52.760796 L122.213526,158.119797 C136.049019,154.353104 185.042943,138.337886 185.042943,100.562565 C185.042943,45.6609868 88.7099287,11.137487 36.7047503,11.137487 C32.9339001,11.137487 28.9188942,11.137487 24.9581451,11.4355706 C42.2401026,7.42284198 59.9259631,5.40434883 77.6686623,5.4197017 C147.280184,5.4197017 228.204257,44.6312435 228.204257,95.0886663 C228.204257,145.546089 147.334441,160.125087 122.213526,161.209027" id="Shape" fill="#F48022"></path>
            </g>
        </g>
    </g>
</svg>