<?xml version="1.0" encoding="UTF-8"?>
<svg width="500px" height="500px" viewBox="0 0 500 500" version="1.1" xmlns="http://www.w3.org/2000/svg" xmlns:xlink="http://www.w3.org/1999/xlink">
    <!-- Generator: Sketch 59.1 (86144) - https://sketch.com -->
    <title>Team Logos / NCAA / Dark / STETSON</title>
    <desc>Created with Sketch.</desc>
    <g id="Team-Logos-/-NCAA-/-Dark-/-STETSON" stroke="none" stroke-width="1" fill="none" fill-rule="evenodd">
        <g id="1Asset-1" transform="translate(18.000000, 0.000000)" fill-rule="nonzero">
            <path d="M338.150289,455.751445 L333.757225,455.751445 L333.757225,467.774566 L329.479769,467.774566 L329.479769,455.751445 L325.144509,455.751445 L325.144509,452.427746 L338.150289,452.427746 L338.150289,455.751445 Z M360.057803,467.774566 L355.953757,467.774566 L355.953757,455.780347 L355.491329,455.780347 L351.705202,464.16185 L348.815029,464.16185 L345,455.491329 L344.450867,455.491329 L344.450867,467.65896 L340.549133,467.65896 L340.549133,452.312139 L347.225434,452.312139 L350.317919,459.797688 L353.554913,452.312139 L360.028902,452.312139 L360.057803,467.774566 Z" id="Shape" fill="#095540"></path>
            <path d="M464.566474,290.375723 C405.809249,297.65896 364.190751,276.734104 345.751445,267.254335 L343.930636,213.872832 C364.16185,221.358382 387.890173,227.543353 387.890173,227.543353 L444.046243,0 C444.046243,0 411.647399,36.1849711 320.057803,36.1849711 L218.150289,36.1849711 C164.296145,36.1908473 117.25698,72.6051981 103.757225,124.739884 L92.9190751,166.531792 C27.4566474,169.046243 0,215.260116 0,215.260116 C0,215.260116 60.6936416,205.606936 152.890173,253.641618 C186.069364,270.982659 215.982659,286.618497 242.65896,298.843931 L227.543353,358.959538 L177.861272,358.959538 L191.127168,306.098266 C121.387283,265.606936 71.416185,255.83815 71.416185,255.83815 L9.85549133,499.306358 C9.85549133,499.306358 42.2543353,463.121387 133.843931,463.121387 L241.416185,463.121387 C295.759088,463.123317 343.15958,426.21261 356.473988,373.526012 L366.300578,334.33526 C442.196532,338.728324 457.485549,302.716763 464.566474,290.375723 Z" id="Path" fill="#FFFFFF"></path>
            <path d="M419.075145,34.6820809 C419.075145,34.6820809 394.219653,51.6473988 320.17341,51.6473988 L218.612717,51.6473988 C171.25458,51.7007326 129.99551,83.9433142 118.49711,129.884393 L109.306358,165.086705 C125.18993,165.172708 141.005965,167.161842 156.416185,171.011561 L183.959538,118.988439 C191.416185,102.080925 209.393064,93.5549133 224.739884,100.202312 C237.138728,105.578035 252.601156,115.317919 272.919075,133.092486 C281.575212,140.817218 292.110576,146.129752 303.468208,148.49711 C298.583815,140.606936 282.803468,125.375723 273.786127,115.520231 L319.190751,135.751445 C330.606936,142.225434 336.156069,149.913295 336.820809,161.763006 L339.248555,195.17341 C351.117012,200.022066 363.234215,204.238004 375.549133,207.803468 L419.075145,34.6820809 Z" id="Path" fill="#095540"></path>
            <path d="M329.797688,260.578035 L329.104046,238.294798 C273.063584,200.722543 220.17341,183.381503 185.549133,181.676301 C210.112706,191.259277 233.564007,203.479149 255.491329,218.121387 C279.283874,233.917629 304.108281,248.101625 329.797688,260.578035 L329.797688,260.578035 Z" id="Path" fill="#4A8B2C"></path>
            <path d="M426.791908,306.358382 C392.543353,307.196532 340.83815,291.907514 250.83815,233.034682 C125.144509,150.66474 60.0867052,188.757225 42.7456647,201.965318 C65.867052,201.676301 112.109827,211.791908 224.653179,272.225434 C237.456647,279.075145 249.479769,284.971098 260.83815,290.115607 L245.346821,351.763006 C241.983208,365.145533 229.954832,374.530048 216.156069,374.537572 L157.976879,374.537572 L173.208092,313.843931 C144.557161,297.544367 114.138499,284.570133 82.5433526,275.17341 L34.9421965,464.566474 C34.9421965,464.566474 59.7976879,447.601156 133.843931,447.601156 L241.213873,447.601156 C288.605517,447.610375 329.93089,415.386353 341.473988,369.421965 L354.364162,318.121387 C389.364162,321.820809 411.878613,314.277457 426.791908,306.358382 Z" id="Path" fill="#095540"></path>
        </g>
    </g>
</svg>