<?xml version="1.0" encoding="UTF-8" standalone="no"?>
<svg width="250px" height="250px" viewBox="0 0 250 250" version="1.1" xmlns="http://www.w3.org/2000/svg" xmlns:xlink="http://www.w3.org/1999/xlink">
    <!-- Generator: Sketch 47.1 (45422) - http://www.bohemiancoding.com/sketch -->
    <title>GONZAG</title>
    <desc>Created with Sketch.</desc>
    <defs></defs>
    <g id="Page-1" stroke="none" stroke-width="1" fill="none" fill-rule="evenodd">
        <g id="GONZAG" fill-rule="nonzero">
            <g id="Group" transform="translate(125.000000, 125.500000) scale(-1, 1) rotate(-180.000000) translate(-125.000000, -125.500000) translate(0.000000, 26.000000)">
                <g id="Shape">
                    <path d="M39.4387755,167.912628 C35.3125,169.600301 31.432398,172.151583 30.0216837,173.373647 C28.6109694,174.596987 25.4132653,178.735167 24.6607143,181.462487 C23.9081633,184.191083 25.7895408,186.165776 25.7895408,186.165776 C25.7895408,186.165776 26.2602041,187.765429 34.630102,186.824006 C43.0012755,185.883859 46.2920918,188.141744 48.1734694,191.71609 C50.0548469,195.290436 52.6875,199.239821 55.9795918,198.957904 C59.2716837,198.675987 66.0433673,198.112154 70.6517857,195.477955 C75.2602041,192.843756 78.2691327,189.458205 79.3035714,187.952949 C80.3380102,186.447692 84.5714286,178.45325 88.1454082,178.171333 C91.7181122,177.888141 97.6441327,178.45325 100.276786,178.640769 C102.910714,178.829564 114.94898,179.205878 123.225765,176.571679 C131.502551,173.938756 129.869898,174.197712 130.591837,175.009019 C131.313776,175.819051 132.348214,181.180571 134.229592,182.780224 C136.110969,184.378603 139.590561,187.294718 145.233418,186.918404 C150.876276,186.54209 154.450255,185.695064 159.623724,180.427942 C164.795918,175.160821 166.864796,169.046673 174.765306,165.566724 C174.765306,165.566724 179.549745,163.034577 180.543367,161.526769 C181.53699,160.017686 181.631378,157.948596 179.091837,156.537737 C176.552296,155.126878 175.047194,154.37425 175.047194,154.37425 C175.047194,154.37425 175.423469,151.176218 179.373724,150.140397 C183.32398,149.105853 190.471939,146.754846 194.985969,143.933128 C199.5,141.11141 204.015306,136.784436 204.202806,131.235397 C204.391582,125.685083 200.159439,121.734423 192.446429,121.828821 C192.446429,121.828821 199.123724,116.843615 200.723214,115.245237 C202.321429,113.645583 203.450255,114.398212 203.450255,114.398212 C203.450255,114.398212 211.539541,117.03241 216.617347,111.85841 C221.696429,106.685686 221.696429,101.04225 222.167092,93.7047628 C222.167092,93.7047628 226.043367,98.7563013 223.352041,110.433519 C223.352041,110.433519 230.631378,109.13109 234.674745,100.571538 C234.674745,100.571538 237.122449,94.0734231 237.826531,88.1518974 C237.826531,88.1518974 242.575255,87.8738077 245.396684,84.9576923 C248.218112,82.0415769 248.783163,78.3728333 248.877551,74.9872821 C248.970663,71.6004551 249.159439,69.5313654 249.159439,69.1550513 C249.159439,68.7787372 247.090561,61.8188397 235.803571,58.1500962 C235.803571,58.1500962 234.674745,57.3043462 234.299745,55.7046923 C233.923469,54.1063141 232.982143,45.8286795 225.081633,40.4671603 C217.182398,35.105641 211.068878,36.3289808 211.068878,36.3289808 C211.068878,36.3289808 206.554847,36.7040192 204.202806,36.1401859 C201.852041,35.5763526 192.258929,33.9766987 186.332908,35.105641 C186.332908,35.105641 181.442602,28.8039744 164.701531,26.6404872 C164.701531,26.6404872 149.278061,24.9477115 147.207908,23.5368526 C145.139031,22.1259936 141.774235,18.7340641 135.274235,16.1968141 C135.274235,16.1968141 137.897959,1.99637821 133.758929,0.679916667 C129.621173,-0.637820513 119.557398,12.1555833 119.557398,12.1555833 C119.557398,12.1555833 102.158163,10.7447244 91.625,13.0013333 C81.0905612,15.2592179 76.7130102,17.8053974 76.7130102,17.8053974 C76.7130102,17.8053974 69.4285714,9.23946795 65.8545918,9.99209615 C65.8545918,9.99209615 64.6326531,9.99209615 64.3494898,12.1555833 C64.067602,14.3177949 63.5038265,21.8428013 63.5038265,21.8428013 C63.5038265,21.8428013 47.3265306,27.9569487 37.5459184,38.7743846 C37.5459184,38.7743846 30.0880102,47.2114744 26.9987245,54.327 C26.9987245,54.327 15.6326531,54.1994359 15.4438776,57.0211538 C15.2563776,59.8428718 21.5089286,63.5970833 21.5089286,63.5970833 C21.5089286,63.5970833 16.2908163,72.3530833 13.2806122,85.7103205 C13.2806122,85.7103205 11.4936224,99.2550769 11.5880102,101.418564 C11.682398,103.580776 10.1772959,104.145885 10.1772959,104.145885 C10.1772959,104.145885 -0.450255102,108.189667 0.207908163,110.353154 C0.866071429,112.516641 11.4834184,117.388314 11.4834184,117.388314 C11.4834184,117.388314 13.5216837,139.905929 25.7691327,154.335981 C25.7691327,154.335981 16.9489796,163.592032 18.8303571,166.224955 C20.7104592,168.859154 31.9030612,164.532179 31.9030612,164.532179 C31.9030612,164.532179 33.0318878,163.592032 34.9119898,164.719699 C36.7933673,165.848641 39.4387755,167.912628 39.4387755,167.912628" fill="#002967"></path>
                    <path d="M54.7576531,165.756795 C48.7385204,164.675051 42.2959184,166.696942 42.2959184,166.696942 L37.7372449,162.85216 C37.7372449,162.85216 41.4961735,161.195103 42.3431122,160.677192 C43.190051,160.160558 44.119898,158.900224 44.5484694,157.743218 C44.5484694,157.743218 49.7334184,164.945487 54.8520408,165.286083 C55.557398,165.333282 54.7576531,165.756795 54.7576531,165.756795 L54.7576531,165.756795 Z M29.8660714,128.948173 L39.1556122,144.970224 C31.5790816,144.311994 27.9923469,151.261686 27.9923469,151.261686 C16.7142857,137.959301 14.747449,117.862853 14.747449,117.862853 C26.2767857,120.949904 28.6122449,118.100122 28.6122449,118.100122 C26.9808673,122.990929 29.8660714,128.948173 29.8660714,128.948173 Z M24.1913265,65.8651731 L34.1135204,73.3429808 C34.1135204,73.3429808 36.934949,75.1301538 39.8979592,73.8136923 C39.8979592,73.8136923 33.8227041,84.1808269 32.5803571,90.5194872 C31.3392857,96.8581474 30.4540816,100.97209 30.0739796,102.677622 C30.0739796,102.677622 26.8711735,101.043526 23.6734694,101.137923 C20.4757653,101.231045 14.7397959,103.018218 14.7397959,103.018218 C14.7397959,103.018218 15.3035714,87.4987692 18.7359694,78.6101026 C22.1696429,69.7214359 24.1913265,65.8651731 24.1913265,65.8651731 L24.1913265,65.8651731 Z M45.872449,59.2484231 C45.3482143,57.1321346 44.6466837,56.5057949 40.7908163,55.47125 C36.934949,54.4367051 30.1632653,54.6714231 30.1632653,54.6714231 C30.1632653,54.6714231 32.8915816,47.5227308 41.5688776,39.2374423 C50.244898,30.9521538 63.7053571,24.8086667 63.7053571,24.8086667 C63.7053571,24.8086667 64.5382653,29.4634808 65.2908163,32.0032821 C66.0433673,34.5430833 66.9846939,34.9665962 66.9846939,34.9665962 C66.9846939,34.9665962 62.5165816,34.6374808 59.4132653,36.7065705 C56.309949,38.7756603 51.9362245,45.8299551 51.9362245,45.8299551 C51.9362245,45.8299551 48.6913265,51.7093846 47.8443878,54.7658205 C46.9987245,57.8235321 45.9693878,59.6400449 45.872449,59.2484231 L45.872449,59.2484231 Z M79.3520408,20.4344936 C81.1390306,19.4930705 88.380102,16.4366346 97.5982143,15.589609 C106.815051,14.743859 117.867347,15.2528397 117.867347,15.2528397 C117.867347,15.2528397 116.971939,17.1420641 116.830357,19.5874679 C116.690051,22.0328718 118.813776,22.8696923 118.813776,22.8696923 C102.503827,20.130891 95.622449,21.374641 89.6505102,22.4563846 C83.6785714,23.5381282 81.4451531,27.032109 81.4451531,27.032109 C81.4451531,27.032109 81.1390306,25.1837051 80.6683673,24.2907564 C80.1977041,23.3965321 79.7410714,22.4576603 78.5114796,20.7878462 L79.3520408,20.4344936 L79.3520408,20.4344936 Z M141.001276,23.5381282 C138.149235,20.8439744 134.093112,19.0848654 134.093112,19.0848654 C134.093112,19.0848654 133.71301,20.8108077 133.571429,21.3274423 C133.431122,21.8453526 132.910714,22.4436282 132.910714,22.4436282 C133.330357,22.8071859 134.13648,22.9742949 134.13648,22.9742949 L141.566327,24.2882051 C141.566327,24.2882051 141.848214,24.3379551 141.001276,23.5381282 L141.001276,23.5381282 Z" fill="#B31934"></path>
                    <path d="M223.303571,81.9089103 C223.303571,81.9089103 228.372449,81.1971026 230.817602,83.548109 C233.262755,85.8991154 234.015306,87.6862885 233.733418,90.6024038 C233.451531,93.5185192 232.417092,97.0928654 231.475765,99.1619551 C230.535714,101.231045 228.350765,103.659865 227.797194,103.291205 C227.243622,102.925096 227.75,101.116237 227.75,101.116237 C227.75,101.116237 228.278061,96.8109487 227.52551,95.3056923 C226.774235,93.8004359 223.858418,88.2513974 223.576531,85.6171987 C223.293367,82.9842756 223.303571,81.9089103 223.303571,81.9089103 L223.303571,81.9089103 Z M211.255102,81.6665385 C211.255102,81.6665385 214.265306,81.1027051 215.67602,80.6319936 C217.086735,80.1625577 217.46301,79.2211346 219.061224,80.9139103 C220.660714,82.6079615 220.190051,86.2754295 219.4375,87.7806859 C218.684949,89.2859423 215.205357,89.2859423 215.205357,89.2859423 C215.205357,89.2859423 211.53699,89.0040256 209.186224,88.3457949 C206.835459,87.6862885 207.315051,82.0505064 207.315051,82.0505064 L211.255102,81.6665385 L211.255102,81.6665385 Z M198.091837,83.4702949 C199.321429,83.5174936 203.247449,82.6181667 203.247449,82.6181667 C203.891582,83.1947564 204.014031,86.0879103 204.014031,87.2168526 C204.014031,88.3457949 203.767857,88.9581026 203.767857,88.9581026 C203.767857,88.9581026 202.414541,88.3457949 201.756378,88.157 C201.098214,87.9694808 200.063776,88.3457949 199.216837,88.4389167 C198.369898,88.5333141 195.266582,87.7806859 193.950255,87.3099744 C192.633929,86.8405385 192.727041,86.746141 191.97449,85.4296795 C191.223214,84.1119423 190.1875,82.7954808 190.1875,82.7954808 C190.1875,82.7954808 196.860969,83.4230962 198.091837,83.4702949 L198.091837,83.4702949 Z M176.456633,86.9349359 C176.456633,86.9349359 173.729592,87.0280577 173.258929,85.0533654 C172.788265,83.0773974 173.734694,81.9663141 173.966837,82.2405769 C174.19898,82.5135641 174.512755,82.8796731 175.422194,82.7010833 C176.331633,82.5237692 183.133929,82.4191667 183.133929,82.4191667 C183.133929,82.4191667 188.38648,82.6487821 188.346939,84.22675 C188.307398,85.8059936 187.258929,86.3557949 187.258929,86.3557949 C187.258929,86.3557949 185.485969,85.9935128 184.920918,85.9935128 C184.920918,85.9935128 181.91199,85.5228013 180.970663,85.5228013 C180.030612,85.5228013 178.431122,86.4642244 178.431122,86.4642244 C178.431122,86.4642244 177.303571,87.0280577 176.456633,86.9349359 Z M162.34949,100.572814 C162.34949,100.572814 161.315051,101.983673 161.220663,100.761609 C161.126276,99.5382692 160.280612,90.9787179 159.997449,89.9441731 C159.715561,88.9096282 158.399235,85.3352821 158.399235,85.3352821 C158.399235,85.3352821 157.270408,82.4191667 158.493622,82.4191667 C158.493622,82.4191667 161.545918,82.5429038 163.854592,83.1717949 C166.16199,83.8019615 167.97449,84.4589167 168.274235,85.1477628 C168.57398,85.8353333 168.83801,86.3698269 168.179847,88.4389167 C167.521684,90.5080064 163.478316,98.9744359 162.34949,100.572814 L162.34949,100.572814 Z M181.346939,113.835654 C181.346939,113.835654 179.59949,113.779526 179.595663,113.368769 C179.591837,112.958013 181.598214,112.581699 182.600765,112.581699 C183.604592,112.581699 187.492347,112.330397 188.494898,111.076442 C189.497449,109.822487 190.125,108.818558 190.125,108.192218 C190.125,107.564603 190.271684,105.411321 191.326531,105.610321 C192.382653,105.809321 193.177296,107.706199 193.219388,108.827487 C193.260204,109.9475 191.380102,112.080372 189.623724,112.833 C187.868622,113.584353 186.989796,113.835654 181.346939,113.835654 L181.346939,113.835654 Z M70.744898,31.4381731 C70.744898,31.4381731 70.1173469,31.3131603 69.6160714,29.9966987 C69.1147959,28.6789615 67.7346939,22.1578846 68.2997449,20.8414231 C68.2997449,20.8414231 68.4872449,20.7164103 68.8010204,21.9703654 C69.1147959,23.2243205 70.1811224,25.6697244 70.1811224,25.6697244 C70.1811224,25.6697244 71.1836735,28.2414167 71.559949,28.5539487 C71.9362245,28.8677564 72.0612245,29.1815641 71.9362245,29.9966987 C71.8112245,30.8118333 71.497449,31.1881474 70.744898,31.4381731 L70.744898,31.4381731 Z M77.5790816,31.0631346 C77.5790816,31.0631346 78.7066327,30.3730128 79.0204082,29.3065769 C79.3341837,28.240141 76.1989796,23.2243205 74.255102,20.8414231 C72.3112245,18.4585256 67.6772959,14.1647179 67.6772959,14.1647179 C67.6772959,14.1647179 66.7308673,20.3400962 66.6058673,22.8480064 C66.4808673,25.3571923 67.3584184,30.3730128 68.4247449,32.5671154 C69.4897959,34.7624936 71.2461735,34.6999872 71.2461735,34.6999872 C74.3813776,34.4486859 77.5790816,31.0631346 77.5790816,31.0631346 L77.5790816,31.0631346 Z M119.90051,85.303391 C118.835459,87.0586731 118.020408,88.8152308 117.155612,89.0996987 C116.292092,89.3841667 115.637755,88.125109 114.446429,86.4948397 C113.253827,84.8645705 112.126276,83.9231474 112.126276,83.9231474 C112.126276,83.9231474 111.311224,82.983 111.385204,85.552141 C111.459184,88.1200064 114.320153,92.3895769 114.320153,92.3895769 C114.320153,92.3895769 116.076531,95.0225 117.016582,95.3363077 C117.957908,95.6501154 119.58801,92.3895769 119.58801,92.3895769 L123.47449,85.6797051 C123.47449,85.6797051 124.478316,83.9869295 125.230867,83.860641 C125.983418,83.7356282 130.497449,90.4455 130.497449,90.4455 C130.497449,90.4455 132.880102,93.8310513 135.639031,94.0823526 C138.397959,94.3323782 139.46301,87.9375897 140.028061,86.3073205 C140.591837,84.6770513 140.591837,84.3632436 141.971939,83.860641 C143.350765,83.3593141 145.733418,87.1211795 145.733418,87.1211795 L150.748724,92.7033846 C150.748724,92.7033846 142.159439,96.7152756 140.529337,98.2830385 C140.529337,98.2830385 138.647959,99.7882949 138.397959,99.9770897 C138.146684,100.164609 137.582908,100.603429 136.955357,100.289622 C136.327806,99.9770897 135.01148,97.1540962 132.691327,97.2803846 C130.372449,97.4053974 129.029337,101.020564 129.029337,101.020564 C129.029337,101.020564 127.487245,104.930404 126.108418,104.805391 C124.729592,104.679103 122.596939,102.547506 121.593112,100.792224 C120.590561,99.0356667 120.465561,98.0955192 119.274235,98.1580256 C118.082908,98.2205321 117.205357,99.8508013 117.205357,99.8508013 C117.205357,99.8508013 115.593112,102.486276 113.702806,102.108686 C111.8125,101.732372 109.994898,93.2672179 109.994898,93.2672179 C109.994898,93.2672179 108.552296,80.2237885 110.433673,75.1454615 C112.313776,70.065859 116.515306,69.5632564 119.83801,71.1310192 C123.16199,72.6987821 124.121173,74.8520641 124.48852,74.3392564 C124.854592,73.8277244 126.984694,67.5400897 130.684949,68.5210577 C130.684949,68.5210577 131.5625,68.4355897 133.506378,69.8145577 C135.450255,71.1948013 143.163265,77.0257564 146.297194,78.5935192 C149.432398,80.1612821 154.545918,81.3144615 155.093112,82.7125641 C155.640306,84.1119423 157.316327,89.667359 157.316327,89.667359 C157.316327,89.667359 154.44898,91.5119359 153.257653,90.4455 C152.066327,89.3790641 146.737245,83.1092885 146.737245,83.1092885 C146.737245,83.1092885 143.005102,79.1139808 141.422194,79.5438718 C139.839286,79.9724872 139.40051,81.5415256 139.40051,81.5415256 C139.40051,81.5415256 135.575255,88.4389167 134.196429,87.8738077 C132.817602,87.3099744 129.807398,82.0428526 129.807398,82.0428526 C129.807398,82.0428526 127.77551,78.6828141 125.433673,78.5973462 C123.818878,78.5386667 120.966837,83.5468333 119.90051,85.303391 L119.90051,85.303391 Z M132.15051,123.018994 C133.114796,122.985827 135.889031,124.118596 135.826531,126.501494 C135.764031,128.884391 133.506378,128.946897 133.506378,128.946897 C133.506378,128.946897 130.07398,128.639468 129.682398,125.372551 C129.493622,123.804788 131.1875,123.05216 132.15051,123.018994 Z M125.669643,128.320558 C126.045918,129.448224 127.110969,131.142276 127.73852,131.392301 C128.364796,131.643603 128.508929,132.008436 128.508929,132.008436 C128.508929,132.008436 129.179847,132.58375 126.484694,134.527827 C123.788265,136.471904 113.818878,142.429147 113.818878,142.429147 C113.818878,142.429147 113.003827,142.867968 112.251276,143.306788 C111.498724,143.745609 110.897959,143.647385 110.621173,143.244282 C110.344388,142.841179 107.674745,140.04625 107.98852,135.594263 C108.30102,131.142276 108.614796,132.332449 108.05102,130.013333 C107.485969,127.692942 110.119898,127.441641 111.059949,127.504147 C112,127.567929 115.762755,128.634365 117.831633,128.00675 C119.90051,127.379135 122.872449,126.539763 124.866071,123.918321 C124.866071,123.918321 125.293367,127.191615 125.669643,128.320558 L125.669643,128.320558 Z M29.2206633,159.877365 C29.2206633,159.877365 29.2206633,159.455128 29.9260204,158.842821 C30.6313776,158.231788 34.7066327,154.904917 34.7066327,154.904917 C34.7066327,154.904917 36.3137755,154.153564 36.6938776,154.00559 C37.0739796,153.857615 37.5918367,153.481301 37.9209184,153.340981 C38.25,153.199385 38.6262755,152.823071 38.6262755,153.388179 C38.6262755,153.952013 37.684949,155.175353 37.1683673,155.410071 C36.6505102,155.644788 30.0204082,160.536872 29.2206633,159.877365 L29.2206633,159.877365 Z M39.5663265,157.761077 C42.8584184,156.068301 42.0114796,153.246583 42.0114796,153.246583 C42.0114796,153.246583 41.5420918,148.543295 38.4438776,148.281788 C35.3469388,148.019006 33.0765306,150.519263 33.0765306,150.519263 C33.0765306,150.519263 26.5880102,158.513705 24.9630102,160.675917 C23.3380102,162.838128 23.9540816,162.935077 23.9540816,162.935077 C24.7066327,163.734904 36.2742347,159.455128 39.5663265,157.761077 L39.5663265,157.761077 Z M14.0790816,110.966737 C14.0790816,110.966737 12.7538265,111.035622 12.6173469,110.719263 C12.4795918,110.402904 13.7053571,110.340397 13.7053571,110.340397 C13.7053571,110.340397 15.630102,109.979391 16.5714286,109.790596 C17.5114796,109.603077 20.9910714,109.32116 20.9910714,109.32116 C20.9910714,109.32116 25.2716837,108.905301 25.3890306,109.442346 C25.5063776,109.979391 23.3903061,110.496026 23.3903061,110.496026 C23.3903061,110.496026 18.4056122,111.108333 14.0790816,110.966737 L14.0790816,110.966737 Z M13.7971939,107.863103 C13.1377551,108.145019 8.43622449,109.743397 7.40178571,109.932192 C6.36607143,110.119712 6.3252551,110.672064 6.3252551,110.672064 C6.51913265,111.506333 11.1632653,113.130224 13.9375,114.070372 C16.7117347,115.011795 21.6492347,116.18666 24.2359694,116.18666 C26.8227041,116.18666 27.3864796,115.717224 28.2806122,114.023173 C29.1734694,112.330397 28.6096939,107.863103 27.5752551,106.452244 C26.5408163,105.041385 23.7665816,105.134506 23.7665816,105.134506 C20.5216837,104.899788 14.4553571,107.57991 13.7971939,107.863103 Z M36.8864796,66.099891 C36.8864796,66.099891 36.0867347,66.099891 33.5943878,65.0181474 C31.1020408,63.9364038 27.4808673,61.9145128 27.4808673,61.9145128 C27.4808673,61.9145128 27.2461735,61.6797949 27.3864796,61.491 C27.5280612,61.3034808 27.9043367,61.5381987 27.9043367,61.5381987 C27.9043367,61.5381987 30.067602,62.2908269 30.4910714,62.3380256 C30.9132653,62.3852244 33.1709184,62.9962564 34.065051,63.3725705 C34.9579082,63.7488846 36.3609694,64.7859808 36.6938776,64.9250256 C37.0267857,65.0653462 37.9744898,65.1699487 37.9234694,65.6827564 C37.8737245,66.1942885 36.8864796,66.099891 36.8864796,66.099891 L36.8864796,66.099891 Z M42.0114796,67.0872372 C42.0114796,67.0872372 43.6109694,62.8546603 42.9068878,60.3403718 C42.2028061,57.8260833 35.0522959,58.5748846 33.0765306,58.6220833 C31.1020408,58.6692821 23.7665816,58.1054487 22.9196429,58.1985705 C22.0727041,58.2929679 22.119898,59.0927949 22.119898,59.0927949 C22.119898,59.0927949 22.2614796,60.3620577 29.4566327,65.8179744 C36.6505102,71.273891 37.7793367,70.5684615 37.7793367,70.5684615 C40.6479592,70.4268654 42.0114796,67.0872372 42.0114796,67.0872372 L42.0114796,67.0872372 Z M123.647959,18.176609 C123.647959,18.176609 122.98852,17.8946923 123.035714,17.3295833 C123.082908,16.76575 123.977041,15.2604936 123.977041,15.2604936 L126.994898,11.0891474 C126.994898,11.0891474 127.625,10.2485 127.799745,10.379891 C127.973214,10.5100064 127.279337,11.9412756 127.279337,11.9412756 L126.422194,13.8968333 C126.422194,13.8968333 125.951531,15.1188974 125.669643,15.4492885 C125.387755,15.7784038 125.197704,16.435359 125.197704,16.435359 C125.197704,16.435359 125.293367,16.8129487 125.151786,17.2823846 C125.01148,17.7530962 124.399235,18.176609 123.647959,18.176609 L123.647959,18.176609 Z M128.491071,21.9384744 C129.431122,21.7509551 129.807398,20.2456987 129.807398,20.2456987 L131.3125,14.1315513 C131.3125,14.1315513 132.817602,6.13710897 131.125,6.04271154 C129.431122,5.9483141 124.635204,11.9680641 124.635204,11.9680641 C124.635204,11.9680641 120.590561,17.0476667 120.779337,18.4585256 C120.966837,19.8693846 122.359694,20.6921731 122.359694,20.6921731 C124.503827,21.7050321 127.55102,22.1272692 128.491071,21.9384744 L128.491071,21.9384744 Z" fill="#FFFFFF"></path>
                    <path d="M69.744898,75.7092949 C69.744898,75.7092949 69.9961735,71.0953013 70.8737245,71.2075577 C71.7512755,71.3198141 72.6288265,72.4487564 72.880102,72.9500833 C73.130102,73.4514103 75.8890306,80.726391 76.6415816,82.7329744 C77.3941327,84.7395577 84.6670918,99.9145833 89.557398,104.805391 C94.4489796,109.696199 94.7767857,109.582667 94.8635204,110.642724 C94.9502551,111.702782 93.0688776,112.204109 91.690051,111.326468 C90.309949,110.448827 85.2946429,108.567256 75.8890306,92.0132628 C75.8890306,92.0132628 70.497449,83.2343013 69.744898,75.7092949 Z M114.456633,172.660564 C114.456633,172.660564 109.660714,174.258942 109.002551,173.036878 C108.344388,171.813538 112.105867,171.06091 112.105867,171.06091 C112.105867,171.06091 118.125,168.144795 119.441327,167.015853 C120.758929,165.888186 123.480867,163.197859 124.896684,162.783276 C126.3125,162.369968 127.436224,162.030647 127.8125,163.066468 C128.188776,164.101013 127.154337,165.981308 126.401786,166.452019 C125.649235,166.922731 117.748724,171.624744 114.456633,172.660564 L114.456633,172.660564 Z M213.140306,103.958365 C213.140306,103.958365 211.447704,103.958365 210.647959,102.359987 C209.848214,100.760333 210.742347,99.9145833 211.258929,99.7729872 C211.776786,99.6326667 213.1875,99.8673846 213.845663,100.901929 C214.503827,101.936474 215.067602,103.441731 213.140306,103.958365 L213.140306,103.958365 Z M206.792092,102.454385 C206.792092,102.454385 209.471939,102.501583 209.095663,104.85259 C208.719388,107.203596 206.508929,107.063276 206.508929,107.063276 C206.508929,107.063276 204.482143,107.165327 204.346939,105.087308 C204.205357,102.923821 206.792092,102.454385 206.792092,102.454385 L206.792092,102.454385 Z M176.366071,101.889276 C176.366071,101.889276 174.25,101.701756 174.015306,99.4910705 C174.015306,99.4910705 174.344388,97.2331859 176.460459,97.3275833 C178.576531,97.4219808 178.623724,99.5854679 178.623724,99.5854679 C178.623724,99.5854679 178.765306,101.56016 176.366071,101.889276 Z M169.077806,105.699615 C169.077806,105.699615 167.054847,105.558019 166.772959,103.818045 C166.772959,103.818045 166.914541,102.26559 168.841837,102.359987 C170.770408,102.454385 171.207908,103.819321 171.193878,104.14716 C171.179847,104.473724 171.241071,105.605218 169.077806,105.699615 L169.077806,105.699615 Z M154.076531,103.018218 C154.076531,103.018218 152.336735,102.7835 152.147959,101.090724 C151.960459,99.3966731 153.887755,99.3494744 154.358418,99.4910705 C154.829082,99.6326667 155.910714,100.525615 155.628827,101.701756 C155.345663,102.876622 154.076531,103.018218 154.076531,103.018218 Z M170.441327,107.313301 C172.919643,106.652519 179.595663,105.307994 181.100765,105.056692 C182.604592,104.805391 185.866071,102.798808 187.244898,100.667212 C188.623724,98.5356154 190.57398,98.3723333 190.57398,98.3723333 C193.02551,98.0827628 196.022959,102.548782 196.524235,106.938263 C197.02551,111.327744 194.517857,114.211968 194.517857,114.211968 C194.517857,114.211968 191.382653,117.973833 183.105867,117.472506 C183.105867,117.472506 180.221939,116.764526 175.582908,115.089609 C170.942602,113.415968 166.670918,112.507712 165.80102,110.073788 C165.173469,108.317231 167.96301,107.975359 170.441327,107.313301 L170.441327,107.313301 Z M98.3048469,96.9040705 C99.7155612,102.923821 101.971939,110.261308 104.135204,114.30509 C106.298469,118.350147 111.471939,122.677122 114.669643,123.335353 C117.867347,123.993583 123.88648,119.573487 123.88648,119.573487 C123.88648,119.573487 133.76148,112.048481 138.651786,109.508679 C143.543367,106.968878 145.235969,106.874481 148.528061,106.21625 C151.818878,105.558019 156.992347,105.934333 156.992347,105.934333 C156.992347,105.934333 161.318878,106.121853 160.867347,106.79284 C160.417092,107.462551 157.65051,107.407699 157.65051,107.407699 C157.65051,107.407699 154.170918,107.815904 150.973214,108.474135 C147.77551,109.132365 145.068878,111.428519 145.068878,111.428519 C148.945153,115.88816 157.368622,114.211968 159.061224,114.493885 C160.753827,114.775801 158.684949,117.973833 158.403061,118.632064 C158.121173,119.290295 155.110969,119.761006 152.571429,120.513635 C150.031888,121.266263 144.201531,126.345865 144.201531,126.345865 L118.996173,145.157744 C118.996173,145.157744 113.258929,149.201526 107.936224,150.079167 C102.612245,150.956808 100.844388,146.944917 100.186224,145.250865 C99.5267857,143.55809 99.6211735,142.336026 100.186224,141.959712 C100.75,141.583397 101.690051,142.241628 101.690051,142.241628 C101.690051,142.241628 103.100765,143.934404 104.887755,144.121923 C106.674745,144.310718 107.604592,141.753058 107.604592,141.753058 C105.054847,139.571712 104.32398,137.727135 104.135204,133.211365 C103.947704,128.696872 105.854592,126.23616 105.854592,126.23616 C105.854592,126.23616 107.239796,125.028128 107.225765,124.107115 C107.21301,123.186103 106.581633,122.300808 104.51148,121.642577 C102.442602,120.984346 101.313776,121.453782 100.035714,121.836474 C98.7576531,122.219167 95.0127551,120.984346 94.6364796,120.889949 C94.2602041,120.795551 92.9438776,120.513635 92.8494898,121.453782 C92.755102,122.395205 97.7397959,126.533385 97.7397959,126.533385 C97.7397959,126.533385 102.348214,131.047878 101.971939,132.458737 C101.596939,133.869596 100.655612,134.527827 100.655612,134.527827 C100.655612,134.527827 96.2359694,137.727135 93.7908163,141.207083 C91.3443878,144.687032 91.4387755,148.73209 91.4387755,148.73209 C91.7206633,157.008449 99.6109694,156.465026 99.6109694,156.465026 C112.297194,156.957423 127.929847,143.370571 134.043367,138.667282 C140.156888,133.963994 152.665816,125.122526 152.665816,125.122526 C152.665816,125.122526 157.556122,122.20641 160.471939,121.830096 C163.387755,121.453782 165.832908,125.593237 166.071429,127.324282 C166.308673,129.055327 165.174745,130.860359 164.368622,130.87184 C163.561224,130.883321 163.610969,128.506801 163.610969,128.506801 C163.610969,128.506801 163.669643,127.004096 161.813776,126.424955 C159.957908,125.84709 153.982143,131.142276 153.982143,131.142276 C153.982143,131.142276 145.705357,139.325513 135.172194,149.201526 C124.639031,159.077538 116.832908,162.275571 110.248724,164.909769 C103.665816,167.543968 97.3635204,167.63709 93.9783163,167.167654 C90.5918367,166.696942 83.7270408,160.018962 83.3852041,150.362359 C83.0446429,140.707032 93.6020408,134.434705 93.6020408,134.434705 C93.6020408,134.434705 96.4234694,132.740654 96.6122449,132.176821 C96.7997449,131.612987 96.5178571,130.954756 95.4834184,129.825814 C94.4489796,128.696872 90.309949,124.087981 89.557398,122.488327 C88.8061224,120.889949 89.2755102,120.889949 89.2984694,119.234167 C89.3214286,117.57966 84.6670918,114.588282 84.6670918,114.588282 C84.6670918,114.588282 66.0459184,101.889276 55.4170918,93.8004359 C44.7895408,85.7115962 43.6607143,77.4339615 43.6607143,77.4339615 C39.2410714,84.393859 36.1377551,95.3056923 35.2908163,99.5382692 C34.4438776,103.770846 35.3852041,103.958365 35.3852041,103.958365 C36.8903061,104.805391 38.684949,103.338404 41.6862245,100.760333 C44.6887755,98.1822628 45.5905612,94.7763013 45.5905612,94.7763013 C45.5905612,94.7763013 45.6364796,92.5770962 46.5369898,92.7416538 C47.4375,92.9074872 47.0471939,95.6820064 46.7653061,97.2803846 C46.4834184,98.8800385 45.4477041,100.478417 44.0369898,102.641904 C42.6262755,104.805391 33.880102,112.048481 33.2219388,112.517917 C32.5637755,112.988628 31.8112245,113.835654 31.7308673,114.361218 C31.6505102,114.888058 32.7512755,115.246513 32.7512755,115.246513 C32.7512755,115.246513 33.5038265,115.434032 33.5982143,116.468577 C33.692602,117.503122 31.5293367,120.32484 31.622449,122.112013 C31.7168367,123.899186 32.2818878,126.157071 33.9744898,128.978788 C35.6670918,131.800506 44.2257653,146.756122 46.5841837,152.587077 C48.942602,158.416756 52.6390306,160.297051 52.6390306,160.297051 C52.6390306,160.297051 55.7933673,161.993654 56.4234694,160.439923 C57.0522959,158.884917 57.4158163,153.343532 57.3928571,152.212038 C57.3686224,151.080545 57.4642857,151.12009 57.4642857,151.12009 C58.192602,151.344603 59.2742347,154.939359 60.119898,157.47916 C60.9668367,160.018962 60.684949,162.651885 60.3086735,163.216994 C59.932398,163.780827 59.2614796,166.731385 59.2614796,166.731385 C61.6007653,167.518455 64.9170918,169.707455 66.1390306,171.493353 C67.3622449,173.280526 67.7283163,172.928449 67.7283163,172.928449 C69.6938776,173.234603 73.2869898,169.800577 73.8520408,169.142346 C74.4158163,168.484115 75.5446429,168.484115 75.3558673,170.742 C75.1683673,172.998609 72.5344388,174.598263 72.5344388,174.598263 L69.3839286,176.192814 L69.2436224,177.983814 C69.2436224,177.983814 69.4311224,180.805532 68.3966837,180.805532 C67.3622449,180.805532 66.4209184,179.394673 65.1045918,176.949269 C63.7882653,174.503865 61.8125,173.280526 61.8125,173.280526 C58.0510204,171.023917 53.1607143,169.800577 43.3788265,170.742 C33.5982143,171.682147 29.2716837,180.147301 28.8954082,181.463763 C28.5191327,182.7815 29.1772959,183.534128 29.1772959,183.534128 C29.1772959,183.534128 29.8048469,184.129853 30.9336735,183.816045 C32.0625,183.502237 36.182398,182.285276 41.2385204,182.768744 C41.2385204,182.768744 41.5918367,182.123269 40.7767857,181.056833 C39.9617347,179.990397 39.7729592,179.031115 39.7729592,179.031115 C39.7729592,179.031115 39.9617347,178.611429 41.9056122,180.052904 C43.8494898,181.495654 43.4732143,182.499583 44.9158163,183.250936 C46.3571429,184.003564 47.6109694,184.442385 49.6811224,186.887788 C51.75,189.334468 53.567602,192.469994 53.567602,192.469994 C53.567602,192.469994 54.6964286,194.664096 56.3903061,194.664096 C58.0829082,194.664096 62.2831633,193.723949 63.4119898,193.283853 C64.5408163,192.845032 69.4311224,191.71609 72.252551,188.644346 C75.0739796,185.571327 80.4043367,178.611429 80.4043367,178.611429 C80.4043367,178.611429 85.4196429,172.277872 86.7359694,171.148929 C88.0535714,170.019987 89.5841837,168.490494 90.3864796,169.475288 C90.3864796,169.475288 90.6237245,169.707455 90.247449,170.710109 C89.8711735,171.712763 89.494898,172.340378 90.309949,172.716692 C91.125,173.093006 102.285714,176.478558 114.19898,174.033154 C114.19898,174.033154 124.669643,170.96141 129.811224,169.331141 C134.952806,167.699596 150.440051,162.558763 150.440051,162.558763 C150.440051,162.558763 157.77551,160.175865 160.848214,158.419308 C163.919643,156.664026 170.252551,151.898231 170.252551,151.898231 C170.252551,151.898231 172.241071,150.390423 171.936224,149.984769 C171.632653,149.57784 170.691327,149.765359 170.691327,149.765359 C170.691327,149.765359 169.422194,149.752603 169.524235,149.038244 C169.626276,148.323885 171.882653,147.885064 171.882653,147.885064 C171.882653,147.885064 178.591837,147.446244 180.096939,146.943641 C180.096939,146.943641 183.294643,146.317301 190.128827,142.680449 C196.96301,139.042321 198.029337,137.788365 199.094388,134.966647 C200.160714,132.144929 200.223214,128.696872 199.158163,127.379135 C198.091837,126.062673 195.145408,125.247538 191.571429,125.372551 C187.997449,125.49884 181.288265,126.376481 176.334184,131.142276 C171.381378,135.908071 169.938776,141.300205 169.938776,141.300205 C169.938776,141.300205 167.608418,146.444865 166.177296,148.072583 C164.746173,149.700301 161.913265,153.152186 160.596939,152.650859 C160.596939,152.650859 160.221939,152.524571 160.659439,151.45941 C161.098214,150.392974 167.584184,139.955679 167.584184,139.955679 C167.584184,139.955679 165.48852,139.607429 160.284439,144.937058 C155.079082,150.267962 147.868622,155.283782 146.17602,154.969974 C144.483418,154.657442 143.542092,154.468647 143.605867,153.653513 C143.668367,152.838378 145.674745,151.584423 145.674745,151.584423 L164.108418,136.910724 C164.108418,136.910724 169.061224,133.336378 169.626276,128.320558 C170.190051,123.303462 168.559949,119.980417 165.61352,117.848821 C162.665816,115.715949 160.033163,114.023173 159.781888,113.333051 C159.531888,112.642929 160.669643,113.023071 161.008929,113.084301 C161.34949,113.145532 173.01148,116.719878 175.707908,117.472506 C178.404337,118.223859 184.235969,119.604103 186.429847,119.541596 C188.623724,119.47909 191.508929,118.788968 194.769133,115.464647 C198.029337,112.141603 197.778061,111.201455 197.778061,111.201455 C197.778061,111.201455 197.214286,110.260032 198.969388,110.386321 C200.725765,110.511333 204.86352,111.640276 209.753827,109.444897 C214.645408,107.250795 217.529337,103.112615 218.093112,99.9770897 C218.658163,96.8415641 218.469388,93.4547372 217.466837,92.9534103 C216.46301,92.4520833 214.895408,92.702109 214.895408,92.702109 C214.895408,92.702109 210.549745,93.6371538 209.306122,93.5465833 C208.061224,93.4547372 203.422194,93.3297244 203.233418,93.3297244 C203.045918,93.3297244 198.781888,93.0159167 195.646684,95.3988141 C195.646684,95.3988141 194.69898,96.1833333 194.264031,96.76375 C193.829082,97.342891 193.264031,97.8454936 192.950255,97.342891 C192.637755,96.8415641 192.887755,95.8376346 192.887755,95.8376346 C192.887755,95.8376346 192.950255,94.144859 191.633929,93.1422051 C190.317602,92.1382756 186.204082,89.5142821 183.714286,89.5729615 C181.225765,89.6303654 179.806122,90.6547051 175.436224,90.5182115 C171.068878,90.3829936 171.193878,90.2579808 170.880102,91.323141 C170.566327,92.3895769 166.177296,104.115269 159.155612,105.055417 C159.155612,105.055417 158.278061,105.244212 158.278061,103.487654 C158.278061,101.732372 158.215561,101.168538 158.278061,99.9770897 C158.340561,98.785641 158.997449,92.5298974 157.414541,92.6472564 C155.831633,92.765891 153.637755,94.4586667 153.637755,94.4586667 L140.345663,102.986327 L124.669643,114.5245 C124.669643,114.5245 119.215561,118.161353 116.142857,117.910051 C113.070153,117.660026 110.373724,113.771872 109.934949,111.827795 C109.496173,109.883718 109.866071,108.994596 110.248724,109.194872 C110.631378,109.393872 112.882653,111.765288 113.258929,111.640276 C113.635204,111.513987 113.132653,110.57384 113.132653,110.57384 C113.132653,110.57384 110.5,105.055417 108.869898,99.9758141 C107.239796,94.8974872 104.982143,85.303391 105.984694,76.5244295 C106.98852,67.7454679 108.179847,59.6566282 110.061224,53.8881795 C111.941327,48.1184551 116.456633,38.7756603 116.456633,38.7756603 C116.456633,38.7756603 117.710459,36.0789551 116.957908,33.5085385 C116.205357,30.9368462 114.26148,24.5407821 106.048469,24.4782756 C97.8341837,24.4157692 88.9936224,24.3532628 85.1058673,27.7388141 C81.2181122,31.125641 78.8979592,36.0164487 69.1798469,37.8980192 C69.1798469,37.8980192 64.1020408,38.0855385 62.4706633,39.2769872 C60.8405612,40.4684359 58.3329082,42.7263205 54.3826531,50.4388462 C50.432398,58.1513718 46.4821429,67.9967692 46.7334184,72.8250705 C46.9834184,77.6533718 50.369898,81.9803462 50.369898,81.9803462 C50.369898,81.9803462 55.4489796,89.1277628 63.5994898,95.2725256 C71.7512755,101.418564 86.4846939,111.576494 86.4846939,111.576494 C86.4846939,111.576494 95.7295918,118.132013 101.076531,118.146045 C101.076531,118.146045 98.5867347,113.959391 97.0816327,106.685686 C95.5765306,99.4119808 93.0829082,93.3093141 93.0829082,93.3093141 C93.0829082,93.3093141 91.9477041,91.2134359 93.3201531,91.1968526 C94.6913265,91.1815449 96.5803571,91.3856474 97.2066327,92.9534103 C97.8341837,94.5211731 98.3048469,96.9040705 98.3048469,96.9040705 L98.3048469,96.9040705 Z M76.6734694,138.854801 C76.6734694,138.854801 75.0739796,142.711064 74.5102041,144.498237 C73.9451531,146.28541 73.8520408,147.50875 73.8520408,150.048551 C73.8520408,152.588353 72.3469388,152.870269 72.3469388,152.870269 C72.3469388,152.870269 71.6887755,152.775872 71.5,151.835724 C71.3125,150.894301 71.2181122,148.166981 71.4056122,147.038038 C71.5943878,145.909096 72.7232143,142.429147 73.3813776,141.207083 C74.0395408,139.983744 75.8265306,137.350821 75.4502551,135.751167 C75.0739796,134.152788 75.3010204,133.405263 72.6951531,129.311731 C72.6951531,129.311731 77.2372449,131.424192 77.2372449,136.127481 L76.6734694,138.854801 L76.6734694,138.854801 Z M173.544643,127.087013 C173.544643,127.087013 172.877551,123.159314 172.788265,121.883673 C172.69898,120.608032 173.26148,119.471436 173.26148,119.471436 L179.595663,121.234372 C179.595663,121.234372 177.903061,128.048846 173.544643,127.087013 L173.544643,127.087013 Z M230.758929,57.5250321 C230.758929,57.5250321 222.230867,57.0224295 219.473214,53.0105385 C216.714286,48.9973718 211.572704,45.3605192 211.572704,45.3605192 C211.572704,45.3605192 205.529337,40.7426987 206.230867,40.0410962 C206.932398,39.3394936 209.826531,39.7579038 209.826531,39.7579038 C209.826531,39.7579038 218.469388,40.5934487 221.980867,43.2276474 C225.492347,45.8618462 228.125,47.1158013 230.758929,57.5250321 L230.758929,57.5250321 Z M230.450255,62.6071859 C243.433673,63.8011859 244.427296,69.1882179 245.054847,70.8184872 C245.681122,72.4487564 244.928571,72.951359 244.803571,76.7132244 C244.677296,80.4750897 242.797194,82.2316474 241.417092,82.8579872 C240.038265,83.4856026 239.41199,85.4921859 233.266582,82.105359 C227.122449,78.7198077 221.854592,78.7198077 221.854592,78.7198077 C221.854592,78.7198077 226.27551,76.9785577 226.950255,76.6570962 C227.623724,76.3369103 228.627551,75.3342564 227.623724,74.4553397 C226.621173,73.5776987 224.739796,73.4526859 223.610969,73.7027115 C222.482143,73.9540128 218.469388,76.7132244 206.431122,78.4685064 C194.392857,80.2250641 181.443878,78.8805385 181.443878,78.8805385 C181.443878,78.8805385 180.346939,78.5935192 177.086735,79.2211346 C173.826531,79.84875 170.065051,80.4750897 166.929847,80.4750897 C163.794643,80.4750897 153.51148,78.5935192 146.614796,73.5776987 C139.718112,68.5606026 132.946429,62.1645385 132.946429,62.1645385 C132.946429,62.1645385 128.682398,58.2763846 122.538265,58.5276859 C116.394133,58.7789872 112.760204,62.418391 112.760204,62.418391 C112.760204,62.418391 115.390306,51.2539808 117.521684,46.7394872 C119.654337,42.2237179 121.660714,37.7092244 121.159439,33.8223462 C120.656888,29.9341923 119.278061,28.1776346 119.278061,28.1776346 C119.278061,28.1776346 118.399235,27.4262821 119.904337,26.7986667 C121.409439,26.1723269 125.297194,24.7920833 129.309949,25.2934103 C133.322704,25.7960128 142.100765,28.0526218 142.100765,28.0526218 C142.100765,28.0526218 147.706633,29.4826154 150.502551,29.5578782 C153.299745,29.633141 160.910714,29.4315897 164.547194,30.0592051 C168.183673,30.6868205 180.723214,33.3197436 183.858418,37.8355128 C186.993622,42.3500064 186.993622,43.9802756 188.875,44.9842051 C190.756378,45.986859 191.007653,45.2342308 190.756378,44.3565897 C190.505102,43.4789487 187.830357,38.6225833 187.830357,38.6225833 C187.830357,38.6225833 189.954082,37.8992949 193.364796,38.2437179 C196.77551,38.588141 199.408163,39.5907949 205.678571,44.3565897 C211.94898,49.1223846 217.725765,55.4163974 217.725765,55.4163974 C217.725765,55.4163974 211.947704,54.7658205 204.549745,56.2710769 C197.151786,57.7763333 185.489796,63.0434551 185.489796,63.0434551 C185.489796,63.0434551 176.084184,66.6803077 167.682398,66.4290064 C159.280612,66.1789808 150.752551,64.046109 150.752551,64.046109 C150.752551,64.046109 141.822704,61.9629872 141.899235,63.5065128 C141.975765,65.0500385 143.730867,65.8026667 143.730867,65.8026667 C143.730867,65.8026667 155.021684,72.2803718 163.233418,71.7369487 C171.443878,71.1948013 185.614796,68.9369167 191.885204,67.3066474 C198.154337,65.6763782 213.452806,59.6566282 218.845663,59.6566282 C224.23852,59.6566282 227.122449,60.4105321 228.877551,61.0368718 C230.633929,61.6632115 230.450255,62.6071859 230.450255,62.6071859 L230.450255,62.6071859 Z M155.299745,180.805532 C157.932398,179.394673 160.659439,173.845635 162.353316,171.118314 C164.045918,168.389718 168.278061,165.004167 169.218112,164.439058 C170.159439,163.875224 175.61352,161.335423 175.61352,161.335423 C175.61352,161.335423 177.024235,160.582795 177.281888,159.682192 C177.538265,158.78159 175.331633,157.573558 172.980867,157.102846 C170.628827,156.632135 168.278061,157.761077 166.772959,158.890019 C165.267857,160.018962 162.635204,161.806135 160.190051,163.122596 C157.744898,164.439058 155.487245,169.047949 155.487245,169.047949 C155.487245,169.047949 152.968112,174.442635 152.571429,175.162096 C152.174745,175.881558 151.066327,176.667353 150.413265,176.240013 C149.760204,175.812673 150.596939,174.691385 151.442602,173.374923 C152.289541,172.058462 152.760204,170.365686 153.13648,168.954827 C153.512755,167.543968 154.264031,165.944314 153.887755,166.038712 C153.512755,166.133109 148.997449,167.543968 147.681122,168.013404 C146.364796,168.484115 136.48852,171.493353 135.360969,171.964064 C134.232143,172.434776 134.451531,174.033154 134.451531,174.033154 C134.451531,174.033154 135.204082,177.6075 137.460459,180.805532 C139.718112,184.003564 144.483418,183.564744 144.483418,183.564744 C151.725765,183.125923 152.665816,182.216391 155.299745,180.805532 L155.299745,180.805532 Z" fill="#C3C7CD"></path>
                </g>
            </g>
        </g>
    </g>
</svg>