<?xml version="1.0" encoding="UTF-8" standalone="no"?>
<svg width="250px" height="250px" viewBox="0 0 250 250" version="1.1" xmlns="http://www.w3.org/2000/svg" xmlns:xlink="http://www.w3.org/1999/xlink">
    <!-- Generator: Sketch 47.1 (45422) - http://www.bohemiancoding.com/sketch -->
    <title>PORT</title>
    <desc>Created with Sketch.</desc>
    <defs></defs>
    <g id="Page-1" stroke="none" stroke-width="1" fill="none" fill-rule="evenodd">
        <g id="PORT" fill-rule="nonzero">
            <g id="Group" transform="translate(16.000000, 0.000000)">
                <path d="M217.107692,34.6206897 C217.130904,30.7510021 216.055333,26.9542901 214.006154,23.6724138 L214.006154,23.6724138 C213.768929,23.2366576 213.479626,22.8313841 213.144615,22.4655172 L213.144615,22.4655172 L204.529231,10.2241379 C204.504488,10.0526129 204.504488,9.87842159 204.529231,9.70689655 L204.529231,9.70689655 L204.529231,9.70689655 C200.695026,4.17849267 194.367637,0.915942847 187.643077,1 L132.849231,1 L86.5846154,1 C82.8049235,0.99439057 79.0699972,1.81834595 75.6430769,3.4137931 C67.3107327,6.91449027 60.986778,13.9700416 58.4123077,22.637931 L0,236.431034 L9.13230769,249.62069 L13.6984615,249.62069 L13.6984615,249.62069 L29.8092308,249.62069 C41.6788759,250.316731 53.5684604,248.646476 64.7876923,244.706897 C88.0492308,236.086207 98.3015385,214.275862 105.193846,192.982759 C107.807233,187.142492 110.07977,181.15542 112,175.051724 L112,174.362069 L112,174.362069 C112.775385,171.775862 114.843077,164.62069 116.824615,157.12069 L163.089231,157.12069 C169.353151,157.054061 175.416213,154.900349 180.32,151 C185.166923,147.198829 188.718345,141.988877 190.486154,136.086207 L190.486154,136.086207 L216.332308,41.2586207 L216.332308,41.2586207 C216.914757,39.153243 217.20466,36.9776317 217.193846,34.7931034" id="Shape" fill="#FFFFFF"></path>
                <path d="M171.446154,25.9137931 C137.846154,44.1034483 128.455385,69.9655172 121.046154,96.6896552 C120.356923,99.2758621 116.307692,114.362069 115.532308,117.034483 C114.756923,119.706897 114.24,122.12069 113.550769,124.62069 L110.621538,135.310345 L154.473846,135.310345 C162.983507,134.836545 170.285446,129.081003 172.738462,120.913793 L200.566154,18.9310345 C190.416321,18.6712047 180.375801,21.0788464 171.446154,25.9137931" id="Shape" fill="#221C35"></path>
                <path d="M84.0861538,9.01724138 C75.5996497,9.47856728 68.3044807,15.1943396 65.8215385,23.3275862 L9.13230769,231.258621 L14.3015385,231.258621 C26.2586541,232.209115 38.2832243,230.683108 49.6246154,226.775862 C76.5907692,216.948276 84.0861538,185.396552 91.5815385,161.172414 L104.504615,114.793103 C105.538462,110.913793 106.055385,108.241379 107.175385,104.017241 C116.824615,69.5344828 125.267692,39.4482759 161.107692,9.18965517 L84.0861538,9.01724138 Z" id="Shape" fill="#221C35"></path>
            </g>
        </g>
    </g>
</svg>