<?xml version="1.0" encoding="UTF-8" standalone="no"?>
<svg width="250px" height="250px" viewBox="0 0 250 250" version="1.1" xmlns="http://www.w3.org/2000/svg" xmlns:xlink="http://www.w3.org/1999/xlink">
    <!-- Generator: Sketch 47.1 (45422) - http://www.bohemiancoding.com/sketch -->
    <title>SNCLARA</title>
    <desc>Created with Sketch.</desc>
    <defs></defs>
    <g id="Page-1" stroke="none" stroke-width="1" fill="none" fill-rule="evenodd">
        <g id="SNCLARA" fill="#7A2539">
            <g id="Page-1" transform="translate(29.000000, -1.000000)">
                <path d="M155.84832,0.994230769 L155.84832,12.3211538 L144.55872,0.994230769 L77.53152,0.994230769 L51.70752,32.5326923 L51.70752,51.4365385 L25.99872,51.4365385 L0.00192,77.4365385 L0.00192,123.648077 L25.99872,149.667308 L51.70752,149.667308 L51.70752,174.090385 L77.66592,200.109615 L104.12352,200.109615 L104.12352,223.975 L35.65632,223.975 L35.65632,202.513462 L0.00192,202.513462 L0.00192,250.513462 L35.61792,250.513462 L35.61792,239.225 L46.92672,250.513462 L113.78112,250.513462 L139.75872,224.513462 L139.75872,200.109615 L165.50592,200.109615 L191.48352,174.090385 L191.48352,145.494231 L155.84832,145.494231 L155.84832,173.571154 L139.75872,173.571154 L139.75872,149.128846 L113.78112,123.109615 L87.34272,123.109615 L87.34272,77.975 L104.12352,77.975 L104.12352,99.3019231 L139.75872,99.3019231 L139.75872,51.4365385 L104.12352,51.4365385 L104.12352,62.725 L92.85312,51.4365385 L87.34272,51.4365385 L87.34272,27.5519231 L155.84832,27.5519231 L155.84832,57.1673077 L191.48352,57.1673077 L191.48352,0.994230769 L155.84832,0.994230769 Z M35.61792,123.109615 L51.70752,123.109615 L51.70752,77.9557692 L35.61792,77.9557692 L35.61792,123.109615 Z M87.34272,173.571154 L104.14272,173.571154 L104.14272,149.667308 L87.34272,149.667308 L87.34272,173.571154 Z" id="Fill-2"></path>
            </g>
        </g>
    </g>
</svg>