<?xml version="1.0" encoding="UTF-8" standalone="no"?>
<svg width="250px" height="250px" viewBox="0 0 250 250" version="1.1" xmlns="http://www.w3.org/2000/svg" xmlns:xlink="http://www.w3.org/1999/xlink">
    <!-- Generator: Sketch 50 (54983) - http://www.bohemiancoding.com/sketch -->
    <title>UNLV</title>
    <desc>Created with Sketch.</desc>
    <defs>
        <polygon id="path-1" points="0 0.0964418605 250 0.0964418605 250 142.893904 0 142.893904"></polygon>
    </defs>
    <g id="UNLV" stroke="none" stroke-width="1" fill="none" fill-rule="evenodd">
        <g id="Group" transform="translate(0.000000, 54.000000)">
            <g id="Group-3">
                <mask id="mask-2" fill="white">
                    <use xlink:href="#path-1"></use>
                </mask>
                <g id="Clip-2"></g>
                <path d="M214.54,71.3312267 C214.025,68.7638779 210.535833,45.3675814 209.849167,42.1143314 L209.964167,41.4317558 C212.423333,41.9447267 214.655,43.0854012 216.826667,44.1695407 C217.6875,44.9111453 218.943333,44.9701744 219.4575,46.1108488 C219.630833,49.9327733 215.114167,68.934314 214.54,71.3312267 Z M140.815833,48.163564 C140.359167,60.0333953 140.6425,70.4175233 139.9575,82.5159884 L139.9575,82.9724244 C137.841667,82.8019884 135.324167,82.6864244 132.979167,82.5159884 C132.464167,80.6312151 132.8075,77.836064 132.694167,76.2389535 C132.979167,58.0363837 133.2675,41.8873605 133.780833,23.7978605 L133.950833,23.6274244 C136.1825,24.1420581 138.758333,23.7978605 140.9275,24.4837616 C141.615,32.6430756 140.700833,40.0624477 140.815833,48.163564 Z M112.56,28.5908547 C112.618333,31.8441047 112.331667,34.8687209 112.274167,38.006407 C111.873333,37.1509012 111.303333,36.1241279 111.189167,35.039157 C109.758333,31.2737674 108.3275,27.6214477 107.184167,23.7978605 C108.728333,23.2857209 110.673333,23.6274244 112.389167,23.5126919 C113.075,25.4531686 112.274167,26.6520407 112.56,28.5908547 Z M93.0566667,84.4564651 C93.4575,76.2389535 93.2866667,69.10475 93.7441667,61.0601686 C94.4866667,61.7452384 99.9775,77.895093 101.695,83.3723256 C99.8616667,84.1696337 93.5141667,85.1407035 93.0566667,84.4564651 Z M71.7825,81.8325814 C71.7825,81.8325814 71.4941667,87.595814 71.2083333,90.331936 C70.58,91.3595407 69.2066667,91.1907674 68.3491667,91.9880756 C66.575,92.4445116 64.9158333,93.2451453 63.2591667,93.9302151 C63.8308333,91.2456395 64.1166667,66.1383314 64.7466667,54.3266977 C64.8591667,46.7368895 65.0883333,38.5210407 65.4316667,30.2469942 C66.1183333,29.2185581 67.8341667,29.390657 69.0358333,28.9907558 C70.18,28.5908547 71.3791667,28.4204186 72.5816667,28.1926163 L72.8675,28.5908547 C72.2958333,45.7691453 72.3525,63.6857151 71.7825,81.8325814 Z M42.3808333,79.6618081 C42.2116667,82.8568605 42.0383333,86.224843 41.8675,89.8197965 C41.4666667,92.3306105 41.0675,95.9239012 40.0366667,98.7215465 C38.8933333,102.600837 36.2058333,106.367058 32.775,108.820506 C31.8583333,108.937733 31.115,108.820506 30.8858333,107.852762 C31.0566667,99.9187558 31.0008333,92.9591453 31.4008333,84.5687035 C31.5158333,70.4748895 32.2583333,57.4660465 32.3733333,43.4844709 C32.7158333,42.3437965 32.3175,40.5197151 33.8616667,40.2328837 C36.8333333,38.6914767 39.9808333,37.8359709 43.0691667,36.6387616 L43.355,37.7769419 C43.24,52.1584186 42.4975,64.770686 42.3808333,79.6618081 Z M249.945833,33.8984826 L241.993333,29.561093 C238.105833,27.7935465 230.365,23.7213721 228.495833,22.7153837 C225.464167,21.6894419 223.003333,19.6342326 219.746667,18.8335988 C216.826667,17.2938547 213.624167,16.3809826 210.535833,15.1829419 C208.0775,13.9840698 205.160833,13.755436 202.700833,12.4443256 C194.291667,10.1604826 185.941667,7.6505 177.479167,5.59695349 C176.965,5.65431977 176.791667,4.79715116 176.335833,5.42485465 C175.989167,12.6721279 175.989167,21.7451453 175.818333,29.390657 C175.818333,29.390657 180.319167,30.8555756 181.8225,31.3311337 C183.655,31.9014709 183.826667,34.1271163 184.055,35.5537907 C184.513333,37.609 184.741667,39.6617151 185.43,41.6021919 C186.229167,48.163564 187.658333,55.4673721 188.458333,61.9738721 C188.688333,63.1145465 189.146667,64.484686 188.575,65.5679942 C186.571667,65.2254593 184.97,64.0847849 183.081667,63.5127849 C181.1975,62.8859128 179.135833,62.030407 177.479167,61.5723081 C176.849167,69.5628488 177.706667,78.5236279 176.106667,86.224843 C175.419167,87.8211221 175.7625,89.7632616 174.734167,91.1907674 C171.7025,91.4751047 169.4125,89.7067267 166.495833,88.9626279 C165.81,88.735657 164.9525,88.9077558 164.435833,88.2792209 C164.2675,67.165936 165.1825,48.7920988 165.235833,28.4204186 L165.5225,27.2223779 C168.555833,27.4501802 171.530833,28.3638837 174.448333,28.5908547 C174.905833,21.1157791 174.675,12.9007616 175.133333,5.42485465 L174.734167,4.62671512 C172.845833,4.56934884 171.0725,4.28418023 169.3575,3.8260814 C165.01,3.71301163 162.261667,2.28633721 157.8025,2.45760465 C152.826667,1.37429651 147.68,1.37429651 142.701667,0.630197674 L134.924167,0.231959302 C124.8,-0.16627907 114.619167,0.461424419 104.554167,0.231959302 L104.153333,0.517959302 L104.038333,6.28036047 C104.095,8.79117442 103.981667,11.1872558 103.6375,13.5276337 C103.41,13.5858314 103.354167,13.3563663 103.180833,13.2424651 C102.609167,9.59014535 100.6075,6.33855814 99.635,2.68540698 C99.3483333,2.11506977 99.29,1.37429651 98.9483333,0.802296512 C84.135,2.17243605 70.5233333,3.7712093 56.5091667,7.0793314 C55.7083333,7.59313372 54.5083333,7.25059884 53.7625,7.9365 C43.6408333,10.1604826 34.2041667,14.041436 24.71,17.7494593 C23.5075,18.0346279 22.5933333,18.8926279 21.3916667,19.1187674 C15.3858333,21.4009477 9.8375,24.9393663 3.83416667,27.2223779 C2.86166667,28.0787151 1.43,28.0787151 0.6875,28.9907558 C0.4575,37.8916744 0,48.4487326 0,57.7512151 C2.40416667,56.381907 4.8625,55.1838663 7.26416667,53.6407965 L8.06416667,53.6407965 C8.06416667,59.6334942 8.06416667,66.3669651 7.66416667,72.5317616 C7.66416667,80.0625407 7.20583333,89.1347267 6.97916667,96.3836628 C6.52083333,106.198285 6.00666667,116.865087 7.37833333,126.111035 C8.17916667,132.273337 10.64,139.062512 16.7033333,141.689721 C19.5625,143.51214 23.5666667,142.888593 26.7683333,142.258395 C36.4916667,138.72164 44.6141667,131.01793 51.19,122.799587 C55.0216667,117.209285 58.6841667,111.561616 60.2258333,104.996087 C60.9133333,103.799709 61.0275,101.971471 61.7716667,100.603826 C62.2858333,106.137593 61.3725,113.443064 61.485,118.977663 C65.8325,117.378058 70.065,115.554808 74.5275,114.1855 C83.2766667,110.815855 92.5433333,108.704942 101.8075,106.653058 C101.8075,99.5188547 102.38,93.4704535 102.38,85.938843 L102.665833,85.5397733 L102.953333,85.8257733 C104.84,91.8176395 107.299167,97.5251686 109.244167,103.515372 C109.758333,104.314343 109.186667,106.026186 110.730833,105.967157 C117.480833,105.056779 124.4575,105.967157 131.494167,105.681988 C133.210833,105.741849 134.8675,106.026186 136.410833,106.481791 C141.3875,107.108663 146.020833,108.536169 150.823333,109.505576 C151.969167,110.13411 153.455833,109.905477 154.543333,110.760983 C159.749167,111.73039 164.2675,114.242035 169.3575,115.381047 C177.076667,118.694988 184.798333,121.944081 192.291667,125.826698 C193.376667,125.826698 194.063333,126.850977 195.153333,126.910006 C195.094167,124.282797 195.208333,121.603209 195.551667,118.807227 C196.123333,121.088576 196.235,123.429785 196.524167,125.937273 C197.269167,131.075297 197.725833,136.951599 198.868333,142.258395 C206.646667,142.318256 213.455,142.659128 221.116667,142.543564 C221.346667,141.62986 221.746667,140.776849 221.803333,139.807442 C222.204167,138.321738 227.466667,117.836157 227.695,116.069442 C228.666667,112.246686 240.450833,59.0049593 241.420833,58.3223837 C244.2825,59.5777907 246.740833,61.7452384 249.655833,62.8293779 C250.115833,53.6989942 250.001667,43.0854012 249.945833,33.8984826 Z" id="Fill-1" fill="#1A1919" mask="url(#mask-2)"></path>
            </g>
            <path d="M135.44,5.31095349 L135.725833,5.71002326 L135.61,16.2670814 C133.094167,16.3809826 129.834167,15.6967442 128.175,17.9223895 C126.404167,25.7948721 127.4325,33.3281453 126.9775,42.288093 C126.575,59.0049593 126.0025,80.5755116 125.830833,98.5494477 L125.430833,98.8354477 C122.17,98.4363779 117.595,99.0649128 114.0475,98.8354477 C106.726667,78.2359651 99.0066667,57.80775 91.9716667,37.0943663 L91.685,36.8091977 C90.655,33.3281453 89.3966667,29.847093 87.9666667,26.6520407 C87.395,35.6685233 87.7958333,43.4844709 87.28,51.9879826 C86.6525,57.2956105 87.5658333,61.9738721 86.8791667,66.7668663 C86.9941667,70.2470872 85.735,87.650686 88.0816667,90.9064302 C90.7133333,91.7586105 92.9416667,90.331936 95.6308333,90.0475988 L95.9166667,90.6171047 C95.8016667,94.0989884 95.5158333,97.807843 95.6308333,101.003727 C94.8875,101.687134 93.7441667,101.460994 92.8858333,101.859233 C84.4208333,104.028343 75.9558333,106.653058 68.0633333,109.789913 C67.4325,108.591872 68.0633333,106.481791 68.0633333,104.88468 C67.9483333,102.714738 68.2341667,100.547291 68.3491667,98.1520407 C71.095,96.3836628 74.8691667,96.3836628 76.87,93.3582151 C78.9291667,85.3693372 77.4425,77.4951919 78.0716667,69.39075 C78.2441667,52.6705581 78.8716667,39.3200116 78.6441667,23.2275233 C78.3,22.657186 78.1866667,22.0286512 77.7858333,21.4599767 C75.555,19.9194012 72.5816667,21.4599767 70.1208333,21.7451453 L69.835,21.0600756 L70.1208333,9.98921512 C71.895,9.19190698 73.955,9.24844186 75.8975,8.8485407 C82.075,7.82176744 87.91,7.13752907 94.1441667,6.28036047 C94.8875,9.30497674 96.4316667,12.0444244 97.0033333,15.1829419 C103.180833,32.0162035 117.195,71.3312267 117.195,71.3312267 C117.8225,69.5046512 118.451667,33.2317035 117.88,18.3197965 C116.164167,15.3533779 112.389167,16.5505872 109.358333,16.2670814 C109.186667,12.5573953 109.473333,9.07634302 109.358333,5.42485465 C117.536667,4.56934884 126.404167,5.36748837 135.44,5.31095349" id="Fill-4" fill="#D02139"></path>
            <path d="M154.543333,6.96459884 C158.833333,7.6505 163.9225,8.33473837 168.383333,9.01980814 C168.383333,12.6721279 168.4975,16.7783895 168.268333,20.4897384 C165.3525,20.3750058 161.3475,18.1493605 159.633333,21.3452442 C158.145833,32.528343 159.003333,43.0854012 158.373333,55.1256686 C158.203333,67.8501744 157.575,79.5512326 157.8025,92.2740756 C164.435833,93.5286512 170.384167,97.637407 177.479167,96.6696628 C182.340833,93.8129884 181.655,87.7645872 182.795,82.9724244 C183.025833,78.748936 183.485,74.2984767 183.485,69.7906512 C185.541667,70.9878605 188.175,71.2173256 189.948333,72.8136047 C189.831667,80.119907 189.658333,87.0811802 189.5475,94.157186 C189.201667,101.803529 189.658333,109.562942 189.146667,116.752849 C186.971667,116.180849 181.995833,113.556965 181.595,113.614331 C167.583333,107.338128 152.886667,102.659866 137.4975,99.6327558 L137.4975,88.5652209 C139.729167,88.4513198 143.733333,90.1631628 145.448333,87.595814 C146.878333,78.1802616 146.1925,68.2517384 146.593333,58.0363837 C147.05,45.5962151 147.22,33.9566802 147.108333,21.5722151 C146.994167,20.0898372 146.476667,18.4927267 145.049167,17.7494593 C143.276667,16.7783895 141.046667,16.8374186 138.870833,16.6661512 C138.986667,12.9564651 138.640833,9.30497674 139.156667,5.59695349 C144.361667,5.82309302 149.168333,6.67943023 154.543333,6.96459884" id="Fill-5" fill="#D02139"></path>
            <path d="M66.8041667,10.5038488 C67.0341667,11.6453547 67.0341667,12.5000291 66.8041667,13.6423663 L66.69,22.5424535 C65.375,22.8858198 64.06,23.2275233 62.8575,23.6274244 C60.8566667,24.3124942 58.8558333,25.9096047 58.74,28.1926163 C57.9391667,42.515064 57.7108333,54.2119651 57.6533333,68.1345116 C57.3091667,71.3894244 57.4816667,76.8101221 57.4816667,76.8101221 C57.4241667,82.5733547 57.1966667,88.1653198 56.5091667,93.3582151 C55.7658333,95.639564 55.8225,98.6633488 54.9066667,101.003727 C51.2483333,115.664552 40.7791667,128.507948 27.5691667,135.925657 C24.595,136.841023 21.9633333,137.752233 19.2191667,136.209163 C13.4991667,131.417831 13.8433333,123.886221 13.1541667,116.924948 C13.44,93.6442151 13.7283333,71.7876628 13.9558333,48.163564 C13.8991667,47.0245523 13.785,45.3110465 12.4675,44.7407093 C9.89666667,44.6251453 8.17916667,46.4517209 6.00666667,47.3662558 C5.89166667,42.6289651 6.17833333,38.1211395 6.2925,32.9847791 C15.615,28.0787151 25.5091667,23.912593 35.2325,19.8046686 L35.5191667,20.2045698 C35.6341667,24.8246337 35.3475,28.6490523 35.2325,32.814343 C32.0291667,34.5270174 27.3958333,35.3833547 26.3108333,39.6617151 C25.3383333,49.5919012 25.3966667,59.6900291 25.2241667,70.646157 C25.1083333,82.2308198 24.3658333,95.0118605 24.8233333,107.052128 C24.9375,110.648744 25.2816667,115.499105 29.2266667,116.924948 C30.3716667,117.209285 31.0566667,116.410314 32.0875,116.524215 C50.3316667,108.820506 48.445,87.7088837 48.56,70.7608895 C48.6166667,57.4660465 49.5891667,44.5694419 49.13,31.0459651 C48.7308333,30.4174302 48.7875,29.4488547 47.8733333,29.1063198 C45.4133333,28.2499826 43.0108333,30.0175291 40.6108333,30.4756279 C41.0091667,26.3652093 40.6108333,22.0286512 41.0091667,17.9223895 C49.5333333,14.7830407 58.0541667,13.0146628 66.8041667,10.5038488" id="Fill-6" fill="#D02139"></path>
            <path d="M211.625,21.4599767 L211.909167,22.0286512 C212.020833,26.4807733 211.7375,30.4174302 211.625,34.5835523 C209.22,34.0689186 206.874167,32.0162035 204.074167,32.4144419 C202.300833,34.0132151 202.930833,36.8657326 202.9875,38.8619128 C203.559167,43.2558372 204.074167,47.4219593 204.644167,51.9879826 C205.160833,52.5001221 204.703333,53.3564593 205.045,53.9267965 C206.819167,66.0252616 208.650833,78.1204012 210.250833,89.8197965 C211.11,95.0118605 211.909167,100.204756 212.710833,105.397651 C213.510833,104.370878 213.455,102.945866 213.854167,101.687134 C217.916667,84.5138314 222.148333,67.3372035 225.75,49.9327733 C225.98,46.9663547 226.836667,43.4844709 224.261667,41.3170233 C222.263333,39.3200116 219.686667,38.6357733 217.400833,37.2066047 C217.456667,33.2716105 217.284167,28.1926163 217.516667,24.0830291 C218.485833,23.912593 219.4,24.7689302 220.260833,25.168 C224.261667,26.5389709 227.8125,28.9350523 231.698333,30.4756279 C235.8175,32.7004419 239.9925,34.8687209 244.0525,37.2066047 C244.339167,42.3437965 244.0525,47.2515233 243.766667,52.1584186 C242.109167,50.9595465 240.2775,49.875407 238.105833,50.3326744 C234.615833,54.7823023 234.845833,61.0601686 233.183333,66.3669651 C227.8675,88.6217558 223.12,110.648744 217.116667,132.670744 C216.714167,133.869616 216.656667,135.524093 215.914167,136.382924 C212.020833,136.038727 207.734167,136.495163 203.9575,135.925657 C203.559167,135.06932 203.559167,133.473041 203.3875,132.503634 C200.699167,106.137593 198.068333,79.261907 193.490833,53.0704593 C192.065,44.5112442 191.778333,35.4390581 188.458333,27.6214477 C186.971667,25.3974651 184.568333,24.7689302 182.281667,24.198593 C182.1675,20.0898372 182.451667,15.8089826 182.509167,12.1574942 C192.235,14.8387442 202.073333,18.0928256 211.625,21.4599767" id="Fill-7" fill="#D02139"></path>
            <path d="M228.574167,137.752233 C228.419167,137.692372 228.1975,137.660779 227.9125,137.660779 L227.635,137.660779 L227.635,138.928657 L228.078333,138.928657 C228.345833,138.928657 228.553333,138.874616 228.7025,138.768198 C228.851667,138.661779 228.926667,138.488017 228.926667,138.249407 C228.926667,138.010797 228.809167,137.844517 228.574167,137.752233 Z M226.486667,141.256564 L226.486667,136.89257 C226.7575,136.89257 227.165,136.893401 227.705,136.895895 C228.246667,136.896727 228.546667,136.899221 228.6075,136.903378 C228.954167,136.92832 229.241667,137.002314 229.47,137.127855 C229.86,137.342355 230.054167,137.689047 230.054167,138.169593 C230.054167,138.53707 229.950833,138.801453 229.745,138.96607 C229.539167,139.129855 229.286667,139.227128 228.985833,139.259552 C229.261667,139.316919 229.47,139.400058 229.61,139.509802 C229.8675,139.715988 229.996667,140.041895 229.996667,140.486692 L229.996667,140.876616 C229.996667,140.919849 230,140.96225 230.005,141.005483 C230.011667,141.047884 230.020833,141.090285 230.036667,141.133517 L230.075833,141.256564 L228.98,141.256564 C228.944167,141.117721 228.920833,140.915692 228.908333,140.65214 C228.8975,140.388587 228.873333,140.210669 228.8375,140.117552 C228.780833,139.964576 228.673333,139.857326 228.5175,139.797465 C228.431667,139.761715 228.301667,139.737605 228.126667,139.727628 L227.875833,139.711 L227.635,139.711 L227.635,141.256564 L226.486667,141.256564 Z M225.894167,136.786151 C225.265833,137.427157 224.9525,138.187052 224.9525,139.066669 C224.9525,139.977878 225.271667,140.751907 225.910833,141.389587 C226.545,142.026436 227.3125,142.34486 228.211667,142.34486 C229.1075,142.34486 229.8725,142.024773 230.506667,141.384599 C231.1425,140.739436 231.46,139.96707 231.46,139.066669 C231.46,138.190378 231.144167,137.430483 230.5125,136.786151 C229.874167,136.131012 229.1075,135.803442 228.211667,135.803442 C227.305833,135.803442 226.533333,136.131012 225.894167,136.786151 Z M230.975833,141.888424 C230.208333,142.630029 229.2875,143 228.2125,143 C227.1025,143 226.1675,142.620884 225.408333,141.86182 C224.6475,141.104419 224.2675,140.171593 224.2675,139.063343 C224.2675,137.912692 224.6775,136.957419 225.5,136.19586 C226.269167,135.482523 227.175,135.127517 228.2125,135.127517 C229.301667,135.127517 230.231667,135.510791 231.0025,136.280663 C231.774167,137.049703 232.159167,137.976709 232.159167,139.063343 C232.159167,140.182401 231.765,141.123541 230.975833,141.888424 Z" id="Fill-8" fill="#0A0B09"></path>
        </g>
    </g>
</svg>