<?xml version="1.0" encoding="UTF-8" standalone="no"?>
<svg width="250px" height="250px" viewBox="0 0 250 250" version="1.1" xmlns="http://www.w3.org/2000/svg" xmlns:xlink="http://www.w3.org/1999/xlink">
    <!-- Generator: Sketch 47.1 (45422) - http://www.bohemiancoding.com/sketch -->
    <title>NMEX</title>
    <desc>Created with Sketch.</desc>
    <defs></defs>
    <g id="Page-1" stroke="none" stroke-width="1" fill="none" fill-rule="evenodd">
        <g id="NMEX" fill-rule="nonzero">
            <g id="Group" transform="translate(24.000000, 0.000000)">
                <path d="M183.485795,170.184746 L192.386775,193.982042 L173.256705,236.004435 L171.836242,236.818056 C170.736813,237.446962 141.144572,249.47535 101.921331,249.47535 C62.7068854,249.47535 32.6968621,236.897219 31.5754441,236.277108 L30.2341403,235.533855 L8.84804076,197.399248 L20.2689128,169.014892 L0.861786013,133.149626 L18.9979725,94.1002456 C19.2354492,93.9419195 44.9181186,75.9894958 98.4339413,4.68556498 L101.921331,0.0413319042 L105.399926,4.68556498 C158.915748,75.9894958 183.969544,93.4889308 183.969544,93.4889308 L202.677434,133.321146 L183.485795,170.184746 L183.485795,170.184746 Z" id="Shape" fill="#9FA0A2" transform="translate(101.769610, 124.758341) scale(-1, 1) rotate(-180.000000) translate(-101.769610, -124.758341) "></path>
                <path d="M186.256357,116.107577 C188.455216,116.837637 197.364991,119.775466 197.364991,119.775466 L194.655997,125.849032 C191.06746,133.932461 184.105873,146.312684 178.62192,155.737487 C176.511016,159.361396 174.611202,162.563102 173.212728,164.898412 C175.446768,167.158958 187.848331,179.891017 187.848331,179.891017 L170.200291,219.182284 C170.200291,219.182284 143.110352,232.626811 102.013683,232.626811 C60.9170144,232.626811 32.4549876,219.366998 32.4549876,219.366998 L13.8042682,182.257113 C13.8042682,182.257113 26.7907276,168.777402 30.612344,164.898412 C29.2358585,162.598286 27.3712263,159.453753 25.3042992,155.895813 C19.798357,146.449021 12.7796001,133.97644 9.16907413,125.849032 L6.17862631,119.12457 C6.17862631,119.12457 15.9195703,116.965177 17.8633614,116.538576 C16.3373534,114.190072 14.8729136,111.388579 13.808666,108.200067 L12.4013964,103.969241 L16.0558995,101.383247 C16.328558,101.18534 43.6999509,81.4077677 97.101433,10.2577651 L101.916933,3.84555692 L106.723639,10.2577651 C160.129518,81.4077677 187.505309,101.18534 187.77357,101.383247 L191.410482,103.960445 L190.020803,108.200067 C188.974147,111.331406 187.63724,113.956981 186.256357,116.107577" id="Shape" fill="#FFFFFF" transform="translate(101.771809, 118.236184) scale(-1, 1) rotate(-180.000000) translate(-101.771809, -118.236184) "></path>
                <path d="M101.908138,7.42407924 C63.5318972,7.42407924 36.9661661,19.1268429 36.9661661,19.1268429 L18.2688309,54.2896685 L38.1686779,70.6581273 C38.1686779,70.6581273 20.9039432,98.9893564 14.6546109,113.036754 L28.8989933,116.190892 C28.8989933,116.190892 22.4083143,121.439579 19.5058209,130.147516 C19.5058209,130.147516 46.9718526,149.380622 101.90849,222.578309 C156.841257,149.378863 184.304123,130.147516 184.304123,130.147516 C181.401629,121.439579 175.749331,117.462075 175.749331,117.462075 L189.148648,113.036684 C182.908111,98.9896379 165.648302,70.6580569 165.648302,70.6580569 L182.729036,56.306673 L165.570902,19.3040978 C165.570902,19.3040978 140.276991,7.42963824 101.906027,7.42963824 L101.908138,7.42407924 Z M13.7954728,54.1865806 L25.2914578,80.5461217 C27.3627827,76.9883577 29.2265353,73.8510375 30.6031968,71.5510867 C26.7817563,67.6675227 13.7958246,54.1862288 13.7958246,54.1862288 L13.7954728,54.1865806 Z M187.839535,56.5473991 C187.839535,56.5473991 175.437269,69.2835047 173.203228,71.5486238 C174.601703,73.8839342 176.500144,77.0847607 178.611014,80.7086699 L187.839184,56.5481028 L187.839535,56.5473991 Z M197.349511,116.669107 C197.349511,116.669107 188.44431,119.60859 186.245451,120.338755 C187.621936,122.489352 188.961868,125.114223 190.004268,128.24134 L191.399153,132.481314 L197.349793,116.669459 L197.349511,116.669107 Z M191.398872,132.480962 L187.763895,135.057878 C187.495634,135.255786 160.121251,155.037228 106.715723,226.190397 L101.905675,232.601901 L97.0889434,226.190397 C43.6865819,155.042154 16.3116708,135.258424 16.0372532,135.061396 L12.3896105,132.478921 L23.2466952,153.064836 C23.2466952,153.064836 46.9676308,169.013203 101.902509,242.213001 C156.835276,169.013555 180.551286,153.064836 180.551286,153.064836 L191.394298,132.483847 L191.398872,132.480962 Z M12.390666,132.473925 L13.7993076,128.247673 C14.8635552,125.059161 16.3274322,122.253798 17.8532994,119.905293 C15.9095083,119.478692 6.16487025,117.321517 6.16487025,117.321517 L12.390279,132.473679 L12.390666,132.473925 Z" id="Shape" fill="#000000" transform="translate(101.757332, 124.818540) rotate(-360.000000) translate(-101.757332, -124.818540) "></path>
                <path d="M107.027081,12.495441 L105.803953,12.9696102 C106.124986,13.1895076 106.452634,13.3997999 106.73845,13.6636767 C107.815891,14.6620109 108.450253,15.9036044 108.525014,17.1614176 C108.525014,17.1746114 108.53205,17.1957919 108.53205,17.1957919 C108.558437,17.7983108 108.614516,22.4729777 108.614516,22.521531 C108.676084,23.7573544 105.484432,25.9689593 103.25493,27.1256548 C102.705216,27.4203173 102.153038,27.708119 101.598926,27.9983836 C102.205811,28.1435159 102.817375,28.2861748 103.419862,28.4313176 C105.807823,29.0030509 109.176298,30.4530015 109.246662,31.6404475 L110.016262,47.0677454 C110.016262,47.0677454 101.926221,51.8024003 101.763682,51.8024003 C101.600966,51.8024003 83.6711207,51.8298435 83.6711207,51.8298435 L81.8433239,53.7676849 L102.113986,53.7676849 L111.610241,48.23577 C111.610241,48.23577 110.620755,31.6790791 110.620755,31.674857 C110.480028,29.6034235 107.378547,28.2221864 105.316052,27.545008 C107.215866,26.4015415 110.00226,24.4268628 109.892493,22.5974924 C109.892493,22.4215745 109.783359,17.8737444 109.748177,17.2580317 C109.655825,15.6835663 108.868634,14.140168 107.549319,12.9220068 C107.382206,12.7724766 107.207387,12.636689 107.027081,12.4959688 L107.027081,12.495441 Z M82.6334705,12.6947244 L81.6508446,13.5880707 C81.831151,13.6936215 82.0254597,13.7859784 82.1661867,13.9179168 C82.7906625,14.5028439 83.0297928,15.3368004 82.8670773,16.4055018 C80.4087533,31.5914403 78.1808697,45.383757 78.1808697,45.383757 L70.2305003,51.8983494 L56.3847269,52.0014373 L55.3059141,53.7674773 L70.4231555,53.7674773 L79.5690003,46.1949145 C79.5690003,46.1949145 83.4615079,20.466567 84.0905574,16.3370697 C84.2972502,14.960512 83.9622145,13.8338281 83.1354436,13.0729831 C82.9859212,12.9322487 82.8141288,12.8093806 82.6338224,12.695041 L82.6334705,12.6947244 Z M133.291656,14.9901014 L132.383968,15.4436178 C132.537888,15.5535665 132.710489,15.6522459 132.851216,15.7665925 C133.963839,16.6901616 134.7219,17.8663488 135.091308,19.2780901 C136.560146,24.8810759 142.100214,45.9475986 142.100214,45.9475986 L136.833508,51.9323262 L122.99653,51.851404 L122.701074,53.7686278 L137.818315,53.7686278 L143.830874,46.7801125 C143.830874,46.7801125 137.445037,23.3548824 136.402954,19.5198717 C135.936796,17.8134679 134.983054,16.3673522 133.558193,15.1975684 C133.473757,15.1194609 133.378766,15.0585933 133.290812,14.9882261 L133.291656,14.9901014 Z M100.810468,16.0689708 L95.4438453,16.1445592 L94.8872702,25.8063232 L96.2684349,24.4388428 L96.6051242,17.2782798 L99.566723,17.2370482 L100.810468,16.0688477 L100.810468,16.0689708 Z M120.641359,17.0310307 L124.729828,44.3876746 L125.959817,42.7453049 L122.063791,18.3022136 L126.035458,18.7420084 L127.073038,17.7730877 L120.641464,17.0309252 L120.641359,17.0310307 Z M75.0493431,17.7525757 L68.4735242,18.7146356 L61.2517687,44.916906 L63.1963689,43.2539188 L69.477013,19.6288458 L73.5172839,19.044728 L75.0496245,17.7528219 L75.0493431,17.7525757 Z M51.1025406,17.8419103 L49.2953602,19.1750515 L37.5932102,46.3666843 L39.7439755,44.8686377 L51.1023999,17.8420158 L51.1025406,17.8419103 Z M162.368308,21.4633566 L161.256565,21.8208218 L162.966398,25.5316344 L148.707239,21.7522138 L151.753978,30.1287215 L152.777766,29.242447 L150.487435,23.1057263 L164.933057,26.9129419 L162.368308,21.4633566 L162.368308,21.4633566 Z M100.606766,31.2830949 L94.5667646,31.3311979 L93.8177805,44.2706645 L95.3982146,42.5252421 L95.8586029,32.7948701 L99.2049843,32.7673918 L100.606766,31.2830667 L100.606766,31.2830949 Z M146.85668,33.5370256 L146.994099,34.8357924 C148.652039,35.6538108 150.565398,36.2117872 152.662933,36.4712661 L159.190905,37.3508557 L160.214764,36.3544566 C160.214764,36.3544566 154.847789,35.5512858 152.19579,35.1862561 C150.190431,34.9179813 148.347611,34.346248 146.856609,33.5370256 L146.85668,33.5370256 Z M166.055355,33.7981547 C166.31482,33.9432869 166.589413,34.0864947 166.818095,34.2448103 C167.98349,35.0408388 168.830068,35.9971287 169.401771,37.2065644 C169.410567,37.2241561 174.335306,47.7479179 174.335306,47.7479179 L169.690261,52.3038402 L150.532749,52.0564644 L149.467692,53.7675477 L170.899704,53.7675477 L176.197722,48.4555302 C176.197722,48.4555302 172.649644,41.0184242 170.996102,37.570433 C170.34524,36.1894773 169.346677,35.0336262 167.965793,34.0175947 L166.05553,33.7976973 L166.055355,33.7981547 Z M49.7093438,44.1540908 L47.6410445,45.7346077 L45.3116264,52.1253539 L25.233408,52.407104 L22.9726998,53.7677236 L46.2943227,53.7677236 L49.7094141,44.1541611 L49.7093438,44.1540908 Z M163.631333,58.0283852 C126.039645,65.3683845 116.238012,90.2572518 116.238012,90.2572518 C116.805318,83.2293309 120.402123,76.1700966 120.402123,76.1700966 C114.548585,69.5203993 91.3497464,69.3462405 91.3497464,69.3462405 C113.324964,63.7830122 124.566233,72.335473 124.566233,72.335473 L127.878277,68.1919023 C118.410168,66.441519 116.815731,64.6941615 102.096747,64.6941615 C89.2993898,64.6941615 86.4099136,66.0162902 79.6683888,67.5115925 C86.3662882,76.3996695 88.9996414,87.3093952 88.9996414,87.3093952 C72.8202633,66.1464695 41.1278492,59.8704218 41.1278492,59.8704218 C41.1278492,59.8704218 81.6501761,76.0105391 89.0770412,101.700185 C91.9003758,104.422515 93.1999892,106.627294 93.1999892,106.627294 L93.4817246,107.012132 C94.0446324,101.111845 91.2582387,91.5207998 91.2582387,91.5207998 C98.7561709,100.980962 99.4077367,113.036265 99.4077367,113.036265 C99.4077367,113.036265 91.3314167,116.024407 85.3899246,103.903662 C80.7853386,96.5942726 70.1548244,92.4436652 70.018671,92.3866678 C70.0876624,92.4442634 76.3401259,97.3317206 79.8241735,102.907263 C83.3291542,108.519045 86.8443377,118.325765 98.0539434,116.575382 L93.8486701,120.079983 L96.9545492,140.688416 L95.2366953,137.087728 C82.1624574,112.212934 61.6887962,126.916857 58.2395786,129.652381 C58.0680676,129.788717 57.0453344,130.640829 56.693517,130.944287 C56.693517,130.944287 61.5007498,121.541474 71.7695958,114.122312 C71.7695958,114.122312 68.2158884,107.348065 69.3989447,101.718691 C69.3989447,101.718691 59.1505041,88.1811037 40.2227286,93.7886633 C40.2227286,93.7886633 48.7634475,97.7021333 54.0273393,103.278731 C54.0273393,103.278731 55.8787783,105.089032 56.6659697,106.755855 C48.8422546,104.262218 31.1043255,110.61092 31.1043255,110.61092 C31.1043255,110.61092 39.3565542,109.292098 49.4097361,116.232201 L54.5564727,119.778003 C43.8964058,119.778003 30.4035052,125.687789 30.4035052,125.687789 C30.4035052,125.687789 39.5141683,126.045395 66.1551884,143.918515 L62.6507705,148.824866 C62.6507705,148.824866 74.6403554,152.650025 77.9122571,167.598474 C80.2210587,178.157772 84.8831668,191.01139 88.4804996,196.803664 C91.0971415,201.008102 95.5256429,203.99167 102.003656,203.99167 C102.043236,203.99167 102.064662,203.984633 102.099843,203.984633 C102.130451,203.984633 102.160848,203.99167 102.19603,203.99167 C108.66947,203.99167 113.102369,201.008208 115.719187,196.803664 C119.321093,191.011742 123.97423,178.158124 126.28743,167.598474 C129.563729,152.649673 141.54188,148.824866 141.54188,148.824866 L138.051183,143.918515 C164.687981,126.045255 173.79583,125.687789 173.79583,125.687789 C173.79583,125.687789 160.307151,119.778003 149.642862,119.778003 L154.782562,116.232201 C164.870926,109.217298 173.095009,110.61092 173.095009,110.61092 C173.095009,110.61092 155.354266,104.262042 147.526329,106.755855 C148.31352,105.089032 150.17182,103.278731 150.17182,103.278731 C155.435711,97.7021333 163.983467,93.7886633 163.983467,93.7886633 C145.055691,88.1811037 134.800566,101.718691 134.800566,101.718691 C135.983552,107.348065 132.436775,114.122312 132.436775,114.122312 C142.696474,121.541826 147.505818,130.944287 147.505818,130.944287 C146.956103,130.464911 146.411349,130.012204 145.87043,129.576807 C142.13237,126.630182 121.758625,112.223208 108.894422,137.177165 L107.238418,140.688662 L110.344297,120.08023 L106.139024,116.575628 C117.357777,118.326011 120.863989,108.519291 124.368793,102.907509 C127.878172,97.2999498 134.181332,92.3869141 134.181332,92.3869141 C134.181332,92.3869141 123.447736,96.5505394 118.816763,103.903908 C112.871049,116.024653 104.798951,113.036511 104.798951,113.036511 C104.798951,113.036511 105.439083,100.980856 112.941765,91.5210461 C112.941765,91.5210461 110.154421,101.110332 110.708533,107.016952 L111.00399,106.632114 C111.00399,106.632114 112.301035,104.422972 115.119901,101.705005 C122.569635,75.9154378 163.632001,58.0351405 163.632001,58.0351405 L163.631333,58.0283852 Z M38.1099244,63.0103807 C43.017777,66.5199432 46.9887399,71.3407979 49.8120744,75.4484813 C49.8120744,75.4484813 59.3874883,77.498488 74.2605685,88.2162521 C50.58748,64.5377001 38.1113317,63.0103807 38.1113317,63.0103807 L38.1099244,63.0103807 Z M166.0835,63.0103807 C166.0835,63.0103807 162.21386,63.4864498 154.711355,67.9856913 C152.609246,69.2479024 150.220757,70.8187791 147.551167,72.7889542 C147.269713,73.0044537 147.207582,73.043226 147.207582,73.043226 L141.607353,85.1583413 C144.0217,84.6261895 146.698151,84.0946008 149.530281,83.6328162 C149.530281,83.6328162 155.749005,70.394641 166.083641,63.0106622 L166.0835,63.0103807 Z" id="Shape" fill="#9FA0A2" transform="translate(99.585211, 108.243556) rotate(-360.000000) translate(-99.585211, -108.243556) "></path>
                <path d="M74.4417544,124.477752 C67.6196634,123.558088 64.4093298,138.420654 64.4093298,138.420654 C68.6177694,137.057291 74.3523928,138.874206 74.3523928,138.874206 C71.5818309,141.187527 70.6554957,146.508692 70.6554957,146.508692 C84.9832589,160.846002 82.3608121,171.875 86.8376883,186.283734 C90.1007946,196.799403 96.9362547,198.536065 102.099175,198.536065 C107.262095,198.536065 114.464501,196.799157 117.353625,186.283734 C121.355548,171.739544 119.210552,160.847058 133.542854,146.508692 C133.542854,146.508692 132.620987,141.187527 129.845957,138.874206 C129.845957,138.874206 135.584802,137.057291 139.78902,138.420654 C139.78902,138.420654 135.598523,119.009871 126.609589,125.927667 C121.512458,129.850637 123.501212,138.433321 121.517736,149.511576 C119.208934,162.459134 119.901029,170.786737 102.099175,170.786737 C84.2929932,170.786737 84.9825552,162.459134 82.6735777,149.511576 C80.6946049,138.432969 82.6901131,129.850637 77.588761,125.927667 C76.4656895,125.062925 75.4162182,124.609092 74.4416489,124.477717 L74.4417544,124.477752 Z M83.8074852,127.013433 C83.8074852,127.013433 90.281277,144.333256 91.2354057,159.462197 C91.7895181,168.244723 102.105859,167.783818 102.105859,167.783818 C102.105859,167.783818 112.883433,168.253589 112.962592,159.462197 C113.098921,145.960496 121.52442,127.013433 121.52442,127.013433 C121.52442,127.013433 112.309267,135.771682 107.678647,150.535418 C107.63467,150.438663 107.009385,150.205572 102.105859,150.205572 C96.8198031,150.205572 96.3744023,150.476872 96.3613851,150.556035 C91.7392082,135.77893 83.8071333,127.013292 83.8071333,127.013292 L83.8074852,127.013433 Z" id="Shape" fill="#000000" transform="translate(102.099175, 161.486416) rotate(-360.000000) translate(-102.099175, -161.486416) "></path>
                <path d="M100.641595,10.4477564 C96.4415994,10.48294 87.3935598,10.9974999 87.3935598,10.9974999 L81.8418814,53.7666646 L83.6642955,51.8315674 L88.4384575,11.9685669 L100.62893,11.5136431 C102.625494,11.522439 104.404634,12.0424876 105.803108,12.9704546 L107.026237,12.4962854 C105.359502,11.1856969 103.131618,10.4616891 100.64251,10.4484953 L100.641595,10.4477564 Z M116.817104,11.2998677 C113.447256,11.408701 111.543361,13.0802274 111.766765,15.8969547 C113.094876,33.1369109 114.096183,46.0711 114.096183,46.0711 L122.692489,53.767509 L122.994841,51.8502851 L115.532442,45.2533631 C115.532442,45.2533631 113.510864,22.0265684 112.983138,15.9795658 C112.750059,13.3891744 114.820012,12.0608182 118.501042,12.3992843 C121.412331,12.7203345 124.344377,13.0952508 127.317234,13.5262497 C129.40615,13.8648917 131.092939,14.5243024 132.381646,15.4434735 L133.282298,14.9885498 C131.688565,13.7659202 129.609325,12.9144775 127.090312,12.5010704 C124.152637,12.0524797 121.239589,11.6654603 118.34765,11.3533819 C117.809369,11.303773 117.299234,11.2830147 116.817244,11.2984955 L116.817104,11.2998677 Z M79.257079,11.9525231 C78.7878954,11.9607561 78.2868371,12.0058474 77.759111,12.0762145 C74.8126403,12.5028155 71.828877,12.9912692 68.7986739,13.5674004 C63.6579182,14.6317038 60.113358,17.1916614 58.8556108,20.7758131 C53.9389628,34.9153918 49.6960451,47.1086146 49.6960451,47.1086146 L55.2962743,53.7674597 L56.3819476,52.0014197 L51.4825386,46.3185672 C51.4825386,46.3185672 58.357754,25.9771782 60.2093689,20.5149268 C61.2384348,17.4715468 64.046993,15.4748784 68.5238693,14.577697 C71.5714874,14.0279535 74.5821648,13.5405905 77.5462263,13.1139895 C79.3492904,12.8765003 80.7249667,13.0559929 81.648417,13.5881587 L82.6299875,12.695903 C81.7996985,12.1811672 80.6633283,11.9289009 79.2560588,11.9535294 L79.257079,11.9525231 Z M141.75392,15.8350316 C139.076942,15.9212033 138.289082,17.4232538 138.826694,19.2571981 L141.760781,29.2764273 C142.191757,30.7541378 143.191129,32.174675 144.646774,33.3443533 C145.346011,33.9160865 146.139254,34.4045402 146.996808,34.8355391 L146.859389,33.5367723 C146.322867,33.2421098 145.814913,32.9221503 145.375141,32.5747124 C144.258121,31.677531 143.523702,30.6538998 143.176283,29.5236272 C143.172061,29.5148313 140.152834,19.5181196 140.152834,19.5181196 C139.616313,17.7325527 140.656109,16.0794872 145.423059,17.2229536 C145.423059,17.2229536 148.90496,18.1313938 152.651851,19.208891 C156.4557,20.308378 161.254841,21.8270423 161.254841,21.8270423 L162.368027,21.4628218 C162.368027,21.4628218 147.707444,16.9558047 145.086405,16.2609289 C143.752806,15.9354808 142.646094,15.8061459 141.753744,15.8348909 L141.75392,15.8350316 Z M100.805894,16.0686717 L99.5621493,17.2368723 L99.404113,24.3974353 L96.2638613,24.4386669 L94.8826966,25.8061473 L100.67537,25.723684 L100.805929,16.0689567 L100.805894,16.0686717 Z M75.0447694,17.7522766 L73.5193244,19.0441826 L67.9053743,43.0404424 L63.1917249,43.253479 L61.2471247,44.9164662 L69.0254554,44.6209945 L75.0446991,17.752347 L75.0447694,17.7522766 Z M127.068007,17.7728942 L126.023531,18.7418149 L130.634098,42.9168072 L125.954575,42.7450058 L124.717726,44.3873755 L132.46193,44.6141337 L127.067866,17.7729294 L127.068007,17.7728942 Z M51.1035961,17.8415022 L39.1488412,21.607553 L22.9726294,53.7657005 L25.2330561,52.4076142 L40.2254024,21.9646664 L49.2917365,19.17496 L51.1035961,17.8415022 L51.1035961,17.8415022 Z M152.771785,29.241687 L151.747926,30.1350334 C151.747926,30.1350334 157.087811,31.1196108 159.801378,31.6605584 C162.492781,32.2234958 164.532619,32.9312839 166.054229,33.7976797 L167.964492,34.0175771 C167.836958,33.9208222 167.702282,33.8257175 167.565953,33.7289626 C165.569389,32.3743946 162.942017,31.3483006 159.327093,30.5610679 L152.77168,29.2416835 L152.771785,29.241687 Z M100.604303,31.2826164 L99.2094172,32.7669414 L98.9757753,42.511035 L95.3956815,42.5247566 L93.8221079,44.270179 L100.432405,44.2427358 L100.604197,31.2825108 L100.604303,31.2826164 Z M160.212723,36.3539782 L159.188864,37.3503772 L162.1848,44.8888119 L146.524705,43.8099425 L149.465687,53.7672486 L150.530744,52.0561654 L148.503678,45.4384851 L164.300982,46.3799274 L160.212512,36.3540133 L160.212723,36.3539782 Z M49.706881,44.153475 L39.7363762,44.8681592 L37.5924714,46.3662058 L47.638617,45.733992 L49.7069162,44.153475 L49.706881,44.153475 Z M163.62887,58.0277695 C163.62887,58.0277695 138.984765,60.4622976 124.563067,72.3281372 C124.563067,72.3281372 113.321798,63.7823965 91.34658,69.3457655 C91.34658,69.3457655 114.545771,69.5197484 120.398956,76.1696216 C120.398956,76.1696216 116.802327,83.2358926 116.234846,90.2638135 C116.234846,90.2638135 126.035423,65.3682614 163.628166,58.0282621 L163.62887,58.0277695 Z M41.1260549,59.869419 C41.1260549,59.869419 72.8202281,66.1500406 88.9978471,87.3083925 C88.9978471,87.3083925 86.3641773,76.3990186 79.6665945,67.5105898 C78.6507218,67.7348851 77.549076,67.9666042 76.3133526,68.1908996 L81.9206181,75.2001732 C81.9206181,75.2001732 67.4099099,63.0224311 41.1238736,59.8692783 L41.1260549,59.869419 Z M147.209552,73.0456712 C142.358694,76.6607845 136.583964,81.5643206 129.934615,88.2185918 L141.607916,85.1611384 L147.208849,73.0474304 L147.209552,73.0456712 Z M49.8124263,75.443925 C52.9348056,79.9783853 54.6569517,83.6350152 54.6569517,83.6350152 C65.6026943,85.4161841 74.2612721,88.2183807 74.2612721,88.2183807 C59.388192,77.5007574 49.8127781,75.4435732 49.8127781,75.4435732 L49.8124263,75.443925 Z M112.946057,91.5101568 C105.443551,100.970319 104.789522,113.032659 104.789522,113.032659 C104.789522,113.032659 112.864083,116.020801 118.814019,103.900056 C123.440418,96.5466868 134.178588,92.3830615 134.178588,92.3830615 C124.974342,93.7992008 118.776023,98.1651317 115.117122,101.701082 C112.293787,104.419014 111.00121,106.628191 111.00121,106.628191 L110.712614,107.013029 C110.158502,101.102187 112.945811,91.5104383 112.945811,91.5104383 L112.946057,91.5101568 Z M91.2529966,91.5171935 C91.2529966,91.5171935 94.0378423,101.106479 93.4793322,107.013099 L93.1978783,106.629598 C93.1978783,106.629598 91.8983352,104.424854 89.0749303,101.702489 C85.4118076,98.1753349 79.1916762,93.7960343 70.0134641,92.3844689 C70.1497934,92.4416422 80.7804835,96.5920737 85.3847177,103.901463 C91.3262098,116.022208 99.4025298,113.034066 99.4025298,113.034066 C99.4025298,113.034066 98.7511047,100.978411 91.2530318,91.5186009 L91.2529966,91.5171935 Z M54.0307168,103.274844 C46.7171369,103.266048 35.3136798,106.242368 31.1006666,110.613787 C31.1006666,110.613787 48.8414103,104.262447 56.6693472,106.751685 C55.8777581,105.089261 54.0307168,103.274562 54.0307168,103.274562 L54.0307168,103.274844 Z M150.168337,103.274844 C150.168337,103.274844 148.310037,105.089542 147.522846,106.751967 C155.350783,104.262728 173.091526,110.614069 173.091526,110.614069 C168.87394,106.242509 157.477519,103.266329 150.168513,103.275125 L150.168337,103.274844 Z M73.0710739,103.542837 C73.0710739,103.542837 73.1482978,114.025786 79.8945722,114.606315 C84.3936129,114.993334 85.6802091,116.406729 85.6802091,116.406729 L83.8111792,113.630533 C80.5040958,113.780064 78.7713951,110.955209 78.7538043,109.143219 C78.7450088,108.342793 78.967076,107.596232 79.358508,106.971723 L78.8637824,106.243318 C78.8637824,106.243318 77.7943279,103.133687 73.0711091,103.542696 L73.0710739,103.542837 Z M129.513138,103.542837 C126.144451,103.863993 125.321585,106.243458 125.321585,106.243458 L124.840581,106.971864 C125.22758,107.591975 125.447184,108.342933 125.438389,109.14336 C125.420798,110.955314 123.690032,113.777742 120.373977,113.623637 L118.504947,116.406729 C118.504947,116.406729 119.789925,114.993334 124.297621,114.606315 C131.043719,114.025786 131.114083,103.542837 131.114083,103.542837 C130.523698,103.491715 129.994283,103.496958 129.513032,103.542837 L129.513138,103.542837 Z M49.4043181,116.228278 C45.0417824,116.808807 38.8019492,119.43878 30.3980872,125.683866 C30.3980872,125.683866 43.886766,119.77408 54.5510547,119.77408 L49.4043181,116.228278 Z M154.777144,116.228278 L149.637444,119.77408 C160.301733,119.77408 173.790412,125.690551 173.790412,125.690551 C165.381976,119.445465 159.144254,116.813029 154.777144,116.227926 L154.777144,116.228278 Z M116.907521,118.44787 L107.239579,140.68495 L108.888723,137.173453 C121.747648,112.215274 142.125967,126.624007 145.86473,129.56641 C127.908675,114.617609 117.616257,122.454049 117.616257,122.454049 L116.908506,118.447694 L116.907521,118.44787 Z M87.1747294,118.53034 L86.4738388,122.529658 C86.4738388,122.529658 76.1838838,114.698144 58.2324015,129.655741 C61.6846096,126.91582 82.1468367,112.202572 95.2224818,137.077366 L96.9471962,140.685091 L87.1761719,118.53034 L87.1747294,118.53034 Z M86.9823205,168.955453 C87.1186497,178.481408 90.4730174,185.337633 90.4730174,185.337633 C90.0420411,178.881445 90.5043292,174.137643 90.9265452,171.525261 C90.8078069,171.472486 90.9705224,171.541094 90.5967164,171.374078 C89.1806514,170.727579 87.9982284,169.931551 86.9824964,168.955206 L86.9823205,168.955453 Z M114.392413,170.982625 C114.392413,170.982625 113.501049,171.456513 112.392824,171.834736 C111.561655,172.116205 110.804439,172.361399 110.338281,172.46695 C111.490483,175.580697 113.732756,185.330772 113.732756,185.330772 C114.994901,177.559422 114.392413,170.982555 114.392413,170.982555 L114.392413,170.982625 Z M108.792184,172.570003 C107.9918,172.776706 107.111693,172.922402 106.139798,173.023554 C105.928707,173.04572 105.76075,173.07165 105.844341,173.07165 L105.851378,180.692415 L108.79236,172.569932 L108.792184,172.570003 Z M94.9738525,172.618099 L97.6811928,180.802504 L97.9079391,173.168018 C97.9695072,173.176814 97.6575507,173.137057 97.420074,173.106165 C96.5317351,172.983023 95.7170667,172.82058 94.9738525,172.618275 L94.9738525,172.618099 Z M93.359081,184.719492 C93.3724501,188.62487 93.6729725,191.885685 93.9500287,194.058271 C94.8031859,194.616811 95.6835385,195.030499 96.5542866,195.32956 C95.5164253,192.400526 93.359081,184.719598 93.359081,184.719598 L93.359081,184.719492 Z M110.58582,184.719492 C110.58582,184.719492 108.432873,192.400421 107.390614,195.329454 C108.26576,195.030394 109.14175,194.619168 109.994907,194.065026 C110.271963,191.89244 110.572662,188.629163 110.585855,184.719563 L110.58582,184.719492 Z M99.0279146,190.065638 L99.4127325,196.188285 L101.487892,196.270756 L99.0279146,190.065427 L99.0279146,190.065638 Z M104.916634,190.065638 L102.456657,196.270967 L104.531816,196.188496 L104.916634,190.065849 L104.916634,190.065638 Z" id="Shape" fill="#FFFFFF" transform="translate(98.381521, 103.359362) rotate(-360.000000) translate(-98.381521, -103.359362) "></path>
                <path d="M117.229785,168.946284 C116.407412,169.733516 115.480584,170.401723 114.398746,170.973456 C114.398746,170.973456 115.001233,177.553138 113.739088,185.32871 C113.739088,185.32871 117.093456,178.472485 117.229785,168.94653 L117.229785,168.946284 Z M90.9328428,171.5232 C90.5150596,174.135581 90.0527364,178.879383 90.479315,185.335571 C90.479315,185.335571 92.7191252,175.583385 93.8669294,172.478434 C92.785091,172.214557 91.8123862,171.897061 90.9328428,171.52327 L90.9328428,171.5232 Z M105.843919,173.062482 C105.228239,173.115257 102.463165,173.17243 102.463165,173.17243 L105.85764,180.690107 L105.843919,173.062306 L105.843919,173.062482 Z M97.9209916,173.17243 L97.6873496,180.800231 L101.30157,173.351163 C101.30157,173.351163 98.5320984,173.242868 97.9208157,173.172501 L97.9209916,173.17243 Z M93.3653082,184.716868 C93.3653082,184.716868 92.1771153,187.813305 91.4207079,191.815508 C92.2210925,192.747873 93.0723147,193.475188 93.9562559,194.055717 C93.674802,191.883131 93.3741036,188.622316 93.3653082,184.716938 L93.3653082,184.716868 Z M110.592047,184.716868 C110.578678,188.626468 110.278155,191.890097 110.001099,194.062331 C110.880642,193.477404 111.74066,192.747626 112.536647,191.815261 C111.78024,187.813129 110.592011,184.716622 110.592011,184.716622 L110.592047,184.716868 Z M99.0341418,190.063013 L97.6255001,195.725459 C97.7926134,195.747625 99.2493485,196.16828 99.412064,196.185872 L99.0341418,190.063224 L99.0341418,190.063013 Z M104.922861,190.063013 L104.542898,196.184957 C104.710012,196.167365 106.176105,195.742136 106.343218,195.724545 L104.927716,190.062099 L104.922861,190.063013 Z" id="Shape" fill="#9FA0A2" transform="translate(103.769674, 182.566078) rotate(-360.000000) translate(-103.769674, -182.566078) "></path>
                <path d="M100.634559,11.5127635 L88.4370502,11.9662799 L83.6628882,51.8292805 C83.6628882,51.8292805 101.597131,51.8018373 101.755449,51.8018373 C101.922563,51.8018373 110.015066,47.0601457 110.015066,47.0601457 L109.245466,31.6398845 C109.1795,30.4568365 105.806451,29.0068859 103.418666,28.4307547 C102.816179,28.2856224 102.200217,28.1454369 101.59773,28.0047167 C102.147444,27.7100541 102.697159,27.4197896 103.246874,27.1251271 C105.476516,25.9684667 108.677527,23.7568618 108.620181,22.5210033 C108.620181,22.4726258 108.55038,17.7933851 108.523994,17.1952642 L108.523994,17.1608898 C108.45363,15.9030767 107.814871,14.6614832 106.73743,13.663149 C106.451578,13.3992721 106.123931,13.1845819 105.802932,12.9690824 C104.404458,12.0411154 102.627781,11.5210669 100.635439,11.512271 L100.634559,11.5127635 Z M118.500198,12.3992139 C114.820188,12.0607478 112.751502,13.38928 112.983701,15.9794954 C113.511427,22.0268498 115.533005,45.2603295 115.533005,45.2603295 L122.995404,51.8502147 L136.834493,51.9326851 L142.090996,45.9472538 C142.090996,45.9472538 136.557964,24.8807311 135.089127,19.2777453 C134.719718,17.8616061 133.968518,16.6898168 132.855895,15.7662477 C132.710771,15.6475031 132.535706,15.5532217 132.381786,15.443273 C131.093255,14.5241018 129.406467,13.8621931 127.317375,13.5191531 C124.344518,13.0925522 121.412472,12.7200988 118.501183,12.3990486 L118.500198,12.3992139 Z M79.9304575,13.0589061 C79.2444136,12.9764464 78.4476176,12.9904635 77.5460504,13.1070091 C74.5819888,13.538008 71.5714874,14.0278339 68.5236934,14.5775774 C64.0468171,15.4747588 61.2340371,17.4689643 60.209193,20.5077704 C58.357754,25.9700219 51.4823627,46.3114109 51.4823627,46.3114109 L56.3817716,52.0013001 L70.227545,51.8913514 L78.1779144,45.3837957 C78.1779144,45.3837957 80.4059036,31.591479 82.864122,16.4055405 C83.0268376,15.3368391 82.7877073,14.4960218 82.1632314,13.9110947 C82.0225045,13.7835543 81.8281957,13.6892728 81.6478893,13.58812 C81.186129,13.3220441 80.6160793,13.1414644 79.9300354,13.0589941 L79.9304575,13.0589061 Z M100.805894,16.0687562 L100.675335,25.7234834 L94.8826614,25.8059467 L95.4392365,16.1441827 L100.805859,16.0685943 L100.805894,16.0687562 Z M142.513846,16.8521539 C140.234737,16.9175038 139.747681,18.1759362 140.150055,19.518401 C140.150055,19.518401 143.16907,29.5105389 143.173503,29.5239086 C143.520923,30.6497833 144.255342,31.6822104 145.372362,32.5749938 C145.812134,32.9224317 146.320088,33.2423912 146.856609,33.5370538 C148.351833,34.3462762 150.19036,34.9204723 152.19579,35.1931451 C154.843216,35.5581747 160.214764,36.3544848 160.214764,36.3544848 L164.296549,46.3803989 L148.505929,45.4389565 L150.532995,52.0566368 L169.690508,52.3109086 L174.335553,47.7479496 C174.335553,47.7479496 169.410813,37.2241878 169.402017,37.206596 C168.830314,36.0015583 167.983771,35.0340097 166.818341,34.2379811 C166.58966,34.0840529 166.315066,33.9433186 166.055601,33.7981863 C164.533991,32.9317906 162.491691,32.2240024 159.795714,31.6610651 C157.08672,31.1201175 151.742262,30.1355401 151.742262,30.1355401 L148.699042,21.7537549 L162.965237,25.5331754 L161.262441,21.8293996 C161.262441,21.8293996 156.456615,20.3107353 152.652414,19.2112483 C148.905559,18.1337511 145.430658,17.2253109 145.430658,17.2253109 C144.238877,16.9394443 143.276867,16.832451 142.517188,16.8542297 L142.513846,16.8521539 Z M120.635026,17.0308196 L127.0666,17.7729821 L132.460664,44.6141865 L124.716459,44.3874283 L120.634674,17.0307844 L120.635026,17.0308196 Z M75.0430104,17.7523646 L69.0304512,44.6210121 L61.2450841,44.9164838 L68.4738761,18.7142134 L75.0430104,17.7521535 L75.0430104,17.7523646 Z M49.2956065,19.1816977 L40.2320869,21.9647895 L25.2316489,52.4066818 L45.3098673,52.1249317 L47.6392854,45.7341855 L37.5864553,46.3663993 L49.2952899,19.1814514 L49.2956065,19.1816977 Z M100.604655,31.2830913 L100.432862,44.2433163 L93.8155289,44.2640746 L94.5684181,31.3327002 L100.605605,31.2844987 L100.604655,31.2830913 Z M102.796653,152.919778 C99.4422851,152.938073 95.6864234,153.290577 94.0768589,154.603383 C90.8577297,157.233355 96.6261629,163.151938 96.6261629,163.151938 C96.6261629,163.151938 93.8880385,154.283916 101.065043,156.012133 C107.257029,157.507436 109.104774,153.21532 109.104774,153.21532 C109.104774,153.21532 106.151161,152.901693 102.796688,152.919848 L102.796653,152.919778 Z" id="Shape" fill="#BA0C2F" transform="translate(99.783601, 87.332104) rotate(-360.000000) translate(-99.783601, -87.332104) "></path>
            </g>
        </g>
    </g>
</svg>