<?xml version="1.0" encoding="UTF-8" standalone="no"?>
<svg width="250px" height="250px" viewBox="0 0 250 250" version="1.1" xmlns="http://www.w3.org/2000/svg" xmlns:xlink="http://www.w3.org/1999/xlink">
    <!-- Generator: Sketch 47.1 (45422) - http://www.bohemiancoding.com/sketch -->
    <title>BYU</title>
    <desc>Created with Sketch.</desc>
    <defs></defs>
    <g id="Page-1" stroke="none" stroke-width="1" fill="none" fill-rule="evenodd">
        <g id="BYU" fill-rule="nonzero">
            <g id="BYU_Cougars_logo" transform="translate(0.000000, 44.000000)">
                <path d="M153.961806,35.1892361 C156.954282,35.5827546 167.234954,37.5827546 170.689815,38.9467593 L136.137731,80.7204861 L96.9594907,35.1041667 C100.079282,34.2980324 109.000579,33.3923611 113.025463,33.1649306 C112.699074,29.859375 110.909144,13.2141204 110.909144,13.2141204 C89.3697917,13.9496528 53.7002315,23.2314815 32.0451389,42.2824074 C33.5833333,44.1267361 41.4380787,54.2673611 44.1012731,57.4172454 C47.4369213,54.2112269 54.9351852,49.1278935 57.4137731,47.9907407 L105.766782,102.826968 C105.766782,102.826968 105.68287,126.307292 105.724537,127.465856 C102.01331,127.140046 91.6267361,125.624421 89.0746528,124.825231 C88.5902778,127.796875 85.7916667,141.396412 85.3061343,143.752894 C114.768519,150.805556 146.821181,148.633102 167.435764,143.115162 C165.350116,133.966435 163.41956,128.268519 162.72338,124.590278 C158.688079,125.492477 147.433449,127.255208 145.230903,127.418981 L145.261574,102.847222 L191.167824,46.9085648 C191.167824,46.9085648 200.774884,52.0572917 205.844907,57.1510417 C208.234954,54.1678241 213.374421,46.8165509 217.09838,42.0318287 C199.936343,28.2054398 178.624421,19.369213 156.289931,15.6290509 C155.968171,20.5329861 154.355903,31.8084491 153.961806,35.1892361 Z" id="Shape" fill="#FFFFFF"></path>
                <path d="M125,0.25 C56.1799769,0.25 0.387152778,36.3744213 0.387152778,80.9334491 C0.387152778,125.493634 56.1799769,161.616319 125,161.616319 C193.824653,161.616319 249.615741,125.493634 249.615741,80.9334491 C249.615741,36.3744213 193.824653,0.25 125,0.25 Z M205.844907,57.1527778 C200.774306,52.0590278 191.167824,46.9103009 191.167824,46.9103009 L145.261574,102.848958 L145.230903,127.420718 C147.433449,127.257523 158.688079,125.494213 162.72338,124.592014 C163.418981,128.269676 165.350116,133.968171 167.435764,143.116898 C146.821181,148.634259 114.768519,150.806713 85.3061343,143.75463 C85.7916667,141.398148 88.5902778,127.798611 89.0746528,124.826968 C91.6267361,125.626157 102.01331,127.141204 105.724537,127.467593 C105.68287,126.309028 105.766782,102.828704 105.766782,102.828704 L57.4131944,47.9918981 C54.9346065,49.1290509 47.4363426,54.2123843 44.1006944,57.4184028 C41.4375,54.2685185 33.5827546,44.1278935 32.0445602,42.2835648 C53.6996528,23.2320602 89.3697917,13.9508102 110.908565,13.2152778 C110.908565,13.2152778 112.697917,29.8605324 113.024884,33.166088 C109,33.3935185 100.078704,34.2991898 96.958912,35.1053241 L136.137153,80.7216435 L170.689815,38.9467593 C167.234375,37.5827546 156.954282,35.5827546 153.961806,35.1892361 C154.355903,31.8084491 155.968171,20.5329861 156.289931,15.6290509 C178.624421,19.3686343 199.936343,28.2054398 217.09838,42.0329861 C213.374421,46.818287 208.234954,54.1695602 205.844907,57.1527778 Z" id="Shape" fill="#002255"></path>
            </g>
        </g>
    </g>
</svg>