<?xml version="1.0" encoding="UTF-8" standalone="no"?>
<svg width="250px" height="250px" viewBox="0 0 250 250" version="1.1" xmlns="http://www.w3.org/2000/svg" xmlns:xlink="http://www.w3.org/1999/xlink">
    <!-- Generator: Sketch 47.1 (45422) - http://www.bohemiancoding.com/sketch -->
    <title>SMU</title>
    <desc>Created with Sketch.</desc>
    <defs></defs>
    <g id="Page-1" stroke="none" stroke-width="1" fill="none" fill-rule="evenodd">
        <g id="SMU" fill-rule="nonzero">
            <g id="SMU_Mustang_logo" transform="translate(0.000000, 60.000000)">
                <g id="Group" transform="translate(125.158795, 65.207655) scale(-1, 1) rotate(-180.000000) translate(-125.158795, -65.207655) translate(0.464169, 0.570033)">
                    <g transform="translate(0.874898, 0.013538)" id="Shape">
                        <path d="M246.841994,71.626591 C246.869138,72.4477011 246.845387,73.0041559 246.081958,74.0967075 C241.33852,80.8657766 239.445217,87.2853649 237.775852,92.9517035 L237.253328,94.7058933 C237.009031,95.5236104 236.846166,96.2904323 236.686694,97.0402891 C236.167562,99.5171916 235.672182,101.85498 232.340239,104.827263 C227.352504,109.272116 225.269191,112.519233 224.383614,117.235527 C224.241107,117.99217 224.10878,118.789529 223.976452,119.590281 C223.284276,123.801015 222.629424,127.781024 220.145736,127.781024 C219.670713,127.781024 219.175333,127.614766 218.676559,127.289037 C217.410964,126.457747 216.352342,123.505822 215.23604,117.713942 C215.113891,117.079448 215.110498,116.550137 215.110498,116.122617 C215.107105,115.895285 215.107105,115.610272 215.09014,115.562769 C215.029066,115.51866 214.798341,115.467765 214.051877,115.467765 L213.939907,115.467765 C210.071868,115.508481 206.112217,115.881713 200.225332,119.919403 C198.013085,121.432689 196.577839,122.107899 195.573506,122.107899 C194.131473,122.107899 193.771814,120.866055 193.602163,120.265491 C193.561447,120.136556 193.463049,119.790469 193.371438,119.739573 C193.256075,119.739573 192.977848,119.773504 192.434965,120.017801 C191.267767,120.533539 190.032709,121.198571 188.777292,121.873781 C186.303783,123.203844 183.965994,124.462653 182.232162,124.462653 C181.512843,124.462653 180.915672,124.252286 180.450828,123.841731 C179.280238,122.793289 179.877409,121.592161 180.199745,120.947488 C180.583156,120.17388 180.600121,119.990657 180.325287,119.647962 C180.325287,119.647962 180.26082,119.610639 180.03688,119.610639 C179.253093,119.610639 177.665161,120.055124 175.256119,120.733728 L173.674973,121.178213 C169.684785,122.291122 166.838044,124.197998 164.55115,125.728249 C162.634096,127.017595 161.249745,127.943889 159.868787,127.943889 C158.979816,127.943889 158.202815,127.543513 157.551356,126.75294 C157.086513,126.186306 156.882932,125.50431 156.957578,124.788383 C157.18491,122.623638 159.909503,120.435142 162.315152,118.504515 C162.946253,117.998956 164.137202,117.042125 164.642762,116.522993 C164.469718,116.465312 164.205063,116.421203 163.80808,116.421203 C161.952099,116.421203 158.925528,117.381427 155.990568,118.314506 C153.167578,119.213656 150.497274,120.058517 148.807551,120.058517 C147.443558,120.058517 146.880317,119.481704 146.649592,118.996503 C145.631687,116.865688 148.488607,114.375213 151.413388,112.220648 L151.501607,112.15618 C151.766262,111.959385 152.078419,111.786341 152.404149,111.606512 C152.546656,111.528472 152.668804,111.457219 152.770595,111.396144 C152.421114,111.178991 151.691616,110.809152 150.198688,110.276449 C144.800398,108.345822 135.87337,106.045356 124.001203,106.045356 C119.149189,106.045356 114.168239,106.438946 109.194076,107.212554 C106.442339,107.640075 103.731319,107.857228 101.135661,107.857228 C89.6536909,107.857228 81.6325984,103.710961 74.5581578,100.049895 L72.6987844,99.0930644 C70.8054809,98.1260546 62.2245406,94.5226704 57.6303955,94.5226704 C56.4428395,94.5226704 55.6556595,94.7601816 55.360467,95.2114529 C54.3968502,96.6840223 53.6877096,97.9801548 53.0600014,99.1269946 C51.0649074,102.774488 49.7450237,105.186923 43.8615321,106.245544 C42.463609,106.496628 40.7976376,106.2184 38.6736089,105.780701 C36.3731433,105.305679 33.5060439,104.715294 29.3529909,104.715294 C27.6564824,104.715294 25.8513973,104.817084 23.9954169,105.017272 C14.5526503,106.035177 8.8897048,110.972017 7.85144157,111.952599 C6.39583724,113.326771 4.61111024,113.506601 3.57284701,112.420836 C2.82638325,111.633656 2.47690248,110.276449 2.56512093,108.501901 C2.92138772,101.376565 14.6476548,87.2717929 34.6732418,88.2557678 C36.2272436,88.3304142 37.4215856,88.5068511 38.293591,88.6357857 C39.0434478,88.7443623 39.6338328,88.8325807 40.1733225,88.8325807 C41.3405204,88.8325807 42.4127138,88.4186326 45.032123,86.1453112 C49.4973335,82.2603066 57.7253999,81.1236459 60.8232246,80.6995187 L61.698623,80.5739771 C63.6631799,80.2821776 63.6631799,80.2821776 64.0431978,78.3515509 L64.1958836,77.5406198 C64.5996526,75.3623028 64.9152032,73.6420432 67.3615685,71.2771102 C69.254872,69.448274 69.7841827,67.9757046 70.3440305,66.4149167 C71.1821058,64.083914 72.0473251,61.6714788 77.0113091,58.3870383 C78.2701185,57.5591421 79.4780326,56.7855342 80.6384444,56.0458565 C88.2795189,51.1633049 93.7965647,47.6379601 97.223512,37.1705023 L97.4881673,36.3493922 C98.8860904,32.0029373 99.7309516,29.3767421 106.822357,29.0544054 C109.166932,28.9458289 110.890585,29.0747635 112.271543,29.173161 L112.634596,29.2036982 C114.728087,29.36317 115.742599,29.556572 117.81234,27.5580849 C117.232134,26.6928655 116.102259,25.1388637 114.745052,23.9241636 C114.073235,23.3269926 113.387845,23.2455602 112.746565,23.2455602 C112.424229,23.2455602 112.098499,23.2693113 111.752411,23.2930624 C111.382572,23.3235996 111.01952,23.3507437 110.65986,23.3507437 C109.377299,23.3507437 107.755437,23.0385861 106.581453,20.6227579 L105.695876,18.7973147 C104.406529,16.1507614 103.697389,14.691764 103.347908,13.6127846 C103.242724,13.287055 102.947532,12.1571803 103.602384,11.2546377 C103.894184,10.8542617 104.470997,10.3758463 105.566941,10.3758463 C107.073441,10.3758463 109.255151,11.2716028 112.244399,13.1140111 C114.130916,14.277816 115.104712,14.2981741 116.234587,14.3219252 C117.676619,14.3490693 119.30866,14.3796065 122.420057,16.8836531 C123.112232,17.4401079 123.658508,17.9660255 124.147103,18.4342619 C124.747667,19.0178609 125.148043,19.4046648 125.446628,19.4046648 C125.67396,19.4046648 126.013262,19.1942977 126.491678,18.7701706 C127.648696,17.7285144 128.466413,16.7207883 129.260379,15.7402063 C130.963674,13.6399287 132.568571,11.6550137 136.877703,10.6099645 C139.965348,9.8601077 143.534802,6.04974949 145.183809,3.66785149 C145.227918,3.60338416 145.268634,3.52195175 145.333101,3.39641012 C145.63508,2.80941816 146.262788,1.587932 148.074659,1.587932 C148.251096,1.587932 148.441105,1.60150407 148.644686,1.62525519 C150.483701,1.84919432 153.486522,2.70762765 154.819977,3.12836177 C155.695376,3.40658917 156.312905,4.08519259 156.513093,4.98773514 C156.770962,6.15154 156.292547,7.56642814 155.349288,8.42825448 C154.331383,9.35794116 152.611123,10.721934 151.39303,11.5769743 C152.349861,12.8188186 152.543263,14.2981741 151.895197,15.6282368 C150.71782,18.0304929 148.67183,18.9160703 146.697094,19.7711106 L145.984561,20.0798752 C144.905581,20.5616836 144.098043,21.3624357 143.164964,22.2853363 C142.337067,23.1098395 141.400595,24.0429192 140.114641,24.8911735 C139.9891,24.9726059 139.849986,25.0608243 139.700693,25.1524358 C139.419073,25.3254796 138.672609,25.78693 138.611535,25.983725 C138.611535,25.983725 138.6285,26.0515853 138.760827,26.197485 C142.784946,30.5846561 145.865805,31.5041638 147.745537,31.5041638 C147.826969,31.5041638 147.911794,31.5007708 147.99662,31.4973777 C155.11517,31.1953992 160.676325,30.3946472 167.187525,28.7320688 L167.648975,28.6065272 C168.249539,28.4436624 168.870461,28.2706185 169.549065,28.2706185 C170.485537,28.2706185 171.303254,28.6031342 172.039539,29.2851306 C172.972619,30.15035 173.766585,31.2021853 174.468939,32.1318719 C174.831992,32.6136804 175.174687,33.0649516 175.456307,33.3838953 C176.535287,34.5850233 176.660828,35.7250771 175.934723,37.7507083 C175.792216,38.1476913 175.568277,38.5955695 175.310408,39.1113081 C174.373935,40.9808605 172.806361,44.1058293 173.071016,49.2767874 C173.091374,49.7382377 173.1762,50.203081 173.267811,50.6984615 C173.661401,52.8360623 174.105887,55.2552835 170.99449,60.4364206 C172.633317,69.2786232 176.162055,74.5072625 183.541867,79.0403334 C188.3362,81.9786862 198.722226,85.911193 207.197982,87.9945055 L207.323524,88.0250427 C207.496568,88.0691519 207.65604,88.1132611 207.83587,88.1132611 C208.480543,88.1132611 209.271116,87.4618018 210.180444,86.1826344 C210.54689,85.6702888 210.865834,85.1545502 211.194956,84.6218465 C212.653954,82.2704856 214.163846,79.8376924 219.083721,78.6026342 C221.038099,78.1106467 222.520848,77.6729475 223.776264,76.5464658 C224.237714,76.1325177 224.824706,75.7491068 225.513489,75.3046215 C227.074276,74.2901094 229.015082,73.0313001 230.256927,70.7953018 C230.477473,70.4017118 230.457115,69.7875757 230.433363,69.0682561 C230.392647,67.8162328 230.341752,66.2588379 231.607347,64.8948451 C233.558332,62.7911745 238.166049,61.698623 240.08989,62.2618638 C242.132486,62.8590348 242.787339,63.9549793 243.550768,65.5632694 C244.080078,66.6863581 244.728144,67.3174593 245.355853,67.9349884 C246.122674,68.6848452 246.91664,69.4618461 246.841994,70.836018 C246.825029,71.1583546 246.835208,71.4094379 246.841994,71.626591 M138.380809,44.434952 C136.389108,44.4960263 135.608714,44.8794372 135.432278,45.8532331 C135.215124,47.0679332 134.736709,48.4590702 132.992698,48.4590702 C132.775545,48.4590702 132.54482,48.4387121 132.290344,48.4013889 C131.696566,48.3131705 130.288464,48.2520962 128.707318,48.2520962 C127.204211,48.2520962 125.768965,48.2995984 124.774811,48.3844239 C123.373495,48.5065725 122.308087,47.8856503 121.962,46.8032779 C121.6702,45.9075214 121.693951,44.037969 125.097147,41.5916036 C125.429663,41.3540924 125.735035,41.0826511 126.064157,40.7874586 C127.004023,39.9493833 128.066037,38.9993386 130.414005,38.1850145 C130.746521,38.0696519 131.065465,37.9712544 131.448876,37.8592848 C132.548213,37.5335552 133.057166,37.3401532 133.318428,36.8820959 C132.985912,36.2815319 132.344632,35.5282821 131.713531,34.9989714 C131.191006,35.3484522 130.695626,35.8132955 130.179887,36.305283 C128.75482,37.6455247 127.143137,39.1655964 123.902805,39.7322303 C120.899985,40.2581479 117.629117,41.269267 116.149761,44.7946118 C114.215742,49.3921499 111.867774,58.2377455 111.528472,59.9342541 L111.433468,60.3990974 C111.33507,60.8571547 111.15524,61.708802 111.23328,61.8852389 C111.23328,61.8852389 111.328284,61.9463132 111.650621,61.9463132 C111.850809,61.9463132 112.08832,61.9225621 112.359761,61.8784529 C115.114891,61.4203956 118.117711,60.2803418 121.300361,59.0690347 C126.040406,57.2707356 130.943316,55.4079693 135.924265,55.4079693 C136.979493,55.4079693 138.014364,55.4927947 139.001732,55.6658386 C139.225671,55.7065548 139.44961,55.754057 139.683728,55.8049523 C140.077318,55.8863847 140.447157,55.9644241 140.718598,55.9644241 C140.94593,55.9644241 140.952716,55.944066 141.003612,55.8151313 C141.173263,55.36386 141.38363,54.7497239 141.624534,54.0439764 C141.899368,53.2432243 142.180989,52.4187212 142.408321,51.8520873 C141.495599,49.2937524 140.141785,46.7998849 138.380809,44.434952 M163.543424,38.7007531 C163.468778,38.5412812 163.173585,38.2460888 162.040318,38.0323287 C161.819772,37.9916125 161.494042,37.9712544 161.066522,37.9712544 C159.587166,37.9712544 157.242592,38.2189446 155.142314,38.4632419 L153.947972,38.5989625 C152.974176,38.7075391 152.790953,38.9382643 152.790953,38.9382643 C152.733272,39.1147011 153.06918,39.7322303 153.198115,39.9663484 L153.289727,40.1359993 C153.798679,41.0962231 156.811678,45.629294 157.968697,47.3766978 C158.077274,47.5361696 158.155313,47.624388 158.209601,47.6718903 C158.348715,47.5565277 158.552296,47.2884793 158.626942,47.1866888 C159.071428,46.5963038 162.366047,41.5508874 163.221088,39.9799205 C163.672359,39.1588104 163.597713,38.8127226 163.543424,38.7007531" fill="#354CA1"></path>
                        <path d="M245.009765,71.6944513 C245.030123,72.2780503 245.033516,72.413771 244.575459,73.0652303 C239.665763,80.0752036 237.72835,86.6474777 236.01827,92.4427509 L235.495745,94.1935477 C235.227697,95.0926973 235.058046,95.8968423 234.891788,96.6772363 C234.396407,99.0387762 234.002817,100.908329 231.11536,103.480236 C225.788323,108.230459 223.552325,111.745625 222.581922,116.909797 C222.439415,117.663047 222.307087,118.460406 222.17476,119.261158 C221.811707,121.470012 221.072029,125.972546 220.12877,125.972546 C220.06091,125.972546 219.911617,125.948795 219.653748,125.779144 C219.456953,125.650209 218.394939,124.632304 217.000409,117.378034 C216.91219,116.909797 216.908797,116.509421 216.905404,116.122617 C216.898618,114.527899 216.440561,113.66268 214.034912,113.66268 L213.905977,113.666073 C209.746138,113.706789 205.491295,114.103772 199.180283,118.429869 C196.805171,120.058517 195.889056,120.302814 195.556541,120.302814 C195.464929,120.248526 195.363139,119.902438 195.325815,119.773504 C195.156165,119.176333 194.796505,117.931095 193.354473,117.931095 C192.886236,117.931095 192.33996,118.073602 191.681715,118.365402 C190.446657,118.91507 189.177668,119.597067 187.946003,120.258705 C185.730363,121.453047 183.487579,122.657568 182.215197,122.657568 C181.953935,122.657568 181.767319,122.606673 181.645171,122.494703 C181.567131,122.426843 181.550166,122.396306 181.550166,122.392913 C181.539987,122.297908 181.736782,121.907711 181.808035,121.761812 C182.167695,121.035706 182.771652,119.824399 181.719817,118.514694 C181.333013,118.036279 180.776558,117.802161 180.019915,117.802161 C178.985045,117.802161 177.488725,118.226288 174.770918,118.989717 L173.172807,119.440988 C168.897605,120.628544 165.792995,122.711856 163.523066,124.231928 C161.999601,125.253226 160.679718,126.138804 159.851822,126.138804 C159.627883,126.138804 159.322511,126.077729 158.9391,125.612886 C158.779628,125.416091 158.721947,125.222689 158.745698,124.988571 C158.891598,123.577076 161.517793,121.470012 163.431455,119.929582 C165.457086,118.30772 166.515707,117.415357 166.614105,116.492456 C166.651428,116.153154 166.556423,115.827425 166.349449,115.566162 C165.830318,114.924882 164.992243,114.616118 163.791115,114.616118 C161.646728,114.616118 158.487829,115.620451 155.43072,116.594247 C152.733272,117.449287 150.198688,118.253432 148.790586,118.253432 C148.427533,118.253432 148.264668,118.195751 148.234131,118.172 C148.217166,118.114318 147.894829,117.062483 152.475402,113.689824 L152.560228,113.62875 C152.760416,113.479457 153.004713,113.347129 153.238831,113.218195 C153.988688,112.804247 154.894624,112.30208 154.816584,111.324891 C154.735152,110.327344 153.683317,109.608024 150.792466,108.576547 C145.261848,106.598418 136.12106,104.236878 123.980845,104.236878 C119.040612,104.236878 113.964658,104.637254 108.895491,105.427827 C106.235365,105.841775 103.619349,106.052143 101.118696,106.052143 C90.081211,106.052143 82.2704856,102.011059 75.3758749,98.4449982 L73.5063225,97.4847743 C72.2848363,96.8604592 62.9642183,92.7175853 57.6134304,92.7175853 C55.75745,92.7175853 54.4816756,93.2231448 53.8268233,94.2274779 C52.8258832,95.7509426 52.0963846,97.0843983 51.4517113,98.2617752 C49.5210846,101.790513 48.5540747,103.561668 43.5256234,104.467604 C42.4228928,104.664399 40.9435374,104.406529 39.0298757,104.012939 C36.6479777,103.520952 33.6790877,102.910209 29.3360259,102.910209 C27.5682639,102.910209 25.6987115,103.015392 23.7816569,103.222366 C13.7688634,104.301346 7.70554184,109.591059 6.58923921,110.639502 C5.89027769,111.297747 5.22524634,111.54883 4.87237256,111.175598 C4.48556861,110.771829 4.29895267,109.831964 4.36002697,108.600298 C4.69593567,101.834622 16.5138142,89.2227777 34.5680582,90.074425 C36.0033045,90.1456783 37.102642,90.3051501 37.9882195,90.4340848 C38.8025436,90.5562334 39.487933,90.6580239 40.1563574,90.6580239 C42.0055517,90.6580239 43.4747281,89.8945951 46.2061069,87.5228761 C50.2675484,83.9907453 58.1054179,82.9117659 61.0573427,82.5046038 L61.9463132,82.3790622 C64.4062506,82.0126163 65.2103957,81.751354 65.8075667,78.7078177 L65.9636455,77.8799215 C66.3470564,75.8033951 66.5777816,74.5513717 68.6034128,72.5936009 C70.8020878,70.4695722 71.429796,68.7255614 72.0337531,67.0358389 C72.807361,64.888059 73.5334666,62.8624278 77.9986771,59.910503 C79.2439144,59.0859998 80.4450424,58.3191779 81.5986683,57.5828932 C89.5552934,52.5001536 95.3030643,48.8255161 98.9301996,37.7405292 L99.198248,36.9160261 C100.548669,32.7120779 101.054228,31.141111 106.890218,30.8730626 C109.139788,30.7746651 110.744685,30.8900277 112.098499,30.9918182 L112.352975,31.0121763 C115.223468,31.2259364 116.685858,31.3786221 119.610639,28.3147277 L120.085661,27.8125612 L119.729394,27.2187832 C119.664927,27.1135997 118.110925,24.5247276 115.936001,22.5805288 C114.789162,21.5558376 113.557496,21.437082 112.7296,21.437082 C112.363154,21.437082 111.993315,21.4642262 111.62687,21.4913703 C110.089833,21.6101259 109.099072,21.6983444 108.196529,19.835578 L107.310952,18.0135278 C106.058929,15.4382278 105.366753,14.0165536 105.054595,13.0597228 C104.962984,12.7747094 104.962984,12.4557658 105.054595,12.3302241 C105.112277,12.2487917 105.298893,12.2012895 105.549976,12.2012895 C106.194649,12.2012895 107.79276,12.5236261 111.273996,14.6680129 C113.58464,16.0896871 114.962205,16.1202242 116.180299,16.1439754 C117.500182,16.1711195 118.640236,16.1914776 121.266431,18.3053273 C121.904318,18.8210659 122.399699,19.2994813 122.837398,19.7202154 C123.722976,20.5752557 124.418544,21.2504661 125.419484,21.2504661 C126.125232,21.2504661 126.824193,20.9043784 127.68602,20.1273774 C128.958401,18.9873237 129.860944,17.8710211 130.65491,16.8904391 C132.351418,14.7969476 133.576297,13.283662 137.288258,12.3845124 C140.867891,11.512507 144.851293,7.31873789 146.656378,4.71290075 C146.74799,4.58057309 146.836208,4.41770827 146.92782,4.23787836 C147.24337,3.62713528 147.484274,3.31837072 148.403782,3.43712632 C149.978142,3.62374226 152.763809,4.39735016 154.253343,4.86558652 C154.521392,4.95041195 154.663899,5.10649074 154.724973,5.38811116 C154.843728,5.93099389 154.579073,6.6672786 154.110837,7.09479876 C152.943639,8.15681311 150.50406,10.0670817 149.509906,10.6371086 L148.369852,11.2885679 L149.384364,12.1266431 C149.855993,12.5100541 150.877291,13.5449243 150.24619,14.8376638 C149.364006,16.6393559 147.860899,17.2908151 145.957417,18.1119253 L145.234704,18.4308689 C143.84696,19.045005 142.886736,19.9984428 141.872224,21.0095619 C141.064686,21.8069209 140.233397,22.6348171 139.096736,23.3846739 L138.804937,23.5712898 C137.97704,24.0802424 136.938777,24.7215226 136.79627,25.7665719 C136.741982,26.1669479 136.803056,26.781084 137.407014,27.4359363 C140.996826,31.344692 144.467882,33.329607 147.725179,33.329607 C147.837148,33.329607 147.949118,33.326214 148.061087,33.3194279 C155.308572,33.0106634 160.978303,32.1929463 167.625224,30.4964377 C167.788089,30.4557215 167.950953,30.4116123 168.113818,30.36411 C169.17244,30.0723106 170.024087,29.9162318 170.787516,30.6287654 C171.60184,31.3786221 172.344911,32.3625971 172.999763,33.2278165 C173.38996,33.7469481 173.753013,34.2287565 174.088921,34.6019884 C174.652162,35.2296966 174.740381,35.6606097 174.207677,37.1467512 C174.102493,37.4419437 173.902305,37.8423197 173.67158,38.3071631 C172.653675,40.3361873 170.953774,43.7292044 171.238787,49.3751849 C171.269324,49.9519978 171.364329,50.4677364 171.462726,51.0174051 C171.808814,52.8937436 172.195618,55.0008072 169.247086,59.7917474 L169.067256,60.0869398 L169.12833,60.4262416 C170.841804,70.048838 174.611446,75.7049976 182.574857,80.5943352 C187.504911,83.6175134 198.118269,87.6450247 206.743318,89.7622674 L206.855288,89.7928046 C207.086013,89.8504859 207.411742,89.9353113 207.818904,89.9353113 C209.121823,89.9353113 210.336523,89.080271 211.642835,87.2412557 C212.033032,86.6915869 212.382512,86.1351321 212.721814,85.5854634 C214.106165,83.3528581 215.3039,81.4256244 219.511241,80.3703961 C221.723488,79.8139413 223.406425,79.3117747 224.973999,77.9070657 C225.337052,77.581336 225.893507,77.2182832 226.483891,76.8382653 C228.122719,75.7728579 230.36211,74.3172536 231.827893,71.6842723 C232.289344,70.8529831 232.258807,69.9199034 232.231662,69.0207539 C232.194339,67.9587395 232.163802,66.9577995 232.920445,66.1400823 C234.131752,64.8337708 236.981886,63.9244422 238.783578,63.9244422 C239.099129,63.9244422 239.373963,63.9549793 239.560579,64.0092676 C240.856712,64.3892855 241.229944,64.9525264 241.891582,66.3470564 C242.566793,67.7653375 243.398082,68.5830547 244.069899,69.2413 C244.762075,69.9165104 245.040302,70.2150959 245.013158,70.7477996 C244.9928,71.1312105 245.002979,71.433189 245.009765,71.6944513 L245.009765,71.6944513 Z M144.220192,51.5976111 C143.198894,48.608363 141.621141,45.7073334 139.527649,42.9759546 L139.252815,42.6196878 L138.801544,42.6230808 C137.291651,42.6298669 134.15311,42.657011 133.630586,45.5410755 C133.427004,46.6675572 133.216637,46.6675572 133.063952,46.6675572 C132.90448,46.6675572 132.734829,46.6438061 132.54482,46.616662 C131.845859,46.5080854 130.437756,46.4470111 128.690353,46.4470111 C127.139744,46.4470111 125.650209,46.4979064 124.608553,46.5827318 C124.147103,46.620055 123.743334,46.4843343 123.67208,46.2570021 C123.543146,45.8600191 123.896019,44.6894282 126.138804,43.0743521 C126.552752,42.7791596 126.888661,42.4771811 127.24832,42.1548445 C128.144077,41.3540924 128.985545,40.6042356 130.990818,39.9086671 C131.326727,39.7899115 131.645671,39.6949071 131.951042,39.6066886 C133.274319,39.2130986 134.645098,38.8059366 135.157443,37.1263931 L135.252448,36.8244146 L135.133692,36.5258291 C134.648491,35.3009499 133.29807,33.8589177 132.273379,33.1667422 L131.835679,32.8715497 L131.36405,33.1090609 C130.417398,33.5806902 129.691293,34.2592937 128.924471,34.9820063 C127.679234,36.1559902 126.277917,37.4792669 123.573683,37.9542893 C120.089054,38.5616394 116.278696,39.7661604 114.460039,44.0990433 C112.478517,48.811944 110.079654,57.8577276 109.733566,59.5847733 L109.641955,60.0326516 C109.411229,61.118417 109.170325,62.2448987 109.821785,63.0490438 C110.354488,63.7140751 111.226494,63.9108701 112.637989,63.6767519 C115.569555,63.1915505 118.653808,62.0175666 121.91789,60.7791153 C126.515429,59.0317115 131.258867,57.2300194 135.9073,57.2300194 C136.860738,57.2300194 137.790424,57.3114519 138.672609,57.4641376 C138.852439,57.4946748 139.032269,57.531998 139.208706,57.5693212 C139.744802,57.6846837 140.233397,57.7864742 140.701633,57.7864742 C141.655071,57.7864742 142.360819,57.3182379 142.683155,56.4665906 C142.856199,56.0017473 143.073352,55.3774321 143.293898,54.7361519 C143.643379,53.7148537 143.979288,52.7274857 144.189655,52.2660354 L144.335554,51.9369128 L144.220192,51.5976111 L144.220192,51.5976111 Z M165.165286,37.9305382 C164.632583,36.8040565 163.305913,36.4342176 162.355868,36.2543877 C161.996208,36.1899204 161.541544,36.1559902 160.964731,36.1559902 C159.33269,36.1559902 156.988115,36.4274316 154.918375,36.6683358 L153.727426,36.8040565 C152.383791,36.9533492 151.542323,37.3808694 151.162305,38.1137611 C150.643173,39.1045221 151.209807,40.1495714 151.583039,40.8417468 L151.667864,40.9978256 C152.163245,41.9275123 154.477283,45.435892 156.441839,48.3878169 C156.944006,49.1478527 157.530998,49.5346567 158.182457,49.5346567 C159.11893,49.5346567 159.709315,48.7542627 160.058796,48.2894194 C160.557569,47.624388 163.899691,42.5043252 164.798841,40.8553189 C165.429942,39.6983001 165.548697,38.7414693 165.165286,37.9305382 L165.165286,37.9305382 Z" fill="#CD2027"></path>
                    </g>
                </g>
            </g>
        </g>
    </g>
</svg>