<?xml version="1.0" encoding="UTF-8" standalone="no"?>
<svg width="250px" height="250px" viewBox="0 0 250 250" version="1.1" xmlns="http://www.w3.org/2000/svg" xmlns:xlink="http://www.w3.org/1999/xlink">
    <!-- Generator: Sketch 47.1 (45422) - http://www.bohemiancoding.com/sketch -->
    <title>TULSA</title>
    <desc>Created with Sketch.</desc>
    <defs></defs>
    <g id="Page-1" stroke="none" stroke-width="1" fill="none" fill-rule="evenodd">
        <g id="TULSA" fill-rule="nonzero">
            <g id="Tulsa_Golden_Hurricane_logo" transform="translate(0.000000, 30.000000)">
                <g id="Group" transform="translate(124.428808, 95.571192) scale(-1, 1) rotate(-180.000000) translate(-124.428808, -95.571192) translate(0.256623, 1.407285)">
                    <g transform="translate(0.290977, 1.334437)" id="Shape">
                        <path d="M121.726902,12.7691256 C115.663073,12.6875388 108.494174,15.4732971 102.118599,16.6144382 C101.670408,16.6949514 101.221037,16.7680832 100.780898,16.8324895 C94.8068151,17.6778786 86.1103111,15.890141 86.0914174,15.8847735 C86.0939938,15.890141 87.7704513,18.9017658 92.0375889,22.371994 C94.0933604,24.0439857 96.7402065,25.822899 100.10566,27.4250053 L99.2753646,28.7249614 C99.1170219,28.9745524 98.9383898,29.2541588 98.734423,29.5762118 C93.9626713,27.6304751 88.8841105,23.1100321 88.8841105,23.1100321 C88.8841105,23.1100321 97.4633872,39.4574414 106.714466,53.8188573 C110.957407,53.6202579 114.603261,52.9815195 117.780851,51.8731205 C118.532308,51.6101106 119.261779,51.4789491 119.948912,51.4789491 C121.465244,51.4789491 122.814324,52.1395013 123.651662,53.298892 C124.164263,54.0074085 124.909687,55.5315779 124.171649,57.7565346 C122.035364,64.2083293 116.664379,68.6629662 108.417032,70.9950591 C108.121816,72.6214267 107.750446,75.2702051 107.720925,78.3754399 C107.949046,78.4156965 108.170296,78.4661945 108.387682,78.5306051 C109.284063,77.2021365 111.088204,74.7578617 113.704991,72.3076827 C115.328675,70.7859823 117.254015,69.2657849 119.470813,68.017937 L120.712048,69.6994829 C120.712048,69.6994829 114.488911,73.3612253 110.492663,79.6923575 C110.720784,79.8936406 110.9281,80.1118637 111.113281,80.3507197 C112.656451,79.5563223 115.413761,78.3004875 119.428689,77.0337887 C122.200921,73.1691529 125.35339,69.3605544 129.02737,65.4179818 C140.954066,52.619167 149.714121,48.9192076 155.36701,48.3047305 C150.275997,30.0926345 152.029038,20.8293173 152.029038,20.8293173 C152.029038,20.8293173 144.285596,19.6471252 138.32504,28.3103933 C138.32504,28.3103933 138.513162,29.2025874 138.87019,30.3861321 C139.039268,30.9443573 139.245424,31.5654901 139.495015,32.1934935 L139.490721,32.1934935 C138.205193,31.5037633 137.24365,30.2408862 135.783677,25.4127753 C134.103634,19.8466263 131.640358,14.2774715 124.251818,12.991836 C123.435951,12.848415 122.594319,12.7797104 121.726923,12.7681165 L121.726902,12.7691256 Z M164.632947,72.9694157 C163.795609,74.359611 162.840013,75.7863057 161.777196,77.2383353 C164.171123,77.8233982 166.353354,78.4260667 167.488698,78.9198812 C166.468863,76.8802124 165.526687,74.9045247 164.632947,72.9694157 Z M147.515401,97.4926766 C144.541779,98.4078438 141.508469,99.2512147 138.709185,99.9920224 C135.121085,102.828665 131.248291,105.702022 127.101966,108.584396 C126.814802,108.782995 126.171705,109.260213 125.986525,109.410505 C125.586642,109.735242 125.905518,109.896096 126.14169,109.842421 C130.856975,108.776962 138.739544,103.8561 147.515487,97.4927625 L147.515401,97.4926766 Z M166.029154,104.030137 C164.402786,105.329084 162.900302,106.531416 161.6765,107.519045 C163.039858,108.495939 164.702295,109.145069 166.301825,109.322198 C165.998559,107.121502 165.989004,105.211084 166.029261,104.030223 L166.029154,104.030137 Z M147.896927,117.33157 C139.158556,122.881616 131.361009,125.867262 124.685495,126.22152 C125.149788,133.864911 128.866387,137.023606 128.866387,137.023606 L129.138951,139.875063 C125.252845,137.634004 124.1613,132.96853 124.1613,132.96853 C125.886967,152.804417 123.192629,159.836337 123.192629,159.836337 C123.192629,159.836337 127.209274,156.401749 129.876946,152.674093 C130.411017,156.329394 123.062734,161.58809 123.062734,164.948176 C123.977902,164.695901 124.89878,164.50385 125.822084,164.34014 L125.843125,164.323393 L125.91022,164.323393 C131.181153,163.405542 136.512848,163.849718 141.585182,164.558234 L141.59785,164.558234 L141.623013,164.562528 C144.918688,165.024138 148.106154,165.594279 151.095879,165.967324 C158.084429,166.842234 164.096299,166.4489 166.833749,162.809701 C170.395226,158.072946 162.837501,148.464174 162.837501,148.464174 C164.777871,148.984826 168.365004,147.739211 172.27258,146.30878 C175.066282,145.286262 178.274574,144.375797 180.550415,143.876636 C176.994521,138.246077 172.912177,130.036517 171.052429,126.20151 C160.982906,126.045851 153.014456,122.99515 147.896819,117.332385 L147.896927,117.33157 Z" fill="#EE3B33" transform="translate(133.320916, 89.563977) scale(-1, 1) rotate(-180.000000) translate(-133.320916, -89.563977) "></path>
                        <path d="M69.7244702,183.409172 C66.4663675,183.409172 63.8284853,180.768687 63.8284853,177.513187 C63.8284853,174.942158 65.4825225,172.780082 67.7744394,171.969582 L73.6956518,129.096279 C73.9291402,129.053339 74.1582541,129.012008 74.3917425,128.966384 C76.1227773,128.644331 77.9056089,128.315569 79.7091056,127.993516 L72.2994716,172.230176 C74.2586273,173.188257 75.620643,175.184476 75.620643,177.513724 C75.620643,180.769143 72.9801306,183.409709 69.7246581,183.409709 L69.7244702,183.409172 Z M76.1655298,173.261283 C75.6518821,173.309859 75.1378051,173.056779 74.8781499,172.573565 C74.5319429,171.92946 74.7734826,171.124998 75.4149048,170.778791 C77.6880621,169.55499 80.3025955,166.585661 80.3294333,166.55614 C80.5924432,166.258241 80.9597983,166.107439 81.3274755,166.107439 C81.6361096,166.107439 81.9459246,166.214522 82.1955156,166.434538 C82.7456895,166.914934 82.8017267,167.75042 82.3213041,168.300593 C82.2005343,168.434782 79.3632475,171.658532 76.6687376,173.110455 C76.5077111,173.196872 76.3367546,173.24518 76.1655298,173.261283 L76.1655298,173.261283 Z M120.732295,168.543743 C115.274839,168.601981 109.820335,166.824437 105.908733,165.851649 C99.1322013,164.166238 95.1156639,164.020804 85.4701772,165.738394 C83.8142881,166.033609 83.0306258,165.740728 82.5851192,165.260333 C82.0886209,164.720894 82.15856,163.880711 82.5557587,162.807202 C84.3297339,158.030082 98.5236822,133.503064 103.443041,125.242405 C103.553076,125.242405 103.664292,125.234354 103.774327,125.234354 C104.788794,125.234354 105.759649,125.264144 106.70984,125.309768 C97.4588677,139.670647 88.8836704,156.01752 88.8836704,156.01752 C88.8836704,156.01752 93.9621775,151.501263 98.7339291,149.555527 C98.937896,149.877579 99.1207148,150.152988 99.2790575,150.40258 L100.10515,151.702546 C96.7396966,153.30476 94.0929578,155.083566 92.0371863,156.755558 C87.7699843,160.225678 86.0936986,163.240094 86.0910148,163.242778 C86.0910148,163.242778 94.8009376,161.451171 100.780388,162.299243 C101.220527,162.36097 101.667215,162.432627 102.118089,162.51314 C109.401854,163.817455 117.726655,167.271473 124.250911,166.136236 C131.639343,164.850708 134.100097,159.281607 135.782823,153.715458 C137.240113,148.884663 138.204259,147.624363 139.489653,146.934633 C139.242746,147.562636 139.038108,148.183769 138.86903,148.741994 C138.509405,149.925539 138.328089,150.817733 138.328089,150.817733 C144.288753,159.480958 152.027954,158.298755 152.027954,158.298755 C152.027954,158.298755 150.277462,149.031412 155.366033,130.819584 C155.99672,130.889363 156.58699,130.92452 157.139847,130.92452 C157.295506,130.92452 157.448159,130.905734 157.601135,130.90305 C154.844898,140.422399 152.929488,150.789285 154.233802,159.238345 C154.298213,159.648962 154.019637,160.036607 153.608993,160.106385 C151.284844,160.514318 143.934253,160.993533 137.812562,152.529015 C136.376743,157.230988 135.162147,162.663485 130.226604,165.889383 C127.282772,167.815662 124.007225,168.508881 120.732751,168.543797 L120.732295,168.543743 Z M125.953042,150.985952 C124.117555,150.975217 122.036878,150.753 119.679718,150.2605 C119.679718,150.2605 127.491918,134.079754 127.491918,121.200587 C127.491918,121.200587 129.6351,122.018306 132.259913,121.749928 C134.27006,123.56416 138.732641,127.286556 144.857015,130.740574 C144.266585,134.637415 143.530881,139.843402 143.372539,142.637211 L139.665709,140.783743 C139.665709,140.783743 138.801748,151.057233 125.95323,150.986381 L125.953042,150.985952 Z M119.470115,111.107741 C117.253317,109.86247 115.327977,108.343722 113.704294,106.822021 C111.087613,104.369051 109.279286,101.927353 108.382905,100.598884 C109.18267,100.360028 109.90176,99.9660233 110.492191,99.4373197 C114.488332,105.765661 120.706101,109.427403 120.711469,109.430087 L119.470223,111.107446 L119.470115,111.107741 Z M108.416452,108.134656 C107.442242,107.858227 106.430969,107.61132 105.376272,107.396618 L105.304991,106.855676 L104.902425,100.867637 L106.579784,100.867637 C106.971615,100.867637 107.350027,100.818793 107.720388,100.754382 C107.747226,103.862193 108.12129,106.505712 108.416506,108.134763 L108.416452,108.134656 Z M165.596959,107.836918 C165.296376,107.281376 164.970646,106.723151 164.63249,106.159558 C165.526187,104.224557 166.468353,102.248762 167.488295,100.209093 C166.353058,100.702907 164.170881,101.305576 161.776954,101.890639 C161.318029,101.265319 160.837821,100.63278 160.338639,99.9994095 C163.384723,99.3794575 166.900736,98.3207083 168.494899,97.8188424 C168.916251,98.1301603 169.328211,98.4305821 169.736145,98.7204298 L165.597227,107.836944 L165.596959,107.836918 Z M76.651293,107.702729 L77.5989876,100.846489 C77.7653817,100.851857 77.9304338,100.86796 78.1021954,100.86796 L83.3648095,100.86796 C83.6707598,100.86796 83.9681489,100.843806 84.2579966,100.805159 L83.2641679,106.751331 C80.8353517,107.008973 78.5968151,107.343613 76.6510783,107.703239 L76.651293,107.702729 Z M119.425296,102.096055 C115.413053,100.831997 112.657085,99.5719647 111.113914,98.7748835 C111.307146,98.5279763 111.483255,98.2710048 111.625495,97.9865247 C111.883138,97.4685561 112.033429,96.9234278 112.095156,96.3678864 C113.082785,96.8080255 114.923049,97.6104742 116.938564,98.4478119 C117.732962,99.6716132 118.561067,100.888356 119.425243,102.096135 L119.425296,102.096055 Z M86.0364536,90.1951238 C84.399351,87.8978125 82.2834629,84.9177489 80.2035374,81.984383 L80.6815714,78.5121152 L81.209953,79.2250063 L81.2770474,79.3173281 C83.0993305,81.8025036 84.9401316,84.3118331 86.6362773,86.6306146 L86.0366147,90.1949359 L86.0364536,90.1951238 Z M151.415892,84.5173297 C148.82605,83.6236327 145.598005,82.6108566 141.770942,81.6070443 C140.775262,80.7858092 139.75642,79.9637421 138.709829,79.1371395 C141.506322,79.8751776 144.539525,80.7212107 147.515831,81.636378 C148.795991,82.5676478 150.100655,83.5323039 151.415624,84.5171419 L151.415892,84.5173297 Z M167.300619,76.113894 C166.871215,75.7703708 166.445998,75.4318931 166.030013,75.099105 C165.989756,73.9182441 165.999417,72.0076648 166.302577,69.8069694 C166.589741,69.7774479 166.877736,69.7567828 167.162217,69.7567828 C167.393021,69.7567828 167.619988,69.7648342 167.837374,69.786036 C167.501902,71.8230211 167.340875,73.8782559 167.300619,76.1138403 L167.300619,76.113894 Z M147.277243,57.6251008 C144.891367,56.0738789 142.371034,54.9160984 142.371034,54.9160984 C142.371034,54.9160984 146.996789,43.2132299 146.23728,32.0326239 C157.898282,29.2039253 159.86039,33.403523 165.300401,33.3954716 C164.954195,36.3744617 161.041519,38.0875152 161.14887,41.1282321 C161.2267,43.3020897 163.44433,44.368085 165.161919,44.49959 L162.603959,50.5337894 C162.603959,50.5337894 154.888375,51.454834 147.27719,57.6248592 L147.277243,57.6251008 Z M84.1038674,53.746241 L91.5177954,0.049274106 L95.0568892,0.049274106 L88.67863,49.7205787 L88.2718771,52.840467 C86.7018688,52.9907584 85.3248239,53.3195208 84.1037064,53.746241 L84.1038674,53.746241 Z M121.148011,52.9830291 C121.78675,44.6123354 123.200079,29.8706286 120.85446,20.6140208 C119.305922,14.5057493 119.611872,12.6225445 120.720271,11.9757548 C121.748157,11.377273 123.57876,12.3722557 127.735927,12.7640868 C134.960649,13.4484494 141.84802,12.3863723 150.766204,11.1706223 C159.268403,10.0139154 164.292429,10.8683488 167.673986,14.0138134 C168.379818,14.6713382 168.911528,15.389087 169.292624,16.1566466 C170.986086,19.5543055 169.678926,23.9310055 166.906587,28.418277 C166.906587,28.418277 173.970014,32.2684204 183.105584,33.8572151 C183.577928,33.9404121 183.81461,34.4709676 183.554284,34.8762176 C181.855454,37.5224196 176.656446,45.8037436 173.376873,52.9372171 C172.877691,52.9237982 172.374483,52.9157469 171.86725,52.9157469 C171.590821,52.9157469 171.324778,52.926482 171.053717,52.9291657 C172.910889,49.0967353 176.998547,40.8803586 180.551864,35.249799 C178.276023,34.7506169 175.070523,33.844333 172.274029,32.8218148 C168.366453,31.3913628 164.780662,30.1457424 162.842976,30.6663947 C162.842976,30.6663947 170.398071,21.0549919 166.839385,16.3208131 C164.101935,12.6789306 158.085985,12.288173 151.097436,13.1630836 C148.110394,13.5361283 144.922875,14.1062694 141.624516,14.5678787 C141.613781,14.5704551 141.59741,14.5693816 141.586674,14.5732462 C136.511656,15.2817628 131.182753,15.7232438 125.911819,14.8080765 C125.882298,14.802709 125.857473,14.7973414 125.827951,14.7919739 C124.904733,14.6282636 123.982346,14.4388696 123.064468,14.183911 C123.064468,17.5439971 130.416938,22.8025855 129.882867,26.4578869 C127.215194,22.7328074 123.198657,19.2954286 123.198657,19.2954286 C123.198657,19.2954286 125.888873,26.329334 124.163152,46.1626984 C124.163152,46.1626984 125.258803,41.4972243 129.145043,39.2562723 L128.864079,42.107783 C128.864079,42.107783 125.151881,45.2639023 124.687588,52.9099768 C124.239398,52.883139 123.79153,52.8721355 123.354074,52.8721355 C122.583831,52.8721355 121.854166,52.9182965 121.148333,52.9853908 L121.148011,52.9830291 Z M92.2920644,52.8362266 C91.6023343,52.7744998 90.9223194,52.7398791 90.2540595,52.7398791 C90.2164866,52.7398791 90.1826174,52.7479304 90.1450445,52.7479304 L90.6230785,49.9509003 L99.1523833,0.0487910265 L101.131667,0.0487910265 L92.2921181,52.8359582 L92.2920644,52.8362266 Z M119.698773,9.64355444 C119.361637,9.61483805 119.037545,9.45730046 118.801372,9.17810737 C116.606045,6.57484578 115.60285,2.38574164 115.559909,2.2086125 C115.393515,1.50009594 115.838351,0.785701921 116.549551,0.619307881 C116.651535,0.595153907 116.752176,0.585760695 116.851476,0.585760695 C117.449958,0.585760695 117.996616,0.995546275 118.138856,1.60476316 C118.146907,1.64233601 119.029869,5.34836068 120.822631,7.47122657 C121.292291,8.02945174 121.225707,8.86075099 120.667455,9.33309536 C120.387,9.56926755 120.035936,9.67224399 119.698773,9.64339341 L119.698773,9.64355444 Z" fill="#000000"></path>
                        <path d="M51.8693162,132.014884 C41.8749387,132.014884 29.4055841,130.610089 21.5936523,119.673814 C20.5201424,118.173584 20.3580961,116.270519 21.1659123,114.700511 C21.9388394,113.202964 23.4747906,112.26834 25.1789608,112.26834 C25.4043979,112.26834 25.6343705,112.287126 25.8624914,112.318526 C30.8194235,113.027043 35.6443139,113.383636 40.2040474,113.383636 C44.3263255,113.383636 48.1807629,113.100176 51.6938242,112.536583 C44.8475146,102.7086 36.4811149,89.4078116 33.2176447,84.2227586 L32.4921935,83.0695674 C32.3633724,82.8656005 32.2077134,82.6126547 32.0225329,82.3147557 C25.1950098,71.3139627 21.1269439,67.8822198 18.9181972,66.9375311 C17.2945134,66.2451172 15.7304094,65.9101284 14.1335634,65.9101284 C12.2039293,65.9101284 10.216594,66.3962405 8.06152285,67.3946048 C7.27249305,67.7622819 6.47892767,67.9481333 5.70063296,67.9481333 C4.00448727,67.9481333 2.51257684,67.0795833 1.71281194,65.6249773 C0.864739089,64.079123 0.975444801,62.1194306 1.99796301,60.5091657 C5.91895805,54.3337998 15.9597648,49.1197621 23.9252085,49.1197621 C24.9852996,49.1197621 26.0024503,49.2112788 26.9444552,49.3965398 C32.1992864,50.4217418 35.6876569,52.4045146 42.4641883,61.4273656 C46.9809814,67.4390212 52.1383915,75.3102644 56.2982425,81.7862131 C57.2831878,81.1743125 58.4351982,80.6893812 59.5354117,80.3646444 C59.0630673,79.6722305 58.6712362,79.1054441 58.3948074,78.7082454 C52.7400938,70.584459 52.7881334,64.797167 53.8240705,61.3726703 C54.8573238,57.9615925 57.2842614,55.3532317 60.6550825,54.0301307 C62.4478441,53.3242979 64.4657744,52.9692077 66.6557347,52.9692077 C72.0071817,52.9692077 77.0006132,55.0337015 79.5126264,56.2734712 C80.1352622,55.7742891 80.8873901,55.2727453 81.7435143,54.8057685 C82.4466633,54.4219887 83.2294935,54.0675694 84.1044041,53.761619 C85.3228379,53.3348988 86.7026202,53.0061364 88.2725748,52.855845 C88.8710566,52.7994857 89.4933703,52.7688907 90.1428438,52.7635232 C90.1804167,52.7635232 90.2157888,52.7554718 90.2560455,52.7554718 C90.9216216,52.7554718 91.6043203,52.7900925 92.2940504,52.8518194 C93.0079345,52.9135462 93.7365794,53.0166031 94.4746175,53.1453438 C98.9699403,53.9343736 103.899766,55.9431791 109.197538,59.15029 C110.899051,57.016689 113.940841,54.3602887 118.921928,53.3297191 C119.625077,53.1847953 120.364966,53.069393 121.148629,52.9942473 C121.854461,52.9298367 122.581442,52.885286 123.35437,52.885286 C123.791825,52.885286 124.239693,52.8960211 124.687884,52.9188332 C131.362432,53.2730915 139.162555,56.263085 147.898242,61.8131314 C153.0162,56.1503665 160.981913,53.0997196 171.05412,52.9440607 C171.325181,52.9414843 171.589694,52.9306418 171.863439,52.9306418 C172.373356,52.9306418 172.878093,52.9386931 173.377276,52.952112 C174.182408,52.9735822 174.972431,53.0159859 175.750725,53.0696614 C183.023755,53.5661597 189.01904,55.3171618 192.016816,56.3529915 C193.820313,54.6809998 196.001148,53.5634759 198.231365,53.1743286 C199.245832,52.9971994 200.298731,52.9059511 201.372187,52.9059511 C205.754791,52.9059511 209.784748,54.34899 212.648335,55.7365284 C214.242498,53.9759721 216.467615,53.0192064 219.03062,53.0192064 C221.902259,53.0192064 225.156068,54.2482142 228.717437,56.6715556 C231.205297,58.3650175 233.188069,60.329809 234.776864,62.6807958 C236.545472,65.3028438 235.947849,67.3113809 235.435248,68.2748561 C234.654269,69.7482484 233.133562,70.6273457 231.367719,70.6273457 C230.562586,70.6273457 229.715345,70.4472644 228.805546,70.0821905 C229.065872,70.4391326 229.358403,70.8217584 229.677772,71.2270084 L229.715614,71.2774633 C229.726349,71.2908822 229.737084,71.3059114 229.749161,71.3193302 L245.07593,92.7057951 C246.286313,94.3214276 246.511079,96.3111782 245.663006,98.0019564 C244.774677,99.7786153 242.839138,100.88272 240.614289,100.88272 L235.745653,100.88272 C234.293731,100.88272 232.993979,100.596549 231.866793,100.03564 C229.794919,101.423152 227.040829,102.153327 223.836402,102.153327 C219.561149,102.153327 214.767659,100.882371 210.677586,98.6601253 C204.105021,95.0933886 197.469656,87.9494483 191.49289,78.0033788 C190.623347,76.5568242 189.724282,75.3102108 188.809115,74.2796412 C189.278776,80.5328366 188.239135,87.0613873 187.173676,91.7660445 L187.157574,91.8374329 C187.13342,91.9394164 187.116512,92.020198 187.103093,92.0765573 C187.04405,92.3610374 187.127247,92.4698913 187.208029,92.5504046 C187.892391,93.2428185 188.401825,93.6042961 189.107658,94.106162 C189.507541,94.3879584 189.952188,94.7042949 190.462106,95.1041774 C192.499091,96.6876045 192.656092,98.8976931 192.173012,100.303991 C190.855279,104.141789 185.300401,104.438615 183.631094,104.438615 C180.152921,104.438615 176.239709,102.997589 171.58336,99.981133 C170.979511,99.5893019 170.366268,99.1743098 169.738265,98.7314869 C169.330331,98.444323 168.915688,98.1469339 168.497019,97.8382998 C167.804605,97.323015 167.089889,96.7699964 166.362586,96.190301 C166.239132,96.0910014 166.11541,95.9986795 165.989353,95.8967497 C163.284108,93.7202083 160.519283,91.5256857 157.757679,89.375982 C155.629446,87.7227767 153.506311,86.0958724 151.412967,84.5285479 C150.097917,83.5436025 148.795965,82.5831332 147.513174,81.6518097 C138.739914,75.2885795 130.861693,70.3635843 126.143617,69.2981257 C125.910128,69.2444502 125.585901,69.4137964 125.988441,69.7384258 C126.173621,69.8887172 126.814024,70.3632354 127.103871,70.5645186 C131.250303,73.4468927 135.122991,76.315848 138.711198,79.152598 C139.75787,79.9792007 140.774001,80.8012677 141.772311,81.6225028 C143.159823,82.7657909 144.498758,83.9060732 145.789654,85.0359961 C150.921031,89.5259514 155.272772,93.8972838 158.772414,98.0732375 C159.317221,98.7253947 159.836182,99.3733653 160.340732,100.014788 C160.839914,100.650842 161.320149,101.280697 161.779074,101.906017 C162.844533,103.357939 163.797434,104.780608 164.634879,106.170803 C164.973035,106.73708 165.298791,107.299492 165.599374,107.852349 C166.069035,108.713841 166.485852,109.558908 166.86158,110.393562 C168.071963,113.090756 168.790194,115.636048 168.983426,118.000453 C169.302795,121.953654 168.164553,125.311593 165.687482,127.708204 C164.13626,129.211118 162.188645,130.198398 159.971847,130.652036 C159.212339,130.805012 158.423819,130.89626 157.602584,130.920414 C157.449609,130.925781 157.299639,130.936517 157.141297,130.936517 C156.588439,130.936517 155.998196,130.907263 155.367509,130.840169 C149.718163,130.228268 140.95537,126.530027 129.028675,113.731104 C125.354587,109.785955 122.202225,105.971775 119.429886,102.107139 C118.563026,100.89944 117.733418,99.6868571 116.939021,98.4631094 C116.246607,97.394967 115.574482,96.3181292 114.930376,95.2259402 C111.916497,90.1106654 109.418708,84.7197669 107.20191,78.6410169 C102.609971,73.9631973 98.1632244,71.4812424 95.0285754,70.3379543 C95.3103718,70.7512556 95.5722008,71.1258032 95.7708002,71.4156509 C99.5254012,76.8368761 109.531587,90.6720037 111.02645,92.6928862 C111.28946,93.0417769 111.494769,93.4074681 111.663846,93.7831965 C112.044942,94.6259018 112.188202,95.5162173 112.091586,96.3830766 C112.032543,96.9413017 111.886439,97.4837731 111.626112,98.0017417 C111.483872,98.2862218 111.305079,98.54738 111.114531,98.7942872 C110.926667,99.0331432 110.722029,99.2513878 110.493908,99.4526709 C109.903478,99.9786907 109.188574,100.37538 108.388809,100.614235 C108.171423,100.678646 107.950173,100.729101 107.722052,100.769358 C107.351691,100.833768 106.971776,100.882613 106.577261,100.882613 L104.904089,100.882613 L102.702561,100.882613 L101.218112,100.882613 C96.8435587,100.882613 95.0242277,98.3362205 94.0473337,96.970206 L93.7621826,96.5760131 C93.7487637,96.5572267 93.7351838,96.5360249 93.7244487,96.5172385 L93.6825281,96.4584638 C93.0008493,95.4144754 91.0053017,92.6415992 88.4448732,89.128538 C87.8678616,88.3341406 87.2613285,87.5048542 86.6333252,86.6460463 C84.9398632,84.3272648 83.1006724,81.8179353 81.2783892,79.3327598 L81.2112949,79.244732 L80.6829133,78.5234675 L80.3055209,78.0076728 C79.8143901,77.3367291 79.3058147,76.7194609 78.7958975,76.1290305 C76.6945018,73.7055818 74.5184972,71.9871608 72.9377538,71.1766608 C72.4171015,70.9082833 72.6215783,71.2840118 72.7825779,71.5121326 C73.6682236,72.7627717 75.8538899,75.8603846 78.3471167,79.3788134 C78.9536498,80.2349376 79.5767955,81.112532 80.2047988,81.9954939 C82.2847243,84.9288598 84.3979286,87.9102652 86.037715,90.2102603 C86.740864,91.1952056 87.3593131,92.0583613 87.8450763,92.7346725 C87.8476528,92.737249 87.8509806,92.7400401 87.853396,92.7427239 C89.0557272,94.4173994 89.2660546,96.4084919 88.415298,98.0724323 C88.0073642,98.8695134 87.3857483,99.5122775 86.6289238,99.9846219 C85.9445612,100.41671 85.1441253,100.703713 84.2638472,100.819115 C83.9713157,100.856688 83.670894,100.881915 83.3622599,100.881915 L78.1036715,100.881915 C77.9319099,100.881915 77.7653548,100.865813 77.596277,100.860445 C76.8314012,100.833607 76.1081239,100.755241 75.41571,100.613001 C73.5853755,100.239956 71.9904081,99.4682099 70.597529,98.2605113 C70.3130489,98.013604 70.0186656,97.750433 69.7127153,97.4847393 C67.8743295,95.8691069 65.7318721,93.9885858 63.0158919,92.305859 C63.0722512,92.3971074 63.1314553,92.489966 63.1878145,92.5784232 C68.7781175,101.255067 71.9549018,106.066807 73.8013389,108.307759 C73.9865193,108.264819 74.181093,108.222147 74.371641,108.18189 C75.0774738,108.023547 75.8369821,107.866708 76.6528496,107.716416 C78.6012702,107.35679 80.837123,107.02215 83.2659392,106.764508 C84.0039773,106.683995 84.7601308,106.616632 85.5303742,106.554905 C87.8411044,106.367041 90.2777035,106.252981 92.7682466,106.252981 C96.5308989,106.252981 99.9747188,106.512502 103.117419,107.003606 C103.890346,107.124375 104.640783,107.260174 105.373454,107.410358 C106.428177,107.62506 107.443664,107.871968 108.417928,108.148397 C116.665168,110.480597 122.036207,114.93781 124.172491,121.386921 C124.91053,123.614454 124.165245,125.135886 123.65251,125.844403 C122.815172,127.003793 121.466066,127.664351 119.949706,127.664351 C119.26266,127.664351 118.533183,127.533114 117.781726,127.270158 C114.604136,126.161759 110.955813,125.523021 106.715449,125.324421 C105.762709,125.281481 104.79035,125.249007 103.77591,125.249007 C103.665875,125.249007 103.55466,125.257059 103.444625,125.257059 C102.591185,125.262426 101.721132,125.287654 100.848905,125.319859 C94.743317,125.564082 88.2569016,126.500398 82.0037062,127.592694 C81.2334628,127.726883 80.4747865,127.864077 79.7099107,128.003634 C77.9090978,128.32837 76.1238508,128.658663 74.392816,128.980716 C74.1593276,129.023656 73.9301869,129.06767 73.6966985,129.11061 C72.9345064,129.25285 72.1738173,129.394581 71.4196766,129.534137 C64.1895872,130.870657 57.4173498,132.012442 51.8699872,132.012442 L51.8693162,132.014884 Z M51.8693162,130.698144 C57.2744387,130.698144 63.93852,129.581049 71.066626,128.266 C71.2464389,128.233794 71.4319414,128.197563 71.6117543,128.165358 C72.3658951,128.023118 73.1223975,127.884072 73.8845896,127.741831 C73.9731541,127.725729 74.0602158,127.711773 74.1487804,127.695671 C76.0327903,127.344096 77.9779903,126.980606 79.9398297,126.626347 C80.7020218,126.492159 81.4606981,126.355286 82.2336252,126.223781 C88.6424795,125.115382 95.2837487,124.186125 101.531577,123.992893 C102.28035,123.971423 103.032827,123.938413 103.770865,123.938413 L103.775159,123.938413 L103.817079,123.938413 C105.107975,123.938413 106.343853,123.979206 107.540817,124.051668 C111.587949,124.295891 115.10933,124.944023 118.217141,126.030952 C118.4721,126.119516 118.717826,126.178559 118.959366,126.232235 C119.058666,126.253705 119.152088,126.270613 119.248704,126.286716 C119.48756,126.324288 119.726255,126.35381 119.949008,126.35381 C121.038621,126.35381 121.998902,125.888014 122.586649,125.07483 C122.753043,124.844026 122.91423,124.548139 123.026949,124.18583 C123.102095,123.94429 123.151906,123.67288 123.165324,123.372297 C123.178743,123.069031 123.156468,122.735062 123.081456,122.370068 C123.043884,122.187572 122.989188,121.998365 122.922094,121.799766 C121.862003,118.598023 119.917071,115.931961 117.168617,113.790309 C114.89546,112.021701 112.07857,110.605741 108.710433,109.588591 C107.712068,109.285324 106.65348,109.028031 105.561291,108.791858 C104.823253,108.633516 104.065248,108.488753 103.284269,108.359932 C100.114731,107.841963 96.6129419,107.567386 92.7670925,107.567386 C90.1906687,107.567386 87.6794606,107.690571 85.3070036,107.894458 C84.5367603,107.958868 83.7737362,108.031867 83.0383819,108.11238 C80.6041982,108.380758 78.3820326,108.725972 76.4631336,109.093649 C75.8082925,109.217103 75.1908633,109.34646 74.6138517,109.475255 C74.1656613,109.574555 73.7305677,109.673586 73.3306853,109.772966 C71.5057184,107.773554 68.3614078,103.040448 62.0840585,93.2929782 C61.2494045,91.996715 60.3012,90.5141978 59.2787086,88.9066166 C64.3322566,91.024115 67.7658782,94.0302112 70.5757904,96.4966002 C70.6536199,96.5636946 70.7255987,96.6251531 70.7980338,96.6895637 C71.0207871,96.8854792 71.2443724,97.0857693 71.4563906,97.268266 C72.6453029,98.2988356 74.0141891,98.9680885 75.5869885,99.3062441 C75.5895649,99.3062441 75.5928928,99.307747 75.5953082,99.3116117 C76.2823545,99.4592193 77.0083156,99.5402693 77.7758752,99.5590557 C77.88591,99.5616321 77.9929389,99.567107 78.1029737,99.567107 L83.3615621,99.567107 C83.756077,99.567107 84.1326375,99.5249718 84.4895795,99.4498261 C85.544303,99.2270728 86.4180327,98.6918207 86.9762579,97.9108422 C87.0728738,97.7712859 87.1641222,97.627704 87.2446354,97.4747288 C87.3224649,97.3217537 87.3895592,97.1634109 87.4459185,97.0050682 C87.5532695,96.6830152 87.6097898,96.352401 87.6178411,96.0196129 C87.6285762,95.6841411 87.5905203,95.3429796 87.5046395,95.004824 C87.3704508,94.4975906 87.129582,93.99237 86.783375,93.5119743 C86.3325008,92.8839709 85.8027774,92.1442421 85.2150307,91.323007 C83.7148005,89.2162437 81.8345479,86.5721888 79.9398029,83.8964653 C79.3171671,83.0215547 78.6967052,82.1439603 78.0821208,81.2797848 C77.6446655,80.6598328 77.2119068,80.0457583 76.7905541,79.4472765 C74.6811071,76.4656027 72.8242033,73.8304042 71.7963175,72.3731144 C71.6862828,72.2147717 71.5951954,72.0693648 71.4985796,71.9244409 C71.2892451,71.6104393 71.112116,71.3235974 70.9618246,71.0605875 C70.790063,70.7600047 70.6456491,70.4859376 70.5382981,70.2470817 C70.4899901,70.1450982 70.4757393,70.0487507 70.4837906,69.9493437 C70.5106284,69.659496 70.7550129,69.4125887 71.0582795,69.4125887 C71.1065874,69.4125887 71.1609338,69.42064 71.2092418,69.4340589 C71.4990895,69.5092046 71.814594,69.6082359 72.1527497,69.7317969 C73.3362944,70.1585171 74.8049901,70.8971993 76.3963344,72.0968466 C77.2470911,72.7382688 78.1334077,73.5180933 79.0297885,74.4493631 C79.6658431,75.1095718 80.3017367,75.8494616 80.9377914,76.6760643 C81.0800314,76.8612448 81.2232913,77.0405477 81.3655314,77.2337795 L82.2713054,78.4666252 C82.9610355,79.4086301 83.6515976,80.352138 84.338644,81.2888828 C86.74599,84.5711394 89.0795323,87.7591955 90.9474395,90.3383032 C92.8153468,92.9174108 94.2235235,94.8875699 94.7844324,95.7436941 L94.8221663,95.8024687 C94.8221663,95.8024687 94.8501849,95.8405783 94.885074,95.8862025 C94.9521683,95.9801346 95.0593583,96.1296209 95.1157176,96.2049008 C95.4458219,96.66651 95.8348082,97.2061366 96.3527768,97.7187376 C97.3377221,98.6956317 98.7909862,99.5680195 101.217119,99.5680195 L102.613514,99.5680195 L105.293102,99.5680195 L106.576295,99.5680195 C107.115734,99.5680195 107.627664,99.4818703 108.102692,99.3288952 C109.14668,98.9961071 109.994753,98.3291891 110.450995,97.4167056 C110.684483,96.9524126 110.803589,96.4562363 110.811641,95.9490028 C110.827743,95.3209995 110.665536,94.6810802 110.346167,94.0745471 C110.238816,93.8705802 110.115201,93.6708269 109.972961,93.4749113 C109.457676,92.7824974 107.934124,90.6853958 106.001779,88.0150398 C102.31964,82.9185514 97.1531052,75.7214724 94.6920837,72.1681545 C94.6142543,72.055436 94.5287224,71.9276883 94.4321065,71.7907621 C93.7745816,70.8380221 92.7804041,69.3837381 92.0879902,68.2430802 C95.0294074,68.5597656 100.36341,70.6814775 105.942978,75.627755 C106.740059,76.3362716 107.541837,77.0991346 108.341602,77.9257372 C110.029696,82.5847703 111.88982,86.8369432 114.01537,90.8706567 C118.078605,98.5757743 123.137789,105.477906 129.99215,112.831449 C142.922577,126.711933 151.893363,129.625976 157.141216,129.625976 C159.054748,129.625976 160.802153,129.239834 162.315802,128.493745 C163.222918,128.045554 164.050031,127.465027 164.777334,126.761878 C166.23194,125.352896 167.148288,123.549131 167.523909,121.453103 C167.639311,120.800946 167.71553,120.123615 167.720898,119.415098 C167.726266,118.988378 167.710163,118.553767 167.674737,118.110944 C167.524446,116.245721 167.026793,114.258117 166.202874,112.164773 C165.843249,111.246922 165.409631,110.307601 164.923868,109.346809 C164.631336,108.772482 164.311645,108.190102 163.976173,107.602356 C162.983177,105.865953 161.794264,104.071582 160.420172,102.230512 C159.939776,101.583722 159.436568,100.9339 158.910548,100.276375 C158.376477,99.6107989 157.822788,98.9455716 157.245776,98.2719441 C155.203423,95.8833845 152.882495,93.4274622 150.284601,90.9208165 C143.881114,84.7373993 135.837304,78.2351496 126.352844,71.6437986 C126.199869,71.5391314 126.047564,71.4309753 125.899957,71.3209137 C125.304159,70.8861421 124.740405,70.4305714 124.319052,69.9957998 C124.002367,69.6710631 123.769201,69.3592353 123.656482,69.0774389 C123.586704,68.9003098 123.558846,68.7344257 123.564214,68.586818 C123.569581,68.4902022 123.592233,68.4072735 123.627122,68.3267603 C123.721054,68.1066907 123.919814,67.9512197 124.20161,67.8948604 C124.276756,67.8787577 124.360463,67.8707064 124.449028,67.8707064 C124.46513,67.8707064 124.479032,67.8787577 124.495135,67.8787577 C129.900257,67.8465524 140.019162,74.2849283 151.595893,82.9749912 C152.964618,84.0001932 154.35213,85.0552387 155.755744,86.1367463 C157.548506,87.5188903 159.362738,88.9423645 161.190388,90.3889192 C163.055612,91.8649953 164.932375,93.360663 166.813702,94.8716283 C167.178695,95.1668435 167.53714,95.4479689 167.891398,95.7270815 C168.39058,96.1135451 168.878705,96.4882805 169.359101,96.8425388 C175.134584,101.117792 179.716325,103.124182 183.629269,103.124182 C184.273375,103.124182 186.546263,103.064334 188.422222,102.264542 C189.546724,101.784147 190.528475,101.039399 190.925674,99.8826921 C191.014239,99.6196822 191.075697,99.3232861 191.089116,99.014652 C191.11327,98.4725295 190.984985,97.8837898 190.665589,97.3121457 C190.437469,96.904212 190.115067,96.5044905 189.650774,96.1421809 C189.40655,95.9516329 189.176255,95.7805423 188.95887,95.6221996 C188.741484,95.4638569 188.539852,95.318772 188.34662,95.1818995 C187.729352,94.7444442 187.214416,94.3685278 186.610567,93.8022513 C186.500532,93.7002679 186.387545,93.6001631 186.266695,93.4793664 C186.041258,93.2485618 185.804092,92.889097 185.771887,92.376496 C185.761152,92.2047344 185.774571,92.017058 185.818048,91.8104073 C185.823416,91.7808858 185.831467,91.7400924 185.842202,91.697152 C185.847569,91.6810494 185.850253,91.6614578 185.855621,91.6426714 C185.866356,91.5916797 185.877091,91.5409563 185.889168,91.4792295 C186.801651,87.456251 187.608797,82.5081754 187.616848,77.578081 C187.619424,75.337129 187.45931,73.0953719 187.067533,70.948352 C187.327859,71.128165 187.603429,71.3408541 187.885226,71.568975 C188.550802,72.1110975 189.268228,72.8090668 190.019685,73.6866612 C190.851656,74.6581877 191.725895,75.8439062 192.619592,77.3306906 C194.81492,80.985992 197.09586,84.2478519 199.425377,87.0846019 C203.308799,91.8107294 207.321042,95.3490181 211.30108,97.5094569 C212.519514,98.1723493 213.808907,98.7342512 215.121166,99.2119631 C218.014275,100.258635 221.041304,100.843215 223.835114,100.843215 C227.165679,100.843215 229.901519,100.004858 231.777477,98.4697383 C232.711431,99.1031092 233.967786,99.5684221 235.744365,99.5684221 L240.613001,99.5684221 C241.15244,99.5684221 241.66437,99.4822729 242.139398,99.3292977 C243.180702,98.9965097 244.031459,98.3295916 244.487701,97.4171082 C244.721189,96.9528151 244.841798,96.4539819 244.852533,95.9494322 C244.868636,95.1094107 244.583995,94.2455573 244.009667,93.4753139 L233.18654,78.3790804 L228.678603,72.088849 L228.645056,72.0426881 C228.161976,71.4334712 227.751359,70.8697174 227.370263,70.3275949 C226.661746,69.3265469 226.107896,68.4410622 225.734851,67.7486483 L225.734851,67.7432808 C226.913028,67.9740854 228.192169,68.360388 228.795964,68.6448681 C229.751388,69.0930585 230.590927,69.3158118 231.366538,69.3158118 C232.638647,69.3158118 233.723858,68.6953499 234.276823,67.6594128 C234.462004,67.3078383 234.658939,66.7573424 234.637469,66.0407745 C234.615999,65.3268904 234.376337,64.4450825 233.681374,63.4198805 C232.750104,62.0377365 231.652789,60.8080577 230.40207,59.6835292 C229.650613,59.0045342 228.85855,58.3557585 227.978272,57.7545929 C224.64234,55.4841194 221.630071,54.33278 219.029493,54.33278 C216.216897,54.33278 214.204603,55.6494936 213.007639,57.3938936 C211.985121,56.8544548 210.750746,56.2779531 209.35529,55.7626684 C207.033825,54.9011767 204.277588,54.2236845 201.37106,54.2236845 C200.372696,54.2236845 199.393279,54.305808 198.456749,54.4668345 C197.614043,54.6144422 196.785428,54.8734264 195.991031,55.2384198 C195.459643,55.4826433 194.942856,55.7763288 194.443673,56.1064331 C193.697584,56.6029314 192.992583,57.1940328 192.351161,57.8676603 C190.442997,57.1725626 188.188358,56.4875291 185.700499,55.90515 C181.551383,54.9336235 176.75494,54.248751 171.862419,54.248751 C167.877013,54.248751 164.243182,54.6966193 160.993131,55.582265 C155.579957,57.0556574 151.245929,59.7316493 148.148853,63.537242 C145.177914,61.5995566 142.320767,59.9632591 139.586001,58.6267392 C133.568978,55.685322 128.13326,54.2028048 123.353457,54.2028048 C119.037947,54.2028048 115.658806,55.4193867 113.146793,57.2094377 C112.894518,57.3865669 112.650617,57.575102 112.417128,57.7629663 C111.244319,58.7130226 110.289217,59.7862104 109.54039,60.908082 C103.98766,57.4138072 98.87158,55.2522949 94.2554872,54.4417949 C93.5147654,54.31029 92.7861205,54.2182365 92.0749202,54.1566438 C91.457652,54.1056521 90.8507968,54.0729101 90.2549988,54.0729101 C90.1369127,54.0729101 90.0349293,54.0916965 89.9195269,54.0943803 C89.2861561,54.1024316 88.6766171,54.1362472 88.0996055,54.2033415 C86.4866569,54.3858382 85.0921675,54.7670953 83.8978877,55.247491 C82.9854042,55.6124843 82.1935296,56.0303212 81.5118508,56.4677765 C81.0717117,56.7495729 80.6766869,57.0345361 80.3251124,57.3190162 C80.1023591,57.4961454 79.888167,57.6756362 79.7003028,57.8473978 C76.5924915,56.1995601 71.6385116,54.2871021 66.6547417,54.2871021 C65.8442417,54.2871021 65.0704826,54.3528546 64.3190256,54.4548381 C63.5246283,54.5648728 62.7624362,54.7311058 62.037817,54.9538592 C61.7318667,55.0477913 61.4245745,55.1403815 61.132043,55.2557838 C59.1406821,56.0367623 57.5333693,57.3323546 56.4061839,58.9964292 C55.8399074,59.8283994 55.3912071,60.7492562 55.0852568,61.7556181 C54.7873578,62.7378797 54.5773524,63.938037 54.5988226,65.3577807 C54.6471305,68.4816946 55.7909285,72.6678466 59.4757782,77.954883 C59.66901,78.2366794 59.9368776,78.6259877 60.2347766,79.0661268 C60.3555464,79.2405722 60.4806909,79.4237398 60.6121958,79.6196554 C60.9476677,80.1107862 61.3140029,80.6482121 61.7192529,81.2466939 L61.7149589,81.2466939 C60.5206791,81.375515 59.0846985,81.8173449 57.8527385,82.4292456 C57.1120167,82.7969227 56.4454207,83.224126 55.9489224,83.6830515 C55.4792618,82.950381 54.9990271,82.1964281 54.5105801,81.4396036 C50.3265751,74.9421847 45.5915912,67.7832153 41.41027,62.2170663 C38.0501839,57.7458975 35.5328031,54.829171 32.6209074,52.9746826 C30.87377,51.8635998 28.9860027,51.1374508 26.6913753,50.6892604 C25.8298835,50.5201826 24.8994456,50.4334967 23.9278923,50.4334967 L23.9235983,50.4334967 C16.4814907,50.4334967 6.75065987,55.4757728 3.10340987,61.219051 C3.00947775,61.3693424 2.92276498,61.5219955 2.84761929,61.6803382 C2.62486598,62.1499988 2.49553487,62.6469802 2.46601334,63.1354273 C2.45527825,63.2991375 2.45527825,63.460835 2.46601334,63.6218614 C2.50090242,64.1049409 2.63358825,64.5717567 2.86439288,64.9931094 C3.05494089,65.3339488 3.30117724,65.6279831 3.58565737,65.8695229 C4.15730141,66.3552861 4.8939976,66.6327348 5.69913005,66.6327348 C6.0668072,66.6327348 6.43767805,66.5707396 6.81877407,66.4607048 C7.04689493,66.3936104 7.27568674,66.312292 7.50649137,66.204941 C9.83869171,65.1233798 12.006645,64.5946761 14.1321947,64.5946761 C15.9115374,64.5946761 17.6452559,64.9662179 19.43265,65.7310938 C20.7342808,66.2839514 22.194791,67.3842991 23.8106919,69.0187179 C24.0817531,69.2897792 24.3492986,69.5793048 24.6284112,69.8825714 C26.574148,71.9973859 28.7294875,74.840577 31.0777905,78.3992624 C31.751418,79.4164131 32.4377934,80.4914528 33.1409424,81.6240863 C33.3207553,81.9166177 33.4775951,82.1692146 33.6064163,82.3704977 L34.3276808,83.5236889 C35.7715517,85.8129489 38.120123,89.5495686 40.873676,93.8436083 C43.841931,98.4704361 47.2747474,103.741638 50.5435851,108.545595 C50.7770735,108.891802 51.0130847,109.233313 51.2438893,109.568784 C52.1697917,110.921407 53.0794303,112.231411 53.9569173,113.468578 C53.4255299,113.573245 52.8426408,113.675497 52.233424,113.774689 C50.7895531,114.013545 49.1231973,114.231602 47.2391874,114.395312 C45.1565781,114.577809 42.8192786,114.70145 40.2025981,114.70145 C35.5811379,114.70145 30.6937155,114.336108 25.6723728,113.61954 C25.6267486,113.614172 25.5838082,113.614172 25.5381841,113.611489 C25.4147304,113.59807 25.2929675,113.587335 25.1775384,113.587335 C24.0932934,113.587335 23.108187,114.115716 22.5231241,114.987943 C22.4560297,115.089926 22.3907871,115.192447 22.3344278,115.302455 C22.2619659,115.444695 22.1967234,115.59096 22.1457316,115.738568 C22.0437482,116.033783 21.9872279,116.341398 21.973809,116.652715 C21.9442875,117.275351 22.0887014,117.909742 22.3973355,118.489437 C22.475165,118.634361 22.5649104,118.776091 22.6615263,118.912964 C23.4800776,120.056252 24.3519824,121.082125 25.2698334,122.015944 C32.7387788,129.629813 43.2481726,130.700371 51.8684574,130.700371 L51.8693162,130.698144 Z M51.8693162,128.190505 C46.9741109,128.190505 42.3510404,127.7965 38.1777705,126.626374 C32.8102209,125.120776 28.1879555,122.330187 24.7044157,117.451085 C24.3152684,116.906278 24.4675726,116.281952 24.9560196,116.134344 C25.0633706,116.102139 25.1797928,116.086305 25.3166653,116.105091 C36.5697332,117.707305 45.0821302,117.29717 50.6616981,116.553765 C53.1951815,116.218293 55.1274994,115.809527 56.431814,115.492842 C57.1537494,115.32108 58.0932316,114.91583 57.3417747,113.882577 C56.7701306,113.096231 56.1786803,112.261577 55.5721472,111.400085 C49.579278,102.887151 42.1519311,91.2202452 38.0940636,84.7845532 C37.0608103,83.1501343 36.2442718,81.8527976 35.728987,81.0315625 C34.3441592,78.8389184 29.6070282,70.8434164 24.5159074,66.22464 C23.1552335,64.9927873 21.7714792,63.9962749 20.4188567,63.4192901 C18.3335637,62.5309606 16.1615847,62.0428357 13.8562221,62.0857761 L13.8479024,62.0857761 C13.8344835,62.0857761 13.8194007,62.087279 13.805955,62.0911436 C13.1108573,62.1045625 12.4033606,62.1754142 11.684109,62.2881327 C10.0201686,62.5484589 8.28269273,63.0754986 6.45504207,63.9235714 C5.35469439,64.4361724 4.87647255,63.8647967 4.99992619,63.1561728 C5.03213149,62.962941 5.1002457,62.760826 5.22638311,62.5649104 C8.83874404,56.872624 19.5598877,51.8491342 26.2102818,53.150765 C26.8597553,53.2795862 27.4714949,53.4322393 28.0511903,53.6120523 C31.1160612,54.5594248 33.3833141,56.3315213 36.2871585,59.7721206 C36.5260145,60.053917 36.7698891,60.350984 37.0167964,60.6569344 C37.2771225,60.9763036 37.5382807,61.3045561 37.8093419,61.650763 C38.3165754,62.2975527 38.846111,62.9804124 39.4070199,63.7265018 C40.8911474,65.7017601 42.4501522,67.893599 44.0282118,70.1801752 C46.4704469,73.7120228 48.953207,77.4789692 51.3122451,81.1208517 C54.6428097,86.2629642 57.706607,91.1345523 59.971713,94.6529811 C62.1214166,97.9942808 63.8774105,100.690938 65.3266489,102.888949 C68.5257085,107.741214 70.250839,110.148829 71.549786,111.552443 C71.6356668,111.643691 71.728418,111.727425 71.8223501,111.799887 C71.8465041,111.818673 71.8694772,111.829945 71.8936312,111.846048 C71.9660931,111.89704 72.0407557,111.94991 72.1158746,111.99285 L72.1536085,112.008953 C72.7091499,112.301484 73.326928,112.33471 73.8100075,112.235464 C73.8422128,112.230096 73.8826304,112.227412 73.9148357,112.219361 C74.5723605,112.052967 75.3025083,111.885553 76.0995895,111.724527 C77.9567616,111.34343 80.1735597,110.981631 82.6077434,110.697151 C83.3457815,110.608586 84.1007542,110.526463 84.8763651,110.454001 C90.7243105,109.914562 97.5131873,109.867435 103.637561,110.986569 C104.410489,111.126125 105.172681,111.284817 105.91877,111.46463 C106.943972,111.711537 107.936808,111.995346 108.900176,112.320083 C114.412649,114.179939 118.816992,117.379267 120.545343,122.593841 C120.74931,123.208426 120.66359,123.534505 120.448888,123.700899 C120.118784,123.953173 119.47771,123.813349 119.04828,123.663057 C113.769295,121.819304 107.745562,121.283542 101.436007,121.47409 C95.3196845,121.661954 88.9306901,122.537375 82.674811,123.60015 C81.9072514,123.731655 81.1432075,123.864233 80.3810154,123.998529 C78.311825,124.366099 76.2657151,124.74384 74.2502002,125.122253 C73.4853244,125.264493 72.727319,125.406223 71.9731783,125.545779 C64.3861468,126.957445 57.3986707,128.19182 51.8700945,128.19182 L51.8693162,128.190505 Z M157.677139,127.096035 C157.290998,127.114821 156.891115,127.109454 156.477814,127.087983 C154.808506,126.999419 152.916176,126.571679 150.804045,125.720922 C150.535668,125.613571 150.260071,125.497901 149.986326,125.377077 C149.870924,125.326085 149.757937,125.279924 149.642481,125.226249 C144.741908,122.982613 138.769167,118.56995 131.828925,111.119792 C130.13278,109.300192 128.55311,107.511725 127.060931,105.727014 C126.411457,104.94872 125.775913,104.165406 125.161328,103.387112 C124.460863,102.498782 123.786565,101.613807 123.131724,100.72011 C122.409788,99.7378488 121.712839,98.7438323 121.039211,97.7427306 C116.777377,91.4278084 113.438224,84.722397 110.526328,76.5744566 C104.090636,69.7845062 96.893289,66.2290413 92.3603933,65.7513294 C91.5123205,65.6627649 90.7625275,65.6853086 90.1211053,65.8141298 C89.9278735,65.8517026 89.7351516,65.8876652 89.56339,65.9440245 C88.5596582,66.2848639 88.5690514,67.1084607 89.5969372,68.9549514 C89.8009041,69.317261 90.0447787,69.7213302 90.3265751,70.1668368 C90.9196893,71.106158 91.686739,72.2336655 92.628744,73.5969694 C93.5358599,74.9039678 94.8280974,76.7407433 96.2853872,78.7884635 C99.9433723,83.9225247 104.6381,90.420212 106.873684,93.4904504 C107.367499,94.1694454 107.745079,94.686582 107.959781,94.9791134 C108.061764,95.115986 108.134065,95.2472225 108.190424,95.3733063 C108.193001,95.3840414 108.201696,95.3974603 108.207064,95.4068535 C108.236585,95.4846829 108.245469,95.5566081 108.261571,95.62907 C108.272306,95.6881131 108.300808,95.7474245 108.303492,95.8011 C108.306068,95.825254 108.295172,95.8483344 108.295172,95.8724884 C108.292596,96.0952417 108.229581,96.294673 108.098076,96.4637508 C107.808228,96.8341118 107.238758,97.0592268 106.575866,97.0592268 L101.216636,97.0592268 C99.1930693,97.0592268 98.3117177,96.2725319 97.5683121,95.3063729 C97.3375074,95.0057902 97.1209536,94.6906076 96.8847814,94.3712384 C96.3319238,93.5231656 94.9910562,91.6415711 93.2198185,89.1966522 C91.1506281,86.3357482 88.4880551,82.7016487 85.7640237,78.9899881 L85.6843424,78.8767328 C85.4642728,78.57615 85.2391578,78.2757283 85.0217721,77.9751455 C84.474282,77.2317399 83.9299856,76.4864824 83.3905469,75.7484444 C82.733022,74.8547473 82.066936,74.0516277 81.398676,73.3162734 C80.7492025,72.5970218 80.099729,71.950232 79.4529393,71.3705367 C79.3241181,71.2551343 79.1902782,71.1268499 79.0587464,71.0141045 C74.7673905,67.3239141 70.8265355,66.5391784 69.3343567,66.7243588 C68.424557,66.8397611 67.7006088,67.4228112 67.6066766,68.5526804 C67.5100607,69.7040198 68.0652801,71.4240511 69.7453231,73.8152945 C70.5209341,74.9210097 71.8240678,76.7749614 73.3727132,78.9649217 C73.8933655,79.700276 74.4403457,80.4757259 75.0039384,81.2754908 C75.8385924,82.4536679 76.7106581,83.6861915 77.582885,84.9152262 C78.2055207,85.7955043 78.8286664,86.6704149 79.4405671,87.5319067 C81.5204926,90.4625888 83.4571045,93.1839365 84.7453164,94.9793818 C84.9680697,95.2906997 85.0734079,95.5726571 85.0975619,95.8222481 C85.1001383,95.8490859 85.0975619,95.8735082 85.0975619,95.8976622 C85.108297,96.6303327 84.3330349,97.0592268 83.3615084,97.0592268 L78.10292,97.0592268 C76.4523985,97.0592268 74.6770814,96.7395355 73.1043894,95.3734942 C70.5682222,93.1727988 67.282745,90.0808218 62.5244122,87.6493218 C61.2362003,86.991797 59.8500306,86.3748776 58.3310141,85.846174 C58.212928,85.8059174 58.1156411,85.7377495 58.045863,85.6491849 C57.8714176,85.4291154 57.8920558,85.0919528 58.3268274,84.8021051 C58.4127082,84.7457458 58.5163555,84.6923387 58.6371523,84.6386632 C59.1229155,84.4293288 59.8072781,84.2074074 60.582889,84.022227 C62.4105397,83.5847717 64.7961471,83.354128 66.6506355,84.0600682 L66.6549296,84.0600682 C64.4542342,80.8100169 62.4312047,77.8057993 61.5348239,76.5202712 C59.0228107,72.9132778 57.7160807,69.7818493 57.2786254,67.1436986 C57.200796,66.6633029 57.1476035,66.1969971 57.1234496,65.7514904 C57.1127145,65.5287371 57.1068102,65.3078356 57.1068102,65.0931336 C57.1175453,63.4479797 57.5144219,62.0467808 58.1719467,60.8954414 C59.0656437,59.3308007 60.445936,58.2217307 62.0508065,57.5911778 C65.6631674,56.171461 70.1367517,56.8482821 73.9181904,58.1069725 C76.5026656,58.9684643 78.7626724,60.1015272 80.1958081,61.0381914 C80.1958081,61.035615 80.6674816,60.2842117 81.7222051,59.398566 C82.1918657,59.0067349 82.7791025,58.5883881 83.487619,58.1992407 C84.596018,57.5900238 86.0085155,57.0445734 87.769045,56.7735122 C88.3084837,56.6876314 88.8844755,56.6395918 89.4883248,56.6100703 C90.1700036,56.5805488 90.8929589,56.5912839 91.6605185,56.6479115 C92.3502486,56.6989032 93.0762097,56.79042 93.8410856,56.9246892 C98.1431766,57.6815137 103.615662,59.8467832 110.488809,64.5272866 C111.83338,60.9015068 116.007724,56.3176193 124.440144,56.7443395 C124.51529,56.746916 124.587269,56.7470233 124.662388,56.7523909 C130.518384,57.1066491 138.397411,59.8639594 148.7702,66.9759627 C150.699834,63.9245107 153.300949,61.6945622 156.301409,60.1030837 C160.394166,57.9372775 165.225497,56.970045 170.139489,56.7902321 C170.236105,56.7876557 170.333794,56.7848645 170.433014,56.7821808 C172.188202,56.7285053 173.953858,56.7768132 175.695628,56.9037558 C182.453373,57.3975703 188.869205,59.0886705 193.144458,60.8706433 C194.564175,58.8175556 196.648394,57.33477 198.889346,56.9456226 C202.244065,56.3605597 205.686006,57.0800798 208.584483,58.1617215 C208.648894,58.1858755 208.717062,58.208956 208.781472,58.23311 C208.78684,58.23311 208.792207,58.2384775 208.797575,58.2411613 C211.073416,59.1133881 212.995267,60.2008 214.240539,61.0381914 C214.439138,59.4145076 215.548208,57.3756439 218.014731,56.932821 C219.804809,56.6107681 222.317627,57.1324939 225.71797,59.2769105 C225.734073,59.2849618 225.748028,59.2983807 225.764131,59.3061636 C225.833909,59.349104 225.904224,59.397412 225.974002,59.4403524 C226.169918,59.5691736 226.363981,59.6950426 226.565265,59.8345184 C228.333872,61.0395333 229.570556,62.2604898 230.440099,63.2855845 C230.941965,63.8760149 231.319867,64.4058994 231.601663,64.8245683 C232.143786,65.627017 232.25315,66.2439363 231.987456,66.5606217 C231.818378,66.7672724 231.485429,66.8367285 231.010401,66.7535851 C230.688348,66.6999096 230.316484,66.5882646 229.86561,66.3761659 C228.228507,65.6059225 223.611609,64.478415 222.833315,65.3613769 C221.424333,66.9501716 226.201989,72.9988634 226.674333,73.5973451 L235.535084,85.9636428 L241.997077,94.979516 C242.402327,95.5189548 242.41003,95.9941708 242.189772,96.3591641 C241.926762,96.7885681 241.332306,97.0594415 240.613054,97.0594415 L235.748713,97.0594415 C233.268905,97.0594415 232.506176,95.8878128 231.609795,94.6398575 C230.954954,96.2018144 229.554024,97.2396033 227.718322,97.8059066 C227.71027,97.8084831 227.707586,97.8074096 227.702219,97.8112742 C223.65777,99.0484944 217.508974,98.0181932 212.50105,95.299422 C211.814003,94.9263773 211.12006,94.5026897 210.416911,94.0330291 C207.891479,92.3368834 205.273725,90.0079036 202.638258,87.0047596 C202.265213,86.5780394 201.890156,86.1373904 201.514427,85.6838325 C201.020613,85.0853507 200.527979,84.4576694 200.034164,83.8135635 C198.472207,81.7792621 196.909714,79.5028843 195.358492,76.9908711 C195.162576,76.6715019 194.967332,76.3621968 194.771416,76.0347763 C194.540611,75.6536803 194.314503,75.2933835 194.083699,74.9444928 C188.579277,66.514756 183.373827,67.0692239 183.373827,67.0692239 C184.390978,69.5812371 184.871883,72.424965 185.030226,75.2590312 C185.035593,75.3905361 185.043645,75.5231146 185.051696,75.6574107 C185.07585,76.2424736 185.093563,76.8263557 185.093563,77.406051 L185.093563,77.452212 C185.093563,79.1537252 184.99641,80.8214229 184.846119,82.3753285 C184.808546,82.775211 184.767484,83.1657002 184.724544,83.54948 C184.70039,83.7561307 184.677309,83.95473 184.653155,84.1533294 C184.610215,84.4834337 184.566201,84.8038227 184.523261,85.1178244 C184.450799,85.6196902 184.373506,86.0999249 184.301044,86.5561666 C183.890427,89.0628123 183.455655,90.8453756 183.361723,91.2989335 C182.94037,93.2983458 183.905858,94.6598248 184.485554,95.2448877 C185.846228,96.6216642 186.744111,97.0602735 188.112944,98.1256516 C189.792987,99.4326499 186.709678,100.616544 183.625941,100.616544 C181.283005,100.616544 177.293306,99.7404521 170.001489,94.1797779 C169.478153,93.7798955 168.942552,93.3615755 168.387011,92.9133851 C167.128321,91.9042858 165.886753,90.9114501 164.654954,89.9319797 C151.39979,79.379377 139.703094,70.7346699 131.389565,67.1491467 C127.235081,65.3563851 123.922766,64.8238168 121.681814,65.9456347 C118.077505,67.7518152 121.435578,71.2825894 124.919252,73.7033543 C126.432901,74.755394 127.879992,75.7968865 129.297025,76.8275365 C130.587921,77.764174 131.837057,78.6898884 133.050016,79.6076589 C134.440211,80.6596986 135.79176,81.7038749 137.079972,82.7318412 C144.344951,88.5180597 150.023818,93.8778264 154.323226,98.7381427 C154.910972,99.401035 155.474887,100.060734 156.008958,100.70484 C156.612808,101.429459 157.188826,102.141491 157.728265,102.839273 C159.856498,105.603561 161.487965,108.166297 162.684929,110.517284 C163.057973,111.252638 163.395807,111.97189 163.682971,112.664304 C164.182153,113.866635 164.546127,114.998517 164.798401,116.069477 C165.72162,120.003891 165.025449,123.027164 163.028801,124.959482 C162.548405,125.426458 161.990851,125.822986 161.368215,126.150407 C160.614074,126.544922 159.755776,126.831924 158.797669,126.9849 C158.439385,127.041259 158.064139,127.079637 157.678025,127.098155 L157.677139,127.096035 Z M155.031098,117.560314 C155.133082,117.552263 155.212253,117.524889 155.265928,117.476581 C155.357177,117.398751 155.409779,117.270467 155.441984,117.120148 C155.627165,116.309648 154.959898,114.487714 152.984639,111.559635 C151.637384,109.562907 149.684133,107.057871 146.992307,104.019838 C146.960102,103.984949 146.934874,103.952476 146.899985,103.914903 C146.280033,103.214438 145.630908,102.503908 144.962648,101.784657 C144.313175,101.081508 143.640728,100.370978 142.945631,99.6544102 C138.887763,95.473089 134.098835,91.130473 128.495113,87.2336319 C126.511804,85.8568554 124.773523,85.0904767 124.523932,85.2837085 C124.150887,85.5681886 125.274557,87.898886 126.884822,90.3114923 C130.856808,96.2721562 134.327198,100.746277 139.670593,106.154083 C146.994615,113.558618 153.53068,117.70505 155.03091,117.560127 L155.031098,117.560314 Z M150.355426,112.180151 C148.205722,110.599408 145.503429,108.358187 142.513704,105.432873 C142.164813,105.092033 141.811226,104.748349 141.456968,104.388723 C141.271787,104.203543 141.105715,104.026092 140.928586,103.843595 C140.281796,103.180703 139.665548,102.533913 139.075117,101.897858 C138.374652,101.143717 137.704031,100.399963 137.07066,99.6753437 C136.60905,99.14664 136.16086,98.623465 135.728772,98.1028126 C134.201704,96.2671107 132.834858,94.4722021 131.514441,92.6177136 L131.519808,92.6177136 C134.190164,94.7459471 136.826168,97.1025698 139.453583,99.7004638 C140.137946,100.376775 140.82247,101.069189 141.504148,101.780389 C142.676958,102.998823 143.851109,104.260707 145.026603,105.583835 C145.850522,106.512421 146.59076,107.375926 147.261704,108.183742 C148.547232,109.729596 149.562021,111.061017 150.356365,112.180151 L150.355426,112.180151 Z M223.445349,90.0725558 C224.275629,90.0708918 224.977275,89.9429295 225.512688,89.7161236 C226.027973,89.4987379 226.335936,89.233232 226.50233,88.9487519 C226.829751,88.3824754 226.595457,87.7371886 226.284407,87.208485 C226.28226,87.2031174 226.28226,87.1977499 226.276356,87.1923823 C226.268305,87.1762797 226.260254,87.1639343 226.252202,87.1505154 C226.101911,86.9036081 225.935383,86.6795129 225.811902,86.5131189 C225.704551,86.368195 225.400801,85.9398109 224.960636,85.330594 C223.919331,83.8894069 222.098121,81.3795407 220.155068,78.8058006 C218.864173,77.0908685 217.520782,75.3552713 216.326395,73.8952978 C214.874473,72.1266902 212.964162,70.5032748 211.042579,69.2365331 C207.932084,67.1834453 204.791531,66.0675318 203.51137,66.8001755 C203.025607,67.0819718 202.639466,67.5945728 202.446234,68.343346 C202.40061,68.5151076 202.369746,68.6967723 202.345592,68.8926879 C202.345592,68.9087905 202.340225,68.9267718 202.337541,68.9431428 C202.321438,69.1014855 202.321438,69.2803055 202.321438,69.4547508 C202.321438,69.5164776 202.313387,69.5663959 202.313387,69.6308065 C202.316071,69.767679 202.334857,69.921996 202.346934,70.0669199 C202.357669,70.1823222 202.354985,70.2859159 202.371088,70.4065784 C202.381823,70.4870917 202.40383,70.5791451 202.417249,70.6623422 C202.575592,71.6150822 202.925502,72.726997 203.515933,74.004447 C204.444492,76.0092268 205.963348,78.4007385 208.308886,81.1918643 C209.156959,82.2009637 210.017968,83.1059057 210.879459,83.9218001 C210.914348,83.9540054 210.947896,83.9819167 210.980101,84.014122 C214.396546,87.2158653 217.827752,88.9654181 220.608143,89.6793023 C221.660183,89.9503635 222.616788,90.075159 223.44704,90.0734951 L223.445349,90.0725558 Z M222.560536,87.577504 C222.549801,87.577504 222.541749,87.5721364 222.531014,87.5721364 C222.512228,87.5721364 222.489684,87.5706335 222.468214,87.5667689 C221.233677,87.3413318 219.105712,86.516903 216.773512,85.1052375 C214.588919,83.7821365 212.221562,81.939725 210.227517,79.5699519 C209.111093,78.2414833 208.219892,77.0451907 207.505901,75.9634952 C206.75176,74.8228909 206.197561,73.8194812 205.794994,72.9525682 C205.150888,71.5516378 204.892253,70.5026307 204.830526,69.8074525 C204.814424,69.646426 204.875345,69.5011533 204.977329,69.3964861 C205.076628,69.2918189 205.2186,69.2287501 205.371495,69.2287501 C205.419803,69.2287501 205.471599,69.2368015 205.522591,69.2529041 C205.933209,69.3709902 206.417469,69.5645441 206.927386,69.7980325 C208.653053,70.5816947 210.809735,71.9626579 212.672275,73.6938 C213.281492,74.2600765 213.86371,74.8548815 214.378994,75.4802011 C215.898011,77.3373732 217.947073,80.0396661 219.712997,82.4201744 C221.079038,84.2585602 222.274821,85.9039825 222.937821,86.8191497 C222.959291,86.8486713 222.956607,86.8792663 222.967342,86.9114716 C223.047856,87.085917 223.01565,87.2664276 222.900248,87.3979326 C222.817051,87.4972323 222.705406,87.5739882 222.560563,87.5739882 L222.560536,87.577504 Z M175.21338,87.2000847 C175.21338,87.2000847 178.122324,76.5079258 174.974256,70.426492 C174.772973,70.0400284 174.547213,69.6698554 174.294939,69.3236484 C170.304165,63.8514315 161.316472,65.5526764 157.089527,70.72423 C157.025116,70.8047432 156.94997,70.874253 156.888243,70.9547663 C156.815782,71.0460146 156.761033,71.1474613 156.691254,71.244104 C156.495339,71.5151653 156.301087,71.7830328 156.129326,72.0701968 C156.131902,72.0701968 160.548966,75.6516943 165.707181,79.7525022 C166.960504,80.7454989 168.251749,81.768366 169.53988,82.7800686 C171.512455,84.3339742 173.466511,85.8634575 175.213648,87.1999774 L175.21338,87.2000847 Z M220.333003,85.4808049 C218.309436,82.7218844 215.373655,78.7710994 213.363508,76.3181292 C211.543908,74.0986475 209.037531,72.2857575 207.064957,71.3195986 C206.439637,71.0109645 206.57082,71.3971597 206.654017,71.6173366 C207.252499,73.1444045 208.522595,75.5061263 211.233074,78.7293399 C214.139602,82.1833581 217.796513,84.3856637 220.332681,85.4806439 L220.333003,85.4808049 Z M173.552123,82.7382554 C171.5876,81.2031362 169.512506,79.5654968 167.534564,77.9954885 C167.451367,77.9310779 167.370317,77.8669357 167.287119,77.8025251 C167.10999,77.660285 166.933183,77.5185549 166.758738,77.3789986 C166.476942,77.1562453 166.202204,76.9380275 165.928458,76.7206418 C163.389607,74.6943918 161.118866,72.8723771 159.613268,71.6593108 C159.809183,71.4607115 160.023402,71.2756921 160.238104,71.0931954 C161.131801,70.3363709 162.177132,69.7100583 163.290898,69.2565004 C164.538854,68.7492669 165.867805,68.4555546 167.161438,68.4555546 C168.243,68.4555546 169.606196,68.6670361 170.813787,69.4451966 C171.339807,69.7806684 171.839499,70.2187947 172.268903,70.8038576 C174.305888,73.5949834 174.123714,78.8441786 173.55207,82.7383359 L173.552123,82.7382554 Z M172.516374,80.2599772 C172.846479,76.3014093 172.389968,73.2032597 171.20382,71.5795759 C170.862981,71.1099153 170.446835,70.7345089 169.958388,70.447345 C169.357222,70.0957704 168.649726,69.8767207 167.836542,69.801575 C167.619156,69.7827886 167.394873,69.7723219 167.161385,69.7723219 C166.879588,69.7723219 166.591592,69.7937921 166.301745,69.8268025 C164.702215,70.0039317 163.035591,70.6530563 161.672233,71.6299503 C162.898718,72.6148957 164.402706,73.8184077 166.029073,75.1145636 C166.445058,75.4473517 166.867592,75.7858293 167.29968,76.1293525 C168.016247,76.7009966 168.747898,77.2776861 169.48862,77.8654328 C170.495036,78.6625139 171.509851,79.4681563 172.516186,80.2598699 L172.516374,80.2599772 Z" fill="#003366"></path>
                    </g>
                </g>
            </g>
        </g>
    </g>
</svg>