<?xml version="1.0" encoding="UTF-8" standalone="no"?>
<svg width="250px" height="250px" viewBox="0 0 250 250" version="1.1" xmlns="http://www.w3.org/2000/svg" xmlns:xlink="http://www.w3.org/1999/xlink">
    <!-- Generator: Sketch 47.1 (45422) - http://www.bohemiancoding.com/sketch -->
    <title>WYO</title>
    <desc>Created with Sketch.</desc>
    <defs></defs>
    <g id="Page-1" stroke="none" stroke-width="1" fill="none" fill-rule="evenodd">
        <g id="WYO" stroke="#FFC425" stroke-width="2.14285714" fill="#492F24" fill-rule="nonzero">
            <g id="Wyoming_Athletics_logo" transform="translate(53.000000, 0.000000)">
                <path d="M141.678806,194.042857 C138.384716,192.24 136.552119,186.779286 132.428418,185.315714 C132.240716,185.104286 132.240716,185.104286 132.255045,184.907143 C132.456358,184.922143 132.667701,184.74 133.071761,184.766429 C134.790448,184.585 135.796299,183.172143 136.609433,181.545 C136.833672,181.262857 136.947582,181.073571 137.232,181.288571 C137.412537,181.598571 137.633194,181.316429 137.812299,181.626429 C138.725015,182.975714 139.030209,184.377857 140.326209,184.561429 C140.52609,184.576429 140.666507,183.992143 140.666507,183.992143 C141.064119,182.635 140.530388,181.610714 139.710806,180.371429 C137.60597,177.361429 135.194507,174.433571 131.916896,173.815 C129.930269,173.484286 127.562507,172.831429 126.406925,172.062857 L124.802149,170.57 C124.742687,169.972857 124.382328,169.356429 124.996299,169.2 C126.232836,168.788571 126.765134,169.810714 127.74591,170.174286 C128.712358,170.734286 130.09791,172.507857 131.080119,171.387143 C131.080119,171.387143 131.095164,171.192143 131.30794,171.007857 C129.556299,164.367143 124.666746,160.876429 119.745672,157.873571 C119.759284,157.679286 119.671164,157.475 119.671164,157.475 L120.782328,155.97 L122.302567,157.256429 L123.622925,158.532857 C124.231164,158.474286 124.841552,158.316429 125.070806,157.937143 C125.246328,156.862143 124.873075,156.44 124.626627,155.633571 C123.123582,152.669286 119.692657,152.830714 116.402866,150.929286 C116.232358,150.522143 115.791045,149.604286 116.225194,149.140714 C116.425075,149.152857 116.826985,149.180714 116.826985,149.180714 L118.97194,151.596429 L120.347463,152.083571 C120.368239,151.790714 120.520836,151.010714 120.755821,150.532143 C120.403343,149.816429 120.559522,149.035 120.123224,148.017857 C119.580896,145.707857 117.894448,143.914286 115.818269,143.378571 C116.498866,137.889286 112.802866,133.193571 114.16191,128.049286 C114.176239,127.852143 113.925493,127.141429 113.623164,127.120714 C113.410388,127.305 113.011343,127.277857 112.811463,127.264286 L111.802746,127.296429 L110.595582,136.01 L109.520955,137.022857 C109.132657,136.8 108.932776,136.787143 108.447045,136.557143 C106.467582,133.161429 105.894448,128.379286 102.432716,126.071429 C102.432716,126.071429 102.234269,126.056429 101.945552,125.841429 C101.180418,125.295714 101.34591,124.317857 101.201194,123.517857 C101.428299,123.137143 101.836657,123.068571 102.147582,122.89 C103.147701,122.957143 104.518925,122.060714 105.092776,121.012857 L105.571343,118.476429 C105.713194,117.892857 106.173134,117.034286 106.579343,116.963571 C107.367403,117.215 107.905433,118.139286 108.588179,118.482143 C109.033791,119.302143 110.439403,119.299286 111.08203,118.748571 C111.026149,116.669286 110.473075,114.458571 109.681433,112.824286 C109.136239,111.996429 108.402627,110.957857 107.936239,110.432143 C105.95606,110.003571 104.351284,111.377857 102.642627,111.360714 C102.26794,110.941429 102.810269,110.384286 103.050985,109.808571 C100.892418,97.4064286 103.606209,82.8657143 101.065075,71.6242857 C100.461134,68.7171429 98.7625075,67.12 99.0132537,64.9628571 C99.8414328,63.1414286 98.4286567,61.7621429 98.6099104,60.5885714 C99.0032239,60.7135714 99.2632836,61.3228571 99.2511045,61.5207143 C101.530746,61.9714286 104.217313,60.9657143 106.065672,60.3992857 C106.652418,60.6364286 107.218388,61.1678571 108.047284,60.8285714 C109.569672,60.635 109.985194,58.9835714 110.546149,58.1314286 L111.576358,57.8042857 C111.360716,57.9878571 111.561313,58.0014286 111.983284,57.7335714 C112.595821,57.5764286 112.952597,56.8092857 114.319522,57.3964286 C114.677731,58.0121429 115.713672,57.5892857 115.926448,57.4064286 C116.757493,55.5842857 118.347224,54.4057143 120.25791,52.9542857 C120.694925,51.0071429 119.49994,49.3442857 119.631045,47.4764286 C117.610746,46.1542857 118.21397,43.2292857 116.140657,42.6942857 C115.752358,42.4714286 115.580418,42.0635714 115.179224,42.0364286 L114.959284,40.8357143 C114.406925,40.1078571 113.452657,39.3514286 112.858746,39.2135714 C112.658866,39.1992857 112.274149,38.975 112.086448,38.7657143 C109.467224,37.4035714 105.362866,37.1264286 101.442627,38.5428571 C100.193194,39.1507143 98.8914627,39.0628571 98.2538507,39.6128571 L97.6563582,40.9557143 C97.6413134,41.1542857 97.5288358,41.3435714 97.1061493,41.6114286 C95.4841791,41.7992857 94.8773731,43.34 94.8866866,44.6257143 L95.0435821,48.1935714 C94.8286567,48.3764286 94.1301493,48.3285714 93.521194,48.3864286 C92.1234627,46.8092857 92.3190448,43.9564286 90.2930149,42.7335714 C89.7041194,42.4964286 88.503403,42.415 88.1494925,43.1821429 C88.105791,43.7721429 88.1466269,44.665 88.1201194,45.0571429 C87.0985075,45.2864286 86.470209,45.6371429 85.6907463,45.29 C83.3802985,45.2321429 82.3551045,48.425 79.9357612,48.5585714 C77.8538507,46.6392857 73.9257313,40.9378571 72.7730149,38.6864286 C71.5837612,35.5435714 76.0979104,34.2671429 77.7542687,32.1042857 C80.2911045,30.2992857 87.582806,28.1221429 87.7769552,26.7514286 C91.5983284,28.1942857 95.2842985,30.1228571 99.8872836,29.0485714 C103.071045,28.0771429 106.168836,26.9028571 108.472119,24.0928571 C108.242149,23.0885714 108.409791,22.1135714 108.683463,21.0435714 C107.45409,17.0078571 105.208119,14.5835714 101.503522,12.95 C100.549254,12.1957143 99.246806,12.1071429 98.5934328,11.3714286 C97.6348657,9.23071429 98.6858507,7.12714286 98.4544478,4.64142857 C97.8376119,3.41357143 97.0961194,2.475 96.0967164,2.40785714 C95.6754627,2.67642857 95.1008955,2.24071429 94.6739104,2.60857143 C94.3450746,2.98071429 93.368597,2.61928571 93.1808955,2.40785714 C92.9946269,2.19928571 93.0075224,2.00142857 92.9186866,1.79785714 C92.3677612,1.06857143 90.9005373,0.476428571 89.4999403,0.382142857 L86.7281194,2.66571429 L84.4040597,4.28785714 C80.1678806,3.01285714 75.8292537,3.21642857 71.3609552,5.28642857 C69.8980299,6.07642857 70.0771343,7.86785714 69.6544478,9.61785714 C70.289194,14.9992857 74.2624478,17.1428571 76.9425672,20.5857143 C77.1875821,21.3914286 76.7455522,21.955 76.3980896,22.6242857 C72.4427463,26.0135714 69.3084179,29.1628571 65.1001791,31.8464286 C63.569194,33.6185714 61.1204776,34.1478571 61.1082985,37.2092857 C61.1362388,42.6464286 63.0827463,47.9178571 65.9749254,51.1771429 C66.7407761,53.2028571 68.007403,53.7835714 69.399403,55.4585714 C70.0327164,56.4885714 70.686806,57.2257143 71.232,58.0528571 C73.3948657,67.4878571 65.8466866,79.235 72.3037612,87.675 C72.9270448,88.805 72.4728358,89.5642857 71.904,90.5142857 C70.4740299,92.2957143 70.2770149,95.1485714 69.8192239,97.3914286 C67.3375522,96.9271429 65.1295522,95.3942857 62.6536119,96.3157143 C61.7738507,95.9592857 61.6284179,95.1585714 61.0696119,94.5285714 C55.7595224,86.9571429 44.6700896,88.78 37.047403,87.0785714 L35.8330746,85.7128571 C37.9228657,81.7021429 39.3356418,77.2521429 39.1551045,72.595 C39.3313433,70.0364286 38.5998806,67.5164286 38.2037015,64.5242857 C37.7939104,61.73 35.7936716,60.1128571 34.254806,57.6371429 C33.3012537,56.8807143 32.1026866,56.8 31.033791,56.2335714 C27.5133134,54.8114286 23.2040597,53.1385714 19.1555821,54.94 C15.8715224,55.905 15.286209,60.0157143 12.5802985,62.7978571 C10.0742687,65.595 7.56107463,68.4885714 9.5441194,73.2678571 C8.35916418,75.8571429 7.49516418,78.1707143 6.12465672,80.5492857 C5.92692537,81.9185714 5.32656716,83.3621429 5.11880597,84.9264286 C4.19892537,88.0285714 0.507940299,93.4121429 3.76907463,94.2257143 C4.09289552,96.8164286 3.13791045,99.0257143 2.69373134,101.07 C2.23880597,103.313571 2.28895522,105.489286 1.85910448,107.339286 C0.48358209,106.851429 3.29695522,108.326429 2.63641791,109.172143 C3.64083582,112.105 -0.0136119403,115.516429 1.40991045,118.181429 C1.60907463,118.194286 1.7960597,118.405 1.9959403,118.419286 C6.17838806,116.129286 5.5400597,109.367143 10.6724776,107.835714 C12.7579701,105.307143 13.510209,101.701429 14.1621493,98.0885714 C15.2597015,95.2971429 14.1571343,92.3571429 16.0957612,89.0285714 C18.3159403,86.015 19.7308657,81.565 20.9158209,77.4942857 C21.7432836,77.1535714 22.966209,76.9407143 23.7750448,76.8957143 L25.1648955,80.0535714 L25.7767164,81.3792857 C26.0231642,82.1878571 26.3942687,82.6071429 26.8212537,83.7221429 C27.1780299,85.8214286 27.7705075,87.4428571 27.8013134,89.9164286 C27.2195821,91.0614286 25.3576119,91.8257143 23.8602985,93.1092857 C23.1990448,93.9535714 22.0155224,95.0592857 21.0533731,95.885 C19.3375522,97.45 17.886806,99.525 16.2282985,101.687857 C14.6686567,105.337857 13.1226269,108.790714 11.6353433,112.841429 C11.0722388,115.176429 11.0607761,118.237857 12.0709254,121.074286 C12.4362985,123.074286 13.8139701,124.947143 13.9794627,126.934286 C14.9580896,128.78 15.7432836,130.514286 16.3300299,132.231429 C15.6909851,134.166429 15.0576716,134.617143 13.160597,135.874286 C10.7426866,137.389286 9.94746269,138.722857 6.53301493,141.555 C4.21683582,143.078571 -0.194149254,147.228571 0.414089552,151.518571 C2.17576119,155.097143 6.50149254,155.092857 9.80202985,156.798571 C13.0968358,158.6 16.1315821,159.794286 19.2666269,160.993571 L16.7856716,164.877857 C16.3586866,165.246429 16.0979104,166.117143 16.3293134,167.12 C12.8210149,169.848571 27.3177313,179.817857 30.8181493,187.367143 C31.801791,190.597857 33.0333134,193.15 35.3330149,194.789286 L34.0814328,196.880714 C33.3184478,199.200714 35.6260299,200.737857 36.4241194,202.275714 C37.4700896,204.619286 38.4279403,206.760714 41.1223881,208.523571 C41.9957015,208.975 42.7300299,208.53 43.3855522,207.785714 C46.0757015,202.332857 44.1535522,196.669286 42.846806,190.849286 C39.102806,185.358571 34.8,179.236429 31.0509851,173.846429 C29.6582687,172.170714 29.4784478,170.379286 30.737194,168.190714 C30.649791,167.989286 30.8511045,168.000714 30.8511045,168.000714 C31.5295522,168.342857 31.1369552,168.218571 31.5030448,168.735 C32.6629254,169.406429 34.1566567,171.089286 36.0007164,170.622143 C36.392597,170.747857 36.7730149,171.068571 36.6440597,171.455 C36.6440597,171.455 36.4327164,171.637857 36.4054925,172.032857 C35.415403,173.249286 35.7019701,173.469286 34.8057313,174.789286 C34.6151642,177.545714 38.4558806,178.692857 39.5161791,180.84 C40.3959403,181.197143 40.3687164,181.589286 41.3645373,181.755 C42.1382687,182.202857 43.392,182.978571 43.9744478,181.831429 C43.8003582,181.424286 44.4229254,179.687857 44.8842985,178.829286 C43.7853134,172.922143 44.8284179,170.917857 42.313791,165.117143 C40.3995224,163.702857 36.694209,160.588571 34.6402388,159.757143 C39.3456716,154.242143 40.9654925,149.705714 45.9682388,142.827857 C47.6303284,142.050714 49.5288358,143.662143 50.7553433,144.833571 C51.1278806,146.732857 52.1387463,148.089286 52.5313433,149.697857 C52.5177313,149.892857 52.3056716,150.076429 52.3056716,150.076429 L48.5652537,151.802143 L46.5363582,154.925714 L48.9750448,158.945714 C49.4614925,159.173571 49.4349851,159.569286 49.8225672,159.792857 L50.4802388,160.430714 C51.001791,160.17 51.2031045,160.185 51.4029851,160.196429 C51.8908657,160.427857 52.2111045,160.151429 51.8765373,160.625 C51.6666269,163.674286 52.7899701,166.32 54.1203582,168.881429 C55.7208358,170.470714 55.505194,172.135714 56.6650746,172.807143 C57.6723582,172.776429 58.6932537,172.548571 59.449791,171.81 C59.8216119,169.362857 59.8696119,167.192143 60.0458507,164.633571 C59.8803582,164.131429 60.454209,163.080714 60.881194,162.713571 C60.8682985,162.907857 61.2544478,163.135 61.4407164,163.344286 C62.8878806,165.715714 63.6515821,167.742857 65.9992836,170.175 C67.0180299,171.429286 68.1757612,173.582857 70.0706866,173.809286 C70.4439403,174.229286 71.031403,174.467857 71.2835821,175.176429 L70.8136119,176.132143 C70.2139701,176.091429 70.2591045,176.885714 69.2124179,177.507857 C66.6662687,185.242143 72.7873433,194.154286 73.3303881,202.294286 C74.688,204.460714 74.8191045,206.941429 74.456597,209.287857 C74.9731343,211.991429 75.2109851,214.378571 76.4353433,217.03 C76.542806,221.29 77.1109254,224.688571 76.1201194,228.870714 C72.3897313,233.361429 76.9139104,239.202143 76.2454925,244.492857 C77.8058507,246.672143 80.9473433,246.291429 82.7226269,248.287857 C83.7026866,248.652143 85.0144478,250.025714 86.2853731,249.121429 C86.0682985,244.957143 83.7413731,239.364286 84.1540299,234.849286 C83.1130746,229.54 82.5112836,225.15 81.9352836,220.368571 C82.887403,218.257143 82.1380299,216.032857 81.8829851,213.840714 C81.5792239,212.437143 82.3701493,211.205714 81.9653731,209.795 C82.040597,201.397857 82.1989254,191.822143 84.5666866,183.777857 C85.0065672,183.215714 85.2078806,183.229286 85.8261493,182.974286 C89.0056119,182.102143 91.44,178.906429 94.5277612,179.312143 C94.5277612,179.312143 94.3386269,192.245714 94.4819104,191.662857 C94.8286567,201.172857 94.3773134,214.98 94.3773134,214.98 C93.9782687,214.952143 93.7432836,215.429286 93.0368955,215.482857 C91.4779701,217.650714 87.0390448,217.845714 85.9945075,221.333571 C86.0267463,222.324286 85.4428657,223.47 86.4186269,223.93 C88.385194,224.557857 90.0157612,222.79 91.6921791,221.812857 C91.8211343,221.428571 93.0354627,221.313571 93.7289552,221.457857 C93.8013134,221.858571 93.7733731,222.251429 93.735403,222.842143 C92.4551642,225.325714 89.8395224,225.347857 87.6415522,226.582857 C87.2145672,226.947857 87.1465075,227.932857 87.1923582,228.725 C88.3651343,230.681429 90.3496119,232.495714 92.7789851,233.745714 C100.802866,232.607143 108.498627,226.01 117.910209,225.161429 C122.60203,224.192857 123.928119,219.538571 128.449433,218.161429 L140.146388,214.798571 C140.359881,214.616429 140.359881,214.616429 140.37206,214.417143 L140.366328,213.035714 L133.811821,208.936429 C133.244418,208.404286 133.821134,207.353571 134.062567,206.778571 C134.796896,206.335 135.48394,206.580714 136.285612,206.632143 C137.880358,206.837143 138.980776,208.392857 139.525254,209.224286 C139.733015,209.137857 139.733015,209.137857 139.932896,209.15 L141.180896,208.54 C141.596418,208.372143 141.561313,207.382143 141.131463,206.363571 C139.947224,203.121429 136.650985,201.317857 133.831164,198.46 C133.517373,197.254286 132.149015,195.185 132.833194,194.043571 C136.102925,193.276429 138.639761,197.301429 140.968119,198.545714 C141.461015,198.679286 142.648836,198.954286 142.58794,198.357143 C142.823642,197.881429 143.350925,197.522857 143.365254,197.323571 C143.045015,196.109286 142.225433,194.869286 141.678806,194.042857 L141.678806,194.042857 Z M22.5456716,152.903571 C20.5318209,151.483571 18.8109851,150.18 16.8909851,148.866429 C21.3642985,146.698571 24.2299701,145.999286 27.5025672,143.750714 C25.7781493,146.895 24.1719403,149.752857 22.5456716,152.903571 Z M91.2128955,113.847143 C91.0144478,113.832857 91.0144478,113.832857 90.8117015,113.82 C87.8543284,110.063571 90.9105672,105.13 89.6933731,100.898571 C88.0842985,96.5392857 90.9592836,92.78 91.6176716,89.0692857 C92.2259104,89.01 92.6263881,89.0378571 92.5576119,88.54 L92.3541493,87.1421429 L92.7388657,88.8478571 C93.3506866,91.6557143 91.784597,93.9228571 92.1750448,97.0128571 C92.9100896,100.916429 92.1177313,105.112143 94.224,108.12 C94.2197015,109.603571 95.1940299,110.064286 95.593791,111.573571 C94.9590448,113.505714 92.6829851,112.957143 91.2128955,113.847143 L91.2128955,113.847143 Z M102.611821,207.911429 C101.430448,209.02 100.051343,211.495 98.7610746,212.691429 C97.9522388,208.387857 98.6700896,200.926429 98.6994627,196.086429 C98.6743881,192.129286 98.5346866,186.882143 99.1264478,182.672143 L99.512597,182.895714 C103.144836,187.097143 105.652299,192.997857 108.497194,198.422857 C106.750567,201.865 103.584,204.022143 102.611821,207.911429 L102.611821,207.911429 Z" id="Shape"></path>
            </g>
        </g>
    </g>
</svg>