<svg width="500" height="500" viewBox="0 0 500 500" fill="none" xmlns="http://www.w3.org/2000/svg">
<path d="M201.2 476.8L147.2 423.2V375H84.4L30.4 321.4V114H5.8V23.2H145.2V114H120.8V284.4H147.2V215.6H122.8V125H262.2V215.6H237.8V284.4H263.2V114H238.8V23.2H378.2V114H354V321.4L299.8 375H237.8V386H380.2V215.6H356V125H495.4V215.6H470.6V423.2L416.6 476.8H201.2Z" fill="#E91D2D"/>
<path d="M372.2 28.8V108H348V318.8L297.4 369.2H232V391.8H386V209.6H361.6V130.6H489.4V209.6H465V420.8L414.4 471.2H203.8L153.2 420.8V369.2H86.8L36 318.8V108H11.8V28.8H139.6V108H115.2V290H153.2V210H128.8V131H256.6V210H232.2V290H269.6V108H245.2V28.8H372.2ZM384 17.2H372.4H244.6H233V28.8V108V119H151V108V28.8V17.2H139.4H11.8H0V28.8V108V119.6H11.6H24.2V318.8V323.8L27.6 327.2L78.2 377.6L81.6 381H86.2H140.8V421V426L144.2 429.4L194.8 479.8L198.2 483.2H202.8H413.2H417.8L421.2 479.8L471.8 429.4L475.2 426V421V221.8H487.8H499.4V210V131V119.4H487.8H384V108.4V28.8V17.2ZM359.6 221.6H361.6H374.2V380.4H302.4L305.4 377.4L356 327L359.4 323.6V318.6V221.6H359.6ZM243.6 221.6H256.2H257.6V278.2H243.6V221.6V221.6ZM126.4 221.6H128.4H141V278.2H126.4V221.6Z" fill="white"/>
<path d="M461.4 449.2C458 449.2 455 450.2 452.4 452.6C450 455 448.8 457.6 448.8 461C448.8 464.4 450.2 467 452.4 469.4C454.8 471.8 457.8 472.8 461.4 472.8C464.8 472.8 467.8 471.8 470.4 469.4C472.8 467 474 464.4 474 461C474 457.6 472.6 455 470.4 452.6C467.6 450.2 464.6 449.2 461.4 449.2ZM469 467.8C467 469.8 464.4 470.8 461.4 470.8C458.4 470.8 455.8 469.8 453.8 467.8C451.8 465.8 450.8 463.4 450.8 460.8C450.8 458.2 451.8 455.8 453.8 453.8C455.8 451.8 458.4 450.8 461.4 450.8C464.4 450.8 467 451.8 469 453.8C471 455.8 472 458.2 472 460.8C472 463.4 471 465.8 469 467.8Z" fill="#E91D2D" stroke="white" stroke-width="3" stroke-miterlimit="5"/>
<path d="M467 458.2C467 456.6 466.4 455.6 465 454.8C464.4 454.4 463 454.4 461.4 454.4H456.4V467H458.8V462H460.8C462.2 462 463.2 462 463.4 462.4C464.4 462.8 464.8 463.8 464.8 465.4V466.4V466.8H467.2C467.2 466.8 467.2 466.4 467.2 466.2C467.2 465.8 467.2 465.6 467.2 465.2V464.2C467.2 463.6 466.8 462.8 466.6 462.2C466.2 461.6 465.2 461.2 464.2 460.8C465.2 460.8 465.8 460.4 466.2 460.2C466.6 459.8 467 459.2 467 458.2ZM463 460.2C462.4 460.6 461.6 460.6 460.6 460.6H458.2V456H460.2C461.6 456 462.6 456 463.2 456.4C463.8 456.8 464.2 457.4 464.2 458.4C464.6 459.2 464 459.8 463 460.2Z" fill="#E91D2D" stroke="white" stroke-width="3" stroke-miterlimit="5"/>
<path d="M461.4 449.2C458 449.2 455 450.2 452.4 452.6C450 455 448.8 457.6 448.8 461C448.8 464.4 450.2 467 452.4 469.4C454.8 471.8 457.8 472.8 461.4 472.8C464.8 472.8 467.8 471.8 470.4 469.4C472.8 467 474 464.4 474 461C474 457.6 472.6 455 470.4 452.6C467.6 450.2 464.6 449.2 461.4 449.2ZM469 467.8C467 469.8 464.4 470.8 461.4 470.8C458.4 470.8 455.8 469.8 453.8 467.8C451.8 465.8 450.8 463.4 450.8 460.8C450.8 458.2 451.8 455.8 453.8 453.8C455.8 451.8 458.4 450.8 461.4 450.8C464.4 450.8 467 451.8 469 453.8C471 455.8 472 458.2 472 460.8C472 463.4 471 465.8 469 467.8Z" fill="#E91D2D"/>
<path d="M467 458.2C467 456.6 466.4 455.6 465 454.8C464.4 454.4 463 454.4 461.4 454.4H456.4V467H458.8V462H460.8C462.2 462 463.2 462 463.4 462.4C464.4 462.8 464.8 463.8 464.8 465.4V466.4V466.8H467.2C467.2 466.8 467.2 466.4 467.2 466.2C467.2 465.8 467.2 465.6 467.2 465.2V464.2C467.2 463.6 466.8 462.8 466.6 462.2C466.2 461.6 465.2 461.2 464.2 460.8C465.2 460.8 465.8 460.4 466.2 460.2C466.6 459.8 467 459.2 467 458.2ZM463 460.2C462.4 460.6 461.6 460.6 460.6 460.6H458.2V456H460.2C461.6 456 462.6 456 463.2 456.4C463.8 456.8 464.2 457.4 464.2 458.4C464.6 459.2 464 459.8 463 460.2Z" fill="#E91D2D"/>
</svg>
