<?xml version="1.0" encoding="UTF-8" standalone="no"?>
<svg width="250px" height="250px" viewBox="0 0 250 250" version="1.1" xmlns="http://www.w3.org/2000/svg" xmlns:xlink="http://www.w3.org/1999/xlink">
    <!-- Generator: Sketch 47.1 (45422) - http://www.bohemiancoding.com/sketch -->
    <title>RICE</title>
    <desc>Created with Sketch.</desc>
    <defs></defs>
    <g id="Page-1" stroke="none" stroke-width="1" fill="none" fill-rule="evenodd">
        <g id="RICE">
            <g id="rice-logo" transform="translate(20.000000, 0.000000)">
                <path d="M116.865,39.0128337 L116.568951,82.2705339 C116.568951,82.2705339 116.568951,119.2577 116.865,125.219713 C117.161561,131.181725 148.375756,116.965606 151.96522,77.9291581 C152.643366,73.288501 152.752976,74.2063655 152.315049,66.7551335 C151.877122,61.3675565 151.44022,31.2176591 133.496488,23.8809035 C133.496488,23.8809035 119.677463,30.6806982 116.865,39.0128337 Z M152.276122,0.177104723 C182.075122,13.7931211 181.23922,48.6806982 181.266366,48.8670431 C182.513561,57.0112936 179.947976,77.6781314 170.039561,93.3511294 C168.309366,96.088809 159.316756,107.795175 145.204756,118.315708 C147.275561,116.772074 155.361585,124.643737 156.873073,126.241786 C165.590634,135.462012 171.280098,151.969199 174.196024,161.343429 C174.426512,162.082136 183.853463,198.048255 184.592561,199.733573 C187.680073,206.783368 188.909341,209.210472 193.853561,211.114476 C198.336805,212.841376 202.098366,211.655544 209.549268,207.767967 C209.549268,207.767967 199.270024,223.975359 196.40839,229.161704 C193.184122,235.002567 186.215195,247.776694 186.215195,247.776694 C186.215195,247.776694 174.343537,249.639117 161.468488,239.473306 C153.278488,233.00616 149.121,219.727926 147.063512,213.259754 C146.625585,211.88501 134.371317,227.474846 134.371317,227.474846 L117.983122,249.663758 C117.983122,249.663758 96.2634878,237.2654 86.5184634,234.660678 C71.2401951,230.112423 55.8405366,231.719199 46.8407561,234.009754 C33.290122,237.457392 15.104122,248.908624 15.104122,248.908624 C15.104122,248.908624 17.8464146,243.295688 20.4719268,240.085216 C30.4566585,225.445072 51.1078537,205.23614 74.8516829,199.276181 C80.540122,198.12885 86.0918049,197.051335 95.7108293,197.577515 C109.972902,198.358316 136.038512,208.657598 134.997732,208.287474 C136.720756,208.900924 138.487829,209.467146 140.255927,210.032854 L144.000585,206.840349 C143.82439,206.651437 142.687317,203.172485 141.31822,197.577515 C140.445439,194.015914 139.639756,187.859343 139.593659,187.387064 C139.54961,186.914784 136.014439,165.873717 135.484317,163.655031 C134.66378,158.694559 131.015927,146.160678 127.263073,140.442505 C126.202317,138.364476 122.99239,135.61345 120.900073,134.592402 C119.664146,134.073922 118.337049,133.790554 116.923902,133.790554 L116.568951,144.735626 L116.597122,161.036448 C116.597122,162.87115 116.159195,169.978439 110.688439,174.333676 C102.434415,183.060575 89.4026341,188.957392 86.1204878,190.219199 C79.884,193.084702 71.8486829,193.800308 71.2401951,194.231006 C80.6492195,187.582649 80.3782683,180.372177 80.5524146,178.140144 C80.5964634,177.573922 80.8617805,120.957906 80.8617805,120.957906 C80.8617805,120.957906 80.8617805,64.7191992 80.8617805,64.3413758 C80.8617805,64.1534908 81.3242927,52.7043121 84.7513902,46.9799795 C87.3236341,42.6812115 89.730439,40.1596509 94.2961463,37.1663244 L123.28639,18.2951745 L152.276122,0.177104723 Z M69.1955122,61.3223819 C68.7662927,63.6088296 68.4886829,73.0646817 68.4886829,71.1355236 L68.4886829,169.646817 C68.4886829,169.835729 70.305439,183.407598 57.1748049,194.180185 C40.007561,208.267454 27.8977317,213.36345 27.5345854,213.769507 C27.5852927,213.712526 34.5234878,210.068275 34.5234878,199.63655 C34.5234878,196.605236 34.5234878,143.437372 34.5234878,143.437372 C34.5234878,143.437372 26.5040488,143.390657 26.0640732,143.415298 C8.65558537,142.75154 12.177439,153.074435 12.177439,153.074435 C12.177439,153.074435 8.39539024,151.957906 4.82641463,144.48152 C0.996731707,136.454825 1.10019512,122.861396 4.06017073,115.819815 C8.10856098,106.189938 16.2268537,106.23768 22.8823171,106.23768 C25.7874878,106.23768 34.6674146,105.992813 34.6669024,105.862423 C34.5234878,78.386037 34.5234878,79.511807 34.5234878,75.2181725 C34.5234878,62.013347 51.597,56.1457906 52.421122,55.8352156 L73.4380244,47.3572895 C73.2602927,47.9229979 70.583561,53.5718686 69.1955122,61.3223819 Z M1.05102439,36.4584189 C7.99946341,3.24640657 31.242878,4.31468172 34.5234878,4.3449692 C37.1428537,4.36909651 43.7363415,5.14938398 48.050561,6.43634497 C51.6886829,7.52156057 74.7856098,17.25 87.9812927,14.0718686 C96.245561,12.4835729 105.145463,2.67043121 104.962098,2.85318275 C104.962098,2.85318275 96.4314878,26.0939425 87.0439756,32.899384 C83.4217317,35.4717659 75.4852683,42.1914784 60.0031463,43.0580082 C48.6052683,43.6955852 38.4571463,39.3393224 32.051122,36.9620123 C32.1381951,36.9902464 23.2152439,33.1668378 14.8290732,35.4178645 C8.50858537,37.1144764 0.962926829,46.6021561 0.256097561,47.3572895 L0.256097561,45.0918891 C0.256097561,45.0918891 0.521414634,38.7705339 1.05102439,36.4584189 L1.05102439,36.4584189 Z" id="Fill-1" fill="#093566"></path>
                <path d="M116.865,39.0128337 L116.568951,82.2705339 C116.568951,82.2705339 116.568951,119.2577 116.865,125.219713 C117.161561,131.181725 148.375756,116.965606 151.96522,77.9291581 C152.643366,73.288501 152.752976,74.2063655 152.315049,66.7551335 C151.877122,61.3675565 151.44022,31.2176591 133.496488,23.8809035 C133.496488,23.8809035 119.677463,30.6806982 116.865,39.0128337 Z M152.276122,0.177104723 C182.075122,13.7931211 181.23922,48.6806982 181.266366,48.8670431 C182.513561,57.0112936 179.947976,77.6781314 170.039561,93.3511294 C168.309366,96.088809 159.316756,107.795175 145.204756,118.315708 C147.275561,116.772074 155.361585,124.643737 156.873073,126.241786 C165.590634,135.462012 171.280098,151.969199 174.196024,161.343429 C174.426512,162.082136 183.853463,198.048255 184.592561,199.733573 C187.680073,206.783368 188.909341,209.210472 193.853561,211.114476 C198.336805,212.841376 202.098366,211.655544 209.549268,207.767967 C209.549268,207.767967 199.270024,223.975359 196.40839,229.161704 C193.184122,235.002567 186.215195,247.776694 186.215195,247.776694 C186.215195,247.776694 174.343537,249.639117 161.468488,239.473306 C153.278488,233.00616 149.121,219.727926 147.063512,213.259754 C146.625585,211.88501 134.371317,227.474846 134.371317,227.474846 L117.983122,249.663758 C117.983122,249.663758 96.2634878,237.2654 86.5184634,234.660678 C71.2401951,230.112423 55.8405366,231.719199 46.8407561,234.009754 C33.290122,237.457392 15.104122,248.908624 15.104122,248.908624 C15.104122,248.908624 17.8464146,243.295688 20.4719268,240.085216 C30.4566585,225.445072 51.1078537,205.23614 74.8516829,199.276181 C80.540122,198.12885 86.0918049,197.051335 95.7108293,197.577515 C109.972902,198.358316 136.038512,208.657598 134.997732,208.287474 C136.720756,208.900924 138.487829,209.467146 140.255927,210.032854 L144.000585,206.840349 C143.82439,206.651437 142.687317,203.172485 141.31822,197.577515 C140.445439,194.015914 139.639756,187.859343 139.593659,187.387064 C139.54961,186.914784 136.014439,165.873717 135.484317,163.655031 C134.66378,158.694559 131.015927,146.160678 127.263073,140.442505 C126.202317,138.364476 122.99239,135.61345 120.900073,134.592402 C119.664146,134.073922 118.337049,133.790554 116.923902,133.790554 L116.568951,144.735626 L116.597122,161.036448 C116.597122,162.87115 116.159195,169.978439 110.688439,174.333676 C102.434415,183.060575 89.4026341,188.957392 86.1204878,190.219199 C79.884,193.084702 71.8486829,193.800308 71.2401951,194.231006 C80.6492195,187.582649 80.3782683,180.372177 80.5524146,178.140144 C80.5964634,177.573922 80.8617805,120.957906 80.8617805,120.957906 C80.8617805,120.957906 80.8617805,64.7191992 80.8617805,64.3413758 C80.8617805,64.1534908 81.3242927,52.7043121 84.7513902,46.9799795 C87.3236341,42.6812115 89.730439,40.1596509 94.2961463,37.1663244 L123.28639,18.2951745 L152.276122,0.177104723 Z M69.1955122,61.3223819 C68.7662927,63.6088296 68.4886829,73.0646817 68.4886829,71.1355236 L68.4886829,169.646817 C68.4886829,169.835729 70.305439,183.407598 57.1748049,194.180185 C40.007561,208.267454 27.8977317,213.36345 27.5345854,213.769507 C27.5852927,213.712526 34.5234878,210.068275 34.5234878,199.63655 C34.5234878,196.605236 34.5234878,143.437372 34.5234878,143.437372 C34.5234878,143.437372 26.5040488,143.390657 26.0640732,143.415298 C8.65558537,142.75154 12.177439,153.074435 12.177439,153.074435 C12.177439,153.074435 8.39539024,151.957906 4.82641463,144.48152 C0.996731707,136.454825 1.10019512,122.861396 4.06017073,115.819815 C8.10856098,106.189938 16.2268537,106.23768 22.8823171,106.23768 C25.7874878,106.23768 34.6674146,105.992813 34.6669024,105.862423 C34.5234878,78.386037 34.5234878,79.511807 34.5234878,75.2181725 C34.5234878,62.013347 51.597,56.1457906 52.421122,55.8352156 L73.4380244,47.3572895 C73.2602927,47.9229979 70.583561,53.5718686 69.1955122,61.3223819 Z M1.05102439,36.4584189 C7.99946341,3.24640657 31.242878,4.31468172 34.5234878,4.3449692 C37.1428537,4.36909651 43.7363415,5.14938398 48.050561,6.43634497 C51.6886829,7.52156057 74.7856098,17.25 87.9812927,14.0718686 C96.245561,12.4835729 105.145463,2.67043121 104.962098,2.85318275 C104.962098,2.85318275 96.4314878,26.0939425 87.0439756,32.899384 C83.4217317,35.4717659 75.4852683,42.1914784 60.0031463,43.0580082 C48.6052683,43.6955852 38.4571463,39.3393224 32.051122,36.9620123 C32.1381951,36.9902464 23.2152439,33.1668378 14.8290732,35.4178645 C8.50858537,37.1144764 0.962926829,46.6021561 0.256097561,47.3572895 L0.256097561,45.0918891 C0.256097561,45.0918891 0.521414634,38.7705339 1.05102439,36.4584189 Z" id="Stroke-2" stroke="#FFFFFE" stroke-width="0.513347023"></path>
            </g>
        </g>
    </g>
</svg>