<?xml version="1.0" encoding="UTF-8" standalone="no"?>
<svg width="250px" height="250px" viewBox="0 0 250 250" version="1.1" xmlns="http://www.w3.org/2000/svg" xmlns:xlink="http://www.w3.org/1999/xlink">
    <!-- Generator: Sketch 47.1 (45422) - http://www.bohemiancoding.com/sketch -->
    <title>SDGST</title>
    <desc>Created with Sketch.</desc>
    <defs></defs>
    <g id="Page-1" stroke="none" stroke-width="1" fill="none" fill-rule="evenodd">
        <g id="SDGST" fill-rule="nonzero">
            <g id="San_Diego_State_Aztecs_logo" transform="translate(0.000000, 38.000000)">
                <g id="Group" transform="translate(124.856734, 86.593840) scale(-1, 1) rotate(-180.000000) translate(-124.856734, -86.593840) translate(0.393983, 0.186246)">
                    <g id="Shape">
                        <path d="M69.2148997,0.0577363897 L71.5974212,33.5835244 L28.0623209,33.5613181 L37.3395415,73.1071633 C36.0694842,73.2504298 34.963467,73.5727794 34.0207736,74.0670487 C32.5881089,73.3363897 30.8424069,72.9424069 28.9477077,72.9424069 C26.8094556,72.9424069 24.7808023,73.4295129 23.1747851,74.3320917 C23.0308023,74.3106017 22.4183381,74.1315186 22.4183381,74.1315186 C18.5630372,73.2719198 10.6282235,73.5799427 10.282235,73.5799427 L10.25,73.5799427 C7.35601719,73.5942693 4.08373926,73.608596 1.96060172,75.843553 C-0.989684814,78.9452722 0.523495702,84.6974212 0.761676218,85.5140401 C1.4519341,87.9280802 3.11303725,92.9853868 7.57378223,93.1644699 L7.5752149,93.1644699 C7.71060172,93.1716332 8.22994269,93.1573066 8.26217765,93.1573066 C8.43409742,93.1429799 12.4527221,92.813467 15.7808023,92.813467 C17.4340974,92.813467 19.5709169,93.1071633 20.0565903,93.1071633 C20.8545845,93.1071633 21.8825215,92.9638968 23.0028653,92.4338109 C24.6783668,93.2647564 26.3803725,93.3793696 27.0293696,93.386533 C27.0429799,93.386533 35.3424069,93.3936963 37.9985673,93.386533 L28.0623209,137.333524 L72.9369628,137.297708 L69.476361,168.107163 L69.0888252,171.624355 L69.0286533,172.118625 L156.39255,172.118625 L156.356734,171.645845 L156.148997,168.27192 L153.641834,132.312034 C158.405444,130.865043 162.853868,129.131519 166.908309,127.104298 C174.358166,123.386533 180.446991,118.737536 185.002865,113.29341 C189.881089,107.476791 192.975645,100.764756 194.23639,93.3363897 L197.101719,93.3507163 L202.252149,97.634384 L210.497135,98.852149 L212.911175,97.7418338 L215.088825,98.5942693 L225.583095,96.0226361 L227.373926,94.8048711 L229.136103,94.8908309 C229.136103,94.8908309 236.055874,91.5312321 237.767908,90.6 C239.23639,89.8048711 241.335244,88.6515759 242.946991,87.6702006 C243.749284,87.1759312 248.7851,84.7117479 248.591691,83.0140401 C248.491404,81.4166189 243.484241,79.2389685 242.624642,78.7590258 C241.292264,78.0212034 239.451289,77.0756447 237.159026,75.9366762 C233.297994,74.0312321 229.386819,72.2189112 229.34384,72.2045845 C228.921203,72.0040115 226.851003,72.2762178 226.851003,72.2762178 L225.260745,70.9653295 L214.773639,68.4810888 L212.395415,69.5219198 L210.217765,68.6558739 L201.58596,70.0885387 L197.510029,74.604298 L193.512894,74.5684814 C191.836676,68.136533 188.613181,62.2626074 183.91404,57.074212 C179.15043,51.8113181 172.904011,47.2840974 165.339542,43.6179083 C161.206304,41.6164756 156.73639,39.8994269 151.972779,38.4696275 L156.17765,0.0577363897 L69.2148997,0.05752149 L69.2148997,0.0577363897 Z M108.388252,24.9753582 L122.234957,24.9753582 L122.234957,33.6945559 C120.773639,33.6429799 119.305158,33.6078797 117.829513,33.6078797 L108.388252,33.6035817 L108.388252,24.9753582 L108.388252,24.9753582 Z M117.206304,56.819914 C118.438395,56.819914 119.598854,56.8406877 120.737822,56.8657593 L111.697708,66.112894 L148.939828,66.112894 L149.190544,63.7998567 C151.597421,65.5469914 153.517192,67.6293696 154.992837,70.112894 C157.37106,74.1386819 158.588825,79.2819484 158.588825,85.4137536 C158.588825,88.9954155 158.166189,92.2905444 157.320917,95.1988539 C156.547278,97.856447 155.408309,100.27765 153.932665,102.376504 C153.266476,103.322063 152.535817,104.203152 151.740688,105.041261 L149.340974,70.6501433 L108.388252,70.6573066 L108.388252,56.8464183 C111.174785,56.8385387 116.712034,56.819914 117.206304,56.819914 L117.206304,56.819914 Z M73.252149,56.9510029 L76.2034384,98.4939828 L123.502865,98.4939828 L123.502865,115.34212 C118.853868,115.721777 114.075931,115.8149 109.376791,115.8149 L105.515759,115.8149 L116.704871,107.154441 L76.3180516,107.154441 L75.3438395,115.8149 L68.0007163,115.8149 L70.9455587,85.7289398 C70.9670487,85.5140401 70.9670487,85.2991404 70.9455587,85.091404 L68.0379656,56.9667622 C68.0379656,56.9667622 72.3137536,56.9545845 73.252149,56.9510029 L73.252149,56.9510029 Z M123.502865,137.137249 L123.502865,146.850716 L102.75788,146.850716 L102.75788,137.266189 L117.829513,137.251862 C119.734957,137.251862 121.626074,137.208883 123.502865,137.137249 L123.502865,137.137249 Z" fill="#FFFFFF" transform="translate(124.379879, 86.088073) scale(-1, 1) rotate(-180.000000) translate(-124.379879, -86.088073) "></path>
                        <path d="M73.0730659,3.66805158 L75.0071633,33.610745 L104.777937,33.5971347 L104.777937,21.3593123 L125.845272,21.3593123 L125.852436,56.7912607 L120.27937,62.4997135 L145.709169,62.4997135 L152.148997,3.66805158 L73.0730659,3.66783668 L73.0730659,3.66805158 Z M104.777937,56.9452722 L76.7621777,56.9588825 L79.5415473,94.8399713 L79.5415473,94.8829513 L127.113181,94.8829513 L127.113181,114.976074 C132.5,114.331375 137.643266,113.22106 142.213467,111.315616 C144.563037,110.327077 146.640401,109.188109 148.452722,107.877221 L145.988539,74.2883954 L104.777937,74.2669054 L104.777937,56.9452722 Z M79.5415473,110.76404 L73.0730659,168.507593 L152.54298,168.507593 L150.229226,133.464613 C142.75788,135.334241 134.899713,136.458883 127.113181,136.938825 L127.113181,150.463181 L99.1547278,150.463181 L99.1404011,116.186676 L106.146132,110.76404 L79.5415473,110.76404 Z" fill="#C41230" transform="translate(112.808023, 86.087715) scale(-1, 1) rotate(-180.000000) translate(-112.808023, -86.087715) "></path>
                        <path d="M228.008596,97.0809456 L225.436963,94.4573782 L224.974033,94.6212393 L224.498567,98.1169413 L214.771669,100.506805 L212.643266,96.6708453 L212.008417,96.7030802 L210.215795,100.332199 L203.285279,99.2093481 L198.892371,94.4573782 L190.948245,94.4412607 C187.382701,112.887715 171.064649,124.517371 151.624284,130.487106 L149.597958,111.985136 C156.88485,107.372851 161.795308,99.6364613 161.795308,86.7657593 C161.795308,54.6481017 130.363539,53.1688754 109.383059,53.1688754 L102.755193,53.1688754 L102.760566,38.1258954 L117.836676,38.1258954 C151.666368,38.1258954 186.611748,50.338467 191.186426,79.9910458 C191.186426,79.9910458 191.32611,80.8569126 191.471168,82.0657235 L198.453617,82.023639 L203.125895,77.6155086 L210.49606,76.5320559 L212.036175,80.1844556 L212.582378,80.2596705 L215.088646,76.7872493 L224.797636,79.2559097 L225.077006,82.8805516 L225.678725,83.0784384 L228.395415,80.4065186 C229.124284,80.5811246 243.570021,88.0265043 243.52346,88.9362464 C243.467049,89.9256805 228.008596,97.0809456 228.008596,97.0809456 L228.008596,97.0809456 Z M67.765043,86.7657593 L64.4887178,118.411533 L122.23048,118.440186 L122.234957,135.415473 L32.0576648,135.380552 L41.3932665,95.8228868 C40.5757521,95.9142192 39.8056948,95.9795845 39.1198066,95.9795845 C36.8606734,95.9795845 34.713467,94.9319484 34.2039756,94.3508238 C34.1341332,94.2756089 33.8825215,94.3875358 33.532414,94.6257163 C32.5008954,95.5273997 30.8398997,96.0422636 28.9487822,96.0422636 C27.2358524,96.0422636 25.5972421,95.625 24.4448424,94.8871777 C24.0060888,94.7286891 23.6004656,94.6543696 23.1930516,94.6543696 C22.6755014,94.6543696 21.5222063,94.9829871 21.5222063,94.9829871 L21.5087751,94.9856734 C20.8748209,95.1763968 20.1459527,95.3939828 19.3150072,95.3939828 C19.3150072,95.3939828 17.6441619,95.4199499 16.7854585,95.4477077 L16.7756089,95.4477077 C16.7756089,95.4477077 12.2161533,95.4942693 11.6932307,95.4432307 C11.4075931,95.4101003 5.79781519,95.6814112 4.27560888,94.1359241 C3.54315903,93.3846705 3.24946275,92.1731734 3.35154011,90.4674069 C3.41780086,89.3194842 3.65060888,88.183202 3.82790115,87.5564112 C5.07431948,83.2557307 6.64756447,82.2707736 7.75787966,82.2107808 C8.31840974,82.1167622 12.4158309,82.4722421 15.7816977,82.5671562 C17.3594198,82.6119269 18.5404728,82.5 19.2962034,82.3692693 C19.4734957,82.3227077 19.7251074,82.2707736 20.0573066,82.2707736 C20.7852794,82.2707736 21.8911175,82.5179083 23.0533668,83.6720989 L23.0909742,83.6667264 C24.3230659,82.107808 26.6287607,81.9958811 27.0863181,81.991404 L27.0907951,81.991404 C27.6513252,81.9887178 29.2200931,81.9869269 31.5204155,81.9869269 C34.8343481,81.9869269 38.9657951,81.991404 42.0084169,82.0030444 L32.0576648,38.1258954 L73.2951289,38.1258954 L74.989255,53.1688754 L64.4779728,53.1688754 L67.7641476,86.7657593 L67.765043,86.7657593 Z" fill="#000000"></path>
                    </g>
                </g>
            </g>
        </g>
    </g>
</svg>