<?xml version="1.0" encoding="UTF-8" standalone="no"?>
<svg width="250px" height="250px" viewBox="0 0 250 250" version="1.1" xmlns="http://www.w3.org/2000/svg" xmlns:xlink="http://www.w3.org/1999/xlink">
    <!-- Generator: Sketch 47.1 (45422) - http://www.bohemiancoding.com/sketch -->
    <title>BELMONT</title>
    <desc>Created with Sketch.</desc>
    <defs></defs>
    <g id="Page-1" stroke="none" stroke-width="1" fill="none" fill-rule="evenodd">
        <g id="BELMONT" fill-rule="nonzero">
            <g id="Belmont_Bruins_logo" transform="translate(0.000000, 6.000000)">
                <path d="M149.947177,1.96668166 L149.939955,1.97029273 C141.932628,1.8651086 133.910486,5.66321877 132.230873,12.1951905 C129.336457,9.71373382 119.927292,6.09710332 110.208871,8.78448385 C110.831087,8.9905929 111.758855,9.8305845 112.071815,10.1407666 C104.112636,10.8490928 99.9460106,8.047269 93.1590414,5.37377722 C86.3368874,2.68861888 78.4758549,3.63120205 74.3481184,5.99228955 C70.3037144,8.30708122 64.1778498,13.7762858 66.8537489,23.28045 C67.3722623,22.0397031 67.957312,21.062324 68.4596403,20.3145537 C68.0429778,22.8978612 68.4288073,26.9543021 69.9172368,28.0076249 C70.0051989,26.1394955 70.6604146,25.0513582 71.4544066,24.1809965 C71.2113535,26.8683771 72.2732873,30.222788 75.1762213,32.1416577 C73.1092049,33.8962883 70.4351576,34.1479339 68.3657338,33.4256448 C69.1990773,35.1548127 70.1577529,36.3630229 71.7619962,37.0135719 C69.5235,37.974229 65.0476189,37.9257665 63.1863412,36.5831688 C63.1746746,38.6131485 64.2373307,40.8614594 65.9966834,41.6901548 C62.8948626,41.6901548 59.1567518,45.5751159 58.5387951,48.3669399 C60.0040767,47.6308361 63.8842972,47.6487619 65.1503956,48.4682166 C63.5971519,51.4381869 59.5747106,51.635222 55.847896,51.0543019 C56.1904852,53.4779814 58.019541,55.2903706 61.3274709,56.8412811 C58.7419412,57.9778623 55.0254969,62.0130812 54.8171656,67.5941365 C56.574111,66.4575553 57.3962139,66.4548145 58.3291675,66.4548331 C57.7944506,70.7162719 55.9353026,75.2017826 48.5094509,77.20417 C48.6136165,79.2735938 51.2022018,81.3502397 52.9545916,82.0724547 C50.3735063,82.590968 46.5500261,85.7813065 46.8602081,90.5358885 C47.8000321,89.4895842 48.6140054,89.089866 49.648884,89.1940316 C47.8896238,91.4647496 47.5831639,94.3760168 47.8910867,96.9595095 C48.7637817,95.7696881 49.5291259,94.7443465 50.7049475,94.3300913 C50.7049475,100.637806 47.7397919,105.509239 43.7605725,107.810142 C45.7212936,108.32634 46.9612812,107.899826 48.2020095,107.795697 C46.9612627,109.758641 45.3062978,112.137691 43.5470561,112.758055 C45.7461082,113.070552 47.0981317,113.187606 48.4407109,112.877406 C47.9916413,118.706051 43.8505716,121.348062 40.0243135,122.794899 C40.7488618,123.575003 43.1444675,124.506401 43.670203,124.552697 C40.559123,126.075848 38.383404,129.662645 38.3208121,132.16262 C40.3069033,131.072335 41.5239282,130.883411 42.4150304,131.258407 C39.6580209,133.235239 38.1554433,135.469106 37.7456326,137.714454 L5.46817762,137.714454 L5.46817762,142.101632 L1.73914084,142.101632 L1.73914084,159.947194 L5.11373672,159.947194 L5.11373672,195.84128 L1.73562235,196.231906 L1.73923343,214.507834 C1.73923343,214.507834 51.9572498,207.858641 109.647414,207.5092 L110.992882,213.368586 L122.190733,213.368586 C122.190733,213.368586 122.59958,210.905092 122.921336,208.981408 L125.91964,208.981408 C125.91964,208.981408 126.025694,208.352377 126.169211,207.491256 C189.42969,208.414876 237.036621,214.327114 237.036621,214.327114 L237.036621,209.473273 L240.765658,209.936232 L240.765658,191.689192 L236.913659,191.255178 L236.913659,173.879796 L244.255808,173.879796 L244.255808,169.47447 L247.988364,169.47447 L247.988364,137.715528 L209.729487,137.715528 C209.74245,135.449254 208.747034,133.755567 207.823395,132.579653 C208.883588,132.869002 209.463471,132.965779 210.14189,133.350053 C210.331722,128.039921 206.857479,124.854582 203.957137,123.306079 L207.433028,123.306079 C205.886729,122.921824 204.249356,121.761317 202.897518,120.217221 L205.888599,119.634912 C202.122341,118.088613 201.156424,112.875536 201.7329,109.880195 C202.411134,110.169544 203.087831,110.264006 204.152506,111.229293 C205.988154,107.268592 203.667936,103.886588 202.221043,102.053273 C202.991888,102.245401 205.309901,102.150921 205.888599,102.150921 C204.536742,100.991191 202.895666,97.417079 203.085479,94.7109949 C204.344744,95.0975652 205.696935,95.1947864 206.564889,95.0003439 C204.053432,93.1670104 202.797519,88.2415226 204.246394,84.7647055 C205.017219,85.6350857 205.60001,86.7919075 206.373039,88.3381883 C207.822117,86.1159883 207.723433,80.6119693 206.857701,77.3247799 C208.306779,77.2298735 208.688553,77.0330977 211.107473,78.1928268 C211.010252,75.583964 209.755764,72.2051089 208.015097,70.3695717 C211.010437,70.5616994 213.907445,68.3405179 215.451319,67.1831221 C211.588024,66.6993306 209.559526,64.6701842 208.980828,61.963915 C210.624348,61.0009432 211.97265,59.1635726 212.456719,56.94378 C212.746086,57.8118454 213.130323,58.2945813 213.324766,59.5515317 C215.160433,57.6185881 216.127886,54.5263968 216.417142,52.4986393 C216.806027,52.980116 217.384558,53.3676862 217.831332,54.6362105 C221.079077,44.8931598 216.253199,38.628778 212.373423,36.0382483 C209.271603,33.9734542 203.368884,33.2347579 196.137289,34.1212305 C194.36414,32.498543 189.051805,29.9871977 189.051805,29.9871977 C189.051805,29.9871977 191.118821,29.9873366 192.003257,30.1354926 C186.987011,25.7049813 179.162089,23.9388879 174.58806,24.2327738 C174.58806,24.2327738 172.669006,22.9024908 171.488462,22.3122375 C174.884724,14.494723 166.325551,5.48999828 155.405289,2.68650779 C153.636789,2.23243826 151.788659,2.00244056 149.940529,1.97818154 L149.947177,1.96668166 Z M187.969019,220.31635 C183.751469,220.31635 181.172976,222.547994 181.172976,225.557224 C181.172976,228.156827 182.906107,229.433851 186.482553,230.345879 C188.582161,230.894485 189.697891,230.847597 189.697891,232.009622 C189.697891,232.62306 189.036453,233.101926 187.91839,233.101926 C186.210055,233.101926 185.230084,232.441636 184.887495,231.119909 L180.446057,231.962622 C181.198383,235.018147 183.818802,236.794796 187.828021,236.794796 C189.992443,236.794796 191.818536,236.133284 193.119449,234.924815 C194.124087,233.991954 194.667471,232.73817 194.667471,231.416517 C194.667471,230.002142 194.143476,228.838209 193.141153,228.041921 C191.909665,227.062745 190.472476,226.808137 188.923973,226.421567 C187.053621,225.965534 186.030483,225.924479 186.030483,224.989285 C186.030483,224.371217 186.691199,223.846352 187.647226,223.846352 C188.945843,223.846352 189.717946,224.306106 190.197201,225.445002 L194.233642,224.280384 C193.231318,221.706336 191.068673,220.31635 187.96926,220.31635 L187.969019,220.31635 Z M45.4148893,220.678032 L45.4148893,236.49454 L53.1188863,236.49454 C56.766998,236.49454 58.659942,234.969129 58.659942,232.096436 C58.659942,230.04553 57.6120821,228.749618 55.5820098,228.316844 C57.3366404,227.858515 58.2729088,226.603713 58.2729088,224.779472 C58.2729088,223.504003 57.7738027,222.385792 56.9057373,221.679873 C55.8108223,220.767827 54.6250194,220.677995 53.0972569,220.677995 L45.4151115,220.677995 L45.4148893,220.678032 Z M73.7016434,220.678032 L73.7016434,236.498244 L78.5121509,236.498244 L78.5121509,230.501452 L80.1795231,230.501452 L82.5232034,236.498244 L87.7205588,236.498244 L84.8704021,229.593683 C86.6504954,228.952467 87.6300041,227.447593 87.6300041,225.304096 C87.6300041,222.202276 85.5557656,220.678217 81.4306217,220.678217 L73.7014397,220.678217 L73.7016434,220.678032 Z M102.534688,220.678032 L102.534688,231.210334 C102.534688,235.018073 104.678,236.816574 109.214992,236.816574 C113.293655,236.816574 115.483077,234.880297 115.483077,231.322555 L115.483077,220.678217 L111.678116,220.678217 L111.678116,230.867004 C111.678116,232.325341 110.922716,233.0805 109.489989,233.0805 C108.052485,233.0805 107.388529,232.39797 107.388529,231.00441 L107.388529,220.678217 L102.534688,220.678217 L102.534688,220.678032 Z M131.276994,220.678032 L131.276994,236.498244 L136.224907,236.498244 L136.224907,220.678032 L131.276994,220.678032 Z M152.087897,220.678032 L152.087897,236.49454 L156.055635,236.49454 L155.871174,226.971302 L161.636486,236.49454 L165.560706,236.49454 L165.560706,220.678032 L161.545932,220.678032 L161.752096,229.022207 L156.67048,220.678032 L152.087934,220.678032 L152.087897,220.678032 Z M78.5108546,224.052627 L80.7460174,224.052627 C82.067782,224.052627 82.7280346,224.55203 82.7280346,225.600649 C82.7280346,226.466381 81.9999123,227.152282 80.8147204,227.152282 L78.5108546,227.152282 L78.5108546,224.052683 L78.5108546,224.052627 Z M49.9092888,224.099664 L52.2059325,224.099664 C53.1642747,224.099664 53.7358616,224.572585 53.7358616,225.419817 C53.7358616,226.26242 53.1642747,226.739971 52.2059325,226.739971 L49.9092888,226.739971 L49.9092888,224.099627 L49.9092888,224.099664 Z M49.9092888,230.118122 L52.2746355,230.118122 C53.3464025,230.118122 53.9854147,230.663672 53.9854147,231.575719 C53.9854147,232.485451 53.3464025,233.011612 52.2746355,233.011612 L49.9092888,233.011612 L49.9092888,230.118122 Z" id="Shape" fill="#002469"></path>
                <path d="M150.041621,3.61592442 C149.472849,3.60881338 148.908669,3.62605395 148.352545,3.66656095 C152.722872,5.85394649 153.285088,10.1437184 151.586031,13.4610926 C150.092972,16.3777301 146.773487,17.610866 143.046672,17.4071643 C139.970407,17.2428141 138.067648,15.0799653 138.391719,13.1609105 C138.975046,13.8090521 141.270764,14.4393977 142.601677,14.191715 C143.897978,13.946347 145.591276,12.6545081 145.350538,11.1173013 C145.086652,9.44831795 143.001673,8.39269888 139.925222,8.76991733 C137.089695,9.11482129 134.040836,11.8119239 134.626571,16.3002124 C132.30715,16.5988205 115.593428,24.7893868 119.367094,42.1166209 C118.883303,42.0356032 117.545261,41.143538 117.01971,40.821782 C116.614622,42.6018753 117.423484,47.1367188 118.636453,48.9561451 C117.990608,49.078829 117.464984,49.0375887 116.694251,48.9959225 C116.573881,50.6162952 116.37018,53.2482874 116.694251,56.1212216 C112.566884,47.2159403 112.60781,33.8973698 117.424854,27.7863198 C115.320801,28.3117775 113.213785,28.3541844 110.787884,27.5439888 C111.271675,27.3819534 112.24098,26.8994583 112.567384,26.7374228 C111.63682,25.4804724 111.233194,23.0533856 111.677634,21.5580302 C110.545682,21.3149771 108.600998,21.7973056 108.198224,22.4477805 C108.438963,21.3135141 109.071919,20.0457675 109.409879,19.7748443 C108.326538,19.5734574 106.146023,19.8292141 105.243254,20.3824679 C109.576544,16.4102854 118.597935,14.4923416 124.304174,18.642763 C126.084268,17.4274789 127.461735,16.6990788 128.998942,15.9698268 C126.732854,12.8957835 121.159761,10.3267351 116.289255,10.2226621 C117.097135,11.3592433 117.747425,12.3291225 117.992793,13.0581893 C114.430236,11.5211491 109.819542,12.1662537 107.467713,13.3005202 C108.764015,14.1917335 109.489545,15.1610571 109.894541,15.8901239 C101.153702,14.1100306 91.3558373,18.1567679 87.9577231,28.4370355 C89.0919895,28.0342617 90.2258486,27.4671378 90.8693606,27.2217698 C90.9526931,31.5133936 84.5577571,38.3120293 81.8055624,39.6059053 C82.1296332,39.7679407 84.3959069,40.1744736 84.9631234,40.3365091 C81.8844505,41.8735493 76.8670933,46.4066335 76.9482036,51.6680624 C79.3763274,50.8601816 80.3494658,50.453519 82.699072,50.2104659 C79.7037316,52.8841428 76.219322,58.5483455 77.6752333,64.6199514 C79.295606,63.0829112 79.7802123,62.5164539 80.5903894,62.3521963 C79.2964023,65.0258733 78.3248565,69.6365679 78.8108886,72.4720951 C79.6210842,71.3378287 80.1883749,70.6882055 80.7530914,70.1211927 C80.0239135,72.8733874 80.9136639,75.5479903 81.6428418,77.4090828 C82.5317403,75.46688 83.5856001,74.2515218 84.6411451,73.4413447 C85.9351322,74.5756111 87.0664913,77.8144491 86.4206459,80.8884924 C87.7956506,80.6477541 88.7680298,80.3234981 90.3052366,78.9462896 C90.6293075,81.131453 90.0612021,85.6680743 88.283405,86.7189897 C90.387458,86.5569543 95.1612992,84.7738239 96.4575825,81.7782983 C96.37425,83.1556179 95.8890141,86.0715887 95.3218902,87.2036145 C96.3751389,86.5554728 97.3466848,86.1509583 97.9114939,85.8292023 C96.1337154,88.6602851 94.9991156,94.0820827 96.4575085,97.9709327 C96.8579674,96.107618 97.9975301,94.733928 99.0508159,93.5185698 C99.5369221,95.3818845 100.829668,96.6748346 101.799677,97.4826043 C102.445523,94.6515215 104.39317,92.2245087 106.335187,90.7660048 C104.795832,93.8422703 103.904656,97.7279722 104.714833,103.392545 C105.603732,101.610137 106.251133,101.532749 107.792765,100.560536 C106.656184,104.041983 107.305344,107.11936 108.599331,109.063785 C109.245177,107.038249 109.895485,105.984927 111.11301,105.096047 C111.11301,107.683984 111.512302,112.942264 115.399078,116.102233 C115.318061,114.805931 115.807204,113.672998 115.966924,113.270224 C118.070978,116.425378 120.418361,119.663308 127.135702,120.554596 C125.355608,118.531468 119.852812,111.648944 120.581878,107.197507 C119.69298,107.924352 119.281836,109.062674 119.041097,110.192292 C116.774824,107.52343 113.94226,100.885904 116.046313,94.2491181 C114.995379,94.8139272 114.268071,95.4624578 113.865408,96.8352033 C112.97188,93.6800497 113.132749,88.6602851 115.398949,86.1510509 C114.750807,86.1510509 113.297488,86.230476 112.892492,86.3138085 C113.702688,85.1795421 114.183702,84.3706798 114.588809,83.0768039 C113.132786,83.5629101 111.99976,83.4811702 110.624774,83.3191348 C113.944185,80.8886035 116.939155,78.297148 115.561762,69.79927 C118.149699,72.1603575 119.016357,77.1501224 118.393771,80.1615738 C119.122948,79.4323959 120.011717,78.5427381 120.419306,77.6514137 C121.47024,82.1837758 119.693295,89.3890741 117.74637,92.3033042 C118.55888,92.0602511 119.364613,91.8996786 120.010606,91.4135538 C118.392548,94.65204 118.721619,99.8316178 122.365212,103.313064 C122.930022,102.745941 123.57396,101.287529 123.736013,100.477537 C124.143417,103.877874 126.406727,109.46467 129.888359,111.733165 C130.536501,110.434549 131.101903,109.303375 131.754637,108.655233 C132.560203,112.377418 133.936652,114.241844 136.362554,115.943123 C138.549939,114.892189 140.81788,112.864265 142.192866,110.355031 C142.597954,111.811054 142.596362,112.622045 142.355624,114.080364 C144.133402,113.510925 146.485582,111.569463 147.455387,109.465225 C147.619738,110.597177 147.860476,110.519252 147.860476,111.975385 C150.453043,110.598066 152.636169,108.087646 153.770417,105.175638 C154.254208,105.578412 154.579724,106.066963 154.906109,106.712808 C156.359817,105.65956 158.385519,101.20916 158.385519,97.1606816 C158.950328,97.7301203 159.519767,97.8906928 160.005873,98.860609 C161.866965,91.9786408 157.738118,81.8668901 157.738118,78.5441455 C157.738118,75.6297302 159.21514,72.9704975 160.812532,71.1766266 C163.486209,68.1836936 164.295645,64.1281786 164.295645,61.5448711 C164.781751,62.1907164 165.591206,63.3250384 165.753241,63.892255 C167.533335,61.7070917 168.264142,58.3856434 168.020997,54.5825333 C168.58812,54.9066041 169.23641,55.9577047 169.558166,56.5247361 C171.097521,54.9853811 172.796838,50.9392364 172.227399,44.8676304 L173.35948,45.1099613 C174.577079,42.0336958 176.516671,29.8099291 168.342864,23.4157338 C170.449324,20.0963226 170.039643,15.1258167 167.127598,13.2162062 C164.539661,11.5171306 162.189684,12.325141 161.705986,13.9431989 C161.217565,15.5635716 161.786985,16.940206 162.921251,17.4263122 C164.166628,17.9610291 166.156034,18.0722873 166.968433,17.7482164 C166.480012,19.2042389 163.163471,20.4211527 160.327944,19.205813 C156.905756,17.7410128 155.765026,15.5039981 156.124282,12.2488455 C156.366872,10.0636822 158.635368,7.22796978 160.742754,7.06593437 C158.198335,4.8722526 154.03171,3.66504245 150.050269,3.61541332 L150.046565,3.61541332 L150.041621,3.61592442 Z M83.4571014,7.01940891 C82.9780692,7.04880491 82.5126664,7.11446166 82.0682264,7.21833284 C78.5752984,8.03315803 74.7857067,11.4990308 75.2975534,17.0706417 C76.1540448,15.7859138 77.1851271,15.103254 77.9558601,14.8462195 C77.4419764,16.6448312 77.7868804,18.7035884 78.1294695,19.7289485 C79.4975299,17.1595297 81.7257299,15.1876976 83.6958953,14.5858518 C82.3255201,16.9028656 81.5573982,21.8717048 83.3559173,23.7581674 C83.7841537,21.4433758 85.1543993,20.3319054 85.7538562,19.9893162 C85.4135819,21.1027496 85.6682089,21.4441906 85.9274656,22.2172569 C88.6718826,18.7024773 95.1836693,13.4569742 101.783789,13.9708579 C101.441199,13.6284539 100.068991,12.9643865 99.1245559,12.7051298 C99.5912179,12.3347632 100.298618,11.8788418 101.07824,11.6960658 C97.7190144,10.6312617 95.2264467,9.55108729 93.3820207,8.41906158 C93.122764,9.02090741 92.5264737,10.9049626 92.3542532,11.5044011 C90.7931577,8.41128388 86.8098642,6.81722574 83.456194,7.02296443 L83.456194,7.01935335 L83.4571014,7.01940891 Z M114.669752,18.6874404 C113.792428,19.4768029 113.2411,20.6189025 113.2411,21.892038 C113.2411,24.2670142 115.166451,26.196069 117.541612,26.196069 C119.918996,26.196069 121.845643,24.2670142 121.845643,21.892038 C121.845643,21.4290796 121.774755,20.9872507 121.635868,20.5682734 C120.781691,20.9478993 119.807608,21.4753755 119.245151,21.7184286 C118.312271,20.5448107 115.804074,19.0116038 114.669826,18.687533 L114.669752,18.6874404 Z M74.8164471,22.7636959 C74.6937631,24.0137019 74.15225,28.1254941 77.6845666,30.9125033 C79.1382742,30.8685223 81.3421226,30.2477322 83.2146964,29.5417207 C80.886016,28.8356907 77.8943793,26.2558277 77.8943793,24.5938072 C77.6004007,25.6331672 77.3543106,26.1301252 77.2686633,26.6300832 C76.1459708,25.7157219 75.105722,24.1802929 74.8164656,22.7636404 L74.8164471,22.7636959 Z M177.926527,26.8942102 C176.605577,26.927932 175.397849,27.1157079 174.385637,27.4403528 C174.707393,29.2736864 176.651169,31.864753 176.97524,32.7282629 C180.211319,32.2977117 186.362739,32.7289333 188.198276,35.3215703 L186.364535,36.1823765 L187.659374,37.6942318 L185.822004,37.3687165 C185.391452,39.20205 184.747274,41.9007082 181.724082,41.9007082 L182.154485,43.1955471 C180.101172,43.0890667 178.916925,43.7372269 177.513976,42.4432399 C176.865834,46.0033894 174.839373,50.6570466 172.656617,53.6662758 C176.001398,53.1269108 179.992469,51.1870413 180.534131,49.3513189 L180.859646,52.2629565 C182.801849,50.9689694 185.715523,46.5430137 185.822004,45.0293251 C185.930891,49.2400237 185.391582,53.4522038 183.449435,56.9034656 C182.585999,56.5817096 182.15504,55.7178664 181.615694,55.0697247 C181.182828,56.1484361 180.211338,59.6028275 179.347939,60.7880008 C178.593298,59.3852186 178.16234,58.6287632 177.514179,57.8763633 C176.759539,59.7096968 175.246054,62.7331666 173.734588,64.893145 C173.410517,63.5968431 173.090057,62.841684 172.870152,61.8694715 C171.039133,69.3186563 166.502808,75.4665578 162.294517,77.841534 C167.366318,77.4109828 175.356794,73.9586099 177.192331,66.6184981 C177.622882,67.8060047 177.836417,68.6686628 177.727622,69.6386531 C180.317966,67.6964503 182.589055,64.3529652 184.100521,60.788186 C184.852847,61.5474377 185.175862,62.0860619 185.608765,63.0559411 C187.659671,60.8985553 190.894453,55.3906474 191.218524,52.5851199 C193.271837,55.823606 193.812757,61.8668789 193.055894,64.7811091 C192.516548,64.2440774 191.651408,63.5949357 191.218524,63.164366 C190.894453,65.7547104 190.464142,70.7215126 188.737438,72.9877863 C188.306886,72.4484398 187.554153,71.5819114 186.903697,70.8248449 C186.364332,73.523892 184.204464,76.9784871 182.58874,78.9229121 C182.264669,77.8418859 181.939302,77.5174632 180.964756,76.2210873 C180.534205,78.2744001 179.021072,81.8364015 177.944601,83.2413874 C177.62053,81.7298099 177.623586,82.161213 176.544874,80.5432663 C175.896733,86.1565435 170.820302,93.4975812 166.178867,94.6851619 C172.8688,94.9004375 180.426132,91.6575996 183.879801,83.7802709 L183.879801,86.1565435 C186.145889,85.077832 189.819186,80.8645593 190.032147,79.7836442 C189.819186,80.8646704 190.464439,82.3765813 190.249163,82.9158351 C193.487649,79.5686464 195.428926,74.6059182 195.641887,71.2587295 C196.183548,71.8003907 196.941781,72.2306457 197.265852,72.9875826 C198.88391,68.4528131 199.209166,60.6819649 196.401416,57.8762522 C197.158372,57.767457 198.342693,57.8763892 199.099538,58.1981564 C198.99065,57.552311 198.130658,56.258361 197.591312,55.8255875 L199.638514,55.0696691 C194.133939,53.1274663 192.730805,48.0541837 194.133569,43.1955286 L197.591312,44.9243817 C194.998745,37.1535335 187.660485,30.2445285 182.588499,29.4876842 C183.340806,28.8418388 183.773432,28.5208235 185.069585,28.0879575 C182.640536,27.211207 180.127783,26.8381922 177.926323,26.8943953 L177.926527,26.8942102 Z M176.932093,34.9052412 C176.591818,35.5256053 176.396802,36.2453018 176.396802,37.0139238 C176.396802,39.3194563 178.139099,41.1842524 180.284911,41.1842524 C182.433038,41.1842524 183.85469,39.3196415 183.85469,37.0139238 C183.85469,36.567169 183.785617,36.1386547 183.663007,35.7335477 C182.269465,35.474291 180.057117,35.9164162 178.932128,36.485855 C178.86361,36.3895596 177.811769,35.2803115 176.932148,34.9043893 L176.932093,34.9052412 Z M197.096706,35.8781759 C197.967086,36.7485561 202.214618,42.9323646 203.082572,45.2493785 C204.726111,45.9252976 208.012893,45.3444145 209.556766,43.3143978 C209.943337,44.7634759 209.16977,48.2441633 208.012356,48.8228612 L209.556766,48.7252141 C208.59148,50.2715134 207.529564,51.4283352 205.115329,51.7199989 C205.307457,52.3959181 205.402789,53.3605751 205.502325,54.1360859 C207.240771,53.6522944 211.195231,52.2046237 211.195231,48.7252141 C211.776263,49.4011332 212.262221,50.368105 212.262202,51.141301 C213.421931,49.5950017 214.967175,46.7926408 213.423228,44.1860002 L215.159321,45.5350978 C216.221829,43.5073403 214.190664,39.3562707 210.327148,37.9072111 C206.454594,36.4535035 202.823704,36.7498153 200.576134,36.7498153 C199.127056,36.7498153 197.580423,36.1675063 197.096724,35.8781574 L197.096706,35.8781759 Z M211.104714,55.0076142 C209.752857,56.1673433 207.141605,58.1949897 205.111626,58.0999907 C205.111626,59.546754 205.983709,62.056803 206.948978,62.9249424 C206.853979,61.8647493 206.891571,60.8249634 207.046569,60.5125592 C207.338233,59.9338612 210.620978,59.0633514 211.104677,55.0076142 L211.104714,55.0076142 Z M71.4005553,65.9269495 C69.0324309,67.9963732 66.0035723,74.976859 66.2791251,79.0164482 C67.2907075,76.3544378 69.7570532,73.2165062 70.9124121,72.6724376 C70.5073235,70.5659771 70.988652,68.0960018 71.400685,65.9269495 L71.4005553,65.9269495 Z M71.1799279,75.7068517 C69.8581633,76.9962091 67.4768168,82.0458623 68.3008826,86.8215553 C68.7592114,83.7891782 70.5288233,81.0084653 72.0334379,79.9205132 C71.6514973,78.506157 71.367352,77.1003562 71.1798538,75.7068517 L71.1799279,75.7068517 Z M195.465722,80.6727279 C194.912487,81.6079223 194.263549,82.6097456 193.53426,83.6421427 C194.138439,85.4569579 194.395955,87.0185904 194.243179,89.1759762 C195.539481,85.8311949 195.768904,84.0013983 195.465667,80.6727279 L195.465722,80.6727279 Z M73.0391686,83.0671484 C71.2382421,85.6319376 69.3106873,91.6903955 70.0443837,96.1927579 C70.5050272,94.264629 71.4230736,92.7016817 72.8004673,91.3244733 C72.1569552,93.7133383 72.3398237,97.4771895 72.8004673,99.7734628 C73.4416831,96.8360848 74.6380044,96.1909061 75.1911841,95.3644329 C75.0985924,98.9455082 75.5556064,101.243448 76.7500574,102.988801 C76.7500574,99.2249498 78.330949,95.516098 79.4700302,94.293888 C76.5672814,90.6365172 74.4491545,86.8472958 73.0391686,83.0671484 L73.0391686,83.0671484 Z M192.004646,85.7037887 C191.226876,86.6667606 190.407143,87.616177 189.451153,88.5791303 C189.536892,91.6924325 189.384116,93.8935216 188.525236,97.05349 C191.284468,93.0279747 192.544085,88.7244993 192.004646,85.7037887 Z M187.950242,90.0005976 C185.51971,92.2113162 182.547518,94.2670364 178.922554,96.0262781 C180.216541,96.0262781 182.90807,95.976223 183.769172,95.7586326 C183.553878,98.0271285 183.55723,100.505252 182.260928,102.880228 C184.841828,100.764508 187.628467,93.5632842 187.950316,90.0005421 L187.950242,90.0005976 Z M57.3626587,90.6769612 C58.5571097,104.63997 64.8022139,116.02856 79.3161428,125.672908 C77.0220917,122.08961 75.0000749,112.724333 75.5509953,109.418811 C74.2639526,109.967435 73.5260156,111.345829 73.1602785,112.630631 C71.5977756,110.241766 71.3280931,107.947159 71.5109987,105.375148 C70.501731,106.477007 69.8533115,107.671606 69.3047244,108.590486 C68.1125882,106.662357 67.7444067,102.620545 68.1147734,101.15056 C67.1957826,102.254734 66.5491594,103.263502 66.1833112,104.640896 C64.8962685,101.793702 64.6171972,97.6570766 65.0801741,92.5136095 C63.5176712,94.0784272 61.8644655,96.0976477 61.2209534,97.0165274 C59.4778968,95.0883986 58.4672773,93.5256364 57.3654364,90.6762205 L57.3617328,90.6762205 L57.3626587,90.6769612 Z M80.325392,95.346359 C79.3138095,98.1194794 78.3967076,102.067958 79.5911771,106.475507 C80.0471911,104.5496 80.6880921,103.906459 81.1464208,103.44813 C81.421881,108.038454 83.629359,111.896008 87.0274731,114.00932 C86.6594213,111.803417 86.7521425,109.874362 87.1178982,108.406784 C87.7614102,109.876695 88.6818825,110.152618 89.3278761,110.703428 C88.7945481,108.314563 88.8167701,105.229408 89.2630619,103.740534 C85.7575414,101.083153 82.7964599,98.2628113 80.3446326,95.3461738 L80.325392,95.346359 Z M166.39305,97.7044835 C166.284255,100.507789 165.314894,108.275859 161.861058,112.164709 C161.967539,110.653132 161.536117,108.926594 161.318527,108.063269 C161.103251,109.572532 157.976338,114.429501 156.464686,115.832265 C156.788757,113.565992 156.462957,112.594335 156.24767,111.300273 C154.196764,114.53876 150.529949,117.883171 146.319436,119.394822 L146.319436,116.913736 C142.541696,120.691476 135.957688,122.848677 131.42514,122.957564 C137.684337,125.22606 145.884255,125.116987 152.143452,121.445709 C151.819381,122.526735 151.602938,124.144386 150.95713,125.225301 C156.028931,123.822519 161.322952,120.043871 163.695706,116.374834 C164.019777,117.240584 164.667049,118.205019 164.773529,119.394989 C166.500382,117.559341 167.6885,113.673565 167.797202,110.761557 C168.227754,111.409698 169.091449,112.707463 169.309058,113.459678 C170.170179,109.357867 168.984117,101.479983 166.393902,97.7046502 L166.39305,97.7044835 Z M90.9567672,104.988855 C90.8873234,107.944751 92.2681244,112.631371 93.1847079,114.193763 C93.4601681,113.457659 94.287845,111.987489 94.287845,111.987489 C95.5702581,114.283762 100.16686,117.865393 103.56516,118.689459 C101.634623,115.659489 100.01964,111.384347 99.5613108,110.189914 C99.1562222,110.974647 98.514599,112.631556 98.4220073,113.275069 C97.2275563,111.161756 96.7531536,109.812511 96.4870267,108.511598 C94.5194538,107.379646 92.6766944,106.204028 90.9568968,104.988855 L90.9567672,104.988855 Z M191.487243,110.128433 C190.640011,111.37381 189.762612,112.572483 188.792641,113.734508 C188.792641,114.523871 188.823381,116.8067 188.691345,117.593729 C190.529308,115.758081 191.75113,112.860073 191.487243,110.128619 L191.487243,110.128433 Z M186.369332,116.392815 C185.457304,117.330324 184.488239,117.939577 183.497508,118.805198 C183.629359,120.775179 183.425842,124.254403 183.240715,125.814758 C185.474396,123.583299 186.237351,118.75631 186.369202,116.392815 L186.369332,116.392815 Z M86.5684777,121.174249 C85.4643036,124.204219 85.1909915,129.254538 88.0405371,134.122638 C89.2326733,132.377266 89.5063002,131.918956 89.9647771,131.460627 C90.0272765,133.590236 90.7847874,135.791695 91.9467943,137.710565 L94.3556591,137.710565 C94.6056566,136.548521 94.9450606,135.492809 95.2020025,135.131702 C95.5121846,136.138655 95.8437739,136.978998 96.2002518,137.710565 L105.43053,137.710565 C104.28006,136.043896 103.432216,134.278562 103.010924,132.375618 C102.18221,133.294609 101.723326,135.040406 101.723326,136.234839 C98.9640945,134.121527 97.5900342,129.347315 97.8678092,127.326595 C96.9488184,128.335862 95.9370877,130.078789 95.7519044,131.550997 C94.0088478,129.986179 93.2722996,127.235485 93.4552607,124.849027 C92.6311764,125.765703 91.8073327,127.234188 91.3465781,129.069911 C89.1428964,127.877774 87.4853204,124.757732 86.5686629,121.174249 L86.5684777,121.174249 Z M180.187912,121.731243 C176.720354,124.261218 172.916133,126.383049 168.849136,127.876367 C168.075977,130.547637 166.49953,136.099618 165.112877,138.180894 C165.189266,138.210986 165.259432,138.242523 165.333505,138.27493 C168.423844,136.38606 170.133457,133.217943 171.876402,130.600006 C171.876402,131.648626 172.270065,133.0935 172.140437,133.880529 C174.371896,132.697652 176.208915,129.940383 176.864093,127.970588 C177.394181,128.627989 178.048544,129.808644 177.916601,130.202233 C179.096238,127.580037 180.054728,123.831556 180.18806,121.731577 L180.187912,121.731243 Z M165.141766,129.001171 C161.359396,130.015068 157.596656,130.509841 153.564104,130.433453 C155.402086,131.090853 158.485722,132.304175 159.795894,132.697689 C159.1709,134.128249 158.653849,135.662845 157.980227,136.922091 C158.188558,136.91524 158.388074,136.867833 158.598702,136.867833 C158.857959,136.867833 159.099993,136.91774 159.35462,136.929313 C162.019038,134.795076 164.123091,131.545108 165.141599,129.001245 L165.141766,129.001171 Z M158.598869,138.864405 C153.409106,138.864405 149.01915,141.236789 145.722886,145.512117 L145.722886,139.703471 L7.44649117,139.703471 L7.44649117,153.563332 L10.8210871,153.563332 L10.8210871,193.222195 C10.7446971,193.23701 7.44297269,193.612802 7.44297269,193.612802 L7.44658376,207.848771 C55.3738823,201.571056 114.086258,201.108098 114.952916,201.108098 L116.305625,206.98915 L124.226472,206.98915 L125.210258,201.079209 C165.941332,201.118468 218.842655,205.188057 238.768382,207.676365 L238.768382,193.472989 C238.768382,193.472989 235.213973,193.067752 234.920087,193.035345 L234.920087,163.981932 C237.200064,164.836109 238.922454,166.155243 239.466523,167.504674 L245.991272,167.504674 L245.991272,139.704952 L171.045726,139.704952 L171.045726,144.978418 C167.790203,141.058087 163.562467,138.880331 158.597702,138.880331 L158.598869,138.864405 Z" id="Shape" fill="#FFFFFF"></path>
                <path d="M137.335741,20.0975926 C131.023148,20.4239815 124.546481,26.8992593 123.736111,35.4801852 C124.465278,34.3482407 125.922222,32.807963 126.246296,32.565 C125.679167,33.6992593 125.035352,36.2922222 125.197389,38.07 C126.086278,37.0190741 126.731685,36.4489074 127.70387,35.8818519 C128.673778,50.9396296 120.011278,60.0855556 118.636278,61.1392593 C118.555259,61.4633333 118.719759,61.7017593 118.958185,61.9494444 C121.550778,64.6207407 124.055593,68.9107407 124.546333,73.3644444 C125.148185,78.8944444 123.820056,90.5253704 122.766815,94.9792593 C125.357185,95.870463 134.183296,101.698148 136.449593,104.531481 C139.037556,103.561574 148.672185,102.184074 152.313296,102.589259 C155.470704,97.9759259 159.435889,82.8374074 153.123481,71.4225926 C152.924407,71.0661111 152.965204,70.1977593 153.101778,69.6792407 C153.238352,69.163037 153.650685,68.6128333 154.092815,68.1058889 C158.382074,63.1684815 165.912259,54.9079259 166.477074,42.4410741 C166.722444,42.9271852 167.771056,44.06 168.097444,44.9512593 C169.634481,42.279963 170.124481,40.014037 169.555056,37.6668148 C170.200889,37.8288519 170.689463,37.9924815 171.497278,38.7193333 C171.740333,30.1406296 167.692648,26.9022963 163.970426,25.9300741 C165.10237,26.4972037 165.829315,27.9534074 166.317833,29.4926667 C165.183574,28.4394259 162.918759,28.113037 161.460426,28.2773889 C162.189593,29.0852593 163.076463,30.4620185 163.724685,32.0823889 C162.430704,31.4342407 161.380241,31.3510556 159.597833,31.5941111 C161.701907,32.8093889 161.540796,34.9976296 161.702833,36.618 C157.573204,32.9744815 144.701537,30.2220741 136.930611,32.2452222 C136.930611,30.6271667 137.904426,28.6817037 139.198389,27.7928148 C137.74237,27.7928148 136.283944,28.519963 135.635796,29.2468148 C136.040889,27.2236667 137.905981,24.4718148 139.118944,23.9045926 C137.338852,23.9856111 134.987463,24.3928704 134.181907,25.2030556 C135.017556,23.3859259 136.196907,21.444537 137.335796,20.099537 L137.335741,20.0975926 Z" id="Shape" fill="#002469"></path>
                <path d="M134.82881,34.5117266 C128.838129,39.3657521 126.52093,48.7056587 130.231819,56.0244744 C131.308216,49.6819452 134.169928,45.5468014 137.33897,42.6023864 C137.582023,44.3824797 137.821447,45.5162462 138.550625,46.729197 C139.279802,45.4352099 140.494124,43.9001512 141.711704,42.5227576 L143.813165,44.3022583 L145.592665,42.5227576 L146.728358,44.6277365 L148.182343,43.4956553 L149.318035,45.1919716 L151.177091,44.0598904 L152.23321,46.1648693 L154.255042,45.032788 C154.255042,45.032788 154.174894,48.2692371 154.334615,49.6442234 C155.228143,49.1604319 156.681999,48.1084239 157.897172,46.895362 C158.218928,49.888295 157.97806,55.1475017 156.360002,59.1963501 C161.702541,54.663988 164.696771,45.5990787 163.564745,40.9854211 C161.539209,40.9044034 159.839412,40.7409235 158.624053,40.2548173 C156.818497,39.530269 155.420382,37.1937368 150.695985,36.2076355 C146.807135,35.3997547 141.869221,37.6659543 140.41331,37.4229012 C138.954972,37.179848 136.039464,35.6410301 134.828921,34.5112636 L134.82881,34.5117266 Z M130.867738,79.4390551 C128.360726,82.517728 126.038898,89.4121035 125.742604,91.5556006 C125.483348,93.4352114 126.120916,94.4852009 126.954259,95.0061216 C127.787603,95.5292645 135.457878,97.3535056 138.705438,100.131256 C141.876702,99.3395783 147.408129,99.1798762 150.225137,99.4946878 C151.942731,99.6845008 152.730668,98.2842925 153.198256,96.6663828 C153.425105,95.8885943 154.870832,88.4120209 154.764351,85.1250167 C153.984248,87.055553 151.789011,91.6479145 150.691799,92.8469765 C150.587634,92.2705749 149.80566,90.4490376 149.80566,90.4490376 L146.8868,94.5215894 L145.635369,93.2158988 L144.22842,94.5686075 L143.027617,92.8469765 L140.734492,94.1526672 L139.479449,92.2754637 L137.237064,93.1652141 L136.455812,91.3386953 L134.05417,92.3803516 C133.845838,91.7020991 133.270029,88.8835347 133.374195,87.6820652 C132.591777,88.3093923 131.966394,88.7795728 131.135328,89.7725999 C130.665426,88.0480616 130.556482,81.4230538 130.871294,79.4391847 L130.86759,79.4391847 L130.867738,79.4390551 Z" id="Shape" fill="#FFFFFF"></path>
                <path d="M131.688101,62.9114426 C131.414474,62.9104167 131.148476,62.9288498 130.892386,62.9693124 C130.313688,63.061904 128.273709,63.3454568 127.463532,63.3454568 C127.949638,63.6718424 128.597057,64.8066644 128.51604,65.6169155 C128.437337,66.4271111 126.898871,70.7116794 127.380347,72.8181398 C127.868768,74.922378 132.249558,77.9658661 133.774913,80.1025114 C134.987882,81.801587 134.816421,84.9152411 135.478452,87.2278105 C136.124297,89.4916768 138.958046,91.1962894 143.652629,91.7633207 C148.020734,92.2910932 150.863668,87.925211 151.504773,85.4481987 C152.717742,80.7491716 149.399609,73.7122049 149.077945,72.2538862 C148.75156,70.7955489 149.444571,67.7322647 148.347341,66.9081989 C147.37511,66.179021 144.300715,65.8601723 142.115552,65.9388753 C142.358605,67.3972125 142.275291,71.5247453 141.305375,73.0641744 C141.609187,67.4977486 135.792652,62.9270535 131.688064,62.9116833 L131.688101,62.9114426 Z M158.608202,142.243983 C148.749226,142.243983 142.40466,153.39239 142.40466,170.647402 C142.40466,187.906674 148.749226,199.043415 158.608202,199.043415 C168.46014,199.043415 174.80804,187.906859 174.80804,170.647402 C174.80804,153.39276 168.459955,142.243983 158.608202,142.243983 Z M71.8294399,143.086715 L71.8294399,150.179422 L75.0014452,150.179422 L75.0014452,191.484564 C73.9435669,191.533082 72.884059,191.581971 71.8331436,191.632896 L71.8331436,198.957082 C80.7106474,198.519586 89.7612976,198.188571 98.9587983,197.973296 L98.9515761,175.349448 C98.3288786,178.486083 95.063652,181.116983 90.5822154,182.355304 L90.5171049,182.409562 L90.5171049,190.887441 C89.0981191,190.933736 87.6852814,190.979847 86.2708511,191.02855 L86.2708511,150.178959 L91.4719102,150.178959 L91.4719102,143.086252 L71.829514,143.086252 L71.8294399,143.086715 Z M174.435821,143.086715 L174.435821,143.090419 L174.435821,150.179422 L177.405236,150.179422 L177.405236,191.729006 C176.416801,191.678081 175.431182,191.622155 174.435821,191.573452 L174.435821,198.901157 C178.683557,199.109488 182.892033,199.339949 187.058658,199.599205 L187.058658,192.260575 C186.206815,192.20965 185.347157,192.163169 184.490721,192.112243 L184.490721,162.160691 C188.821789,175.436299 194.759877,190.510407 198.574839,200.708453 L204.813851,201.200356 L204.813851,150.176792 L207.381788,150.176792 L207.381788,143.087789 L194.957838,143.087789 L194.957838,150.176792 L197.724662,150.176792 L197.724662,170.817326 C194.61136,161.342792 192.007683,153.357131 188.074944,143.082419 L174.435821,143.082419 L174.435821,143.086715 Z M10.8448646,143.090419 L10.8448646,150.179422 L14.2194605,150.179422 L14.2194605,196.240072 C13.0898236,196.365071 11.9711496,196.49644 10.8485683,196.630698 L10.8449572,204.034328 L10.8485683,204.034328 L10.8485683,204.008958 C19.2514472,203.008968 27.9252493,202.117495 36.8390491,201.339725 C39.5634663,200.719342 40.7236399,199.372522 40.7236399,197.097175 L40.7236399,177.421446 C40.7236399,172.224831 38.6534754,169.999298 33.8153756,169.728374 C35.6742459,168.499202 40.0436467,165.338418 40.0436467,161.944934 C40.0436467,157.771272 40.0725908,152.590212 40.0725908,150.09246 C40.0725908,143.071604 34.5378314,143.090307 27.2508672,143.090307 L10.844735,143.090307 L10.8448646,143.090419 Z M41.7834441,143.090419 L41.7834441,150.179422 L45.899514,150.179422 L45.899514,193.249361 C44.5245093,193.353434 43.1517637,193.462452 41.7834441,193.571266 L41.7834441,200.920822 C51.1887204,200.152292 60.8536238,199.514725 70.7331546,199.01473 L70.7331546,176.898284 C69.8743484,179.82881 66.6907876,182.258786 62.4108304,183.423034 L62.2950908,183.513403 L62.2733873,192.150539 C60.5673674,192.249983 58.8717547,192.352796 57.177142,192.461592 L57.177142,174.196404 L63.4524496,174.196404 L63.4524496,167.107401 L57.177142,167.107401 L57.177142,150.180533 L62.2950538,150.180533 L62.2950538,161.367458 C63.8135756,159.027111 66.8905634,157.178611 70.7331176,156.329175 L70.7331176,143.09153 L41.7834071,143.09153 L41.7834441,143.090419 Z M99.8958259,143.090419 L99.8958259,150.179422 L103.132831,150.179422 L103.132831,190.575314 C102.054119,190.596055 100.972111,190.616054 99.8958259,190.636795 L99.8958259,197.953759 C103.988378,197.863575 108.10167,197.795242 112.247369,197.751224 L112.247369,190.437964 C111.414026,190.449075 110.580219,190.461297 109.744431,190.470556 L109.744431,164.2523 L109.946985,164.2523 L119.000042,203.603758 L121.358167,203.603758 L127.904768,164.2523 L127.969879,164.2523 L127.969879,190.394631 C127.13422,190.394631 126.309673,190.38352 125.466941,190.38352 L125.466941,197.693261 C131.140588,197.702521 136.76905,197.751594 142.343253,197.848815 L142.343253,190.539074 C141.315467,190.518148 140.274755,190.511852 139.239951,190.495741 L139.239951,150.179477 L142.346772,150.179477 L142.346772,143.090474 L124.938798,143.090474 L121.698089,163.756934 L121.560646,163.756934 L118.323642,143.090474 L99.8956778,143.090474 L99.8958259,143.090419 Z M209.192881,143.090419 L209.192881,166.188336 C210.178982,163.748545 212.800438,161.710418 216.281884,160.545985 L216.281884,150.179977 L220.267585,150.179977 L220.267585,194.881382 C218.987487,194.756383 217.710944,194.631533 216.41929,194.50883 L216.41929,201.869127 C222.879966,202.475621 229.20694,203.148392 235.382064,203.872811 L235.382064,196.494366 C234.106595,196.346219 232.822089,196.200239 231.537287,196.056722 L231.537287,150.181255 L235.51947,150.181255 L235.51947,160.572447 L235.55558,160.605003 C239.025546,161.773991 241.627927,163.808489 242.604769,166.24365 L242.604769,143.09203 L209.19214,143.09203 L209.192881,143.090419 Z M25.4891626,149.843129 L28.910795,149.843129 C31.1259581,149.843129 31.2292904,150.838952 31.2292904,153.297168 C31.2292904,154.706895 31.1931241,160.509504 31.1931241,162.252449 L25.4892922,168.27813 L25.4892922,149.842944 L25.4891626,149.843129 Z M158.611905,150.056534 C161.648912,150.056534 162.4602,154.33038 162.4602,170.647069 C162.4602,186.968943 161.648875,191.2339 158.611905,191.2339 C155.572677,191.2339 154.763611,186.968202 154.763611,170.647069 C154.763611,154.33001 155.57264,150.056534 158.611905,150.056534 Z M28.0558036,174.976655 C30.3350401,175.048062 31.7016931,175.60026 31.7016931,178.242734 C31.7016931,182.041214 31.7233965,185.550438 31.7233965,188.312077 C31.7233965,191.957967 32.1827623,193.994798 30.1573011,194.413683 C29.2151624,194.605829 27.8832498,194.786087 26.052157,194.985159 C25.8669736,195.003677 25.67542,195.023307 25.4879219,195.039418 L25.4879219,175.009988 C26.4335235,174.985674 27.296163,174.957248 28.0558591,174.981044 L28.0558591,174.97734 L28.0558036,174.976655 Z" id="Shape" fill="#CF142B"></path>
                <path d="M153.461957,13.9819319 C152.709631,17.5328223 148.237194,21.4531535 142.575214,19.425396 C144.422436,20.4855891 145.150188,21.498153 145.927958,22.2574047 C147.233519,22.2574047 149.116815,22.0482216 150.477913,21.3676543 C149.744105,22.9579347 148.680542,23.6913348 147.613312,24.0802198 C149.078593,25.9042941 150.355136,28.4723981 150.741984,31.0208911 C154.415651,25.3194666 162.453719,22.1059803 166.923859,21.8050573 C164.764251,21.3513582 160.795217,21.8043296 159.190974,22.0473883 C158.4155,21.8529458 156.76785,20.8820481 155.99008,20.199166 C155.698416,21.2709331 155.404141,22.7276592 155.404141,23.6026505 C154.43191,24.0864419 153.071387,24.5745667 152.293617,25.1578942 C153.159367,22.2064422 153.663251,18.2364819 153.461864,13.9817097 L153.461957,13.9819319 Z M116.197515,22.0548141 C115.97298,22.2955524 115.832185,22.6206233 115.832204,22.9771197 C115.832204,23.7178716 116.427383,24.3189767 117.170449,24.3189767 C117.906553,24.3189767 118.508695,23.7178716 118.508695,22.9771197 C118.508695,22.6831412 118.413937,22.407255 118.251902,22.185035 L117.137913,23.1290256 L116.197533,22.0548141 L116.197515,22.0548141 Z M97.7551066,23.3568752 C97.1717791,23.375412 96.5522853,23.4355781 95.8960511,23.5377252 L97.3898139,24.6263995 C97.3898139,24.6263995 96.4219533,24.624944 95.9936983,25.0531915 C96.8525045,25.8055173 97.2956112,26.4308815 97.4947018,27.5235372 C96.9576701,27.7388128 96.2852509,27.7299611 95.6717941,27.736924 C96.6393955,28.8110058 97.3915547,30.7463383 96.8545045,32.5726163 C96.3174728,34.3966907 92.9878765,37.5153447 91.1615985,40.200503 C88.237924,44.4874972 86.7453463,49.9315168 86.8610859,53.3044461 C87.5069313,52.0174034 88.3659042,51.2663183 89.0095829,50.7292866 C88.3660709,53.7362936 89.2646545,58.4536538 90.5539749,60.0462305 C91.0910066,58.8633534 91.585909,58.0334728 92.0188121,57.496256 C91.3220413,61.2532555 91.8529249,65.4404358 93.9502743,68.3431846 C94.2141605,67.4149346 94.6442673,66.258761 95.2415021,65.4459913 C95.1327069,69.4181738 96.2823435,73.5312808 98.0301779,75.9710712 C98.4005446,75.0243029 99.0336494,73.9933132 99.2164994,73.7177604 C99.5104779,76.905136 102.114063,81.7723095 106.410502,82.9552607 C102.688317,79.4067776 102.257765,73.2912832 103.517012,70.1733514 C102.440615,70.2798319 102.007342,70.7083461 101.683252,70.8171598 C101.303627,69.2940084 101.099055,68.0392246 101.25646,65.9814674 C100.571264,66.6434978 100.085917,67.0784565 99.509515,68.09015 C98.0048819,64.5438892 98.6911898,56.6276721 100.290766,53.6299243 C99.0014089,53.8428851 98.308564,54.2203258 97.1767235,55.4564431 C97.248482,53.1116517 98.5962648,49.6415012 99.9689178,48.3637362 C98.4503959,48.3891989 96.6206179,49.4981693 95.3682231,50.6531578 C95.3682231,48.4865128 95.995939,45.21099 96.8547452,43.8498925 C95.2436317,44.1739633 94.5179167,45.0945282 93.8744047,45.307489 C93.6336663,41.1177161 95.9143843,32.6392823 106.10669,28.7385806 C104.218931,25.1232464 101.838584,23.2265987 97.7552918,23.3567826 L97.7551066,23.3568752 Z M110.088687,33.5528843 C107.05631,34.9302039 103.289866,41.082809 102.558392,46.1359066 C103.384791,45.5849862 104.574668,45.1253612 105.310772,45.0327695 C103.933452,46.9608984 103.475531,49.9019801 103.383013,51.369558 C104.484873,50.7260459 105.128662,50.5433255 105.589288,50.360457 C104.85548,51.9206451 103.476901,56.6966899 104.48615,60.2779504 C105.495418,57.3405724 106.68761,56.7902075 107.792043,55.7785509 C108.065189,58.6281521 107.057069,63.1286626 105.679842,64.5060563 C107.793154,64.230596 109.171104,63.6786756 109.629432,62.4842246 C109.171104,64.5049452 108.707145,67.6271362 107.607601,68.5460159 C109.628321,68.177964 109.81369,68.1773899 110.822939,67.2584176 C110.730347,69.2791382 110.365203,72.6779931 109.448527,73.8700182 C111.652208,72.5876051 115.04773,68.3615547 114.591623,65.6995443 L116.884749,66.5278138 C109.534822,56.3316195 106.414483,45.0335843 110.08852,33.5540695 L110.088687,33.5528843 Z M179.149107,37.4195123 C178.923184,37.6602506 178.784296,37.9806178 178.784296,38.334318 C178.784296,39.0750513 179.385401,39.6761749 180.126153,39.6761749 C180.86459,39.6761749 181.46077,39.0750698 181.46077,38.334318 C181.46077,38.0380246 181.369622,37.7657496 181.207587,37.5458444 L180.085376,38.4902794 L179.148348,37.4199197 L179.149107,37.4195123 Z" id="Shape" fill="#002469"></path>
            </g>
        </g>
    </g>
</svg>