<?xml version="1.0" encoding="UTF-8" standalone="no"?>
<svg width="250px" height="250px" viewBox="0 0 250 250" version="1.1" xmlns="http://www.w3.org/2000/svg" xmlns:xlink="http://www.w3.org/1999/xlink">
    <!-- Generator: Sketch 47.1 (45422) - http://www.bohemiancoding.com/sketch -->
    <title>DENVER</title>
    <desc>Created with Sketch.</desc>
    <defs></defs>
    <g id="Page-1" stroke="none" stroke-width="1" fill="none" fill-rule="evenodd">
        <g id="DENVER" fill-rule="nonzero">
            <g id="denver" transform="translate(0.000000, 58.000000)">
                <path d="M0.178082192,28.0163077 L0.136986301,49.4013333 L3.83561644,47.4497436 C3.83561644,51.1261538 3.73287671,100.891692 3.73287671,101.860615 L0.143835616,105.337744 L0.143835616,105.846256 L0.00684931507,131.725436 L2.15068493,129.086667 C2.31506849,128.887385 18.4315068,109.110359 32.5410959,99.8265641 L32.8287671,99.6410256 L36.9383562,90.7970256 L36.6438356,25.5699487 L27.1643836,15.7226667 L26.3972603,16.0662564 C26.2671233,16.1212308 13.4452055,21.8523077 0.904109589,27.7002051 L0.219178082,28.0163077 L0.178082192,28.0163077 Z M21.3219178,85.8699487 L18.9246575,87.8284103 C18.9246575,83.3411282 18.869863,41.2238974 18.8630137,39.8907692 C19.4315068,39.5884103 20.3424658,39.1142564 21.4657534,38.5713846 C21.4109589,42.0553846 21.2876712,84.7979487 21.2808219,85.8699487 L21.3219178,85.8699487 Z M103.383562,0.879589744 L102.253425,0.948307692 C102.253425,0.948307692 102.212329,11.9431795 102.19863,14.6369231 L96.2328767,1.34687179 L95.3835616,1.42933333 C95.3082192,1.42933333 87.6917808,2.17148718 79.8287671,3.23661538 L78.7808219,3.37405128 L78.8561644,20.938359 L80.3013699,20.6222564 C80.3013699,20.6222564 81.1369863,20.4435897 82.3561644,20.2374359 C82.3561644,22.7662564 82.4657534,56.4655385 82.4726027,58.1766154 L78.8082192,59.1798974 L78.8082192,60.1075897 L78.9383562,76.5655385 L80.4383562,76.1601026 C80.5479452,76.1601026 91.3972603,73.2121026 99.7191781,71.8652308 L100.726027,71.7003077 L100.726027,54.8506667 L97.5479452,55.2698462 C97.5479452,53.833641 97.5479452,49.9167179 97.5136986,45.4706667 C100.616438,52.7891282 108.226027,70.7726154 108.226027,70.7726154 L109.089041,70.6970256 C109.150685,70.6970256 115.191781,70.1953846 118.863014,70.0098462 L120.013699,69.9617436 L120.013699,16.8427692 L123.59589,16.7809231 L123.59589,0.144307692 L122.383562,0.144307692 C114.267123,0.288615385 103.493151,0.879589744 103.383562,0.879589744 Z M103.520548,17.5780513 C103.609589,17.5780513 105.212329,17.5230769 106.184932,17.4681026 C106.184932,18.3889231 106.123288,21.3231795 106.184932,23.8657436 C105.445205,22.2165128 104.59589,19.9694359 103.520548,17.5780513 Z M62.7465753,60.4236923 L61.9657534,60.7123077 C61.9657534,60.7123077 61.9657534,63.550359 61.9657534,64.5742564 L58.4863014,65.8592821 L58.4863014,55.2561026 C59.8561644,54.7613333 62.7534247,53.7168205 65.9041096,52.7410256 L66.7534247,52.4798974 L66.7534247,34.9636923 C66.7534247,34.9636923 60.3835616,36.8603077 58.3150685,37.485641 C58.3150685,35.0805128 58.3561644,26.4907692 58.3630137,25.1164103 C59.0479452,24.889641 60.2739726,24.5323077 61.9794521,24.0925128 C61.9794521,25.5630769 62.0342466,29.0608205 62.0342466,29.0608205 L63.4931507,28.7172308 C63.5753425,28.7172308 71.7123288,26.7587692 76.2123288,25.8379487 L77.1712329,25.6455385 L77.1712329,3.6214359 L75.8013699,3.84133333 C63.8889913,5.84089334 52.0878033,8.45796983 40.4452055,11.6820513 L39.5684932,11.9294359 L39.6369863,31.2254359 L43.3561644,29.9404103 C43.3561644,32.9914872 43.2876712,71.1368205 43.2876712,72.4836923 L39.7465753,74.3596923 L39.7465753,94.6658462 L41.5753425,93.532 C41.7465753,93.4289231 59.1438356,82.7020513 76.3082192,77.1358974 L77.1369863,76.8610256 L77.1780822,55.744 L75.6369863,56.2112821 C75.5342466,56.2318974 67.5479452,58.6438974 62.7465753,60.4236923 L62.7465753,60.4236923 Z M193.260274,62.4302564 L191.650685,61.8049231 C191.650685,61.8049231 191.59589,65.4882051 191.575342,67.0549744 C189.849315,66.3677949 188.554795,65.8317949 187.80137,65.5363077 C187.80137,64.2375385 187.849315,55.9157949 187.863014,53.4969231 C189.335616,53.9642051 191.726027,54.7475897 194.506849,55.7165128 L196.109589,56.2662564 L196.013699,38.1934359 L188.013699,36.0356923 C188.013699,34.606359 188.061644,26.6350769 188.075342,24.4292308 C188.952055,24.6353846 190.184932,24.9446154 191.664384,25.3569231 C191.664384,26.5526154 191.582192,30.0778462 191.582192,30.0778462 L192.458904,30.3321026 C192.534247,30.3321026 199.890411,32.5242051 204.787671,34.1665641 L206.363014,34.6956923 L206.363014,11.1941538 L205.472603,10.953641 C205.308219,10.9124103 188.294521,6.38389744 170.616438,3.55958974 L169.246575,3.33969231 L169.157534,20.6566154 L170.239726,20.7665641 C170.239726,20.7665641 171.315068,20.8765128 172.753425,21.1307692 L172.753425,60.2450256 C171.849315,60.0388718 170.917808,59.8464615 170.760274,59.8121026 L169.321918,59.5166154 L169.321918,76.2219487 L170.178082,76.4830769 C182.190103,80.3001813 193.771345,85.3670505 204.732877,91.6010256 L206.520548,92.6386667 L206.616438,68.1888205 L205.931507,67.8521026 C201.993151,65.8386667 193.609589,62.5676923 193.260274,62.4302564 L193.260274,62.4302564 Z M250,133.477744 L250,107.825333 L249.726027,107.488615 L246.767123,103.901538 C246.767123,103.901538 240.917808,74.9163077 240.739726,73.8580513 C241.383562,73.1090256 246.643836,68.8141538 246.643836,68.8141538 L246.890411,38.3652308 L239.219178,22.477641 L238.794521,22.2989744 C238.657534,22.244 224.986301,16.6984615 210.828767,12.2524103 L209.246575,11.7645128 L209.342466,31.4453333 L210.294521,31.6446154 C211.078576,31.8294381 211.851515,32.0588687 212.609589,32.3317949 C212.609589,33.8916923 212.678082,73.7962051 212.684932,77.5001026 C211.746575,77.0259487 211.082192,76.7648205 211.041096,76.7510769 L209.424658,76.1326154 L209.349315,94.9132308 L209.849315,95.2774359 C209.952055,95.3530256 220.438356,102.980718 228.856164,110.271692 L230.821918,111.982769 C230.821918,111.982769 230.575342,101.187179 230.59589,96.177641 C231.917808,103.152513 234.547945,115.645436 234.547945,115.645436 C234.547945,115.645436 242.534247,124.077128 247.863014,130.763385 L250,133.443385 L250,133.477744 Z M227.60274,88.2407179 C227.60274,87.9314872 227.493151,80.1732308 227.479452,77.9673846 C227.945205,80.434359 228.958904,86.797641 229.534247,89.745641 L227.60274,88.2407179 Z M227.780822,53.4556923 C227.780822,52.2325128 227.780822,42.1928205 227.815068,39.4166154 C229.102053,40.0118818 230.351023,40.6866114 231.554795,41.4369231 C231.554795,42.5226667 231.5,52.5142564 231.5,55.6340513 C229.684932,54.5964103 228.472603,53.833641 227.780822,53.4900513 L227.780822,53.4556923 Z M166.376712,3.16789744 C166.308219,3.16789744 159.726027,1.92410256 147.554795,0.831487179 L147.472603,0.831487179 L146.691781,0.755897436 L145.40411,0.645948718 L145.40411,0.687179487 C136.931507,0.144307692 126.986301,-5.68434189e-14 126.910959,-5.68434189e-14 L125.69863,-5.68434189e-14 L125.650685,16.8702564 L129.527397,16.9114872 C129.863014,18.794359 139.246575,70.6214359 139.246575,70.6214359 L140.143836,70.717641 C143.952055,71.1162051 152.212329,72.4562051 152.294521,72.4699487 L153.445205,72.6554872 C153.445205,72.6554872 163.09589,21.708 163.506849,19.529641 C164.719178,19.7289231 166.013699,19.9831795 166.027397,19.9831795 L167.465753,20.2717949 L167.369863,3.38779487 L166.376712,3.16789744 Z M146.561644,28.6691282 C145.876712,24.0237949 145.328767,18.8974359 145.116438,17.4749744 L145.472603,17.4749744 L145.472603,17.4406154 L148.212329,17.6467692 C148,18.9317949 147.363014,24.0650256 146.561644,28.6691282 Z" id="_Compound_Path_" fill="#231F20"></path>
                <path d="M84.5205479,17.8872821 C82.4657534,18.1621538 80.9863014,18.4851282 80.9863014,18.4851282 L80.9315068,5.38748718 C88.8630137,4.31548718 94.5273973,3.58707692 94.5273973,3.58707692 L108.061644,32.3043077 L107.760274,15.241641 L104.335616,15.4203077 L104.390411,3.05107692 C104.390411,3.05107692 113.239726,2.46010256 121.458904,2.32953846 L121.458904,14.6506667 C119.863014,14.6506667 117.869863,14.705641 117.869863,14.705641 L117.869863,67.8864615 C114.123288,68.0445128 109.958904,68.573641 109.958904,68.573641 L95.3493151,35.7058462 L95.4109589,57.6337436 C95.4109589,57.6337436 96.8630137,57.4825641 98.5821918,57.2145641 L98.5821918,69.714359 C90.109589,71.0887179 81.0958904,73.5625641 81.0958904,73.5625641 L80.9726027,61.0627692 C80.9726027,61.0627692 83.1986301,60.4374359 84.630137,60.1007179 L84.5068493,17.921641" id="_Path_" fill="#A99A6F"></path>
                <path d="M214.787671,30.5451282 L214.863014,81.4994872 C213.82467,80.840133 212.728857,80.2766279 211.589041,79.8158974 L211.513699,93.3533333 C211.513699,93.3533333 220.130137,99.5379487 228.678082,106.973231 L228.760274,91.7522051 C227.820119,91.0006433 226.831682,90.3119755 225.80137,89.6906667 L225.924658,68.4636923 L227,69.2608205 L236.424658,114.078667 C236.424658,114.078667 242.410959,120.325128 247.842466,127.135077 L247.842466,109.220308 L244.863014,105.461436 L238.69863,72.8135385 L244.828767,67.6115897 L244.773973,39.6021538 L237.746575,24.1887179 C237.746575,24.1887179 225.684932,19.3234872 211.431507,14.8155897 L211.513699,29.5006154 L214.787671,30.5451282 L214.787671,30.5451282 Z M233.150685,40.0763077 L233.184932,59.2417436 C228.890411,56.5961026 226.10274,54.8369231 226.10274,54.8369231 L226.143836,36.1525128 L233.150685,40.0763077 Z" id="_Compound_Path_2" fill="#A99A6F"></path>
                <path d="M174.938356,19.1654359 L174.938356,62.7532308 C174.123288,62.4852308 171.513699,61.9492308 171.513699,61.9492308 L171.513699,74.3665641 C182.974226,77.9508014 194.001127,82.8047327 204.390411,88.8385641 L204.472603,69.8792821 C200.486301,67.8795897 193.767123,65.2064615 193.767123,65.2064615 L193.691781,70.4908718 C189.856164,68.8897436 185.623288,67.3161026 185.623288,67.3161026 L185.705479,50.7001026 C185.705479,50.7001026 189.273973,51.7308718 193.924658,53.3457436 L193.842466,40.0763077 L185.856164,37.9116923 L185.938356,21.3025641 C185.938356,21.3025641 190.294521,22.4570256 193.842466,23.4946667 L193.760274,28.7034872 C193.760274,28.7034872 199.239726,30.4008205 204.226027,32.0637949 L204.226027,13.0770256 C193.441347,9.96801778 182.481188,7.50811553 171.40411,5.71046154 L171.342466,18.6363077 L174.938356,19.1929231" id="_Path_2" fill="#A99A6F"></path>
                <path d="M131.458904,14.7606154 L141.19863,68.5598974 C145.082192,68.9722051 151.472603,70.3190769 151.472603,70.3190769 L161.534247,17.2069744 C162.938356,17.3925128 165.246575,17.8460513 165.246575,17.8460513 L165.164384,5.34625641 C165.164384,5.34625641 159.938356,4.06810256 147.123288,2.94112821 L147.164384,15.3447179 C147.164384,15.3447179 148.863014,15.4271795 150.589041,15.5989744 L146.479452,38.6332308 L142.753425,15.2004103 C142.753425,15.2004103 143.59589,15.2004103 145.308219,15.3241026 L145.390411,2.95487179 C136.657534,2.35015385 127.821918,2.19897436 127.821918,2.19897436 L127.780822,14.7331282 L131.458904,14.774359" id="_Path_3" fill="#A99A6F"></path>
                <path d="M45.4178082,74.1672821 L45.4863014,27.3085128 C44.1917808,27.7070769 44.1164384,27.7964103 41.760274,28.5797949 L41.6986301,13.8260513 C52.6576042,10.7300656 63.7739802,8.22514508 75,6.32205128 L75,24.1887179 C70.4041096,25.1232821 64.1575342,26.5938462 64.1575342,26.5938462 L64.1027397,21.0964103 C59.9931507,22.0859487 56.1917808,23.2610256 56.1917808,23.2610256 L56.1369863,40.0213333 C56.1369863,40.0213333 60.4452055,38.6882051 64.5821918,37.4993846 L64.5821918,50.5970256 C60.2123288,51.9713846 56.3150685,53.4213333 56.3150685,53.4213333 L56.3150685,68.9859487 C56.3150685,68.9859487 59.4520548,67.5428718 64.1027397,65.8592821 L64.1027397,61.9973333 L75,58.3277949 L74.9589041,75.0262564 C57.4520548,80.7092308 41.8835616,90.5908718 41.8835616,90.5908718 L41.8835616,76.0432821 L45.4178082,74.1672821" id="_Path_4" fill="#A99A6F"></path>
                <path d="M26.8493151,18.6363077 C26.8493151,18.6363077 15.0136986,23.8657436 2.33561644,29.7754872 L2.29452055,45.9929231 C2.29452055,45.9929231 4.30136986,44.9621538 5.99315068,44.0482051 L5.89041096,103.358667 C4.52054795,104.671179 2.29452055,106.842667 2.29452055,106.842667 L2.17123288,125.946256 C10.3981032,115.09734 20.2040561,105.551081 31.260274,97.6275897 L34.7534247,89.5944615 L34.4589041,27.0611282 L26.8493151,18.6363077 L26.8493151,18.6363077 Z M23.4246575,87.4367179 L16.7123288,92.3019487 L16.6575342,38.2346667 C16.6575342,38.2346667 20.7671233,36.5373333 23.5684932,35.2523077 L23.4246575,87.4367179 Z" id="_Compound_Path_3" fill="#A99A6F"></path>
                <path d="M26.1917808,21.3437949 C26.1917808,21.3437949 17.0479452,25.4050256 4.36986301,31.3147692 L4.36986301,42.3714872 C4.36986301,42.3714872 6.23287671,41.4231795 7.92465753,40.5092308 L7.92465753,104.485641 C6.55479452,105.798154 4.34931507,108.107077 4.34931507,108.107077 L4.34931507,119.789128 C12.0704769,110.933215 20.6567528,102.875867 29.9794521,95.7378462 L32.7876712,89.2921026 L32.4657534,28.5110769 L26.1986301,21.3369231 L26.1917808,21.3437949 Z M25.3767123,88.6805128 C20.6232877,92.2057436 14.7260274,96.5555897 14.7260274,96.5555897 L14.7260274,36.9771282 C14.7260274,36.9771282 19.5821918,35.0461538 25.3630137,32.5379487 L25.3767123,88.6805128 Z" id="_Compound_Path_4" fill="#98002E"></path>
                <path d="M43.7945205,77.9605128 L43.7945205,87.2236923 C52.929942,81.4581596 62.7602043,76.8836657 73.0479452,73.6106667 L73.0479452,61.0352821 C73.0479452,61.0352821 70.8630137,61.7636923 66.0342466,63.550359 L66.0342466,67.4054359 C61.390411,69.0821538 54.6780822,71.9064615 54.6780822,71.9064615 L54.6780822,51.7789744 C54.6780822,51.7789744 58.3630137,50.2809231 62.7260274,48.9340513 L62.7260274,40.2274872 C58.6164384,41.4163077 54.1986301,42.8868718 54.1986301,42.8868718 L54.1986301,21.7217436 C54.1986301,21.7217436 60.7534247,19.9282051 66.0205479,18.6981538 L66.0205479,23.8245128 C66.0205479,23.8245128 68.4520548,23.2541538 73.0479452,22.3264615 L73.0479452,8.83025641 C73.0479452,8.83025641 61.3082192,10.452 43.7123288,15.4615385 L43.7123288,25.5081026 C43.7123288,25.5081026 46.4520548,24.5872821 47.3287671,24.3192821 L47.3287671,76.0638974 L43.7945205,77.9330256" id="_Path_5" fill="#98002E"></path>
                <path d="M86.5958904,15.2004103 L86.5958904,61.7224615 C85.1643836,62.0591795 83.0273973,62.5883077 83.0273973,62.5883077 L83.0273973,71.0268718 C83.0273973,71.0268718 89.8767123,69.1852308 96.8630137,67.7490256 L96.8630137,59.4204103 C95.1369863,59.6815385 93.3835616,59.997641 93.3835616,59.997641 L93.3835616,25.9753846 L111.410959,66.2166154 C111.410959,66.2166154 112.780822,66.0035897 115.945205,65.8043077 L115.945205,12.4516923 C115.945205,12.4516923 117.80137,12.3898462 119.369863,12.3761026 L119.369863,4.12994872 C111.150685,4.25364103 106.116438,4.72092308 106.116438,4.72092308 L106.116438,13.0357949 C106.116438,13.0357949 108.69863,12.8502564 109.541096,12.8021538 L109.541096,39.9594872 L93.1780822,5.60051282 C93.1780822,5.60051282 90.890411,5.99220513 82.9589041,7.06420513 L82.9589041,15.7707692 L86.5479452,15.2004103" id="_Path_6" fill="#98002E"></path>
                <path d="M133.321918,12.4516923 L142.910959,66.6495385 C145.286382,66.9050518 147.641326,67.3252356 149.958904,67.9070769 L159.773973,14.8568205 C161.184932,15.0492308 163.410959,15.3996923 163.410959,15.3996923 L163.410959,6.81682051 C163.410959,6.81682051 156.89726,5.65548718 149.335616,5.10574359 L149.335616,13.4481026 C149.335616,13.4481026 151.047945,13.6061538 152.760274,13.7779487 L146.465753,47.7658462 L140.30137,12.8914872 C140.30137,12.8914872 141.910959,12.9945641 143.650685,13.132 L143.650685,4.824 C134.910959,4.21928205 129.726027,4.13682051 129.726027,4.13682051 L129.726027,12.3829744 L133.349315,12.328" id="_Path_7" fill="#98002E"></path>
                <path d="M176.863014,17.3581538 L176.863014,65.3645128 C176.054795,65.1033846 173.19863,64.2444103 173.19863,64.2444103 L173.19863,72.9234872 C183.426054,76.255466 193.271353,80.6690632 202.568493,86.0898462 L202.568493,71.3017436 C198.582192,69.2951795 195.5,68.1475897 195.5,68.1475897 L195.5,73.0128205 C190.787671,70.8550769 183.684932,68.4293333 183.684932,68.4293333 L183.684932,48.1850256 C183.684932,48.1850256 187.547945,49.2845128 192.205479,50.9337436 L192.205479,42.1241026 C192.205479,42.1241026 187.479452,40.5985641 183.671233,39.5677949 L183.671233,18.8149744 C183.671233,18.8149744 191.952055,21.0276923 195.5,22.0653333 L195.5,26.765641 C195.5,26.765641 197.554795,27.4528205 202.534247,29.0951795 L202.534247,14.6987692 C202.534247,14.6987692 191.020548,10.7406154 173.19863,7.89569231 L173.19863,16.6641026 L176.863014,17.3512821" id="_Path_8" fill="#98002E"></path>
                <path d="M216.69863,28.6210256 L216.780822,84.8735385 C215.068493,83.7877949 213.506849,83.0181538 213.506849,83.0181538 L213.424658,92.3912821 C213.424658,92.3912821 218.219178,95.7172308 226.760274,103.125026 L226.842466,92.8173333 C225.903935,92.066806 224.917844,91.3781793 223.890411,90.7557949 L224.184932,65.0346667 L228.561644,68.1132308 L238.013699,113.034154 C238.013699,113.034154 240.493151,115.061333 245.924658,121.878154 L245.924658,110.148 L243.287671,107.145026 L236.643836,71.8514872 L242.972603,66.1066667 L242.910959,40.4473846 L236.445205,25.6661538 C228.902051,22.4441114 221.195036,19.6227702 213.356164,17.2138462 L213.424658,27.569641 L216.69863,28.6072821 L216.69863,28.6210256 Z M234.589041,39.1142564 L234.623288,62.1210256 C230.328767,59.4822564 224.664384,55.7989744 224.664384,55.7989744 L224.705479,33.7542564 L234.589041,39.1142564 Z" id="_Compound_Path_5" fill="#98002E"></path>
            </g>
        </g>
    </g>
</svg>