<?xml version="1.0" encoding="UTF-8" standalone="no"?>
<svg width="250px" height="250px" viewBox="0 0 250 250" version="1.1" xmlns="http://www.w3.org/2000/svg" xmlns:xlink="http://www.w3.org/1999/xlink">
    <!-- Generator: Sketch 47.1 (45422) - http://www.bohemiancoding.com/sketch -->
    <title>NORL</title>
    <desc>Created with Sketch.</desc>
    <defs></defs>
    <g id="Page-1" stroke="none" stroke-width="1" fill="none" fill-rule="evenodd">
        <g id="NORL" fill-rule="nonzero">
            <g id="New_Orleans_Privateers_logo" transform="translate(0.000000, 18.000000)">
                <g id="Group" transform="translate(125.218750, 107.166019) scale(-1, 1) rotate(-180.000000) translate(-125.218750, -107.166019) translate(1.520833, 0.187864)">
                    <g transform="translate(1.567708, 2.530947)" id="Shape">
                        <path d="M209.609375,141.459041 L209.609375,149.790291 C185.852865,161.363501 155.404948,168.318386 122.201823,168.318386 C89.6484375,168.318386 59.7395833,161.636165 36.1914062,150.468689 L36.1914062,141.477306 C29.3346354,141.559496 17.4934896,139.307737 9.55859375,124.663471 C9.55859375,124.663471 21.4973958,128.8304 32.8736979,124.686954 C43.5585938,120.796602 60.2955729,121.258434 68.8671875,130.624242 L47.9570313,130.624242 C61.9205729,136.198847 77.7786458,140.240534 94.8463542,142.344873 C92.0455729,140.110073 88.4101563,136.984223 85.0924479,133.846632 C67.1822917,116.916687 48.2981771,119.520692 48.2981771,119.520692 C48.2981771,119.520692 46.9036458,102.465504 65.046875,90.7461772 C54.8515625,89.3737257 47.6106771,82.1866201 46.8098958,70.7947512 C46.1471354,61.3754551 50.1914062,52.1766383 56.9296875,43.7488471 C56.7877604,44.3881068 56.7083333,45.0482403 56.7083333,45.7331614 C56.7135417,53.0207221 64.046875,57.0206614 73.0846354,54.6684466 C82.1236979,52.3162318 87.3554688,45.8010012 87.3476563,39.4436286 C87.3463542,34.8540049 84.0078125,31.7620752 79.1809896,31.1684769 C83.703125,27.103307 90.2395833,24.543659 97.5182292,24.543659 C98.421875,24.543659 99.3138021,24.5867112 100.19401,24.6636833 C104.200521,14.0663228 112.127604,5.42066141 122.183594,0.563592233 C132.24349,5.42066141 140.166667,14.0663228 144.174479,24.6636833 C145.05599,24.5867112 145.949219,24.543659 146.852865,24.543659 C154.134115,24.543659 160.666667,27.103307 165.1875,31.1684769 C160.363281,31.7620752 157.023438,34.8540049 157.020833,39.4436286 C157.016927,45.8010012 162.246094,52.3162318 171.285156,54.6684466 C180.326823,57.0206614 187.653646,53.0207221 187.661458,45.7331614 C187.665365,45.0482403 187.582031,44.3881068 187.4375,43.7488471 C194.175781,52.1766383 198.222656,61.3754551 197.5625,70.7947512 C196.777344,82.0248483 189.721354,89.1636833 179.755208,90.6783374 C198.040365,102.436802 196.643229,119.638107 196.643229,119.638107 C196.643229,119.638107 177.757813,116.916687 159.847656,133.846632 C156.611979,136.905947 153.027344,139.979612 150.22526,142.224848 C166.928385,140.089199 182.455729,136.094478 196.158854,130.624242 L175.53125,130.624242 C184.106771,121.258434 200.841146,120.796602 211.528646,124.686954 C222.902344,128.8304 234.84375,124.663471 234.84375,124.663471 C227.423177,138.35537 216.59375,141.21247 209.609375,141.459041" fill="#A4A9AC"></path>
                        <path d="M167.864583,86.5218447 C166.580729,86.4213896 165.348958,86.2935376 164.147135,86.1422027 C191.492187,98.0624393 193.009115,116.068689 193.009115,116.068689 C193.009115,116.068689 192.347656,115.991717 192.376302,116.068689 C192.376302,116.068689 174.183594,115.026305 158.321615,129.999333 C152.032552,135.934011 147.231771,140.074848 142.856771,142.913683 C137.614583,146.741414 130.416667,149.107979 122.470052,149.107979 C117.889323,149.107979 113.558594,148.318689 109.701823,146.916232 C102.683594,144.685346 96.3489583,139.777397 85.9856771,129.999333 C70.125,115.026305 51.9348958,115.94997 51.9348958,115.94997 C52.1276042,113.618629 53.7421875,97.6410498 81.2109375,86.0013046 C79.7044271,86.2100425 78.1523437,86.3939927 76.5091146,86.5218447 C57.7070312,87.9830097 47.171875,76.2754248 52.9817708,60.3761226 C53.8802083,57.9091019 55.125,55.4877427 56.6471354,53.1498786 C57.7890625,57.8386529 62.5807292,60.7427184 69.5377604,60.2026092 C79.390625,59.4381068 89.3723958,52.0996663 92.0729167,43.7971177 C94.0390625,37.7515473 91.9609375,32.8318568 87.296875,30.8697209 L87.3020833,30.8697209 L87.296875,30.8697209 C89.7838542,29.6720874 92.4895833,28.9088896 95.328125,28.6897148 C98.3385417,28.4574939 101.213542,28.867142 103.848958,29.7895024 C106.545573,19.2482403 113.28125,11.1909587 122.1875,5.98947209 C131.091146,11.1909587 137.832031,19.2482403 140.528646,29.7895024 C143.16276,28.867142 146.036458,28.4574939 149.046875,28.6897148 C151.88151,28.9088896 154.589844,29.6720874 157.075521,30.8697209 L157.074219,30.8697209 L157.075521,30.8697209 C152.41276,32.8318568 150.333333,37.7515473 152.304687,43.7971177 C155.00651,52.0996663 164.984375,59.4381068 174.835937,60.2026092 C181.790365,60.7427184 186.582031,57.8386529 187.729167,53.1498786 C189.252604,55.4877427 190.492187,57.9091019 191.393229,60.3761226 C197.199219,76.2754248 186.665365,87.9830097 167.864583,86.5218447" fill="#002F56"></path>
                        <path d="M122.21224,54.7934597 L122.21224,74.800984 L122.318042,74.800984 L129.316792,74.800984 C130.44575,73.4193481 132.119083,72.5403529 133.994083,72.5403529 C135.090438,72.5403529 136.118562,72.8429393 137.009188,73.3700024 C136.412833,69.8254248 133.426271,67.2994879 130.655438,67.2994879 C129.16325,67.2994879 127.336479,68.0268141 126.098146,69.2401238 C126.191896,68.4377876 126.234458,67.6100898 126.234458,66.763449 C126.234458,61.785051 124.638,57.4003034 122.212271,54.7933762 L122.21224,54.7934597 Z M122.214323,76.8883626 L122.214323,80.141751 L131.151927,80.141751 C132.239219,80.141751 133.119323,79.412066 133.119323,78.5171442 C133.119323,77.6156575 132.239188,76.888467 131.151927,76.888467 L122.214323,76.888467 L122.214323,76.8883626 Z M122.214323,82.2311126 L122.214323,91.2390908 C123.748177,89.7505811 124.977448,87.6777097 125.748281,85.2419476 C126.595938,85.808149 127.583177,86.1286765 128.66776,86.1286765 C129.838385,86.1286765 130.994635,85.7508296 132.053177,85.0972192 C130.622135,84.6001621 129.427344,83.5684231 128.679948,82.2311439 L122.318073,82.2311439 L122.214323,82.2311439 L122.214323,82.2311126 Z M106.058073,106.757812 C106.01901,106.950894 105.992969,107.155071 105.992969,107.3612 C105.992969,109.088506 107.632552,110.48611 109.661198,110.48611 C111.171615,110.48611 112.473073,109.707987 113.030365,108.596406 C110.635781,108.103263 108.312031,107.488321 106.058073,106.757739 L106.058073,106.757812 Z M138.319531,106.757812 C136.065573,107.488394 133.73974,108.103336 131.34526,108.596479 C131.902552,109.708008 133.202135,110.486183 134.716406,110.486183 C136.745052,110.486183 138.384635,109.088579 138.384635,107.361273 C138.384635,107.155144 138.358594,106.950967 138.319531,106.757885 L138.319531,106.757812 Z M142.972448,109.053093 C142.965156,109.212256 142.674031,114.353052 136.993073,117.48412 C136.993073,117.48412 131.27026,116.544225 128.88349,112.398222 C128.486354,114.72304 127.573281,116.153103 127.573281,116.153103 C125.86099,111.448673 122.05776,109.532147 122.05776,109.532147 C122.05776,109.532147 126.250469,117.398537 122.05776,126.074622 C122.05776,126.074622 126.806094,125.314848 128.737031,123.029137 C128.737031,123.029137 128.077531,121.504516 125.888698,120.888739 C125.888698,120.888739 130.008385,120.033884 132.445885,122.315671 C132.445885,122.315671 134.026302,120.648273 134.228073,119.981668 C134.228073,119.981668 135.874115,121.279392 135.957448,123.510278 C135.957448,123.510278 143.33099,117.792948 145.263281,111.608045 C145.263281,111.608045 144.41774,110.110559 142.972448,109.053824 L142.972448,109.053093 Z M73.6443229,123.008263 C68.1744271,122.98144 62.8734896,124.79986 58.9630729,130.104098 L58.8226979,130.428216 C58.8226979,130.428216 72.5435313,120.840051 96.8174896,140.573607 C96.8174896,140.573607 92.6375938,129.703582 79.0216563,123.744116 C79.0529063,123.693184 79.0928646,123.64267 79.1254167,123.589191 C77.3096875,123.230746 75.4677083,123.017155 73.6444792,123.008232 L73.6443229,123.008263 Z M170.732865,123.008263 C168.909531,123.017656 167.067031,123.230778 165.251927,123.589222 C165.285781,123.642764 165.32776,123.693278 165.357729,123.744148 C151.738979,129.703614 147.561896,140.573638 147.561896,140.573638 C171.831688,120.83956 185.556688,130.428247 185.556688,130.428247 L185.416302,130.104129 C181.506094,124.799892 176.203177,122.981472 170.732969,123.008294 L170.732865,123.008263 Z M122.056823,137.577122 C111.38599,137.577122 111.851302,138.892797 112.150781,140.46355 C112.260156,141.070194 112.78701,141.6162 113.863802,142.078033 C115.294844,140.799513 118.490573,139.907054 122.209323,139.907054 C125.84349,139.907054 128.972344,140.760844 130.444948,141.992346 C131.405885,141.550082 131.820885,141.070152 131.966719,140.46355 C132.337812,138.903234 132.65951,137.577122 122.056615,137.577122 L122.056823,137.577122 Z" fill="#A4A9AC" transform="translate(122.189693, 98.435704) scale(-1, 1) rotate(-180.000000) translate(-122.189693, -98.435704) "></path>
                        <path d="M123.295573,56.2991485 C122.805979,57.1458415 122.31901,57.9999447 121.830677,58.849299 C123.080677,58.8440806 125.091719,58.8700893 126.599531,58.8961816 L126.599531,67.2048879 C128.32474,67.2348939 130.041719,67.2819434 131.763073,67.3536971 L131.763073,59.0837117 C133.33599,59.1554653 135.38651,59.2431978 136.525885,59.3201699 C136.04151,58.4382524 135.55599,57.5575874 135.065052,56.6783835 C131.144427,56.4409442 127.219948,56.3135828 123.29526,56.299232 L123.295573,56.2991485 Z M117.267344,56.3480663 C114.823385,56.4054692 112.379115,56.508857 109.93901,56.6497551 C108.382969,60.3456677 106.827969,64.1106726 105.275885,67.8328862 C106.860469,67.7076434 108.447344,67.6015629 110.034635,67.5128493 C110.276823,66.9322971 110.708625,65.9608833 111.031542,65.2094269 C112.41175,65.145501 114.287896,65.0669007 115.780083,65.005584 C116.112115,65.7518218 116.543187,66.7176519 116.774958,67.2499335 C118.492458,67.1990536 120.21225,67.1666053 121.928396,67.1561684 C120.374958,63.5658772 118.820687,59.9137995 117.267354,56.3487655 L117.267344,56.3480663 Z M105.104844,56.9738728 C103.495469,57.0912879 101.88224,57.2290862 100.272865,57.3856396 C99.2897917,59.4926396 98.3105729,61.6961808 97.3248437,63.8291687 C97.2831771,64.0418204 97.236875,64.2512053 97.1926042,64.4651617 C97.1509375,64.2642515 97.1047917,64.0626942 97.0644271,63.861784 C96.1282292,61.9791772 95.1915104,59.9652743 94.2527604,58.0827718 C92.5300521,58.3032512 90.8092187,58.5506369 89.0892187,58.8206915 C90.9095312,62.1370143 92.7346354,65.6379658 94.5641146,68.9803808 C96.1434896,68.7585968 97.7217187,68.5549939 99.3024479,68.3749575 C101.23474,64.5433653 103.169948,60.7155303 105.104844,56.9736954 L105.104844,56.9738728 Z M139.67151,56.9800306 C139.66526,60.5885864 139.67151,64.2457782 139.67151,67.8490112 C143.278281,68.1438534 146.88474,68.5413529 150.470469,69.0293194 C150.966562,68.2256786 151.460865,67.4201592 151.955677,66.6178752 C149.815052,66.3086823 146.931719,65.9503211 144.684323,65.6985311 L144.684323,63.8476524 C145.91349,63.9846367 147.583698,64.1813825 148.629219,64.3144529 L148.629219,61.8397612 C147.582344,61.7093 145.909427,61.5140153 144.68026,61.3770311 C144.678177,60.9073709 144.675052,60.3581294 144.671927,59.9093951 C146.78776,60.1403114 149.462344,60.4650762 151.44276,60.7390447 C150.977917,59.8492995 150.514135,58.9626854 150.053177,58.0768019 C146.598802,57.6201879 143.138594,57.2540825 139.671094,56.9800932 L139.67151,56.9800306 Z M113.39026,58.6352175 C113.434531,58.8139493 113.481615,58.9925976 113.524542,59.1713294 C113.889125,60.0754252 114.471229,61.5924799 114.910062,62.704009 C113.954333,62.7496704 112.867146,62.8017714 111.8685,62.8487374 C112.309906,61.6902422 112.899594,60.1104097 113.264125,59.1815262 C113.305792,59.0001852 113.346,58.8178631 113.39026,58.6352175 L113.39026,58.6352175 Z M155.605885,58.8492573 L155.605885,69.7996456 C159.191823,70.3841117 162.761406,71.0640752 166.313177,71.844233 C166.798854,71.0758167 167.292917,70.3086529 167.77599,69.5427937 C165.768177,69.0913981 162.808385,68.4769782 160.577865,68.0424903 L160.577865,66.1916117 C161.849948,66.4381833 163.536927,66.7768083 164.486198,66.9764138 L164.486198,64.5078799 C163.536979,64.3082743 161.850052,63.9676036 160.577865,63.721032 L160.577865,62.1575854 C162.692448,62.5633197 165.437865,63.1198148 167.299844,63.529515 C166.838906,62.6071546 166.382687,61.6858379 165.920469,60.7673913 C162.492135,60.0381133 159.058594,59.3984883 155.605469,58.8491947 L155.605885,58.8492573 Z M86.0465104,59.3199612 C84.3485937,59.6148034 82.6518229,59.9327216 80.9643229,60.2719206 L80.9643229,71.2776245 C82.6518229,70.9201609 84.3485937,70.5891131 86.0465104,70.2747017 L86.0465104,59.3201386 L86.0465104,59.3199612 Z M73.6600521,61.8537257 C70.1235937,62.7004187 66.6058854,63.6445922 63.1110937,64.6830631 L63.1110937,75.8359272 C64.7322396,75.3362609 66.3560937,74.8580425 67.9836979,74.398767 L67.9836979,71.1087451 C68.6477604,70.9156626 69.3833854,70.6979595 69.6580729,70.6235966 C69.8273437,70.6301718 70.0029583,70.6354216 70.1748333,70.6419447 C70.8154583,71.6256218 71.4623333,72.3004714 72.1055625,73.2919762 C73.8737917,72.8353621 75.6422292,72.4027216 77.4156667,71.9995757 C76.5062917,70.7429738 75.6000417,69.798435 74.6906667,68.5564447 C75.4706146,67.9028342 76.2481667,67.2523549 77.0242083,66.6117383 L77.0242083,63.0831291 C75.9044167,62.6643488 74.7788958,62.2550243 73.6591042,61.8518888 L73.6600521,61.8537257 Z M171.399635,61.9719549 L171.399635,73.0528044 C173.03901,73.4598432 174.671406,73.8930578 176.306823,74.3431175 L176.306823,70.6474136 C176.690937,70.7583056 177.620573,71.026565 178.404427,71.2548721 C179.032031,72.6233575 179.832865,74.4381245 180.343281,75.5275274 C182.09724,76.0780735 183.84401,76.6485541 185.586198,77.2500323 C184.694271,75.4783697 183.870573,73.5719667 182.979948,71.8277532 C183.744271,71.6059692 184.507969,71.3864709 185.274844,71.1672961 L185.274844,67.9139078 C184.166719,66.888483 183.060365,65.8724515 181.948385,64.8705097 C178.452344,63.811165 174.93724,62.8419951 171.399427,61.9718714 L171.399635,61.9719549 Z M70.4298437,65.1249403 C70.7761979,65.1379864 71.1216562,65.1528277 71.4654062,65.1697876 C71.6372812,65.3328641 71.8115937,65.4987167 71.9821667,65.6630978 L71.9821667,66.6170925 C71.8115937,66.8649687 71.6372812,67.1147235 71.4654062,67.365209 C71.1216562,67.5609007 70.7761979,67.7525117 70.4298437,67.9482034 C69.9051042,68.0877968 68.8235937,68.3859058 67.9864062,68.6168117 L67.9864062,65.7996854 C68.9330208,65.5348493 70.0001562,65.2358532 70.4298437,65.1249612 L70.4298437,65.1249403 Z M176.304844,65.6936675 C177.216302,65.9532852 178.287344,66.2636993 178.748281,66.3928558 C179.089427,66.5950706 179.428625,66.7960643 179.773677,66.9982791 C179.942948,67.253983 180.117104,67.510501 180.286375,67.7688141 L180.286375,68.3966558 C180.117104,68.5506 179.942948,68.708218 179.773677,68.8634563 C179.428625,68.8647087 179.089427,68.8691966 178.748281,68.8756883 C178.287344,68.7439226 177.216302,68.4340825 176.304844,68.1744544 L176.304844,65.6936049 L176.304844,65.6936675 Z M56.3465104,66.8918228 C52.5431771,68.2394345 49.6452604,69.2762354 46.0254687,70.8443786 L46.0254687,82.2498155 C47.5645312,81.559676 49.1950521,80.8554466 50.7861979,80.2501068 L50.7861979,76.7480073 C52.5492187,76.0787415 54.3167187,75.4413083 56.0901562,74.8216699 C57.2750521,73.6880146 58.4576562,72.5685534 59.6465104,71.4622427 L59.6465104,67.7685218 C58.5423437,67.4684612 57.4416146,67.1763951 56.3465104,66.8919898 L56.3465104,66.8918228 Z M192.388177,68.4389879 C191.293177,68.6920825 190.198802,68.9537354 189.102448,69.22379 L189.102448,71.9838265 C189.858958,72.7065813 190.623802,73.4371638 191.37901,74.1691032 C192.683698,74.8187998 193.989115,75.4782027 195.287344,76.1566007 C195.495677,76.364034 195.702458,76.5729388 195.916,76.7803721 L195.916,77.8566245 C195.791,77.955775 195.664458,78.0606345 195.535552,78.1623942 C195.286854,78.1336927 195.029604,78.1084146 194.784823,78.0849316 C192.799094,77.2708539 190.804823,76.4869388 188.807427,75.740701 C189.282687,76.7935748 189.761292,77.8484316 190.241802,78.9064194 C192.728781,79.8587859 195.211073,80.8610408 197.675865,81.915167 C198.761802,81.7090383 199.836698,81.5133466 200.914823,81.3280917 L200.914823,77.7016888 C200.132271,76.8836973 199.33701,76.075934 198.546698,75.265718 C197.252427,74.5690553 195.954302,73.8856476 194.658781,73.2150772 C194.48951,73.0506961 194.321458,72.8819107 194.152187,72.7136158 L194.152187,72.2855362 C194.27849,72.178558 194.401135,72.0719034 194.532646,71.9675345 C194.786552,71.9910175 195.030937,72.0152311 195.287448,72.0348002 C197.112969,72.7640782 198.930156,73.5188221 200.74401,74.3015891 C200.3,73.2892104 199.864448,72.2780842 199.425677,71.2684192 C197.093594,70.2795235 194.747656,69.3366546 192.388281,68.4390818 L192.388177,68.4389879 Z M54.2006771,70.4460024 C54.3699479,70.5895097 54.5353958,70.7353862 54.7072708,70.8801981 L54.7072708,71.9177714 C54.5353958,72.1852167 54.3699479,72.4499694 54.2006771,72.7148056 C53.8634375,72.9365896 53.5273333,73.1638425 53.1874896,73.3895299 C52.3906146,73.6804583 51.5917604,73.9823141 50.7948854,74.2823748 L50.7948854,71.4143165 C51.5917604,71.1025143 52.3906146,70.8040818 53.1874896,70.5092396 C53.5260312,70.4857566 53.8634375,70.466918 54.2006771,70.4460442 L54.2006771,70.4460024 Z M122.224635,76.7652282 C119.794948,79.3718422 118.204427,83.7586772 118.204427,88.7373883 C118.204427,89.5840813 118.25224,90.4104223 118.34074,91.2140631 C117.105115,90.0007743 115.275219,89.2734272 113.789594,89.2734272 C111.013552,89.2734272 108.027198,91.8000947 107.425635,95.3460291 C108.318865,94.8163568 109.345323,94.5163796 110.446885,94.5163796 C112.319281,94.5163796 113.99324,95.3934022 115.122198,96.7750277 L122.224698,96.7750277 L122.224698,76.765416 L122.224635,76.7652282 Z M113.254531,98.8622184 C112.171198,98.8622184 111.295365,99.5894612 111.295365,100.490896 C111.295365,101.385859 112.17125,102.115502 113.254531,102.115502 L122.208385,102.115502 L122.226719,102.115502 L122.226719,98.8621141 L122.208385,98.8621141 L113.254531,98.8621141 L113.254531,98.8622184 Z M115.75901,104.204968 C115.00901,105.542143 113.816823,106.573934 112.385781,107.071044 C113.447031,107.72335 114.601406,108.102501 115.773281,108.102501 C116.856615,108.102501 117.842552,107.781974 118.69276,107.215772 C119.463594,109.651534 120.695469,111.723049 122.226719,113.212915 L122.226719,104.204937 L115.75901,104.204937 L115.75901,104.204968 Z M101.104844,130.723027 C98.7233854,131.599726 93.6247396,135.007893 102.82401,147.107905 L108.176823,145.479124 C108.501042,143.35125 109.906198,141.952602 109.906198,141.952602 C110.108021,142.619258 111.686406,144.286604 111.686406,144.286604 C114.12651,142.004891 118.247656,142.857689 118.247656,142.857689 C116.060156,143.474771 115.397344,145.00007 115.397344,145.00007 C117.33224,147.284498 122.072552,148.045556 122.072552,148.045556 C126.26651,139.369888 122.072552,131.50308 122.072552,131.50308 C122.072552,131.50308 118.269844,133.419502 116.554948,138.124036 C116.554948,138.124036 115.627375,136.672891 115.240677,134.314153 C105.546719,138.602464 101.902135,132.427476 101.10526,130.7224 L101.104844,130.723027 Z M142.987135,131.016564 L142.87524,131.055285 C141.802323,133.104882 138.038573,138.356518 128.908573,134.314727 C128.899198,134.332992 128.899198,134.346664 128.896385,134.363676 C131.280552,138.51495 137.007948,139.455732 137.007948,139.455732 C142.780031,136.275089 142.987323,131.016564 142.987323,131.016564 L142.987135,131.016564 Z M74.9902604,136.972899 C64.0235937,136.815062 56.6798437,142.484518 58.3069271,150.253846 C58.4384375,150.881364 58.6296042,151.510865 58.8704896,152.129251 C58.9043437,152.110987 58.941125,152.097106 58.9762812,152.076232 L58.8379375,152.40035 C58.8379375,152.40035 72.9473125,142.840886 96.8327292,162.54574 C96.8327292,162.54574 92.1185625,151.630837 78.7171042,145.690158 C80.5516875,142.680367 83.1973125,140.480478 85.8236667,138.898036 C83.0918958,137.967848 80.1895,137.330415 77.2299167,137.083791 C76.4681979,137.020335 75.7210625,136.984223 74.9899167,136.973713 L74.9902604,136.972899 Z M169.417344,136.972899 C168.686313,136.983441 167.93901,137.019552 167.177344,137.082977 C164.216406,137.329549 161.315365,137.967013 158.583594,138.897222 C161.208594,140.479664 163.856094,142.679657 165.688073,145.689344 C152.287031,151.630545 147.576615,162.544926 147.576615,162.544926 C171.456823,142.840072 185.571406,152.399535 185.571406,152.399535 L185.431021,152.075418 C185.462271,152.096292 185.504146,152.110173 185.532792,152.128437 C185.774979,151.510051 185.969646,150.880602 186.102458,150.253032 C187.72725,142.484017 180.382979,136.814488 169.417042,136.972085 L169.417344,136.972899 Z" fill="#FFFFFF" transform="translate(123.470146, 109.422444) scale(-1, 1) rotate(-180.000000) translate(-123.470146, -109.422444) "></path>
                        <path d="M124.139323,16.1966759 C119.333073,16.1623688 114.528698,16.263782 109.728906,16.5044808 C109.728906,16.5018715 111.663698,18.5003278 111.663698,23.0703303 L111.663698,45.6035827 C111.663698,50.2989322 109.728906,52.3503036 109.728906,52.3529128 C113.652031,52.1441749 117.58026,52.0235766 121.509115,51.9961798 C121.509115,51.9961798 119.509219,49.7244856 119.509219,45.3670827 L119.509219,37.649522 C119.509219,37.6429468 122.396719,37.5920356 123.696198,44.31734 C124.249583,47.2005317 125.089844,49.7659201 126.359323,52.0124613 C129.264323,52.0515997 132.162448,52.13713 135.060885,52.2754189 C133.183281,49.6048266 131.806927,45.4902902 131.071198,41.9404941 C130.210521,37.8231397 128.40599,36.5772878 128.40599,36.5772878 C128.40599,36.5682077 132.026719,35.6417978 132.025365,31.6992927 L132.025365,23.6391931 C132.025365,21.0325791 132.757781,20.3960329 132.757781,20.3960329 C132.757781,20.3947283 130.697156,19.0263995 128.947156,16.2762781 C127.344969,16.2348561 125.74174,16.2082139 124.139656,16.1967782 L124.139323,16.1966759 Z M135.858073,16.5819434 C135.858073,16.5806388 137.796927,18.9329579 137.796927,23.3516254 L137.796927,45.7992953 C137.796927,50.2323657 135.858073,52.315674 135.858073,52.3182832 C138.921823,52.5152795 141.98599,52.7701694 145.045885,53.0806669 L145.045885,53.0765965 C147.445573,53.3244728 149.83776,53.6097757 152.22974,53.9307101 C152.723229,50.9457587 153.212563,47.9642514 153.70474,44.9819092 C153.70474,44.9845184 152.256198,47.2929504 148.707969,46.8715087 C148.006146,46.7840997 146.317135,46.5983543 145.67651,46.5331237 L145.67651,23.984216 C145.67651,19.9294829 147.666302,17.5108373 147.666302,17.5120897 C143.728802,17.1113965 139.791302,16.8028507 135.853802,16.5823713 L135.858073,16.5819434 Z M103.825781,16.8836322 C99.0561979,17.2293543 94.2992188,17.710516 89.5559896,18.3289332 C87.8124479,21.259091 85.7718229,22.8360011 85.7718229,22.8360011 C85.7718229,22.8360011 86.498875,23.4006579 86.5001771,26.0098604 L86.5001771,47.2447633 C86.5001771,49.855239 85.7718229,50.6183846 85.7718229,50.6183846 C85.7718229,50.6183846 87.8125521,51.6184478 89.5559896,54.110256 C94.2995313,53.52579 99.0565104,53.0746448 103.825781,52.7628531 C105.574427,49.9409259 107.632344,48.5528191 107.632344,48.5555327 C107.632344,48.5555327 106.897885,47.9254888 106.897885,45.3123725 L106.897885,23.9407463 C106.897885,21.3302706 107.632344,20.618057 107.632344,20.618057 C107.632344,20.618057 105.575781,19.4575788 103.825781,16.8836322 Z M154.246615,18.2759138 C154.246615,18.2733045 156.175365,20.8823191 156.175365,25.1862851 L156.175365,47.8990521 C156.175365,52.1807876 154.246615,54.2912317 154.246615,54.297807 C157.49401,54.7100643 160.736094,55.1921965 163.961406,55.7349672 C166.559115,56.1785351 169.153385,56.6620555 171.739323,57.1903919 C172.245833,54.2497973 172.752427,51.3052366 173.255052,48.3658944 C173.255052,48.3711128 171.203385,50.4492026 167.682552,49.7968968 C166.648698,49.6064235 164.965365,49.3075004 163.961406,49.1405101 L163.961406,40.4363499 C166.342865,40.8381703 168.717031,41.2755388 171.084219,41.7491024 L171.084219,34.9101194 C168.717031,34.4378499 166.342969,34.0017861 163.961406,33.5973669 L163.961406,26.4260732 C164.965313,26.5917589 166.648698,26.8893774 167.682552,27.0824599 C171.203385,27.7360703 173.255052,30.711472 173.255052,30.7088628 C172.752448,27.5243579 172.245854,24.3374526 171.739323,21.1607754 C170.20026,20.8528871 168.657135,20.5628562 167.112865,20.2862786 C162.839427,19.5048162 158.547448,18.8347155 154.246198,18.2763417 L154.246615,18.2759138 Z M78.7664063,19.9473822 C76.0411979,20.4287839 73.3230729,20.9507956 70.6121354,21.5169866 C69.918125,29.9891346 69.2215104,38.4623264 68.5288021,46.9381274 C67.5978125,38.8168677 66.6684896,30.7004089 65.7374479,22.5888555 C62.3559896,23.3677087 58.9882813,24.2192026 55.6341146,25.139006 C54.7382813,33.7090521 53.8438021,42.2816031 52.9505729,50.861773 C52.2982292,42.7222487 51.6436979,34.5885691 50.9913021,26.4571856 C48.0238021,27.3312754 45.0689063,28.2615157 42.1249479,29.2478021 C42.1249479,29.2465497 44.1485938,30.4369817 44.5561979,35.102273 C45.3452604,42.3246031 46.1367188,50.0364235 46.9283854,57.263972 C47.328125,61.9123555 45.6201563,64.3192075 45.6201563,64.3231735 C46.6188542,63.9970206 47.6218229,63.6750215 48.6230729,63.3671332 C48.6126563,63.3149487 57.4736979,60.717206 57.4853646,60.768138 C58.4515104,51.4623953 59.4164063,41.7698613 60.3824479,32.4841575 C61.3525,41.281206 62.3190104,50.4564876 63.2877604,59.2610507 C66.3775521,58.493939 69.4768229,57.7915361 72.5874479,57.1430919 C72.5874479,57.1391259 75.1021354,56.6308701 75.1021354,56.6334793 C75.1021354,56.6308701 73.3488021,55.1223215 73.7654688,50.24704 C73.7628646,50.2482924 73.7585938,50.2505885 73.7573438,50.2531978 C74.589375,42.6055643 75.4251563,34.6844842 76.2597396,27.0519842 L76.2678646,27.0519842 C76.6858333,22.1819211 78.7661979,19.9446686 78.7661979,19.9459211 L78.7664063,19.9473822 Z M178.833073,22.711489 C178.833073,22.711489 180.434635,24.9502026 179.679427,29.5607002 C179.679427,29.5607002 179.679021,29.5647706 179.685677,29.5647706 C178.575052,37.410705 177.464427,45.5645278 176.351094,53.4245521 C175.740417,56.6664599 174.269844,57.713489 174.269844,57.713489 C177.159219,58.3397026 180.03599,59.0186225 182.908385,59.7478482 C183.151875,57.434824 183.395604,54.7925157 183.646906,52.4807439 C185.273156,52.8930011 186.898781,53.3236065 188.52774,53.771057 C188.780344,56.217256 189.034,59.0107948 189.286604,61.4621079 C192.369937,62.3322839 195.439521,63.2606978 198.496812,64.2548118 C198.496812,64.2508458 196.756396,61.9064065 196.100146,58.3004599 C194.755146,47.6976201 193.403062,36.7367948 192.0515,26.1600473 C187.667333,24.8893555 183.25775,23.7390011 178.833792,22.7109672 L178.833073,22.711489 Z M122.534115,22.9071808 C123.655156,22.90979 124.568594,23.9830157 124.568594,25.3085011 L124.568594,29.6810376 C124.568594,31.0000521 123.655177,32.0578312 122.534115,32.0578312 C121.526302,32.0538652 120.521302,32.0562657 119.510885,32.0680594 L119.510885,22.9214793 C120.521302,22.9097378 121.526302,22.9046008 122.534115,22.90721 L122.534115,22.9071808 Z M97.3164062,24.1262099 C98.4349479,24.0166225 99.3407812,25.0015208 99.3407812,26.3256808 L99.3407812,44.1320643 C99.3407812,45.4535837 98.4349375,46.5933968 97.3164062,46.6964089 C96.9114583,46.7342427 96.5034167,46.7706883 96.0997396,46.808522 C94.9786979,46.9181094 94.0713021,45.9489499 94.0713021,44.6274201 L94.0713021,26.8606968 C94.0713021,25.5378206 94.9786146,24.3702453 96.0997396,24.2514735 C96.5033854,24.2097259 96.9114271,24.1662656 97.3164062,24.1271283 L97.3164062,24.1262099 Z M199.029948,28.2988798 C199.029948,28.2988798 200.897448,30.7661613 200.893594,35.5619138 L200.893594,58.5147293 C200.89776,63.3078725 199.029948,64.5431832 199.029948,64.5444356 C202.583281,65.7225521 206.116406,66.9838507 209.621615,68.323739 C209.626823,68.3211298 207.77224,65.7649259 207.77224,60.9730351 L207.77224,48.7075982 C209.019635,53.0610351 210.264635,58.0382851 211.505573,62.424807 C213.587656,69.4788944 217.688385,71.6157439 220.07901,72.6660084 L220.07901,36.141057 C217.215677,34.9277681 214.34276,33.7693774 211.45474,32.6695376 C211.456823,32.6669283 213.297969,35.2385788 213.297969,40.0303652 L213.297969,51.7165545 C213.267969,51.5182536 213.241198,51.3175939 213.212552,51.1192929 C211.255469,44.4318536 209.295469,37.7705065 207.326719,31.1347298 C204.575469,30.1406157 201.809948,29.1941982 199.030052,28.2992346 L199.029948,28.2988798 Z M186.167448,29.7441808 C186.735167,35.3957584 187.308698,41.0452487 187.876406,46.6978701 C186.701927,46.3808495 185.526198,46.0710094 184.34651,45.7683395 C184.955885,40.4246502 185.560677,35.0820045 186.167344,29.7435337 L186.167448,29.7441808 Z M40.4799479,29.8114465 C38.9839062,30.330682 37.4930729,30.8650509 36.0060937,31.411631 C31.9514062,32.8884514 27.9242187,34.475381 23.9331771,36.1713761 C23.9319271,36.1701237 25.7560937,37.4505218 25.7560937,42.0584101 L25.7560937,65.2157888 C25.7560937,69.8001941 23.9319271,72.6535363 23.9331771,72.6561456 C26.7990104,71.3998567 29.6861979,70.2046237 32.5858854,69.0643931 C35.2044271,68.0376638 37.8378646,67.0595703 40.4797396,66.1228592 C40.9745312,62.9056868 41.4673646,59.6879927 41.9608854,56.4708203 C41.9608854,56.4760388 39.9508854,59.6819393 36.5510937,60.9513786 C35.5510937,61.3231929 34.1950521,61.8400592 33.2328646,62.213199 L33.2328646,53.5436893 C35.0622396,52.8496359 36.8997396,52.181466 38.7382812,51.5317694 L38.7382812,44.2973325 C36.8997396,44.9470291 35.0623437,45.6165558 33.2328646,46.3092524 L33.2328646,39.1338883 C34.1951042,38.7659878 35.5510937,38.2640359 36.5510937,37.902648 C39.9508854,36.6750606 41.9608854,38.5446004 41.9608854,38.5406866 C41.4673958,35.6287934 40.9745521,32.7200312 40.4797396,29.8119997 L40.4799479,29.8114465 Z M21.2861979,37.3129635 C18.4398437,38.5627815 15.6115104,39.8633228 12.8002604,41.2227281 C12.7976562,41.2227281 14.5941146,42.2249099 14.5967187,47.0180218 L14.5967187,58.7021237 C14.569375,58.5286104 14.5412187,58.3523208 14.5112708,58.1761982 C12.6039792,53.15814 10.7023125,48.166174 8.8116875,43.1982128 C6.1645,44.5351788 3.5373125,45.9222419 0.9279375,47.3583584 C0.9279375,47.3583584 2.68366667,48.258624 2.68366667,53.051788 L2.68366667,76.5556715 C2.68366667,81.3462055 0.926583333,84.1865016 0.9279375,84.1917201 C4.26252083,82.3130793 7.62866667,80.5155332 11.0231458,78.8000211 C11.0231458,78.8000211 9.2429375,77.8482286 9.2429375,73.0576424 L9.2429375,60.3903851 C10.4396042,63.687191 11.6436667,67.9621424 12.8480417,71.2614531 C14.870125,76.5007735 18.9017917,75.0425308 21.2872083,73.9767152 L21.2872083,37.3129531 L21.2861979,37.3129635 Z M227.359115,39.388131 C225.734115,41.3346116 223.812969,41.7629417 223.812969,41.7629417 C223.812969,41.7629417 224.490458,42.7378936 224.490458,45.344466 C224.513896,48.5968106 224.529208,52.447398 224.547437,55.699847 C224.545354,58.1577354 226.129208,60.8516019 228.073271,61.7622208 C230.100562,62.7041504 232.113167,63.6738422 234.115771,64.6731747 C234.817594,65.0241152 235.385354,66.0362329 235.385354,66.9338058 L235.385354,71.7567985 C235.385354,72.6569805 234.815042,73.0787354 234.115771,72.7107931 C233.719937,72.4994461 233.328823,72.2902177 232.931708,72.0788706 C232.227281,71.7148839 231.654,70.7028706 231.654,69.803941 L231.654,67.0866958 C229.284208,65.9346715 226.894208,64.8201157 224.490458,63.7477249 L224.490458,67.2885453 C224.490458,69.8977686 223.812969,70.2442735 223.812969,70.2442735 C223.812969,70.2442735 225.734115,72.4265235 227.359115,75.9254919 C231.511406,77.9462832 235.629219,80.0842808 239.694531,82.3425113 C241.29349,80.5212735 243.153177,80.3060647 243.153177,80.3060647 C243.153177,80.3060647 242.491969,79.263513 242.491969,76.6490817 L242.491969,73.3712711 L242.491969,65.5354604 C242.491969,63.0788245 240.956448,60.2452079 239.047594,59.2407613 C237.067177,58.2009859 235.083323,57.1869895 233.088531,56.1993463 C232.386708,55.8536242 231.81499,54.9192613 231.81499,54.0242978 L231.81499,49.7578002 C231.81499,48.8602274 232.38676,48.4119628 233.088531,48.7589582 C233.398427,48.9115978 233.701573,49.0655419 234.010167,49.2155723 C234.71199,49.5665128 235.277667,50.5752907 235.277667,51.4742203 L235.277667,53.4576475 C237.698292,54.6800164 240.106625,55.9478902 242.492042,57.2512495 L242.492042,54.275065 C242.492042,51.6670941 243.15325,51.3621281 243.15325,51.3621281 C243.15325,51.3621281 241.293562,49.0556791 239.694604,45.5097446 C235.6295,43.3493077 231.511687,41.3086863 227.359187,39.388298 L227.359115,39.388131 Z M110.525781,84.0841261 C104.284844,86.9516626 98.2726562,92.6580339 89.6559896,102.348689 C77.0622396,116.507379 60.2955729,115.572233 60.2955729,115.572233 C60.2955729,115.572233 65.7235938,121.865262 87.6632812,128.331335 C87.6632812,128.331335 81.2594271,124.146454 76.7361979,118.718017 C82.6684896,116.428371 91.2601562,111.836764 98.1539063,100.84275 C101.623906,95.3007596 105.99974,87.3342791 110.525781,84.0842305 L110.525781,84.0841261 Z M155.620573,102.891408 C159.03599,111.758905 165.460573,116.924854 169.134115,119.284636 C164.80474,123.507612 157.358073,128.329248 157.358073,128.329248 C174.254948,123.392597 184.101823,115.986578 184.101823,115.986578 C165.095573,114.223995 155.620573,102.891408 155.620573,102.891408 Z M101.929948,124.864199 L107.374323,129.130697 L94.3618229,130.204966 C103.18349,132.155413 112.643073,133.215801 122.482656,133.215801 C132.239115,133.215801 141.623281,132.175618 150.383698,130.253915 L136.762865,129.130697 L142.003698,125.027328 C135.726406,125.956211 129.197448,126.448102 122.482865,126.448102 C115.402135,126.448102 108.521406,125.897483 101.930781,124.864199 L101.929948,124.864199 Z M111.591823,156.356481 C111.591823,156.356481 103.42026,159.398939 94.0543229,157.777255 C94.0543229,157.777255 94.1413229,157.880998 94.2598021,158.087105 C97.7103229,164.113159 106.244177,163.752668 110.666052,162.547207 C116.369177,160.984282 122.067094,162.547207 122.067094,162.547207 C122.067094,162.547207 127.76751,160.984282 133.474385,162.547207 C137.892302,163.752668 146.426469,164.113054 149.876469,158.087105 C149.99626,157.880977 150.088062,157.777255 150.088062,157.777255 C140.718271,159.398939 132.548479,156.356481 132.548479,156.356481 C132.548479,156.356481 126.863583,159.781034 122.067229,159.781034 C117.271604,159.781034 111.591187,156.356481 111.591187,156.356481 L111.591823,156.356481 Z M107.642865,167.514563 C102.340781,173.215716 102.054635,181.594976 102.214844,185.190485 C102.261719,185.504897 102.300375,185.813349 102.351156,186.134283 C102.351156,186.134283 104.296573,181.692863 108.879906,177.623727 C108.879906,177.623727 105.980115,187.620184 110.93074,198.430718 C111.046625,198.704686 111.172844,198.978811 111.303052,199.25017 C111.715813,192.879699 114.67826,188.884665 114.67826,188.884665 C113.643104,200.394471 119.424927,206.111801 122.19576,209.377505 C124.974406,206.11201 130.755135,200.394158 129.717323,188.884665 C129.717323,188.884665 132.352427,192.439471 132.996906,198.190199 C136.457844,185.958161 133.84375,179.153306 132,176.20384 C131.417969,175.541098 130.8525,175.022697 130.592083,174.658658 C128.058229,173.412702 125.28,172.881151 122.220104,172.881151 C119.145938,172.881151 116.744375,173.080506 113.809479,174.652605 C113.355052,175.289255 112.97924,177.185013 112.194063,178.766202 C108.648438,174.241809 107.428021,170.418775 107.642917,167.516275 L107.642865,167.514563 Z" fill="#005CA6" transform="translate(122.040593, 112.783842) scale(-1, 1) rotate(-180.000000) translate(-122.040593, -112.783842) "></path>
                    </g>
                </g>
            </g>
        </g>
    </g>
</svg>