<?xml version="1.0" encoding="UTF-8" standalone="no"?>
<svg width="250px" height="250px" viewBox="0 0 250 250" version="1.1" xmlns="http://www.w3.org/2000/svg" xmlns:xlink="http://www.w3.org/1999/xlink">
    <!-- Generator: Sketch 47.1 (45422) - http://www.bohemiancoding.com/sketch -->
    <title>OAK</title>
    <desc>Created with Sketch.</desc>
    <defs></defs>
    <g id="Page-1" stroke="none" stroke-width="1" fill="none" fill-rule="evenodd">
        <g id="OAK" fill-rule="nonzero">
            <g id="Group" transform="translate(0.000000, 28.000000)">
                <path d="M10.0924548,119.756886 C7.76356615,120.955626 5.98442816,122.580115 5.98442816,122.580115 C6.6187558,110.634988 11.6963975,60.4479427 52.5199118,45.4440663 C55.9785078,44.169839 58.7997555,42.7476563 61.1074998,41.1594013 C73.3862705,32.7138706 75.515799,27.3542649 79.1646932,16.0311544 C83.8073674,1.61607974 97.0678356,1.50435839 103.438297,1.45302695 C104.377706,1.44698796 105.265765,1.44094897 105.966546,1.39867602 C108.884453,1.22958424 112.370235,1.26883769 116.408787,1.31413013 C121.818696,1.37452005 127.95053,1.44396846 134.345156,1.03029749 C141.534203,0.565295083 151.505229,2.46455816 158.177752,14.1439693 C158.238164,14.2556906 158.413359,14.5576402 158.413359,14.5576402 C159.618582,16.6773265 162.128707,21.0918299 171.746322,30.8266855 C174.543405,33.6650119 180.73263,36.9955161 187.281308,40.5222876 C202.381326,48.6598297 223.063428,59.8017705 229.33421,79.1688188 C234.426954,94.8973743 234.874004,119.421722 234.898169,126.484323 C240.353387,133.389911 259.250309,159.928263 243.860313,179.1232 C225.769893,201.678836 199.762459,194.670586 185.6532,190.132283 C166.886164,195.630785 149.846916,194.507533 131.188621,186.49077 C107.97525,197.237157 84.7890649,190.754299 75.3043564,187.176196 C69.3960476,191.134756 56.9843702,196.880857 38.2354576,192.940414 C12.116262,187.45097 3.71595171,167.845382 3.37160242,167.01502 L0.118407826,159.161311 L7.71825704,159.161311 C4.70671107,145.072342 11.2553888,135.55489 15.4328893,131.131328 C14.8468914,128.779141 14.3696354,122.49255 14.0162243,118.204865 C14.0162243,118.204865 12.4213434,118.558146 10.0924548,119.756886" id="Shape" fill="#B59A57" transform="translate(124.944971, 97.906290) scale(-1, 1) rotate(-180.000000) translate(-124.944971, -97.906290) "></path>
                <path d="M22.836399,132.873463 C22.836399,132.873463 7.14132095,144.353587 16.8978841,165.834283 C12.2310451,165.094506 9.68467271,165.094506 9.68467271,165.094506 C9.68467271,165.094506 16.8978841,182.501901 39.8091942,187.314978 C62.7174838,192.131075 74.1746491,180.279552 74.1746491,180.279552 C74.1746491,180.279552 103.447359,194.721802 131.022488,179.908154 C148.415148,188.057774 164.965058,190.648502 185.75288,183.984474 C202.722655,189.540347 223.513498,194.353424 238.362806,175.834854 C253.212114,157.316284 228.177317,128.428764 228.177317,128.428764 C228.177317,128.428764 228.551872,98.3696802 222.87615,80.8354661 C214.599685,55.2814701 177.264973,45.4681077 166.659619,34.7247404 C156.057285,23.9843926 153.507892,19.1713157 152.236216,16.945947 C150.96454,14.7266174 146.297701,6.20861874 134.840536,6.94839529 C123.386391,7.68817185 112.781037,6.94839529 106.416617,7.31677382 C100.049175,7.68817185 89.4468421,5.83722071 85.6257733,17.6917626 C81.807725,29.5402655 79.2643733,36.207313 65.2638561,45.8364862 C51.263339,55.4656594 26.2315622,52.1321357 13.0798359,112.500922 C15.8799393,109.436134 20.7008293,107.690865 20.7068706,107.687845 C19.0183508,122.501493 22.836399,132.873463 22.836399,132.873463" id="Shape" fill="#000000" transform="translate(126.376941, 97.942467) scale(-1, 1) rotate(-180.000000) translate(-126.376941, -97.942467) "></path>
                <path d="M229.352333,170.341237 C234.321233,163.897632 235.272725,156.321716 233.871163,148.211349 C231.965159,144.210517 229.415766,139.989261 225.347007,137.211325 C223.181232,145.101268 217.834756,151.768316 212.23757,158.323642 C215.291404,160.322548 219.109452,162.321455 223.181232,160.766414 C223.054366,163.876495 220.381128,166.989596 216.816811,168.209472 C210.709142,170.211398 204.344721,168.10077 199.381863,165.543257 C209.30758,155.989571 218.088487,143.543208 214.273459,129.21268 C211.216604,122.213488 210.071794,114.211823 202.435697,108.991114 C202.055101,114.432246 202.181966,120.09984 200.019211,124.988404 C195.180197,112.877205 181.436432,105.102003 166.66868,104.434694 C165.52387,104.655117 164.632791,105.213724 163.361115,104.987262 C162.977498,102.767932 161.89612,97.6559253 155.08767,96.7681935 C157.760908,95.5452975 162.744911,92.5650548 161.89612,87.7489585 L161.20138,80.9883066 L167.689646,86.1033331 C170.012493,74.1853818 162.467015,50.4340251 162.467015,50.4340251 C162.467015,50.4340251 171.918497,56.1287948 177.618384,60.4345963 C173.797315,51.7656229 162.959374,41.822422 152.773885,37.7491217 C152.773885,37.7491217 150.475202,31.8520458 149.617349,28.5456975 C142.742446,22.7694013 117.562659,24.7864248 104.051481,24.7683078 C105.069426,22.3225159 107.612777,21.3230627 109.905419,19.7680222 C113.980219,18.5481457 118.432595,19.7680222 122.63426,19.7680222 L139.812457,19.2124349 C138.670667,17.8808371 136.381046,16.6579411 134.342136,15.9906325 L100.740895,15.7702093 C97.3064636,16.1023539 94.7570706,17.7691157 94.2496085,20.7674754 C92.3405844,30.4359021 80.4393897,42.0458648 72.1689656,47.378295 C59.3132588,55.156517 28.4698326,64.0459137 25.2679883,100.766006 C25.2679883,100.766006 30.6114435,94.3224016 35.06684,93.7668143 C26.3463453,109.323258 35.06684,135.432842 35.06684,135.432842 C29.5934987,136.87918 24.376909,142.987621 23.7395608,148.434792 C22.5947504,161.21028 32.1398711,171.542996 44.4850951,176.766724 C52.441376,179.414823 61.6663122,177.654456 67.6501363,172.765892 C68.6680811,171.766439 68.4143501,170.766986 68.2874845,169.54409 C71.718895,168.768079 74.522019,170.543543 77.1952569,172.210305 C89.4136155,175.767271 104.815695,177.766178 118.048977,174.544375 C126.962791,173.877067 121.743181,165.7667 124.543284,161.21028 C125.81496,161.877589 126.835925,163.764774 127.847829,164.767247 C141.978232,176.655003 165.143273,180.097229 183.472322,174.100509 C188.178429,172.877613 191.16883,171.452411 196.325008,168.209472 C195.201342,171.081013 192.380094,174.100509 192.380094,174.100509 C203.073046,179.097775 220.955044,180.562231 229.352333,170.341237" id="Shape" fill="#B59A57" transform="translate(129.052721, 96.883557) scale(-1, 1) rotate(-180.000000) translate(-129.052721, -96.883557) "></path>
                <path d="M159.546087,147.454701 L165.403046,152.177193 L143.126063,169.675173 L122.764146,178.008982 L120.537958,174.678478 C120.537958,174.678478 87.1270153,162.455558 82.9887827,155.232923 C78.8535706,148.010288 85.3478774,149.565329 85.3478774,149.565329 C85.3478774,149.565329 81.7171068,148.233731 80.1252465,143.121724 L77.2647309,135.509574 L71.5346379,123.567467 L83.6261309,86.6239313 C83.6261309,86.6239313 88.9695861,73.123764 90.6671677,68.2744532 C92.4251614,65.4874583 93.730064,62.6763074 94.2556497,60.0100923 C94.7631119,57.0117326 97.3094842,55.3449707 100.743915,55.0128261 L134.345156,55.2332494 C136.384067,55.900558 138.673687,57.1234539 139.818498,58.4550517 L122.637281,59.010639 C118.438636,59.010639 113.983239,57.7907626 109.908439,59.010639 C107.618819,60.5686991 105.075467,61.5681523 104.054501,64.0109247 C117.568701,64.0290416 142.745467,62.0120182 149.62037,67.7883143 C150.478223,71.0946626 152.779926,76.9917386 152.779926,76.9917386 C160.841928,82.9190095 162.473056,89.6766419 162.473056,89.6766419 C162.473056,89.6766419 170.018534,113.427999 167.692666,125.34595 L161.204401,120.230923 L161.899141,126.991575 C162.750952,131.807672 157.763929,134.787914 155.090691,136.01081 C161.899141,136.898542 162.983539,142.010549 163.367156,144.232898 C163.367156,144.232898 163.255394,146.829665 159.546087,147.454701" id="Shape" fill="#FFFFFF" transform="translate(119.836233, 116.510904) scale(-1, 1) rotate(-180.000000) translate(-119.836233, -116.510904) "></path>
                <path d="M51.9798272,25.0419113 C44.7786982,24.8655727 37.5437384,29.2716215 35.5694691,33.5617216 C41.3013745,32.7838994 44.2277393,32.8950168 46.0111062,34.6704806 C41.6855958,41.0065913 38.3725932,48.0045756 39.0105455,55.6740958 C46.1367635,63.2276674 53.5191289,69.5589469 62.5567874,75.4481722 C60.3916158,71.5590611 58.7387392,66.2254231 61.0295681,62.1140772 C67.5009183,74.0761131 81.7751025,74.67035 81.7751025,74.67035 C79.2257095,77.2236359 75.4149107,78.5618766 71.9786673,77.5618195 C75.9223728,80.6706927 79.1048852,84.228867 85.3442526,83.4486292 C83.6865431,82.3374546 84.0900963,80.5209257 85.107437,78.5183959 C87.4006824,74.3563224 104.833214,65.2809247 114.738391,63.6721372 C118.409034,62.9691985 120.975342,61.0029026 121.743785,58.1138487 C122.633052,59.2250233 122.889199,60.6695502 124.542076,61.336255 C135.868147,64.003074 147.450365,66.669893 155.724414,75.4481722 C159.158241,78.4483435 160.944025,82.5017152 159.542462,85.5574453 C159.542462,85.5574453 167.942169,84.1684771 174.560924,77.001401 C168.896681,77.5014296 166.037977,74.67035 166.037977,74.67035 C176.092977,74.5568169 185.232128,66.5805159 188.946267,60.227496 C190.599144,63.5610197 189.963608,68.0033025 188.692536,71.2257088 C193.907313,68.4477723 196.937587,62.8001067 199.868785,58.2467065 C202.094369,54.3575955 203.474182,49.9104815 200.018607,45.0019886 C195.941995,39.0040615 185.229711,29.5445839 174.051046,28.2304992 C181.04919,33.3394867 186.273633,39.7842993 187.416631,47.6736388 C187.416631,47.6736388 174.792907,43.4270194 168.048494,43.4270194 C158.249642,46.9851937 152.266422,55.0967681 142.721302,58.9858792 C136.991813,58.9858792 132.794376,56.0944097 128.087061,54.0942954 C125.15828,51.316359 125.15828,47.3161305 121.978184,44.7628445 C120.175485,48.8935152 117.456938,52.6690932 113.892621,55.8914995 C111.217571,57.6693789 108.416863,58.0051468 105.11111,57.7829119 C91.6802795,55.8359408 79.3755316,42.6902624 69.6177602,39.7287405 C63.5112995,40.3954453 57.7431468,46.0237861 52.1223999,56.5630355 L49.9548117,53.8962165 C43.5946199,44.0067627 55.3024957,35.8927726 61.2832992,28.561436 C58.5188389,26.1482547 55.254166,25.121626 51.9798272,25.0419113 L51.9798272,25.0419113 Z M124.370505,68.2907585 C122.96411,68.2569401 121.569798,68.2762649 120.214149,68.3390704 C109.364126,68.8366834 96.6703236,72.5591183 93.6134685,81.8929848 C94.3770782,85.4463278 97.562007,87.5551439 101.121491,89.4465563 C106.469175,91.9998423 116.139953,89.8910262 117.541515,96.7827242 C117.157294,98.7804228 114.740808,99.4495432 112.959857,100.00513 C105.833639,100.560718 99.152055,101.396514 92.5381322,103.063276 C84.3873241,108.283381 91.1921493,118.781565 92.7217851,125.33508 C92.7217851,125.33508 87.5988343,121.528099 85.4674934,117.334623 C86.9947127,128.001899 89.411199,143.44481 92.7217851,153.781149 C92.7217851,153.781149 94.2514209,146.783165 97.6852478,145.44734 C99.848003,150.783393 97.9438119,156.665372 102.269322,161.226019 C112.706126,165.554768 125.815564,161.77919 137.651514,163.334835 C150.50722,161.668073 146.686756,149.000683 149.617954,141.778048 C152.036856,143.336108 151.398904,146.333864 153.179854,147.891924 C156.108636,140.338352 157.631022,127.779664 159.032584,119.670505 C159.032584,119.670505 155.4731,123.895384 152.288171,124.779492 C152.288171,124.779492 156.488024,110.836667 152.669976,105.005416 C148.088318,98.671721 139.178733,101.889296 131.796368,100.227365 C128.99566,99.6717781 128.360124,97.3383115 127.850246,95.2246642 C132.688051,89.6736224 138.137227,90.6543548 145.780573,88.7991763 C152.870544,86.8642832 151.113759,82.1272977 150.504804,79.6706356 C144.93722,71.3078391 134.229769,68.5226558 124.370505,68.2907585 L124.370505,68.2907585 Z M52.1175669,78.6705785 C51.3563737,82.7795088 53.7148643,90.5601465 56.0685219,94.6739081 C49.4497661,92.0046735 43.9715918,86.2265656 41.4270318,80.7793946 C39.6484979,90.6688484 44.8028631,99.8650258 49.3192758,107.667404 C46.7747158,108.558759 43.3408889,107.338883 41.1781337,106.672178 C45.7573751,127.784495 68.6656646,133.060159 83.6212979,146.391838 C80.1198094,135.838095 78.7206639,122.895327 76.3017611,113.33681 C73.4382249,103.34107 81.3957141,99.1693339 89.923494,97.3334803 C86.6129079,96.4469562 83.1766645,95.8937845 80.1198094,94.6739081 C78.6360868,93.8018776 79.4842735,92.0409074 80.1198094,89.8934418 C68.9218122,89.0069177 60.268375,86.1130326 52.1175669,78.6705785 L52.1175669,78.6705785 Z" id="Shape" fill="#000000" transform="translate(118.840536, 94.213556) rotate(-360.000000) translate(-118.840536, -94.213556) "></path>
                <path d="M170.875783,53.0845759 C169.771449,53.2150181 168.696112,53.4638246 167.642524,53.8116706 C168.795188,54.4252322 169.575713,55.5146664 169.575713,56.7780236 C169.575713,58.7105011 167.782681,60.2806391 165.569179,60.2806391 C163.382259,60.2806391 161.608558,58.7515663 161.567478,56.8553227 C160.726541,57.4012476 159.904935,57.9834065 159.100246,58.5824745 C159.972597,60.9739154 162.538905,62.708314 165.569179,62.708314 C169.317149,62.708314 172.361922,60.0511574 172.361922,56.7780236 C172.361922,55.3818086 171.801297,54.096711 170.875783,53.0845759 L170.875783,53.0845759 Z M77.0460389,53.9711 C76.6449022,54.7537534 76.415336,55.6209527 76.415336,56.5292171 C76.415336,59.9859363 79.6244297,62.7856131 83.5850506,62.7856131 C85.5762353,62.7856131 87.378934,62.0705964 88.6814201,60.9256035 C87.821151,60.4690557 86.9584654,59.9907675 86.0861139,59.4907389 C85.3853329,59.9448711 84.5274803,60.2226648 83.5850506,60.2226648 C81.2483085,60.2226648 79.3561997,58.5703965 79.3561997,56.5292171 C79.3561997,56.17654 79.4238614,55.8431876 79.5301867,55.5194976 C79.5108549,55.5098352 79.4963559,55.4977572 79.477024,55.4856792 C78.6602517,54.9759883 77.8507288,54.4711285 77.0460389,53.9711 L77.0460389,53.9711 Z M111.584877,81.2987479 C111.338395,81.2890855 111.074998,81.3011635 110.797102,81.3349819 C109.269883,81.7818673 106.976637,82.3374546 106.85098,84.0066321 C109.267466,86.6734511 114.612734,87.3908833 118.302708,88.0600037 C115.796812,86.3908262 115.306265,81.4509305 111.584877,81.2987479 L111.584877,81.2987479 Z M132.183005,81.3349819 L126.576757,87.5020008 L136.75983,85.337626 C137.525856,84.7772075 139.30439,84.2264514 138.540781,82.8930419 C136.757414,81.6707498 134.343344,81.5596324 132.183005,81.3349819 L132.183005,81.3349819 Z M210.709142,92.7824957 C206.637363,99.2248927 190.848042,110.336638 190.848042,110.336638 C191.802554,106.947556 193.399851,103.338654 191.739725,98.335953 C188.305898,103.227537 183.600999,107.447585 179.142582,111.223163 C182.197021,111.556515 184.362193,109.672349 186.524948,108.780994 C185.886995,114.003515 183.470509,119.334737 181.305338,124.557258 C185.123386,123.554785 190.531482,119.723648 192.887556,117.003686 C193.713994,121.945997 190.848042,129.337724 190.848042,129.337724 C203.070629,119.337153 208.355484,107.222934 210.709142,92.7824957 L210.709142,92.7824957 Z M128.572775,124.448556 C125.798649,124.366425 125.354015,128.890838 123.904123,130.337781 C121.103416,130.224248 122.24883,126.89314 119.958001,125.562146 C118.556439,125.673263 116.777906,126.335137 115.381177,127.224077 C114.107688,129.668661 115.122613,136.002356 115.630075,138.560473 C119.448123,140.338352 125.175195,139.666816 129.375048,139.002527 C132.939366,137.449298 131.796368,130.340197 132.431903,127.448727 L130.904684,125.33508 C129.974337,124.731181 129.213144,124.46788 128.572775,124.448556 L128.572775,124.448556 Z" id="Shape" fill="#B59A57" transform="translate(143.562239, 96.391940) rotate(-360.000000) translate(-143.562239, -96.391940) "></path>
                <path d="M209.16984,15.6102131 C208.647879,15.6251898 208.353068,15.652486 208.353068,15.652486 C238.049267,23.9862954 228.716797,47.3161305 222.777074,50.0940669 C224.263213,53.0555887 225.345799,56.5630355 225.345799,56.5630355 C227.912108,54.3213615 239.535406,45.1010281 233.81075,30.8393439 C227.846862,15.9887371 212.830817,15.5000619 209.16984,15.6102131 Z M157.442536,16.761245 C157.442536,16.761245 181.459993,17.2501618 198.172411,34.9120403 C222.356606,60.4642245 202.435093,84.7796231 202.435093,84.7796231 C225.959587,63.9885804 212.869481,42.1539998 201.350091,29.5421683 C189.835534,16.9327524 157.442536,16.761245 157.442536,16.761245 Z M102.713956,17.643421 C97.0907922,17.690042 90.4116243,18.0593868 84.4719011,19.3560792 C84.4719011,19.3560792 111.198239,19.7288058 115.016287,21.951155 C118.834335,24.1722964 123.502987,36.3903856 115.016287,54.1703867 C115.016287,54.1679711 123.087351,50.2812757 124.542076,32.5604567 C125.624662,19.3563208 117.988565,17.8736274 114.593402,17.8736274 C112.897029,17.8736274 108.334703,17.5960753 102.713956,17.6422132 L102.713956,17.643421 Z M171.506486,28.1217973 C165.540181,28.0348358 159.457885,29.0952829 154.897976,32.5061057 C154.897976,32.5061057 163.807561,32.2283121 172.393336,32.7838994 C180.667385,35.5618358 187.416631,47.6736388 187.416631,47.6736388 C187.416631,47.6736388 187.670362,35.5618358 174.051046,28.2304992 C173.207692,28.1749405 172.359505,28.1338753 171.506486,28.1217973 L171.506486,28.1217973 Z M71.6717735,50.7776808 C69.134463,53.311642 68.77199,61.8000496 75.6178955,65.512822 C82.4565516,69.2207633 92.5937113,67.3486757 95.7375599,63.9692556 C94.2417549,63.5272014 92.661373,62.8870682 91.0350777,62.1140772 C89.232379,63.9475152 86.5718276,65.111833 83.5850506,65.111833 C78.1552061,65.111833 73.7523682,61.2686183 73.7523682,56.5292171 C73.7523682,55.1209241 74.1438389,53.797177 74.8325375,52.6231969 C72.4208842,51.2897874 74.124507,52.1449087 71.6717735,50.7776808 L71.6717735,50.7776808 Z M173.838395,53.0435108 C174.502929,54.1619321 174.882317,55.4325361 174.882317,56.7780236 C174.882317,61.2686183 170.709045,64.913754 165.564346,64.913754 C161.792211,64.913754 158.549287,62.9498737 157.087312,60.1284565 C155.73408,61.2009815 154.434011,62.2759222 153.179854,63.2759793 C153.179854,63.2759793 161.026185,70.7836545 172.154104,66.0321754 C178.586791,63.2783949 180.573142,59.729883 181.032275,55.52916 L177.939172,54.0290743 C176.53761,53.4759026 175.177128,53.1642906 173.838395,53.0435108 L173.838395,53.0435108 Z M123.37008,71.7353997 C111.058083,71.7498933 101.848854,78.4483435 99.7247622,82.1152197 C113.373076,69.3077248 138.480368,74.9747152 145.988391,82.0862325 C145.988391,82.0862325 146.797914,78.3637977 136.566511,74.310426 C131.922025,72.4697412 127.47569,71.7305685 123.37008,71.7353997 Z M115.441589,106.391969 C112.38715,107.172207 108.825249,111.35602 108.825249,111.35602 C106.152616,110.022611 102.39498,107.780937 98.1951264,108.780994 C95.0126141,110.003286 95.0754427,113.056601 95.7786402,115.667861 C97.3058595,120.221261 100.896758,125.975213 106.370099,127.086388 C105.73698,123.612759 105.763561,117.24283 109.074147,114.351361 C111.427805,115.795888 113.663055,117.725949 116.079541,118.612474 C120.69503,116.530229 123.01244,112.558988 123.01244,112.558988 C124.986709,114.585673 127.217126,117.36361 130.65337,118.890267 C133.10127,117.641404 133.896294,115.938408 135.807735,114.351361 C140.002755,116.79836 141.215831,122.337324 141.343905,126.339968 C146.940487,123.755279 152.189095,110.421184 145.033879,106.894413 C142.233172,106.669762 138.85734,108.358265 136.694585,110.020195 C134.055782,108.30029 133.41783,107.640832 131.035174,106.529658 C128.009734,107.22535 124.829638,109.169905 122.918197,110.558873 C122.918197,110.558873 120.537958,107.875145 115.441589,106.391969 Z M139.176317,140.669289 C139.30439,144.671933 134.879804,147.754235 133.098854,150.979057 C131.830198,150.283365 130.904684,147.780806 128.23205,147.114102 C128.23205,147.114102 124.827221,149.447568 124.032197,151.529813 C124.032197,151.529813 121.644709,148.611772 119.254804,147.362908 C116.550756,148.474083 115.125029,150.558743 113.469736,152.114387 C110.417714,149.000683 109.649271,145.00287 108.375783,141.224876 C105.831223,145.00287 102.651127,148.780863 104.304004,153.781149 C104.813882,155.778848 106.85098,157.44561 109.267466,157.44561 C110.988005,156.25472 112.807619,154.969623 112.807619,154.969623 C114.646565,155.600094 116.371936,158.513303 118.462196,158.336965 C120.054661,158.19686 121.487637,156.665372 122.379321,155.889965 C124.79339,152.442908 125.786566,157.776546 128.964246,157.776546 L133.323587,154.558971 L135.868147,157.008387 C137.52344,158.11473 140.196074,158.448082 141.592803,156.445552 C144.395927,151.556384 143.252929,144.785466 139.176317,140.669289 L139.176317,140.669289 Z" id="Shape" fill="#FFFFFF" transform="translate(152.684819, 86.972201) rotate(-360.000000) translate(-152.684819, -86.972201) "></path>
            </g>
        </g>
    </g>
</svg>