<svg width="500" height="500" viewBox="0 0 500 500" fill="none" xmlns="http://www.w3.org/2000/svg">
<g clip-path="url(#clip0_2_14)">
<path d="M500 71H0L2.97707 129.838C4.66189 163.289 26.0248 192.389 57.8565 205.442C67.4584 223.452 83.4069 237.748 102.823 245.764C112.376 263.773 128.292 278.086 147.676 286.118C147.757 286.281 147.856 286.412 147.937 286.576C146.841 294.656 133.526 393.488 133.526 393.488L142.539 397.545C178.689 413.837 214.807 428.444 259.25 428.444C288.317 428.444 323.437 425.336 363.398 402.321C393.643 384.77 418.163 357.862 432.493 326.521C440.884 308.135 445.121 289.602 445.121 271.968C445.121 260.109 443.092 248.708 439.232 237.994C441.653 231.336 500.016 71 500.016 71L500 71Z" fill="white"/>
<path d="M359.98 84.2496H13.9366L16.2103 129.167C17.7479 159.69 38.6364 185.045 67.3111 194.875C75.7189 213.67 92.0764 228.359 112.343 235.295C120.751 254.09 137.109 268.779 157.359 275.731C158.619 278.56 160.058 281.292 161.661 283.926L147.97 385.457C186.737 402.927 219.191 415.195 259.234 415.195C286.551 415.195 319.495 412.316 356.757 390.838C413.665 357.796 446.789 288.62 425.115 237.994C440.59 195.481 455.377 154.865 469.902 114.953C432.885 98.3988 410.001 84.2496 359.996 84.2496H359.98Z" fill="#231F20"/>
<path d="M359.98 108.017H38.9308C37.6713 158.464 66.6405 172.188 85.7951 174.936C89.9336 195.644 108.352 212.133 130.811 215.355C134.949 236.064 153.368 252.552 175.843 255.791C177.446 263.839 181.208 271.232 186.525 277.481L173.913 371.078C208.362 386.602 228.809 391.444 259.266 391.444C283.443 391.444 312.51 388.925 344.865 370.293C399.287 338.707 426.555 273.244 393.153 230.371C372.771 204.216 343.328 198.736 335.591 191.08C342.183 178.044 375.078 175.377 409.494 211.56L440.05 127.63C415.677 116.736 398.845 108.033 360.029 108.033L359.98 108.017ZM266.415 316.984C234.976 316.984 216.868 296.815 215.477 295.18C232.833 299.433 262.194 296.815 288.743 296.815C293.993 300.234 295.564 302.083 296.005 302.819C295.711 304.7 291.294 317.001 266.398 317.001L266.415 316.984Z" fill="#B7B9BC"/>
<path d="M48.6145 117.504C48.5 159.003 76.0788 163.943 93.7776 166.495C97.8342 186.778 108.581 202.563 132.152 205.966L138.793 206.915C142.605 225.938 152.681 242.852 177.185 246.385L183.826 247.334C188.602 271.232 200.412 281.521 217.751 285.938C232.751 289.618 258.498 287.295 288.759 287.295C296.398 287.295 305.395 295.703 305.395 304.291C305.247 305.19 301.436 326.455 266.415 326.455C231.393 326.455 210.439 303.882 208.247 301.314C208.247 301.314 200.576 292.301 194.965 285.725C193.493 296.717 185.739 354.148 184.251 365.255C213.58 377.949 231.982 381.924 259.234 381.924C282.151 381.924 309.68 379.568 340.089 362.049C369.483 344.988 391.223 316.493 396.817 287.704C399.45 274.128 399.647 254.171 385.628 236.178C366.048 211.037 338.829 207.651 328.868 197.787L323.96 192.929C328.115 184.701 335.182 175.099 348.349 173.169C365.705 170.617 386.332 178.665 405.421 194.81C411.522 178.06 424.019 143.725 428.043 132.651C408.185 123.769 392.4 117.504 359.963 117.504H48.6145V117.504Z" fill="white"/>
<path d="M356.594 162.766C374.472 162.766 389.39 169.914 400.89 179.565L416.102 137.739C400.121 130.59 379.969 127.008 359.963 127.008H58.6907C59.5086 143.333 75.1955 156.55 93.7285 156.517H274.217C270.324 159.919 266.676 163.584 263.356 167.46H103.739C104.557 183.785 120.244 197.002 138.777 196.969H245.853C244.496 200.813 243.465 204.461 242.745 207.912H148.788C149.606 224.237 165.309 237.454 183.826 237.421H244.627C246.328 241.462 248.601 245.06 251.317 248.364H193.836C194.654 264.689 210.341 277.906 228.874 277.873H294.059C308.617 286.412 319.07 295.278 313.443 310.719C306.147 330.741 282.412 336.09 266.317 336.09C240.586 336.09 215.428 324.656 201.41 308.217L194.474 359.694C213.515 368.265 235.548 372.567 259.136 372.567C284.522 372.567 308.568 369.361 335.247 353.985C359.26 340.048 376.468 319.307 384.925 296.079C393.251 273.212 389.799 257.116 378.12 242.1C368.371 229.586 354.762 222.798 340.334 215.29C329.195 209.564 310.924 202.776 317.172 185.617C323.29 168.818 342.657 162.749 356.594 162.749V162.766Z" fill="#342A7B"/>
<path d="M334.135 219.134C325.449 215.159 311.332 204.608 307.93 191.293C306.671 215.584 328.115 221.669 335.051 225.431C357.51 236.391 369.042 244.651 376.337 262.17C377.433 236.751 337.226 220.9 334.135 219.134V219.134Z" fill="#827AAE"/>
<path d="M359.947 133.535H66.9022C67.6056 135.252 68.5543 136.872 69.6666 138.393H363.3C378.824 138.393 393.807 140.618 406.615 144.707C407.057 143.496 407.466 142.384 407.825 141.386C394.085 136.283 377.351 133.518 359.963 133.518L359.947 133.535Z" fill="#827AAE"/>
<path d="M264.468 254.907H202.048C202.751 256.625 203.7 258.244 204.812 259.766H268.476L264.485 254.907H264.468Z" fill="#827AAE"/>
<path d="M286.027 154.865C273.448 164.859 266.333 173.987 266.333 173.987H111.951C112.654 175.704 113.603 177.324 114.715 178.845H268.607C279.55 165.612 293.699 154.849 293.699 154.849H286.044L286.027 154.865Z" fill="#827AAE"/>
<path d="M209.932 330.496C228.4 342.437 247.734 347.491 269.67 347.491C290.068 347.491 316.305 335.975 322.914 317.818C327.134 306.221 323.862 297.404 318.334 290.747C321.605 296.668 322.832 303.98 319.56 312.944C311.611 334.814 286.829 342.616 266.317 342.616C244.381 342.616 222.135 334.601 206.17 321.679C204.485 334.209 202.391 349.667 201.606 355.588C202.849 356.095 204.96 357.24 206.236 357.698C207.217 350.452 208.493 341.062 209.932 330.479V330.496Z" fill="#827AAE"/>
<path d="M253.361 195.317C249.583 205.099 248.045 214.439 248.045 214.439H156.983C157.703 216.157 158.635 217.776 159.747 219.297H252.02C254.31 205.377 258.416 195.301 258.416 195.301H253.361V195.317Z" fill="#827AAE"/>
<path d="M466.614 102.177C460.104 102.177 455.655 97.5973 455.655 90.8253C455.655 84.0533 460.169 79.4241 466.647 79.4241C473.125 79.4241 477.607 84.0042 477.607 90.7762C477.607 97.5482 473.092 102.177 466.614 102.177ZM466.647 80.5691C461.184 80.5691 457.045 84.2169 457.045 90.8089C457.045 97.401 461.233 101.049 466.647 101.049C472.061 101.049 476.216 97.3847 476.216 90.8089C476.216 84.2332 472.029 80.5691 466.647 80.5691ZM466.205 92.0358H464.897V96.8285H462.77V84.315H466.434C469.133 84.315 470.916 85.7381 470.916 88.159C470.916 89.942 469.935 91.1197 468.463 91.6922L472.339 96.8449H469.673L466.205 92.0521V92.0358ZM464.897 90.2201H466.304C467.825 90.2201 468.757 89.5167 468.757 88.2245C468.757 86.9322 467.923 86.1961 466.369 86.1961H464.897V90.2364V90.2201Z" fill="#231F20"/>
</g>
<defs>
<clipPath id="clip0_2_14">
<rect width="500" height="357.444" fill="white" transform="translate(0 71)"/>
</clipPath>
</defs>
</svg>
