<svg width="500" height="500" viewBox="0 0 500 500" fill="none" xmlns="http://www.w3.org/2000/svg">
<path d="M467.508 36.3339C406.425 72.4877 309.202 67.402 250.073 0C190.958 67.402 93.7346 72.4877 32.5961 36.3339C10.9094 201.915 45.9684 439.956 250.017 500C454.136 439.956 489.181 201.915 467.508 36.3339Z" fill="#2C0171"/>
<path d="M144.716 76.8662C112.632 81.1044 79.9992 77.5001 49.6135 66.3624C47.9922 84.9589 47.1191 103.583 47.1191 122.055C47.1191 186.492 56.8193 248.933 75.5682 300.953C108.673 392.952 167.415 455.906 250.074 482.027C332.746 455.906 391.501 392.952 424.593 300.953C443.314 248.933 453.042 186.492 453.042 122.055C453.042 103.583 452.169 84.9589 450.547 66.3624C420.17 77.4962 387.547 81.1004 355.472 76.8662C316.261 71.8082 279.524 54.9185 250.157 28.4487C220.76 54.9481 183.973 71.8404 144.716 76.8662V76.8662Z" fill="white"/>
<path d="M146.891 93.4255C119.466 97.0398 91.6039 95.3842 64.8003 88.5477C64.1767 99.9385 63.8164 111.163 63.8164 122.055C63.8164 185.466 73.3087 245.385 91.2816 295.271C121.768 380.078 175.243 438.93 250.073 464.331C324.902 438.944 378.364 380.092 408.878 295.271C426.892 245.385 436.343 185.438 436.343 122.055C436.343 111.163 435.983 99.883 435.359 88.5477C408.555 95.3842 380.693 97.0398 353.268 93.4255C315.608 88.5908 279.954 73.6721 250.073 50.2461C220.199 73.6752 184.548 88.5944 146.891 93.4255V93.4255Z" fill="#2C0171"/>
<path d="M102.229 120.725V186.173H134.696V157.821H231.6V270.703H267.671V157.821H364.575V186.173H397.043V120.725H102.229Z" fill="white"/>
<path d="M225.877 198.173H171.293L151.449 218.017V287.345L173.732 309.628H315.617V347.126H272.313V380.12H327.978L347.821 360.263V294.038L330.167 276.384H187.783V235.796H225.932L225.877 198.173Z" fill="white"/>
<path d="M273.145 198.104V235.602H314.703V250.485H349.11V218.211L329.197 198.049L273.145 198.104Z" fill="white"/>
<path d="M225.794 346.738H188.296V331.273H151.574V358.919L172.928 380.273H225.794V346.738Z" fill="white"/>
<path d="M267.549 400.477V314.658H231.603V400.477H216.914V424.824H282.238V400.477H267.549Z" fill="white"/>
</svg>
