<?xml version="1.0" encoding="UTF-8" standalone="no"?>
<svg width="250px" height="250px" viewBox="0 0 250 250" version="1.1" xmlns="http://www.w3.org/2000/svg" xmlns:xlink="http://www.w3.org/1999/xlink">
    <!-- Generator: Sketch 47.1 (45422) - http://www.bohemiancoding.com/sketch -->
    <title>UTVALL</title>
    <desc>Created with Sketch.</desc>
    <defs></defs>
    <g id="Page-1" stroke="none" stroke-width="1" fill="none" fill-rule="evenodd">
        <g id="UTVALL" fill-rule="nonzero">
            <g id="Utah_Valley_Wolverines_logo" transform="translate(0.000000, 38.000000)">
                <path d="M111.923948,0.154413182 C82.7557626,-0.177692525 66.7435541,4.42304831 52.4077305,8.54251924 C52.4077305,8.54251924 46.840584,10.1035294 45.619283,10.4464031 C16.7061999,5.95515509 5.7641445,9.98814252 1.71895499,14.2031647 L0.964900692,14.9912867 C0.964900692,14.9912867 0.780543914,16.1831268 0.76915543,16.2553286 C-0.795394497,27.0447969 7.42595208,36.8209462 15.79626,43.7758971 C11.6169142,47.7203608 4.43100856,54.6685109 3.06393495,57.0589919 L2.6235195,57.8360286 L2.61684585,58.721538 C2.61256378,85.9474052 13.2760113,111.144367 23.9258382,126.740867 C26.8668003,131.399415 31.8157799,136.429286 32.0736152,136.769326 C32.1490753,132.565525 32.5753462,125.270308 32.9967201,121.992322 C33.0536625,121.646615 33.1120399,121.289029 33.1746766,120.916413 C33.1917593,120.821542 33.2089331,120.732497 33.2302751,120.657394 C39.4242438,144.648347 53.6327442,158.091261 66.9811862,168.922667 L73.1403061,173.928056 L73.1448615,166.272623 C73.1391673,164.943633 73.2603635,163.512178 73.4696155,162.044339 C73.9037901,159.093019 74.7333956,156.01543 75.7739614,153.3774 C80.057398,158.218662 86.0372631,163.128386 91.9695244,165.515694 L98.3577806,168.094783 L97.1099444,161.665761 C97.0828854,161.550986 94.9971529,150.524011 99.5612017,143.200457 C104.482393,135.317197 111.498611,130.111185 119.864591,128.13782 C129.634544,125.838243 138.857166,128.321759 144.238224,131.407644 C155.433104,137.848681 160.004442,155.412199 158.625296,168.676025 L158.111493,173.610685 L163.238589,172.408644 C186.92208,166.868713 206.086621,156.066323 221.807284,139.397563 C222.766764,138.37461 223.857439,137.446527 224.907913,136.543948 C226.344228,135.314137 227.583295,134.247318 228.404633,133.057178 C229.062318,132.092326 229.59006,130.829349 229.799267,129.375678 C230.022709,127.814328 229.82546,126.026965 229.085254,124.171027 C233.605116,120.260567 236.726927,114.688899 238.409689,107.580476 C239.88017,106.318021 242.386092,103.746639 244.488862,99.4181568 C247.340311,93.5624417 248.976836,88.0245507 249.620513,83.5586924 C250.191372,79.6539001 249.994647,76.5783519 249.204583,74.8384807 C246.414404,68.733403 229.393176,61.8704895 224.89928,60.1408195 C223.736288,58.2012315 221.50779,52.1634818 220.991208,50.3005161 C221.159188,49.9208048 221.306624,49.4865511 221.384908,48.9368425 C221.406318,48.7696561 221.424654,48.5925407 221.436042,48.4055187 L221.480571,47.7546595 L221.269247,47.1281698 C217.130899,35.0012109 192.647709,19.2290235 183.126936,14.6928903 L182.657731,14.4655169 C175.107166,10.8672139 157.443627,2.4247014 125.27116,0.631557273 C120.53355,0.366824819 116.092042,0.218386036 111.929551,0.170939125 L111.923948,0.154413182 Z" id="Shape" fill="#FFFFFF"></path>
                <path d="M162.632311,163.966177 C162.521137,149.004418 156.955152,135.869807 148.027947,129.506526 C139.85056,123.676427 126.396889,121.957185 115.85548,125.394762 C110.833159,127.032622 106.453148,129.684027 102.487905,133.48658 C97.6892538,138.088228 94.6713056,142.882565 93.3759794,147.960949 C92.5963466,151.017228 92.2624362,156.377845 92.6442465,159.707969 C92.7999271,161.065613 92.8470071,162.174393 92.7488839,162.171899 C92.1289404,162.156484 87.4024462,159.254129 85.2518449,157.568665 C82.3263712,155.275888 78.1880239,151.097024 76.1647458,148.393026 C74.57833,146.272877 74.7209594,146.205866 72.8527469,149.946737 C71.0540725,153.54844 69.905635,157.74816 68.9148369,164.34879 L68.6603271,166.044184 L66.0186543,163.810824 C61.1585049,159.702007 57.9082316,156.629406 54.6875683,153.098204 C42.2889258,139.504313 36.1883427,125.35321 33.8851358,104.844265 L33.652674,102.773989 L33.0892629,104.048028 C31.387254,107.896827 28.7871492,118.985757 28.3956132,124.067768 L28.1710778,126.980777 L26.0291773,123.753571 C17.0254419,110.19051 10.1698023,92.7215229 7.48212008,76.4948154 C6.425041,70.1133985 6.01323342,65.8470303 6.01323342,61.27916 L6.01323342,57.5940335 L13.3455949,50.2845342 C17.3784849,46.264355 20.6779565,42.8739297 20.6779565,42.7503819 C20.6779565,42.626834 19.9965151,42.0404918 19.1635614,41.447462 C16.6558172,39.6619802 10.0482188,32.8653065 8.34017402,30.3143266 C5.25070609,25.700891 3.78136388,21.6843388 3.78136388,17.8539018 C3.78136388,15.6418058 4.22765579,15.0968577 7.19107598,13.689999 C11.0078125,11.8793995 14.4364295,11.3922356 23.3893723,11.3911021 C31.0631605,11.3899686 33.1283482,11.5378294 41.6180075,12.6963796 L45.5005694,13.2261845 L54.2109375,10.791725 C76.3387618,4.60775803 84.9347895,3.30517824 105.541112,3.01569087 C136.959662,2.57411496 157.755034,6.1923443 178.63468,15.7336393 C194.038971,22.77224 212.729524,37.3758234 216.927319,45.6526231 C217.577624,46.9347098 217.683491,47.4882722 217.517447,48.7388258 C217.301863,50.3625167 217.999112,52.7682995 220.229956,58.0985395 C221.902788,62.0949159 222.162582,62.3499459 226.307762,64.05808 C233.893632,67.1844076 241.707954,71.4682311 244.267402,73.9038241 C246.022071,75.5736924 246.393062,76.4668187 246.393062,79.0207456 C246.393062,86.9958165 241.061202,100.533941 236.387823,104.423999 C235.513097,105.152296 235.176317,105.80311 234.622472,107.83528 C233.072066,113.524375 230.567944,117.859885 226.901535,121.202931 L224.662719,123.244304 L225.343704,124.577873 C226.242233,126.33758 226.496834,128.606667 225.944014,129.928742 C225.400579,131.228352 212.227269,143.962419 207.570062,147.690163 C195.960414,156.982322 181.342383,164.221773 166.193422,168.181879 L162.667775,169.103546 L162.629624,163.968716 L162.632311,163.966177 Z" id="Shape" stroke="#275D38" stroke-width="2.86078717" fill="#275D38"></path>
                <path d="M118.943809,8.95100881 C102.895158,9.09359891 84.95374,11.5081094 66.5522276,17.6512716 C95.6384156,14.9635956 119.848055,19.1873455 133.190803,23.428324 C129.947362,19.9596896 121.720322,15.5740807 116.49073,13.7594007 C131.962441,13.7055633 148.913744,17.8983673 157.350333,25.0587023 C161.831473,28.8655632 168.211302,37.6311136 172.635728,43.6280586 C177.062887,49.6168426 179.188434,49.4171258 179.611174,49.2953915 C180.144975,49.1466127 180.117415,48.244804 180.060473,47.1878464 C179.903881,44.2324456 178.546306,39.8436631 177.760455,38.0713747 C176.97326,36.304595 177.784803,35.2653649 178.543413,36.3888796 C180.984876,39.8216965 184.805029,50.7555685 187.173834,50.9867957 C189.53125,51.2163226 197.212555,49.9455252 196.63607,44.8678897 C196.058127,39.7858789 188.357325,31.6185722 184.607097,28.6717858 C193.325893,33.0553544 196.627414,35.8713388 201.898916,40.0286675 C207.175884,44.186903 204.626913,39.3650681 204.007562,38.8465072 C203.388028,38.3341803 188.18668,22.6900746 164.159257,15.1026493 C152.905157,11.5476447 137.145773,8.79014723 118.951531,8.95177957 L118.942648,8.95177957 L118.943809,8.95100881 Z M31.2570381,19.1168439 C21.9986562,18.935496 18.0536853,20.9849555 16.5233008,22.3710264 C18.7168595,30.3077861 28.0912673,39.6151335 34.7314368,42.848687 C27.6024736,47.3356278 14.1722622,57.7816558 12.9286398,60.6300573 C14.0275829,80.9182022 22.8639532,95.9194057 29.4642629,105.136756 C31.06291,98.9285328 34.1431077,93.0410807 38.5973715,84.4555247 C36.1019269,123.773213 54.071588,136.801278 66.8294233,147.784569 C67.8144816,144.836423 70.2701121,140.90284 72.167889,137.902101 C68.6688912,125.291605 68.5773278,115.764365 70.5530476,110.030158 C71.9196201,128.054997 82.2102997,138.502838 88.9748315,143.782526 C90.9804801,135.695468 99.1634247,126.829946 101.955881,124.146124 C97.372244,113.255324 98.1600993,101.297705 99.7716153,95.2200568 C95.0299062,97.65701 91.7907935,105.581755 90.1535851,116.162665 C82.1178708,94.4350179 91.5583774,83.3760112 96.6529929,76.3711877 C96.6529929,76.3711877 82.7829583,78.3327196 73.1517174,84.9519831 C68.7161306,87.9994213 65.1579127,91.0869843 61.1537218,101.373874 C61.0241891,100.862408 57.2114841,91.8352989 61.603043,81.7064149 C66.0001367,71.5666496 83.1484603,61.3978675 88.5345299,58.8511948 C62.1269133,60.0879882 50.0961188,67.3791707 38.7941873,76.8227608 C43.6639031,54.7800096 64.7120991,45.1106329 78.5741618,39.6178538 C61.0525237,41.502174 49.6975219,45.5515514 38.1541545,53.746288 C40.0844342,47.5323976 47.7637573,40.2086166 50.7304574,38.0947015 C48.03002,37.2389795 42.4915725,38.0068805 39.8223397,38.8385276 C38.8187637,37.5393935 39.6113338,33.9281237 41.0946383,32.3344697 L30.6937637,30.7892373 C30.2154701,30.7226575 26.0709503,27.4554854 30.2844843,24.9802211 C35.0517037,22.175118 54.0363065,25.9930869 55.7582453,26.1446767 C57.4749909,26.3005283 60.7935496,26.0006131 63.8725401,24.9536527 C48.8739067,20.7462247 38.4579993,19.2575297 31.255922,19.1162998 L31.2570381,19.1168439 Z M135.53683,36.8095771 C132.554414,36.7828499 139.775852,46.200801 142.81931,49.7514984 C143.328922,49.6594156 147.897891,49.4001238 153.153448,49.3972901 L149.30528,42.0252235 C143.733578,39.6492509 138.355936,37.5915556 135.86163,36.8448279 C135.743714,36.8237454 135.633086,36.8102571 135.536876,36.8093957 L135.53683,36.8095771 Z M156.783414,45.3813047 L153.85179,49.401484 C157.876025,49.4171258 162.214126,49.5959642 165.391513,50.1187643 C163.733191,48.8593016 160.527264,47.1536157 156.783414,45.3813274 L156.783414,45.3813047 Z M211.302364,53.5724143 C211.302364,53.5724143 210.771342,53.6400822 209.914381,53.7406661 L206.773665,58.3497945 L212.984033,59.9304364 C213.130649,57.5841605 212.498246,55.3065728 211.302455,53.5723689 L211.302364,53.5724143 Z M203.908733,54.4136505 C202.076622,54.6120072 200.312705,54.7905281 199.170896,54.87411 C199.170896,54.87411 199.643928,55.6553405 200.959252,56.8709607 L206.021889,58.1593948 L203.908778,54.4137412 L203.908733,54.4136505 Z M161.771342,57.2473169 C156.129715,57.2486771 150.264873,58.2644445 143.950187,60.829298 C123.737678,69.0423968 100.705835,92.3940753 107.017333,115.17902 C107.451508,116.966996 108.801704,121.452305 111.799585,120.16446 C114.801818,118.87666 119.62894,115.934816 134.082749,113.744505 C154.20415,110.6914 174.589308,115.85366 176.944447,116.635752 C178.138826,117.032442 178.726904,118.066776 178.052159,118.619318 C173.381742,118.10078 160.125774,118.393192 157.018996,119.907752 C160.929346,124.539097 167.846028,132.681014 167.931441,149.629513 C174.001276,147.650344 180.991071,144.751753 185.903836,140.07915 C185.57644,141.84865 183.603817,145.354304 177.344707,150.776354 C182.163174,149.428957 192.782024,144.661529 199.311953,137.227802 C198.785259,140.170281 193.964149,146.9101 183.185632,153.441588 C187.782024,152.975461 194.980685,151.337443 202.554938,144.767848 C210.123724,138.195329 211.345481,131.409718 211.345481,131.409718 C215.970344,132.04727 217.964923,130.925274 218.28084,128.757633 C218.595435,126.588495 215.767629,122.645527 212.395272,120.300839 C209.025875,117.95751 187.183446,107.112728 155.40502,104.813151 C123.619761,102.515161 111.41814,113.68162 111.41814,113.68162 C112.531318,99.50014 128.705175,62.9023177 168.832043,61.4582813 C168.571542,65.447857 166.929004,78.1898348 177.653562,90.7379899 C181.549563,88.3307336 186.278745,83.638182 187.86311,81.8119406 C189.046101,84.7120282 189.01747,90.202767 188.143381,97.6804727 C191.169757,99.8353287 198.536056,105.282633 209.963944,106.447157 C214.020978,102.256277 220.170759,97.3526742 220.636092,94.8644884 C221.10015,92.3681416 220.277947,82.1639954 212.330471,76.4368154 C212.511252,78.8100678 213.125387,87.525519 213.589422,88.6703202 C212.188684,86.7478022 209.165452,83.0902642 205.279473,79.3103799 C200.892174,75.0431049 195.166955,71.1006815 195.007516,69.8042224 C194.704309,67.4636139 198.143905,66.1823433 198.143905,66.1823433 C185.508837,62.1401748 174.182535,57.2445059 161.771365,57.247453 L161.771342,57.2473169 Z M151.886593,74.1874283 C149.992301,74.178814 148.334753,74.3213361 147.438024,74.7452979 C146.457225,75.2099965 139.830972,77.5367994 132.570814,83.4233447 C132.438411,85.0356329 132.200825,88.5400396 132.504077,90.0248808 C140.324777,81.1133398 149.02239,78.798121 152.754168,78.2916881 C152.634589,79.1105951 151.316873,86.0504936 150.45415,91.6364436 C153.203102,89.746456 160.516787,84.7485939 165.036648,82.8033385 C163.990365,81.0266977 163.040839,79.2413064 162.225059,77.4857934 C161.664199,76.2871978 160.854888,74.8955956 160.854888,74.8955956 C158.849558,74.6387974 155.043572,74.20171 151.886457,74.187179 L151.886593,74.1874283 Z M148.363224,83.7155751 C142.847098,86.4429224 135.54093,93.2153852 130.034826,99.1502162 C128.823365,95.5686885 128.575096,89.3339422 128.633496,86.9432345 C123.729615,91.7758826 118.941213,98.3375206 115.772481,107.142062 C128.224194,102.965465 142.111767,98.7342339 162.977747,101.394933 C162.943581,98.8716101 163.260159,90.8548277 163.667297,87.3372275 C163.667297,87.3372275 154.76583,92.1861975 148.613088,96.0597062 C147.889942,93.1228943 147.932649,86.3128004 148.363953,83.7155751 L148.363224,83.7155751 Z M168.008359,87.4258646 C167.389144,90.3372868 166.616185,96.26237 166.620376,98.3576963 C167.410418,97.7994867 171.49237,95.312525 173.253257,94.0274006 C171.418413,92.0014198 169.642424,89.7619392 168.008405,87.4258646 L168.008359,87.4258646 Z M236.557922,88.855982 C233.706701,91.2349017 228.59851,94.0152952 223.598966,96.0242514 C223.598966,96.0242514 217.13509,103.838597 213.7231,107.226075 C219.101198,107.62136 227.671943,106.163971 232.278357,102.532843 C236.876344,98.9030298 239.216677,94.2900475 241.277993,90.139973 C239.669438,91.8981383 234.750569,94.8053214 229.293436,97.144343 C231.30774,96.2305196 233.71399,92.61025 236.557922,88.855982 L236.557922,88.855982 Z M185.291522,90.5063094 C182.882858,93.8484489 172.885364,102.003514 171.798902,102.859282 C174.906364,103.491166 178.148437,104.260745 181.554733,105.201477 C183.114887,101.152281 184.643973,95.4595583 185.291522,90.5063094 Z M230.71563,109.266088 C226.588899,111.289235 219.293436,114.479808 215.407913,115.34963 C217.543162,116.475978 221.084389,118.957227 221.724877,119.821609 C226.163425,117.05459 229.851471,111.839057 230.71563,109.266315 L230.71563,109.266088 Z" id="Shape" fill="#FFFFFF"></path>
            </g>
        </g>
    </g>
</svg>