<?xml version="1.0" encoding="UTF-8" standalone="no"?>
<svg width="250px" height="250px" viewBox="0 0 250 250" version="1.1" xmlns="http://www.w3.org/2000/svg" xmlns:xlink="http://www.w3.org/1999/xlink">
    <!-- Generator: Sketch 47.1 (45422) - http://www.bohemiancoding.com/sketch -->
    <title>FGC</title>
    <desc>Created with Sketch.</desc>
    <defs>
        <polygon id="path-1" points="0.000186567164 113.4 249.833675 113.4 249.833675 0.157873333 0.000186567164 0.157873333"></polygon>
    </defs>
    <g id="Page-1" stroke="none" stroke-width="1" fill="none" fill-rule="evenodd">
        <g id="FGC">
            <g id="Page-1" transform="translate(0.000000, 38.000000)">
                <g id="Group-3" transform="translate(0.000000, 61.419867)">
                    <mask id="mask-2" fill="white">
                        <use xlink:href="#path-1"></use>
                    </mask>
                    <g id="Clip-2"></g>
                    <path d="M242.354664,0.936273333 L222.319683,0.70294 L222.151306,0.706673333 L218.164832,0.661873333 C218.164832,0.661873333 214.002985,7.98994 213.307556,9.21400667 C213.034235,8.84207333 206.915765,0.523273333 206.915765,0.523273333 L187.136847,0.29274 L186.968004,0.296006667 L182.98153,0.251673333 C182.98153,0.251673333 182.574347,0.96894 182.199813,1.62787333 C181.695616,0.93814 181.125187,0.157873333 181.125187,0.157873333 L176.502519,1.60920667 C175.757649,1.84300667 158.210541,7.35620667 153.083675,9.36100667 C153.090205,9.35867333 151.433022,10.0414067 151.433022,10.0414067 C150.809422,10.3050733 149.651306,10.8496733 145.766511,12.9016067 C142.884981,14.42434 139.796362,16.50614 136.322948,19.2674067 C136.326213,19.2646067 136.284235,19.2986733 136.224067,19.3472067 C135.134981,17.85714 131.125187,12.37054 131.125187,12.37054 L126.501586,13.82234 C125.757183,14.05614 108.209142,19.56934 103.082743,21.57414 L101.428358,22.2564067 C95.8490672,24.7334733 88.3490672,28.7874067 86.7539179,29.8668067 C86.495056,29.6012733 82.8625933,25.55294 82.8625933,25.55294 L31.9498134,34.61094 L4.43115672,41.30014 C4.43115672,41.30014 31.1583022,49.22554 31.2501866,49.2334733 C25.9652052,59.75354 13.7660448,84.9320733 12.5934701,87.2668067 C10.6125933,88.67474 0.000186567164,96.8334733 0.000186567164,96.8334733 L6.53003731,113.40014 L41.5113806,105.933473 C41.5113806,105.933473 50.7940299,84.0986067 50.8397388,84.00014 C50.8397388,83.9222067 61.3028918,82.21654 61.3341418,82.2114067 C62.9666045,86.9560067 66.4810634,90.4896067 67.9297575,91.6978067 C73.954944,96.7154067 83.5640858,96.8516733 95.7217351,92.0940067 C98.2828358,91.09674 101.296362,89.67854 104.925093,87.7628733 C108.738993,85.75294 112.947948,82.8782733 117.43069,79.22054 C117.43069,79.22054 117.482929,79.1780733 117.532836,79.1374733 C117.670896,79.2588067 117.817351,79.38994 117.931623,79.4856067 C123.955877,84.5022733 133.565019,84.6380733 145.723134,79.8808733 C148.285168,78.88314 151.298228,77.4654067 154.926493,75.54974 C157.219403,74.34154 158.589739,73.10394 161.147575,71.2834733 C162.780037,72.9168067 164.062687,73.9668067 166.161567,75.3668067 C166.161567,75.3668067 169.657836,77.2054733 173.27444,78.05014 C176.772575,78.8668067 179.675093,79.06514 182.602799,79.10014 C182.604198,79.10014 190.298694,78.2834733 190.298694,78.2834733 C193.680224,77.5834733 196.294496,76.7840733 200.420429,75.4554733 C203.921362,74.33454 207.58181,72.47814 211.600933,69.78454 C215.514179,67.1628067 219.089272,64.04454 222.226866,60.5174733 C225.300093,57.0632067 227.984328,53.32894 230.206343,49.4182733 L230.24972,49.3422067 L249.833675,12.69814 L242.354664,0.936273333 Z" id="Fill-1" fill="#145185" mask="url(#mask-2)"></path>
                </g>
                <g id="Group-70" transform="translate(6.996269, 67.953200)">
                    <path d="M231.612034,0.78386 L231.412873,0.781993333 L215.039739,0.591593333 L194.409142,36.9169267 C192.534608,40.2171933 190.26222,42.7591267 187.597575,44.5403933 C185.024347,46.2581933 182.34431,47.1233933 179.562593,47.1513933 C179.025746,45.3169267 179.65541,42.8127933 181.457649,39.6403933 L199.968843,5.40759333 L196.264552,0.371793333 L179.857369,0.18046 L159.713246,35.65086 C158.053731,38.5721933 156.66334,41.9335933 155.547201,45.73226 C154.847575,48.0949933 154.733302,50.3961267 155.207183,52.63286 C155.681063,54.87146 156.193657,56.31626 157.105037,57.94446 C158.193657,59.8885933 158.698787,60.89986 160.681063,62.29986 C163.709981,64.4395267 165.15028,64.5543267 170.78694,65.5665267 C173.653078,66.08126 177.238899,65.64446 180.037407,65.1777933 C184.522481,64.4301933 187.31166,63.8981933 191.309328,62.6111267 C194.180131,61.6917933 197.182463,59.59926 200.636287,57.2841267 C204.089646,54.9699267 207.203918,52.2529933 209.973507,49.1403267 C212.744496,46.0257933 215.127425,42.71386 217.12556,39.1951933 L234.805597,6.11599333 L231.612034,0.78386 Z" id="Fill-4" fill="#D1AF7C"></path>
                    <path d="M231.612034,0.78386 L231.412873,0.781993333 L215.039739,0.591593333 L194.409142,36.9169267 C192.534608,40.2171933 190.26222,42.7591267 187.597575,44.5403933 C185.024347,46.2581933 182.34431,47.1233933 179.562593,47.1513933 C179.025746,45.3169267 179.65541,42.8127933 181.457649,39.6403933 L199.968843,5.40759333 L196.264552,0.371793333 L179.857369,0.18046 L159.713246,35.65086 C158.053731,38.5721933 156.66334,41.9335933 155.547201,45.73226 C154.847575,48.0949933 154.733302,50.3961267 155.207183,52.63286 C155.681063,54.87146 156.193657,56.31626 157.105037,57.94446 C158.193657,59.8885933 158.698787,60.89986 160.681063,62.29986 C163.709981,64.4395267 165.15028,64.5543267 170.78694,65.5665267 C173.653078,66.08126 177.238899,65.64446 180.037407,65.1777933 C184.522481,64.4301933 187.31166,63.8981933 191.309328,62.6111267 C194.180131,61.6917933 197.182463,59.59926 200.636287,57.2841267 C204.089646,54.9699267 207.203918,52.2529933 209.973507,49.1403267 C212.744496,46.0257933 215.127425,42.71386 217.12556,39.1951933 L234.805597,6.11599333 L231.612034,0.78386 Z" id="Stroke-6" stroke="#D1AF7C" stroke-width="3.24160448"></path>
                    <path d="M172.877519,61.0440133 C177.423694,61.0967467 181.696082,60.4779467 185.694216,59.19088 C188.565485,58.2715467 191.728265,56.6545467 195.18209,54.3394133 C198.635914,52.0252133 201.74972,49.3092133 204.520243,46.1965467 C207.290299,43.0820133 209.673694,39.76868 211.671828,36.25048 L230.194216,3.63654667 L231.815485,0.781013333 L215.20541,0.58688 L194.575746,36.9131467 C192.70028,40.2143467 190.427892,42.7558133 187.763246,44.53568 C185.190019,46.25488 182.509981,47.11868 179.728731,47.1471467 C179.628918,47.14808 179.530037,47.1569467 179.429757,47.15508 C176.513246,47.12148 174.750653,46.1825467 174.145243,44.3359467 C173.539832,42.49028 174.159235,39.94368 176.003451,36.6961467 L195.011847,3.22634667 L196.633582,0.370813333 L180.023041,0.17668 L159.878918,35.64708 C158.219403,38.5684133 156.829011,41.9298133 155.712873,45.7289467 C155.013246,48.09028 154.898974,50.39188 155.372854,52.6295467 C155.846735,54.8672133 156.785168,56.6013467 158.190485,57.8282133 C159.333209,58.8301467 160.975466,59.56468 163.095336,60.0430133 C163.579478,60.1536133 164.079944,60.2530133 164.614925,60.3356133 C167.49319,60.7761467 170.246922,61.0132133 172.877519,61.0440133" id="Fill-8" fill="#FEFEFE"></path>
                    <path d="M174.145149,44.3360867 C174.75056,46.1826867 176.513153,47.12162 179.429664,47.15522 C179.529944,47.1570867 179.628825,47.1477533 179.728638,47.14682 C179.191791,45.3123533 179.820989,42.80962 181.623228,39.6367533 L200.134888,5.40395333 L196.551399,0.15302 L176.003358,36.6962867 C174.159142,39.94382 173.539739,42.49042 174.145149,44.3360867" id="Fill-10" fill="#009467"></path>
                    <path d="M231.71222,0.646006667 L211.709422,36.28814 C209.711287,39.80634 207.328358,43.1196733 204.557836,46.2342067 C201.78778,49.3468733 198.673507,52.0628733 195.220149,54.3770733 C191.765858,56.6922067 188.603078,58.3092067 185.73181,59.2290067 C181.734142,60.5156067 177.508862,61.03034 172.962687,60.9776067 C170.33209,60.94634 165.388526,60.52074 162.546175,59.8888733 C161.146922,59.5776067 159.436567,58.95554 156.94916,56.7776067 C155.822761,55.5722067 157.220616,59.47354 160.835821,62.2222067 C164.722948,65.1776067 169.392257,65.34374 171.563433,65.4888733 C173.895522,65.6442733 177.270989,65.67274 180.581157,65.1776067 C184.997201,64.5172733 188.311567,63.51954 190.842351,62.6888733 C193.70709,61.74854 197.385728,59.6326733 200.840019,57.31754 C204.293377,55.00334 207.408116,52.28734 210.177705,49.17374 C212.948228,46.06014 215.331157,42.7468067 217.329291,39.22954 L235.008862,6.15034 L231.71222,0.646006667 Z" id="Fill-12" fill="#009467"></path>
                    <g id="Group-17" transform="translate(159.514925, 52.733333)"></g>
                    <g id="Group-21" transform="translate(159.514925, 55.066667)"></g>
                    <path d="M154.695429,40.1324 L140.391791,42.6216 L139.129198,45.9629333 C139.129198,45.9629333 134.539646,47.9052 133.552239,48.2062 L133.430037,47.9873333 C134.089552,44.9274 134.642724,43.092 134.790112,42.6444667 L137.11334,37.191 C138.142257,34.9407333 139.623601,32.8216 142.187966,31.4062 C146.41791,29.0784667 147.709422,28.959 147.925373,28.8722 C149.378731,28.3070667 156.160914,27.0209333 156.160914,27.0209333 L175.066231,6.6626 L171.106343,1.47466667 C171.106343,1.47466667 153.205224,7.0574 148.23694,9.0006 C147.89459,9.1336 147.39972,9.34173333 146.750933,9.61426667 C146.10028,9.88913333 144.391791,10.759 141.609608,12.2252667 C138.838619,13.692 135.689366,15.8676 132.168843,18.7488 C128.650187,21.6309333 124.867071,25.5252667 120.826959,30.4336667 C116.789646,35.3411333 113.864272,40.5454 112.047108,46.0441333 C111.052239,49.0648667 110.601213,55.8306 110.601213,55.8306 C110.601213,55.8306 110.381063,57.7145333 111.39972,61.8716 C112.048507,64.5264667 114.447295,66.7552667 115.226213,67.4039333 C120.118937,71.4793333 129.061567,69.4997333 136.224813,66.6969333 C138.548974,65.7906667 141.333955,64.4784 144.735541,62.6826667 C148.157649,60.879 151.986474,58.2558667 156.122668,54.8809333 L156.835354,54.3027333 L159.514925,46.6657333 L154.695429,40.1324 Z" id="Fill-22" fill="#D1AF7C"></path>
                    <path d="M154.695429,40.1324 L140.391791,42.6216 L139.129198,45.9629333 C139.129198,45.9629333 134.539646,47.9052 133.552239,48.2062 L133.430037,47.9873333 C134.089552,44.9274 134.642724,43.092 134.790112,42.6444667 L137.11334,37.191 C138.142257,34.9407333 139.623601,32.8216 142.187966,31.4062 C146.41791,29.0784667 147.709422,28.959 147.925373,28.8722 C149.378731,28.3070667 156.160914,27.0209333 156.160914,27.0209333 L175.066231,6.6626 L171.106343,1.47466667 C171.106343,1.47466667 153.205224,7.0574 148.23694,9.0006 C147.89459,9.1336 147.39972,9.34173333 146.750933,9.61426667 C146.10028,9.88913333 144.391791,10.759 141.609608,12.2252667 C138.838619,13.692 135.689366,15.8676 132.168843,18.7488 C128.650187,21.6309333 124.867071,25.5252667 120.826959,30.4336667 C116.789646,35.3411333 113.864272,40.5454 112.047108,46.0441333 C111.052239,49.0648667 110.601213,55.8306 110.601213,55.8306 C110.601213,55.8306 110.381063,57.7145333 111.39972,61.8716 C112.048507,64.5264667 114.447295,66.7552667 115.226213,67.4039333 C120.118937,71.4793333 129.061567,69.4997333 136.224813,66.6969333 C138.548974,65.7906667 141.333955,64.4784 144.735541,62.6826667 C148.157649,60.879 151.986474,58.2558667 156.122668,54.8809333 L156.835354,54.3027333 L159.514925,46.6657333 L154.695429,40.1324 Z" id="Stroke-24" stroke="#D1AF7C" stroke-width="3.24393657"></path>
                    <path d="M151.44916,50.1292867 C147.466418,53.37962 143.850746,55.8622867 140.610541,57.57122 C137.367071,59.28202 134.641325,60.57282 132.427239,61.4361533 C125.840951,64.0135533 120.665578,64.6561533 116.91791,63.36442 C113.164179,62.0782867 111.211287,59.58302 111.059701,55.8907533 C110.903918,52.1998867 111.326026,48.8440867 112.321828,45.8242867 C114.138993,40.3236867 117.062966,35.11942 121.101213,30.2128867 C125.142724,25.3049533 128.922575,21.4110867 132.443097,18.5289533 C135.964086,15.6477533 139.11194,13.47122 141.888526,12.00402 C144.663246,10.53822 146.375,9.66975333 147.026119,9.39442 C147.671642,9.12188667 148.16791,8.91515333 148.510728,8.78168667 C153.479478,6.83848667 171.492071,1.18388667 171.492071,1.18388667 L152.736474,20.9971533 C152.522388,20.8678867 146.878731,22.1894867 144.565765,23.0924867 C143.828825,23.38322 141.94403,24.21202 138.780317,25.9573533 C135.61194,27.70362 132.558302,30.8792867 131.240205,33.7651533 C129.925373,36.6486867 129.202425,38.2838867 129.077425,38.67122 C128.94916,39.06322 128.854478,39.35022 128.788246,39.54622 C128.499534,40.4193533 127.996735,42.5641533 127.277519,45.9768867 C126.55597,49.3872867 129.840019,49.6719533 137.11847,46.82622 L139.405317,45.74262 L140.547108,42.7764867 L154.850746,40.4431533 L151.44916,50.1292867 Z" id="Fill-26" fill="#FEFEFE"></path>
                    <path d="M151.44916,50.1292867 C147.466418,53.37962 143.850746,55.8622867 140.610541,57.57122 C137.367071,59.28202 134.641325,60.57282 132.427239,61.4361533 C125.840951,64.0135533 120.665578,64.6561533 116.91791,63.36442 C113.164179,62.0782867 111.211287,59.58302 111.059701,55.8907533 C110.903918,52.1998867 111.326026,48.8440867 112.321828,45.8242867 C114.138993,40.3236867 117.062966,35.11942 121.101213,30.2128867 C125.142724,25.3049533 128.922575,21.4110867 132.443097,18.5289533 C135.964086,15.6477533 139.11194,13.47122 141.888526,12.00402 C144.663246,10.53822 146.375,9.66975333 147.026119,9.39442 C147.671642,9.12188667 148.16791,8.91515333 148.510728,8.78168667 C153.479478,6.83848667 171.492071,1.18388667 171.492071,1.18388667 L152.736474,20.9971533 C152.522388,20.8678867 146.878731,22.1894867 144.565765,23.0924867 C143.828825,23.38322 141.94403,24.21202 138.780317,25.9573533 C135.61194,27.70362 132.558302,30.8792867 131.240205,33.7651533 C129.925373,36.6486867 129.202425,38.2838867 129.077425,38.67122 C128.94916,39.06322 128.854478,39.35022 128.788246,39.54622 C128.499534,40.4193533 127.996735,42.5641533 127.277519,45.9768867 C126.55597,49.3872867 129.840019,49.6719533 137.11847,46.82622 L139.405317,45.74262 L140.547108,42.7764867 L154.850746,40.4431533 L151.44916,50.1292867 Z" id="Stroke-28" stroke="#FEFEFE" stroke-width="0.5"></path>
                    <path d="M152.89305,20.8031133 C151.067491,21.1456467 147.723741,21.83678 145.822621,22.5769133 C145.204618,22.8191133 143.771315,23.0627133 139.40611,25.46698 C135.625793,27.5534467 132.51292,30.7333133 130.905644,34.2524467 L128.788106,39.5463133 C128.297901,40.4395133 127.491465,44.16118 127.267584,47.1553133 C127.045103,50.1620467 134.594076,47.7414467 133.629524,47.9052467 C134.285774,44.84578 134.916838,42.8713133 135.066558,42.42658 L137.391185,36.9712467 C138.415438,34.71818 140.159841,32.9420467 142.721875,31.5257133 C146.950886,29.19658 147.984935,28.7383133 148.198088,28.6524467 C149.653778,28.08638 156.435028,26.8016467 156.435028,26.8016467 L175.335681,6.44238 L171.380457,1.25491333 C171.380457,1.25491333 154.181297,19.20338 152.89305,20.8031133" id="Fill-30" fill="#009467"></path>
                    <path d="M154.85667,40.2636733 C152.342211,47.4242067 152.01292,48.9026067 151.584748,50.1248067 C148.065159,52.9430067 144.815625,55.18954 141.969076,56.6898733 C138.832416,58.34514 136.19389,59.59394 134.127659,60.3994067 C126.376726,63.4308733 122.926166,64.4062067 118.997994,63.8410733 C118.789972,63.8102733 111.759655,63.20874 110.876259,55.61094 C110.876259,55.61094 110.657043,57.49394 111.675233,61.6510067 C112.324487,64.3068067 114.721409,66.5356067 115.500793,67.1842733 C120.394916,71.25874 129.335681,69.28194 136.49986,66.47634 C138.822155,65.5686733 141.608535,64.25594 145.012453,62.46114 C148.428498,60.6602733 152.261054,58.03714 156.393983,54.6612733 L157.109002,54.0802733 L159.400979,46.6528067 L154.85667,40.2636733 Z" id="Fill-32" fill="#009467"></path>
                    <g id="Group-37" transform="translate(109.141791, 65.333333)"></g>
                    <g id="Group-41" transform="translate(109.141791, 67.666667)"></g>
                    <path d="M110.022248,37.2968867 L91.3734608,44.73462 L84.7092817,55.60702 L90.8090951,53.0706867 L89.1276586,58.1764867 C89.1276586,58.1764867 84.5385728,60.1187533 83.551166,60.41882 L83.4289646,60.1999533 C84.0884795,57.1409533 84.6411847,55.30462 84.7890392,54.85802 L87.1122668,49.4045533 C88.1407183,47.1542867 89.6229944,45.0332867 92.1864272,43.61882 C96.4168377,41.2901533 97.7083489,41.17162 97.9243004,41.08482 C99.3776586,40.5187533 106.159375,39.2335533 106.159375,39.2335533 L125.065159,18.87522 L121.104804,13.68822 C121.104804,13.68822 103.203685,19.27002 98.2358675,21.21322 C97.8935168,21.3471533 97.3991138,21.5552867 96.7498601,21.82782 C96.0992071,22.1017533 94.3902519,22.9725533 91.608069,24.4378867 C88.8370802,25.9055533 85.6878265,28.0811533 82.1677705,30.9623533 C78.6491138,33.8435533 74.8655317,37.7369533 70.8254198,42.6462867 C66.7885728,47.5537533 63.8631996,52.75802 62.0460354,58.2567533 C61.0506996,61.2774867 60.6001399,68.0441533 60.6001399,68.0441533 C60.6001399,68.0441533 60.3799907,69.9271533 61.3986474,74.08422 C62.0474347,76.74002 64.446222,78.9678867 65.2246735,79.6179533 C70.1178638,83.6919533 79.0604944,81.7123533 86.2237407,78.9095533 C88.5474347,78.00422 91.332416,76.69102 94.7340019,74.8952867 C98.1565765,73.09162 101.985401,70.4684867 106.121129,67.0944867 L106.834282,66.5162867 L114.567024,43.6869533 L110.022248,37.2968867 Z" id="Fill-42" fill="#D1AF7C"></path>
                    <path d="M110.022248,37.2968867 L91.3734608,44.73462 L84.7092817,55.60702 L90.8090951,53.0706867 L89.1276586,58.1764867 C89.1276586,58.1764867 84.5385728,60.1187533 83.551166,60.41882 L83.4289646,60.1999533 C84.0884795,57.1409533 84.6411847,55.30462 84.7890392,54.85802 L87.1122668,49.4045533 C88.1407183,47.1542867 89.6229944,45.0332867 92.1864272,43.61882 C96.4168377,41.2901533 97.7083489,41.17162 97.9243004,41.08482 C99.3776586,40.5187533 106.159375,39.2335533 106.159375,39.2335533 L125.065159,18.87522 L121.104804,13.68822 C121.104804,13.68822 103.203685,19.27002 98.2358675,21.21322 C97.8935168,21.3471533 97.3991138,21.5552867 96.7498601,21.82782 C96.0992071,22.1017533 94.3902519,22.9725533 91.608069,24.4378867 C88.8370802,25.9055533 85.6878265,28.0811533 82.1677705,30.9623533 C78.6491138,33.8435533 74.8655317,37.7369533 70.8254198,42.6462867 C66.7885728,47.5537533 63.8631996,52.75802 62.0460354,58.2567533 C61.0506996,61.2774867 60.6001399,68.0441533 60.6001399,68.0441533 C60.6001399,68.0441533 60.3799907,69.9271533 61.3986474,74.08422 C62.0474347,76.74002 64.446222,78.9678867 65.2246735,79.6179533 C70.1178638,83.6919533 79.0604944,81.7123533 86.2237407,78.9095533 C88.5474347,78.00422 91.332416,76.69102 94.7340019,74.8952867 C98.1565765,73.09162 101.985401,70.4684867 106.121129,67.0944867 L106.834282,66.5162867 L114.567024,43.6869533 L110.022248,37.2968867 Z" id="Stroke-44" stroke="#D1AF7C" stroke-width="3.24393657"></path>
                    <g id="Group-49" transform="translate(60.634328, 13.066667)">
                        <path d="M1.68642724,44.97136 C3.50359142,39.47076 6.4275653,34.26556 10.4653451,29.3580933 C14.5068563,24.4506267 18.2871735,20.5572267 21.8076959,17.6760267 C25.3286847,14.7948267 28.4765392,12.61736 31.253125,11.1496933 C34.0278451,9.68436 35.7391325,8.81542667 36.3902519,8.54149333 C37.0362407,8.26802667 37.5320429,8.06082667 37.8753265,7.92782667 C42.8440765,5.98462667 60.8566698,0.330026667 60.8566698,0.330026667 L42.1010728,20.1432933 C41.8865205,20.0144933 36.2433302,21.3356267 33.9303638,22.2376933 C33.1929571,22.52936 31.3086287,23.35816 28.1444496,25.1034933 C24.9765392,26.8488267 21.9229011,30.0254267 20.6043377,32.9108267 C19.289972,35.7948267 18.5665578,37.4300267 18.4415578,37.81736 C18.3132929,38.20936 18.2186101,38.49636 18.1528451,38.69236 C17.8641325,39.5664267 17.361334,41.7112267 16.6416511,45.12256 C15.9201026,48.53436 19.2046175,48.8176267 26.483069,45.97236 L28.7694496,44.8882933 L30.4513526,39.7852933 L24.3478078,42.3216267 L31.0161847,31.4464267 L49.6626399,24.01056 L40.8137593,49.27636 C36.8310168,52.5262267 33.2153451,55.00936 29.9746735,56.71736 C26.7312034,58.4290933 24.0059235,59.7198933 21.7913713,60.5818267 C15.205084,63.1606267 10.0301772,63.8032267 6.28204291,62.5114933 C2.52877799,61.2244267 0.575886194,58.7286933 0.424300373,55.03736" id="Fill-46" fill="#FEFEFE"></path>
                        <path d="M1.68642724,44.97136 C3.50359142,39.47076 6.4275653,34.26556 10.4653451,29.3580933 C14.5068563,24.4506267 18.2871735,20.5572267 21.8076959,17.6760267 C25.3286847,14.7948267 28.4765392,12.61736 31.253125,11.1496933 C34.0278451,9.68436 35.7391325,8.81542667 36.3902519,8.54149333 C37.0362407,8.26802667 37.5320429,8.06082667 37.8753265,7.92782667 C42.8440765,5.98462667 60.8566698,0.330026667 60.8566698,0.330026667 L42.1010728,20.1432933 C41.8865205,20.0144933 36.2433302,21.3356267 33.9303638,22.2376933 C33.1929571,22.52936 31.3086287,23.35816 28.1444496,25.1034933 C24.9765392,26.8488267 21.9229011,30.0254267 20.6043377,32.9108267 C19.289972,35.7948267 18.5665578,37.4300267 18.4415578,37.81736 C18.3132929,38.20936 18.2186101,38.49636 18.1528451,38.69236 C17.8641325,39.5664267 17.361334,41.7112267 16.6416511,45.12256 C15.9201026,48.53436 19.2046175,48.8176267 26.483069,45.97236 L28.7694496,44.8882933 L30.4513526,39.7852933 L24.3478078,42.3216267 L31.0161847,31.4464267 L49.6626399,24.01056 L40.8137593,49.27636 C36.8310168,52.5262267 33.2153451,55.00936 29.9746735,56.71736 C26.7312034,58.4290933 24.0059235,59.7198933 21.7913713,60.5818267 C15.205084,63.1606267 10.0301772,63.8032267 6.28204291,62.5114933 C2.52877799,61.2244267 0.575886194,58.7286933 0.424300373,55.03736" id="Stroke-48" stroke="#FEFEFE" stroke-width="0.5"></path>
                    </g>
                    <path d="M102.891604,33.0157333 C101.066511,33.3582667 97.7222948,34.0494 95.8211754,34.7895333 C95.2031716,35.0308 93.7703358,35.2744 89.4051306,37.6786667 C85.624347,39.7651333 82.5114739,42.945 80.9046642,46.4650667 L78.7871269,51.7589333 C78.2969216,52.6530667 77.4900187,56.3738 77.2666045,59.3679333 C77.0441231,62.3756 84.5926306,59.955 83.6280784,60.1188 C84.2847948,57.0584 84.9153918,55.0848667 85.0655784,54.6401333 L87.3902052,49.1838667 C88.4139925,46.9317333 90.1588619,45.1537333 92.7208955,43.7374 C96.9494403,41.4092 97.9834888,40.95 98.1971082,40.8641333 C99.6523321,40.2994667 106.433582,39.0133333 106.433582,39.0133333 L125.334701,18.6559333 L121.379011,13.4675333 C121.379011,13.4675333 104.179851,31.416 102.891604,33.0157333" id="Fill-50" fill="#009467"></path>
                    <path d="M110.297155,37.0772267 C107.783162,44.2368267 102.011707,61.11616 101.583535,62.33836 C98.0639459,65.15656 94.8144123,67.4030933 91.9678638,68.9024933 C88.8307369,70.55776 86.1926772,71.80656 84.1264459,72.6120267 C76.3755131,75.64396 72.9249534,76.61976 68.9967817,76.0536933 C68.7882929,76.0238267 61.7584422,75.42136 60.8745802,67.82356 C60.8745802,67.82356 60.6558302,69.7074933 61.6735541,73.86456 C62.3228078,76.5198933 64.7201959,78.74916 65.4995802,79.39736 C70.3937034,83.4722933 79.3344683,81.49456 86.498181,78.6898933 C88.8209422,77.7822267 91.6073228,76.4694933 95.0107743,74.67376 C98.4272854,72.8728933 102.259841,70.24976 106.392771,66.8738933 L107.107789,66.2938267 L114.841465,43.4654267 L110.297155,37.0772267 Z" id="Fill-52" fill="#009467"></path>
                    <polygon id="Fill-54" fill="#009467" points="91.0858675 52.85182 84.9823228 55.38862 87.7271922 58.70802 89.4039646 57.9552867"></polygon>
                    <polygon id="Fill-56" fill="#D1AF7C" points="9.91161381 35.1130267 25.0869869 38.1234933 25.1513526 32.4268933"></polygon>
                    <path d="M73.6530317,25.3349133 L73.8368004,25.3512467 L77.8489272,30.7697133 L66.1884795,47.86698 C66.1884795,47.86698 51.3979011,50.8886467 49.6796175,51.2223133 L49.1632929,52.4655133 L55.1618937,51.27318 L58.171222,54.4642467 L50.7826959,69.31918 C50.7826959,69.31918 39.4123601,71.55498 39.3876399,71.5321133 C39.4123601,71.55498 29.7729011,93.3324467 29.7729011,93.3324467 L3.14137127,98.9833133 L0.428684701,92.2899133 L9.72532649,85.6814467 L33.5219683,38.3115133 L18.680084,35.20958 L73.6530317,25.3349133 Z" id="Fill-58" fill="#D1AF7C"></path>
                    <path d="M73.6530317,25.3349133 L73.8368004,25.3512467 L77.8489272,30.7697133 L66.1884795,47.86698 C66.1884795,47.86698 51.3979011,50.8886467 49.6796175,51.2223133 L49.1632929,52.4655133 L55.1618937,51.27318 L58.171222,54.4642467 L50.7826959,69.31918 C50.7826959,69.31918 39.4123601,71.55498 39.3876399,71.5321133 C39.4123601,71.55498 29.7729011,93.3324467 29.7729011,93.3324467 L3.14137127,98.9833133 L0.428684701,92.2899133 L9.72532649,85.6814467 L33.5219683,38.3115133 L18.680084,35.20958 L73.6530317,25.3349133 Z" id="Stroke-60" stroke="#D1AF7C" stroke-width="3.24393657"></path>
                    <path d="M62.4503731,41.6199 C61.0054104,41.9008333 45.3090485,45.1381 45.3090485,45.1381 L42.4531716,50.8748333 L49.3869403,52.3821667 C49.3869403,52.3821667 49.2120336,52.3532333 49.8477612,51.0871667 C51.5665112,50.7535 66.357556,47.7323 66.357556,47.7323 L78.0180037,30.6359667 L74.0058769,25.2156333 C74.0058769,25.2156333 63.3081157,40.3949 62.4503731,41.6199" id="Fill-62" fill="#009467"></path>
                    <path d="M46.7192164,63.1367333 C45.110541,63.4484667 35.3087687,65.3506 35.3087687,65.3506 L25.6487873,87.1873333 L0.621735075,92.1657333 L3.26492537,98.7765333 L29.4622201,93.3324 C29.4622201,93.3324 38.8875933,72.7309333 39.556903,71.3962667 C41.1744403,71.0826667 50.9524254,69.1861333 50.9524254,69.1861333 L58.5774254,54.3484667 L53.775653,48.6490667 C53.775653,48.6490667 47.5079291,61.5883333 46.7192164,63.1367333" id="Fill-64" fill="#009467"></path>
                    <polygon id="Fill-66" fill="#FEFEFE" points="25.4197761 87.1099133 0.597947761 92.1541133 9.8931903 85.5456467 33.6898321 38.1766467 18.6800373 35.20958 73.8218284 25.2000467 62.5788246 41.73498 45.3666045 45.0772467 42.4533582 50.8751133 53.8568097 48.6598467 46.6823694 62.9417133 35.2775187 65.15558"></polygon>
                    <polygon id="Stroke-68" stroke="#FEFEFE" stroke-width="0.5" points="25.4197761 87.1099133 0.597947761 92.1541133 9.8931903 85.5456467 33.6898321 38.1766467 18.6800373 35.20958 73.8218284 25.2000467 62.5788246 41.73498 45.3666045 45.0772467 42.4533582 50.8751133 53.8568097 48.6598467 46.6823694 62.9417133 35.2775187 65.15558"></polygon>
                </g>
                <g id="Group-95" transform="translate(98.414179, 0.286533)">
                    <path d="M98.7312034,30.7298133 C98.7312034,30.7298133 94.3804571,36.6308133 93.2689832,36.9038133 C93.7298041,34.9536133 94.9588153,27.97648 94.9588153,26.1933467 C94.9588153,21.4403467 93.4485541,17.5077467 91.1309235,15.5748133 L88.080084,13.0296133 L86.7493937,16.7783467 C86.7316698,16.82128 85.4448228,20.34648 83.2638526,23.4246133 C83.3375466,23.2575467 83.4103078,23.1175467 83.4835354,22.9453467 C84.1066698,21.48048 84.3706623,19.8826133 84.3706623,18.24788 C84.3706623,12.6292133 81.2451959,6.59241333 78.8543377,4.19981333 L75.0772854,0.42028 L74.164972,5.71321333 C74.1551772,5.76501333 73.1892257,11.0304133 67.0917444,17.1288133 C66.8543377,17.3682133 66.335681,17.7952133 65.6924907,18.30668 C65.8347481,17.4928133 65.9424907,16.69668 65.9424907,15.9682133 C65.9424907,12.3156133 64.3352146,9.77881333 63.1868937,8.72974667 L59.6085354,5.46121333 L58.6038713,10.2403467 C58.5978078,10.2632133 58.085681,12.6007467 55.6020056,16.0965467 C53.3230877,19.30488 51.2498601,21.7105467 49.4583489,23.5711467 C49.4177705,22.8072133 49.3841884,22.02088 49.2941698,21.3689467 C49.2848414,21.2947467 47.8226213,15.41288 43.9182369,13.55788 L41.2652519,11.5680133 C41.2652519,11.5680133 40.0385728,19.8107467 37.8286847,26.0076133 C35.670569,32.05748 32.9513526,35.9140133 29.3534049,39.9805467 C28.1808302,40.28668 25.6173974,40.8882133 23.4145056,41.02728 C17.301166,41.4188133 14.6896922,43.15528 12.4639459,45.8297467 C11.1938899,47.3529467 10.7890392,49.2042133 10.7890392,50.8375467 C10.7890392,52.0728133 11.0203825,53.1853467 11.2829757,53.9390133 C11.736334,55.2391467 12.3160914,56.3008133 13.0255131,57.15948 C12.0996735,57.4119467 11.4331623,57.69288 11.0996735,57.86228 C9.58194963,58.4848133 2.16916978,61.7496133 0.842677239,66.6155467 C0.549300373,67.6935467 0.426166045,68.70948 0.426166045,69.6647467 C0.426166045,72.15208 1.25965485,74.22128 2.07635261,75.85508 C3.22467351,78.1585467 5.92943097,82.08928 7.7451959,84.1020133 C11.8520056,88.65528 17.0385728,90.2494133 17.2554571,90.3152133 L21.545569,91.6032133 L20.7811101,87.1871467 C20.5763526,86.0125467 20.1285914,82.9115467 20.1285914,80.7569467 C20.1285914,80.3887467 20.1421175,80.04808 20.170569,79.7489467 L20.2368004,79.0755467 C20.2405317,79.0214133 20.2456623,78.9621467 20.253125,78.9075467 C22.9494869,79.9804133 28.4868004,81.4672133 36.3305504,79.99488 C41.1743004,79.08628 43.6071362,77.7712133 44.3020989,75.6833467 C44.8897854,75.8140133 45.471875,75.8980133 46.0409049,75.8863467 C57.8855877,75.6091467 63.7881063,73.3061467 69.7503265,70.5523467 C76.6808302,67.3505467 81.7260728,63.58128 89.2116138,57.7554133 C91.5371735,55.9466133 99.247528,49.3451467 100.852938,40.3557467 C101.576353,36.3055467 99.0255131,31.2884133 98.7312034,30.7298133" id="Fill-71" fill="#145185"></path>
                    <path d="M98.7312034,30.7298133 C98.7312034,30.7298133 94.3804571,36.6308133 93.2689832,36.9038133 C93.7298041,34.9536133 94.9588153,27.97648 94.9588153,26.1933467 C94.9588153,21.4403467 93.4485541,17.5077467 91.1309235,15.5748133 L88.080084,13.0296133 L86.7493937,16.7783467 C86.7316698,16.82128 85.4448228,20.34648 83.2638526,23.4246133 C83.3375466,23.2575467 83.4103078,23.1175467 83.4835354,22.9453467 C84.1066698,21.48048 84.3706623,19.8826133 84.3706623,18.24788 C84.3706623,12.6292133 81.2451959,6.59241333 78.8543377,4.19981333 L75.0772854,0.42028 L74.164972,5.71321333 C74.1551772,5.76501333 73.1892257,11.0304133 67.0917444,17.1288133 C66.8543377,17.3682133 66.335681,17.7952133 65.6924907,18.30668 C65.8347481,17.4928133 65.9424907,16.69668 65.9424907,15.9682133 C65.9424907,12.3156133 64.3352146,9.77881333 63.1868937,8.72974667 L59.6085354,5.46121333 L58.6038713,10.2403467 C58.5978078,10.2632133 58.085681,12.6007467 55.6020056,16.0965467 C53.3230877,19.30488 51.2498601,21.7105467 49.4583489,23.5711467 C49.4177705,22.8072133 49.3841884,22.02088 49.2941698,21.3689467 C49.2848414,21.2947467 47.8226213,15.41288 43.9182369,13.55788 L41.2652519,11.5680133 C41.2652519,11.5680133 40.0385728,19.8107467 37.8286847,26.0076133 C35.670569,32.05748 32.9513526,35.9140133 29.3534049,39.9805467 C28.1808302,40.28668 25.6173974,40.8882133 23.4145056,41.02728 C17.301166,41.4188133 14.6896922,43.15528 12.4639459,45.8297467 C11.1938899,47.3529467 10.7890392,49.2042133 10.7890392,50.8375467 C10.7890392,52.0728133 11.0203825,53.1853467 11.2829757,53.9390133 C11.736334,55.2391467 12.3160914,56.3008133 13.0255131,57.15948 C12.0996735,57.4119467 11.4331623,57.69288 11.0996735,57.86228 C9.58194963,58.4848133 2.16916978,61.7496133 0.842677239,66.6155467 C0.549300373,67.6935467 0.426166045,68.70948 0.426166045,69.6647467 C0.426166045,72.15208 1.25965485,74.22128 2.07635261,75.85508 C3.22467351,78.1585467 5.92943097,82.08928 7.7451959,84.1020133 C11.8520056,88.65528 17.0385728,90.2494133 17.2554571,90.3152133 L21.545569,91.6032133 L20.7811101,87.1871467 C20.5763526,86.0125467 20.1285914,82.9115467 20.1285914,80.7569467 C20.1285914,80.3887467 20.1421175,80.04808 20.170569,79.7489467 L20.2368004,79.0755467 C20.2405317,79.0214133 20.2456623,78.9621467 20.253125,78.9075467 C22.9494869,79.9804133 28.4868004,81.4672133 36.3305504,79.99488 C41.1743004,79.08628 43.6071362,77.7712133 44.3020989,75.6833467 C44.8897854,75.8140133 45.471875,75.8980133 46.0409049,75.8863467 C57.8855877,75.6091467 63.7881063,73.3061467 69.7503265,70.5523467 C76.6808302,67.3505467 81.7260728,63.58128 89.2116138,57.7554133 C91.5371735,55.9466133 99.247528,49.3451467 100.852938,40.3557467 C101.576353,36.3055467 99.0255131,31.2884133 98.7312034,30.7298133 Z" id="Stroke-73" stroke="#145185" stroke-width="3.83348881"></path>
                    <path d="M25.2557836,56.3745933 C22.9484142,57.0671267 20.7557836,57.5295933 17.6410448,56.8361267 C15.949347,56.4613933 14.642444,55.5663267 13.7189366,52.9119267 C13.4479478,52.13726 12.8434701,49.3671267 14.4101679,47.4859933 C16.1405784,45.40746 17.9852612,44.0223933 23.4097015,43.6761267 C26.6862873,43.46706 30.6965485,42.3419267 30.7338619,42.29946 C34.4866604,38.13446 37.7203358,33.93166 40.2548507,26.8215267 C42.563153,20.3563267 43.4866604,16.2001933 43.4866604,16.2001933 C44.75625,16.3159267 46.0864739,19.5559933 46.370056,21.62706 C46.7184701,24.1657267 46.9488806,27.8607933 44.6391791,30.9781267 C44.6391791,30.9781267 50.2954291,27.97606 57.6774254,17.5861933 C60.625653,13.4365933 61.1391791,10.7751933 61.1391791,10.6585267 C61.1391791,10.7751933 63.7954291,13.0837933 62.7553172,18.0477267 C61.9992537,21.6625267 57.1009328,27.8607933 57.1009328,27.8607933 C57.1009328,27.8607933 67.156903,20.6853267 68.8686567,18.9703267 C75.7916978,12.04406 76.7156716,6.04226 76.7156716,6.04226 C79.486194,8.81239333 82.88125,16.7499267 80.7557836,21.74186 C78.1018657,27.97606 75.7916978,30.16986 71.176959,33.28626 C71.176959,33.28626 78.5617537,32.24746 83.4087687,27.2825933 C87.0836754,23.5165933 89.1760261,17.5861933 89.1760261,17.5861933 C91.9460821,19.8947933 93.6778918,27.6293267 89.6377799,36.0573267 C87.6438433,40.22186 82.7142724,42.9835933 82.7142724,42.9835933 C85.4857276,44.8311267 89.1951493,43.19826 93.329944,39.7505267 C96.0995336,37.44286 96.0995336,31.9007267 96.0995336,31.9007267 C96.0995336,31.9007267 98.5235075,36.5193267 97.9451493,39.7505267 C96.7553172,46.4215267 91.486194,52.21846 87.3322761,55.45106 C79.6471082,61.4323267 74.9143657,64.91506 68.4083022,67.9185267 C62.4083022,70.6891267 56.7982276,72.74106 45.7958955,72.99866 C42.5762127,73.0733267 37.0239739,68.3809933 35.5239739,68.2657267 C25.2809701,67.47566 25.2557836,56.3745933 25.2557836,56.3745933" id="Fill-75" fill="#FEFEFE"></path>
                    <path d="M31.4285448,61.0549333 C31.4285448,61.0549333 31.4117537,56.9165333 38.470056,55.3765333 C45.5302239,53.8360667 53.1794776,50.372 53.1794776,50.372 C53.1794776,50.372 49.2564366,58.2227333 45.5633396,62.6089333 C38.9826493,70.4265333 31.4285448,61.0549333 31.4285448,61.0549333" id="Fill-77" fill="#145185"></path>
                    <path d="M46.6604478,58.6838 C46.6604478,62.1268667 43.8698694,64.9175333 40.4291045,64.9175333 C36.988806,64.9175333 34.1977612,62.1268667 34.1977612,58.6838 C34.1977612,55.2402667 36.988806,52.4500667 40.4291045,52.4500667 C43.8698694,52.4500667 46.6604478,55.2402667 46.6604478,58.6838" id="Fill-79" fill="#145185"></path>
                    <path d="M44.2359142,58.6838 C44.2359142,60.7870667 42.5306903,62.4932 40.4290112,62.4932 C38.3268657,62.4932 36.6216418,60.7870667 36.6216418,58.6838 C36.6216418,56.5805333 38.3268657,54.8744 40.4290112,54.8744 C42.5306903,54.8744 44.2359142,56.5805333 44.2359142,58.6838" id="Fill-81" fill="#009467"></path>
                    <path d="M44.2359142,58.6838 C44.2359142,60.7870667 42.5306903,62.4932 40.4290112,62.4932 C38.3268657,62.4932 36.6216418,60.7870667 36.6216418,58.6838 C36.6216418,56.5805333 38.3268657,54.8744 40.4290112,54.8744 C42.5306903,54.8744 44.2359142,56.5805333 44.2359142,58.6838 Z" id="Stroke-83" stroke="#009467" stroke-width="1.82369403"></path>
                    <path d="M41.1627332,59.0009933 C41.1627332,59.96466 40.3819496,60.7467933 39.4192631,60.7467933 C38.4542444,60.7467933 37.6762593,59.96466 37.6762593,59.0009933 C37.6762593,58.03826 38.4542444,57.2561267 39.4192631,57.2561267 C40.3819496,57.2561267 41.1627332,58.03826 41.1627332,59.0009933" id="Fill-85" fill="#FEFEFE"></path>
                    <path d="M54.1003731,40.5599133 C54.1003731,40.5599133 54.7916045,41.5497133 49.2528918,45.70538 C43.7141791,49.8615133 38.0672575,51.2293133 31.1978545,50.8914467 C25.4972948,50.61238 24.2748134,59.2037133 30.5621269,59.5588467 C35.356903,59.8290467 39.3331157,58.3371133 43.3116604,56.77938 C52.3027985,53.25978 56.2925373,50.3720467 57.3321828,45.87058 C58.7416978,39.7586467 54.1003731,40.5599133 54.1003731,40.5599133" id="Fill-87" fill="#145185"></path>
                    <path d="M50.7548507,35.1330933 C50.7548507,35.1330933 56.0025187,38.9522933 50.4656716,43.10796 C44.9250933,47.26456 39.2772388,48.6318933 32.4111007,48.29356 C26.7077425,48.0144933 25.4885261,56.6062933 31.7735075,56.9614267 C36.5668843,57.2320933 40.3705224,56.2604933 44.5249067,54.1814933 C53.1601679,49.8610933 57.6774254,47.2556933 58.079944,42.4154267 C58.5986007,36.1648933 50.7548507,35.1330933 50.7548507,35.1330933" id="Fill-89" fill="#FEFEFE"></path>
                    <path d="M37.8326959,43.6761733 C48.1848414,38.5965067 59.8644123,39.1845067 59.8644123,39.1845067 C59.8644123,39.1845067 51.2165578,41.1361067 45.1013526,43.2141733 C38.1083489,45.5909067 28.0845616,50.5011733 28.0845616,50.5011733 C28.0845616,50.5011733 31.7170243,46.6777733 37.8326959,43.6761733" id="Fill-91" fill="#FEFEFE"></path>
                    <path d="M89.8692631,51.2950667 C77.4103078,63.8796667 63.3902519,68.0348667 63.3902519,68.0348667 C63.3902519,68.0348667 77.0614272,60.1407333 83.8123601,54.1818667 C89.696222,48.9874 95.9644123,40.0222667 95.9644123,40.0222667 C95.9644123,40.0222667 96.2470616,44.8564667 89.8692631,51.2950667" id="Fill-93" fill="#FEFEFE"></path>
                </g>
                <path d="M110.401586,60.5864 C110.401586,60.5864 102.786381,63.7032667 101.747668,67.5126667 L101.747668,67.5126667 C100.970616,70.3691333 101.747668,72.7080667 102.786381,74.7856667 L102.786381,74.7856667 C103.825093,76.8642 106.39459,80.5966 108.033582,82.4152 L108.033582,82.4152 C111.672108,86.4458 116.284981,87.8313333 116.284981,87.8313333 L116.284981,87.8313333 C116.284981,87.8313333 115.361007,82.5211333 115.647388,79.6436667 L115.647388,79.6436667 C115.89319,77.2062667 115.995802,75.1408 117.034049,74.1015333 L117.034049,74.1015333 C118.071828,73.0632 120.204757,72.0328 123.609608,72.0234667 L123.609608,72.0234667 C127.015858,72.0155333 129.670243,70.0532 129.670243,70.0532 L129.670243,70.0532 L125.284981,66.822 C124.247201,66.4752667 124.885261,61.2705333 120.786847,60.2406 L120.786847,60.2406 C118.773787,59.7342667 117.046642,59.5555333 115.611474,59.5555333 L115.611474,59.5555333 C112.164646,59.5555333 110.401586,60.5864 110.401586,60.5864" id="Fill-96"></path>
                <g id="Group-104" transform="translate(103.078358, 59.553200)">
                    <path d="M30.0534515,11.4224133 C30.0534515,11.4224133 29.1285448,13.5014133 26.7064366,14.19488 C22.3804104,15.4320133 14.9932836,16.2804133 14.9932836,16.2804133 C21.7456157,18.3496133 20.7414179,19.80888 30.9755597,17.88808 C32.8211754,17.54088 40.2670709,16.0326133 35.1308769,13.2699467 C32.6896455,11.9581467 30.0534515,11.4224133 30.0534515,11.4224133" id="Fill-98" fill="#D1AF7C"></path>
                    <path d="M17.794916,0.68726 C17.794916,0.68726 14.1601213,-0.00527333333 13.2067631,0.340993333 C10.7720616,1.22626 6.98008396,2.42839333 5.15965485,3.45739333 C2.62793843,4.88726 -0.372994403,8.37746 0.48801306,12.1159267 C1.45209888,16.3005267 6.54678172,22.5921267 6.54678172,22.5921267 C-1.59034515,7.26726 4.72821828,6.14166 7.75620336,4.06452667 C9.26833022,3.02619333 17.794916,0.68726 17.794916,0.68726" id="Fill-100" fill="#FEFEFE"></path>
                    <path d="M20.6494869,8.30610667 C20.6494869,8.30610667 15.9773787,10.5573067 18.0534049,10.5573067 C20.1298974,10.5573067 23.5902519,10.0379067 23.5902519,10.0379067 L20.6494869,8.30610667 Z" id="Fill-102" fill="#145185"></path>
                </g>
            </g>
        </g>
    </g>
</svg>